G04 #@! TF.GenerationSoftware,KiCad,Pcbnew,(5.1.4)-1*
G04 #@! TF.CreationDate,2023-09-09T05:28:25-04:00*
G04 #@! TF.ProjectId,ThumbsUp,5468756d-6273-4557-902e-6b696361645f,rev?*
G04 #@! TF.SameCoordinates,Original*
G04 #@! TF.FileFunction,Copper,L1,Top*
G04 #@! TF.FilePolarity,Positive*
%FSLAX46Y46*%
G04 Gerber Fmt 4.6, Leading zero omitted, Abs format (unit mm)*
G04 Created by KiCad (PCBNEW (5.1.4)-1) date 2023-09-09 05:28:25*
%MOMM*%
%LPD*%
G04 APERTURE LIST*
%ADD10C,3.000000*%
%ADD11O,1.700000X1.700000*%
%ADD12R,1.700000X1.700000*%
%ADD13C,1.700000*%
%ADD14C,1.700000*%
%ADD15C,0.100000*%
%ADD16C,0.800000*%
%ADD17C,0.200000*%
G04 APERTURE END LIST*
D10*
X-150540000Y-418360061D03*
X-157840000Y-417010061D03*
X-112410000Y-402860061D03*
X-119710000Y-401510061D03*
D11*
X-106528141Y-413448713D03*
X-106528141Y-410908713D03*
X-106528141Y-408368713D03*
D12*
X-106528141Y-405828713D03*
D11*
X-132419330Y-417044574D03*
X-134959330Y-417044574D03*
X-137499330Y-417044574D03*
D12*
X-140039330Y-417044574D03*
D11*
X-145246620Y-416947892D03*
X-145246620Y-414407892D03*
X-145246620Y-411867892D03*
D12*
X-145246620Y-409327892D03*
D10*
X-131473954Y-402860061D03*
X-138773954Y-401510061D03*
D13*
X-111762864Y-393388390D03*
D14*
X-111762864Y-393388390D02*
X-111762864Y-393388390D01*
D13*
X-114216316Y-394045790D03*
D14*
X-114216316Y-394045790D02*
X-114216316Y-394045790D01*
D13*
X-116669767Y-394703191D03*
D14*
X-116669767Y-394703191D02*
X-116669767Y-394703191D01*
D13*
X-119123219Y-395360591D03*
D15*
G36*
X-120164252Y-394759550D02*
G01*
X-118522178Y-394319558D01*
X-118082186Y-395961632D01*
X-119724260Y-396401624D01*
X-120164252Y-394759550D01*
X-120164252Y-394759550D01*
G37*
D16*
X-128010000Y-407170000D03*
D17*
X-137499330Y-417044574D02*
X-137499330Y-415859330D01*
X-132210000Y-414570000D02*
X-128010000Y-410370000D01*
X-128010000Y-410370000D02*
X-128010000Y-407170000D01*
X-136210000Y-414570000D02*
X-132210000Y-414570000D01*
X-137499330Y-415859330D02*
X-136210000Y-414570000D01*
M02*
