%FSLAX45Y45*%
G04 Gerber Fmt 4.5, Leading zero omitted, Abs format (unit mm)*
G04 Created by KiCad (PCBNEW (5.1.4)-1) date 2023-09-09 05:28:28*
%MOMM*%
%LPD*%
G04 APERTURE LIST*
%ADD10C,0.050000*%
%ADD11C,0.200000*%
%ADD12C,0.300000*%
G04 APERTURE END LIST*
D10*
X-16417000Y-43229000D02*
X-14647000Y-43230000D01*
X-16478000Y-41644000D02*
X-16477000Y-43169000D01*
X-16358000Y-41510000D02*
X-16478000Y-41644000D01*
X-16477000Y-43169000D02*
X-16417000Y-43229000D01*
X-14662000Y-41056000D02*
X-16358000Y-41510000D01*
X-10469855Y-41517132D02*
X-14647000Y-43230000D01*
X-10949861Y-39313217D02*
X-11127158Y-39182619D01*
X-11127158Y-39182619D02*
X-14199856Y-40007338D01*
X-10759256Y-40019786D02*
X-10949861Y-39313217D01*
X-10759256Y-40019786D02*
X-10470385Y-40403131D01*
X-10469855Y-41517132D02*
X-10470385Y-40403131D01*
X-14662081Y-40805850D02*
X-14356862Y-40549556D01*
X-14199856Y-40007338D02*
X-14355680Y-40157437D01*
X-14662000Y-41056000D02*
X-14662081Y-40805850D01*
X-14356862Y-40549556D02*
X-14355680Y-40157437D01*
D11*
X-16119500Y-42188506D02*
X-15944500Y-42363506D01*
X-15944500Y-42188506D02*
X-16119500Y-42363506D01*
X-15103500Y-42188506D02*
X-14928500Y-42363506D01*
X-14928500Y-42188506D02*
X-15103500Y-42363506D01*
X-14212895Y-40638506D02*
X-14037895Y-40813506D01*
X-14037895Y-40638506D02*
X-14212895Y-40813506D01*
X-13196895Y-40638506D02*
X-13021895Y-40813506D01*
X-13021895Y-40638506D02*
X-13196895Y-40813506D01*
X-12306500Y-40638506D02*
X-12131500Y-40813506D01*
X-12131500Y-40638506D02*
X-12306500Y-40813506D01*
X-11290500Y-40638506D02*
X-11115500Y-40813506D01*
X-11115500Y-40638506D02*
X-11290500Y-40813506D01*
X-15636500Y-41701006D02*
G75*
G03X-15636500Y-41701006I-147500J0D01*
G01*
X-14906500Y-41836006D02*
G75*
G03X-14906500Y-41836006I-147500J0D01*
G01*
X-13729895Y-40151006D02*
G75*
G03X-13729895Y-40151006I-147500J0D01*
G01*
X-12999895Y-40286006D02*
G75*
G03X-12999895Y-40286006I-147500J0D01*
G01*
X-11823500Y-40151006D02*
G75*
G03X-11823500Y-40151006I-147500J0D01*
G01*
X-11093500Y-40286006D02*
G75*
G03X-11093500Y-40286006I-147500J0D01*
G01*
X-15778000Y-42634006D02*
X-15778000Y-42934006D01*
X-15928000Y-42784006D02*
X-15628000Y-42784006D01*
X-15143000Y-42380006D02*
X-15143000Y-42680006D01*
X-15293000Y-42530006D02*
X-14993000Y-42530006D01*
X-13871395Y-41084006D02*
X-13871395Y-41384006D01*
X-14021395Y-41234006D02*
X-13721395Y-41234006D01*
X-13236395Y-40830006D02*
X-13236395Y-41130006D01*
X-13386395Y-40980006D02*
X-13086395Y-40980006D01*
X-11965000Y-41084006D02*
X-11965000Y-41384006D01*
X-12115000Y-41234006D02*
X-11815000Y-41234006D01*
X-11330000Y-40830006D02*
X-11330000Y-41130006D01*
X-11480000Y-40980006D02*
X-11180000Y-40980006D01*
X-15345454Y-42454552D02*
X-15345454Y-42097460D01*
X-15702546Y-42097460D01*
X-15702546Y-42454552D01*
X-15345454Y-42454552D01*
X-13438849Y-40904552D02*
X-13438849Y-40547460D01*
X-13795942Y-40547460D01*
X-13795942Y-40904552D01*
X-13438849Y-40904552D01*
X-11532454Y-40904552D02*
X-11532454Y-40547460D01*
X-11889546Y-40547460D01*
X-11889546Y-40904552D01*
X-11532454Y-40904552D01*
D12*
X-16194071Y-43698214D02*
X-16194071Y-43398214D01*
X-16122643Y-43398214D01*
X-16079786Y-43412500D01*
X-16051214Y-43441072D01*
X-16036929Y-43469643D01*
X-16022643Y-43526786D01*
X-16022643Y-43569643D01*
X-16036929Y-43626786D01*
X-16051214Y-43655357D01*
X-16079786Y-43683929D01*
X-16122643Y-43698214D01*
X-16194071Y-43698214D01*
X-15894071Y-43698214D02*
X-15894071Y-43498214D01*
X-15894071Y-43555357D02*
X-15879786Y-43526786D01*
X-15865500Y-43512500D01*
X-15836929Y-43498214D01*
X-15808357Y-43498214D01*
X-15708357Y-43698214D02*
X-15708357Y-43498214D01*
X-15708357Y-43398214D02*
X-15722643Y-43412500D01*
X-15708357Y-43426786D01*
X-15694071Y-43412500D01*
X-15708357Y-43398214D01*
X-15708357Y-43426786D01*
X-15522643Y-43698214D02*
X-15551214Y-43683929D01*
X-15565500Y-43655357D01*
X-15565500Y-43398214D01*
X-15365500Y-43698214D02*
X-15394071Y-43683929D01*
X-15408357Y-43655357D01*
X-15408357Y-43398214D01*
X-15022643Y-43698214D02*
X-15022643Y-43398214D01*
X-14922643Y-43612500D01*
X-14822643Y-43398214D01*
X-14822643Y-43698214D01*
X-14551214Y-43698214D02*
X-14551214Y-43541072D01*
X-14565500Y-43512500D01*
X-14594071Y-43498214D01*
X-14651214Y-43498214D01*
X-14679786Y-43512500D01*
X-14551214Y-43683929D02*
X-14579786Y-43698214D01*
X-14651214Y-43698214D01*
X-14679786Y-43683929D01*
X-14694071Y-43655357D01*
X-14694071Y-43626786D01*
X-14679786Y-43598214D01*
X-14651214Y-43583929D01*
X-14579786Y-43583929D01*
X-14551214Y-43569643D01*
X-14408357Y-43498214D02*
X-14408357Y-43798214D01*
X-14408357Y-43512500D02*
X-14379786Y-43498214D01*
X-14322643Y-43498214D01*
X-14294071Y-43512500D01*
X-14279786Y-43526786D01*
X-14265500Y-43555357D01*
X-14265500Y-43641072D01*
X-14279786Y-43669643D01*
X-14294071Y-43683929D01*
X-14322643Y-43698214D01*
X-14379786Y-43698214D01*
X-14408357Y-43683929D01*
X-14136929Y-43669643D02*
X-14122643Y-43683929D01*
X-14136929Y-43698214D01*
X-14151214Y-43683929D01*
X-14136929Y-43669643D01*
X-14136929Y-43698214D01*
X-14136929Y-43512500D02*
X-14122643Y-43526786D01*
X-14136929Y-43541072D01*
X-14151214Y-43526786D01*
X-14136929Y-43512500D01*
X-14136929Y-43541072D01*
X-16655500Y-44105000D02*
X-16480500Y-44280000D01*
X-16480500Y-44105000D02*
X-16655500Y-44280000D01*
X-16036929Y-44328214D02*
X-16208357Y-44328214D01*
X-16122643Y-44328214D02*
X-16122643Y-44028214D01*
X-16151214Y-44071072D01*
X-16179786Y-44099643D01*
X-16208357Y-44113929D01*
X-15908357Y-44299643D02*
X-15894071Y-44313929D01*
X-15908357Y-44328214D01*
X-15922643Y-44313929D01*
X-15908357Y-44299643D01*
X-15908357Y-44328214D01*
X-15794071Y-44028214D02*
X-15594071Y-44028214D01*
X-15722643Y-44328214D01*
X-15336929Y-44028214D02*
X-15479786Y-44028214D01*
X-15494071Y-44171072D01*
X-15479786Y-44156786D01*
X-15451214Y-44142500D01*
X-15379786Y-44142500D01*
X-15351214Y-44156786D01*
X-15336929Y-44171072D01*
X-15322643Y-44199643D01*
X-15322643Y-44271072D01*
X-15336929Y-44299643D01*
X-15351214Y-44313929D01*
X-15379786Y-44328214D01*
X-15451214Y-44328214D01*
X-15479786Y-44313929D01*
X-15494071Y-44299643D01*
X-15194071Y-44328214D02*
X-15194071Y-44128214D01*
X-15194071Y-44156786D02*
X-15179786Y-44142500D01*
X-15151214Y-44128214D01*
X-15108357Y-44128214D01*
X-15079786Y-44142500D01*
X-15065500Y-44171072D01*
X-15065500Y-44328214D01*
X-15065500Y-44171072D02*
X-15051214Y-44142500D01*
X-15022643Y-44128214D01*
X-14979786Y-44128214D01*
X-14951214Y-44142500D01*
X-14936929Y-44171072D01*
X-14936929Y-44328214D01*
X-14794071Y-44328214D02*
X-14794071Y-44128214D01*
X-14794071Y-44156786D02*
X-14779786Y-44142500D01*
X-14751214Y-44128214D01*
X-14708357Y-44128214D01*
X-14679786Y-44142500D01*
X-14665500Y-44171072D01*
X-14665500Y-44328214D01*
X-14665500Y-44171072D02*
X-14651214Y-44142500D01*
X-14622643Y-44128214D01*
X-14579786Y-44128214D01*
X-14551214Y-44142500D01*
X-14536929Y-44171072D01*
X-14536929Y-44328214D01*
X-13951214Y-44013929D02*
X-14208357Y-44399643D01*
X-13565500Y-44028214D02*
X-13536929Y-44028214D01*
X-13508357Y-44042500D01*
X-13494071Y-44056786D01*
X-13479786Y-44085357D01*
X-13465500Y-44142500D01*
X-13465500Y-44213929D01*
X-13479786Y-44271072D01*
X-13494071Y-44299643D01*
X-13508357Y-44313929D01*
X-13536929Y-44328214D01*
X-13565500Y-44328214D01*
X-13594071Y-44313929D01*
X-13608357Y-44299643D01*
X-13622643Y-44271072D01*
X-13636929Y-44213929D01*
X-13636929Y-44142500D01*
X-13622643Y-44085357D01*
X-13608357Y-44056786D01*
X-13594071Y-44042500D01*
X-13565500Y-44028214D01*
X-13336929Y-44299643D02*
X-13322643Y-44313929D01*
X-13336929Y-44328214D01*
X-13351214Y-44313929D01*
X-13336929Y-44299643D01*
X-13336929Y-44328214D01*
X-13136929Y-44028214D02*
X-13108357Y-44028214D01*
X-13079786Y-44042500D01*
X-13065500Y-44056786D01*
X-13051214Y-44085357D01*
X-13036929Y-44142500D01*
X-13036929Y-44213929D01*
X-13051214Y-44271072D01*
X-13065500Y-44299643D01*
X-13079786Y-44313929D01*
X-13108357Y-44328214D01*
X-13136929Y-44328214D01*
X-13165500Y-44313929D01*
X-13179786Y-44299643D01*
X-13194071Y-44271072D01*
X-13208357Y-44213929D01*
X-13208357Y-44142500D01*
X-13194071Y-44085357D01*
X-13179786Y-44056786D01*
X-13165500Y-44042500D01*
X-13136929Y-44028214D01*
X-12779786Y-44028214D02*
X-12836929Y-44028214D01*
X-12865500Y-44042500D01*
X-12879786Y-44056786D01*
X-12908357Y-44099643D01*
X-12922643Y-44156786D01*
X-12922643Y-44271072D01*
X-12908357Y-44299643D01*
X-12894071Y-44313929D01*
X-12865500Y-44328214D01*
X-12808357Y-44328214D01*
X-12779786Y-44313929D01*
X-12765500Y-44299643D01*
X-12751214Y-44271072D01*
X-12751214Y-44199643D01*
X-12765500Y-44171072D01*
X-12779786Y-44156786D01*
X-12808357Y-44142500D01*
X-12865500Y-44142500D01*
X-12894071Y-44156786D01*
X-12908357Y-44171072D01*
X-12922643Y-44199643D01*
X-12608357Y-44328214D02*
X-12551214Y-44328214D01*
X-12522643Y-44313929D01*
X-12508357Y-44299643D01*
X-12479786Y-44256786D01*
X-12465500Y-44199643D01*
X-12465500Y-44085357D01*
X-12479786Y-44056786D01*
X-12494071Y-44042500D01*
X-12522643Y-44028214D01*
X-12579786Y-44028214D01*
X-12608357Y-44042500D01*
X-12622643Y-44056786D01*
X-12636929Y-44085357D01*
X-12636929Y-44156786D01*
X-12622643Y-44185357D01*
X-12608357Y-44199643D01*
X-12579786Y-44213929D01*
X-12522643Y-44213929D01*
X-12494071Y-44199643D01*
X-12479786Y-44185357D01*
X-12465500Y-44156786D01*
X-12351214Y-44028214D02*
X-12351214Y-44085357D01*
X-12236929Y-44028214D02*
X-12236929Y-44085357D01*
X-11794071Y-44442500D02*
X-11808357Y-44428214D01*
X-11836929Y-44385357D01*
X-11851214Y-44356786D01*
X-11865500Y-44313929D01*
X-11879786Y-44242500D01*
X-11879786Y-44185357D01*
X-11865500Y-44113929D01*
X-11851214Y-44071072D01*
X-11836929Y-44042500D01*
X-11808357Y-43999643D01*
X-11794071Y-43985357D01*
X-11551214Y-44028214D02*
X-11608357Y-44028214D01*
X-11636929Y-44042500D01*
X-11651214Y-44056786D01*
X-11679786Y-44099643D01*
X-11694071Y-44156786D01*
X-11694071Y-44271072D01*
X-11679786Y-44299643D01*
X-11665500Y-44313929D01*
X-11636929Y-44328214D01*
X-11579786Y-44328214D01*
X-11551214Y-44313929D01*
X-11536929Y-44299643D01*
X-11522643Y-44271072D01*
X-11522643Y-44199643D01*
X-11536929Y-44171072D01*
X-11551214Y-44156786D01*
X-11579786Y-44142500D01*
X-11636929Y-44142500D01*
X-11665500Y-44156786D01*
X-11679786Y-44171072D01*
X-11694071Y-44199643D01*
X-11165500Y-44328214D02*
X-11165500Y-44028214D01*
X-11036929Y-44328214D02*
X-11036929Y-44171072D01*
X-11051214Y-44142500D01*
X-11079786Y-44128214D01*
X-11122643Y-44128214D01*
X-11151214Y-44142500D01*
X-11165500Y-44156786D01*
X-10851214Y-44328214D02*
X-10879786Y-44313929D01*
X-10894072Y-44299643D01*
X-10908357Y-44271072D01*
X-10908357Y-44185357D01*
X-10894072Y-44156786D01*
X-10879786Y-44142500D01*
X-10851214Y-44128214D01*
X-10808357Y-44128214D01*
X-10779786Y-44142500D01*
X-10765500Y-44156786D01*
X-10751214Y-44185357D01*
X-10751214Y-44271072D01*
X-10765500Y-44299643D01*
X-10779786Y-44313929D01*
X-10808357Y-44328214D01*
X-10851214Y-44328214D01*
X-10579786Y-44328214D02*
X-10608357Y-44313929D01*
X-10622643Y-44285357D01*
X-10622643Y-44028214D01*
X-10351214Y-44313929D02*
X-10379786Y-44328214D01*
X-10436929Y-44328214D01*
X-10465500Y-44313929D01*
X-10479786Y-44285357D01*
X-10479786Y-44171072D01*
X-10465500Y-44142500D01*
X-10436929Y-44128214D01*
X-10379786Y-44128214D01*
X-10351214Y-44142500D01*
X-10336929Y-44171072D01*
X-10336929Y-44199643D01*
X-10479786Y-44228214D01*
X-10222643Y-44313929D02*
X-10194072Y-44328214D01*
X-10136929Y-44328214D01*
X-10108357Y-44313929D01*
X-10094072Y-44285357D01*
X-10094072Y-44271072D01*
X-10108357Y-44242500D01*
X-10136929Y-44228214D01*
X-10179786Y-44228214D01*
X-10208357Y-44213929D01*
X-10222643Y-44185357D01*
X-10222643Y-44171072D01*
X-10208357Y-44142500D01*
X-10179786Y-44128214D01*
X-10136929Y-44128214D01*
X-10108357Y-44142500D01*
X-9994072Y-44442500D02*
X-9979786Y-44428214D01*
X-9951214Y-44385357D01*
X-9936929Y-44356786D01*
X-9922643Y-44313929D01*
X-9908357Y-44242500D01*
X-9908357Y-44185357D01*
X-9922643Y-44113929D01*
X-9936929Y-44071072D01*
X-9951214Y-44042500D01*
X-9979786Y-43999643D01*
X-9994072Y-43985357D01*
X-9451214Y-44442500D02*
X-9465500Y-44428214D01*
X-9494072Y-44385357D01*
X-9508357Y-44356786D01*
X-9522643Y-44313929D01*
X-9536929Y-44242500D01*
X-9536929Y-44185357D01*
X-9522643Y-44113929D01*
X-9508357Y-44071072D01*
X-9494072Y-44042500D01*
X-9465500Y-43999643D01*
X-9451214Y-43985357D01*
X-9336929Y-44128214D02*
X-9336929Y-44328214D01*
X-9336929Y-44156786D02*
X-9322643Y-44142500D01*
X-9294072Y-44128214D01*
X-9251214Y-44128214D01*
X-9222643Y-44142500D01*
X-9208357Y-44171072D01*
X-9208357Y-44328214D01*
X-9022643Y-44328214D02*
X-9051214Y-44313929D01*
X-9065500Y-44299643D01*
X-9079786Y-44271072D01*
X-9079786Y-44185357D01*
X-9065500Y-44156786D01*
X-9051214Y-44142500D01*
X-9022643Y-44128214D01*
X-8979786Y-44128214D01*
X-8951214Y-44142500D01*
X-8936929Y-44156786D01*
X-8922643Y-44185357D01*
X-8922643Y-44271072D01*
X-8936929Y-44299643D01*
X-8951214Y-44313929D01*
X-8979786Y-44328214D01*
X-9022643Y-44328214D01*
X-8836929Y-44128214D02*
X-8722643Y-44128214D01*
X-8794072Y-44028214D02*
X-8794072Y-44285357D01*
X-8779786Y-44313929D01*
X-8751214Y-44328214D01*
X-8722643Y-44328214D01*
X-8394072Y-44128214D02*
X-8394072Y-44428214D01*
X-8394072Y-44142500D02*
X-8365500Y-44128214D01*
X-8308357Y-44128214D01*
X-8279786Y-44142500D01*
X-8265500Y-44156786D01*
X-8251214Y-44185357D01*
X-8251214Y-44271072D01*
X-8265500Y-44299643D01*
X-8279786Y-44313929D01*
X-8308357Y-44328214D01*
X-8365500Y-44328214D01*
X-8394072Y-44313929D01*
X-8079786Y-44328214D02*
X-8108357Y-44313929D01*
X-8122643Y-44285357D01*
X-8122643Y-44028214D01*
X-7836929Y-44328214D02*
X-7836929Y-44171072D01*
X-7851214Y-44142500D01*
X-7879786Y-44128214D01*
X-7936929Y-44128214D01*
X-7965500Y-44142500D01*
X-7836929Y-44313929D02*
X-7865500Y-44328214D01*
X-7936929Y-44328214D01*
X-7965500Y-44313929D01*
X-7979786Y-44285357D01*
X-7979786Y-44256786D01*
X-7965500Y-44228214D01*
X-7936929Y-44213929D01*
X-7865500Y-44213929D01*
X-7836929Y-44199643D01*
X-7736929Y-44128214D02*
X-7622643Y-44128214D01*
X-7694071Y-44028214D02*
X-7694071Y-44285357D01*
X-7679786Y-44313929D01*
X-7651214Y-44328214D01*
X-7622643Y-44328214D01*
X-7408357Y-44313929D02*
X-7436929Y-44328214D01*
X-7494071Y-44328214D01*
X-7522643Y-44313929D01*
X-7536929Y-44285357D01*
X-7536929Y-44171072D01*
X-7522643Y-44142500D01*
X-7494071Y-44128214D01*
X-7436929Y-44128214D01*
X-7408357Y-44142500D01*
X-7394071Y-44171072D01*
X-7394071Y-44199643D01*
X-7536929Y-44228214D01*
X-7136929Y-44328214D02*
X-7136929Y-44028214D01*
X-7136929Y-44313929D02*
X-7165500Y-44328214D01*
X-7222643Y-44328214D01*
X-7251214Y-44313929D01*
X-7265500Y-44299643D01*
X-7279786Y-44271072D01*
X-7279786Y-44185357D01*
X-7265500Y-44156786D01*
X-7251214Y-44142500D01*
X-7222643Y-44128214D01*
X-7165500Y-44128214D01*
X-7136929Y-44142500D01*
X-7022643Y-44442500D02*
X-7008357Y-44428214D01*
X-6979786Y-44385357D01*
X-6965500Y-44356786D01*
X-6951214Y-44313929D01*
X-6936929Y-44242500D01*
X-6936929Y-44185357D01*
X-6951214Y-44113929D01*
X-6965500Y-44071072D01*
X-6979786Y-44042500D01*
X-7008357Y-43999643D01*
X-7022643Y-43985357D01*
X-16480500Y-44588500D02*
G75*
G03X-16480500Y-44588500I-147500J0D01*
G01*
X-16208357Y-44452786D02*
X-16194071Y-44438500D01*
X-16165500Y-44424214D01*
X-16094071Y-44424214D01*
X-16065500Y-44438500D01*
X-16051214Y-44452786D01*
X-16036929Y-44481357D01*
X-16036929Y-44509929D01*
X-16051214Y-44552786D01*
X-16222643Y-44724214D01*
X-16036929Y-44724214D01*
X-15908357Y-44695643D02*
X-15894071Y-44709929D01*
X-15908357Y-44724214D01*
X-15922643Y-44709929D01*
X-15908357Y-44695643D01*
X-15908357Y-44724214D01*
X-15751214Y-44724214D02*
X-15694071Y-44724214D01*
X-15665500Y-44709929D01*
X-15651214Y-44695643D01*
X-15622643Y-44652786D01*
X-15608357Y-44595643D01*
X-15608357Y-44481357D01*
X-15622643Y-44452786D01*
X-15636929Y-44438500D01*
X-15665500Y-44424214D01*
X-15722643Y-44424214D01*
X-15751214Y-44438500D01*
X-15765500Y-44452786D01*
X-15779786Y-44481357D01*
X-15779786Y-44552786D01*
X-15765500Y-44581357D01*
X-15751214Y-44595643D01*
X-15722643Y-44609929D01*
X-15665500Y-44609929D01*
X-15636929Y-44595643D01*
X-15622643Y-44581357D01*
X-15608357Y-44552786D01*
X-15336929Y-44424214D02*
X-15479786Y-44424214D01*
X-15494071Y-44567072D01*
X-15479786Y-44552786D01*
X-15451214Y-44538500D01*
X-15379786Y-44538500D01*
X-15351214Y-44552786D01*
X-15336929Y-44567072D01*
X-15322643Y-44595643D01*
X-15322643Y-44667072D01*
X-15336929Y-44695643D01*
X-15351214Y-44709929D01*
X-15379786Y-44724214D01*
X-15451214Y-44724214D01*
X-15479786Y-44709929D01*
X-15494071Y-44695643D01*
X-15194071Y-44724214D02*
X-15194071Y-44524214D01*
X-15194071Y-44552786D02*
X-15179786Y-44538500D01*
X-15151214Y-44524214D01*
X-15108357Y-44524214D01*
X-15079786Y-44538500D01*
X-15065500Y-44567072D01*
X-15065500Y-44724214D01*
X-15065500Y-44567072D02*
X-15051214Y-44538500D01*
X-15022643Y-44524214D01*
X-14979786Y-44524214D01*
X-14951214Y-44538500D01*
X-14936929Y-44567072D01*
X-14936929Y-44724214D01*
X-14794071Y-44724214D02*
X-14794071Y-44524214D01*
X-14794071Y-44552786D02*
X-14779786Y-44538500D01*
X-14751214Y-44524214D01*
X-14708357Y-44524214D01*
X-14679786Y-44538500D01*
X-14665500Y-44567072D01*
X-14665500Y-44724214D01*
X-14665500Y-44567072D02*
X-14651214Y-44538500D01*
X-14622643Y-44524214D01*
X-14579786Y-44524214D01*
X-14551214Y-44538500D01*
X-14536929Y-44567072D01*
X-14536929Y-44724214D01*
X-13951214Y-44409929D02*
X-14208357Y-44795643D01*
X-13565500Y-44424214D02*
X-13536929Y-44424214D01*
X-13508357Y-44438500D01*
X-13494071Y-44452786D01*
X-13479786Y-44481357D01*
X-13465500Y-44538500D01*
X-13465500Y-44609929D01*
X-13479786Y-44667072D01*
X-13494071Y-44695643D01*
X-13508357Y-44709929D01*
X-13536929Y-44724214D01*
X-13565500Y-44724214D01*
X-13594071Y-44709929D01*
X-13608357Y-44695643D01*
X-13622643Y-44667072D01*
X-13636929Y-44609929D01*
X-13636929Y-44538500D01*
X-13622643Y-44481357D01*
X-13608357Y-44452786D01*
X-13594071Y-44438500D01*
X-13565500Y-44424214D01*
X-13336929Y-44695643D02*
X-13322643Y-44709929D01*
X-13336929Y-44724214D01*
X-13351214Y-44709929D01*
X-13336929Y-44695643D01*
X-13336929Y-44724214D01*
X-13036929Y-44724214D02*
X-13208357Y-44724214D01*
X-13122643Y-44724214D02*
X-13122643Y-44424214D01*
X-13151214Y-44467072D01*
X-13179786Y-44495643D01*
X-13208357Y-44509929D01*
X-12751214Y-44724214D02*
X-12922643Y-44724214D01*
X-12836929Y-44724214D02*
X-12836929Y-44424214D01*
X-12865500Y-44467072D01*
X-12894071Y-44495643D01*
X-12922643Y-44509929D01*
X-12494071Y-44424214D02*
X-12551214Y-44424214D01*
X-12579786Y-44438500D01*
X-12594071Y-44452786D01*
X-12622643Y-44495643D01*
X-12636929Y-44552786D01*
X-12636929Y-44667072D01*
X-12622643Y-44695643D01*
X-12608357Y-44709929D01*
X-12579786Y-44724214D01*
X-12522643Y-44724214D01*
X-12494071Y-44709929D01*
X-12479786Y-44695643D01*
X-12465500Y-44667072D01*
X-12465500Y-44595643D01*
X-12479786Y-44567072D01*
X-12494071Y-44552786D01*
X-12522643Y-44538500D01*
X-12579786Y-44538500D01*
X-12608357Y-44552786D01*
X-12622643Y-44567072D01*
X-12636929Y-44595643D01*
X-12351214Y-44424214D02*
X-12351214Y-44481357D01*
X-12236929Y-44424214D02*
X-12236929Y-44481357D01*
X-11794071Y-44838500D02*
X-11808357Y-44824214D01*
X-11836929Y-44781357D01*
X-11851214Y-44752786D01*
X-11865500Y-44709929D01*
X-11879786Y-44638500D01*
X-11879786Y-44581357D01*
X-11865500Y-44509929D01*
X-11851214Y-44467072D01*
X-11836929Y-44438500D01*
X-11808357Y-44395643D01*
X-11794071Y-44381357D01*
X-11551214Y-44424214D02*
X-11608357Y-44424214D01*
X-11636929Y-44438500D01*
X-11651214Y-44452786D01*
X-11679786Y-44495643D01*
X-11694071Y-44552786D01*
X-11694071Y-44667072D01*
X-11679786Y-44695643D01*
X-11665500Y-44709929D01*
X-11636929Y-44724214D01*
X-11579786Y-44724214D01*
X-11551214Y-44709929D01*
X-11536929Y-44695643D01*
X-11522643Y-44667072D01*
X-11522643Y-44595643D01*
X-11536929Y-44567072D01*
X-11551214Y-44552786D01*
X-11579786Y-44538500D01*
X-11636929Y-44538500D01*
X-11665500Y-44552786D01*
X-11679786Y-44567072D01*
X-11694071Y-44595643D01*
X-11165500Y-44724214D02*
X-11165500Y-44424214D01*
X-11036929Y-44724214D02*
X-11036929Y-44567072D01*
X-11051214Y-44538500D01*
X-11079786Y-44524214D01*
X-11122643Y-44524214D01*
X-11151214Y-44538500D01*
X-11165500Y-44552786D01*
X-10851214Y-44724214D02*
X-10879786Y-44709929D01*
X-10894072Y-44695643D01*
X-10908357Y-44667072D01*
X-10908357Y-44581357D01*
X-10894072Y-44552786D01*
X-10879786Y-44538500D01*
X-10851214Y-44524214D01*
X-10808357Y-44524214D01*
X-10779786Y-44538500D01*
X-10765500Y-44552786D01*
X-10751214Y-44581357D01*
X-10751214Y-44667072D01*
X-10765500Y-44695643D01*
X-10779786Y-44709929D01*
X-10808357Y-44724214D01*
X-10851214Y-44724214D01*
X-10579786Y-44724214D02*
X-10608357Y-44709929D01*
X-10622643Y-44681357D01*
X-10622643Y-44424214D01*
X-10351214Y-44709929D02*
X-10379786Y-44724214D01*
X-10436929Y-44724214D01*
X-10465500Y-44709929D01*
X-10479786Y-44681357D01*
X-10479786Y-44567072D01*
X-10465500Y-44538500D01*
X-10436929Y-44524214D01*
X-10379786Y-44524214D01*
X-10351214Y-44538500D01*
X-10336929Y-44567072D01*
X-10336929Y-44595643D01*
X-10479786Y-44624214D01*
X-10222643Y-44709929D02*
X-10194072Y-44724214D01*
X-10136929Y-44724214D01*
X-10108357Y-44709929D01*
X-10094072Y-44681357D01*
X-10094072Y-44667072D01*
X-10108357Y-44638500D01*
X-10136929Y-44624214D01*
X-10179786Y-44624214D01*
X-10208357Y-44609929D01*
X-10222643Y-44581357D01*
X-10222643Y-44567072D01*
X-10208357Y-44538500D01*
X-10179786Y-44524214D01*
X-10136929Y-44524214D01*
X-10108357Y-44538500D01*
X-9994072Y-44838500D02*
X-9979786Y-44824214D01*
X-9951214Y-44781357D01*
X-9936929Y-44752786D01*
X-9922643Y-44709929D01*
X-9908357Y-44638500D01*
X-9908357Y-44581357D01*
X-9922643Y-44509929D01*
X-9936929Y-44467072D01*
X-9951214Y-44438500D01*
X-9979786Y-44395643D01*
X-9994072Y-44381357D01*
X-9451214Y-44838500D02*
X-9465500Y-44824214D01*
X-9494072Y-44781357D01*
X-9508357Y-44752786D01*
X-9522643Y-44709929D01*
X-9536929Y-44638500D01*
X-9536929Y-44581357D01*
X-9522643Y-44509929D01*
X-9508357Y-44467072D01*
X-9494072Y-44438500D01*
X-9465500Y-44395643D01*
X-9451214Y-44381357D01*
X-9336929Y-44524214D02*
X-9336929Y-44724214D01*
X-9336929Y-44552786D02*
X-9322643Y-44538500D01*
X-9294072Y-44524214D01*
X-9251214Y-44524214D01*
X-9222643Y-44538500D01*
X-9208357Y-44567072D01*
X-9208357Y-44724214D01*
X-9022643Y-44724214D02*
X-9051214Y-44709929D01*
X-9065500Y-44695643D01*
X-9079786Y-44667072D01*
X-9079786Y-44581357D01*
X-9065500Y-44552786D01*
X-9051214Y-44538500D01*
X-9022643Y-44524214D01*
X-8979786Y-44524214D01*
X-8951214Y-44538500D01*
X-8936929Y-44552786D01*
X-8922643Y-44581357D01*
X-8922643Y-44667072D01*
X-8936929Y-44695643D01*
X-8951214Y-44709929D01*
X-8979786Y-44724214D01*
X-9022643Y-44724214D01*
X-8836929Y-44524214D02*
X-8722643Y-44524214D01*
X-8794072Y-44424214D02*
X-8794072Y-44681357D01*
X-8779786Y-44709929D01*
X-8751214Y-44724214D01*
X-8722643Y-44724214D01*
X-8394072Y-44524214D02*
X-8394072Y-44824214D01*
X-8394072Y-44538500D02*
X-8365500Y-44524214D01*
X-8308357Y-44524214D01*
X-8279786Y-44538500D01*
X-8265500Y-44552786D01*
X-8251214Y-44581357D01*
X-8251214Y-44667072D01*
X-8265500Y-44695643D01*
X-8279786Y-44709929D01*
X-8308357Y-44724214D01*
X-8365500Y-44724214D01*
X-8394072Y-44709929D01*
X-8079786Y-44724214D02*
X-8108357Y-44709929D01*
X-8122643Y-44681357D01*
X-8122643Y-44424214D01*
X-7836929Y-44724214D02*
X-7836929Y-44567072D01*
X-7851214Y-44538500D01*
X-7879786Y-44524214D01*
X-7936929Y-44524214D01*
X-7965500Y-44538500D01*
X-7836929Y-44709929D02*
X-7865500Y-44724214D01*
X-7936929Y-44724214D01*
X-7965500Y-44709929D01*
X-7979786Y-44681357D01*
X-7979786Y-44652786D01*
X-7965500Y-44624214D01*
X-7936929Y-44609929D01*
X-7865500Y-44609929D01*
X-7836929Y-44595643D01*
X-7736929Y-44524214D02*
X-7622643Y-44524214D01*
X-7694071Y-44424214D02*
X-7694071Y-44681357D01*
X-7679786Y-44709929D01*
X-7651214Y-44724214D01*
X-7622643Y-44724214D01*
X-7408357Y-44709929D02*
X-7436929Y-44724214D01*
X-7494071Y-44724214D01*
X-7522643Y-44709929D01*
X-7536929Y-44681357D01*
X-7536929Y-44567072D01*
X-7522643Y-44538500D01*
X-7494071Y-44524214D01*
X-7436929Y-44524214D01*
X-7408357Y-44538500D01*
X-7394071Y-44567072D01*
X-7394071Y-44595643D01*
X-7536929Y-44624214D01*
X-7136929Y-44724214D02*
X-7136929Y-44424214D01*
X-7136929Y-44709929D02*
X-7165500Y-44724214D01*
X-7222643Y-44724214D01*
X-7251214Y-44709929D01*
X-7265500Y-44695643D01*
X-7279786Y-44667072D01*
X-7279786Y-44581357D01*
X-7265500Y-44552786D01*
X-7251214Y-44538500D01*
X-7222643Y-44524214D01*
X-7165500Y-44524214D01*
X-7136929Y-44538500D01*
X-7022643Y-44838500D02*
X-7008357Y-44824214D01*
X-6979786Y-44781357D01*
X-6965500Y-44752786D01*
X-6951214Y-44709929D01*
X-6936929Y-44638500D01*
X-6936929Y-44581357D01*
X-6951214Y-44509929D01*
X-6965500Y-44467072D01*
X-6979786Y-44438500D01*
X-7008357Y-44395643D01*
X-7022643Y-44381357D01*
X-16630500Y-44863500D02*
X-16630500Y-45163500D01*
X-16780500Y-45013500D02*
X-16480500Y-45013500D01*
X-16222643Y-44849214D02*
X-16036929Y-44849214D01*
X-16136929Y-44963500D01*
X-16094071Y-44963500D01*
X-16065500Y-44977786D01*
X-16051214Y-44992071D01*
X-16036929Y-45020643D01*
X-16036929Y-45092071D01*
X-16051214Y-45120643D01*
X-16065500Y-45134929D01*
X-16094071Y-45149214D01*
X-16179786Y-45149214D01*
X-16208357Y-45134929D01*
X-16222643Y-45120643D01*
X-15908357Y-45120643D02*
X-15894071Y-45134929D01*
X-15908357Y-45149214D01*
X-15922643Y-45134929D01*
X-15908357Y-45120643D01*
X-15908357Y-45149214D01*
X-15708357Y-44849214D02*
X-15679786Y-44849214D01*
X-15651214Y-44863500D01*
X-15636929Y-44877786D01*
X-15622643Y-44906357D01*
X-15608357Y-44963500D01*
X-15608357Y-45034929D01*
X-15622643Y-45092071D01*
X-15636929Y-45120643D01*
X-15651214Y-45134929D01*
X-15679786Y-45149214D01*
X-15708357Y-45149214D01*
X-15736929Y-45134929D01*
X-15751214Y-45120643D01*
X-15765500Y-45092071D01*
X-15779786Y-45034929D01*
X-15779786Y-44963500D01*
X-15765500Y-44906357D01*
X-15751214Y-44877786D01*
X-15736929Y-44863500D01*
X-15708357Y-44849214D01*
X-15422643Y-44849214D02*
X-15394071Y-44849214D01*
X-15365500Y-44863500D01*
X-15351214Y-44877786D01*
X-15336929Y-44906357D01*
X-15322643Y-44963500D01*
X-15322643Y-45034929D01*
X-15336929Y-45092071D01*
X-15351214Y-45120643D01*
X-15365500Y-45134929D01*
X-15394071Y-45149214D01*
X-15422643Y-45149214D01*
X-15451214Y-45134929D01*
X-15465500Y-45120643D01*
X-15479786Y-45092071D01*
X-15494071Y-45034929D01*
X-15494071Y-44963500D01*
X-15479786Y-44906357D01*
X-15465500Y-44877786D01*
X-15451214Y-44863500D01*
X-15422643Y-44849214D01*
X-15194071Y-45149214D02*
X-15194071Y-44949214D01*
X-15194071Y-44977786D02*
X-15179786Y-44963500D01*
X-15151214Y-44949214D01*
X-15108357Y-44949214D01*
X-15079786Y-44963500D01*
X-15065500Y-44992071D01*
X-15065500Y-45149214D01*
X-15065500Y-44992071D02*
X-15051214Y-44963500D01*
X-15022643Y-44949214D01*
X-14979786Y-44949214D01*
X-14951214Y-44963500D01*
X-14936929Y-44992071D01*
X-14936929Y-45149214D01*
X-14794071Y-45149214D02*
X-14794071Y-44949214D01*
X-14794071Y-44977786D02*
X-14779786Y-44963500D01*
X-14751214Y-44949214D01*
X-14708357Y-44949214D01*
X-14679786Y-44963500D01*
X-14665500Y-44992071D01*
X-14665500Y-45149214D01*
X-14665500Y-44992071D02*
X-14651214Y-44963500D01*
X-14622643Y-44949214D01*
X-14579786Y-44949214D01*
X-14551214Y-44963500D01*
X-14536929Y-44992071D01*
X-14536929Y-45149214D01*
X-13951214Y-44834929D02*
X-14208357Y-45220643D01*
X-13565500Y-44849214D02*
X-13536929Y-44849214D01*
X-13508357Y-44863500D01*
X-13494071Y-44877786D01*
X-13479786Y-44906357D01*
X-13465500Y-44963500D01*
X-13465500Y-45034929D01*
X-13479786Y-45092071D01*
X-13494071Y-45120643D01*
X-13508357Y-45134929D01*
X-13536929Y-45149214D01*
X-13565500Y-45149214D01*
X-13594071Y-45134929D01*
X-13608357Y-45120643D01*
X-13622643Y-45092071D01*
X-13636929Y-45034929D01*
X-13636929Y-44963500D01*
X-13622643Y-44906357D01*
X-13608357Y-44877786D01*
X-13594071Y-44863500D01*
X-13565500Y-44849214D01*
X-13336929Y-45120643D02*
X-13322643Y-45134929D01*
X-13336929Y-45149214D01*
X-13351214Y-45134929D01*
X-13336929Y-45120643D01*
X-13336929Y-45149214D01*
X-13036929Y-45149214D02*
X-13208357Y-45149214D01*
X-13122643Y-45149214D02*
X-13122643Y-44849214D01*
X-13151214Y-44892071D01*
X-13179786Y-44920643D01*
X-13208357Y-44934929D01*
X-12751214Y-45149214D02*
X-12922643Y-45149214D01*
X-12836929Y-45149214D02*
X-12836929Y-44849214D01*
X-12865500Y-44892071D01*
X-12894071Y-44920643D01*
X-12922643Y-44934929D01*
X-12579786Y-44977786D02*
X-12608357Y-44963500D01*
X-12622643Y-44949214D01*
X-12636929Y-44920643D01*
X-12636929Y-44906357D01*
X-12622643Y-44877786D01*
X-12608357Y-44863500D01*
X-12579786Y-44849214D01*
X-12522643Y-44849214D01*
X-12494071Y-44863500D01*
X-12479786Y-44877786D01*
X-12465500Y-44906357D01*
X-12465500Y-44920643D01*
X-12479786Y-44949214D01*
X-12494071Y-44963500D01*
X-12522643Y-44977786D01*
X-12579786Y-44977786D01*
X-12608357Y-44992071D01*
X-12622643Y-45006357D01*
X-12636929Y-45034929D01*
X-12636929Y-45092071D01*
X-12622643Y-45120643D01*
X-12608357Y-45134929D01*
X-12579786Y-45149214D01*
X-12522643Y-45149214D01*
X-12494071Y-45134929D01*
X-12479786Y-45120643D01*
X-12465500Y-45092071D01*
X-12465500Y-45034929D01*
X-12479786Y-45006357D01*
X-12494071Y-44992071D01*
X-12522643Y-44977786D01*
X-12351214Y-44849214D02*
X-12351214Y-44906357D01*
X-12236929Y-44849214D02*
X-12236929Y-44906357D01*
X-11794071Y-45263500D02*
X-11808357Y-45249214D01*
X-11836929Y-45206357D01*
X-11851214Y-45177786D01*
X-11865500Y-45134929D01*
X-11879786Y-45063500D01*
X-11879786Y-45006357D01*
X-11865500Y-44934929D01*
X-11851214Y-44892071D01*
X-11836929Y-44863500D01*
X-11808357Y-44820643D01*
X-11794071Y-44806357D01*
X-11551214Y-44849214D02*
X-11608357Y-44849214D01*
X-11636929Y-44863500D01*
X-11651214Y-44877786D01*
X-11679786Y-44920643D01*
X-11694071Y-44977786D01*
X-11694071Y-45092071D01*
X-11679786Y-45120643D01*
X-11665500Y-45134929D01*
X-11636929Y-45149214D01*
X-11579786Y-45149214D01*
X-11551214Y-45134929D01*
X-11536929Y-45120643D01*
X-11522643Y-45092071D01*
X-11522643Y-45020643D01*
X-11536929Y-44992071D01*
X-11551214Y-44977786D01*
X-11579786Y-44963500D01*
X-11636929Y-44963500D01*
X-11665500Y-44977786D01*
X-11679786Y-44992071D01*
X-11694071Y-45020643D01*
X-11165500Y-45149214D02*
X-11165500Y-44849214D01*
X-11036929Y-45149214D02*
X-11036929Y-44992071D01*
X-11051214Y-44963500D01*
X-11079786Y-44949214D01*
X-11122643Y-44949214D01*
X-11151214Y-44963500D01*
X-11165500Y-44977786D01*
X-10851214Y-45149214D02*
X-10879786Y-45134929D01*
X-10894072Y-45120643D01*
X-10908357Y-45092071D01*
X-10908357Y-45006357D01*
X-10894072Y-44977786D01*
X-10879786Y-44963500D01*
X-10851214Y-44949214D01*
X-10808357Y-44949214D01*
X-10779786Y-44963500D01*
X-10765500Y-44977786D01*
X-10751214Y-45006357D01*
X-10751214Y-45092071D01*
X-10765500Y-45120643D01*
X-10779786Y-45134929D01*
X-10808357Y-45149214D01*
X-10851214Y-45149214D01*
X-10579786Y-45149214D02*
X-10608357Y-45134929D01*
X-10622643Y-45106357D01*
X-10622643Y-44849214D01*
X-10351214Y-45134929D02*
X-10379786Y-45149214D01*
X-10436929Y-45149214D01*
X-10465500Y-45134929D01*
X-10479786Y-45106357D01*
X-10479786Y-44992071D01*
X-10465500Y-44963500D01*
X-10436929Y-44949214D01*
X-10379786Y-44949214D01*
X-10351214Y-44963500D01*
X-10336929Y-44992071D01*
X-10336929Y-45020643D01*
X-10479786Y-45049214D01*
X-10222643Y-45134929D02*
X-10194072Y-45149214D01*
X-10136929Y-45149214D01*
X-10108357Y-45134929D01*
X-10094072Y-45106357D01*
X-10094072Y-45092071D01*
X-10108357Y-45063500D01*
X-10136929Y-45049214D01*
X-10179786Y-45049214D01*
X-10208357Y-45034929D01*
X-10222643Y-45006357D01*
X-10222643Y-44992071D01*
X-10208357Y-44963500D01*
X-10179786Y-44949214D01*
X-10136929Y-44949214D01*
X-10108357Y-44963500D01*
X-9994072Y-45263500D02*
X-9979786Y-45249214D01*
X-9951214Y-45206357D01*
X-9936929Y-45177786D01*
X-9922643Y-45134929D01*
X-9908357Y-45063500D01*
X-9908357Y-45006357D01*
X-9922643Y-44934929D01*
X-9936929Y-44892071D01*
X-9951214Y-44863500D01*
X-9979786Y-44820643D01*
X-9994072Y-44806357D01*
X-9451214Y-45263500D02*
X-9465500Y-45249214D01*
X-9494072Y-45206357D01*
X-9508357Y-45177786D01*
X-9522643Y-45134929D01*
X-9536929Y-45063500D01*
X-9536929Y-45006357D01*
X-9522643Y-44934929D01*
X-9508357Y-44892071D01*
X-9494072Y-44863500D01*
X-9465500Y-44820643D01*
X-9451214Y-44806357D01*
X-9336929Y-44949214D02*
X-9336929Y-45149214D01*
X-9336929Y-44977786D02*
X-9322643Y-44963500D01*
X-9294072Y-44949214D01*
X-9251214Y-44949214D01*
X-9222643Y-44963500D01*
X-9208357Y-44992071D01*
X-9208357Y-45149214D01*
X-9022643Y-45149214D02*
X-9051214Y-45134929D01*
X-9065500Y-45120643D01*
X-9079786Y-45092071D01*
X-9079786Y-45006357D01*
X-9065500Y-44977786D01*
X-9051214Y-44963500D01*
X-9022643Y-44949214D01*
X-8979786Y-44949214D01*
X-8951214Y-44963500D01*
X-8936929Y-44977786D01*
X-8922643Y-45006357D01*
X-8922643Y-45092071D01*
X-8936929Y-45120643D01*
X-8951214Y-45134929D01*
X-8979786Y-45149214D01*
X-9022643Y-45149214D01*
X-8836929Y-44949214D02*
X-8722643Y-44949214D01*
X-8794072Y-44849214D02*
X-8794072Y-45106357D01*
X-8779786Y-45134929D01*
X-8751214Y-45149214D01*
X-8722643Y-45149214D01*
X-8394072Y-44949214D02*
X-8394072Y-45249214D01*
X-8394072Y-44963500D02*
X-8365500Y-44949214D01*
X-8308357Y-44949214D01*
X-8279786Y-44963500D01*
X-8265500Y-44977786D01*
X-8251214Y-45006357D01*
X-8251214Y-45092071D01*
X-8265500Y-45120643D01*
X-8279786Y-45134929D01*
X-8308357Y-45149214D01*
X-8365500Y-45149214D01*
X-8394072Y-45134929D01*
X-8079786Y-45149214D02*
X-8108357Y-45134929D01*
X-8122643Y-45106357D01*
X-8122643Y-44849214D01*
X-7836929Y-45149214D02*
X-7836929Y-44992071D01*
X-7851214Y-44963500D01*
X-7879786Y-44949214D01*
X-7936929Y-44949214D01*
X-7965500Y-44963500D01*
X-7836929Y-45134929D02*
X-7865500Y-45149214D01*
X-7936929Y-45149214D01*
X-7965500Y-45134929D01*
X-7979786Y-45106357D01*
X-7979786Y-45077786D01*
X-7965500Y-45049214D01*
X-7936929Y-45034929D01*
X-7865500Y-45034929D01*
X-7836929Y-45020643D01*
X-7736929Y-44949214D02*
X-7622643Y-44949214D01*
X-7694071Y-44849214D02*
X-7694071Y-45106357D01*
X-7679786Y-45134929D01*
X-7651214Y-45149214D01*
X-7622643Y-45149214D01*
X-7408357Y-45134929D02*
X-7436929Y-45149214D01*
X-7494071Y-45149214D01*
X-7522643Y-45134929D01*
X-7536929Y-45106357D01*
X-7536929Y-44992071D01*
X-7522643Y-44963500D01*
X-7494071Y-44949214D01*
X-7436929Y-44949214D01*
X-7408357Y-44963500D01*
X-7394071Y-44992071D01*
X-7394071Y-45020643D01*
X-7536929Y-45049214D01*
X-7136929Y-45149214D02*
X-7136929Y-44849214D01*
X-7136929Y-45134929D02*
X-7165500Y-45149214D01*
X-7222643Y-45149214D01*
X-7251214Y-45134929D01*
X-7265500Y-45120643D01*
X-7279786Y-45092071D01*
X-7279786Y-45006357D01*
X-7265500Y-44977786D01*
X-7251214Y-44963500D01*
X-7222643Y-44949214D01*
X-7165500Y-44949214D01*
X-7136929Y-44963500D01*
X-7022643Y-45263500D02*
X-7008357Y-45249214D01*
X-6979786Y-45206357D01*
X-6965500Y-45177786D01*
X-6951214Y-45134929D01*
X-6936929Y-45063500D01*
X-6936929Y-45006357D01*
X-6951214Y-44934929D01*
X-6965500Y-44892071D01*
X-6979786Y-44863500D01*
X-7008357Y-44820643D01*
X-7022643Y-44806357D01*
X-16554454Y-45622046D02*
X-16554454Y-45264954D01*
X-16911546Y-45264954D01*
X-16911546Y-45622046D01*
X-16554454Y-45622046D01*
X-16051214Y-45279214D02*
X-16194071Y-45279214D01*
X-16208357Y-45422071D01*
X-16194071Y-45407786D01*
X-16165500Y-45393500D01*
X-16094071Y-45393500D01*
X-16065500Y-45407786D01*
X-16051214Y-45422071D01*
X-16036929Y-45450643D01*
X-16036929Y-45522071D01*
X-16051214Y-45550643D01*
X-16065500Y-45564929D01*
X-16094071Y-45579214D01*
X-16165500Y-45579214D01*
X-16194071Y-45564929D01*
X-16208357Y-45550643D01*
X-15908357Y-45550643D02*
X-15894071Y-45564929D01*
X-15908357Y-45579214D01*
X-15922643Y-45564929D01*
X-15908357Y-45550643D01*
X-15908357Y-45579214D01*
X-15708357Y-45279214D02*
X-15679786Y-45279214D01*
X-15651214Y-45293500D01*
X-15636929Y-45307786D01*
X-15622643Y-45336357D01*
X-15608357Y-45393500D01*
X-15608357Y-45464929D01*
X-15622643Y-45522071D01*
X-15636929Y-45550643D01*
X-15651214Y-45564929D01*
X-15679786Y-45579214D01*
X-15708357Y-45579214D01*
X-15736929Y-45564929D01*
X-15751214Y-45550643D01*
X-15765500Y-45522071D01*
X-15779786Y-45464929D01*
X-15779786Y-45393500D01*
X-15765500Y-45336357D01*
X-15751214Y-45307786D01*
X-15736929Y-45293500D01*
X-15708357Y-45279214D01*
X-15336929Y-45279214D02*
X-15479786Y-45279214D01*
X-15494071Y-45422071D01*
X-15479786Y-45407786D01*
X-15451214Y-45393500D01*
X-15379786Y-45393500D01*
X-15351214Y-45407786D01*
X-15336929Y-45422071D01*
X-15322643Y-45450643D01*
X-15322643Y-45522071D01*
X-15336929Y-45550643D01*
X-15351214Y-45564929D01*
X-15379786Y-45579214D01*
X-15451214Y-45579214D01*
X-15479786Y-45564929D01*
X-15494071Y-45550643D01*
X-15194071Y-45579214D02*
X-15194071Y-45379214D01*
X-15194071Y-45407786D02*
X-15179786Y-45393500D01*
X-15151214Y-45379214D01*
X-15108357Y-45379214D01*
X-15079786Y-45393500D01*
X-15065500Y-45422071D01*
X-15065500Y-45579214D01*
X-15065500Y-45422071D02*
X-15051214Y-45393500D01*
X-15022643Y-45379214D01*
X-14979786Y-45379214D01*
X-14951214Y-45393500D01*
X-14936929Y-45422071D01*
X-14936929Y-45579214D01*
X-14794071Y-45579214D02*
X-14794071Y-45379214D01*
X-14794071Y-45407786D02*
X-14779786Y-45393500D01*
X-14751214Y-45379214D01*
X-14708357Y-45379214D01*
X-14679786Y-45393500D01*
X-14665500Y-45422071D01*
X-14665500Y-45579214D01*
X-14665500Y-45422071D02*
X-14651214Y-45393500D01*
X-14622643Y-45379214D01*
X-14579786Y-45379214D01*
X-14551214Y-45393500D01*
X-14536929Y-45422071D01*
X-14536929Y-45579214D01*
X-13951214Y-45264929D02*
X-14208357Y-45650643D01*
X-13565500Y-45279214D02*
X-13536929Y-45279214D01*
X-13508357Y-45293500D01*
X-13494071Y-45307786D01*
X-13479786Y-45336357D01*
X-13465500Y-45393500D01*
X-13465500Y-45464929D01*
X-13479786Y-45522071D01*
X-13494071Y-45550643D01*
X-13508357Y-45564929D01*
X-13536929Y-45579214D01*
X-13565500Y-45579214D01*
X-13594071Y-45564929D01*
X-13608357Y-45550643D01*
X-13622643Y-45522071D01*
X-13636929Y-45464929D01*
X-13636929Y-45393500D01*
X-13622643Y-45336357D01*
X-13608357Y-45307786D01*
X-13594071Y-45293500D01*
X-13565500Y-45279214D01*
X-13336929Y-45550643D02*
X-13322643Y-45564929D01*
X-13336929Y-45579214D01*
X-13351214Y-45564929D01*
X-13336929Y-45550643D01*
X-13336929Y-45579214D01*
X-13036929Y-45579214D02*
X-13208357Y-45579214D01*
X-13122643Y-45579214D02*
X-13122643Y-45279214D01*
X-13151214Y-45322071D01*
X-13179786Y-45350643D01*
X-13208357Y-45364929D01*
X-12894071Y-45579214D02*
X-12836929Y-45579214D01*
X-12808357Y-45564929D01*
X-12794071Y-45550643D01*
X-12765500Y-45507786D01*
X-12751214Y-45450643D01*
X-12751214Y-45336357D01*
X-12765500Y-45307786D01*
X-12779786Y-45293500D01*
X-12808357Y-45279214D01*
X-12865500Y-45279214D01*
X-12894071Y-45293500D01*
X-12908357Y-45307786D01*
X-12922643Y-45336357D01*
X-12922643Y-45407786D01*
X-12908357Y-45436357D01*
X-12894071Y-45450643D01*
X-12865500Y-45464929D01*
X-12808357Y-45464929D01*
X-12779786Y-45450643D01*
X-12765500Y-45436357D01*
X-12751214Y-45407786D01*
X-12608357Y-45579214D02*
X-12551214Y-45579214D01*
X-12522643Y-45564929D01*
X-12508357Y-45550643D01*
X-12479786Y-45507786D01*
X-12465500Y-45450643D01*
X-12465500Y-45336357D01*
X-12479786Y-45307786D01*
X-12494071Y-45293500D01*
X-12522643Y-45279214D01*
X-12579786Y-45279214D01*
X-12608357Y-45293500D01*
X-12622643Y-45307786D01*
X-12636929Y-45336357D01*
X-12636929Y-45407786D01*
X-12622643Y-45436357D01*
X-12608357Y-45450643D01*
X-12579786Y-45464929D01*
X-12522643Y-45464929D01*
X-12494071Y-45450643D01*
X-12479786Y-45436357D01*
X-12465500Y-45407786D01*
X-12351214Y-45279214D02*
X-12351214Y-45336357D01*
X-12236929Y-45279214D02*
X-12236929Y-45336357D01*
X-11794071Y-45693500D02*
X-11808357Y-45679214D01*
X-11836929Y-45636357D01*
X-11851214Y-45607786D01*
X-11865500Y-45564929D01*
X-11879786Y-45493500D01*
X-11879786Y-45436357D01*
X-11865500Y-45364929D01*
X-11851214Y-45322071D01*
X-11836929Y-45293500D01*
X-11808357Y-45250643D01*
X-11794071Y-45236357D01*
X-11708357Y-45279214D02*
X-11522643Y-45279214D01*
X-11622643Y-45393500D01*
X-11579786Y-45393500D01*
X-11551214Y-45407786D01*
X-11536929Y-45422071D01*
X-11522643Y-45450643D01*
X-11522643Y-45522071D01*
X-11536929Y-45550643D01*
X-11551214Y-45564929D01*
X-11579786Y-45579214D01*
X-11665500Y-45579214D01*
X-11694071Y-45564929D01*
X-11708357Y-45550643D01*
X-11165500Y-45579214D02*
X-11165500Y-45279214D01*
X-11036929Y-45579214D02*
X-11036929Y-45422071D01*
X-11051214Y-45393500D01*
X-11079786Y-45379214D01*
X-11122643Y-45379214D01*
X-11151214Y-45393500D01*
X-11165500Y-45407786D01*
X-10851214Y-45579214D02*
X-10879786Y-45564929D01*
X-10894072Y-45550643D01*
X-10908357Y-45522071D01*
X-10908357Y-45436357D01*
X-10894072Y-45407786D01*
X-10879786Y-45393500D01*
X-10851214Y-45379214D01*
X-10808357Y-45379214D01*
X-10779786Y-45393500D01*
X-10765500Y-45407786D01*
X-10751214Y-45436357D01*
X-10751214Y-45522071D01*
X-10765500Y-45550643D01*
X-10779786Y-45564929D01*
X-10808357Y-45579214D01*
X-10851214Y-45579214D01*
X-10579786Y-45579214D02*
X-10608357Y-45564929D01*
X-10622643Y-45536357D01*
X-10622643Y-45279214D01*
X-10351214Y-45564929D02*
X-10379786Y-45579214D01*
X-10436929Y-45579214D01*
X-10465500Y-45564929D01*
X-10479786Y-45536357D01*
X-10479786Y-45422071D01*
X-10465500Y-45393500D01*
X-10436929Y-45379214D01*
X-10379786Y-45379214D01*
X-10351214Y-45393500D01*
X-10336929Y-45422071D01*
X-10336929Y-45450643D01*
X-10479786Y-45479214D01*
X-10222643Y-45564929D02*
X-10194072Y-45579214D01*
X-10136929Y-45579214D01*
X-10108357Y-45564929D01*
X-10094072Y-45536357D01*
X-10094072Y-45522071D01*
X-10108357Y-45493500D01*
X-10136929Y-45479214D01*
X-10179786Y-45479214D01*
X-10208357Y-45464929D01*
X-10222643Y-45436357D01*
X-10222643Y-45422071D01*
X-10208357Y-45393500D01*
X-10179786Y-45379214D01*
X-10136929Y-45379214D01*
X-10108357Y-45393500D01*
X-9994072Y-45693500D02*
X-9979786Y-45679214D01*
X-9951214Y-45636357D01*
X-9936929Y-45607786D01*
X-9922643Y-45564929D01*
X-9908357Y-45493500D01*
X-9908357Y-45436357D01*
X-9922643Y-45364929D01*
X-9936929Y-45322071D01*
X-9951214Y-45293500D01*
X-9979786Y-45250643D01*
X-9994072Y-45236357D01*
X-9451214Y-45693500D02*
X-9465500Y-45679214D01*
X-9494072Y-45636357D01*
X-9508357Y-45607786D01*
X-9522643Y-45564929D01*
X-9536929Y-45493500D01*
X-9536929Y-45436357D01*
X-9522643Y-45364929D01*
X-9508357Y-45322071D01*
X-9494072Y-45293500D01*
X-9465500Y-45250643D01*
X-9451214Y-45236357D01*
X-9336929Y-45379214D02*
X-9336929Y-45579214D01*
X-9336929Y-45407786D02*
X-9322643Y-45393500D01*
X-9294072Y-45379214D01*
X-9251214Y-45379214D01*
X-9222643Y-45393500D01*
X-9208357Y-45422071D01*
X-9208357Y-45579214D01*
X-9022643Y-45579214D02*
X-9051214Y-45564929D01*
X-9065500Y-45550643D01*
X-9079786Y-45522071D01*
X-9079786Y-45436357D01*
X-9065500Y-45407786D01*
X-9051214Y-45393500D01*
X-9022643Y-45379214D01*
X-8979786Y-45379214D01*
X-8951214Y-45393500D01*
X-8936929Y-45407786D01*
X-8922643Y-45436357D01*
X-8922643Y-45522071D01*
X-8936929Y-45550643D01*
X-8951214Y-45564929D01*
X-8979786Y-45579214D01*
X-9022643Y-45579214D01*
X-8836929Y-45379214D02*
X-8722643Y-45379214D01*
X-8794072Y-45279214D02*
X-8794072Y-45536357D01*
X-8779786Y-45564929D01*
X-8751214Y-45579214D01*
X-8722643Y-45579214D01*
X-8394072Y-45379214D02*
X-8394072Y-45679214D01*
X-8394072Y-45393500D02*
X-8365500Y-45379214D01*
X-8308357Y-45379214D01*
X-8279786Y-45393500D01*
X-8265500Y-45407786D01*
X-8251214Y-45436357D01*
X-8251214Y-45522071D01*
X-8265500Y-45550643D01*
X-8279786Y-45564929D01*
X-8308357Y-45579214D01*
X-8365500Y-45579214D01*
X-8394072Y-45564929D01*
X-8079786Y-45579214D02*
X-8108357Y-45564929D01*
X-8122643Y-45536357D01*
X-8122643Y-45279214D01*
X-7836929Y-45579214D02*
X-7836929Y-45422071D01*
X-7851214Y-45393500D01*
X-7879786Y-45379214D01*
X-7936929Y-45379214D01*
X-7965500Y-45393500D01*
X-7836929Y-45564929D02*
X-7865500Y-45579214D01*
X-7936929Y-45579214D01*
X-7965500Y-45564929D01*
X-7979786Y-45536357D01*
X-7979786Y-45507786D01*
X-7965500Y-45479214D01*
X-7936929Y-45464929D01*
X-7865500Y-45464929D01*
X-7836929Y-45450643D01*
X-7736929Y-45379214D02*
X-7622643Y-45379214D01*
X-7694071Y-45279214D02*
X-7694071Y-45536357D01*
X-7679786Y-45564929D01*
X-7651214Y-45579214D01*
X-7622643Y-45579214D01*
X-7408357Y-45564929D02*
X-7436929Y-45579214D01*
X-7494071Y-45579214D01*
X-7522643Y-45564929D01*
X-7536929Y-45536357D01*
X-7536929Y-45422071D01*
X-7522643Y-45393500D01*
X-7494071Y-45379214D01*
X-7436929Y-45379214D01*
X-7408357Y-45393500D01*
X-7394071Y-45422071D01*
X-7394071Y-45450643D01*
X-7536929Y-45479214D01*
X-7136929Y-45579214D02*
X-7136929Y-45279214D01*
X-7136929Y-45564929D02*
X-7165500Y-45579214D01*
X-7222643Y-45579214D01*
X-7251214Y-45564929D01*
X-7265500Y-45550643D01*
X-7279786Y-45522071D01*
X-7279786Y-45436357D01*
X-7265500Y-45407786D01*
X-7251214Y-45393500D01*
X-7222643Y-45379214D01*
X-7165500Y-45379214D01*
X-7136929Y-45393500D01*
X-7022643Y-45693500D02*
X-7008357Y-45679214D01*
X-6979786Y-45636357D01*
X-6965500Y-45607786D01*
X-6951214Y-45564929D01*
X-6936929Y-45493500D01*
X-6936929Y-45436357D01*
X-6951214Y-45364929D01*
X-6965500Y-45322071D01*
X-6979786Y-45293500D01*
X-7008357Y-45250643D01*
X-7022643Y-45236357D01*
M02*
