%FSLAX45Y45*%
G04 Gerber Fmt 4.5, Leading zero omitted, Abs format (unit mm)*
G04 Created by KiCad (PCBNEW (5.1.4)-1) date 2023-09-09 05:28:28*
%MOMM*%
%LPD*%
G04 APERTURE LIST*
%ADD10C,0.050000*%
%ADD11C,0.200000*%
%ADD12C,0.300000*%
G04 APERTURE END LIST*
D10*
X-16417000Y-43229000D02*
X-14647000Y-43230000D01*
X-16478000Y-41644000D02*
X-16477000Y-43169000D01*
X-16358000Y-41510000D02*
X-16478000Y-41644000D01*
X-16477000Y-43169000D02*
X-16417000Y-43229000D01*
X-14662000Y-41056000D02*
X-16358000Y-41510000D01*
X-10469855Y-41517132D02*
X-14647000Y-43230000D01*
X-10949861Y-39313217D02*
X-11127158Y-39182619D01*
X-11127158Y-39182619D02*
X-14199856Y-40007338D01*
X-10759256Y-40019786D02*
X-10949861Y-39313217D01*
X-10759256Y-40019786D02*
X-10470385Y-40403131D01*
X-10469855Y-41517132D02*
X-10470385Y-40403131D01*
X-14662081Y-40805850D02*
X-14356862Y-40549556D01*
X-14199856Y-40007338D02*
X-14355680Y-40157437D01*
X-14662000Y-41056000D02*
X-14662081Y-40805850D01*
X-14356862Y-40549556D02*
X-14355680Y-40157437D01*
D11*
X-12821000Y-40697000D02*
X-12781000Y-40737000D01*
X-12781000Y-40697000D02*
X-12821000Y-40737000D01*
X-10602814Y-40582871D02*
G75*
G03X-10602814Y-40582871I-50000J0D01*
G01*
X-10602814Y-40836871D02*
G75*
G03X-10602814Y-40836871I-50000J0D01*
G01*
X-10602814Y-41090871D02*
G75*
G03X-10602814Y-41090871I-50000J0D01*
G01*
X-10602814Y-41344871D02*
G75*
G03X-10602814Y-41344871I-50000J0D01*
G01*
X-11862322Y-39536059D02*
G75*
G03X-11862322Y-39536059I-50000J0D01*
G01*
X-11616977Y-39470319D02*
G75*
G03X-11616977Y-39470319I-50000J0D01*
G01*
X-11371632Y-39404579D02*
G75*
G03X-11371632Y-39404579I-50000J0D01*
G01*
X-11126286Y-39338839D02*
G75*
G03X-11126286Y-39338839I-50000J0D01*
G01*
X-13953933Y-41704457D02*
G75*
G03X-13953933Y-41704457I-50000J0D01*
G01*
X-13699933Y-41704457D02*
G75*
G03X-13699933Y-41704457I-50000J0D01*
G01*
X-13445933Y-41704457D02*
G75*
G03X-13445933Y-41704457I-50000J0D01*
G01*
X-13191933Y-41704457D02*
G75*
G03X-13191933Y-41704457I-50000J0D01*
G01*
X-14474662Y-40932789D02*
G75*
G03X-14474662Y-40932789I-50000J0D01*
G01*
X-14474662Y-41186789D02*
G75*
G03X-14474662Y-41186789I-50000J0D01*
G01*
X-14474662Y-41440789D02*
G75*
G03X-14474662Y-41440789I-50000J0D01*
G01*
X-14474662Y-41694789D02*
G75*
G03X-14474662Y-41694789I-50000J0D01*
G01*
D12*
X-16194071Y-43698214D02*
X-16194071Y-43398214D01*
X-16122643Y-43398214D01*
X-16079786Y-43412500D01*
X-16051214Y-43441072D01*
X-16036929Y-43469643D01*
X-16022643Y-43526786D01*
X-16022643Y-43569643D01*
X-16036929Y-43626786D01*
X-16051214Y-43655357D01*
X-16079786Y-43683929D01*
X-16122643Y-43698214D01*
X-16194071Y-43698214D01*
X-15894071Y-43698214D02*
X-15894071Y-43498214D01*
X-15894071Y-43555357D02*
X-15879786Y-43526786D01*
X-15865500Y-43512500D01*
X-15836929Y-43498214D01*
X-15808357Y-43498214D01*
X-15708357Y-43698214D02*
X-15708357Y-43498214D01*
X-15708357Y-43398214D02*
X-15722643Y-43412500D01*
X-15708357Y-43426786D01*
X-15694071Y-43412500D01*
X-15708357Y-43398214D01*
X-15708357Y-43426786D01*
X-15522643Y-43698214D02*
X-15551214Y-43683929D01*
X-15565500Y-43655357D01*
X-15565500Y-43398214D01*
X-15365500Y-43698214D02*
X-15394071Y-43683929D01*
X-15408357Y-43655357D01*
X-15408357Y-43398214D01*
X-15022643Y-43698214D02*
X-15022643Y-43398214D01*
X-14922643Y-43612500D01*
X-14822643Y-43398214D01*
X-14822643Y-43698214D01*
X-14551214Y-43698214D02*
X-14551214Y-43541072D01*
X-14565500Y-43512500D01*
X-14594071Y-43498214D01*
X-14651214Y-43498214D01*
X-14679786Y-43512500D01*
X-14551214Y-43683929D02*
X-14579786Y-43698214D01*
X-14651214Y-43698214D01*
X-14679786Y-43683929D01*
X-14694071Y-43655357D01*
X-14694071Y-43626786D01*
X-14679786Y-43598214D01*
X-14651214Y-43583929D01*
X-14579786Y-43583929D01*
X-14551214Y-43569643D01*
X-14408357Y-43498214D02*
X-14408357Y-43798214D01*
X-14408357Y-43512500D02*
X-14379786Y-43498214D01*
X-14322643Y-43498214D01*
X-14294071Y-43512500D01*
X-14279786Y-43526786D01*
X-14265500Y-43555357D01*
X-14265500Y-43641072D01*
X-14279786Y-43669643D01*
X-14294071Y-43683929D01*
X-14322643Y-43698214D01*
X-14379786Y-43698214D01*
X-14408357Y-43683929D01*
X-14136929Y-43669643D02*
X-14122643Y-43683929D01*
X-14136929Y-43698214D01*
X-14151214Y-43683929D01*
X-14136929Y-43669643D01*
X-14136929Y-43698214D01*
X-14136929Y-43512500D02*
X-14122643Y-43526786D01*
X-14136929Y-43541072D01*
X-14151214Y-43526786D01*
X-14136929Y-43512500D01*
X-14136929Y-43541072D01*
X-16520500Y-44172500D02*
X-16480500Y-44212500D01*
X-16480500Y-44172500D02*
X-16520500Y-44212500D01*
X-16136929Y-44028214D02*
X-16108357Y-44028214D01*
X-16079786Y-44042500D01*
X-16065500Y-44056786D01*
X-16051214Y-44085357D01*
X-16036929Y-44142500D01*
X-16036929Y-44213929D01*
X-16051214Y-44271072D01*
X-16065500Y-44299643D01*
X-16079786Y-44313929D01*
X-16108357Y-44328214D01*
X-16136929Y-44328214D01*
X-16165500Y-44313929D01*
X-16179786Y-44299643D01*
X-16194071Y-44271072D01*
X-16208357Y-44213929D01*
X-16208357Y-44142500D01*
X-16194071Y-44085357D01*
X-16179786Y-44056786D01*
X-16165500Y-44042500D01*
X-16136929Y-44028214D01*
X-15908357Y-44299643D02*
X-15894071Y-44313929D01*
X-15908357Y-44328214D01*
X-15922643Y-44313929D01*
X-15908357Y-44299643D01*
X-15908357Y-44328214D01*
X-15636929Y-44128214D02*
X-15636929Y-44328214D01*
X-15708357Y-44013929D02*
X-15779786Y-44228214D01*
X-15594071Y-44228214D01*
X-15422643Y-44028214D02*
X-15394071Y-44028214D01*
X-15365500Y-44042500D01*
X-15351214Y-44056786D01*
X-15336929Y-44085357D01*
X-15322643Y-44142500D01*
X-15322643Y-44213929D01*
X-15336929Y-44271072D01*
X-15351214Y-44299643D01*
X-15365500Y-44313929D01*
X-15394071Y-44328214D01*
X-15422643Y-44328214D01*
X-15451214Y-44313929D01*
X-15465500Y-44299643D01*
X-15479786Y-44271072D01*
X-15494071Y-44213929D01*
X-15494071Y-44142500D01*
X-15479786Y-44085357D01*
X-15465500Y-44056786D01*
X-15451214Y-44042500D01*
X-15422643Y-44028214D01*
X-15194071Y-44328214D02*
X-15194071Y-44128214D01*
X-15194071Y-44156786D02*
X-15179786Y-44142500D01*
X-15151214Y-44128214D01*
X-15108357Y-44128214D01*
X-15079786Y-44142500D01*
X-15065500Y-44171072D01*
X-15065500Y-44328214D01*
X-15065500Y-44171072D02*
X-15051214Y-44142500D01*
X-15022643Y-44128214D01*
X-14979786Y-44128214D01*
X-14951214Y-44142500D01*
X-14936929Y-44171072D01*
X-14936929Y-44328214D01*
X-14794071Y-44328214D02*
X-14794071Y-44128214D01*
X-14794071Y-44156786D02*
X-14779786Y-44142500D01*
X-14751214Y-44128214D01*
X-14708357Y-44128214D01*
X-14679786Y-44142500D01*
X-14665500Y-44171072D01*
X-14665500Y-44328214D01*
X-14665500Y-44171072D02*
X-14651214Y-44142500D01*
X-14622643Y-44128214D01*
X-14579786Y-44128214D01*
X-14551214Y-44142500D01*
X-14536929Y-44171072D01*
X-14536929Y-44328214D01*
X-13951214Y-44013929D02*
X-14208357Y-44399643D01*
X-13565500Y-44028214D02*
X-13536929Y-44028214D01*
X-13508357Y-44042500D01*
X-13494071Y-44056786D01*
X-13479786Y-44085357D01*
X-13465500Y-44142500D01*
X-13465500Y-44213929D01*
X-13479786Y-44271072D01*
X-13494071Y-44299643D01*
X-13508357Y-44313929D01*
X-13536929Y-44328214D01*
X-13565500Y-44328214D01*
X-13594071Y-44313929D01*
X-13608357Y-44299643D01*
X-13622643Y-44271072D01*
X-13636929Y-44213929D01*
X-13636929Y-44142500D01*
X-13622643Y-44085357D01*
X-13608357Y-44056786D01*
X-13594071Y-44042500D01*
X-13565500Y-44028214D01*
X-13336929Y-44299643D02*
X-13322643Y-44313929D01*
X-13336929Y-44328214D01*
X-13351214Y-44313929D01*
X-13336929Y-44299643D01*
X-13336929Y-44328214D01*
X-13136929Y-44028214D02*
X-13108357Y-44028214D01*
X-13079786Y-44042500D01*
X-13065500Y-44056786D01*
X-13051214Y-44085357D01*
X-13036929Y-44142500D01*
X-13036929Y-44213929D01*
X-13051214Y-44271072D01*
X-13065500Y-44299643D01*
X-13079786Y-44313929D01*
X-13108357Y-44328214D01*
X-13136929Y-44328214D01*
X-13165500Y-44313929D01*
X-13179786Y-44299643D01*
X-13194071Y-44271072D01*
X-13208357Y-44213929D01*
X-13208357Y-44142500D01*
X-13194071Y-44085357D01*
X-13179786Y-44056786D01*
X-13165500Y-44042500D01*
X-13136929Y-44028214D01*
X-12751214Y-44328214D02*
X-12922643Y-44328214D01*
X-12836929Y-44328214D02*
X-12836929Y-44028214D01*
X-12865500Y-44071072D01*
X-12894071Y-44099643D01*
X-12922643Y-44113929D01*
X-12494071Y-44028214D02*
X-12551214Y-44028214D01*
X-12579786Y-44042500D01*
X-12594071Y-44056786D01*
X-12622643Y-44099643D01*
X-12636929Y-44156786D01*
X-12636929Y-44271072D01*
X-12622643Y-44299643D01*
X-12608357Y-44313929D01*
X-12579786Y-44328214D01*
X-12522643Y-44328214D01*
X-12494071Y-44313929D01*
X-12479786Y-44299643D01*
X-12465500Y-44271072D01*
X-12465500Y-44199643D01*
X-12479786Y-44171072D01*
X-12494071Y-44156786D01*
X-12522643Y-44142500D01*
X-12579786Y-44142500D01*
X-12608357Y-44156786D01*
X-12622643Y-44171072D01*
X-12636929Y-44199643D01*
X-12351214Y-44028214D02*
X-12351214Y-44085357D01*
X-12236929Y-44028214D02*
X-12236929Y-44085357D01*
X-11794071Y-44442500D02*
X-11808357Y-44428214D01*
X-11836929Y-44385357D01*
X-11851214Y-44356786D01*
X-11865500Y-44313929D01*
X-11879786Y-44242500D01*
X-11879786Y-44185357D01*
X-11865500Y-44113929D01*
X-11851214Y-44071072D01*
X-11836929Y-44042500D01*
X-11808357Y-43999643D01*
X-11794071Y-43985357D01*
X-11522643Y-44328214D02*
X-11694071Y-44328214D01*
X-11608357Y-44328214D02*
X-11608357Y-44028214D01*
X-11636929Y-44071072D01*
X-11665500Y-44099643D01*
X-11694071Y-44113929D01*
X-11165500Y-44328214D02*
X-11165500Y-44028214D01*
X-11036929Y-44328214D02*
X-11036929Y-44171072D01*
X-11051214Y-44142500D01*
X-11079786Y-44128214D01*
X-11122643Y-44128214D01*
X-11151214Y-44142500D01*
X-11165500Y-44156786D01*
X-10851214Y-44328214D02*
X-10879786Y-44313929D01*
X-10894072Y-44299643D01*
X-10908357Y-44271072D01*
X-10908357Y-44185357D01*
X-10894072Y-44156786D01*
X-10879786Y-44142500D01*
X-10851214Y-44128214D01*
X-10808357Y-44128214D01*
X-10779786Y-44142500D01*
X-10765500Y-44156786D01*
X-10751214Y-44185357D01*
X-10751214Y-44271072D01*
X-10765500Y-44299643D01*
X-10779786Y-44313929D01*
X-10808357Y-44328214D01*
X-10851214Y-44328214D01*
X-10579786Y-44328214D02*
X-10608357Y-44313929D01*
X-10622643Y-44285357D01*
X-10622643Y-44028214D01*
X-10351214Y-44313929D02*
X-10379786Y-44328214D01*
X-10436929Y-44328214D01*
X-10465500Y-44313929D01*
X-10479786Y-44285357D01*
X-10479786Y-44171072D01*
X-10465500Y-44142500D01*
X-10436929Y-44128214D01*
X-10379786Y-44128214D01*
X-10351214Y-44142500D01*
X-10336929Y-44171072D01*
X-10336929Y-44199643D01*
X-10479786Y-44228214D01*
X-10236929Y-44442500D02*
X-10222643Y-44428214D01*
X-10194072Y-44385357D01*
X-10179786Y-44356786D01*
X-10165500Y-44313929D01*
X-10151214Y-44242500D01*
X-10151214Y-44185357D01*
X-10165500Y-44113929D01*
X-10179786Y-44071072D01*
X-10194072Y-44042500D01*
X-10222643Y-43999643D01*
X-10236929Y-43985357D01*
X-16480500Y-44588500D02*
G75*
G03X-16480500Y-44588500I-50000J0D01*
G01*
X-16036929Y-44724214D02*
X-16208357Y-44724214D01*
X-16122643Y-44724214D02*
X-16122643Y-44424214D01*
X-16151214Y-44467072D01*
X-16179786Y-44495643D01*
X-16208357Y-44509929D01*
X-15908357Y-44695643D02*
X-15894071Y-44709929D01*
X-15908357Y-44724214D01*
X-15922643Y-44709929D01*
X-15908357Y-44695643D01*
X-15908357Y-44724214D01*
X-15708357Y-44424214D02*
X-15679786Y-44424214D01*
X-15651214Y-44438500D01*
X-15636929Y-44452786D01*
X-15622643Y-44481357D01*
X-15608357Y-44538500D01*
X-15608357Y-44609929D01*
X-15622643Y-44667072D01*
X-15636929Y-44695643D01*
X-15651214Y-44709929D01*
X-15679786Y-44724214D01*
X-15708357Y-44724214D01*
X-15736929Y-44709929D01*
X-15751214Y-44695643D01*
X-15765500Y-44667072D01*
X-15779786Y-44609929D01*
X-15779786Y-44538500D01*
X-15765500Y-44481357D01*
X-15751214Y-44452786D01*
X-15736929Y-44438500D01*
X-15708357Y-44424214D01*
X-15422643Y-44424214D02*
X-15394071Y-44424214D01*
X-15365500Y-44438500D01*
X-15351214Y-44452786D01*
X-15336929Y-44481357D01*
X-15322643Y-44538500D01*
X-15322643Y-44609929D01*
X-15336929Y-44667072D01*
X-15351214Y-44695643D01*
X-15365500Y-44709929D01*
X-15394071Y-44724214D01*
X-15422643Y-44724214D01*
X-15451214Y-44709929D01*
X-15465500Y-44695643D01*
X-15479786Y-44667072D01*
X-15494071Y-44609929D01*
X-15494071Y-44538500D01*
X-15479786Y-44481357D01*
X-15465500Y-44452786D01*
X-15451214Y-44438500D01*
X-15422643Y-44424214D01*
X-15194071Y-44724214D02*
X-15194071Y-44524214D01*
X-15194071Y-44552786D02*
X-15179786Y-44538500D01*
X-15151214Y-44524214D01*
X-15108357Y-44524214D01*
X-15079786Y-44538500D01*
X-15065500Y-44567072D01*
X-15065500Y-44724214D01*
X-15065500Y-44567072D02*
X-15051214Y-44538500D01*
X-15022643Y-44524214D01*
X-14979786Y-44524214D01*
X-14951214Y-44538500D01*
X-14936929Y-44567072D01*
X-14936929Y-44724214D01*
X-14794071Y-44724214D02*
X-14794071Y-44524214D01*
X-14794071Y-44552786D02*
X-14779786Y-44538500D01*
X-14751214Y-44524214D01*
X-14708357Y-44524214D01*
X-14679786Y-44538500D01*
X-14665500Y-44567072D01*
X-14665500Y-44724214D01*
X-14665500Y-44567072D02*
X-14651214Y-44538500D01*
X-14622643Y-44524214D01*
X-14579786Y-44524214D01*
X-14551214Y-44538500D01*
X-14536929Y-44567072D01*
X-14536929Y-44724214D01*
X-13951214Y-44409929D02*
X-14208357Y-44795643D01*
X-13565500Y-44424214D02*
X-13536929Y-44424214D01*
X-13508357Y-44438500D01*
X-13494071Y-44452786D01*
X-13479786Y-44481357D01*
X-13465500Y-44538500D01*
X-13465500Y-44609929D01*
X-13479786Y-44667072D01*
X-13494071Y-44695643D01*
X-13508357Y-44709929D01*
X-13536929Y-44724214D01*
X-13565500Y-44724214D01*
X-13594071Y-44709929D01*
X-13608357Y-44695643D01*
X-13622643Y-44667072D01*
X-13636929Y-44609929D01*
X-13636929Y-44538500D01*
X-13622643Y-44481357D01*
X-13608357Y-44452786D01*
X-13594071Y-44438500D01*
X-13565500Y-44424214D01*
X-13336929Y-44695643D02*
X-13322643Y-44709929D01*
X-13336929Y-44724214D01*
X-13351214Y-44709929D01*
X-13336929Y-44695643D01*
X-13336929Y-44724214D01*
X-13136929Y-44424214D02*
X-13108357Y-44424214D01*
X-13079786Y-44438500D01*
X-13065500Y-44452786D01*
X-13051214Y-44481357D01*
X-13036929Y-44538500D01*
X-13036929Y-44609929D01*
X-13051214Y-44667072D01*
X-13065500Y-44695643D01*
X-13079786Y-44709929D01*
X-13108357Y-44724214D01*
X-13136929Y-44724214D01*
X-13165500Y-44709929D01*
X-13179786Y-44695643D01*
X-13194071Y-44667072D01*
X-13208357Y-44609929D01*
X-13208357Y-44538500D01*
X-13194071Y-44481357D01*
X-13179786Y-44452786D01*
X-13165500Y-44438500D01*
X-13136929Y-44424214D01*
X-12936929Y-44424214D02*
X-12751214Y-44424214D01*
X-12851214Y-44538500D01*
X-12808357Y-44538500D01*
X-12779786Y-44552786D01*
X-12765500Y-44567072D01*
X-12751214Y-44595643D01*
X-12751214Y-44667072D01*
X-12765500Y-44695643D01*
X-12779786Y-44709929D01*
X-12808357Y-44724214D01*
X-12894071Y-44724214D01*
X-12922643Y-44709929D01*
X-12936929Y-44695643D01*
X-12608357Y-44724214D02*
X-12551214Y-44724214D01*
X-12522643Y-44709929D01*
X-12508357Y-44695643D01*
X-12479786Y-44652786D01*
X-12465500Y-44595643D01*
X-12465500Y-44481357D01*
X-12479786Y-44452786D01*
X-12494071Y-44438500D01*
X-12522643Y-44424214D01*
X-12579786Y-44424214D01*
X-12608357Y-44438500D01*
X-12622643Y-44452786D01*
X-12636929Y-44481357D01*
X-12636929Y-44552786D01*
X-12622643Y-44581357D01*
X-12608357Y-44595643D01*
X-12579786Y-44609929D01*
X-12522643Y-44609929D01*
X-12494071Y-44595643D01*
X-12479786Y-44581357D01*
X-12465500Y-44552786D01*
X-12351214Y-44424214D02*
X-12351214Y-44481357D01*
X-12236929Y-44424214D02*
X-12236929Y-44481357D01*
X-11794071Y-44838500D02*
X-11808357Y-44824214D01*
X-11836929Y-44781357D01*
X-11851214Y-44752786D01*
X-11865500Y-44709929D01*
X-11879786Y-44638500D01*
X-11879786Y-44581357D01*
X-11865500Y-44509929D01*
X-11851214Y-44467072D01*
X-11836929Y-44438500D01*
X-11808357Y-44395643D01*
X-11794071Y-44381357D01*
X-11522643Y-44724214D02*
X-11694071Y-44724214D01*
X-11608357Y-44724214D02*
X-11608357Y-44424214D01*
X-11636929Y-44467072D01*
X-11665500Y-44495643D01*
X-11694071Y-44509929D01*
X-11265500Y-44424214D02*
X-11322643Y-44424214D01*
X-11351214Y-44438500D01*
X-11365500Y-44452786D01*
X-11394071Y-44495643D01*
X-11408357Y-44552786D01*
X-11408357Y-44667072D01*
X-11394071Y-44695643D01*
X-11379786Y-44709929D01*
X-11351214Y-44724214D01*
X-11294071Y-44724214D01*
X-11265500Y-44709929D01*
X-11251214Y-44695643D01*
X-11236929Y-44667072D01*
X-11236929Y-44595643D01*
X-11251214Y-44567072D01*
X-11265500Y-44552786D01*
X-11294071Y-44538500D01*
X-11351214Y-44538500D01*
X-11379786Y-44552786D01*
X-11394071Y-44567072D01*
X-11408357Y-44595643D01*
X-10879786Y-44724214D02*
X-10879786Y-44424214D01*
X-10751214Y-44724214D02*
X-10751214Y-44567072D01*
X-10765500Y-44538500D01*
X-10794072Y-44524214D01*
X-10836929Y-44524214D01*
X-10865500Y-44538500D01*
X-10879786Y-44552786D01*
X-10565500Y-44724214D02*
X-10594072Y-44709929D01*
X-10608357Y-44695643D01*
X-10622643Y-44667072D01*
X-10622643Y-44581357D01*
X-10608357Y-44552786D01*
X-10594072Y-44538500D01*
X-10565500Y-44524214D01*
X-10522643Y-44524214D01*
X-10494072Y-44538500D01*
X-10479786Y-44552786D01*
X-10465500Y-44581357D01*
X-10465500Y-44667072D01*
X-10479786Y-44695643D01*
X-10494072Y-44709929D01*
X-10522643Y-44724214D01*
X-10565500Y-44724214D01*
X-10294072Y-44724214D02*
X-10322643Y-44709929D01*
X-10336929Y-44681357D01*
X-10336929Y-44424214D01*
X-10065500Y-44709929D02*
X-10094072Y-44724214D01*
X-10151214Y-44724214D01*
X-10179786Y-44709929D01*
X-10194072Y-44681357D01*
X-10194072Y-44567072D01*
X-10179786Y-44538500D01*
X-10151214Y-44524214D01*
X-10094072Y-44524214D01*
X-10065500Y-44538500D01*
X-10051214Y-44567072D01*
X-10051214Y-44595643D01*
X-10194072Y-44624214D01*
X-9936929Y-44709929D02*
X-9908357Y-44724214D01*
X-9851214Y-44724214D01*
X-9822643Y-44709929D01*
X-9808357Y-44681357D01*
X-9808357Y-44667072D01*
X-9822643Y-44638500D01*
X-9851214Y-44624214D01*
X-9894072Y-44624214D01*
X-9922643Y-44609929D01*
X-9936929Y-44581357D01*
X-9936929Y-44567072D01*
X-9922643Y-44538500D01*
X-9894072Y-44524214D01*
X-9851214Y-44524214D01*
X-9822643Y-44538500D01*
X-9708357Y-44838500D02*
X-9694072Y-44824214D01*
X-9665500Y-44781357D01*
X-9651214Y-44752786D01*
X-9636929Y-44709929D01*
X-9622643Y-44638500D01*
X-9622643Y-44581357D01*
X-9636929Y-44509929D01*
X-9651214Y-44467072D01*
X-9665500Y-44438500D01*
X-9694072Y-44395643D01*
X-9708357Y-44381357D01*
M02*
