M48
; DRILL file {KiCad (5.1.4)-1} date 9/9/2023 5:28:27 AM
; FORMAT={-:-/ absolute / metric / decimal}
; #@! TF.CreationDate,2023-09-09T05:28:27-04:00
; #@! TF.GenerationSoftware,Kicad,Pcbnew,(5.1.4)-1
; #@! TF.FileFunction,NonPlated,1,2,NPTH
FMAT,2
METRIC
T1C1.750
T2C2.950
T3C3.000
T4C5.050
%
G90
G05
T1
X-160.32Y-422.76
X-150.16Y-422.76
X-141.254Y-407.26
X-131.094Y-407.26
X-122.19Y-407.26
X-112.03Y-407.26
T2
X-157.84Y-417.01
X-150.54Y-418.36
X-138.774Y-401.51
X-131.474Y-402.86
X-119.71Y-401.51
X-112.41Y-402.86
T3
X-157.78Y-427.84
X-151.43Y-425.3
X-138.714Y-412.34
X-132.364Y-409.8
X-119.65Y-412.34
X-113.3Y-409.8
T4
X-155.24Y-422.76
X-136.174Y-407.26
X-117.11Y-407.26
T0
M30
