G04 #@! TF.GenerationSoftware,KiCad,Pcbnew,(5.1.4)-1*
G04 #@! TF.CreationDate,2023-09-09T05:28:25-04:00*
G04 #@! TF.ProjectId,ThumbsUp,5468756d-6273-4557-902e-6b696361645f,rev?*
G04 #@! TF.SameCoordinates,Original*
G04 #@! TF.FileFunction,Copper,L2,Bot*
G04 #@! TF.FilePolarity,Positive*
%FSLAX46Y46*%
G04 Gerber Fmt 4.6, Leading zero omitted, Abs format (unit mm)*
G04 Created by KiCad (PCBNEW (5.1.4)-1) date 2023-09-09 05:28:25*
%MOMM*%
%LPD*%
G04 APERTURE LIST*
%ADD10R,2.550000X2.500000*%
%ADD11R,1.500000X2.000000*%
%ADD12C,3.000000*%
%ADD13R,2.000000X2.000000*%
%ADD14O,1.700000X1.700000*%
%ADD15R,1.700000X1.700000*%
%ADD16C,1.700000*%
%ADD17C,1.700000*%
%ADD18C,0.100000*%
%ADD19C,0.800000*%
%ADD20C,0.200000*%
G04 APERTURE END LIST*
D10*
X-161640000Y-417010061D03*
D11*
X-147370000Y-418390061D03*
D12*
X-150540000Y-418360061D03*
X-157840000Y-417010061D03*
D10*
X-161082000Y-427840061D03*
X-148155000Y-425300061D03*
X-123510000Y-401510061D03*
D13*
X-108910000Y-402860061D03*
D12*
X-112410000Y-402860061D03*
X-119710000Y-401510061D03*
D10*
X-122952000Y-412340061D03*
X-110025000Y-409800061D03*
D14*
X-106528141Y-413448713D03*
X-106528141Y-410908713D03*
X-106528141Y-408368713D03*
D15*
X-106528141Y-405828713D03*
D14*
X-132419330Y-417044574D03*
X-134959330Y-417044574D03*
X-137499330Y-417044574D03*
D15*
X-140039330Y-417044574D03*
D14*
X-145246620Y-416947892D03*
X-145246620Y-414407892D03*
X-145246620Y-411867892D03*
D15*
X-145246620Y-409327892D03*
D10*
X-142573954Y-401510061D03*
D13*
X-127973954Y-402860061D03*
D12*
X-131473954Y-402860061D03*
X-138773954Y-401510061D03*
D10*
X-142015954Y-412340061D03*
X-129088954Y-409800061D03*
D16*
X-111762864Y-393388390D03*
D17*
X-111762864Y-393388390D02*
X-111762864Y-393388390D01*
D16*
X-114216316Y-394045790D03*
D17*
X-114216316Y-394045790D02*
X-114216316Y-394045790D01*
D16*
X-116669767Y-394703191D03*
D17*
X-116669767Y-394703191D02*
X-116669767Y-394703191D01*
D16*
X-119123219Y-395360591D03*
D18*
G36*
X-120164252Y-394759550D02*
G01*
X-118522178Y-394319558D01*
X-118082186Y-395961632D01*
X-119724260Y-396401624D01*
X-120164252Y-394759550D01*
X-120164252Y-394759550D01*
G37*
D19*
X-128010000Y-407170000D03*
D20*
X-110025000Y-412485000D02*
X-110025000Y-409800061D01*
X-130344756Y-414970000D02*
X-112510000Y-414970000D01*
X-108910000Y-402860061D02*
X-108910000Y-408685061D01*
X-132419330Y-417044574D02*
X-130344756Y-414970000D01*
X-108910000Y-408685061D02*
X-110025000Y-409800061D01*
X-112510000Y-414970000D02*
X-110025000Y-412485000D01*
X-146730000Y-419230000D02*
X-147040000Y-418920000D01*
X-147040000Y-418360061D02*
X-147040000Y-424185061D01*
X-147040000Y-424185061D02*
X-148155000Y-425300061D01*
X-134959330Y-417044574D02*
X-134959330Y-418246655D01*
X-134959330Y-418246655D02*
X-135942675Y-419230000D01*
X-147040000Y-418920000D02*
X-147040000Y-418360061D01*
X-135942675Y-419230000D02*
X-146730000Y-419230000D01*
X-128010000Y-407170000D02*
X-128010000Y-402896107D01*
X-128010000Y-408721107D02*
X-129088954Y-409800061D01*
X-128010000Y-407170000D02*
X-128010000Y-408721107D01*
X-128010000Y-402896107D02*
X-127973954Y-402860061D01*
X-158710000Y-425010000D02*
X-158710000Y-419560000D01*
X-161640000Y-418460061D02*
X-160560061Y-419540000D01*
X-151840000Y-415670000D02*
X-142880000Y-415670000D01*
X-142015954Y-414805954D02*
X-142015954Y-412340061D01*
X-161082000Y-427382000D02*
X-158710000Y-425010000D01*
X-158710000Y-419560000D02*
X-158690000Y-419540000D01*
X-141990954Y-412340061D02*
X-142015954Y-412340061D01*
X-140039330Y-417044574D02*
X-140039330Y-416730670D01*
X-140039330Y-416730670D02*
X-142020000Y-414750000D01*
X-142020000Y-414750000D02*
X-142020000Y-412369107D01*
X-161640000Y-417010061D02*
X-161640000Y-418460061D01*
X-160560061Y-419540000D02*
X-155710000Y-419540000D01*
X-161082000Y-427840061D02*
X-161082000Y-427382000D01*
X-155710000Y-419540000D02*
X-151840000Y-415670000D01*
X-142020000Y-412369107D02*
X-141990954Y-412340061D01*
X-142880000Y-415670000D02*
X-142015954Y-414805954D01*
X-123550061Y-401510061D02*
X-123510000Y-401510061D01*
X-122952000Y-412340061D02*
X-123910000Y-412340061D01*
X-123910000Y-401870000D02*
X-123550061Y-401510061D01*
X-142810000Y-401870000D02*
X-142573954Y-401633954D01*
X-123910000Y-412340061D02*
X-123910000Y-401870000D01*
X-140039330Y-417044574D02*
X-135334817Y-412340061D01*
X-142639939Y-412340061D02*
X-142810000Y-412170000D01*
X-142015954Y-412340061D02*
X-142639939Y-412340061D01*
X-142810000Y-412170000D02*
X-142810000Y-401870000D01*
X-142573954Y-401633954D02*
X-142573954Y-401510061D01*
X-135334817Y-412340061D02*
X-122952000Y-412340061D01*
M02*
