G04 #@! TF.GenerationSoftware,KiCad,Pcbnew,(5.1.4)-1*
G04 #@! TF.CreationDate,2023-09-09T05:28:25-04:00*
G04 #@! TF.ProjectId,ThumbsUp,5468756d-6273-4557-902e-6b696361645f,rev?*
G04 #@! TF.SameCoordinates,Original*
G04 #@! TF.FileFunction,Soldermask,Top*
G04 #@! TF.FilePolarity,Negative*
%FSLAX46Y46*%
G04 Gerber Fmt 4.6, Leading zero omitted, Abs format (unit mm)*
G04 Created by KiCad (PCBNEW (5.1.4)-1) date 2023-09-09 05:28:25*
%MOMM*%
%LPD*%
G04 APERTURE LIST*
%ADD10C,0.100000*%
G04 APERTURE END LIST*
D10*
G36*
X-157477415Y-426318863D02*
G01*
X-157327590Y-426348665D01*
X-157045326Y-426465582D01*
X-156791295Y-426635320D01*
X-156575259Y-426851356D01*
X-156405521Y-427105387D01*
X-156288604Y-427387651D01*
X-156229000Y-427687301D01*
X-156229000Y-427992821D01*
X-156288604Y-428292471D01*
X-156405521Y-428574735D01*
X-156575259Y-428828766D01*
X-156791295Y-429044802D01*
X-157045326Y-429214540D01*
X-157327590Y-429331457D01*
X-157477415Y-429361259D01*
X-157627239Y-429391061D01*
X-157932761Y-429391061D01*
X-158082585Y-429361259D01*
X-158232410Y-429331457D01*
X-158514674Y-429214540D01*
X-158768705Y-429044802D01*
X-158984741Y-428828766D01*
X-159154479Y-428574735D01*
X-159271396Y-428292471D01*
X-159331000Y-427992821D01*
X-159331000Y-427687301D01*
X-159271396Y-427387651D01*
X-159154479Y-427105387D01*
X-158984741Y-426851356D01*
X-158768705Y-426635320D01*
X-158514674Y-426465582D01*
X-158232410Y-426348665D01*
X-158082585Y-426318863D01*
X-157932761Y-426289061D01*
X-157627239Y-426289061D01*
X-157477415Y-426318863D01*
X-157477415Y-426318863D01*
G37*
G36*
X-151127415Y-423778863D02*
G01*
X-150977590Y-423808665D01*
X-150695326Y-423925582D01*
X-150441295Y-424095320D01*
X-150225259Y-424311356D01*
X-150055521Y-424565387D01*
X-149938604Y-424847651D01*
X-149879000Y-425147301D01*
X-149879000Y-425452821D01*
X-149938604Y-425752471D01*
X-150055521Y-426034735D01*
X-150225259Y-426288766D01*
X-150441295Y-426504802D01*
X-150695326Y-426674540D01*
X-150977590Y-426791457D01*
X-151127415Y-426821259D01*
X-151277239Y-426851061D01*
X-151582761Y-426851061D01*
X-151732585Y-426821259D01*
X-151882410Y-426791457D01*
X-152164674Y-426674540D01*
X-152418705Y-426504802D01*
X-152634741Y-426288766D01*
X-152804479Y-426034735D01*
X-152921396Y-425752471D01*
X-152981000Y-425452821D01*
X-152981000Y-425147301D01*
X-152921396Y-424847651D01*
X-152804479Y-424565387D01*
X-152634741Y-424311356D01*
X-152418705Y-424095320D01*
X-152164674Y-423925582D01*
X-151882410Y-423808665D01*
X-151732585Y-423778863D01*
X-151582761Y-423749061D01*
X-151277239Y-423749061D01*
X-151127415Y-423778863D01*
X-151127415Y-423778863D01*
G37*
G36*
X-154737448Y-420233558D02*
G01*
X-154488609Y-420283055D01*
X-154294425Y-420363489D01*
X-154019808Y-420477239D01*
X-153597896Y-420759151D01*
X-153239090Y-421117957D01*
X-152957178Y-421539869D01*
X-152843428Y-421814486D01*
X-152762994Y-422008670D01*
X-152664000Y-422506347D01*
X-152664000Y-423013775D01*
X-152762994Y-423511452D01*
X-152820580Y-423650476D01*
X-152957178Y-423980253D01*
X-153239090Y-424402165D01*
X-153597896Y-424760971D01*
X-154019808Y-425042883D01*
X-154271893Y-425147300D01*
X-154488609Y-425237067D01*
X-154737448Y-425286564D01*
X-154986285Y-425336061D01*
X-155493715Y-425336061D01*
X-155991391Y-425237067D01*
X-156208107Y-425147300D01*
X-156460192Y-425042883D01*
X-156882104Y-424760971D01*
X-157240910Y-424402165D01*
X-157522822Y-423980253D01*
X-157659420Y-423650476D01*
X-157717006Y-423511452D01*
X-157816000Y-423013775D01*
X-157816000Y-422506347D01*
X-157717006Y-422008670D01*
X-157636572Y-421814486D01*
X-157522822Y-421539869D01*
X-157240910Y-421117957D01*
X-156882104Y-420759151D01*
X-156460192Y-420477239D01*
X-156185575Y-420363489D01*
X-155991391Y-420283055D01*
X-155493715Y-420184061D01*
X-154986285Y-420184061D01*
X-154737448Y-420233558D01*
X-154737448Y-420233558D01*
G37*
G36*
X-149889896Y-421869646D02*
G01*
X-149721374Y-421939450D01*
X-149569709Y-422040789D01*
X-149440728Y-422169770D01*
X-149339389Y-422321435D01*
X-149269585Y-422489957D01*
X-149234000Y-422668858D01*
X-149234000Y-422851264D01*
X-149269585Y-423030165D01*
X-149339389Y-423198687D01*
X-149440728Y-423350352D01*
X-149569709Y-423479333D01*
X-149721374Y-423580672D01*
X-149889896Y-423650476D01*
X-150068797Y-423686061D01*
X-150251203Y-423686061D01*
X-150430104Y-423650476D01*
X-150598626Y-423580672D01*
X-150750291Y-423479333D01*
X-150879272Y-423350352D01*
X-150980611Y-423198687D01*
X-151050415Y-423030165D01*
X-151086000Y-422851264D01*
X-151086000Y-422668858D01*
X-151050415Y-422489957D01*
X-150980611Y-422321435D01*
X-150879272Y-422169770D01*
X-150750291Y-422040789D01*
X-150598626Y-421939450D01*
X-150430104Y-421869646D01*
X-150251203Y-421834061D01*
X-150068797Y-421834061D01*
X-149889896Y-421869646D01*
X-149889896Y-421869646D01*
G37*
G36*
X-160049896Y-421869646D02*
G01*
X-159881374Y-421939450D01*
X-159729709Y-422040789D01*
X-159600728Y-422169770D01*
X-159499389Y-422321435D01*
X-159429585Y-422489957D01*
X-159394000Y-422668858D01*
X-159394000Y-422851264D01*
X-159429585Y-423030165D01*
X-159499389Y-423198687D01*
X-159600728Y-423350352D01*
X-159729709Y-423479333D01*
X-159881374Y-423580672D01*
X-160049896Y-423650476D01*
X-160228797Y-423686061D01*
X-160411203Y-423686061D01*
X-160590104Y-423650476D01*
X-160758626Y-423580672D01*
X-160910291Y-423479333D01*
X-161039272Y-423350352D01*
X-161140611Y-423198687D01*
X-161210415Y-423030165D01*
X-161246000Y-422851264D01*
X-161246000Y-422668858D01*
X-161210415Y-422489957D01*
X-161140611Y-422321435D01*
X-161039272Y-422169770D01*
X-160910291Y-422040789D01*
X-160758626Y-421939450D01*
X-160590104Y-421869646D01*
X-160411203Y-421834061D01*
X-160228797Y-421834061D01*
X-160049896Y-421869646D01*
X-160049896Y-421869646D01*
G37*
G36*
X-150237415Y-416838863D02*
G01*
X-150087590Y-416868665D01*
X-149805326Y-416985582D01*
X-149551295Y-417155320D01*
X-149335259Y-417371356D01*
X-149165521Y-417625387D01*
X-149048604Y-417907651D01*
X-149048604Y-417907652D01*
X-148989000Y-418207300D01*
X-148989000Y-418512822D01*
X-149018802Y-418662646D01*
X-149048604Y-418812471D01*
X-149165521Y-419094735D01*
X-149335259Y-419348766D01*
X-149551295Y-419564802D01*
X-149805326Y-419734540D01*
X-150087590Y-419851457D01*
X-150237415Y-419881259D01*
X-150387239Y-419911061D01*
X-150692761Y-419911061D01*
X-150842585Y-419881259D01*
X-150992410Y-419851457D01*
X-151274674Y-419734540D01*
X-151528705Y-419564802D01*
X-151744741Y-419348766D01*
X-151914479Y-419094735D01*
X-152031396Y-418812471D01*
X-152061198Y-418662646D01*
X-152091000Y-418512822D01*
X-152091000Y-418207300D01*
X-152031396Y-417907652D01*
X-152031396Y-417907651D01*
X-151914479Y-417625387D01*
X-151744741Y-417371356D01*
X-151528705Y-417155320D01*
X-151274674Y-416985582D01*
X-150992410Y-416868665D01*
X-150842585Y-416838863D01*
X-150692761Y-416809061D01*
X-150387239Y-416809061D01*
X-150237415Y-416838863D01*
X-150237415Y-416838863D01*
G37*
G36*
X-157537415Y-415488863D02*
G01*
X-157387590Y-415518665D01*
X-157105326Y-415635582D01*
X-156851295Y-415805320D01*
X-156635259Y-416021356D01*
X-156465521Y-416275387D01*
X-156395306Y-416444903D01*
X-156348604Y-416557652D01*
X-156298595Y-416809061D01*
X-156289000Y-416857301D01*
X-156289000Y-417162821D01*
X-156348604Y-417462471D01*
X-156465521Y-417744735D01*
X-156635259Y-417998766D01*
X-156851295Y-418214802D01*
X-157105326Y-418384540D01*
X-157387590Y-418501457D01*
X-157444721Y-418512821D01*
X-157687239Y-418561061D01*
X-157992761Y-418561061D01*
X-158235279Y-418512821D01*
X-158292410Y-418501457D01*
X-158574674Y-418384540D01*
X-158828705Y-418214802D01*
X-159044741Y-417998766D01*
X-159214479Y-417744735D01*
X-159331396Y-417462471D01*
X-159391000Y-417162821D01*
X-159391000Y-416857301D01*
X-159381404Y-416809061D01*
X-159331396Y-416557652D01*
X-159284694Y-416444903D01*
X-159214479Y-416275387D01*
X-159044741Y-416021356D01*
X-158828705Y-415805320D01*
X-158574674Y-415635582D01*
X-158292410Y-415518665D01*
X-158142585Y-415488863D01*
X-157992761Y-415459061D01*
X-157687239Y-415459061D01*
X-157537415Y-415488863D01*
X-157537415Y-415488863D01*
G37*
G36*
X-132308888Y-416150092D02*
G01*
X-132242703Y-416156611D01*
X-132072864Y-416208131D01*
X-131916339Y-416291796D01*
X-131896953Y-416307706D01*
X-131779144Y-416404388D01*
X-131695882Y-416505845D01*
X-131666552Y-416541583D01*
X-131582887Y-416698108D01*
X-131531367Y-416867947D01*
X-131513971Y-417044574D01*
X-131531367Y-417221201D01*
X-131582887Y-417391040D01*
X-131666552Y-417547565D01*
X-131695882Y-417583303D01*
X-131779144Y-417684760D01*
X-131852225Y-417744735D01*
X-131916339Y-417797352D01*
X-132072864Y-417881017D01*
X-132242703Y-417932537D01*
X-132308888Y-417939056D01*
X-132375070Y-417945574D01*
X-132463590Y-417945574D01*
X-132529772Y-417939056D01*
X-132595957Y-417932537D01*
X-132765796Y-417881017D01*
X-132922321Y-417797352D01*
X-132986435Y-417744735D01*
X-133059516Y-417684760D01*
X-133142778Y-417583303D01*
X-133172108Y-417547565D01*
X-133255773Y-417391040D01*
X-133307293Y-417221201D01*
X-133324689Y-417044574D01*
X-133307293Y-416867947D01*
X-133255773Y-416698108D01*
X-133172108Y-416541583D01*
X-133142778Y-416505845D01*
X-133059516Y-416404388D01*
X-132941707Y-416307706D01*
X-132922321Y-416291796D01*
X-132765796Y-416208131D01*
X-132595957Y-416156611D01*
X-132529772Y-416150092D01*
X-132463590Y-416143574D01*
X-132375070Y-416143574D01*
X-132308888Y-416150092D01*
X-132308888Y-416150092D01*
G37*
G36*
X-134848888Y-416150092D02*
G01*
X-134782703Y-416156611D01*
X-134612864Y-416208131D01*
X-134456339Y-416291796D01*
X-134436953Y-416307706D01*
X-134319144Y-416404388D01*
X-134235882Y-416505845D01*
X-134206552Y-416541583D01*
X-134122887Y-416698108D01*
X-134071367Y-416867947D01*
X-134053971Y-417044574D01*
X-134071367Y-417221201D01*
X-134122887Y-417391040D01*
X-134206552Y-417547565D01*
X-134235882Y-417583303D01*
X-134319144Y-417684760D01*
X-134392225Y-417744735D01*
X-134456339Y-417797352D01*
X-134612864Y-417881017D01*
X-134782703Y-417932537D01*
X-134848888Y-417939056D01*
X-134915070Y-417945574D01*
X-135003590Y-417945574D01*
X-135069772Y-417939056D01*
X-135135957Y-417932537D01*
X-135305796Y-417881017D01*
X-135462321Y-417797352D01*
X-135526435Y-417744735D01*
X-135599516Y-417684760D01*
X-135682778Y-417583303D01*
X-135712108Y-417547565D01*
X-135795773Y-417391040D01*
X-135847293Y-417221201D01*
X-135864689Y-417044574D01*
X-135847293Y-416867947D01*
X-135795773Y-416698108D01*
X-135712108Y-416541583D01*
X-135682778Y-416505845D01*
X-135599516Y-416404388D01*
X-135481707Y-416307706D01*
X-135462321Y-416291796D01*
X-135305796Y-416208131D01*
X-135135957Y-416156611D01*
X-135069772Y-416150092D01*
X-135003590Y-416143574D01*
X-134915070Y-416143574D01*
X-134848888Y-416150092D01*
X-134848888Y-416150092D01*
G37*
G36*
X-137388888Y-416150092D02*
G01*
X-137322703Y-416156611D01*
X-137152864Y-416208131D01*
X-136996339Y-416291796D01*
X-136976953Y-416307706D01*
X-136859144Y-416404388D01*
X-136775882Y-416505845D01*
X-136746552Y-416541583D01*
X-136662887Y-416698108D01*
X-136611367Y-416867947D01*
X-136593971Y-417044574D01*
X-136611367Y-417221201D01*
X-136662887Y-417391040D01*
X-136746552Y-417547565D01*
X-136775882Y-417583303D01*
X-136859144Y-417684760D01*
X-136932225Y-417744735D01*
X-136996339Y-417797352D01*
X-137152864Y-417881017D01*
X-137322703Y-417932537D01*
X-137388888Y-417939056D01*
X-137455070Y-417945574D01*
X-137543590Y-417945574D01*
X-137609772Y-417939056D01*
X-137675957Y-417932537D01*
X-137845796Y-417881017D01*
X-138002321Y-417797352D01*
X-138066435Y-417744735D01*
X-138139516Y-417684760D01*
X-138222778Y-417583303D01*
X-138252108Y-417547565D01*
X-138335773Y-417391040D01*
X-138387293Y-417221201D01*
X-138404689Y-417044574D01*
X-138387293Y-416867947D01*
X-138335773Y-416698108D01*
X-138252108Y-416541583D01*
X-138222778Y-416505845D01*
X-138139516Y-416404388D01*
X-138021707Y-416307706D01*
X-138002321Y-416291796D01*
X-137845796Y-416208131D01*
X-137675957Y-416156611D01*
X-137609772Y-416150092D01*
X-137543590Y-416143574D01*
X-137455070Y-416143574D01*
X-137388888Y-416150092D01*
X-137388888Y-416150092D01*
G37*
G36*
X-139138330Y-417945574D02*
G01*
X-140940330Y-417945574D01*
X-140940330Y-416143574D01*
X-139138330Y-416143574D01*
X-139138330Y-417945574D01*
X-139138330Y-417945574D01*
G37*
G36*
X-145136178Y-416053410D02*
G01*
X-145069993Y-416059929D01*
X-144900154Y-416111449D01*
X-144743629Y-416195114D01*
X-144727768Y-416208131D01*
X-144606434Y-416307706D01*
X-144523172Y-416409163D01*
X-144493842Y-416444901D01*
X-144410177Y-416601426D01*
X-144358657Y-416771265D01*
X-144341261Y-416947892D01*
X-144358657Y-417124519D01*
X-144410177Y-417294358D01*
X-144493842Y-417450883D01*
X-144523172Y-417486621D01*
X-144606434Y-417588078D01*
X-144707891Y-417671340D01*
X-144743629Y-417700670D01*
X-144900154Y-417784335D01*
X-145069993Y-417835855D01*
X-145136178Y-417842374D01*
X-145202360Y-417848892D01*
X-145290880Y-417848892D01*
X-145357062Y-417842374D01*
X-145423247Y-417835855D01*
X-145593086Y-417784335D01*
X-145749611Y-417700670D01*
X-145785349Y-417671340D01*
X-145886806Y-417588078D01*
X-145970068Y-417486621D01*
X-145999398Y-417450883D01*
X-146083063Y-417294358D01*
X-146134583Y-417124519D01*
X-146151979Y-416947892D01*
X-146134583Y-416771265D01*
X-146083063Y-416601426D01*
X-145999398Y-416444901D01*
X-145970068Y-416409163D01*
X-145886806Y-416307706D01*
X-145765472Y-416208131D01*
X-145749611Y-416195114D01*
X-145593086Y-416111449D01*
X-145423247Y-416059929D01*
X-145357063Y-416053411D01*
X-145290880Y-416046892D01*
X-145202360Y-416046892D01*
X-145136178Y-416053410D01*
X-145136178Y-416053410D01*
G37*
G36*
X-145136178Y-413513410D02*
G01*
X-145069993Y-413519929D01*
X-144900154Y-413571449D01*
X-144743629Y-413655114D01*
X-144707891Y-413684444D01*
X-144606434Y-413767706D01*
X-144554116Y-413831457D01*
X-144493842Y-413904901D01*
X-144410177Y-414061426D01*
X-144358657Y-414231265D01*
X-144341261Y-414407892D01*
X-144358657Y-414584519D01*
X-144410177Y-414754358D01*
X-144493842Y-414910883D01*
X-144523172Y-414946621D01*
X-144606434Y-415048078D01*
X-144707891Y-415131340D01*
X-144743629Y-415160670D01*
X-144900154Y-415244335D01*
X-145069993Y-415295855D01*
X-145136177Y-415302373D01*
X-145202360Y-415308892D01*
X-145290880Y-415308892D01*
X-145357062Y-415302374D01*
X-145423247Y-415295855D01*
X-145593086Y-415244335D01*
X-145749611Y-415160670D01*
X-145785349Y-415131340D01*
X-145886806Y-415048078D01*
X-145970068Y-414946621D01*
X-145999398Y-414910883D01*
X-146083063Y-414754358D01*
X-146134583Y-414584519D01*
X-146151979Y-414407892D01*
X-146134583Y-414231265D01*
X-146083063Y-414061426D01*
X-145999398Y-413904901D01*
X-145939124Y-413831457D01*
X-145886806Y-413767706D01*
X-145785349Y-413684444D01*
X-145749611Y-413655114D01*
X-145593086Y-413571449D01*
X-145423247Y-413519929D01*
X-145357062Y-413513410D01*
X-145290880Y-413506892D01*
X-145202360Y-413506892D01*
X-145136178Y-413513410D01*
X-145136178Y-413513410D01*
G37*
G36*
X-106417698Y-412554232D02*
G01*
X-106351514Y-412560750D01*
X-106181675Y-412612270D01*
X-106025150Y-412695935D01*
X-106014916Y-412704334D01*
X-105887955Y-412808527D01*
X-105804693Y-412909984D01*
X-105775363Y-412945722D01*
X-105691698Y-413102247D01*
X-105640178Y-413272086D01*
X-105622782Y-413448713D01*
X-105640178Y-413625340D01*
X-105691698Y-413795179D01*
X-105775363Y-413951704D01*
X-105804693Y-413987442D01*
X-105887955Y-414088899D01*
X-105989412Y-414172161D01*
X-106025150Y-414201491D01*
X-106181675Y-414285156D01*
X-106351514Y-414336676D01*
X-106417699Y-414343195D01*
X-106483881Y-414349713D01*
X-106572401Y-414349713D01*
X-106638583Y-414343195D01*
X-106704768Y-414336676D01*
X-106874607Y-414285156D01*
X-107031132Y-414201491D01*
X-107066870Y-414172161D01*
X-107168327Y-414088899D01*
X-107251589Y-413987442D01*
X-107280919Y-413951704D01*
X-107364584Y-413795179D01*
X-107416104Y-413625340D01*
X-107433500Y-413448713D01*
X-107416104Y-413272086D01*
X-107364584Y-413102247D01*
X-107280919Y-412945722D01*
X-107251589Y-412909984D01*
X-107168327Y-412808527D01*
X-107041366Y-412704334D01*
X-107031132Y-412695935D01*
X-106874607Y-412612270D01*
X-106704768Y-412560750D01*
X-106638584Y-412554232D01*
X-106572401Y-412547713D01*
X-106483881Y-412547713D01*
X-106417698Y-412554232D01*
X-106417698Y-412554232D01*
G37*
G36*
X-138411369Y-410818863D02*
G01*
X-138261544Y-410848665D01*
X-137979280Y-410965582D01*
X-137725249Y-411135320D01*
X-137509213Y-411351356D01*
X-137339475Y-411605387D01*
X-137222558Y-411887651D01*
X-137222558Y-411887652D01*
X-137162954Y-412187300D01*
X-137162954Y-412492822D01*
X-137165989Y-412508078D01*
X-137222558Y-412792471D01*
X-137339475Y-413074735D01*
X-137509213Y-413328766D01*
X-137725249Y-413544802D01*
X-137979280Y-413714540D01*
X-138261544Y-413831457D01*
X-138411369Y-413861259D01*
X-138561193Y-413891061D01*
X-138866715Y-413891061D01*
X-139016539Y-413861259D01*
X-139166364Y-413831457D01*
X-139448628Y-413714540D01*
X-139702659Y-413544802D01*
X-139918695Y-413328766D01*
X-140088433Y-413074735D01*
X-140205350Y-412792471D01*
X-140261919Y-412508078D01*
X-140264954Y-412492822D01*
X-140264954Y-412187300D01*
X-140205350Y-411887652D01*
X-140205350Y-411887651D01*
X-140088433Y-411605387D01*
X-139918695Y-411351356D01*
X-139702659Y-411135320D01*
X-139448628Y-410965582D01*
X-139166364Y-410848665D01*
X-139016539Y-410818863D01*
X-138866715Y-410789061D01*
X-138561193Y-410789061D01*
X-138411369Y-410818863D01*
X-138411369Y-410818863D01*
G37*
G36*
X-119347415Y-410818863D02*
G01*
X-119197590Y-410848665D01*
X-118915326Y-410965582D01*
X-118661295Y-411135320D01*
X-118445259Y-411351356D01*
X-118275521Y-411605387D01*
X-118158604Y-411887651D01*
X-118158604Y-411887652D01*
X-118099000Y-412187300D01*
X-118099000Y-412492822D01*
X-118102035Y-412508078D01*
X-118158604Y-412792471D01*
X-118275521Y-413074735D01*
X-118445259Y-413328766D01*
X-118661295Y-413544802D01*
X-118915326Y-413714540D01*
X-119197590Y-413831457D01*
X-119347415Y-413861259D01*
X-119497239Y-413891061D01*
X-119802761Y-413891061D01*
X-119952585Y-413861259D01*
X-120102410Y-413831457D01*
X-120384674Y-413714540D01*
X-120638705Y-413544802D01*
X-120854741Y-413328766D01*
X-121024479Y-413074735D01*
X-121141396Y-412792471D01*
X-121197965Y-412508078D01*
X-121201000Y-412492822D01*
X-121201000Y-412187300D01*
X-121141396Y-411887652D01*
X-121141396Y-411887651D01*
X-121024479Y-411605387D01*
X-120854741Y-411351356D01*
X-120638705Y-411135320D01*
X-120384674Y-410965582D01*
X-120102410Y-410848665D01*
X-119952585Y-410818863D01*
X-119802761Y-410789061D01*
X-119497239Y-410789061D01*
X-119347415Y-410818863D01*
X-119347415Y-410818863D01*
G37*
G36*
X-145136177Y-410973411D02*
G01*
X-145069993Y-410979929D01*
X-144900154Y-411031449D01*
X-144743629Y-411115114D01*
X-144719008Y-411135320D01*
X-144606434Y-411227706D01*
X-144554116Y-411291457D01*
X-144493842Y-411364901D01*
X-144410177Y-411521426D01*
X-144358657Y-411691265D01*
X-144341261Y-411867892D01*
X-144358657Y-412044519D01*
X-144410177Y-412214358D01*
X-144493842Y-412370883D01*
X-144523172Y-412406621D01*
X-144606434Y-412508078D01*
X-144707891Y-412591340D01*
X-144743629Y-412620670D01*
X-144900154Y-412704335D01*
X-145069993Y-412755855D01*
X-145136177Y-412762373D01*
X-145202360Y-412768892D01*
X-145290880Y-412768892D01*
X-145357063Y-412762373D01*
X-145423247Y-412755855D01*
X-145593086Y-412704335D01*
X-145749611Y-412620670D01*
X-145785349Y-412591340D01*
X-145886806Y-412508078D01*
X-145970068Y-412406621D01*
X-145999398Y-412370883D01*
X-146083063Y-412214358D01*
X-146134583Y-412044519D01*
X-146151979Y-411867892D01*
X-146134583Y-411691265D01*
X-146083063Y-411521426D01*
X-145999398Y-411364901D01*
X-145939124Y-411291457D01*
X-145886806Y-411227706D01*
X-145774232Y-411135320D01*
X-145749611Y-411115114D01*
X-145593086Y-411031449D01*
X-145423247Y-410979929D01*
X-145357062Y-410973410D01*
X-145290880Y-410966892D01*
X-145202360Y-410966892D01*
X-145136177Y-410973411D01*
X-145136177Y-410973411D01*
G37*
G36*
X-106417698Y-410014232D02*
G01*
X-106351514Y-410020750D01*
X-106181675Y-410072270D01*
X-106025150Y-410155935D01*
X-105989412Y-410185265D01*
X-105887955Y-410268527D01*
X-105804693Y-410369984D01*
X-105775363Y-410405722D01*
X-105691698Y-410562247D01*
X-105640178Y-410732086D01*
X-105622782Y-410908713D01*
X-105640178Y-411085340D01*
X-105691698Y-411255179D01*
X-105775363Y-411411704D01*
X-105804693Y-411447442D01*
X-105887955Y-411548899D01*
X-105989412Y-411632161D01*
X-106025150Y-411661491D01*
X-106181675Y-411745156D01*
X-106351514Y-411796676D01*
X-106417699Y-411803195D01*
X-106483881Y-411809713D01*
X-106572401Y-411809713D01*
X-106638583Y-411803195D01*
X-106704768Y-411796676D01*
X-106874607Y-411745156D01*
X-107031132Y-411661491D01*
X-107066870Y-411632161D01*
X-107168327Y-411548899D01*
X-107251589Y-411447442D01*
X-107280919Y-411411704D01*
X-107364584Y-411255179D01*
X-107416104Y-411085340D01*
X-107433500Y-410908713D01*
X-107416104Y-410732086D01*
X-107364584Y-410562247D01*
X-107280919Y-410405722D01*
X-107251589Y-410369984D01*
X-107168327Y-410268527D01*
X-107066870Y-410185265D01*
X-107031132Y-410155935D01*
X-106874607Y-410072270D01*
X-106704768Y-410020750D01*
X-106638584Y-410014232D01*
X-106572401Y-410007713D01*
X-106483881Y-410007713D01*
X-106417698Y-410014232D01*
X-106417698Y-410014232D01*
G37*
G36*
X-112997415Y-408278863D02*
G01*
X-112847590Y-408308665D01*
X-112565326Y-408425582D01*
X-112311295Y-408595320D01*
X-112095259Y-408811356D01*
X-111925521Y-409065387D01*
X-111808604Y-409347651D01*
X-111749000Y-409647301D01*
X-111749000Y-409952821D01*
X-111808604Y-410252471D01*
X-111925521Y-410534735D01*
X-112095259Y-410788766D01*
X-112311295Y-411004802D01*
X-112565326Y-411174540D01*
X-112847590Y-411291457D01*
X-112997415Y-411321259D01*
X-113147239Y-411351061D01*
X-113452761Y-411351061D01*
X-113602585Y-411321259D01*
X-113752410Y-411291457D01*
X-114034674Y-411174540D01*
X-114288705Y-411004802D01*
X-114504741Y-410788766D01*
X-114674479Y-410534735D01*
X-114791396Y-410252471D01*
X-114851000Y-409952821D01*
X-114851000Y-409647301D01*
X-114791396Y-409347651D01*
X-114674479Y-409065387D01*
X-114504741Y-408811356D01*
X-114288705Y-408595320D01*
X-114034674Y-408425582D01*
X-113752410Y-408308665D01*
X-113602585Y-408278863D01*
X-113452761Y-408249061D01*
X-113147239Y-408249061D01*
X-112997415Y-408278863D01*
X-112997415Y-408278863D01*
G37*
G36*
X-132061369Y-408278863D02*
G01*
X-131911544Y-408308665D01*
X-131629280Y-408425582D01*
X-131375249Y-408595320D01*
X-131159213Y-408811356D01*
X-130989475Y-409065387D01*
X-130872558Y-409347651D01*
X-130812954Y-409647301D01*
X-130812954Y-409952821D01*
X-130872558Y-410252471D01*
X-130989475Y-410534735D01*
X-131159213Y-410788766D01*
X-131375249Y-411004802D01*
X-131629280Y-411174540D01*
X-131911544Y-411291457D01*
X-132061369Y-411321259D01*
X-132211193Y-411351061D01*
X-132516715Y-411351061D01*
X-132666539Y-411321259D01*
X-132816364Y-411291457D01*
X-133098628Y-411174540D01*
X-133352659Y-411004802D01*
X-133568695Y-410788766D01*
X-133738433Y-410534735D01*
X-133855350Y-410252471D01*
X-133914954Y-409952821D01*
X-133914954Y-409647301D01*
X-133855350Y-409347651D01*
X-133738433Y-409065387D01*
X-133568695Y-408811356D01*
X-133352659Y-408595320D01*
X-133098628Y-408425582D01*
X-132816364Y-408308665D01*
X-132666539Y-408278863D01*
X-132516715Y-408249061D01*
X-132211193Y-408249061D01*
X-132061369Y-408278863D01*
X-132061369Y-408278863D01*
G37*
G36*
X-144345620Y-410228892D02*
G01*
X-146147620Y-410228892D01*
X-146147620Y-408426892D01*
X-144345620Y-408426892D01*
X-144345620Y-410228892D01*
X-144345620Y-410228892D01*
G37*
G36*
X-116607448Y-404733558D02*
G01*
X-116358609Y-404783055D01*
X-116164425Y-404863489D01*
X-115889808Y-404977239D01*
X-115467896Y-405259151D01*
X-115109090Y-405617957D01*
X-114827178Y-406039869D01*
X-114713428Y-406314486D01*
X-114632994Y-406508670D01*
X-114534000Y-407006347D01*
X-114534000Y-407513775D01*
X-114632994Y-408011452D01*
X-114690580Y-408150476D01*
X-114827178Y-408480253D01*
X-115109090Y-408902165D01*
X-115467896Y-409260971D01*
X-115889808Y-409542883D01*
X-116141893Y-409647300D01*
X-116358609Y-409737067D01*
X-116607448Y-409786564D01*
X-116856285Y-409836061D01*
X-117363715Y-409836061D01*
X-117612552Y-409786564D01*
X-117861391Y-409737067D01*
X-118078107Y-409647300D01*
X-118330192Y-409542883D01*
X-118752104Y-409260971D01*
X-119110910Y-408902165D01*
X-119392822Y-408480253D01*
X-119529420Y-408150476D01*
X-119587006Y-408011452D01*
X-119686000Y-407513775D01*
X-119686000Y-407006347D01*
X-119587006Y-406508670D01*
X-119506572Y-406314486D01*
X-119392822Y-406039869D01*
X-119110910Y-405617957D01*
X-118752104Y-405259151D01*
X-118330192Y-404977239D01*
X-118055575Y-404863489D01*
X-117861391Y-404783055D01*
X-117612552Y-404733558D01*
X-117363715Y-404684061D01*
X-116856285Y-404684061D01*
X-116607448Y-404733558D01*
X-116607448Y-404733558D01*
G37*
G36*
X-135671402Y-404733558D02*
G01*
X-135422563Y-404783055D01*
X-135228379Y-404863489D01*
X-134953762Y-404977239D01*
X-134531850Y-405259151D01*
X-134173044Y-405617957D01*
X-133891132Y-406039869D01*
X-133777382Y-406314486D01*
X-133696948Y-406508670D01*
X-133597954Y-407006347D01*
X-133597954Y-407513775D01*
X-133696948Y-408011452D01*
X-133754534Y-408150476D01*
X-133891132Y-408480253D01*
X-134173044Y-408902165D01*
X-134531850Y-409260971D01*
X-134953762Y-409542883D01*
X-135205847Y-409647300D01*
X-135422563Y-409737067D01*
X-135671402Y-409786564D01*
X-135920239Y-409836061D01*
X-136427669Y-409836061D01*
X-136676506Y-409786564D01*
X-136925345Y-409737067D01*
X-137142061Y-409647300D01*
X-137394146Y-409542883D01*
X-137816058Y-409260971D01*
X-138174864Y-408902165D01*
X-138456776Y-408480253D01*
X-138593374Y-408150476D01*
X-138650960Y-408011452D01*
X-138749954Y-407513775D01*
X-138749954Y-407006347D01*
X-138650960Y-406508670D01*
X-138570526Y-406314486D01*
X-138456776Y-406039869D01*
X-138174864Y-405617957D01*
X-137816058Y-405259151D01*
X-137394146Y-404977239D01*
X-137119529Y-404863489D01*
X-136925345Y-404783055D01*
X-136676506Y-404733558D01*
X-136427669Y-404684061D01*
X-135920239Y-404684061D01*
X-135671402Y-404733558D01*
X-135671402Y-404733558D01*
G37*
G36*
X-106417699Y-407474231D02*
G01*
X-106351514Y-407480750D01*
X-106181675Y-407532270D01*
X-106025150Y-407615935D01*
X-105989412Y-407645265D01*
X-105887955Y-407728527D01*
X-105804693Y-407829984D01*
X-105775363Y-407865722D01*
X-105691698Y-408022247D01*
X-105640178Y-408192086D01*
X-105622782Y-408368713D01*
X-105640178Y-408545340D01*
X-105691698Y-408715179D01*
X-105775363Y-408871704D01*
X-105800362Y-408902165D01*
X-105887955Y-409008899D01*
X-105989412Y-409092161D01*
X-106025150Y-409121491D01*
X-106181675Y-409205156D01*
X-106351514Y-409256676D01*
X-106395123Y-409260971D01*
X-106483881Y-409269713D01*
X-106572401Y-409269713D01*
X-106661159Y-409260971D01*
X-106704768Y-409256676D01*
X-106874607Y-409205156D01*
X-107031132Y-409121491D01*
X-107066870Y-409092161D01*
X-107168327Y-409008899D01*
X-107255920Y-408902165D01*
X-107280919Y-408871704D01*
X-107364584Y-408715179D01*
X-107416104Y-408545340D01*
X-107433500Y-408368713D01*
X-107416104Y-408192086D01*
X-107364584Y-408022247D01*
X-107280919Y-407865722D01*
X-107251589Y-407829984D01*
X-107168327Y-407728527D01*
X-107066870Y-407645265D01*
X-107031132Y-407615935D01*
X-106874607Y-407532270D01*
X-106704768Y-407480750D01*
X-106638583Y-407474231D01*
X-106572401Y-407467713D01*
X-106483881Y-407467713D01*
X-106417699Y-407474231D01*
X-106417699Y-407474231D01*
G37*
G36*
X-130823850Y-406369646D02*
G01*
X-130655328Y-406439450D01*
X-130503663Y-406540789D01*
X-130374682Y-406669770D01*
X-130273343Y-406821435D01*
X-130203539Y-406989957D01*
X-130167954Y-407168858D01*
X-130167954Y-407351264D01*
X-130203539Y-407530165D01*
X-130273343Y-407698687D01*
X-130374682Y-407850352D01*
X-130503663Y-407979333D01*
X-130655328Y-408080672D01*
X-130823850Y-408150476D01*
X-131002751Y-408186061D01*
X-131185157Y-408186061D01*
X-131364058Y-408150476D01*
X-131532580Y-408080672D01*
X-131684245Y-407979333D01*
X-131813226Y-407850352D01*
X-131914565Y-407698687D01*
X-131984369Y-407530165D01*
X-132019954Y-407351264D01*
X-132019954Y-407168858D01*
X-131984369Y-406989957D01*
X-131914565Y-406821435D01*
X-131813226Y-406669770D01*
X-131684245Y-406540789D01*
X-131532580Y-406439450D01*
X-131364058Y-406369646D01*
X-131185157Y-406334061D01*
X-131002751Y-406334061D01*
X-130823850Y-406369646D01*
X-130823850Y-406369646D01*
G37*
G36*
X-140983850Y-406369646D02*
G01*
X-140815328Y-406439450D01*
X-140663663Y-406540789D01*
X-140534682Y-406669770D01*
X-140433343Y-406821435D01*
X-140363539Y-406989957D01*
X-140327954Y-407168858D01*
X-140327954Y-407351264D01*
X-140363539Y-407530165D01*
X-140433343Y-407698687D01*
X-140534682Y-407850352D01*
X-140663663Y-407979333D01*
X-140815328Y-408080672D01*
X-140983850Y-408150476D01*
X-141162751Y-408186061D01*
X-141345157Y-408186061D01*
X-141524058Y-408150476D01*
X-141692580Y-408080672D01*
X-141844245Y-407979333D01*
X-141973226Y-407850352D01*
X-142074565Y-407698687D01*
X-142144369Y-407530165D01*
X-142179954Y-407351264D01*
X-142179954Y-407168858D01*
X-142144369Y-406989957D01*
X-142074565Y-406821435D01*
X-141973226Y-406669770D01*
X-141844245Y-406540789D01*
X-141692580Y-406439450D01*
X-141524058Y-406369646D01*
X-141345157Y-406334061D01*
X-141162751Y-406334061D01*
X-140983850Y-406369646D01*
X-140983850Y-406369646D01*
G37*
G36*
X-121919896Y-406369646D02*
G01*
X-121751374Y-406439450D01*
X-121599709Y-406540789D01*
X-121470728Y-406669770D01*
X-121369389Y-406821435D01*
X-121299585Y-406989957D01*
X-121264000Y-407168858D01*
X-121264000Y-407351264D01*
X-121299585Y-407530165D01*
X-121369389Y-407698687D01*
X-121470728Y-407850352D01*
X-121599709Y-407979333D01*
X-121751374Y-408080672D01*
X-121919896Y-408150476D01*
X-122098797Y-408186061D01*
X-122281203Y-408186061D01*
X-122460104Y-408150476D01*
X-122628626Y-408080672D01*
X-122780291Y-407979333D01*
X-122909272Y-407850352D01*
X-123010611Y-407698687D01*
X-123080415Y-407530165D01*
X-123116000Y-407351264D01*
X-123116000Y-407168858D01*
X-123080415Y-406989957D01*
X-123010611Y-406821435D01*
X-122909272Y-406669770D01*
X-122780291Y-406540789D01*
X-122628626Y-406439450D01*
X-122460104Y-406369646D01*
X-122281203Y-406334061D01*
X-122098797Y-406334061D01*
X-121919896Y-406369646D01*
X-121919896Y-406369646D01*
G37*
G36*
X-111759896Y-406369646D02*
G01*
X-111591374Y-406439450D01*
X-111439709Y-406540789D01*
X-111310728Y-406669770D01*
X-111209389Y-406821435D01*
X-111139585Y-406989957D01*
X-111104000Y-407168858D01*
X-111104000Y-407351264D01*
X-111139585Y-407530165D01*
X-111209389Y-407698687D01*
X-111310728Y-407850352D01*
X-111439709Y-407979333D01*
X-111591374Y-408080672D01*
X-111759896Y-408150476D01*
X-111938797Y-408186061D01*
X-112121203Y-408186061D01*
X-112300104Y-408150476D01*
X-112468626Y-408080672D01*
X-112620291Y-407979333D01*
X-112749272Y-407850352D01*
X-112850611Y-407698687D01*
X-112920415Y-407530165D01*
X-112956000Y-407351264D01*
X-112956000Y-407168858D01*
X-112920415Y-406989957D01*
X-112850611Y-406821435D01*
X-112749272Y-406669770D01*
X-112620291Y-406540789D01*
X-112468626Y-406439450D01*
X-112300104Y-406369646D01*
X-112121203Y-406334061D01*
X-111938797Y-406334061D01*
X-111759896Y-406369646D01*
X-111759896Y-406369646D01*
G37*
G36*
X-105627141Y-406729713D02*
G01*
X-107429141Y-406729713D01*
X-107429141Y-404927713D01*
X-105627141Y-404927713D01*
X-105627141Y-406729713D01*
X-105627141Y-406729713D01*
G37*
G36*
X-112107415Y-401338863D02*
G01*
X-111957590Y-401368665D01*
X-111675326Y-401485582D01*
X-111421295Y-401655320D01*
X-111205259Y-401871356D01*
X-111035521Y-402125387D01*
X-110986087Y-402244733D01*
X-110918604Y-402407652D01*
X-110859000Y-402707300D01*
X-110859000Y-403012822D01*
X-110888802Y-403162646D01*
X-110918604Y-403312471D01*
X-111035521Y-403594735D01*
X-111205259Y-403848766D01*
X-111421295Y-404064802D01*
X-111675326Y-404234540D01*
X-111957590Y-404351457D01*
X-112107415Y-404381259D01*
X-112257239Y-404411061D01*
X-112562761Y-404411061D01*
X-112712585Y-404381259D01*
X-112862410Y-404351457D01*
X-113144674Y-404234540D01*
X-113398705Y-404064802D01*
X-113614741Y-403848766D01*
X-113784479Y-403594735D01*
X-113901396Y-403312471D01*
X-113931198Y-403162646D01*
X-113961000Y-403012822D01*
X-113961000Y-402707300D01*
X-113901396Y-402407652D01*
X-113833913Y-402244733D01*
X-113784479Y-402125387D01*
X-113614741Y-401871356D01*
X-113398705Y-401655320D01*
X-113144674Y-401485582D01*
X-112862410Y-401368665D01*
X-112712585Y-401338863D01*
X-112562761Y-401309061D01*
X-112257239Y-401309061D01*
X-112107415Y-401338863D01*
X-112107415Y-401338863D01*
G37*
G36*
X-131171369Y-401338863D02*
G01*
X-131021544Y-401368665D01*
X-130739280Y-401485582D01*
X-130485249Y-401655320D01*
X-130269213Y-401871356D01*
X-130099475Y-402125387D01*
X-130050041Y-402244733D01*
X-129982558Y-402407652D01*
X-129922954Y-402707300D01*
X-129922954Y-403012822D01*
X-129952756Y-403162646D01*
X-129982558Y-403312471D01*
X-130099475Y-403594735D01*
X-130269213Y-403848766D01*
X-130485249Y-404064802D01*
X-130739280Y-404234540D01*
X-131021544Y-404351457D01*
X-131171369Y-404381259D01*
X-131321193Y-404411061D01*
X-131626715Y-404411061D01*
X-131776539Y-404381259D01*
X-131926364Y-404351457D01*
X-132208628Y-404234540D01*
X-132462659Y-404064802D01*
X-132678695Y-403848766D01*
X-132848433Y-403594735D01*
X-132965350Y-403312471D01*
X-132995152Y-403162646D01*
X-133024954Y-403012822D01*
X-133024954Y-402707300D01*
X-132965350Y-402407652D01*
X-132897867Y-402244733D01*
X-132848433Y-402125387D01*
X-132678695Y-401871356D01*
X-132462659Y-401655320D01*
X-132208628Y-401485582D01*
X-131926364Y-401368665D01*
X-131776539Y-401338863D01*
X-131626715Y-401309061D01*
X-131321193Y-401309061D01*
X-131171369Y-401338863D01*
X-131171369Y-401338863D01*
G37*
G36*
X-138471369Y-399988863D02*
G01*
X-138321544Y-400018665D01*
X-138039280Y-400135582D01*
X-137785249Y-400305320D01*
X-137569213Y-400521356D01*
X-137399475Y-400775387D01*
X-137282558Y-401057651D01*
X-137282558Y-401057652D01*
X-137232549Y-401309061D01*
X-137222954Y-401357301D01*
X-137222954Y-401662821D01*
X-137282558Y-401962471D01*
X-137399475Y-402244735D01*
X-137569213Y-402498766D01*
X-137785249Y-402714802D01*
X-138039280Y-402884540D01*
X-138321544Y-403001457D01*
X-138378675Y-403012821D01*
X-138621193Y-403061061D01*
X-138926715Y-403061061D01*
X-139169233Y-403012821D01*
X-139226364Y-403001457D01*
X-139508628Y-402884540D01*
X-139762659Y-402714802D01*
X-139978695Y-402498766D01*
X-140148433Y-402244735D01*
X-140265350Y-401962471D01*
X-140324954Y-401662821D01*
X-140324954Y-401357301D01*
X-140315358Y-401309061D01*
X-140265350Y-401057652D01*
X-140265350Y-401057651D01*
X-140148433Y-400775387D01*
X-139978695Y-400521356D01*
X-139762659Y-400305320D01*
X-139508628Y-400135582D01*
X-139226364Y-400018665D01*
X-139076539Y-399988863D01*
X-138926715Y-399959061D01*
X-138621193Y-399959061D01*
X-138471369Y-399988863D01*
X-138471369Y-399988863D01*
G37*
G36*
X-119407415Y-399988863D02*
G01*
X-119257590Y-400018665D01*
X-118975326Y-400135582D01*
X-118721295Y-400305320D01*
X-118505259Y-400521356D01*
X-118335521Y-400775387D01*
X-118218604Y-401057651D01*
X-118218604Y-401057652D01*
X-118168595Y-401309061D01*
X-118159000Y-401357301D01*
X-118159000Y-401662821D01*
X-118218604Y-401962471D01*
X-118335521Y-402244735D01*
X-118505259Y-402498766D01*
X-118721295Y-402714802D01*
X-118975326Y-402884540D01*
X-119257590Y-403001457D01*
X-119314721Y-403012821D01*
X-119557239Y-403061061D01*
X-119862761Y-403061061D01*
X-120105279Y-403012821D01*
X-120162410Y-403001457D01*
X-120444674Y-402884540D01*
X-120698705Y-402714802D01*
X-120914741Y-402498766D01*
X-121084479Y-402244735D01*
X-121201396Y-401962471D01*
X-121261000Y-401662821D01*
X-121261000Y-401357301D01*
X-121251404Y-401309061D01*
X-121201396Y-401057652D01*
X-121201396Y-401057651D01*
X-121084479Y-400775387D01*
X-120914741Y-400521356D01*
X-120698705Y-400305320D01*
X-120444674Y-400135582D01*
X-120162410Y-400018665D01*
X-120012585Y-399988863D01*
X-119862761Y-399959061D01*
X-119557239Y-399959061D01*
X-119407415Y-399988863D01*
X-119407415Y-399988863D01*
G37*
G36*
X-118019724Y-395997694D02*
G01*
X-119760322Y-396464086D01*
X-120226714Y-394723488D01*
X-118486116Y-394257096D01*
X-118019724Y-395997694D01*
X-118019724Y-395997694D01*
G37*
G36*
X-116559324Y-393808710D02*
G01*
X-116493140Y-393815228D01*
X-116323301Y-393866748D01*
X-116166776Y-393950413D01*
X-116131038Y-393979743D01*
X-116029581Y-394063005D01*
X-115946319Y-394164462D01*
X-115916989Y-394200200D01*
X-115833324Y-394356725D01*
X-115781804Y-394526564D01*
X-115764408Y-394703191D01*
X-115781804Y-394879818D01*
X-115833324Y-395049657D01*
X-115916989Y-395206182D01*
X-115946319Y-395241920D01*
X-116029581Y-395343377D01*
X-116131038Y-395426639D01*
X-116166776Y-395455969D01*
X-116323301Y-395539634D01*
X-116493140Y-395591154D01*
X-116559325Y-395597673D01*
X-116625507Y-395604191D01*
X-116714027Y-395604191D01*
X-116780209Y-395597673D01*
X-116846394Y-395591154D01*
X-117016233Y-395539634D01*
X-117172758Y-395455969D01*
X-117208496Y-395426639D01*
X-117309953Y-395343377D01*
X-117393215Y-395241920D01*
X-117422545Y-395206182D01*
X-117506210Y-395049657D01*
X-117557730Y-394879818D01*
X-117575126Y-394703191D01*
X-117557730Y-394526564D01*
X-117506210Y-394356725D01*
X-117422545Y-394200200D01*
X-117393215Y-394164462D01*
X-117309953Y-394063005D01*
X-117208496Y-393979743D01*
X-117172758Y-393950413D01*
X-117016233Y-393866748D01*
X-116846394Y-393815228D01*
X-116780210Y-393808710D01*
X-116714027Y-393802191D01*
X-116625507Y-393802191D01*
X-116559324Y-393808710D01*
X-116559324Y-393808710D01*
G37*
G36*
X-114105873Y-393151309D02*
G01*
X-114039689Y-393157827D01*
X-113869850Y-393209347D01*
X-113713325Y-393293012D01*
X-113677587Y-393322342D01*
X-113576130Y-393405604D01*
X-113492868Y-393507061D01*
X-113463538Y-393542799D01*
X-113379873Y-393699324D01*
X-113328353Y-393869163D01*
X-113310957Y-394045790D01*
X-113328353Y-394222417D01*
X-113379873Y-394392256D01*
X-113463538Y-394548781D01*
X-113492868Y-394584519D01*
X-113576130Y-394685976D01*
X-113677587Y-394769238D01*
X-113713325Y-394798568D01*
X-113869850Y-394882233D01*
X-114039689Y-394933753D01*
X-114105873Y-394940271D01*
X-114172056Y-394946790D01*
X-114260576Y-394946790D01*
X-114326759Y-394940271D01*
X-114392943Y-394933753D01*
X-114562782Y-394882233D01*
X-114719307Y-394798568D01*
X-114755045Y-394769238D01*
X-114856502Y-394685976D01*
X-114939764Y-394584519D01*
X-114969094Y-394548781D01*
X-115052759Y-394392256D01*
X-115104279Y-394222417D01*
X-115121675Y-394045790D01*
X-115104279Y-393869163D01*
X-115052759Y-393699324D01*
X-114969094Y-393542799D01*
X-114939764Y-393507061D01*
X-114856502Y-393405604D01*
X-114755045Y-393322342D01*
X-114719307Y-393293012D01*
X-114562782Y-393209347D01*
X-114392943Y-393157827D01*
X-114326759Y-393151309D01*
X-114260576Y-393144790D01*
X-114172056Y-393144790D01*
X-114105873Y-393151309D01*
X-114105873Y-393151309D01*
G37*
G36*
X-111652421Y-392493909D02*
G01*
X-111586237Y-392500427D01*
X-111416398Y-392551947D01*
X-111259873Y-392635612D01*
X-111224135Y-392664942D01*
X-111122678Y-392748204D01*
X-111039416Y-392849661D01*
X-111010086Y-392885399D01*
X-110926421Y-393041924D01*
X-110874901Y-393211763D01*
X-110857505Y-393388390D01*
X-110874901Y-393565017D01*
X-110926421Y-393734856D01*
X-111010086Y-393891381D01*
X-111039416Y-393927119D01*
X-111122678Y-394028576D01*
X-111224135Y-394111838D01*
X-111259873Y-394141168D01*
X-111416398Y-394224833D01*
X-111586237Y-394276353D01*
X-111652422Y-394282872D01*
X-111718604Y-394289390D01*
X-111807124Y-394289390D01*
X-111873306Y-394282872D01*
X-111939491Y-394276353D01*
X-112109330Y-394224833D01*
X-112265855Y-394141168D01*
X-112301593Y-394111838D01*
X-112403050Y-394028576D01*
X-112486312Y-393927119D01*
X-112515642Y-393891381D01*
X-112599307Y-393734856D01*
X-112650827Y-393565017D01*
X-112668223Y-393388390D01*
X-112650827Y-393211763D01*
X-112599307Y-393041924D01*
X-112515642Y-392885399D01*
X-112486312Y-392849661D01*
X-112403050Y-392748204D01*
X-112301593Y-392664942D01*
X-112265855Y-392635612D01*
X-112109330Y-392551947D01*
X-111939491Y-392500427D01*
X-111873307Y-392493909D01*
X-111807124Y-392487390D01*
X-111718604Y-392487390D01*
X-111652421Y-392493909D01*
X-111652421Y-392493909D01*
G37*
M02*
