G04 #@! TF.GenerationSoftware,KiCad,Pcbnew,(5.1.4)-1*
G04 #@! TF.CreationDate,2023-09-09T05:28:25-04:00*
G04 #@! TF.ProjectId,ThumbsUp,5468756d-6273-4557-902e-6b696361645f,rev?*
G04 #@! TF.SameCoordinates,Original*
G04 #@! TF.FileFunction,Legend,Bot*
G04 #@! TF.FilePolarity,Positive*
%FSLAX46Y46*%
G04 Gerber Fmt 4.6, Leading zero omitted, Abs format (unit mm)*
G04 Created by KiCad (PCBNEW (5.1.4)-1) date 2023-09-09 05:28:25*
%MOMM*%
%LPD*%
G04 APERTURE LIST*
%ADD10C,0.150000*%
%ADD11C,0.120000*%
G04 APERTURE END LIST*
D10*
X-132503486Y-415543139D02*
X-132061970Y-415364755D01*
X-132436577Y-414437571D01*
X-133008770Y-415182340D02*
X-133317832Y-415307209D01*
X-133254064Y-415846392D02*
X-132812548Y-415668008D01*
X-133187154Y-414740824D01*
X-133628670Y-414919208D01*
X-134156712Y-415646139D02*
X-133847651Y-415521270D01*
X-133651428Y-416006938D02*
X-134026035Y-415079754D01*
X-134467551Y-415258138D01*
X-134688309Y-415347330D02*
X-135218129Y-415561391D01*
X-134578612Y-416381545D02*
X-134953219Y-415454361D01*
X-129344208Y-415481343D02*
X-129035147Y-415356474D01*
X-128838924Y-415842142D02*
X-129213531Y-414914958D01*
X-129655047Y-415093342D01*
X-130163473Y-416377294D02*
X-130032795Y-415810909D01*
X-129633653Y-416163233D02*
X-130008260Y-415236050D01*
X-130361473Y-415378757D01*
X-130431938Y-415458585D01*
X-130458251Y-415520575D01*
X-130466726Y-415626717D01*
X-130413210Y-415759172D01*
X-130333382Y-415829637D01*
X-130271392Y-415855950D01*
X-130165250Y-415864425D01*
X-129812037Y-415721717D01*
X-131112050Y-415682010D02*
X-131288657Y-415753364D01*
X-131359121Y-415833192D01*
X-131411748Y-415957172D01*
X-131384546Y-416151617D01*
X-131259677Y-416460678D01*
X-131144172Y-416619446D01*
X-131020192Y-416672073D01*
X-130914050Y-416680547D01*
X-130737444Y-416609194D01*
X-130666979Y-416529365D01*
X-130614352Y-416405385D01*
X-130641554Y-416210940D01*
X-130766423Y-415901879D01*
X-130881928Y-415743111D01*
X-131005909Y-415690485D01*
X-131112050Y-415682010D01*
X-131532173Y-416930285D02*
X-131906779Y-416003101D01*
X-131948264Y-416790244D01*
X-132524902Y-416252839D01*
X-132150295Y-417180023D01*
X-133803521Y-417283023D02*
X-133918137Y-417380689D01*
X-133944450Y-417442679D01*
X-133952925Y-417548821D01*
X-133899410Y-417681276D01*
X-133819582Y-417751741D01*
X-133757592Y-417778054D01*
X-133651450Y-417786529D01*
X-133298237Y-417643821D01*
X-133672844Y-416716638D01*
X-133981905Y-416841506D01*
X-134052370Y-416921335D01*
X-134078683Y-416983325D01*
X-134087158Y-417089467D01*
X-134051481Y-417177770D01*
X-133971653Y-417248235D01*
X-133909662Y-417274548D01*
X-133803521Y-417283023D01*
X-133494460Y-417158154D01*
X-134421643Y-417532760D02*
X-134730705Y-417657629D01*
X-134666937Y-418196812D02*
X-134225421Y-418018428D01*
X-134600028Y-417091244D01*
X-135041544Y-417269628D01*
X-135505818Y-418535742D02*
X-135064302Y-418357358D01*
X-135438908Y-417430174D01*
X-136366092Y-417804781D02*
X-136542698Y-417876134D01*
X-136613163Y-417955963D01*
X-136665790Y-418079943D01*
X-136638588Y-418274388D01*
X-136513719Y-418583449D01*
X-136398214Y-418742217D01*
X-136274233Y-418794843D01*
X-136168092Y-418803318D01*
X-135991485Y-418731964D01*
X-135921021Y-418652136D01*
X-135868394Y-418528156D01*
X-135895596Y-418333711D01*
X-136020465Y-418024650D01*
X-136135970Y-417865882D01*
X-136259950Y-417813255D01*
X-136366092Y-417804781D01*
X-137072518Y-418090195D02*
X-136918669Y-419106571D01*
X-137362852Y-418515650D01*
X-137271882Y-419249278D01*
X-137867247Y-418411286D01*
D11*
X-105198141Y-404498713D02*
X-106528141Y-404498713D01*
X-105198141Y-405828713D02*
X-105198141Y-404498713D01*
X-105198141Y-407098713D02*
X-107858141Y-407098713D01*
X-107858141Y-407098713D02*
X-107858141Y-414778713D01*
X-105198141Y-407098713D02*
X-105198141Y-414778713D01*
X-105198141Y-414778713D02*
X-107858141Y-414778713D01*
X-141369330Y-415714574D02*
X-141369330Y-417044574D01*
X-140039330Y-415714574D02*
X-141369330Y-415714574D01*
X-138769330Y-415714574D02*
X-138769330Y-418374574D01*
X-138769330Y-418374574D02*
X-131089330Y-418374574D01*
X-138769330Y-415714574D02*
X-131089330Y-415714574D01*
X-131089330Y-415714574D02*
X-131089330Y-418374574D01*
X-143916620Y-407997892D02*
X-145246620Y-407997892D01*
X-143916620Y-409327892D02*
X-143916620Y-407997892D01*
X-143916620Y-410597892D02*
X-146576620Y-410597892D01*
X-146576620Y-410597892D02*
X-146576620Y-418277892D01*
X-143916620Y-410597892D02*
X-143916620Y-418277892D01*
X-143916620Y-418277892D02*
X-146576620Y-418277892D01*
X-120752130Y-394420139D02*
X-120407900Y-395704820D01*
X-119467448Y-394075910D02*
X-120752130Y-394420139D01*
X-118240723Y-393747209D02*
X-117552264Y-396316572D01*
X-117552264Y-396316572D02*
X-110133954Y-394328842D01*
X-118240723Y-393747209D02*
X-110822412Y-391759479D01*
X-110822412Y-391759479D02*
X-110133954Y-394328842D01*
D10*
X-105718617Y-402951093D02*
X-105718617Y-403665379D01*
X-105670998Y-403808236D01*
X-105575760Y-403903474D01*
X-105432902Y-403951093D01*
X-105337664Y-403951093D01*
X-106623379Y-402951093D02*
X-106432902Y-402951093D01*
X-106337664Y-402998713D01*
X-106290045Y-403046332D01*
X-106194807Y-403189189D01*
X-106147188Y-403379665D01*
X-106147188Y-403760617D01*
X-106194807Y-403855855D01*
X-106242426Y-403903474D01*
X-106337664Y-403951093D01*
X-106528141Y-403951093D01*
X-106623379Y-403903474D01*
X-106670998Y-403855855D01*
X-106718617Y-403760617D01*
X-106718617Y-403522522D01*
X-106670998Y-403427284D01*
X-106623379Y-403379665D01*
X-106528141Y-403332046D01*
X-106337664Y-403332046D01*
X-106242426Y-403379665D01*
X-106194807Y-403427284D01*
X-106147188Y-403522522D01*
X-107051950Y-402951093D02*
X-107718617Y-402951093D01*
X-107290045Y-403951093D01*
X-142916949Y-416235050D02*
X-142202663Y-416235050D01*
X-142059806Y-416187431D01*
X-141964568Y-416092193D01*
X-141916949Y-415949335D01*
X-141916949Y-415854097D01*
X-142916949Y-417187431D02*
X-142916949Y-416711240D01*
X-142440758Y-416663621D01*
X-142488377Y-416711240D01*
X-142535996Y-416806478D01*
X-142535996Y-417044574D01*
X-142488377Y-417139812D01*
X-142440758Y-417187431D01*
X-142345520Y-417235050D01*
X-142107425Y-417235050D01*
X-142012187Y-417187431D01*
X-141964568Y-417139812D01*
X-141916949Y-417044574D01*
X-141916949Y-416806478D01*
X-141964568Y-416711240D01*
X-142012187Y-416663621D01*
X-142916949Y-417568383D02*
X-142916949Y-418187431D01*
X-142535996Y-417854097D01*
X-142535996Y-417996954D01*
X-142488377Y-418092193D01*
X-142440758Y-418139812D01*
X-142345520Y-418187431D01*
X-142107425Y-418187431D01*
X-142012187Y-418139812D01*
X-141964568Y-418092193D01*
X-141916949Y-417996954D01*
X-141916949Y-417711240D01*
X-141964568Y-417616002D01*
X-142012187Y-417568383D01*
X-144437096Y-406450272D02*
X-144437096Y-407164558D01*
X-144389477Y-407307415D01*
X-144294239Y-407402653D01*
X-144151381Y-407450272D01*
X-144056143Y-407450272D01*
X-145341858Y-406450272D02*
X-145151381Y-406450272D01*
X-145056143Y-406497892D01*
X-145008524Y-406545511D01*
X-144913286Y-406688368D01*
X-144865667Y-406878844D01*
X-144865667Y-407259796D01*
X-144913286Y-407355034D01*
X-144960905Y-407402653D01*
X-145056143Y-407450272D01*
X-145246620Y-407450272D01*
X-145341858Y-407402653D01*
X-145389477Y-407355034D01*
X-145437096Y-407259796D01*
X-145437096Y-407021701D01*
X-145389477Y-406926463D01*
X-145341858Y-406878844D01*
X-145246620Y-406831225D01*
X-145056143Y-406831225D01*
X-144960905Y-406878844D01*
X-144913286Y-406926463D01*
X-144865667Y-407021701D01*
X-146341858Y-406450272D02*
X-145865667Y-406450272D01*
X-145818048Y-406926463D01*
X-145865667Y-406878844D01*
X-145960905Y-406831225D01*
X-146199000Y-406831225D01*
X-146294239Y-406878844D01*
X-146341858Y-406926463D01*
X-146389477Y-407021701D01*
X-146389477Y-407259796D01*
X-146341858Y-407355034D01*
X-146294239Y-407402653D01*
X-146199000Y-407450272D01*
X-145960905Y-407450272D01*
X-145865667Y-407402653D01*
X-145818048Y-407355034D01*
X-120635346Y-396603844D02*
X-121325293Y-396788715D01*
X-121450958Y-396871686D01*
X-121518301Y-396988328D01*
X-121527323Y-397138642D01*
X-121502674Y-397230635D01*
X-120869516Y-395729911D02*
X-120820217Y-395913897D01*
X-120841564Y-396018215D01*
X-120875235Y-396076536D01*
X-120988575Y-396205503D01*
X-121160237Y-396300798D01*
X-121528208Y-396399396D01*
X-121632526Y-396378049D01*
X-121690847Y-396344377D01*
X-121761493Y-396264709D01*
X-121810792Y-396080723D01*
X-121789445Y-395976406D01*
X-121755773Y-395918084D01*
X-121676105Y-395847439D01*
X-121446123Y-395785815D01*
X-121341805Y-395807162D01*
X-121283484Y-395840834D01*
X-121212838Y-395920502D01*
X-121163539Y-396104488D01*
X-121184886Y-396208806D01*
X-121218558Y-396267127D01*
X-121298226Y-396337773D01*
X-121116010Y-394809982D02*
X-121066711Y-394993968D01*
X-121088058Y-395098285D01*
X-121121730Y-395156607D01*
X-121235070Y-395285574D01*
X-121406731Y-395380869D01*
X-121774703Y-395479467D01*
X-121879020Y-395458120D01*
X-121937342Y-395424448D01*
X-122007987Y-395344780D01*
X-122057286Y-395160794D01*
X-122035939Y-395056476D01*
X-122002267Y-394998155D01*
X-121922599Y-394927509D01*
X-121692617Y-394865886D01*
X-121588299Y-394887233D01*
X-121529978Y-394920904D01*
X-121459332Y-395000573D01*
X-121410033Y-395184559D01*
X-121431380Y-395288876D01*
X-121465052Y-395347197D01*
X-121544720Y-395417843D01*
M02*
