0
SECTION
2
HEADER
9
$INSUNITS
70
4
9
$ACADVER
1
AC1014
9
$HANDSEED
5
FFFF
0
ENDSEC
0
SECTION
2
TABLES
0
TABLE
2
VPORT
5
8
100
AcDbSymbolTable
0
ENDTAB
0
TABLE
2
LTYPE
5
5
100
AcDbSymbolTable
0
LTYPE
5
14
100
AcDbSymbolTableRecord
100
AcDbLinetypeTableRecord
2
BYBLOCK
70
0
0
LTYPE
5
15
100
AcDbSymbolTableRecord
100
AcDbLinetypeTableRecord
2
BYLAYER
70
0
0
ENDTAB
0
TABLE
2
LAYER
5
2
100
AcDbSymbolTable
70
2
0
LAYER
5
50
100
AcDbSymbolTableRecord
100
AcDbLayerTableRecord
2
0
70
0
6
CONTINUOUS
0
ENDTAB
0
TABLE
2
STYLE
5
3
100
AcDbSymbolTable
70
1
0
STYLE
5
11
100
AcDbSymbolTableRecord
100
AcDbTextStyleTableRecord
2
STANDARD
70
0
0
ENDTAB
0
TABLE
2
VIEW
5
6
100
AcDbSymbolTable
70
0
0
ENDTAB
0
TABLE
2
UCS
5
7
100
AcDbSymbolTable
70
0
0
ENDTAB
0
TABLE
2
APPID
5
9
100
AcDbSymbolTable
70
2
0
APPID
5
12
100
AcDbSymbolTableRecord
100
AcDbRegAppTableRecord
2
ACAD
70
0
0
ENDTAB
0
TABLE
2
DIMSTYLE
5
A
100
AcDbSymbolTable
70
1
0
ENDTAB
0
TABLE
2
BLOCK_RECORD
5
1
100
AcDbSymbolTable
70
1
0
BLOCK_RECORD
5
1F
100
AcDbSymbolTableRecord
100
AcDbBlockTableRecord
2
*MODEL_SPACE
0
BLOCK_RECORD
5
1B
100
AcDbSymbolTableRecord
100
AcDbBlockTableRecord
2
*PAPER_SPACE
0
ENDTAB
0
ENDSEC
0
SECTION
2
BLOCKS
0
BLOCK
5
20
100
AcDbEntity
100
AcDbBlockBegin
2
*MODEL_SPACE
0
ENDBLK
5
21
100
AcDbEntity
100
AcDbBlockEnd
0
BLOCK
5
1C
100
AcDbEntity
100
AcDbBlockBegin
2
*PAPER_SPACE
0
ENDBLK
5
1D
100
AcDbEntity
100
AcDbBlockEnd
0
ENDSEC
0
SECTION
2
ENTITIES
0
LWPOLYLINE
5
100
100
AcDbEntity
8
0
100
AcDbPolyline
90
12
70
1
43
0.0
10
90.893517031318396
20
228.69745899451902
10
89.335275031319355
20
230.19845099451999
10
58.608297031321811
20
238.44563899453181
10
56.835325031318398
20
237.13966199451906
10
54.929278031318383
20
230.0739709945191
10
52.040565031318394
20
226.2405199945191
10
52.035269031318379
20
215.1005049945191
10
60.719215031318399
20
211.88066799451906
10
93.418169031318399
20
211.92652699451909
10
93.9614300313184
20
212.48129499451909
10
93.957529031318387
20
222.21332899451906
10
90.905340031318389
20
224.77626799451909
0
CIRCLE
5
101
100
AcDbEntity
8
0
100
AcDbCircle
10
92.573509031318395
20
215.87635799451905
30
0
40
0.5
210
0
220
0
230
1
0
CIRCLE
5
102
100
AcDbEntity
8
0
100
AcDbCircle
10
92.573509031318395
20
218.4163579945191
30
0
40
0.5
210
0
220
0
230
1
0
CIRCLE
5
103
100
AcDbEntity
8
0
100
AcDbCircle
10
92.573509031318395
20
220.9563579945191
30
0
40
0.5
210
0
220
0
230
1
0
CIRCLE
5
104
100
AcDbEntity
8
0
100
AcDbCircle
10
88.756067031318366
20
222.94801299451908
30
0
40
0.87500000000000011
210
0
220
0
230
1
0
CIRCLE
5
105
100
AcDbEntity
8
0
100
AcDbCircle
10
87.486067031318413
20
220.40801299451903
30
0
40
0.73499999999999999
210
0
220
0
230
1
0
CIRCLE
5
106
100
AcDbEntity
8
0
100
AcDbCircle
10
86.176067031318411
20
218.9480129945191
30
0
40
0.73499999999999999
210
0
220
0
230
1
0
LWPOLYLINE
5
107
100
AcDbEntity
8
0
100
AcDbPolyline
90
2
70
1
43
0.0
10
80.48259266513611
20
218.20445950251514
42
1.5193722920738444
10
81.829541397488214
20
218.111566486519
42
1.5193722920839676
0
CIRCLE
5
108
100
AcDbEntity
8
0
100
AcDbCircle
10
83.676067031318411
20
222.94801299451908
30
0
40
1.9939
210
0
220
0
230
1
0
CIRCLE
5
109
100
AcDbEntity
8
0
100
AcDbCircle
10
79.866067031318408
20
225.48801299451912
30
0
40
1.5000000000000002
210
0
220
0
230
1
0
CIRCLE
5
110
100
AcDbEntity
8
0
100
AcDbCircle
10
78.596067031318384
20
222.94801299451908
30
0
40
0.87500000000000011
210
0
220
0
230
1
0
CIRCLE
5
111
100
AcDbEntity
8
0
100
AcDbCircle
10
86.216067031318389
20
228.02801299451903
30
0
40
1.5000000000000002
210
0
220
0
230
1
0
CIRCLE
5
112
100
AcDbEntity
8
0
100
AcDbCircle
10
61.481225833768391
20
236.2375997437191
30
0
40
0.5
210
0
220
0
230
1
0
CIRCLE
5
113
100
AcDbEntity
8
0
100
AcDbCircle
10
63.934677432538365
20
235.58019936911907
30
0
40
0.5
210
0
220
0
230
1
0
LWPOLYLINE
5
114
100
AcDbEntity
8
0
100
AcDbPolyline
90
2
70
1
43
0.0
10
61.403047665136128
20
218.20445950251514
42
1.5193722920738488
10
62.749996397488218
20
218.111566486519
42
1.5193722920839661
0
CIRCLE
5
115
100
AcDbEntity
8
0
100
AcDbCircle
10
69.67652203131837
20
222.94801299451908
30
0
40
0.87500000000000011
210
0
220
0
230
1
0
CIRCLE
5
116
100
AcDbEntity
8
0
100
AcDbCircle
10
67.096522031318386
20
218.9480129945191
30
0
40
0.73499999999999999
210
0
220
0
230
1
0
CIRCLE
5
117
100
AcDbEntity
8
0
100
AcDbCircle
10
68.406522031318389
20
220.40801299451903
30
0
40
0.73499999999999999
210
0
220
0
230
1
0
CIRCLE
5
118
100
AcDbEntity
8
0
100
AcDbCircle
10
64.596522031318386
20
222.94801299451908
30
0
40
1.9939
210
0
220
0
230
1
0
CIRCLE
5
119
100
AcDbEntity
8
0
100
AcDbCircle
10
67.136522031318407
20
228.02801299451903
30
0
40
1.5000000000000002
210
0
220
0
230
1
0
CIRCLE
5
120
100
AcDbEntity
8
0
100
AcDbCircle
10
66.388129031318385
20
234.92279899451904
30
0
40
0.5
210
0
220
0
230
1
0
CIRCLE
5
121
100
AcDbEntity
8
0
100
AcDbCircle
10
59.516522031318395
20
222.94801299451908
30
0
40
0.87500000000000011
210
0
220
0
230
1
0
CIRCLE
5
122
100
AcDbEntity
8
0
100
AcDbCircle
10
60.786522031318384
20
225.48801299451912
30
0
40
1.5000000000000002
210
0
220
0
230
1
0
CIRCLE
5
123
100
AcDbEntity
8
0
100
AcDbCircle
10
59.027774234988399
20
236.89500011821909
30
0
40
0.5
210
0
220
0
230
1
0
CIRCLE
5
124
100
AcDbEntity
8
0
100
AcDbCircle
10
53.851011031318379
20
216.8208289945191
30
0
40
0.5
210
0
220
0
230
1
0
CIRCLE
5
125
100
AcDbEntity
8
0
100
AcDbCircle
10
53.851011031318379
20
219.36082899451907
30
0
40
0.5
210
0
220
0
230
1
0
CIRCLE
5
126
100
AcDbEntity
8
0
100
AcDbCircle
10
53.851011031318379
20
221.90082899451906
30
0
40
0.5
210
0
220
0
230
1
0
CIRCLE
5
127
100
AcDbEntity
8
0
100
AcDbCircle
10
53.851011031318379
20
224.44082899451911
30
0
40
0.5
210
0
220
0
230
1
0
CIRCLE
5
128
100
AcDbEntity
8
0
100
AcDbCircle
10
85.062654031318374
20
213.26888599451908
30
0
40
0.5
210
0
220
0
230
1
0
CIRCLE
5
129
100
AcDbEntity
8
0
100
AcDbCircle
10
87.602654031318394
20
213.26888599451908
30
0
40
0.5
210
0
220
0
230
1
0
CIRCLE
5
130
100
AcDbEntity
8
0
100
AcDbCircle
10
82.52265403131841
20
213.26888599451908
30
0
40
0.5
210
0
220
0
230
1
0
CIRCLE
5
131
100
AcDbEntity
8
0
100
AcDbCircle
10
92.573509031318395
20
213.33635799451909
30
0
40
0.5
210
0
220
0
230
1
0
CIRCLE
5
132
100
AcDbEntity
8
0
100
AcDbCircle
10
79.98265403131839
20
213.26888599451908
30
0
40
0.5
210
0
220
0
230
1
0
LWPOLYLINE
5
133
100
AcDbEntity
8
0
100
AcDbPolyline
90
28
70
1
43
0.0
10
53.794019031318392
20
126.61316499451902
10
53.805556031318389
20
109.60346499451913
10
53.811377031318408
20
108.58383599451909
10
53.799012031318384
20
101.26558199451904
10
52.000900031318373
20
96.81509799451905
10
54.879032031318395
20
86.053298994519054
10
64.100435031318383
20
85.190745994519091
10
118.7085470313184
20
99.889607994519054
10
118.90854703131839
20
99.889608994519079
10
128.10854703131841
20
99.889607994519054
10
129.50854703131841
20
101.08960799451904
10
129.50854703131841
20
111.18960899451909
10
125.10854703131841
20
116.68960799451906
10
111.30854703131838
20
116.68960799451906
10
106.2085470313184
20
121.5896089945191
10
106.19652203131838
20
121.59993099451907
10
93.696522031318381
20
121.59993099451907
10
93.608547031318381
20
121.68960899451906
10
89.208547031318375
20
125.88960799451908
10
89.208547031318375
20
167.38960899451908
10
89.208547031318375
20
186.43960899451909
10
89.208547031318375
20
188.63960899451908
10
86.508547031318415
20
191.3396089945191
10
56.008548031318398
20
191.3396089945191
10
53.818427031318393
20
189.19353999451903
10
53.819760031318381
20
187.43498999451913
10
53.819760031318381
20
185.23498999451905
10
53.819760031318381
20
166.18498999451913
0
CIRCLE
5
134
100
AcDbEntity
8
0
100
AcDbCircle
10
87.288547031318416
20
178.69993099451906
30
0
40
0.87500000000000011
210
0
220
0
230
1
0
CIRCLE
5
135
100
AcDbEntity
8
0
100
AcDbCircle
10
84.708547031318375
20
174.69993099451909
30
0
40
0.73499999999999999
210
0
220
0
230
1
0
CIRCLE
5
136
100
AcDbEntity
8
0
100
AcDbCircle
10
86.018547031318377
20
176.1599309945191
30
0
40
0.73499999999999999
210
0
220
0
230
1
0
CIRCLE
5
137
100
AcDbEntity
8
0
100
AcDbCircle
10
85.628547031318362
20
169.13960899451905
30
0
40
0.5
210
0
220
0
230
1
0
CIRCLE
5
138
100
AcDbEntity
8
0
100
AcDbCircle
10
82.208547031318375
20
159.63960799451908
30
0
40
1.9939
210
0
220
0
230
1
0
CIRCLE
5
139
100
AcDbEntity
8
0
100
AcDbCircle
10
86.018547031318377
20
138.04960899451902
30
0
40
0.73499999999999999
210
0
220
0
230
1
0
CIRCLE
5
140
100
AcDbEntity
8
0
100
AcDbCircle
10
84.708547031318375
20
136.5896089945191
30
0
40
0.73499999999999999
210
0
220
0
230
1
0
CIRCLE
5
141
100
AcDbEntity
8
0
100
AcDbCircle
10
87.288547031318416
20
140.58960899451907
30
0
40
0.87500000000000011
210
0
220
0
230
1
0
CIRCLE
5
142
100
AcDbEntity
8
0
100
AcDbCircle
10
84.748547031318395
20
145.66960899451902
30
0
40
1.5000000000000002
210
0
220
0
230
1
0
CIRCLE
5
143
100
AcDbEntity
8
0
100
AcDbCircle
10
82.348191234988377
20
91.517406870919046
30
0
40
0.5
210
0
220
0
230
1
0
CIRCLE
5
144
100
AcDbEntity
8
0
100
AcDbCircle
10
82.208547031318375
20
121.53960899451906
30
0
40
1.9939
210
0
220
0
230
1
0
CIRCLE
5
145
100
AcDbEntity
8
0
100
AcDbCircle
10
87.255094432538414
20
92.832207620019062
30
0
40
0.5
210
0
220
0
230
1
0
CIRCLE
5
146
100
AcDbEntity
8
0
100
AcDbCircle
10
84.801642833768369
20
92.174807245419117
30
0
40
0.5
210
0
220
0
230
1
0
CIRCLE
5
147
100
AcDbEntity
8
0
100
AcDbCircle
10
59.348548031318401
20
184.23993099451909
30
0
40
0.73499999999999999
210
0
220
0
230
1
0
CIRCLE
5
148
100
AcDbEntity
8
0
100
AcDbCircle
10
60.658548031318382
20
185.69993099451909
30
0
40
0.73499999999999999
210
0
220
0
230
1
0
CIRCLE
5
149
100
AcDbEntity
8
0
100
AcDbCircle
10
58.078548031318391
20
181.69993099451904
30
0
40
0.87500000000000011
210
0
220
0
230
1
0
CIRCLE
5
150
100
AcDbEntity
8
0
100
AcDbCircle
10
59.446522031318395
20
168.89993099451902
30
0
40
0.75000000000000011
210
0
220
0
230
1
0
CIRCLE
5
151
100
AcDbEntity
8
0
100
AcDbCircle
10
58.646522031318383
20
171.42493099451909
30
0
40
0.80000000000000016
210
0
220
0
230
1
0
CIRCLE
5
152
100
AcDbEntity
8
0
100
AcDbCircle
10
57.546522031318389
20
173.94993099451906
30
0
40
0.75000000000000011
210
0
220
0
230
1
0
CIRCLE
5
153
100
AcDbEntity
8
0
100
AcDbCircle
10
60.658548031318382
20
166.63960899451905
30
0
40
0.73499999999999999
210
0
220
0
230
1
0
CIRCLE
5
154
100
AcDbEntity
8
0
100
AcDbCircle
10
58.078547031318394
20
124.53960899451903
30
0
40
0.87500000000000011
210
0
220
0
230
1
0
CIRCLE
5
155
100
AcDbEntity
8
0
100
AcDbCircle
10
59.348547031318368
20
127.07960899451908
30
0
40
0.73499999999999999
210
0
220
0
230
1
0
CIRCLE
5
156
100
AcDbEntity
8
0
100
AcDbCircle
10
63.158547031318371
20
124.53960899451903
30
0
40
1.9939
210
0
220
0
230
1
0
CIRCLE
5
157
100
AcDbEntity
8
0
100
AcDbCircle
10
60.658547031318371
20
128.53960899451903
30
0
40
0.73499999999999999
210
0
220
0
230
1
0
CIRCLE
5
158
100
AcDbEntity
8
0
100
AcDbCircle
10
58.078547031318394
20
143.58960799451904
30
0
40
0.87500000000000011
210
0
220
0
230
1
0
CIRCLE
5
159
100
AcDbEntity
8
0
100
AcDbCircle
10
68.238547031318404
20
124.53960899451903
30
0
40
0.87500000000000011
210
0
220
0
230
1
0
CIRCLE
5
160
100
AcDbEntity
8
0
100
AcDbCircle
10
66.968547031318366
20
121.99960899451906
30
0
40
1.5000000000000002
210
0
220
0
230
1
0
CIRCLE
5
161
100
AcDbEntity
8
0
100
AcDbCircle
10
78.398547031318373
20
181.23993099451911
30
0
40
1.5000000000000002
210
0
220
0
230
1
0
CIRCLE
5
162
100
AcDbEntity
8
0
100
AcDbCircle
10
68.238548031318373
20
181.69993099451904
30
0
40
0.87500000000000011
210
0
220
0
230
1
0
CIRCLE
5
163
100
AcDbEntity
8
0
100
AcDbCircle
10
66.968548031318392
20
179.15993099451913
30
0
40
1.5000000000000002
210
0
220
0
230
1
0
CIRCLE
5
164
100
AcDbEntity
8
0
100
AcDbCircle
10
63.158548031318382
20
181.69993099451904
30
0
40
1.9939
210
0
220
0
230
1
0
CIRCLE
5
165
100
AcDbEntity
8
0
100
AcDbCircle
10
78.0085470313184
20
169.13960899451905
30
0
40
0.5
210
0
220
0
230
1
0
CIRCLE
5
166
100
AcDbEntity
8
0
100
AcDbCircle
10
77.128547031318391
20
178.69993099451906
30
0
40
0.87500000000000011
210
0
220
0
230
1
0
CIRCLE
5
167
100
AcDbEntity
8
0
100
AcDbCircle
10
66.846522031318401
20
173.82493099451904
30
0
40
1
210
0
220
0
230
1
0
CIRCLE
5
168
100
AcDbEntity
8
0
100
AcDbCircle
10
65.646522031318398
20
171.42493099451909
30
0
40
0.80000000000000016
210
0
220
0
230
1
0
CIRCLE
5
169
100
AcDbEntity
8
0
100
AcDbCircle
10
60.618548031318369
20
176.61993099451908
30
0
40
1.5000000000000002
210
0
220
0
230
1
0
CIRCLE
5
170
100
AcDbEntity
8
0
100
AcDbCircle
10
65.698547031318384
20
148.66960799451905
30
0
40
1.5000000000000002
210
0
220
0
230
1
0
LWPOLYLINE
5
171
100
AcDbEntity
8
0
100
AcDbPolyline
90
2
70
1
43
0.0
10
65.005073665136138
20
167.47605550251509
42
1.5193722920739341
10
66.352022397488199
20
167.38316248651901
42
1.5193722920840551
0
CIRCLE
5
172
100
AcDbEntity
8
0
100
AcDbCircle
10
63.158548031318382
20
162.63960899451905
30
0
40
1.9939
210
0
220
0
230
1
0
CIRCLE
5
173
100
AcDbEntity
8
0
100
AcDbCircle
10
59.348548031318401
20
165.1796089945191
30
0
40
0.73499999999999999
210
0
220
0
230
1
0
CIRCLE
5
174
100
AcDbEntity
8
0
100
AcDbCircle
10
58.078548031318391
20
162.63960899451905
30
0
40
0.87500000000000011
210
0
220
0
230
1
0
CIRCLE
5
175
100
AcDbEntity
8
0
100
AcDbCircle
10
66.968548031318392
20
160.09960899451909
30
0
40
1.5000000000000002
210
0
220
0
230
1
0
CIRCLE
5
176
100
AcDbEntity
8
0
100
AcDbCircle
10
60.618548031318369
20
157.5596089945191
30
0
40
1.5000000000000002
210
0
220
0
230
1
0
CIRCLE
5
177
100
AcDbEntity
8
0
100
AcDbCircle
10
68.238548031318373
20
162.63960899451905
30
0
40
0.87500000000000011
210
0
220
0
230
1
0
CIRCLE
5
178
100
AcDbEntity
8
0
100
AcDbCircle
10
77.128547031318391
20
159.63960799451908
30
0
40
0.87500000000000011
210
0
220
0
230
1
0
LWPOLYLINE
5
179
100
AcDbEntity
8
0
100
AcDbPolyline
90
4
70
1
43
0.0
10
68.051522031318385
20
186.56993099451907
42
0.99999999999999989
10
67.45152203131839
20
186.56993099451907
10
67.451522031318376
20
185.46993099451913
42
0.99999999999999989
10
68.051522031318385
20
185.46993099451913
0
LWPOLYLINE
5
180
100
AcDbEntity
8
0
100
AcDbPolyline
90
2
70
1
43
0.0
10
66.352022397543436
20
186.4434844866062
42
1.5193722918513315
10
65.005073665114011
20
186.53637750261754
42
1.5193722922370163
0
CIRCLE
5
181
100
AcDbEntity
8
0
100
AcDbCircle
10
69.181522031318394
20
186.49993099451908
30
0
40
0.29999999999999999
210
0
220
0
230
1
0
CIRCLE
5
182
100
AcDbEntity
8
0
100
AcDbCircle
10
74.961522031318395
20
186.49993099451908
30
0
40
0.29999999999999999
210
0
220
0
230
1
0
LWPOLYLINE
5
183
100
AcDbEntity
8
0
100
AcDbPolyline
90
4
70
1
43
0.0
10
76.091522031318391
20
186.56993099451907
10
76.091522031318391
20
185.46993099451913
42
0.99999999999999989
10
76.691522031318399
20
185.46993099451913
10
76.691522031318414
20
186.56993099451907
42
0.99999999999999989
0
CIRCLE
5
184
100
AcDbEntity
8
0
100
AcDbCircle
10
65.658547031318363
20
139.58960799451904
30
0
40
0.73499999999999999
210
0
220
0
230
1
0
CIRCLE
5
185
100
AcDbEntity
8
0
100
AcDbCircle
10
66.968547031318366
20
141.04960799451905
30
0
40
0.73499999999999999
210
0
220
0
230
1
0
LWPOLYLINE
5
186
100
AcDbEntity
8
0
100
AcDbPolyline
90
2
70
1
43
0.0
10
59.965072665183115
20
138.84605450260634
42
1.5193722922993267
10
61.312021397455851
20
138.75316148661116
42
1.5193722919291628
0
CIRCLE
5
187
100
AcDbEntity
8
0
100
AcDbCircle
10
63.158547031318371
20
143.58960799451904
30
0
40
1.9939
210
0
220
0
230
1
0
CIRCLE
5
188
100
AcDbEntity
8
0
100
AcDbCircle
10
59.348547031318368
20
146.12960799451909
30
0
40
1.5000000000000002
210
0
220
0
230
1
0
CIRCLE
5
189
100
AcDbEntity
8
0
100
AcDbCircle
10
68.238547031318404
20
143.58960799451904
30
0
40
0.87500000000000011
210
0
220
0
230
1
0
CIRCLE
5
190
100
AcDbEntity
8
0
100
AcDbCircle
10
78.398547031318373
20
143.12960899451906
30
0
40
1.5000000000000002
210
0
220
0
230
1
0
CIRCLE
5
191
100
AcDbEntity
8
0
100
AcDbCircle
10
77.128547031318391
20
140.58960899451907
30
0
40
0.87500000000000011
210
0
220
0
230
1
0
LWPOLYLINE
5
192
100
AcDbEntity
8
0
100
AcDbPolyline
90
2
70
1
43
0.0
10
66.352021397539261
20
129.28316248659809
42
1.519372291869042
10
65.005072665116202
20
129.37605550261128
42
1.5193722922248483
0
CIRCLE
5
193
100
AcDbEntity
8
0
100
AcDbCircle
10
78.233244031318378
20
131.04208399451903
30
0
40
0.5
210
0
220
0
230
1
0
CIRCLE
5
194
100
AcDbEntity
8
0
100
AcDbCircle
10
61.072443031318393
20
108.91495899451908
30
0
40
0.5
210
0
220
0
230
1
0
CIRCLE
5
195
100
AcDbEntity
8
0
100
AcDbCircle
10
60.618547031318393
20
119.45960899451907
30
0
40
1.5000000000000002
210
0
220
0
230
1
0
CIRCLE
5
196
100
AcDbEntity
8
0
100
AcDbCircle
10
63.612443031318406
20
108.91495899451908
30
0
40
0.5
210
0
220
0
230
1
0
CIRCLE
5
197
100
AcDbEntity
8
0
100
AcDbCircle
10
58.53244303131838
20
108.91495899451908
30
0
40
0.5
210
0
220
0
230
1
0
CIRCLE
5
198
100
AcDbEntity
8
0
100
AcDbCircle
10
84.748547031318395
20
183.77993099451902
30
0
40
1.5000000000000002
210
0
220
0
230
1
0
CIRCLE
5
199
100
AcDbEntity
8
0
100
AcDbCircle
10
82.208547031318375
20
178.69993099451906
30
0
40
1.9939
210
0
220
0
230
1
0
CIRCLE
5
200
100
AcDbEntity
8
0
100
AcDbCircle
10
80.548547031318378
20
169.13960899451905
30
0
40
0.5
210
0
220
0
230
1
0
LWPOLYLINE
5
201
100
AcDbEntity
8
0
100
AcDbPolyline
90
2
70
1
43
0.0
10
79.015072665136159
20
173.95637750251507
42
1.5193722920739308
10
80.362021397488235
20
173.86348448651898
42
1.5193722920840456
0
CIRCLE
5
202
100
AcDbEntity
8
0
100
AcDbCircle
10
83.088547031318399
20
169.13960899451905
30
0
40
0.5
210
0
220
0
230
1
0
CIRCLE
5
203
100
AcDbEntity
8
0
100
AcDbCircle
10
78.398547031318373
20
162.17960799451913
30
0
40
1.5000000000000002
210
0
220
0
230
1
0
CIRCLE
5
204
100
AcDbEntity
8
0
100
AcDbCircle
10
84.748547031318395
20
164.71960799451904
30
0
40
1.5000000000000002
210
0
220
0
230
1
0
CIRCLE
5
205
100
AcDbEntity
8
0
100
AcDbCircle
10
87.288547031318416
20
159.63960799451908
30
0
40
0.87500000000000011
210
0
220
0
230
1
0
CIRCLE
5
206
100
AcDbEntity
8
0
100
AcDbCircle
10
83.313244031318376
20
131.04208399451903
30
0
40
0.5
210
0
220
0
230
1
0
CIRCLE
5
207
100
AcDbEntity
8
0
100
AcDbCircle
10
80.773244031318399
20
131.04208399451903
30
0
40
0.5
210
0
220
0
230
1
0
LWPOLYLINE
5
208
100
AcDbEntity
8
0
100
AcDbPolyline
90
2
70
1
43
0.0
10
79.015072665187333
20
135.84605550261446
42
1.5193722923171276
10
80.362021397453674
20
135.75316248661738
42
1.5193722919169308
0
CIRCLE
5
209
100
AcDbEntity
8
0
100
AcDbCircle
10
82.208547031318375
20
140.58960899451907
30
0
40
1.9939
210
0
220
0
230
1
0
CIRCLE
5
210
100
AcDbEntity
8
0
100
AcDbCircle
10
81.075534031318384
20
150.15791999451903
30
0
40
0.5
210
0
220
0
230
1
0
CIRCLE
5
211
100
AcDbEntity
8
0
100
AcDbCircle
10
86.15553403131841
20
150.15791999451903
30
0
40
0.5
210
0
220
0
230
1
0
CIRCLE
5
212
100
AcDbEntity
8
0
100
AcDbCircle
10
85.853244031318383
20
131.04208399451903
30
0
40
0.5
210
0
220
0
230
1
0
CIRCLE
5
213
100
AcDbEntity
8
0
100
AcDbCircle
10
84.708547031318375
20
155.63960799451908
30
0
40
0.73499999999999999
210
0
220
0
230
1
0
CIRCLE
5
214
100
AcDbEntity
8
0
100
AcDbCircle
10
86.018547031318377
20
157.09960799451903
30
0
40
0.73499999999999999
210
0
220
0
230
1
0
LWPOLYLINE
5
215
100
AcDbEntity
8
0
100
AcDbPolyline
90
2
70
1
43
0.0
10
80.362021397492242
20
154.80316148650675
42
1.519372292094443
10
79.015072665148537
20
154.89605450251918
42
1.5193722920698076
0
CIRCLE
5
216
100
AcDbEntity
8
0
100
AcDbCircle
10
78.535534031318406
20
150.15791999451903
30
0
40
0.5
210
0
220
0
230
1
0
CIRCLE
5
217
100
AcDbEntity
8
0
100
AcDbCircle
10
83.615534031318361
20
150.15791999451903
30
0
40
0.5
210
0
220
0
230
1
0
CIRCLE
5
218
100
AcDbEntity
8
0
100
AcDbCircle
10
84.708547031318375
20
117.53960899451909
30
0
40
0.73499999999999999
210
0
220
0
230
1
0
CIRCLE
5
219
100
AcDbEntity
8
0
100
AcDbCircle
10
86.018547031318377
20
118.99960899451909
30
0
40
0.73499999999999999
210
0
220
0
230
1
0
CIRCLE
5
220
100
AcDbEntity
8
0
100
AcDbCircle
10
87.288547031318416
20
121.53960899451906
30
0
40
0.87500000000000011
210
0
220
0
230
1
0
CIRCLE
5
221
100
AcDbEntity
8
0
100
AcDbCircle
10
84.748547031318395
20
126.6196089945191
30
0
40
1.5000000000000002
210
0
220
0
230
1
0
CIRCLE
5
222
100
AcDbEntity
8
0
100
AcDbCircle
10
78.398547031318373
20
124.07960899451905
30
0
40
1.5000000000000002
210
0
220
0
230
1
0
CIRCLE
5
223
100
AcDbEntity
8
0
100
AcDbCircle
10
77.128547031318391
20
121.53960899451906
30
0
40
0.87500000000000011
210
0
220
0
230
1
0
LWPOLYLINE
5
224
100
AcDbEntity
8
0
100
AcDbPolyline
90
2
70
1
43
0.0
10
79.015072665136159
20
116.79605550251506
42
1.5193722920739308
10
80.362021397488235
20
116.70316248651898
42
1.5193722920840456
0
CIRCLE
5
225
100
AcDbEntity
8
0
100
AcDbCircle
10
94.49514815499839
20
94.83167319821905
30
0
40
0.5
210
0
220
0
230
1
0
CIRCLE
5
226
100
AcDbEntity
8
0
100
AcDbCircle
10
93.837747780438406
20
97.285124797019023
30
0
40
0.5
210
0
220
0
230
1
0
CIRCLE
5
227
100
AcDbEntity
8
0
100
AcDbCircle
10
92.522947031318409
20
102.19202799451904
30
0
40
0.5
210
0
220
0
230
1
0
CIRCLE
5
228
100
AcDbEntity
8
0
100
AcDbCircle
10
93.180347405878365
20
99.738576395819052
30
0
40
0.5
210
0
220
0
230
1
0
CIRCLE
5
229
100
AcDbEntity
8
0
100
AcDbCircle
10
89.708546031318406
20
93.489607994519048
30
0
40
0.5
210
0
220
0
230
1
0
CIRCLE
5
230
100
AcDbEntity
8
0
100
AcDbCircle
10
124.1185470313184
20
105.49960899451906
30
0
40
0.73499999999999999
210
0
220
0
230
1
0
CIRCLE
5
231
100
AcDbEntity
8
0
100
AcDbCircle
10
122.8085470313184
20
104.03960899451906
30
0
40
0.73499999999999999
210
0
220
0
230
1
0
CIRCLE
5
232
100
AcDbEntity
8
0
100
AcDbCircle
10
125.3885470313184
20
108.03960899451906
30
0
40
0.87500000000000011
210
0
220
0
230
1
0
CIRCLE
5
233
100
AcDbEntity
8
0
100
AcDbCircle
10
120.3085470313184
20
108.03960899451906
30
0
40
1.9939
210
0
220
0
230
1
0
CIRCLE
5
234
100
AcDbEntity
8
0
100
AcDbCircle
10
116.4985470313184
20
110.57960899451911
30
0
40
1.5000000000000002
210
0
220
0
230
1
0
CIRCLE
5
235
100
AcDbEntity
8
0
100
AcDbCircle
10
122.84854703131839
20
113.11960899451907
30
0
40
1.5000000000000002
210
0
220
0
230
1
0
CIRCLE
5
236
100
AcDbEntity
8
0
100
AcDbCircle
10
115.22854703131841
20
108.03960899451906
30
0
40
0.87500000000000011
210
0
220
0
230
1
0
CIRCLE
5
237
100
AcDbEntity
8
0
100
AcDbCircle
10
103.75854703131839
20
109.03960799451906
30
0
40
0.73499999999999999
210
0
220
0
230
1
0
CIRCLE
5
238
100
AcDbEntity
8
0
100
AcDbCircle
10
105.06854703131839
20
110.49960799451907
30
0
40
0.73499999999999999
210
0
220
0
230
1
0
CIRCLE
5
239
100
AcDbEntity
8
0
100
AcDbCircle
10
96.178547031318402
20
113.03960799451903
30
0
40
0.87500000000000011
210
0
220
0
230
1
0
LWPOLYLINE
5
240
100
AcDbEntity
8
0
100
AcDbPolyline
90
2
70
1
43
0.0
10
98.065072665136128
20
108.29605450251509
42
1.5193722920739263
10
99.412021397488218
20
108.20316148651901
42
1.5193722920840473
0
CIRCLE
5
241
100
AcDbEntity
8
0
100
AcDbCircle
10
106.33854703131838
20
113.03960799451903
30
0
40
0.87500000000000011
210
0
220
0
230
1
0
CIRCLE
5
242
100
AcDbEntity
8
0
100
AcDbCircle
10
97.448547031318384
20
115.57960799451908
30
0
40
1.5000000000000002
210
0
220
0
230
1
0
CIRCLE
5
243
100
AcDbEntity
8
0
100
AcDbCircle
10
101.25854703131839
20
113.03960799451903
30
0
40
1.9939
210
0
220
0
230
1
0
CIRCLE
5
244
100
AcDbEntity
8
0
100
AcDbCircle
10
103.79854703131841
20
118.11960799451907
30
0
40
1.5000000000000002
210
0
220
0
230
1
0
LWPOLYLINE
5
245
100
AcDbEntity
8
0
100
AcDbPolyline
90
2
70
1
43
0.0
10
117.11507266513614
20
103.29605550251512
42
1.5193722920738444
10
118.46202139748824
20
103.20316248651895
42
1.5193722920839625
0
CIRCLE
5
246
100
AcDbEntity
8
0
100
AcDbCircle
10
70.555095228858391
20
88.332208743719065
30
0
40
0.5
210
0
220
0
230
1
0
CIRCLE
5
247
100
AcDbEntity
8
0
100
AcDbCircle
10
68.101643630088375
20
87.674808369119035
30
0
40
0.5
210
0
220
0
230
1
0
CIRCLE
5
248
100
AcDbEntity
8
0
100
AcDbCircle
10
65.648192031318402
20
87.01740799451909
30
0
40
0.5
210
0
220
0
230
1
0
CIRCLE
5
249
100
AcDbEntity
8
0
100
AcDbCircle
10
73.008546827638412
20
88.98960911821905
30
0
40
0.5
210
0
220
0
230
1
0
CIRCLE
5
250
100
AcDbEntity
8
0
100
AcDbCircle
10
55.255248031318409
20
183.15913699451909
30
0
40
0.5
210
0
220
0
230
1
0
CIRCLE
5
251
100
AcDbEntity
8
0
100
AcDbCircle
10
55.255248031318409
20
180.6191369945191
30
0
40
0.5
210
0
220
0
230
1
0
CIRCLE
5
252
100
AcDbEntity
8
0
100
AcDbCircle
10
55.992443031318388
20
108.91495899451908
30
0
40
0.5
210
0
220
0
230
1
0
CIRCLE
5
253
100
AcDbEntity
8
0
100
AcDbCircle
10
55.208541031318376
20
137.88965099451912
30
0
40
0.5
210
0
220
0
230
1
0
CIRCLE
5
254
100
AcDbEntity
8
0
100
AcDbCircle
10
55.208541031318376
20
135.34965099451907
30
0
40
0.5
210
0
220
0
230
1
0
CIRCLE
5
255
100
AcDbEntity
8
0
100
AcDbCircle
10
55.208541031318376
20
130.26965099451911
30
0
40
0.5
210
0
220
0
230
1
0
CIRCLE
5
256
100
AcDbEntity
8
0
100
AcDbCircle
10
55.208541031318376
20
132.80965099451907
30
0
40
0.5
210
0
220
0
230
1
0
CIRCLE
5
257
100
AcDbEntity
8
0
100
AcDbCircle
10
55.255248031318409
20
185.69913699451905
30
0
40
0.5
210
0
220
0
230
1
0
CIRCLE
5
258
100
AcDbEntity
8
0
100
AcDbCircle
10
56.187652154998382
20
88.184953198219034
30
0
40
0.5
210
0
220
0
230
1
0
CIRCLE
5
259
100
AcDbEntity
8
0
100
AcDbCircle
10
54.8728514058784
20
93.091856395819093
30
0
40
0.5
210
0
220
0
230
1
0
CIRCLE
5
260
100
AcDbEntity
8
0
100
AcDbCircle
10
55.530251780438377
20
90.638404797019064
30
0
40
0.5
210
0
220
0
230
1
0
CIRCLE
5
261
100
AcDbEntity
8
0
100
AcDbCircle
10
55.255248031318409
20
188.2391369945191
30
0
40
0.5
210
0
220
0
230
1
0
LWPOLYLINE
5
262
100
AcDbEntity
8
0
100
AcDbPolyline
90
4
70
1
43
0.0
10
67.451522031318376
20
190.58993099451908
10
67.451522031318376
20
189.7899309945191
42
0.99999999999999989
10
68.051522031318385
20
189.7899309945191
10
68.051522031318399
20
190.58993099451908
42
0.99999999999999989
0
CIRCLE
5
263
100
AcDbEntity
8
0
100
AcDbCircle
10
81.546522031318389
20
189.13993099451903
30
0
40
0.5
210
0
220
0
230
1
0
CIRCLE
5
264
100
AcDbEntity
8
0
100
AcDbCircle
10
79.006522031318411
20
189.13993099451903
30
0
40
0.5
210
0
220
0
230
1
0
LWPOLYLINE
5
265
100
AcDbEntity
8
0
100
AcDbPolyline
90
4
70
1
43
0.0
10
76.091522031318391
20
189.7899309945191
42
0.99999999999999989
10
76.691522031318399
20
189.7899309945191
10
76.691522031318414
20
190.58993099451908
42
0.99999999999999989
10
76.091522031318391
20
190.58993099451908
0
CIRCLE
5
266
100
AcDbEntity
8
0
100
AcDbCircle
10
86.626522031318416
20
189.13993099451903
30
0
40
0.5
210
0
220
0
230
1
0
CIRCLE
5
267
100
AcDbEntity
8
0
100
AcDbCircle
10
84.086522031318367
20
189.13993099451903
30
0
40
0.5
210
0
220
0
230
1
0
CIRCLE
5
268
100
AcDbEntity
8
0
100
AcDbCircle
10
128.2085470313184
20
108.88960899451905
30
0
40
0.5
210
0
220
0
230
1
0
CIRCLE
5
269
100
AcDbEntity
8
0
100
AcDbCircle
10
128.2085470313184
20
106.34960899451909
30
0
40
0.5
210
0
220
0
230
1
0
CIRCLE
5
270
100
AcDbEntity
8
0
100
AcDbCircle
10
128.2085470313184
20
101.26960899451905
30
0
40
0.5
210
0
220
0
230
1
0
CIRCLE
5
271
100
AcDbEntity
8
0
100
AcDbCircle
10
128.2085470313184
20
103.8096089945191
30
0
40
0.5
210
0
220
0
230
1
0
CIRCLE
5
272
100
AcDbEntity
8
0
100
AcDbCircle
10
54.215451031318374
20
95.545307994519078
30
0
40
0.5
210
0
220
0
230
1
0
LWPOLYLINE
5
273
100
AcDbEntity
8
0
100
AcDbPolyline
90
27
70
1
43
0.0
10
49.500900031318373
20
-30.684902005480943
10
51.299012031317837
20
-26.234418005480677
10
51.318427031318407
20
60.693539994519021
10
53.508548031319584
20
62.839608994517889
10
84.008547031318415
20
62.839608994519089
10
90.70854703131792
20
69.33960899451958
10
107.25854703131841
20
69.339608994519068
10
112.20854703131835
20
64.589607994519028
10
125.75854703131841
20
64.58960899451904
10
126.60854703131838
20
63.739608994519102
10
128.40854703131839
20
63.739608994519124
10
161.8085470313184
20
63.739607994519069
10
164.90854703131936
20
60.339608994519963
10
164.90854703131842
20
-9.4103920054808654
10
161.80854603131891
20
-12.410391005481445
10
148.90854703131839
20
-12.410392005480894
10
147.10854703131841
20
-12.410392005480908
10
146.90854703131836
20
-12.410391005480911
10
142.95854703131752
20
-16.560391005480117
10
131.00854703131841
20
-16.560391005480959
10
127.00854703131884
20
-19.310391005481566
10
127.00854703131841
20
-26.410392005480894
10
125.60854703131866
20
-27.61039200548122
10
116.40854703131839
20
-27.610391005480942
10
116.2085470313184
20
-27.610392005480925
10
61.600435031316287
20
-42.309254005473122
10
52.379032031318395
20
-41.446701005480939
0
CIRCLE
5
274
100
AcDbEntity
8
0
100
AcDbCircle
10
75.733244031318378
20
3.5420839945190252
30
0
40
0.5
210
0
220
0
230
1
0
CIRCLE
5
275
100
AcDbEntity
8
0
100
AcDbCircle
10
78.273244031318399
20
3.5420839945190252
30
0
40
0.5
210
0
220
0
230
1
0
CIRCLE
5
276
100
AcDbEntity
8
0
100
AcDbCircle
10
83.353244031318383
20
3.5420839945190252
30
0
40
0.5
210
0
220
0
230
1
0
CIRCLE
5
277
100
AcDbEntity
8
0
100
AcDbCircle
10
80.813244031318376
20
3.5420839945190252
30
0
40
0.5
210
0
220
0
230
1
0
CIRCLE
5
278
100
AcDbEntity
8
0
100
AcDbCircle
10
94.398547031318401
20
5.5796089945190275
30
0
40
1.5000000000000002
210
0
220
0
230
1
0
CIRCLE
5
279
100
AcDbEntity
8
0
100
AcDbCircle
10
93.128547031318362
20
3.0396089945190496
30
0
40
0.87500000000000011
210
0
220
0
230
1
0
CIRCLE
5
280
100
AcDbEntity
8
0
100
AcDbCircle
10
103.28854703131842
20
3.0396089945190496
30
0
40
0.87500000000000011
210
0
220
0
230
1
0
CIRCLE
5
281
100
AcDbEntity
8
0
100
AcDbCircle
10
150.2785460313184
20
16.089608994519118
30
0
40
0.87500000000000011
210
0
220
0
230
1
0
LWPOLYLINE
5
282
100
AcDbEntity
8
0
100
AcDbPolyline
90
4
70
1
43
0.0
10
146.27652203131839
20
18.719930994519096
10
146.27652203131834
20
5.6999309945191001
42
-0.99999999999999989
10
145.27652203131839
20
5.6999309945191001
10
145.27652203131836
20
18.719930994519096
42
-0.99999999999999989
0
CIRCLE
5
283
100
AcDbEntity
8
0
100
AcDbCircle
10
132.49854803131839
20
14.62960899451911
30
0
40
1.5000000000000002
210
0
220
0
230
1
0
CIRCLE
5
284
100
AcDbEntity
8
0
100
AcDbCircle
10
138.84854803131842
20
17.169608994519017
30
0
40
1.5000000000000002
210
0
220
0
230
1
0
LWPOLYLINE
5
285
100
AcDbEntity
8
0
100
AcDbPolyline
90
2
70
1
43
0.0
10
133.11507366513612
20
7.3460555025151164
42
1.5193722920739183
10
134.46202239748823
20
7.2531624865190345
42
1.5193722920840551
0
CIRCLE
5
286
100
AcDbEntity
8
0
100
AcDbCircle
10
141.38854803131838
20
12.089608994519132
30
0
40
0.87500000000000011
210
0
220
0
230
1
0
CIRCLE
5
287
100
AcDbEntity
8
0
100
AcDbCircle
10
131.22854803131841
20
12.089608994519132
30
0
40
0.87500000000000011
210
0
220
0
230
1
0
CIRCLE
5
288
100
AcDbEntity
8
0
100
AcDbCircle
10
136.3085480313184
20
12.089608994519132
30
0
40
1.9939
210
0
220
0
230
1
0
CIRCLE
5
289
100
AcDbEntity
8
0
100
AcDbCircle
10
112.17854703131837
20
17.089608994519132
30
0
40
0.87500000000000011
210
0
220
0
230
1
0
LWPOLYLINE
5
290
100
AcDbEntity
8
0
100
AcDbPolyline
90
2
70
1
43
0.0
10
114.06507266518733
20
12.346055502614533
42
1.5193722923171387
10
115.41202139745366
20
12.253162486617448
42
1.5193722919169319
0
CIRCLE
5
291
100
AcDbEntity
8
0
100
AcDbCircle
10
119.75854703131841
20
13.089608994519146
30
0
40
0.73499999999999999
210
0
220
0
230
1
0
CIRCLE
5
292
100
AcDbEntity
8
0
100
AcDbCircle
10
121.06854703131842
20
14.549608994519012
30
0
40
0.73499999999999999
210
0
220
0
230
1
0
CIRCLE
5
293
100
AcDbEntity
8
0
100
AcDbCircle
10
122.3385470313184
20
17.089608994519132
30
0
40
0.87500000000000011
210
0
220
0
230
1
0
CIRCLE
5
294
100
AcDbEntity
8
0
100
AcDbCircle
10
140.1185480313184
20
9.5496089945190121
30
0
40
0.73499999999999999
210
0
220
0
230
1
0
CIRCLE
5
295
100
AcDbEntity
8
0
100
AcDbCircle
10
138.8085480313184
20
8.0896089945191463
30
0
40
0.73499999999999999
210
0
220
0
230
1
0
CIRCLE
5
296
100
AcDbEntity
8
0
100
AcDbCircle
10
94.398547031318401
20
24.629607994519098
30
0
40
1.5000000000000002
210
0
220
0
230
1
0
CIRCLE
5
297
100
AcDbEntity
8
0
100
AcDbCircle
10
93.128547031318362
20
22.08960799451912
30
0
40
0.87500000000000011
210
0
220
0
230
1
0
CIRCLE
5
298
100
AcDbEntity
8
0
100
AcDbCircle
10
103.28854703131842
20
22.08960799451912
30
0
40
0.87500000000000011
210
0
220
0
230
1
0
CIRCLE
5
299
100
AcDbEntity
8
0
100
AcDbCircle
10
98.208547031318403
20
22.08960799451912
30
0
40
1.9939
210
0
220
0
230
1
0
CIRCLE
5
300
100
AcDbEntity
8
0
100
AcDbCircle
10
100.7085470313184
20
18.089607994519135
30
0
40
0.73499999999999999
210
0
220
0
230
1
0
CIRCLE
5
301
100
AcDbEntity
8
0
100
AcDbCircle
10
102.01854703131841
20
19.549607994519071
30
0
40
0.73499999999999999
210
0
220
0
230
1
0
LWPOLYLINE
5
302
100
AcDbEntity
8
0
100
AcDbPolyline
90
2
70
1
43
0.0
10
95.015072665136159
20
17.346054502515106
42
1.5193722920738444
10
96.362021397488263
20
17.253161486518959
42
1.5193722920841042
0
CIRCLE
5
303
100
AcDbEntity
8
0
100
AcDbCircle
10
113.44854703131841
20
19.62960899451911
30
0
40
1.5000000000000002
210
0
220
0
230
1
0
CIRCLE
5
304
100
AcDbEntity
8
0
100
AcDbCircle
10
100.74854703131837
20
8.1196089945190764
30
0
40
1.5000000000000002
210
0
220
0
230
1
0
CIRCLE
5
305
100
AcDbEntity
8
0
100
AcDbCircle
10
76.035534031318406
20
22.657919994519098
30
0
40
0.5
210
0
220
0
230
1
0
CIRCLE
5
306
100
AcDbEntity
8
0
100
AcDbCircle
10
78.575534031318384
20
22.657919994519098
30
0
40
0.5
210
0
220
0
230
1
0
CIRCLE
5
307
100
AcDbEntity
8
0
100
AcDbCircle
10
81.115534031318361
20
22.657919994519098
30
0
40
0.5
210
0
220
0
230
1
0
CIRCLE
5
308
100
AcDbEntity
8
0
100
AcDbCircle
10
83.65553403131841
20
22.657919994519098
30
0
40
0.5
210
0
220
0
230
1
0
CIRCLE
5
309
100
AcDbEntity
8
0
100
AcDbCircle
10
83.796522031318403
20
13.049930994519023
30
0
40
4.7999999999999998
210
0
220
0
230
1
0
CIRCLE
5
310
100
AcDbEntity
8
0
100
AcDbCircle
10
119.79854703131838
20
22.169608994519017
30
0
40
1.5000000000000002
210
0
220
0
230
1
0
CIRCLE
5
311
100
AcDbEntity
8
0
100
AcDbCircle
10
117.25854703131841
20
17.089608994519132
30
0
40
1.9939
210
0
220
0
230
1
0
CIRCLE
5
312
100
AcDbEntity
8
0
100
AcDbCircle
10
136.30854703131837
20
50.199930994519057
30
0
40
1.9939
210
0
220
0
230
1
0
CIRCLE
5
313
100
AcDbEntity
8
0
100
AcDbCircle
10
132.49854703131837
20
52.739930994519106
30
0
40
0.73499999999999999
210
0
220
0
230
1
0
CIRCLE
5
314
100
AcDbEntity
8
0
100
AcDbCircle
10
133.80854703131837
20
54.199930994519043
30
0
40
0.73499999999999999
210
0
220
0
230
1
0
CIRCLE
5
315
100
AcDbEntity
8
0
100
AcDbCircle
10
131.22854703131839
20
50.199930994519057
30
0
40
0.87500000000000011
210
0
220
0
230
1
0
LWPOLYLINE
5
316
100
AcDbEntity
8
0
100
AcDbPolyline
90
2
70
1
43
0.0
10
139.50202139753927
20
54.943484486598031
42
1.5193722918689516
10
138.15507266511619
20
55.036377502611316
42
1.519372292224771
0
CIRCLE
5
317
100
AcDbEntity
8
0
100
AcDbCircle
10
121.06854703131842
20
52.65993099451908
30
0
40
1.5000000000000002
210
0
220
0
230
1
0
CIRCLE
5
318
100
AcDbEntity
8
0
100
AcDbCircle
10
122.3385470313184
20
55.199930994519057
30
0
40
0.87500000000000011
210
0
220
0
230
1
0
CIRCLE
5
319
100
AcDbEntity
8
0
100
AcDbCircle
10
114.71854703131839
20
50.119930994519102
30
0
40
1.5000000000000002
210
0
220
0
230
1
0
CIRCLE
5
320
100
AcDbEntity
8
0
100
AcDbCircle
10
117.25854703131841
20
55.199930994519057
30
0
40
1.9939
210
0
220
0
230
1
0
CIRCLE
5
321
100
AcDbEntity
8
0
100
AcDbCircle
10
119.79854703131838
20
41.219607994519087
30
0
40
1.5000000000000002
210
0
220
0
230
1
0
CIRCLE
5
322
100
AcDbEntity
8
0
100
AcDbCircle
10
133.76854703131841
20
45.119930994519102
30
0
40
1.5000000000000002
210
0
220
0
230
1
0
CIRCLE
5
323
100
AcDbEntity
8
0
100
AcDbCircle
10
113.44854703131841
20
38.679607994519039
30
0
40
1.5000000000000002
210
0
220
0
230
1
0
CIRCLE
5
324
100
AcDbEntity
8
0
100
AcDbCircle
10
83.128547031318362
20
41.639608994519044
30
0
40
0.5
210
0
220
0
230
1
0
CIRCLE
5
325
100
AcDbEntity
8
0
100
AcDbCircle
10
93.128547031318362
20
41.139608994519072
30
0
40
0.87500000000000011
210
0
220
0
230
1
0
CIRCLE
5
326
100
AcDbEntity
8
0
100
AcDbCircle
10
100.74854703131837
20
46.219608994519099
30
0
40
1.5000000000000002
210
0
220
0
230
1
0
CIRCLE
5
327
100
AcDbEntity
8
0
100
AcDbCircle
10
102.01854703131841
20
38.599608994519095
30
0
40
0.73499999999999999
210
0
220
0
230
1
0
CIRCLE
5
328
100
AcDbEntity
8
0
100
AcDbCircle
10
94.398547031318401
20
43.67960899451905
30
0
40
1.5000000000000002
210
0
220
0
230
1
0
CIRCLE
5
329
100
AcDbEntity
8
0
100
AcDbCircle
10
98.208547031318403
20
41.139608994519072
30
0
40
1.9939
210
0
220
0
230
1
0
CIRCLE
5
330
100
AcDbEntity
8
0
100
AcDbCircle
10
103.28854703131842
20
41.139608994519072
30
0
40
0.87500000000000011
210
0
220
0
230
1
0
CIRCLE
5
331
100
AcDbEntity
8
0
100
AcDbCircle
10
136.30854703131837
20
31.139608994519072
30
0
40
1.9939
210
0
220
0
230
1
0
CIRCLE
5
332
100
AcDbEntity
8
0
100
AcDbCircle
10
138.84854703131839
20
36.219608994519099
30
0
40
1.5000000000000002
210
0
220
0
230
1
0
CIRCLE
5
333
100
AcDbEntity
8
0
100
AcDbCircle
10
132.49854703131837
20
33.67960899451905
30
0
40
1.5000000000000002
210
0
220
0
230
1
0
CIRCLE
5
334
100
AcDbEntity
8
0
100
AcDbCircle
10
131.22854703131839
20
31.139608994519072
30
0
40
0.87500000000000011
210
0
220
0
230
1
0
CIRCLE
5
335
100
AcDbEntity
8
0
100
AcDbCircle
10
121.06854703131842
20
33.599607994519083
30
0
40
0.73499999999999999
210
0
220
0
230
1
0
CIRCLE
5
336
100
AcDbEntity
8
0
100
AcDbCircle
10
119.75854703131841
20
32.139607994519075
30
0
40
0.73499999999999999
210
0
220
0
230
1
0
CIRCLE
5
337
100
AcDbEntity
8
0
100
AcDbCircle
10
122.3385470313184
20
36.139607994519061
30
0
40
0.87500000000000011
210
0
220
0
230
1
0
LWPOLYLINE
5
338
100
AcDbEntity
8
0
100
AcDbPolyline
90
2
70
1
43
0.0
10
95.015072665136159
20
36.396055502515054
42
1.5193722920739219
10
96.362021397488249
20
36.303162486518978
42
1.5193722920840469
0
CIRCLE
5
339
100
AcDbEntity
8
0
100
AcDbCircle
10
100.7085470313184
20
37.139608994519087
30
0
40
0.73499999999999999
210
0
220
0
230
1
0
CIRCLE
5
340
100
AcDbEntity
8
0
100
AcDbCircle
10
112.17854703131837
20
36.139607994519061
30
0
40
0.87500000000000011
210
0
220
0
230
1
0
LWPOLYLINE
5
341
100
AcDbEntity
8
0
100
AcDbPolyline
90
2
70
1
43
0.0
10
114.06507266518733
20
31.396054502614462
42
1.5193722923172392
10
115.41202139745363
20
31.303161486617455
42
1.5193722919170147
0
CIRCLE
5
342
100
AcDbEntity
8
0
100
AcDbCircle
10
117.25854703131841
20
36.139607994519061
30
0
40
1.9939
210
0
220
0
230
1
0
CIRCLE
5
343
100
AcDbEntity
8
0
100
AcDbCircle
10
83.396522031318369
20
31.249930994519097
30
0
40
3.25
210
0
220
0
230
1
0
CIRCLE
5
344
100
AcDbEntity
8
0
100
AcDbCircle
10
100.74854703131837
20
27.169607994519076
30
0
40
1.5000000000000002
210
0
220
0
230
1
0
CIRCLE
5
345
100
AcDbEntity
8
0
100
AcDbCircle
10
138.80854703131837
20
27.139608994519087
30
0
40
0.73499999999999999
210
0
220
0
230
1
0
CIRCLE
5
346
100
AcDbEntity
8
0
100
AcDbCircle
10
140.11854703131837
20
28.599608994519095
30
0
40
0.73499999999999999
210
0
220
0
230
1
0
LWPOLYLINE
5
347
100
AcDbEntity
8
0
100
AcDbPolyline
90
2
70
1
43
0.0
10
133.11507266518734
20
26.396055502614473
42
1.5193722923172135
10
134.46202139745364
20
26.303162486617452
42
1.5193722919168717
0
CIRCLE
5
348
100
AcDbEntity
8
0
100
AcDbCircle
10
75.5085470313184
20
41.639608994519044
30
0
40
0.5
210
0
220
0
230
1
0
CIRCLE
5
349
100
AcDbEntity
8
0
100
AcDbCircle
10
78.048547031318378
20
41.639608994519044
30
0
40
0.5
210
0
220
0
230
1
0
CIRCLE
5
350
100
AcDbEntity
8
0
100
AcDbCircle
10
80.588547031318399
20
41.639608994519044
30
0
40
0.5
210
0
220
0
230
1
0
CIRCLE
5
351
100
AcDbEntity
8
0
100
AcDbCircle
10
141.38854703131841
20
50.199930994519057
30
0
40
0.87500000000000011
210
0
220
0
230
1
0
CIRCLE
5
352
100
AcDbEntity
8
0
100
AcDbCircle
10
140.11854703131837
20
47.659930994519009
30
0
40
1.5000000000000002
210
0
220
0
230
1
0
CIRCLE
5
353
100
AcDbEntity
8
0
100
AcDbCircle
10
141.38854703131841
20
31.139608994519072
30
0
40
0.87500000000000011
210
0
220
0
230
1
0
LWPOLYLINE
5
354
100
AcDbEntity
8
0
100
AcDbPolyline
90
4
70
1
43
0.0
10
146.27652203131839
20
57.019930994519079
10
146.27652203131834
20
43.999930994519083
42
-0.99999999999999989
10
145.27652203131839
20
43.999930994519083
10
145.27652203131836
20
57.019930994519079
42
-0.99999999999999989
0
LWPOLYLINE
5
355
100
AcDbEntity
8
0
100
AcDbPolyline
90
4
70
1
43
0.0
10
145.27652203131839
20
24.799930994518995
10
145.27652203131836
20
37.819930994519133
42
-0.99999999999999989
10
146.27652203131839
20
37.819930994519133
10
146.27652203131834
20
24.799930994518995
42
-0.99999999999999989
0
CIRCLE
5
356
100
AcDbEntity
8
0
100
AcDbCircle
10
81.58854703131837
20
61.639608994519044
30
0
40
0.5
210
0
220
0
230
1
0
CIRCLE
5
357
100
AcDbEntity
8
0
100
AcDbCircle
10
84.128547031318391
20
61.639608994519044
30
0
40
0.5
210
0
220
0
230
1
0
CIRCLE
5
358
100
AcDbEntity
8
0
100
AcDbCircle
10
93.128547031318362
20
60.199930994519057
30
0
40
0.87500000000000011
210
0
220
0
230
1
0
CIRCLE
5
359
100
AcDbEntity
8
0
100
AcDbCircle
10
102.01854703131841
20
57.65993099451908
30
0
40
1.5000000000000002
210
0
220
0
230
1
0
CIRCLE
5
360
100
AcDbEntity
8
0
100
AcDbCircle
10
95.668547031318411
20
55.119930994519102
30
0
40
1.5000000000000002
210
0
220
0
230
1
0
CIRCLE
5
361
100
AcDbEntity
8
0
100
AcDbCircle
10
103.28854703131842
20
60.199930994519057
30
0
40
0.87500000000000011
210
0
220
0
230
1
0
CIRCLE
5
362
100
AcDbEntity
8
0
100
AcDbCircle
10
79.048547031318392
20
61.639608994519044
30
0
40
0.5
210
0
220
0
230
1
0
CIRCLE
5
363
100
AcDbEntity
8
0
100
AcDbCircle
10
113.44854703131841
20
57.739930994519106
30
0
40
0.73499999999999999
210
0
220
0
230
1
0
CIRCLE
5
364
100
AcDbEntity
8
0
100
AcDbCircle
10
114.75854703131841
20
59.199930994519043
30
0
40
0.73499999999999999
210
0
220
0
230
1
0
CIRCLE
5
365
100
AcDbEntity
8
0
100
AcDbCircle
10
112.17854703131837
20
55.199930994519057
30
0
40
0.87500000000000011
210
0
220
0
230
1
0
CIRCLE
5
366
100
AcDbEntity
8
0
100
AcDbCircle
10
76.508547031318415
20
61.639608994519044
30
0
40
0.5
210
0
220
0
230
1
0
LWPOLYLINE
5
367
100
AcDbEntity
8
0
100
AcDbPolyline
90
2
70
1
43
0.0
10
120.45202139753926
20
59.943484486598031
42
1.5193722918689516
10
119.10507266511617
20
60.036377502611316
42
1.5193722922247659
0
CIRCLE
5
368
100
AcDbEntity
8
0
100
AcDbCircle
10
52.708541031318376
20
7.8496509945191306
30
0
40
0.5
210
0
220
0
230
1
0
CIRCLE
5
369
100
AcDbEntity
8
0
100
AcDbCircle
10
52.708541031318376
20
10.389650994519108
30
0
40
0.5
210
0
220
0
230
1
0
CIRCLE
5
370
100
AcDbEntity
8
0
100
AcDbCircle
10
52.755248031318409
20
55.659136994519081
30
0
40
0.5
210
0
220
0
230
1
0
CIRCLE
5
371
100
AcDbEntity
8
0
100
AcDbCircle
10
52.755248031318409
20
53.119136994519103
30
0
40
0.5
210
0
220
0
230
1
0
CIRCLE
5
372
100
AcDbEntity
8
0
100
AcDbCircle
10
52.708541031318376
20
2.7696509945191039
30
0
40
0.5
210
0
220
0
230
1
0
CIRCLE
5
373
100
AcDbEntity
8
0
100
AcDbCircle
10
52.708541031318376
20
5.3096509945190107
30
0
40
0.5
210
0
220
0
230
1
0
CIRCLE
5
374
100
AcDbEntity
8
0
100
AcDbCircle
10
52.755248031318409
20
60.739136994519107
30
0
40
0.5
210
0
220
0
230
1
0
CIRCLE
5
375
100
AcDbEntity
8
0
100
AcDbCircle
10
52.755248031318409
20
58.199136994519058
30
0
40
0.5
210
0
220
0
230
1
0
CIRCLE
5
376
100
AcDbEntity
8
0
100
AcDbCircle
10
141.38854703131841
20
-6.960392005480962
30
0
40
0.87500000000000011
210
0
220
0
230
1
0
CIRCLE
5
377
100
AcDbEntity
8
0
100
AcDbCircle
10
119.75854703131841
20
-5.9603910054809361
30
0
40
0.73499999999999999
210
0
220
0
230
1
0
CIRCLE
5
378
100
AcDbEntity
8
0
100
AcDbCircle
10
121.06854703131842
20
-4.5003910054809282
30
0
40
0.73499999999999999
210
0
220
0
230
1
0
CIRCLE
5
379
100
AcDbEntity
8
0
100
AcDbCircle
10
117.25854703131841
20
-1.9603910054809504
30
0
40
1.9939
210
0
220
0
230
1
0
LWPOLYLINE
5
380
100
AcDbEntity
8
0
100
AcDbPolyline
90
2
70
1
43
0.0
10
114.06507266513614
20
-6.703944497484895
42
1.5193722920738444
10
115.41202139748825
20
-6.7968375134810399
42
1.519372292083963
0
CIRCLE
5
381
100
AcDbEntity
8
0
100
AcDbCircle
10
138.84854703131839
20
-1.8803920054809353
30
0
40
1.5000000000000002
210
0
220
0
230
1
0
CIRCLE
5
382
100
AcDbEntity
8
0
100
AcDbCircle
10
132.49854703131837
20
-4.4203920054809842
30
0
40
1.5000000000000002
210
0
220
0
230
1
0
CIRCLE
5
383
100
AcDbEntity
8
0
100
AcDbCircle
10
122.3385470313184
20
-1.9603910054809504
30
0
40
0.87500000000000011
210
0
220
0
230
1
0
CIRCLE
5
384
100
AcDbEntity
8
0
100
AcDbCircle
10
102.01854703131841
20
0.49960899451907181
30
0
40
0.73499999999999999
210
0
220
0
230
1
0
CIRCLE
5
385
100
AcDbEntity
8
0
100
AcDbCircle
10
98.208547031318403
20
3.0396089945190496
30
0
40
1.9939
210
0
220
0
230
1
0
CIRCLE
5
386
100
AcDbEntity
8
0
100
AcDbCircle
10
100.7085470313184
20
-0.96039100548093614
30
0
40
0.73499999999999999
210
0
220
0
230
1
0
CIRCLE
5
387
100
AcDbEntity
8
0
100
AcDbCircle
10
112.17854703131837
20
-1.9603910054809504
30
0
40
0.87500000000000011
210
0
220
0
230
1
0
CIRCLE
5
388
100
AcDbEntity
8
0
100
AcDbCircle
10
113.44854703131841
20
0.57960899451902748
30
0
40
1.5000000000000002
210
0
220
0
230
1
0
CIRCLE
5
389
100
AcDbEntity
8
0
100
AcDbCircle
10
119.79854703131838
20
3.1196089945190764
30
0
40
1.5000000000000002
210
0
220
0
230
1
0
CIRCLE
5
390
100
AcDbEntity
8
0
100
AcDbCircle
10
150.2785470313184
20
-2.9603910054809646
30
0
40
0.87500000000000011
210
0
220
0
230
1
0
LWPOLYLINE
5
391
100
AcDbEntity
8
0
100
AcDbPolyline
90
4
70
1
43
0.0
10
145.29652203131837
20
0.3999309945190177
10
145.29652203131837
20
-9.6000690054809823
42
0.99999999999999989
10
146.2965220313184
20
-9.6000690054809823
10
146.2965220313184
20
0.3999309945190177
42
0.99999999999999989
0
LWPOLYLINE
5
392
100
AcDbEntity
8
0
100
AcDbPolyline
90
2
70
1
43
0.0
10
95.015072665136159
20
-1.7039444974848954
42
1.5193722920738444
10
96.362021397488263
20
-1.7968375134810395
42
1.5193722920839581
0
CIRCLE
5
393
100
AcDbEntity
8
0
100
AcDbCircle
10
70.508546827638412
20
-38.510390881781014
30
0
40
0.5
210
0
220
0
230
1
0
CIRCLE
5
394
100
AcDbEntity
8
0
100
AcDbCircle
10
140.11854703131837
20
-9.5003920054809399
30
0
40
0.73499999999999999
210
0
220
0
230
1
0
CIRCLE
5
395
100
AcDbEntity
8
0
100
AcDbCircle
10
136.30854703131837
20
-6.960392005480962
30
0
40
1.9939
210
0
220
0
230
1
0
CIRCLE
5
396
100
AcDbEntity
8
0
100
AcDbCircle
10
138.80854703131837
20
-10.960392005480948
30
0
40
0.73499999999999999
210
0
220
0
230
1
0
LWPOLYLINE
5
397
100
AcDbEntity
8
0
100
AcDbPolyline
90
2
70
1
43
0.0
10
133.11507266513615
20
-11.703945497484835
42
1.5193722920738444
10
134.46202139748826
20
-11.796838513480981
42
1.5193722920839576
0
CIRCLE
5
398
100
AcDbEntity
8
0
100
AcDbCircle
10
131.22854703131839
20
-6.960392005480962
30
0
40
0.87500000000000011
210
0
220
0
230
1
0
CIRCLE
5
399
100
AcDbEntity
8
0
100
AcDbCircle
10
125.7085470313184
20
-18.610391005480942
30
0
40
0.5
210
0
220
0
230
1
0
CIRCLE
5
400
100
AcDbEntity
8
0
100
AcDbCircle
10
125.7085470313184
20
-23.690391005480969
30
0
40
0.5
210
0
220
0
230
1
0
CIRCLE
5
401
100
AcDbEntity
8
0
100
AcDbCircle
10
125.7085470313184
20
-21.15039100548092
30
0
40
0.5
210
0
220
0
230
1
0
CIRCLE
5
402
100
AcDbEntity
8
0
100
AcDbCircle
10
125.7085470313184
20
-26.230391005480946
30
0
40
0.5
210
0
220
0
230
1
0
CIRCLE
5
403
100
AcDbEntity
8
0
100
AcDbCircle
10
68.055095228858391
20
-39.167791256280928
30
0
40
0.5
210
0
220
0
230
1
0
CIRCLE
5
404
100
AcDbEntity
8
0
100
AcDbCircle
10
157.85854703131838
20
-6.9603910054809504
30
0
40
0.73499999999999999
210
0
220
0
230
1
0
CIRCLE
5
405
100
AcDbEntity
8
0
100
AcDbCircle
10
159.16854703131838
20
-5.5003910054809424
30
0
40
0.73499999999999999
210
0
220
0
230
1
0
CIRCLE
5
406
100
AcDbEntity
8
0
100
AcDbCircle
10
160.43854703131839
20
-2.9603910054809646
30
0
40
0.87500000000000011
210
0
220
0
230
1
0
CIRCLE
5
407
100
AcDbEntity
8
0
100
AcDbCircle
10
155.35854703131838
20
-2.9603910054809646
30
0
40
1.9939
210
0
220
0
230
1
0
CIRCLE
5
408
100
AcDbEntity
8
0
100
AcDbCircle
10
157.8985470313184
20
2.1196089945190622
30
0
40
1.5000000000000002
210
0
220
0
230
1
0
CIRCLE
5
409
100
AcDbEntity
8
0
100
AcDbCircle
10
157.85854703131838
20
31.139608994519072
30
0
40
0.73499999999999999
210
0
220
0
230
1
0
CIRCLE
5
410
100
AcDbEntity
8
0
100
AcDbCircle
10
157.85854603131841
20
12.089608994519132
30
0
40
0.73499999999999999
210
0
220
0
230
1
0
CIRCLE
5
411
100
AcDbEntity
8
0
100
AcDbCircle
10
159.16854603131841
20
13.549608994519069
30
0
40
0.73499999999999999
210
0
220
0
230
1
0
CIRCLE
5
412
100
AcDbEntity
8
0
100
AcDbCircle
10
155.35854603131841
20
16.089608994519118
30
0
40
1.9939
210
0
220
0
230
1
0
CIRCLE
5
413
100
AcDbEntity
8
0
100
AcDbCircle
10
157.89854603131835
20
21.169608994519074
30
0
40
1.5000000000000002
210
0
220
0
230
1
0
LWPOLYLINE
5
414
100
AcDbEntity
8
0
100
AcDbPolyline
90
2
70
1
43
0.0
10
152.16507266512568
20
30.396055502494654
42
1.5193722919270956
10
153.51202139752388
20
30.303162486417499
42
1.5193722921850881
0
CIRCLE
5
415
100
AcDbEntity
8
0
100
AcDbCircle
10
151.54854603131841
20
18.629608994519096
30
0
40
1.5000000000000002
210
0
220
0
230
1
0
LWPOLYLINE
5
416
100
AcDbEntity
8
0
100
AcDbPolyline
90
2
70
1
43
0.0
10
152.16507266513617
20
-7.7039444974848381
42
1.5193722920738444
10
153.51202139748827
20
-7.7968375134809831
42
1.5193722920839576
0
CIRCLE
5
417
100
AcDbEntity
8
0
100
AcDbCircle
10
151.54854703131838
20
-0.42039100548098673
30
0
40
1.5000000000000002
210
0
220
0
230
1
0
LWPOLYLINE
5
418
100
AcDbEntity
8
0
100
AcDbPolyline
90
2
70
1
43
0.0
10
152.16507166513611
20
11.346055502515103
42
1.5193722920739172
10
153.51202039748819
20
11.25316248651902
42
1.5193722920840615
0
LWPOLYLINE
5
419
100
AcDbEntity
8
0
100
AcDbPolyline
90
2
70
1
43
0.0
10
158.55202139753928
20
58.943484486598088
42
1.5193722918690435
10
157.20507266511621
20
59.036377502611295
42
1.5193722922248467
0
CIRCLE
5
420
100
AcDbEntity
8
0
100
AcDbCircle
10
152.85854703131838
20
58.199930994519029
30
0
40
0.73499999999999999
210
0
220
0
230
1
0
CIRCLE
5
421
100
AcDbEntity
8
0
100
AcDbCircle
10
151.54854703131838
20
56.739930994519092
30
0
40
0.73499999999999999
210
0
220
0
230
1
0
CIRCLE
5
422
100
AcDbEntity
8
0
100
AcDbCircle
10
155.35854703131838
20
54.199930994519043
30
0
40
1.9939
210
0
220
0
230
1
0
CIRCLE
5
423
100
AcDbEntity
8
0
100
AcDbCircle
10
150.2785470313184
20
54.199930994519043
30
0
40
0.87500000000000011
210
0
220
0
230
1
0
CIRCLE
5
424
100
AcDbEntity
8
0
100
AcDbCircle
10
152.81854703131842
20
49.119930994519088
30
0
40
1.5000000000000002
210
0
220
0
230
1
0
CIRCLE
5
425
100
AcDbEntity
8
0
100
AcDbCircle
10
155.35854703131838
20
35.139608994519058
30
0
40
1.9939
210
0
220
0
230
1
0
CIRCLE
5
426
100
AcDbEntity
8
0
100
AcDbCircle
10
157.8985470313184
20
40.219608994519085
30
0
40
1.5000000000000002
210
0
220
0
230
1
0
CIRCLE
5
427
100
AcDbEntity
8
0
100
AcDbCircle
10
150.2785470313184
20
35.139608994519058
30
0
40
0.87500000000000011
210
0
220
0
230
1
0
CIRCLE
5
428
100
AcDbEntity
8
0
100
AcDbCircle
10
151.54854703131838
20
37.679608994519036
30
0
40
1.5000000000000002
210
0
220
0
230
1
0
CIRCLE
5
429
100
AcDbEntity
8
0
100
AcDbCircle
10
160.43854603131837
20
16.089608994519118
30
0
40
0.87500000000000011
210
0
220
0
230
1
0
CIRCLE
5
430
100
AcDbEntity
8
0
100
AcDbCircle
10
160.43854703131839
20
35.139608994519058
30
0
40
0.87500000000000011
210
0
220
0
230
1
0
CIRCLE
5
431
100
AcDbEntity
8
0
100
AcDbCircle
10
159.16854703131838
20
32.59960899451908
30
0
40
0.73499999999999999
210
0
220
0
230
1
0
CIRCLE
5
432
100
AcDbEntity
8
0
100
AcDbCircle
10
160.43854703131839
20
54.199930994519043
30
0
40
0.87500000000000011
210
0
220
0
230
1
0
CIRCLE
5
433
100
AcDbEntity
8
0
100
AcDbCircle
10
159.16854703131838
20
51.659930994519065
30
0
40
1.5000000000000002
210
0
220
0
230
1
0
CIRCLE
5
434
100
AcDbEntity
8
0
100
AcDbCircle
10
95.708547031318403
20
64.199930994519036
30
0
40
0.73499999999999999
210
0
220
0
230
1
0
CIRCLE
5
435
100
AcDbEntity
8
0
100
AcDbCircle
10
94.398547031318401
20
62.739930994519106
30
0
40
0.73499999999999999
210
0
220
0
230
1
0
CIRCLE
5
436
100
AcDbEntity
8
0
100
AcDbCircle
10
98.208547031318403
20
60.199930994519057
30
0
40
1.9939
210
0
220
0
230
1
0
LWPOLYLINE
5
437
100
AcDbEntity
8
0
100
AcDbPolyline
90
2
70
1
43
0.0
10
101.40202139753924
20
64.943484486598038
42
1.5193722918689516
10
100.05507266511616
20
65.036377502611316
42
1.5193722922247659
0
CIRCLE
5
438
100
AcDbEntity
8
0
100
AcDbCircle
10
65.601643630088375
20
-39.825191630880958
30
0
40
0.5
210
0
220
0
230
1
0
CIRCLE
5
439
100
AcDbEntity
8
0
100
AcDbCircle
10
63.148192031318402
20
-40.482592005480917
30
0
40
0.5
210
0
220
0
230
1
0
ENDSEC
0
SECTION
2
OBJECTS
0
DICTIONARY
5
C
100
AcDbDictionary
3
ACAD_GROUP
350
D
3
ACAD_MLINESTYLE
350
17
0
DICTIONARY
5
D
100
AcDbDictionary
0
DICTIONARY
5
1A
330
C
100
AcDbDictionary
0
DICTIONARY
5
17
100
AcDbDictionary
0
ENDSEC
0
EOF
