G04 #@! TF.GenerationSoftware,KiCad,Pcbnew,(5.1.4)-1*
G04 #@! TF.CreationDate,2023-09-09T05:29:12-04:00*
G04 #@! TF.ProjectId,ThumbsUp,5468756d-6273-4557-902e-6b696361645f,rev?*
G04 #@! TF.SameCoordinates,Original*
G04 #@! TF.FileFunction,Soldermask,Bot*
G04 #@! TF.FilePolarity,Negative*
%FSLAX46Y46*%
G04 Gerber Fmt 4.6, Leading zero omitted, Abs format (unit mm)*
G04 Created by KiCad (PCBNEW (5.1.4)-1) date 2023-09-09 05:29:12*
%MOMM*%
%LPD*%
G04 APERTURE LIST*
%ADD10C,0.100000*%
G04 APERTURE END LIST*
D10*
G36*
X-117017415Y-466668802D02*
G01*
X-116867590Y-466698604D01*
X-116585326Y-466815521D01*
X-116331295Y-466985259D01*
X-116115259Y-467201295D01*
X-115945521Y-467455326D01*
X-115828604Y-467737590D01*
X-115769000Y-468037240D01*
X-115769000Y-468342760D01*
X-115828604Y-468642410D01*
X-115945521Y-468924674D01*
X-116115259Y-469178705D01*
X-116331295Y-469394741D01*
X-116585326Y-469564479D01*
X-116867590Y-469681396D01*
X-117017415Y-469711198D01*
X-117167239Y-469741000D01*
X-117472761Y-469741000D01*
X-117622585Y-469711198D01*
X-117772410Y-469681396D01*
X-118054674Y-469564479D01*
X-118308705Y-469394741D01*
X-118524741Y-469178705D01*
X-118694479Y-468924674D01*
X-118811396Y-468642410D01*
X-118871000Y-468342760D01*
X-118871000Y-468037240D01*
X-118811396Y-467737590D01*
X-118694479Y-467455326D01*
X-118524741Y-467201295D01*
X-118308705Y-466985259D01*
X-118054674Y-466815521D01*
X-117772410Y-466698604D01*
X-117622585Y-466668802D01*
X-117472761Y-466639000D01*
X-117167239Y-466639000D01*
X-117017415Y-466668802D01*
X-117017415Y-466668802D01*
G37*
G36*
X-119296000Y-469491000D02*
G01*
X-121948000Y-469491000D01*
X-121948000Y-466889000D01*
X-119296000Y-466889000D01*
X-119296000Y-469491000D01*
X-119296000Y-469491000D01*
G37*
G36*
X-110667415Y-464128802D02*
G01*
X-110517590Y-464158604D01*
X-110235326Y-464275521D01*
X-109981295Y-464445259D01*
X-109765259Y-464661295D01*
X-109595521Y-464915326D01*
X-109478604Y-465197590D01*
X-109459512Y-465293574D01*
X-109426863Y-465457707D01*
X-109419000Y-465497240D01*
X-109419000Y-465802760D01*
X-109478604Y-466102410D01*
X-109595521Y-466384674D01*
X-109765259Y-466638705D01*
X-109981295Y-466854741D01*
X-110235326Y-467024479D01*
X-110517590Y-467141396D01*
X-110667415Y-467171198D01*
X-110817239Y-467201000D01*
X-111122761Y-467201000D01*
X-111272585Y-467171198D01*
X-111422410Y-467141396D01*
X-111704674Y-467024479D01*
X-111958705Y-466854741D01*
X-112174741Y-466638705D01*
X-112344479Y-466384674D01*
X-112461396Y-466102410D01*
X-112521000Y-465802760D01*
X-112521000Y-465497240D01*
X-112513136Y-465457707D01*
X-112480488Y-465293574D01*
X-112461396Y-465197590D01*
X-112344479Y-464915326D01*
X-112174741Y-464661295D01*
X-111958705Y-464445259D01*
X-111704674Y-464275521D01*
X-111422410Y-464158604D01*
X-111272585Y-464128802D01*
X-111122761Y-464099000D01*
X-110817239Y-464099000D01*
X-110667415Y-464128802D01*
X-110667415Y-464128802D01*
G37*
G36*
X-149028888Y-465300092D02*
G01*
X-148962703Y-465306611D01*
X-148792864Y-465358131D01*
X-148636339Y-465441796D01*
X-148616953Y-465457706D01*
X-148499144Y-465554388D01*
X-148415882Y-465655845D01*
X-148386552Y-465691583D01*
X-148302887Y-465848108D01*
X-148251367Y-466017947D01*
X-148233971Y-466194574D01*
X-148251367Y-466371201D01*
X-148302887Y-466541040D01*
X-148386552Y-466697565D01*
X-148387405Y-466698604D01*
X-148499144Y-466834760D01*
X-148565237Y-466889000D01*
X-148636339Y-466947352D01*
X-148792864Y-467031017D01*
X-148962703Y-467082537D01*
X-149028888Y-467089056D01*
X-149095070Y-467095574D01*
X-149183590Y-467095574D01*
X-149249772Y-467089056D01*
X-149315957Y-467082537D01*
X-149485796Y-467031017D01*
X-149642321Y-466947352D01*
X-149713423Y-466889000D01*
X-149779516Y-466834760D01*
X-149891255Y-466698604D01*
X-149892108Y-466697565D01*
X-149975773Y-466541040D01*
X-150027293Y-466371201D01*
X-150044689Y-466194574D01*
X-150027293Y-466017947D01*
X-149975773Y-465848108D01*
X-149892108Y-465691583D01*
X-149862778Y-465655845D01*
X-149779516Y-465554388D01*
X-149661707Y-465457706D01*
X-149642321Y-465441796D01*
X-149485796Y-465358131D01*
X-149315957Y-465306611D01*
X-149249772Y-465300092D01*
X-149183590Y-465293574D01*
X-149095070Y-465293574D01*
X-149028888Y-465300092D01*
X-149028888Y-465300092D01*
G37*
G36*
X-151568888Y-465300092D02*
G01*
X-151502703Y-465306611D01*
X-151332864Y-465358131D01*
X-151176339Y-465441796D01*
X-151156953Y-465457706D01*
X-151039144Y-465554388D01*
X-150955882Y-465655845D01*
X-150926552Y-465691583D01*
X-150842887Y-465848108D01*
X-150791367Y-466017947D01*
X-150773971Y-466194574D01*
X-150791367Y-466371201D01*
X-150842887Y-466541040D01*
X-150926552Y-466697565D01*
X-150927405Y-466698604D01*
X-151039144Y-466834760D01*
X-151105237Y-466889000D01*
X-151176339Y-466947352D01*
X-151332864Y-467031017D01*
X-151502703Y-467082537D01*
X-151568888Y-467089056D01*
X-151635070Y-467095574D01*
X-151723590Y-467095574D01*
X-151789772Y-467089056D01*
X-151855957Y-467082537D01*
X-152025796Y-467031017D01*
X-152182321Y-466947352D01*
X-152253423Y-466889000D01*
X-152319516Y-466834760D01*
X-152431255Y-466698604D01*
X-152432108Y-466697565D01*
X-152515773Y-466541040D01*
X-152567293Y-466371201D01*
X-152584689Y-466194574D01*
X-152567293Y-466017947D01*
X-152515773Y-465848108D01*
X-152432108Y-465691583D01*
X-152402778Y-465655845D01*
X-152319516Y-465554388D01*
X-152201707Y-465457706D01*
X-152182321Y-465441796D01*
X-152025796Y-465358131D01*
X-151855957Y-465306611D01*
X-151789772Y-465300092D01*
X-151723590Y-465293574D01*
X-151635070Y-465293574D01*
X-151568888Y-465300092D01*
X-151568888Y-465300092D01*
G37*
G36*
X-154108888Y-465300092D02*
G01*
X-154042703Y-465306611D01*
X-153872864Y-465358131D01*
X-153716339Y-465441796D01*
X-153696953Y-465457706D01*
X-153579144Y-465554388D01*
X-153495882Y-465655845D01*
X-153466552Y-465691583D01*
X-153382887Y-465848108D01*
X-153331367Y-466017947D01*
X-153313971Y-466194574D01*
X-153331367Y-466371201D01*
X-153382887Y-466541040D01*
X-153466552Y-466697565D01*
X-153467405Y-466698604D01*
X-153579144Y-466834760D01*
X-153645237Y-466889000D01*
X-153716339Y-466947352D01*
X-153872864Y-467031017D01*
X-154042703Y-467082537D01*
X-154108888Y-467089056D01*
X-154175070Y-467095574D01*
X-154263590Y-467095574D01*
X-154329772Y-467089056D01*
X-154395957Y-467082537D01*
X-154565796Y-467031017D01*
X-154722321Y-466947352D01*
X-154793423Y-466889000D01*
X-154859516Y-466834760D01*
X-154971255Y-466698604D01*
X-154972108Y-466697565D01*
X-155055773Y-466541040D01*
X-155107293Y-466371201D01*
X-155124689Y-466194574D01*
X-155107293Y-466017947D01*
X-155055773Y-465848108D01*
X-154972108Y-465691583D01*
X-154942778Y-465655845D01*
X-154859516Y-465554388D01*
X-154741707Y-465457706D01*
X-154722321Y-465441796D01*
X-154565796Y-465358131D01*
X-154395957Y-465306611D01*
X-154329772Y-465300092D01*
X-154263590Y-465293574D01*
X-154175070Y-465293574D01*
X-154108888Y-465300092D01*
X-154108888Y-465300092D01*
G37*
G36*
X-155858330Y-467095574D02*
G01*
X-157660330Y-467095574D01*
X-157660330Y-465293574D01*
X-155858330Y-465293574D01*
X-155858330Y-467095574D01*
X-155858330Y-467095574D01*
G37*
G36*
X-161856177Y-465203411D02*
G01*
X-161789993Y-465209929D01*
X-161620154Y-465261449D01*
X-161463629Y-465345114D01*
X-161447768Y-465358131D01*
X-161326434Y-465457706D01*
X-161243172Y-465559163D01*
X-161213842Y-465594901D01*
X-161130177Y-465751426D01*
X-161078657Y-465921265D01*
X-161061261Y-466097892D01*
X-161078657Y-466274519D01*
X-161130177Y-466444358D01*
X-161213842Y-466600883D01*
X-161243172Y-466636621D01*
X-161326434Y-466738078D01*
X-161420800Y-466815521D01*
X-161463629Y-466850670D01*
X-161620154Y-466934335D01*
X-161789993Y-466985855D01*
X-161856178Y-466992374D01*
X-161922360Y-466998892D01*
X-162010880Y-466998892D01*
X-162077062Y-466992374D01*
X-162143247Y-466985855D01*
X-162313086Y-466934335D01*
X-162469611Y-466850670D01*
X-162512440Y-466815521D01*
X-162606806Y-466738078D01*
X-162690068Y-466636621D01*
X-162719398Y-466600883D01*
X-162803063Y-466444358D01*
X-162854583Y-466274519D01*
X-162871979Y-466097892D01*
X-162854583Y-465921265D01*
X-162803063Y-465751426D01*
X-162719398Y-465594901D01*
X-162690068Y-465559163D01*
X-162606806Y-465457706D01*
X-162485472Y-465358131D01*
X-162469611Y-465345114D01*
X-162313086Y-465261449D01*
X-162143247Y-465209929D01*
X-162077063Y-465203411D01*
X-162010880Y-465196892D01*
X-161922360Y-465196892D01*
X-161856177Y-465203411D01*
X-161856177Y-465203411D01*
G37*
G36*
X-106369000Y-466951000D02*
G01*
X-109021000Y-466951000D01*
X-109021000Y-464349000D01*
X-106369000Y-464349000D01*
X-106369000Y-466951000D01*
X-106369000Y-466951000D01*
G37*
G36*
X-114387018Y-460561702D02*
G01*
X-114028609Y-460632994D01*
X-113869501Y-460698899D01*
X-113559808Y-460827178D01*
X-113137896Y-461109090D01*
X-112779090Y-461467896D01*
X-112497178Y-461889808D01*
X-112411886Y-462095722D01*
X-112358447Y-462224733D01*
X-112302994Y-462358610D01*
X-112204000Y-462856285D01*
X-112204000Y-463363715D01*
X-112218210Y-463435155D01*
X-112302994Y-463861391D01*
X-112360580Y-464000415D01*
X-112497178Y-464330192D01*
X-112779090Y-464752104D01*
X-113137896Y-465110910D01*
X-113559808Y-465392822D01*
X-113811893Y-465497239D01*
X-114028609Y-465587006D01*
X-114526285Y-465686000D01*
X-115033715Y-465686000D01*
X-115531391Y-465587006D01*
X-115748107Y-465497239D01*
X-116000192Y-465392822D01*
X-116422104Y-465110910D01*
X-116780910Y-464752104D01*
X-117062822Y-464330192D01*
X-117199420Y-464000415D01*
X-117257006Y-463861391D01*
X-117341790Y-463435155D01*
X-117356000Y-463363715D01*
X-117356000Y-462856285D01*
X-117257006Y-462358610D01*
X-117201552Y-462224733D01*
X-117148114Y-462095722D01*
X-117062822Y-461889808D01*
X-116780910Y-461467896D01*
X-116422104Y-461109090D01*
X-116000192Y-460827178D01*
X-115690499Y-460698899D01*
X-115531391Y-460632994D01*
X-115172982Y-460561702D01*
X-115033715Y-460534000D01*
X-114526285Y-460534000D01*
X-114387018Y-460561702D01*
X-114387018Y-460561702D01*
G37*
G36*
X-161856178Y-462663410D02*
G01*
X-161789993Y-462669929D01*
X-161620154Y-462721449D01*
X-161463629Y-462805114D01*
X-161427891Y-462834444D01*
X-161326434Y-462917706D01*
X-161274116Y-462981457D01*
X-161213842Y-463054901D01*
X-161130177Y-463211426D01*
X-161078657Y-463381265D01*
X-161061261Y-463557892D01*
X-161078657Y-463734519D01*
X-161130177Y-463904358D01*
X-161213842Y-464060883D01*
X-161243172Y-464096621D01*
X-161326434Y-464198078D01*
X-161420800Y-464275521D01*
X-161463629Y-464310670D01*
X-161620154Y-464394335D01*
X-161789993Y-464445855D01*
X-161856177Y-464452373D01*
X-161922360Y-464458892D01*
X-162010880Y-464458892D01*
X-162077063Y-464452373D01*
X-162143247Y-464445855D01*
X-162313086Y-464394335D01*
X-162469611Y-464310670D01*
X-162512440Y-464275521D01*
X-162606806Y-464198078D01*
X-162690068Y-464096621D01*
X-162719398Y-464060883D01*
X-162803063Y-463904358D01*
X-162854583Y-463734519D01*
X-162871979Y-463557892D01*
X-162854583Y-463381265D01*
X-162803063Y-463211426D01*
X-162719398Y-463054901D01*
X-162659124Y-462981457D01*
X-162606806Y-462917706D01*
X-162505349Y-462834444D01*
X-162469611Y-462805114D01*
X-162313086Y-462721449D01*
X-162143247Y-462669929D01*
X-162077062Y-462663410D01*
X-162010880Y-462656892D01*
X-161922360Y-462656892D01*
X-161856178Y-462663410D01*
X-161856178Y-462663410D01*
G37*
G36*
X-109429896Y-462219585D02*
G01*
X-109261374Y-462289389D01*
X-109109709Y-462390728D01*
X-108980728Y-462519709D01*
X-108879389Y-462671374D01*
X-108809585Y-462839896D01*
X-108774000Y-463018797D01*
X-108774000Y-463201203D01*
X-108809585Y-463380104D01*
X-108879389Y-463548626D01*
X-108980728Y-463700291D01*
X-109109709Y-463829272D01*
X-109261374Y-463930611D01*
X-109429896Y-464000415D01*
X-109608797Y-464036000D01*
X-109791203Y-464036000D01*
X-109970104Y-464000415D01*
X-110138626Y-463930611D01*
X-110290291Y-463829272D01*
X-110419272Y-463700291D01*
X-110520611Y-463548626D01*
X-110590415Y-463380104D01*
X-110626000Y-463201203D01*
X-110626000Y-463018797D01*
X-110590415Y-462839896D01*
X-110520611Y-462671374D01*
X-110419272Y-462519709D01*
X-110290291Y-462390728D01*
X-110138626Y-462289389D01*
X-109970104Y-462219585D01*
X-109791203Y-462184000D01*
X-109608797Y-462184000D01*
X-109429896Y-462219585D01*
X-109429896Y-462219585D01*
G37*
G36*
X-119589896Y-462219585D02*
G01*
X-119421374Y-462289389D01*
X-119269709Y-462390728D01*
X-119140728Y-462519709D01*
X-119039389Y-462671374D01*
X-118969585Y-462839896D01*
X-118934000Y-463018797D01*
X-118934000Y-463201203D01*
X-118969585Y-463380104D01*
X-119039389Y-463548626D01*
X-119140728Y-463700291D01*
X-119269709Y-463829272D01*
X-119421374Y-463930611D01*
X-119589896Y-464000415D01*
X-119768797Y-464036000D01*
X-119951203Y-464036000D01*
X-120130104Y-464000415D01*
X-120298626Y-463930611D01*
X-120450291Y-463829272D01*
X-120579272Y-463700291D01*
X-120680611Y-463548626D01*
X-120750415Y-463380104D01*
X-120786000Y-463201203D01*
X-120786000Y-463018797D01*
X-120750415Y-462839896D01*
X-120680611Y-462671374D01*
X-120579272Y-462519709D01*
X-120450291Y-462390728D01*
X-120298626Y-462289389D01*
X-120130104Y-462219585D01*
X-119951203Y-462184000D01*
X-119768797Y-462184000D01*
X-119589896Y-462219585D01*
X-119589896Y-462219585D01*
G37*
G36*
X-123137698Y-461704232D02*
G01*
X-123071514Y-461710750D01*
X-122901675Y-461762270D01*
X-122745150Y-461845935D01*
X-122734916Y-461854334D01*
X-122607955Y-461958527D01*
X-122524693Y-462059984D01*
X-122495363Y-462095722D01*
X-122411698Y-462252247D01*
X-122360178Y-462422086D01*
X-122342782Y-462598713D01*
X-122360178Y-462775340D01*
X-122411698Y-462945179D01*
X-122495363Y-463101704D01*
X-122524693Y-463137442D01*
X-122607955Y-463238899D01*
X-122709412Y-463322161D01*
X-122745150Y-463351491D01*
X-122901675Y-463435156D01*
X-123071514Y-463486676D01*
X-123137699Y-463493195D01*
X-123203881Y-463499713D01*
X-123292401Y-463499713D01*
X-123358583Y-463493195D01*
X-123424768Y-463486676D01*
X-123594607Y-463435156D01*
X-123751132Y-463351491D01*
X-123786870Y-463322161D01*
X-123888327Y-463238899D01*
X-123971589Y-463137442D01*
X-124000919Y-463101704D01*
X-124084584Y-462945179D01*
X-124136104Y-462775340D01*
X-124153500Y-462598713D01*
X-124136104Y-462422086D01*
X-124084584Y-462252247D01*
X-124000919Y-462095722D01*
X-123971589Y-462059984D01*
X-123888327Y-461958527D01*
X-123761366Y-461854334D01*
X-123751132Y-461845935D01*
X-123594607Y-461762270D01*
X-123424768Y-461710750D01*
X-123358584Y-461704232D01*
X-123292401Y-461697713D01*
X-123203881Y-461697713D01*
X-123137698Y-461704232D01*
X-123137698Y-461704232D01*
G37*
G36*
X-136067415Y-459968863D02*
G01*
X-135917590Y-459998665D01*
X-135635326Y-460115582D01*
X-135381295Y-460285320D01*
X-135165259Y-460501356D01*
X-134995521Y-460755387D01*
X-134878604Y-461037651D01*
X-134878604Y-461037652D01*
X-134819000Y-461337300D01*
X-134819000Y-461642822D01*
X-134822035Y-461658078D01*
X-134878604Y-461942471D01*
X-134995521Y-462224735D01*
X-135165259Y-462478766D01*
X-135381295Y-462694802D01*
X-135635326Y-462864540D01*
X-135917590Y-462981457D01*
X-136067415Y-463011259D01*
X-136217239Y-463041061D01*
X-136522761Y-463041061D01*
X-136672585Y-463011259D01*
X-136822410Y-462981457D01*
X-137104674Y-462864540D01*
X-137358705Y-462694802D01*
X-137574741Y-462478766D01*
X-137744479Y-462224735D01*
X-137861396Y-461942471D01*
X-137917965Y-461658078D01*
X-137921000Y-461642822D01*
X-137921000Y-461337300D01*
X-137861396Y-461037652D01*
X-137861396Y-461037651D01*
X-137744479Y-460755387D01*
X-137574741Y-460501356D01*
X-137358705Y-460285320D01*
X-137104674Y-460115582D01*
X-136822410Y-459998665D01*
X-136672585Y-459968863D01*
X-136522761Y-459939061D01*
X-136217239Y-459939061D01*
X-136067415Y-459968863D01*
X-136067415Y-459968863D01*
G37*
G36*
X-155131369Y-459968863D02*
G01*
X-154981544Y-459998665D01*
X-154699280Y-460115582D01*
X-154445249Y-460285320D01*
X-154229213Y-460501356D01*
X-154059475Y-460755387D01*
X-153942558Y-461037651D01*
X-153942558Y-461037652D01*
X-153882954Y-461337300D01*
X-153882954Y-461642822D01*
X-153885989Y-461658078D01*
X-153942558Y-461942471D01*
X-154059475Y-462224735D01*
X-154229213Y-462478766D01*
X-154445249Y-462694802D01*
X-154699280Y-462864540D01*
X-154981544Y-462981457D01*
X-155131369Y-463011259D01*
X-155281193Y-463041061D01*
X-155586715Y-463041061D01*
X-155736539Y-463011259D01*
X-155886364Y-462981457D01*
X-156168628Y-462864540D01*
X-156422659Y-462694802D01*
X-156638695Y-462478766D01*
X-156808433Y-462224735D01*
X-156925350Y-461942471D01*
X-156981919Y-461658078D01*
X-156984954Y-461642822D01*
X-156984954Y-461337300D01*
X-156925350Y-461037652D01*
X-156925350Y-461037651D01*
X-156808433Y-460755387D01*
X-156638695Y-460501356D01*
X-156422659Y-460285320D01*
X-156168628Y-460115582D01*
X-155886364Y-459998665D01*
X-155736539Y-459968863D01*
X-155586715Y-459939061D01*
X-155281193Y-459939061D01*
X-155131369Y-459968863D01*
X-155131369Y-459968863D01*
G37*
G36*
X-138346000Y-462791061D02*
G01*
X-140998000Y-462791061D01*
X-140998000Y-460189061D01*
X-138346000Y-460189061D01*
X-138346000Y-462791061D01*
X-138346000Y-462791061D01*
G37*
G36*
X-157409954Y-462791061D02*
G01*
X-160061954Y-462791061D01*
X-160061954Y-460189061D01*
X-157409954Y-460189061D01*
X-157409954Y-462791061D01*
X-157409954Y-462791061D01*
G37*
G36*
X-161856178Y-460123410D02*
G01*
X-161789993Y-460129929D01*
X-161620154Y-460181449D01*
X-161463629Y-460265114D01*
X-161439008Y-460285320D01*
X-161326434Y-460377706D01*
X-161274116Y-460441457D01*
X-161213842Y-460514901D01*
X-161130177Y-460671426D01*
X-161078657Y-460841265D01*
X-161061261Y-461017892D01*
X-161078657Y-461194519D01*
X-161130177Y-461364358D01*
X-161213842Y-461520883D01*
X-161243172Y-461556621D01*
X-161326434Y-461658078D01*
X-161427891Y-461741340D01*
X-161463629Y-461770670D01*
X-161620154Y-461854335D01*
X-161789993Y-461905855D01*
X-161856178Y-461912374D01*
X-161922360Y-461918892D01*
X-162010880Y-461918892D01*
X-162077062Y-461912374D01*
X-162143247Y-461905855D01*
X-162313086Y-461854335D01*
X-162469611Y-461770670D01*
X-162505349Y-461741340D01*
X-162606806Y-461658078D01*
X-162690068Y-461556621D01*
X-162719398Y-461520883D01*
X-162803063Y-461364358D01*
X-162854583Y-461194519D01*
X-162871979Y-461017892D01*
X-162854583Y-460841265D01*
X-162803063Y-460671426D01*
X-162719398Y-460514901D01*
X-162659124Y-460441457D01*
X-162606806Y-460377706D01*
X-162494232Y-460285320D01*
X-162469611Y-460265114D01*
X-162313086Y-460181449D01*
X-162143247Y-460129929D01*
X-162077062Y-460123410D01*
X-162010880Y-460116892D01*
X-161922360Y-460116892D01*
X-161856178Y-460123410D01*
X-161856178Y-460123410D01*
G37*
G36*
X-123137698Y-459164232D02*
G01*
X-123071514Y-459170750D01*
X-122901675Y-459222270D01*
X-122745150Y-459305935D01*
X-122709412Y-459335265D01*
X-122607955Y-459418527D01*
X-122524693Y-459519984D01*
X-122495363Y-459555722D01*
X-122411698Y-459712247D01*
X-122360178Y-459882086D01*
X-122342782Y-460058713D01*
X-122360178Y-460235340D01*
X-122411698Y-460405179D01*
X-122495363Y-460561704D01*
X-122524693Y-460597442D01*
X-122607955Y-460698899D01*
X-122709412Y-460782161D01*
X-122745150Y-460811491D01*
X-122901675Y-460895156D01*
X-123071514Y-460946676D01*
X-123137699Y-460953195D01*
X-123203881Y-460959713D01*
X-123292401Y-460959713D01*
X-123358583Y-460953195D01*
X-123424768Y-460946676D01*
X-123594607Y-460895156D01*
X-123751132Y-460811491D01*
X-123786870Y-460782161D01*
X-123888327Y-460698899D01*
X-123971589Y-460597442D01*
X-124000919Y-460561704D01*
X-124084584Y-460405179D01*
X-124136104Y-460235340D01*
X-124153500Y-460058713D01*
X-124136104Y-459882086D01*
X-124084584Y-459712247D01*
X-124000919Y-459555722D01*
X-123971589Y-459519984D01*
X-123888327Y-459418527D01*
X-123786870Y-459335265D01*
X-123751132Y-459305935D01*
X-123594607Y-459222270D01*
X-123424768Y-459170750D01*
X-123358584Y-459164232D01*
X-123292401Y-459157713D01*
X-123203881Y-459157713D01*
X-123137698Y-459164232D01*
X-123137698Y-459164232D01*
G37*
G36*
X-148781369Y-457428863D02*
G01*
X-148631544Y-457458665D01*
X-148349280Y-457575582D01*
X-148095249Y-457745320D01*
X-147879213Y-457961356D01*
X-147709475Y-458215387D01*
X-147592558Y-458497651D01*
X-147532954Y-458797301D01*
X-147532954Y-459102821D01*
X-147592558Y-459402471D01*
X-147709475Y-459684735D01*
X-147879213Y-459938766D01*
X-148095249Y-460154802D01*
X-148349280Y-460324540D01*
X-148631544Y-460441457D01*
X-148781369Y-460471259D01*
X-148931193Y-460501061D01*
X-149236715Y-460501061D01*
X-149386539Y-460471259D01*
X-149536364Y-460441457D01*
X-149818628Y-460324540D01*
X-150072659Y-460154802D01*
X-150288695Y-459938766D01*
X-150458433Y-459684735D01*
X-150575350Y-459402471D01*
X-150634954Y-459102821D01*
X-150634954Y-458797301D01*
X-150575350Y-458497651D01*
X-150458433Y-458215387D01*
X-150288695Y-457961356D01*
X-150072659Y-457745320D01*
X-149818628Y-457575582D01*
X-149536364Y-457458665D01*
X-149386539Y-457428863D01*
X-149236715Y-457399061D01*
X-148931193Y-457399061D01*
X-148781369Y-457428863D01*
X-148781369Y-457428863D01*
G37*
G36*
X-129717415Y-457428863D02*
G01*
X-129567590Y-457458665D01*
X-129285326Y-457575582D01*
X-129031295Y-457745320D01*
X-128815259Y-457961356D01*
X-128645521Y-458215387D01*
X-128528604Y-458497651D01*
X-128469000Y-458797301D01*
X-128469000Y-459102821D01*
X-128528604Y-459402471D01*
X-128645521Y-459684735D01*
X-128815259Y-459938766D01*
X-129031295Y-460154802D01*
X-129285326Y-460324540D01*
X-129567590Y-460441457D01*
X-129717415Y-460471259D01*
X-129867239Y-460501061D01*
X-130172761Y-460501061D01*
X-130322585Y-460471259D01*
X-130472410Y-460441457D01*
X-130754674Y-460324540D01*
X-131008705Y-460154802D01*
X-131224741Y-459938766D01*
X-131394479Y-459684735D01*
X-131511396Y-459402471D01*
X-131571000Y-459102821D01*
X-131571000Y-458797301D01*
X-131511396Y-458497651D01*
X-131394479Y-458215387D01*
X-131224741Y-457961356D01*
X-131008705Y-457745320D01*
X-130754674Y-457575582D01*
X-130472410Y-457458665D01*
X-130322585Y-457428863D01*
X-130172761Y-457399061D01*
X-129867239Y-457399061D01*
X-129717415Y-457428863D01*
X-129717415Y-457428863D01*
G37*
G36*
X-109777415Y-457188802D02*
G01*
X-109627590Y-457218604D01*
X-109345326Y-457335521D01*
X-109091295Y-457505259D01*
X-108875259Y-457721295D01*
X-108705521Y-457975326D01*
X-108588604Y-458257590D01*
X-108588604Y-458257591D01*
X-108529000Y-458557239D01*
X-108529000Y-458862761D01*
X-108553526Y-458986061D01*
X-108588604Y-459162410D01*
X-108705521Y-459444674D01*
X-108875259Y-459698705D01*
X-109091295Y-459914741D01*
X-109345326Y-460084479D01*
X-109627590Y-460201396D01*
X-109777415Y-460231198D01*
X-109927239Y-460261000D01*
X-110232761Y-460261000D01*
X-110382585Y-460231198D01*
X-110532410Y-460201396D01*
X-110814674Y-460084479D01*
X-111068705Y-459914741D01*
X-111284741Y-459698705D01*
X-111454479Y-459444674D01*
X-111571396Y-459162410D01*
X-111606474Y-458986061D01*
X-111631000Y-458862761D01*
X-111631000Y-458557239D01*
X-111571396Y-458257591D01*
X-111571396Y-458257590D01*
X-111454479Y-457975326D01*
X-111284741Y-457721295D01*
X-111068705Y-457505259D01*
X-110814674Y-457335521D01*
X-110532410Y-457218604D01*
X-110382585Y-457188802D01*
X-110232761Y-457159000D01*
X-109927239Y-457159000D01*
X-109777415Y-457188802D01*
X-109777415Y-457188802D01*
G37*
G36*
X-144482954Y-460251061D02*
G01*
X-147134954Y-460251061D01*
X-147134954Y-457649061D01*
X-144482954Y-457649061D01*
X-144482954Y-460251061D01*
X-144482954Y-460251061D01*
G37*
G36*
X-125419000Y-460251061D02*
G01*
X-128071000Y-460251061D01*
X-128071000Y-457649061D01*
X-125419000Y-457649061D01*
X-125419000Y-460251061D01*
X-125419000Y-460251061D01*
G37*
G36*
X-105529000Y-459761000D02*
G01*
X-107631000Y-459761000D01*
X-107631000Y-457659000D01*
X-105529000Y-457659000D01*
X-105529000Y-459761000D01*
X-105529000Y-459761000D01*
G37*
G36*
X-161065620Y-459378892D02*
G01*
X-162867620Y-459378892D01*
X-162867620Y-457576892D01*
X-161065620Y-457576892D01*
X-161065620Y-459378892D01*
X-161065620Y-459378892D01*
G37*
G36*
X-133078609Y-453933055D02*
G01*
X-132884425Y-454013489D01*
X-132609808Y-454127239D01*
X-132187896Y-454409151D01*
X-131829090Y-454767957D01*
X-131547178Y-455189869D01*
X-131433428Y-455464486D01*
X-131352994Y-455658670D01*
X-131254000Y-456156347D01*
X-131254000Y-456663775D01*
X-131352994Y-457161452D01*
X-131410580Y-457300476D01*
X-131547178Y-457630253D01*
X-131829090Y-458052165D01*
X-132187896Y-458410971D01*
X-132609808Y-458692883D01*
X-132861893Y-458797300D01*
X-133078609Y-458887067D01*
X-133576285Y-458986061D01*
X-134083715Y-458986061D01*
X-134581391Y-458887067D01*
X-134798107Y-458797300D01*
X-135050192Y-458692883D01*
X-135472104Y-458410971D01*
X-135830910Y-458052165D01*
X-136112822Y-457630253D01*
X-136249420Y-457300476D01*
X-136307006Y-457161452D01*
X-136406000Y-456663775D01*
X-136406000Y-456156347D01*
X-136307006Y-455658670D01*
X-136226572Y-455464486D01*
X-136112822Y-455189869D01*
X-135830910Y-454767957D01*
X-135472104Y-454409151D01*
X-135050192Y-454127239D01*
X-134775575Y-454013489D01*
X-134581391Y-453933055D01*
X-134083715Y-453834061D01*
X-133576285Y-453834061D01*
X-133078609Y-453933055D01*
X-133078609Y-453933055D01*
G37*
G36*
X-152142563Y-453933055D02*
G01*
X-151948379Y-454013489D01*
X-151673762Y-454127239D01*
X-151251850Y-454409151D01*
X-150893044Y-454767957D01*
X-150611132Y-455189869D01*
X-150497382Y-455464486D01*
X-150416948Y-455658670D01*
X-150317954Y-456156347D01*
X-150317954Y-456663775D01*
X-150416948Y-457161452D01*
X-150474534Y-457300476D01*
X-150611132Y-457630253D01*
X-150893044Y-458052165D01*
X-151251850Y-458410971D01*
X-151673762Y-458692883D01*
X-151925847Y-458797300D01*
X-152142563Y-458887067D01*
X-152640239Y-458986061D01*
X-153147669Y-458986061D01*
X-153645345Y-458887067D01*
X-153862061Y-458797300D01*
X-154114146Y-458692883D01*
X-154536058Y-458410971D01*
X-154894864Y-458052165D01*
X-155176776Y-457630253D01*
X-155313374Y-457300476D01*
X-155370960Y-457161452D01*
X-155469954Y-456663775D01*
X-155469954Y-456156347D01*
X-155370960Y-455658670D01*
X-155290526Y-455464486D01*
X-155176776Y-455189869D01*
X-154894864Y-454767957D01*
X-154536058Y-454409151D01*
X-154114146Y-454127239D01*
X-153839529Y-454013489D01*
X-153645345Y-453933055D01*
X-153147669Y-453834061D01*
X-152640239Y-453834061D01*
X-152142563Y-453933055D01*
X-152142563Y-453933055D01*
G37*
G36*
X-117173095Y-455819770D02*
G01*
X-116927590Y-455868604D01*
X-116645326Y-455985521D01*
X-116391295Y-456155259D01*
X-116175259Y-456371295D01*
X-116005521Y-456625326D01*
X-115900642Y-456878528D01*
X-115888604Y-456907591D01*
X-115835960Y-457172247D01*
X-115829000Y-457207240D01*
X-115829000Y-457512760D01*
X-115888604Y-457812410D01*
X-116005521Y-458094674D01*
X-116175259Y-458348705D01*
X-116391295Y-458564741D01*
X-116645326Y-458734479D01*
X-116927590Y-458851396D01*
X-116984721Y-458862760D01*
X-117227239Y-458911000D01*
X-117532761Y-458911000D01*
X-117775279Y-458862760D01*
X-117832410Y-458851396D01*
X-118114674Y-458734479D01*
X-118368705Y-458564741D01*
X-118584741Y-458348705D01*
X-118754479Y-458094674D01*
X-118871396Y-457812410D01*
X-118931000Y-457512760D01*
X-118931000Y-457207240D01*
X-118924039Y-457172247D01*
X-118871396Y-456907591D01*
X-118859358Y-456878528D01*
X-118754479Y-456625326D01*
X-118584741Y-456371295D01*
X-118368705Y-456155259D01*
X-118114674Y-455985521D01*
X-117832410Y-455868604D01*
X-117586905Y-455819770D01*
X-117532761Y-455809000D01*
X-117227239Y-455809000D01*
X-117173095Y-455819770D01*
X-117173095Y-455819770D01*
G37*
G36*
X-119729000Y-458681000D02*
G01*
X-121531000Y-458681000D01*
X-121531000Y-456079000D01*
X-119729000Y-456079000D01*
X-119729000Y-458681000D01*
X-119729000Y-458681000D01*
G37*
G36*
X-123137699Y-456624231D02*
G01*
X-123071514Y-456630750D01*
X-122901675Y-456682270D01*
X-122745150Y-456765935D01*
X-122709412Y-456795265D01*
X-122607955Y-456878527D01*
X-122524693Y-456979984D01*
X-122495363Y-457015722D01*
X-122411698Y-457172247D01*
X-122360178Y-457342086D01*
X-122342782Y-457518713D01*
X-122360178Y-457695340D01*
X-122411698Y-457865179D01*
X-122495363Y-458021704D01*
X-122520362Y-458052165D01*
X-122607955Y-458158899D01*
X-122709412Y-458242161D01*
X-122745150Y-458271491D01*
X-122901675Y-458355156D01*
X-123071514Y-458406676D01*
X-123115123Y-458410971D01*
X-123203881Y-458419713D01*
X-123292401Y-458419713D01*
X-123381159Y-458410971D01*
X-123424768Y-458406676D01*
X-123594607Y-458355156D01*
X-123751132Y-458271491D01*
X-123786870Y-458242161D01*
X-123888327Y-458158899D01*
X-123975920Y-458052165D01*
X-124000919Y-458021704D01*
X-124084584Y-457865179D01*
X-124136104Y-457695340D01*
X-124153500Y-457518713D01*
X-124136104Y-457342086D01*
X-124084584Y-457172247D01*
X-124000919Y-457015722D01*
X-123971589Y-456979984D01*
X-123888327Y-456878527D01*
X-123786870Y-456795265D01*
X-123751132Y-456765935D01*
X-123594607Y-456682270D01*
X-123424768Y-456630750D01*
X-123358583Y-456624231D01*
X-123292401Y-456617713D01*
X-123203881Y-456617713D01*
X-123137699Y-456624231D01*
X-123137699Y-456624231D01*
G37*
G36*
X-157703850Y-455519646D02*
G01*
X-157535328Y-455589450D01*
X-157383663Y-455690789D01*
X-157254682Y-455819770D01*
X-157153343Y-455971435D01*
X-157083539Y-456139957D01*
X-157047954Y-456318858D01*
X-157047954Y-456501264D01*
X-157083539Y-456680165D01*
X-157153343Y-456848687D01*
X-157254682Y-457000352D01*
X-157383663Y-457129333D01*
X-157535328Y-457230672D01*
X-157703850Y-457300476D01*
X-157882751Y-457336061D01*
X-158065157Y-457336061D01*
X-158244058Y-457300476D01*
X-158412580Y-457230672D01*
X-158564245Y-457129333D01*
X-158693226Y-457000352D01*
X-158794565Y-456848687D01*
X-158864369Y-456680165D01*
X-158899954Y-456501264D01*
X-158899954Y-456318858D01*
X-158864369Y-456139957D01*
X-158794565Y-455971435D01*
X-158693226Y-455819770D01*
X-158564245Y-455690789D01*
X-158412580Y-455589450D01*
X-158244058Y-455519646D01*
X-158065157Y-455484061D01*
X-157882751Y-455484061D01*
X-157703850Y-455519646D01*
X-157703850Y-455519646D01*
G37*
G36*
X-147543850Y-455519646D02*
G01*
X-147375328Y-455589450D01*
X-147223663Y-455690789D01*
X-147094682Y-455819770D01*
X-146993343Y-455971435D01*
X-146923539Y-456139957D01*
X-146887954Y-456318858D01*
X-146887954Y-456501264D01*
X-146923539Y-456680165D01*
X-146993343Y-456848687D01*
X-147094682Y-457000352D01*
X-147223663Y-457129333D01*
X-147375328Y-457230672D01*
X-147543850Y-457300476D01*
X-147722751Y-457336061D01*
X-147905157Y-457336061D01*
X-148084058Y-457300476D01*
X-148252580Y-457230672D01*
X-148404245Y-457129333D01*
X-148533226Y-457000352D01*
X-148634565Y-456848687D01*
X-148704369Y-456680165D01*
X-148739954Y-456501264D01*
X-148739954Y-456318858D01*
X-148704369Y-456139957D01*
X-148634565Y-455971435D01*
X-148533226Y-455819770D01*
X-148404245Y-455690789D01*
X-148252580Y-455589450D01*
X-148084058Y-455519646D01*
X-147905157Y-455484061D01*
X-147722751Y-455484061D01*
X-147543850Y-455519646D01*
X-147543850Y-455519646D01*
G37*
G36*
X-128479896Y-455519646D02*
G01*
X-128311374Y-455589450D01*
X-128159709Y-455690789D01*
X-128030728Y-455819770D01*
X-127929389Y-455971435D01*
X-127859585Y-456139957D01*
X-127824000Y-456318858D01*
X-127824000Y-456501264D01*
X-127859585Y-456680165D01*
X-127929389Y-456848687D01*
X-128030728Y-457000352D01*
X-128159709Y-457129333D01*
X-128311374Y-457230672D01*
X-128479896Y-457300476D01*
X-128658797Y-457336061D01*
X-128841203Y-457336061D01*
X-129020104Y-457300476D01*
X-129188626Y-457230672D01*
X-129340291Y-457129333D01*
X-129469272Y-457000352D01*
X-129570611Y-456848687D01*
X-129640415Y-456680165D01*
X-129676000Y-456501264D01*
X-129676000Y-456318858D01*
X-129640415Y-456139957D01*
X-129570611Y-455971435D01*
X-129469272Y-455819770D01*
X-129340291Y-455690789D01*
X-129188626Y-455589450D01*
X-129020104Y-455519646D01*
X-128841203Y-455484061D01*
X-128658797Y-455484061D01*
X-128479896Y-455519646D01*
X-128479896Y-455519646D01*
G37*
G36*
X-138639896Y-455519646D02*
G01*
X-138471374Y-455589450D01*
X-138319709Y-455690789D01*
X-138190728Y-455819770D01*
X-138089389Y-455971435D01*
X-138019585Y-456139957D01*
X-137984000Y-456318858D01*
X-137984000Y-456501264D01*
X-138019585Y-456680165D01*
X-138089389Y-456848687D01*
X-138190728Y-457000352D01*
X-138319709Y-457129333D01*
X-138471374Y-457230672D01*
X-138639896Y-457300476D01*
X-138818797Y-457336061D01*
X-139001203Y-457336061D01*
X-139180104Y-457300476D01*
X-139348626Y-457230672D01*
X-139500291Y-457129333D01*
X-139629272Y-457000352D01*
X-139730611Y-456848687D01*
X-139800415Y-456680165D01*
X-139836000Y-456501264D01*
X-139836000Y-456318858D01*
X-139800415Y-456139957D01*
X-139730611Y-455971435D01*
X-139629272Y-455819770D01*
X-139500291Y-455690789D01*
X-139348626Y-455589450D01*
X-139180104Y-455519646D01*
X-139001203Y-455484061D01*
X-138818797Y-455484061D01*
X-138639896Y-455519646D01*
X-138639896Y-455519646D01*
G37*
G36*
X-122347141Y-455879713D02*
G01*
X-124149141Y-455879713D01*
X-124149141Y-454077713D01*
X-122347141Y-454077713D01*
X-122347141Y-455879713D01*
X-122347141Y-455879713D01*
G37*
G36*
X-128827415Y-450488863D02*
G01*
X-128677590Y-450518665D01*
X-128395326Y-450635582D01*
X-128141295Y-450805320D01*
X-127925259Y-451021356D01*
X-127755521Y-451275387D01*
X-127706087Y-451394733D01*
X-127638604Y-451557652D01*
X-127579000Y-451857300D01*
X-127579000Y-452162822D01*
X-127608802Y-452312646D01*
X-127638604Y-452462471D01*
X-127755521Y-452744735D01*
X-127925259Y-452998766D01*
X-128141295Y-453214802D01*
X-128395326Y-453384540D01*
X-128677590Y-453501457D01*
X-128827415Y-453531259D01*
X-128977239Y-453561061D01*
X-129282761Y-453561061D01*
X-129432585Y-453531259D01*
X-129582410Y-453501457D01*
X-129864674Y-453384540D01*
X-130118705Y-453214802D01*
X-130334741Y-452998766D01*
X-130504479Y-452744735D01*
X-130621396Y-452462471D01*
X-130651198Y-452312646D01*
X-130681000Y-452162822D01*
X-130681000Y-451857300D01*
X-130621396Y-451557652D01*
X-130553913Y-451394733D01*
X-130504479Y-451275387D01*
X-130334741Y-451021356D01*
X-130118705Y-450805320D01*
X-129864674Y-450635582D01*
X-129582410Y-450518665D01*
X-129432585Y-450488863D01*
X-129282761Y-450459061D01*
X-128977239Y-450459061D01*
X-128827415Y-450488863D01*
X-128827415Y-450488863D01*
G37*
G36*
X-147891369Y-450488863D02*
G01*
X-147741544Y-450518665D01*
X-147459280Y-450635582D01*
X-147205249Y-450805320D01*
X-146989213Y-451021356D01*
X-146819475Y-451275387D01*
X-146770041Y-451394733D01*
X-146702558Y-451557652D01*
X-146642954Y-451857300D01*
X-146642954Y-452162822D01*
X-146672756Y-452312646D01*
X-146702558Y-452462471D01*
X-146819475Y-452744735D01*
X-146989213Y-452998766D01*
X-147205249Y-453214802D01*
X-147459280Y-453384540D01*
X-147741544Y-453501457D01*
X-147891369Y-453531259D01*
X-148041193Y-453561061D01*
X-148346715Y-453561061D01*
X-148496539Y-453531259D01*
X-148646364Y-453501457D01*
X-148928628Y-453384540D01*
X-149182659Y-453214802D01*
X-149398695Y-452998766D01*
X-149568433Y-452744735D01*
X-149685350Y-452462471D01*
X-149715152Y-452312646D01*
X-149744954Y-452162822D01*
X-149744954Y-451857300D01*
X-149685350Y-451557652D01*
X-149617867Y-451394733D01*
X-149568433Y-451275387D01*
X-149398695Y-451021356D01*
X-149182659Y-450805320D01*
X-148928628Y-450635582D01*
X-148646364Y-450518665D01*
X-148496539Y-450488863D01*
X-148346715Y-450459061D01*
X-148041193Y-450459061D01*
X-147891369Y-450488863D01*
X-147891369Y-450488863D01*
G37*
G36*
X-124579000Y-453061061D02*
G01*
X-126681000Y-453061061D01*
X-126681000Y-450959061D01*
X-124579000Y-450959061D01*
X-124579000Y-453061061D01*
X-124579000Y-453061061D01*
G37*
G36*
X-143642954Y-453061061D02*
G01*
X-145744954Y-453061061D01*
X-145744954Y-450959061D01*
X-143642954Y-450959061D01*
X-143642954Y-453061061D01*
X-143642954Y-453061061D01*
G37*
G36*
X-136127415Y-449138863D02*
G01*
X-135977590Y-449168665D01*
X-135695326Y-449285582D01*
X-135441295Y-449455320D01*
X-135225259Y-449671356D01*
X-135055521Y-449925387D01*
X-134938604Y-450207651D01*
X-134938604Y-450207652D01*
X-134888595Y-450459061D01*
X-134879000Y-450507301D01*
X-134879000Y-450812821D01*
X-134938604Y-451112471D01*
X-135055521Y-451394735D01*
X-135225259Y-451648766D01*
X-135441295Y-451864802D01*
X-135695326Y-452034540D01*
X-135977590Y-452151457D01*
X-136034721Y-452162821D01*
X-136277239Y-452211061D01*
X-136582761Y-452211061D01*
X-136825279Y-452162821D01*
X-136882410Y-452151457D01*
X-137164674Y-452034540D01*
X-137418705Y-451864802D01*
X-137634741Y-451648766D01*
X-137804479Y-451394735D01*
X-137921396Y-451112471D01*
X-137981000Y-450812821D01*
X-137981000Y-450507301D01*
X-137971404Y-450459061D01*
X-137921396Y-450207652D01*
X-137921396Y-450207651D01*
X-137804479Y-449925387D01*
X-137634741Y-449671356D01*
X-137418705Y-449455320D01*
X-137164674Y-449285582D01*
X-136882410Y-449168665D01*
X-136732585Y-449138863D01*
X-136582761Y-449109061D01*
X-136277239Y-449109061D01*
X-136127415Y-449138863D01*
X-136127415Y-449138863D01*
G37*
G36*
X-155191369Y-449138863D02*
G01*
X-155041544Y-449168665D01*
X-154759280Y-449285582D01*
X-154505249Y-449455320D01*
X-154289213Y-449671356D01*
X-154119475Y-449925387D01*
X-154002558Y-450207651D01*
X-154002558Y-450207652D01*
X-153952549Y-450459061D01*
X-153942954Y-450507301D01*
X-153942954Y-450812821D01*
X-154002558Y-451112471D01*
X-154119475Y-451394735D01*
X-154289213Y-451648766D01*
X-154505249Y-451864802D01*
X-154759280Y-452034540D01*
X-155041544Y-452151457D01*
X-155098675Y-452162821D01*
X-155341193Y-452211061D01*
X-155646715Y-452211061D01*
X-155889233Y-452162821D01*
X-155946364Y-452151457D01*
X-156228628Y-452034540D01*
X-156482659Y-451864802D01*
X-156698695Y-451648766D01*
X-156868433Y-451394735D01*
X-156985350Y-451112471D01*
X-157044954Y-450812821D01*
X-157044954Y-450507301D01*
X-157035358Y-450459061D01*
X-156985350Y-450207652D01*
X-156985350Y-450207651D01*
X-156868433Y-449925387D01*
X-156698695Y-449671356D01*
X-156482659Y-449455320D01*
X-156228628Y-449285582D01*
X-155946364Y-449168665D01*
X-155796539Y-449138863D01*
X-155646715Y-449109061D01*
X-155341193Y-449109061D01*
X-155191369Y-449138863D01*
X-155191369Y-449138863D01*
G37*
G36*
X-157967954Y-451961061D02*
G01*
X-160619954Y-451961061D01*
X-160619954Y-449359061D01*
X-157967954Y-449359061D01*
X-157967954Y-451961061D01*
X-157967954Y-451961061D01*
G37*
G36*
X-138904000Y-451961061D02*
G01*
X-141556000Y-451961061D01*
X-141556000Y-449359061D01*
X-138904000Y-449359061D01*
X-138904000Y-451961061D01*
X-138904000Y-451961061D01*
G37*
G36*
X-134739724Y-445147694D02*
G01*
X-136480322Y-445614086D01*
X-136946714Y-443873488D01*
X-135206116Y-443407096D01*
X-134739724Y-445147694D01*
X-134739724Y-445147694D01*
G37*
G36*
X-133279325Y-442958709D02*
G01*
X-133213140Y-442965228D01*
X-133043301Y-443016748D01*
X-132886776Y-443100413D01*
X-132851038Y-443129743D01*
X-132749581Y-443213005D01*
X-132666319Y-443314462D01*
X-132636989Y-443350200D01*
X-132553324Y-443506725D01*
X-132501804Y-443676564D01*
X-132484408Y-443853191D01*
X-132501804Y-444029818D01*
X-132553324Y-444199657D01*
X-132636989Y-444356182D01*
X-132666319Y-444391920D01*
X-132749581Y-444493377D01*
X-132851038Y-444576639D01*
X-132886776Y-444605969D01*
X-133043301Y-444689634D01*
X-133213140Y-444741154D01*
X-133279325Y-444747673D01*
X-133345507Y-444754191D01*
X-133434027Y-444754191D01*
X-133500209Y-444747673D01*
X-133566394Y-444741154D01*
X-133736233Y-444689634D01*
X-133892758Y-444605969D01*
X-133928496Y-444576639D01*
X-134029953Y-444493377D01*
X-134113215Y-444391920D01*
X-134142545Y-444356182D01*
X-134226210Y-444199657D01*
X-134277730Y-444029818D01*
X-134295126Y-443853191D01*
X-134277730Y-443676564D01*
X-134226210Y-443506725D01*
X-134142545Y-443350200D01*
X-134113215Y-443314462D01*
X-134029953Y-443213005D01*
X-133928496Y-443129743D01*
X-133892758Y-443100413D01*
X-133736233Y-443016748D01*
X-133566394Y-442965228D01*
X-133500209Y-442958709D01*
X-133434027Y-442952191D01*
X-133345507Y-442952191D01*
X-133279325Y-442958709D01*
X-133279325Y-442958709D01*
G37*
G36*
X-130825873Y-442301309D02*
G01*
X-130759689Y-442307827D01*
X-130589850Y-442359347D01*
X-130433325Y-442443012D01*
X-130397587Y-442472342D01*
X-130296130Y-442555604D01*
X-130212868Y-442657061D01*
X-130183538Y-442692799D01*
X-130099873Y-442849324D01*
X-130048353Y-443019163D01*
X-130030957Y-443195790D01*
X-130048353Y-443372417D01*
X-130099873Y-443542256D01*
X-130183538Y-443698781D01*
X-130212868Y-443734519D01*
X-130296130Y-443835976D01*
X-130397587Y-443919238D01*
X-130433325Y-443948568D01*
X-130589850Y-444032233D01*
X-130759689Y-444083753D01*
X-130825874Y-444090272D01*
X-130892056Y-444096790D01*
X-130980576Y-444096790D01*
X-131046758Y-444090272D01*
X-131112943Y-444083753D01*
X-131282782Y-444032233D01*
X-131439307Y-443948568D01*
X-131475045Y-443919238D01*
X-131576502Y-443835976D01*
X-131659764Y-443734519D01*
X-131689094Y-443698781D01*
X-131772759Y-443542256D01*
X-131824279Y-443372417D01*
X-131841675Y-443195790D01*
X-131824279Y-443019163D01*
X-131772759Y-442849324D01*
X-131689094Y-442692799D01*
X-131659764Y-442657061D01*
X-131576502Y-442555604D01*
X-131475045Y-442472342D01*
X-131439307Y-442443012D01*
X-131282782Y-442359347D01*
X-131112943Y-442307827D01*
X-131046759Y-442301309D01*
X-130980576Y-442294790D01*
X-130892056Y-442294790D01*
X-130825873Y-442301309D01*
X-130825873Y-442301309D01*
G37*
G36*
X-128372421Y-441643909D02*
G01*
X-128306237Y-441650427D01*
X-128136398Y-441701947D01*
X-127979873Y-441785612D01*
X-127944135Y-441814942D01*
X-127842678Y-441898204D01*
X-127759416Y-441999661D01*
X-127730086Y-442035399D01*
X-127646421Y-442191924D01*
X-127594901Y-442361763D01*
X-127577505Y-442538390D01*
X-127594901Y-442715017D01*
X-127646421Y-442884856D01*
X-127730086Y-443041381D01*
X-127759416Y-443077119D01*
X-127842678Y-443178576D01*
X-127944135Y-443261838D01*
X-127979873Y-443291168D01*
X-128136398Y-443374833D01*
X-128306237Y-443426353D01*
X-128372422Y-443432872D01*
X-128438604Y-443439390D01*
X-128527124Y-443439390D01*
X-128593306Y-443432872D01*
X-128659491Y-443426353D01*
X-128829330Y-443374833D01*
X-128985855Y-443291168D01*
X-129021593Y-443261838D01*
X-129123050Y-443178576D01*
X-129206312Y-443077119D01*
X-129235642Y-443041381D01*
X-129319307Y-442884856D01*
X-129370827Y-442715017D01*
X-129388223Y-442538390D01*
X-129370827Y-442361763D01*
X-129319307Y-442191924D01*
X-129235642Y-442035399D01*
X-129206312Y-441999661D01*
X-129123050Y-441898204D01*
X-129021593Y-441814942D01*
X-128985855Y-441785612D01*
X-128829330Y-441701947D01*
X-128659491Y-441650427D01*
X-128593307Y-441643909D01*
X-128527124Y-441637390D01*
X-128438604Y-441637390D01*
X-128372421Y-441643909D01*
X-128372421Y-441643909D01*
G37*
M02*
