G04 #@! TF.GenerationSoftware,KiCad,Pcbnew,(5.1.4)-1*
G04 #@! TF.CreationDate,2023-09-09T05:29:12-04:00*
G04 #@! TF.ProjectId,ThumbsUp,5468756d-6273-4557-902e-6b696361645f,rev?*
G04 #@! TF.SameCoordinates,Original*
G04 #@! TF.FileFunction,Legend,Bot*
G04 #@! TF.FilePolarity,Positive*
%FSLAX46Y46*%
G04 Gerber Fmt 4.6, Leading zero omitted, Abs format (unit mm)*
G04 Created by KiCad (PCBNEW (5.1.4)-1) date 2023-09-09 05:29:12*
%MOMM*%
%LPD*%
G04 APERTURE LIST*
%ADD10C,0.150000*%
%ADD11C,0.120000*%
G04 APERTURE END LIST*
D10*
X-149223486Y-464693139D02*
X-148781970Y-464514755D01*
X-149156577Y-463587571D01*
X-149728770Y-464332340D02*
X-150037832Y-464457209D01*
X-149974064Y-464996392D02*
X-149532548Y-464818008D01*
X-149907154Y-463890824D01*
X-150348670Y-464069208D01*
X-150876712Y-464796139D02*
X-150567651Y-464671270D01*
X-150371428Y-465156938D02*
X-150746035Y-464229754D01*
X-151187551Y-464408138D01*
X-151408309Y-464497330D02*
X-151938129Y-464711391D01*
X-151298612Y-465531545D02*
X-151673219Y-464604361D01*
X-146064208Y-464631343D02*
X-145755147Y-464506474D01*
X-145558924Y-464992142D02*
X-145933531Y-464064958D01*
X-146375047Y-464243342D01*
X-146883473Y-465527294D02*
X-146752795Y-464960909D01*
X-146353653Y-465313233D02*
X-146728260Y-464386050D01*
X-147081473Y-464528757D01*
X-147151938Y-464608585D01*
X-147178251Y-464670575D01*
X-147186726Y-464776717D01*
X-147133210Y-464909172D01*
X-147053382Y-464979637D01*
X-146991392Y-465005950D01*
X-146885250Y-465014425D01*
X-146532037Y-464871717D01*
X-147832050Y-464832010D02*
X-148008657Y-464903364D01*
X-148079121Y-464983192D01*
X-148131748Y-465107172D01*
X-148104546Y-465301617D01*
X-147979677Y-465610678D01*
X-147864172Y-465769446D01*
X-147740192Y-465822073D01*
X-147634050Y-465830547D01*
X-147457444Y-465759194D01*
X-147386979Y-465679365D01*
X-147334352Y-465555385D01*
X-147361554Y-465360940D01*
X-147486423Y-465051879D01*
X-147601928Y-464893111D01*
X-147725909Y-464840485D01*
X-147832050Y-464832010D01*
X-148252173Y-466080285D02*
X-148626779Y-465153101D01*
X-148668264Y-465940244D01*
X-149244902Y-465402839D01*
X-148870295Y-466330023D01*
X-150523521Y-466433023D02*
X-150638137Y-466530689D01*
X-150664450Y-466592679D01*
X-150672925Y-466698821D01*
X-150619410Y-466831276D01*
X-150539582Y-466901741D01*
X-150477592Y-466928054D01*
X-150371450Y-466936529D01*
X-150018237Y-466793821D01*
X-150392844Y-465866638D01*
X-150701905Y-465991506D01*
X-150772370Y-466071335D01*
X-150798683Y-466133325D01*
X-150807158Y-466239467D01*
X-150771481Y-466327770D01*
X-150691653Y-466398235D01*
X-150629662Y-466424548D01*
X-150523521Y-466433023D01*
X-150214460Y-466308154D01*
X-151141643Y-466682760D02*
X-151450705Y-466807629D01*
X-151386937Y-467346812D02*
X-150945421Y-467168428D01*
X-151320028Y-466241244D01*
X-151761544Y-466419628D01*
X-152225818Y-467685742D02*
X-151784302Y-467507358D01*
X-152158908Y-466580174D01*
X-153086092Y-466954781D02*
X-153262698Y-467026134D01*
X-153333163Y-467105963D01*
X-153385790Y-467229943D01*
X-153358588Y-467424388D01*
X-153233719Y-467733449D01*
X-153118214Y-467892217D01*
X-152994233Y-467944843D01*
X-152888092Y-467953318D01*
X-152711485Y-467881964D01*
X-152641021Y-467802136D01*
X-152588394Y-467678156D01*
X-152615596Y-467483711D01*
X-152740465Y-467174650D01*
X-152855970Y-467015882D01*
X-152979950Y-466963255D01*
X-153086092Y-466954781D01*
X-153792518Y-467240195D02*
X-153638669Y-468256571D01*
X-154082852Y-467665650D01*
X-153991882Y-468399278D01*
X-154587247Y-467561286D01*
D11*
X-160636620Y-457147892D02*
X-161966620Y-457147892D01*
X-160636620Y-458477892D02*
X-160636620Y-457147892D01*
X-160636620Y-459747892D02*
X-163296620Y-459747892D01*
X-163296620Y-459747892D02*
X-163296620Y-467427892D01*
X-160636620Y-459747892D02*
X-160636620Y-467427892D01*
X-160636620Y-467427892D02*
X-163296620Y-467427892D01*
X-121918141Y-453648713D02*
X-123248141Y-453648713D01*
X-121918141Y-454978713D02*
X-121918141Y-453648713D01*
X-121918141Y-456248713D02*
X-124578141Y-456248713D01*
X-124578141Y-456248713D02*
X-124578141Y-463928713D01*
X-121918141Y-456248713D02*
X-121918141Y-463928713D01*
X-121918141Y-463928713D02*
X-124578141Y-463928713D01*
X-158089330Y-464864574D02*
X-158089330Y-466194574D01*
X-156759330Y-464864574D02*
X-158089330Y-464864574D01*
X-155489330Y-464864574D02*
X-155489330Y-467524574D01*
X-155489330Y-467524574D02*
X-147809330Y-467524574D01*
X-155489330Y-464864574D02*
X-147809330Y-464864574D01*
X-147809330Y-464864574D02*
X-147809330Y-467524574D01*
X-137472130Y-443570139D02*
X-137127900Y-444854820D01*
X-136187448Y-443225910D02*
X-137472130Y-443570139D01*
X-134960723Y-442897209D02*
X-134272264Y-445466572D01*
X-134272264Y-445466572D02*
X-126853954Y-443478842D01*
X-134960723Y-442897209D02*
X-127542412Y-440909479D01*
X-127542412Y-440909479D02*
X-126853954Y-443478842D01*
D10*
X-161157096Y-455600272D02*
X-161157096Y-456314558D01*
X-161109477Y-456457415D01*
X-161014239Y-456552653D01*
X-160871381Y-456600272D01*
X-160776143Y-456600272D01*
X-161538048Y-455600272D02*
X-162204715Y-455600272D01*
X-161776143Y-456600272D01*
X-163109477Y-456600272D02*
X-162538048Y-456600272D01*
X-162823762Y-456600272D02*
X-162823762Y-455600272D01*
X-162728524Y-455743130D01*
X-162633286Y-455838368D01*
X-162538048Y-455885987D01*
X-122438617Y-452101093D02*
X-122438617Y-452815379D01*
X-122390998Y-452958236D01*
X-122295760Y-453053474D01*
X-122152902Y-453101093D01*
X-122057664Y-453101093D01*
X-122819569Y-452101093D02*
X-123486236Y-452101093D01*
X-123057664Y-453101093D01*
X-123771950Y-452101093D02*
X-124390998Y-452101093D01*
X-124057664Y-452482046D01*
X-124200521Y-452482046D01*
X-124295760Y-452529665D01*
X-124343379Y-452577284D01*
X-124390998Y-452672522D01*
X-124390998Y-452910617D01*
X-124343379Y-453005855D01*
X-124295760Y-453053474D01*
X-124200521Y-453101093D01*
X-123914807Y-453101093D01*
X-123819569Y-453053474D01*
X-123771950Y-453005855D01*
X-159636949Y-465385050D02*
X-158922663Y-465385050D01*
X-158779806Y-465337431D01*
X-158684568Y-465242193D01*
X-158636949Y-465099335D01*
X-158636949Y-465004097D01*
X-159636949Y-466337431D02*
X-159636949Y-465861240D01*
X-159160758Y-465813621D01*
X-159208377Y-465861240D01*
X-159255996Y-465956478D01*
X-159255996Y-466194574D01*
X-159208377Y-466289812D01*
X-159160758Y-466337431D01*
X-159065520Y-466385050D01*
X-158827425Y-466385050D01*
X-158732187Y-466337431D01*
X-158684568Y-466289812D01*
X-158636949Y-466194574D01*
X-158636949Y-465956478D01*
X-158684568Y-465861240D01*
X-158732187Y-465813621D01*
X-159303615Y-467242193D02*
X-158636949Y-467242193D01*
X-159684568Y-467004097D02*
X-158970282Y-466766002D01*
X-158970282Y-467385050D01*
X-137355346Y-445753844D02*
X-138045293Y-445938715D01*
X-138170958Y-446021686D01*
X-138238301Y-446138328D01*
X-138247323Y-446288642D01*
X-138222674Y-446380635D01*
X-137453944Y-445385872D02*
X-137626490Y-444741922D01*
X-138481493Y-445414709D01*
X-137804756Y-444444596D02*
X-137771084Y-444386275D01*
X-137749737Y-444281957D01*
X-137811360Y-444051975D01*
X-137882006Y-443972307D01*
X-137940328Y-443938635D01*
X-138044645Y-443917288D01*
X-138136638Y-443941937D01*
X-138262303Y-444024908D01*
X-138666364Y-444724762D01*
X-138826585Y-444126808D01*
M02*
