G04 #@! TF.GenerationSoftware,KiCad,Pcbnew,(5.1.4)-1*
G04 #@! TF.CreationDate,2023-09-09T05:29:12-04:00*
G04 #@! TF.ProjectId,ThumbsUp,5468756d-6273-4557-902e-6b696361645f,rev?*
G04 #@! TF.SameCoordinates,Original*
G04 #@! TF.FileFunction,Copper,L2,Bot*
G04 #@! TF.FilePolarity,Positive*
%FSLAX46Y46*%
G04 Gerber Fmt 4.6, Leading zero omitted, Abs format (unit mm)*
G04 Created by KiCad (PCBNEW (5.1.4)-1) date 2023-09-09 05:29:12*
%MOMM*%
%LPD*%
G04 APERTURE LIST*
%ADD10O,1.700000X1.700000*%
%ADD11R,1.700000X1.700000*%
%ADD12R,2.550000X2.500000*%
%ADD13R,2.000000X2.000000*%
%ADD14C,3.000000*%
%ADD15R,1.700000X2.500000*%
%ADD16C,1.700000*%
%ADD17C,1.700000*%
%ADD18C,0.100000*%
%ADD19C,0.800000*%
%ADD20C,0.200000*%
G04 APERTURE END LIST*
D10*
X-161966620Y-466097892D03*
X-161966620Y-463557892D03*
X-161966620Y-461017892D03*
D11*
X-161966620Y-458477892D03*
D12*
X-140230000Y-450660061D03*
D13*
X-125630000Y-452010061D03*
D14*
X-129130000Y-452010061D03*
X-136430000Y-450660061D03*
D12*
X-139672000Y-461490061D03*
X-126745000Y-458950061D03*
D15*
X-120630000Y-457380000D03*
D13*
X-106580000Y-458710000D03*
D14*
X-110080000Y-458710000D03*
X-117380000Y-457360000D03*
D12*
X-120622000Y-468190000D03*
X-107695000Y-465650000D03*
X-159293954Y-450660061D03*
D13*
X-144693954Y-452010061D03*
D14*
X-148193954Y-452010061D03*
X-155493954Y-450660061D03*
D12*
X-158735954Y-461490061D03*
X-145808954Y-458950061D03*
D10*
X-123248141Y-462598713D03*
X-123248141Y-460058713D03*
X-123248141Y-457518713D03*
D11*
X-123248141Y-454978713D03*
D10*
X-149139330Y-466194574D03*
X-151679330Y-466194574D03*
X-154219330Y-466194574D03*
D11*
X-156759330Y-466194574D03*
D16*
X-128482864Y-442538390D03*
D17*
X-128482864Y-442538390D02*
X-128482864Y-442538390D01*
D16*
X-130936316Y-443195790D03*
D17*
X-130936316Y-443195790D02*
X-130936316Y-443195790D01*
D16*
X-133389767Y-443853191D03*
D17*
X-133389767Y-443853191D02*
X-133389767Y-443853191D01*
D16*
X-135843219Y-444510591D03*
D18*
G36*
X-136884252Y-443909550D02*
G01*
X-135242178Y-443469558D01*
X-134802186Y-445111632D01*
X-136444260Y-445551624D01*
X-136884252Y-443909550D01*
X-136884252Y-443909550D01*
G37*
D19*
X-107490000Y-467880000D03*
X-144730000Y-456320000D03*
X-120510000Y-461160000D03*
X-139590000Y-463910000D03*
D20*
X-132994939Y-465200000D02*
X-126745000Y-458950061D01*
X-148144756Y-465200000D02*
X-132994939Y-465200000D01*
X-149139330Y-466194574D02*
X-148144756Y-465200000D01*
X-125630000Y-452010061D02*
X-125630000Y-457835061D01*
X-125630000Y-457835061D02*
X-126745000Y-458950061D01*
X-107490000Y-465855000D02*
X-107695000Y-465650000D01*
X-107490000Y-467880000D02*
X-107490000Y-465855000D01*
X-107695000Y-465650000D02*
X-107695000Y-459825000D01*
X-107695000Y-459825000D02*
X-106580000Y-458710000D01*
X-144730000Y-456320000D02*
X-144730000Y-452046107D01*
X-144730000Y-457871107D02*
X-145808954Y-458950061D01*
X-144730000Y-452046107D02*
X-144693954Y-452010061D01*
X-144730000Y-456320000D02*
X-144730000Y-457871107D01*
X-139672000Y-461490061D02*
X-139672000Y-463828000D01*
X-120647000Y-468190000D02*
X-120622000Y-468190000D01*
X-139672000Y-463828000D02*
X-139590000Y-463910000D01*
X-120510000Y-461160000D02*
X-121360000Y-462010000D01*
X-120510000Y-458030000D02*
X-121180000Y-457360000D01*
X-121360000Y-467477000D02*
X-120647000Y-468190000D01*
X-120510000Y-461160000D02*
X-120510000Y-458030000D01*
X-121360000Y-462010000D02*
X-121360000Y-467477000D01*
X-152054817Y-461490061D02*
X-139672000Y-461490061D01*
X-156759330Y-463441685D02*
X-158710954Y-461490061D01*
X-140630000Y-451020000D02*
X-140270061Y-450660061D01*
X-140270061Y-450660061D02*
X-140230000Y-450660061D01*
X-159293954Y-450783954D02*
X-159293954Y-450660061D01*
X-156759330Y-466194574D02*
X-156759330Y-463441685D01*
X-139672000Y-461490061D02*
X-140630000Y-461490061D01*
X-159530000Y-451020000D02*
X-159293954Y-450783954D01*
X-158735954Y-461490061D02*
X-159359939Y-461490061D01*
X-156759330Y-466194574D02*
X-152054817Y-461490061D01*
X-158710954Y-461490061D02*
X-158735954Y-461490061D01*
X-140630000Y-461490061D02*
X-140630000Y-451020000D01*
X-159359939Y-461490061D02*
X-159530000Y-461320000D01*
X-159530000Y-461320000D02*
X-159530000Y-451020000D01*
M02*
