M48
; DRILL file {KiCad (5.1.4)-1} date 9/9/2023 5:29:10 AM
; FORMAT={-:-/ absolute / metric / decimal}
; #@! TF.CreationDate,2023-09-09T05:29:10-04:00
; #@! TF.GenerationSoftware,Kicad,Pcbnew,(5.1.4)-1
; #@! TF.FileFunction,Plated,1,2,PTH
FMAT,2
METRIC
T1C0.400
T2C1.000
%
G90
G05
T1
X-144.73Y-456.32
X-139.59Y-463.91
X-120.51Y-461.16
X-107.49Y-467.88
T2
X-123.248Y-454.979
X-123.248Y-457.519
X-123.248Y-460.059
X-123.248Y-462.599
X-156.759Y-466.195
X-154.219Y-466.195
X-151.679Y-466.195
X-149.139Y-466.195
X-161.967Y-458.478
X-161.967Y-461.018
X-161.967Y-463.558
X-161.967Y-466.098
X-135.843Y-444.511
X-133.39Y-443.853
X-130.936Y-443.196
X-128.483Y-442.538
T0
M30
