M48
; DRILL file {KiCad (5.1.4)-1} date 9/9/2023 5:29:10 AM
; FORMAT={-:-/ absolute / metric / decimal}
; #@! TF.CreationDate,2023-09-09T05:29:10-04:00
; #@! TF.GenerationSoftware,Kicad,Pcbnew,(5.1.4)-1
; #@! TF.FileFunction,NonPlated,1,2,NPTH
FMAT,2
METRIC
T1C1.750
T2C2.950
T3C3.000
T4C5.050
%
G90
G05
T1
X-119.86Y-463.11
X-109.7Y-463.11
X-157.974Y-456.41
X-147.814Y-456.41
X-138.91Y-456.41
X-128.75Y-456.41
T2
X-155.494Y-450.66
X-148.194Y-452.01
X-136.43Y-450.66
X-129.13Y-452.01
X-117.38Y-457.36
X-110.08Y-458.71
T3
X-136.37Y-461.49
X-130.02Y-458.95
X-117.32Y-468.19
X-110.97Y-465.65
X-155.434Y-461.49
X-149.084Y-458.95
T4
X-114.78Y-463.11
X-152.894Y-456.41
X-133.83Y-456.41
T0
M30
