M48
; DRILL file {KiCad (5.1.4)-1} date 5/18/2023 5:29:44 PM
; FORMAT={-:-/ absolute / metric / decimal}
; #@! TF.CreationDate,2023-05-18T17:29:44-04:00
; #@! TF.GenerationSoftware,Kicad,Pcbnew,(5.1.4)-1
; #@! TF.FileFunction,NonPlated,1,2,NPTH
FMAT,2
METRIC
T1C1.750
T2C3.000
T3C3.988
%
G90
G05
T1
X37.883Y-528.843
X48.043Y-528.843
X75.983Y-537.893
X86.143Y-537.893
X56.933Y-523.843
X67.093Y-523.843
X18.833Y-562.943
X28.993Y-562.943
X37.883Y-566.943
X48.043Y-566.943
X37.883Y-547.893
X48.043Y-547.893
X75.983Y-499.78
X86.143Y-499.78
X56.933Y-504.78
X67.093Y-504.78
X75.983Y-518.843
X86.143Y-518.843
X56.933Y-561.943
X67.093Y-561.943
X18.833Y-524.843
X28.993Y-524.843
X75.983Y-556.943
X86.143Y-556.943
X37.883Y-509.78
X48.043Y-509.78
X56.933Y-542.893
X67.093Y-542.893
X18.833Y-543.893
X28.993Y-543.893
X18.833Y-505.78
X28.993Y-505.78
T2
X21.373Y-510.86
X27.723Y-508.32
X40.423Y-533.923
X46.773Y-531.383
X78.523Y-542.973
X84.873Y-540.433
X59.473Y-528.923
X65.823Y-526.383
X20.103Y-560.403
X26.453Y-557.863
X40.423Y-572.023
X46.773Y-569.483
X40.423Y-552.973
X46.773Y-550.433
X78.523Y-504.86
X84.873Y-502.32
X59.473Y-509.86
X65.823Y-507.32
X78.523Y-523.923
X84.873Y-521.383
X59.473Y-567.023
X65.823Y-564.483
X21.373Y-529.923
X27.723Y-527.383
X78.523Y-562.023
X84.873Y-559.483
X40.423Y-514.86
X46.773Y-512.32
X59.473Y-547.973
X65.823Y-545.433
X21.373Y-548.973
X27.723Y-546.433
T3
X81.063Y-556.943
X42.963Y-509.78
X62.013Y-542.893
X23.913Y-543.893
X23.913Y-505.78
X42.963Y-528.843
X81.063Y-537.893
X62.013Y-523.843
X23.913Y-562.943
X42.963Y-566.943
X42.963Y-547.893
X81.063Y-499.78
X62.013Y-504.78
X81.063Y-518.843
X62.013Y-561.943
X23.913Y-524.843
T0
M30
