%FSLAX45Y45*%
G04 Gerber Fmt 4.5, Leading zero omitted, Abs format (unit mm)*
G04 Created by KiCad (PCBNEW (5.1.4)-1) date 2023-09-09 05:25:21*
%MOMM*%
%LPD*%
G04 APERTURE LIST*
%ADD10C,0.050000*%
%ADD11C,0.200000*%
%ADD12C,0.300000*%
G04 APERTURE END LIST*
D10*
X3288000Y-50323000D02*
G75*
G02X3388000Y-50323000I50000J0D01*
G01*
X3388000Y-54152000D02*
X3388000Y-55454000D01*
X3288000Y-54152000D02*
G75*
G02X3388000Y-54152000I50000J0D01*
G01*
X3288000Y-54152000D02*
X3288000Y-55454000D01*
X3388000Y-51624000D02*
G75*
G02X3288000Y-51624000I-50000J0D01*
G01*
X3288000Y-50323000D02*
X3288000Y-51624000D01*
X3288000Y-52242000D02*
X3288000Y-53544000D01*
X3388000Y-52242000D02*
X3388000Y-53544000D01*
X3388000Y-53544000D02*
G75*
G02X3288000Y-53544000I-50000J0D01*
G01*
X3288000Y-52242000D02*
G75*
G02X3388000Y-52242000I50000J0D01*
G01*
X3388000Y-55454000D02*
G75*
G02X3288000Y-55454000I-50000J0D01*
G01*
X3388000Y-50323000D02*
X3388000Y-51624000D01*
X3413000Y-57018000D02*
G75*
G02X3313000Y-57018000I-50000J0D01*
G01*
X3313000Y-56018000D02*
G75*
G02X3413000Y-56018000I50000J0D01*
G01*
X3413000Y-56018000D02*
X3413000Y-57018000D01*
X3313000Y-56018000D02*
X3313000Y-57018000D01*
X1426279Y-56939295D02*
X1426279Y-49964295D01*
X12784480Y-49929016D02*
X12786421Y-58621812D01*
X5216279Y-57929295D02*
X4816279Y-57654295D01*
X1916279Y-57239295D02*
X1736279Y-57239295D01*
X1736279Y-49624295D02*
X1916279Y-49624295D01*
X10018000Y-54698000D02*
G75*
G03X10018000Y-54698000I-480000J0D01*
G01*
X9908000Y-52883000D02*
G75*
G03X9908000Y-52883000I-325000J0D01*
G01*
X5216279Y-57929295D02*
X5216279Y-58639295D01*
X6276279Y-58759295D02*
X6296279Y-58759295D01*
X12678419Y-60143040D02*
X11756279Y-60229295D01*
X12678419Y-60143040D02*
X12966232Y-59066860D01*
X3621279Y-57654295D02*
X3226279Y-57239295D01*
X12786421Y-58621812D02*
X12966232Y-59066860D01*
X6696279Y-49539295D02*
X7191279Y-49064295D01*
X5341279Y-49539295D02*
X5256279Y-49624295D01*
X12784480Y-49929016D02*
X12566279Y-49714295D01*
X8846279Y-49064295D02*
X7191279Y-49064295D01*
X3206279Y-57239295D02*
X3226279Y-57239295D01*
X9516279Y-49714295D02*
X12566279Y-49714295D01*
X1426279Y-56939295D02*
X1736279Y-57239295D01*
X8846279Y-49064295D02*
X9516279Y-49714295D01*
X6696279Y-49539295D02*
X5341279Y-49539295D01*
X3206279Y-57239295D02*
X1916279Y-57239295D01*
X3621279Y-57654295D02*
X4816279Y-57654295D01*
X5216279Y-58639295D02*
X5356279Y-58759295D01*
X6276279Y-58759295D02*
X5356279Y-58759295D01*
X1736279Y-49624295D02*
X1426279Y-49964295D01*
X11756279Y-60229295D02*
X6296279Y-58759295D01*
X1916279Y-49624295D02*
X5256279Y-49624295D01*
D11*
X3100000Y-52380000D02*
X3140000Y-52420000D01*
X3140000Y-52380000D02*
X3100000Y-52420000D01*
X3110000Y-56190000D02*
X3150000Y-56230000D01*
X3150000Y-56190000D02*
X3110000Y-56230000D01*
X3123000Y-54228000D02*
X3163000Y-54268000D01*
X3163000Y-54228000D02*
X3123000Y-54268000D01*
X3140001Y-50520000D02*
X3180001Y-50560000D01*
X3180001Y-50520000D02*
X3140001Y-50560000D01*
X5010000Y-56660000D02*
X5050000Y-56700000D01*
X5050000Y-56660000D02*
X5010000Y-56700000D01*
X5020000Y-54670000D02*
X5060000Y-54710000D01*
X5060000Y-54670000D02*
X5020000Y-54710000D01*
X5080000Y-50840000D02*
X5120000Y-50880000D01*
X5120000Y-50840000D02*
X5080000Y-50880000D01*
X5100000Y-52750000D02*
X5140000Y-52790000D01*
X5140000Y-52750000D02*
X5100000Y-52790000D01*
X6970000Y-50320000D02*
X7010000Y-50360000D01*
X7010000Y-50320000D02*
X6970000Y-50360000D01*
X6980000Y-56060000D02*
X7020000Y-56100000D01*
X7020000Y-56060000D02*
X6980000Y-56100000D01*
X7000000Y-52250000D02*
X7040000Y-52290000D01*
X7040000Y-52250000D02*
X7000000Y-52290000D01*
X7000000Y-54180000D02*
X7040000Y-54220000D01*
X7040000Y-54180000D02*
X7000000Y-54220000D01*
X8870000Y-55490000D02*
X8910000Y-55530000D01*
X8910000Y-55490000D02*
X8870000Y-55530000D01*
X8900000Y-53640000D02*
X8940000Y-53680000D01*
X8940000Y-53640000D02*
X8900000Y-53680000D01*
X8910000Y-49880000D02*
X8950000Y-49920000D01*
X8950000Y-49880000D02*
X8910000Y-49920000D01*
X8910000Y-51750000D02*
X8950000Y-51790000D01*
X8950000Y-51750000D02*
X8910000Y-51790000D01*
X12690609Y-49947830D02*
G75*
G03X12690609Y-49947830I-50000J0D01*
G01*
X12690609Y-50201830D02*
G75*
G03X12690609Y-50201830I-50000J0D01*
G01*
X12690609Y-50455830D02*
G75*
G03X12690609Y-50455830I-50000J0D01*
G01*
X12690609Y-50709830D02*
G75*
G03X12690609Y-50709830I-50000J0D01*
G01*
X9654629Y-51819554D02*
G75*
G03X9654629Y-51819554I-50000J0D01*
G01*
X9908629Y-51819554D02*
G75*
G03X9908629Y-51819554I-50000J0D01*
G01*
X10162629Y-51819554D02*
G75*
G03X10162629Y-51819554I-50000J0D01*
G01*
X10416629Y-51819554D02*
G75*
G03X10416629Y-51819554I-50000J0D01*
G01*
X9554629Y-49819554D02*
G75*
G03X9554629Y-49819554I-50000J0D01*
G01*
X9808629Y-49819554D02*
G75*
G03X9808629Y-49819554I-50000J0D01*
G01*
X10062629Y-49819554D02*
G75*
G03X10062629Y-49819554I-50000J0D01*
G01*
X10316629Y-49819554D02*
G75*
G03X10316629Y-49819554I-50000J0D01*
G01*
X10936279Y-59849295D02*
G75*
G03X10936279Y-59849295I-50000J0D01*
G01*
X11181624Y-59915035D02*
G75*
G03X11181624Y-59915035I-50000J0D01*
G01*
X11426969Y-59980775D02*
G75*
G03X11426969Y-59980775I-50000J0D01*
G01*
X11672314Y-60046515D02*
G75*
G03X11672314Y-60046515I-50000J0D01*
G01*
X9640697Y-55640097D02*
G75*
G03X9640697Y-55640097I-50000J0D01*
G01*
X9894697Y-55640097D02*
G75*
G03X9894697Y-55640097I-50000J0D01*
G01*
X10148697Y-55640097D02*
G75*
G03X10148697Y-55640097I-50000J0D01*
G01*
X10402697Y-55640097D02*
G75*
G03X10402697Y-55640097I-50000J0D01*
G01*
X5456279Y-57857295D02*
G75*
G03X5456279Y-57857295I-50000J0D01*
G01*
X5456279Y-58111295D02*
G75*
G03X5456279Y-58111295I-50000J0D01*
G01*
X5456279Y-58365295D02*
G75*
G03X5456279Y-58365295I-50000J0D01*
G01*
X5456279Y-58619295D02*
G75*
G03X5456279Y-58619295I-50000J0D01*
G01*
X9656416Y-53731520D02*
G75*
G03X9656416Y-53731520I-50000J0D01*
G01*
X9910416Y-53731520D02*
G75*
G03X9910416Y-53731520I-50000J0D01*
G01*
X10164416Y-53731520D02*
G75*
G03X10164416Y-53731520I-50000J0D01*
G01*
X10418416Y-53731520D02*
G75*
G03X10418416Y-53731520I-50000J0D01*
G01*
X12697060Y-54960489D02*
G75*
G03X12697060Y-54960489I-50000J0D01*
G01*
X12697060Y-55214489D02*
G75*
G03X12697060Y-55214489I-50000J0D01*
G01*
X12697060Y-55468489D02*
G75*
G03X12697060Y-55468489I-50000J0D01*
G01*
X12697060Y-55722489D02*
G75*
G03X12697060Y-55722489I-50000J0D01*
G01*
D12*
X1710207Y-60697509D02*
X1710207Y-60397509D01*
X1781636Y-60397509D01*
X1824493Y-60411795D01*
X1853064Y-60440367D01*
X1867350Y-60468938D01*
X1881636Y-60526081D01*
X1881636Y-60568938D01*
X1867350Y-60626081D01*
X1853064Y-60654652D01*
X1824493Y-60683224D01*
X1781636Y-60697509D01*
X1710207Y-60697509D01*
X2010207Y-60697509D02*
X2010207Y-60497509D01*
X2010207Y-60554652D02*
X2024493Y-60526081D01*
X2038779Y-60511795D01*
X2067350Y-60497509D01*
X2095922Y-60497509D01*
X2195922Y-60697509D02*
X2195922Y-60497509D01*
X2195922Y-60397509D02*
X2181636Y-60411795D01*
X2195922Y-60426081D01*
X2210207Y-60411795D01*
X2195922Y-60397509D01*
X2195922Y-60426081D01*
X2381636Y-60697509D02*
X2353065Y-60683224D01*
X2338779Y-60654652D01*
X2338779Y-60397509D01*
X2538779Y-60697509D02*
X2510207Y-60683224D01*
X2495922Y-60654652D01*
X2495922Y-60397509D01*
X2881636Y-60697509D02*
X2881636Y-60397509D01*
X2981636Y-60611795D01*
X3081636Y-60397509D01*
X3081636Y-60697509D01*
X3353064Y-60697509D02*
X3353064Y-60540367D01*
X3338779Y-60511795D01*
X3310207Y-60497509D01*
X3253064Y-60497509D01*
X3224493Y-60511795D01*
X3353064Y-60683224D02*
X3324493Y-60697509D01*
X3253064Y-60697509D01*
X3224493Y-60683224D01*
X3210207Y-60654652D01*
X3210207Y-60626081D01*
X3224493Y-60597509D01*
X3253064Y-60583224D01*
X3324493Y-60583224D01*
X3353064Y-60568938D01*
X3495922Y-60497509D02*
X3495922Y-60797509D01*
X3495922Y-60511795D02*
X3524493Y-60497509D01*
X3581636Y-60497509D01*
X3610207Y-60511795D01*
X3624493Y-60526081D01*
X3638779Y-60554652D01*
X3638779Y-60640367D01*
X3624493Y-60668938D01*
X3610207Y-60683224D01*
X3581636Y-60697509D01*
X3524493Y-60697509D01*
X3495922Y-60683224D01*
X3767350Y-60668938D02*
X3781636Y-60683224D01*
X3767350Y-60697509D01*
X3753064Y-60683224D01*
X3767350Y-60668938D01*
X3767350Y-60697509D01*
X3767350Y-60511795D02*
X3781636Y-60526081D01*
X3767350Y-60540367D01*
X3753064Y-60526081D01*
X3767350Y-60511795D01*
X3767350Y-60540367D01*
X1383779Y-61171795D02*
X1423779Y-61211795D01*
X1423779Y-61171795D02*
X1383779Y-61211795D01*
X1767350Y-61027509D02*
X1795922Y-61027509D01*
X1824493Y-61041795D01*
X1838779Y-61056081D01*
X1853064Y-61084652D01*
X1867350Y-61141795D01*
X1867350Y-61213224D01*
X1853064Y-61270367D01*
X1838779Y-61298938D01*
X1824493Y-61313224D01*
X1795922Y-61327509D01*
X1767350Y-61327509D01*
X1738779Y-61313224D01*
X1724493Y-61298938D01*
X1710207Y-61270367D01*
X1695922Y-61213224D01*
X1695922Y-61141795D01*
X1710207Y-61084652D01*
X1724493Y-61056081D01*
X1738779Y-61041795D01*
X1767350Y-61027509D01*
X1995922Y-61298938D02*
X2010207Y-61313224D01*
X1995922Y-61327509D01*
X1981636Y-61313224D01*
X1995922Y-61298938D01*
X1995922Y-61327509D01*
X2267350Y-61127509D02*
X2267350Y-61327509D01*
X2195922Y-61013224D02*
X2124493Y-61227509D01*
X2310207Y-61227509D01*
X2481636Y-61027509D02*
X2510207Y-61027509D01*
X2538779Y-61041795D01*
X2553065Y-61056081D01*
X2567350Y-61084652D01*
X2581636Y-61141795D01*
X2581636Y-61213224D01*
X2567350Y-61270367D01*
X2553065Y-61298938D01*
X2538779Y-61313224D01*
X2510207Y-61327509D01*
X2481636Y-61327509D01*
X2453065Y-61313224D01*
X2438779Y-61298938D01*
X2424493Y-61270367D01*
X2410207Y-61213224D01*
X2410207Y-61141795D01*
X2424493Y-61084652D01*
X2438779Y-61056081D01*
X2453065Y-61041795D01*
X2481636Y-61027509D01*
X2710207Y-61327509D02*
X2710207Y-61127509D01*
X2710207Y-61156081D02*
X2724493Y-61141795D01*
X2753065Y-61127509D01*
X2795922Y-61127509D01*
X2824493Y-61141795D01*
X2838779Y-61170367D01*
X2838779Y-61327509D01*
X2838779Y-61170367D02*
X2853064Y-61141795D01*
X2881636Y-61127509D01*
X2924493Y-61127509D01*
X2953064Y-61141795D01*
X2967350Y-61170367D01*
X2967350Y-61327509D01*
X3110207Y-61327509D02*
X3110207Y-61127509D01*
X3110207Y-61156081D02*
X3124493Y-61141795D01*
X3153064Y-61127509D01*
X3195922Y-61127509D01*
X3224493Y-61141795D01*
X3238779Y-61170367D01*
X3238779Y-61327509D01*
X3238779Y-61170367D02*
X3253064Y-61141795D01*
X3281636Y-61127509D01*
X3324493Y-61127509D01*
X3353064Y-61141795D01*
X3367350Y-61170367D01*
X3367350Y-61327509D01*
X3953064Y-61013224D02*
X3695922Y-61398938D01*
X4338779Y-61027509D02*
X4367350Y-61027509D01*
X4395922Y-61041795D01*
X4410207Y-61056081D01*
X4424493Y-61084652D01*
X4438779Y-61141795D01*
X4438779Y-61213224D01*
X4424493Y-61270367D01*
X4410207Y-61298938D01*
X4395922Y-61313224D01*
X4367350Y-61327509D01*
X4338779Y-61327509D01*
X4310207Y-61313224D01*
X4295922Y-61298938D01*
X4281636Y-61270367D01*
X4267350Y-61213224D01*
X4267350Y-61141795D01*
X4281636Y-61084652D01*
X4295922Y-61056081D01*
X4310207Y-61041795D01*
X4338779Y-61027509D01*
X4567350Y-61298938D02*
X4581636Y-61313224D01*
X4567350Y-61327509D01*
X4553065Y-61313224D01*
X4567350Y-61298938D01*
X4567350Y-61327509D01*
X4767350Y-61027509D02*
X4795922Y-61027509D01*
X4824493Y-61041795D01*
X4838779Y-61056081D01*
X4853065Y-61084652D01*
X4867350Y-61141795D01*
X4867350Y-61213224D01*
X4853065Y-61270367D01*
X4838779Y-61298938D01*
X4824493Y-61313224D01*
X4795922Y-61327509D01*
X4767350Y-61327509D01*
X4738779Y-61313224D01*
X4724493Y-61298938D01*
X4710207Y-61270367D01*
X4695922Y-61213224D01*
X4695922Y-61141795D01*
X4710207Y-61084652D01*
X4724493Y-61056081D01*
X4738779Y-61041795D01*
X4767350Y-61027509D01*
X5153065Y-61327509D02*
X4981636Y-61327509D01*
X5067350Y-61327509D02*
X5067350Y-61027509D01*
X5038779Y-61070367D01*
X5010207Y-61098938D01*
X4981636Y-61113224D01*
X5410207Y-61027509D02*
X5353065Y-61027509D01*
X5324493Y-61041795D01*
X5310207Y-61056081D01*
X5281636Y-61098938D01*
X5267350Y-61156081D01*
X5267350Y-61270367D01*
X5281636Y-61298938D01*
X5295922Y-61313224D01*
X5324493Y-61327509D01*
X5381636Y-61327509D01*
X5410207Y-61313224D01*
X5424493Y-61298938D01*
X5438779Y-61270367D01*
X5438779Y-61198938D01*
X5424493Y-61170367D01*
X5410207Y-61156081D01*
X5381636Y-61141795D01*
X5324493Y-61141795D01*
X5295922Y-61156081D01*
X5281636Y-61170367D01*
X5267350Y-61198938D01*
X5553065Y-61027509D02*
X5553065Y-61084652D01*
X5667350Y-61027509D02*
X5667350Y-61084652D01*
X6110207Y-61441795D02*
X6095922Y-61427509D01*
X6067350Y-61384652D01*
X6053064Y-61356081D01*
X6038779Y-61313224D01*
X6024493Y-61241795D01*
X6024493Y-61184652D01*
X6038779Y-61113224D01*
X6053064Y-61070367D01*
X6067350Y-61041795D01*
X6095922Y-60998938D01*
X6110207Y-60984652D01*
X6381636Y-61327509D02*
X6210207Y-61327509D01*
X6295922Y-61327509D02*
X6295922Y-61027509D01*
X6267350Y-61070367D01*
X6238779Y-61098938D01*
X6210207Y-61113224D01*
X6638779Y-61027509D02*
X6581636Y-61027509D01*
X6553064Y-61041795D01*
X6538779Y-61056081D01*
X6510207Y-61098938D01*
X6495922Y-61156081D01*
X6495922Y-61270367D01*
X6510207Y-61298938D01*
X6524493Y-61313224D01*
X6553064Y-61327509D01*
X6610207Y-61327509D01*
X6638779Y-61313224D01*
X6653064Y-61298938D01*
X6667350Y-61270367D01*
X6667350Y-61198938D01*
X6653064Y-61170367D01*
X6638779Y-61156081D01*
X6610207Y-61141795D01*
X6553064Y-61141795D01*
X6524493Y-61156081D01*
X6510207Y-61170367D01*
X6495922Y-61198938D01*
X7024493Y-61327509D02*
X7024493Y-61027509D01*
X7153064Y-61327509D02*
X7153064Y-61170367D01*
X7138779Y-61141795D01*
X7110207Y-61127509D01*
X7067350Y-61127509D01*
X7038779Y-61141795D01*
X7024493Y-61156081D01*
X7338779Y-61327509D02*
X7310207Y-61313224D01*
X7295922Y-61298938D01*
X7281636Y-61270367D01*
X7281636Y-61184652D01*
X7295922Y-61156081D01*
X7310207Y-61141795D01*
X7338779Y-61127509D01*
X7381636Y-61127509D01*
X7410207Y-61141795D01*
X7424493Y-61156081D01*
X7438779Y-61184652D01*
X7438779Y-61270367D01*
X7424493Y-61298938D01*
X7410207Y-61313224D01*
X7381636Y-61327509D01*
X7338779Y-61327509D01*
X7610207Y-61327509D02*
X7581636Y-61313224D01*
X7567350Y-61284652D01*
X7567350Y-61027509D01*
X7838779Y-61313224D02*
X7810207Y-61327509D01*
X7753064Y-61327509D01*
X7724493Y-61313224D01*
X7710207Y-61284652D01*
X7710207Y-61170367D01*
X7724493Y-61141795D01*
X7753064Y-61127509D01*
X7810207Y-61127509D01*
X7838779Y-61141795D01*
X7853064Y-61170367D01*
X7853064Y-61198938D01*
X7710207Y-61227509D01*
X7967350Y-61313224D02*
X7995922Y-61327509D01*
X8053064Y-61327509D01*
X8081636Y-61313224D01*
X8095922Y-61284652D01*
X8095922Y-61270367D01*
X8081636Y-61241795D01*
X8053064Y-61227509D01*
X8010207Y-61227509D01*
X7981636Y-61213224D01*
X7967350Y-61184652D01*
X7967350Y-61170367D01*
X7981636Y-61141795D01*
X8010207Y-61127509D01*
X8053064Y-61127509D01*
X8081636Y-61141795D01*
X8195922Y-61441795D02*
X8210207Y-61427509D01*
X8238779Y-61384652D01*
X8253064Y-61356081D01*
X8267350Y-61313224D01*
X8281636Y-61241795D01*
X8281636Y-61184652D01*
X8267350Y-61113224D01*
X8253064Y-61070367D01*
X8238779Y-61041795D01*
X8210207Y-60998938D01*
X8195922Y-60984652D01*
X1423779Y-61587795D02*
G75*
G03X1423779Y-61587795I-50000J0D01*
G01*
X1867350Y-61723509D02*
X1695922Y-61723509D01*
X1781636Y-61723509D02*
X1781636Y-61423509D01*
X1753064Y-61466367D01*
X1724493Y-61494938D01*
X1695922Y-61509224D01*
X1995922Y-61694938D02*
X2010207Y-61709224D01*
X1995922Y-61723509D01*
X1981636Y-61709224D01*
X1995922Y-61694938D01*
X1995922Y-61723509D01*
X2195922Y-61423509D02*
X2224493Y-61423509D01*
X2253065Y-61437795D01*
X2267350Y-61452081D01*
X2281636Y-61480652D01*
X2295922Y-61537795D01*
X2295922Y-61609224D01*
X2281636Y-61666367D01*
X2267350Y-61694938D01*
X2253065Y-61709224D01*
X2224493Y-61723509D01*
X2195922Y-61723509D01*
X2167350Y-61709224D01*
X2153065Y-61694938D01*
X2138779Y-61666367D01*
X2124493Y-61609224D01*
X2124493Y-61537795D01*
X2138779Y-61480652D01*
X2153065Y-61452081D01*
X2167350Y-61437795D01*
X2195922Y-61423509D01*
X2481636Y-61423509D02*
X2510207Y-61423509D01*
X2538779Y-61437795D01*
X2553065Y-61452081D01*
X2567350Y-61480652D01*
X2581636Y-61537795D01*
X2581636Y-61609224D01*
X2567350Y-61666367D01*
X2553065Y-61694938D01*
X2538779Y-61709224D01*
X2510207Y-61723509D01*
X2481636Y-61723509D01*
X2453065Y-61709224D01*
X2438779Y-61694938D01*
X2424493Y-61666367D01*
X2410207Y-61609224D01*
X2410207Y-61537795D01*
X2424493Y-61480652D01*
X2438779Y-61452081D01*
X2453065Y-61437795D01*
X2481636Y-61423509D01*
X2710207Y-61723509D02*
X2710207Y-61523509D01*
X2710207Y-61552081D02*
X2724493Y-61537795D01*
X2753065Y-61523509D01*
X2795922Y-61523509D01*
X2824493Y-61537795D01*
X2838779Y-61566367D01*
X2838779Y-61723509D01*
X2838779Y-61566367D02*
X2853064Y-61537795D01*
X2881636Y-61523509D01*
X2924493Y-61523509D01*
X2953064Y-61537795D01*
X2967350Y-61566367D01*
X2967350Y-61723509D01*
X3110207Y-61723509D02*
X3110207Y-61523509D01*
X3110207Y-61552081D02*
X3124493Y-61537795D01*
X3153064Y-61523509D01*
X3195922Y-61523509D01*
X3224493Y-61537795D01*
X3238779Y-61566367D01*
X3238779Y-61723509D01*
X3238779Y-61566367D02*
X3253064Y-61537795D01*
X3281636Y-61523509D01*
X3324493Y-61523509D01*
X3353064Y-61537795D01*
X3367350Y-61566367D01*
X3367350Y-61723509D01*
X3953064Y-61409224D02*
X3695922Y-61794938D01*
X4338779Y-61423509D02*
X4367350Y-61423509D01*
X4395922Y-61437795D01*
X4410207Y-61452081D01*
X4424493Y-61480652D01*
X4438779Y-61537795D01*
X4438779Y-61609224D01*
X4424493Y-61666367D01*
X4410207Y-61694938D01*
X4395922Y-61709224D01*
X4367350Y-61723509D01*
X4338779Y-61723509D01*
X4310207Y-61709224D01*
X4295922Y-61694938D01*
X4281636Y-61666367D01*
X4267350Y-61609224D01*
X4267350Y-61537795D01*
X4281636Y-61480652D01*
X4295922Y-61452081D01*
X4310207Y-61437795D01*
X4338779Y-61423509D01*
X4567350Y-61694938D02*
X4581636Y-61709224D01*
X4567350Y-61723509D01*
X4553065Y-61709224D01*
X4567350Y-61694938D01*
X4567350Y-61723509D01*
X4767350Y-61423509D02*
X4795922Y-61423509D01*
X4824493Y-61437795D01*
X4838779Y-61452081D01*
X4853065Y-61480652D01*
X4867350Y-61537795D01*
X4867350Y-61609224D01*
X4853065Y-61666367D01*
X4838779Y-61694938D01*
X4824493Y-61709224D01*
X4795922Y-61723509D01*
X4767350Y-61723509D01*
X4738779Y-61709224D01*
X4724493Y-61694938D01*
X4710207Y-61666367D01*
X4695922Y-61609224D01*
X4695922Y-61537795D01*
X4710207Y-61480652D01*
X4724493Y-61452081D01*
X4738779Y-61437795D01*
X4767350Y-61423509D01*
X4967350Y-61423509D02*
X5153065Y-61423509D01*
X5053065Y-61537795D01*
X5095922Y-61537795D01*
X5124493Y-61552081D01*
X5138779Y-61566367D01*
X5153065Y-61594938D01*
X5153065Y-61666367D01*
X5138779Y-61694938D01*
X5124493Y-61709224D01*
X5095922Y-61723509D01*
X5010207Y-61723509D01*
X4981636Y-61709224D01*
X4967350Y-61694938D01*
X5295922Y-61723509D02*
X5353065Y-61723509D01*
X5381636Y-61709224D01*
X5395922Y-61694938D01*
X5424493Y-61652081D01*
X5438779Y-61594938D01*
X5438779Y-61480652D01*
X5424493Y-61452081D01*
X5410207Y-61437795D01*
X5381636Y-61423509D01*
X5324493Y-61423509D01*
X5295922Y-61437795D01*
X5281636Y-61452081D01*
X5267350Y-61480652D01*
X5267350Y-61552081D01*
X5281636Y-61580652D01*
X5295922Y-61594938D01*
X5324493Y-61609224D01*
X5381636Y-61609224D01*
X5410207Y-61594938D01*
X5424493Y-61580652D01*
X5438779Y-61552081D01*
X5553065Y-61423509D02*
X5553065Y-61480652D01*
X5667350Y-61423509D02*
X5667350Y-61480652D01*
X6110207Y-61837795D02*
X6095922Y-61823509D01*
X6067350Y-61780652D01*
X6053064Y-61752081D01*
X6038779Y-61709224D01*
X6024493Y-61637795D01*
X6024493Y-61580652D01*
X6038779Y-61509224D01*
X6053064Y-61466367D01*
X6067350Y-61437795D01*
X6095922Y-61394938D01*
X6110207Y-61380652D01*
X6195922Y-61423509D02*
X6381636Y-61423509D01*
X6281636Y-61537795D01*
X6324493Y-61537795D01*
X6353064Y-61552081D01*
X6367350Y-61566367D01*
X6381636Y-61594938D01*
X6381636Y-61666367D01*
X6367350Y-61694938D01*
X6353064Y-61709224D01*
X6324493Y-61723509D01*
X6238779Y-61723509D01*
X6210207Y-61709224D01*
X6195922Y-61694938D01*
X6495922Y-61452081D02*
X6510207Y-61437795D01*
X6538779Y-61423509D01*
X6610207Y-61423509D01*
X6638779Y-61437795D01*
X6653064Y-61452081D01*
X6667350Y-61480652D01*
X6667350Y-61509224D01*
X6653064Y-61552081D01*
X6481636Y-61723509D01*
X6667350Y-61723509D01*
X7024493Y-61723509D02*
X7024493Y-61423509D01*
X7153064Y-61723509D02*
X7153064Y-61566367D01*
X7138779Y-61537795D01*
X7110207Y-61523509D01*
X7067350Y-61523509D01*
X7038779Y-61537795D01*
X7024493Y-61552081D01*
X7338779Y-61723509D02*
X7310207Y-61709224D01*
X7295922Y-61694938D01*
X7281636Y-61666367D01*
X7281636Y-61580652D01*
X7295922Y-61552081D01*
X7310207Y-61537795D01*
X7338779Y-61523509D01*
X7381636Y-61523509D01*
X7410207Y-61537795D01*
X7424493Y-61552081D01*
X7438779Y-61580652D01*
X7438779Y-61666367D01*
X7424493Y-61694938D01*
X7410207Y-61709224D01*
X7381636Y-61723509D01*
X7338779Y-61723509D01*
X7610207Y-61723509D02*
X7581636Y-61709224D01*
X7567350Y-61680652D01*
X7567350Y-61423509D01*
X7838779Y-61709224D02*
X7810207Y-61723509D01*
X7753064Y-61723509D01*
X7724493Y-61709224D01*
X7710207Y-61680652D01*
X7710207Y-61566367D01*
X7724493Y-61537795D01*
X7753064Y-61523509D01*
X7810207Y-61523509D01*
X7838779Y-61537795D01*
X7853064Y-61566367D01*
X7853064Y-61594938D01*
X7710207Y-61623509D01*
X7967350Y-61709224D02*
X7995922Y-61723509D01*
X8053064Y-61723509D01*
X8081636Y-61709224D01*
X8095922Y-61680652D01*
X8095922Y-61666367D01*
X8081636Y-61637795D01*
X8053064Y-61623509D01*
X8010207Y-61623509D01*
X7981636Y-61609224D01*
X7967350Y-61580652D01*
X7967350Y-61566367D01*
X7981636Y-61537795D01*
X8010207Y-61523509D01*
X8053064Y-61523509D01*
X8081636Y-61537795D01*
X8195922Y-61837795D02*
X8210207Y-61823509D01*
X8238779Y-61780652D01*
X8253064Y-61752081D01*
X8267350Y-61709224D01*
X8281636Y-61637795D01*
X8281636Y-61580652D01*
X8267350Y-61509224D01*
X8253064Y-61466367D01*
X8238779Y-61437795D01*
X8210207Y-61394938D01*
X8195922Y-61380652D01*
M02*
