M48
; DRILL file {KiCad (5.1.4)-1} date 9/9/2023 5:25:20 AM
; FORMAT={-:-/ absolute / metric / decimal}
; #@! TF.CreationDate,2023-09-09T05:25:20-04:00
; #@! TF.GenerationSoftware,Kicad,Pcbnew,(5.1.4)-1
; #@! TF.FileFunction,Plated,1,2,PTH
FMAT,2
METRIC
T1C0.400
T2C1.000
%
G90
G05
T1
X31.2Y-524.0
X31.3Y-562.1
X31.43Y-542.48
X31.6Y-505.4
X50.3Y-566.8
X50.4Y-546.9
X51.0Y-508.6
X51.2Y-527.7
X69.9Y-503.4
X70.0Y-560.8
X70.2Y-522.7
X70.2Y-542.0
X88.9Y-555.1
X89.2Y-536.6
X89.3Y-499.0
X89.3Y-517.7
T2
X126.406Y-499.478
X126.406Y-502.018
X126.406Y-504.558
X126.406Y-507.098
X96.046Y-518.196
X98.586Y-518.196
X101.126Y-518.196
X103.666Y-518.196
X95.046Y-498.196
X97.586Y-498.196
X100.126Y-498.196
X102.666Y-498.196
X108.863Y-598.493
X111.316Y-599.15
X113.77Y-599.808
X116.223Y-600.465
X95.907Y-556.401
X98.447Y-556.401
X100.987Y-556.401
X103.527Y-556.401
X54.063Y-578.573
X54.063Y-581.113
X54.063Y-583.653
X54.063Y-586.193
X96.064Y-537.315
X98.604Y-537.315
X101.144Y-537.315
X103.684Y-537.315
X126.471Y-549.605
X126.471Y-552.145
X126.471Y-554.685
X126.471Y-557.225
T0
M30
