G04 #@! TF.GenerationSoftware,KiCad,Pcbnew,(5.1.4)-1*
G04 #@! TF.CreationDate,2023-05-18T17:00:27-04:00*
G04 #@! TF.ProjectId,ThumbsUp,5468756d-6273-4557-902e-6b696361645f,rev?*
G04 #@! TF.SameCoordinates,Original*
G04 #@! TF.FileFunction,Copper,L1,Top*
G04 #@! TF.FilePolarity,Positive*
%FSLAX46Y46*%
G04 Gerber Fmt 4.6, Leading zero omitted, Abs format (unit mm)*
G04 Created by KiCad (PCBNEW (5.1.4)-1) date 2023-05-18 17:00:27*
%MOMM*%
%LPD*%
G04 APERTURE LIST*
%ADD10O,1.700000X1.700000*%
%ADD11R,1.700000X1.700000*%
%ADD12C,2.250000*%
%ADD13C,2.250000*%
%ADD14C,1.700000*%
%ADD15C,1.700000*%
%ADD16C,0.100000*%
%ADD17C,0.200000*%
G04 APERTURE END LIST*
D10*
X95046291Y-498195542D03*
X97586291Y-498195542D03*
X100126291Y-498195542D03*
D11*
X102666291Y-498195542D03*
D12*
X40462789Y-524842952D03*
X39807790Y-525572952D03*
D13*
X39152789Y-526302952D02*
X40462791Y-524842952D01*
D12*
X45502789Y-523762952D03*
X45482789Y-524052952D03*
D13*
X45462789Y-524342952D02*
X45502789Y-523762952D01*
D12*
X40462790Y-543892952D03*
X39807791Y-544622952D03*
D13*
X39152790Y-545352952D02*
X40462792Y-543892952D01*
D12*
X45502790Y-542812952D03*
X45482790Y-543102952D03*
D13*
X45462790Y-543392952D02*
X45502790Y-542812952D01*
D12*
X78562790Y-495780000D03*
X77907791Y-496510000D03*
D13*
X77252790Y-497240000D02*
X78562792Y-495780000D01*
D12*
X83602790Y-494700000D03*
X83582790Y-494990000D03*
D13*
X83562790Y-495280000D02*
X83602790Y-494700000D01*
D12*
X59512789Y-500780000D03*
X58857790Y-501510000D03*
D13*
X58202789Y-502240000D02*
X59512791Y-500780000D01*
D12*
X64552789Y-499700000D03*
X64532789Y-499990000D03*
D13*
X64512789Y-500280000D02*
X64552789Y-499700000D01*
D12*
X40462789Y-505780000D03*
X39807790Y-506510000D03*
D13*
X39152789Y-507240000D02*
X40462791Y-505780000D01*
D12*
X45502789Y-504700000D03*
X45482789Y-504990000D03*
D13*
X45462789Y-505280000D02*
X45502789Y-504700000D01*
D12*
X21412789Y-501780000D03*
X20757790Y-502510000D03*
D13*
X20102789Y-503240000D02*
X21412791Y-501780000D01*
D12*
X26452789Y-500700000D03*
X26432789Y-500990000D03*
D13*
X26412789Y-501280000D02*
X26452789Y-500700000D01*
D12*
X78562789Y-552942952D03*
X77907790Y-553672952D03*
D13*
X77252789Y-554402952D02*
X78562791Y-552942952D01*
D12*
X83602789Y-551862952D03*
X83582789Y-552152952D03*
D13*
X83562789Y-552442952D02*
X83602789Y-551862952D01*
D12*
X78562789Y-533892952D03*
X77907790Y-534622952D03*
D13*
X77252789Y-535352952D02*
X78562791Y-533892952D01*
D12*
X83602789Y-532812952D03*
X83582789Y-533102952D03*
D13*
X83562789Y-533392952D02*
X83602789Y-532812952D01*
D12*
X78562790Y-514842952D03*
X77907791Y-515572952D03*
D13*
X77252790Y-516302952D02*
X78562792Y-514842952D01*
D12*
X83602790Y-513762952D03*
X83582790Y-514052952D03*
D13*
X83562790Y-514342952D02*
X83602790Y-513762952D01*
D12*
X59512790Y-557942952D03*
X58857791Y-558672952D03*
D13*
X58202790Y-559402952D02*
X59512792Y-557942952D01*
D12*
X64552790Y-556862952D03*
X64532790Y-557152952D03*
D13*
X64512790Y-557442952D02*
X64552790Y-556862952D01*
D12*
X59512789Y-538892952D03*
X58857790Y-539622952D03*
D13*
X58202789Y-540352952D02*
X59512791Y-538892952D01*
D12*
X64552789Y-537812952D03*
X64532789Y-538102952D03*
D13*
X64512789Y-538392952D02*
X64552789Y-537812952D01*
D12*
X59512789Y-519842953D03*
X58857790Y-520572953D03*
D13*
X58202789Y-521302953D02*
X59512791Y-519842953D01*
D12*
X64552789Y-518762953D03*
X64532789Y-519052953D03*
D13*
X64512789Y-519342953D02*
X64552789Y-518762953D01*
D12*
X40462789Y-562942952D03*
X39807790Y-563672952D03*
D13*
X39152789Y-564402952D02*
X40462791Y-562942952D01*
D12*
X45502789Y-561862952D03*
X45482789Y-562152952D03*
D13*
X45462789Y-562442952D02*
X45502789Y-561862952D01*
D12*
X26412789Y-566942952D03*
X27067788Y-566212952D03*
D13*
X27722789Y-565482952D02*
X26412787Y-566942952D01*
D12*
X21372789Y-568022952D03*
X21392789Y-567732952D03*
D13*
X21412789Y-567442952D02*
X21372789Y-568022952D01*
D12*
X21412790Y-539892952D03*
X20757791Y-540622952D03*
D13*
X20102790Y-541352952D02*
X21412792Y-539892952D01*
D12*
X26452790Y-538812952D03*
X26432790Y-539102952D03*
D13*
X26412790Y-539392952D02*
X26452790Y-538812952D01*
D12*
X21412789Y-520842953D03*
X20757790Y-521572953D03*
D13*
X20102789Y-522302953D02*
X21412791Y-520842953D01*
D12*
X26452789Y-519762953D03*
X26432789Y-520052953D03*
D13*
X26412789Y-520342953D02*
X26452789Y-519762953D01*
D10*
X95906974Y-556400972D03*
X98446974Y-556400972D03*
X100986974Y-556400972D03*
D11*
X103526974Y-556400972D03*
D10*
X96064161Y-537315202D03*
X98604161Y-537315202D03*
X101144161Y-537315202D03*
D11*
X103684161Y-537315202D03*
D10*
X96046291Y-518195542D03*
X98586291Y-518195542D03*
X101126291Y-518195542D03*
D11*
X103666291Y-518195542D03*
D10*
X126470599Y-549604893D03*
X126470599Y-552144893D03*
X126470599Y-554684893D03*
D11*
X126470599Y-557224893D03*
D10*
X126406095Y-499478305D03*
X126406095Y-502018305D03*
X126406095Y-504558305D03*
D11*
X126406095Y-507098305D03*
D10*
X54062789Y-586192952D03*
X54062789Y-583652952D03*
X54062789Y-581112952D03*
D11*
X54062789Y-578572952D03*
D14*
X116223145Y-600465153D03*
D15*
X116223145Y-600465153D02*
X116223145Y-600465153D01*
D14*
X113769693Y-599807753D03*
D15*
X113769693Y-599807753D02*
X113769693Y-599807753D01*
D14*
X111316242Y-599150352D03*
D15*
X111316242Y-599150352D02*
X111316242Y-599150352D01*
D14*
X108862790Y-598492952D03*
D16*
G36*
X109463831Y-599533985D02*
G01*
X107821757Y-599093993D01*
X108261749Y-597451919D01*
X109903823Y-597891911D01*
X109463831Y-599533985D01*
X109463831Y-599533985D01*
G37*
D17*
X86277881Y-535488044D02*
X84727788Y-533937951D01*
X116230000Y-539680005D02*
X112038039Y-535488044D01*
X84727788Y-533937951D02*
X83602789Y-532812952D01*
X116230000Y-559119087D02*
X116230000Y-539680005D01*
X116223145Y-559125942D02*
X116230000Y-559119087D01*
X116223145Y-600465153D02*
X116223145Y-559125942D01*
X112038039Y-535488044D02*
X86277881Y-535488044D01*
X85817382Y-549080000D02*
X75819837Y-549080000D01*
X90390372Y-553652990D02*
X85817382Y-549080000D01*
X75819837Y-549080000D02*
X65677788Y-538937951D01*
X113350093Y-600227353D02*
X113630000Y-599947446D01*
X65677788Y-538937951D02*
X64552789Y-537812952D01*
X104265451Y-553652990D02*
X90390372Y-553652990D01*
X113630000Y-599947446D02*
X113630000Y-563017539D01*
X113630000Y-563017539D02*
X104265451Y-553652990D01*
X46627789Y-543937951D02*
X45502790Y-542812952D01*
X54469838Y-551780000D02*
X46627789Y-543937951D01*
X60430000Y-551780000D02*
X54469838Y-551780000D01*
X111316242Y-561166242D02*
X104130000Y-553980000D01*
X111316242Y-599150352D02*
X111316242Y-561166242D01*
X104130000Y-553980000D02*
X90254922Y-553980000D01*
X90254922Y-553980000D02*
X85700902Y-549425980D01*
X85700902Y-549425980D02*
X62784020Y-549425980D01*
X62784020Y-549425980D02*
X60430000Y-551780000D01*
X26992790Y-538812952D02*
X26412790Y-539392952D01*
X27762952Y-538812952D02*
X26992790Y-538812952D01*
X31430000Y-556380000D02*
X31430000Y-542480000D01*
X31430000Y-542480000D02*
X27762952Y-538812952D01*
X32630000Y-557580000D02*
X31430000Y-556380000D01*
X55130000Y-557580000D02*
X32630000Y-557580000D01*
X108862790Y-559212790D02*
X104002990Y-554352990D01*
X108862790Y-598492952D02*
X108862790Y-559212790D01*
X104002990Y-554352990D02*
X90165450Y-554352990D01*
X90165450Y-554352990D02*
X85565451Y-549752990D01*
X85565451Y-549752990D02*
X62957010Y-549752990D01*
X62957010Y-549752990D02*
X55130000Y-557580000D01*
X27577788Y-520887952D02*
X26452789Y-519762953D01*
X31130000Y-524440164D02*
X27577788Y-520887952D01*
X32830000Y-538380000D02*
X31130000Y-536680000D01*
X55730000Y-538380000D02*
X32830000Y-538380000D01*
X63202989Y-530907011D02*
X55730000Y-538380000D01*
X84757008Y-530907011D02*
X63202989Y-530907011D01*
X31130000Y-536680000D02*
X31130000Y-524440164D01*
X125420599Y-557224893D02*
X116557010Y-548361304D01*
X126470599Y-557224893D02*
X125420599Y-557224893D01*
X116557010Y-548361304D02*
X116557010Y-539544553D01*
X116557010Y-539544553D02*
X112173490Y-535161033D01*
X112173490Y-535161033D02*
X89011030Y-535161033D01*
X89011030Y-535161033D02*
X84757008Y-530907011D01*
X112308941Y-534834022D02*
X89146481Y-534834022D01*
X46627788Y-524887951D02*
X45502789Y-523762952D01*
X59730000Y-533880000D02*
X55619837Y-533880000D01*
X55619837Y-533880000D02*
X46627788Y-524887951D01*
X63030000Y-530580000D02*
X59730000Y-533880000D01*
X84892460Y-530580001D02*
X63030000Y-530580000D01*
X89146481Y-534834022D02*
X84892460Y-530580001D01*
X116930000Y-539455081D02*
X112308941Y-534834022D01*
X116930000Y-545144294D02*
X116930000Y-539455081D01*
X126470599Y-554684893D02*
X116930000Y-545144294D01*
X89281932Y-534507011D02*
X85027911Y-530252990D01*
X126470599Y-552144893D02*
X117257010Y-542931304D01*
X85027911Y-530252990D02*
X76042826Y-530252990D01*
X117257010Y-542931304D02*
X117257010Y-539319629D01*
X65677788Y-519887952D02*
X64552789Y-518762953D01*
X76042826Y-530252990D02*
X65677788Y-519887952D01*
X112444392Y-534507011D02*
X89281932Y-534507011D01*
X117257010Y-539319629D02*
X112444392Y-534507011D01*
X84727789Y-514887951D02*
X83602790Y-513762952D01*
X117630000Y-540764294D02*
X117630000Y-539230157D01*
X88530000Y-518690162D02*
X84727789Y-514887951D01*
X126470599Y-549604893D02*
X117630000Y-540764294D01*
X117630000Y-539230157D02*
X112579843Y-534180000D01*
X112579843Y-534180000D02*
X89430000Y-534180000D01*
X89430000Y-534180000D02*
X88530000Y-533280000D01*
X88530000Y-533280000D02*
X88530000Y-518690162D01*
X93830000Y-504927210D02*
X83602790Y-494700000D01*
X103666291Y-518195542D02*
X93830000Y-508359251D01*
X93830000Y-508359251D02*
X93830000Y-504927210D01*
X65677788Y-500824999D02*
X64552789Y-499700000D01*
X75878769Y-511025980D02*
X65677788Y-500824999D01*
X93956729Y-511025980D02*
X75878769Y-511025980D01*
X101126291Y-518195542D02*
X93956729Y-511025980D01*
X91743739Y-511352990D02*
X75894547Y-511352990D01*
X46230000Y-505280000D02*
X45462789Y-505280000D01*
X98586291Y-518195542D02*
X91743739Y-511352990D01*
X56702989Y-515752989D02*
X46230000Y-505280000D01*
X75894547Y-511352990D02*
X71494549Y-515752989D01*
X71494549Y-515752989D02*
X56702989Y-515752989D01*
X27577788Y-501824999D02*
X26452789Y-500700000D01*
X31030000Y-505277211D02*
X27577788Y-501824999D01*
X31030000Y-517180000D02*
X31030000Y-505277211D01*
X33330000Y-519480000D02*
X31030000Y-517180000D01*
X89530750Y-511680001D02*
X76029999Y-511680001D01*
X96046291Y-518195542D02*
X89530750Y-511680001D01*
X76029999Y-511680001D02*
X71630000Y-516080000D01*
X71630000Y-516080000D02*
X56630000Y-516080000D01*
X56630000Y-516080000D02*
X53230000Y-519480000D01*
X53230000Y-519480000D02*
X33330000Y-519480000D01*
X27762049Y-569147951D02*
X22497788Y-569147951D01*
X31030000Y-559780000D02*
X31030000Y-565880000D01*
X32630000Y-558180000D02*
X31030000Y-559780000D01*
X55030000Y-558180000D02*
X32630000Y-558180000D01*
X22497788Y-569147951D02*
X21372789Y-568022952D01*
X103526974Y-555350972D02*
X102856002Y-554680000D01*
X103526974Y-556400972D02*
X103526974Y-555350972D01*
X102856002Y-554680000D02*
X90030000Y-554680000D01*
X90030000Y-554680000D02*
X85430000Y-550080000D01*
X31030000Y-565880000D02*
X27762049Y-569147951D01*
X85430000Y-550080000D02*
X63130000Y-550080000D01*
X63130000Y-550080000D02*
X55030000Y-558180000D01*
X53619837Y-569980000D02*
X45502789Y-561862952D01*
X87430000Y-569980000D02*
X53619837Y-569980000D01*
X100986974Y-556400972D02*
X100986974Y-556423026D01*
X100986974Y-556423026D02*
X87430000Y-569980000D01*
X64552790Y-556862952D02*
X69097790Y-561407952D01*
X64552790Y-556902790D02*
X64552790Y-556862952D01*
X72730000Y-565080000D02*
X64552790Y-556902790D01*
X98446974Y-556400972D02*
X89767946Y-565080000D01*
X89767946Y-565080000D02*
X72730000Y-565080000D01*
X86712952Y-551862952D02*
X83602789Y-551862952D01*
X89930000Y-555080000D02*
X86712952Y-551862952D01*
X95906974Y-556400972D02*
X94586002Y-555080000D01*
X94586002Y-555080000D02*
X89930000Y-555080000D01*
M02*
