G04 #@! TF.GenerationSoftware,KiCad,Pcbnew,(5.1.4)-1*
G04 #@! TF.CreationDate,2023-05-18T17:00:28-04:00*
G04 #@! TF.ProjectId,ThumbsUp,5468756d-6273-4557-902e-6b696361645f,rev?*
G04 #@! TF.SameCoordinates,Original*
G04 #@! TF.FileFunction,Profile,NP*
%FSLAX46Y46*%
G04 Gerber Fmt 4.6, Leading zero omitted, Abs format (unit mm)*
G04 Created by KiCad (PCBNEW (5.1.4)-1) date 2023-05-18 17:00:28*
%MOMM*%
%LPD*%
G04 APERTURE LIST*
%ADD10C,0.050000*%
G04 APERTURE END LIST*
D10*
X33880000Y-541520000D02*
X33880000Y-554540000D01*
X32880000Y-541520000D02*
G75*
G02X33880000Y-541520000I500000J0D01*
G01*
X32880000Y-541520000D02*
X32880000Y-554540000D01*
X33880000Y-516240000D02*
G75*
G02X32880000Y-516240000I-500000J0D01*
G01*
X32880000Y-503220000D02*
X32880000Y-516240000D01*
X32880000Y-522420000D02*
X32880000Y-535440000D01*
X33880000Y-522420000D02*
X33880000Y-535440000D01*
X32880000Y-503220000D02*
G75*
G02X33880000Y-503220000I500000J0D01*
G01*
X33880000Y-535440000D02*
G75*
G02X32880000Y-535440000I-500000J0D01*
G01*
X32880000Y-522420000D02*
G75*
G02X33880000Y-522420000I500000J0D01*
G01*
X33880000Y-554540000D02*
G75*
G02X32880000Y-554540000I-500000J0D01*
G01*
X33880000Y-503220000D02*
X33880000Y-516240000D01*
X34130000Y-570180000D02*
G75*
G02X33130000Y-570180000I-500000J0D01*
G01*
X33130000Y-560180000D02*
G75*
G02X34130000Y-560180000I500000J0D01*
G01*
X34130000Y-560180000D02*
X34130000Y-570180000D01*
X33130000Y-560180000D02*
X33130000Y-570180000D01*
X14262789Y-569392952D02*
X14262789Y-499642952D01*
X127844797Y-499290158D02*
X127864214Y-586218116D01*
X52162790Y-579292952D02*
X48162789Y-576542952D01*
X19162789Y-572392952D02*
X17362789Y-572392952D01*
X17362790Y-496242952D02*
X19162790Y-496242952D01*
X100180000Y-546980000D02*
G75*
G03X100180000Y-546980000I-4800000J0D01*
G01*
X99080000Y-528830000D02*
G75*
G03X99080000Y-528830000I-3250000J0D01*
G01*
X52162790Y-579292952D02*
X52162789Y-586392952D01*
X62762790Y-587592952D02*
X62962790Y-587592952D01*
X126784192Y-601430399D02*
X117562789Y-602292952D01*
X126784192Y-601430399D02*
X129662325Y-590668599D01*
X36212790Y-576542952D02*
X32262790Y-572392952D01*
X127864214Y-586218116D02*
X129662325Y-590668599D01*
X66962790Y-495392952D02*
X71912789Y-490642952D01*
X53412789Y-495392952D02*
X52562789Y-496242952D01*
X127844797Y-499290158D02*
X125662789Y-497142952D01*
X88462790Y-490642952D02*
X71912789Y-490642952D01*
X32062789Y-572392952D02*
X32262790Y-572392952D01*
X95162790Y-497142952D02*
X125662789Y-497142952D01*
X14262789Y-569392952D02*
X17362789Y-572392952D01*
X88462790Y-490642952D02*
X95162790Y-497142952D01*
X66962790Y-495392952D02*
X53412789Y-495392952D01*
X32062789Y-572392952D02*
X19162789Y-572392952D01*
X36212790Y-576542952D02*
X48162789Y-576542952D01*
X52162789Y-586392952D02*
X53562790Y-587592952D01*
X62762790Y-587592952D02*
X53562790Y-587592952D01*
X17362790Y-496242952D02*
X14262789Y-499642952D01*
X117562789Y-602292952D02*
X62962790Y-587592952D01*
X19162790Y-496242952D02*
X52562789Y-496242952D01*
M02*
