G04 #@! TF.GenerationSoftware,KiCad,Pcbnew,(5.1.4)-1*
G04 #@! TF.CreationDate,2023-05-18T17:00:28-04:00*
G04 #@! TF.ProjectId,ThumbsUp,5468756d-6273-4557-902e-6b696361645f,rev?*
G04 #@! TF.SameCoordinates,Original*
G04 #@! TF.FileFunction,Drawing*
%FSLAX46Y46*%
G04 Gerber Fmt 4.6, Leading zero omitted, Abs format (unit mm)*
G04 Created by KiCad (PCBNEW (5.1.4)-1) date 2023-05-18 17:00:28*
%MOMM*%
%LPD*%
G04 APERTURE LIST*
%ADD10C,0.150000*%
G04 APERTURE END LIST*
D10*
X33437789Y-538367952D02*
X33437789Y-519317952D01*
X52487789Y-538367952D02*
X33437789Y-538367952D01*
X52487789Y-519317952D02*
X52487789Y-538367952D01*
X33437789Y-519317952D02*
X52487789Y-519317952D01*
X35962789Y-521842952D02*
X35962789Y-523842952D01*
X37962789Y-521842952D02*
X35962789Y-521842952D01*
X35962789Y-535842952D02*
X37962789Y-535842952D01*
X35962789Y-533842952D02*
X35962789Y-535842952D01*
X49962789Y-535842952D02*
X49962789Y-533842952D01*
X47962789Y-535842952D02*
X49962789Y-535842952D01*
X49962789Y-521842952D02*
X49962789Y-523842952D01*
X47962789Y-521842952D02*
X49962789Y-521842952D01*
X33437790Y-557417952D02*
X33437790Y-538367952D01*
X52487790Y-557417952D02*
X33437790Y-557417952D01*
X52487790Y-538367952D02*
X52487790Y-557417952D01*
X33437790Y-538367952D02*
X52487790Y-538367952D01*
X35962790Y-540892952D02*
X35962790Y-542892952D01*
X37962790Y-540892952D02*
X35962790Y-540892952D01*
X35962790Y-554892952D02*
X37962790Y-554892952D01*
X35962790Y-552892952D02*
X35962790Y-554892952D01*
X49962790Y-554892952D02*
X49962790Y-552892952D01*
X47962790Y-554892952D02*
X49962790Y-554892952D01*
X49962790Y-540892952D02*
X49962790Y-542892952D01*
X47962790Y-540892952D02*
X49962790Y-540892952D01*
X71537790Y-509305000D02*
X71537790Y-490255000D01*
X90587790Y-509305000D02*
X71537790Y-509305000D01*
X90587790Y-490255000D02*
X90587790Y-509305000D01*
X71537790Y-490255000D02*
X90587790Y-490255000D01*
X74062790Y-492780000D02*
X74062790Y-494780000D01*
X76062790Y-492780000D02*
X74062790Y-492780000D01*
X74062790Y-506780000D02*
X76062790Y-506780000D01*
X74062790Y-504780000D02*
X74062790Y-506780000D01*
X88062790Y-506780000D02*
X88062790Y-504780000D01*
X86062790Y-506780000D02*
X88062790Y-506780000D01*
X88062790Y-492780000D02*
X88062790Y-494780000D01*
X86062790Y-492780000D02*
X88062790Y-492780000D01*
X52487789Y-514305000D02*
X52487789Y-495255000D01*
X71537789Y-514305000D02*
X52487789Y-514305000D01*
X71537789Y-495255000D02*
X71537789Y-514305000D01*
X52487789Y-495255000D02*
X71537789Y-495255000D01*
X55012789Y-497780000D02*
X55012789Y-499780000D01*
X57012789Y-497780000D02*
X55012789Y-497780000D01*
X55012789Y-511780000D02*
X57012789Y-511780000D01*
X55012789Y-509780000D02*
X55012789Y-511780000D01*
X69012789Y-511780000D02*
X69012789Y-509780000D01*
X67012789Y-511780000D02*
X69012789Y-511780000D01*
X69012789Y-497780000D02*
X69012789Y-499780000D01*
X67012789Y-497780000D02*
X69012789Y-497780000D01*
X33437789Y-519305000D02*
X33437789Y-500255000D01*
X52487789Y-519305000D02*
X33437789Y-519305000D01*
X52487789Y-500255000D02*
X52487789Y-519305000D01*
X33437789Y-500255000D02*
X52487789Y-500255000D01*
X35962789Y-502780000D02*
X35962789Y-504780000D01*
X37962789Y-502780000D02*
X35962789Y-502780000D01*
X35962789Y-516780000D02*
X37962789Y-516780000D01*
X35962789Y-514780000D02*
X35962789Y-516780000D01*
X49962789Y-516780000D02*
X49962789Y-514780000D01*
X47962789Y-516780000D02*
X49962789Y-516780000D01*
X49962789Y-502780000D02*
X49962789Y-504780000D01*
X47962789Y-502780000D02*
X49962789Y-502780000D01*
X14387789Y-515305000D02*
X14387789Y-496255000D01*
X33437789Y-515305000D02*
X14387789Y-515305000D01*
X33437789Y-496255000D02*
X33437789Y-515305000D01*
X14387789Y-496255000D02*
X33437789Y-496255000D01*
X16912789Y-498780000D02*
X16912789Y-500780000D01*
X18912789Y-498780000D02*
X16912789Y-498780000D01*
X16912789Y-512780000D02*
X18912789Y-512780000D01*
X16912789Y-510780000D02*
X16912789Y-512780000D01*
X30912789Y-512780000D02*
X30912789Y-510780000D01*
X28912789Y-512780000D02*
X30912789Y-512780000D01*
X30912789Y-498780000D02*
X30912789Y-500780000D01*
X28912789Y-498780000D02*
X30912789Y-498780000D01*
X71537789Y-566467952D02*
X71537789Y-547417952D01*
X90587789Y-566467952D02*
X71537789Y-566467952D01*
X90587789Y-547417952D02*
X90587789Y-566467952D01*
X71537789Y-547417952D02*
X90587789Y-547417952D01*
X74062789Y-549942952D02*
X74062789Y-551942952D01*
X76062789Y-549942952D02*
X74062789Y-549942952D01*
X74062789Y-563942952D02*
X76062789Y-563942952D01*
X74062789Y-561942952D02*
X74062789Y-563942952D01*
X88062789Y-563942952D02*
X88062789Y-561942952D01*
X86062789Y-563942952D02*
X88062789Y-563942952D01*
X88062789Y-549942952D02*
X88062789Y-551942952D01*
X86062789Y-549942952D02*
X88062789Y-549942952D01*
X71537789Y-547417952D02*
X71537789Y-528367952D01*
X90587789Y-547417952D02*
X71537789Y-547417952D01*
X90587789Y-528367952D02*
X90587789Y-547417952D01*
X71537789Y-528367952D02*
X90587789Y-528367952D01*
X74062789Y-530892952D02*
X74062789Y-532892952D01*
X76062789Y-530892952D02*
X74062789Y-530892952D01*
X74062789Y-544892952D02*
X76062789Y-544892952D01*
X74062789Y-542892952D02*
X74062789Y-544892952D01*
X88062789Y-544892952D02*
X88062789Y-542892952D01*
X86062789Y-544892952D02*
X88062789Y-544892952D01*
X88062789Y-530892952D02*
X88062789Y-532892952D01*
X86062789Y-530892952D02*
X88062789Y-530892952D01*
X71537790Y-528367952D02*
X71537790Y-509317952D01*
X90587790Y-528367952D02*
X71537790Y-528367952D01*
X90587790Y-509317952D02*
X90587790Y-528367952D01*
X71537790Y-509317952D02*
X90587790Y-509317952D01*
X74062790Y-511842952D02*
X74062790Y-513842952D01*
X76062790Y-511842952D02*
X74062790Y-511842952D01*
X74062790Y-525842952D02*
X76062790Y-525842952D01*
X74062790Y-523842952D02*
X74062790Y-525842952D01*
X88062790Y-525842952D02*
X88062790Y-523842952D01*
X86062790Y-525842952D02*
X88062790Y-525842952D01*
X88062790Y-511842952D02*
X88062790Y-513842952D01*
X86062790Y-511842952D02*
X88062790Y-511842952D01*
X52487790Y-571467952D02*
X52487790Y-552417952D01*
X71537790Y-571467952D02*
X52487790Y-571467952D01*
X71537790Y-552417952D02*
X71537790Y-571467952D01*
X52487790Y-552417952D02*
X71537790Y-552417952D01*
X55012790Y-554942952D02*
X55012790Y-556942952D01*
X57012790Y-554942952D02*
X55012790Y-554942952D01*
X55012790Y-568942952D02*
X57012790Y-568942952D01*
X55012790Y-566942952D02*
X55012790Y-568942952D01*
X69012790Y-568942952D02*
X69012790Y-566942952D01*
X67012790Y-568942952D02*
X69012790Y-568942952D01*
X69012790Y-554942952D02*
X69012790Y-556942952D01*
X67012790Y-554942952D02*
X69012790Y-554942952D01*
X52487789Y-552417952D02*
X52487789Y-533367952D01*
X71537789Y-552417952D02*
X52487789Y-552417952D01*
X71537789Y-533367952D02*
X71537789Y-552417952D01*
X52487789Y-533367952D02*
X71537789Y-533367952D01*
X55012789Y-535892952D02*
X55012789Y-537892952D01*
X57012789Y-535892952D02*
X55012789Y-535892952D01*
X55012789Y-549892952D02*
X57012789Y-549892952D01*
X55012789Y-547892952D02*
X55012789Y-549892952D01*
X69012789Y-549892952D02*
X69012789Y-547892952D01*
X67012789Y-549892952D02*
X69012789Y-549892952D01*
X69012789Y-535892952D02*
X69012789Y-537892952D01*
X67012789Y-535892952D02*
X69012789Y-535892952D01*
X52487789Y-533367953D02*
X52487789Y-514317953D01*
X71537789Y-533367953D02*
X52487789Y-533367953D01*
X71537789Y-514317953D02*
X71537789Y-533367953D01*
X52487789Y-514317953D02*
X71537789Y-514317953D01*
X55012789Y-516842953D02*
X55012789Y-518842953D01*
X57012789Y-516842953D02*
X55012789Y-516842953D01*
X55012789Y-530842953D02*
X57012789Y-530842953D01*
X55012789Y-528842953D02*
X55012789Y-530842953D01*
X69012789Y-530842953D02*
X69012789Y-528842953D01*
X67012789Y-530842953D02*
X69012789Y-530842953D01*
X69012789Y-516842953D02*
X69012789Y-518842953D01*
X67012789Y-516842953D02*
X69012789Y-516842953D01*
X33437789Y-576467952D02*
X33437789Y-557417952D01*
X52487789Y-576467952D02*
X33437789Y-576467952D01*
X52487789Y-557417952D02*
X52487789Y-576467952D01*
X33437789Y-557417952D02*
X52487789Y-557417952D01*
X35962789Y-559942952D02*
X35962789Y-561942952D01*
X37962789Y-559942952D02*
X35962789Y-559942952D01*
X35962789Y-573942952D02*
X37962789Y-573942952D01*
X35962789Y-571942952D02*
X35962789Y-573942952D01*
X49962789Y-573942952D02*
X49962789Y-571942952D01*
X47962789Y-573942952D02*
X49962789Y-573942952D01*
X49962789Y-559942952D02*
X49962789Y-561942952D01*
X47962789Y-559942952D02*
X49962789Y-559942952D01*
X33437789Y-553417952D02*
X33437789Y-572467952D01*
X14387789Y-553417952D02*
X33437789Y-553417952D01*
X14387789Y-572467952D02*
X14387789Y-553417952D01*
X33437789Y-572467952D02*
X14387789Y-572467952D01*
X30912789Y-569942952D02*
X30912789Y-567942952D01*
X28912789Y-569942952D02*
X30912789Y-569942952D01*
X30912789Y-555942952D02*
X28912789Y-555942952D01*
X30912789Y-557942952D02*
X30912789Y-555942952D01*
X16912789Y-555942952D02*
X16912789Y-557942952D01*
X18912789Y-555942952D02*
X16912789Y-555942952D01*
X16912789Y-569942952D02*
X16912789Y-567942952D01*
X18912789Y-569942952D02*
X16912789Y-569942952D01*
X14387790Y-553417952D02*
X14387790Y-534367952D01*
X33437790Y-553417952D02*
X14387790Y-553417952D01*
X33437790Y-534367952D02*
X33437790Y-553417952D01*
X14387790Y-534367952D02*
X33437790Y-534367952D01*
X16912790Y-536892952D02*
X16912790Y-538892952D01*
X18912790Y-536892952D02*
X16912790Y-536892952D01*
X16912790Y-550892952D02*
X18912790Y-550892952D01*
X16912790Y-548892952D02*
X16912790Y-550892952D01*
X30912790Y-550892952D02*
X30912790Y-548892952D01*
X28912790Y-550892952D02*
X30912790Y-550892952D01*
X30912790Y-536892952D02*
X30912790Y-538892952D01*
X28912790Y-536892952D02*
X30912790Y-536892952D01*
X14387789Y-534367953D02*
X14387789Y-515317953D01*
X33437789Y-534367953D02*
X14387789Y-534367953D01*
X33437789Y-515317953D02*
X33437789Y-534367953D01*
X14387789Y-515317953D02*
X33437789Y-515317953D01*
X16912789Y-517842953D02*
X16912789Y-519842953D01*
X18912789Y-517842953D02*
X16912789Y-517842953D01*
X16912789Y-531842953D02*
X18912789Y-531842953D01*
X16912789Y-529842953D02*
X16912789Y-531842953D01*
X30912789Y-531842953D02*
X30912789Y-529842953D01*
X28912789Y-531842953D02*
X30912789Y-531842953D01*
X30912789Y-517842953D02*
X30912789Y-519842953D01*
X28912789Y-517842953D02*
X30912789Y-517842953D01*
X41677074Y-532470332D02*
X41677074Y-531470332D01*
X42010408Y-532184618D01*
X42343741Y-531470332D01*
X42343741Y-532470332D01*
X42724693Y-531470332D02*
X43391360Y-532470332D01*
X43391360Y-531470332D02*
X42724693Y-532470332D01*
X44200884Y-531803666D02*
X44200884Y-532470332D01*
X43962789Y-531422713D02*
X43724693Y-532136999D01*
X44343741Y-532136999D01*
X41629455Y-521310213D02*
X41772312Y-521357832D01*
X42010408Y-521357832D01*
X42105646Y-521310213D01*
X42153265Y-521262594D01*
X42200884Y-521167356D01*
X42200884Y-521072118D01*
X42153265Y-520976880D01*
X42105646Y-520929261D01*
X42010408Y-520881642D01*
X41819931Y-520834023D01*
X41724693Y-520786404D01*
X41677074Y-520738785D01*
X41629455Y-520643547D01*
X41629455Y-520548309D01*
X41677074Y-520453071D01*
X41724693Y-520405452D01*
X41819931Y-520357832D01*
X42058027Y-520357832D01*
X42200884Y-520405452D01*
X42534217Y-520691166D02*
X42724693Y-521357832D01*
X42915169Y-520881642D01*
X43105646Y-521357832D01*
X43296122Y-520691166D01*
X44343741Y-521453071D02*
X44248503Y-521405452D01*
X44153265Y-521310213D01*
X44010408Y-521167356D01*
X43915169Y-521119737D01*
X43819931Y-521119737D01*
X43867550Y-521357832D02*
X43772312Y-521310213D01*
X43677074Y-521214975D01*
X43629455Y-521024499D01*
X43629455Y-520691166D01*
X43677074Y-520500690D01*
X43772312Y-520405452D01*
X43867550Y-520357832D01*
X44058027Y-520357832D01*
X44153265Y-520405452D01*
X44248503Y-520500690D01*
X44296122Y-520691166D01*
X44296122Y-521024499D01*
X44248503Y-521214975D01*
X44153265Y-521310213D01*
X44058027Y-521357832D01*
X43867550Y-521357832D01*
X41677075Y-551520332D02*
X41677075Y-550520332D01*
X42010409Y-551234618D01*
X42343742Y-550520332D01*
X42343742Y-551520332D01*
X42724694Y-550520332D02*
X43391361Y-551520332D01*
X43391361Y-550520332D02*
X42724694Y-551520332D01*
X44248504Y-550520332D02*
X43772313Y-550520332D01*
X43724694Y-550996523D01*
X43772313Y-550948904D01*
X43867551Y-550901285D01*
X44105647Y-550901285D01*
X44200885Y-550948904D01*
X44248504Y-550996523D01*
X44296123Y-551091761D01*
X44296123Y-551329856D01*
X44248504Y-551425094D01*
X44200885Y-551472713D01*
X44105647Y-551520332D01*
X43867551Y-551520332D01*
X43772313Y-551472713D01*
X43724694Y-551425094D01*
X41724694Y-540360213D02*
X41867551Y-540407832D01*
X42105647Y-540407832D01*
X42200885Y-540360213D01*
X42248504Y-540312594D01*
X42296123Y-540217356D01*
X42296123Y-540122118D01*
X42248504Y-540026880D01*
X42200885Y-539979261D01*
X42105647Y-539931642D01*
X41915170Y-539884023D01*
X41819932Y-539836404D01*
X41772313Y-539788785D01*
X41724694Y-539693547D01*
X41724694Y-539598309D01*
X41772313Y-539503071D01*
X41819932Y-539455452D01*
X41915170Y-539407832D01*
X42153266Y-539407832D01*
X42296123Y-539455452D01*
X42629456Y-539741166D02*
X42819932Y-540407832D01*
X43010409Y-539931642D01*
X43200885Y-540407832D01*
X43391361Y-539741166D01*
X43724694Y-540122118D02*
X44200885Y-540122118D01*
X43629456Y-540407832D02*
X43962790Y-539407832D01*
X44296123Y-540407832D01*
X79300885Y-503407380D02*
X79300885Y-502407380D01*
X79634218Y-503121666D01*
X79967551Y-502407380D01*
X79967551Y-503407380D01*
X80348504Y-502407380D02*
X81015170Y-503407380D01*
X81015170Y-502407380D02*
X80348504Y-503407380D01*
X81824694Y-502740714D02*
X81824694Y-503407380D01*
X81586599Y-502359761D02*
X81348504Y-503074047D01*
X81967551Y-503074047D01*
X82491361Y-502835952D02*
X82396123Y-502788333D01*
X82348504Y-502740714D01*
X82300885Y-502645476D01*
X82300885Y-502597857D01*
X82348504Y-502502619D01*
X82396123Y-502455000D01*
X82491361Y-502407380D01*
X82681837Y-502407380D01*
X82777075Y-502455000D01*
X82824694Y-502502619D01*
X82872313Y-502597857D01*
X82872313Y-502645476D01*
X82824694Y-502740714D01*
X82777075Y-502788333D01*
X82681837Y-502835952D01*
X82491361Y-502835952D01*
X82396123Y-502883571D01*
X82348504Y-502931190D01*
X82300885Y-503026428D01*
X82300885Y-503216904D01*
X82348504Y-503312142D01*
X82396123Y-503359761D01*
X82491361Y-503407380D01*
X82681837Y-503407380D01*
X82777075Y-503359761D01*
X82824694Y-503312142D01*
X82872313Y-503216904D01*
X82872313Y-503026428D01*
X82824694Y-502931190D01*
X82777075Y-502883571D01*
X82681837Y-502835952D01*
X79777075Y-492247261D02*
X79919932Y-492294880D01*
X80158028Y-492294880D01*
X80253266Y-492247261D01*
X80300885Y-492199642D01*
X80348504Y-492104404D01*
X80348504Y-492009166D01*
X80300885Y-491913928D01*
X80253266Y-491866309D01*
X80158028Y-491818690D01*
X79967551Y-491771071D01*
X79872313Y-491723452D01*
X79824694Y-491675833D01*
X79777075Y-491580595D01*
X79777075Y-491485357D01*
X79824694Y-491390119D01*
X79872313Y-491342500D01*
X79967551Y-491294880D01*
X80205647Y-491294880D01*
X80348504Y-491342500D01*
X80681837Y-491628214D02*
X80872313Y-492294880D01*
X81062790Y-491818690D01*
X81253266Y-492294880D01*
X81443742Y-491628214D01*
X81729456Y-491294880D02*
X82348504Y-491294880D01*
X82015170Y-491675833D01*
X82158028Y-491675833D01*
X82253266Y-491723452D01*
X82300885Y-491771071D01*
X82348504Y-491866309D01*
X82348504Y-492104404D01*
X82300885Y-492199642D01*
X82253266Y-492247261D01*
X82158028Y-492294880D01*
X81872313Y-492294880D01*
X81777075Y-492247261D01*
X81729456Y-492199642D01*
X60250884Y-508407380D02*
X60250884Y-507407380D01*
X60584217Y-508121666D01*
X60917550Y-507407380D01*
X60917550Y-508407380D01*
X61298503Y-507407380D02*
X61965169Y-508407380D01*
X61965169Y-507407380D02*
X61298503Y-508407380D01*
X62774693Y-507740714D02*
X62774693Y-508407380D01*
X62536598Y-507359761D02*
X62298503Y-508074047D01*
X62917550Y-508074047D01*
X63203265Y-507407380D02*
X63869931Y-507407380D01*
X63441360Y-508407380D01*
X60727074Y-497247261D02*
X60869931Y-497294880D01*
X61108027Y-497294880D01*
X61203265Y-497247261D01*
X61250884Y-497199642D01*
X61298503Y-497104404D01*
X61298503Y-497009166D01*
X61250884Y-496913928D01*
X61203265Y-496866309D01*
X61108027Y-496818690D01*
X60917550Y-496771071D01*
X60822312Y-496723452D01*
X60774693Y-496675833D01*
X60727074Y-496580595D01*
X60727074Y-496485357D01*
X60774693Y-496390119D01*
X60822312Y-496342500D01*
X60917550Y-496294880D01*
X61155646Y-496294880D01*
X61298503Y-496342500D01*
X61631836Y-496628214D02*
X61822312Y-497294880D01*
X62012789Y-496818690D01*
X62203265Y-497294880D01*
X62393741Y-496628214D01*
X62727074Y-496390119D02*
X62774693Y-496342500D01*
X62869931Y-496294880D01*
X63108027Y-496294880D01*
X63203265Y-496342500D01*
X63250884Y-496390119D01*
X63298503Y-496485357D01*
X63298503Y-496580595D01*
X63250884Y-496723452D01*
X62679455Y-497294880D01*
X63298503Y-497294880D01*
X41200884Y-513407380D02*
X41200884Y-512407380D01*
X41534217Y-513121666D01*
X41867550Y-512407380D01*
X41867550Y-513407380D01*
X42248503Y-512407380D02*
X42915169Y-513407380D01*
X42915169Y-512407380D02*
X42248503Y-513407380D01*
X43724693Y-512740714D02*
X43724693Y-513407380D01*
X43486598Y-512359761D02*
X43248503Y-513074047D01*
X43867550Y-513074047D01*
X44677074Y-512407380D02*
X44486598Y-512407380D01*
X44391360Y-512455000D01*
X44343741Y-512502619D01*
X44248503Y-512645476D01*
X44200884Y-512835952D01*
X44200884Y-513216904D01*
X44248503Y-513312142D01*
X44296122Y-513359761D01*
X44391360Y-513407380D01*
X44581836Y-513407380D01*
X44677074Y-513359761D01*
X44724693Y-513312142D01*
X44772312Y-513216904D01*
X44772312Y-512978809D01*
X44724693Y-512883571D01*
X44677074Y-512835952D01*
X44581836Y-512788333D01*
X44391360Y-512788333D01*
X44296122Y-512835952D01*
X44248503Y-512883571D01*
X44200884Y-512978809D01*
X41677074Y-502247261D02*
X41819931Y-502294880D01*
X42058027Y-502294880D01*
X42153265Y-502247261D01*
X42200884Y-502199642D01*
X42248503Y-502104404D01*
X42248503Y-502009166D01*
X42200884Y-501913928D01*
X42153265Y-501866309D01*
X42058027Y-501818690D01*
X41867550Y-501771071D01*
X41772312Y-501723452D01*
X41724693Y-501675833D01*
X41677074Y-501580595D01*
X41677074Y-501485357D01*
X41724693Y-501390119D01*
X41772312Y-501342500D01*
X41867550Y-501294880D01*
X42105646Y-501294880D01*
X42248503Y-501342500D01*
X42581836Y-501628214D02*
X42772312Y-502294880D01*
X42962789Y-501818690D01*
X43153265Y-502294880D01*
X43343741Y-501628214D01*
X44248503Y-502294880D02*
X43677074Y-502294880D01*
X43962789Y-502294880D02*
X43962789Y-501294880D01*
X43867550Y-501437738D01*
X43772312Y-501532976D01*
X43677074Y-501580595D01*
X22150884Y-509407380D02*
X22150884Y-508407380D01*
X22484217Y-509121666D01*
X22817550Y-508407380D01*
X22817550Y-509407380D01*
X23198503Y-508407380D02*
X23865169Y-509407380D01*
X23865169Y-508407380D02*
X23198503Y-509407380D01*
X24674693Y-508740714D02*
X24674693Y-509407380D01*
X24436598Y-508359761D02*
X24198503Y-509074047D01*
X24817550Y-509074047D01*
X25674693Y-508407380D02*
X25198503Y-508407380D01*
X25150884Y-508883571D01*
X25198503Y-508835952D01*
X25293741Y-508788333D01*
X25531836Y-508788333D01*
X25627074Y-508835952D01*
X25674693Y-508883571D01*
X25722312Y-508978809D01*
X25722312Y-509216904D01*
X25674693Y-509312142D01*
X25627074Y-509359761D01*
X25531836Y-509407380D01*
X25293741Y-509407380D01*
X25198503Y-509359761D01*
X25150884Y-509312142D01*
X21031836Y-498247261D02*
X21174693Y-498294880D01*
X21412789Y-498294880D01*
X21508027Y-498247261D01*
X21555646Y-498199642D01*
X21603265Y-498104404D01*
X21603265Y-498009166D01*
X21555646Y-497913928D01*
X21508027Y-497866309D01*
X21412789Y-497818690D01*
X21222312Y-497771071D01*
X21127074Y-497723452D01*
X21079455Y-497675833D01*
X21031836Y-497580595D01*
X21031836Y-497485357D01*
X21079455Y-497390119D01*
X21127074Y-497342500D01*
X21222312Y-497294880D01*
X21460408Y-497294880D01*
X21603265Y-497342500D01*
X21936598Y-497628214D02*
X22127074Y-498294880D01*
X22317550Y-497818690D01*
X22508027Y-498294880D01*
X22698503Y-497628214D01*
X23603265Y-497342500D02*
X23508027Y-497294880D01*
X23365169Y-497294880D01*
X23222312Y-497342500D01*
X23127074Y-497437738D01*
X23079455Y-497532976D01*
X23031836Y-497723452D01*
X23031836Y-497866309D01*
X23079455Y-498056785D01*
X23127074Y-498152023D01*
X23222312Y-498247261D01*
X23365169Y-498294880D01*
X23460408Y-498294880D01*
X23603265Y-498247261D01*
X23650884Y-498199642D01*
X23650884Y-497866309D01*
X23460408Y-497866309D01*
X24079455Y-498294880D02*
X24079455Y-497628214D01*
X24079455Y-497818690D02*
X24127074Y-497723452D01*
X24174693Y-497675833D01*
X24269931Y-497628214D01*
X24365169Y-497628214D01*
X25127074Y-498294880D02*
X25127074Y-497771071D01*
X25079455Y-497675833D01*
X24984217Y-497628214D01*
X24793741Y-497628214D01*
X24698503Y-497675833D01*
X25127074Y-498247261D02*
X25031836Y-498294880D01*
X24793741Y-498294880D01*
X24698503Y-498247261D01*
X24650884Y-498152023D01*
X24650884Y-498056785D01*
X24698503Y-497961547D01*
X24793741Y-497913928D01*
X25031836Y-497913928D01*
X25127074Y-497866309D01*
X25508027Y-497628214D02*
X25746122Y-498294880D01*
X25984217Y-497628214D01*
X26746122Y-498247261D02*
X26650884Y-498294880D01*
X26460408Y-498294880D01*
X26365169Y-498247261D01*
X26317550Y-498152023D01*
X26317550Y-497771071D01*
X26365169Y-497675833D01*
X26460408Y-497628214D01*
X26650884Y-497628214D01*
X26746122Y-497675833D01*
X26793741Y-497771071D01*
X26793741Y-497866309D01*
X26317550Y-497961547D01*
X79300884Y-560570332D02*
X79300884Y-559570332D01*
X79634217Y-560284618D01*
X79967550Y-559570332D01*
X79967550Y-560570332D01*
X80348503Y-559570332D02*
X81015169Y-560570332D01*
X81015169Y-559570332D02*
X80348503Y-560570332D01*
X81919931Y-560570332D02*
X81348503Y-560570332D01*
X81634217Y-560570332D02*
X81634217Y-559570332D01*
X81538979Y-559713190D01*
X81443741Y-559808428D01*
X81348503Y-559856047D01*
X82253265Y-559570332D02*
X82872312Y-559570332D01*
X82538979Y-559951285D01*
X82681836Y-559951285D01*
X82777074Y-559998904D01*
X82824693Y-560046523D01*
X82872312Y-560141761D01*
X82872312Y-560379856D01*
X82824693Y-560475094D01*
X82777074Y-560522713D01*
X82681836Y-560570332D01*
X82396122Y-560570332D01*
X82300884Y-560522713D01*
X82253265Y-560475094D01*
X79753265Y-549410213D02*
X79896122Y-549457832D01*
X80134217Y-549457832D01*
X80229455Y-549410213D01*
X80277074Y-549362594D01*
X80324693Y-549267356D01*
X80324693Y-549172118D01*
X80277074Y-549076880D01*
X80229455Y-549029261D01*
X80134217Y-548981642D01*
X79943741Y-548934023D01*
X79848503Y-548886404D01*
X79800884Y-548838785D01*
X79753265Y-548743547D01*
X79753265Y-548648309D01*
X79800884Y-548553071D01*
X79848503Y-548505452D01*
X79943741Y-548457832D01*
X80181836Y-548457832D01*
X80324693Y-548505452D01*
X80658027Y-548791166D02*
X80848503Y-549457832D01*
X81038979Y-548981642D01*
X81229455Y-549457832D01*
X81419931Y-548791166D01*
X82372312Y-549362594D02*
X82324693Y-549410213D01*
X82181836Y-549457832D01*
X82086598Y-549457832D01*
X81943741Y-549410213D01*
X81848503Y-549314975D01*
X81800884Y-549219737D01*
X81753265Y-549029261D01*
X81753265Y-548886404D01*
X81800884Y-548695928D01*
X81848503Y-548600690D01*
X81943741Y-548505452D01*
X82086598Y-548457832D01*
X82181836Y-548457832D01*
X82324693Y-548505452D01*
X82372312Y-548553071D01*
X79300884Y-541520332D02*
X79300884Y-540520332D01*
X79634217Y-541234618D01*
X79967550Y-540520332D01*
X79967550Y-541520332D01*
X80348503Y-540520332D02*
X81015169Y-541520332D01*
X81015169Y-540520332D02*
X80348503Y-541520332D01*
X81919931Y-541520332D02*
X81348503Y-541520332D01*
X81634217Y-541520332D02*
X81634217Y-540520332D01*
X81538979Y-540663190D01*
X81443741Y-540758428D01*
X81348503Y-540806047D01*
X82300884Y-540615571D02*
X82348503Y-540567952D01*
X82443741Y-540520332D01*
X82681836Y-540520332D01*
X82777074Y-540567952D01*
X82824693Y-540615571D01*
X82872312Y-540710809D01*
X82872312Y-540806047D01*
X82824693Y-540948904D01*
X82253265Y-541520332D01*
X82872312Y-541520332D01*
X79753265Y-530360213D02*
X79896122Y-530407832D01*
X80134217Y-530407832D01*
X80229455Y-530360213D01*
X80277074Y-530312594D01*
X80324693Y-530217356D01*
X80324693Y-530122118D01*
X80277074Y-530026880D01*
X80229455Y-529979261D01*
X80134217Y-529931642D01*
X79943741Y-529884023D01*
X79848503Y-529836404D01*
X79800884Y-529788785D01*
X79753265Y-529693547D01*
X79753265Y-529598309D01*
X79800884Y-529503071D01*
X79848503Y-529455452D01*
X79943741Y-529407832D01*
X80181836Y-529407832D01*
X80324693Y-529455452D01*
X80658027Y-529741166D02*
X80848503Y-530407832D01*
X81038979Y-529931642D01*
X81229455Y-530407832D01*
X81419931Y-529741166D01*
X81800884Y-530407832D02*
X81800884Y-529407832D01*
X82038979Y-529407832D01*
X82181836Y-529455452D01*
X82277074Y-529550690D01*
X82324693Y-529645928D01*
X82372312Y-529836404D01*
X82372312Y-529979261D01*
X82324693Y-530169737D01*
X82277074Y-530264975D01*
X82181836Y-530360213D01*
X82038979Y-530407832D01*
X81800884Y-530407832D01*
X79300885Y-522470332D02*
X79300885Y-521470332D01*
X79634218Y-522184618D01*
X79967551Y-521470332D01*
X79967551Y-522470332D01*
X80348504Y-521470332D02*
X81015170Y-522470332D01*
X81015170Y-521470332D02*
X80348504Y-522470332D01*
X81919932Y-522470332D02*
X81348504Y-522470332D01*
X81634218Y-522470332D02*
X81634218Y-521470332D01*
X81538980Y-521613190D01*
X81443742Y-521708428D01*
X81348504Y-521756047D01*
X82872313Y-522470332D02*
X82300885Y-522470332D01*
X82586599Y-522470332D02*
X82586599Y-521470332D01*
X82491361Y-521613190D01*
X82396123Y-521708428D01*
X82300885Y-521756047D01*
X79800885Y-511310213D02*
X79943742Y-511357832D01*
X80181837Y-511357832D01*
X80277075Y-511310213D01*
X80324694Y-511262594D01*
X80372313Y-511167356D01*
X80372313Y-511072118D01*
X80324694Y-510976880D01*
X80277075Y-510929261D01*
X80181837Y-510881642D01*
X79991361Y-510834023D01*
X79896123Y-510786404D01*
X79848504Y-510738785D01*
X79800885Y-510643547D01*
X79800885Y-510548309D01*
X79848504Y-510453071D01*
X79896123Y-510405452D01*
X79991361Y-510357832D01*
X80229456Y-510357832D01*
X80372313Y-510405452D01*
X80705647Y-510691166D02*
X80896123Y-511357832D01*
X81086599Y-510881642D01*
X81277075Y-511357832D01*
X81467551Y-510691166D01*
X81848504Y-510834023D02*
X82181837Y-510834023D01*
X82324694Y-511357832D02*
X81848504Y-511357832D01*
X81848504Y-510357832D01*
X82324694Y-510357832D01*
X60727075Y-565570332D02*
X60727075Y-564570332D01*
X61060409Y-565284618D01*
X61393742Y-564570332D01*
X61393742Y-565570332D01*
X61774694Y-564570332D02*
X62441361Y-565570332D01*
X62441361Y-564570332D02*
X61774694Y-565570332D01*
X62869932Y-565570332D02*
X63060409Y-565570332D01*
X63155647Y-565522713D01*
X63203266Y-565475094D01*
X63298504Y-565332237D01*
X63346123Y-565141761D01*
X63346123Y-564760809D01*
X63298504Y-564665571D01*
X63250885Y-564617952D01*
X63155647Y-564570332D01*
X62965170Y-564570332D01*
X62869932Y-564617952D01*
X62822313Y-564665571D01*
X62774694Y-564760809D01*
X62774694Y-564998904D01*
X62822313Y-565094142D01*
X62869932Y-565141761D01*
X62965170Y-565189380D01*
X63155647Y-565189380D01*
X63250885Y-565141761D01*
X63298504Y-565094142D01*
X63346123Y-564998904D01*
X60727075Y-554410213D02*
X60869932Y-554457832D01*
X61108028Y-554457832D01*
X61203266Y-554410213D01*
X61250885Y-554362594D01*
X61298504Y-554267356D01*
X61298504Y-554172118D01*
X61250885Y-554076880D01*
X61203266Y-554029261D01*
X61108028Y-553981642D01*
X60917551Y-553934023D01*
X60822313Y-553886404D01*
X60774694Y-553838785D01*
X60727075Y-553743547D01*
X60727075Y-553648309D01*
X60774694Y-553553071D01*
X60822313Y-553505452D01*
X60917551Y-553457832D01*
X61155647Y-553457832D01*
X61298504Y-553505452D01*
X61631837Y-553791166D02*
X61822313Y-554457832D01*
X62012790Y-553981642D01*
X62203266Y-554457832D01*
X62393742Y-553791166D01*
X62679456Y-553457832D02*
X63346123Y-554457832D01*
X63346123Y-553457832D02*
X62679456Y-554457832D01*
X60727074Y-546520332D02*
X60727074Y-545520332D01*
X61060408Y-546234618D01*
X61393741Y-545520332D01*
X61393741Y-546520332D01*
X61774693Y-545520332D02*
X62441360Y-546520332D01*
X62441360Y-545520332D02*
X61774693Y-546520332D01*
X62965169Y-545948904D02*
X62869931Y-545901285D01*
X62822312Y-545853666D01*
X62774693Y-545758428D01*
X62774693Y-545710809D01*
X62822312Y-545615571D01*
X62869931Y-545567952D01*
X62965169Y-545520332D01*
X63155646Y-545520332D01*
X63250884Y-545567952D01*
X63298503Y-545615571D01*
X63346122Y-545710809D01*
X63346122Y-545758428D01*
X63298503Y-545853666D01*
X63250884Y-545901285D01*
X63155646Y-545948904D01*
X62965169Y-545948904D01*
X62869931Y-545996523D01*
X62822312Y-546044142D01*
X62774693Y-546139380D01*
X62774693Y-546329856D01*
X62822312Y-546425094D01*
X62869931Y-546472713D01*
X62965169Y-546520332D01*
X63155646Y-546520332D01*
X63250884Y-546472713D01*
X63298503Y-546425094D01*
X63346122Y-546329856D01*
X63346122Y-546139380D01*
X63298503Y-546044142D01*
X63250884Y-545996523D01*
X63155646Y-545948904D01*
X60727074Y-535360213D02*
X60869931Y-535407832D01*
X61108027Y-535407832D01*
X61203265Y-535360213D01*
X61250884Y-535312594D01*
X61298503Y-535217356D01*
X61298503Y-535122118D01*
X61250884Y-535026880D01*
X61203265Y-534979261D01*
X61108027Y-534931642D01*
X60917550Y-534884023D01*
X60822312Y-534836404D01*
X60774693Y-534788785D01*
X60727074Y-534693547D01*
X60727074Y-534598309D01*
X60774693Y-534503071D01*
X60822312Y-534455452D01*
X60917550Y-534407832D01*
X61155646Y-534407832D01*
X61298503Y-534455452D01*
X61631836Y-534741166D02*
X61822312Y-535407832D01*
X62012789Y-534931642D01*
X62203265Y-535407832D01*
X62393741Y-534741166D01*
X62727074Y-535360213D02*
X62869931Y-535407832D01*
X63108027Y-535407832D01*
X63203265Y-535360213D01*
X63250884Y-535312594D01*
X63298503Y-535217356D01*
X63298503Y-535122118D01*
X63250884Y-535026880D01*
X63203265Y-534979261D01*
X63108027Y-534931642D01*
X62917550Y-534884023D01*
X62822312Y-534836404D01*
X62774693Y-534788785D01*
X62727074Y-534693547D01*
X62727074Y-534598309D01*
X62774693Y-534503071D01*
X62822312Y-534455452D01*
X62917550Y-534407832D01*
X63155646Y-534407832D01*
X63298503Y-534455452D01*
X60727074Y-527470333D02*
X60727074Y-526470333D01*
X61060408Y-527184619D01*
X61393741Y-526470333D01*
X61393741Y-527470333D01*
X61774693Y-526470333D02*
X62441360Y-527470333D01*
X62441360Y-526470333D02*
X61774693Y-527470333D01*
X62727074Y-526470333D02*
X63393741Y-526470333D01*
X62965169Y-527470333D01*
X60631836Y-516310214D02*
X60774693Y-516357833D01*
X61012789Y-516357833D01*
X61108027Y-516310214D01*
X61155646Y-516262595D01*
X61203265Y-516167357D01*
X61203265Y-516072119D01*
X61155646Y-515976881D01*
X61108027Y-515929262D01*
X61012789Y-515881643D01*
X60822312Y-515834024D01*
X60727074Y-515786405D01*
X60679455Y-515738786D01*
X60631836Y-515643548D01*
X60631836Y-515548310D01*
X60679455Y-515453072D01*
X60727074Y-515405453D01*
X60822312Y-515357833D01*
X61060408Y-515357833D01*
X61203265Y-515405453D01*
X61536598Y-515691167D02*
X61727074Y-516357833D01*
X61917550Y-515881643D01*
X62108027Y-516357833D01*
X62298503Y-515691167D01*
X62584217Y-515357833D02*
X62822312Y-516357833D01*
X63012789Y-515643548D01*
X63203265Y-516357833D01*
X63441360Y-515357833D01*
X41677074Y-570570332D02*
X41677074Y-569570332D01*
X42010408Y-570284618D01*
X42343741Y-569570332D01*
X42343741Y-570570332D01*
X42724693Y-569570332D02*
X43391360Y-570570332D01*
X43391360Y-569570332D02*
X42724693Y-570570332D01*
X44200884Y-569570332D02*
X44010408Y-569570332D01*
X43915169Y-569617952D01*
X43867550Y-569665571D01*
X43772312Y-569808428D01*
X43724693Y-569998904D01*
X43724693Y-570379856D01*
X43772312Y-570475094D01*
X43819931Y-570522713D01*
X43915169Y-570570332D01*
X44105646Y-570570332D01*
X44200884Y-570522713D01*
X44248503Y-570475094D01*
X44296122Y-570379856D01*
X44296122Y-570141761D01*
X44248503Y-570046523D01*
X44200884Y-569998904D01*
X44105646Y-569951285D01*
X43915169Y-569951285D01*
X43819931Y-569998904D01*
X43772312Y-570046523D01*
X43724693Y-570141761D01*
X41677074Y-559410213D02*
X41819931Y-559457832D01*
X42058027Y-559457832D01*
X42153265Y-559410213D01*
X42200884Y-559362594D01*
X42248503Y-559267356D01*
X42248503Y-559172118D01*
X42200884Y-559076880D01*
X42153265Y-559029261D01*
X42058027Y-558981642D01*
X41867550Y-558934023D01*
X41772312Y-558886404D01*
X41724693Y-558838785D01*
X41677074Y-558743547D01*
X41677074Y-558648309D01*
X41724693Y-558553071D01*
X41772312Y-558505452D01*
X41867550Y-558457832D01*
X42105646Y-558457832D01*
X42248503Y-558505452D01*
X42581836Y-558791166D02*
X42772312Y-559457832D01*
X42962789Y-558981642D01*
X43153265Y-559457832D01*
X43343741Y-558791166D01*
X43629455Y-558457832D02*
X44296122Y-558457832D01*
X43629455Y-559457832D01*
X44296122Y-559457832D01*
X22627074Y-560220332D02*
X22627074Y-559220332D01*
X22960408Y-559934618D01*
X23293741Y-559220332D01*
X23293741Y-560220332D01*
X23674693Y-559220332D02*
X24341360Y-560220332D01*
X24341360Y-559220332D02*
X23674693Y-560220332D01*
X24627074Y-559220332D02*
X25246122Y-559220332D01*
X24912789Y-559601285D01*
X25055646Y-559601285D01*
X25150884Y-559648904D01*
X25198503Y-559696523D01*
X25246122Y-559791761D01*
X25246122Y-560029856D01*
X25198503Y-560125094D01*
X25150884Y-560172713D01*
X25055646Y-560220332D01*
X24769931Y-560220332D01*
X24674693Y-560172713D01*
X24627074Y-560125094D01*
X21412789Y-571285213D02*
X21555646Y-571332832D01*
X21793741Y-571332832D01*
X21888979Y-571285213D01*
X21936598Y-571237594D01*
X21984217Y-571142356D01*
X21984217Y-571047118D01*
X21936598Y-570951880D01*
X21888979Y-570904261D01*
X21793741Y-570856642D01*
X21603265Y-570809023D01*
X21508027Y-570761404D01*
X21460408Y-570713785D01*
X21412789Y-570618547D01*
X21412789Y-570523309D01*
X21460408Y-570428071D01*
X21508027Y-570380452D01*
X21603265Y-570332832D01*
X21841360Y-570332832D01*
X21984217Y-570380452D01*
X22317550Y-570666166D02*
X22508027Y-571332832D01*
X22698503Y-570856642D01*
X22888979Y-571332832D01*
X23079455Y-570666166D01*
X23936598Y-571332832D02*
X23460408Y-571332832D01*
X23460408Y-570332832D01*
X24841360Y-571237594D02*
X24793741Y-571285213D01*
X24650884Y-571332832D01*
X24555646Y-571332832D01*
X24412789Y-571285213D01*
X24317550Y-571189975D01*
X24269931Y-571094737D01*
X24222312Y-570904261D01*
X24222312Y-570761404D01*
X24269931Y-570570928D01*
X24317550Y-570475690D01*
X24412789Y-570380452D01*
X24555646Y-570332832D01*
X24650884Y-570332832D01*
X24793741Y-570380452D01*
X24841360Y-570428071D01*
X25127074Y-570332832D02*
X25698503Y-570332832D01*
X25412789Y-571332832D02*
X25412789Y-570332832D01*
X26508027Y-571332832D02*
X26031836Y-571332832D01*
X26031836Y-570332832D01*
X22627075Y-547520332D02*
X22627075Y-546520332D01*
X22960409Y-547234618D01*
X23293742Y-546520332D01*
X23293742Y-547520332D01*
X23674694Y-546520332D02*
X24341361Y-547520332D01*
X24341361Y-546520332D02*
X23674694Y-547520332D01*
X24674694Y-546615571D02*
X24722313Y-546567952D01*
X24817551Y-546520332D01*
X25055647Y-546520332D01*
X25150885Y-546567952D01*
X25198504Y-546615571D01*
X25246123Y-546710809D01*
X25246123Y-546806047D01*
X25198504Y-546948904D01*
X24627075Y-547520332D01*
X25246123Y-547520332D01*
X21793742Y-536360213D02*
X21936599Y-536407832D01*
X22174694Y-536407832D01*
X22269932Y-536360213D01*
X22317551Y-536312594D01*
X22365170Y-536217356D01*
X22365170Y-536122118D01*
X22317551Y-536026880D01*
X22269932Y-535979261D01*
X22174694Y-535931642D01*
X21984218Y-535884023D01*
X21888980Y-535836404D01*
X21841361Y-535788785D01*
X21793742Y-535693547D01*
X21793742Y-535598309D01*
X21841361Y-535503071D01*
X21888980Y-535455452D01*
X21984218Y-535407832D01*
X22222313Y-535407832D01*
X22365170Y-535455452D01*
X22698504Y-535741166D02*
X22888980Y-536407832D01*
X23079456Y-535931642D01*
X23269932Y-536407832D01*
X23460409Y-535741166D01*
X23698504Y-535407832D02*
X24269932Y-535407832D01*
X23984218Y-536407832D02*
X23984218Y-535407832D01*
X24555647Y-536122118D02*
X25031837Y-536122118D01*
X24460409Y-536407832D02*
X24793742Y-535407832D01*
X25127075Y-536407832D01*
X25793742Y-535884023D02*
X25936599Y-535931642D01*
X25984218Y-535979261D01*
X26031837Y-536074499D01*
X26031837Y-536217356D01*
X25984218Y-536312594D01*
X25936599Y-536360213D01*
X25841361Y-536407832D01*
X25460409Y-536407832D01*
X25460409Y-535407832D01*
X25793742Y-535407832D01*
X25888980Y-535455452D01*
X25936599Y-535503071D01*
X25984218Y-535598309D01*
X25984218Y-535693547D01*
X25936599Y-535788785D01*
X25888980Y-535836404D01*
X25793742Y-535884023D01*
X25460409Y-535884023D01*
X22627074Y-528470333D02*
X22627074Y-527470333D01*
X22960408Y-528184619D01*
X23293741Y-527470333D01*
X23293741Y-528470333D01*
X23674693Y-527470333D02*
X24341360Y-528470333D01*
X24341360Y-527470333D02*
X23674693Y-528470333D01*
X25246122Y-528470333D02*
X24674693Y-528470333D01*
X24960408Y-528470333D02*
X24960408Y-527470333D01*
X24865169Y-527613191D01*
X24769931Y-527708429D01*
X24674693Y-527756048D01*
X21674693Y-517310214D02*
X21817550Y-517357833D01*
X22055646Y-517357833D01*
X22150884Y-517310214D01*
X22198503Y-517262595D01*
X22246122Y-517167357D01*
X22246122Y-517072119D01*
X22198503Y-516976881D01*
X22150884Y-516929262D01*
X22055646Y-516881643D01*
X21865169Y-516834024D01*
X21769931Y-516786405D01*
X21722312Y-516738786D01*
X21674693Y-516643548D01*
X21674693Y-516548310D01*
X21722312Y-516453072D01*
X21769931Y-516405453D01*
X21865169Y-516357833D01*
X22103265Y-516357833D01*
X22246122Y-516405453D01*
X22579455Y-516691167D02*
X22769931Y-517357833D01*
X22960408Y-516881643D01*
X23150884Y-517357833D01*
X23341360Y-516691167D01*
X23722312Y-516834024D02*
X24055646Y-516834024D01*
X24198503Y-517357833D02*
X23722312Y-517357833D01*
X23722312Y-516357833D01*
X24198503Y-516357833D01*
X24579455Y-517310214D02*
X24722312Y-517357833D01*
X24960408Y-517357833D01*
X25055646Y-517310214D01*
X25103265Y-517262595D01*
X25150884Y-517167357D01*
X25150884Y-517072119D01*
X25103265Y-516976881D01*
X25055646Y-516929262D01*
X24960408Y-516881643D01*
X24769931Y-516834024D01*
X24674693Y-516786405D01*
X24627074Y-516738786D01*
X24579455Y-516643548D01*
X24579455Y-516548310D01*
X24627074Y-516453072D01*
X24674693Y-516405453D01*
X24769931Y-516357833D01*
X25008027Y-516357833D01*
X25150884Y-516405453D01*
X26150884Y-517262595D02*
X26103265Y-517310214D01*
X25960408Y-517357833D01*
X25865169Y-517357833D01*
X25722312Y-517310214D01*
X25627074Y-517214976D01*
X25579455Y-517119738D01*
X25531836Y-516929262D01*
X25531836Y-516786405D01*
X25579455Y-516595929D01*
X25627074Y-516500691D01*
X25722312Y-516405453D01*
X25865169Y-516357833D01*
X25960408Y-516357833D01*
X26103265Y-516405453D01*
X26150884Y-516453072D01*
M02*
