%FSLAX45Y45*%
G04 Gerber Fmt 4.5, Leading zero omitted, Abs format (unit mm)*
G04 Created by KiCad (PCBNEW (5.1.4)-1) date 2023-05-18 17:29:43*
%MOMM*%
%LPD*%
G04 APERTURE LIST*
%ADD10C,0.050000*%
%ADD11C,0.200000*%
%ADD12C,0.300000*%
G04 APERTURE END LIST*
D10*
X3388000Y-54152000D02*
X3388000Y-55454000D01*
X3288000Y-54152000D02*
G75*
G02X3388000Y-54152000I50000J0D01*
G01*
X3288000Y-54152000D02*
X3288000Y-55454000D01*
X3388000Y-51624000D02*
G75*
G02X3288000Y-51624000I-50000J0D01*
G01*
X3288000Y-50322000D02*
X3288000Y-51624000D01*
X3288000Y-52242000D02*
X3288000Y-53544000D01*
X3388000Y-52242000D02*
X3388000Y-53544000D01*
X3288000Y-50322000D02*
G75*
G02X3388000Y-50322000I50000J0D01*
G01*
X3388000Y-53544000D02*
G75*
G02X3288000Y-53544000I-50000J0D01*
G01*
X3288000Y-52242000D02*
G75*
G02X3388000Y-52242000I50000J0D01*
G01*
X3388000Y-55454000D02*
G75*
G02X3288000Y-55454000I-50000J0D01*
G01*
X3388000Y-50322000D02*
X3388000Y-51624000D01*
X3413000Y-57018000D02*
G75*
G02X3313000Y-57018000I-50000J0D01*
G01*
X3313000Y-56018000D02*
G75*
G02X3413000Y-56018000I50000J0D01*
G01*
X3413000Y-56018000D02*
X3413000Y-57018000D01*
X3313000Y-56018000D02*
X3313000Y-57018000D01*
X1426279Y-56939295D02*
X1426279Y-49964295D01*
X12784480Y-49929016D02*
X12786421Y-58621812D01*
X5216279Y-57929295D02*
X4816279Y-57654295D01*
X1916279Y-57239295D02*
X1736279Y-57239295D01*
X1736279Y-49624295D02*
X1916279Y-49624295D01*
X10018000Y-54698000D02*
G75*
G03X10018000Y-54698000I-480000J0D01*
G01*
X9908000Y-52883000D02*
G75*
G03X9908000Y-52883000I-325000J0D01*
G01*
X5216279Y-57929295D02*
X5216279Y-58639295D01*
X6276279Y-58759295D02*
X6296279Y-58759295D01*
X12678419Y-60143040D02*
X11756279Y-60229295D01*
X12678419Y-60143040D02*
X12966232Y-59066860D01*
X3621279Y-57654295D02*
X3226279Y-57239295D01*
X12786421Y-58621812D02*
X12966232Y-59066860D01*
X6696279Y-49539295D02*
X7191279Y-49064295D01*
X5341279Y-49539295D02*
X5256279Y-49624295D01*
X12784480Y-49929016D02*
X12566279Y-49714295D01*
X8846279Y-49064295D02*
X7191279Y-49064295D01*
X3206279Y-57239295D02*
X3226279Y-57239295D01*
X9516279Y-49714295D02*
X12566279Y-49714295D01*
X1426279Y-56939295D02*
X1736279Y-57239295D01*
X8846279Y-49064295D02*
X9516279Y-49714295D01*
X6696279Y-49539295D02*
X5341279Y-49539295D01*
X3206279Y-57239295D02*
X1916279Y-57239295D01*
X3621279Y-57654295D02*
X4816279Y-57654295D01*
X5216279Y-58639295D02*
X5356279Y-58759295D01*
X6276279Y-58759295D02*
X5356279Y-58759295D01*
X1736279Y-49624295D02*
X1426279Y-49964295D01*
X11756279Y-60229295D02*
X6296279Y-58759295D01*
X1916279Y-49624295D02*
X5256279Y-49624295D01*
D11*
X3700779Y-52796795D02*
X3875779Y-52971795D01*
X3875779Y-52796795D02*
X3700779Y-52971795D01*
X4716779Y-52796795D02*
X4891779Y-52971795D01*
X4891779Y-52796795D02*
X4716779Y-52971795D01*
X7510779Y-53701795D02*
X7685779Y-53876795D01*
X7685779Y-53701795D02*
X7510779Y-53876795D01*
X8526779Y-53701795D02*
X8701779Y-53876795D01*
X8701779Y-53701795D02*
X8526779Y-53876795D01*
X5605779Y-52296795D02*
X5780779Y-52471795D01*
X5780779Y-52296795D02*
X5605779Y-52471795D01*
X6621779Y-52296795D02*
X6796779Y-52471795D01*
X6796779Y-52296795D02*
X6621779Y-52471795D01*
X1795779Y-56206795D02*
X1970779Y-56381795D01*
X1970779Y-56206795D02*
X1795779Y-56381795D01*
X2811779Y-56206795D02*
X2986779Y-56381795D01*
X2986779Y-56206795D02*
X2811779Y-56381795D01*
X3700779Y-56606795D02*
X3875779Y-56781795D01*
X3875779Y-56606795D02*
X3700779Y-56781795D01*
X4716779Y-56606795D02*
X4891779Y-56781795D01*
X4891779Y-56606795D02*
X4716779Y-56781795D01*
X3700779Y-54701795D02*
X3875779Y-54876795D01*
X3875779Y-54701795D02*
X3700779Y-54876795D01*
X4716779Y-54701795D02*
X4891779Y-54876795D01*
X4891779Y-54701795D02*
X4716779Y-54876795D01*
X7510779Y-49890500D02*
X7685779Y-50065500D01*
X7685779Y-49890500D02*
X7510779Y-50065500D01*
X8526779Y-49890500D02*
X8701779Y-50065500D01*
X8701779Y-49890500D02*
X8526779Y-50065500D01*
X5605779Y-50390500D02*
X5780779Y-50565500D01*
X5780779Y-50390500D02*
X5605779Y-50565500D01*
X6621779Y-50390500D02*
X6796779Y-50565500D01*
X6796779Y-50390500D02*
X6621779Y-50565500D01*
X7510779Y-51796795D02*
X7685779Y-51971795D01*
X7685779Y-51796795D02*
X7510779Y-51971795D01*
X8526779Y-51796795D02*
X8701779Y-51971795D01*
X8701779Y-51796795D02*
X8526779Y-51971795D01*
X5605779Y-56106795D02*
X5780779Y-56281795D01*
X5780779Y-56106795D02*
X5605779Y-56281795D01*
X6621779Y-56106795D02*
X6796779Y-56281795D01*
X6796779Y-56106795D02*
X6621779Y-56281795D01*
X1795779Y-52396795D02*
X1970779Y-52571795D01*
X1970779Y-52396795D02*
X1795779Y-52571795D01*
X2811779Y-52396795D02*
X2986779Y-52571795D01*
X2986779Y-52396795D02*
X2811779Y-52571795D01*
X7510779Y-55606795D02*
X7685779Y-55781795D01*
X7685779Y-55606795D02*
X7510779Y-55781795D01*
X8526779Y-55606795D02*
X8701779Y-55781795D01*
X8701779Y-55606795D02*
X8526779Y-55781795D01*
X3700779Y-50890500D02*
X3875779Y-51065500D01*
X3875779Y-50890500D02*
X3700779Y-51065500D01*
X4716779Y-50890500D02*
X4891779Y-51065500D01*
X4891779Y-50890500D02*
X4716779Y-51065500D01*
X5605779Y-54201795D02*
X5780779Y-54376795D01*
X5780779Y-54201795D02*
X5605779Y-54376795D01*
X6621779Y-54201795D02*
X6796779Y-54376795D01*
X6796779Y-54201795D02*
X6621779Y-54376795D01*
X1795779Y-54301795D02*
X1970779Y-54476795D01*
X1970779Y-54301795D02*
X1795779Y-54476795D01*
X2811779Y-54301795D02*
X2986779Y-54476795D01*
X2986779Y-54301795D02*
X2811779Y-54476795D01*
X1795779Y-50490500D02*
X1970779Y-50665500D01*
X1970779Y-50490500D02*
X1795779Y-50665500D01*
X2811779Y-50490500D02*
X2986779Y-50665500D01*
X2986779Y-50490500D02*
X2811779Y-50665500D01*
X2287279Y-51086000D02*
G75*
G03X2287279Y-51086000I-150000J0D01*
G01*
X2922279Y-50832000D02*
G75*
G03X2922279Y-50832000I-150000J0D01*
G01*
X4192279Y-53392295D02*
G75*
G03X4192279Y-53392295I-150000J0D01*
G01*
X4827279Y-53138295D02*
G75*
G03X4827279Y-53138295I-150000J0D01*
G01*
X8002279Y-54297295D02*
G75*
G03X8002279Y-54297295I-150000J0D01*
G01*
X8637279Y-54043295D02*
G75*
G03X8637279Y-54043295I-150000J0D01*
G01*
X6097279Y-52892295D02*
G75*
G03X6097279Y-52892295I-150000J0D01*
G01*
X6732279Y-52638295D02*
G75*
G03X6732279Y-52638295I-150000J0D01*
G01*
X2160279Y-56040295D02*
G75*
G03X2160279Y-56040295I-150000J0D01*
G01*
X2795279Y-55786295D02*
G75*
G03X2795279Y-55786295I-150000J0D01*
G01*
X4192279Y-57202295D02*
G75*
G03X4192279Y-57202295I-150000J0D01*
G01*
X4827279Y-56948295D02*
G75*
G03X4827279Y-56948295I-150000J0D01*
G01*
X4192279Y-55297295D02*
G75*
G03X4192279Y-55297295I-150000J0D01*
G01*
X4827279Y-55043295D02*
G75*
G03X4827279Y-55043295I-150000J0D01*
G01*
X8002279Y-50486000D02*
G75*
G03X8002279Y-50486000I-150000J0D01*
G01*
X8637279Y-50232000D02*
G75*
G03X8637279Y-50232000I-150000J0D01*
G01*
X6097279Y-50986000D02*
G75*
G03X6097279Y-50986000I-150000J0D01*
G01*
X6732279Y-50732000D02*
G75*
G03X6732279Y-50732000I-150000J0D01*
G01*
X8002279Y-52392295D02*
G75*
G03X8002279Y-52392295I-150000J0D01*
G01*
X8637279Y-52138295D02*
G75*
G03X8637279Y-52138295I-150000J0D01*
G01*
X6097279Y-56702295D02*
G75*
G03X6097279Y-56702295I-150000J0D01*
G01*
X6732279Y-56448295D02*
G75*
G03X6732279Y-56448295I-150000J0D01*
G01*
X2287279Y-52992295D02*
G75*
G03X2287279Y-52992295I-150000J0D01*
G01*
X2922279Y-52738295D02*
G75*
G03X2922279Y-52738295I-150000J0D01*
G01*
X8002279Y-56202295D02*
G75*
G03X8002279Y-56202295I-150000J0D01*
G01*
X8637279Y-55948295D02*
G75*
G03X8637279Y-55948295I-150000J0D01*
G01*
X4192279Y-51486000D02*
G75*
G03X4192279Y-51486000I-150000J0D01*
G01*
X4827279Y-51232000D02*
G75*
G03X4827279Y-51232000I-150000J0D01*
G01*
X6097279Y-54797295D02*
G75*
G03X6097279Y-54797295I-150000J0D01*
G01*
X6732279Y-54543295D02*
G75*
G03X6732279Y-54543295I-150000J0D01*
G01*
X2287279Y-54897295D02*
G75*
G03X2287279Y-54897295I-150000J0D01*
G01*
X2922279Y-54643295D02*
G75*
G03X2922279Y-54643295I-150000J0D01*
G01*
X8106279Y-55494905D02*
X8106279Y-55893685D01*
X7906889Y-55694295D02*
X8305669Y-55694295D01*
X4296279Y-50778610D02*
X4296279Y-51177390D01*
X4096889Y-50978000D02*
X4495669Y-50978000D01*
X6201279Y-54089905D02*
X6201279Y-54488685D01*
X6001889Y-54289295D02*
X6400669Y-54289295D01*
X2391279Y-54189905D02*
X2391279Y-54588685D01*
X2191889Y-54389295D02*
X2590669Y-54389295D01*
X2391279Y-50378610D02*
X2391279Y-50777390D01*
X2191889Y-50578000D02*
X2590669Y-50578000D01*
X4296279Y-52684905D02*
X4296279Y-53083685D01*
X4096889Y-52884295D02*
X4495669Y-52884295D01*
X8106279Y-53589905D02*
X8106279Y-53988685D01*
X7906889Y-53789295D02*
X8305669Y-53789295D01*
X6201279Y-52184905D02*
X6201279Y-52583685D01*
X6001889Y-52384295D02*
X6400669Y-52384295D01*
X2391279Y-56094905D02*
X2391279Y-56493685D01*
X2191889Y-56294295D02*
X2590669Y-56294295D01*
X4296279Y-56494905D02*
X4296279Y-56893685D01*
X4096889Y-56694295D02*
X4495669Y-56694295D01*
X4296279Y-54589905D02*
X4296279Y-54988685D01*
X4096889Y-54789295D02*
X4495669Y-54789295D01*
X8106279Y-49778610D02*
X8106279Y-50177390D01*
X7906889Y-49978000D02*
X8305669Y-49978000D01*
X6201279Y-50278610D02*
X6201279Y-50677390D01*
X6001889Y-50478000D02*
X6400669Y-50478000D01*
X8106279Y-51684905D02*
X8106279Y-52083685D01*
X7906889Y-51884295D02*
X8305669Y-51884295D01*
X6201279Y-55994905D02*
X6201279Y-56393685D01*
X6001889Y-56194295D02*
X6400669Y-56194295D01*
X2391279Y-52284905D02*
X2391279Y-52683685D01*
X2191889Y-52484295D02*
X2590669Y-52484295D01*
D12*
X1710207Y-60697509D02*
X1710207Y-60397509D01*
X1781636Y-60397509D01*
X1824493Y-60411795D01*
X1853064Y-60440367D01*
X1867350Y-60468938D01*
X1881636Y-60526081D01*
X1881636Y-60568938D01*
X1867350Y-60626081D01*
X1853064Y-60654652D01*
X1824493Y-60683224D01*
X1781636Y-60697509D01*
X1710207Y-60697509D01*
X2010207Y-60697509D02*
X2010207Y-60497509D01*
X2010207Y-60554652D02*
X2024493Y-60526081D01*
X2038779Y-60511795D01*
X2067350Y-60497509D01*
X2095922Y-60497509D01*
X2195922Y-60697509D02*
X2195922Y-60497509D01*
X2195922Y-60397509D02*
X2181636Y-60411795D01*
X2195922Y-60426081D01*
X2210207Y-60411795D01*
X2195922Y-60397509D01*
X2195922Y-60426081D01*
X2381636Y-60697509D02*
X2353065Y-60683224D01*
X2338779Y-60654652D01*
X2338779Y-60397509D01*
X2538779Y-60697509D02*
X2510207Y-60683224D01*
X2495922Y-60654652D01*
X2495922Y-60397509D01*
X2881636Y-60697509D02*
X2881636Y-60397509D01*
X2981636Y-60611795D01*
X3081636Y-60397509D01*
X3081636Y-60697509D01*
X3353064Y-60697509D02*
X3353064Y-60540367D01*
X3338779Y-60511795D01*
X3310207Y-60497509D01*
X3253064Y-60497509D01*
X3224493Y-60511795D01*
X3353064Y-60683224D02*
X3324493Y-60697509D01*
X3253064Y-60697509D01*
X3224493Y-60683224D01*
X3210207Y-60654652D01*
X3210207Y-60626081D01*
X3224493Y-60597509D01*
X3253064Y-60583224D01*
X3324493Y-60583224D01*
X3353064Y-60568938D01*
X3495922Y-60497509D02*
X3495922Y-60797509D01*
X3495922Y-60511795D02*
X3524493Y-60497509D01*
X3581636Y-60497509D01*
X3610207Y-60511795D01*
X3624493Y-60526081D01*
X3638779Y-60554652D01*
X3638779Y-60640367D01*
X3624493Y-60668938D01*
X3610207Y-60683224D01*
X3581636Y-60697509D01*
X3524493Y-60697509D01*
X3495922Y-60683224D01*
X3767350Y-60668938D02*
X3781636Y-60683224D01*
X3767350Y-60697509D01*
X3753064Y-60683224D01*
X3767350Y-60668938D01*
X3767350Y-60697509D01*
X3767350Y-60511795D02*
X3781636Y-60526081D01*
X3767350Y-60540367D01*
X3753064Y-60526081D01*
X3767350Y-60511795D01*
X3767350Y-60540367D01*
X1248779Y-61104295D02*
X1423779Y-61279295D01*
X1423779Y-61104295D02*
X1248779Y-61279295D01*
X1867350Y-61327509D02*
X1695922Y-61327509D01*
X1781636Y-61327509D02*
X1781636Y-61027509D01*
X1753064Y-61070367D01*
X1724493Y-61098938D01*
X1695922Y-61113224D01*
X1995922Y-61298938D02*
X2010207Y-61313224D01*
X1995922Y-61327509D01*
X1981636Y-61313224D01*
X1995922Y-61298938D01*
X1995922Y-61327509D01*
X2110207Y-61027509D02*
X2310207Y-61027509D01*
X2181636Y-61327509D01*
X2567350Y-61027509D02*
X2424493Y-61027509D01*
X2410207Y-61170367D01*
X2424493Y-61156081D01*
X2453065Y-61141795D01*
X2524493Y-61141795D01*
X2553065Y-61156081D01*
X2567350Y-61170367D01*
X2581636Y-61198938D01*
X2581636Y-61270367D01*
X2567350Y-61298938D01*
X2553065Y-61313224D01*
X2524493Y-61327509D01*
X2453065Y-61327509D01*
X2424493Y-61313224D01*
X2410207Y-61298938D01*
X2710207Y-61327509D02*
X2710207Y-61127509D01*
X2710207Y-61156081D02*
X2724493Y-61141795D01*
X2753065Y-61127509D01*
X2795922Y-61127509D01*
X2824493Y-61141795D01*
X2838779Y-61170367D01*
X2838779Y-61327509D01*
X2838779Y-61170367D02*
X2853064Y-61141795D01*
X2881636Y-61127509D01*
X2924493Y-61127509D01*
X2953064Y-61141795D01*
X2967350Y-61170367D01*
X2967350Y-61327509D01*
X3110207Y-61327509D02*
X3110207Y-61127509D01*
X3110207Y-61156081D02*
X3124493Y-61141795D01*
X3153064Y-61127509D01*
X3195922Y-61127509D01*
X3224493Y-61141795D01*
X3238779Y-61170367D01*
X3238779Y-61327509D01*
X3238779Y-61170367D02*
X3253064Y-61141795D01*
X3281636Y-61127509D01*
X3324493Y-61127509D01*
X3353064Y-61141795D01*
X3367350Y-61170367D01*
X3367350Y-61327509D01*
X3953064Y-61013224D02*
X3695922Y-61398938D01*
X4338779Y-61027509D02*
X4367350Y-61027509D01*
X4395922Y-61041795D01*
X4410207Y-61056081D01*
X4424493Y-61084652D01*
X4438779Y-61141795D01*
X4438779Y-61213224D01*
X4424493Y-61270367D01*
X4410207Y-61298938D01*
X4395922Y-61313224D01*
X4367350Y-61327509D01*
X4338779Y-61327509D01*
X4310207Y-61313224D01*
X4295922Y-61298938D01*
X4281636Y-61270367D01*
X4267350Y-61213224D01*
X4267350Y-61141795D01*
X4281636Y-61084652D01*
X4295922Y-61056081D01*
X4310207Y-61041795D01*
X4338779Y-61027509D01*
X4567350Y-61298938D02*
X4581636Y-61313224D01*
X4567350Y-61327509D01*
X4553065Y-61313224D01*
X4567350Y-61298938D01*
X4567350Y-61327509D01*
X4767350Y-61027509D02*
X4795922Y-61027509D01*
X4824493Y-61041795D01*
X4838779Y-61056081D01*
X4853065Y-61084652D01*
X4867350Y-61141795D01*
X4867350Y-61213224D01*
X4853065Y-61270367D01*
X4838779Y-61298938D01*
X4824493Y-61313224D01*
X4795922Y-61327509D01*
X4767350Y-61327509D01*
X4738779Y-61313224D01*
X4724493Y-61298938D01*
X4710207Y-61270367D01*
X4695922Y-61213224D01*
X4695922Y-61141795D01*
X4710207Y-61084652D01*
X4724493Y-61056081D01*
X4738779Y-61041795D01*
X4767350Y-61027509D01*
X5124493Y-61027509D02*
X5067350Y-61027509D01*
X5038779Y-61041795D01*
X5024493Y-61056081D01*
X4995922Y-61098938D01*
X4981636Y-61156081D01*
X4981636Y-61270367D01*
X4995922Y-61298938D01*
X5010207Y-61313224D01*
X5038779Y-61327509D01*
X5095922Y-61327509D01*
X5124493Y-61313224D01*
X5138779Y-61298938D01*
X5153065Y-61270367D01*
X5153065Y-61198938D01*
X5138779Y-61170367D01*
X5124493Y-61156081D01*
X5095922Y-61141795D01*
X5038779Y-61141795D01*
X5010207Y-61156081D01*
X4995922Y-61170367D01*
X4981636Y-61198938D01*
X5295922Y-61327509D02*
X5353065Y-61327509D01*
X5381636Y-61313224D01*
X5395922Y-61298938D01*
X5424493Y-61256081D01*
X5438779Y-61198938D01*
X5438779Y-61084652D01*
X5424493Y-61056081D01*
X5410207Y-61041795D01*
X5381636Y-61027509D01*
X5324493Y-61027509D01*
X5295922Y-61041795D01*
X5281636Y-61056081D01*
X5267350Y-61084652D01*
X5267350Y-61156081D01*
X5281636Y-61184652D01*
X5295922Y-61198938D01*
X5324493Y-61213224D01*
X5381636Y-61213224D01*
X5410207Y-61198938D01*
X5424493Y-61184652D01*
X5438779Y-61156081D01*
X5553065Y-61027509D02*
X5553065Y-61084652D01*
X5667350Y-61027509D02*
X5667350Y-61084652D01*
X6110207Y-61441795D02*
X6095922Y-61427509D01*
X6067350Y-61384652D01*
X6053064Y-61356081D01*
X6038779Y-61313224D01*
X6024493Y-61241795D01*
X6024493Y-61184652D01*
X6038779Y-61113224D01*
X6053064Y-61070367D01*
X6067350Y-61041795D01*
X6095922Y-60998938D01*
X6110207Y-60984652D01*
X6195922Y-61027509D02*
X6381636Y-61027509D01*
X6281636Y-61141795D01*
X6324493Y-61141795D01*
X6353064Y-61156081D01*
X6367350Y-61170367D01*
X6381636Y-61198938D01*
X6381636Y-61270367D01*
X6367350Y-61298938D01*
X6353064Y-61313224D01*
X6324493Y-61327509D01*
X6238779Y-61327509D01*
X6210207Y-61313224D01*
X6195922Y-61298938D01*
X6495922Y-61056081D02*
X6510207Y-61041795D01*
X6538779Y-61027509D01*
X6610207Y-61027509D01*
X6638779Y-61041795D01*
X6653064Y-61056081D01*
X6667350Y-61084652D01*
X6667350Y-61113224D01*
X6653064Y-61156081D01*
X6481636Y-61327509D01*
X6667350Y-61327509D01*
X7024493Y-61327509D02*
X7024493Y-61027509D01*
X7153064Y-61327509D02*
X7153064Y-61170367D01*
X7138779Y-61141795D01*
X7110207Y-61127509D01*
X7067350Y-61127509D01*
X7038779Y-61141795D01*
X7024493Y-61156081D01*
X7338779Y-61327509D02*
X7310207Y-61313224D01*
X7295922Y-61298938D01*
X7281636Y-61270367D01*
X7281636Y-61184652D01*
X7295922Y-61156081D01*
X7310207Y-61141795D01*
X7338779Y-61127509D01*
X7381636Y-61127509D01*
X7410207Y-61141795D01*
X7424493Y-61156081D01*
X7438779Y-61184652D01*
X7438779Y-61270367D01*
X7424493Y-61298938D01*
X7410207Y-61313224D01*
X7381636Y-61327509D01*
X7338779Y-61327509D01*
X7610207Y-61327509D02*
X7581636Y-61313224D01*
X7567350Y-61284652D01*
X7567350Y-61027509D01*
X7838779Y-61313224D02*
X7810207Y-61327509D01*
X7753064Y-61327509D01*
X7724493Y-61313224D01*
X7710207Y-61284652D01*
X7710207Y-61170367D01*
X7724493Y-61141795D01*
X7753064Y-61127509D01*
X7810207Y-61127509D01*
X7838779Y-61141795D01*
X7853064Y-61170367D01*
X7853064Y-61198938D01*
X7710207Y-61227509D01*
X7967350Y-61313224D02*
X7995922Y-61327509D01*
X8053064Y-61327509D01*
X8081636Y-61313224D01*
X8095922Y-61284652D01*
X8095922Y-61270367D01*
X8081636Y-61241795D01*
X8053064Y-61227509D01*
X8010207Y-61227509D01*
X7981636Y-61213224D01*
X7967350Y-61184652D01*
X7967350Y-61170367D01*
X7981636Y-61141795D01*
X8010207Y-61127509D01*
X8053064Y-61127509D01*
X8081636Y-61141795D01*
X8195922Y-61441795D02*
X8210207Y-61427509D01*
X8238779Y-61384652D01*
X8253064Y-61356081D01*
X8267350Y-61313224D01*
X8281636Y-61241795D01*
X8281636Y-61184652D01*
X8267350Y-61113224D01*
X8253064Y-61070367D01*
X8238779Y-61041795D01*
X8210207Y-60998938D01*
X8195922Y-60984652D01*
X8738779Y-61441795D02*
X8724493Y-61427509D01*
X8695922Y-61384652D01*
X8681636Y-61356081D01*
X8667350Y-61313224D01*
X8653065Y-61241795D01*
X8653065Y-61184652D01*
X8667350Y-61113224D01*
X8681636Y-61070367D01*
X8695922Y-61041795D01*
X8724493Y-60998938D01*
X8738779Y-60984652D01*
X8853065Y-61127509D02*
X8853065Y-61327509D01*
X8853065Y-61156081D02*
X8867350Y-61141795D01*
X8895922Y-61127509D01*
X8938779Y-61127509D01*
X8967350Y-61141795D01*
X8981636Y-61170367D01*
X8981636Y-61327509D01*
X9167350Y-61327509D02*
X9138779Y-61313224D01*
X9124493Y-61298938D01*
X9110207Y-61270367D01*
X9110207Y-61184652D01*
X9124493Y-61156081D01*
X9138779Y-61141795D01*
X9167350Y-61127509D01*
X9210207Y-61127509D01*
X9238779Y-61141795D01*
X9253065Y-61156081D01*
X9267350Y-61184652D01*
X9267350Y-61270367D01*
X9253065Y-61298938D01*
X9238779Y-61313224D01*
X9210207Y-61327509D01*
X9167350Y-61327509D01*
X9353065Y-61127509D02*
X9467350Y-61127509D01*
X9395922Y-61027509D02*
X9395922Y-61284652D01*
X9410207Y-61313224D01*
X9438779Y-61327509D01*
X9467350Y-61327509D01*
X9795922Y-61127509D02*
X9795922Y-61427509D01*
X9795922Y-61141795D02*
X9824493Y-61127509D01*
X9881636Y-61127509D01*
X9910207Y-61141795D01*
X9924493Y-61156081D01*
X9938779Y-61184652D01*
X9938779Y-61270367D01*
X9924493Y-61298938D01*
X9910207Y-61313224D01*
X9881636Y-61327509D01*
X9824493Y-61327509D01*
X9795922Y-61313224D01*
X10110207Y-61327509D02*
X10081636Y-61313224D01*
X10067350Y-61284652D01*
X10067350Y-61027509D01*
X10353065Y-61327509D02*
X10353065Y-61170367D01*
X10338779Y-61141795D01*
X10310207Y-61127509D01*
X10253065Y-61127509D01*
X10224493Y-61141795D01*
X10353065Y-61313224D02*
X10324493Y-61327509D01*
X10253065Y-61327509D01*
X10224493Y-61313224D01*
X10210207Y-61284652D01*
X10210207Y-61256081D01*
X10224493Y-61227509D01*
X10253065Y-61213224D01*
X10324493Y-61213224D01*
X10353065Y-61198938D01*
X10453065Y-61127509D02*
X10567350Y-61127509D01*
X10495922Y-61027509D02*
X10495922Y-61284652D01*
X10510207Y-61313224D01*
X10538779Y-61327509D01*
X10567350Y-61327509D01*
X10781636Y-61313224D02*
X10753065Y-61327509D01*
X10695922Y-61327509D01*
X10667350Y-61313224D01*
X10653065Y-61284652D01*
X10653065Y-61170367D01*
X10667350Y-61141795D01*
X10695922Y-61127509D01*
X10753065Y-61127509D01*
X10781636Y-61141795D01*
X10795922Y-61170367D01*
X10795922Y-61198938D01*
X10653065Y-61227509D01*
X11053065Y-61327509D02*
X11053065Y-61027509D01*
X11053065Y-61313224D02*
X11024493Y-61327509D01*
X10967350Y-61327509D01*
X10938779Y-61313224D01*
X10924493Y-61298938D01*
X10910207Y-61270367D01*
X10910207Y-61184652D01*
X10924493Y-61156081D01*
X10938779Y-61141795D01*
X10967350Y-61127509D01*
X11024493Y-61127509D01*
X11053065Y-61141795D01*
X11167350Y-61441795D02*
X11181636Y-61427509D01*
X11210207Y-61384652D01*
X11224493Y-61356081D01*
X11238779Y-61313224D01*
X11253064Y-61241795D01*
X11253064Y-61184652D01*
X11238779Y-61113224D01*
X11224493Y-61070367D01*
X11210207Y-61041795D01*
X11181636Y-60998938D01*
X11167350Y-60984652D01*
X1423779Y-61587795D02*
G75*
G03X1423779Y-61587795I-150000J0D01*
G01*
X1681636Y-61423509D02*
X1867350Y-61423509D01*
X1767350Y-61537795D01*
X1810207Y-61537795D01*
X1838779Y-61552081D01*
X1853064Y-61566367D01*
X1867350Y-61594938D01*
X1867350Y-61666367D01*
X1853064Y-61694938D01*
X1838779Y-61709224D01*
X1810207Y-61723509D01*
X1724493Y-61723509D01*
X1695922Y-61709224D01*
X1681636Y-61694938D01*
X1995922Y-61694938D02*
X2010207Y-61709224D01*
X1995922Y-61723509D01*
X1981636Y-61709224D01*
X1995922Y-61694938D01*
X1995922Y-61723509D01*
X2195922Y-61423509D02*
X2224493Y-61423509D01*
X2253065Y-61437795D01*
X2267350Y-61452081D01*
X2281636Y-61480652D01*
X2295922Y-61537795D01*
X2295922Y-61609224D01*
X2281636Y-61666367D01*
X2267350Y-61694938D01*
X2253065Y-61709224D01*
X2224493Y-61723509D01*
X2195922Y-61723509D01*
X2167350Y-61709224D01*
X2153065Y-61694938D01*
X2138779Y-61666367D01*
X2124493Y-61609224D01*
X2124493Y-61537795D01*
X2138779Y-61480652D01*
X2153065Y-61452081D01*
X2167350Y-61437795D01*
X2195922Y-61423509D01*
X2481636Y-61423509D02*
X2510207Y-61423509D01*
X2538779Y-61437795D01*
X2553065Y-61452081D01*
X2567350Y-61480652D01*
X2581636Y-61537795D01*
X2581636Y-61609224D01*
X2567350Y-61666367D01*
X2553065Y-61694938D01*
X2538779Y-61709224D01*
X2510207Y-61723509D01*
X2481636Y-61723509D01*
X2453065Y-61709224D01*
X2438779Y-61694938D01*
X2424493Y-61666367D01*
X2410207Y-61609224D01*
X2410207Y-61537795D01*
X2424493Y-61480652D01*
X2438779Y-61452081D01*
X2453065Y-61437795D01*
X2481636Y-61423509D01*
X2710207Y-61723509D02*
X2710207Y-61523509D01*
X2710207Y-61552081D02*
X2724493Y-61537795D01*
X2753065Y-61523509D01*
X2795922Y-61523509D01*
X2824493Y-61537795D01*
X2838779Y-61566367D01*
X2838779Y-61723509D01*
X2838779Y-61566367D02*
X2853064Y-61537795D01*
X2881636Y-61523509D01*
X2924493Y-61523509D01*
X2953064Y-61537795D01*
X2967350Y-61566367D01*
X2967350Y-61723509D01*
X3110207Y-61723509D02*
X3110207Y-61523509D01*
X3110207Y-61552081D02*
X3124493Y-61537795D01*
X3153064Y-61523509D01*
X3195922Y-61523509D01*
X3224493Y-61537795D01*
X3238779Y-61566367D01*
X3238779Y-61723509D01*
X3238779Y-61566367D02*
X3253064Y-61537795D01*
X3281636Y-61523509D01*
X3324493Y-61523509D01*
X3353064Y-61537795D01*
X3367350Y-61566367D01*
X3367350Y-61723509D01*
X3953064Y-61409224D02*
X3695922Y-61794938D01*
X4338779Y-61423509D02*
X4367350Y-61423509D01*
X4395922Y-61437795D01*
X4410207Y-61452081D01*
X4424493Y-61480652D01*
X4438779Y-61537795D01*
X4438779Y-61609224D01*
X4424493Y-61666367D01*
X4410207Y-61694938D01*
X4395922Y-61709224D01*
X4367350Y-61723509D01*
X4338779Y-61723509D01*
X4310207Y-61709224D01*
X4295922Y-61694938D01*
X4281636Y-61666367D01*
X4267350Y-61609224D01*
X4267350Y-61537795D01*
X4281636Y-61480652D01*
X4295922Y-61452081D01*
X4310207Y-61437795D01*
X4338779Y-61423509D01*
X4567350Y-61694938D02*
X4581636Y-61709224D01*
X4567350Y-61723509D01*
X4553065Y-61709224D01*
X4567350Y-61694938D01*
X4567350Y-61723509D01*
X4867350Y-61723509D02*
X4695922Y-61723509D01*
X4781636Y-61723509D02*
X4781636Y-61423509D01*
X4753065Y-61466367D01*
X4724493Y-61494938D01*
X4695922Y-61509224D01*
X5153065Y-61723509D02*
X4981636Y-61723509D01*
X5067350Y-61723509D02*
X5067350Y-61423509D01*
X5038779Y-61466367D01*
X5010207Y-61494938D01*
X4981636Y-61509224D01*
X5324493Y-61552081D02*
X5295922Y-61537795D01*
X5281636Y-61523509D01*
X5267350Y-61494938D01*
X5267350Y-61480652D01*
X5281636Y-61452081D01*
X5295922Y-61437795D01*
X5324493Y-61423509D01*
X5381636Y-61423509D01*
X5410207Y-61437795D01*
X5424493Y-61452081D01*
X5438779Y-61480652D01*
X5438779Y-61494938D01*
X5424493Y-61523509D01*
X5410207Y-61537795D01*
X5381636Y-61552081D01*
X5324493Y-61552081D01*
X5295922Y-61566367D01*
X5281636Y-61580652D01*
X5267350Y-61609224D01*
X5267350Y-61666367D01*
X5281636Y-61694938D01*
X5295922Y-61709224D01*
X5324493Y-61723509D01*
X5381636Y-61723509D01*
X5410207Y-61709224D01*
X5424493Y-61694938D01*
X5438779Y-61666367D01*
X5438779Y-61609224D01*
X5424493Y-61580652D01*
X5410207Y-61566367D01*
X5381636Y-61552081D01*
X5553065Y-61423509D02*
X5553065Y-61480652D01*
X5667350Y-61423509D02*
X5667350Y-61480652D01*
X6110207Y-61837795D02*
X6095922Y-61823509D01*
X6067350Y-61780652D01*
X6053064Y-61752081D01*
X6038779Y-61709224D01*
X6024493Y-61637795D01*
X6024493Y-61580652D01*
X6038779Y-61509224D01*
X6053064Y-61466367D01*
X6067350Y-61437795D01*
X6095922Y-61394938D01*
X6110207Y-61380652D01*
X6195922Y-61423509D02*
X6381636Y-61423509D01*
X6281636Y-61537795D01*
X6324493Y-61537795D01*
X6353064Y-61552081D01*
X6367350Y-61566367D01*
X6381636Y-61594938D01*
X6381636Y-61666367D01*
X6367350Y-61694938D01*
X6353064Y-61709224D01*
X6324493Y-61723509D01*
X6238779Y-61723509D01*
X6210207Y-61709224D01*
X6195922Y-61694938D01*
X6495922Y-61452081D02*
X6510207Y-61437795D01*
X6538779Y-61423509D01*
X6610207Y-61423509D01*
X6638779Y-61437795D01*
X6653064Y-61452081D01*
X6667350Y-61480652D01*
X6667350Y-61509224D01*
X6653064Y-61552081D01*
X6481636Y-61723509D01*
X6667350Y-61723509D01*
X7024493Y-61723509D02*
X7024493Y-61423509D01*
X7153064Y-61723509D02*
X7153064Y-61566367D01*
X7138779Y-61537795D01*
X7110207Y-61523509D01*
X7067350Y-61523509D01*
X7038779Y-61537795D01*
X7024493Y-61552081D01*
X7338779Y-61723509D02*
X7310207Y-61709224D01*
X7295922Y-61694938D01*
X7281636Y-61666367D01*
X7281636Y-61580652D01*
X7295922Y-61552081D01*
X7310207Y-61537795D01*
X7338779Y-61523509D01*
X7381636Y-61523509D01*
X7410207Y-61537795D01*
X7424493Y-61552081D01*
X7438779Y-61580652D01*
X7438779Y-61666367D01*
X7424493Y-61694938D01*
X7410207Y-61709224D01*
X7381636Y-61723509D01*
X7338779Y-61723509D01*
X7610207Y-61723509D02*
X7581636Y-61709224D01*
X7567350Y-61680652D01*
X7567350Y-61423509D01*
X7838779Y-61709224D02*
X7810207Y-61723509D01*
X7753064Y-61723509D01*
X7724493Y-61709224D01*
X7710207Y-61680652D01*
X7710207Y-61566367D01*
X7724493Y-61537795D01*
X7753064Y-61523509D01*
X7810207Y-61523509D01*
X7838779Y-61537795D01*
X7853064Y-61566367D01*
X7853064Y-61594938D01*
X7710207Y-61623509D01*
X7967350Y-61709224D02*
X7995922Y-61723509D01*
X8053064Y-61723509D01*
X8081636Y-61709224D01*
X8095922Y-61680652D01*
X8095922Y-61666367D01*
X8081636Y-61637795D01*
X8053064Y-61623509D01*
X8010207Y-61623509D01*
X7981636Y-61609224D01*
X7967350Y-61580652D01*
X7967350Y-61566367D01*
X7981636Y-61537795D01*
X8010207Y-61523509D01*
X8053064Y-61523509D01*
X8081636Y-61537795D01*
X8195922Y-61837795D02*
X8210207Y-61823509D01*
X8238779Y-61780652D01*
X8253064Y-61752081D01*
X8267350Y-61709224D01*
X8281636Y-61637795D01*
X8281636Y-61580652D01*
X8267350Y-61509224D01*
X8253064Y-61466367D01*
X8238779Y-61437795D01*
X8210207Y-61394938D01*
X8195922Y-61380652D01*
X8738779Y-61837795D02*
X8724493Y-61823509D01*
X8695922Y-61780652D01*
X8681636Y-61752081D01*
X8667350Y-61709224D01*
X8653065Y-61637795D01*
X8653065Y-61580652D01*
X8667350Y-61509224D01*
X8681636Y-61466367D01*
X8695922Y-61437795D01*
X8724493Y-61394938D01*
X8738779Y-61380652D01*
X8853065Y-61523509D02*
X8853065Y-61723509D01*
X8853065Y-61552081D02*
X8867350Y-61537795D01*
X8895922Y-61523509D01*
X8938779Y-61523509D01*
X8967350Y-61537795D01*
X8981636Y-61566367D01*
X8981636Y-61723509D01*
X9167350Y-61723509D02*
X9138779Y-61709224D01*
X9124493Y-61694938D01*
X9110207Y-61666367D01*
X9110207Y-61580652D01*
X9124493Y-61552081D01*
X9138779Y-61537795D01*
X9167350Y-61523509D01*
X9210207Y-61523509D01*
X9238779Y-61537795D01*
X9253065Y-61552081D01*
X9267350Y-61580652D01*
X9267350Y-61666367D01*
X9253065Y-61694938D01*
X9238779Y-61709224D01*
X9210207Y-61723509D01*
X9167350Y-61723509D01*
X9353065Y-61523509D02*
X9467350Y-61523509D01*
X9395922Y-61423509D02*
X9395922Y-61680652D01*
X9410207Y-61709224D01*
X9438779Y-61723509D01*
X9467350Y-61723509D01*
X9795922Y-61523509D02*
X9795922Y-61823509D01*
X9795922Y-61537795D02*
X9824493Y-61523509D01*
X9881636Y-61523509D01*
X9910207Y-61537795D01*
X9924493Y-61552081D01*
X9938779Y-61580652D01*
X9938779Y-61666367D01*
X9924493Y-61694938D01*
X9910207Y-61709224D01*
X9881636Y-61723509D01*
X9824493Y-61723509D01*
X9795922Y-61709224D01*
X10110207Y-61723509D02*
X10081636Y-61709224D01*
X10067350Y-61680652D01*
X10067350Y-61423509D01*
X10353065Y-61723509D02*
X10353065Y-61566367D01*
X10338779Y-61537795D01*
X10310207Y-61523509D01*
X10253065Y-61523509D01*
X10224493Y-61537795D01*
X10353065Y-61709224D02*
X10324493Y-61723509D01*
X10253065Y-61723509D01*
X10224493Y-61709224D01*
X10210207Y-61680652D01*
X10210207Y-61652081D01*
X10224493Y-61623509D01*
X10253065Y-61609224D01*
X10324493Y-61609224D01*
X10353065Y-61594938D01*
X10453065Y-61523509D02*
X10567350Y-61523509D01*
X10495922Y-61423509D02*
X10495922Y-61680652D01*
X10510207Y-61709224D01*
X10538779Y-61723509D01*
X10567350Y-61723509D01*
X10781636Y-61709224D02*
X10753065Y-61723509D01*
X10695922Y-61723509D01*
X10667350Y-61709224D01*
X10653065Y-61680652D01*
X10653065Y-61566367D01*
X10667350Y-61537795D01*
X10695922Y-61523509D01*
X10753065Y-61523509D01*
X10781636Y-61537795D01*
X10795922Y-61566367D01*
X10795922Y-61594938D01*
X10653065Y-61623509D01*
X11053065Y-61723509D02*
X11053065Y-61423509D01*
X11053065Y-61709224D02*
X11024493Y-61723509D01*
X10967350Y-61723509D01*
X10938779Y-61709224D01*
X10924493Y-61694938D01*
X10910207Y-61666367D01*
X10910207Y-61580652D01*
X10924493Y-61552081D01*
X10938779Y-61537795D01*
X10967350Y-61523509D01*
X11024493Y-61523509D01*
X11053065Y-61537795D01*
X11167350Y-61837795D02*
X11181636Y-61823509D01*
X11210207Y-61780652D01*
X11224493Y-61752081D01*
X11238779Y-61709224D01*
X11253064Y-61637795D01*
X11253064Y-61580652D01*
X11238779Y-61509224D01*
X11224493Y-61466367D01*
X11210207Y-61437795D01*
X11181636Y-61394938D01*
X11167350Y-61380652D01*
X1224389Y-61818405D02*
X1224389Y-62217185D01*
X1024999Y-62017795D02*
X1423779Y-62017795D01*
X1681636Y-61853509D02*
X1867350Y-61853509D01*
X1767350Y-61967795D01*
X1810207Y-61967795D01*
X1838779Y-61982081D01*
X1853064Y-61996367D01*
X1867350Y-62024938D01*
X1867350Y-62096367D01*
X1853064Y-62124938D01*
X1838779Y-62139224D01*
X1810207Y-62153509D01*
X1724493Y-62153509D01*
X1695922Y-62139224D01*
X1681636Y-62124938D01*
X1995922Y-62124938D02*
X2010207Y-62139224D01*
X1995922Y-62153509D01*
X1981636Y-62139224D01*
X1995922Y-62124938D01*
X1995922Y-62153509D01*
X2153065Y-62153509D02*
X2210207Y-62153509D01*
X2238779Y-62139224D01*
X2253065Y-62124938D01*
X2281636Y-62082081D01*
X2295922Y-62024938D01*
X2295922Y-61910652D01*
X2281636Y-61882081D01*
X2267350Y-61867795D01*
X2238779Y-61853509D01*
X2181636Y-61853509D01*
X2153065Y-61867795D01*
X2138779Y-61882081D01*
X2124493Y-61910652D01*
X2124493Y-61982081D01*
X2138779Y-62010652D01*
X2153065Y-62024938D01*
X2181636Y-62039224D01*
X2238779Y-62039224D01*
X2267350Y-62024938D01*
X2281636Y-62010652D01*
X2295922Y-61982081D01*
X2438779Y-62153509D02*
X2495922Y-62153509D01*
X2524493Y-62139224D01*
X2538779Y-62124938D01*
X2567350Y-62082081D01*
X2581636Y-62024938D01*
X2581636Y-61910652D01*
X2567350Y-61882081D01*
X2553065Y-61867795D01*
X2524493Y-61853509D01*
X2467350Y-61853509D01*
X2438779Y-61867795D01*
X2424493Y-61882081D01*
X2410207Y-61910652D01*
X2410207Y-61982081D01*
X2424493Y-62010652D01*
X2438779Y-62024938D01*
X2467350Y-62039224D01*
X2524493Y-62039224D01*
X2553065Y-62024938D01*
X2567350Y-62010652D01*
X2581636Y-61982081D01*
X2710207Y-62153509D02*
X2710207Y-61953509D01*
X2710207Y-61982081D02*
X2724493Y-61967795D01*
X2753065Y-61953509D01*
X2795922Y-61953509D01*
X2824493Y-61967795D01*
X2838779Y-61996367D01*
X2838779Y-62153509D01*
X2838779Y-61996367D02*
X2853064Y-61967795D01*
X2881636Y-61953509D01*
X2924493Y-61953509D01*
X2953064Y-61967795D01*
X2967350Y-61996367D01*
X2967350Y-62153509D01*
X3110207Y-62153509D02*
X3110207Y-61953509D01*
X3110207Y-61982081D02*
X3124493Y-61967795D01*
X3153064Y-61953509D01*
X3195922Y-61953509D01*
X3224493Y-61967795D01*
X3238779Y-61996367D01*
X3238779Y-62153509D01*
X3238779Y-61996367D02*
X3253064Y-61967795D01*
X3281636Y-61953509D01*
X3324493Y-61953509D01*
X3353064Y-61967795D01*
X3367350Y-61996367D01*
X3367350Y-62153509D01*
X3953064Y-61839224D02*
X3695922Y-62224938D01*
X4338779Y-61853509D02*
X4367350Y-61853509D01*
X4395922Y-61867795D01*
X4410207Y-61882081D01*
X4424493Y-61910652D01*
X4438779Y-61967795D01*
X4438779Y-62039224D01*
X4424493Y-62096367D01*
X4410207Y-62124938D01*
X4395922Y-62139224D01*
X4367350Y-62153509D01*
X4338779Y-62153509D01*
X4310207Y-62139224D01*
X4295922Y-62124938D01*
X4281636Y-62096367D01*
X4267350Y-62039224D01*
X4267350Y-61967795D01*
X4281636Y-61910652D01*
X4295922Y-61882081D01*
X4310207Y-61867795D01*
X4338779Y-61853509D01*
X4567350Y-62124938D02*
X4581636Y-62139224D01*
X4567350Y-62153509D01*
X4553065Y-62139224D01*
X4567350Y-62124938D01*
X4567350Y-62153509D01*
X4867350Y-62153509D02*
X4695922Y-62153509D01*
X4781636Y-62153509D02*
X4781636Y-61853509D01*
X4753065Y-61896367D01*
X4724493Y-61924938D01*
X4695922Y-61939224D01*
X5138779Y-61853509D02*
X4995922Y-61853509D01*
X4981636Y-61996367D01*
X4995922Y-61982081D01*
X5024493Y-61967795D01*
X5095922Y-61967795D01*
X5124493Y-61982081D01*
X5138779Y-61996367D01*
X5153065Y-62024938D01*
X5153065Y-62096367D01*
X5138779Y-62124938D01*
X5124493Y-62139224D01*
X5095922Y-62153509D01*
X5024493Y-62153509D01*
X4995922Y-62139224D01*
X4981636Y-62124938D01*
X5253065Y-61853509D02*
X5453065Y-61853509D01*
X5324493Y-62153509D01*
X5553065Y-61853509D02*
X5553065Y-61910652D01*
X5667350Y-61853509D02*
X5667350Y-61910652D01*
X6110207Y-62267795D02*
X6095922Y-62253509D01*
X6067350Y-62210652D01*
X6053064Y-62182081D01*
X6038779Y-62139224D01*
X6024493Y-62067795D01*
X6024493Y-62010652D01*
X6038779Y-61939224D01*
X6053064Y-61896367D01*
X6067350Y-61867795D01*
X6095922Y-61824938D01*
X6110207Y-61810652D01*
X6381636Y-62153509D02*
X6210207Y-62153509D01*
X6295922Y-62153509D02*
X6295922Y-61853509D01*
X6267350Y-61896367D01*
X6238779Y-61924938D01*
X6210207Y-61939224D01*
X6638779Y-61853509D02*
X6581636Y-61853509D01*
X6553064Y-61867795D01*
X6538779Y-61882081D01*
X6510207Y-61924938D01*
X6495922Y-61982081D01*
X6495922Y-62096367D01*
X6510207Y-62124938D01*
X6524493Y-62139224D01*
X6553064Y-62153509D01*
X6610207Y-62153509D01*
X6638779Y-62139224D01*
X6653064Y-62124938D01*
X6667350Y-62096367D01*
X6667350Y-62024938D01*
X6653064Y-61996367D01*
X6638779Y-61982081D01*
X6610207Y-61967795D01*
X6553064Y-61967795D01*
X6524493Y-61982081D01*
X6510207Y-61996367D01*
X6495922Y-62024938D01*
X7024493Y-62153509D02*
X7024493Y-61853509D01*
X7153064Y-62153509D02*
X7153064Y-61996367D01*
X7138779Y-61967795D01*
X7110207Y-61953509D01*
X7067350Y-61953509D01*
X7038779Y-61967795D01*
X7024493Y-61982081D01*
X7338779Y-62153509D02*
X7310207Y-62139224D01*
X7295922Y-62124938D01*
X7281636Y-62096367D01*
X7281636Y-62010652D01*
X7295922Y-61982081D01*
X7310207Y-61967795D01*
X7338779Y-61953509D01*
X7381636Y-61953509D01*
X7410207Y-61967795D01*
X7424493Y-61982081D01*
X7438779Y-62010652D01*
X7438779Y-62096367D01*
X7424493Y-62124938D01*
X7410207Y-62139224D01*
X7381636Y-62153509D01*
X7338779Y-62153509D01*
X7610207Y-62153509D02*
X7581636Y-62139224D01*
X7567350Y-62110652D01*
X7567350Y-61853509D01*
X7838779Y-62139224D02*
X7810207Y-62153509D01*
X7753064Y-62153509D01*
X7724493Y-62139224D01*
X7710207Y-62110652D01*
X7710207Y-61996367D01*
X7724493Y-61967795D01*
X7753064Y-61953509D01*
X7810207Y-61953509D01*
X7838779Y-61967795D01*
X7853064Y-61996367D01*
X7853064Y-62024938D01*
X7710207Y-62053509D01*
X7967350Y-62139224D02*
X7995922Y-62153509D01*
X8053064Y-62153509D01*
X8081636Y-62139224D01*
X8095922Y-62110652D01*
X8095922Y-62096367D01*
X8081636Y-62067795D01*
X8053064Y-62053509D01*
X8010207Y-62053509D01*
X7981636Y-62039224D01*
X7967350Y-62010652D01*
X7967350Y-61996367D01*
X7981636Y-61967795D01*
X8010207Y-61953509D01*
X8053064Y-61953509D01*
X8081636Y-61967795D01*
X8195922Y-62267795D02*
X8210207Y-62253509D01*
X8238779Y-62210652D01*
X8253064Y-62182081D01*
X8267350Y-62139224D01*
X8281636Y-62067795D01*
X8281636Y-62010652D01*
X8267350Y-61939224D01*
X8253064Y-61896367D01*
X8238779Y-61867795D01*
X8210207Y-61824938D01*
X8195922Y-61810652D01*
X8738779Y-62267795D02*
X8724493Y-62253509D01*
X8695922Y-62210652D01*
X8681636Y-62182081D01*
X8667350Y-62139224D01*
X8653065Y-62067795D01*
X8653065Y-62010652D01*
X8667350Y-61939224D01*
X8681636Y-61896367D01*
X8695922Y-61867795D01*
X8724493Y-61824938D01*
X8738779Y-61810652D01*
X8853065Y-61953509D02*
X8853065Y-62153509D01*
X8853065Y-61982081D02*
X8867350Y-61967795D01*
X8895922Y-61953509D01*
X8938779Y-61953509D01*
X8967350Y-61967795D01*
X8981636Y-61996367D01*
X8981636Y-62153509D01*
X9167350Y-62153509D02*
X9138779Y-62139224D01*
X9124493Y-62124938D01*
X9110207Y-62096367D01*
X9110207Y-62010652D01*
X9124493Y-61982081D01*
X9138779Y-61967795D01*
X9167350Y-61953509D01*
X9210207Y-61953509D01*
X9238779Y-61967795D01*
X9253065Y-61982081D01*
X9267350Y-62010652D01*
X9267350Y-62096367D01*
X9253065Y-62124938D01*
X9238779Y-62139224D01*
X9210207Y-62153509D01*
X9167350Y-62153509D01*
X9353065Y-61953509D02*
X9467350Y-61953509D01*
X9395922Y-61853509D02*
X9395922Y-62110652D01*
X9410207Y-62139224D01*
X9438779Y-62153509D01*
X9467350Y-62153509D01*
X9795922Y-61953509D02*
X9795922Y-62253509D01*
X9795922Y-61967795D02*
X9824493Y-61953509D01*
X9881636Y-61953509D01*
X9910207Y-61967795D01*
X9924493Y-61982081D01*
X9938779Y-62010652D01*
X9938779Y-62096367D01*
X9924493Y-62124938D01*
X9910207Y-62139224D01*
X9881636Y-62153509D01*
X9824493Y-62153509D01*
X9795922Y-62139224D01*
X10110207Y-62153509D02*
X10081636Y-62139224D01*
X10067350Y-62110652D01*
X10067350Y-61853509D01*
X10353065Y-62153509D02*
X10353065Y-61996367D01*
X10338779Y-61967795D01*
X10310207Y-61953509D01*
X10253065Y-61953509D01*
X10224493Y-61967795D01*
X10353065Y-62139224D02*
X10324493Y-62153509D01*
X10253065Y-62153509D01*
X10224493Y-62139224D01*
X10210207Y-62110652D01*
X10210207Y-62082081D01*
X10224493Y-62053509D01*
X10253065Y-62039224D01*
X10324493Y-62039224D01*
X10353065Y-62024938D01*
X10453065Y-61953509D02*
X10567350Y-61953509D01*
X10495922Y-61853509D02*
X10495922Y-62110652D01*
X10510207Y-62139224D01*
X10538779Y-62153509D01*
X10567350Y-62153509D01*
X10781636Y-62139224D02*
X10753065Y-62153509D01*
X10695922Y-62153509D01*
X10667350Y-62139224D01*
X10653065Y-62110652D01*
X10653065Y-61996367D01*
X10667350Y-61967795D01*
X10695922Y-61953509D01*
X10753065Y-61953509D01*
X10781636Y-61967795D01*
X10795922Y-61996367D01*
X10795922Y-62024938D01*
X10653065Y-62053509D01*
X11053065Y-62153509D02*
X11053065Y-61853509D01*
X11053065Y-62139224D02*
X11024493Y-62153509D01*
X10967350Y-62153509D01*
X10938779Y-62139224D01*
X10924493Y-62124938D01*
X10910207Y-62096367D01*
X10910207Y-62010652D01*
X10924493Y-61982081D01*
X10938779Y-61967795D01*
X10967350Y-61953509D01*
X11024493Y-61953509D01*
X11053065Y-61967795D01*
X11167350Y-62267795D02*
X11181636Y-62253509D01*
X11210207Y-62210652D01*
X11224493Y-62182081D01*
X11238779Y-62139224D01*
X11253064Y-62067795D01*
X11253064Y-62010652D01*
X11238779Y-61939224D01*
X11224493Y-61896367D01*
X11210207Y-61867795D01*
X11181636Y-61824938D01*
X11167350Y-61810652D01*
M02*
