%FSLAX45Y45*%
G04 Gerber Fmt 4.5, Leading zero omitted, Abs format (unit mm)*
G04 Created by KiCad (PCBNEW (5.1.4)-1) date 2023-09-09 05:25:21*
%MOMM*%
%LPD*%
G04 APERTURE LIST*
%ADD10C,0.050000*%
%ADD11C,0.200000*%
%ADD12C,0.300000*%
G04 APERTURE END LIST*
D10*
X3288000Y-50323000D02*
G75*
G02X3388000Y-50323000I50000J0D01*
G01*
X3388000Y-54152000D02*
X3388000Y-55454000D01*
X3288000Y-54152000D02*
G75*
G02X3388000Y-54152000I50000J0D01*
G01*
X3288000Y-54152000D02*
X3288000Y-55454000D01*
X3388000Y-51624000D02*
G75*
G02X3288000Y-51624000I-50000J0D01*
G01*
X3288000Y-50323000D02*
X3288000Y-51624000D01*
X3288000Y-52242000D02*
X3288000Y-53544000D01*
X3388000Y-52242000D02*
X3388000Y-53544000D01*
X3388000Y-53544000D02*
G75*
G02X3288000Y-53544000I-50000J0D01*
G01*
X3288000Y-52242000D02*
G75*
G02X3388000Y-52242000I50000J0D01*
G01*
X3388000Y-55454000D02*
G75*
G02X3288000Y-55454000I-50000J0D01*
G01*
X3388000Y-50323000D02*
X3388000Y-51624000D01*
X3413000Y-57018000D02*
G75*
G02X3313000Y-57018000I-50000J0D01*
G01*
X3313000Y-56018000D02*
G75*
G02X3413000Y-56018000I50000J0D01*
G01*
X3413000Y-56018000D02*
X3413000Y-57018000D01*
X3313000Y-56018000D02*
X3313000Y-57018000D01*
X1426279Y-56939295D02*
X1426279Y-49964295D01*
X12784480Y-49929016D02*
X12786421Y-58621812D01*
X5216279Y-57929295D02*
X4816279Y-57654295D01*
X1916279Y-57239295D02*
X1736279Y-57239295D01*
X1736279Y-49624295D02*
X1916279Y-49624295D01*
X10018000Y-54698000D02*
G75*
G03X10018000Y-54698000I-480000J0D01*
G01*
X9908000Y-52883000D02*
G75*
G03X9908000Y-52883000I-325000J0D01*
G01*
X5216279Y-57929295D02*
X5216279Y-58639295D01*
X6276279Y-58759295D02*
X6296279Y-58759295D01*
X12678419Y-60143040D02*
X11756279Y-60229295D01*
X12678419Y-60143040D02*
X12966232Y-59066860D01*
X3621279Y-57654295D02*
X3226279Y-57239295D01*
X12786421Y-58621812D02*
X12966232Y-59066860D01*
X6696279Y-49539295D02*
X7191279Y-49064295D01*
X5341279Y-49539295D02*
X5256279Y-49624295D01*
X12784480Y-49929016D02*
X12566279Y-49714295D01*
X8846279Y-49064295D02*
X7191279Y-49064295D01*
X3206279Y-57239295D02*
X3226279Y-57239295D01*
X9516279Y-49714295D02*
X12566279Y-49714295D01*
X1426279Y-56939295D02*
X1736279Y-57239295D01*
X8846279Y-49064295D02*
X9516279Y-49714295D01*
X6696279Y-49539295D02*
X5341279Y-49539295D01*
X3206279Y-57239295D02*
X1916279Y-57239295D01*
X3621279Y-57654295D02*
X4816279Y-57654295D01*
X5216279Y-58639295D02*
X5356279Y-58759295D01*
X6276279Y-58759295D02*
X5356279Y-58759295D01*
X1736279Y-49624295D02*
X1426279Y-49964295D01*
X11756279Y-60229295D02*
X6296279Y-58759295D01*
X1916279Y-49624295D02*
X5256279Y-49624295D01*
D11*
X2811779Y-50490500D02*
X2986779Y-50665500D01*
X2986779Y-50490500D02*
X2811779Y-50665500D01*
X3700779Y-54701795D02*
X3875779Y-54876795D01*
X3875779Y-54701795D02*
X3700779Y-54876795D01*
X5605779Y-52296795D02*
X5780779Y-52471795D01*
X5780779Y-52296795D02*
X5605779Y-52471795D01*
X6621779Y-52296795D02*
X6796779Y-52471795D01*
X6796779Y-52296795D02*
X6621779Y-52471795D01*
X7510779Y-51796795D02*
X7685779Y-51971795D01*
X7685779Y-51796795D02*
X7510779Y-51971795D01*
X8526779Y-51796795D02*
X8701779Y-51971795D01*
X8701779Y-51796795D02*
X8526779Y-51971795D01*
X7510779Y-55606795D02*
X7685779Y-55781795D01*
X7685779Y-55606795D02*
X7510779Y-55781795D01*
X8526779Y-55606795D02*
X8701779Y-55781795D01*
X8701779Y-55606795D02*
X8526779Y-55781795D01*
X7510779Y-49890500D02*
X7685779Y-50065500D01*
X7685779Y-49890500D02*
X7510779Y-50065500D01*
X8526779Y-49890500D02*
X8701779Y-50065500D01*
X8701779Y-49890500D02*
X8526779Y-50065500D01*
X1795779Y-56206795D02*
X1970779Y-56381795D01*
X1970779Y-56206795D02*
X1795779Y-56381795D01*
X2811779Y-56206795D02*
X2986779Y-56381795D01*
X2986779Y-56206795D02*
X2811779Y-56381795D01*
X5605779Y-54201795D02*
X5780779Y-54376795D01*
X5780779Y-54201795D02*
X5605779Y-54376795D01*
X6621779Y-54201795D02*
X6796779Y-54376795D01*
X6796779Y-54201795D02*
X6621779Y-54376795D01*
X1795779Y-50490500D02*
X1970779Y-50665500D01*
X1970779Y-50490500D02*
X1795779Y-50665500D01*
X1795779Y-54301795D02*
X1970779Y-54476795D01*
X1970779Y-54301795D02*
X1795779Y-54476795D01*
X2811779Y-54301795D02*
X2986779Y-54476795D01*
X2986779Y-54301795D02*
X2811779Y-54476795D01*
X1795779Y-52396795D02*
X1970779Y-52571795D01*
X1970779Y-52396795D02*
X1795779Y-52571795D01*
X2811779Y-52396795D02*
X2986779Y-52571795D01*
X2986779Y-52396795D02*
X2811779Y-52571795D01*
X4716779Y-54701795D02*
X4891779Y-54876795D01*
X4891779Y-54701795D02*
X4716779Y-54876795D01*
X7510779Y-53701795D02*
X7685779Y-53876795D01*
X7685779Y-53701795D02*
X7510779Y-53876795D01*
X8526779Y-53701795D02*
X8701779Y-53876795D01*
X8701779Y-53701795D02*
X8526779Y-53876795D01*
X5605779Y-56106795D02*
X5780779Y-56281795D01*
X5780779Y-56106795D02*
X5605779Y-56281795D01*
X6621779Y-56106795D02*
X6796779Y-56281795D01*
X6796779Y-56106795D02*
X6621779Y-56281795D01*
X5605779Y-50390500D02*
X5780779Y-50565500D01*
X5780779Y-50390500D02*
X5605779Y-50565500D01*
X6621779Y-50390500D02*
X6796779Y-50565500D01*
X6796779Y-50390500D02*
X6621779Y-50565500D01*
X3700779Y-50890500D02*
X3875779Y-51065500D01*
X3875779Y-50890500D02*
X3700779Y-51065500D01*
X4716779Y-50890500D02*
X4891779Y-51065500D01*
X4891779Y-50890500D02*
X4716779Y-51065500D01*
X3700779Y-52796795D02*
X3875779Y-52971795D01*
X3875779Y-52796795D02*
X3700779Y-52971795D01*
X4716779Y-52796795D02*
X4891779Y-52971795D01*
X4891779Y-52796795D02*
X4716779Y-52971795D01*
X3700779Y-56606795D02*
X3875779Y-56781795D01*
X3875779Y-56606795D02*
X3700779Y-56781795D01*
X4716779Y-56606795D02*
X4891779Y-56781795D01*
X4891779Y-56606795D02*
X4716779Y-56781795D01*
X2278779Y-55719295D02*
G75*
G03X2278779Y-55719295I-147500J0D01*
G01*
X3008779Y-55854295D02*
G75*
G03X3008779Y-55854295I-147500J0D01*
G01*
X6088779Y-53714295D02*
G75*
G03X6088779Y-53714295I-147500J0D01*
G01*
X6818779Y-53849295D02*
G75*
G03X6818779Y-53849295I-147500J0D01*
G01*
X2278779Y-50003000D02*
G75*
G03X2278779Y-50003000I-147500J0D01*
G01*
X3008779Y-50138000D02*
G75*
G03X3008779Y-50138000I-147500J0D01*
G01*
X2278779Y-53814295D02*
G75*
G03X2278779Y-53814295I-147500J0D01*
G01*
X3008779Y-53949295D02*
G75*
G03X3008779Y-53949295I-147500J0D01*
G01*
X2278779Y-51909295D02*
G75*
G03X2278779Y-51909295I-147500J0D01*
G01*
X3008779Y-52044295D02*
G75*
G03X3008779Y-52044295I-147500J0D01*
G01*
X4183779Y-54214295D02*
G75*
G03X4183779Y-54214295I-147500J0D01*
G01*
X4913779Y-54349295D02*
G75*
G03X4913779Y-54349295I-147500J0D01*
G01*
X7993779Y-53214295D02*
G75*
G03X7993779Y-53214295I-147500J0D01*
G01*
X8723779Y-53349295D02*
G75*
G03X8723779Y-53349295I-147500J0D01*
G01*
X6088779Y-55619295D02*
G75*
G03X6088779Y-55619295I-147500J0D01*
G01*
X6818779Y-55754295D02*
G75*
G03X6818779Y-55754295I-147500J0D01*
G01*
X6088779Y-49903000D02*
G75*
G03X6088779Y-49903000I-147500J0D01*
G01*
X6818779Y-50038000D02*
G75*
G03X6818779Y-50038000I-147500J0D01*
G01*
X4183779Y-50403000D02*
G75*
G03X4183779Y-50403000I-147500J0D01*
G01*
X4913779Y-50538000D02*
G75*
G03X4913779Y-50538000I-147500J0D01*
G01*
X4183779Y-52309295D02*
G75*
G03X4183779Y-52309295I-147500J0D01*
G01*
X4913779Y-52444295D02*
G75*
G03X4913779Y-52444295I-147500J0D01*
G01*
X4183779Y-56119295D02*
G75*
G03X4183779Y-56119295I-147500J0D01*
G01*
X4913779Y-56254295D02*
G75*
G03X4913779Y-56254295I-147500J0D01*
G01*
X6088779Y-51809295D02*
G75*
G03X6088779Y-51809295I-147500J0D01*
G01*
X6818779Y-51944295D02*
G75*
G03X6818779Y-51944295I-147500J0D01*
G01*
X7993779Y-51309295D02*
G75*
G03X7993779Y-51309295I-147500J0D01*
G01*
X8723779Y-51444295D02*
G75*
G03X8723779Y-51444295I-147500J0D01*
G01*
X7993779Y-55119295D02*
G75*
G03X7993779Y-55119295I-147500J0D01*
G01*
X8723779Y-55254295D02*
G75*
G03X8723779Y-55254295I-147500J0D01*
G01*
X7993779Y-49403000D02*
G75*
G03X7993779Y-49403000I-147500J0D01*
G01*
X8723779Y-49538000D02*
G75*
G03X8723779Y-49538000I-147500J0D01*
G01*
X2137279Y-50936000D02*
X2137279Y-51236000D01*
X1987279Y-51086000D02*
X2287279Y-51086000D01*
X2772279Y-50682000D02*
X2772279Y-50982000D01*
X2622279Y-50832000D02*
X2922279Y-50832000D01*
X2137279Y-54747295D02*
X2137279Y-55047295D01*
X1987279Y-54897295D02*
X2287279Y-54897295D01*
X2772279Y-54493295D02*
X2772279Y-54793295D01*
X2622279Y-54643295D02*
X2922279Y-54643295D01*
X2137279Y-52842295D02*
X2137279Y-53142295D01*
X1987279Y-52992295D02*
X2287279Y-52992295D01*
X2772279Y-52588295D02*
X2772279Y-52888295D01*
X2622279Y-52738295D02*
X2922279Y-52738295D01*
X4042279Y-55147295D02*
X4042279Y-55447295D01*
X3892279Y-55297295D02*
X4192279Y-55297295D01*
X4677279Y-54893295D02*
X4677279Y-55193295D01*
X4527279Y-55043295D02*
X4827279Y-55043295D01*
X7852279Y-54147295D02*
X7852279Y-54447295D01*
X7702279Y-54297295D02*
X8002279Y-54297295D01*
X8487279Y-53893295D02*
X8487279Y-54193295D01*
X8337279Y-54043295D02*
X8637279Y-54043295D01*
X5947279Y-56552295D02*
X5947279Y-56852295D01*
X5797279Y-56702295D02*
X6097279Y-56702295D01*
X6582279Y-56298295D02*
X6582279Y-56598295D01*
X6432279Y-56448295D02*
X6732279Y-56448295D01*
X5947279Y-50836000D02*
X5947279Y-51136000D01*
X5797279Y-50986000D02*
X6097279Y-50986000D01*
X6582279Y-50582000D02*
X6582279Y-50882000D01*
X6432279Y-50732000D02*
X6732279Y-50732000D01*
X4042279Y-51336000D02*
X4042279Y-51636000D01*
X3892279Y-51486000D02*
X4192279Y-51486000D01*
X4677279Y-51082000D02*
X4677279Y-51382000D01*
X4527279Y-51232000D02*
X4827279Y-51232000D01*
X4042279Y-53242295D02*
X4042279Y-53542295D01*
X3892279Y-53392295D02*
X4192279Y-53392295D01*
X4677279Y-52988295D02*
X4677279Y-53288295D01*
X4527279Y-53138295D02*
X4827279Y-53138295D01*
X4042279Y-57052295D02*
X4042279Y-57352295D01*
X3892279Y-57202295D02*
X4192279Y-57202295D01*
X4677279Y-56798295D02*
X4677279Y-57098295D01*
X4527279Y-56948295D02*
X4827279Y-56948295D01*
X5947279Y-52742295D02*
X5947279Y-53042295D01*
X5797279Y-52892295D02*
X6097279Y-52892295D01*
X6582279Y-52488295D02*
X6582279Y-52788295D01*
X6432279Y-52638295D02*
X6732279Y-52638295D01*
X7852279Y-52242295D02*
X7852279Y-52542295D01*
X7702279Y-52392295D02*
X8002279Y-52392295D01*
X8487279Y-51988295D02*
X8487279Y-52288295D01*
X8337279Y-52138295D02*
X8637279Y-52138295D01*
X7852279Y-56052295D02*
X7852279Y-56352295D01*
X7702279Y-56202295D02*
X8002279Y-56202295D01*
X8487279Y-55798295D02*
X8487279Y-56098295D01*
X8337279Y-55948295D02*
X8637279Y-55948295D01*
X7852279Y-50336000D02*
X7852279Y-50636000D01*
X7702279Y-50486000D02*
X8002279Y-50486000D01*
X8487279Y-50082000D02*
X8487279Y-50382000D01*
X8337279Y-50232000D02*
X8637279Y-50232000D01*
X2137279Y-56652295D02*
X2137279Y-56952295D01*
X1987279Y-56802295D02*
X2287279Y-56802295D01*
X2772279Y-56398295D02*
X2772279Y-56698295D01*
X2622279Y-56548295D02*
X2922279Y-56548295D01*
X5947279Y-54647295D02*
X5947279Y-54947295D01*
X5797279Y-54797295D02*
X6097279Y-54797295D01*
X6582279Y-54393295D02*
X6582279Y-54693295D01*
X6432279Y-54543295D02*
X6732279Y-54543295D01*
X2569825Y-52662841D02*
X2569825Y-52305749D01*
X2212733Y-52305749D01*
X2212733Y-52662841D01*
X2569825Y-52662841D01*
X4474825Y-54967841D02*
X4474825Y-54610749D01*
X4117733Y-54610749D01*
X4117733Y-54967841D01*
X4474825Y-54967841D01*
X8284825Y-53967841D02*
X8284825Y-53610749D01*
X7927733Y-53610749D01*
X7927733Y-53967841D01*
X8284825Y-53967841D01*
X6379825Y-50656546D02*
X6379825Y-50299454D01*
X6022733Y-50299454D01*
X6022733Y-50656546D01*
X6379825Y-50656546D01*
X8284825Y-52062841D02*
X8284825Y-51705749D01*
X7927733Y-51705749D01*
X7927733Y-52062841D01*
X8284825Y-52062841D01*
X2569825Y-54567841D02*
X2569825Y-54210749D01*
X2212733Y-54210749D01*
X2212733Y-54567841D01*
X2569825Y-54567841D01*
X6379825Y-56372841D02*
X6379825Y-56015749D01*
X6022733Y-56015749D01*
X6022733Y-56372841D01*
X6379825Y-56372841D01*
X4474825Y-51156546D02*
X4474825Y-50799454D01*
X4117733Y-50799454D01*
X4117733Y-51156546D01*
X4474825Y-51156546D01*
X4474825Y-53062841D02*
X4474825Y-52705749D01*
X4117733Y-52705749D01*
X4117733Y-53062841D01*
X4474825Y-53062841D01*
X4474825Y-56872841D02*
X4474825Y-56515749D01*
X4117733Y-56515749D01*
X4117733Y-56872841D01*
X4474825Y-56872841D01*
X6379825Y-52562841D02*
X6379825Y-52205749D01*
X6022733Y-52205749D01*
X6022733Y-52562841D01*
X6379825Y-52562841D01*
X8284825Y-55872841D02*
X8284825Y-55515749D01*
X7927733Y-55515749D01*
X7927733Y-55872841D01*
X8284825Y-55872841D01*
X8284825Y-50156546D02*
X8284825Y-49799454D01*
X7927733Y-49799454D01*
X7927733Y-50156546D01*
X8284825Y-50156546D01*
X2569825Y-56472841D02*
X2569825Y-56115749D01*
X2212733Y-56115749D01*
X2212733Y-56472841D01*
X2569825Y-56472841D01*
X6379825Y-54467841D02*
X6379825Y-54110749D01*
X6022733Y-54110749D01*
X6022733Y-54467841D01*
X6379825Y-54467841D01*
X2569825Y-50756546D02*
X2569825Y-50399454D01*
X2212733Y-50399454D01*
X2212733Y-50756546D01*
X2569825Y-50756546D01*
D12*
X1710207Y-60697509D02*
X1710207Y-60397509D01*
X1781636Y-60397509D01*
X1824493Y-60411795D01*
X1853064Y-60440367D01*
X1867350Y-60468938D01*
X1881636Y-60526081D01*
X1881636Y-60568938D01*
X1867350Y-60626081D01*
X1853064Y-60654652D01*
X1824493Y-60683224D01*
X1781636Y-60697509D01*
X1710207Y-60697509D01*
X2010207Y-60697509D02*
X2010207Y-60497509D01*
X2010207Y-60554652D02*
X2024493Y-60526081D01*
X2038779Y-60511795D01*
X2067350Y-60497509D01*
X2095922Y-60497509D01*
X2195922Y-60697509D02*
X2195922Y-60497509D01*
X2195922Y-60397509D02*
X2181636Y-60411795D01*
X2195922Y-60426081D01*
X2210207Y-60411795D01*
X2195922Y-60397509D01*
X2195922Y-60426081D01*
X2381636Y-60697509D02*
X2353065Y-60683224D01*
X2338779Y-60654652D01*
X2338779Y-60397509D01*
X2538779Y-60697509D02*
X2510207Y-60683224D01*
X2495922Y-60654652D01*
X2495922Y-60397509D01*
X2881636Y-60697509D02*
X2881636Y-60397509D01*
X2981636Y-60611795D01*
X3081636Y-60397509D01*
X3081636Y-60697509D01*
X3353064Y-60697509D02*
X3353064Y-60540367D01*
X3338779Y-60511795D01*
X3310207Y-60497509D01*
X3253064Y-60497509D01*
X3224493Y-60511795D01*
X3353064Y-60683224D02*
X3324493Y-60697509D01*
X3253064Y-60697509D01*
X3224493Y-60683224D01*
X3210207Y-60654652D01*
X3210207Y-60626081D01*
X3224493Y-60597509D01*
X3253064Y-60583224D01*
X3324493Y-60583224D01*
X3353064Y-60568938D01*
X3495922Y-60497509D02*
X3495922Y-60797509D01*
X3495922Y-60511795D02*
X3524493Y-60497509D01*
X3581636Y-60497509D01*
X3610207Y-60511795D01*
X3624493Y-60526081D01*
X3638779Y-60554652D01*
X3638779Y-60640367D01*
X3624493Y-60668938D01*
X3610207Y-60683224D01*
X3581636Y-60697509D01*
X3524493Y-60697509D01*
X3495922Y-60683224D01*
X3767350Y-60668938D02*
X3781636Y-60683224D01*
X3767350Y-60697509D01*
X3753064Y-60683224D01*
X3767350Y-60668938D01*
X3767350Y-60697509D01*
X3767350Y-60511795D02*
X3781636Y-60526081D01*
X3767350Y-60540367D01*
X3753064Y-60526081D01*
X3767350Y-60511795D01*
X3767350Y-60540367D01*
X1248779Y-61104295D02*
X1423779Y-61279295D01*
X1423779Y-61104295D02*
X1248779Y-61279295D01*
X1867350Y-61327509D02*
X1695922Y-61327509D01*
X1781636Y-61327509D02*
X1781636Y-61027509D01*
X1753064Y-61070367D01*
X1724493Y-61098938D01*
X1695922Y-61113224D01*
X1995922Y-61298938D02*
X2010207Y-61313224D01*
X1995922Y-61327509D01*
X1981636Y-61313224D01*
X1995922Y-61298938D01*
X1995922Y-61327509D01*
X2110207Y-61027509D02*
X2310207Y-61027509D01*
X2181636Y-61327509D01*
X2567350Y-61027509D02*
X2424493Y-61027509D01*
X2410207Y-61170367D01*
X2424493Y-61156081D01*
X2453065Y-61141795D01*
X2524493Y-61141795D01*
X2553065Y-61156081D01*
X2567350Y-61170367D01*
X2581636Y-61198938D01*
X2581636Y-61270367D01*
X2567350Y-61298938D01*
X2553065Y-61313224D01*
X2524493Y-61327509D01*
X2453065Y-61327509D01*
X2424493Y-61313224D01*
X2410207Y-61298938D01*
X2710207Y-61327509D02*
X2710207Y-61127509D01*
X2710207Y-61156081D02*
X2724493Y-61141795D01*
X2753065Y-61127509D01*
X2795922Y-61127509D01*
X2824493Y-61141795D01*
X2838779Y-61170367D01*
X2838779Y-61327509D01*
X2838779Y-61170367D02*
X2853064Y-61141795D01*
X2881636Y-61127509D01*
X2924493Y-61127509D01*
X2953064Y-61141795D01*
X2967350Y-61170367D01*
X2967350Y-61327509D01*
X3110207Y-61327509D02*
X3110207Y-61127509D01*
X3110207Y-61156081D02*
X3124493Y-61141795D01*
X3153064Y-61127509D01*
X3195922Y-61127509D01*
X3224493Y-61141795D01*
X3238779Y-61170367D01*
X3238779Y-61327509D01*
X3238779Y-61170367D02*
X3253064Y-61141795D01*
X3281636Y-61127509D01*
X3324493Y-61127509D01*
X3353064Y-61141795D01*
X3367350Y-61170367D01*
X3367350Y-61327509D01*
X3953064Y-61013224D02*
X3695922Y-61398938D01*
X4338779Y-61027509D02*
X4367350Y-61027509D01*
X4395922Y-61041795D01*
X4410207Y-61056081D01*
X4424493Y-61084652D01*
X4438779Y-61141795D01*
X4438779Y-61213224D01*
X4424493Y-61270367D01*
X4410207Y-61298938D01*
X4395922Y-61313224D01*
X4367350Y-61327509D01*
X4338779Y-61327509D01*
X4310207Y-61313224D01*
X4295922Y-61298938D01*
X4281636Y-61270367D01*
X4267350Y-61213224D01*
X4267350Y-61141795D01*
X4281636Y-61084652D01*
X4295922Y-61056081D01*
X4310207Y-61041795D01*
X4338779Y-61027509D01*
X4567350Y-61298938D02*
X4581636Y-61313224D01*
X4567350Y-61327509D01*
X4553065Y-61313224D01*
X4567350Y-61298938D01*
X4567350Y-61327509D01*
X4767350Y-61027509D02*
X4795922Y-61027509D01*
X4824493Y-61041795D01*
X4838779Y-61056081D01*
X4853065Y-61084652D01*
X4867350Y-61141795D01*
X4867350Y-61213224D01*
X4853065Y-61270367D01*
X4838779Y-61298938D01*
X4824493Y-61313224D01*
X4795922Y-61327509D01*
X4767350Y-61327509D01*
X4738779Y-61313224D01*
X4724493Y-61298938D01*
X4710207Y-61270367D01*
X4695922Y-61213224D01*
X4695922Y-61141795D01*
X4710207Y-61084652D01*
X4724493Y-61056081D01*
X4738779Y-61041795D01*
X4767350Y-61027509D01*
X5124493Y-61027509D02*
X5067350Y-61027509D01*
X5038779Y-61041795D01*
X5024493Y-61056081D01*
X4995922Y-61098938D01*
X4981636Y-61156081D01*
X4981636Y-61270367D01*
X4995922Y-61298938D01*
X5010207Y-61313224D01*
X5038779Y-61327509D01*
X5095922Y-61327509D01*
X5124493Y-61313224D01*
X5138779Y-61298938D01*
X5153065Y-61270367D01*
X5153065Y-61198938D01*
X5138779Y-61170367D01*
X5124493Y-61156081D01*
X5095922Y-61141795D01*
X5038779Y-61141795D01*
X5010207Y-61156081D01*
X4995922Y-61170367D01*
X4981636Y-61198938D01*
X5295922Y-61327509D02*
X5353065Y-61327509D01*
X5381636Y-61313224D01*
X5395922Y-61298938D01*
X5424493Y-61256081D01*
X5438779Y-61198938D01*
X5438779Y-61084652D01*
X5424493Y-61056081D01*
X5410207Y-61041795D01*
X5381636Y-61027509D01*
X5324493Y-61027509D01*
X5295922Y-61041795D01*
X5281636Y-61056081D01*
X5267350Y-61084652D01*
X5267350Y-61156081D01*
X5281636Y-61184652D01*
X5295922Y-61198938D01*
X5324493Y-61213224D01*
X5381636Y-61213224D01*
X5410207Y-61198938D01*
X5424493Y-61184652D01*
X5438779Y-61156081D01*
X5553065Y-61027509D02*
X5553065Y-61084652D01*
X5667350Y-61027509D02*
X5667350Y-61084652D01*
X6110207Y-61441795D02*
X6095922Y-61427509D01*
X6067350Y-61384652D01*
X6053064Y-61356081D01*
X6038779Y-61313224D01*
X6024493Y-61241795D01*
X6024493Y-61184652D01*
X6038779Y-61113224D01*
X6053064Y-61070367D01*
X6067350Y-61041795D01*
X6095922Y-60998938D01*
X6110207Y-60984652D01*
X6195922Y-61027509D02*
X6381636Y-61027509D01*
X6281636Y-61141795D01*
X6324493Y-61141795D01*
X6353064Y-61156081D01*
X6367350Y-61170367D01*
X6381636Y-61198938D01*
X6381636Y-61270367D01*
X6367350Y-61298938D01*
X6353064Y-61313224D01*
X6324493Y-61327509D01*
X6238779Y-61327509D01*
X6210207Y-61313224D01*
X6195922Y-61298938D01*
X6495922Y-61056081D02*
X6510207Y-61041795D01*
X6538779Y-61027509D01*
X6610207Y-61027509D01*
X6638779Y-61041795D01*
X6653064Y-61056081D01*
X6667350Y-61084652D01*
X6667350Y-61113224D01*
X6653064Y-61156081D01*
X6481636Y-61327509D01*
X6667350Y-61327509D01*
X7024493Y-61327509D02*
X7024493Y-61027509D01*
X7153064Y-61327509D02*
X7153064Y-61170367D01*
X7138779Y-61141795D01*
X7110207Y-61127509D01*
X7067350Y-61127509D01*
X7038779Y-61141795D01*
X7024493Y-61156081D01*
X7338779Y-61327509D02*
X7310207Y-61313224D01*
X7295922Y-61298938D01*
X7281636Y-61270367D01*
X7281636Y-61184652D01*
X7295922Y-61156081D01*
X7310207Y-61141795D01*
X7338779Y-61127509D01*
X7381636Y-61127509D01*
X7410207Y-61141795D01*
X7424493Y-61156081D01*
X7438779Y-61184652D01*
X7438779Y-61270367D01*
X7424493Y-61298938D01*
X7410207Y-61313224D01*
X7381636Y-61327509D01*
X7338779Y-61327509D01*
X7610207Y-61327509D02*
X7581636Y-61313224D01*
X7567350Y-61284652D01*
X7567350Y-61027509D01*
X7838779Y-61313224D02*
X7810207Y-61327509D01*
X7753064Y-61327509D01*
X7724493Y-61313224D01*
X7710207Y-61284652D01*
X7710207Y-61170367D01*
X7724493Y-61141795D01*
X7753064Y-61127509D01*
X7810207Y-61127509D01*
X7838779Y-61141795D01*
X7853064Y-61170367D01*
X7853064Y-61198938D01*
X7710207Y-61227509D01*
X7967350Y-61313224D02*
X7995922Y-61327509D01*
X8053064Y-61327509D01*
X8081636Y-61313224D01*
X8095922Y-61284652D01*
X8095922Y-61270367D01*
X8081636Y-61241795D01*
X8053064Y-61227509D01*
X8010207Y-61227509D01*
X7981636Y-61213224D01*
X7967350Y-61184652D01*
X7967350Y-61170367D01*
X7981636Y-61141795D01*
X8010207Y-61127509D01*
X8053064Y-61127509D01*
X8081636Y-61141795D01*
X8195922Y-61441795D02*
X8210207Y-61427509D01*
X8238779Y-61384652D01*
X8253064Y-61356081D01*
X8267350Y-61313224D01*
X8281636Y-61241795D01*
X8281636Y-61184652D01*
X8267350Y-61113224D01*
X8253064Y-61070367D01*
X8238779Y-61041795D01*
X8210207Y-60998938D01*
X8195922Y-60984652D01*
X8738779Y-61441795D02*
X8724493Y-61427509D01*
X8695922Y-61384652D01*
X8681636Y-61356081D01*
X8667350Y-61313224D01*
X8653065Y-61241795D01*
X8653065Y-61184652D01*
X8667350Y-61113224D01*
X8681636Y-61070367D01*
X8695922Y-61041795D01*
X8724493Y-60998938D01*
X8738779Y-60984652D01*
X8853065Y-61127509D02*
X8853065Y-61327509D01*
X8853065Y-61156081D02*
X8867350Y-61141795D01*
X8895922Y-61127509D01*
X8938779Y-61127509D01*
X8967350Y-61141795D01*
X8981636Y-61170367D01*
X8981636Y-61327509D01*
X9167350Y-61327509D02*
X9138779Y-61313224D01*
X9124493Y-61298938D01*
X9110207Y-61270367D01*
X9110207Y-61184652D01*
X9124493Y-61156081D01*
X9138779Y-61141795D01*
X9167350Y-61127509D01*
X9210207Y-61127509D01*
X9238779Y-61141795D01*
X9253065Y-61156081D01*
X9267350Y-61184652D01*
X9267350Y-61270367D01*
X9253065Y-61298938D01*
X9238779Y-61313224D01*
X9210207Y-61327509D01*
X9167350Y-61327509D01*
X9353065Y-61127509D02*
X9467350Y-61127509D01*
X9395922Y-61027509D02*
X9395922Y-61284652D01*
X9410207Y-61313224D01*
X9438779Y-61327509D01*
X9467350Y-61327509D01*
X9795922Y-61127509D02*
X9795922Y-61427509D01*
X9795922Y-61141795D02*
X9824493Y-61127509D01*
X9881636Y-61127509D01*
X9910207Y-61141795D01*
X9924493Y-61156081D01*
X9938779Y-61184652D01*
X9938779Y-61270367D01*
X9924493Y-61298938D01*
X9910207Y-61313224D01*
X9881636Y-61327509D01*
X9824493Y-61327509D01*
X9795922Y-61313224D01*
X10110207Y-61327509D02*
X10081636Y-61313224D01*
X10067350Y-61284652D01*
X10067350Y-61027509D01*
X10353065Y-61327509D02*
X10353065Y-61170367D01*
X10338779Y-61141795D01*
X10310207Y-61127509D01*
X10253065Y-61127509D01*
X10224493Y-61141795D01*
X10353065Y-61313224D02*
X10324493Y-61327509D01*
X10253065Y-61327509D01*
X10224493Y-61313224D01*
X10210207Y-61284652D01*
X10210207Y-61256081D01*
X10224493Y-61227509D01*
X10253065Y-61213224D01*
X10324493Y-61213224D01*
X10353065Y-61198938D01*
X10453065Y-61127509D02*
X10567350Y-61127509D01*
X10495922Y-61027509D02*
X10495922Y-61284652D01*
X10510207Y-61313224D01*
X10538779Y-61327509D01*
X10567350Y-61327509D01*
X10781636Y-61313224D02*
X10753065Y-61327509D01*
X10695922Y-61327509D01*
X10667350Y-61313224D01*
X10653065Y-61284652D01*
X10653065Y-61170367D01*
X10667350Y-61141795D01*
X10695922Y-61127509D01*
X10753065Y-61127509D01*
X10781636Y-61141795D01*
X10795922Y-61170367D01*
X10795922Y-61198938D01*
X10653065Y-61227509D01*
X11053065Y-61327509D02*
X11053065Y-61027509D01*
X11053065Y-61313224D02*
X11024493Y-61327509D01*
X10967350Y-61327509D01*
X10938779Y-61313224D01*
X10924493Y-61298938D01*
X10910207Y-61270367D01*
X10910207Y-61184652D01*
X10924493Y-61156081D01*
X10938779Y-61141795D01*
X10967350Y-61127509D01*
X11024493Y-61127509D01*
X11053065Y-61141795D01*
X11167350Y-61441795D02*
X11181636Y-61427509D01*
X11210207Y-61384652D01*
X11224493Y-61356081D01*
X11238779Y-61313224D01*
X11253064Y-61241795D01*
X11253064Y-61184652D01*
X11238779Y-61113224D01*
X11224493Y-61070367D01*
X11210207Y-61041795D01*
X11181636Y-60998938D01*
X11167350Y-60984652D01*
X1423779Y-61587795D02*
G75*
G03X1423779Y-61587795I-147500J0D01*
G01*
X1695922Y-61452081D02*
X1710207Y-61437795D01*
X1738779Y-61423509D01*
X1810207Y-61423509D01*
X1838779Y-61437795D01*
X1853064Y-61452081D01*
X1867350Y-61480652D01*
X1867350Y-61509224D01*
X1853064Y-61552081D01*
X1681636Y-61723509D01*
X1867350Y-61723509D01*
X1995922Y-61694938D02*
X2010207Y-61709224D01*
X1995922Y-61723509D01*
X1981636Y-61709224D01*
X1995922Y-61694938D01*
X1995922Y-61723509D01*
X2153065Y-61723509D02*
X2210207Y-61723509D01*
X2238779Y-61709224D01*
X2253065Y-61694938D01*
X2281636Y-61652081D01*
X2295922Y-61594938D01*
X2295922Y-61480652D01*
X2281636Y-61452081D01*
X2267350Y-61437795D01*
X2238779Y-61423509D01*
X2181636Y-61423509D01*
X2153065Y-61437795D01*
X2138779Y-61452081D01*
X2124493Y-61480652D01*
X2124493Y-61552081D01*
X2138779Y-61580652D01*
X2153065Y-61594938D01*
X2181636Y-61609224D01*
X2238779Y-61609224D01*
X2267350Y-61594938D01*
X2281636Y-61580652D01*
X2295922Y-61552081D01*
X2567350Y-61423509D02*
X2424493Y-61423509D01*
X2410207Y-61566367D01*
X2424493Y-61552081D01*
X2453065Y-61537795D01*
X2524493Y-61537795D01*
X2553065Y-61552081D01*
X2567350Y-61566367D01*
X2581636Y-61594938D01*
X2581636Y-61666367D01*
X2567350Y-61694938D01*
X2553065Y-61709224D01*
X2524493Y-61723509D01*
X2453065Y-61723509D01*
X2424493Y-61709224D01*
X2410207Y-61694938D01*
X2710207Y-61723509D02*
X2710207Y-61523509D01*
X2710207Y-61552081D02*
X2724493Y-61537795D01*
X2753065Y-61523509D01*
X2795922Y-61523509D01*
X2824493Y-61537795D01*
X2838779Y-61566367D01*
X2838779Y-61723509D01*
X2838779Y-61566367D02*
X2853064Y-61537795D01*
X2881636Y-61523509D01*
X2924493Y-61523509D01*
X2953064Y-61537795D01*
X2967350Y-61566367D01*
X2967350Y-61723509D01*
X3110207Y-61723509D02*
X3110207Y-61523509D01*
X3110207Y-61552081D02*
X3124493Y-61537795D01*
X3153064Y-61523509D01*
X3195922Y-61523509D01*
X3224493Y-61537795D01*
X3238779Y-61566367D01*
X3238779Y-61723509D01*
X3238779Y-61566367D02*
X3253064Y-61537795D01*
X3281636Y-61523509D01*
X3324493Y-61523509D01*
X3353064Y-61537795D01*
X3367350Y-61566367D01*
X3367350Y-61723509D01*
X3953064Y-61409224D02*
X3695922Y-61794938D01*
X4338779Y-61423509D02*
X4367350Y-61423509D01*
X4395922Y-61437795D01*
X4410207Y-61452081D01*
X4424493Y-61480652D01*
X4438779Y-61537795D01*
X4438779Y-61609224D01*
X4424493Y-61666367D01*
X4410207Y-61694938D01*
X4395922Y-61709224D01*
X4367350Y-61723509D01*
X4338779Y-61723509D01*
X4310207Y-61709224D01*
X4295922Y-61694938D01*
X4281636Y-61666367D01*
X4267350Y-61609224D01*
X4267350Y-61537795D01*
X4281636Y-61480652D01*
X4295922Y-61452081D01*
X4310207Y-61437795D01*
X4338779Y-61423509D01*
X4567350Y-61694938D02*
X4581636Y-61709224D01*
X4567350Y-61723509D01*
X4553065Y-61709224D01*
X4567350Y-61694938D01*
X4567350Y-61723509D01*
X4867350Y-61723509D02*
X4695922Y-61723509D01*
X4781636Y-61723509D02*
X4781636Y-61423509D01*
X4753065Y-61466367D01*
X4724493Y-61494938D01*
X4695922Y-61509224D01*
X5153065Y-61723509D02*
X4981636Y-61723509D01*
X5067350Y-61723509D02*
X5067350Y-61423509D01*
X5038779Y-61466367D01*
X5010207Y-61494938D01*
X4981636Y-61509224D01*
X5410207Y-61423509D02*
X5353065Y-61423509D01*
X5324493Y-61437795D01*
X5310207Y-61452081D01*
X5281636Y-61494938D01*
X5267350Y-61552081D01*
X5267350Y-61666367D01*
X5281636Y-61694938D01*
X5295922Y-61709224D01*
X5324493Y-61723509D01*
X5381636Y-61723509D01*
X5410207Y-61709224D01*
X5424493Y-61694938D01*
X5438779Y-61666367D01*
X5438779Y-61594938D01*
X5424493Y-61566367D01*
X5410207Y-61552081D01*
X5381636Y-61537795D01*
X5324493Y-61537795D01*
X5295922Y-61552081D01*
X5281636Y-61566367D01*
X5267350Y-61594938D01*
X5553065Y-61423509D02*
X5553065Y-61480652D01*
X5667350Y-61423509D02*
X5667350Y-61480652D01*
X6110207Y-61837795D02*
X6095922Y-61823509D01*
X6067350Y-61780652D01*
X6053064Y-61752081D01*
X6038779Y-61709224D01*
X6024493Y-61637795D01*
X6024493Y-61580652D01*
X6038779Y-61509224D01*
X6053064Y-61466367D01*
X6067350Y-61437795D01*
X6095922Y-61394938D01*
X6110207Y-61380652D01*
X6195922Y-61423509D02*
X6381636Y-61423509D01*
X6281636Y-61537795D01*
X6324493Y-61537795D01*
X6353064Y-61552081D01*
X6367350Y-61566367D01*
X6381636Y-61594938D01*
X6381636Y-61666367D01*
X6367350Y-61694938D01*
X6353064Y-61709224D01*
X6324493Y-61723509D01*
X6238779Y-61723509D01*
X6210207Y-61709224D01*
X6195922Y-61694938D01*
X6495922Y-61452081D02*
X6510207Y-61437795D01*
X6538779Y-61423509D01*
X6610207Y-61423509D01*
X6638779Y-61437795D01*
X6653064Y-61452081D01*
X6667350Y-61480652D01*
X6667350Y-61509224D01*
X6653064Y-61552081D01*
X6481636Y-61723509D01*
X6667350Y-61723509D01*
X7024493Y-61723509D02*
X7024493Y-61423509D01*
X7153064Y-61723509D02*
X7153064Y-61566367D01*
X7138779Y-61537795D01*
X7110207Y-61523509D01*
X7067350Y-61523509D01*
X7038779Y-61537795D01*
X7024493Y-61552081D01*
X7338779Y-61723509D02*
X7310207Y-61709224D01*
X7295922Y-61694938D01*
X7281636Y-61666367D01*
X7281636Y-61580652D01*
X7295922Y-61552081D01*
X7310207Y-61537795D01*
X7338779Y-61523509D01*
X7381636Y-61523509D01*
X7410207Y-61537795D01*
X7424493Y-61552081D01*
X7438779Y-61580652D01*
X7438779Y-61666367D01*
X7424493Y-61694938D01*
X7410207Y-61709224D01*
X7381636Y-61723509D01*
X7338779Y-61723509D01*
X7610207Y-61723509D02*
X7581636Y-61709224D01*
X7567350Y-61680652D01*
X7567350Y-61423509D01*
X7838779Y-61709224D02*
X7810207Y-61723509D01*
X7753064Y-61723509D01*
X7724493Y-61709224D01*
X7710207Y-61680652D01*
X7710207Y-61566367D01*
X7724493Y-61537795D01*
X7753064Y-61523509D01*
X7810207Y-61523509D01*
X7838779Y-61537795D01*
X7853064Y-61566367D01*
X7853064Y-61594938D01*
X7710207Y-61623509D01*
X7967350Y-61709224D02*
X7995922Y-61723509D01*
X8053064Y-61723509D01*
X8081636Y-61709224D01*
X8095922Y-61680652D01*
X8095922Y-61666367D01*
X8081636Y-61637795D01*
X8053064Y-61623509D01*
X8010207Y-61623509D01*
X7981636Y-61609224D01*
X7967350Y-61580652D01*
X7967350Y-61566367D01*
X7981636Y-61537795D01*
X8010207Y-61523509D01*
X8053064Y-61523509D01*
X8081636Y-61537795D01*
X8195922Y-61837795D02*
X8210207Y-61823509D01*
X8238779Y-61780652D01*
X8253064Y-61752081D01*
X8267350Y-61709224D01*
X8281636Y-61637795D01*
X8281636Y-61580652D01*
X8267350Y-61509224D01*
X8253064Y-61466367D01*
X8238779Y-61437795D01*
X8210207Y-61394938D01*
X8195922Y-61380652D01*
X8738779Y-61837795D02*
X8724493Y-61823509D01*
X8695922Y-61780652D01*
X8681636Y-61752081D01*
X8667350Y-61709224D01*
X8653065Y-61637795D01*
X8653065Y-61580652D01*
X8667350Y-61509224D01*
X8681636Y-61466367D01*
X8695922Y-61437795D01*
X8724493Y-61394938D01*
X8738779Y-61380652D01*
X8853065Y-61523509D02*
X8853065Y-61723509D01*
X8853065Y-61552081D02*
X8867350Y-61537795D01*
X8895922Y-61523509D01*
X8938779Y-61523509D01*
X8967350Y-61537795D01*
X8981636Y-61566367D01*
X8981636Y-61723509D01*
X9167350Y-61723509D02*
X9138779Y-61709224D01*
X9124493Y-61694938D01*
X9110207Y-61666367D01*
X9110207Y-61580652D01*
X9124493Y-61552081D01*
X9138779Y-61537795D01*
X9167350Y-61523509D01*
X9210207Y-61523509D01*
X9238779Y-61537795D01*
X9253065Y-61552081D01*
X9267350Y-61580652D01*
X9267350Y-61666367D01*
X9253065Y-61694938D01*
X9238779Y-61709224D01*
X9210207Y-61723509D01*
X9167350Y-61723509D01*
X9353065Y-61523509D02*
X9467350Y-61523509D01*
X9395922Y-61423509D02*
X9395922Y-61680652D01*
X9410207Y-61709224D01*
X9438779Y-61723509D01*
X9467350Y-61723509D01*
X9795922Y-61523509D02*
X9795922Y-61823509D01*
X9795922Y-61537795D02*
X9824493Y-61523509D01*
X9881636Y-61523509D01*
X9910207Y-61537795D01*
X9924493Y-61552081D01*
X9938779Y-61580652D01*
X9938779Y-61666367D01*
X9924493Y-61694938D01*
X9910207Y-61709224D01*
X9881636Y-61723509D01*
X9824493Y-61723509D01*
X9795922Y-61709224D01*
X10110207Y-61723509D02*
X10081636Y-61709224D01*
X10067350Y-61680652D01*
X10067350Y-61423509D01*
X10353065Y-61723509D02*
X10353065Y-61566367D01*
X10338779Y-61537795D01*
X10310207Y-61523509D01*
X10253065Y-61523509D01*
X10224493Y-61537795D01*
X10353065Y-61709224D02*
X10324493Y-61723509D01*
X10253065Y-61723509D01*
X10224493Y-61709224D01*
X10210207Y-61680652D01*
X10210207Y-61652081D01*
X10224493Y-61623509D01*
X10253065Y-61609224D01*
X10324493Y-61609224D01*
X10353065Y-61594938D01*
X10453065Y-61523509D02*
X10567350Y-61523509D01*
X10495922Y-61423509D02*
X10495922Y-61680652D01*
X10510207Y-61709224D01*
X10538779Y-61723509D01*
X10567350Y-61723509D01*
X10781636Y-61709224D02*
X10753065Y-61723509D01*
X10695922Y-61723509D01*
X10667350Y-61709224D01*
X10653065Y-61680652D01*
X10653065Y-61566367D01*
X10667350Y-61537795D01*
X10695922Y-61523509D01*
X10753065Y-61523509D01*
X10781636Y-61537795D01*
X10795922Y-61566367D01*
X10795922Y-61594938D01*
X10653065Y-61623509D01*
X11053065Y-61723509D02*
X11053065Y-61423509D01*
X11053065Y-61709224D02*
X11024493Y-61723509D01*
X10967350Y-61723509D01*
X10938779Y-61709224D01*
X10924493Y-61694938D01*
X10910207Y-61666367D01*
X10910207Y-61580652D01*
X10924493Y-61552081D01*
X10938779Y-61537795D01*
X10967350Y-61523509D01*
X11024493Y-61523509D01*
X11053065Y-61537795D01*
X11167350Y-61837795D02*
X11181636Y-61823509D01*
X11210207Y-61780652D01*
X11224493Y-61752081D01*
X11238779Y-61709224D01*
X11253064Y-61637795D01*
X11253064Y-61580652D01*
X11238779Y-61509224D01*
X11224493Y-61466367D01*
X11210207Y-61437795D01*
X11181636Y-61394938D01*
X11167350Y-61380652D01*
X1273779Y-61862795D02*
X1273779Y-62162795D01*
X1123779Y-62012795D02*
X1423779Y-62012795D01*
X1681636Y-61848509D02*
X1867350Y-61848509D01*
X1767350Y-61962795D01*
X1810207Y-61962795D01*
X1838779Y-61977081D01*
X1853064Y-61991367D01*
X1867350Y-62019938D01*
X1867350Y-62091367D01*
X1853064Y-62119938D01*
X1838779Y-62134224D01*
X1810207Y-62148509D01*
X1724493Y-62148509D01*
X1695922Y-62134224D01*
X1681636Y-62119938D01*
X1995922Y-62119938D02*
X2010207Y-62134224D01*
X1995922Y-62148509D01*
X1981636Y-62134224D01*
X1995922Y-62119938D01*
X1995922Y-62148509D01*
X2195922Y-61848509D02*
X2224493Y-61848509D01*
X2253065Y-61862795D01*
X2267350Y-61877081D01*
X2281636Y-61905652D01*
X2295922Y-61962795D01*
X2295922Y-62034224D01*
X2281636Y-62091367D01*
X2267350Y-62119938D01*
X2253065Y-62134224D01*
X2224493Y-62148509D01*
X2195922Y-62148509D01*
X2167350Y-62134224D01*
X2153065Y-62119938D01*
X2138779Y-62091367D01*
X2124493Y-62034224D01*
X2124493Y-61962795D01*
X2138779Y-61905652D01*
X2153065Y-61877081D01*
X2167350Y-61862795D01*
X2195922Y-61848509D01*
X2481636Y-61848509D02*
X2510207Y-61848509D01*
X2538779Y-61862795D01*
X2553065Y-61877081D01*
X2567350Y-61905652D01*
X2581636Y-61962795D01*
X2581636Y-62034224D01*
X2567350Y-62091367D01*
X2553065Y-62119938D01*
X2538779Y-62134224D01*
X2510207Y-62148509D01*
X2481636Y-62148509D01*
X2453065Y-62134224D01*
X2438779Y-62119938D01*
X2424493Y-62091367D01*
X2410207Y-62034224D01*
X2410207Y-61962795D01*
X2424493Y-61905652D01*
X2438779Y-61877081D01*
X2453065Y-61862795D01*
X2481636Y-61848509D01*
X2710207Y-62148509D02*
X2710207Y-61948509D01*
X2710207Y-61977081D02*
X2724493Y-61962795D01*
X2753065Y-61948509D01*
X2795922Y-61948509D01*
X2824493Y-61962795D01*
X2838779Y-61991367D01*
X2838779Y-62148509D01*
X2838779Y-61991367D02*
X2853064Y-61962795D01*
X2881636Y-61948509D01*
X2924493Y-61948509D01*
X2953064Y-61962795D01*
X2967350Y-61991367D01*
X2967350Y-62148509D01*
X3110207Y-62148509D02*
X3110207Y-61948509D01*
X3110207Y-61977081D02*
X3124493Y-61962795D01*
X3153064Y-61948509D01*
X3195922Y-61948509D01*
X3224493Y-61962795D01*
X3238779Y-61991367D01*
X3238779Y-62148509D01*
X3238779Y-61991367D02*
X3253064Y-61962795D01*
X3281636Y-61948509D01*
X3324493Y-61948509D01*
X3353064Y-61962795D01*
X3367350Y-61991367D01*
X3367350Y-62148509D01*
X3953064Y-61834224D02*
X3695922Y-62219938D01*
X4338779Y-61848509D02*
X4367350Y-61848509D01*
X4395922Y-61862795D01*
X4410207Y-61877081D01*
X4424493Y-61905652D01*
X4438779Y-61962795D01*
X4438779Y-62034224D01*
X4424493Y-62091367D01*
X4410207Y-62119938D01*
X4395922Y-62134224D01*
X4367350Y-62148509D01*
X4338779Y-62148509D01*
X4310207Y-62134224D01*
X4295922Y-62119938D01*
X4281636Y-62091367D01*
X4267350Y-62034224D01*
X4267350Y-61962795D01*
X4281636Y-61905652D01*
X4295922Y-61877081D01*
X4310207Y-61862795D01*
X4338779Y-61848509D01*
X4567350Y-62119938D02*
X4581636Y-62134224D01*
X4567350Y-62148509D01*
X4553065Y-62134224D01*
X4567350Y-62119938D01*
X4567350Y-62148509D01*
X4867350Y-62148509D02*
X4695922Y-62148509D01*
X4781636Y-62148509D02*
X4781636Y-61848509D01*
X4753065Y-61891367D01*
X4724493Y-61919938D01*
X4695922Y-61934224D01*
X5153065Y-62148509D02*
X4981636Y-62148509D01*
X5067350Y-62148509D02*
X5067350Y-61848509D01*
X5038779Y-61891367D01*
X5010207Y-61919938D01*
X4981636Y-61934224D01*
X5324493Y-61977081D02*
X5295922Y-61962795D01*
X5281636Y-61948509D01*
X5267350Y-61919938D01*
X5267350Y-61905652D01*
X5281636Y-61877081D01*
X5295922Y-61862795D01*
X5324493Y-61848509D01*
X5381636Y-61848509D01*
X5410207Y-61862795D01*
X5424493Y-61877081D01*
X5438779Y-61905652D01*
X5438779Y-61919938D01*
X5424493Y-61948509D01*
X5410207Y-61962795D01*
X5381636Y-61977081D01*
X5324493Y-61977081D01*
X5295922Y-61991367D01*
X5281636Y-62005652D01*
X5267350Y-62034224D01*
X5267350Y-62091367D01*
X5281636Y-62119938D01*
X5295922Y-62134224D01*
X5324493Y-62148509D01*
X5381636Y-62148509D01*
X5410207Y-62134224D01*
X5424493Y-62119938D01*
X5438779Y-62091367D01*
X5438779Y-62034224D01*
X5424493Y-62005652D01*
X5410207Y-61991367D01*
X5381636Y-61977081D01*
X5553065Y-61848509D02*
X5553065Y-61905652D01*
X5667350Y-61848509D02*
X5667350Y-61905652D01*
X6110207Y-62262795D02*
X6095922Y-62248509D01*
X6067350Y-62205652D01*
X6053064Y-62177081D01*
X6038779Y-62134224D01*
X6024493Y-62062795D01*
X6024493Y-62005652D01*
X6038779Y-61934224D01*
X6053064Y-61891367D01*
X6067350Y-61862795D01*
X6095922Y-61819938D01*
X6110207Y-61805652D01*
X6195922Y-61848509D02*
X6381636Y-61848509D01*
X6281636Y-61962795D01*
X6324493Y-61962795D01*
X6353064Y-61977081D01*
X6367350Y-61991367D01*
X6381636Y-62019938D01*
X6381636Y-62091367D01*
X6367350Y-62119938D01*
X6353064Y-62134224D01*
X6324493Y-62148509D01*
X6238779Y-62148509D01*
X6210207Y-62134224D01*
X6195922Y-62119938D01*
X6495922Y-61877081D02*
X6510207Y-61862795D01*
X6538779Y-61848509D01*
X6610207Y-61848509D01*
X6638779Y-61862795D01*
X6653064Y-61877081D01*
X6667350Y-61905652D01*
X6667350Y-61934224D01*
X6653064Y-61977081D01*
X6481636Y-62148509D01*
X6667350Y-62148509D01*
X7024493Y-62148509D02*
X7024493Y-61848509D01*
X7153064Y-62148509D02*
X7153064Y-61991367D01*
X7138779Y-61962795D01*
X7110207Y-61948509D01*
X7067350Y-61948509D01*
X7038779Y-61962795D01*
X7024493Y-61977081D01*
X7338779Y-62148509D02*
X7310207Y-62134224D01*
X7295922Y-62119938D01*
X7281636Y-62091367D01*
X7281636Y-62005652D01*
X7295922Y-61977081D01*
X7310207Y-61962795D01*
X7338779Y-61948509D01*
X7381636Y-61948509D01*
X7410207Y-61962795D01*
X7424493Y-61977081D01*
X7438779Y-62005652D01*
X7438779Y-62091367D01*
X7424493Y-62119938D01*
X7410207Y-62134224D01*
X7381636Y-62148509D01*
X7338779Y-62148509D01*
X7610207Y-62148509D02*
X7581636Y-62134224D01*
X7567350Y-62105652D01*
X7567350Y-61848509D01*
X7838779Y-62134224D02*
X7810207Y-62148509D01*
X7753064Y-62148509D01*
X7724493Y-62134224D01*
X7710207Y-62105652D01*
X7710207Y-61991367D01*
X7724493Y-61962795D01*
X7753064Y-61948509D01*
X7810207Y-61948509D01*
X7838779Y-61962795D01*
X7853064Y-61991367D01*
X7853064Y-62019938D01*
X7710207Y-62048509D01*
X7967350Y-62134224D02*
X7995922Y-62148509D01*
X8053064Y-62148509D01*
X8081636Y-62134224D01*
X8095922Y-62105652D01*
X8095922Y-62091367D01*
X8081636Y-62062795D01*
X8053064Y-62048509D01*
X8010207Y-62048509D01*
X7981636Y-62034224D01*
X7967350Y-62005652D01*
X7967350Y-61991367D01*
X7981636Y-61962795D01*
X8010207Y-61948509D01*
X8053064Y-61948509D01*
X8081636Y-61962795D01*
X8195922Y-62262795D02*
X8210207Y-62248509D01*
X8238779Y-62205652D01*
X8253064Y-62177081D01*
X8267350Y-62134224D01*
X8281636Y-62062795D01*
X8281636Y-62005652D01*
X8267350Y-61934224D01*
X8253064Y-61891367D01*
X8238779Y-61862795D01*
X8210207Y-61819938D01*
X8195922Y-61805652D01*
X8738779Y-62262795D02*
X8724493Y-62248509D01*
X8695922Y-62205652D01*
X8681636Y-62177081D01*
X8667350Y-62134224D01*
X8653065Y-62062795D01*
X8653065Y-62005652D01*
X8667350Y-61934224D01*
X8681636Y-61891367D01*
X8695922Y-61862795D01*
X8724493Y-61819938D01*
X8738779Y-61805652D01*
X8853065Y-61948509D02*
X8853065Y-62148509D01*
X8853065Y-61977081D02*
X8867350Y-61962795D01*
X8895922Y-61948509D01*
X8938779Y-61948509D01*
X8967350Y-61962795D01*
X8981636Y-61991367D01*
X8981636Y-62148509D01*
X9167350Y-62148509D02*
X9138779Y-62134224D01*
X9124493Y-62119938D01*
X9110207Y-62091367D01*
X9110207Y-62005652D01*
X9124493Y-61977081D01*
X9138779Y-61962795D01*
X9167350Y-61948509D01*
X9210207Y-61948509D01*
X9238779Y-61962795D01*
X9253065Y-61977081D01*
X9267350Y-62005652D01*
X9267350Y-62091367D01*
X9253065Y-62119938D01*
X9238779Y-62134224D01*
X9210207Y-62148509D01*
X9167350Y-62148509D01*
X9353065Y-61948509D02*
X9467350Y-61948509D01*
X9395922Y-61848509D02*
X9395922Y-62105652D01*
X9410207Y-62134224D01*
X9438779Y-62148509D01*
X9467350Y-62148509D01*
X9795922Y-61948509D02*
X9795922Y-62248509D01*
X9795922Y-61962795D02*
X9824493Y-61948509D01*
X9881636Y-61948509D01*
X9910207Y-61962795D01*
X9924493Y-61977081D01*
X9938779Y-62005652D01*
X9938779Y-62091367D01*
X9924493Y-62119938D01*
X9910207Y-62134224D01*
X9881636Y-62148509D01*
X9824493Y-62148509D01*
X9795922Y-62134224D01*
X10110207Y-62148509D02*
X10081636Y-62134224D01*
X10067350Y-62105652D01*
X10067350Y-61848509D01*
X10353065Y-62148509D02*
X10353065Y-61991367D01*
X10338779Y-61962795D01*
X10310207Y-61948509D01*
X10253065Y-61948509D01*
X10224493Y-61962795D01*
X10353065Y-62134224D02*
X10324493Y-62148509D01*
X10253065Y-62148509D01*
X10224493Y-62134224D01*
X10210207Y-62105652D01*
X10210207Y-62077081D01*
X10224493Y-62048509D01*
X10253065Y-62034224D01*
X10324493Y-62034224D01*
X10353065Y-62019938D01*
X10453065Y-61948509D02*
X10567350Y-61948509D01*
X10495922Y-61848509D02*
X10495922Y-62105652D01*
X10510207Y-62134224D01*
X10538779Y-62148509D01*
X10567350Y-62148509D01*
X10781636Y-62134224D02*
X10753065Y-62148509D01*
X10695922Y-62148509D01*
X10667350Y-62134224D01*
X10653065Y-62105652D01*
X10653065Y-61991367D01*
X10667350Y-61962795D01*
X10695922Y-61948509D01*
X10753065Y-61948509D01*
X10781636Y-61962795D01*
X10795922Y-61991367D01*
X10795922Y-62019938D01*
X10653065Y-62048509D01*
X11053065Y-62148509D02*
X11053065Y-61848509D01*
X11053065Y-62134224D02*
X11024493Y-62148509D01*
X10967350Y-62148509D01*
X10938779Y-62134224D01*
X10924493Y-62119938D01*
X10910207Y-62091367D01*
X10910207Y-62005652D01*
X10924493Y-61977081D01*
X10938779Y-61962795D01*
X10967350Y-61948509D01*
X11024493Y-61948509D01*
X11053065Y-61962795D01*
X11167350Y-62262795D02*
X11181636Y-62248509D01*
X11210207Y-62205652D01*
X11224493Y-62177081D01*
X11238779Y-62134224D01*
X11253064Y-62062795D01*
X11253064Y-62005652D01*
X11238779Y-61934224D01*
X11224493Y-61891367D01*
X11210207Y-61862795D01*
X11181636Y-61819938D01*
X11167350Y-61805652D01*
X1349825Y-62621341D02*
X1349825Y-62264249D01*
X992733Y-62264249D01*
X992733Y-62621341D01*
X1349825Y-62621341D01*
X1853064Y-62278509D02*
X1710207Y-62278509D01*
X1695922Y-62421367D01*
X1710207Y-62407081D01*
X1738779Y-62392795D01*
X1810207Y-62392795D01*
X1838779Y-62407081D01*
X1853064Y-62421367D01*
X1867350Y-62449938D01*
X1867350Y-62521367D01*
X1853064Y-62549938D01*
X1838779Y-62564224D01*
X1810207Y-62578509D01*
X1738779Y-62578509D01*
X1710207Y-62564224D01*
X1695922Y-62549938D01*
X1995922Y-62549938D02*
X2010207Y-62564224D01*
X1995922Y-62578509D01*
X1981636Y-62564224D01*
X1995922Y-62549938D01*
X1995922Y-62578509D01*
X2195922Y-62278509D02*
X2224493Y-62278509D01*
X2253065Y-62292795D01*
X2267350Y-62307081D01*
X2281636Y-62335652D01*
X2295922Y-62392795D01*
X2295922Y-62464224D01*
X2281636Y-62521367D01*
X2267350Y-62549938D01*
X2253065Y-62564224D01*
X2224493Y-62578509D01*
X2195922Y-62578509D01*
X2167350Y-62564224D01*
X2153065Y-62549938D01*
X2138779Y-62521367D01*
X2124493Y-62464224D01*
X2124493Y-62392795D01*
X2138779Y-62335652D01*
X2153065Y-62307081D01*
X2167350Y-62292795D01*
X2195922Y-62278509D01*
X2567350Y-62278509D02*
X2424493Y-62278509D01*
X2410207Y-62421367D01*
X2424493Y-62407081D01*
X2453065Y-62392795D01*
X2524493Y-62392795D01*
X2553065Y-62407081D01*
X2567350Y-62421367D01*
X2581636Y-62449938D01*
X2581636Y-62521367D01*
X2567350Y-62549938D01*
X2553065Y-62564224D01*
X2524493Y-62578509D01*
X2453065Y-62578509D01*
X2424493Y-62564224D01*
X2410207Y-62549938D01*
X2710207Y-62578509D02*
X2710207Y-62378509D01*
X2710207Y-62407081D02*
X2724493Y-62392795D01*
X2753065Y-62378509D01*
X2795922Y-62378509D01*
X2824493Y-62392795D01*
X2838779Y-62421367D01*
X2838779Y-62578509D01*
X2838779Y-62421367D02*
X2853064Y-62392795D01*
X2881636Y-62378509D01*
X2924493Y-62378509D01*
X2953064Y-62392795D01*
X2967350Y-62421367D01*
X2967350Y-62578509D01*
X3110207Y-62578509D02*
X3110207Y-62378509D01*
X3110207Y-62407081D02*
X3124493Y-62392795D01*
X3153064Y-62378509D01*
X3195922Y-62378509D01*
X3224493Y-62392795D01*
X3238779Y-62421367D01*
X3238779Y-62578509D01*
X3238779Y-62421367D02*
X3253064Y-62392795D01*
X3281636Y-62378509D01*
X3324493Y-62378509D01*
X3353064Y-62392795D01*
X3367350Y-62421367D01*
X3367350Y-62578509D01*
X3953064Y-62264224D02*
X3695922Y-62649938D01*
X4338779Y-62278509D02*
X4367350Y-62278509D01*
X4395922Y-62292795D01*
X4410207Y-62307081D01*
X4424493Y-62335652D01*
X4438779Y-62392795D01*
X4438779Y-62464224D01*
X4424493Y-62521367D01*
X4410207Y-62549938D01*
X4395922Y-62564224D01*
X4367350Y-62578509D01*
X4338779Y-62578509D01*
X4310207Y-62564224D01*
X4295922Y-62549938D01*
X4281636Y-62521367D01*
X4267350Y-62464224D01*
X4267350Y-62392795D01*
X4281636Y-62335652D01*
X4295922Y-62307081D01*
X4310207Y-62292795D01*
X4338779Y-62278509D01*
X4567350Y-62549938D02*
X4581636Y-62564224D01*
X4567350Y-62578509D01*
X4553065Y-62564224D01*
X4567350Y-62549938D01*
X4567350Y-62578509D01*
X4867350Y-62578509D02*
X4695922Y-62578509D01*
X4781636Y-62578509D02*
X4781636Y-62278509D01*
X4753065Y-62321367D01*
X4724493Y-62349938D01*
X4695922Y-62364224D01*
X5010207Y-62578509D02*
X5067350Y-62578509D01*
X5095922Y-62564224D01*
X5110207Y-62549938D01*
X5138779Y-62507081D01*
X5153065Y-62449938D01*
X5153065Y-62335652D01*
X5138779Y-62307081D01*
X5124493Y-62292795D01*
X5095922Y-62278509D01*
X5038779Y-62278509D01*
X5010207Y-62292795D01*
X4995922Y-62307081D01*
X4981636Y-62335652D01*
X4981636Y-62407081D01*
X4995922Y-62435652D01*
X5010207Y-62449938D01*
X5038779Y-62464224D01*
X5095922Y-62464224D01*
X5124493Y-62449938D01*
X5138779Y-62435652D01*
X5153065Y-62407081D01*
X5295922Y-62578509D02*
X5353065Y-62578509D01*
X5381636Y-62564224D01*
X5395922Y-62549938D01*
X5424493Y-62507081D01*
X5438779Y-62449938D01*
X5438779Y-62335652D01*
X5424493Y-62307081D01*
X5410207Y-62292795D01*
X5381636Y-62278509D01*
X5324493Y-62278509D01*
X5295922Y-62292795D01*
X5281636Y-62307081D01*
X5267350Y-62335652D01*
X5267350Y-62407081D01*
X5281636Y-62435652D01*
X5295922Y-62449938D01*
X5324493Y-62464224D01*
X5381636Y-62464224D01*
X5410207Y-62449938D01*
X5424493Y-62435652D01*
X5438779Y-62407081D01*
X5553065Y-62278509D02*
X5553065Y-62335652D01*
X5667350Y-62278509D02*
X5667350Y-62335652D01*
X6110207Y-62692795D02*
X6095922Y-62678509D01*
X6067350Y-62635652D01*
X6053064Y-62607081D01*
X6038779Y-62564224D01*
X6024493Y-62492795D01*
X6024493Y-62435652D01*
X6038779Y-62364224D01*
X6053064Y-62321367D01*
X6067350Y-62292795D01*
X6095922Y-62249938D01*
X6110207Y-62235652D01*
X6381636Y-62578509D02*
X6210207Y-62578509D01*
X6295922Y-62578509D02*
X6295922Y-62278509D01*
X6267350Y-62321367D01*
X6238779Y-62349938D01*
X6210207Y-62364224D01*
X6638779Y-62278509D02*
X6581636Y-62278509D01*
X6553064Y-62292795D01*
X6538779Y-62307081D01*
X6510207Y-62349938D01*
X6495922Y-62407081D01*
X6495922Y-62521367D01*
X6510207Y-62549938D01*
X6524493Y-62564224D01*
X6553064Y-62578509D01*
X6610207Y-62578509D01*
X6638779Y-62564224D01*
X6653064Y-62549938D01*
X6667350Y-62521367D01*
X6667350Y-62449938D01*
X6653064Y-62421367D01*
X6638779Y-62407081D01*
X6610207Y-62392795D01*
X6553064Y-62392795D01*
X6524493Y-62407081D01*
X6510207Y-62421367D01*
X6495922Y-62449938D01*
X7024493Y-62578509D02*
X7024493Y-62278509D01*
X7153064Y-62578509D02*
X7153064Y-62421367D01*
X7138779Y-62392795D01*
X7110207Y-62378509D01*
X7067350Y-62378509D01*
X7038779Y-62392795D01*
X7024493Y-62407081D01*
X7338779Y-62578509D02*
X7310207Y-62564224D01*
X7295922Y-62549938D01*
X7281636Y-62521367D01*
X7281636Y-62435652D01*
X7295922Y-62407081D01*
X7310207Y-62392795D01*
X7338779Y-62378509D01*
X7381636Y-62378509D01*
X7410207Y-62392795D01*
X7424493Y-62407081D01*
X7438779Y-62435652D01*
X7438779Y-62521367D01*
X7424493Y-62549938D01*
X7410207Y-62564224D01*
X7381636Y-62578509D01*
X7338779Y-62578509D01*
X7610207Y-62578509D02*
X7581636Y-62564224D01*
X7567350Y-62535652D01*
X7567350Y-62278509D01*
X7838779Y-62564224D02*
X7810207Y-62578509D01*
X7753064Y-62578509D01*
X7724493Y-62564224D01*
X7710207Y-62535652D01*
X7710207Y-62421367D01*
X7724493Y-62392795D01*
X7753064Y-62378509D01*
X7810207Y-62378509D01*
X7838779Y-62392795D01*
X7853064Y-62421367D01*
X7853064Y-62449938D01*
X7710207Y-62478509D01*
X7967350Y-62564224D02*
X7995922Y-62578509D01*
X8053064Y-62578509D01*
X8081636Y-62564224D01*
X8095922Y-62535652D01*
X8095922Y-62521367D01*
X8081636Y-62492795D01*
X8053064Y-62478509D01*
X8010207Y-62478509D01*
X7981636Y-62464224D01*
X7967350Y-62435652D01*
X7967350Y-62421367D01*
X7981636Y-62392795D01*
X8010207Y-62378509D01*
X8053064Y-62378509D01*
X8081636Y-62392795D01*
X8195922Y-62692795D02*
X8210207Y-62678509D01*
X8238779Y-62635652D01*
X8253064Y-62607081D01*
X8267350Y-62564224D01*
X8281636Y-62492795D01*
X8281636Y-62435652D01*
X8267350Y-62364224D01*
X8253064Y-62321367D01*
X8238779Y-62292795D01*
X8210207Y-62249938D01*
X8195922Y-62235652D01*
X8738779Y-62692795D02*
X8724493Y-62678509D01*
X8695922Y-62635652D01*
X8681636Y-62607081D01*
X8667350Y-62564224D01*
X8653065Y-62492795D01*
X8653065Y-62435652D01*
X8667350Y-62364224D01*
X8681636Y-62321367D01*
X8695922Y-62292795D01*
X8724493Y-62249938D01*
X8738779Y-62235652D01*
X8853065Y-62378509D02*
X8853065Y-62578509D01*
X8853065Y-62407081D02*
X8867350Y-62392795D01*
X8895922Y-62378509D01*
X8938779Y-62378509D01*
X8967350Y-62392795D01*
X8981636Y-62421367D01*
X8981636Y-62578509D01*
X9167350Y-62578509D02*
X9138779Y-62564224D01*
X9124493Y-62549938D01*
X9110207Y-62521367D01*
X9110207Y-62435652D01*
X9124493Y-62407081D01*
X9138779Y-62392795D01*
X9167350Y-62378509D01*
X9210207Y-62378509D01*
X9238779Y-62392795D01*
X9253065Y-62407081D01*
X9267350Y-62435652D01*
X9267350Y-62521367D01*
X9253065Y-62549938D01*
X9238779Y-62564224D01*
X9210207Y-62578509D01*
X9167350Y-62578509D01*
X9353065Y-62378509D02*
X9467350Y-62378509D01*
X9395922Y-62278509D02*
X9395922Y-62535652D01*
X9410207Y-62564224D01*
X9438779Y-62578509D01*
X9467350Y-62578509D01*
X9795922Y-62378509D02*
X9795922Y-62678509D01*
X9795922Y-62392795D02*
X9824493Y-62378509D01*
X9881636Y-62378509D01*
X9910207Y-62392795D01*
X9924493Y-62407081D01*
X9938779Y-62435652D01*
X9938779Y-62521367D01*
X9924493Y-62549938D01*
X9910207Y-62564224D01*
X9881636Y-62578509D01*
X9824493Y-62578509D01*
X9795922Y-62564224D01*
X10110207Y-62578509D02*
X10081636Y-62564224D01*
X10067350Y-62535652D01*
X10067350Y-62278509D01*
X10353065Y-62578509D02*
X10353065Y-62421367D01*
X10338779Y-62392795D01*
X10310207Y-62378509D01*
X10253065Y-62378509D01*
X10224493Y-62392795D01*
X10353065Y-62564224D02*
X10324493Y-62578509D01*
X10253065Y-62578509D01*
X10224493Y-62564224D01*
X10210207Y-62535652D01*
X10210207Y-62507081D01*
X10224493Y-62478509D01*
X10253065Y-62464224D01*
X10324493Y-62464224D01*
X10353065Y-62449938D01*
X10453065Y-62378509D02*
X10567350Y-62378509D01*
X10495922Y-62278509D02*
X10495922Y-62535652D01*
X10510207Y-62564224D01*
X10538779Y-62578509D01*
X10567350Y-62578509D01*
X10781636Y-62564224D02*
X10753065Y-62578509D01*
X10695922Y-62578509D01*
X10667350Y-62564224D01*
X10653065Y-62535652D01*
X10653065Y-62421367D01*
X10667350Y-62392795D01*
X10695922Y-62378509D01*
X10753065Y-62378509D01*
X10781636Y-62392795D01*
X10795922Y-62421367D01*
X10795922Y-62449938D01*
X10653065Y-62478509D01*
X11053065Y-62578509D02*
X11053065Y-62278509D01*
X11053065Y-62564224D02*
X11024493Y-62578509D01*
X10967350Y-62578509D01*
X10938779Y-62564224D01*
X10924493Y-62549938D01*
X10910207Y-62521367D01*
X10910207Y-62435652D01*
X10924493Y-62407081D01*
X10938779Y-62392795D01*
X10967350Y-62378509D01*
X11024493Y-62378509D01*
X11053065Y-62392795D01*
X11167350Y-62692795D02*
X11181636Y-62678509D01*
X11210207Y-62635652D01*
X11224493Y-62607081D01*
X11238779Y-62564224D01*
X11253064Y-62492795D01*
X11253064Y-62435652D01*
X11238779Y-62364224D01*
X11224493Y-62321367D01*
X11210207Y-62292795D01*
X11181636Y-62249938D01*
X11167350Y-62235652D01*
M02*
