G04 #@! TF.GenerationSoftware,KiCad,Pcbnew,(5.1.4)-1*
G04 #@! TF.CreationDate,2023-05-18T17:00:28-04:00*
G04 #@! TF.ProjectId,ThumbsUp,5468756d-6273-4557-902e-6b696361645f,rev?*
G04 #@! TF.SameCoordinates,Original*
G04 #@! TF.FileFunction,Soldermask,Top*
G04 #@! TF.FilePolarity,Negative*
%FSLAX46Y46*%
G04 Gerber Fmt 4.6, Leading zero omitted, Abs format (unit mm)*
G04 Created by KiCad (PCBNEW (5.1.4)-1) date 2023-05-18 17:00:28*
%MOMM*%
%LPD*%
G04 APERTURE LIST*
%ADD10C,0.100000*%
G04 APERTURE END LIST*
D10*
G36*
X116333588Y-599570672D02*
G01*
X116399772Y-599577190D01*
X116569611Y-599628710D01*
X116726136Y-599712375D01*
X116761874Y-599741705D01*
X116863331Y-599824967D01*
X116946593Y-599926424D01*
X116975923Y-599962162D01*
X117059588Y-600118687D01*
X117111108Y-600288526D01*
X117128504Y-600465153D01*
X117111108Y-600641780D01*
X117059588Y-600811619D01*
X116975923Y-600968144D01*
X116946593Y-601003882D01*
X116863331Y-601105339D01*
X116761874Y-601188601D01*
X116726136Y-601217931D01*
X116569611Y-601301596D01*
X116399772Y-601353116D01*
X116333588Y-601359634D01*
X116267405Y-601366153D01*
X116178885Y-601366153D01*
X116112702Y-601359634D01*
X116046518Y-601353116D01*
X115876679Y-601301596D01*
X115720154Y-601217931D01*
X115684416Y-601188601D01*
X115582959Y-601105339D01*
X115499697Y-601003882D01*
X115470367Y-600968144D01*
X115386702Y-600811619D01*
X115335182Y-600641780D01*
X115317786Y-600465153D01*
X115335182Y-600288526D01*
X115386702Y-600118687D01*
X115470367Y-599962162D01*
X115499697Y-599926424D01*
X115582959Y-599824967D01*
X115684416Y-599741705D01*
X115720154Y-599712375D01*
X115876679Y-599628710D01*
X116046518Y-599577190D01*
X116112702Y-599570672D01*
X116178885Y-599564153D01*
X116267405Y-599564153D01*
X116333588Y-599570672D01*
X116333588Y-599570672D01*
G37*
G36*
X113880136Y-598913272D02*
G01*
X113946320Y-598919790D01*
X114116159Y-598971310D01*
X114272684Y-599054975D01*
X114308422Y-599084305D01*
X114409879Y-599167567D01*
X114493141Y-599269024D01*
X114522471Y-599304762D01*
X114606136Y-599461287D01*
X114657656Y-599631126D01*
X114675052Y-599807753D01*
X114657656Y-599984380D01*
X114606136Y-600154219D01*
X114522471Y-600310744D01*
X114493141Y-600346482D01*
X114409879Y-600447939D01*
X114308422Y-600531201D01*
X114272684Y-600560531D01*
X114116159Y-600644196D01*
X113946320Y-600695716D01*
X113880135Y-600702235D01*
X113813953Y-600708753D01*
X113725433Y-600708753D01*
X113659251Y-600702235D01*
X113593066Y-600695716D01*
X113423227Y-600644196D01*
X113266702Y-600560531D01*
X113230964Y-600531201D01*
X113129507Y-600447939D01*
X113046245Y-600346482D01*
X113016915Y-600310744D01*
X112933250Y-600154219D01*
X112881730Y-599984380D01*
X112864334Y-599807753D01*
X112881730Y-599631126D01*
X112933250Y-599461287D01*
X113016915Y-599304762D01*
X113046245Y-599269024D01*
X113129507Y-599167567D01*
X113230964Y-599084305D01*
X113266702Y-599054975D01*
X113423227Y-598971310D01*
X113593066Y-598919790D01*
X113659250Y-598913272D01*
X113725433Y-598906753D01*
X113813953Y-598906753D01*
X113880136Y-598913272D01*
X113880136Y-598913272D01*
G37*
G36*
X111426685Y-598255871D02*
G01*
X111492869Y-598262389D01*
X111662708Y-598313909D01*
X111819233Y-598397574D01*
X111854971Y-598426904D01*
X111956428Y-598510166D01*
X112039690Y-598611623D01*
X112069020Y-598647361D01*
X112152685Y-598803886D01*
X112204205Y-598973725D01*
X112221601Y-599150352D01*
X112204205Y-599326979D01*
X112152685Y-599496818D01*
X112069020Y-599653343D01*
X112039690Y-599689081D01*
X111956428Y-599790538D01*
X111854971Y-599873800D01*
X111819233Y-599903130D01*
X111662708Y-599986795D01*
X111492869Y-600038315D01*
X111426685Y-600044833D01*
X111360502Y-600051352D01*
X111271982Y-600051352D01*
X111205799Y-600044833D01*
X111139615Y-600038315D01*
X110969776Y-599986795D01*
X110813251Y-599903130D01*
X110777513Y-599873800D01*
X110676056Y-599790538D01*
X110592794Y-599689081D01*
X110563464Y-599653343D01*
X110479799Y-599496818D01*
X110428279Y-599326979D01*
X110410883Y-599150352D01*
X110428279Y-598973725D01*
X110479799Y-598803886D01*
X110563464Y-598647361D01*
X110592794Y-598611623D01*
X110676056Y-598510166D01*
X110777513Y-598426904D01*
X110813251Y-598397574D01*
X110969776Y-598313909D01*
X111139615Y-598262389D01*
X111205799Y-598255871D01*
X111271982Y-598249352D01*
X111360502Y-598249352D01*
X111426685Y-598255871D01*
X111426685Y-598255871D01*
G37*
G36*
X109966285Y-597855849D02*
G01*
X109499893Y-599596447D01*
X107759295Y-599130055D01*
X108225687Y-597389457D01*
X109966285Y-597855849D01*
X109966285Y-597855849D01*
G37*
G36*
X54173232Y-585298471D02*
G01*
X54239416Y-585304989D01*
X54409255Y-585356509D01*
X54565780Y-585440174D01*
X54601518Y-585469504D01*
X54702975Y-585552766D01*
X54786237Y-585654223D01*
X54815567Y-585689961D01*
X54899232Y-585846486D01*
X54950752Y-586016325D01*
X54968148Y-586192952D01*
X54950752Y-586369579D01*
X54899232Y-586539418D01*
X54815567Y-586695943D01*
X54786237Y-586731681D01*
X54702975Y-586833138D01*
X54601518Y-586916400D01*
X54565780Y-586945730D01*
X54409255Y-587029395D01*
X54239416Y-587080915D01*
X54173231Y-587087434D01*
X54107049Y-587093952D01*
X54018529Y-587093952D01*
X53952347Y-587087434D01*
X53886162Y-587080915D01*
X53716323Y-587029395D01*
X53559798Y-586945730D01*
X53524060Y-586916400D01*
X53422603Y-586833138D01*
X53339341Y-586731681D01*
X53310011Y-586695943D01*
X53226346Y-586539418D01*
X53174826Y-586369579D01*
X53157430Y-586192952D01*
X53174826Y-586016325D01*
X53226346Y-585846486D01*
X53310011Y-585689961D01*
X53339341Y-585654223D01*
X53422603Y-585552766D01*
X53524060Y-585469504D01*
X53559798Y-585440174D01*
X53716323Y-585356509D01*
X53886162Y-585304989D01*
X53952346Y-585298471D01*
X54018529Y-585291952D01*
X54107049Y-585291952D01*
X54173232Y-585298471D01*
X54173232Y-585298471D01*
G37*
G36*
X54173231Y-582758470D02*
G01*
X54239416Y-582764989D01*
X54409255Y-582816509D01*
X54565780Y-582900174D01*
X54601518Y-582929504D01*
X54702975Y-583012766D01*
X54786237Y-583114223D01*
X54815567Y-583149961D01*
X54899232Y-583306486D01*
X54950752Y-583476325D01*
X54968148Y-583652952D01*
X54950752Y-583829579D01*
X54899232Y-583999418D01*
X54815567Y-584155943D01*
X54786237Y-584191681D01*
X54702975Y-584293138D01*
X54601518Y-584376400D01*
X54565780Y-584405730D01*
X54409255Y-584489395D01*
X54239416Y-584540915D01*
X54173232Y-584547433D01*
X54107049Y-584553952D01*
X54018529Y-584553952D01*
X53952346Y-584547433D01*
X53886162Y-584540915D01*
X53716323Y-584489395D01*
X53559798Y-584405730D01*
X53524060Y-584376400D01*
X53422603Y-584293138D01*
X53339341Y-584191681D01*
X53310011Y-584155943D01*
X53226346Y-583999418D01*
X53174826Y-583829579D01*
X53157430Y-583652952D01*
X53174826Y-583476325D01*
X53226346Y-583306486D01*
X53310011Y-583149961D01*
X53339341Y-583114223D01*
X53422603Y-583012766D01*
X53524060Y-582929504D01*
X53559798Y-582900174D01*
X53716323Y-582816509D01*
X53886162Y-582764989D01*
X53952347Y-582758470D01*
X54018529Y-582751952D01*
X54107049Y-582751952D01*
X54173231Y-582758470D01*
X54173231Y-582758470D01*
G37*
G36*
X54173231Y-580218470D02*
G01*
X54239416Y-580224989D01*
X54409255Y-580276509D01*
X54565780Y-580360174D01*
X54601518Y-580389504D01*
X54702975Y-580472766D01*
X54786237Y-580574223D01*
X54815567Y-580609961D01*
X54899232Y-580766486D01*
X54950752Y-580936325D01*
X54968148Y-581112952D01*
X54950752Y-581289579D01*
X54899232Y-581459418D01*
X54815567Y-581615943D01*
X54786237Y-581651681D01*
X54702975Y-581753138D01*
X54601518Y-581836400D01*
X54565780Y-581865730D01*
X54409255Y-581949395D01*
X54239416Y-582000915D01*
X54173231Y-582007434D01*
X54107049Y-582013952D01*
X54018529Y-582013952D01*
X53952347Y-582007434D01*
X53886162Y-582000915D01*
X53716323Y-581949395D01*
X53559798Y-581865730D01*
X53524060Y-581836400D01*
X53422603Y-581753138D01*
X53339341Y-581651681D01*
X53310011Y-581615943D01*
X53226346Y-581459418D01*
X53174826Y-581289579D01*
X53157430Y-581112952D01*
X53174826Y-580936325D01*
X53226346Y-580766486D01*
X53310011Y-580609961D01*
X53339341Y-580574223D01*
X53422603Y-580472766D01*
X53524060Y-580389504D01*
X53559798Y-580360174D01*
X53716323Y-580276509D01*
X53886162Y-580224989D01*
X53952347Y-580218470D01*
X54018529Y-580211952D01*
X54107049Y-580211952D01*
X54173231Y-580218470D01*
X54173231Y-580218470D01*
G37*
G36*
X54963789Y-579473952D02*
G01*
X53161789Y-579473952D01*
X53161789Y-577671952D01*
X54963789Y-577671952D01*
X54963789Y-579473952D01*
X54963789Y-579473952D01*
G37*
G36*
X40725374Y-570501754D02*
G01*
X40875199Y-570531556D01*
X41157463Y-570648473D01*
X41411494Y-570818211D01*
X41627530Y-571034247D01*
X41797268Y-571288278D01*
X41914185Y-571570542D01*
X41973789Y-571870192D01*
X41973789Y-572175712D01*
X41914185Y-572475362D01*
X41797268Y-572757626D01*
X41627530Y-573011657D01*
X41411494Y-573227693D01*
X41157463Y-573397431D01*
X40875199Y-573514348D01*
X40725374Y-573544150D01*
X40575550Y-573573952D01*
X40270028Y-573573952D01*
X40120204Y-573544150D01*
X39970379Y-573514348D01*
X39688115Y-573397431D01*
X39434084Y-573227693D01*
X39218048Y-573011657D01*
X39048310Y-572757626D01*
X38931393Y-572475362D01*
X38871789Y-572175712D01*
X38871789Y-571870192D01*
X38931393Y-571570542D01*
X39048310Y-571288278D01*
X39218048Y-571034247D01*
X39434084Y-570818211D01*
X39688115Y-570648473D01*
X39970379Y-570531556D01*
X40120204Y-570501754D01*
X40270028Y-570471952D01*
X40575550Y-570471952D01*
X40725374Y-570501754D01*
X40725374Y-570501754D01*
G37*
G36*
X47075374Y-567961754D02*
G01*
X47225199Y-567991556D01*
X47507463Y-568108473D01*
X47761494Y-568278211D01*
X47977530Y-568494247D01*
X48147268Y-568748278D01*
X48264185Y-569030542D01*
X48323789Y-569330192D01*
X48323789Y-569635712D01*
X48264185Y-569935362D01*
X48147268Y-570217626D01*
X47977530Y-570471657D01*
X47761494Y-570687693D01*
X47507463Y-570857431D01*
X47225199Y-570974348D01*
X47075374Y-571004150D01*
X46925550Y-571033952D01*
X46620028Y-571033952D01*
X46470204Y-571004150D01*
X46320379Y-570974348D01*
X46038115Y-570857431D01*
X45784084Y-570687693D01*
X45568048Y-570471657D01*
X45398310Y-570217626D01*
X45281393Y-569935362D01*
X45221789Y-569635712D01*
X45221789Y-569330192D01*
X45281393Y-569030542D01*
X45398310Y-568748278D01*
X45568048Y-568494247D01*
X45784084Y-568278211D01*
X46038115Y-568108473D01*
X46320379Y-567991556D01*
X46470204Y-567961754D01*
X46620028Y-567931952D01*
X46925550Y-567931952D01*
X47075374Y-567961754D01*
X47075374Y-567961754D01*
G37*
G36*
X43559263Y-564976636D02*
G01*
X43777263Y-565066935D01*
X43931412Y-565130785D01*
X44266337Y-565354575D01*
X44551166Y-565639404D01*
X44774956Y-565974329D01*
X44807351Y-566052538D01*
X44929105Y-566346478D01*
X45007689Y-566741546D01*
X45007689Y-567144358D01*
X44929105Y-567539426D01*
X44878240Y-567662224D01*
X44774956Y-567911575D01*
X44551166Y-568246500D01*
X44266337Y-568531329D01*
X43931412Y-568755119D01*
X43777263Y-568818969D01*
X43559263Y-568909268D01*
X43164195Y-568987852D01*
X42761383Y-568987852D01*
X42366315Y-568909268D01*
X42148315Y-568818969D01*
X41994166Y-568755119D01*
X41659241Y-568531329D01*
X41374412Y-568246500D01*
X41150622Y-567911575D01*
X41047338Y-567662224D01*
X40996473Y-567539426D01*
X40917889Y-567144358D01*
X40917889Y-566741546D01*
X40996473Y-566346478D01*
X41118227Y-566052538D01*
X41150622Y-565974329D01*
X41374412Y-565639404D01*
X41659241Y-565354575D01*
X41994166Y-565130785D01*
X42148315Y-565066935D01*
X42366315Y-564976636D01*
X42761383Y-564898052D01*
X43164195Y-564898052D01*
X43559263Y-564976636D01*
X43559263Y-564976636D01*
G37*
G36*
X59775375Y-565501754D02*
G01*
X59925200Y-565531556D01*
X60207464Y-565648473D01*
X60461495Y-565818211D01*
X60677531Y-566034247D01*
X60847269Y-566288278D01*
X60964186Y-566570542D01*
X60964186Y-566570543D01*
X61020122Y-566851749D01*
X61023790Y-566870192D01*
X61023790Y-567175712D01*
X60964186Y-567475362D01*
X60847269Y-567757626D01*
X60677531Y-568011657D01*
X60461495Y-568227693D01*
X60207464Y-568397431D01*
X59925200Y-568514348D01*
X59775375Y-568544150D01*
X59625551Y-568573952D01*
X59320029Y-568573952D01*
X59170205Y-568544150D01*
X59020380Y-568514348D01*
X58738116Y-568397431D01*
X58484085Y-568227693D01*
X58268049Y-568011657D01*
X58098311Y-567757626D01*
X57981394Y-567475362D01*
X57921790Y-567175712D01*
X57921790Y-566870192D01*
X57925459Y-566851749D01*
X57981394Y-566570543D01*
X57981394Y-566570542D01*
X58098311Y-566288278D01*
X58268049Y-566034247D01*
X58484085Y-565818211D01*
X58738116Y-565648473D01*
X59020380Y-565531556D01*
X59170205Y-565501754D01*
X59320029Y-565471952D01*
X59625551Y-565471952D01*
X59775375Y-565501754D01*
X59775375Y-565501754D01*
G37*
G36*
X48312893Y-566052537D02*
G01*
X48481415Y-566122341D01*
X48633080Y-566223680D01*
X48762061Y-566352661D01*
X48863400Y-566504326D01*
X48933204Y-566672848D01*
X48968789Y-566851749D01*
X48968789Y-567034155D01*
X48933204Y-567213056D01*
X48863400Y-567381578D01*
X48762061Y-567533243D01*
X48633080Y-567662224D01*
X48481415Y-567763563D01*
X48312893Y-567833367D01*
X48133992Y-567868952D01*
X47951586Y-567868952D01*
X47772685Y-567833367D01*
X47604163Y-567763563D01*
X47452498Y-567662224D01*
X47323517Y-567533243D01*
X47222178Y-567381578D01*
X47152374Y-567213056D01*
X47116789Y-567034155D01*
X47116789Y-566851749D01*
X47152374Y-566672848D01*
X47222178Y-566504326D01*
X47323517Y-566352661D01*
X47452498Y-566223680D01*
X47604163Y-566122341D01*
X47772685Y-566052537D01*
X47951586Y-566016952D01*
X48133992Y-566016952D01*
X48312893Y-566052537D01*
X48312893Y-566052537D01*
G37*
G36*
X38152893Y-566052537D02*
G01*
X38321415Y-566122341D01*
X38473080Y-566223680D01*
X38602061Y-566352661D01*
X38703400Y-566504326D01*
X38773204Y-566672848D01*
X38808789Y-566851749D01*
X38808789Y-567034155D01*
X38773204Y-567213056D01*
X38703400Y-567381578D01*
X38602061Y-567533243D01*
X38473080Y-567662224D01*
X38321415Y-567763563D01*
X38152893Y-567833367D01*
X37973992Y-567868952D01*
X37791586Y-567868952D01*
X37612685Y-567833367D01*
X37444163Y-567763563D01*
X37292498Y-567662224D01*
X37163517Y-567533243D01*
X37062178Y-567381578D01*
X36992374Y-567213056D01*
X36956789Y-567034155D01*
X36956789Y-566851749D01*
X36992374Y-566672848D01*
X37062178Y-566504326D01*
X37163517Y-566352661D01*
X37292498Y-566223680D01*
X37444163Y-566122341D01*
X37612685Y-566052537D01*
X37791586Y-566016952D01*
X37973992Y-566016952D01*
X38152893Y-566052537D01*
X38152893Y-566052537D01*
G37*
G36*
X66125375Y-562961754D02*
G01*
X66275200Y-562991556D01*
X66557464Y-563108473D01*
X66811495Y-563278211D01*
X67027531Y-563494247D01*
X67197269Y-563748278D01*
X67264908Y-563911575D01*
X67314186Y-564030543D01*
X67357143Y-564246499D01*
X67373790Y-564330192D01*
X67373790Y-564635712D01*
X67314186Y-564935362D01*
X67197269Y-565217626D01*
X67027531Y-565471657D01*
X66811495Y-565687693D01*
X66557464Y-565857431D01*
X66275200Y-565974348D01*
X66125375Y-566004150D01*
X65975551Y-566033952D01*
X65670029Y-566033952D01*
X65520205Y-566004150D01*
X65370380Y-565974348D01*
X65088116Y-565857431D01*
X64834085Y-565687693D01*
X64618049Y-565471657D01*
X64448311Y-565217626D01*
X64331394Y-564935362D01*
X64271790Y-564635712D01*
X64271790Y-564330192D01*
X64288438Y-564246499D01*
X64331394Y-564030543D01*
X64380672Y-563911575D01*
X64448311Y-563748278D01*
X64618049Y-563494247D01*
X64834085Y-563278211D01*
X65088116Y-563108473D01*
X65370380Y-562991556D01*
X65520205Y-562961754D01*
X65670029Y-562931952D01*
X65975551Y-562931952D01*
X66125375Y-562961754D01*
X66125375Y-562961754D01*
G37*
G36*
X24509263Y-560976636D02*
G01*
X24648348Y-561034247D01*
X24881412Y-561130785D01*
X25216337Y-561354575D01*
X25501166Y-561639404D01*
X25724956Y-561974329D01*
X25757351Y-562052538D01*
X25879105Y-562346478D01*
X25957689Y-562741546D01*
X25957689Y-563144358D01*
X25879105Y-563539426D01*
X25828240Y-563662224D01*
X25724956Y-563911575D01*
X25501166Y-564246500D01*
X25216337Y-564531329D01*
X24881412Y-564755119D01*
X24727263Y-564818969D01*
X24509263Y-564909268D01*
X24114195Y-564987852D01*
X23711383Y-564987852D01*
X23316315Y-564909268D01*
X23098315Y-564818969D01*
X22944166Y-564755119D01*
X22609241Y-564531329D01*
X22324412Y-564246500D01*
X22100622Y-563911575D01*
X21997338Y-563662224D01*
X21946473Y-563539426D01*
X21867889Y-563144358D01*
X21867889Y-562741546D01*
X21946473Y-562346478D01*
X22068227Y-562052538D01*
X22100622Y-561974329D01*
X22324412Y-561639404D01*
X22609241Y-561354575D01*
X22944166Y-561130785D01*
X23177230Y-561034247D01*
X23316315Y-560976636D01*
X23711383Y-560898052D01*
X24114195Y-560898052D01*
X24509263Y-560976636D01*
X24509263Y-560976636D01*
G37*
G36*
X62609264Y-559976636D02*
G01*
X62827264Y-560066935D01*
X62981413Y-560130785D01*
X63316338Y-560354575D01*
X63601167Y-560639404D01*
X63824957Y-560974329D01*
X63857352Y-561052538D01*
X63979106Y-561346478D01*
X64057690Y-561741546D01*
X64057690Y-562144358D01*
X63979106Y-562539426D01*
X63923840Y-562672849D01*
X63824957Y-562911575D01*
X63601167Y-563246500D01*
X63316338Y-563531329D01*
X62981413Y-563755119D01*
X62827264Y-563818969D01*
X62609264Y-563909268D01*
X62214196Y-563987852D01*
X61811384Y-563987852D01*
X61416316Y-563909268D01*
X61198316Y-563818969D01*
X61044167Y-563755119D01*
X60709242Y-563531329D01*
X60424413Y-563246500D01*
X60200623Y-562911575D01*
X60101740Y-562672849D01*
X60046474Y-562539426D01*
X59967890Y-562144358D01*
X59967890Y-561741546D01*
X60046474Y-561346478D01*
X60168228Y-561052538D01*
X60200623Y-560974329D01*
X60424413Y-560639404D01*
X60709242Y-560354575D01*
X61044167Y-560130785D01*
X61198316Y-560066935D01*
X61416316Y-559976636D01*
X61811384Y-559898052D01*
X62214196Y-559898052D01*
X62609264Y-559976636D01*
X62609264Y-559976636D01*
G37*
G36*
X19102893Y-562052537D02*
G01*
X19271415Y-562122341D01*
X19423080Y-562223680D01*
X19552061Y-562352661D01*
X19653400Y-562504326D01*
X19723204Y-562672848D01*
X19758789Y-562851749D01*
X19758789Y-563034155D01*
X19723204Y-563213056D01*
X19653400Y-563381578D01*
X19552061Y-563533243D01*
X19423080Y-563662224D01*
X19271415Y-563763563D01*
X19102893Y-563833367D01*
X18923992Y-563868952D01*
X18741586Y-563868952D01*
X18562685Y-563833367D01*
X18394163Y-563763563D01*
X18242498Y-563662224D01*
X18113517Y-563533243D01*
X18012178Y-563381578D01*
X17942374Y-563213056D01*
X17906789Y-563034155D01*
X17906789Y-562851749D01*
X17942374Y-562672848D01*
X18012178Y-562504326D01*
X18113517Y-562352661D01*
X18242498Y-562223680D01*
X18394163Y-562122341D01*
X18562685Y-562052537D01*
X18741586Y-562016952D01*
X18923992Y-562016952D01*
X19102893Y-562052537D01*
X19102893Y-562052537D01*
G37*
G36*
X29262893Y-562052537D02*
G01*
X29431415Y-562122341D01*
X29583080Y-562223680D01*
X29712061Y-562352661D01*
X29813400Y-562504326D01*
X29883204Y-562672848D01*
X29918789Y-562851749D01*
X29918789Y-563034155D01*
X29883204Y-563213056D01*
X29813400Y-563381578D01*
X29712061Y-563533243D01*
X29583080Y-563662224D01*
X29431415Y-563763563D01*
X29262893Y-563833367D01*
X29083992Y-563868952D01*
X28901586Y-563868952D01*
X28722685Y-563833367D01*
X28554163Y-563763563D01*
X28402498Y-563662224D01*
X28273517Y-563533243D01*
X28172178Y-563381578D01*
X28102374Y-563213056D01*
X28066789Y-563034155D01*
X28066789Y-562851749D01*
X28102374Y-562672848D01*
X28172178Y-562504326D01*
X28273517Y-562352661D01*
X28402498Y-562223680D01*
X28554163Y-562122341D01*
X28722685Y-562052537D01*
X28901586Y-562016952D01*
X29083992Y-562016952D01*
X29262893Y-562052537D01*
X29262893Y-562052537D01*
G37*
G36*
X78825374Y-560501754D02*
G01*
X78975199Y-560531556D01*
X79257463Y-560648473D01*
X79511494Y-560818211D01*
X79727530Y-561034247D01*
X79897268Y-561288278D01*
X80014185Y-561570542D01*
X80021575Y-561607693D01*
X80073789Y-561870191D01*
X80073789Y-562175713D01*
X80043987Y-562325537D01*
X80014185Y-562475362D01*
X79897268Y-562757626D01*
X79727530Y-563011657D01*
X79511494Y-563227693D01*
X79257463Y-563397431D01*
X78975199Y-563514348D01*
X78880212Y-563533242D01*
X78675550Y-563573952D01*
X78370028Y-563573952D01*
X78165366Y-563533242D01*
X78070379Y-563514348D01*
X77788115Y-563397431D01*
X77534084Y-563227693D01*
X77318048Y-563011657D01*
X77148310Y-562757626D01*
X77031393Y-562475362D01*
X77001591Y-562325537D01*
X76971789Y-562175713D01*
X76971789Y-561870191D01*
X77024003Y-561607693D01*
X77031393Y-561570542D01*
X77148310Y-561288278D01*
X77318048Y-561034247D01*
X77534084Y-560818211D01*
X77788115Y-560648473D01*
X78070379Y-560531556D01*
X78220204Y-560501754D01*
X78370028Y-560471952D01*
X78675550Y-560471952D01*
X78825374Y-560501754D01*
X78825374Y-560501754D01*
G37*
G36*
X57202894Y-561052537D02*
G01*
X57371416Y-561122341D01*
X57523081Y-561223680D01*
X57652062Y-561352661D01*
X57753401Y-561504326D01*
X57823205Y-561672848D01*
X57858790Y-561851749D01*
X57858790Y-562034155D01*
X57823205Y-562213056D01*
X57753401Y-562381578D01*
X57652062Y-562533243D01*
X57523081Y-562662224D01*
X57371416Y-562763563D01*
X57202894Y-562833367D01*
X57023993Y-562868952D01*
X56841587Y-562868952D01*
X56662686Y-562833367D01*
X56494164Y-562763563D01*
X56342499Y-562662224D01*
X56213518Y-562533243D01*
X56112179Y-562381578D01*
X56042375Y-562213056D01*
X56006790Y-562034155D01*
X56006790Y-561851749D01*
X56042375Y-561672848D01*
X56112179Y-561504326D01*
X56213518Y-561352661D01*
X56342499Y-561223680D01*
X56494164Y-561122341D01*
X56662686Y-561052537D01*
X56841587Y-561016952D01*
X57023993Y-561016952D01*
X57202894Y-561052537D01*
X57202894Y-561052537D01*
G37*
G36*
X67362894Y-561052537D02*
G01*
X67531416Y-561122341D01*
X67683081Y-561223680D01*
X67812062Y-561352661D01*
X67913401Y-561504326D01*
X67983205Y-561672848D01*
X68018790Y-561851749D01*
X68018790Y-562034155D01*
X67983205Y-562213056D01*
X67913401Y-562381578D01*
X67812062Y-562533243D01*
X67683081Y-562662224D01*
X67531416Y-562763563D01*
X67362894Y-562833367D01*
X67183993Y-562868952D01*
X67001587Y-562868952D01*
X66822686Y-562833367D01*
X66654164Y-562763563D01*
X66502499Y-562662224D01*
X66373518Y-562533243D01*
X66272179Y-562381578D01*
X66202375Y-562213056D01*
X66166790Y-562034155D01*
X66166790Y-561851749D01*
X66202375Y-561672848D01*
X66272179Y-561504326D01*
X66373518Y-561352661D01*
X66502499Y-561223680D01*
X66654164Y-561122341D01*
X66822686Y-561052537D01*
X67001587Y-561016952D01*
X67183993Y-561016952D01*
X67362894Y-561052537D01*
X67362894Y-561052537D01*
G37*
G36*
X20405374Y-558881754D02*
G01*
X20555199Y-558911556D01*
X20837463Y-559028473D01*
X21091494Y-559198211D01*
X21307530Y-559414247D01*
X21477268Y-559668278D01*
X21594185Y-559950542D01*
X21623987Y-560100367D01*
X21653789Y-560250191D01*
X21653789Y-560555713D01*
X21635338Y-560648473D01*
X21594185Y-560855362D01*
X21477268Y-561137626D01*
X21307530Y-561391657D01*
X21091494Y-561607693D01*
X20837463Y-561777431D01*
X20555199Y-561894348D01*
X20405374Y-561924150D01*
X20255550Y-561953952D01*
X19950028Y-561953952D01*
X19800204Y-561924150D01*
X19650379Y-561894348D01*
X19368115Y-561777431D01*
X19114084Y-561607693D01*
X18898048Y-561391657D01*
X18728310Y-561137626D01*
X18611393Y-560855362D01*
X18570240Y-560648473D01*
X18551789Y-560555713D01*
X18551789Y-560250191D01*
X18581591Y-560100367D01*
X18611393Y-559950542D01*
X18728310Y-559668278D01*
X18898048Y-559414247D01*
X19114084Y-559198211D01*
X19368115Y-559028473D01*
X19650379Y-558911556D01*
X19800204Y-558881754D01*
X19950028Y-558851952D01*
X20255550Y-558851952D01*
X20405374Y-558881754D01*
X20405374Y-558881754D01*
G37*
G36*
X85175374Y-557961754D02*
G01*
X85325199Y-557991556D01*
X85607463Y-558108473D01*
X85861494Y-558278211D01*
X86077530Y-558494247D01*
X86247268Y-558748278D01*
X86364185Y-559030542D01*
X86423789Y-559330192D01*
X86423789Y-559635712D01*
X86364185Y-559935362D01*
X86247268Y-560217626D01*
X86077530Y-560471657D01*
X85861494Y-560687693D01*
X85607463Y-560857431D01*
X85325199Y-560974348D01*
X85175374Y-561004150D01*
X85025550Y-561033952D01*
X84720028Y-561033952D01*
X84570204Y-561004150D01*
X84420379Y-560974348D01*
X84138115Y-560857431D01*
X83884084Y-560687693D01*
X83668048Y-560471657D01*
X83498310Y-560217626D01*
X83381393Y-559935362D01*
X83321789Y-559635712D01*
X83321789Y-559330192D01*
X83381393Y-559030542D01*
X83498310Y-558748278D01*
X83668048Y-558494247D01*
X83884084Y-558278211D01*
X84138115Y-558108473D01*
X84420379Y-557991556D01*
X84570204Y-557961754D01*
X84720028Y-557931952D01*
X85025550Y-557931952D01*
X85175374Y-557961754D01*
X85175374Y-557961754D01*
G37*
G36*
X26665581Y-556323893D02*
G01*
X26905199Y-556371556D01*
X27187463Y-556488473D01*
X27441494Y-556658211D01*
X27657530Y-556874247D01*
X27827268Y-557128278D01*
X27944185Y-557410542D01*
X27968592Y-557533243D01*
X27994248Y-557662223D01*
X28003789Y-557710192D01*
X28003789Y-558015712D01*
X27944185Y-558315362D01*
X27827268Y-558597626D01*
X27657530Y-558851657D01*
X27441494Y-559067693D01*
X27187463Y-559237431D01*
X26905199Y-559354348D01*
X26755374Y-559384150D01*
X26605550Y-559413952D01*
X26300028Y-559413952D01*
X26150204Y-559384150D01*
X26000379Y-559354348D01*
X25718115Y-559237431D01*
X25464084Y-559067693D01*
X25248048Y-558851657D01*
X25078310Y-558597626D01*
X24961393Y-558315362D01*
X24901789Y-558015712D01*
X24901789Y-557710192D01*
X24911331Y-557662223D01*
X24936986Y-557533243D01*
X24961393Y-557410542D01*
X25078310Y-557128278D01*
X25248048Y-556874247D01*
X25464084Y-556658211D01*
X25718115Y-556488473D01*
X26000379Y-556371556D01*
X26239997Y-556323893D01*
X26300028Y-556311952D01*
X26605550Y-556311952D01*
X26665581Y-556323893D01*
X26665581Y-556323893D01*
G37*
G36*
X81659263Y-554976636D02*
G01*
X81877263Y-555066935D01*
X82031412Y-555130785D01*
X82366337Y-555354575D01*
X82651166Y-555639404D01*
X82874956Y-555974329D01*
X82907351Y-556052538D01*
X83029105Y-556346478D01*
X83107689Y-556741546D01*
X83107689Y-557144358D01*
X83029105Y-557539426D01*
X82978240Y-557662224D01*
X82874956Y-557911575D01*
X82651166Y-558246500D01*
X82366337Y-558531329D01*
X82031412Y-558755119D01*
X81877263Y-558818969D01*
X81659263Y-558909268D01*
X81264195Y-558987852D01*
X80861383Y-558987852D01*
X80466315Y-558909268D01*
X80248315Y-558818969D01*
X80094166Y-558755119D01*
X79759241Y-558531329D01*
X79474412Y-558246500D01*
X79250622Y-557911575D01*
X79147338Y-557662224D01*
X79096473Y-557539426D01*
X79017889Y-557144358D01*
X79017889Y-556741546D01*
X79096473Y-556346478D01*
X79218227Y-556052538D01*
X79250622Y-555974329D01*
X79474412Y-555639404D01*
X79759241Y-555354575D01*
X80094166Y-555130785D01*
X80248315Y-555066935D01*
X80466315Y-554976636D01*
X80861383Y-554898052D01*
X81264195Y-554898052D01*
X81659263Y-554976636D01*
X81659263Y-554976636D01*
G37*
G36*
X127371599Y-558125893D02*
G01*
X125569599Y-558125893D01*
X125569599Y-556323893D01*
X127371599Y-556323893D01*
X127371599Y-558125893D01*
X127371599Y-558125893D01*
G37*
G36*
X76252893Y-556052537D02*
G01*
X76421415Y-556122341D01*
X76573080Y-556223680D01*
X76702061Y-556352661D01*
X76803400Y-556504326D01*
X76873204Y-556672848D01*
X76908789Y-556851749D01*
X76908789Y-557034155D01*
X76873204Y-557213056D01*
X76803400Y-557381578D01*
X76702061Y-557533243D01*
X76573080Y-557662224D01*
X76421415Y-557763563D01*
X76252893Y-557833367D01*
X76073992Y-557868952D01*
X75891586Y-557868952D01*
X75712685Y-557833367D01*
X75544163Y-557763563D01*
X75392498Y-557662224D01*
X75263517Y-557533243D01*
X75162178Y-557381578D01*
X75092374Y-557213056D01*
X75056789Y-557034155D01*
X75056789Y-556851749D01*
X75092374Y-556672848D01*
X75162178Y-556504326D01*
X75263517Y-556352661D01*
X75392498Y-556223680D01*
X75544163Y-556122341D01*
X75712685Y-556052537D01*
X75891586Y-556016952D01*
X76073992Y-556016952D01*
X76252893Y-556052537D01*
X76252893Y-556052537D01*
G37*
G36*
X86412893Y-556052537D02*
G01*
X86581415Y-556122341D01*
X86733080Y-556223680D01*
X86862061Y-556352661D01*
X86963400Y-556504326D01*
X87033204Y-556672848D01*
X87068789Y-556851749D01*
X87068789Y-557034155D01*
X87033204Y-557213056D01*
X86963400Y-557381578D01*
X86862061Y-557533243D01*
X86733080Y-557662224D01*
X86581415Y-557763563D01*
X86412893Y-557833367D01*
X86233992Y-557868952D01*
X86051586Y-557868952D01*
X85872685Y-557833367D01*
X85704163Y-557763563D01*
X85552498Y-557662224D01*
X85423517Y-557533243D01*
X85322178Y-557381578D01*
X85252374Y-557213056D01*
X85216789Y-557034155D01*
X85216789Y-556851749D01*
X85252374Y-556672848D01*
X85322178Y-556504326D01*
X85423517Y-556352661D01*
X85552498Y-556223680D01*
X85704163Y-556122341D01*
X85872685Y-556052537D01*
X86051586Y-556016952D01*
X86233992Y-556016952D01*
X86412893Y-556052537D01*
X86412893Y-556052537D01*
G37*
G36*
X104427974Y-557301972D02*
G01*
X102625974Y-557301972D01*
X102625974Y-555499972D01*
X104427974Y-555499972D01*
X104427974Y-557301972D01*
X104427974Y-557301972D01*
G37*
G36*
X96017416Y-555506490D02*
G01*
X96083601Y-555513009D01*
X96253440Y-555564529D01*
X96409965Y-555648194D01*
X96445703Y-555677524D01*
X96547160Y-555760786D01*
X96630422Y-555862243D01*
X96659752Y-555897981D01*
X96743417Y-556054506D01*
X96794937Y-556224345D01*
X96812333Y-556400972D01*
X96794937Y-556577599D01*
X96743417Y-556747438D01*
X96659752Y-556903963D01*
X96630422Y-556939701D01*
X96547160Y-557041158D01*
X96445703Y-557124420D01*
X96409965Y-557153750D01*
X96253440Y-557237415D01*
X96083601Y-557288935D01*
X96017416Y-557295454D01*
X95951234Y-557301972D01*
X95862714Y-557301972D01*
X95796532Y-557295454D01*
X95730347Y-557288935D01*
X95560508Y-557237415D01*
X95403983Y-557153750D01*
X95368245Y-557124420D01*
X95266788Y-557041158D01*
X95183526Y-556939701D01*
X95154196Y-556903963D01*
X95070531Y-556747438D01*
X95019011Y-556577599D01*
X95001615Y-556400972D01*
X95019011Y-556224345D01*
X95070531Y-556054506D01*
X95154196Y-555897981D01*
X95183526Y-555862243D01*
X95266788Y-555760786D01*
X95368245Y-555677524D01*
X95403983Y-555648194D01*
X95560508Y-555564529D01*
X95730347Y-555513009D01*
X95796532Y-555506490D01*
X95862714Y-555499972D01*
X95951234Y-555499972D01*
X96017416Y-555506490D01*
X96017416Y-555506490D01*
G37*
G36*
X101097416Y-555506490D02*
G01*
X101163601Y-555513009D01*
X101333440Y-555564529D01*
X101489965Y-555648194D01*
X101525703Y-555677524D01*
X101627160Y-555760786D01*
X101710422Y-555862243D01*
X101739752Y-555897981D01*
X101823417Y-556054506D01*
X101874937Y-556224345D01*
X101892333Y-556400972D01*
X101874937Y-556577599D01*
X101823417Y-556747438D01*
X101739752Y-556903963D01*
X101710422Y-556939701D01*
X101627160Y-557041158D01*
X101525703Y-557124420D01*
X101489965Y-557153750D01*
X101333440Y-557237415D01*
X101163601Y-557288935D01*
X101097416Y-557295454D01*
X101031234Y-557301972D01*
X100942714Y-557301972D01*
X100876532Y-557295454D01*
X100810347Y-557288935D01*
X100640508Y-557237415D01*
X100483983Y-557153750D01*
X100448245Y-557124420D01*
X100346788Y-557041158D01*
X100263526Y-556939701D01*
X100234196Y-556903963D01*
X100150531Y-556747438D01*
X100099011Y-556577599D01*
X100081615Y-556400972D01*
X100099011Y-556224345D01*
X100150531Y-556054506D01*
X100234196Y-555897981D01*
X100263526Y-555862243D01*
X100346788Y-555760786D01*
X100448245Y-555677524D01*
X100483983Y-555648194D01*
X100640508Y-555564529D01*
X100810347Y-555513009D01*
X100876532Y-555506490D01*
X100942714Y-555499972D01*
X101031234Y-555499972D01*
X101097416Y-555506490D01*
X101097416Y-555506490D01*
G37*
G36*
X98557416Y-555506490D02*
G01*
X98623601Y-555513009D01*
X98793440Y-555564529D01*
X98949965Y-555648194D01*
X98985703Y-555677524D01*
X99087160Y-555760786D01*
X99170422Y-555862243D01*
X99199752Y-555897981D01*
X99283417Y-556054506D01*
X99334937Y-556224345D01*
X99352333Y-556400972D01*
X99334937Y-556577599D01*
X99283417Y-556747438D01*
X99199752Y-556903963D01*
X99170422Y-556939701D01*
X99087160Y-557041158D01*
X98985703Y-557124420D01*
X98949965Y-557153750D01*
X98793440Y-557237415D01*
X98623601Y-557288935D01*
X98557416Y-557295454D01*
X98491234Y-557301972D01*
X98402714Y-557301972D01*
X98336532Y-557295454D01*
X98270347Y-557288935D01*
X98100508Y-557237415D01*
X97943983Y-557153750D01*
X97908245Y-557124420D01*
X97806788Y-557041158D01*
X97723526Y-556939701D01*
X97694196Y-556903963D01*
X97610531Y-556747438D01*
X97559011Y-556577599D01*
X97541615Y-556400972D01*
X97559011Y-556224345D01*
X97610531Y-556054506D01*
X97694196Y-555897981D01*
X97723526Y-555862243D01*
X97806788Y-555760786D01*
X97908245Y-555677524D01*
X97943983Y-555648194D01*
X98100508Y-555564529D01*
X98270347Y-555513009D01*
X98336532Y-555506490D01*
X98402714Y-555499972D01*
X98491234Y-555499972D01*
X98557416Y-555506490D01*
X98557416Y-555506490D01*
G37*
G36*
X126581042Y-553790412D02*
G01*
X126647226Y-553796930D01*
X126817065Y-553848450D01*
X126973590Y-553932115D01*
X127009328Y-553961445D01*
X127110785Y-554044707D01*
X127194047Y-554146164D01*
X127223377Y-554181902D01*
X127307042Y-554338427D01*
X127358562Y-554508266D01*
X127375958Y-554684893D01*
X127358562Y-554861520D01*
X127307042Y-555031359D01*
X127223377Y-555187884D01*
X127194047Y-555223622D01*
X127110785Y-555325079D01*
X127009328Y-555408341D01*
X126973590Y-555437671D01*
X126817065Y-555521336D01*
X126647226Y-555572856D01*
X126581041Y-555579375D01*
X126514859Y-555585893D01*
X126426339Y-555585893D01*
X126360157Y-555579375D01*
X126293972Y-555572856D01*
X126124133Y-555521336D01*
X125967608Y-555437671D01*
X125931870Y-555408341D01*
X125830413Y-555325079D01*
X125747151Y-555223622D01*
X125717821Y-555187884D01*
X125634156Y-555031359D01*
X125582636Y-554861520D01*
X125565240Y-554684893D01*
X125582636Y-554508266D01*
X125634156Y-554338427D01*
X125717821Y-554181902D01*
X125747151Y-554146164D01*
X125830413Y-554044707D01*
X125931870Y-553961445D01*
X125967608Y-553932115D01*
X126124133Y-553848450D01*
X126293972Y-553796930D01*
X126360156Y-553790412D01*
X126426339Y-553783893D01*
X126514859Y-553783893D01*
X126581042Y-553790412D01*
X126581042Y-553790412D01*
G37*
G36*
X40725375Y-551451754D02*
G01*
X40875200Y-551481556D01*
X41157464Y-551598473D01*
X41411495Y-551768211D01*
X41627531Y-551984247D01*
X41797269Y-552238278D01*
X41914186Y-552520542D01*
X41914186Y-552520543D01*
X41966806Y-552785078D01*
X41973790Y-552820192D01*
X41973790Y-553125712D01*
X41914186Y-553425362D01*
X41797269Y-553707626D01*
X41627531Y-553961657D01*
X41411495Y-554177693D01*
X41157464Y-554347431D01*
X40875200Y-554464348D01*
X40725375Y-554494150D01*
X40575551Y-554523952D01*
X40270029Y-554523952D01*
X40120205Y-554494150D01*
X39970380Y-554464348D01*
X39688116Y-554347431D01*
X39434085Y-554177693D01*
X39218049Y-553961657D01*
X39048311Y-553707626D01*
X38931394Y-553425362D01*
X38871790Y-553125712D01*
X38871790Y-552820192D01*
X38878775Y-552785078D01*
X38931394Y-552520543D01*
X38931394Y-552520542D01*
X39048311Y-552238278D01*
X39218049Y-551984247D01*
X39434085Y-551768211D01*
X39688116Y-551598473D01*
X39970380Y-551481556D01*
X40120205Y-551451754D01*
X40270029Y-551421952D01*
X40575551Y-551421952D01*
X40725375Y-551451754D01*
X40725375Y-551451754D01*
G37*
G36*
X126581041Y-551250411D02*
G01*
X126647226Y-551256930D01*
X126817065Y-551308450D01*
X126973590Y-551392115D01*
X127009328Y-551421445D01*
X127110785Y-551504707D01*
X127194047Y-551606164D01*
X127223377Y-551641902D01*
X127307042Y-551798427D01*
X127358562Y-551968266D01*
X127375958Y-552144893D01*
X127358562Y-552321520D01*
X127307042Y-552491359D01*
X127223377Y-552647884D01*
X127194047Y-552683622D01*
X127110785Y-552785079D01*
X127009328Y-552868341D01*
X126973590Y-552897671D01*
X126817065Y-552981336D01*
X126647226Y-553032856D01*
X126581041Y-553039375D01*
X126514859Y-553045893D01*
X126426339Y-553045893D01*
X126360157Y-553039375D01*
X126293972Y-553032856D01*
X126124133Y-552981336D01*
X125967608Y-552897671D01*
X125931870Y-552868341D01*
X125830413Y-552785079D01*
X125747151Y-552683622D01*
X125717821Y-552647884D01*
X125634156Y-552491359D01*
X125582636Y-552321520D01*
X125565240Y-552144893D01*
X125582636Y-551968266D01*
X125634156Y-551798427D01*
X125717821Y-551641902D01*
X125747151Y-551606164D01*
X125830413Y-551504707D01*
X125931870Y-551421445D01*
X125967608Y-551392115D01*
X126124133Y-551308450D01*
X126293972Y-551256930D01*
X126360157Y-551250411D01*
X126426339Y-551243893D01*
X126514859Y-551243893D01*
X126581041Y-551250411D01*
X126581041Y-551250411D01*
G37*
G36*
X47075375Y-548911754D02*
G01*
X47225200Y-548941556D01*
X47507464Y-549058473D01*
X47761495Y-549228211D01*
X47977531Y-549444247D01*
X48147269Y-549698278D01*
X48264186Y-549980542D01*
X48264186Y-549980543D01*
X48316806Y-550245078D01*
X48323790Y-550280192D01*
X48323790Y-550585712D01*
X48264186Y-550885362D01*
X48147269Y-551167626D01*
X47977531Y-551421657D01*
X47761495Y-551637693D01*
X47507464Y-551807431D01*
X47225200Y-551924348D01*
X47075375Y-551954150D01*
X46925551Y-551983952D01*
X46620029Y-551983952D01*
X46470205Y-551954150D01*
X46320380Y-551924348D01*
X46038116Y-551807431D01*
X45784085Y-551637693D01*
X45568049Y-551421657D01*
X45398311Y-551167626D01*
X45281394Y-550885362D01*
X45221790Y-550585712D01*
X45221790Y-550280192D01*
X45228775Y-550245078D01*
X45281394Y-549980543D01*
X45281394Y-549980542D01*
X45398311Y-549698278D01*
X45568049Y-549444247D01*
X45784085Y-549228211D01*
X46038116Y-549058473D01*
X46320380Y-548941556D01*
X46470205Y-548911754D01*
X46620029Y-548881952D01*
X46925551Y-548881952D01*
X47075375Y-548911754D01*
X47075375Y-548911754D01*
G37*
G36*
X21675375Y-547451754D02*
G01*
X21825200Y-547481556D01*
X22107464Y-547598473D01*
X22361495Y-547768211D01*
X22577531Y-547984247D01*
X22747269Y-548238278D01*
X22864186Y-548520542D01*
X22864186Y-548520543D01*
X22923790Y-548820191D01*
X22923790Y-549125713D01*
X22903402Y-549228211D01*
X22864186Y-549425362D01*
X22747269Y-549707626D01*
X22577531Y-549961657D01*
X22361495Y-550177693D01*
X22107464Y-550347431D01*
X21825200Y-550464348D01*
X21681880Y-550492856D01*
X21525551Y-550523952D01*
X21220029Y-550523952D01*
X21063700Y-550492856D01*
X20920380Y-550464348D01*
X20638116Y-550347431D01*
X20384085Y-550177693D01*
X20168049Y-549961657D01*
X19998311Y-549707626D01*
X19881394Y-549425362D01*
X19842178Y-549228211D01*
X19821790Y-549125713D01*
X19821790Y-548820191D01*
X19881394Y-548520543D01*
X19881394Y-548520542D01*
X19998311Y-548238278D01*
X20168049Y-547984247D01*
X20384085Y-547768211D01*
X20638116Y-547598473D01*
X20920380Y-547481556D01*
X21070205Y-547451754D01*
X21220029Y-547421952D01*
X21525551Y-547421952D01*
X21675375Y-547451754D01*
X21675375Y-547451754D01*
G37*
G36*
X126581041Y-548710411D02*
G01*
X126647226Y-548716930D01*
X126817065Y-548768450D01*
X126973590Y-548852115D01*
X127009328Y-548881445D01*
X127110785Y-548964707D01*
X127194047Y-549066164D01*
X127223377Y-549101902D01*
X127307042Y-549258427D01*
X127358562Y-549428266D01*
X127375958Y-549604893D01*
X127358562Y-549781520D01*
X127307042Y-549951359D01*
X127223377Y-550107884D01*
X127194047Y-550143622D01*
X127110785Y-550245079D01*
X127009328Y-550328341D01*
X126973590Y-550357671D01*
X126817065Y-550441336D01*
X126647226Y-550492856D01*
X126581042Y-550499374D01*
X126514859Y-550505893D01*
X126426339Y-550505893D01*
X126360156Y-550499374D01*
X126293972Y-550492856D01*
X126124133Y-550441336D01*
X125967608Y-550357671D01*
X125931870Y-550328341D01*
X125830413Y-550245079D01*
X125747151Y-550143622D01*
X125717821Y-550107884D01*
X125634156Y-549951359D01*
X125582636Y-549781520D01*
X125565240Y-549604893D01*
X125582636Y-549428266D01*
X125634156Y-549258427D01*
X125717821Y-549101902D01*
X125747151Y-549066164D01*
X125830413Y-548964707D01*
X125931870Y-548881445D01*
X125967608Y-548852115D01*
X126124133Y-548768450D01*
X126293972Y-548716930D01*
X126360157Y-548710411D01*
X126426339Y-548703893D01*
X126514859Y-548703893D01*
X126581041Y-548710411D01*
X126581041Y-548710411D01*
G37*
G36*
X43559264Y-545926636D02*
G01*
X43777264Y-546016935D01*
X43931413Y-546080785D01*
X44266338Y-546304575D01*
X44551167Y-546589404D01*
X44774957Y-546924329D01*
X44807352Y-547002538D01*
X44929106Y-547296478D01*
X45007690Y-547691546D01*
X45007690Y-548094358D01*
X44929106Y-548489426D01*
X44878241Y-548612224D01*
X44774957Y-548861575D01*
X44551167Y-549196500D01*
X44266338Y-549481329D01*
X43931413Y-549705119D01*
X43777264Y-549768969D01*
X43559264Y-549859268D01*
X43164196Y-549937852D01*
X42761384Y-549937852D01*
X42366316Y-549859268D01*
X42148316Y-549768969D01*
X41994167Y-549705119D01*
X41659242Y-549481329D01*
X41374413Y-549196500D01*
X41150623Y-548861575D01*
X41047339Y-548612224D01*
X40996474Y-548489426D01*
X40917890Y-548094358D01*
X40917890Y-547691546D01*
X40996474Y-547296478D01*
X41118228Y-547002538D01*
X41150623Y-546924329D01*
X41374413Y-546589404D01*
X41659242Y-546304575D01*
X41994167Y-546080785D01*
X42148316Y-546016935D01*
X42366316Y-545926636D01*
X42761384Y-545848052D01*
X43164196Y-545848052D01*
X43559264Y-545926636D01*
X43559264Y-545926636D01*
G37*
G36*
X59775374Y-546451754D02*
G01*
X59925199Y-546481556D01*
X60207463Y-546598473D01*
X60461494Y-546768211D01*
X60677530Y-546984247D01*
X60847268Y-547238278D01*
X60964185Y-547520542D01*
X60964185Y-547520543D01*
X61020121Y-547801749D01*
X61023789Y-547820192D01*
X61023789Y-548125712D01*
X60964185Y-548425362D01*
X60847268Y-548707626D01*
X60677530Y-548961657D01*
X60461494Y-549177693D01*
X60207463Y-549347431D01*
X59925199Y-549464348D01*
X59775374Y-549494150D01*
X59625550Y-549523952D01*
X59320028Y-549523952D01*
X59170204Y-549494150D01*
X59020379Y-549464348D01*
X58738115Y-549347431D01*
X58484084Y-549177693D01*
X58268048Y-548961657D01*
X58098310Y-548707626D01*
X57981393Y-548425362D01*
X57921789Y-548125712D01*
X57921789Y-547820192D01*
X57925458Y-547801749D01*
X57981393Y-547520543D01*
X57981393Y-547520542D01*
X58098310Y-547238278D01*
X58268048Y-546984247D01*
X58484084Y-546768211D01*
X58738115Y-546598473D01*
X59020379Y-546481556D01*
X59170204Y-546451754D01*
X59320028Y-546421952D01*
X59625550Y-546421952D01*
X59775374Y-546451754D01*
X59775374Y-546451754D01*
G37*
G36*
X38152894Y-547002537D02*
G01*
X38321416Y-547072341D01*
X38473081Y-547173680D01*
X38602062Y-547302661D01*
X38703401Y-547454326D01*
X38773205Y-547622848D01*
X38808790Y-547801749D01*
X38808790Y-547984155D01*
X38773205Y-548163056D01*
X38703401Y-548331578D01*
X38602062Y-548483243D01*
X38473081Y-548612224D01*
X38321416Y-548713563D01*
X38152894Y-548783367D01*
X37973993Y-548818952D01*
X37791587Y-548818952D01*
X37612686Y-548783367D01*
X37444164Y-548713563D01*
X37292499Y-548612224D01*
X37163518Y-548483243D01*
X37062179Y-548331578D01*
X36992375Y-548163056D01*
X36956790Y-547984155D01*
X36956790Y-547801749D01*
X36992375Y-547622848D01*
X37062179Y-547454326D01*
X37163518Y-547302661D01*
X37292499Y-547173680D01*
X37444164Y-547072341D01*
X37612686Y-547002537D01*
X37791587Y-546966952D01*
X37973993Y-546966952D01*
X38152894Y-547002537D01*
X38152894Y-547002537D01*
G37*
G36*
X48312894Y-547002537D02*
G01*
X48481416Y-547072341D01*
X48633081Y-547173680D01*
X48762062Y-547302661D01*
X48863401Y-547454326D01*
X48933205Y-547622848D01*
X48968790Y-547801749D01*
X48968790Y-547984155D01*
X48933205Y-548163056D01*
X48863401Y-548331578D01*
X48762062Y-548483243D01*
X48633081Y-548612224D01*
X48481416Y-548713563D01*
X48312894Y-548783367D01*
X48133993Y-548818952D01*
X47951587Y-548818952D01*
X47772686Y-548783367D01*
X47604164Y-548713563D01*
X47452499Y-548612224D01*
X47323518Y-548483243D01*
X47222179Y-548331578D01*
X47152375Y-548163056D01*
X47116790Y-547984155D01*
X47116790Y-547801749D01*
X47152375Y-547622848D01*
X47222179Y-547454326D01*
X47323518Y-547302661D01*
X47452499Y-547173680D01*
X47604164Y-547072341D01*
X47772686Y-547002537D01*
X47951587Y-546966952D01*
X48133993Y-546966952D01*
X48312894Y-547002537D01*
X48312894Y-547002537D01*
G37*
G36*
X28025375Y-544911754D02*
G01*
X28175200Y-544941556D01*
X28457464Y-545058473D01*
X28711495Y-545228211D01*
X28927531Y-545444247D01*
X29097269Y-545698278D01*
X29214186Y-545980542D01*
X29243988Y-546130367D01*
X29273790Y-546280191D01*
X29273790Y-546585713D01*
X29271252Y-546598473D01*
X29214186Y-546885362D01*
X29097269Y-547167626D01*
X28927531Y-547421657D01*
X28711495Y-547637693D01*
X28457464Y-547807431D01*
X28175200Y-547924348D01*
X28025375Y-547954150D01*
X27875551Y-547983952D01*
X27570029Y-547983952D01*
X27420205Y-547954150D01*
X27270380Y-547924348D01*
X26988116Y-547807431D01*
X26734085Y-547637693D01*
X26518049Y-547421657D01*
X26348311Y-547167626D01*
X26231394Y-546885362D01*
X26174328Y-546598473D01*
X26171790Y-546585713D01*
X26171790Y-546280191D01*
X26201592Y-546130367D01*
X26231394Y-545980542D01*
X26348311Y-545698278D01*
X26518049Y-545444247D01*
X26734085Y-545228211D01*
X26988116Y-545058473D01*
X27270380Y-544941556D01*
X27420205Y-544911754D01*
X27570029Y-544881952D01*
X27875551Y-544881952D01*
X28025375Y-544911754D01*
X28025375Y-544911754D01*
G37*
G36*
X66125374Y-543911754D02*
G01*
X66275199Y-543941556D01*
X66557463Y-544058473D01*
X66811494Y-544228211D01*
X67027530Y-544444247D01*
X67197268Y-544698278D01*
X67314185Y-544980542D01*
X67314185Y-544980543D01*
X67357142Y-545196499D01*
X67373789Y-545280192D01*
X67373789Y-545585712D01*
X67314185Y-545885362D01*
X67197268Y-546167626D01*
X67027530Y-546421657D01*
X66811494Y-546637693D01*
X66557463Y-546807431D01*
X66275199Y-546924348D01*
X66125374Y-546954150D01*
X65975550Y-546983952D01*
X65670028Y-546983952D01*
X65520204Y-546954150D01*
X65370379Y-546924348D01*
X65088115Y-546807431D01*
X64834084Y-546637693D01*
X64618048Y-546421657D01*
X64448310Y-546167626D01*
X64331393Y-545885362D01*
X64271789Y-545585712D01*
X64271789Y-545280192D01*
X64288437Y-545196499D01*
X64331393Y-544980543D01*
X64331393Y-544980542D01*
X64448310Y-544698278D01*
X64618048Y-544444247D01*
X64834084Y-544228211D01*
X65088115Y-544058473D01*
X65370379Y-543941556D01*
X65520204Y-543911754D01*
X65670028Y-543881952D01*
X65975550Y-543881952D01*
X66125374Y-543911754D01*
X66125374Y-543911754D01*
G37*
G36*
X24509264Y-541926636D02*
G01*
X24648349Y-541984247D01*
X24881413Y-542080785D01*
X25216338Y-542304575D01*
X25501167Y-542589404D01*
X25724957Y-542924329D01*
X25757352Y-543002538D01*
X25879106Y-543296478D01*
X25957690Y-543691546D01*
X25957690Y-544094358D01*
X25879106Y-544489426D01*
X25828241Y-544612224D01*
X25724957Y-544861575D01*
X25501167Y-545196500D01*
X25216338Y-545481329D01*
X24881413Y-545705119D01*
X24727264Y-545768969D01*
X24509264Y-545859268D01*
X24114196Y-545937852D01*
X23711384Y-545937852D01*
X23316316Y-545859268D01*
X23098316Y-545768969D01*
X22944167Y-545705119D01*
X22609242Y-545481329D01*
X22324413Y-545196500D01*
X22100623Y-544861575D01*
X21997339Y-544612224D01*
X21946474Y-544489426D01*
X21867890Y-544094358D01*
X21867890Y-543691546D01*
X21946474Y-543296478D01*
X22068228Y-543002538D01*
X22100623Y-542924329D01*
X22324413Y-542589404D01*
X22609242Y-542304575D01*
X22944167Y-542080785D01*
X23177231Y-541984247D01*
X23316316Y-541926636D01*
X23711384Y-541848052D01*
X24114196Y-541848052D01*
X24509264Y-541926636D01*
X24509264Y-541926636D01*
G37*
G36*
X62609263Y-540926636D02*
G01*
X62827263Y-541016935D01*
X62981412Y-541080785D01*
X63316337Y-541304575D01*
X63601166Y-541589404D01*
X63824956Y-541924329D01*
X63857351Y-542002538D01*
X63979105Y-542296478D01*
X64057689Y-542691546D01*
X64057689Y-543094358D01*
X63979105Y-543489426D01*
X63923839Y-543622849D01*
X63824956Y-543861575D01*
X63601166Y-544196500D01*
X63316337Y-544481329D01*
X62981412Y-544705119D01*
X62827263Y-544768969D01*
X62609263Y-544859268D01*
X62214195Y-544937852D01*
X61811383Y-544937852D01*
X61416315Y-544859268D01*
X61198315Y-544768969D01*
X61044166Y-544705119D01*
X60709241Y-544481329D01*
X60424412Y-544196500D01*
X60200622Y-543861575D01*
X60101739Y-543622849D01*
X60046473Y-543489426D01*
X59967889Y-543094358D01*
X59967889Y-542691546D01*
X60046473Y-542296478D01*
X60168227Y-542002538D01*
X60200622Y-541924329D01*
X60424412Y-541589404D01*
X60709241Y-541304575D01*
X61044166Y-541080785D01*
X61198315Y-541016935D01*
X61416315Y-540926636D01*
X61811383Y-540848052D01*
X62214195Y-540848052D01*
X62609263Y-540926636D01*
X62609263Y-540926636D01*
G37*
G36*
X29262894Y-543002537D02*
G01*
X29431416Y-543072341D01*
X29583081Y-543173680D01*
X29712062Y-543302661D01*
X29813401Y-543454326D01*
X29883205Y-543622848D01*
X29918790Y-543801749D01*
X29918790Y-543984155D01*
X29883205Y-544163056D01*
X29813401Y-544331578D01*
X29712062Y-544483243D01*
X29583081Y-544612224D01*
X29431416Y-544713563D01*
X29262894Y-544783367D01*
X29083993Y-544818952D01*
X28901587Y-544818952D01*
X28722686Y-544783367D01*
X28554164Y-544713563D01*
X28402499Y-544612224D01*
X28273518Y-544483243D01*
X28172179Y-544331578D01*
X28102375Y-544163056D01*
X28066790Y-543984155D01*
X28066790Y-543801749D01*
X28102375Y-543622848D01*
X28172179Y-543454326D01*
X28273518Y-543302661D01*
X28402499Y-543173680D01*
X28554164Y-543072341D01*
X28722686Y-543002537D01*
X28901587Y-542966952D01*
X29083993Y-542966952D01*
X29262894Y-543002537D01*
X29262894Y-543002537D01*
G37*
G36*
X19102894Y-543002537D02*
G01*
X19271416Y-543072341D01*
X19423081Y-543173680D01*
X19552062Y-543302661D01*
X19653401Y-543454326D01*
X19723205Y-543622848D01*
X19758790Y-543801749D01*
X19758790Y-543984155D01*
X19723205Y-544163056D01*
X19653401Y-544331578D01*
X19552062Y-544483243D01*
X19423081Y-544612224D01*
X19271416Y-544713563D01*
X19102894Y-544783367D01*
X18923993Y-544818952D01*
X18741587Y-544818952D01*
X18562686Y-544783367D01*
X18394164Y-544713563D01*
X18242499Y-544612224D01*
X18113518Y-544483243D01*
X18012179Y-544331578D01*
X17942375Y-544163056D01*
X17906790Y-543984155D01*
X17906790Y-543801749D01*
X17942375Y-543622848D01*
X18012179Y-543454326D01*
X18113518Y-543302661D01*
X18242499Y-543173680D01*
X18394164Y-543072341D01*
X18562686Y-543002537D01*
X18741587Y-542966952D01*
X18923993Y-542966952D01*
X19102894Y-543002537D01*
X19102894Y-543002537D01*
G37*
G36*
X78825374Y-541451754D02*
G01*
X78975199Y-541481556D01*
X79257463Y-541598473D01*
X79511494Y-541768211D01*
X79727530Y-541984247D01*
X79897268Y-542238278D01*
X80014185Y-542520542D01*
X80014185Y-542520543D01*
X80073789Y-542820191D01*
X80073789Y-543125713D01*
X80043987Y-543275537D01*
X80014185Y-543425362D01*
X79897268Y-543707626D01*
X79727530Y-543961657D01*
X79511494Y-544177693D01*
X79257463Y-544347431D01*
X78975199Y-544464348D01*
X78880212Y-544483242D01*
X78675550Y-544523952D01*
X78370028Y-544523952D01*
X78165366Y-544483242D01*
X78070379Y-544464348D01*
X77788115Y-544347431D01*
X77534084Y-544177693D01*
X77318048Y-543961657D01*
X77148310Y-543707626D01*
X77031393Y-543425362D01*
X77001591Y-543275537D01*
X76971789Y-543125713D01*
X76971789Y-542820191D01*
X77031393Y-542520543D01*
X77031393Y-542520542D01*
X77148310Y-542238278D01*
X77318048Y-541984247D01*
X77534084Y-541768211D01*
X77788115Y-541598473D01*
X78070379Y-541481556D01*
X78220204Y-541451754D01*
X78370028Y-541421952D01*
X78675550Y-541421952D01*
X78825374Y-541451754D01*
X78825374Y-541451754D01*
G37*
G36*
X57202893Y-542002537D02*
G01*
X57371415Y-542072341D01*
X57523080Y-542173680D01*
X57652061Y-542302661D01*
X57753400Y-542454326D01*
X57823204Y-542622848D01*
X57858789Y-542801749D01*
X57858789Y-542984155D01*
X57823204Y-543163056D01*
X57753400Y-543331578D01*
X57652061Y-543483243D01*
X57523080Y-543612224D01*
X57371415Y-543713563D01*
X57202893Y-543783367D01*
X57023992Y-543818952D01*
X56841586Y-543818952D01*
X56662685Y-543783367D01*
X56494163Y-543713563D01*
X56342498Y-543612224D01*
X56213517Y-543483243D01*
X56112178Y-543331578D01*
X56042374Y-543163056D01*
X56006789Y-542984155D01*
X56006789Y-542801749D01*
X56042374Y-542622848D01*
X56112178Y-542454326D01*
X56213517Y-542302661D01*
X56342498Y-542173680D01*
X56494163Y-542072341D01*
X56662685Y-542002537D01*
X56841586Y-541966952D01*
X57023992Y-541966952D01*
X57202893Y-542002537D01*
X57202893Y-542002537D01*
G37*
G36*
X67362893Y-542002537D02*
G01*
X67531415Y-542072341D01*
X67683080Y-542173680D01*
X67812061Y-542302661D01*
X67913400Y-542454326D01*
X67983204Y-542622848D01*
X68018789Y-542801749D01*
X68018789Y-542984155D01*
X67983204Y-543163056D01*
X67913400Y-543331578D01*
X67812061Y-543483243D01*
X67683080Y-543612224D01*
X67531415Y-543713563D01*
X67362893Y-543783367D01*
X67183992Y-543818952D01*
X67001586Y-543818952D01*
X66822685Y-543783367D01*
X66654163Y-543713563D01*
X66502498Y-543612224D01*
X66373517Y-543483243D01*
X66272178Y-543331578D01*
X66202374Y-543163056D01*
X66166789Y-542984155D01*
X66166789Y-542801749D01*
X66202374Y-542622848D01*
X66272178Y-542454326D01*
X66373517Y-542302661D01*
X66502498Y-542173680D01*
X66654163Y-542072341D01*
X66822685Y-542002537D01*
X67001586Y-541966952D01*
X67183992Y-541966952D01*
X67362893Y-542002537D01*
X67362893Y-542002537D01*
G37*
G36*
X85175374Y-538911754D02*
G01*
X85325199Y-538941556D01*
X85607463Y-539058473D01*
X85861494Y-539228211D01*
X86077530Y-539444247D01*
X86247268Y-539698278D01*
X86364185Y-539980542D01*
X86423789Y-540280192D01*
X86423789Y-540585712D01*
X86364185Y-540885362D01*
X86247268Y-541167626D01*
X86077530Y-541421657D01*
X85861494Y-541637693D01*
X85607463Y-541807431D01*
X85325199Y-541924348D01*
X85175374Y-541954150D01*
X85025550Y-541983952D01*
X84720028Y-541983952D01*
X84570204Y-541954150D01*
X84420379Y-541924348D01*
X84138115Y-541807431D01*
X83884084Y-541637693D01*
X83668048Y-541421657D01*
X83498310Y-541167626D01*
X83381393Y-540885362D01*
X83321789Y-540585712D01*
X83321789Y-540280192D01*
X83381393Y-539980542D01*
X83498310Y-539698278D01*
X83668048Y-539444247D01*
X83884084Y-539228211D01*
X84138115Y-539058473D01*
X84420379Y-538941556D01*
X84570204Y-538911754D01*
X84720028Y-538881952D01*
X85025550Y-538881952D01*
X85175374Y-538911754D01*
X85175374Y-538911754D01*
G37*
G36*
X81659263Y-535926636D02*
G01*
X81877263Y-536016935D01*
X82031412Y-536080785D01*
X82366337Y-536304575D01*
X82651166Y-536589404D01*
X82874956Y-536924329D01*
X82907351Y-537002538D01*
X83029105Y-537296478D01*
X83107689Y-537691546D01*
X83107689Y-538094358D01*
X83029105Y-538489426D01*
X82978240Y-538612224D01*
X82874956Y-538861575D01*
X82651166Y-539196500D01*
X82366337Y-539481329D01*
X82031412Y-539705119D01*
X81877263Y-539768969D01*
X81659263Y-539859268D01*
X81264195Y-539937852D01*
X80861383Y-539937852D01*
X80466315Y-539859268D01*
X80248315Y-539768969D01*
X80094166Y-539705119D01*
X79759241Y-539481329D01*
X79474412Y-539196500D01*
X79250622Y-538861575D01*
X79147338Y-538612224D01*
X79096473Y-538489426D01*
X79017889Y-538094358D01*
X79017889Y-537691546D01*
X79096473Y-537296478D01*
X79218227Y-537002538D01*
X79250622Y-536924329D01*
X79474412Y-536589404D01*
X79759241Y-536304575D01*
X80094166Y-536080785D01*
X80248315Y-536016935D01*
X80466315Y-535926636D01*
X80861383Y-535848052D01*
X81264195Y-535848052D01*
X81659263Y-535926636D01*
X81659263Y-535926636D01*
G37*
G36*
X76252893Y-537002537D02*
G01*
X76421415Y-537072341D01*
X76573080Y-537173680D01*
X76702061Y-537302661D01*
X76803400Y-537454326D01*
X76873204Y-537622848D01*
X76908789Y-537801749D01*
X76908789Y-537984155D01*
X76873204Y-538163056D01*
X76803400Y-538331578D01*
X76702061Y-538483243D01*
X76573080Y-538612224D01*
X76421415Y-538713563D01*
X76252893Y-538783367D01*
X76073992Y-538818952D01*
X75891586Y-538818952D01*
X75712685Y-538783367D01*
X75544163Y-538713563D01*
X75392498Y-538612224D01*
X75263517Y-538483243D01*
X75162178Y-538331578D01*
X75092374Y-538163056D01*
X75056789Y-537984155D01*
X75056789Y-537801749D01*
X75092374Y-537622848D01*
X75162178Y-537454326D01*
X75263517Y-537302661D01*
X75392498Y-537173680D01*
X75544163Y-537072341D01*
X75712685Y-537002537D01*
X75891586Y-536966952D01*
X76073992Y-536966952D01*
X76252893Y-537002537D01*
X76252893Y-537002537D01*
G37*
G36*
X86412893Y-537002537D02*
G01*
X86581415Y-537072341D01*
X86733080Y-537173680D01*
X86862061Y-537302661D01*
X86963400Y-537454326D01*
X87033204Y-537622848D01*
X87068789Y-537801749D01*
X87068789Y-537984155D01*
X87033204Y-538163056D01*
X86963400Y-538331578D01*
X86862061Y-538483243D01*
X86733080Y-538612224D01*
X86581415Y-538713563D01*
X86412893Y-538783367D01*
X86233992Y-538818952D01*
X86051586Y-538818952D01*
X85872685Y-538783367D01*
X85704163Y-538713563D01*
X85552498Y-538612224D01*
X85423517Y-538483243D01*
X85322178Y-538331578D01*
X85252374Y-538163056D01*
X85216789Y-537984155D01*
X85216789Y-537801749D01*
X85252374Y-537622848D01*
X85322178Y-537454326D01*
X85423517Y-537302661D01*
X85552498Y-537173680D01*
X85704163Y-537072341D01*
X85872685Y-537002537D01*
X86051586Y-536966952D01*
X86233992Y-536966952D01*
X86412893Y-537002537D01*
X86412893Y-537002537D01*
G37*
G36*
X101254604Y-536420721D02*
G01*
X101320788Y-536427239D01*
X101490627Y-536478759D01*
X101647152Y-536562424D01*
X101680027Y-536589404D01*
X101784347Y-536675016D01*
X101867609Y-536776473D01*
X101896939Y-536812211D01*
X101980604Y-536968736D01*
X102032124Y-537138575D01*
X102049520Y-537315202D01*
X102032124Y-537491829D01*
X101980604Y-537661668D01*
X101896939Y-537818193D01*
X101867609Y-537853931D01*
X101784347Y-537955388D01*
X101682890Y-538038650D01*
X101647152Y-538067980D01*
X101490627Y-538151645D01*
X101320788Y-538203165D01*
X101254604Y-538209683D01*
X101188421Y-538216202D01*
X101099901Y-538216202D01*
X101033718Y-538209683D01*
X100967534Y-538203165D01*
X100797695Y-538151645D01*
X100641170Y-538067980D01*
X100605432Y-538038650D01*
X100503975Y-537955388D01*
X100420713Y-537853931D01*
X100391383Y-537818193D01*
X100307718Y-537661668D01*
X100256198Y-537491829D01*
X100238802Y-537315202D01*
X100256198Y-537138575D01*
X100307718Y-536968736D01*
X100391383Y-536812211D01*
X100420713Y-536776473D01*
X100503975Y-536675016D01*
X100608295Y-536589404D01*
X100641170Y-536562424D01*
X100797695Y-536478759D01*
X100967534Y-536427239D01*
X101033718Y-536420721D01*
X101099901Y-536414202D01*
X101188421Y-536414202D01*
X101254604Y-536420721D01*
X101254604Y-536420721D01*
G37*
G36*
X104585161Y-538216202D02*
G01*
X102783161Y-538216202D01*
X102783161Y-536414202D01*
X104585161Y-536414202D01*
X104585161Y-538216202D01*
X104585161Y-538216202D01*
G37*
G36*
X98714604Y-536420721D02*
G01*
X98780788Y-536427239D01*
X98950627Y-536478759D01*
X99107152Y-536562424D01*
X99140027Y-536589404D01*
X99244347Y-536675016D01*
X99327609Y-536776473D01*
X99356939Y-536812211D01*
X99440604Y-536968736D01*
X99492124Y-537138575D01*
X99509520Y-537315202D01*
X99492124Y-537491829D01*
X99440604Y-537661668D01*
X99356939Y-537818193D01*
X99327609Y-537853931D01*
X99244347Y-537955388D01*
X99142890Y-538038650D01*
X99107152Y-538067980D01*
X98950627Y-538151645D01*
X98780788Y-538203165D01*
X98714604Y-538209683D01*
X98648421Y-538216202D01*
X98559901Y-538216202D01*
X98493718Y-538209683D01*
X98427534Y-538203165D01*
X98257695Y-538151645D01*
X98101170Y-538067980D01*
X98065432Y-538038650D01*
X97963975Y-537955388D01*
X97880713Y-537853931D01*
X97851383Y-537818193D01*
X97767718Y-537661668D01*
X97716198Y-537491829D01*
X97698802Y-537315202D01*
X97716198Y-537138575D01*
X97767718Y-536968736D01*
X97851383Y-536812211D01*
X97880713Y-536776473D01*
X97963975Y-536675016D01*
X98068295Y-536589404D01*
X98101170Y-536562424D01*
X98257695Y-536478759D01*
X98427534Y-536427239D01*
X98493718Y-536420721D01*
X98559901Y-536414202D01*
X98648421Y-536414202D01*
X98714604Y-536420721D01*
X98714604Y-536420721D01*
G37*
G36*
X96174604Y-536420721D02*
G01*
X96240788Y-536427239D01*
X96410627Y-536478759D01*
X96567152Y-536562424D01*
X96600027Y-536589404D01*
X96704347Y-536675016D01*
X96787609Y-536776473D01*
X96816939Y-536812211D01*
X96900604Y-536968736D01*
X96952124Y-537138575D01*
X96969520Y-537315202D01*
X96952124Y-537491829D01*
X96900604Y-537661668D01*
X96816939Y-537818193D01*
X96787609Y-537853931D01*
X96704347Y-537955388D01*
X96602890Y-538038650D01*
X96567152Y-538067980D01*
X96410627Y-538151645D01*
X96240788Y-538203165D01*
X96174604Y-538209683D01*
X96108421Y-538216202D01*
X96019901Y-538216202D01*
X95953718Y-538209683D01*
X95887534Y-538203165D01*
X95717695Y-538151645D01*
X95561170Y-538067980D01*
X95525432Y-538038650D01*
X95423975Y-537955388D01*
X95340713Y-537853931D01*
X95311383Y-537818193D01*
X95227718Y-537661668D01*
X95176198Y-537491829D01*
X95158802Y-537315202D01*
X95176198Y-537138575D01*
X95227718Y-536968736D01*
X95311383Y-536812211D01*
X95340713Y-536776473D01*
X95423975Y-536675016D01*
X95528295Y-536589404D01*
X95561170Y-536562424D01*
X95717695Y-536478759D01*
X95887534Y-536427239D01*
X95953718Y-536420721D01*
X96019901Y-536414202D01*
X96108421Y-536414202D01*
X96174604Y-536420721D01*
X96174604Y-536420721D01*
G37*
G36*
X40725374Y-532401754D02*
G01*
X40875199Y-532431556D01*
X41157463Y-532548473D01*
X41411494Y-532718211D01*
X41627530Y-532934247D01*
X41797268Y-533188278D01*
X41914185Y-533470542D01*
X41973789Y-533770192D01*
X41973789Y-534075712D01*
X41914185Y-534375362D01*
X41797268Y-534657626D01*
X41627530Y-534911657D01*
X41411494Y-535127693D01*
X41157463Y-535297431D01*
X40875199Y-535414348D01*
X40725374Y-535444150D01*
X40575550Y-535473952D01*
X40270028Y-535473952D01*
X40120204Y-535444150D01*
X39970379Y-535414348D01*
X39688115Y-535297431D01*
X39434084Y-535127693D01*
X39218048Y-534911657D01*
X39048310Y-534657626D01*
X38931393Y-534375362D01*
X38871789Y-534075712D01*
X38871789Y-533770192D01*
X38931393Y-533470542D01*
X39048310Y-533188278D01*
X39218048Y-532934247D01*
X39434084Y-532718211D01*
X39688115Y-532548473D01*
X39970379Y-532431556D01*
X40120204Y-532401754D01*
X40270028Y-532371952D01*
X40575550Y-532371952D01*
X40725374Y-532401754D01*
X40725374Y-532401754D01*
G37*
G36*
X47075374Y-529861754D02*
G01*
X47225199Y-529891556D01*
X47507463Y-530008473D01*
X47761494Y-530178211D01*
X47977530Y-530394247D01*
X48147268Y-530648278D01*
X48264185Y-530930542D01*
X48323789Y-531230192D01*
X48323789Y-531535712D01*
X48264185Y-531835362D01*
X48147268Y-532117626D01*
X47977530Y-532371657D01*
X47761494Y-532587693D01*
X47507463Y-532757431D01*
X47225199Y-532874348D01*
X47075374Y-532904150D01*
X46925550Y-532933952D01*
X46620028Y-532933952D01*
X46470204Y-532904150D01*
X46320379Y-532874348D01*
X46038115Y-532757431D01*
X45784084Y-532587693D01*
X45568048Y-532371657D01*
X45398310Y-532117626D01*
X45281393Y-531835362D01*
X45221789Y-531535712D01*
X45221789Y-531230192D01*
X45281393Y-530930542D01*
X45398310Y-530648278D01*
X45568048Y-530394247D01*
X45784084Y-530178211D01*
X46038115Y-530008473D01*
X46320379Y-529891556D01*
X46470204Y-529861754D01*
X46620028Y-529831952D01*
X46925550Y-529831952D01*
X47075374Y-529861754D01*
X47075374Y-529861754D01*
G37*
G36*
X21675374Y-528401755D02*
G01*
X21825199Y-528431557D01*
X22107463Y-528548474D01*
X22361494Y-528718212D01*
X22577530Y-528934248D01*
X22747268Y-529188279D01*
X22864185Y-529470543D01*
X22923789Y-529770193D01*
X22923789Y-530075713D01*
X22864185Y-530375363D01*
X22747268Y-530657627D01*
X22577530Y-530911658D01*
X22361494Y-531127694D01*
X22107463Y-531297432D01*
X21825199Y-531414349D01*
X21675374Y-531444151D01*
X21525550Y-531473953D01*
X21220028Y-531473953D01*
X21070204Y-531444151D01*
X20920379Y-531414349D01*
X20638115Y-531297432D01*
X20384084Y-531127694D01*
X20168048Y-530911658D01*
X19998310Y-530657627D01*
X19881393Y-530375363D01*
X19821789Y-530075713D01*
X19821789Y-529770193D01*
X19881393Y-529470543D01*
X19998310Y-529188279D01*
X20168048Y-528934248D01*
X20384084Y-528718212D01*
X20638115Y-528548474D01*
X20920379Y-528431557D01*
X21070204Y-528401755D01*
X21220028Y-528371953D01*
X21525550Y-528371953D01*
X21675374Y-528401755D01*
X21675374Y-528401755D01*
G37*
G36*
X43559263Y-526876636D02*
G01*
X43689408Y-526930544D01*
X43931412Y-527030785D01*
X44266337Y-527254575D01*
X44551166Y-527539404D01*
X44774956Y-527874329D01*
X44807351Y-527952538D01*
X44929105Y-528246478D01*
X45007689Y-528641546D01*
X45007689Y-529044358D01*
X44929105Y-529439426D01*
X44878240Y-529562224D01*
X44774956Y-529811575D01*
X44551166Y-530146500D01*
X44266337Y-530431329D01*
X43931412Y-530655119D01*
X43777263Y-530718969D01*
X43559263Y-530809268D01*
X43164195Y-530887852D01*
X42761383Y-530887852D01*
X42366315Y-530809268D01*
X42148315Y-530718969D01*
X41994166Y-530655119D01*
X41659241Y-530431329D01*
X41374412Y-530146500D01*
X41150622Y-529811575D01*
X41047338Y-529562224D01*
X40996473Y-529439426D01*
X40917889Y-529044358D01*
X40917889Y-528641546D01*
X40996473Y-528246478D01*
X41118227Y-527952538D01*
X41150622Y-527874329D01*
X41374412Y-527539404D01*
X41659241Y-527254575D01*
X41994166Y-527030785D01*
X42236170Y-526930544D01*
X42366315Y-526876636D01*
X42761383Y-526798052D01*
X43164195Y-526798052D01*
X43559263Y-526876636D01*
X43559263Y-526876636D01*
G37*
G36*
X59775374Y-527401755D02*
G01*
X59925199Y-527431557D01*
X60207463Y-527548474D01*
X60461494Y-527718212D01*
X60677530Y-527934248D01*
X60847268Y-528188279D01*
X60964185Y-528470543D01*
X61023789Y-528770193D01*
X61023789Y-529075713D01*
X60964185Y-529375363D01*
X60847268Y-529657627D01*
X60677530Y-529911658D01*
X60461494Y-530127694D01*
X60207463Y-530297432D01*
X59925199Y-530414349D01*
X59775374Y-530444151D01*
X59625550Y-530473953D01*
X59320028Y-530473953D01*
X59170204Y-530444151D01*
X59020379Y-530414349D01*
X58738115Y-530297432D01*
X58484084Y-530127694D01*
X58268048Y-529911658D01*
X58098310Y-529657627D01*
X57981393Y-529375363D01*
X57921789Y-529075713D01*
X57921789Y-528770193D01*
X57981393Y-528470543D01*
X58098310Y-528188279D01*
X58268048Y-527934248D01*
X58484084Y-527718212D01*
X58738115Y-527548474D01*
X59020379Y-527431557D01*
X59170204Y-527401755D01*
X59320028Y-527371953D01*
X59625550Y-527371953D01*
X59775374Y-527401755D01*
X59775374Y-527401755D01*
G37*
G36*
X48312893Y-527952537D02*
G01*
X48481415Y-528022341D01*
X48633080Y-528123680D01*
X48762061Y-528252661D01*
X48863400Y-528404326D01*
X48933204Y-528572848D01*
X48968789Y-528751749D01*
X48968789Y-528934155D01*
X48933204Y-529113056D01*
X48863400Y-529281578D01*
X48762061Y-529433243D01*
X48633080Y-529562224D01*
X48481415Y-529663563D01*
X48312893Y-529733367D01*
X48133992Y-529768952D01*
X47951586Y-529768952D01*
X47772685Y-529733367D01*
X47604163Y-529663563D01*
X47452498Y-529562224D01*
X47323517Y-529433243D01*
X47222178Y-529281578D01*
X47152374Y-529113056D01*
X47116789Y-528934155D01*
X47116789Y-528751749D01*
X47152374Y-528572848D01*
X47222178Y-528404326D01*
X47323517Y-528252661D01*
X47452498Y-528123680D01*
X47604163Y-528022341D01*
X47772685Y-527952537D01*
X47951586Y-527916952D01*
X48133992Y-527916952D01*
X48312893Y-527952537D01*
X48312893Y-527952537D01*
G37*
G36*
X38152893Y-527952537D02*
G01*
X38321415Y-528022341D01*
X38473080Y-528123680D01*
X38602061Y-528252661D01*
X38703400Y-528404326D01*
X38773204Y-528572848D01*
X38808789Y-528751749D01*
X38808789Y-528934155D01*
X38773204Y-529113056D01*
X38703400Y-529281578D01*
X38602061Y-529433243D01*
X38473080Y-529562224D01*
X38321415Y-529663563D01*
X38152893Y-529733367D01*
X37973992Y-529768952D01*
X37791586Y-529768952D01*
X37612685Y-529733367D01*
X37444163Y-529663563D01*
X37292498Y-529562224D01*
X37163517Y-529433243D01*
X37062178Y-529281578D01*
X36992374Y-529113056D01*
X36956789Y-528934155D01*
X36956789Y-528751749D01*
X36992374Y-528572848D01*
X37062178Y-528404326D01*
X37163517Y-528252661D01*
X37292498Y-528123680D01*
X37444163Y-528022341D01*
X37612685Y-527952537D01*
X37791586Y-527916952D01*
X37973992Y-527916952D01*
X38152893Y-527952537D01*
X38152893Y-527952537D01*
G37*
G36*
X28025374Y-525861755D02*
G01*
X28175199Y-525891557D01*
X28457463Y-526008474D01*
X28711494Y-526178212D01*
X28927530Y-526394248D01*
X29097268Y-526648279D01*
X29214185Y-526930543D01*
X29273789Y-527230193D01*
X29273789Y-527535713D01*
X29214185Y-527835363D01*
X29097268Y-528117627D01*
X28927530Y-528371658D01*
X28711494Y-528587694D01*
X28457463Y-528757432D01*
X28175199Y-528874349D01*
X28025374Y-528904151D01*
X27875550Y-528933953D01*
X27570028Y-528933953D01*
X27420204Y-528904151D01*
X27270379Y-528874349D01*
X26988115Y-528757432D01*
X26734084Y-528587694D01*
X26518048Y-528371658D01*
X26348310Y-528117627D01*
X26231393Y-527835363D01*
X26171789Y-527535713D01*
X26171789Y-527230193D01*
X26231393Y-526930543D01*
X26348310Y-526648279D01*
X26518048Y-526394248D01*
X26734084Y-526178212D01*
X26988115Y-526008474D01*
X27270379Y-525891557D01*
X27420204Y-525861755D01*
X27570028Y-525831953D01*
X27875550Y-525831953D01*
X28025374Y-525861755D01*
X28025374Y-525861755D01*
G37*
G36*
X66125374Y-524861755D02*
G01*
X66275199Y-524891557D01*
X66557463Y-525008474D01*
X66811494Y-525178212D01*
X67027530Y-525394248D01*
X67197268Y-525648279D01*
X67314185Y-525930543D01*
X67314185Y-525930544D01*
X67357142Y-526146500D01*
X67373789Y-526230193D01*
X67373789Y-526535713D01*
X67314185Y-526835363D01*
X67197268Y-527117627D01*
X67027530Y-527371658D01*
X66811494Y-527587694D01*
X66557463Y-527757432D01*
X66275199Y-527874349D01*
X66125374Y-527904151D01*
X65975550Y-527933953D01*
X65670028Y-527933953D01*
X65520204Y-527904151D01*
X65370379Y-527874349D01*
X65088115Y-527757432D01*
X64834084Y-527587694D01*
X64618048Y-527371658D01*
X64448310Y-527117627D01*
X64331393Y-526835363D01*
X64271789Y-526535713D01*
X64271789Y-526230193D01*
X64288437Y-526146500D01*
X64331393Y-525930544D01*
X64331393Y-525930543D01*
X64448310Y-525648279D01*
X64618048Y-525394248D01*
X64834084Y-525178212D01*
X65088115Y-525008474D01*
X65370379Y-524891557D01*
X65520204Y-524861755D01*
X65670028Y-524831953D01*
X65975550Y-524831953D01*
X66125374Y-524861755D01*
X66125374Y-524861755D01*
G37*
G36*
X24509263Y-522876637D02*
G01*
X24648348Y-522934248D01*
X24881412Y-523030786D01*
X25216337Y-523254576D01*
X25501166Y-523539405D01*
X25724956Y-523874330D01*
X25757351Y-523952539D01*
X25879105Y-524246479D01*
X25957689Y-524641547D01*
X25957689Y-525044359D01*
X25879105Y-525439427D01*
X25828240Y-525562225D01*
X25724956Y-525811576D01*
X25501166Y-526146501D01*
X25216337Y-526431330D01*
X24881412Y-526655120D01*
X24727263Y-526718970D01*
X24509263Y-526809269D01*
X24114195Y-526887853D01*
X23711383Y-526887853D01*
X23316315Y-526809269D01*
X23098315Y-526718970D01*
X22944166Y-526655120D01*
X22609241Y-526431330D01*
X22324412Y-526146501D01*
X22100622Y-525811576D01*
X21997338Y-525562225D01*
X21946473Y-525439427D01*
X21867889Y-525044359D01*
X21867889Y-524641547D01*
X21946473Y-524246479D01*
X22068227Y-523952539D01*
X22100622Y-523874330D01*
X22324412Y-523539405D01*
X22609241Y-523254576D01*
X22944166Y-523030786D01*
X23177230Y-522934248D01*
X23316315Y-522876637D01*
X23711383Y-522798053D01*
X24114195Y-522798053D01*
X24509263Y-522876637D01*
X24509263Y-522876637D01*
G37*
G36*
X62609263Y-521876637D02*
G01*
X62827263Y-521966936D01*
X62981412Y-522030786D01*
X63316337Y-522254576D01*
X63601166Y-522539405D01*
X63824956Y-522874330D01*
X63857351Y-522952539D01*
X63979105Y-523246479D01*
X64057689Y-523641547D01*
X64057689Y-524044359D01*
X63979105Y-524439427D01*
X63923839Y-524572850D01*
X63824956Y-524811576D01*
X63601166Y-525146501D01*
X63316337Y-525431330D01*
X62981412Y-525655120D01*
X62827263Y-525718970D01*
X62609263Y-525809269D01*
X62214195Y-525887853D01*
X61811383Y-525887853D01*
X61416315Y-525809269D01*
X61198315Y-525718970D01*
X61044166Y-525655120D01*
X60709241Y-525431330D01*
X60424412Y-525146501D01*
X60200622Y-524811576D01*
X60101739Y-524572850D01*
X60046473Y-524439427D01*
X59967889Y-524044359D01*
X59967889Y-523641547D01*
X60046473Y-523246479D01*
X60168227Y-522952539D01*
X60200622Y-522874330D01*
X60424412Y-522539405D01*
X60709241Y-522254576D01*
X61044166Y-522030786D01*
X61198315Y-521966936D01*
X61416315Y-521876637D01*
X61811383Y-521798053D01*
X62214195Y-521798053D01*
X62609263Y-521876637D01*
X62609263Y-521876637D01*
G37*
G36*
X29262893Y-523952538D02*
G01*
X29431415Y-524022342D01*
X29583080Y-524123681D01*
X29712061Y-524252662D01*
X29813400Y-524404327D01*
X29883204Y-524572849D01*
X29918789Y-524751750D01*
X29918789Y-524934156D01*
X29883204Y-525113057D01*
X29813400Y-525281579D01*
X29712061Y-525433244D01*
X29583080Y-525562225D01*
X29431415Y-525663564D01*
X29262893Y-525733368D01*
X29083992Y-525768953D01*
X28901586Y-525768953D01*
X28722685Y-525733368D01*
X28554163Y-525663564D01*
X28402498Y-525562225D01*
X28273517Y-525433244D01*
X28172178Y-525281579D01*
X28102374Y-525113057D01*
X28066789Y-524934156D01*
X28066789Y-524751750D01*
X28102374Y-524572849D01*
X28172178Y-524404327D01*
X28273517Y-524252662D01*
X28402498Y-524123681D01*
X28554163Y-524022342D01*
X28722685Y-523952538D01*
X28901586Y-523916953D01*
X29083992Y-523916953D01*
X29262893Y-523952538D01*
X29262893Y-523952538D01*
G37*
G36*
X19102893Y-523952538D02*
G01*
X19271415Y-524022342D01*
X19423080Y-524123681D01*
X19552061Y-524252662D01*
X19653400Y-524404327D01*
X19723204Y-524572849D01*
X19758789Y-524751750D01*
X19758789Y-524934156D01*
X19723204Y-525113057D01*
X19653400Y-525281579D01*
X19552061Y-525433244D01*
X19423080Y-525562225D01*
X19271415Y-525663564D01*
X19102893Y-525733368D01*
X18923992Y-525768953D01*
X18741586Y-525768953D01*
X18562685Y-525733368D01*
X18394163Y-525663564D01*
X18242498Y-525562225D01*
X18113517Y-525433244D01*
X18012178Y-525281579D01*
X17942374Y-525113057D01*
X17906789Y-524934156D01*
X17906789Y-524751750D01*
X17942374Y-524572849D01*
X18012178Y-524404327D01*
X18113517Y-524252662D01*
X18242498Y-524123681D01*
X18394163Y-524022342D01*
X18562685Y-523952538D01*
X18741586Y-523916953D01*
X18923992Y-523916953D01*
X19102893Y-523952538D01*
X19102893Y-523952538D01*
G37*
G36*
X78825375Y-522401754D02*
G01*
X78975200Y-522431556D01*
X79257464Y-522548473D01*
X79511495Y-522718211D01*
X79727531Y-522934247D01*
X79897269Y-523188278D01*
X79986759Y-523404328D01*
X80014186Y-523470543D01*
X80073790Y-523770191D01*
X80073790Y-524075713D01*
X80064248Y-524123682D01*
X80014186Y-524375362D01*
X79897269Y-524657626D01*
X79727531Y-524911657D01*
X79511495Y-525127693D01*
X79257464Y-525297431D01*
X78975200Y-525414348D01*
X78880208Y-525433243D01*
X78675551Y-525473952D01*
X78370029Y-525473952D01*
X78165372Y-525433243D01*
X78070380Y-525414348D01*
X77788116Y-525297431D01*
X77534085Y-525127693D01*
X77318049Y-524911657D01*
X77148311Y-524657626D01*
X77031394Y-524375362D01*
X76981332Y-524123682D01*
X76971790Y-524075713D01*
X76971790Y-523770191D01*
X77031394Y-523470543D01*
X77058821Y-523404328D01*
X77148311Y-523188278D01*
X77318049Y-522934247D01*
X77534085Y-522718211D01*
X77788116Y-522548473D01*
X78070380Y-522431556D01*
X78220205Y-522401754D01*
X78370029Y-522371952D01*
X78675551Y-522371952D01*
X78825375Y-522401754D01*
X78825375Y-522401754D01*
G37*
G36*
X67362893Y-522952538D02*
G01*
X67531415Y-523022342D01*
X67683080Y-523123681D01*
X67812061Y-523252662D01*
X67913400Y-523404327D01*
X67983204Y-523572849D01*
X68018789Y-523751750D01*
X68018789Y-523934156D01*
X67983204Y-524113057D01*
X67913400Y-524281579D01*
X67812061Y-524433244D01*
X67683080Y-524562225D01*
X67531415Y-524663564D01*
X67362893Y-524733368D01*
X67183992Y-524768953D01*
X67001586Y-524768953D01*
X66822685Y-524733368D01*
X66654163Y-524663564D01*
X66502498Y-524562225D01*
X66373517Y-524433244D01*
X66272178Y-524281579D01*
X66202374Y-524113057D01*
X66166789Y-523934156D01*
X66166789Y-523751750D01*
X66202374Y-523572849D01*
X66272178Y-523404327D01*
X66373517Y-523252662D01*
X66502498Y-523123681D01*
X66654163Y-523022342D01*
X66822685Y-522952538D01*
X67001586Y-522916953D01*
X67183992Y-522916953D01*
X67362893Y-522952538D01*
X67362893Y-522952538D01*
G37*
G36*
X57202893Y-522952538D02*
G01*
X57371415Y-523022342D01*
X57523080Y-523123681D01*
X57652061Y-523252662D01*
X57753400Y-523404327D01*
X57823204Y-523572849D01*
X57858789Y-523751750D01*
X57858789Y-523934156D01*
X57823204Y-524113057D01*
X57753400Y-524281579D01*
X57652061Y-524433244D01*
X57523080Y-524562225D01*
X57371415Y-524663564D01*
X57202893Y-524733368D01*
X57023992Y-524768953D01*
X56841586Y-524768953D01*
X56662685Y-524733368D01*
X56494163Y-524663564D01*
X56342498Y-524562225D01*
X56213517Y-524433244D01*
X56112178Y-524281579D01*
X56042374Y-524113057D01*
X56006789Y-523934156D01*
X56006789Y-523751750D01*
X56042374Y-523572849D01*
X56112178Y-523404327D01*
X56213517Y-523252662D01*
X56342498Y-523123681D01*
X56494163Y-523022342D01*
X56662685Y-522952538D01*
X56841586Y-522916953D01*
X57023992Y-522916953D01*
X57202893Y-522952538D01*
X57202893Y-522952538D01*
G37*
G36*
X85175375Y-519861754D02*
G01*
X85325200Y-519891556D01*
X85607464Y-520008473D01*
X85861495Y-520178211D01*
X86077531Y-520394247D01*
X86247269Y-520648278D01*
X86364186Y-520930542D01*
X86423790Y-521230192D01*
X86423790Y-521535712D01*
X86364186Y-521835362D01*
X86247269Y-522117626D01*
X86077531Y-522371657D01*
X85861495Y-522587693D01*
X85607464Y-522757431D01*
X85325200Y-522874348D01*
X85175375Y-522904150D01*
X85025551Y-522933952D01*
X84720029Y-522933952D01*
X84570205Y-522904150D01*
X84420380Y-522874348D01*
X84138116Y-522757431D01*
X83884085Y-522587693D01*
X83668049Y-522371657D01*
X83498311Y-522117626D01*
X83381394Y-521835362D01*
X83321790Y-521535712D01*
X83321790Y-521230192D01*
X83381394Y-520930542D01*
X83498311Y-520648278D01*
X83668049Y-520394247D01*
X83884085Y-520178211D01*
X84138116Y-520008473D01*
X84420380Y-519891556D01*
X84570205Y-519861754D01*
X84720029Y-519831952D01*
X85025551Y-519831952D01*
X85175375Y-519861754D01*
X85175375Y-519861754D01*
G37*
G36*
X81659264Y-516876636D02*
G01*
X81877264Y-516966935D01*
X82031413Y-517030785D01*
X82366338Y-517254575D01*
X82651167Y-517539404D01*
X82874957Y-517874329D01*
X82907352Y-517952538D01*
X83029106Y-518246478D01*
X83107690Y-518641546D01*
X83107690Y-519044358D01*
X83029106Y-519439426D01*
X82978241Y-519562224D01*
X82874957Y-519811575D01*
X82651167Y-520146500D01*
X82366338Y-520431329D01*
X82031413Y-520655119D01*
X81877264Y-520718969D01*
X81659264Y-520809268D01*
X81264196Y-520887852D01*
X80861384Y-520887852D01*
X80466316Y-520809268D01*
X80248316Y-520718969D01*
X80094167Y-520655119D01*
X79759242Y-520431329D01*
X79474413Y-520146500D01*
X79250623Y-519811575D01*
X79147339Y-519562224D01*
X79096474Y-519439426D01*
X79017890Y-519044358D01*
X79017890Y-518641546D01*
X79096474Y-518246478D01*
X79218228Y-517952538D01*
X79250623Y-517874329D01*
X79474413Y-517539404D01*
X79759242Y-517254575D01*
X80094167Y-517030785D01*
X80248316Y-516966935D01*
X80466316Y-516876636D01*
X80861384Y-516798052D01*
X81264196Y-516798052D01*
X81659264Y-516876636D01*
X81659264Y-516876636D01*
G37*
G36*
X86412894Y-517952537D02*
G01*
X86581416Y-518022341D01*
X86733081Y-518123680D01*
X86862062Y-518252661D01*
X86963401Y-518404326D01*
X87033205Y-518572848D01*
X87068790Y-518751749D01*
X87068790Y-518934155D01*
X87033205Y-519113056D01*
X86963401Y-519281578D01*
X86862062Y-519433243D01*
X86733081Y-519562224D01*
X86581416Y-519663563D01*
X86412894Y-519733367D01*
X86233993Y-519768952D01*
X86051587Y-519768952D01*
X85872686Y-519733367D01*
X85704164Y-519663563D01*
X85552499Y-519562224D01*
X85423518Y-519433243D01*
X85322179Y-519281578D01*
X85252375Y-519113056D01*
X85216790Y-518934155D01*
X85216790Y-518751749D01*
X85252375Y-518572848D01*
X85322179Y-518404326D01*
X85423518Y-518252661D01*
X85552499Y-518123680D01*
X85704164Y-518022341D01*
X85872686Y-517952537D01*
X86051587Y-517916952D01*
X86233993Y-517916952D01*
X86412894Y-517952537D01*
X86412894Y-517952537D01*
G37*
G36*
X76252894Y-517952537D02*
G01*
X76421416Y-518022341D01*
X76573081Y-518123680D01*
X76702062Y-518252661D01*
X76803401Y-518404326D01*
X76873205Y-518572848D01*
X76908790Y-518751749D01*
X76908790Y-518934155D01*
X76873205Y-519113056D01*
X76803401Y-519281578D01*
X76702062Y-519433243D01*
X76573081Y-519562224D01*
X76421416Y-519663563D01*
X76252894Y-519733367D01*
X76073993Y-519768952D01*
X75891587Y-519768952D01*
X75712686Y-519733367D01*
X75544164Y-519663563D01*
X75392499Y-519562224D01*
X75263518Y-519433243D01*
X75162179Y-519281578D01*
X75092375Y-519113056D01*
X75056790Y-518934155D01*
X75056790Y-518751749D01*
X75092375Y-518572848D01*
X75162179Y-518404326D01*
X75263518Y-518252661D01*
X75392499Y-518123680D01*
X75544164Y-518022341D01*
X75712686Y-517952537D01*
X75891587Y-517916952D01*
X76073993Y-517916952D01*
X76252894Y-517952537D01*
X76252894Y-517952537D01*
G37*
G36*
X104567291Y-519096542D02*
G01*
X102765291Y-519096542D01*
X102765291Y-517294542D01*
X104567291Y-517294542D01*
X104567291Y-519096542D01*
X104567291Y-519096542D01*
G37*
G36*
X98696733Y-517301060D02*
G01*
X98762918Y-517307579D01*
X98932757Y-517359099D01*
X99089282Y-517442764D01*
X99125020Y-517472094D01*
X99226477Y-517555356D01*
X99309739Y-517656813D01*
X99339069Y-517692551D01*
X99422734Y-517849076D01*
X99474254Y-518018915D01*
X99491650Y-518195542D01*
X99474254Y-518372169D01*
X99422734Y-518542008D01*
X99339069Y-518698533D01*
X99309739Y-518734271D01*
X99226477Y-518835728D01*
X99125020Y-518918990D01*
X99089282Y-518948320D01*
X98932757Y-519031985D01*
X98762918Y-519083505D01*
X98696733Y-519090024D01*
X98630551Y-519096542D01*
X98542031Y-519096542D01*
X98475849Y-519090024D01*
X98409664Y-519083505D01*
X98239825Y-519031985D01*
X98083300Y-518948320D01*
X98047562Y-518918990D01*
X97946105Y-518835728D01*
X97862843Y-518734271D01*
X97833513Y-518698533D01*
X97749848Y-518542008D01*
X97698328Y-518372169D01*
X97680932Y-518195542D01*
X97698328Y-518018915D01*
X97749848Y-517849076D01*
X97833513Y-517692551D01*
X97862843Y-517656813D01*
X97946105Y-517555356D01*
X98047562Y-517472094D01*
X98083300Y-517442764D01*
X98239825Y-517359099D01*
X98409664Y-517307579D01*
X98475849Y-517301060D01*
X98542031Y-517294542D01*
X98630551Y-517294542D01*
X98696733Y-517301060D01*
X98696733Y-517301060D01*
G37*
G36*
X101236733Y-517301060D02*
G01*
X101302918Y-517307579D01*
X101472757Y-517359099D01*
X101629282Y-517442764D01*
X101665020Y-517472094D01*
X101766477Y-517555356D01*
X101849739Y-517656813D01*
X101879069Y-517692551D01*
X101962734Y-517849076D01*
X102014254Y-518018915D01*
X102031650Y-518195542D01*
X102014254Y-518372169D01*
X101962734Y-518542008D01*
X101879069Y-518698533D01*
X101849739Y-518734271D01*
X101766477Y-518835728D01*
X101665020Y-518918990D01*
X101629282Y-518948320D01*
X101472757Y-519031985D01*
X101302918Y-519083505D01*
X101236733Y-519090024D01*
X101170551Y-519096542D01*
X101082031Y-519096542D01*
X101015849Y-519090024D01*
X100949664Y-519083505D01*
X100779825Y-519031985D01*
X100623300Y-518948320D01*
X100587562Y-518918990D01*
X100486105Y-518835728D01*
X100402843Y-518734271D01*
X100373513Y-518698533D01*
X100289848Y-518542008D01*
X100238328Y-518372169D01*
X100220932Y-518195542D01*
X100238328Y-518018915D01*
X100289848Y-517849076D01*
X100373513Y-517692551D01*
X100402843Y-517656813D01*
X100486105Y-517555356D01*
X100587562Y-517472094D01*
X100623300Y-517442764D01*
X100779825Y-517359099D01*
X100949664Y-517307579D01*
X101015849Y-517301060D01*
X101082031Y-517294542D01*
X101170551Y-517294542D01*
X101236733Y-517301060D01*
X101236733Y-517301060D01*
G37*
G36*
X96156733Y-517301060D02*
G01*
X96222918Y-517307579D01*
X96392757Y-517359099D01*
X96549282Y-517442764D01*
X96585020Y-517472094D01*
X96686477Y-517555356D01*
X96769739Y-517656813D01*
X96799069Y-517692551D01*
X96882734Y-517849076D01*
X96934254Y-518018915D01*
X96951650Y-518195542D01*
X96934254Y-518372169D01*
X96882734Y-518542008D01*
X96799069Y-518698533D01*
X96769739Y-518734271D01*
X96686477Y-518835728D01*
X96585020Y-518918990D01*
X96549282Y-518948320D01*
X96392757Y-519031985D01*
X96222918Y-519083505D01*
X96156733Y-519090024D01*
X96090551Y-519096542D01*
X96002031Y-519096542D01*
X95935849Y-519090024D01*
X95869664Y-519083505D01*
X95699825Y-519031985D01*
X95543300Y-518948320D01*
X95507562Y-518918990D01*
X95406105Y-518835728D01*
X95322843Y-518734271D01*
X95293513Y-518698533D01*
X95209848Y-518542008D01*
X95158328Y-518372169D01*
X95140932Y-518195542D01*
X95158328Y-518018915D01*
X95209848Y-517849076D01*
X95293513Y-517692551D01*
X95322843Y-517656813D01*
X95406105Y-517555356D01*
X95507562Y-517472094D01*
X95543300Y-517442764D01*
X95699825Y-517359099D01*
X95869664Y-517307579D01*
X95935849Y-517301060D01*
X96002031Y-517294542D01*
X96090551Y-517294542D01*
X96156733Y-517301060D01*
X96156733Y-517301060D01*
G37*
G36*
X40725374Y-513338802D02*
G01*
X40875199Y-513368604D01*
X41157463Y-513485521D01*
X41411494Y-513655259D01*
X41627530Y-513871295D01*
X41797268Y-514125326D01*
X41914185Y-514407590D01*
X41973789Y-514707240D01*
X41973789Y-515012760D01*
X41914185Y-515312410D01*
X41797268Y-515594674D01*
X41627530Y-515848705D01*
X41411494Y-516064741D01*
X41157463Y-516234479D01*
X40875199Y-516351396D01*
X40725374Y-516381198D01*
X40575550Y-516411000D01*
X40270028Y-516411000D01*
X40120204Y-516381198D01*
X39970379Y-516351396D01*
X39688115Y-516234479D01*
X39434084Y-516064741D01*
X39218048Y-515848705D01*
X39048310Y-515594674D01*
X38931393Y-515312410D01*
X38871789Y-515012760D01*
X38871789Y-514707240D01*
X38931393Y-514407590D01*
X39048310Y-514125326D01*
X39218048Y-513871295D01*
X39434084Y-513655259D01*
X39688115Y-513485521D01*
X39970379Y-513368604D01*
X40120204Y-513338802D01*
X40270028Y-513309000D01*
X40575550Y-513309000D01*
X40725374Y-513338802D01*
X40725374Y-513338802D01*
G37*
G36*
X47075374Y-510798802D02*
G01*
X47225199Y-510828604D01*
X47507463Y-510945521D01*
X47761494Y-511115259D01*
X47977530Y-511331295D01*
X48147268Y-511585326D01*
X48264185Y-511867590D01*
X48323789Y-512167240D01*
X48323789Y-512472760D01*
X48264185Y-512772410D01*
X48147268Y-513054674D01*
X47977530Y-513308705D01*
X47761494Y-513524741D01*
X47507463Y-513694479D01*
X47225199Y-513811396D01*
X47075374Y-513841198D01*
X46925550Y-513871000D01*
X46620028Y-513871000D01*
X46470204Y-513841198D01*
X46320379Y-513811396D01*
X46038115Y-513694479D01*
X45784084Y-513524741D01*
X45568048Y-513308705D01*
X45398310Y-513054674D01*
X45281393Y-512772410D01*
X45221789Y-512472760D01*
X45221789Y-512167240D01*
X45281393Y-511867590D01*
X45398310Y-511585326D01*
X45568048Y-511331295D01*
X45784084Y-511115259D01*
X46038115Y-510945521D01*
X46320379Y-510828604D01*
X46470204Y-510798802D01*
X46620028Y-510769000D01*
X46925550Y-510769000D01*
X47075374Y-510798802D01*
X47075374Y-510798802D01*
G37*
G36*
X21675374Y-509338802D02*
G01*
X21825199Y-509368604D01*
X22107463Y-509485521D01*
X22361494Y-509655259D01*
X22577530Y-509871295D01*
X22747268Y-510125326D01*
X22864185Y-510407590D01*
X22864185Y-510407591D01*
X22923789Y-510707239D01*
X22923789Y-511012761D01*
X22903401Y-511115259D01*
X22864185Y-511312410D01*
X22747268Y-511594674D01*
X22577530Y-511848705D01*
X22361494Y-512064741D01*
X22107463Y-512234479D01*
X21825199Y-512351396D01*
X21675374Y-512381198D01*
X21525550Y-512411000D01*
X21220028Y-512411000D01*
X21070204Y-512381198D01*
X20920379Y-512351396D01*
X20638115Y-512234479D01*
X20384084Y-512064741D01*
X20168048Y-511848705D01*
X19998310Y-511594674D01*
X19881393Y-511312410D01*
X19842177Y-511115259D01*
X19821789Y-511012761D01*
X19821789Y-510707239D01*
X19881393Y-510407591D01*
X19881393Y-510407590D01*
X19998310Y-510125326D01*
X20168048Y-509871295D01*
X20384084Y-509655259D01*
X20638115Y-509485521D01*
X20920379Y-509368604D01*
X21070204Y-509338802D01*
X21220028Y-509309000D01*
X21525550Y-509309000D01*
X21675374Y-509338802D01*
X21675374Y-509338802D01*
G37*
G36*
X43559263Y-507813684D02*
G01*
X43777263Y-507903983D01*
X43931412Y-507967833D01*
X44266337Y-508191623D01*
X44551166Y-508476452D01*
X44774956Y-508811377D01*
X44807351Y-508889586D01*
X44929105Y-509183526D01*
X45007689Y-509578594D01*
X45007689Y-509981406D01*
X44929105Y-510376474D01*
X44878240Y-510499272D01*
X44774956Y-510748623D01*
X44551166Y-511083548D01*
X44266337Y-511368377D01*
X43931412Y-511592167D01*
X43777263Y-511656017D01*
X43559263Y-511746316D01*
X43164195Y-511824900D01*
X42761383Y-511824900D01*
X42366315Y-511746316D01*
X42148315Y-511656017D01*
X41994166Y-511592167D01*
X41659241Y-511368377D01*
X41374412Y-511083548D01*
X41150622Y-510748623D01*
X41047338Y-510499272D01*
X40996473Y-510376474D01*
X40917889Y-509981406D01*
X40917889Y-509578594D01*
X40996473Y-509183526D01*
X41118227Y-508889586D01*
X41150622Y-508811377D01*
X41374412Y-508476452D01*
X41659241Y-508191623D01*
X41994166Y-507967833D01*
X42148315Y-507903983D01*
X42366315Y-507813684D01*
X42761383Y-507735100D01*
X43164195Y-507735100D01*
X43559263Y-507813684D01*
X43559263Y-507813684D01*
G37*
G36*
X59775374Y-508338802D02*
G01*
X59925199Y-508368604D01*
X60207463Y-508485521D01*
X60461494Y-508655259D01*
X60677530Y-508871295D01*
X60847268Y-509125326D01*
X60964185Y-509407590D01*
X60964185Y-509407591D01*
X61020121Y-509688797D01*
X61023789Y-509707240D01*
X61023789Y-510012760D01*
X60964185Y-510312410D01*
X60847268Y-510594674D01*
X60677530Y-510848705D01*
X60461494Y-511064741D01*
X60207463Y-511234479D01*
X59925199Y-511351396D01*
X59775374Y-511381198D01*
X59625550Y-511411000D01*
X59320028Y-511411000D01*
X59170204Y-511381198D01*
X59020379Y-511351396D01*
X58738115Y-511234479D01*
X58484084Y-511064741D01*
X58268048Y-510848705D01*
X58098310Y-510594674D01*
X57981393Y-510312410D01*
X57921789Y-510012760D01*
X57921789Y-509707240D01*
X57925458Y-509688797D01*
X57981393Y-509407591D01*
X57981393Y-509407590D01*
X58098310Y-509125326D01*
X58268048Y-508871295D01*
X58484084Y-508655259D01*
X58738115Y-508485521D01*
X59020379Y-508368604D01*
X59170204Y-508338802D01*
X59320028Y-508309000D01*
X59625550Y-508309000D01*
X59775374Y-508338802D01*
X59775374Y-508338802D01*
G37*
G36*
X48312893Y-508889585D02*
G01*
X48481415Y-508959389D01*
X48633080Y-509060728D01*
X48762061Y-509189709D01*
X48863400Y-509341374D01*
X48933204Y-509509896D01*
X48968789Y-509688797D01*
X48968789Y-509871203D01*
X48933204Y-510050104D01*
X48863400Y-510218626D01*
X48762061Y-510370291D01*
X48633080Y-510499272D01*
X48481415Y-510600611D01*
X48312893Y-510670415D01*
X48133992Y-510706000D01*
X47951586Y-510706000D01*
X47772685Y-510670415D01*
X47604163Y-510600611D01*
X47452498Y-510499272D01*
X47323517Y-510370291D01*
X47222178Y-510218626D01*
X47152374Y-510050104D01*
X47116789Y-509871203D01*
X47116789Y-509688797D01*
X47152374Y-509509896D01*
X47222178Y-509341374D01*
X47323517Y-509189709D01*
X47452498Y-509060728D01*
X47604163Y-508959389D01*
X47772685Y-508889585D01*
X47951586Y-508854000D01*
X48133992Y-508854000D01*
X48312893Y-508889585D01*
X48312893Y-508889585D01*
G37*
G36*
X38152893Y-508889585D02*
G01*
X38321415Y-508959389D01*
X38473080Y-509060728D01*
X38602061Y-509189709D01*
X38703400Y-509341374D01*
X38773204Y-509509896D01*
X38808789Y-509688797D01*
X38808789Y-509871203D01*
X38773204Y-510050104D01*
X38703400Y-510218626D01*
X38602061Y-510370291D01*
X38473080Y-510499272D01*
X38321415Y-510600611D01*
X38152893Y-510670415D01*
X37973992Y-510706000D01*
X37791586Y-510706000D01*
X37612685Y-510670415D01*
X37444163Y-510600611D01*
X37292498Y-510499272D01*
X37163517Y-510370291D01*
X37062178Y-510218626D01*
X36992374Y-510050104D01*
X36956789Y-509871203D01*
X36956789Y-509688797D01*
X36992374Y-509509896D01*
X37062178Y-509341374D01*
X37163517Y-509189709D01*
X37292498Y-509060728D01*
X37444163Y-508959389D01*
X37612685Y-508889585D01*
X37791586Y-508854000D01*
X37973992Y-508854000D01*
X38152893Y-508889585D01*
X38152893Y-508889585D01*
G37*
G36*
X28025374Y-506798802D02*
G01*
X28175199Y-506828604D01*
X28457463Y-506945521D01*
X28711494Y-507115259D01*
X28927530Y-507331295D01*
X29097268Y-507585326D01*
X29214185Y-507867590D01*
X29240385Y-507999305D01*
X29273789Y-508167239D01*
X29273789Y-508472761D01*
X29271251Y-508485521D01*
X29214185Y-508772410D01*
X29097268Y-509054674D01*
X28927530Y-509308705D01*
X28711494Y-509524741D01*
X28457463Y-509694479D01*
X28175199Y-509811396D01*
X28025374Y-509841198D01*
X27875550Y-509871000D01*
X27570028Y-509871000D01*
X27420204Y-509841198D01*
X27270379Y-509811396D01*
X26988115Y-509694479D01*
X26734084Y-509524741D01*
X26518048Y-509308705D01*
X26348310Y-509054674D01*
X26231393Y-508772410D01*
X26174327Y-508485521D01*
X26171789Y-508472761D01*
X26171789Y-508167239D01*
X26205193Y-507999305D01*
X26231393Y-507867590D01*
X26348310Y-507585326D01*
X26518048Y-507331295D01*
X26734084Y-507115259D01*
X26988115Y-506945521D01*
X27270379Y-506828604D01*
X27420204Y-506798802D01*
X27570028Y-506769000D01*
X27875550Y-506769000D01*
X28025374Y-506798802D01*
X28025374Y-506798802D01*
G37*
G36*
X66125374Y-505798802D02*
G01*
X66275199Y-505828604D01*
X66557463Y-505945521D01*
X66811494Y-506115259D01*
X67027530Y-506331295D01*
X67197268Y-506585326D01*
X67314185Y-506867590D01*
X67314185Y-506867591D01*
X67357142Y-507083547D01*
X67373789Y-507167240D01*
X67373789Y-507472760D01*
X67314185Y-507772410D01*
X67197268Y-508054674D01*
X67027530Y-508308705D01*
X66811494Y-508524741D01*
X66557463Y-508694479D01*
X66275199Y-508811396D01*
X66125374Y-508841198D01*
X65975550Y-508871000D01*
X65670028Y-508871000D01*
X65520204Y-508841198D01*
X65370379Y-508811396D01*
X65088115Y-508694479D01*
X64834084Y-508524741D01*
X64618048Y-508308705D01*
X64448310Y-508054674D01*
X64331393Y-507772410D01*
X64271789Y-507472760D01*
X64271789Y-507167240D01*
X64288437Y-507083547D01*
X64331393Y-506867591D01*
X64331393Y-506867590D01*
X64448310Y-506585326D01*
X64618048Y-506331295D01*
X64834084Y-506115259D01*
X65088115Y-505945521D01*
X65370379Y-505828604D01*
X65520204Y-505798802D01*
X65670028Y-505769000D01*
X65975550Y-505769000D01*
X66125374Y-505798802D01*
X66125374Y-505798802D01*
G37*
G36*
X127307095Y-507999305D02*
G01*
X125505095Y-507999305D01*
X125505095Y-506197305D01*
X127307095Y-506197305D01*
X127307095Y-507999305D01*
X127307095Y-507999305D01*
G37*
G36*
X24509263Y-503813684D02*
G01*
X24648348Y-503871295D01*
X24881412Y-503967833D01*
X25216337Y-504191623D01*
X25501166Y-504476452D01*
X25724956Y-504811377D01*
X25757351Y-504889586D01*
X25879105Y-505183526D01*
X25957689Y-505578594D01*
X25957689Y-505981406D01*
X25879105Y-506376474D01*
X25828240Y-506499272D01*
X25724956Y-506748623D01*
X25501166Y-507083548D01*
X25216337Y-507368377D01*
X24881412Y-507592167D01*
X24727263Y-507656017D01*
X24509263Y-507746316D01*
X24114195Y-507824900D01*
X23711383Y-507824900D01*
X23316315Y-507746316D01*
X23098315Y-507656017D01*
X22944166Y-507592167D01*
X22609241Y-507368377D01*
X22324412Y-507083548D01*
X22100622Y-506748623D01*
X21997338Y-506499272D01*
X21946473Y-506376474D01*
X21867889Y-505981406D01*
X21867889Y-505578594D01*
X21946473Y-505183526D01*
X22068227Y-504889586D01*
X22100622Y-504811377D01*
X22324412Y-504476452D01*
X22609241Y-504191623D01*
X22944166Y-503967833D01*
X23177230Y-503871295D01*
X23316315Y-503813684D01*
X23711383Y-503735100D01*
X24114195Y-503735100D01*
X24509263Y-503813684D01*
X24509263Y-503813684D01*
G37*
G36*
X62609263Y-502813684D02*
G01*
X62827263Y-502903983D01*
X62981412Y-502967833D01*
X63316337Y-503191623D01*
X63601166Y-503476452D01*
X63824956Y-503811377D01*
X63857351Y-503889586D01*
X63979105Y-504183526D01*
X64057689Y-504578594D01*
X64057689Y-504981406D01*
X63979105Y-505376474D01*
X63923839Y-505509897D01*
X63824956Y-505748623D01*
X63601166Y-506083548D01*
X63316337Y-506368377D01*
X62981412Y-506592167D01*
X62827263Y-506656017D01*
X62609263Y-506746316D01*
X62214195Y-506824900D01*
X61811383Y-506824900D01*
X61416315Y-506746316D01*
X61198315Y-506656017D01*
X61044166Y-506592167D01*
X60709241Y-506368377D01*
X60424412Y-506083548D01*
X60200622Y-505748623D01*
X60101739Y-505509897D01*
X60046473Y-505376474D01*
X59967889Y-504981406D01*
X59967889Y-504578594D01*
X60046473Y-504183526D01*
X60168227Y-503889586D01*
X60200622Y-503811377D01*
X60424412Y-503476452D01*
X60709241Y-503191623D01*
X61044166Y-502967833D01*
X61198315Y-502903983D01*
X61416315Y-502813684D01*
X61811383Y-502735100D01*
X62214195Y-502735100D01*
X62609263Y-502813684D01*
X62609263Y-502813684D01*
G37*
G36*
X29262893Y-504889585D02*
G01*
X29431415Y-504959389D01*
X29583080Y-505060728D01*
X29712061Y-505189709D01*
X29813400Y-505341374D01*
X29883204Y-505509896D01*
X29918789Y-505688797D01*
X29918789Y-505871203D01*
X29883204Y-506050104D01*
X29813400Y-506218626D01*
X29712061Y-506370291D01*
X29583080Y-506499272D01*
X29431415Y-506600611D01*
X29262893Y-506670415D01*
X29083992Y-506706000D01*
X28901586Y-506706000D01*
X28722685Y-506670415D01*
X28554163Y-506600611D01*
X28402498Y-506499272D01*
X28273517Y-506370291D01*
X28172178Y-506218626D01*
X28102374Y-506050104D01*
X28066789Y-505871203D01*
X28066789Y-505688797D01*
X28102374Y-505509896D01*
X28172178Y-505341374D01*
X28273517Y-505189709D01*
X28402498Y-505060728D01*
X28554163Y-504959389D01*
X28722685Y-504889585D01*
X28901586Y-504854000D01*
X29083992Y-504854000D01*
X29262893Y-504889585D01*
X29262893Y-504889585D01*
G37*
G36*
X19102893Y-504889585D02*
G01*
X19271415Y-504959389D01*
X19423080Y-505060728D01*
X19552061Y-505189709D01*
X19653400Y-505341374D01*
X19723204Y-505509896D01*
X19758789Y-505688797D01*
X19758789Y-505871203D01*
X19723204Y-506050104D01*
X19653400Y-506218626D01*
X19552061Y-506370291D01*
X19423080Y-506499272D01*
X19271415Y-506600611D01*
X19102893Y-506670415D01*
X18923992Y-506706000D01*
X18741586Y-506706000D01*
X18562685Y-506670415D01*
X18394163Y-506600611D01*
X18242498Y-506499272D01*
X18113517Y-506370291D01*
X18012178Y-506218626D01*
X17942374Y-506050104D01*
X17906789Y-505871203D01*
X17906789Y-505688797D01*
X17942374Y-505509896D01*
X18012178Y-505341374D01*
X18113517Y-505189709D01*
X18242498Y-505060728D01*
X18394163Y-504959389D01*
X18562685Y-504889585D01*
X18741586Y-504854000D01*
X18923992Y-504854000D01*
X19102893Y-504889585D01*
X19102893Y-504889585D01*
G37*
G36*
X78825375Y-503338802D02*
G01*
X78975200Y-503368604D01*
X79257464Y-503485521D01*
X79511495Y-503655259D01*
X79727531Y-503871295D01*
X79897269Y-504125326D01*
X80014186Y-504407590D01*
X80014186Y-504407591D01*
X80073790Y-504707239D01*
X80073790Y-505012761D01*
X80064136Y-505061294D01*
X80014186Y-505312410D01*
X79897269Y-505594674D01*
X79727531Y-505848705D01*
X79511495Y-506064741D01*
X79257464Y-506234479D01*
X78975200Y-506351396D01*
X78880213Y-506370290D01*
X78675551Y-506411000D01*
X78370029Y-506411000D01*
X78165367Y-506370290D01*
X78070380Y-506351396D01*
X77788116Y-506234479D01*
X77534085Y-506064741D01*
X77318049Y-505848705D01*
X77148311Y-505594674D01*
X77031394Y-505312410D01*
X76981444Y-505061294D01*
X76971790Y-505012761D01*
X76971790Y-504707239D01*
X77031394Y-504407591D01*
X77031394Y-504407590D01*
X77148311Y-504125326D01*
X77318049Y-503871295D01*
X77534085Y-503655259D01*
X77788116Y-503485521D01*
X78070380Y-503368604D01*
X78220205Y-503338802D01*
X78370029Y-503309000D01*
X78675551Y-503309000D01*
X78825375Y-503338802D01*
X78825375Y-503338802D01*
G37*
G36*
X57202893Y-503889585D02*
G01*
X57371415Y-503959389D01*
X57523080Y-504060728D01*
X57652061Y-504189709D01*
X57753400Y-504341374D01*
X57823204Y-504509896D01*
X57858789Y-504688797D01*
X57858789Y-504871203D01*
X57823204Y-505050104D01*
X57753400Y-505218626D01*
X57652061Y-505370291D01*
X57523080Y-505499272D01*
X57371415Y-505600611D01*
X57202893Y-505670415D01*
X57023992Y-505706000D01*
X56841586Y-505706000D01*
X56662685Y-505670415D01*
X56494163Y-505600611D01*
X56342498Y-505499272D01*
X56213517Y-505370291D01*
X56112178Y-505218626D01*
X56042374Y-505050104D01*
X56006789Y-504871203D01*
X56006789Y-504688797D01*
X56042374Y-504509896D01*
X56112178Y-504341374D01*
X56213517Y-504189709D01*
X56342498Y-504060728D01*
X56494163Y-503959389D01*
X56662685Y-503889585D01*
X56841586Y-503854000D01*
X57023992Y-503854000D01*
X57202893Y-503889585D01*
X57202893Y-503889585D01*
G37*
G36*
X67362893Y-503889585D02*
G01*
X67531415Y-503959389D01*
X67683080Y-504060728D01*
X67812061Y-504189709D01*
X67913400Y-504341374D01*
X67983204Y-504509896D01*
X68018789Y-504688797D01*
X68018789Y-504871203D01*
X67983204Y-505050104D01*
X67913400Y-505218626D01*
X67812061Y-505370291D01*
X67683080Y-505499272D01*
X67531415Y-505600611D01*
X67362893Y-505670415D01*
X67183992Y-505706000D01*
X67001586Y-505706000D01*
X66822685Y-505670415D01*
X66654163Y-505600611D01*
X66502498Y-505499272D01*
X66373517Y-505370291D01*
X66272178Y-505218626D01*
X66202374Y-505050104D01*
X66166789Y-504871203D01*
X66166789Y-504688797D01*
X66202374Y-504509896D01*
X66272178Y-504341374D01*
X66373517Y-504189709D01*
X66502498Y-504060728D01*
X66654163Y-503959389D01*
X66822685Y-503889585D01*
X67001586Y-503854000D01*
X67183992Y-503854000D01*
X67362893Y-503889585D01*
X67362893Y-503889585D01*
G37*
G36*
X126516537Y-503663823D02*
G01*
X126582722Y-503670342D01*
X126752561Y-503721862D01*
X126909086Y-503805527D01*
X126916214Y-503811377D01*
X127046281Y-503918119D01*
X127129543Y-504019576D01*
X127158873Y-504055314D01*
X127242538Y-504211839D01*
X127294058Y-504381678D01*
X127311454Y-504558305D01*
X127294058Y-504734932D01*
X127242538Y-504904771D01*
X127158873Y-505061296D01*
X127129543Y-505097034D01*
X127046281Y-505198491D01*
X126944824Y-505281753D01*
X126909086Y-505311083D01*
X126909084Y-505311084D01*
X126798317Y-505370291D01*
X126752561Y-505394748D01*
X126582722Y-505446268D01*
X126516537Y-505452787D01*
X126450355Y-505459305D01*
X126361835Y-505459305D01*
X126295653Y-505452787D01*
X126229468Y-505446268D01*
X126059629Y-505394748D01*
X126013874Y-505370291D01*
X125903106Y-505311084D01*
X125903104Y-505311083D01*
X125867366Y-505281753D01*
X125765909Y-505198491D01*
X125682647Y-505097034D01*
X125653317Y-505061296D01*
X125569652Y-504904771D01*
X125518132Y-504734932D01*
X125500736Y-504558305D01*
X125518132Y-504381678D01*
X125569652Y-504211839D01*
X125653317Y-504055314D01*
X125682647Y-504019576D01*
X125765909Y-503918119D01*
X125895976Y-503811377D01*
X125903104Y-503805527D01*
X126059629Y-503721862D01*
X126229468Y-503670342D01*
X126295653Y-503663823D01*
X126361835Y-503657305D01*
X126450355Y-503657305D01*
X126516537Y-503663823D01*
X126516537Y-503663823D01*
G37*
G36*
X85175375Y-500798802D02*
G01*
X85325200Y-500828604D01*
X85607464Y-500945521D01*
X85861495Y-501115259D01*
X86077531Y-501331295D01*
X86247269Y-501585326D01*
X86364186Y-501867590D01*
X86423790Y-502167240D01*
X86423790Y-502472760D01*
X86364186Y-502772410D01*
X86247269Y-503054674D01*
X86077531Y-503308705D01*
X85861495Y-503524741D01*
X85607464Y-503694479D01*
X85325200Y-503811396D01*
X85175375Y-503841198D01*
X85025551Y-503871000D01*
X84720029Y-503871000D01*
X84570205Y-503841198D01*
X84420380Y-503811396D01*
X84138116Y-503694479D01*
X83884085Y-503524741D01*
X83668049Y-503308705D01*
X83498311Y-503054674D01*
X83381394Y-502772410D01*
X83321790Y-502472760D01*
X83321790Y-502167240D01*
X83381394Y-501867590D01*
X83498311Y-501585326D01*
X83668049Y-501331295D01*
X83884085Y-501115259D01*
X84138116Y-500945521D01*
X84420380Y-500828604D01*
X84570205Y-500798802D01*
X84720029Y-500769000D01*
X85025551Y-500769000D01*
X85175375Y-500798802D01*
X85175375Y-500798802D01*
G37*
G36*
X126516538Y-501123824D02*
G01*
X126582722Y-501130342D01*
X126752561Y-501181862D01*
X126909086Y-501265527D01*
X126944824Y-501294857D01*
X127046281Y-501378119D01*
X127129543Y-501479576D01*
X127158873Y-501515314D01*
X127242538Y-501671839D01*
X127294058Y-501841678D01*
X127311454Y-502018305D01*
X127294058Y-502194932D01*
X127242538Y-502364771D01*
X127158873Y-502521296D01*
X127129543Y-502557034D01*
X127046281Y-502658491D01*
X126952931Y-502735100D01*
X126909086Y-502771083D01*
X126752561Y-502854748D01*
X126582722Y-502906268D01*
X126516538Y-502912786D01*
X126450355Y-502919305D01*
X126361835Y-502919305D01*
X126295652Y-502912786D01*
X126229468Y-502906268D01*
X126059629Y-502854748D01*
X125903104Y-502771083D01*
X125859259Y-502735100D01*
X125765909Y-502658491D01*
X125682647Y-502557034D01*
X125653317Y-502521296D01*
X125569652Y-502364771D01*
X125518132Y-502194932D01*
X125500736Y-502018305D01*
X125518132Y-501841678D01*
X125569652Y-501671839D01*
X125653317Y-501515314D01*
X125682647Y-501479576D01*
X125765909Y-501378119D01*
X125867366Y-501294857D01*
X125903104Y-501265527D01*
X126059629Y-501181862D01*
X126229468Y-501130342D01*
X126295652Y-501123824D01*
X126361835Y-501117305D01*
X126450355Y-501117305D01*
X126516538Y-501123824D01*
X126516538Y-501123824D01*
G37*
G36*
X81659264Y-497813684D02*
G01*
X81877264Y-497903983D01*
X82031413Y-497967833D01*
X82366338Y-498191623D01*
X82651167Y-498476452D01*
X82874957Y-498811377D01*
X82907352Y-498889586D01*
X83029106Y-499183526D01*
X83107690Y-499578594D01*
X83107690Y-499981406D01*
X83029106Y-500376474D01*
X82978241Y-500499272D01*
X82874957Y-500748623D01*
X82651167Y-501083548D01*
X82366338Y-501368377D01*
X82031413Y-501592167D01*
X81877264Y-501656017D01*
X81659264Y-501746316D01*
X81264196Y-501824900D01*
X80861384Y-501824900D01*
X80466316Y-501746316D01*
X80248316Y-501656017D01*
X80094167Y-501592167D01*
X79759242Y-501368377D01*
X79474413Y-501083548D01*
X79250623Y-500748623D01*
X79147339Y-500499272D01*
X79096474Y-500376474D01*
X79017890Y-499981406D01*
X79017890Y-499578594D01*
X79096474Y-499183526D01*
X79218228Y-498889586D01*
X79250623Y-498811377D01*
X79474413Y-498476452D01*
X79759242Y-498191623D01*
X80094167Y-497967833D01*
X80248316Y-497903983D01*
X80466316Y-497813684D01*
X80861384Y-497735100D01*
X81264196Y-497735100D01*
X81659264Y-497813684D01*
X81659264Y-497813684D01*
G37*
G36*
X76252894Y-498889585D02*
G01*
X76421416Y-498959389D01*
X76573081Y-499060728D01*
X76702062Y-499189709D01*
X76803401Y-499341374D01*
X76873205Y-499509896D01*
X76908790Y-499688797D01*
X76908790Y-499871203D01*
X76873205Y-500050104D01*
X76803401Y-500218626D01*
X76702062Y-500370291D01*
X76573081Y-500499272D01*
X76421416Y-500600611D01*
X76252894Y-500670415D01*
X76073993Y-500706000D01*
X75891587Y-500706000D01*
X75712686Y-500670415D01*
X75544164Y-500600611D01*
X75392499Y-500499272D01*
X75263518Y-500370291D01*
X75162179Y-500218626D01*
X75092375Y-500050104D01*
X75056790Y-499871203D01*
X75056790Y-499688797D01*
X75092375Y-499509896D01*
X75162179Y-499341374D01*
X75263518Y-499189709D01*
X75392499Y-499060728D01*
X75544164Y-498959389D01*
X75712686Y-498889585D01*
X75891587Y-498854000D01*
X76073993Y-498854000D01*
X76252894Y-498889585D01*
X76252894Y-498889585D01*
G37*
G36*
X86412894Y-498889585D02*
G01*
X86581416Y-498959389D01*
X86733081Y-499060728D01*
X86862062Y-499189709D01*
X86963401Y-499341374D01*
X87033205Y-499509896D01*
X87068790Y-499688797D01*
X87068790Y-499871203D01*
X87033205Y-500050104D01*
X86963401Y-500218626D01*
X86862062Y-500370291D01*
X86733081Y-500499272D01*
X86581416Y-500600611D01*
X86412894Y-500670415D01*
X86233993Y-500706000D01*
X86051587Y-500706000D01*
X85872686Y-500670415D01*
X85704164Y-500600611D01*
X85552499Y-500499272D01*
X85423518Y-500370291D01*
X85322179Y-500218626D01*
X85252375Y-500050104D01*
X85216790Y-499871203D01*
X85216790Y-499688797D01*
X85252375Y-499509896D01*
X85322179Y-499341374D01*
X85423518Y-499189709D01*
X85552499Y-499060728D01*
X85704164Y-498959389D01*
X85872686Y-498889585D01*
X86051587Y-498854000D01*
X86233993Y-498854000D01*
X86412894Y-498889585D01*
X86412894Y-498889585D01*
G37*
G36*
X126516538Y-498583824D02*
G01*
X126582722Y-498590342D01*
X126752561Y-498641862D01*
X126909086Y-498725527D01*
X126944824Y-498754857D01*
X127046281Y-498838119D01*
X127129543Y-498939576D01*
X127158873Y-498975314D01*
X127242538Y-499131839D01*
X127294058Y-499301678D01*
X127311454Y-499478305D01*
X127294058Y-499654932D01*
X127242538Y-499824771D01*
X127158873Y-499981296D01*
X127129543Y-500017034D01*
X127046281Y-500118491D01*
X126944824Y-500201753D01*
X126909086Y-500231083D01*
X126752561Y-500314748D01*
X126582722Y-500366268D01*
X126516538Y-500372786D01*
X126450355Y-500379305D01*
X126361835Y-500379305D01*
X126295652Y-500372786D01*
X126229468Y-500366268D01*
X126059629Y-500314748D01*
X125903104Y-500231083D01*
X125867366Y-500201753D01*
X125765909Y-500118491D01*
X125682647Y-500017034D01*
X125653317Y-499981296D01*
X125569652Y-499824771D01*
X125518132Y-499654932D01*
X125500736Y-499478305D01*
X125518132Y-499301678D01*
X125569652Y-499131839D01*
X125653317Y-498975314D01*
X125682647Y-498939576D01*
X125765909Y-498838119D01*
X125867366Y-498754857D01*
X125903104Y-498725527D01*
X126059629Y-498641862D01*
X126229468Y-498590342D01*
X126295652Y-498583824D01*
X126361835Y-498577305D01*
X126450355Y-498577305D01*
X126516538Y-498583824D01*
X126516538Y-498583824D01*
G37*
G36*
X95156734Y-497301061D02*
G01*
X95222918Y-497307579D01*
X95392757Y-497359099D01*
X95549282Y-497442764D01*
X95585020Y-497472094D01*
X95686477Y-497555356D01*
X95769739Y-497656813D01*
X95799069Y-497692551D01*
X95882734Y-497849076D01*
X95934254Y-498018915D01*
X95951650Y-498195542D01*
X95934254Y-498372169D01*
X95882734Y-498542008D01*
X95799069Y-498698533D01*
X95776916Y-498725526D01*
X95686477Y-498835728D01*
X95585020Y-498918990D01*
X95549282Y-498948320D01*
X95392757Y-499031985D01*
X95222918Y-499083505D01*
X95156733Y-499090024D01*
X95090551Y-499096542D01*
X95002031Y-499096542D01*
X94935849Y-499090024D01*
X94869664Y-499083505D01*
X94699825Y-499031985D01*
X94543300Y-498948320D01*
X94507562Y-498918990D01*
X94406105Y-498835728D01*
X94315666Y-498725526D01*
X94293513Y-498698533D01*
X94209848Y-498542008D01*
X94158328Y-498372169D01*
X94140932Y-498195542D01*
X94158328Y-498018915D01*
X94209848Y-497849076D01*
X94293513Y-497692551D01*
X94322843Y-497656813D01*
X94406105Y-497555356D01*
X94507562Y-497472094D01*
X94543300Y-497442764D01*
X94699825Y-497359099D01*
X94869664Y-497307579D01*
X94935848Y-497301061D01*
X95002031Y-497294542D01*
X95090551Y-497294542D01*
X95156734Y-497301061D01*
X95156734Y-497301061D01*
G37*
G36*
X103567291Y-499096542D02*
G01*
X101765291Y-499096542D01*
X101765291Y-497294542D01*
X103567291Y-497294542D01*
X103567291Y-499096542D01*
X103567291Y-499096542D01*
G37*
G36*
X100236734Y-497301061D02*
G01*
X100302918Y-497307579D01*
X100472757Y-497359099D01*
X100629282Y-497442764D01*
X100665020Y-497472094D01*
X100766477Y-497555356D01*
X100849739Y-497656813D01*
X100879069Y-497692551D01*
X100962734Y-497849076D01*
X101014254Y-498018915D01*
X101031650Y-498195542D01*
X101014254Y-498372169D01*
X100962734Y-498542008D01*
X100879069Y-498698533D01*
X100856916Y-498725526D01*
X100766477Y-498835728D01*
X100665020Y-498918990D01*
X100629282Y-498948320D01*
X100472757Y-499031985D01*
X100302918Y-499083505D01*
X100236733Y-499090024D01*
X100170551Y-499096542D01*
X100082031Y-499096542D01*
X100015849Y-499090024D01*
X99949664Y-499083505D01*
X99779825Y-499031985D01*
X99623300Y-498948320D01*
X99587562Y-498918990D01*
X99486105Y-498835728D01*
X99395666Y-498725526D01*
X99373513Y-498698533D01*
X99289848Y-498542008D01*
X99238328Y-498372169D01*
X99220932Y-498195542D01*
X99238328Y-498018915D01*
X99289848Y-497849076D01*
X99373513Y-497692551D01*
X99402843Y-497656813D01*
X99486105Y-497555356D01*
X99587562Y-497472094D01*
X99623300Y-497442764D01*
X99779825Y-497359099D01*
X99949664Y-497307579D01*
X100015848Y-497301061D01*
X100082031Y-497294542D01*
X100170551Y-497294542D01*
X100236734Y-497301061D01*
X100236734Y-497301061D01*
G37*
G36*
X97696734Y-497301061D02*
G01*
X97762918Y-497307579D01*
X97932757Y-497359099D01*
X98089282Y-497442764D01*
X98125020Y-497472094D01*
X98226477Y-497555356D01*
X98309739Y-497656813D01*
X98339069Y-497692551D01*
X98422734Y-497849076D01*
X98474254Y-498018915D01*
X98491650Y-498195542D01*
X98474254Y-498372169D01*
X98422734Y-498542008D01*
X98339069Y-498698533D01*
X98316916Y-498725526D01*
X98226477Y-498835728D01*
X98125020Y-498918990D01*
X98089282Y-498948320D01*
X97932757Y-499031985D01*
X97762918Y-499083505D01*
X97696733Y-499090024D01*
X97630551Y-499096542D01*
X97542031Y-499096542D01*
X97475849Y-499090024D01*
X97409664Y-499083505D01*
X97239825Y-499031985D01*
X97083300Y-498948320D01*
X97047562Y-498918990D01*
X96946105Y-498835728D01*
X96855666Y-498725526D01*
X96833513Y-498698533D01*
X96749848Y-498542008D01*
X96698328Y-498372169D01*
X96680932Y-498195542D01*
X96698328Y-498018915D01*
X96749848Y-497849076D01*
X96833513Y-497692551D01*
X96862843Y-497656813D01*
X96946105Y-497555356D01*
X97047562Y-497472094D01*
X97083300Y-497442764D01*
X97239825Y-497359099D01*
X97409664Y-497307579D01*
X97475848Y-497301061D01*
X97542031Y-497294542D01*
X97630551Y-497294542D01*
X97696734Y-497301061D01*
X97696734Y-497301061D01*
G37*
M02*
