G04 #@! TF.GenerationSoftware,KiCad,Pcbnew,(5.1.4)-1*
G04 #@! TF.CreationDate,2023-09-09T05:25:23-04:00*
G04 #@! TF.ProjectId,ThumbsUp,5468756d-6273-4557-902e-6b696361645f,rev?*
G04 #@! TF.SameCoordinates,Original*
G04 #@! TF.FileFunction,Copper,L1,Top*
G04 #@! TF.FilePolarity,Positive*
%FSLAX46Y46*%
G04 Gerber Fmt 4.6, Leading zero omitted, Abs format (unit mm)*
G04 Created by KiCad (PCBNEW (5.1.4)-1) date 2023-09-09 05:25:23*
%MOMM*%
%LPD*%
G04 APERTURE LIST*
%ADD10C,3.000000*%
%ADD11O,1.700000X1.700000*%
%ADD12R,1.700000X1.700000*%
%ADD13C,1.700000*%
%ADD14C,1.700000*%
%ADD15C,0.100000*%
%ADD16C,0.800000*%
%ADD17C,0.200000*%
G04 APERTURE END LIST*
D10*
X28612789Y-558542952D03*
X21312789Y-557192952D03*
X28612790Y-539492952D03*
X21312790Y-538142952D03*
X28612789Y-520442953D03*
X21312789Y-519092953D03*
X85762790Y-495380000D03*
X78462790Y-494030000D03*
X66712789Y-500380000D03*
X59412789Y-499030000D03*
X47662789Y-505380000D03*
X40362789Y-504030000D03*
X28612789Y-501380000D03*
X21312789Y-500030000D03*
X85762789Y-552542952D03*
X78462789Y-551192952D03*
X85762789Y-533492952D03*
X78462789Y-532142952D03*
X85762790Y-514442952D03*
X78462790Y-513092952D03*
X66712790Y-557542952D03*
X59412790Y-556192952D03*
X66712789Y-538492952D03*
X59412789Y-537142952D03*
X66712789Y-519442953D03*
X59412789Y-518092953D03*
X47662789Y-562542952D03*
X40362789Y-561192952D03*
X47662790Y-543492952D03*
X40362790Y-542142952D03*
X47662789Y-524442952D03*
X40362789Y-523092952D03*
D11*
X95046291Y-498195542D03*
X97586291Y-498195542D03*
X100126291Y-498195542D03*
D12*
X102666291Y-498195542D03*
D11*
X95906974Y-556400972D03*
X98446974Y-556400972D03*
X100986974Y-556400972D03*
D12*
X103526974Y-556400972D03*
D11*
X96064161Y-537315202D03*
X98604161Y-537315202D03*
X101144161Y-537315202D03*
D12*
X103684161Y-537315202D03*
D11*
X96046291Y-518195542D03*
X98586291Y-518195542D03*
X101126291Y-518195542D03*
D12*
X103666291Y-518195542D03*
D11*
X126470599Y-549604893D03*
X126470599Y-552144893D03*
X126470599Y-554684893D03*
D12*
X126470599Y-557224893D03*
D11*
X126406095Y-499478305D03*
X126406095Y-502018305D03*
X126406095Y-504558305D03*
D12*
X126406095Y-507098305D03*
D11*
X54062789Y-586192952D03*
X54062789Y-583652952D03*
X54062789Y-581112952D03*
D12*
X54062789Y-578572952D03*
D13*
X116223145Y-600465153D03*
D14*
X116223145Y-600465153D02*
X116223145Y-600465153D01*
D13*
X113769693Y-599807753D03*
D14*
X113769693Y-599807753D02*
X113769693Y-599807753D01*
D13*
X111316242Y-599150352D03*
D14*
X111316242Y-599150352D02*
X111316242Y-599150352D01*
D13*
X108862790Y-598492952D03*
D15*
G36*
X109463831Y-599533985D02*
G01*
X107821757Y-599093993D01*
X108261749Y-597451919D01*
X109903823Y-597891911D01*
X109463831Y-599533985D01*
X109463831Y-599533985D01*
G37*
D16*
X89200000Y-536600000D03*
X70200000Y-542000000D03*
X50400004Y-546900000D03*
X31430000Y-542480000D03*
X31200000Y-524000000D03*
X51200000Y-527700000D03*
X70200000Y-522700000D03*
X89300000Y-517700000D03*
X89300000Y-499000000D03*
X69900000Y-503400000D03*
X51000000Y-508600000D03*
X31600006Y-505400000D03*
X31300000Y-562100000D03*
X50300000Y-566800000D03*
X70000000Y-560800000D03*
X88900000Y-555100000D03*
D17*
X88520000Y-540620000D02*
X88520000Y-537280000D01*
X88520000Y-537280000D02*
X89200000Y-536600000D01*
X116223145Y-600465153D02*
X116223145Y-565123145D01*
X104440000Y-553340000D02*
X92280000Y-553340000D01*
X92280000Y-553340000D02*
X92279998Y-553330151D01*
X116223145Y-565123145D02*
X104440000Y-553340000D01*
X92279998Y-553330151D02*
X86450000Y-547500153D01*
X86450000Y-542690000D02*
X88520000Y-540620000D01*
X86450000Y-547500153D02*
X86450000Y-542690000D01*
X74358967Y-548018967D02*
X70200000Y-543860000D01*
X86506356Y-548018967D02*
X74358967Y-548018967D01*
X91952989Y-553465603D02*
X86506356Y-548018967D01*
X113630000Y-599947446D02*
X113630000Y-563017539D01*
X70200000Y-543860000D02*
X70200000Y-542000000D01*
X113350093Y-600227353D02*
X113630000Y-599947446D01*
X113630000Y-563017539D02*
X104279474Y-553667011D01*
X92144548Y-553667011D02*
X91952989Y-553475452D01*
X104279474Y-553667011D02*
X92144548Y-553667011D01*
X91952989Y-553475452D02*
X91952989Y-553465603D01*
X55280004Y-551780000D02*
X50800003Y-547299999D01*
X91625978Y-553601054D02*
X86370904Y-548345978D01*
X111316242Y-599150352D02*
X111316242Y-561166243D01*
X92009096Y-553994022D02*
X91625978Y-553610904D01*
X111316242Y-561166243D02*
X104144022Y-553994022D01*
X50800003Y-547299999D02*
X50400004Y-546900000D01*
X59295075Y-551780000D02*
X55280004Y-551780000D01*
X62729096Y-548345978D02*
X59295075Y-551780000D01*
X86370904Y-548345978D02*
X62729096Y-548345978D01*
X91625978Y-553610904D02*
X91625978Y-553601054D01*
X104144022Y-553994022D02*
X92009096Y-553994022D01*
X31430000Y-543045685D02*
X31430000Y-542480000D01*
X103971033Y-554321033D02*
X91873644Y-554321033D01*
X31430000Y-555530000D02*
X31430000Y-543045685D01*
X91873644Y-554321033D02*
X91298967Y-553746356D01*
X91298967Y-553746356D02*
X91298967Y-553736505D01*
X33480000Y-557580000D02*
X31430000Y-555530000D01*
X86235452Y-548672989D02*
X62864548Y-548672989D01*
X91298967Y-553736505D02*
X86235452Y-548672989D01*
X108862790Y-598492952D02*
X108862790Y-559212790D01*
X62864548Y-548672989D02*
X53957538Y-557580000D01*
X53957538Y-557580000D02*
X33480000Y-557580000D01*
X108862790Y-559212790D02*
X103971033Y-554321033D01*
X87430000Y-569980000D02*
X53619837Y-569980000D01*
X100986974Y-556400972D02*
X100986974Y-556423026D01*
X100986974Y-556423026D02*
X87430000Y-569980000D01*
X116557010Y-541034396D02*
X110683647Y-535161033D01*
X110683647Y-535161033D02*
X91761031Y-535161033D01*
X89263991Y-532663991D02*
X89163991Y-532663991D01*
X31200000Y-536750000D02*
X31200000Y-524565685D01*
X31200000Y-524565685D02*
X31200000Y-524000000D01*
X55300000Y-537900000D02*
X32350000Y-537900000D01*
X64300000Y-528900000D02*
X55300000Y-537900000D01*
X85400000Y-528900000D02*
X64300000Y-528900000D01*
X89163991Y-532663991D02*
X85400000Y-528900000D01*
X126470599Y-557224893D02*
X125420599Y-557224893D01*
X116557010Y-548361304D02*
X116557010Y-541034396D01*
X125420599Y-557224893D02*
X116557010Y-548361304D01*
X91761031Y-535161033D02*
X89263991Y-532663991D01*
X32350000Y-537900000D02*
X31200000Y-536750000D01*
X85635451Y-528572989D02*
X64164548Y-528572989D01*
X126470599Y-554684893D02*
X116930000Y-545144294D01*
X116930000Y-545144294D02*
X116930000Y-540944924D01*
X51200000Y-529460163D02*
X51200000Y-528265685D01*
X51200000Y-528265685D02*
X51200000Y-527700000D01*
X110819098Y-534834022D02*
X91896483Y-534834022D01*
X55619837Y-533880000D02*
X51200000Y-529460163D01*
X91896483Y-534834022D02*
X85635451Y-528572989D01*
X64164548Y-528572989D02*
X58857538Y-533880000D01*
X116930000Y-540944924D02*
X110819098Y-534834022D01*
X58857538Y-533880000D02*
X55619837Y-533880000D01*
X70200000Y-523265685D02*
X70200000Y-522700000D01*
X85770902Y-528245978D02*
X73625978Y-528245978D01*
X92031935Y-534507011D02*
X85770902Y-528245978D01*
X110954549Y-534507011D02*
X92031935Y-534507011D01*
X117257011Y-540809473D02*
X110954549Y-534507011D01*
X117257011Y-542931305D02*
X117257011Y-540809473D01*
X126470599Y-552144893D02*
X117257011Y-542931305D01*
X70200000Y-524820000D02*
X70200000Y-523265685D01*
X73625978Y-528245978D02*
X70200000Y-524820000D01*
X89300000Y-519460162D02*
X89300000Y-517900000D01*
X89300000Y-517900000D02*
X89300000Y-517700000D01*
X88020000Y-518980000D02*
X89300000Y-517700000D01*
X88020000Y-529980000D02*
X88020000Y-518980000D01*
X92160000Y-534120000D02*
X88020000Y-529980000D01*
X111030000Y-534120000D02*
X92160000Y-534120000D01*
X126470599Y-549604893D02*
X126470599Y-549560599D01*
X126470599Y-549560599D02*
X111030000Y-534120000D01*
X89300000Y-499500000D02*
X89300000Y-499000000D01*
X103666291Y-518195542D02*
X89300000Y-503829251D01*
X89300000Y-503829251D02*
X89300000Y-499500000D01*
X69900000Y-503965685D02*
X69900000Y-503400000D01*
X74098767Y-509245978D02*
X69900000Y-505047211D01*
X69900000Y-505047211D02*
X69900000Y-503965685D01*
X101126291Y-518195542D02*
X92176727Y-509245978D01*
X92176727Y-509245978D02*
X74098767Y-509245978D01*
X74064548Y-509572989D02*
X67884549Y-515752989D01*
X56702989Y-515752989D02*
X51000000Y-510050000D01*
X51000000Y-509165685D02*
X51000000Y-508600000D01*
X67884549Y-515752989D02*
X56702989Y-515752989D01*
X89963738Y-509572989D02*
X74064548Y-509572989D01*
X51000000Y-510050000D02*
X51000000Y-509165685D01*
X98586291Y-518195542D02*
X89963738Y-509572989D01*
X87750749Y-509900000D02*
X74200000Y-509900000D01*
X31600006Y-517750006D02*
X31600006Y-505965685D01*
X96046291Y-518195542D02*
X87750749Y-509900000D01*
X68020000Y-516080000D02*
X56630000Y-516080000D01*
X74200000Y-509900000D02*
X68020000Y-516080000D01*
X31600006Y-505965685D02*
X31600006Y-505400000D01*
X56630000Y-516080000D02*
X53230000Y-519480000D01*
X53230000Y-519480000D02*
X33330000Y-519480000D01*
X33330000Y-519480000D02*
X31600006Y-517750006D01*
X31300000Y-561534315D02*
X31300000Y-562100000D01*
X33470000Y-557930000D02*
X31300000Y-560100000D01*
X54070000Y-557930000D02*
X33470000Y-557930000D01*
X63000000Y-549000000D02*
X54070000Y-557930000D01*
X86100000Y-549000000D02*
X63000000Y-549000000D01*
X103526974Y-555350972D02*
X102856002Y-554680000D01*
X103526974Y-556400972D02*
X103526974Y-555350972D01*
X102856002Y-554680000D02*
X91770148Y-554680000D01*
X31300000Y-560100000D02*
X31300000Y-561534315D01*
X91770148Y-554680000D02*
X90971956Y-553881808D01*
X90971956Y-553881808D02*
X90971956Y-553871957D01*
X90971956Y-553871957D02*
X86100000Y-549000000D01*
X53619837Y-569980000D02*
X53480000Y-569980000D01*
X53480000Y-569980000D02*
X50300000Y-566800000D01*
X70000000Y-562700000D02*
X70000000Y-560800000D01*
X72380000Y-565080000D02*
X70000000Y-562700000D01*
X98446974Y-556400972D02*
X89767946Y-565080000D01*
X89767946Y-565080000D02*
X72380000Y-565080000D01*
X95906974Y-556400972D02*
X94606002Y-555100000D01*
X89465685Y-555100000D02*
X88900000Y-555100000D01*
X94606002Y-555100000D02*
X89465685Y-555100000D01*
M02*
