M48
; DRILL file {KiCad (5.1.4)-1} date 9/9/2023 5:25:20 AM
; FORMAT={-:-/ absolute / metric / decimal}
; #@! TF.CreationDate,2023-09-09T05:25:20-04:00
; #@! TF.GenerationSoftware,Kicad,Pcbnew,(5.1.4)-1
; #@! TF.FileFunction,NonPlated,1,2,NPTH
FMAT,2
METRIC
T1C1.750
T2C2.950
T3C3.000
T4C5.050
%
G90
G05
T1
X28.993Y-505.78
X37.883Y-547.893
X56.933Y-523.843
X67.093Y-523.843
X75.983Y-518.843
X86.143Y-518.843
X75.983Y-556.943
X86.143Y-556.943
X75.983Y-499.78
X86.143Y-499.78
X18.833Y-562.943
X28.993Y-562.943
X56.933Y-542.893
X67.093Y-542.893
X18.833Y-505.78
X18.833Y-543.893
X28.993Y-543.893
X18.833Y-524.843
X28.993Y-524.843
X48.043Y-547.893
X75.983Y-537.893
X86.143Y-537.893
X56.933Y-561.943
X67.093Y-561.943
X56.933Y-504.78
X67.093Y-504.78
X37.883Y-509.78
X48.043Y-509.78
X37.883Y-528.843
X48.043Y-528.843
X37.883Y-566.943
X48.043Y-566.943
T2
X21.313Y-557.193
X28.613Y-558.543
X59.413Y-537.143
X66.713Y-538.493
X21.313Y-500.03
X28.613Y-501.38
X21.313Y-538.143
X28.613Y-539.493
X21.313Y-519.093
X28.613Y-520.443
X40.363Y-542.143
X47.663Y-543.493
X78.463Y-532.143
X85.763Y-533.493
X59.413Y-556.193
X66.713Y-557.543
X59.413Y-499.03
X66.713Y-500.38
X40.363Y-504.03
X47.663Y-505.38
X40.363Y-523.093
X47.663Y-524.443
X40.363Y-561.193
X47.663Y-562.543
X59.413Y-518.093
X66.713Y-519.443
X78.463Y-513.093
X85.763Y-514.443
X78.463Y-551.193
X85.763Y-552.543
X78.463Y-494.03
X85.763Y-495.38
T3
X21.373Y-510.86
X27.723Y-508.32
X21.373Y-548.973
X27.723Y-546.433
X21.373Y-529.923
X27.723Y-527.383
X40.423Y-552.973
X46.773Y-550.433
X78.523Y-542.973
X84.873Y-540.433
X59.473Y-567.023
X65.823Y-564.483
X59.473Y-509.86
X65.823Y-507.32
X40.423Y-514.86
X46.773Y-512.32
X40.423Y-533.923
X46.773Y-531.383
X40.423Y-572.023
X46.773Y-569.483
X59.473Y-528.923
X65.823Y-526.383
X78.523Y-523.923
X84.873Y-521.383
X78.523Y-562.023
X84.873Y-559.483
X78.523Y-504.86
X84.873Y-502.32
X21.373Y-568.023
X27.723Y-565.483
X59.473Y-547.973
X65.823Y-545.433
T4
X23.913Y-524.843
X42.963Y-547.893
X81.063Y-537.893
X62.013Y-504.78
X81.063Y-518.843
X23.913Y-543.893
X62.013Y-561.943
X42.963Y-509.78
X42.963Y-528.843
X42.963Y-566.943
X62.013Y-523.843
X81.063Y-556.943
X81.063Y-499.78
X23.913Y-562.943
X62.013Y-542.893
X23.913Y-505.78
T0
M30
