G04 #@! TF.GenerationSoftware,KiCad,Pcbnew,(5.1.4)-1*
G04 #@! TF.CreationDate,2023-09-09T05:31:27-04:00*
G04 #@! TF.ProjectId,ThumbsUp,5468756d-6273-4557-902e-6b696361645f,rev?*
G04 #@! TF.SameCoordinates,Original*
G04 #@! TF.FileFunction,Soldermask,Top*
G04 #@! TF.FilePolarity,Negative*
%FSLAX46Y46*%
G04 Gerber Fmt 4.6, Leading zero omitted, Abs format (unit mm)*
G04 Created by KiCad (PCBNEW (5.1.4)-1) date 2023-09-09 05:31:27*
%MOMM*%
%LPD*%
G04 APERTURE LIST*
%ADD10C,0.100000*%
G04 APERTURE END LIST*
D10*
G36*
X191207132Y-357932045D02*
G01*
X189405132Y-357932045D01*
X189405132Y-356130045D01*
X191207132Y-356130045D01*
X191207132Y-357932045D01*
X191207132Y-357932045D01*
G37*
G36*
X182796574Y-356136563D02*
G01*
X182862759Y-356143082D01*
X183032598Y-356194602D01*
X183189123Y-356278267D01*
X183224861Y-356307597D01*
X183326318Y-356390859D01*
X183409580Y-356492316D01*
X183438910Y-356528054D01*
X183522575Y-356684579D01*
X183574095Y-356854418D01*
X183591491Y-357031045D01*
X183574095Y-357207672D01*
X183522575Y-357377511D01*
X183438910Y-357534036D01*
X183409580Y-357569774D01*
X183326318Y-357671231D01*
X183224861Y-357754493D01*
X183189123Y-357783823D01*
X183032598Y-357867488D01*
X182862759Y-357919008D01*
X182796574Y-357925527D01*
X182730392Y-357932045D01*
X182641872Y-357932045D01*
X182575690Y-357925527D01*
X182509505Y-357919008D01*
X182339666Y-357867488D01*
X182183141Y-357783823D01*
X182147403Y-357754493D01*
X182045946Y-357671231D01*
X181962684Y-357569774D01*
X181933354Y-357534036D01*
X181849689Y-357377511D01*
X181798169Y-357207672D01*
X181780773Y-357031045D01*
X181798169Y-356854418D01*
X181849689Y-356684579D01*
X181933354Y-356528054D01*
X181962684Y-356492316D01*
X182045946Y-356390859D01*
X182147403Y-356307597D01*
X182183141Y-356278267D01*
X182339666Y-356194602D01*
X182509505Y-356143082D01*
X182575690Y-356136563D01*
X182641872Y-356130045D01*
X182730392Y-356130045D01*
X182796574Y-356136563D01*
X182796574Y-356136563D01*
G37*
G36*
X185336574Y-356136563D02*
G01*
X185402759Y-356143082D01*
X185572598Y-356194602D01*
X185729123Y-356278267D01*
X185764861Y-356307597D01*
X185866318Y-356390859D01*
X185949580Y-356492316D01*
X185978910Y-356528054D01*
X186062575Y-356684579D01*
X186114095Y-356854418D01*
X186131491Y-357031045D01*
X186114095Y-357207672D01*
X186062575Y-357377511D01*
X185978910Y-357534036D01*
X185949580Y-357569774D01*
X185866318Y-357671231D01*
X185764861Y-357754493D01*
X185729123Y-357783823D01*
X185572598Y-357867488D01*
X185402759Y-357919008D01*
X185336574Y-357925527D01*
X185270392Y-357932045D01*
X185181872Y-357932045D01*
X185115690Y-357925527D01*
X185049505Y-357919008D01*
X184879666Y-357867488D01*
X184723141Y-357783823D01*
X184687403Y-357754493D01*
X184585946Y-357671231D01*
X184502684Y-357569774D01*
X184473354Y-357534036D01*
X184389689Y-357377511D01*
X184338169Y-357207672D01*
X184320773Y-357031045D01*
X184338169Y-356854418D01*
X184389689Y-356684579D01*
X184473354Y-356528054D01*
X184502684Y-356492316D01*
X184585946Y-356390859D01*
X184687403Y-356307597D01*
X184723141Y-356278267D01*
X184879666Y-356194602D01*
X185049505Y-356143082D01*
X185115690Y-356136563D01*
X185181872Y-356130045D01*
X185270392Y-356130045D01*
X185336574Y-356136563D01*
X185336574Y-356136563D01*
G37*
G36*
X187876574Y-356136563D02*
G01*
X187942759Y-356143082D01*
X188112598Y-356194602D01*
X188269123Y-356278267D01*
X188304861Y-356307597D01*
X188406318Y-356390859D01*
X188489580Y-356492316D01*
X188518910Y-356528054D01*
X188602575Y-356684579D01*
X188654095Y-356854418D01*
X188671491Y-357031045D01*
X188654095Y-357207672D01*
X188602575Y-357377511D01*
X188518910Y-357534036D01*
X188489580Y-357569774D01*
X188406318Y-357671231D01*
X188304861Y-357754493D01*
X188269123Y-357783823D01*
X188112598Y-357867488D01*
X187942759Y-357919008D01*
X187876574Y-357925527D01*
X187810392Y-357932045D01*
X187721872Y-357932045D01*
X187655690Y-357925527D01*
X187589505Y-357919008D01*
X187419666Y-357867488D01*
X187263141Y-357783823D01*
X187227403Y-357754493D01*
X187125946Y-357671231D01*
X187042684Y-357569774D01*
X187013354Y-357534036D01*
X186929689Y-357377511D01*
X186878169Y-357207672D01*
X186860773Y-357031045D01*
X186878169Y-356854418D01*
X186929689Y-356684579D01*
X187013354Y-356528054D01*
X187042684Y-356492316D01*
X187125946Y-356390859D01*
X187227403Y-356307597D01*
X187263141Y-356278267D01*
X187419666Y-356194602D01*
X187589505Y-356143082D01*
X187655690Y-356136563D01*
X187721872Y-356130045D01*
X187810392Y-356130045D01*
X187876574Y-356136563D01*
X187876574Y-356136563D01*
G37*
G36*
X195387430Y-356069092D02*
G01*
X195453614Y-356075610D01*
X195623453Y-356127130D01*
X195779978Y-356210795D01*
X195815716Y-356240125D01*
X195917173Y-356323387D01*
X196000435Y-356424844D01*
X196029765Y-356460582D01*
X196113430Y-356617107D01*
X196164950Y-356786946D01*
X196182346Y-356963573D01*
X196164950Y-357140200D01*
X196113430Y-357310039D01*
X196029765Y-357466564D01*
X196000435Y-357502302D01*
X195917173Y-357603759D01*
X195815716Y-357687021D01*
X195779978Y-357716351D01*
X195623453Y-357800016D01*
X195453614Y-357851536D01*
X195387430Y-357858054D01*
X195321247Y-357864573D01*
X195232727Y-357864573D01*
X195166544Y-357858054D01*
X195100360Y-357851536D01*
X194930521Y-357800016D01*
X194773996Y-357716351D01*
X194738258Y-357687021D01*
X194636801Y-357603759D01*
X194553539Y-357502302D01*
X194524209Y-357466564D01*
X194440544Y-357310039D01*
X194389024Y-357140200D01*
X194371628Y-356963573D01*
X194389024Y-356786946D01*
X194440544Y-356617107D01*
X194524209Y-356460582D01*
X194553539Y-356424844D01*
X194636801Y-356323387D01*
X194738258Y-356240125D01*
X194773996Y-356210795D01*
X194930521Y-356127130D01*
X195100360Y-356075610D01*
X195166544Y-356069092D01*
X195232727Y-356062573D01*
X195321247Y-356062573D01*
X195387430Y-356069092D01*
X195387430Y-356069092D01*
G37*
G36*
X195387429Y-353529091D02*
G01*
X195453614Y-353535610D01*
X195623453Y-353587130D01*
X195779978Y-353670795D01*
X195815716Y-353700125D01*
X195917173Y-353783387D01*
X196000435Y-353884844D01*
X196029765Y-353920582D01*
X196113430Y-354077107D01*
X196164950Y-354246946D01*
X196182346Y-354423573D01*
X196164950Y-354600200D01*
X196113430Y-354770039D01*
X196029765Y-354926564D01*
X196000435Y-354962302D01*
X195917173Y-355063759D01*
X195815716Y-355147021D01*
X195779978Y-355176351D01*
X195623453Y-355260016D01*
X195453614Y-355311536D01*
X195387429Y-355318055D01*
X195321247Y-355324573D01*
X195232727Y-355324573D01*
X195166545Y-355318055D01*
X195100360Y-355311536D01*
X194930521Y-355260016D01*
X194773996Y-355176351D01*
X194738258Y-355147021D01*
X194636801Y-355063759D01*
X194553539Y-354962302D01*
X194524209Y-354926564D01*
X194440544Y-354770039D01*
X194389024Y-354600200D01*
X194371628Y-354423573D01*
X194389024Y-354246946D01*
X194440544Y-354077107D01*
X194524209Y-353920582D01*
X194553539Y-353884844D01*
X194636801Y-353783387D01*
X194738258Y-353700125D01*
X194773996Y-353670795D01*
X194930521Y-353587130D01*
X195100360Y-353535610D01*
X195166545Y-353529091D01*
X195232727Y-353522573D01*
X195321247Y-353522573D01*
X195387429Y-353529091D01*
X195387429Y-353529091D01*
G37*
G36*
X189274926Y-351579287D02*
G01*
X189431955Y-351610522D01*
X189714219Y-351727439D01*
X189968250Y-351897177D01*
X190184286Y-352113213D01*
X190354024Y-352367244D01*
X190468104Y-352642659D01*
X190470941Y-352649509D01*
X190530545Y-352949157D01*
X190530545Y-353254679D01*
X190500743Y-353404503D01*
X190470941Y-353554328D01*
X190354024Y-353836592D01*
X190184286Y-354090623D01*
X189968250Y-354306659D01*
X189714219Y-354476397D01*
X189431955Y-354593314D01*
X189282130Y-354623116D01*
X189132306Y-354652918D01*
X188826784Y-354652918D01*
X188676960Y-354623116D01*
X188527135Y-354593314D01*
X188244871Y-354476397D01*
X187990840Y-354306659D01*
X187774804Y-354090623D01*
X187605066Y-353836592D01*
X187488149Y-353554328D01*
X187458347Y-353404503D01*
X187428545Y-353254679D01*
X187428545Y-352949157D01*
X187488149Y-352649509D01*
X187490986Y-352642659D01*
X187605066Y-352367244D01*
X187774804Y-352113213D01*
X187990840Y-351897177D01*
X188244871Y-351727439D01*
X188527135Y-351610522D01*
X188684164Y-351579287D01*
X188826784Y-351550918D01*
X189132306Y-351550918D01*
X189274926Y-351579287D01*
X189274926Y-351579287D01*
G37*
G36*
X170195381Y-351579287D02*
G01*
X170352410Y-351610522D01*
X170634674Y-351727439D01*
X170888705Y-351897177D01*
X171104741Y-352113213D01*
X171274479Y-352367244D01*
X171388559Y-352642659D01*
X171391396Y-352649509D01*
X171451000Y-352949157D01*
X171451000Y-353254679D01*
X171421198Y-353404503D01*
X171391396Y-353554328D01*
X171274479Y-353836592D01*
X171104741Y-354090623D01*
X170888705Y-354306659D01*
X170634674Y-354476397D01*
X170352410Y-354593314D01*
X170202585Y-354623116D01*
X170052761Y-354652918D01*
X169747239Y-354652918D01*
X169597415Y-354623116D01*
X169447590Y-354593314D01*
X169165326Y-354476397D01*
X168911295Y-354306659D01*
X168695259Y-354090623D01*
X168525521Y-353836592D01*
X168408604Y-353554328D01*
X168378802Y-353404503D01*
X168349000Y-353254679D01*
X168349000Y-352949157D01*
X168408604Y-352649509D01*
X168411441Y-352642659D01*
X168525521Y-352367244D01*
X168695259Y-352113213D01*
X168911295Y-351897177D01*
X169165326Y-351727439D01*
X169447590Y-351610522D01*
X169604619Y-351579287D01*
X169747239Y-351550918D01*
X170052761Y-351550918D01*
X170195381Y-351579287D01*
X170195381Y-351579287D01*
G37*
G36*
X156664932Y-352584621D02*
G01*
X156731116Y-352591139D01*
X156900955Y-352642659D01*
X156900957Y-352642660D01*
X156913770Y-352649509D01*
X157057480Y-352726324D01*
X157074902Y-352740622D01*
X157194675Y-352838916D01*
X157277937Y-352940373D01*
X157307267Y-352976111D01*
X157390932Y-353132636D01*
X157442452Y-353302475D01*
X157459848Y-353479102D01*
X157442452Y-353655729D01*
X157390932Y-353825568D01*
X157307267Y-353982093D01*
X157277937Y-354017831D01*
X157194675Y-354119288D01*
X157093218Y-354202550D01*
X157057480Y-354231880D01*
X157057478Y-354231881D01*
X156917580Y-354306659D01*
X156900955Y-354315545D01*
X156731116Y-354367065D01*
X156664931Y-354373584D01*
X156598749Y-354380102D01*
X156510229Y-354380102D01*
X156444047Y-354373584D01*
X156377862Y-354367065D01*
X156208023Y-354315545D01*
X156191399Y-354306659D01*
X156051500Y-354231881D01*
X156051498Y-354231880D01*
X156015760Y-354202550D01*
X155914303Y-354119288D01*
X155831041Y-354017831D01*
X155801711Y-353982093D01*
X155718046Y-353825568D01*
X155666526Y-353655729D01*
X155649130Y-353479102D01*
X155666526Y-353302475D01*
X155718046Y-353132636D01*
X155801711Y-352976111D01*
X155831041Y-352940373D01*
X155914303Y-352838916D01*
X156034076Y-352740622D01*
X156051498Y-352726324D01*
X156195208Y-352649509D01*
X156208021Y-352642660D01*
X156208023Y-352642659D01*
X156377862Y-352591139D01*
X156444046Y-352584621D01*
X156510229Y-352578102D01*
X156598749Y-352578102D01*
X156664932Y-352584621D01*
X156664932Y-352584621D01*
G37*
G36*
X181982130Y-350230720D02*
G01*
X182131955Y-350260522D01*
X182414219Y-350377439D01*
X182668250Y-350547177D01*
X182884286Y-350763213D01*
X183054024Y-351017244D01*
X183170941Y-351299508D01*
X183170941Y-351299509D01*
X183226593Y-351579287D01*
X183230545Y-351599158D01*
X183230545Y-351904678D01*
X183170941Y-352204328D01*
X183054024Y-352486592D01*
X182884286Y-352740623D01*
X182668250Y-352956659D01*
X182414219Y-353126397D01*
X182131955Y-353243314D01*
X182074824Y-353254678D01*
X181832306Y-353302918D01*
X181526784Y-353302918D01*
X181284266Y-353254678D01*
X181227135Y-353243314D01*
X180944871Y-353126397D01*
X180690840Y-352956659D01*
X180474804Y-352740623D01*
X180305066Y-352486592D01*
X180188149Y-352204328D01*
X180128545Y-351904678D01*
X180128545Y-351599158D01*
X180132498Y-351579287D01*
X180188149Y-351299509D01*
X180188149Y-351299508D01*
X180305066Y-351017244D01*
X180474804Y-350763213D01*
X180690840Y-350547177D01*
X180944871Y-350377439D01*
X181227135Y-350260522D01*
X181376960Y-350230720D01*
X181526784Y-350200918D01*
X181832306Y-350200918D01*
X181982130Y-350230720D01*
X181982130Y-350230720D01*
G37*
G36*
X162902585Y-350230720D02*
G01*
X163052410Y-350260522D01*
X163334674Y-350377439D01*
X163588705Y-350547177D01*
X163804741Y-350763213D01*
X163974479Y-351017244D01*
X164091396Y-351299508D01*
X164091396Y-351299509D01*
X164147048Y-351579287D01*
X164151000Y-351599158D01*
X164151000Y-351904678D01*
X164091396Y-352204328D01*
X163974479Y-352486592D01*
X163804741Y-352740623D01*
X163588705Y-352956659D01*
X163334674Y-353126397D01*
X163052410Y-353243314D01*
X162995279Y-353254678D01*
X162752761Y-353302918D01*
X162447239Y-353302918D01*
X162204721Y-353254678D01*
X162147590Y-353243314D01*
X161865326Y-353126397D01*
X161611295Y-352956659D01*
X161395259Y-352740623D01*
X161225521Y-352486592D01*
X161108604Y-352204328D01*
X161049000Y-351904678D01*
X161049000Y-351599158D01*
X161052953Y-351579287D01*
X161108604Y-351299509D01*
X161108604Y-351299508D01*
X161225521Y-351017244D01*
X161395259Y-350763213D01*
X161611295Y-350547177D01*
X161865326Y-350377439D01*
X162147590Y-350260522D01*
X162297415Y-350230720D01*
X162447239Y-350200918D01*
X162752761Y-350200918D01*
X162902585Y-350230720D01*
X162902585Y-350230720D01*
G37*
G36*
X195387430Y-350989092D02*
G01*
X195453614Y-350995610D01*
X195623453Y-351047130D01*
X195779978Y-351130795D01*
X195815716Y-351160125D01*
X195917173Y-351243387D01*
X195963230Y-351299509D01*
X196029765Y-351380582D01*
X196113430Y-351537107D01*
X196164950Y-351706946D01*
X196182346Y-351883573D01*
X196164950Y-352060200D01*
X196113430Y-352230039D01*
X196029765Y-352386564D01*
X196000435Y-352422302D01*
X195917173Y-352523759D01*
X195835069Y-352591139D01*
X195779978Y-352636351D01*
X195623453Y-352720016D01*
X195453614Y-352771536D01*
X195387429Y-352778055D01*
X195321247Y-352784573D01*
X195232727Y-352784573D01*
X195166545Y-352778055D01*
X195100360Y-352771536D01*
X194930521Y-352720016D01*
X194773996Y-352636351D01*
X194718905Y-352591139D01*
X194636801Y-352523759D01*
X194553539Y-352422302D01*
X194524209Y-352386564D01*
X194440544Y-352230039D01*
X194389024Y-352060200D01*
X194371628Y-351883573D01*
X194389024Y-351706946D01*
X194440544Y-351537107D01*
X194524209Y-351380582D01*
X194590744Y-351299509D01*
X194636801Y-351243387D01*
X194738258Y-351160125D01*
X194773996Y-351130795D01*
X194930521Y-351047130D01*
X195100360Y-350995610D01*
X195166544Y-350989092D01*
X195232727Y-350982573D01*
X195321247Y-350982573D01*
X195387430Y-350989092D01*
X195387430Y-350989092D01*
G37*
G36*
X156664932Y-350044621D02*
G01*
X156731116Y-350051139D01*
X156900955Y-350102659D01*
X157057480Y-350186324D01*
X157093218Y-350215654D01*
X157194675Y-350298916D01*
X157259116Y-350377439D01*
X157307267Y-350436111D01*
X157307268Y-350436113D01*
X157366634Y-350547177D01*
X157390932Y-350592636D01*
X157442452Y-350762475D01*
X157459848Y-350939102D01*
X157442452Y-351115729D01*
X157390932Y-351285568D01*
X157307267Y-351442093D01*
X157277937Y-351477831D01*
X157194675Y-351579288D01*
X157093218Y-351662550D01*
X157057480Y-351691880D01*
X156900955Y-351775545D01*
X156731116Y-351827065D01*
X156664931Y-351833584D01*
X156598749Y-351840102D01*
X156510229Y-351840102D01*
X156444047Y-351833584D01*
X156377862Y-351827065D01*
X156208023Y-351775545D01*
X156051498Y-351691880D01*
X156015760Y-351662550D01*
X155914303Y-351579288D01*
X155831041Y-351477831D01*
X155801711Y-351442093D01*
X155718046Y-351285568D01*
X155666526Y-351115729D01*
X155649130Y-350939102D01*
X155666526Y-350762475D01*
X155718046Y-350592636D01*
X155742345Y-350547177D01*
X155801710Y-350436113D01*
X155801711Y-350436111D01*
X155849862Y-350377439D01*
X155914303Y-350298916D01*
X156015760Y-350215654D01*
X156051498Y-350186324D01*
X156208023Y-350102659D01*
X156377862Y-350051139D01*
X156444046Y-350044621D01*
X156510229Y-350038102D01*
X156598749Y-350038102D01*
X156664932Y-350044621D01*
X156664932Y-350044621D01*
G37*
G36*
X196177987Y-350244573D02*
G01*
X194375987Y-350244573D01*
X194375987Y-348442573D01*
X196177987Y-348442573D01*
X196177987Y-350244573D01*
X196177987Y-350244573D01*
G37*
G36*
X168051391Y-344874912D02*
G01*
X168245575Y-344955346D01*
X168520192Y-345069096D01*
X168942104Y-345351008D01*
X169300910Y-345709814D01*
X169582822Y-346131726D01*
X169605467Y-346186397D01*
X169777006Y-346600527D01*
X169876000Y-347098204D01*
X169876000Y-347605632D01*
X169777006Y-348103309D01*
X169719420Y-348242333D01*
X169582822Y-348572110D01*
X169300910Y-348994022D01*
X168942104Y-349352828D01*
X168520192Y-349634740D01*
X168245575Y-349748490D01*
X168051391Y-349828924D01*
X167553715Y-349927918D01*
X167046285Y-349927918D01*
X166548609Y-349828924D01*
X166354425Y-349748490D01*
X166079808Y-349634740D01*
X165657896Y-349352828D01*
X165299090Y-348994022D01*
X165017178Y-348572110D01*
X164880580Y-348242333D01*
X164822994Y-348103309D01*
X164724000Y-347605632D01*
X164724000Y-347098204D01*
X164822994Y-346600527D01*
X164994533Y-346186397D01*
X165017178Y-346131726D01*
X165299090Y-345709814D01*
X165657896Y-345351008D01*
X166079808Y-345069096D01*
X166354425Y-344955346D01*
X166548609Y-344874912D01*
X167046285Y-344775918D01*
X167553715Y-344775918D01*
X168051391Y-344874912D01*
X168051391Y-344874912D01*
G37*
G36*
X187130936Y-344874912D02*
G01*
X187325120Y-344955346D01*
X187599737Y-345069096D01*
X188021649Y-345351008D01*
X188380455Y-345709814D01*
X188662367Y-346131726D01*
X188685012Y-346186397D01*
X188856551Y-346600527D01*
X188955545Y-347098204D01*
X188955545Y-347605632D01*
X188856551Y-348103309D01*
X188798965Y-348242333D01*
X188662367Y-348572110D01*
X188380455Y-348994022D01*
X188021649Y-349352828D01*
X187599737Y-349634740D01*
X187325120Y-349748490D01*
X187130936Y-349828924D01*
X186633260Y-349927918D01*
X186125830Y-349927918D01*
X185628154Y-349828924D01*
X185433970Y-349748490D01*
X185159353Y-349634740D01*
X184737441Y-349352828D01*
X184378635Y-348994022D01*
X184096723Y-348572110D01*
X183960125Y-348242333D01*
X183902539Y-348103309D01*
X183803545Y-347605632D01*
X183803545Y-347098204D01*
X183902539Y-346600527D01*
X184074078Y-346186397D01*
X184096723Y-346131726D01*
X184378635Y-345709814D01*
X184737441Y-345351008D01*
X185159353Y-345069096D01*
X185433970Y-344955346D01*
X185628154Y-344874912D01*
X186125830Y-344775918D01*
X186633260Y-344775918D01*
X187130936Y-344874912D01*
X187130936Y-344874912D01*
G37*
G36*
X156664932Y-347504621D02*
G01*
X156731116Y-347511139D01*
X156900955Y-347562659D01*
X157057480Y-347646324D01*
X157093218Y-347675654D01*
X157194675Y-347758916D01*
X157277937Y-347860373D01*
X157307267Y-347896111D01*
X157390932Y-348052636D01*
X157442452Y-348222475D01*
X157459848Y-348399102D01*
X157442452Y-348575729D01*
X157390932Y-348745568D01*
X157307267Y-348902093D01*
X157277937Y-348937831D01*
X157194675Y-349039288D01*
X157093218Y-349122550D01*
X157057480Y-349151880D01*
X156900955Y-349235545D01*
X156731116Y-349287065D01*
X156664932Y-349293583D01*
X156598749Y-349300102D01*
X156510229Y-349300102D01*
X156444046Y-349293583D01*
X156377862Y-349287065D01*
X156208023Y-349235545D01*
X156051498Y-349151880D01*
X156015760Y-349122550D01*
X155914303Y-349039288D01*
X155831041Y-348937831D01*
X155801711Y-348902093D01*
X155718046Y-348745568D01*
X155666526Y-348575729D01*
X155649130Y-348399102D01*
X155666526Y-348222475D01*
X155718046Y-348052636D01*
X155801711Y-347896111D01*
X155831041Y-347860373D01*
X155914303Y-347758916D01*
X156015760Y-347675654D01*
X156051498Y-347646324D01*
X156208023Y-347562659D01*
X156377862Y-347511139D01*
X156444046Y-347504621D01*
X156510229Y-347498102D01*
X156598749Y-347498102D01*
X156664932Y-347504621D01*
X156664932Y-347504621D01*
G37*
G36*
X181569649Y-346461503D02*
G01*
X181738171Y-346531307D01*
X181889836Y-346632646D01*
X182018817Y-346761627D01*
X182120156Y-346913292D01*
X182189960Y-347081814D01*
X182225545Y-347260715D01*
X182225545Y-347443121D01*
X182189960Y-347622022D01*
X182120156Y-347790544D01*
X182018817Y-347942209D01*
X181889836Y-348071190D01*
X181738171Y-348172529D01*
X181569649Y-348242333D01*
X181390748Y-348277918D01*
X181208342Y-348277918D01*
X181029441Y-348242333D01*
X180860919Y-348172529D01*
X180709254Y-348071190D01*
X180580273Y-347942209D01*
X180478934Y-347790544D01*
X180409130Y-347622022D01*
X180373545Y-347443121D01*
X180373545Y-347260715D01*
X180409130Y-347081814D01*
X180478934Y-346913292D01*
X180580273Y-346761627D01*
X180709254Y-346632646D01*
X180860919Y-346531307D01*
X181029441Y-346461503D01*
X181208342Y-346425918D01*
X181390748Y-346425918D01*
X181569649Y-346461503D01*
X181569649Y-346461503D01*
G37*
G36*
X162490104Y-346461503D02*
G01*
X162658626Y-346531307D01*
X162810291Y-346632646D01*
X162939272Y-346761627D01*
X163040611Y-346913292D01*
X163110415Y-347081814D01*
X163146000Y-347260715D01*
X163146000Y-347443121D01*
X163110415Y-347622022D01*
X163040611Y-347790544D01*
X162939272Y-347942209D01*
X162810291Y-348071190D01*
X162658626Y-348172529D01*
X162490104Y-348242333D01*
X162311203Y-348277918D01*
X162128797Y-348277918D01*
X161949896Y-348242333D01*
X161781374Y-348172529D01*
X161629709Y-348071190D01*
X161500728Y-347942209D01*
X161399389Y-347790544D01*
X161329585Y-347622022D01*
X161294000Y-347443121D01*
X161294000Y-347260715D01*
X161329585Y-347081814D01*
X161399389Y-346913292D01*
X161500728Y-346761627D01*
X161629709Y-346632646D01*
X161781374Y-346531307D01*
X161949896Y-346461503D01*
X162128797Y-346425918D01*
X162311203Y-346425918D01*
X162490104Y-346461503D01*
X162490104Y-346461503D01*
G37*
G36*
X191729649Y-346461503D02*
G01*
X191898171Y-346531307D01*
X192049836Y-346632646D01*
X192178817Y-346761627D01*
X192280156Y-346913292D01*
X192349960Y-347081814D01*
X192385545Y-347260715D01*
X192385545Y-347443121D01*
X192349960Y-347622022D01*
X192280156Y-347790544D01*
X192178817Y-347942209D01*
X192049836Y-348071190D01*
X191898171Y-348172529D01*
X191729649Y-348242333D01*
X191550748Y-348277918D01*
X191368342Y-348277918D01*
X191189441Y-348242333D01*
X191020919Y-348172529D01*
X190869254Y-348071190D01*
X190740273Y-347942209D01*
X190638934Y-347790544D01*
X190569130Y-347622022D01*
X190533545Y-347443121D01*
X190533545Y-347260715D01*
X190569130Y-347081814D01*
X190638934Y-346913292D01*
X190740273Y-346761627D01*
X190869254Y-346632646D01*
X191020919Y-346531307D01*
X191189441Y-346461503D01*
X191368342Y-346425918D01*
X191550748Y-346425918D01*
X191729649Y-346461503D01*
X191729649Y-346461503D01*
G37*
G36*
X172650104Y-346461503D02*
G01*
X172818626Y-346531307D01*
X172970291Y-346632646D01*
X173099272Y-346761627D01*
X173200611Y-346913292D01*
X173270415Y-347081814D01*
X173306000Y-347260715D01*
X173306000Y-347443121D01*
X173270415Y-347622022D01*
X173200611Y-347790544D01*
X173099272Y-347942209D01*
X172970291Y-348071190D01*
X172818626Y-348172529D01*
X172650104Y-348242333D01*
X172471203Y-348277918D01*
X172288797Y-348277918D01*
X172109896Y-348242333D01*
X171941374Y-348172529D01*
X171789709Y-348071190D01*
X171660728Y-347942209D01*
X171559389Y-347790544D01*
X171489585Y-347622022D01*
X171454000Y-347443121D01*
X171454000Y-347260715D01*
X171489585Y-347081814D01*
X171559389Y-346913292D01*
X171660728Y-346761627D01*
X171789709Y-346632646D01*
X171941374Y-346531307D01*
X172109896Y-346461503D01*
X172288797Y-346425918D01*
X172471203Y-346425918D01*
X172650104Y-346461503D01*
X172650104Y-346461503D01*
G37*
G36*
X157455489Y-346760102D02*
G01*
X155653489Y-346760102D01*
X155653489Y-344958102D01*
X157455489Y-344958102D01*
X157455489Y-346760102D01*
X157455489Y-346760102D01*
G37*
G36*
X163792585Y-343290720D02*
G01*
X163942410Y-343320522D01*
X164224674Y-343437439D01*
X164478705Y-343607177D01*
X164694741Y-343823213D01*
X164864479Y-344077244D01*
X164981396Y-344359508D01*
X165041000Y-344659158D01*
X165041000Y-344964678D01*
X164981396Y-345264328D01*
X164864479Y-345546592D01*
X164694741Y-345800623D01*
X164478705Y-346016659D01*
X164224674Y-346186397D01*
X163942410Y-346303314D01*
X163792585Y-346333116D01*
X163642761Y-346362918D01*
X163337239Y-346362918D01*
X163187415Y-346333116D01*
X163037590Y-346303314D01*
X162755326Y-346186397D01*
X162501295Y-346016659D01*
X162285259Y-345800623D01*
X162115521Y-345546592D01*
X161998604Y-345264328D01*
X161939000Y-344964678D01*
X161939000Y-344659158D01*
X161998604Y-344359508D01*
X162115521Y-344077244D01*
X162285259Y-343823213D01*
X162501295Y-343607177D01*
X162755326Y-343437439D01*
X163037590Y-343320522D01*
X163187415Y-343290720D01*
X163337239Y-343260918D01*
X163642761Y-343260918D01*
X163792585Y-343290720D01*
X163792585Y-343290720D01*
G37*
G36*
X182872130Y-343290720D02*
G01*
X183021955Y-343320522D01*
X183304219Y-343437439D01*
X183558250Y-343607177D01*
X183774286Y-343823213D01*
X183944024Y-344077244D01*
X184060941Y-344359508D01*
X184120545Y-344659158D01*
X184120545Y-344964678D01*
X184060941Y-345264328D01*
X183944024Y-345546592D01*
X183774286Y-345800623D01*
X183558250Y-346016659D01*
X183304219Y-346186397D01*
X183021955Y-346303314D01*
X182872130Y-346333116D01*
X182722306Y-346362918D01*
X182416784Y-346362918D01*
X182266960Y-346333116D01*
X182117135Y-346303314D01*
X181834871Y-346186397D01*
X181580840Y-346016659D01*
X181364804Y-345800623D01*
X181195066Y-345546592D01*
X181078149Y-345264328D01*
X181018545Y-344964678D01*
X181018545Y-344659158D01*
X181078149Y-344359508D01*
X181195066Y-344077244D01*
X181364804Y-343823213D01*
X181580840Y-343607177D01*
X181834871Y-343437439D01*
X182117135Y-343320522D01*
X182266960Y-343290720D01*
X182416784Y-343260918D01*
X182722306Y-343260918D01*
X182872130Y-343290720D01*
X182872130Y-343290720D01*
G37*
G36*
X170142585Y-340750720D02*
G01*
X170292410Y-340780522D01*
X170574674Y-340897439D01*
X170828705Y-341067177D01*
X171044741Y-341283213D01*
X171214479Y-341537244D01*
X171331396Y-341819508D01*
X171391000Y-342119158D01*
X171391000Y-342424678D01*
X171331396Y-342724328D01*
X171214479Y-343006592D01*
X171044741Y-343260623D01*
X170828705Y-343476659D01*
X170574674Y-343646397D01*
X170292410Y-343763314D01*
X170142585Y-343793116D01*
X169992761Y-343822918D01*
X169687239Y-343822918D01*
X169537415Y-343793116D01*
X169387590Y-343763314D01*
X169105326Y-343646397D01*
X168851295Y-343476659D01*
X168635259Y-343260623D01*
X168465521Y-343006592D01*
X168348604Y-342724328D01*
X168289000Y-342424678D01*
X168289000Y-342119158D01*
X168348604Y-341819508D01*
X168465521Y-341537244D01*
X168635259Y-341283213D01*
X168851295Y-341067177D01*
X169105326Y-340897439D01*
X169387590Y-340780522D01*
X169537415Y-340750720D01*
X169687239Y-340720918D01*
X169992761Y-340720918D01*
X170142585Y-340750720D01*
X170142585Y-340750720D01*
G37*
G36*
X189222130Y-340750720D02*
G01*
X189371955Y-340780522D01*
X189654219Y-340897439D01*
X189908250Y-341067177D01*
X190124286Y-341283213D01*
X190294024Y-341537244D01*
X190410941Y-341819508D01*
X190470545Y-342119158D01*
X190470545Y-342424678D01*
X190410941Y-342724328D01*
X190294024Y-343006592D01*
X190124286Y-343260623D01*
X189908250Y-343476659D01*
X189654219Y-343646397D01*
X189371955Y-343763314D01*
X189222130Y-343793116D01*
X189072306Y-343822918D01*
X188766784Y-343822918D01*
X188616960Y-343793116D01*
X188467135Y-343763314D01*
X188184871Y-343646397D01*
X187930840Y-343476659D01*
X187714804Y-343260623D01*
X187545066Y-343006592D01*
X187428149Y-342724328D01*
X187368545Y-342424678D01*
X187368545Y-342119158D01*
X187428149Y-341819508D01*
X187545066Y-341537244D01*
X187714804Y-341283213D01*
X187930840Y-341067177D01*
X188184871Y-340897439D01*
X188467135Y-340780522D01*
X188616960Y-340750720D01*
X188766784Y-340720918D01*
X189072306Y-340720918D01*
X189222130Y-340750720D01*
X189222130Y-340750720D01*
G37*
G36*
X170195102Y-334740029D02*
G01*
X169728710Y-336480627D01*
X167988112Y-336014235D01*
X168454504Y-334273637D01*
X170195102Y-334740029D01*
X170195102Y-334740029D01*
G37*
G36*
X166748598Y-333825251D02*
G01*
X166814782Y-333831769D01*
X166984621Y-333883289D01*
X167141146Y-333966954D01*
X167176884Y-333996284D01*
X167278341Y-334079546D01*
X167361603Y-334181003D01*
X167390933Y-334216741D01*
X167474598Y-334373266D01*
X167526118Y-334543105D01*
X167543514Y-334719732D01*
X167526118Y-334896359D01*
X167474598Y-335066198D01*
X167390933Y-335222723D01*
X167361603Y-335258461D01*
X167278341Y-335359918D01*
X167176884Y-335443180D01*
X167141146Y-335472510D01*
X166984621Y-335556175D01*
X166814782Y-335607695D01*
X166748598Y-335614213D01*
X166682415Y-335620732D01*
X166593895Y-335620732D01*
X166527712Y-335614213D01*
X166461528Y-335607695D01*
X166291689Y-335556175D01*
X166135164Y-335472510D01*
X166099426Y-335443180D01*
X165997969Y-335359918D01*
X165914707Y-335258461D01*
X165885377Y-335222723D01*
X165801712Y-335066198D01*
X165750192Y-334896359D01*
X165732796Y-334719732D01*
X165750192Y-334543105D01*
X165801712Y-334373266D01*
X165885377Y-334216741D01*
X165914707Y-334181003D01*
X165997969Y-334079546D01*
X166099426Y-333996284D01*
X166135164Y-333966954D01*
X166291689Y-333883289D01*
X166461528Y-333831769D01*
X166527712Y-333825251D01*
X166593895Y-333818732D01*
X166682415Y-333818732D01*
X166748598Y-333825251D01*
X166748598Y-333825251D01*
G37*
G36*
X164295146Y-333167849D02*
G01*
X164361331Y-333174368D01*
X164531170Y-333225888D01*
X164687695Y-333309553D01*
X164723433Y-333338883D01*
X164824890Y-333422145D01*
X164908152Y-333523602D01*
X164937482Y-333559340D01*
X165021147Y-333715865D01*
X165072667Y-333885704D01*
X165090063Y-334062331D01*
X165072667Y-334238958D01*
X165021147Y-334408797D01*
X164937482Y-334565322D01*
X164908152Y-334601060D01*
X164824890Y-334702517D01*
X164723433Y-334785779D01*
X164687695Y-334815109D01*
X164531170Y-334898774D01*
X164361331Y-334950294D01*
X164295147Y-334956812D01*
X164228964Y-334963331D01*
X164140444Y-334963331D01*
X164074261Y-334956812D01*
X164008077Y-334950294D01*
X163838238Y-334898774D01*
X163681713Y-334815109D01*
X163645975Y-334785779D01*
X163544518Y-334702517D01*
X163461256Y-334601060D01*
X163431926Y-334565322D01*
X163348261Y-334408797D01*
X163296741Y-334238958D01*
X163279345Y-334062331D01*
X163296741Y-333885704D01*
X163348261Y-333715865D01*
X163431926Y-333559340D01*
X163461256Y-333523602D01*
X163544518Y-333422145D01*
X163645975Y-333338883D01*
X163681713Y-333309553D01*
X163838238Y-333225888D01*
X164008077Y-333174368D01*
X164074262Y-333167849D01*
X164140444Y-333161331D01*
X164228964Y-333161331D01*
X164295146Y-333167849D01*
X164295146Y-333167849D01*
G37*
G36*
X161841695Y-332510450D02*
G01*
X161907879Y-332516968D01*
X162077718Y-332568488D01*
X162234243Y-332652153D01*
X162269981Y-332681483D01*
X162371438Y-332764745D01*
X162454700Y-332866202D01*
X162484030Y-332901940D01*
X162567695Y-333058465D01*
X162619215Y-333228304D01*
X162636611Y-333404931D01*
X162619215Y-333581558D01*
X162567695Y-333751397D01*
X162484030Y-333907922D01*
X162454700Y-333943660D01*
X162371438Y-334045117D01*
X162269981Y-334128379D01*
X162234243Y-334157709D01*
X162077718Y-334241374D01*
X161907879Y-334292894D01*
X161841694Y-334299413D01*
X161775512Y-334305931D01*
X161686992Y-334305931D01*
X161620810Y-334299413D01*
X161554625Y-334292894D01*
X161384786Y-334241374D01*
X161228261Y-334157709D01*
X161192523Y-334128379D01*
X161091066Y-334045117D01*
X161007804Y-333943660D01*
X160978474Y-333907922D01*
X160894809Y-333751397D01*
X160843289Y-333581558D01*
X160825893Y-333404931D01*
X160843289Y-333228304D01*
X160894809Y-333058465D01*
X160978474Y-332901940D01*
X161007804Y-332866202D01*
X161091066Y-332764745D01*
X161192523Y-332681483D01*
X161228261Y-332652153D01*
X161384786Y-332568488D01*
X161554625Y-332516968D01*
X161620809Y-332510450D01*
X161686992Y-332503931D01*
X161775512Y-332503931D01*
X161841695Y-332510450D01*
X161841695Y-332510450D01*
G37*
M02*
