G04 #@! TF.GenerationSoftware,KiCad,Pcbnew,(5.1.4)-1*
G04 #@! TF.CreationDate,2023-05-19T09:16:21-04:00*
G04 #@! TF.ProjectId,ThumbsUp,5468756d-6273-4557-902e-6b696361645f,rev?*
G04 #@! TF.SameCoordinates,Original*
G04 #@! TF.FileFunction,Legend,Bot*
G04 #@! TF.FilePolarity,Positive*
%FSLAX46Y46*%
G04 Gerber Fmt 4.6, Leading zero omitted, Abs format (unit mm)*
G04 Created by KiCad (PCBNEW (5.1.4)-1) date 2023-05-19 09:16:21*
%MOMM*%
%LPD*%
G04 APERTURE LIST*
%ADD10C,0.150000*%
%ADD11C,0.120000*%
G04 APERTURE END LIST*
D10*
X184629295Y-358825026D02*
X185116740Y-358508379D01*
X185159114Y-359039087D02*
X185533721Y-358111903D01*
X185180508Y-357969196D01*
X185074366Y-357977671D01*
X185012376Y-358003984D01*
X184932548Y-358074449D01*
X184879033Y-358206904D01*
X184887508Y-358313045D01*
X184913821Y-358375035D01*
X184984286Y-358454864D01*
X185337499Y-358597571D01*
X184231931Y-358664481D02*
X184606537Y-357737297D01*
X183661515Y-357406842D02*
X183767657Y-357398367D01*
X183900111Y-357451882D01*
X184014728Y-357549549D01*
X184067354Y-357673529D01*
X184075829Y-357779671D01*
X184048627Y-357974116D01*
X183995112Y-358106570D01*
X183879607Y-358265338D01*
X183799778Y-358335803D01*
X183675798Y-358388430D01*
X183525505Y-358379066D01*
X183437202Y-358343389D01*
X183322585Y-358245722D01*
X183296272Y-358183732D01*
X183421141Y-357874671D01*
X183597747Y-357946025D01*
X182863231Y-358111490D02*
X183237837Y-357184306D01*
X183059453Y-357625822D02*
X182529634Y-357411761D01*
X182333411Y-357897429D02*
X182708018Y-356970245D01*
X182398957Y-356845376D02*
X181869137Y-356631315D01*
X181759440Y-357665530D02*
X182134047Y-356738346D01*
X180366205Y-356537679D02*
X180675266Y-356662548D01*
X180479044Y-357148216D02*
X180853650Y-356221032D01*
X180412134Y-356042648D01*
X179154495Y-356613064D02*
X179641941Y-356296416D01*
X179684315Y-356827124D02*
X180058921Y-355899941D01*
X179705708Y-355757233D01*
X179599567Y-355765708D01*
X179537577Y-355792021D01*
X179457748Y-355862486D01*
X179404233Y-355994941D01*
X179412708Y-356101083D01*
X179439021Y-356163073D01*
X179509486Y-356242901D01*
X179862699Y-356385608D01*
X178955131Y-355453980D02*
X178778524Y-355382627D01*
X178672383Y-355391102D01*
X178548403Y-355443728D01*
X178432897Y-355602496D01*
X178308029Y-355911557D01*
X178280827Y-356106002D01*
X178333453Y-356229982D01*
X178403918Y-356309811D01*
X178580524Y-356381164D01*
X178686666Y-356372689D01*
X178810646Y-356320063D01*
X178926151Y-356161295D01*
X179051020Y-355852234D01*
X179078222Y-355657789D01*
X179025596Y-355533809D01*
X178955131Y-355453980D01*
X177785795Y-356060073D02*
X178160402Y-355132889D01*
X177583764Y-355670294D01*
X177542279Y-354883151D01*
X177167673Y-355810335D01*
X175906892Y-354736000D02*
X175756599Y-354726636D01*
X175694609Y-354752949D01*
X175614780Y-354823414D01*
X175561265Y-354955869D01*
X175569740Y-355062011D01*
X175596053Y-355124001D01*
X175666518Y-355203829D01*
X176019731Y-355346536D01*
X176394337Y-354419353D01*
X176085276Y-354294484D01*
X175979134Y-354302959D01*
X175917144Y-354329272D01*
X175837316Y-354399737D01*
X175801639Y-354488040D01*
X175810114Y-354594181D01*
X175836427Y-354656171D01*
X175906892Y-354736000D01*
X176215953Y-354860869D01*
X175288769Y-354486262D02*
X174979708Y-354361393D01*
X174651031Y-354793546D02*
X175092547Y-354971930D01*
X175467153Y-354044746D01*
X175025637Y-353866362D01*
X173812150Y-354454616D02*
X174253666Y-354633000D01*
X174628273Y-353705816D01*
X173701089Y-353331210D02*
X173524483Y-353259856D01*
X173418341Y-353268331D01*
X173294361Y-353320957D01*
X173178856Y-353479725D01*
X173053987Y-353788787D01*
X173026785Y-353983231D01*
X173079411Y-354107211D01*
X173149876Y-354187040D01*
X173326482Y-354258394D01*
X173432624Y-354249919D01*
X173556604Y-354197292D01*
X173672109Y-354038524D01*
X173796978Y-353729463D01*
X173824180Y-353535018D01*
X173771554Y-353411038D01*
X173701089Y-353331210D01*
X172994663Y-353045795D02*
X172399299Y-353883787D01*
X172490268Y-353150159D01*
X172046086Y-353741080D01*
X172199934Y-352724704D01*
D11*
X157884489Y-344529102D02*
X156554489Y-344529102D01*
X157884489Y-345859102D02*
X157884489Y-344529102D01*
X157884489Y-347129102D02*
X155224489Y-347129102D01*
X155224489Y-347129102D02*
X155224489Y-354809102D01*
X157884489Y-347129102D02*
X157884489Y-354809102D01*
X157884489Y-354809102D02*
X155224489Y-354809102D01*
X170032059Y-337006043D02*
X170376288Y-335721361D01*
X168747378Y-336661813D02*
X170032059Y-337006043D01*
X167520652Y-336333113D02*
X168209111Y-333763750D01*
X168209111Y-333763750D02*
X160790800Y-331776020D01*
X167520652Y-336333113D02*
X160102342Y-334345383D01*
X160102342Y-334345383D02*
X160790800Y-331776020D01*
X196606987Y-348013573D02*
X195276987Y-348013573D01*
X196606987Y-349343573D02*
X196606987Y-348013573D01*
X196606987Y-350613573D02*
X193946987Y-350613573D01*
X193946987Y-350613573D02*
X193946987Y-358293573D01*
X196606987Y-350613573D02*
X196606987Y-358293573D01*
X196606987Y-358293573D02*
X193946987Y-358293573D01*
X191636132Y-358361045D02*
X191636132Y-357031045D01*
X190306132Y-358361045D02*
X191636132Y-358361045D01*
X189036132Y-358361045D02*
X189036132Y-355701045D01*
X189036132Y-355701045D02*
X181356132Y-355701045D01*
X189036132Y-358361045D02*
X181356132Y-358361045D01*
X181356132Y-358361045D02*
X181356132Y-355701045D01*
D10*
X157364012Y-342981482D02*
X157364012Y-343695768D01*
X157411631Y-343838625D01*
X157506869Y-343933863D01*
X157649727Y-343981482D01*
X157744965Y-343981482D01*
X156459250Y-343314816D02*
X156459250Y-343981482D01*
X156697346Y-342933863D02*
X156935441Y-343648149D01*
X156316393Y-343648149D01*
X155792584Y-343410054D02*
X155887822Y-343362435D01*
X155935441Y-343314816D01*
X155983060Y-343219578D01*
X155983060Y-343171959D01*
X155935441Y-343076721D01*
X155887822Y-343029102D01*
X155792584Y-342981482D01*
X155602108Y-342981482D01*
X155506869Y-343029102D01*
X155459250Y-343076721D01*
X155411631Y-343171959D01*
X155411631Y-343219578D01*
X155459250Y-343314816D01*
X155506869Y-343362435D01*
X155602108Y-343410054D01*
X155792584Y-343410054D01*
X155887822Y-343457673D01*
X155935441Y-343505292D01*
X155983060Y-343600530D01*
X155983060Y-343791006D01*
X155935441Y-343886244D01*
X155887822Y-343933863D01*
X155792584Y-343981482D01*
X155602108Y-343981482D01*
X155506869Y-343933863D01*
X155459250Y-343886244D01*
X155411631Y-343791006D01*
X155411631Y-343600530D01*
X155459250Y-343505292D01*
X155506869Y-343457673D01*
X155602108Y-343410054D01*
X171022774Y-335056505D02*
X171712721Y-335241376D01*
X171863035Y-335232354D01*
X171979678Y-335165010D01*
X172062648Y-335039346D01*
X172087298Y-334947353D01*
X170924177Y-335424477D02*
X170763955Y-336022431D01*
X171218200Y-335799054D01*
X171181226Y-335937043D01*
X171202573Y-336041361D01*
X171236245Y-336099682D01*
X171315913Y-336170328D01*
X171545895Y-336231951D01*
X171650213Y-336210604D01*
X171708534Y-336176933D01*
X171779180Y-336097264D01*
X171853128Y-335821285D01*
X171831781Y-335716968D01*
X171798109Y-335658647D01*
X170529786Y-336896364D02*
X170653033Y-336436399D01*
X171125322Y-336513650D01*
X171067001Y-336547322D01*
X170996355Y-336626990D01*
X170934732Y-336856972D01*
X170956079Y-336961290D01*
X170989750Y-337019611D01*
X171069419Y-337090257D01*
X171299401Y-337151881D01*
X171403719Y-337130534D01*
X171462040Y-337096862D01*
X171532686Y-337017194D01*
X171594309Y-336787211D01*
X171572962Y-336682894D01*
X171539290Y-336624572D01*
X196086510Y-346465953D02*
X196086510Y-347180239D01*
X196134129Y-347323096D01*
X196229367Y-347418334D01*
X196372225Y-347465953D01*
X196467463Y-347465953D01*
X195705558Y-346465953D02*
X195086510Y-346465953D01*
X195419844Y-346846906D01*
X195276987Y-346846906D01*
X195181748Y-346894525D01*
X195134129Y-346942144D01*
X195086510Y-347037382D01*
X195086510Y-347275477D01*
X195134129Y-347370715D01*
X195181748Y-347418334D01*
X195276987Y-347465953D01*
X195562701Y-347465953D01*
X195657939Y-347418334D01*
X195705558Y-347370715D01*
X194753177Y-346465953D02*
X194134129Y-346465953D01*
X194467463Y-346846906D01*
X194324606Y-346846906D01*
X194229367Y-346894525D01*
X194181748Y-346942144D01*
X194134129Y-347037382D01*
X194134129Y-347275477D01*
X194181748Y-347370715D01*
X194229367Y-347418334D01*
X194324606Y-347465953D01*
X194610320Y-347465953D01*
X194705558Y-347418334D01*
X194753177Y-347370715D01*
X193183751Y-357364378D02*
X192469465Y-357364378D01*
X192326608Y-357411997D01*
X192231370Y-357507235D01*
X192183751Y-357650092D01*
X192183751Y-357745330D01*
X193183751Y-356459616D02*
X193183751Y-356650092D01*
X193136132Y-356745330D01*
X193088512Y-356792949D01*
X192945655Y-356888187D01*
X192755179Y-356935806D01*
X192374227Y-356935806D01*
X192278989Y-356888187D01*
X192231370Y-356840568D01*
X192183751Y-356745330D01*
X192183751Y-356554854D01*
X192231370Y-356459616D01*
X192278989Y-356411997D01*
X192374227Y-356364378D01*
X192612322Y-356364378D01*
X192707560Y-356411997D01*
X192755179Y-356459616D01*
X192802798Y-356554854D01*
X192802798Y-356745330D01*
X192755179Y-356840568D01*
X192707560Y-356888187D01*
X192612322Y-356935806D01*
M02*
