%FSLAX45Y45*%
G04 Gerber Fmt 4.5, Leading zero omitted, Abs format (unit mm)*
G04 Created by KiCad (PCBNEW (5.1.4)-1) date 2023-09-09 05:31:29*
%MOMM*%
%LPD*%
G04 APERTURE LIST*
%ADD10C,0.050000*%
%ADD11C,0.200000*%
%ADD12C,0.300000*%
G04 APERTURE END LIST*
D10*
X19612165Y-35837340D02*
X16342269Y-35841926D01*
X19203875Y-34010148D02*
X19359700Y-34160247D01*
X15763276Y-34022596D02*
X15953880Y-33316027D01*
X16131177Y-33185429D02*
X19203875Y-34010148D01*
X15763276Y-34022596D02*
X15474404Y-34405941D01*
X19360882Y-34552366D02*
X19359700Y-34160247D01*
X15473875Y-35519943D02*
X16342269Y-35841926D01*
X19666491Y-35781864D02*
X19612165Y-35837340D01*
X19666491Y-35781864D02*
X19666101Y-34808660D01*
X15473875Y-35519943D02*
X15474404Y-34405941D01*
X15953880Y-33316027D02*
X16131177Y-33185429D01*
X19666101Y-34808660D02*
X19360882Y-34552366D01*
D11*
X16134500Y-34647692D02*
X16309500Y-34822692D01*
X16309500Y-34647692D02*
X16134500Y-34822692D01*
X17150500Y-34647692D02*
X17325500Y-34822692D01*
X17325500Y-34647692D02*
X17150500Y-34822692D01*
X18042455Y-34647692D02*
X18217455Y-34822692D01*
X18217455Y-34647692D02*
X18042455Y-34822692D01*
X19058455Y-34647692D02*
X19233455Y-34822692D01*
X19233455Y-34647692D02*
X19058455Y-34822692D01*
X16407500Y-35175192D02*
G75*
G03X16407500Y-35175192I-147500J0D01*
G01*
X17137500Y-35310192D02*
G75*
G03X17137500Y-35310192I-147500J0D01*
G01*
X18315455Y-35175192D02*
G75*
G03X18315455Y-35175192I-147500J0D01*
G01*
X19045455Y-35310192D02*
G75*
G03X19045455Y-35310192I-147500J0D01*
G01*
X16349000Y-34331192D02*
X16349000Y-34631192D01*
X16199000Y-34481192D02*
X16499000Y-34481192D01*
X16984000Y-34077192D02*
X16984000Y-34377192D01*
X16834000Y-34227192D02*
X17134000Y-34227192D01*
X18256955Y-34331192D02*
X18256955Y-34631192D01*
X18106955Y-34481192D02*
X18406955Y-34481192D01*
X18891955Y-34077192D02*
X18891955Y-34377192D01*
X18741955Y-34227192D02*
X19041955Y-34227192D01*
X16908546Y-34913738D02*
X16908546Y-34556646D01*
X16551454Y-34556646D01*
X16551454Y-34913738D01*
X16908546Y-34913738D01*
X18816501Y-34913738D02*
X18816501Y-34556646D01*
X18459408Y-34556646D01*
X18459408Y-34913738D01*
X18816501Y-34913738D01*
D12*
X15757803Y-36310141D02*
X15757803Y-36010141D01*
X15829232Y-36010141D01*
X15872089Y-36024426D01*
X15900660Y-36052998D01*
X15914946Y-36081569D01*
X15929232Y-36138712D01*
X15929232Y-36181569D01*
X15914946Y-36238712D01*
X15900660Y-36267284D01*
X15872089Y-36295855D01*
X15829232Y-36310141D01*
X15757803Y-36310141D01*
X16057803Y-36310141D02*
X16057803Y-36110141D01*
X16057803Y-36167284D02*
X16072089Y-36138712D01*
X16086375Y-36124426D01*
X16114946Y-36110141D01*
X16143517Y-36110141D01*
X16243517Y-36310141D02*
X16243517Y-36110141D01*
X16243517Y-36010141D02*
X16229232Y-36024426D01*
X16243517Y-36038712D01*
X16257803Y-36024426D01*
X16243517Y-36010141D01*
X16243517Y-36038712D01*
X16429232Y-36310141D02*
X16400660Y-36295855D01*
X16386375Y-36267284D01*
X16386375Y-36010141D01*
X16586375Y-36310141D02*
X16557803Y-36295855D01*
X16543517Y-36267284D01*
X16543517Y-36010141D01*
X16929232Y-36310141D02*
X16929232Y-36010141D01*
X17029232Y-36224426D01*
X17129232Y-36010141D01*
X17129232Y-36310141D01*
X17400660Y-36310141D02*
X17400660Y-36152998D01*
X17386375Y-36124426D01*
X17357803Y-36110141D01*
X17300660Y-36110141D01*
X17272089Y-36124426D01*
X17400660Y-36295855D02*
X17372089Y-36310141D01*
X17300660Y-36310141D01*
X17272089Y-36295855D01*
X17257803Y-36267284D01*
X17257803Y-36238712D01*
X17272089Y-36210141D01*
X17300660Y-36195855D01*
X17372089Y-36195855D01*
X17400660Y-36181569D01*
X17543517Y-36110141D02*
X17543517Y-36410141D01*
X17543517Y-36124426D02*
X17572089Y-36110141D01*
X17629232Y-36110141D01*
X17657803Y-36124426D01*
X17672089Y-36138712D01*
X17686375Y-36167284D01*
X17686375Y-36252998D01*
X17672089Y-36281569D01*
X17657803Y-36295855D01*
X17629232Y-36310141D01*
X17572089Y-36310141D01*
X17543517Y-36295855D01*
X17814946Y-36281569D02*
X17829232Y-36295855D01*
X17814946Y-36310141D01*
X17800660Y-36295855D01*
X17814946Y-36281569D01*
X17814946Y-36310141D01*
X17814946Y-36124426D02*
X17829232Y-36138712D01*
X17814946Y-36152998D01*
X17800660Y-36138712D01*
X17814946Y-36124426D01*
X17814946Y-36152998D01*
X15296375Y-36716926D02*
X15471375Y-36891926D01*
X15471375Y-36716926D02*
X15296375Y-36891926D01*
X15914946Y-36940141D02*
X15743517Y-36940141D01*
X15829232Y-36940141D02*
X15829232Y-36640141D01*
X15800660Y-36682998D01*
X15772089Y-36711569D01*
X15743517Y-36725855D01*
X16043517Y-36911569D02*
X16057803Y-36925855D01*
X16043517Y-36940141D01*
X16029232Y-36925855D01*
X16043517Y-36911569D01*
X16043517Y-36940141D01*
X16157803Y-36640141D02*
X16357803Y-36640141D01*
X16229232Y-36940141D01*
X16614946Y-36640141D02*
X16472089Y-36640141D01*
X16457803Y-36782998D01*
X16472089Y-36768712D01*
X16500660Y-36754426D01*
X16572089Y-36754426D01*
X16600660Y-36768712D01*
X16614946Y-36782998D01*
X16629232Y-36811569D01*
X16629232Y-36882998D01*
X16614946Y-36911569D01*
X16600660Y-36925855D01*
X16572089Y-36940141D01*
X16500660Y-36940141D01*
X16472089Y-36925855D01*
X16457803Y-36911569D01*
X16757803Y-36940141D02*
X16757803Y-36740141D01*
X16757803Y-36768712D02*
X16772089Y-36754426D01*
X16800660Y-36740141D01*
X16843517Y-36740141D01*
X16872089Y-36754426D01*
X16886375Y-36782998D01*
X16886375Y-36940141D01*
X16886375Y-36782998D02*
X16900660Y-36754426D01*
X16929232Y-36740141D01*
X16972089Y-36740141D01*
X17000660Y-36754426D01*
X17014946Y-36782998D01*
X17014946Y-36940141D01*
X17157803Y-36940141D02*
X17157803Y-36740141D01*
X17157803Y-36768712D02*
X17172089Y-36754426D01*
X17200660Y-36740141D01*
X17243517Y-36740141D01*
X17272089Y-36754426D01*
X17286375Y-36782998D01*
X17286375Y-36940141D01*
X17286375Y-36782998D02*
X17300660Y-36754426D01*
X17329232Y-36740141D01*
X17372089Y-36740141D01*
X17400660Y-36754426D01*
X17414946Y-36782998D01*
X17414946Y-36940141D01*
X18000660Y-36625855D02*
X17743517Y-37011569D01*
X18386375Y-36640141D02*
X18414946Y-36640141D01*
X18443517Y-36654426D01*
X18457803Y-36668712D01*
X18472089Y-36697284D01*
X18486375Y-36754426D01*
X18486375Y-36825855D01*
X18472089Y-36882998D01*
X18457803Y-36911569D01*
X18443517Y-36925855D01*
X18414946Y-36940141D01*
X18386375Y-36940141D01*
X18357803Y-36925855D01*
X18343517Y-36911569D01*
X18329232Y-36882998D01*
X18314946Y-36825855D01*
X18314946Y-36754426D01*
X18329232Y-36697284D01*
X18343517Y-36668712D01*
X18357803Y-36654426D01*
X18386375Y-36640141D01*
X18614946Y-36911569D02*
X18629232Y-36925855D01*
X18614946Y-36940141D01*
X18600660Y-36925855D01*
X18614946Y-36911569D01*
X18614946Y-36940141D01*
X18814946Y-36640141D02*
X18843517Y-36640141D01*
X18872089Y-36654426D01*
X18886375Y-36668712D01*
X18900660Y-36697284D01*
X18914946Y-36754426D01*
X18914946Y-36825855D01*
X18900660Y-36882998D01*
X18886375Y-36911569D01*
X18872089Y-36925855D01*
X18843517Y-36940141D01*
X18814946Y-36940141D01*
X18786375Y-36925855D01*
X18772089Y-36911569D01*
X18757803Y-36882998D01*
X18743517Y-36825855D01*
X18743517Y-36754426D01*
X18757803Y-36697284D01*
X18772089Y-36668712D01*
X18786375Y-36654426D01*
X18814946Y-36640141D01*
X19172089Y-36640141D02*
X19114946Y-36640141D01*
X19086375Y-36654426D01*
X19072089Y-36668712D01*
X19043517Y-36711569D01*
X19029232Y-36768712D01*
X19029232Y-36882998D01*
X19043517Y-36911569D01*
X19057803Y-36925855D01*
X19086375Y-36940141D01*
X19143517Y-36940141D01*
X19172089Y-36925855D01*
X19186375Y-36911569D01*
X19200660Y-36882998D01*
X19200660Y-36811569D01*
X19186375Y-36782998D01*
X19172089Y-36768712D01*
X19143517Y-36754426D01*
X19086375Y-36754426D01*
X19057803Y-36768712D01*
X19043517Y-36782998D01*
X19029232Y-36811569D01*
X19343517Y-36940141D02*
X19400660Y-36940141D01*
X19429232Y-36925855D01*
X19443517Y-36911569D01*
X19472089Y-36868712D01*
X19486375Y-36811569D01*
X19486375Y-36697284D01*
X19472089Y-36668712D01*
X19457803Y-36654426D01*
X19429232Y-36640141D01*
X19372089Y-36640141D01*
X19343517Y-36654426D01*
X19329232Y-36668712D01*
X19314946Y-36697284D01*
X19314946Y-36768712D01*
X19329232Y-36797284D01*
X19343517Y-36811569D01*
X19372089Y-36825855D01*
X19429232Y-36825855D01*
X19457803Y-36811569D01*
X19472089Y-36797284D01*
X19486375Y-36768712D01*
X19600660Y-36640141D02*
X19600660Y-36697284D01*
X19714946Y-36640141D02*
X19714946Y-36697284D01*
X20157803Y-37054426D02*
X20143517Y-37040141D01*
X20114946Y-36997284D01*
X20100660Y-36968712D01*
X20086375Y-36925855D01*
X20072089Y-36854426D01*
X20072089Y-36797284D01*
X20086375Y-36725855D01*
X20100660Y-36682998D01*
X20114946Y-36654426D01*
X20143517Y-36611569D01*
X20157803Y-36597284D01*
X20400660Y-36740141D02*
X20400660Y-36940141D01*
X20329232Y-36625855D02*
X20257803Y-36840141D01*
X20443517Y-36840141D01*
X20786375Y-36940141D02*
X20786375Y-36640141D01*
X20914946Y-36940141D02*
X20914946Y-36782998D01*
X20900660Y-36754426D01*
X20872089Y-36740141D01*
X20829232Y-36740141D01*
X20800660Y-36754426D01*
X20786375Y-36768712D01*
X21100660Y-36940141D02*
X21072089Y-36925855D01*
X21057803Y-36911569D01*
X21043517Y-36882998D01*
X21043517Y-36797284D01*
X21057803Y-36768712D01*
X21072089Y-36754426D01*
X21100660Y-36740141D01*
X21143517Y-36740141D01*
X21172089Y-36754426D01*
X21186375Y-36768712D01*
X21200660Y-36797284D01*
X21200660Y-36882998D01*
X21186375Y-36911569D01*
X21172089Y-36925855D01*
X21143517Y-36940141D01*
X21100660Y-36940141D01*
X21372089Y-36940141D02*
X21343517Y-36925855D01*
X21329232Y-36897284D01*
X21329232Y-36640141D01*
X21600660Y-36925855D02*
X21572089Y-36940141D01*
X21514946Y-36940141D01*
X21486375Y-36925855D01*
X21472089Y-36897284D01*
X21472089Y-36782998D01*
X21486375Y-36754426D01*
X21514946Y-36740141D01*
X21572089Y-36740141D01*
X21600660Y-36754426D01*
X21614946Y-36782998D01*
X21614946Y-36811569D01*
X21472089Y-36840141D01*
X21729232Y-36925855D02*
X21757803Y-36940141D01*
X21814946Y-36940141D01*
X21843517Y-36925855D01*
X21857803Y-36897284D01*
X21857803Y-36882998D01*
X21843517Y-36854426D01*
X21814946Y-36840141D01*
X21772089Y-36840141D01*
X21743517Y-36825855D01*
X21729232Y-36797284D01*
X21729232Y-36782998D01*
X21743517Y-36754426D01*
X21772089Y-36740141D01*
X21814946Y-36740141D01*
X21843517Y-36754426D01*
X21957803Y-37054426D02*
X21972089Y-37040141D01*
X22000660Y-36997284D01*
X22014946Y-36968712D01*
X22029232Y-36925855D01*
X22043517Y-36854426D01*
X22043517Y-36797284D01*
X22029232Y-36725855D01*
X22014946Y-36682998D01*
X22000660Y-36654426D01*
X21972089Y-36611569D01*
X21957803Y-36597284D01*
X22500660Y-37054426D02*
X22486375Y-37040141D01*
X22457803Y-36997284D01*
X22443517Y-36968712D01*
X22429232Y-36925855D01*
X22414946Y-36854426D01*
X22414946Y-36797284D01*
X22429232Y-36725855D01*
X22443517Y-36682998D01*
X22457803Y-36654426D01*
X22486375Y-36611569D01*
X22500660Y-36597284D01*
X22614946Y-36740141D02*
X22614946Y-36940141D01*
X22614946Y-36768712D02*
X22629232Y-36754426D01*
X22657803Y-36740141D01*
X22700660Y-36740141D01*
X22729232Y-36754426D01*
X22743517Y-36782998D01*
X22743517Y-36940141D01*
X22929232Y-36940141D02*
X22900660Y-36925855D01*
X22886375Y-36911569D01*
X22872089Y-36882998D01*
X22872089Y-36797284D01*
X22886375Y-36768712D01*
X22900660Y-36754426D01*
X22929232Y-36740141D01*
X22972089Y-36740141D01*
X23000660Y-36754426D01*
X23014946Y-36768712D01*
X23029232Y-36797284D01*
X23029232Y-36882998D01*
X23014946Y-36911569D01*
X23000660Y-36925855D01*
X22972089Y-36940141D01*
X22929232Y-36940141D01*
X23114946Y-36740141D02*
X23229232Y-36740141D01*
X23157803Y-36640141D02*
X23157803Y-36897284D01*
X23172089Y-36925855D01*
X23200660Y-36940141D01*
X23229232Y-36940141D01*
X23557803Y-36740141D02*
X23557803Y-37040141D01*
X23557803Y-36754426D02*
X23586375Y-36740141D01*
X23643517Y-36740141D01*
X23672089Y-36754426D01*
X23686375Y-36768712D01*
X23700660Y-36797284D01*
X23700660Y-36882998D01*
X23686375Y-36911569D01*
X23672089Y-36925855D01*
X23643517Y-36940141D01*
X23586375Y-36940141D01*
X23557803Y-36925855D01*
X23872089Y-36940141D02*
X23843517Y-36925855D01*
X23829232Y-36897284D01*
X23829232Y-36640141D01*
X24114946Y-36940141D02*
X24114946Y-36782998D01*
X24100660Y-36754426D01*
X24072089Y-36740141D01*
X24014946Y-36740141D01*
X23986375Y-36754426D01*
X24114946Y-36925855D02*
X24086375Y-36940141D01*
X24014946Y-36940141D01*
X23986375Y-36925855D01*
X23972089Y-36897284D01*
X23972089Y-36868712D01*
X23986375Y-36840141D01*
X24014946Y-36825855D01*
X24086375Y-36825855D01*
X24114946Y-36811569D01*
X24214946Y-36740141D02*
X24329232Y-36740141D01*
X24257803Y-36640141D02*
X24257803Y-36897284D01*
X24272089Y-36925855D01*
X24300660Y-36940141D01*
X24329232Y-36940141D01*
X24543517Y-36925855D02*
X24514946Y-36940141D01*
X24457803Y-36940141D01*
X24429232Y-36925855D01*
X24414946Y-36897284D01*
X24414946Y-36782998D01*
X24429232Y-36754426D01*
X24457803Y-36740141D01*
X24514946Y-36740141D01*
X24543517Y-36754426D01*
X24557803Y-36782998D01*
X24557803Y-36811569D01*
X24414946Y-36840141D01*
X24814946Y-36940141D02*
X24814946Y-36640141D01*
X24814946Y-36925855D02*
X24786375Y-36940141D01*
X24729232Y-36940141D01*
X24700660Y-36925855D01*
X24686375Y-36911569D01*
X24672089Y-36882998D01*
X24672089Y-36797284D01*
X24686375Y-36768712D01*
X24700660Y-36754426D01*
X24729232Y-36740141D01*
X24786375Y-36740141D01*
X24814946Y-36754426D01*
X24929232Y-37054426D02*
X24943517Y-37040141D01*
X24972089Y-36997284D01*
X24986375Y-36968712D01*
X25000660Y-36925855D01*
X25014946Y-36854426D01*
X25014946Y-36797284D01*
X25000660Y-36725855D01*
X24986375Y-36682998D01*
X24972089Y-36654426D01*
X24943517Y-36611569D01*
X24929232Y-36597284D01*
X15471375Y-37200426D02*
G75*
G03X15471375Y-37200426I-147500J0D01*
G01*
X15743517Y-37064712D02*
X15757803Y-37050426D01*
X15786375Y-37036141D01*
X15857803Y-37036141D01*
X15886375Y-37050426D01*
X15900660Y-37064712D01*
X15914946Y-37093284D01*
X15914946Y-37121855D01*
X15900660Y-37164712D01*
X15729232Y-37336141D01*
X15914946Y-37336141D01*
X16043517Y-37307569D02*
X16057803Y-37321855D01*
X16043517Y-37336141D01*
X16029232Y-37321855D01*
X16043517Y-37307569D01*
X16043517Y-37336141D01*
X16200660Y-37336141D02*
X16257803Y-37336141D01*
X16286375Y-37321855D01*
X16300660Y-37307569D01*
X16329232Y-37264712D01*
X16343517Y-37207569D01*
X16343517Y-37093284D01*
X16329232Y-37064712D01*
X16314946Y-37050426D01*
X16286375Y-37036141D01*
X16229232Y-37036141D01*
X16200660Y-37050426D01*
X16186375Y-37064712D01*
X16172089Y-37093284D01*
X16172089Y-37164712D01*
X16186375Y-37193284D01*
X16200660Y-37207569D01*
X16229232Y-37221855D01*
X16286375Y-37221855D01*
X16314946Y-37207569D01*
X16329232Y-37193284D01*
X16343517Y-37164712D01*
X16614946Y-37036141D02*
X16472089Y-37036141D01*
X16457803Y-37178998D01*
X16472089Y-37164712D01*
X16500660Y-37150426D01*
X16572089Y-37150426D01*
X16600660Y-37164712D01*
X16614946Y-37178998D01*
X16629232Y-37207569D01*
X16629232Y-37278998D01*
X16614946Y-37307569D01*
X16600660Y-37321855D01*
X16572089Y-37336141D01*
X16500660Y-37336141D01*
X16472089Y-37321855D01*
X16457803Y-37307569D01*
X16757803Y-37336141D02*
X16757803Y-37136141D01*
X16757803Y-37164712D02*
X16772089Y-37150426D01*
X16800660Y-37136141D01*
X16843517Y-37136141D01*
X16872089Y-37150426D01*
X16886375Y-37178998D01*
X16886375Y-37336141D01*
X16886375Y-37178998D02*
X16900660Y-37150426D01*
X16929232Y-37136141D01*
X16972089Y-37136141D01*
X17000660Y-37150426D01*
X17014946Y-37178998D01*
X17014946Y-37336141D01*
X17157803Y-37336141D02*
X17157803Y-37136141D01*
X17157803Y-37164712D02*
X17172089Y-37150426D01*
X17200660Y-37136141D01*
X17243517Y-37136141D01*
X17272089Y-37150426D01*
X17286375Y-37178998D01*
X17286375Y-37336141D01*
X17286375Y-37178998D02*
X17300660Y-37150426D01*
X17329232Y-37136141D01*
X17372089Y-37136141D01*
X17400660Y-37150426D01*
X17414946Y-37178998D01*
X17414946Y-37336141D01*
X18000660Y-37021855D02*
X17743517Y-37407569D01*
X18386375Y-37036141D02*
X18414946Y-37036141D01*
X18443517Y-37050426D01*
X18457803Y-37064712D01*
X18472089Y-37093284D01*
X18486375Y-37150426D01*
X18486375Y-37221855D01*
X18472089Y-37278998D01*
X18457803Y-37307569D01*
X18443517Y-37321855D01*
X18414946Y-37336141D01*
X18386375Y-37336141D01*
X18357803Y-37321855D01*
X18343517Y-37307569D01*
X18329232Y-37278998D01*
X18314946Y-37221855D01*
X18314946Y-37150426D01*
X18329232Y-37093284D01*
X18343517Y-37064712D01*
X18357803Y-37050426D01*
X18386375Y-37036141D01*
X18614946Y-37307569D02*
X18629232Y-37321855D01*
X18614946Y-37336141D01*
X18600660Y-37321855D01*
X18614946Y-37307569D01*
X18614946Y-37336141D01*
X18914946Y-37336141D02*
X18743517Y-37336141D01*
X18829232Y-37336141D02*
X18829232Y-37036141D01*
X18800660Y-37078998D01*
X18772089Y-37107569D01*
X18743517Y-37121855D01*
X19200660Y-37336141D02*
X19029232Y-37336141D01*
X19114946Y-37336141D02*
X19114946Y-37036141D01*
X19086375Y-37078998D01*
X19057803Y-37107569D01*
X19029232Y-37121855D01*
X19457803Y-37036141D02*
X19400660Y-37036141D01*
X19372089Y-37050426D01*
X19357803Y-37064712D01*
X19329232Y-37107569D01*
X19314946Y-37164712D01*
X19314946Y-37278998D01*
X19329232Y-37307569D01*
X19343517Y-37321855D01*
X19372089Y-37336141D01*
X19429232Y-37336141D01*
X19457803Y-37321855D01*
X19472089Y-37307569D01*
X19486375Y-37278998D01*
X19486375Y-37207569D01*
X19472089Y-37178998D01*
X19457803Y-37164712D01*
X19429232Y-37150426D01*
X19372089Y-37150426D01*
X19343517Y-37164712D01*
X19329232Y-37178998D01*
X19314946Y-37207569D01*
X19600660Y-37036141D02*
X19600660Y-37093284D01*
X19714946Y-37036141D02*
X19714946Y-37093284D01*
X20157803Y-37450426D02*
X20143517Y-37436141D01*
X20114946Y-37393284D01*
X20100660Y-37364712D01*
X20086375Y-37321855D01*
X20072089Y-37250426D01*
X20072089Y-37193284D01*
X20086375Y-37121855D01*
X20100660Y-37078998D01*
X20114946Y-37050426D01*
X20143517Y-37007569D01*
X20157803Y-36993284D01*
X20400660Y-37136141D02*
X20400660Y-37336141D01*
X20329232Y-37021855D02*
X20257803Y-37236141D01*
X20443517Y-37236141D01*
X20786375Y-37336141D02*
X20786375Y-37036141D01*
X20914946Y-37336141D02*
X20914946Y-37178998D01*
X20900660Y-37150426D01*
X20872089Y-37136141D01*
X20829232Y-37136141D01*
X20800660Y-37150426D01*
X20786375Y-37164712D01*
X21100660Y-37336141D02*
X21072089Y-37321855D01*
X21057803Y-37307569D01*
X21043517Y-37278998D01*
X21043517Y-37193284D01*
X21057803Y-37164712D01*
X21072089Y-37150426D01*
X21100660Y-37136141D01*
X21143517Y-37136141D01*
X21172089Y-37150426D01*
X21186375Y-37164712D01*
X21200660Y-37193284D01*
X21200660Y-37278998D01*
X21186375Y-37307569D01*
X21172089Y-37321855D01*
X21143517Y-37336141D01*
X21100660Y-37336141D01*
X21372089Y-37336141D02*
X21343517Y-37321855D01*
X21329232Y-37293284D01*
X21329232Y-37036141D01*
X21600660Y-37321855D02*
X21572089Y-37336141D01*
X21514946Y-37336141D01*
X21486375Y-37321855D01*
X21472089Y-37293284D01*
X21472089Y-37178998D01*
X21486375Y-37150426D01*
X21514946Y-37136141D01*
X21572089Y-37136141D01*
X21600660Y-37150426D01*
X21614946Y-37178998D01*
X21614946Y-37207569D01*
X21472089Y-37236141D01*
X21729232Y-37321855D02*
X21757803Y-37336141D01*
X21814946Y-37336141D01*
X21843517Y-37321855D01*
X21857803Y-37293284D01*
X21857803Y-37278998D01*
X21843517Y-37250426D01*
X21814946Y-37236141D01*
X21772089Y-37236141D01*
X21743517Y-37221855D01*
X21729232Y-37193284D01*
X21729232Y-37178998D01*
X21743517Y-37150426D01*
X21772089Y-37136141D01*
X21814946Y-37136141D01*
X21843517Y-37150426D01*
X21957803Y-37450426D02*
X21972089Y-37436141D01*
X22000660Y-37393284D01*
X22014946Y-37364712D01*
X22029232Y-37321855D01*
X22043517Y-37250426D01*
X22043517Y-37193284D01*
X22029232Y-37121855D01*
X22014946Y-37078998D01*
X22000660Y-37050426D01*
X21972089Y-37007569D01*
X21957803Y-36993284D01*
X22500660Y-37450426D02*
X22486375Y-37436141D01*
X22457803Y-37393284D01*
X22443517Y-37364712D01*
X22429232Y-37321855D01*
X22414946Y-37250426D01*
X22414946Y-37193284D01*
X22429232Y-37121855D01*
X22443517Y-37078998D01*
X22457803Y-37050426D01*
X22486375Y-37007569D01*
X22500660Y-36993284D01*
X22614946Y-37136141D02*
X22614946Y-37336141D01*
X22614946Y-37164712D02*
X22629232Y-37150426D01*
X22657803Y-37136141D01*
X22700660Y-37136141D01*
X22729232Y-37150426D01*
X22743517Y-37178998D01*
X22743517Y-37336141D01*
X22929232Y-37336141D02*
X22900660Y-37321855D01*
X22886375Y-37307569D01*
X22872089Y-37278998D01*
X22872089Y-37193284D01*
X22886375Y-37164712D01*
X22900660Y-37150426D01*
X22929232Y-37136141D01*
X22972089Y-37136141D01*
X23000660Y-37150426D01*
X23014946Y-37164712D01*
X23029232Y-37193284D01*
X23029232Y-37278998D01*
X23014946Y-37307569D01*
X23000660Y-37321855D01*
X22972089Y-37336141D01*
X22929232Y-37336141D01*
X23114946Y-37136141D02*
X23229232Y-37136141D01*
X23157803Y-37036141D02*
X23157803Y-37293284D01*
X23172089Y-37321855D01*
X23200660Y-37336141D01*
X23229232Y-37336141D01*
X23557803Y-37136141D02*
X23557803Y-37436141D01*
X23557803Y-37150426D02*
X23586375Y-37136141D01*
X23643517Y-37136141D01*
X23672089Y-37150426D01*
X23686375Y-37164712D01*
X23700660Y-37193284D01*
X23700660Y-37278998D01*
X23686375Y-37307569D01*
X23672089Y-37321855D01*
X23643517Y-37336141D01*
X23586375Y-37336141D01*
X23557803Y-37321855D01*
X23872089Y-37336141D02*
X23843517Y-37321855D01*
X23829232Y-37293284D01*
X23829232Y-37036141D01*
X24114946Y-37336141D02*
X24114946Y-37178998D01*
X24100660Y-37150426D01*
X24072089Y-37136141D01*
X24014946Y-37136141D01*
X23986375Y-37150426D01*
X24114946Y-37321855D02*
X24086375Y-37336141D01*
X24014946Y-37336141D01*
X23986375Y-37321855D01*
X23972089Y-37293284D01*
X23972089Y-37264712D01*
X23986375Y-37236141D01*
X24014946Y-37221855D01*
X24086375Y-37221855D01*
X24114946Y-37207569D01*
X24214946Y-37136141D02*
X24329232Y-37136141D01*
X24257803Y-37036141D02*
X24257803Y-37293284D01*
X24272089Y-37321855D01*
X24300660Y-37336141D01*
X24329232Y-37336141D01*
X24543517Y-37321855D02*
X24514946Y-37336141D01*
X24457803Y-37336141D01*
X24429232Y-37321855D01*
X24414946Y-37293284D01*
X24414946Y-37178998D01*
X24429232Y-37150426D01*
X24457803Y-37136141D01*
X24514946Y-37136141D01*
X24543517Y-37150426D01*
X24557803Y-37178998D01*
X24557803Y-37207569D01*
X24414946Y-37236141D01*
X24814946Y-37336141D02*
X24814946Y-37036141D01*
X24814946Y-37321855D02*
X24786375Y-37336141D01*
X24729232Y-37336141D01*
X24700660Y-37321855D01*
X24686375Y-37307569D01*
X24672089Y-37278998D01*
X24672089Y-37193284D01*
X24686375Y-37164712D01*
X24700660Y-37150426D01*
X24729232Y-37136141D01*
X24786375Y-37136141D01*
X24814946Y-37150426D01*
X24929232Y-37450426D02*
X24943517Y-37436141D01*
X24972089Y-37393284D01*
X24986375Y-37364712D01*
X25000660Y-37321855D01*
X25014946Y-37250426D01*
X25014946Y-37193284D01*
X25000660Y-37121855D01*
X24986375Y-37078998D01*
X24972089Y-37050426D01*
X24943517Y-37007569D01*
X24929232Y-36993284D01*
X15321375Y-37475426D02*
X15321375Y-37775426D01*
X15171375Y-37625426D02*
X15471375Y-37625426D01*
X15729232Y-37461141D02*
X15914946Y-37461141D01*
X15814946Y-37575426D01*
X15857803Y-37575426D01*
X15886375Y-37589712D01*
X15900660Y-37603998D01*
X15914946Y-37632569D01*
X15914946Y-37703998D01*
X15900660Y-37732569D01*
X15886375Y-37746855D01*
X15857803Y-37761141D01*
X15772089Y-37761141D01*
X15743517Y-37746855D01*
X15729232Y-37732569D01*
X16043517Y-37732569D02*
X16057803Y-37746855D01*
X16043517Y-37761141D01*
X16029232Y-37746855D01*
X16043517Y-37732569D01*
X16043517Y-37761141D01*
X16243517Y-37461141D02*
X16272089Y-37461141D01*
X16300660Y-37475426D01*
X16314946Y-37489712D01*
X16329232Y-37518284D01*
X16343517Y-37575426D01*
X16343517Y-37646855D01*
X16329232Y-37703998D01*
X16314946Y-37732569D01*
X16300660Y-37746855D01*
X16272089Y-37761141D01*
X16243517Y-37761141D01*
X16214946Y-37746855D01*
X16200660Y-37732569D01*
X16186375Y-37703998D01*
X16172089Y-37646855D01*
X16172089Y-37575426D01*
X16186375Y-37518284D01*
X16200660Y-37489712D01*
X16214946Y-37475426D01*
X16243517Y-37461141D01*
X16529232Y-37461141D02*
X16557803Y-37461141D01*
X16586375Y-37475426D01*
X16600660Y-37489712D01*
X16614946Y-37518284D01*
X16629232Y-37575426D01*
X16629232Y-37646855D01*
X16614946Y-37703998D01*
X16600660Y-37732569D01*
X16586375Y-37746855D01*
X16557803Y-37761141D01*
X16529232Y-37761141D01*
X16500660Y-37746855D01*
X16486375Y-37732569D01*
X16472089Y-37703998D01*
X16457803Y-37646855D01*
X16457803Y-37575426D01*
X16472089Y-37518284D01*
X16486375Y-37489712D01*
X16500660Y-37475426D01*
X16529232Y-37461141D01*
X16757803Y-37761141D02*
X16757803Y-37561141D01*
X16757803Y-37589712D02*
X16772089Y-37575426D01*
X16800660Y-37561141D01*
X16843517Y-37561141D01*
X16872089Y-37575426D01*
X16886375Y-37603998D01*
X16886375Y-37761141D01*
X16886375Y-37603998D02*
X16900660Y-37575426D01*
X16929232Y-37561141D01*
X16972089Y-37561141D01*
X17000660Y-37575426D01*
X17014946Y-37603998D01*
X17014946Y-37761141D01*
X17157803Y-37761141D02*
X17157803Y-37561141D01*
X17157803Y-37589712D02*
X17172089Y-37575426D01*
X17200660Y-37561141D01*
X17243517Y-37561141D01*
X17272089Y-37575426D01*
X17286375Y-37603998D01*
X17286375Y-37761141D01*
X17286375Y-37603998D02*
X17300660Y-37575426D01*
X17329232Y-37561141D01*
X17372089Y-37561141D01*
X17400660Y-37575426D01*
X17414946Y-37603998D01*
X17414946Y-37761141D01*
X18000660Y-37446855D02*
X17743517Y-37832569D01*
X18386375Y-37461141D02*
X18414946Y-37461141D01*
X18443517Y-37475426D01*
X18457803Y-37489712D01*
X18472089Y-37518284D01*
X18486375Y-37575426D01*
X18486375Y-37646855D01*
X18472089Y-37703998D01*
X18457803Y-37732569D01*
X18443517Y-37746855D01*
X18414946Y-37761141D01*
X18386375Y-37761141D01*
X18357803Y-37746855D01*
X18343517Y-37732569D01*
X18329232Y-37703998D01*
X18314946Y-37646855D01*
X18314946Y-37575426D01*
X18329232Y-37518284D01*
X18343517Y-37489712D01*
X18357803Y-37475426D01*
X18386375Y-37461141D01*
X18614946Y-37732569D02*
X18629232Y-37746855D01*
X18614946Y-37761141D01*
X18600660Y-37746855D01*
X18614946Y-37732569D01*
X18614946Y-37761141D01*
X18914946Y-37761141D02*
X18743517Y-37761141D01*
X18829232Y-37761141D02*
X18829232Y-37461141D01*
X18800660Y-37503998D01*
X18772089Y-37532569D01*
X18743517Y-37546855D01*
X19200660Y-37761141D02*
X19029232Y-37761141D01*
X19114946Y-37761141D02*
X19114946Y-37461141D01*
X19086375Y-37503998D01*
X19057803Y-37532569D01*
X19029232Y-37546855D01*
X19372089Y-37589712D02*
X19343517Y-37575426D01*
X19329232Y-37561141D01*
X19314946Y-37532569D01*
X19314946Y-37518284D01*
X19329232Y-37489712D01*
X19343517Y-37475426D01*
X19372089Y-37461141D01*
X19429232Y-37461141D01*
X19457803Y-37475426D01*
X19472089Y-37489712D01*
X19486375Y-37518284D01*
X19486375Y-37532569D01*
X19472089Y-37561141D01*
X19457803Y-37575426D01*
X19429232Y-37589712D01*
X19372089Y-37589712D01*
X19343517Y-37603998D01*
X19329232Y-37618284D01*
X19314946Y-37646855D01*
X19314946Y-37703998D01*
X19329232Y-37732569D01*
X19343517Y-37746855D01*
X19372089Y-37761141D01*
X19429232Y-37761141D01*
X19457803Y-37746855D01*
X19472089Y-37732569D01*
X19486375Y-37703998D01*
X19486375Y-37646855D01*
X19472089Y-37618284D01*
X19457803Y-37603998D01*
X19429232Y-37589712D01*
X19600660Y-37461141D02*
X19600660Y-37518284D01*
X19714946Y-37461141D02*
X19714946Y-37518284D01*
X20157803Y-37875426D02*
X20143517Y-37861141D01*
X20114946Y-37818284D01*
X20100660Y-37789712D01*
X20086375Y-37746855D01*
X20072089Y-37675426D01*
X20072089Y-37618284D01*
X20086375Y-37546855D01*
X20100660Y-37503998D01*
X20114946Y-37475426D01*
X20143517Y-37432569D01*
X20157803Y-37418284D01*
X20400660Y-37561141D02*
X20400660Y-37761141D01*
X20329232Y-37446855D02*
X20257803Y-37661141D01*
X20443517Y-37661141D01*
X20786375Y-37761141D02*
X20786375Y-37461141D01*
X20914946Y-37761141D02*
X20914946Y-37603998D01*
X20900660Y-37575426D01*
X20872089Y-37561141D01*
X20829232Y-37561141D01*
X20800660Y-37575426D01*
X20786375Y-37589712D01*
X21100660Y-37761141D02*
X21072089Y-37746855D01*
X21057803Y-37732569D01*
X21043517Y-37703998D01*
X21043517Y-37618284D01*
X21057803Y-37589712D01*
X21072089Y-37575426D01*
X21100660Y-37561141D01*
X21143517Y-37561141D01*
X21172089Y-37575426D01*
X21186375Y-37589712D01*
X21200660Y-37618284D01*
X21200660Y-37703998D01*
X21186375Y-37732569D01*
X21172089Y-37746855D01*
X21143517Y-37761141D01*
X21100660Y-37761141D01*
X21372089Y-37761141D02*
X21343517Y-37746855D01*
X21329232Y-37718284D01*
X21329232Y-37461141D01*
X21600660Y-37746855D02*
X21572089Y-37761141D01*
X21514946Y-37761141D01*
X21486375Y-37746855D01*
X21472089Y-37718284D01*
X21472089Y-37603998D01*
X21486375Y-37575426D01*
X21514946Y-37561141D01*
X21572089Y-37561141D01*
X21600660Y-37575426D01*
X21614946Y-37603998D01*
X21614946Y-37632569D01*
X21472089Y-37661141D01*
X21729232Y-37746855D02*
X21757803Y-37761141D01*
X21814946Y-37761141D01*
X21843517Y-37746855D01*
X21857803Y-37718284D01*
X21857803Y-37703998D01*
X21843517Y-37675426D01*
X21814946Y-37661141D01*
X21772089Y-37661141D01*
X21743517Y-37646855D01*
X21729232Y-37618284D01*
X21729232Y-37603998D01*
X21743517Y-37575426D01*
X21772089Y-37561141D01*
X21814946Y-37561141D01*
X21843517Y-37575426D01*
X21957803Y-37875426D02*
X21972089Y-37861141D01*
X22000660Y-37818284D01*
X22014946Y-37789712D01*
X22029232Y-37746855D01*
X22043517Y-37675426D01*
X22043517Y-37618284D01*
X22029232Y-37546855D01*
X22014946Y-37503998D01*
X22000660Y-37475426D01*
X21972089Y-37432569D01*
X21957803Y-37418284D01*
X22500660Y-37875426D02*
X22486375Y-37861141D01*
X22457803Y-37818284D01*
X22443517Y-37789712D01*
X22429232Y-37746855D01*
X22414946Y-37675426D01*
X22414946Y-37618284D01*
X22429232Y-37546855D01*
X22443517Y-37503998D01*
X22457803Y-37475426D01*
X22486375Y-37432569D01*
X22500660Y-37418284D01*
X22614946Y-37561141D02*
X22614946Y-37761141D01*
X22614946Y-37589712D02*
X22629232Y-37575426D01*
X22657803Y-37561141D01*
X22700660Y-37561141D01*
X22729232Y-37575426D01*
X22743517Y-37603998D01*
X22743517Y-37761141D01*
X22929232Y-37761141D02*
X22900660Y-37746855D01*
X22886375Y-37732569D01*
X22872089Y-37703998D01*
X22872089Y-37618284D01*
X22886375Y-37589712D01*
X22900660Y-37575426D01*
X22929232Y-37561141D01*
X22972089Y-37561141D01*
X23000660Y-37575426D01*
X23014946Y-37589712D01*
X23029232Y-37618284D01*
X23029232Y-37703998D01*
X23014946Y-37732569D01*
X23000660Y-37746855D01*
X22972089Y-37761141D01*
X22929232Y-37761141D01*
X23114946Y-37561141D02*
X23229232Y-37561141D01*
X23157803Y-37461141D02*
X23157803Y-37718284D01*
X23172089Y-37746855D01*
X23200660Y-37761141D01*
X23229232Y-37761141D01*
X23557803Y-37561141D02*
X23557803Y-37861141D01*
X23557803Y-37575426D02*
X23586375Y-37561141D01*
X23643517Y-37561141D01*
X23672089Y-37575426D01*
X23686375Y-37589712D01*
X23700660Y-37618284D01*
X23700660Y-37703998D01*
X23686375Y-37732569D01*
X23672089Y-37746855D01*
X23643517Y-37761141D01*
X23586375Y-37761141D01*
X23557803Y-37746855D01*
X23872089Y-37761141D02*
X23843517Y-37746855D01*
X23829232Y-37718284D01*
X23829232Y-37461141D01*
X24114946Y-37761141D02*
X24114946Y-37603998D01*
X24100660Y-37575426D01*
X24072089Y-37561141D01*
X24014946Y-37561141D01*
X23986375Y-37575426D01*
X24114946Y-37746855D02*
X24086375Y-37761141D01*
X24014946Y-37761141D01*
X23986375Y-37746855D01*
X23972089Y-37718284D01*
X23972089Y-37689712D01*
X23986375Y-37661141D01*
X24014946Y-37646855D01*
X24086375Y-37646855D01*
X24114946Y-37632569D01*
X24214946Y-37561141D02*
X24329232Y-37561141D01*
X24257803Y-37461141D02*
X24257803Y-37718284D01*
X24272089Y-37746855D01*
X24300660Y-37761141D01*
X24329232Y-37761141D01*
X24543517Y-37746855D02*
X24514946Y-37761141D01*
X24457803Y-37761141D01*
X24429232Y-37746855D01*
X24414946Y-37718284D01*
X24414946Y-37603998D01*
X24429232Y-37575426D01*
X24457803Y-37561141D01*
X24514946Y-37561141D01*
X24543517Y-37575426D01*
X24557803Y-37603998D01*
X24557803Y-37632569D01*
X24414946Y-37661141D01*
X24814946Y-37761141D02*
X24814946Y-37461141D01*
X24814946Y-37746855D02*
X24786375Y-37761141D01*
X24729232Y-37761141D01*
X24700660Y-37746855D01*
X24686375Y-37732569D01*
X24672089Y-37703998D01*
X24672089Y-37618284D01*
X24686375Y-37589712D01*
X24700660Y-37575426D01*
X24729232Y-37561141D01*
X24786375Y-37561141D01*
X24814946Y-37575426D01*
X24929232Y-37875426D02*
X24943517Y-37861141D01*
X24972089Y-37818284D01*
X24986375Y-37789712D01*
X25000660Y-37746855D01*
X25014946Y-37675426D01*
X25014946Y-37618284D01*
X25000660Y-37546855D01*
X24986375Y-37503998D01*
X24972089Y-37475426D01*
X24943517Y-37432569D01*
X24929232Y-37418284D01*
X15397421Y-38233973D02*
X15397421Y-37876880D01*
X15040328Y-37876880D01*
X15040328Y-38233973D01*
X15397421Y-38233973D01*
X15900660Y-37891141D02*
X15757803Y-37891141D01*
X15743517Y-38033998D01*
X15757803Y-38019712D01*
X15786375Y-38005426D01*
X15857803Y-38005426D01*
X15886375Y-38019712D01*
X15900660Y-38033998D01*
X15914946Y-38062569D01*
X15914946Y-38133998D01*
X15900660Y-38162569D01*
X15886375Y-38176855D01*
X15857803Y-38191141D01*
X15786375Y-38191141D01*
X15757803Y-38176855D01*
X15743517Y-38162569D01*
X16043517Y-38162569D02*
X16057803Y-38176855D01*
X16043517Y-38191141D01*
X16029232Y-38176855D01*
X16043517Y-38162569D01*
X16043517Y-38191141D01*
X16243517Y-37891141D02*
X16272089Y-37891141D01*
X16300660Y-37905426D01*
X16314946Y-37919712D01*
X16329232Y-37948284D01*
X16343517Y-38005426D01*
X16343517Y-38076855D01*
X16329232Y-38133998D01*
X16314946Y-38162569D01*
X16300660Y-38176855D01*
X16272089Y-38191141D01*
X16243517Y-38191141D01*
X16214946Y-38176855D01*
X16200660Y-38162569D01*
X16186375Y-38133998D01*
X16172089Y-38076855D01*
X16172089Y-38005426D01*
X16186375Y-37948284D01*
X16200660Y-37919712D01*
X16214946Y-37905426D01*
X16243517Y-37891141D01*
X16614946Y-37891141D02*
X16472089Y-37891141D01*
X16457803Y-38033998D01*
X16472089Y-38019712D01*
X16500660Y-38005426D01*
X16572089Y-38005426D01*
X16600660Y-38019712D01*
X16614946Y-38033998D01*
X16629232Y-38062569D01*
X16629232Y-38133998D01*
X16614946Y-38162569D01*
X16600660Y-38176855D01*
X16572089Y-38191141D01*
X16500660Y-38191141D01*
X16472089Y-38176855D01*
X16457803Y-38162569D01*
X16757803Y-38191141D02*
X16757803Y-37991141D01*
X16757803Y-38019712D02*
X16772089Y-38005426D01*
X16800660Y-37991141D01*
X16843517Y-37991141D01*
X16872089Y-38005426D01*
X16886375Y-38033998D01*
X16886375Y-38191141D01*
X16886375Y-38033998D02*
X16900660Y-38005426D01*
X16929232Y-37991141D01*
X16972089Y-37991141D01*
X17000660Y-38005426D01*
X17014946Y-38033998D01*
X17014946Y-38191141D01*
X17157803Y-38191141D02*
X17157803Y-37991141D01*
X17157803Y-38019712D02*
X17172089Y-38005426D01*
X17200660Y-37991141D01*
X17243517Y-37991141D01*
X17272089Y-38005426D01*
X17286375Y-38033998D01*
X17286375Y-38191141D01*
X17286375Y-38033998D02*
X17300660Y-38005426D01*
X17329232Y-37991141D01*
X17372089Y-37991141D01*
X17400660Y-38005426D01*
X17414946Y-38033998D01*
X17414946Y-38191141D01*
X18000660Y-37876855D02*
X17743517Y-38262569D01*
X18386375Y-37891141D02*
X18414946Y-37891141D01*
X18443517Y-37905426D01*
X18457803Y-37919712D01*
X18472089Y-37948284D01*
X18486375Y-38005426D01*
X18486375Y-38076855D01*
X18472089Y-38133998D01*
X18457803Y-38162569D01*
X18443517Y-38176855D01*
X18414946Y-38191141D01*
X18386375Y-38191141D01*
X18357803Y-38176855D01*
X18343517Y-38162569D01*
X18329232Y-38133998D01*
X18314946Y-38076855D01*
X18314946Y-38005426D01*
X18329232Y-37948284D01*
X18343517Y-37919712D01*
X18357803Y-37905426D01*
X18386375Y-37891141D01*
X18614946Y-38162569D02*
X18629232Y-38176855D01*
X18614946Y-38191141D01*
X18600660Y-38176855D01*
X18614946Y-38162569D01*
X18614946Y-38191141D01*
X18914946Y-38191141D02*
X18743517Y-38191141D01*
X18829232Y-38191141D02*
X18829232Y-37891141D01*
X18800660Y-37933998D01*
X18772089Y-37962569D01*
X18743517Y-37976855D01*
X19057803Y-38191141D02*
X19114946Y-38191141D01*
X19143517Y-38176855D01*
X19157803Y-38162569D01*
X19186375Y-38119712D01*
X19200660Y-38062569D01*
X19200660Y-37948284D01*
X19186375Y-37919712D01*
X19172089Y-37905426D01*
X19143517Y-37891141D01*
X19086375Y-37891141D01*
X19057803Y-37905426D01*
X19043517Y-37919712D01*
X19029232Y-37948284D01*
X19029232Y-38019712D01*
X19043517Y-38048284D01*
X19057803Y-38062569D01*
X19086375Y-38076855D01*
X19143517Y-38076855D01*
X19172089Y-38062569D01*
X19186375Y-38048284D01*
X19200660Y-38019712D01*
X19343517Y-38191141D02*
X19400660Y-38191141D01*
X19429232Y-38176855D01*
X19443517Y-38162569D01*
X19472089Y-38119712D01*
X19486375Y-38062569D01*
X19486375Y-37948284D01*
X19472089Y-37919712D01*
X19457803Y-37905426D01*
X19429232Y-37891141D01*
X19372089Y-37891141D01*
X19343517Y-37905426D01*
X19329232Y-37919712D01*
X19314946Y-37948284D01*
X19314946Y-38019712D01*
X19329232Y-38048284D01*
X19343517Y-38062569D01*
X19372089Y-38076855D01*
X19429232Y-38076855D01*
X19457803Y-38062569D01*
X19472089Y-38048284D01*
X19486375Y-38019712D01*
X19600660Y-37891141D02*
X19600660Y-37948284D01*
X19714946Y-37891141D02*
X19714946Y-37948284D01*
X20157803Y-38305426D02*
X20143517Y-38291141D01*
X20114946Y-38248284D01*
X20100660Y-38219712D01*
X20086375Y-38176855D01*
X20072089Y-38105426D01*
X20072089Y-38048284D01*
X20086375Y-37976855D01*
X20100660Y-37933998D01*
X20114946Y-37905426D01*
X20143517Y-37862569D01*
X20157803Y-37848284D01*
X20257803Y-37919712D02*
X20272089Y-37905426D01*
X20300660Y-37891141D01*
X20372089Y-37891141D01*
X20400660Y-37905426D01*
X20414946Y-37919712D01*
X20429232Y-37948284D01*
X20429232Y-37976855D01*
X20414946Y-38019712D01*
X20243517Y-38191141D01*
X20429232Y-38191141D01*
X20786375Y-38191141D02*
X20786375Y-37891141D01*
X20914946Y-38191141D02*
X20914946Y-38033998D01*
X20900660Y-38005426D01*
X20872089Y-37991141D01*
X20829232Y-37991141D01*
X20800660Y-38005426D01*
X20786375Y-38019712D01*
X21100660Y-38191141D02*
X21072089Y-38176855D01*
X21057803Y-38162569D01*
X21043517Y-38133998D01*
X21043517Y-38048284D01*
X21057803Y-38019712D01*
X21072089Y-38005426D01*
X21100660Y-37991141D01*
X21143517Y-37991141D01*
X21172089Y-38005426D01*
X21186375Y-38019712D01*
X21200660Y-38048284D01*
X21200660Y-38133998D01*
X21186375Y-38162569D01*
X21172089Y-38176855D01*
X21143517Y-38191141D01*
X21100660Y-38191141D01*
X21372089Y-38191141D02*
X21343517Y-38176855D01*
X21329232Y-38148284D01*
X21329232Y-37891141D01*
X21600660Y-38176855D02*
X21572089Y-38191141D01*
X21514946Y-38191141D01*
X21486375Y-38176855D01*
X21472089Y-38148284D01*
X21472089Y-38033998D01*
X21486375Y-38005426D01*
X21514946Y-37991141D01*
X21572089Y-37991141D01*
X21600660Y-38005426D01*
X21614946Y-38033998D01*
X21614946Y-38062569D01*
X21472089Y-38091141D01*
X21729232Y-38176855D02*
X21757803Y-38191141D01*
X21814946Y-38191141D01*
X21843517Y-38176855D01*
X21857803Y-38148284D01*
X21857803Y-38133998D01*
X21843517Y-38105426D01*
X21814946Y-38091141D01*
X21772089Y-38091141D01*
X21743517Y-38076855D01*
X21729232Y-38048284D01*
X21729232Y-38033998D01*
X21743517Y-38005426D01*
X21772089Y-37991141D01*
X21814946Y-37991141D01*
X21843517Y-38005426D01*
X21957803Y-38305426D02*
X21972089Y-38291141D01*
X22000660Y-38248284D01*
X22014946Y-38219712D01*
X22029232Y-38176855D01*
X22043517Y-38105426D01*
X22043517Y-38048284D01*
X22029232Y-37976855D01*
X22014946Y-37933998D01*
X22000660Y-37905426D01*
X21972089Y-37862569D01*
X21957803Y-37848284D01*
X22500660Y-38305426D02*
X22486375Y-38291141D01*
X22457803Y-38248284D01*
X22443517Y-38219712D01*
X22429232Y-38176855D01*
X22414946Y-38105426D01*
X22414946Y-38048284D01*
X22429232Y-37976855D01*
X22443517Y-37933998D01*
X22457803Y-37905426D01*
X22486375Y-37862569D01*
X22500660Y-37848284D01*
X22614946Y-37991141D02*
X22614946Y-38191141D01*
X22614946Y-38019712D02*
X22629232Y-38005426D01*
X22657803Y-37991141D01*
X22700660Y-37991141D01*
X22729232Y-38005426D01*
X22743517Y-38033998D01*
X22743517Y-38191141D01*
X22929232Y-38191141D02*
X22900660Y-38176855D01*
X22886375Y-38162569D01*
X22872089Y-38133998D01*
X22872089Y-38048284D01*
X22886375Y-38019712D01*
X22900660Y-38005426D01*
X22929232Y-37991141D01*
X22972089Y-37991141D01*
X23000660Y-38005426D01*
X23014946Y-38019712D01*
X23029232Y-38048284D01*
X23029232Y-38133998D01*
X23014946Y-38162569D01*
X23000660Y-38176855D01*
X22972089Y-38191141D01*
X22929232Y-38191141D01*
X23114946Y-37991141D02*
X23229232Y-37991141D01*
X23157803Y-37891141D02*
X23157803Y-38148284D01*
X23172089Y-38176855D01*
X23200660Y-38191141D01*
X23229232Y-38191141D01*
X23557803Y-37991141D02*
X23557803Y-38291141D01*
X23557803Y-38005426D02*
X23586375Y-37991141D01*
X23643517Y-37991141D01*
X23672089Y-38005426D01*
X23686375Y-38019712D01*
X23700660Y-38048284D01*
X23700660Y-38133998D01*
X23686375Y-38162569D01*
X23672089Y-38176855D01*
X23643517Y-38191141D01*
X23586375Y-38191141D01*
X23557803Y-38176855D01*
X23872089Y-38191141D02*
X23843517Y-38176855D01*
X23829232Y-38148284D01*
X23829232Y-37891141D01*
X24114946Y-38191141D02*
X24114946Y-38033998D01*
X24100660Y-38005426D01*
X24072089Y-37991141D01*
X24014946Y-37991141D01*
X23986375Y-38005426D01*
X24114946Y-38176855D02*
X24086375Y-38191141D01*
X24014946Y-38191141D01*
X23986375Y-38176855D01*
X23972089Y-38148284D01*
X23972089Y-38119712D01*
X23986375Y-38091141D01*
X24014946Y-38076855D01*
X24086375Y-38076855D01*
X24114946Y-38062569D01*
X24214946Y-37991141D02*
X24329232Y-37991141D01*
X24257803Y-37891141D02*
X24257803Y-38148284D01*
X24272089Y-38176855D01*
X24300660Y-38191141D01*
X24329232Y-38191141D01*
X24543517Y-38176855D02*
X24514946Y-38191141D01*
X24457803Y-38191141D01*
X24429232Y-38176855D01*
X24414946Y-38148284D01*
X24414946Y-38033998D01*
X24429232Y-38005426D01*
X24457803Y-37991141D01*
X24514946Y-37991141D01*
X24543517Y-38005426D01*
X24557803Y-38033998D01*
X24557803Y-38062569D01*
X24414946Y-38091141D01*
X24814946Y-38191141D02*
X24814946Y-37891141D01*
X24814946Y-38176855D02*
X24786375Y-38191141D01*
X24729232Y-38191141D01*
X24700660Y-38176855D01*
X24686375Y-38162569D01*
X24672089Y-38133998D01*
X24672089Y-38048284D01*
X24686375Y-38019712D01*
X24700660Y-38005426D01*
X24729232Y-37991141D01*
X24786375Y-37991141D01*
X24814946Y-38005426D01*
X24929232Y-38305426D02*
X24943517Y-38291141D01*
X24972089Y-38248284D01*
X24986375Y-38219712D01*
X25000660Y-38176855D01*
X25014946Y-38105426D01*
X25014946Y-38048284D01*
X25000660Y-37976855D01*
X24986375Y-37933998D01*
X24972089Y-37905426D01*
X24943517Y-37862569D01*
X24929232Y-37848284D01*
M02*
