G04 #@! TF.GenerationSoftware,KiCad,Pcbnew,(5.1.4)-1*
G04 #@! TF.CreationDate,2023-05-19T09:16:21-04:00*
G04 #@! TF.ProjectId,ThumbsUp,5468756d-6273-4557-902e-6b696361645f,rev?*
G04 #@! TF.SameCoordinates,Original*
G04 #@! TF.FileFunction,Copper,L1,Top*
G04 #@! TF.FilePolarity,Positive*
%FSLAX46Y46*%
G04 Gerber Fmt 4.6, Leading zero omitted, Abs format (unit mm)*
G04 Created by KiCad (PCBNEW (5.1.4)-1) date 2023-05-19 09:16:21*
%MOMM*%
%LPD*%
G04 APERTURE LIST*
%ADD10C,2.250000*%
%ADD11C,2.250000*%
%ADD12O,1.700000X1.700000*%
%ADD13R,1.700000X1.700000*%
%ADD14C,1.700000*%
%ADD15C,1.700000*%
%ADD16C,0.100000*%
%ADD17C,0.200000*%
G04 APERTURE END LIST*
D10*
X188879545Y-351351918D03*
X189534544Y-350621918D03*
D11*
X190189545Y-349891918D02*
X188879543Y-351351918D01*
D10*
X183839545Y-352431918D03*
X183859545Y-352141918D03*
D11*
X183879545Y-351851918D02*
X183839545Y-352431918D01*
D10*
X169800000Y-351351918D03*
X170454999Y-350621918D03*
D11*
X171110000Y-349891918D02*
X169799998Y-351351918D01*
D10*
X164760000Y-352431918D03*
X164780000Y-352141918D03*
D11*
X164800000Y-351851918D02*
X164760000Y-352431918D01*
D12*
X156554489Y-353479102D03*
X156554489Y-350939102D03*
X156554489Y-348399102D03*
D13*
X156554489Y-345859102D03*
D14*
X161731252Y-333404931D03*
D15*
X161731252Y-333404931D02*
X161731252Y-333404931D01*
D14*
X164184704Y-334062331D03*
D15*
X164184704Y-334062331D02*
X164184704Y-334062331D01*
D14*
X166638155Y-334719732D03*
D15*
X166638155Y-334719732D02*
X166638155Y-334719732D01*
D14*
X169091607Y-335377132D03*
D16*
G36*
X169692648Y-336418165D02*
G01*
X168050574Y-335978173D01*
X168490566Y-334336099D01*
X170132640Y-334776091D01*
X169692648Y-336418165D01*
X169692648Y-336418165D01*
G37*
D12*
X195276987Y-356963573D03*
X195276987Y-354423573D03*
X195276987Y-351883573D03*
D13*
X195276987Y-349343573D03*
D12*
X182686132Y-357031045D03*
X185226132Y-357031045D03*
X187766132Y-357031045D03*
D13*
X190306132Y-357031045D03*
D17*
X185226132Y-357031045D02*
X185226132Y-353818505D01*
X183879545Y-352471918D02*
X183879545Y-351851918D01*
X185226132Y-353818505D02*
X183879545Y-352471918D01*
X177399128Y-356181046D02*
X171110000Y-349891918D01*
X182686132Y-357031045D02*
X181836133Y-356181046D01*
X181836133Y-356181046D02*
X177399128Y-356181046D01*
M02*
