G04 #@! TF.GenerationSoftware,KiCad,Pcbnew,(5.1.4)-1*
G04 #@! TF.CreationDate,2023-05-19T09:16:21-04:00*
G04 #@! TF.ProjectId,ThumbsUp,5468756d-6273-4557-902e-6b696361645f,rev?*
G04 #@! TF.SameCoordinates,Original*
G04 #@! TF.FileFunction,Soldermask,Bot*
G04 #@! TF.FilePolarity,Negative*
%FSLAX46Y46*%
G04 Gerber Fmt 4.6, Leading zero omitted, Abs format (unit mm)*
G04 Created by KiCad (PCBNEW (5.1.4)-1) date 2023-05-19 09:16:21*
%MOMM*%
%LPD*%
G04 APERTURE LIST*
%ADD10C,0.100000*%
G04 APERTURE END LIST*
D10*
G36*
X191207132Y-357932045D02*
G01*
X189405132Y-357932045D01*
X189405132Y-356130045D01*
X191207132Y-356130045D01*
X191207132Y-357932045D01*
X191207132Y-357932045D01*
G37*
G36*
X185336574Y-356136563D02*
G01*
X185402759Y-356143082D01*
X185572598Y-356194602D01*
X185729123Y-356278267D01*
X185764861Y-356307597D01*
X185866318Y-356390859D01*
X185949580Y-356492316D01*
X185978910Y-356528054D01*
X186062575Y-356684579D01*
X186114095Y-356854418D01*
X186131491Y-357031045D01*
X186114095Y-357207672D01*
X186062575Y-357377511D01*
X185978910Y-357534036D01*
X185949580Y-357569774D01*
X185866318Y-357671231D01*
X185764861Y-357754493D01*
X185729123Y-357783823D01*
X185572598Y-357867488D01*
X185402759Y-357919008D01*
X185336574Y-357925527D01*
X185270392Y-357932045D01*
X185181872Y-357932045D01*
X185115690Y-357925527D01*
X185049505Y-357919008D01*
X184879666Y-357867488D01*
X184723141Y-357783823D01*
X184687403Y-357754493D01*
X184585946Y-357671231D01*
X184502684Y-357569774D01*
X184473354Y-357534036D01*
X184389689Y-357377511D01*
X184338169Y-357207672D01*
X184320773Y-357031045D01*
X184338169Y-356854418D01*
X184389689Y-356684579D01*
X184473354Y-356528054D01*
X184502684Y-356492316D01*
X184585946Y-356390859D01*
X184687403Y-356307597D01*
X184723141Y-356278267D01*
X184879666Y-356194602D01*
X185049505Y-356143082D01*
X185115690Y-356136563D01*
X185181872Y-356130045D01*
X185270392Y-356130045D01*
X185336574Y-356136563D01*
X185336574Y-356136563D01*
G37*
G36*
X182796574Y-356136563D02*
G01*
X182862759Y-356143082D01*
X183032598Y-356194602D01*
X183189123Y-356278267D01*
X183224861Y-356307597D01*
X183326318Y-356390859D01*
X183409580Y-356492316D01*
X183438910Y-356528054D01*
X183522575Y-356684579D01*
X183574095Y-356854418D01*
X183591491Y-357031045D01*
X183574095Y-357207672D01*
X183522575Y-357377511D01*
X183438910Y-357534036D01*
X183409580Y-357569774D01*
X183326318Y-357671231D01*
X183224861Y-357754493D01*
X183189123Y-357783823D01*
X183032598Y-357867488D01*
X182862759Y-357919008D01*
X182796574Y-357925527D01*
X182730392Y-357932045D01*
X182641872Y-357932045D01*
X182575690Y-357925527D01*
X182509505Y-357919008D01*
X182339666Y-357867488D01*
X182183141Y-357783823D01*
X182147403Y-357754493D01*
X182045946Y-357671231D01*
X181962684Y-357569774D01*
X181933354Y-357534036D01*
X181849689Y-357377511D01*
X181798169Y-357207672D01*
X181780773Y-357031045D01*
X181798169Y-356854418D01*
X181849689Y-356684579D01*
X181933354Y-356528054D01*
X181962684Y-356492316D01*
X182045946Y-356390859D01*
X182147403Y-356307597D01*
X182183141Y-356278267D01*
X182339666Y-356194602D01*
X182509505Y-356143082D01*
X182575690Y-356136563D01*
X182641872Y-356130045D01*
X182730392Y-356130045D01*
X182796574Y-356136563D01*
X182796574Y-356136563D01*
G37*
G36*
X187876574Y-356136563D02*
G01*
X187942759Y-356143082D01*
X188112598Y-356194602D01*
X188269123Y-356278267D01*
X188304861Y-356307597D01*
X188406318Y-356390859D01*
X188489580Y-356492316D01*
X188518910Y-356528054D01*
X188602575Y-356684579D01*
X188654095Y-356854418D01*
X188671491Y-357031045D01*
X188654095Y-357207672D01*
X188602575Y-357377511D01*
X188518910Y-357534036D01*
X188489580Y-357569774D01*
X188406318Y-357671231D01*
X188304861Y-357754493D01*
X188269123Y-357783823D01*
X188112598Y-357867488D01*
X187942759Y-357919008D01*
X187876574Y-357925527D01*
X187810392Y-357932045D01*
X187721872Y-357932045D01*
X187655690Y-357925527D01*
X187589505Y-357919008D01*
X187419666Y-357867488D01*
X187263141Y-357783823D01*
X187227403Y-357754493D01*
X187125946Y-357671231D01*
X187042684Y-357569774D01*
X187013354Y-357534036D01*
X186929689Y-357377511D01*
X186878169Y-357207672D01*
X186860773Y-357031045D01*
X186878169Y-356854418D01*
X186929689Y-356684579D01*
X187013354Y-356528054D01*
X187042684Y-356492316D01*
X187125946Y-356390859D01*
X187227403Y-356307597D01*
X187263141Y-356278267D01*
X187419666Y-356194602D01*
X187589505Y-356143082D01*
X187655690Y-356136563D01*
X187721872Y-356130045D01*
X187810392Y-356130045D01*
X187876574Y-356136563D01*
X187876574Y-356136563D01*
G37*
G36*
X195387430Y-356069092D02*
G01*
X195453614Y-356075610D01*
X195623453Y-356127130D01*
X195779978Y-356210795D01*
X195815716Y-356240125D01*
X195917173Y-356323387D01*
X196000435Y-356424844D01*
X196029765Y-356460582D01*
X196113430Y-356617107D01*
X196164950Y-356786946D01*
X196182346Y-356963573D01*
X196164950Y-357140200D01*
X196113430Y-357310039D01*
X196029765Y-357466564D01*
X196000435Y-357502302D01*
X195917173Y-357603759D01*
X195815716Y-357687021D01*
X195779978Y-357716351D01*
X195623453Y-357800016D01*
X195453614Y-357851536D01*
X195387430Y-357858054D01*
X195321247Y-357864573D01*
X195232727Y-357864573D01*
X195166544Y-357858054D01*
X195100360Y-357851536D01*
X194930521Y-357800016D01*
X194773996Y-357716351D01*
X194738258Y-357687021D01*
X194636801Y-357603759D01*
X194553539Y-357502302D01*
X194524209Y-357466564D01*
X194440544Y-357310039D01*
X194389024Y-357140200D01*
X194371628Y-356963573D01*
X194389024Y-356786946D01*
X194440544Y-356617107D01*
X194524209Y-356460582D01*
X194553539Y-356424844D01*
X194636801Y-356323387D01*
X194738258Y-356240125D01*
X194773996Y-356210795D01*
X194930521Y-356127130D01*
X195100360Y-356075610D01*
X195166544Y-356069092D01*
X195232727Y-356062573D01*
X195321247Y-356062573D01*
X195387430Y-356069092D01*
X195387430Y-356069092D01*
G37*
G36*
X195387429Y-353529091D02*
G01*
X195453614Y-353535610D01*
X195623453Y-353587130D01*
X195779978Y-353670795D01*
X195815716Y-353700125D01*
X195917173Y-353783387D01*
X196000435Y-353884844D01*
X196029765Y-353920582D01*
X196113430Y-354077107D01*
X196164950Y-354246946D01*
X196182346Y-354423573D01*
X196164950Y-354600200D01*
X196113430Y-354770039D01*
X196029765Y-354926564D01*
X196000435Y-354962302D01*
X195917173Y-355063759D01*
X195815716Y-355147021D01*
X195779978Y-355176351D01*
X195623453Y-355260016D01*
X195453614Y-355311536D01*
X195387429Y-355318055D01*
X195321247Y-355324573D01*
X195232727Y-355324573D01*
X195166545Y-355318055D01*
X195100360Y-355311536D01*
X194930521Y-355260016D01*
X194773996Y-355176351D01*
X194738258Y-355147021D01*
X194636801Y-355063759D01*
X194553539Y-354962302D01*
X194524209Y-354926564D01*
X194440544Y-354770039D01*
X194389024Y-354600200D01*
X194371628Y-354423573D01*
X194389024Y-354246946D01*
X194440544Y-354077107D01*
X194524209Y-353920582D01*
X194553539Y-353884844D01*
X194636801Y-353783387D01*
X194738258Y-353700125D01*
X194773996Y-353670795D01*
X194930521Y-353587130D01*
X195100360Y-353535610D01*
X195166545Y-353529091D01*
X195232727Y-353522573D01*
X195321247Y-353522573D01*
X195387429Y-353529091D01*
X195387429Y-353529091D01*
G37*
G36*
X156664932Y-352584621D02*
G01*
X156731116Y-352591139D01*
X156900955Y-352642659D01*
X156900957Y-352642660D01*
X156907720Y-352646275D01*
X157057480Y-352726324D01*
X157076147Y-352741644D01*
X157194675Y-352838916D01*
X157277937Y-352940373D01*
X157307267Y-352976111D01*
X157307268Y-352976113D01*
X157374060Y-353101070D01*
X157390932Y-353132636D01*
X157442452Y-353302475D01*
X157459848Y-353479102D01*
X157442452Y-353655729D01*
X157390932Y-353825568D01*
X157307267Y-353982093D01*
X157277937Y-354017831D01*
X157194675Y-354119288D01*
X157093218Y-354202550D01*
X157057480Y-354231880D01*
X156900955Y-354315545D01*
X156731116Y-354367065D01*
X156664931Y-354373584D01*
X156598749Y-354380102D01*
X156510229Y-354380102D01*
X156444047Y-354373584D01*
X156377862Y-354367065D01*
X156208023Y-354315545D01*
X156051498Y-354231880D01*
X156015760Y-354202550D01*
X155914303Y-354119288D01*
X155831041Y-354017831D01*
X155801711Y-353982093D01*
X155718046Y-353825568D01*
X155666526Y-353655729D01*
X155649130Y-353479102D01*
X155666526Y-353302475D01*
X155718046Y-353132636D01*
X155734919Y-353101070D01*
X155801710Y-352976113D01*
X155801711Y-352976111D01*
X155831041Y-352940373D01*
X155914303Y-352838916D01*
X156032831Y-352741644D01*
X156051498Y-352726324D01*
X156201258Y-352646275D01*
X156208021Y-352642660D01*
X156208023Y-352642659D01*
X156377862Y-352591139D01*
X156444046Y-352584621D01*
X156510229Y-352578102D01*
X156598749Y-352578102D01*
X156664932Y-352584621D01*
X156664932Y-352584621D01*
G37*
G36*
X165109730Y-350711542D02*
G01*
X165326255Y-350793879D01*
X165522557Y-350916877D01*
X165691090Y-351075807D01*
X165825380Y-351264563D01*
X165920265Y-351475891D01*
X165972098Y-351701669D01*
X165977188Y-351875195D01*
X165936407Y-352466509D01*
X165936296Y-352468122D01*
X165936000Y-352476722D01*
X165936000Y-352547745D01*
X165917118Y-352642671D01*
X165916456Y-352646275D01*
X165900376Y-352741648D01*
X165897915Y-352748121D01*
X165892159Y-352768146D01*
X165890807Y-352774945D01*
X165879928Y-352801209D01*
X165853763Y-352864378D01*
X165852411Y-352867782D01*
X165818038Y-352958173D01*
X165814364Y-352964037D01*
X165804813Y-352982553D01*
X165802158Y-352988963D01*
X165748343Y-353069503D01*
X165746423Y-353072469D01*
X165695041Y-353154475D01*
X165690289Y-353159514D01*
X165677311Y-353175811D01*
X165673463Y-353181570D01*
X165604997Y-353250036D01*
X165602476Y-353252633D01*
X165536111Y-353323008D01*
X165530478Y-353327016D01*
X165514556Y-353340477D01*
X165509656Y-353345377D01*
X165429152Y-353399168D01*
X165426202Y-353401202D01*
X165347355Y-353457298D01*
X165341033Y-353460137D01*
X165322810Y-353470224D01*
X165317045Y-353474076D01*
X165227535Y-353511152D01*
X165224372Y-353512517D01*
X165136027Y-353552183D01*
X165129275Y-353553733D01*
X165109438Y-353560070D01*
X165103027Y-353562725D01*
X165008050Y-353581617D01*
X165004599Y-353582356D01*
X164910249Y-353604016D01*
X164903341Y-353604219D01*
X164882630Y-353606565D01*
X164875826Y-353607918D01*
X164779027Y-353607918D01*
X164775363Y-353607972D01*
X164678698Y-353610807D01*
X164678697Y-353610807D01*
X164671882Y-353609658D01*
X164651100Y-353607918D01*
X164644173Y-353607918D01*
X164549246Y-353589036D01*
X164545642Y-353588374D01*
X164518781Y-353583845D01*
X164450270Y-353572294D01*
X164443797Y-353569833D01*
X164423772Y-353564077D01*
X164416973Y-353562725D01*
X164351511Y-353535610D01*
X164327540Y-353525681D01*
X164324136Y-353524329D01*
X164293224Y-353512574D01*
X164233745Y-353489956D01*
X164227881Y-353486282D01*
X164209365Y-353476731D01*
X164202955Y-353474076D01*
X164122415Y-353420261D01*
X164119449Y-353418341D01*
X164037443Y-353366959D01*
X164032404Y-353362207D01*
X164016107Y-353349229D01*
X164010348Y-353345381D01*
X163941882Y-353276915D01*
X163939285Y-353274394D01*
X163868910Y-353208029D01*
X163864902Y-353202396D01*
X163851441Y-353186474D01*
X163846541Y-353181574D01*
X163792750Y-353101070D01*
X163790716Y-353098120D01*
X163734620Y-353019273D01*
X163731781Y-353012951D01*
X163721693Y-352994726D01*
X163717842Y-352988963D01*
X163680766Y-352899453D01*
X163679401Y-352896290D01*
X163639735Y-352807945D01*
X163638185Y-352801193D01*
X163631848Y-352781356D01*
X163629193Y-352774945D01*
X163610301Y-352679968D01*
X163609562Y-352676517D01*
X163587902Y-352582167D01*
X163587699Y-352575258D01*
X163585353Y-352554548D01*
X163584000Y-352547744D01*
X163584000Y-352450933D01*
X163583947Y-352447333D01*
X163582812Y-352408641D01*
X163583705Y-352395692D01*
X163584000Y-352387122D01*
X163584000Y-352316091D01*
X163590396Y-352283937D01*
X163592500Y-352268166D01*
X163630762Y-351713373D01*
X163659624Y-351542188D01*
X163741962Y-351325663D01*
X163864959Y-351129361D01*
X163970912Y-351017006D01*
X164023888Y-350960828D01*
X164143991Y-350875382D01*
X164212645Y-350826538D01*
X164423973Y-350731653D01*
X164649751Y-350679819D01*
X164881302Y-350673028D01*
X165109730Y-350711542D01*
X165109730Y-350711542D01*
G37*
G36*
X184189275Y-350711542D02*
G01*
X184405800Y-350793879D01*
X184602102Y-350916877D01*
X184770635Y-351075807D01*
X184904925Y-351264563D01*
X184999810Y-351475891D01*
X185051643Y-351701669D01*
X185056733Y-351875195D01*
X185015952Y-352466509D01*
X185015841Y-352468122D01*
X185015545Y-352476722D01*
X185015545Y-352547745D01*
X184996663Y-352642671D01*
X184996001Y-352646275D01*
X184979921Y-352741648D01*
X184977460Y-352748121D01*
X184971704Y-352768146D01*
X184970352Y-352774945D01*
X184959473Y-352801209D01*
X184933308Y-352864378D01*
X184931956Y-352867782D01*
X184897583Y-352958173D01*
X184893909Y-352964037D01*
X184884358Y-352982553D01*
X184881703Y-352988963D01*
X184827888Y-353069503D01*
X184825968Y-353072469D01*
X184774586Y-353154475D01*
X184769834Y-353159514D01*
X184756856Y-353175811D01*
X184753008Y-353181570D01*
X184684542Y-353250036D01*
X184682021Y-353252633D01*
X184615656Y-353323008D01*
X184610023Y-353327016D01*
X184594101Y-353340477D01*
X184589201Y-353345377D01*
X184508697Y-353399168D01*
X184505747Y-353401202D01*
X184426900Y-353457298D01*
X184420578Y-353460137D01*
X184402355Y-353470224D01*
X184396590Y-353474076D01*
X184307080Y-353511152D01*
X184303917Y-353512517D01*
X184215572Y-353552183D01*
X184208820Y-353553733D01*
X184188983Y-353560070D01*
X184182572Y-353562725D01*
X184087595Y-353581617D01*
X184084144Y-353582356D01*
X183989794Y-353604016D01*
X183982886Y-353604219D01*
X183962175Y-353606565D01*
X183955371Y-353607918D01*
X183858572Y-353607918D01*
X183854908Y-353607972D01*
X183758243Y-353610807D01*
X183758242Y-353610807D01*
X183751427Y-353609658D01*
X183730645Y-353607918D01*
X183723718Y-353607918D01*
X183628791Y-353589036D01*
X183625187Y-353588374D01*
X183598326Y-353583845D01*
X183529815Y-353572294D01*
X183523342Y-353569833D01*
X183503317Y-353564077D01*
X183496518Y-353562725D01*
X183431056Y-353535610D01*
X183407085Y-353525681D01*
X183403681Y-353524329D01*
X183372769Y-353512574D01*
X183313290Y-353489956D01*
X183307426Y-353486282D01*
X183288910Y-353476731D01*
X183282500Y-353474076D01*
X183201960Y-353420261D01*
X183198994Y-353418341D01*
X183116988Y-353366959D01*
X183111949Y-353362207D01*
X183095652Y-353349229D01*
X183089893Y-353345381D01*
X183021427Y-353276915D01*
X183018830Y-353274394D01*
X182948455Y-353208029D01*
X182944447Y-353202396D01*
X182930986Y-353186474D01*
X182926086Y-353181574D01*
X182872295Y-353101070D01*
X182870261Y-353098120D01*
X182814165Y-353019273D01*
X182811326Y-353012951D01*
X182801238Y-352994726D01*
X182797387Y-352988963D01*
X182760311Y-352899453D01*
X182758946Y-352896290D01*
X182719280Y-352807945D01*
X182717730Y-352801193D01*
X182711393Y-352781356D01*
X182708738Y-352774945D01*
X182689846Y-352679968D01*
X182689107Y-352676517D01*
X182667447Y-352582167D01*
X182667244Y-352575258D01*
X182664898Y-352554548D01*
X182663545Y-352547744D01*
X182663545Y-352450933D01*
X182663492Y-352447333D01*
X182662357Y-352408641D01*
X182663250Y-352395692D01*
X182663545Y-352387122D01*
X182663545Y-352316091D01*
X182669941Y-352283937D01*
X182672045Y-352268166D01*
X182710307Y-351713373D01*
X182739169Y-351542188D01*
X182821507Y-351325663D01*
X182944504Y-351129361D01*
X183050457Y-351017006D01*
X183103433Y-350960828D01*
X183223536Y-350875382D01*
X183292190Y-350826538D01*
X183503518Y-350731653D01*
X183729296Y-350679819D01*
X183960847Y-350673028D01*
X184189275Y-350711542D01*
X184189275Y-350711542D01*
G37*
G36*
X195387430Y-350989092D02*
G01*
X195453614Y-350995610D01*
X195623453Y-351047130D01*
X195623455Y-351047131D01*
X195677107Y-351075809D01*
X195779978Y-351130795D01*
X195815716Y-351160125D01*
X195917173Y-351243387D01*
X195987217Y-351328737D01*
X196029765Y-351380582D01*
X196113430Y-351537107D01*
X196164950Y-351706946D01*
X196182346Y-351883573D01*
X196164950Y-352060200D01*
X196113430Y-352230039D01*
X196029765Y-352386564D01*
X196004288Y-352417607D01*
X195917173Y-352523759D01*
X195835069Y-352591139D01*
X195779978Y-352636351D01*
X195623453Y-352720016D01*
X195453614Y-352771536D01*
X195387429Y-352778055D01*
X195321247Y-352784573D01*
X195232727Y-352784573D01*
X195166545Y-352778055D01*
X195100360Y-352771536D01*
X194930521Y-352720016D01*
X194773996Y-352636351D01*
X194718905Y-352591139D01*
X194636801Y-352523759D01*
X194549686Y-352417607D01*
X194524209Y-352386564D01*
X194440544Y-352230039D01*
X194389024Y-352060200D01*
X194371628Y-351883573D01*
X194389024Y-351706946D01*
X194440544Y-351537107D01*
X194524209Y-351380582D01*
X194566757Y-351328737D01*
X194636801Y-351243387D01*
X194738258Y-351160125D01*
X194773996Y-351130795D01*
X194876867Y-351075809D01*
X194930519Y-351047131D01*
X194930521Y-351047130D01*
X195100360Y-350995610D01*
X195166544Y-350989092D01*
X195232727Y-350982573D01*
X195321247Y-350982573D01*
X195387430Y-350989092D01*
X195387430Y-350989092D01*
G37*
G36*
X171277530Y-348722164D02*
G01*
X171502519Y-348777325D01*
X171612973Y-348828890D01*
X171712421Y-348875316D01*
X171712423Y-348875318D01*
X171712424Y-348875318D01*
X171899177Y-349012379D01*
X172055603Y-349183239D01*
X172175689Y-349381335D01*
X172254823Y-349599052D01*
X172289961Y-349828022D01*
X172279754Y-350059449D01*
X172224593Y-350284438D01*
X172173028Y-350394891D01*
X172126602Y-350494339D01*
X172126600Y-350494341D01*
X172126600Y-350494342D01*
X172023886Y-350634296D01*
X170744477Y-352060200D01*
X170737215Y-352068293D01*
X170726320Y-352082327D01*
X170713461Y-352101572D01*
X170656418Y-352158615D01*
X170651768Y-352163524D01*
X170636721Y-352180294D01*
X170615309Y-352199897D01*
X170611328Y-352203705D01*
X170549656Y-352265377D01*
X170535850Y-352274602D01*
X170520892Y-352286336D01*
X170508674Y-352297522D01*
X170434204Y-352342666D01*
X170429557Y-352345625D01*
X170357045Y-352394076D01*
X170357044Y-352394077D01*
X170357043Y-352394077D01*
X170341708Y-352400429D01*
X170324751Y-352409017D01*
X170310581Y-352417607D01*
X170228711Y-352447364D01*
X170223605Y-352449349D01*
X170143027Y-352482725D01*
X170126748Y-352485963D01*
X170108453Y-352491075D01*
X170092864Y-352496741D01*
X170006715Y-352509962D01*
X170001338Y-352510909D01*
X169915827Y-352527918D01*
X169899233Y-352527918D01*
X169880290Y-352529363D01*
X169863893Y-352531879D01*
X169776794Y-352528038D01*
X169771354Y-352527918D01*
X169684172Y-352527918D01*
X169667903Y-352524682D01*
X169649044Y-352522403D01*
X169632468Y-352521672D01*
X169547777Y-352500908D01*
X169542482Y-352499734D01*
X169456973Y-352482725D01*
X169441638Y-352476373D01*
X169423599Y-352470463D01*
X169407479Y-352466511D01*
X169328503Y-352429641D01*
X169323506Y-352427441D01*
X169242955Y-352394076D01*
X169229159Y-352384858D01*
X169212603Y-352375534D01*
X169197575Y-352368518D01*
X169127320Y-352316957D01*
X169122808Y-352313796D01*
X169050344Y-352265377D01*
X169038617Y-352253650D01*
X169024191Y-352241269D01*
X169010821Y-352231457D01*
X168981927Y-352199897D01*
X168951979Y-352167185D01*
X168948171Y-352163204D01*
X168886542Y-352101575D01*
X168886540Y-352101572D01*
X168877326Y-352087783D01*
X168865592Y-352072825D01*
X168854394Y-352060594D01*
X168809218Y-351986070D01*
X168806285Y-351981462D01*
X168757842Y-351908963D01*
X168751495Y-351893640D01*
X168742906Y-351876682D01*
X168734309Y-351862501D01*
X168704532Y-351780576D01*
X168702553Y-351775483D01*
X168669193Y-351694945D01*
X168665958Y-351678681D01*
X168660846Y-351660386D01*
X168655175Y-351644784D01*
X168641945Y-351558576D01*
X168640999Y-351553205D01*
X168624000Y-351467745D01*
X168624000Y-351451166D01*
X168622555Y-351432224D01*
X168620037Y-351415813D01*
X168623881Y-351328669D01*
X168624000Y-351323229D01*
X168624000Y-351236093D01*
X168627234Y-351219835D01*
X168629512Y-351200977D01*
X168630244Y-351184388D01*
X168651008Y-351099696D01*
X168652192Y-351094360D01*
X168661587Y-351047130D01*
X168669193Y-351008891D01*
X168675538Y-350993572D01*
X168681454Y-350975514D01*
X168685405Y-350959399D01*
X168722288Y-350880395D01*
X168724480Y-350875415D01*
X168757842Y-350794873D01*
X168767052Y-350781090D01*
X168776382Y-350764523D01*
X168783397Y-350749496D01*
X168834965Y-350679232D01*
X168838126Y-350674720D01*
X168865137Y-350634296D01*
X168886541Y-350602262D01*
X168943547Y-350545256D01*
X168948183Y-350540362D01*
X169988134Y-349381334D01*
X170273276Y-349063542D01*
X170401318Y-348946318D01*
X170401317Y-348946318D01*
X170401321Y-348946315D01*
X170599416Y-348826229D01*
X170817133Y-348747095D01*
X171046104Y-348711957D01*
X171277530Y-348722164D01*
X171277530Y-348722164D01*
G37*
G36*
X190357075Y-348722164D02*
G01*
X190582064Y-348777325D01*
X190692518Y-348828890D01*
X190791966Y-348875316D01*
X190791968Y-348875318D01*
X190791969Y-348875318D01*
X190978722Y-349012379D01*
X191135148Y-349183239D01*
X191255234Y-349381335D01*
X191334368Y-349599052D01*
X191369506Y-349828022D01*
X191359299Y-350059449D01*
X191304138Y-350284438D01*
X191252573Y-350394891D01*
X191206147Y-350494339D01*
X191206145Y-350494341D01*
X191206145Y-350494342D01*
X191103431Y-350634296D01*
X189824022Y-352060200D01*
X189816760Y-352068293D01*
X189805865Y-352082327D01*
X189793006Y-352101572D01*
X189735963Y-352158615D01*
X189731313Y-352163524D01*
X189716266Y-352180294D01*
X189694854Y-352199897D01*
X189690873Y-352203705D01*
X189629201Y-352265377D01*
X189615395Y-352274602D01*
X189600437Y-352286336D01*
X189588219Y-352297522D01*
X189513749Y-352342666D01*
X189509102Y-352345625D01*
X189436590Y-352394076D01*
X189436589Y-352394077D01*
X189436588Y-352394077D01*
X189421253Y-352400429D01*
X189404296Y-352409017D01*
X189390126Y-352417607D01*
X189308256Y-352447364D01*
X189303150Y-352449349D01*
X189222572Y-352482725D01*
X189206293Y-352485963D01*
X189187998Y-352491075D01*
X189172409Y-352496741D01*
X189086260Y-352509962D01*
X189080883Y-352510909D01*
X188995372Y-352527918D01*
X188978778Y-352527918D01*
X188959835Y-352529363D01*
X188943438Y-352531879D01*
X188856339Y-352528038D01*
X188850899Y-352527918D01*
X188763717Y-352527918D01*
X188747448Y-352524682D01*
X188728589Y-352522403D01*
X188712013Y-352521672D01*
X188627322Y-352500908D01*
X188622027Y-352499734D01*
X188536518Y-352482725D01*
X188521183Y-352476373D01*
X188503144Y-352470463D01*
X188487024Y-352466511D01*
X188408048Y-352429641D01*
X188403051Y-352427441D01*
X188322500Y-352394076D01*
X188308704Y-352384858D01*
X188292148Y-352375534D01*
X188277120Y-352368518D01*
X188206865Y-352316957D01*
X188202353Y-352313796D01*
X188129889Y-352265377D01*
X188118162Y-352253650D01*
X188103736Y-352241269D01*
X188090366Y-352231457D01*
X188061472Y-352199897D01*
X188031524Y-352167185D01*
X188027716Y-352163204D01*
X187966087Y-352101575D01*
X187966085Y-352101572D01*
X187956871Y-352087783D01*
X187945137Y-352072825D01*
X187933939Y-352060594D01*
X187888763Y-351986070D01*
X187885830Y-351981462D01*
X187837387Y-351908963D01*
X187831040Y-351893640D01*
X187822451Y-351876682D01*
X187813854Y-351862501D01*
X187784077Y-351780576D01*
X187782098Y-351775483D01*
X187748738Y-351694945D01*
X187745503Y-351678681D01*
X187740391Y-351660386D01*
X187734720Y-351644784D01*
X187721490Y-351558576D01*
X187720544Y-351553205D01*
X187703545Y-351467745D01*
X187703545Y-351451166D01*
X187702100Y-351432224D01*
X187699582Y-351415813D01*
X187703426Y-351328669D01*
X187703545Y-351323229D01*
X187703545Y-351236093D01*
X187706779Y-351219835D01*
X187709057Y-351200977D01*
X187709789Y-351184388D01*
X187730553Y-351099696D01*
X187731737Y-351094360D01*
X187741132Y-351047130D01*
X187748738Y-351008891D01*
X187755083Y-350993572D01*
X187760999Y-350975514D01*
X187764950Y-350959399D01*
X187801833Y-350880395D01*
X187804025Y-350875415D01*
X187837387Y-350794873D01*
X187846597Y-350781090D01*
X187855927Y-350764523D01*
X187862942Y-350749496D01*
X187914510Y-350679232D01*
X187917671Y-350674720D01*
X187944682Y-350634296D01*
X187966086Y-350602262D01*
X188023092Y-350545256D01*
X188027728Y-350540362D01*
X189067679Y-349381334D01*
X189352821Y-349063542D01*
X189480863Y-348946318D01*
X189480862Y-348946318D01*
X189480866Y-348946315D01*
X189678961Y-348826229D01*
X189896678Y-348747095D01*
X190125649Y-348711957D01*
X190357075Y-348722164D01*
X190357075Y-348722164D01*
G37*
G36*
X156664932Y-350044621D02*
G01*
X156731116Y-350051139D01*
X156900955Y-350102659D01*
X157057480Y-350186324D01*
X157093218Y-350215654D01*
X157194675Y-350298916D01*
X157277937Y-350400373D01*
X157307267Y-350436111D01*
X157390932Y-350592636D01*
X157442452Y-350762475D01*
X157459848Y-350939102D01*
X157442452Y-351115729D01*
X157390932Y-351285568D01*
X157307267Y-351442093D01*
X157277937Y-351477831D01*
X157194675Y-351579288D01*
X157114865Y-351644785D01*
X157057480Y-351691880D01*
X157029294Y-351706946D01*
X156901124Y-351775455D01*
X156900955Y-351775545D01*
X156731116Y-351827065D01*
X156664931Y-351833584D01*
X156598749Y-351840102D01*
X156510229Y-351840102D01*
X156444047Y-351833584D01*
X156377862Y-351827065D01*
X156208023Y-351775545D01*
X156207855Y-351775455D01*
X156079684Y-351706946D01*
X156051498Y-351691880D01*
X155994113Y-351644785D01*
X155914303Y-351579288D01*
X155831041Y-351477831D01*
X155801711Y-351442093D01*
X155718046Y-351285568D01*
X155666526Y-351115729D01*
X155649130Y-350939102D01*
X155666526Y-350762475D01*
X155718046Y-350592636D01*
X155801711Y-350436111D01*
X155831041Y-350400373D01*
X155914303Y-350298916D01*
X156015760Y-350215654D01*
X156051498Y-350186324D01*
X156208023Y-350102659D01*
X156377862Y-350051139D01*
X156444046Y-350044621D01*
X156510229Y-350038102D01*
X156598749Y-350038102D01*
X156664932Y-350044621D01*
X156664932Y-350044621D01*
G37*
G36*
X196177987Y-350244573D02*
G01*
X194375987Y-350244573D01*
X194375987Y-348442573D01*
X196177987Y-348442573D01*
X196177987Y-350244573D01*
X196177987Y-350244573D01*
G37*
G36*
X167896474Y-345385602D02*
G01*
X168114474Y-345475901D01*
X168268623Y-345539751D01*
X168603548Y-345763541D01*
X168888377Y-346048370D01*
X169112167Y-346383295D01*
X169144562Y-346461504D01*
X169266316Y-346755444D01*
X169344900Y-347150512D01*
X169344900Y-347553324D01*
X169266316Y-347948392D01*
X169215451Y-348071190D01*
X169112167Y-348320541D01*
X168888377Y-348655466D01*
X168603548Y-348940295D01*
X168268623Y-349164085D01*
X168114474Y-349227935D01*
X167896474Y-349318234D01*
X167501406Y-349396818D01*
X167098594Y-349396818D01*
X166703526Y-349318234D01*
X166485526Y-349227935D01*
X166331377Y-349164085D01*
X165996452Y-348940295D01*
X165711623Y-348655466D01*
X165487833Y-348320541D01*
X165384549Y-348071190D01*
X165333684Y-347948392D01*
X165255100Y-347553324D01*
X165255100Y-347150512D01*
X165333684Y-346755444D01*
X165455438Y-346461504D01*
X165487833Y-346383295D01*
X165711623Y-346048370D01*
X165996452Y-345763541D01*
X166331377Y-345539751D01*
X166485526Y-345475901D01*
X166703526Y-345385602D01*
X167098594Y-345307018D01*
X167501406Y-345307018D01*
X167896474Y-345385602D01*
X167896474Y-345385602D01*
G37*
G36*
X186976019Y-345385602D02*
G01*
X187194019Y-345475901D01*
X187348168Y-345539751D01*
X187683093Y-345763541D01*
X187967922Y-346048370D01*
X188191712Y-346383295D01*
X188224107Y-346461504D01*
X188345861Y-346755444D01*
X188424445Y-347150512D01*
X188424445Y-347553324D01*
X188345861Y-347948392D01*
X188294996Y-348071190D01*
X188191712Y-348320541D01*
X187967922Y-348655466D01*
X187683093Y-348940295D01*
X187348168Y-349164085D01*
X187194019Y-349227935D01*
X186976019Y-349318234D01*
X186580951Y-349396818D01*
X186178139Y-349396818D01*
X185783071Y-349318234D01*
X185565071Y-349227935D01*
X185410922Y-349164085D01*
X185075997Y-348940295D01*
X184791168Y-348655466D01*
X184567378Y-348320541D01*
X184464094Y-348071190D01*
X184413229Y-347948392D01*
X184334645Y-347553324D01*
X184334645Y-347150512D01*
X184413229Y-346755444D01*
X184534983Y-346461504D01*
X184567378Y-346383295D01*
X184791168Y-346048370D01*
X185075997Y-345763541D01*
X185410922Y-345539751D01*
X185565071Y-345475901D01*
X185783071Y-345385602D01*
X186178139Y-345307018D01*
X186580951Y-345307018D01*
X186976019Y-345385602D01*
X186976019Y-345385602D01*
G37*
G36*
X156664932Y-347504621D02*
G01*
X156731116Y-347511139D01*
X156900955Y-347562659D01*
X157057480Y-347646324D01*
X157093218Y-347675654D01*
X157194675Y-347758916D01*
X157277937Y-347860373D01*
X157307267Y-347896111D01*
X157390932Y-348052636D01*
X157442452Y-348222475D01*
X157459848Y-348399102D01*
X157442452Y-348575729D01*
X157390932Y-348745568D01*
X157307267Y-348902093D01*
X157277937Y-348937831D01*
X157194675Y-349039288D01*
X157093218Y-349122550D01*
X157057480Y-349151880D01*
X156900955Y-349235545D01*
X156731116Y-349287065D01*
X156664932Y-349293583D01*
X156598749Y-349300102D01*
X156510229Y-349300102D01*
X156444046Y-349293583D01*
X156377862Y-349287065D01*
X156208023Y-349235545D01*
X156051498Y-349151880D01*
X156015760Y-349122550D01*
X155914303Y-349039288D01*
X155831041Y-348937831D01*
X155801711Y-348902093D01*
X155718046Y-348745568D01*
X155666526Y-348575729D01*
X155649130Y-348399102D01*
X155666526Y-348222475D01*
X155718046Y-348052636D01*
X155801711Y-347896111D01*
X155831041Y-347860373D01*
X155914303Y-347758916D01*
X156015760Y-347675654D01*
X156051498Y-347646324D01*
X156208023Y-347562659D01*
X156377862Y-347511139D01*
X156444046Y-347504621D01*
X156510229Y-347498102D01*
X156598749Y-347498102D01*
X156664932Y-347504621D01*
X156664932Y-347504621D01*
G37*
G36*
X172650104Y-346461503D02*
G01*
X172818626Y-346531307D01*
X172970291Y-346632646D01*
X173099272Y-346761627D01*
X173200611Y-346913292D01*
X173270415Y-347081814D01*
X173306000Y-347260715D01*
X173306000Y-347443121D01*
X173270415Y-347622022D01*
X173200611Y-347790544D01*
X173099272Y-347942209D01*
X172970291Y-348071190D01*
X172818626Y-348172529D01*
X172650104Y-348242333D01*
X172471203Y-348277918D01*
X172288797Y-348277918D01*
X172109896Y-348242333D01*
X171941374Y-348172529D01*
X171789709Y-348071190D01*
X171660728Y-347942209D01*
X171559389Y-347790544D01*
X171489585Y-347622022D01*
X171454000Y-347443121D01*
X171454000Y-347260715D01*
X171489585Y-347081814D01*
X171559389Y-346913292D01*
X171660728Y-346761627D01*
X171789709Y-346632646D01*
X171941374Y-346531307D01*
X172109896Y-346461503D01*
X172288797Y-346425918D01*
X172471203Y-346425918D01*
X172650104Y-346461503D01*
X172650104Y-346461503D01*
G37*
G36*
X181569649Y-346461503D02*
G01*
X181738171Y-346531307D01*
X181889836Y-346632646D01*
X182018817Y-346761627D01*
X182120156Y-346913292D01*
X182189960Y-347081814D01*
X182225545Y-347260715D01*
X182225545Y-347443121D01*
X182189960Y-347622022D01*
X182120156Y-347790544D01*
X182018817Y-347942209D01*
X181889836Y-348071190D01*
X181738171Y-348172529D01*
X181569649Y-348242333D01*
X181390748Y-348277918D01*
X181208342Y-348277918D01*
X181029441Y-348242333D01*
X180860919Y-348172529D01*
X180709254Y-348071190D01*
X180580273Y-347942209D01*
X180478934Y-347790544D01*
X180409130Y-347622022D01*
X180373545Y-347443121D01*
X180373545Y-347260715D01*
X180409130Y-347081814D01*
X180478934Y-346913292D01*
X180580273Y-346761627D01*
X180709254Y-346632646D01*
X180860919Y-346531307D01*
X181029441Y-346461503D01*
X181208342Y-346425918D01*
X181390748Y-346425918D01*
X181569649Y-346461503D01*
X181569649Y-346461503D01*
G37*
G36*
X162490104Y-346461503D02*
G01*
X162658626Y-346531307D01*
X162810291Y-346632646D01*
X162939272Y-346761627D01*
X163040611Y-346913292D01*
X163110415Y-347081814D01*
X163146000Y-347260715D01*
X163146000Y-347443121D01*
X163110415Y-347622022D01*
X163040611Y-347790544D01*
X162939272Y-347942209D01*
X162810291Y-348071190D01*
X162658626Y-348172529D01*
X162490104Y-348242333D01*
X162311203Y-348277918D01*
X162128797Y-348277918D01*
X161949896Y-348242333D01*
X161781374Y-348172529D01*
X161629709Y-348071190D01*
X161500728Y-347942209D01*
X161399389Y-347790544D01*
X161329585Y-347622022D01*
X161294000Y-347443121D01*
X161294000Y-347260715D01*
X161329585Y-347081814D01*
X161399389Y-346913292D01*
X161500728Y-346761627D01*
X161629709Y-346632646D01*
X161781374Y-346531307D01*
X161949896Y-346461503D01*
X162128797Y-346425918D01*
X162311203Y-346425918D01*
X162490104Y-346461503D01*
X162490104Y-346461503D01*
G37*
G36*
X191729649Y-346461503D02*
G01*
X191898171Y-346531307D01*
X192049836Y-346632646D01*
X192178817Y-346761627D01*
X192280156Y-346913292D01*
X192349960Y-347081814D01*
X192385545Y-347260715D01*
X192385545Y-347443121D01*
X192349960Y-347622022D01*
X192280156Y-347790544D01*
X192178817Y-347942209D01*
X192049836Y-348071190D01*
X191898171Y-348172529D01*
X191729649Y-348242333D01*
X191550748Y-348277918D01*
X191368342Y-348277918D01*
X191189441Y-348242333D01*
X191020919Y-348172529D01*
X190869254Y-348071190D01*
X190740273Y-347942209D01*
X190638934Y-347790544D01*
X190569130Y-347622022D01*
X190533545Y-347443121D01*
X190533545Y-347260715D01*
X190569130Y-347081814D01*
X190638934Y-346913292D01*
X190740273Y-346761627D01*
X190869254Y-346632646D01*
X191020919Y-346531307D01*
X191189441Y-346461503D01*
X191368342Y-346425918D01*
X191550748Y-346425918D01*
X191729649Y-346461503D01*
X191729649Y-346461503D01*
G37*
G36*
X157455489Y-346760102D02*
G01*
X155653489Y-346760102D01*
X155653489Y-344958102D01*
X157455489Y-344958102D01*
X157455489Y-346760102D01*
X157455489Y-346760102D01*
G37*
G36*
X182872130Y-343290720D02*
G01*
X183021955Y-343320522D01*
X183304219Y-343437439D01*
X183558250Y-343607177D01*
X183774286Y-343823213D01*
X183944024Y-344077244D01*
X184060941Y-344359508D01*
X184120545Y-344659158D01*
X184120545Y-344964678D01*
X184060941Y-345264328D01*
X183944024Y-345546592D01*
X183774286Y-345800623D01*
X183558250Y-346016659D01*
X183304219Y-346186397D01*
X183021955Y-346303314D01*
X182872130Y-346333116D01*
X182722306Y-346362918D01*
X182416784Y-346362918D01*
X182266960Y-346333116D01*
X182117135Y-346303314D01*
X181834871Y-346186397D01*
X181580840Y-346016659D01*
X181364804Y-345800623D01*
X181195066Y-345546592D01*
X181078149Y-345264328D01*
X181018545Y-344964678D01*
X181018545Y-344659158D01*
X181078149Y-344359508D01*
X181195066Y-344077244D01*
X181364804Y-343823213D01*
X181580840Y-343607177D01*
X181834871Y-343437439D01*
X182117135Y-343320522D01*
X182266960Y-343290720D01*
X182416784Y-343260918D01*
X182722306Y-343260918D01*
X182872130Y-343290720D01*
X182872130Y-343290720D01*
G37*
G36*
X163792585Y-343290720D02*
G01*
X163942410Y-343320522D01*
X164224674Y-343437439D01*
X164478705Y-343607177D01*
X164694741Y-343823213D01*
X164864479Y-344077244D01*
X164981396Y-344359508D01*
X165041000Y-344659158D01*
X165041000Y-344964678D01*
X164981396Y-345264328D01*
X164864479Y-345546592D01*
X164694741Y-345800623D01*
X164478705Y-346016659D01*
X164224674Y-346186397D01*
X163942410Y-346303314D01*
X163792585Y-346333116D01*
X163642761Y-346362918D01*
X163337239Y-346362918D01*
X163187415Y-346333116D01*
X163037590Y-346303314D01*
X162755326Y-346186397D01*
X162501295Y-346016659D01*
X162285259Y-345800623D01*
X162115521Y-345546592D01*
X161998604Y-345264328D01*
X161939000Y-344964678D01*
X161939000Y-344659158D01*
X161998604Y-344359508D01*
X162115521Y-344077244D01*
X162285259Y-343823213D01*
X162501295Y-343607177D01*
X162755326Y-343437439D01*
X163037590Y-343320522D01*
X163187415Y-343290720D01*
X163337239Y-343260918D01*
X163642761Y-343260918D01*
X163792585Y-343290720D01*
X163792585Y-343290720D01*
G37*
G36*
X161541000Y-346112918D02*
G01*
X158889000Y-346112918D01*
X158889000Y-343510918D01*
X161541000Y-343510918D01*
X161541000Y-346112918D01*
X161541000Y-346112918D01*
G37*
G36*
X180620545Y-346112918D02*
G01*
X177968545Y-346112918D01*
X177968545Y-343510918D01*
X180620545Y-343510918D01*
X180620545Y-346112918D01*
X180620545Y-346112918D01*
G37*
G36*
X170142585Y-340750720D02*
G01*
X170292410Y-340780522D01*
X170574674Y-340897439D01*
X170828705Y-341067177D01*
X171044741Y-341283213D01*
X171214479Y-341537244D01*
X171331396Y-341819508D01*
X171391000Y-342119158D01*
X171391000Y-342424678D01*
X171331396Y-342724328D01*
X171214479Y-343006592D01*
X171044741Y-343260623D01*
X170828705Y-343476659D01*
X170574674Y-343646397D01*
X170292410Y-343763314D01*
X170142585Y-343793116D01*
X169992761Y-343822918D01*
X169687239Y-343822918D01*
X169537415Y-343793116D01*
X169387590Y-343763314D01*
X169105326Y-343646397D01*
X168851295Y-343476659D01*
X168635259Y-343260623D01*
X168465521Y-343006592D01*
X168348604Y-342724328D01*
X168289000Y-342424678D01*
X168289000Y-342119158D01*
X168348604Y-341819508D01*
X168465521Y-341537244D01*
X168635259Y-341283213D01*
X168851295Y-341067177D01*
X169105326Y-340897439D01*
X169387590Y-340780522D01*
X169537415Y-340750720D01*
X169687239Y-340720918D01*
X169992761Y-340720918D01*
X170142585Y-340750720D01*
X170142585Y-340750720D01*
G37*
G36*
X189222130Y-340750720D02*
G01*
X189371955Y-340780522D01*
X189654219Y-340897439D01*
X189908250Y-341067177D01*
X190124286Y-341283213D01*
X190294024Y-341537244D01*
X190410941Y-341819508D01*
X190470545Y-342119158D01*
X190470545Y-342424678D01*
X190410941Y-342724328D01*
X190294024Y-343006592D01*
X190124286Y-343260623D01*
X189908250Y-343476659D01*
X189654219Y-343646397D01*
X189371955Y-343763314D01*
X189222130Y-343793116D01*
X189072306Y-343822918D01*
X188766784Y-343822918D01*
X188616960Y-343793116D01*
X188467135Y-343763314D01*
X188184871Y-343646397D01*
X187930840Y-343476659D01*
X187714804Y-343260623D01*
X187545066Y-343006592D01*
X187428149Y-342724328D01*
X187368545Y-342424678D01*
X187368545Y-342119158D01*
X187428149Y-341819508D01*
X187545066Y-341537244D01*
X187714804Y-341283213D01*
X187930840Y-341067177D01*
X188184871Y-340897439D01*
X188467135Y-340780522D01*
X188616960Y-340750720D01*
X188766784Y-340720918D01*
X189072306Y-340720918D01*
X189222130Y-340750720D01*
X189222130Y-340750720D01*
G37*
G36*
X174468000Y-343572918D02*
G01*
X171816000Y-343572918D01*
X171816000Y-340970918D01*
X174468000Y-340970918D01*
X174468000Y-343572918D01*
X174468000Y-343572918D01*
G37*
G36*
X193547545Y-343572918D02*
G01*
X190895545Y-343572918D01*
X190895545Y-340970918D01*
X193547545Y-340970918D01*
X193547545Y-343572918D01*
X193547545Y-343572918D01*
G37*
G36*
X170195102Y-334740029D02*
G01*
X169728710Y-336480627D01*
X167988112Y-336014235D01*
X168454504Y-334273637D01*
X170195102Y-334740029D01*
X170195102Y-334740029D01*
G37*
G36*
X166748598Y-333825251D02*
G01*
X166814782Y-333831769D01*
X166984621Y-333883289D01*
X167141146Y-333966954D01*
X167176884Y-333996284D01*
X167278341Y-334079546D01*
X167361603Y-334181003D01*
X167390933Y-334216741D01*
X167474598Y-334373266D01*
X167526118Y-334543105D01*
X167543514Y-334719732D01*
X167526118Y-334896359D01*
X167474598Y-335066198D01*
X167390933Y-335222723D01*
X167361603Y-335258461D01*
X167278341Y-335359918D01*
X167176884Y-335443180D01*
X167141146Y-335472510D01*
X166984621Y-335556175D01*
X166814782Y-335607695D01*
X166748598Y-335614213D01*
X166682415Y-335620732D01*
X166593895Y-335620732D01*
X166527712Y-335614213D01*
X166461528Y-335607695D01*
X166291689Y-335556175D01*
X166135164Y-335472510D01*
X166099426Y-335443180D01*
X165997969Y-335359918D01*
X165914707Y-335258461D01*
X165885377Y-335222723D01*
X165801712Y-335066198D01*
X165750192Y-334896359D01*
X165732796Y-334719732D01*
X165750192Y-334543105D01*
X165801712Y-334373266D01*
X165885377Y-334216741D01*
X165914707Y-334181003D01*
X165997969Y-334079546D01*
X166099426Y-333996284D01*
X166135164Y-333966954D01*
X166291689Y-333883289D01*
X166461528Y-333831769D01*
X166527712Y-333825251D01*
X166593895Y-333818732D01*
X166682415Y-333818732D01*
X166748598Y-333825251D01*
X166748598Y-333825251D01*
G37*
G36*
X164295146Y-333167849D02*
G01*
X164361331Y-333174368D01*
X164531170Y-333225888D01*
X164687695Y-333309553D01*
X164723433Y-333338883D01*
X164824890Y-333422145D01*
X164908152Y-333523602D01*
X164937482Y-333559340D01*
X165021147Y-333715865D01*
X165072667Y-333885704D01*
X165090063Y-334062331D01*
X165072667Y-334238958D01*
X165021147Y-334408797D01*
X164937482Y-334565322D01*
X164908152Y-334601060D01*
X164824890Y-334702517D01*
X164723433Y-334785779D01*
X164687695Y-334815109D01*
X164531170Y-334898774D01*
X164361331Y-334950294D01*
X164295147Y-334956812D01*
X164228964Y-334963331D01*
X164140444Y-334963331D01*
X164074261Y-334956812D01*
X164008077Y-334950294D01*
X163838238Y-334898774D01*
X163681713Y-334815109D01*
X163645975Y-334785779D01*
X163544518Y-334702517D01*
X163461256Y-334601060D01*
X163431926Y-334565322D01*
X163348261Y-334408797D01*
X163296741Y-334238958D01*
X163279345Y-334062331D01*
X163296741Y-333885704D01*
X163348261Y-333715865D01*
X163431926Y-333559340D01*
X163461256Y-333523602D01*
X163544518Y-333422145D01*
X163645975Y-333338883D01*
X163681713Y-333309553D01*
X163838238Y-333225888D01*
X164008077Y-333174368D01*
X164074262Y-333167849D01*
X164140444Y-333161331D01*
X164228964Y-333161331D01*
X164295146Y-333167849D01*
X164295146Y-333167849D01*
G37*
G36*
X161841695Y-332510450D02*
G01*
X161907879Y-332516968D01*
X162077718Y-332568488D01*
X162234243Y-332652153D01*
X162269981Y-332681483D01*
X162371438Y-332764745D01*
X162454700Y-332866202D01*
X162484030Y-332901940D01*
X162567695Y-333058465D01*
X162619215Y-333228304D01*
X162636611Y-333404931D01*
X162619215Y-333581558D01*
X162567695Y-333751397D01*
X162484030Y-333907922D01*
X162454700Y-333943660D01*
X162371438Y-334045117D01*
X162269981Y-334128379D01*
X162234243Y-334157709D01*
X162077718Y-334241374D01*
X161907879Y-334292894D01*
X161841694Y-334299413D01*
X161775512Y-334305931D01*
X161686992Y-334305931D01*
X161620810Y-334299413D01*
X161554625Y-334292894D01*
X161384786Y-334241374D01*
X161228261Y-334157709D01*
X161192523Y-334128379D01*
X161091066Y-334045117D01*
X161007804Y-333943660D01*
X160978474Y-333907922D01*
X160894809Y-333751397D01*
X160843289Y-333581558D01*
X160825893Y-333404931D01*
X160843289Y-333228304D01*
X160894809Y-333058465D01*
X160978474Y-332901940D01*
X161007804Y-332866202D01*
X161091066Y-332764745D01*
X161192523Y-332681483D01*
X161228261Y-332652153D01*
X161384786Y-332568488D01*
X161554625Y-332516968D01*
X161620809Y-332510450D01*
X161686992Y-332503931D01*
X161775512Y-332503931D01*
X161841695Y-332510450D01*
X161841695Y-332510450D01*
G37*
M02*
