M48
; DRILL file {KiCad (5.1.4)-1} date 5/19/2023 9:16:25 AM
; FORMAT={-:-/ absolute / metric / decimal}
; #@! TF.CreationDate,2023-05-19T09:16:25-04:00
; #@! TF.GenerationSoftware,Kicad,Pcbnew,(5.1.4)-1
; #@! TF.FileFunction,Plated,1,2,PTH
FMAT,2
METRIC
T1C1.000
T2C1.470
%
G90
G05
T1
X156.554Y-345.859
X156.554Y-348.399
X156.554Y-350.939
X156.554Y-353.479
X182.686Y-357.031
X185.226Y-357.031
X187.766Y-357.031
X190.306Y-357.031
X161.731Y-333.405
X164.185Y-334.062
X166.638Y-334.72
X169.092Y-335.377
X195.277Y-349.344
X195.277Y-351.884
X195.277Y-354.424
X195.277Y-356.964
T2
X164.76Y-352.432
X164.8Y-351.852
X169.8Y-351.352
X171.11Y-349.892
X183.84Y-352.432
X183.88Y-351.852
X188.88Y-351.352
X190.19Y-349.892
T0
M30
