G04 #@! TF.GenerationSoftware,KiCad,Pcbnew,(5.1.4)-1*
G04 #@! TF.CreationDate,2023-09-09T05:31:27-04:00*
G04 #@! TF.ProjectId,ThumbsUp,5468756d-6273-4557-902e-6b696361645f,rev?*
G04 #@! TF.SameCoordinates,Original*
G04 #@! TF.FileFunction,Copper,L2,Bot*
G04 #@! TF.FilePolarity,Positive*
%FSLAX46Y46*%
G04 Gerber Fmt 4.6, Leading zero omitted, Abs format (unit mm)*
G04 Created by KiCad (PCBNEW (5.1.4)-1) date 2023-09-09 05:31:27*
%MOMM*%
%LPD*%
G04 APERTURE LIST*
%ADD10R,2.550000X2.500000*%
%ADD11R,2.000000X2.000000*%
%ADD12C,3.000000*%
%ADD13O,1.700000X1.700000*%
%ADD14R,1.700000X1.700000*%
%ADD15C,1.700000*%
%ADD16C,1.700000*%
%ADD17C,0.100000*%
%ADD18C,0.800000*%
%ADD19C,0.200000*%
G04 APERTURE END LIST*
D10*
X173700000Y-353101918D03*
D11*
X159100000Y-351751918D03*
D12*
X162600000Y-351751918D03*
X169900000Y-353101918D03*
D10*
X173142000Y-342271918D03*
X160215000Y-344811918D03*
X192779545Y-353101918D03*
D11*
X178179545Y-351751918D03*
D12*
X181679545Y-351751918D03*
X188979545Y-353101918D03*
D10*
X192221545Y-342271918D03*
X179294545Y-344811918D03*
D13*
X156554489Y-353479102D03*
X156554489Y-350939102D03*
X156554489Y-348399102D03*
D14*
X156554489Y-345859102D03*
D15*
X161731252Y-333404931D03*
D16*
X161731252Y-333404931D02*
X161731252Y-333404931D01*
D15*
X164184704Y-334062331D03*
D16*
X164184704Y-334062331D02*
X164184704Y-334062331D01*
D15*
X166638155Y-334719732D03*
D16*
X166638155Y-334719732D02*
X166638155Y-334719732D01*
D15*
X169091607Y-335377132D03*
D17*
G36*
X169692648Y-336418165D02*
G01*
X168050574Y-335978173D01*
X168490566Y-334336099D01*
X170132640Y-334776091D01*
X169692648Y-336418165D01*
X169692648Y-336418165D01*
G37*
D13*
X182686132Y-357031045D03*
X185226132Y-357031045D03*
X187766132Y-357031045D03*
D14*
X190306132Y-357031045D03*
D13*
X195276987Y-356963573D03*
X195276987Y-354423573D03*
X195276987Y-351883573D03*
D14*
X195276987Y-349343573D03*
D18*
X178500000Y-349600000D03*
X159700000Y-349100000D03*
D19*
X179294545Y-344811918D02*
X178500000Y-345606463D01*
X178500000Y-345606463D02*
X178500000Y-349100000D01*
X178500000Y-351431463D02*
X178500000Y-349600000D01*
X178179545Y-351751918D02*
X178500000Y-351431463D01*
X178500000Y-349100000D02*
X178500000Y-349600000D01*
X174300000Y-343429918D02*
X173142000Y-342271918D01*
X173700000Y-354551918D02*
X173700000Y-353101918D01*
X189600000Y-351000000D02*
X190652627Y-351000000D01*
X187300000Y-351000000D02*
X189600000Y-351000000D01*
X192221545Y-342271918D02*
X192196545Y-342271918D01*
X192196545Y-342271918D02*
X189600000Y-344868463D01*
X189600000Y-344868463D02*
X189600000Y-351000000D01*
X182700000Y-357017177D02*
X182700000Y-355600000D01*
X182686132Y-357031045D02*
X182700000Y-357017177D01*
X182700000Y-355600000D02*
X187300000Y-351000000D01*
X190652627Y-351000000D02*
X192754545Y-353101918D01*
X192754545Y-353101918D02*
X192779545Y-353101918D01*
X174300000Y-352501918D02*
X174300000Y-343429918D01*
X173700000Y-353101918D02*
X174300000Y-352501918D01*
X182686132Y-357031045D02*
X176179127Y-357031045D01*
X176179127Y-357031045D02*
X173700000Y-354551918D01*
X160215000Y-344811918D02*
X159700000Y-345326918D01*
X159700000Y-349600000D02*
X159700000Y-349100000D01*
X159100000Y-351751918D02*
X159700000Y-351151918D01*
X159700000Y-345326918D02*
X159700000Y-349100000D01*
X159700000Y-351151918D02*
X159700000Y-349600000D01*
M02*
