%FSLAX45Y45*%
G04 Gerber Fmt 4.5, Leading zero omitted, Abs format (unit mm)*
G04 Created by KiCad (PCBNEW (5.1.4)-1) date 2023-09-09 05:31:29*
%MOMM*%
%LPD*%
G04 APERTURE LIST*
%ADD10C,0.050000*%
%ADD11C,0.200000*%
%ADD12C,0.300000*%
G04 APERTURE END LIST*
D10*
X19612165Y-35837340D02*
X16342269Y-35841926D01*
X19203875Y-34010148D02*
X19359700Y-34160247D01*
X15763276Y-34022596D02*
X15953880Y-33316027D01*
X16131177Y-33185429D02*
X19203875Y-34010148D01*
X15763276Y-34022596D02*
X15474404Y-34405941D01*
X19360882Y-34552366D02*
X19359700Y-34160247D01*
X15473875Y-35519943D02*
X16342269Y-35841926D01*
X19666491Y-35781864D02*
X19612165Y-35837340D01*
X19666491Y-35781864D02*
X19666101Y-34808660D01*
X15473875Y-35519943D02*
X15474404Y-34405941D01*
X15953880Y-33316027D02*
X16131177Y-33185429D01*
X19666101Y-34808660D02*
X19360882Y-34552366D01*
D11*
X15950000Y-34890000D02*
X15990000Y-34930000D01*
X15990000Y-34890000D02*
X15950000Y-34930000D01*
X17830000Y-34940000D02*
X17870000Y-34980000D01*
X17870000Y-34940000D02*
X17830000Y-34980000D01*
X15705449Y-34585910D02*
G75*
G03X15705449Y-34585910I-50000J0D01*
G01*
X15705449Y-34839910D02*
G75*
G03X15705449Y-34839910I-50000J0D01*
G01*
X15705449Y-35093910D02*
G75*
G03X15705449Y-35093910I-50000J0D01*
G01*
X15705449Y-35347910D02*
G75*
G03X15705449Y-35347910I-50000J0D01*
G01*
X16223125Y-33340493D02*
G75*
G03X16223125Y-33340493I-50000J0D01*
G01*
X16468470Y-33406233D02*
G75*
G03X16468470Y-33406233I-50000J0D01*
G01*
X16713815Y-33471973D02*
G75*
G03X16713815Y-33471973I-50000J0D01*
G01*
X16959161Y-33537713D02*
G75*
G03X16959161Y-33537713I-50000J0D01*
G01*
X19577699Y-34934357D02*
G75*
G03X19577699Y-34934357I-50000J0D01*
G01*
X19577699Y-35188357D02*
G75*
G03X19577699Y-35188357I-50000J0D01*
G01*
X19577699Y-35442357D02*
G75*
G03X19577699Y-35442357I-50000J0D01*
G01*
X19577699Y-35696357D02*
G75*
G03X19577699Y-35696357I-50000J0D01*
G01*
X18318613Y-35703105D02*
G75*
G03X18318613Y-35703105I-50000J0D01*
G01*
X18572613Y-35703105D02*
G75*
G03X18572613Y-35703105I-50000J0D01*
G01*
X18826613Y-35703105D02*
G75*
G03X18826613Y-35703105I-50000J0D01*
G01*
X19080613Y-35703105D02*
G75*
G03X19080613Y-35703105I-50000J0D01*
G01*
D12*
X15757803Y-36310141D02*
X15757803Y-36010141D01*
X15829232Y-36010141D01*
X15872089Y-36024426D01*
X15900660Y-36052998D01*
X15914946Y-36081569D01*
X15929232Y-36138712D01*
X15929232Y-36181569D01*
X15914946Y-36238712D01*
X15900660Y-36267284D01*
X15872089Y-36295855D01*
X15829232Y-36310141D01*
X15757803Y-36310141D01*
X16057803Y-36310141D02*
X16057803Y-36110141D01*
X16057803Y-36167284D02*
X16072089Y-36138712D01*
X16086375Y-36124426D01*
X16114946Y-36110141D01*
X16143517Y-36110141D01*
X16243517Y-36310141D02*
X16243517Y-36110141D01*
X16243517Y-36010141D02*
X16229232Y-36024426D01*
X16243517Y-36038712D01*
X16257803Y-36024426D01*
X16243517Y-36010141D01*
X16243517Y-36038712D01*
X16429232Y-36310141D02*
X16400660Y-36295855D01*
X16386375Y-36267284D01*
X16386375Y-36010141D01*
X16586375Y-36310141D02*
X16557803Y-36295855D01*
X16543517Y-36267284D01*
X16543517Y-36010141D01*
X16929232Y-36310141D02*
X16929232Y-36010141D01*
X17029232Y-36224426D01*
X17129232Y-36010141D01*
X17129232Y-36310141D01*
X17400660Y-36310141D02*
X17400660Y-36152998D01*
X17386375Y-36124426D01*
X17357803Y-36110141D01*
X17300660Y-36110141D01*
X17272089Y-36124426D01*
X17400660Y-36295855D02*
X17372089Y-36310141D01*
X17300660Y-36310141D01*
X17272089Y-36295855D01*
X17257803Y-36267284D01*
X17257803Y-36238712D01*
X17272089Y-36210141D01*
X17300660Y-36195855D01*
X17372089Y-36195855D01*
X17400660Y-36181569D01*
X17543517Y-36110141D02*
X17543517Y-36410141D01*
X17543517Y-36124426D02*
X17572089Y-36110141D01*
X17629232Y-36110141D01*
X17657803Y-36124426D01*
X17672089Y-36138712D01*
X17686375Y-36167284D01*
X17686375Y-36252998D01*
X17672089Y-36281569D01*
X17657803Y-36295855D01*
X17629232Y-36310141D01*
X17572089Y-36310141D01*
X17543517Y-36295855D01*
X17814946Y-36281569D02*
X17829232Y-36295855D01*
X17814946Y-36310141D01*
X17800660Y-36295855D01*
X17814946Y-36281569D01*
X17814946Y-36310141D01*
X17814946Y-36124426D02*
X17829232Y-36138712D01*
X17814946Y-36152998D01*
X17800660Y-36138712D01*
X17814946Y-36124426D01*
X17814946Y-36152998D01*
X15431375Y-36784426D02*
X15471375Y-36824426D01*
X15471375Y-36784426D02*
X15431375Y-36824426D01*
X15814946Y-36640141D02*
X15843517Y-36640141D01*
X15872089Y-36654426D01*
X15886375Y-36668712D01*
X15900660Y-36697284D01*
X15914946Y-36754426D01*
X15914946Y-36825855D01*
X15900660Y-36882998D01*
X15886375Y-36911569D01*
X15872089Y-36925855D01*
X15843517Y-36940141D01*
X15814946Y-36940141D01*
X15786375Y-36925855D01*
X15772089Y-36911569D01*
X15757803Y-36882998D01*
X15743517Y-36825855D01*
X15743517Y-36754426D01*
X15757803Y-36697284D01*
X15772089Y-36668712D01*
X15786375Y-36654426D01*
X15814946Y-36640141D01*
X16043517Y-36911569D02*
X16057803Y-36925855D01*
X16043517Y-36940141D01*
X16029232Y-36925855D01*
X16043517Y-36911569D01*
X16043517Y-36940141D01*
X16314946Y-36740141D02*
X16314946Y-36940141D01*
X16243517Y-36625855D02*
X16172089Y-36840141D01*
X16357803Y-36840141D01*
X16529232Y-36640141D02*
X16557803Y-36640141D01*
X16586375Y-36654426D01*
X16600660Y-36668712D01*
X16614946Y-36697284D01*
X16629232Y-36754426D01*
X16629232Y-36825855D01*
X16614946Y-36882998D01*
X16600660Y-36911569D01*
X16586375Y-36925855D01*
X16557803Y-36940141D01*
X16529232Y-36940141D01*
X16500660Y-36925855D01*
X16486375Y-36911569D01*
X16472089Y-36882998D01*
X16457803Y-36825855D01*
X16457803Y-36754426D01*
X16472089Y-36697284D01*
X16486375Y-36668712D01*
X16500660Y-36654426D01*
X16529232Y-36640141D01*
X16757803Y-36940141D02*
X16757803Y-36740141D01*
X16757803Y-36768712D02*
X16772089Y-36754426D01*
X16800660Y-36740141D01*
X16843517Y-36740141D01*
X16872089Y-36754426D01*
X16886375Y-36782998D01*
X16886375Y-36940141D01*
X16886375Y-36782998D02*
X16900660Y-36754426D01*
X16929232Y-36740141D01*
X16972089Y-36740141D01*
X17000660Y-36754426D01*
X17014946Y-36782998D01*
X17014946Y-36940141D01*
X17157803Y-36940141D02*
X17157803Y-36740141D01*
X17157803Y-36768712D02*
X17172089Y-36754426D01*
X17200660Y-36740141D01*
X17243517Y-36740141D01*
X17272089Y-36754426D01*
X17286375Y-36782998D01*
X17286375Y-36940141D01*
X17286375Y-36782998D02*
X17300660Y-36754426D01*
X17329232Y-36740141D01*
X17372089Y-36740141D01*
X17400660Y-36754426D01*
X17414946Y-36782998D01*
X17414946Y-36940141D01*
X18000660Y-36625855D02*
X17743517Y-37011569D01*
X18386375Y-36640141D02*
X18414946Y-36640141D01*
X18443517Y-36654426D01*
X18457803Y-36668712D01*
X18472089Y-36697284D01*
X18486375Y-36754426D01*
X18486375Y-36825855D01*
X18472089Y-36882998D01*
X18457803Y-36911569D01*
X18443517Y-36925855D01*
X18414946Y-36940141D01*
X18386375Y-36940141D01*
X18357803Y-36925855D01*
X18343517Y-36911569D01*
X18329232Y-36882998D01*
X18314946Y-36825855D01*
X18314946Y-36754426D01*
X18329232Y-36697284D01*
X18343517Y-36668712D01*
X18357803Y-36654426D01*
X18386375Y-36640141D01*
X18614946Y-36911569D02*
X18629232Y-36925855D01*
X18614946Y-36940141D01*
X18600660Y-36925855D01*
X18614946Y-36911569D01*
X18614946Y-36940141D01*
X18814946Y-36640141D02*
X18843517Y-36640141D01*
X18872089Y-36654426D01*
X18886375Y-36668712D01*
X18900660Y-36697284D01*
X18914946Y-36754426D01*
X18914946Y-36825855D01*
X18900660Y-36882998D01*
X18886375Y-36911569D01*
X18872089Y-36925855D01*
X18843517Y-36940141D01*
X18814946Y-36940141D01*
X18786375Y-36925855D01*
X18772089Y-36911569D01*
X18757803Y-36882998D01*
X18743517Y-36825855D01*
X18743517Y-36754426D01*
X18757803Y-36697284D01*
X18772089Y-36668712D01*
X18786375Y-36654426D01*
X18814946Y-36640141D01*
X19200660Y-36940141D02*
X19029232Y-36940141D01*
X19114946Y-36940141D02*
X19114946Y-36640141D01*
X19086375Y-36682998D01*
X19057803Y-36711569D01*
X19029232Y-36725855D01*
X19457803Y-36640141D02*
X19400660Y-36640141D01*
X19372089Y-36654426D01*
X19357803Y-36668712D01*
X19329232Y-36711569D01*
X19314946Y-36768712D01*
X19314946Y-36882998D01*
X19329232Y-36911569D01*
X19343517Y-36925855D01*
X19372089Y-36940141D01*
X19429232Y-36940141D01*
X19457803Y-36925855D01*
X19472089Y-36911569D01*
X19486375Y-36882998D01*
X19486375Y-36811569D01*
X19472089Y-36782998D01*
X19457803Y-36768712D01*
X19429232Y-36754426D01*
X19372089Y-36754426D01*
X19343517Y-36768712D01*
X19329232Y-36782998D01*
X19314946Y-36811569D01*
X19600660Y-36640141D02*
X19600660Y-36697284D01*
X19714946Y-36640141D02*
X19714946Y-36697284D01*
X20157803Y-37054426D02*
X20143517Y-37040141D01*
X20114946Y-36997284D01*
X20100660Y-36968712D01*
X20086375Y-36925855D01*
X20072089Y-36854426D01*
X20072089Y-36797284D01*
X20086375Y-36725855D01*
X20100660Y-36682998D01*
X20114946Y-36654426D01*
X20143517Y-36611569D01*
X20157803Y-36597284D01*
X20257803Y-36668712D02*
X20272089Y-36654426D01*
X20300660Y-36640141D01*
X20372089Y-36640141D01*
X20400660Y-36654426D01*
X20414946Y-36668712D01*
X20429232Y-36697284D01*
X20429232Y-36725855D01*
X20414946Y-36768712D01*
X20243517Y-36940141D01*
X20429232Y-36940141D01*
X20786375Y-36940141D02*
X20786375Y-36640141D01*
X20914946Y-36940141D02*
X20914946Y-36782998D01*
X20900660Y-36754426D01*
X20872089Y-36740141D01*
X20829232Y-36740141D01*
X20800660Y-36754426D01*
X20786375Y-36768712D01*
X21100660Y-36940141D02*
X21072089Y-36925855D01*
X21057803Y-36911569D01*
X21043517Y-36882998D01*
X21043517Y-36797284D01*
X21057803Y-36768712D01*
X21072089Y-36754426D01*
X21100660Y-36740141D01*
X21143517Y-36740141D01*
X21172089Y-36754426D01*
X21186375Y-36768712D01*
X21200660Y-36797284D01*
X21200660Y-36882998D01*
X21186375Y-36911569D01*
X21172089Y-36925855D01*
X21143517Y-36940141D01*
X21100660Y-36940141D01*
X21372089Y-36940141D02*
X21343517Y-36925855D01*
X21329232Y-36897284D01*
X21329232Y-36640141D01*
X21600660Y-36925855D02*
X21572089Y-36940141D01*
X21514946Y-36940141D01*
X21486375Y-36925855D01*
X21472089Y-36897284D01*
X21472089Y-36782998D01*
X21486375Y-36754426D01*
X21514946Y-36740141D01*
X21572089Y-36740141D01*
X21600660Y-36754426D01*
X21614946Y-36782998D01*
X21614946Y-36811569D01*
X21472089Y-36840141D01*
X21729232Y-36925855D02*
X21757803Y-36940141D01*
X21814946Y-36940141D01*
X21843517Y-36925855D01*
X21857803Y-36897284D01*
X21857803Y-36882998D01*
X21843517Y-36854426D01*
X21814946Y-36840141D01*
X21772089Y-36840141D01*
X21743517Y-36825855D01*
X21729232Y-36797284D01*
X21729232Y-36782998D01*
X21743517Y-36754426D01*
X21772089Y-36740141D01*
X21814946Y-36740141D01*
X21843517Y-36754426D01*
X21957803Y-37054426D02*
X21972089Y-37040141D01*
X22000660Y-36997284D01*
X22014946Y-36968712D01*
X22029232Y-36925855D01*
X22043517Y-36854426D01*
X22043517Y-36797284D01*
X22029232Y-36725855D01*
X22014946Y-36682998D01*
X22000660Y-36654426D01*
X21972089Y-36611569D01*
X21957803Y-36597284D01*
X15471375Y-37200426D02*
G75*
G03X15471375Y-37200426I-50000J0D01*
G01*
X15914946Y-37336141D02*
X15743517Y-37336141D01*
X15829232Y-37336141D02*
X15829232Y-37036141D01*
X15800660Y-37078998D01*
X15772089Y-37107569D01*
X15743517Y-37121855D01*
X16043517Y-37307569D02*
X16057803Y-37321855D01*
X16043517Y-37336141D01*
X16029232Y-37321855D01*
X16043517Y-37307569D01*
X16043517Y-37336141D01*
X16243517Y-37036141D02*
X16272089Y-37036141D01*
X16300660Y-37050426D01*
X16314946Y-37064712D01*
X16329232Y-37093284D01*
X16343517Y-37150426D01*
X16343517Y-37221855D01*
X16329232Y-37278998D01*
X16314946Y-37307569D01*
X16300660Y-37321855D01*
X16272089Y-37336141D01*
X16243517Y-37336141D01*
X16214946Y-37321855D01*
X16200660Y-37307569D01*
X16186375Y-37278998D01*
X16172089Y-37221855D01*
X16172089Y-37150426D01*
X16186375Y-37093284D01*
X16200660Y-37064712D01*
X16214946Y-37050426D01*
X16243517Y-37036141D01*
X16529232Y-37036141D02*
X16557803Y-37036141D01*
X16586375Y-37050426D01*
X16600660Y-37064712D01*
X16614946Y-37093284D01*
X16629232Y-37150426D01*
X16629232Y-37221855D01*
X16614946Y-37278998D01*
X16600660Y-37307569D01*
X16586375Y-37321855D01*
X16557803Y-37336141D01*
X16529232Y-37336141D01*
X16500660Y-37321855D01*
X16486375Y-37307569D01*
X16472089Y-37278998D01*
X16457803Y-37221855D01*
X16457803Y-37150426D01*
X16472089Y-37093284D01*
X16486375Y-37064712D01*
X16500660Y-37050426D01*
X16529232Y-37036141D01*
X16757803Y-37336141D02*
X16757803Y-37136141D01*
X16757803Y-37164712D02*
X16772089Y-37150426D01*
X16800660Y-37136141D01*
X16843517Y-37136141D01*
X16872089Y-37150426D01*
X16886375Y-37178998D01*
X16886375Y-37336141D01*
X16886375Y-37178998D02*
X16900660Y-37150426D01*
X16929232Y-37136141D01*
X16972089Y-37136141D01*
X17000660Y-37150426D01*
X17014946Y-37178998D01*
X17014946Y-37336141D01*
X17157803Y-37336141D02*
X17157803Y-37136141D01*
X17157803Y-37164712D02*
X17172089Y-37150426D01*
X17200660Y-37136141D01*
X17243517Y-37136141D01*
X17272089Y-37150426D01*
X17286375Y-37178998D01*
X17286375Y-37336141D01*
X17286375Y-37178998D02*
X17300660Y-37150426D01*
X17329232Y-37136141D01*
X17372089Y-37136141D01*
X17400660Y-37150426D01*
X17414946Y-37178998D01*
X17414946Y-37336141D01*
X18000660Y-37021855D02*
X17743517Y-37407569D01*
X18386375Y-37036141D02*
X18414946Y-37036141D01*
X18443517Y-37050426D01*
X18457803Y-37064712D01*
X18472089Y-37093284D01*
X18486375Y-37150426D01*
X18486375Y-37221855D01*
X18472089Y-37278998D01*
X18457803Y-37307569D01*
X18443517Y-37321855D01*
X18414946Y-37336141D01*
X18386375Y-37336141D01*
X18357803Y-37321855D01*
X18343517Y-37307569D01*
X18329232Y-37278998D01*
X18314946Y-37221855D01*
X18314946Y-37150426D01*
X18329232Y-37093284D01*
X18343517Y-37064712D01*
X18357803Y-37050426D01*
X18386375Y-37036141D01*
X18614946Y-37307569D02*
X18629232Y-37321855D01*
X18614946Y-37336141D01*
X18600660Y-37321855D01*
X18614946Y-37307569D01*
X18614946Y-37336141D01*
X18814946Y-37036141D02*
X18843517Y-37036141D01*
X18872089Y-37050426D01*
X18886375Y-37064712D01*
X18900660Y-37093284D01*
X18914946Y-37150426D01*
X18914946Y-37221855D01*
X18900660Y-37278998D01*
X18886375Y-37307569D01*
X18872089Y-37321855D01*
X18843517Y-37336141D01*
X18814946Y-37336141D01*
X18786375Y-37321855D01*
X18772089Y-37307569D01*
X18757803Y-37278998D01*
X18743517Y-37221855D01*
X18743517Y-37150426D01*
X18757803Y-37093284D01*
X18772089Y-37064712D01*
X18786375Y-37050426D01*
X18814946Y-37036141D01*
X19014946Y-37036141D02*
X19200660Y-37036141D01*
X19100660Y-37150426D01*
X19143517Y-37150426D01*
X19172089Y-37164712D01*
X19186375Y-37178998D01*
X19200660Y-37207569D01*
X19200660Y-37278998D01*
X19186375Y-37307569D01*
X19172089Y-37321855D01*
X19143517Y-37336141D01*
X19057803Y-37336141D01*
X19029232Y-37321855D01*
X19014946Y-37307569D01*
X19343517Y-37336141D02*
X19400660Y-37336141D01*
X19429232Y-37321855D01*
X19443517Y-37307569D01*
X19472089Y-37264712D01*
X19486375Y-37207569D01*
X19486375Y-37093284D01*
X19472089Y-37064712D01*
X19457803Y-37050426D01*
X19429232Y-37036141D01*
X19372089Y-37036141D01*
X19343517Y-37050426D01*
X19329232Y-37064712D01*
X19314946Y-37093284D01*
X19314946Y-37164712D01*
X19329232Y-37193284D01*
X19343517Y-37207569D01*
X19372089Y-37221855D01*
X19429232Y-37221855D01*
X19457803Y-37207569D01*
X19472089Y-37193284D01*
X19486375Y-37164712D01*
X19600660Y-37036141D02*
X19600660Y-37093284D01*
X19714946Y-37036141D02*
X19714946Y-37093284D01*
X20157803Y-37450426D02*
X20143517Y-37436141D01*
X20114946Y-37393284D01*
X20100660Y-37364712D01*
X20086375Y-37321855D01*
X20072089Y-37250426D01*
X20072089Y-37193284D01*
X20086375Y-37121855D01*
X20100660Y-37078998D01*
X20114946Y-37050426D01*
X20143517Y-37007569D01*
X20157803Y-36993284D01*
X20429232Y-37336141D02*
X20257803Y-37336141D01*
X20343517Y-37336141D02*
X20343517Y-37036141D01*
X20314946Y-37078998D01*
X20286375Y-37107569D01*
X20257803Y-37121855D01*
X20686375Y-37036141D02*
X20629232Y-37036141D01*
X20600660Y-37050426D01*
X20586375Y-37064712D01*
X20557803Y-37107569D01*
X20543517Y-37164712D01*
X20543517Y-37278998D01*
X20557803Y-37307569D01*
X20572089Y-37321855D01*
X20600660Y-37336141D01*
X20657803Y-37336141D01*
X20686375Y-37321855D01*
X20700660Y-37307569D01*
X20714946Y-37278998D01*
X20714946Y-37207569D01*
X20700660Y-37178998D01*
X20686375Y-37164712D01*
X20657803Y-37150426D01*
X20600660Y-37150426D01*
X20572089Y-37164712D01*
X20557803Y-37178998D01*
X20543517Y-37207569D01*
X21072089Y-37336141D02*
X21072089Y-37036141D01*
X21200660Y-37336141D02*
X21200660Y-37178998D01*
X21186375Y-37150426D01*
X21157803Y-37136141D01*
X21114946Y-37136141D01*
X21086375Y-37150426D01*
X21072089Y-37164712D01*
X21386375Y-37336141D02*
X21357803Y-37321855D01*
X21343517Y-37307569D01*
X21329232Y-37278998D01*
X21329232Y-37193284D01*
X21343517Y-37164712D01*
X21357803Y-37150426D01*
X21386375Y-37136141D01*
X21429232Y-37136141D01*
X21457803Y-37150426D01*
X21472089Y-37164712D01*
X21486375Y-37193284D01*
X21486375Y-37278998D01*
X21472089Y-37307569D01*
X21457803Y-37321855D01*
X21429232Y-37336141D01*
X21386375Y-37336141D01*
X21657803Y-37336141D02*
X21629232Y-37321855D01*
X21614946Y-37293284D01*
X21614946Y-37036141D01*
X21886375Y-37321855D02*
X21857803Y-37336141D01*
X21800660Y-37336141D01*
X21772089Y-37321855D01*
X21757803Y-37293284D01*
X21757803Y-37178998D01*
X21772089Y-37150426D01*
X21800660Y-37136141D01*
X21857803Y-37136141D01*
X21886375Y-37150426D01*
X21900660Y-37178998D01*
X21900660Y-37207569D01*
X21757803Y-37236141D01*
X22014946Y-37321855D02*
X22043517Y-37336141D01*
X22100660Y-37336141D01*
X22129232Y-37321855D01*
X22143517Y-37293284D01*
X22143517Y-37278998D01*
X22129232Y-37250426D01*
X22100660Y-37236141D01*
X22057803Y-37236141D01*
X22029232Y-37221855D01*
X22014946Y-37193284D01*
X22014946Y-37178998D01*
X22029232Y-37150426D01*
X22057803Y-37136141D01*
X22100660Y-37136141D01*
X22129232Y-37150426D01*
X22243517Y-37450426D02*
X22257803Y-37436141D01*
X22286375Y-37393284D01*
X22300660Y-37364712D01*
X22314946Y-37321855D01*
X22329232Y-37250426D01*
X22329232Y-37193284D01*
X22314946Y-37121855D01*
X22300660Y-37078998D01*
X22286375Y-37050426D01*
X22257803Y-37007569D01*
X22243517Y-36993284D01*
M02*
