M48
; DRILL file {KiCad (5.1.4)-1} date 9/9/2023 5:27:58 AM
; FORMAT={-:-/ absolute / metric / decimal}
; #@! TF.CreationDate,2023-09-09T05:27:58-04:00
; #@! TF.GenerationSoftware,Kicad,Pcbnew,(5.1.4)-1
; #@! TF.FileFunction,Plated,1,2,PTH
FMAT,2
METRIC
T1C0.400
T2C1.000
%
G90
G05
T1
X-87.76Y-354.06
X-68.9Y-357.87
X-66.65Y-363.92
X-63.49Y-363.92
T2
X-85.669Y-341.675
X-83.215Y-342.332
X-80.762Y-342.99
X-78.308Y-343.647
X-52.123Y-357.614
X-52.123Y-360.154
X-52.123Y-362.694
X-52.123Y-365.234
X-90.846Y-354.129
X-90.846Y-356.669
X-90.846Y-359.209
X-90.846Y-361.749
X-64.714Y-365.301
X-62.174Y-365.301
X-59.634Y-365.301
X-57.094Y-365.301
T0
M30
