%FSLAX45Y45*%
G04 Gerber Fmt 4.5, Leading zero omitted, Abs format (unit mm)*
G04 Created by KiCad (PCBNEW (5.1.4)-1) date 2023-09-09 05:27:59*
%MOMM*%
%LPD*%
G04 APERTURE LIST*
%ADD10C,0.050000*%
%ADD11C,0.200000*%
%ADD12C,0.300000*%
G04 APERTURE END LIST*
D10*
X-6865125Y-36816943D02*
X-6622125Y-36663943D01*
X-8745125Y-37986943D02*
X-7315125Y-37986943D01*
X-7315125Y-37986943D02*
X-7155125Y-37826943D01*
X-7155125Y-37826943D02*
X-6865125Y-36816943D01*
X-9266270Y-36347075D02*
X-8915125Y-37816943D01*
X-6622125Y-36663943D02*
X-5127980Y-36664473D01*
X-8915125Y-37816943D02*
X-8745125Y-37986943D01*
X-5073509Y-36608864D02*
X-5127980Y-36664473D01*
X-9266125Y-36346943D02*
X-9265596Y-35232941D01*
X-8976724Y-34849596D02*
X-8786120Y-34143027D01*
X-8976724Y-34849596D02*
X-9265596Y-35232941D01*
X-8786120Y-34143027D02*
X-8608823Y-34012429D01*
X-5536125Y-34837148D02*
X-5380301Y-34987247D01*
X-8608823Y-34012429D02*
X-5536125Y-34837148D01*
X-5379118Y-35379366D02*
X-5380301Y-34987247D01*
X-5073899Y-35635660D02*
X-5379118Y-35379366D01*
X-5073509Y-36608864D02*
X-5073899Y-35635660D01*
D11*
X-6697545Y-35474692D02*
X-6522545Y-35649692D01*
X-6522545Y-35474692D02*
X-6697545Y-35649692D01*
X-5681545Y-35474692D02*
X-5506546Y-35649692D01*
X-5506546Y-35474692D02*
X-5681545Y-35649692D01*
X-8605500Y-37060500D02*
X-8430500Y-37235500D01*
X-8430500Y-37060500D02*
X-8605500Y-37235500D01*
X-7589500Y-37060500D02*
X-7414500Y-37235500D01*
X-7414500Y-37060500D02*
X-7589500Y-37235500D01*
X-8605500Y-35154692D02*
X-8430500Y-35329692D01*
X-8430500Y-35154692D02*
X-8605500Y-35329692D01*
X-7589500Y-35154692D02*
X-7414500Y-35329692D01*
X-7414500Y-35154692D02*
X-7589500Y-35329692D01*
X-6424545Y-36002192D02*
G75*
G03X-6424545Y-36002192I-147500J0D01*
G01*
X-5694545Y-36137192D02*
G75*
G03X-5694545Y-36137192I-147500J0D01*
G01*
X-8122500Y-36573000D02*
G75*
G03X-8122500Y-36573000I-147500J0D01*
G01*
X-7392500Y-36708000D02*
G75*
G03X-7392500Y-36708000I-147500J0D01*
G01*
X-8332500Y-35682192D02*
G75*
G03X-8332500Y-35682192I-147500J0D01*
G01*
X-7602500Y-35817192D02*
G75*
G03X-7602500Y-35817192I-147500J0D01*
G01*
X-6483045Y-35158192D02*
X-6483045Y-35458192D01*
X-6633045Y-35308192D02*
X-6333045Y-35308192D01*
X-5848045Y-34904192D02*
X-5848045Y-35204192D01*
X-5998045Y-35054192D02*
X-5698045Y-35054192D01*
X-8264000Y-37506000D02*
X-8264000Y-37806000D01*
X-8414000Y-37656000D02*
X-8114000Y-37656000D01*
X-7629000Y-37252000D02*
X-7629000Y-37552000D01*
X-7779000Y-37402000D02*
X-7479000Y-37402000D01*
X-8391000Y-34838192D02*
X-8391000Y-35138192D01*
X-8541000Y-34988192D02*
X-8241000Y-34988192D01*
X-7756000Y-34584192D02*
X-7756000Y-34884192D01*
X-7906000Y-34734192D02*
X-7606000Y-34734192D01*
X-5923499Y-35740738D02*
X-5923499Y-35383646D01*
X-6280592Y-35383646D01*
X-6280592Y-35740738D01*
X-5923499Y-35740738D01*
X-7831454Y-37326546D02*
X-7831454Y-36969454D01*
X-8188546Y-36969454D01*
X-8188546Y-37326546D01*
X-7831454Y-37326546D01*
X-7831454Y-35420738D02*
X-7831454Y-35063646D01*
X-8188546Y-35063646D01*
X-8188546Y-35420738D01*
X-7831454Y-35420738D01*
D12*
X-8982342Y-38455157D02*
X-8982342Y-38155157D01*
X-8910913Y-38155157D01*
X-8868056Y-38169443D01*
X-8839484Y-38198014D01*
X-8825199Y-38226586D01*
X-8810913Y-38283728D01*
X-8810913Y-38326586D01*
X-8825199Y-38383728D01*
X-8839484Y-38412300D01*
X-8868056Y-38440871D01*
X-8910913Y-38455157D01*
X-8982342Y-38455157D01*
X-8682342Y-38455157D02*
X-8682342Y-38255157D01*
X-8682342Y-38312300D02*
X-8668056Y-38283728D01*
X-8653770Y-38269443D01*
X-8625199Y-38255157D01*
X-8596627Y-38255157D01*
X-8496627Y-38455157D02*
X-8496627Y-38255157D01*
X-8496627Y-38155157D02*
X-8510913Y-38169443D01*
X-8496627Y-38183728D01*
X-8482342Y-38169443D01*
X-8496627Y-38155157D01*
X-8496627Y-38183728D01*
X-8310913Y-38455157D02*
X-8339484Y-38440871D01*
X-8353770Y-38412300D01*
X-8353770Y-38155157D01*
X-8153770Y-38455157D02*
X-8182342Y-38440871D01*
X-8196627Y-38412300D01*
X-8196627Y-38155157D01*
X-7810913Y-38455157D02*
X-7810913Y-38155157D01*
X-7710913Y-38369443D01*
X-7610913Y-38155157D01*
X-7610913Y-38455157D01*
X-7339484Y-38455157D02*
X-7339484Y-38298014D01*
X-7353770Y-38269443D01*
X-7382342Y-38255157D01*
X-7439484Y-38255157D01*
X-7468056Y-38269443D01*
X-7339484Y-38440871D02*
X-7368056Y-38455157D01*
X-7439484Y-38455157D01*
X-7468056Y-38440871D01*
X-7482342Y-38412300D01*
X-7482342Y-38383728D01*
X-7468056Y-38355157D01*
X-7439484Y-38340871D01*
X-7368056Y-38340871D01*
X-7339484Y-38326586D01*
X-7196627Y-38255157D02*
X-7196627Y-38555157D01*
X-7196627Y-38269443D02*
X-7168056Y-38255157D01*
X-7110913Y-38255157D01*
X-7082342Y-38269443D01*
X-7068056Y-38283728D01*
X-7053770Y-38312300D01*
X-7053770Y-38398014D01*
X-7068056Y-38426586D01*
X-7082342Y-38440871D01*
X-7110913Y-38455157D01*
X-7168056Y-38455157D01*
X-7196627Y-38440871D01*
X-6925199Y-38426586D02*
X-6910913Y-38440871D01*
X-6925199Y-38455157D01*
X-6939484Y-38440871D01*
X-6925199Y-38426586D01*
X-6925199Y-38455157D01*
X-6925199Y-38269443D02*
X-6910913Y-38283728D01*
X-6925199Y-38298014D01*
X-6939484Y-38283728D01*
X-6925199Y-38269443D01*
X-6925199Y-38298014D01*
X-9443770Y-38861943D02*
X-9268770Y-39036943D01*
X-9268770Y-38861943D02*
X-9443770Y-39036943D01*
X-8825199Y-39085157D02*
X-8996627Y-39085157D01*
X-8910913Y-39085157D02*
X-8910913Y-38785157D01*
X-8939484Y-38828014D01*
X-8968056Y-38856586D01*
X-8996627Y-38870871D01*
X-8696627Y-39056586D02*
X-8682342Y-39070871D01*
X-8696627Y-39085157D01*
X-8710913Y-39070871D01*
X-8696627Y-39056586D01*
X-8696627Y-39085157D01*
X-8582342Y-38785157D02*
X-8382342Y-38785157D01*
X-8510913Y-39085157D01*
X-8125199Y-38785157D02*
X-8268056Y-38785157D01*
X-8282342Y-38928014D01*
X-8268056Y-38913728D01*
X-8239484Y-38899443D01*
X-8168056Y-38899443D01*
X-8139484Y-38913728D01*
X-8125199Y-38928014D01*
X-8110913Y-38956586D01*
X-8110913Y-39028014D01*
X-8125199Y-39056586D01*
X-8139484Y-39070871D01*
X-8168056Y-39085157D01*
X-8239484Y-39085157D01*
X-8268056Y-39070871D01*
X-8282342Y-39056586D01*
X-7982342Y-39085157D02*
X-7982342Y-38885157D01*
X-7982342Y-38913728D02*
X-7968056Y-38899443D01*
X-7939484Y-38885157D01*
X-7896627Y-38885157D01*
X-7868056Y-38899443D01*
X-7853770Y-38928014D01*
X-7853770Y-39085157D01*
X-7853770Y-38928014D02*
X-7839484Y-38899443D01*
X-7810913Y-38885157D01*
X-7768056Y-38885157D01*
X-7739484Y-38899443D01*
X-7725199Y-38928014D01*
X-7725199Y-39085157D01*
X-7582342Y-39085157D02*
X-7582342Y-38885157D01*
X-7582342Y-38913728D02*
X-7568056Y-38899443D01*
X-7539484Y-38885157D01*
X-7496627Y-38885157D01*
X-7468056Y-38899443D01*
X-7453770Y-38928014D01*
X-7453770Y-39085157D01*
X-7453770Y-38928014D02*
X-7439484Y-38899443D01*
X-7410913Y-38885157D01*
X-7368056Y-38885157D01*
X-7339484Y-38899443D01*
X-7325199Y-38928014D01*
X-7325199Y-39085157D01*
X-6739484Y-38770871D02*
X-6996627Y-39156586D01*
X-6353770Y-38785157D02*
X-6325199Y-38785157D01*
X-6296627Y-38799443D01*
X-6282342Y-38813728D01*
X-6268056Y-38842300D01*
X-6253770Y-38899443D01*
X-6253770Y-38970871D01*
X-6268056Y-39028014D01*
X-6282342Y-39056586D01*
X-6296627Y-39070871D01*
X-6325199Y-39085157D01*
X-6353770Y-39085157D01*
X-6382342Y-39070871D01*
X-6396627Y-39056586D01*
X-6410913Y-39028014D01*
X-6425199Y-38970871D01*
X-6425199Y-38899443D01*
X-6410913Y-38842300D01*
X-6396627Y-38813728D01*
X-6382342Y-38799443D01*
X-6353770Y-38785157D01*
X-6125199Y-39056586D02*
X-6110913Y-39070871D01*
X-6125199Y-39085157D01*
X-6139484Y-39070871D01*
X-6125199Y-39056586D01*
X-6125199Y-39085157D01*
X-5925199Y-38785157D02*
X-5896627Y-38785157D01*
X-5868056Y-38799443D01*
X-5853770Y-38813728D01*
X-5839484Y-38842300D01*
X-5825199Y-38899443D01*
X-5825199Y-38970871D01*
X-5839484Y-39028014D01*
X-5853770Y-39056586D01*
X-5868056Y-39070871D01*
X-5896627Y-39085157D01*
X-5925199Y-39085157D01*
X-5953770Y-39070871D01*
X-5968056Y-39056586D01*
X-5982342Y-39028014D01*
X-5996627Y-38970871D01*
X-5996627Y-38899443D01*
X-5982342Y-38842300D01*
X-5968056Y-38813728D01*
X-5953770Y-38799443D01*
X-5925199Y-38785157D01*
X-5568056Y-38785157D02*
X-5625199Y-38785157D01*
X-5653770Y-38799443D01*
X-5668056Y-38813728D01*
X-5696627Y-38856586D01*
X-5710913Y-38913728D01*
X-5710913Y-39028014D01*
X-5696627Y-39056586D01*
X-5682342Y-39070871D01*
X-5653770Y-39085157D01*
X-5596627Y-39085157D01*
X-5568056Y-39070871D01*
X-5553770Y-39056586D01*
X-5539484Y-39028014D01*
X-5539484Y-38956586D01*
X-5553770Y-38928014D01*
X-5568056Y-38913728D01*
X-5596627Y-38899443D01*
X-5653770Y-38899443D01*
X-5682342Y-38913728D01*
X-5696627Y-38928014D01*
X-5710913Y-38956586D01*
X-5396627Y-39085157D02*
X-5339484Y-39085157D01*
X-5310913Y-39070871D01*
X-5296627Y-39056586D01*
X-5268056Y-39013728D01*
X-5253770Y-38956586D01*
X-5253770Y-38842300D01*
X-5268056Y-38813728D01*
X-5282342Y-38799443D01*
X-5310913Y-38785157D01*
X-5368056Y-38785157D01*
X-5396627Y-38799443D01*
X-5410913Y-38813728D01*
X-5425199Y-38842300D01*
X-5425199Y-38913728D01*
X-5410913Y-38942300D01*
X-5396627Y-38956586D01*
X-5368056Y-38970871D01*
X-5310913Y-38970871D01*
X-5282342Y-38956586D01*
X-5268056Y-38942300D01*
X-5253770Y-38913728D01*
X-5139484Y-38785157D02*
X-5139484Y-38842300D01*
X-5025199Y-38785157D02*
X-5025199Y-38842300D01*
X-4582342Y-39199443D02*
X-4596627Y-39185157D01*
X-4625199Y-39142300D01*
X-4639484Y-39113728D01*
X-4653770Y-39070871D01*
X-4668056Y-38999443D01*
X-4668056Y-38942300D01*
X-4653770Y-38870871D01*
X-4639484Y-38828014D01*
X-4625199Y-38799443D01*
X-4596627Y-38756586D01*
X-4582342Y-38742300D01*
X-4339484Y-38785157D02*
X-4396627Y-38785157D01*
X-4425199Y-38799443D01*
X-4439484Y-38813728D01*
X-4468056Y-38856586D01*
X-4482342Y-38913728D01*
X-4482342Y-39028014D01*
X-4468056Y-39056586D01*
X-4453770Y-39070871D01*
X-4425199Y-39085157D01*
X-4368056Y-39085157D01*
X-4339484Y-39070871D01*
X-4325199Y-39056586D01*
X-4310913Y-39028014D01*
X-4310913Y-38956586D01*
X-4325199Y-38928014D01*
X-4339484Y-38913728D01*
X-4368056Y-38899443D01*
X-4425199Y-38899443D01*
X-4453770Y-38913728D01*
X-4468056Y-38928014D01*
X-4482342Y-38956586D01*
X-3953770Y-39085157D02*
X-3953770Y-38785157D01*
X-3825199Y-39085157D02*
X-3825199Y-38928014D01*
X-3839484Y-38899443D01*
X-3868056Y-38885157D01*
X-3910913Y-38885157D01*
X-3939484Y-38899443D01*
X-3953770Y-38913728D01*
X-3639484Y-39085157D02*
X-3668056Y-39070871D01*
X-3682342Y-39056586D01*
X-3696627Y-39028014D01*
X-3696627Y-38942300D01*
X-3682342Y-38913728D01*
X-3668056Y-38899443D01*
X-3639484Y-38885157D01*
X-3596627Y-38885157D01*
X-3568056Y-38899443D01*
X-3553770Y-38913728D01*
X-3539484Y-38942300D01*
X-3539484Y-39028014D01*
X-3553770Y-39056586D01*
X-3568056Y-39070871D01*
X-3596627Y-39085157D01*
X-3639484Y-39085157D01*
X-3368056Y-39085157D02*
X-3396627Y-39070871D01*
X-3410913Y-39042300D01*
X-3410913Y-38785157D01*
X-3139484Y-39070871D02*
X-3168056Y-39085157D01*
X-3225199Y-39085157D01*
X-3253770Y-39070871D01*
X-3268056Y-39042300D01*
X-3268056Y-38928014D01*
X-3253770Y-38899443D01*
X-3225199Y-38885157D01*
X-3168056Y-38885157D01*
X-3139484Y-38899443D01*
X-3125199Y-38928014D01*
X-3125199Y-38956586D01*
X-3268056Y-38985157D01*
X-3010913Y-39070871D02*
X-2982342Y-39085157D01*
X-2925199Y-39085157D01*
X-2896627Y-39070871D01*
X-2882342Y-39042300D01*
X-2882342Y-39028014D01*
X-2896627Y-38999443D01*
X-2925199Y-38985157D01*
X-2968056Y-38985157D01*
X-2996627Y-38970871D01*
X-3010913Y-38942300D01*
X-3010913Y-38928014D01*
X-2996627Y-38899443D01*
X-2968056Y-38885157D01*
X-2925199Y-38885157D01*
X-2896627Y-38899443D01*
X-2782342Y-39199443D02*
X-2768056Y-39185157D01*
X-2739484Y-39142300D01*
X-2725199Y-39113728D01*
X-2710913Y-39070871D01*
X-2696627Y-38999443D01*
X-2696627Y-38942300D01*
X-2710913Y-38870871D01*
X-2725199Y-38828014D01*
X-2739484Y-38799443D01*
X-2768056Y-38756586D01*
X-2782342Y-38742300D01*
X-2239484Y-39199443D02*
X-2253770Y-39185157D01*
X-2282342Y-39142300D01*
X-2296627Y-39113728D01*
X-2310913Y-39070871D01*
X-2325199Y-38999443D01*
X-2325199Y-38942300D01*
X-2310913Y-38870871D01*
X-2296627Y-38828014D01*
X-2282342Y-38799443D01*
X-2253770Y-38756586D01*
X-2239484Y-38742300D01*
X-2125199Y-38885157D02*
X-2125199Y-39085157D01*
X-2125199Y-38913728D02*
X-2110913Y-38899443D01*
X-2082342Y-38885157D01*
X-2039484Y-38885157D01*
X-2010913Y-38899443D01*
X-1996627Y-38928014D01*
X-1996627Y-39085157D01*
X-1810913Y-39085157D02*
X-1839484Y-39070871D01*
X-1853770Y-39056586D01*
X-1868056Y-39028014D01*
X-1868056Y-38942300D01*
X-1853770Y-38913728D01*
X-1839484Y-38899443D01*
X-1810913Y-38885157D01*
X-1768056Y-38885157D01*
X-1739484Y-38899443D01*
X-1725199Y-38913728D01*
X-1710913Y-38942300D01*
X-1710913Y-39028014D01*
X-1725199Y-39056586D01*
X-1739484Y-39070871D01*
X-1768056Y-39085157D01*
X-1810913Y-39085157D01*
X-1625199Y-38885157D02*
X-1510913Y-38885157D01*
X-1582342Y-38785157D02*
X-1582342Y-39042300D01*
X-1568056Y-39070871D01*
X-1539484Y-39085157D01*
X-1510913Y-39085157D01*
X-1182342Y-38885157D02*
X-1182342Y-39185157D01*
X-1182342Y-38899443D02*
X-1153770Y-38885157D01*
X-1096627Y-38885157D01*
X-1068056Y-38899443D01*
X-1053770Y-38913728D01*
X-1039484Y-38942300D01*
X-1039484Y-39028014D01*
X-1053770Y-39056586D01*
X-1068056Y-39070871D01*
X-1096627Y-39085157D01*
X-1153770Y-39085157D01*
X-1182342Y-39070871D01*
X-868056Y-39085157D02*
X-896627Y-39070871D01*
X-910913Y-39042300D01*
X-910913Y-38785157D01*
X-625199Y-39085157D02*
X-625199Y-38928014D01*
X-639484Y-38899443D01*
X-668056Y-38885157D01*
X-725199Y-38885157D01*
X-753770Y-38899443D01*
X-625199Y-39070871D02*
X-653770Y-39085157D01*
X-725199Y-39085157D01*
X-753770Y-39070871D01*
X-768056Y-39042300D01*
X-768056Y-39013728D01*
X-753770Y-38985157D01*
X-725199Y-38970871D01*
X-653770Y-38970871D01*
X-625199Y-38956586D01*
X-525199Y-38885157D02*
X-410913Y-38885157D01*
X-482342Y-38785157D02*
X-482342Y-39042300D01*
X-468056Y-39070871D01*
X-439484Y-39085157D01*
X-410913Y-39085157D01*
X-196627Y-39070871D02*
X-225199Y-39085157D01*
X-282342Y-39085157D01*
X-310913Y-39070871D01*
X-325199Y-39042300D01*
X-325199Y-38928014D01*
X-310913Y-38899443D01*
X-282342Y-38885157D01*
X-225199Y-38885157D01*
X-196627Y-38899443D01*
X-182342Y-38928014D01*
X-182342Y-38956586D01*
X-325199Y-38985157D01*
X74801Y-39085157D02*
X74801Y-38785157D01*
X74801Y-39070871D02*
X46230Y-39085157D01*
X-10913Y-39085157D01*
X-39484Y-39070871D01*
X-53770Y-39056586D01*
X-68056Y-39028014D01*
X-68056Y-38942300D01*
X-53770Y-38913728D01*
X-39484Y-38899443D01*
X-10913Y-38885157D01*
X46230Y-38885157D01*
X74801Y-38899443D01*
X189087Y-39199443D02*
X203373Y-39185157D01*
X231944Y-39142300D01*
X246230Y-39113728D01*
X260515Y-39070871D01*
X274801Y-38999443D01*
X274801Y-38942300D01*
X260515Y-38870871D01*
X246230Y-38828014D01*
X231944Y-38799443D01*
X203373Y-38756586D01*
X189087Y-38742300D01*
X-9268770Y-39345443D02*
G75*
G03X-9268770Y-39345443I-147500J0D01*
G01*
X-8996627Y-39209728D02*
X-8982342Y-39195443D01*
X-8953770Y-39181157D01*
X-8882342Y-39181157D01*
X-8853770Y-39195443D01*
X-8839484Y-39209728D01*
X-8825199Y-39238300D01*
X-8825199Y-39266871D01*
X-8839484Y-39309728D01*
X-9010913Y-39481157D01*
X-8825199Y-39481157D01*
X-8696627Y-39452586D02*
X-8682342Y-39466871D01*
X-8696627Y-39481157D01*
X-8710913Y-39466871D01*
X-8696627Y-39452586D01*
X-8696627Y-39481157D01*
X-8539484Y-39481157D02*
X-8482342Y-39481157D01*
X-8453770Y-39466871D01*
X-8439484Y-39452586D01*
X-8410913Y-39409728D01*
X-8396627Y-39352586D01*
X-8396627Y-39238300D01*
X-8410913Y-39209728D01*
X-8425199Y-39195443D01*
X-8453770Y-39181157D01*
X-8510913Y-39181157D01*
X-8539484Y-39195443D01*
X-8553770Y-39209728D01*
X-8568056Y-39238300D01*
X-8568056Y-39309728D01*
X-8553770Y-39338300D01*
X-8539484Y-39352586D01*
X-8510913Y-39366871D01*
X-8453770Y-39366871D01*
X-8425199Y-39352586D01*
X-8410913Y-39338300D01*
X-8396627Y-39309728D01*
X-8125199Y-39181157D02*
X-8268056Y-39181157D01*
X-8282342Y-39324014D01*
X-8268056Y-39309728D01*
X-8239484Y-39295443D01*
X-8168056Y-39295443D01*
X-8139484Y-39309728D01*
X-8125199Y-39324014D01*
X-8110913Y-39352586D01*
X-8110913Y-39424014D01*
X-8125199Y-39452586D01*
X-8139484Y-39466871D01*
X-8168056Y-39481157D01*
X-8239484Y-39481157D01*
X-8268056Y-39466871D01*
X-8282342Y-39452586D01*
X-7982342Y-39481157D02*
X-7982342Y-39281157D01*
X-7982342Y-39309728D02*
X-7968056Y-39295443D01*
X-7939484Y-39281157D01*
X-7896627Y-39281157D01*
X-7868056Y-39295443D01*
X-7853770Y-39324014D01*
X-7853770Y-39481157D01*
X-7853770Y-39324014D02*
X-7839484Y-39295443D01*
X-7810913Y-39281157D01*
X-7768056Y-39281157D01*
X-7739484Y-39295443D01*
X-7725199Y-39324014D01*
X-7725199Y-39481157D01*
X-7582342Y-39481157D02*
X-7582342Y-39281157D01*
X-7582342Y-39309728D02*
X-7568056Y-39295443D01*
X-7539484Y-39281157D01*
X-7496627Y-39281157D01*
X-7468056Y-39295443D01*
X-7453770Y-39324014D01*
X-7453770Y-39481157D01*
X-7453770Y-39324014D02*
X-7439484Y-39295443D01*
X-7410913Y-39281157D01*
X-7368056Y-39281157D01*
X-7339484Y-39295443D01*
X-7325199Y-39324014D01*
X-7325199Y-39481157D01*
X-6739484Y-39166871D02*
X-6996627Y-39552586D01*
X-6353770Y-39181157D02*
X-6325199Y-39181157D01*
X-6296627Y-39195443D01*
X-6282342Y-39209728D01*
X-6268056Y-39238300D01*
X-6253770Y-39295443D01*
X-6253770Y-39366871D01*
X-6268056Y-39424014D01*
X-6282342Y-39452586D01*
X-6296627Y-39466871D01*
X-6325199Y-39481157D01*
X-6353770Y-39481157D01*
X-6382342Y-39466871D01*
X-6396627Y-39452586D01*
X-6410913Y-39424014D01*
X-6425199Y-39366871D01*
X-6425199Y-39295443D01*
X-6410913Y-39238300D01*
X-6396627Y-39209728D01*
X-6382342Y-39195443D01*
X-6353770Y-39181157D01*
X-6125199Y-39452586D02*
X-6110913Y-39466871D01*
X-6125199Y-39481157D01*
X-6139484Y-39466871D01*
X-6125199Y-39452586D01*
X-6125199Y-39481157D01*
X-5825199Y-39481157D02*
X-5996627Y-39481157D01*
X-5910913Y-39481157D02*
X-5910913Y-39181157D01*
X-5939484Y-39224014D01*
X-5968056Y-39252586D01*
X-5996627Y-39266871D01*
X-5539484Y-39481157D02*
X-5710913Y-39481157D01*
X-5625199Y-39481157D02*
X-5625199Y-39181157D01*
X-5653770Y-39224014D01*
X-5682342Y-39252586D01*
X-5710913Y-39266871D01*
X-5282342Y-39181157D02*
X-5339484Y-39181157D01*
X-5368056Y-39195443D01*
X-5382342Y-39209728D01*
X-5410913Y-39252586D01*
X-5425199Y-39309728D01*
X-5425199Y-39424014D01*
X-5410913Y-39452586D01*
X-5396627Y-39466871D01*
X-5368056Y-39481157D01*
X-5310913Y-39481157D01*
X-5282342Y-39466871D01*
X-5268056Y-39452586D01*
X-5253770Y-39424014D01*
X-5253770Y-39352586D01*
X-5268056Y-39324014D01*
X-5282342Y-39309728D01*
X-5310913Y-39295443D01*
X-5368056Y-39295443D01*
X-5396627Y-39309728D01*
X-5410913Y-39324014D01*
X-5425199Y-39352586D01*
X-5139484Y-39181157D02*
X-5139484Y-39238300D01*
X-5025199Y-39181157D02*
X-5025199Y-39238300D01*
X-4582342Y-39595443D02*
X-4596627Y-39581157D01*
X-4625199Y-39538300D01*
X-4639484Y-39509728D01*
X-4653770Y-39466871D01*
X-4668056Y-39395443D01*
X-4668056Y-39338300D01*
X-4653770Y-39266871D01*
X-4639484Y-39224014D01*
X-4625199Y-39195443D01*
X-4596627Y-39152586D01*
X-4582342Y-39138300D01*
X-4339484Y-39181157D02*
X-4396627Y-39181157D01*
X-4425199Y-39195443D01*
X-4439484Y-39209728D01*
X-4468056Y-39252586D01*
X-4482342Y-39309728D01*
X-4482342Y-39424014D01*
X-4468056Y-39452586D01*
X-4453770Y-39466871D01*
X-4425199Y-39481157D01*
X-4368056Y-39481157D01*
X-4339484Y-39466871D01*
X-4325199Y-39452586D01*
X-4310913Y-39424014D01*
X-4310913Y-39352586D01*
X-4325199Y-39324014D01*
X-4339484Y-39309728D01*
X-4368056Y-39295443D01*
X-4425199Y-39295443D01*
X-4453770Y-39309728D01*
X-4468056Y-39324014D01*
X-4482342Y-39352586D01*
X-3953770Y-39481157D02*
X-3953770Y-39181157D01*
X-3825199Y-39481157D02*
X-3825199Y-39324014D01*
X-3839484Y-39295443D01*
X-3868056Y-39281157D01*
X-3910913Y-39281157D01*
X-3939484Y-39295443D01*
X-3953770Y-39309728D01*
X-3639484Y-39481157D02*
X-3668056Y-39466871D01*
X-3682342Y-39452586D01*
X-3696627Y-39424014D01*
X-3696627Y-39338300D01*
X-3682342Y-39309728D01*
X-3668056Y-39295443D01*
X-3639484Y-39281157D01*
X-3596627Y-39281157D01*
X-3568056Y-39295443D01*
X-3553770Y-39309728D01*
X-3539484Y-39338300D01*
X-3539484Y-39424014D01*
X-3553770Y-39452586D01*
X-3568056Y-39466871D01*
X-3596627Y-39481157D01*
X-3639484Y-39481157D01*
X-3368056Y-39481157D02*
X-3396627Y-39466871D01*
X-3410913Y-39438300D01*
X-3410913Y-39181157D01*
X-3139484Y-39466871D02*
X-3168056Y-39481157D01*
X-3225199Y-39481157D01*
X-3253770Y-39466871D01*
X-3268056Y-39438300D01*
X-3268056Y-39324014D01*
X-3253770Y-39295443D01*
X-3225199Y-39281157D01*
X-3168056Y-39281157D01*
X-3139484Y-39295443D01*
X-3125199Y-39324014D01*
X-3125199Y-39352586D01*
X-3268056Y-39381157D01*
X-3010913Y-39466871D02*
X-2982342Y-39481157D01*
X-2925199Y-39481157D01*
X-2896627Y-39466871D01*
X-2882342Y-39438300D01*
X-2882342Y-39424014D01*
X-2896627Y-39395443D01*
X-2925199Y-39381157D01*
X-2968056Y-39381157D01*
X-2996627Y-39366871D01*
X-3010913Y-39338300D01*
X-3010913Y-39324014D01*
X-2996627Y-39295443D01*
X-2968056Y-39281157D01*
X-2925199Y-39281157D01*
X-2896627Y-39295443D01*
X-2782342Y-39595443D02*
X-2768056Y-39581157D01*
X-2739484Y-39538300D01*
X-2725199Y-39509728D01*
X-2710913Y-39466871D01*
X-2696627Y-39395443D01*
X-2696627Y-39338300D01*
X-2710913Y-39266871D01*
X-2725199Y-39224014D01*
X-2739484Y-39195443D01*
X-2768056Y-39152586D01*
X-2782342Y-39138300D01*
X-2239484Y-39595443D02*
X-2253770Y-39581157D01*
X-2282342Y-39538300D01*
X-2296627Y-39509728D01*
X-2310913Y-39466871D01*
X-2325199Y-39395443D01*
X-2325199Y-39338300D01*
X-2310913Y-39266871D01*
X-2296627Y-39224014D01*
X-2282342Y-39195443D01*
X-2253770Y-39152586D01*
X-2239484Y-39138300D01*
X-2125199Y-39281157D02*
X-2125199Y-39481157D01*
X-2125199Y-39309728D02*
X-2110913Y-39295443D01*
X-2082342Y-39281157D01*
X-2039484Y-39281157D01*
X-2010913Y-39295443D01*
X-1996627Y-39324014D01*
X-1996627Y-39481157D01*
X-1810913Y-39481157D02*
X-1839484Y-39466871D01*
X-1853770Y-39452586D01*
X-1868056Y-39424014D01*
X-1868056Y-39338300D01*
X-1853770Y-39309728D01*
X-1839484Y-39295443D01*
X-1810913Y-39281157D01*
X-1768056Y-39281157D01*
X-1739484Y-39295443D01*
X-1725199Y-39309728D01*
X-1710913Y-39338300D01*
X-1710913Y-39424014D01*
X-1725199Y-39452586D01*
X-1739484Y-39466871D01*
X-1768056Y-39481157D01*
X-1810913Y-39481157D01*
X-1625199Y-39281157D02*
X-1510913Y-39281157D01*
X-1582342Y-39181157D02*
X-1582342Y-39438300D01*
X-1568056Y-39466871D01*
X-1539484Y-39481157D01*
X-1510913Y-39481157D01*
X-1182342Y-39281157D02*
X-1182342Y-39581157D01*
X-1182342Y-39295443D02*
X-1153770Y-39281157D01*
X-1096627Y-39281157D01*
X-1068056Y-39295443D01*
X-1053770Y-39309728D01*
X-1039484Y-39338300D01*
X-1039484Y-39424014D01*
X-1053770Y-39452586D01*
X-1068056Y-39466871D01*
X-1096627Y-39481157D01*
X-1153770Y-39481157D01*
X-1182342Y-39466871D01*
X-868056Y-39481157D02*
X-896627Y-39466871D01*
X-910913Y-39438300D01*
X-910913Y-39181157D01*
X-625199Y-39481157D02*
X-625199Y-39324014D01*
X-639484Y-39295443D01*
X-668056Y-39281157D01*
X-725199Y-39281157D01*
X-753770Y-39295443D01*
X-625199Y-39466871D02*
X-653770Y-39481157D01*
X-725199Y-39481157D01*
X-753770Y-39466871D01*
X-768056Y-39438300D01*
X-768056Y-39409728D01*
X-753770Y-39381157D01*
X-725199Y-39366871D01*
X-653770Y-39366871D01*
X-625199Y-39352586D01*
X-525199Y-39281157D02*
X-410913Y-39281157D01*
X-482342Y-39181157D02*
X-482342Y-39438300D01*
X-468056Y-39466871D01*
X-439484Y-39481157D01*
X-410913Y-39481157D01*
X-196627Y-39466871D02*
X-225199Y-39481157D01*
X-282342Y-39481157D01*
X-310913Y-39466871D01*
X-325199Y-39438300D01*
X-325199Y-39324014D01*
X-310913Y-39295443D01*
X-282342Y-39281157D01*
X-225199Y-39281157D01*
X-196627Y-39295443D01*
X-182342Y-39324014D01*
X-182342Y-39352586D01*
X-325199Y-39381157D01*
X74801Y-39481157D02*
X74801Y-39181157D01*
X74801Y-39466871D02*
X46230Y-39481157D01*
X-10913Y-39481157D01*
X-39484Y-39466871D01*
X-53770Y-39452586D01*
X-68056Y-39424014D01*
X-68056Y-39338300D01*
X-53770Y-39309728D01*
X-39484Y-39295443D01*
X-10913Y-39281157D01*
X46230Y-39281157D01*
X74801Y-39295443D01*
X189087Y-39595443D02*
X203373Y-39581157D01*
X231944Y-39538300D01*
X246230Y-39509728D01*
X260515Y-39466871D01*
X274801Y-39395443D01*
X274801Y-39338300D01*
X260515Y-39266871D01*
X246230Y-39224014D01*
X231944Y-39195443D01*
X203373Y-39152586D01*
X189087Y-39138300D01*
X-9418770Y-39620443D02*
X-9418770Y-39920443D01*
X-9568770Y-39770443D02*
X-9268770Y-39770443D01*
X-9010913Y-39606157D02*
X-8825199Y-39606157D01*
X-8925199Y-39720443D01*
X-8882342Y-39720443D01*
X-8853770Y-39734728D01*
X-8839484Y-39749014D01*
X-8825199Y-39777586D01*
X-8825199Y-39849014D01*
X-8839484Y-39877586D01*
X-8853770Y-39891871D01*
X-8882342Y-39906157D01*
X-8968056Y-39906157D01*
X-8996627Y-39891871D01*
X-9010913Y-39877586D01*
X-8696627Y-39877586D02*
X-8682342Y-39891871D01*
X-8696627Y-39906157D01*
X-8710913Y-39891871D01*
X-8696627Y-39877586D01*
X-8696627Y-39906157D01*
X-8496627Y-39606157D02*
X-8468056Y-39606157D01*
X-8439484Y-39620443D01*
X-8425199Y-39634728D01*
X-8410913Y-39663300D01*
X-8396627Y-39720443D01*
X-8396627Y-39791871D01*
X-8410913Y-39849014D01*
X-8425199Y-39877586D01*
X-8439484Y-39891871D01*
X-8468056Y-39906157D01*
X-8496627Y-39906157D01*
X-8525199Y-39891871D01*
X-8539484Y-39877586D01*
X-8553770Y-39849014D01*
X-8568056Y-39791871D01*
X-8568056Y-39720443D01*
X-8553770Y-39663300D01*
X-8539484Y-39634728D01*
X-8525199Y-39620443D01*
X-8496627Y-39606157D01*
X-8210913Y-39606157D02*
X-8182342Y-39606157D01*
X-8153770Y-39620443D01*
X-8139484Y-39634728D01*
X-8125199Y-39663300D01*
X-8110913Y-39720443D01*
X-8110913Y-39791871D01*
X-8125199Y-39849014D01*
X-8139484Y-39877586D01*
X-8153770Y-39891871D01*
X-8182342Y-39906157D01*
X-8210913Y-39906157D01*
X-8239484Y-39891871D01*
X-8253770Y-39877586D01*
X-8268056Y-39849014D01*
X-8282342Y-39791871D01*
X-8282342Y-39720443D01*
X-8268056Y-39663300D01*
X-8253770Y-39634728D01*
X-8239484Y-39620443D01*
X-8210913Y-39606157D01*
X-7982342Y-39906157D02*
X-7982342Y-39706157D01*
X-7982342Y-39734728D02*
X-7968056Y-39720443D01*
X-7939484Y-39706157D01*
X-7896627Y-39706157D01*
X-7868056Y-39720443D01*
X-7853770Y-39749014D01*
X-7853770Y-39906157D01*
X-7853770Y-39749014D02*
X-7839484Y-39720443D01*
X-7810913Y-39706157D01*
X-7768056Y-39706157D01*
X-7739484Y-39720443D01*
X-7725199Y-39749014D01*
X-7725199Y-39906157D01*
X-7582342Y-39906157D02*
X-7582342Y-39706157D01*
X-7582342Y-39734728D02*
X-7568056Y-39720443D01*
X-7539484Y-39706157D01*
X-7496627Y-39706157D01*
X-7468056Y-39720443D01*
X-7453770Y-39749014D01*
X-7453770Y-39906157D01*
X-7453770Y-39749014D02*
X-7439484Y-39720443D01*
X-7410913Y-39706157D01*
X-7368056Y-39706157D01*
X-7339484Y-39720443D01*
X-7325199Y-39749014D01*
X-7325199Y-39906157D01*
X-6739484Y-39591871D02*
X-6996627Y-39977586D01*
X-6353770Y-39606157D02*
X-6325199Y-39606157D01*
X-6296627Y-39620443D01*
X-6282342Y-39634728D01*
X-6268056Y-39663300D01*
X-6253770Y-39720443D01*
X-6253770Y-39791871D01*
X-6268056Y-39849014D01*
X-6282342Y-39877586D01*
X-6296627Y-39891871D01*
X-6325199Y-39906157D01*
X-6353770Y-39906157D01*
X-6382342Y-39891871D01*
X-6396627Y-39877586D01*
X-6410913Y-39849014D01*
X-6425199Y-39791871D01*
X-6425199Y-39720443D01*
X-6410913Y-39663300D01*
X-6396627Y-39634728D01*
X-6382342Y-39620443D01*
X-6353770Y-39606157D01*
X-6125199Y-39877586D02*
X-6110913Y-39891871D01*
X-6125199Y-39906157D01*
X-6139484Y-39891871D01*
X-6125199Y-39877586D01*
X-6125199Y-39906157D01*
X-5825199Y-39906157D02*
X-5996627Y-39906157D01*
X-5910913Y-39906157D02*
X-5910913Y-39606157D01*
X-5939484Y-39649014D01*
X-5968056Y-39677586D01*
X-5996627Y-39691871D01*
X-5539484Y-39906157D02*
X-5710913Y-39906157D01*
X-5625199Y-39906157D02*
X-5625199Y-39606157D01*
X-5653770Y-39649014D01*
X-5682342Y-39677586D01*
X-5710913Y-39691871D01*
X-5368056Y-39734728D02*
X-5396627Y-39720443D01*
X-5410913Y-39706157D01*
X-5425199Y-39677586D01*
X-5425199Y-39663300D01*
X-5410913Y-39634728D01*
X-5396627Y-39620443D01*
X-5368056Y-39606157D01*
X-5310913Y-39606157D01*
X-5282342Y-39620443D01*
X-5268056Y-39634728D01*
X-5253770Y-39663300D01*
X-5253770Y-39677586D01*
X-5268056Y-39706157D01*
X-5282342Y-39720443D01*
X-5310913Y-39734728D01*
X-5368056Y-39734728D01*
X-5396627Y-39749014D01*
X-5410913Y-39763300D01*
X-5425199Y-39791871D01*
X-5425199Y-39849014D01*
X-5410913Y-39877586D01*
X-5396627Y-39891871D01*
X-5368056Y-39906157D01*
X-5310913Y-39906157D01*
X-5282342Y-39891871D01*
X-5268056Y-39877586D01*
X-5253770Y-39849014D01*
X-5253770Y-39791871D01*
X-5268056Y-39763300D01*
X-5282342Y-39749014D01*
X-5310913Y-39734728D01*
X-5139484Y-39606157D02*
X-5139484Y-39663300D01*
X-5025199Y-39606157D02*
X-5025199Y-39663300D01*
X-4582342Y-40020443D02*
X-4596627Y-40006157D01*
X-4625199Y-39963300D01*
X-4639484Y-39934728D01*
X-4653770Y-39891871D01*
X-4668056Y-39820443D01*
X-4668056Y-39763300D01*
X-4653770Y-39691871D01*
X-4639484Y-39649014D01*
X-4625199Y-39620443D01*
X-4596627Y-39577586D01*
X-4582342Y-39563300D01*
X-4339484Y-39606157D02*
X-4396627Y-39606157D01*
X-4425199Y-39620443D01*
X-4439484Y-39634728D01*
X-4468056Y-39677586D01*
X-4482342Y-39734728D01*
X-4482342Y-39849014D01*
X-4468056Y-39877586D01*
X-4453770Y-39891871D01*
X-4425199Y-39906157D01*
X-4368056Y-39906157D01*
X-4339484Y-39891871D01*
X-4325199Y-39877586D01*
X-4310913Y-39849014D01*
X-4310913Y-39777586D01*
X-4325199Y-39749014D01*
X-4339484Y-39734728D01*
X-4368056Y-39720443D01*
X-4425199Y-39720443D01*
X-4453770Y-39734728D01*
X-4468056Y-39749014D01*
X-4482342Y-39777586D01*
X-3953770Y-39906157D02*
X-3953770Y-39606157D01*
X-3825199Y-39906157D02*
X-3825199Y-39749014D01*
X-3839484Y-39720443D01*
X-3868056Y-39706157D01*
X-3910913Y-39706157D01*
X-3939484Y-39720443D01*
X-3953770Y-39734728D01*
X-3639484Y-39906157D02*
X-3668056Y-39891871D01*
X-3682342Y-39877586D01*
X-3696627Y-39849014D01*
X-3696627Y-39763300D01*
X-3682342Y-39734728D01*
X-3668056Y-39720443D01*
X-3639484Y-39706157D01*
X-3596627Y-39706157D01*
X-3568056Y-39720443D01*
X-3553770Y-39734728D01*
X-3539484Y-39763300D01*
X-3539484Y-39849014D01*
X-3553770Y-39877586D01*
X-3568056Y-39891871D01*
X-3596627Y-39906157D01*
X-3639484Y-39906157D01*
X-3368056Y-39906157D02*
X-3396627Y-39891871D01*
X-3410913Y-39863300D01*
X-3410913Y-39606157D01*
X-3139484Y-39891871D02*
X-3168056Y-39906157D01*
X-3225199Y-39906157D01*
X-3253770Y-39891871D01*
X-3268056Y-39863300D01*
X-3268056Y-39749014D01*
X-3253770Y-39720443D01*
X-3225199Y-39706157D01*
X-3168056Y-39706157D01*
X-3139484Y-39720443D01*
X-3125199Y-39749014D01*
X-3125199Y-39777586D01*
X-3268056Y-39806157D01*
X-3010913Y-39891871D02*
X-2982342Y-39906157D01*
X-2925199Y-39906157D01*
X-2896627Y-39891871D01*
X-2882342Y-39863300D01*
X-2882342Y-39849014D01*
X-2896627Y-39820443D01*
X-2925199Y-39806157D01*
X-2968056Y-39806157D01*
X-2996627Y-39791871D01*
X-3010913Y-39763300D01*
X-3010913Y-39749014D01*
X-2996627Y-39720443D01*
X-2968056Y-39706157D01*
X-2925199Y-39706157D01*
X-2896627Y-39720443D01*
X-2782342Y-40020443D02*
X-2768056Y-40006157D01*
X-2739484Y-39963300D01*
X-2725199Y-39934728D01*
X-2710913Y-39891871D01*
X-2696627Y-39820443D01*
X-2696627Y-39763300D01*
X-2710913Y-39691871D01*
X-2725199Y-39649014D01*
X-2739484Y-39620443D01*
X-2768056Y-39577586D01*
X-2782342Y-39563300D01*
X-2239484Y-40020443D02*
X-2253770Y-40006157D01*
X-2282342Y-39963300D01*
X-2296627Y-39934728D01*
X-2310913Y-39891871D01*
X-2325199Y-39820443D01*
X-2325199Y-39763300D01*
X-2310913Y-39691871D01*
X-2296627Y-39649014D01*
X-2282342Y-39620443D01*
X-2253770Y-39577586D01*
X-2239484Y-39563300D01*
X-2125199Y-39706157D02*
X-2125199Y-39906157D01*
X-2125199Y-39734728D02*
X-2110913Y-39720443D01*
X-2082342Y-39706157D01*
X-2039484Y-39706157D01*
X-2010913Y-39720443D01*
X-1996627Y-39749014D01*
X-1996627Y-39906157D01*
X-1810913Y-39906157D02*
X-1839484Y-39891871D01*
X-1853770Y-39877586D01*
X-1868056Y-39849014D01*
X-1868056Y-39763300D01*
X-1853770Y-39734728D01*
X-1839484Y-39720443D01*
X-1810913Y-39706157D01*
X-1768056Y-39706157D01*
X-1739484Y-39720443D01*
X-1725199Y-39734728D01*
X-1710913Y-39763300D01*
X-1710913Y-39849014D01*
X-1725199Y-39877586D01*
X-1739484Y-39891871D01*
X-1768056Y-39906157D01*
X-1810913Y-39906157D01*
X-1625199Y-39706157D02*
X-1510913Y-39706157D01*
X-1582342Y-39606157D02*
X-1582342Y-39863300D01*
X-1568056Y-39891871D01*
X-1539484Y-39906157D01*
X-1510913Y-39906157D01*
X-1182342Y-39706157D02*
X-1182342Y-40006157D01*
X-1182342Y-39720443D02*
X-1153770Y-39706157D01*
X-1096627Y-39706157D01*
X-1068056Y-39720443D01*
X-1053770Y-39734728D01*
X-1039484Y-39763300D01*
X-1039484Y-39849014D01*
X-1053770Y-39877586D01*
X-1068056Y-39891871D01*
X-1096627Y-39906157D01*
X-1153770Y-39906157D01*
X-1182342Y-39891871D01*
X-868056Y-39906157D02*
X-896627Y-39891871D01*
X-910913Y-39863300D01*
X-910913Y-39606157D01*
X-625199Y-39906157D02*
X-625199Y-39749014D01*
X-639484Y-39720443D01*
X-668056Y-39706157D01*
X-725199Y-39706157D01*
X-753770Y-39720443D01*
X-625199Y-39891871D02*
X-653770Y-39906157D01*
X-725199Y-39906157D01*
X-753770Y-39891871D01*
X-768056Y-39863300D01*
X-768056Y-39834728D01*
X-753770Y-39806157D01*
X-725199Y-39791871D01*
X-653770Y-39791871D01*
X-625199Y-39777586D01*
X-525199Y-39706157D02*
X-410913Y-39706157D01*
X-482342Y-39606157D02*
X-482342Y-39863300D01*
X-468056Y-39891871D01*
X-439484Y-39906157D01*
X-410913Y-39906157D01*
X-196627Y-39891871D02*
X-225199Y-39906157D01*
X-282342Y-39906157D01*
X-310913Y-39891871D01*
X-325199Y-39863300D01*
X-325199Y-39749014D01*
X-310913Y-39720443D01*
X-282342Y-39706157D01*
X-225199Y-39706157D01*
X-196627Y-39720443D01*
X-182342Y-39749014D01*
X-182342Y-39777586D01*
X-325199Y-39806157D01*
X74801Y-39906157D02*
X74801Y-39606157D01*
X74801Y-39891871D02*
X46230Y-39906157D01*
X-10913Y-39906157D01*
X-39484Y-39891871D01*
X-53770Y-39877586D01*
X-68056Y-39849014D01*
X-68056Y-39763300D01*
X-53770Y-39734728D01*
X-39484Y-39720443D01*
X-10913Y-39706157D01*
X46230Y-39706157D01*
X74801Y-39720443D01*
X189087Y-40020443D02*
X203373Y-40006157D01*
X231944Y-39963300D01*
X246230Y-39934728D01*
X260515Y-39891871D01*
X274801Y-39820443D01*
X274801Y-39763300D01*
X260515Y-39691871D01*
X246230Y-39649014D01*
X231944Y-39620443D01*
X203373Y-39577586D01*
X189087Y-39563300D01*
X-9342724Y-40378989D02*
X-9342724Y-40021897D01*
X-9699816Y-40021897D01*
X-9699816Y-40378989D01*
X-9342724Y-40378989D01*
X-8839484Y-40036157D02*
X-8982342Y-40036157D01*
X-8996627Y-40179014D01*
X-8982342Y-40164728D01*
X-8953770Y-40150443D01*
X-8882342Y-40150443D01*
X-8853770Y-40164728D01*
X-8839484Y-40179014D01*
X-8825199Y-40207586D01*
X-8825199Y-40279014D01*
X-8839484Y-40307586D01*
X-8853770Y-40321871D01*
X-8882342Y-40336157D01*
X-8953770Y-40336157D01*
X-8982342Y-40321871D01*
X-8996627Y-40307586D01*
X-8696627Y-40307586D02*
X-8682342Y-40321871D01*
X-8696627Y-40336157D01*
X-8710913Y-40321871D01*
X-8696627Y-40307586D01*
X-8696627Y-40336157D01*
X-8496627Y-40036157D02*
X-8468056Y-40036157D01*
X-8439484Y-40050443D01*
X-8425199Y-40064728D01*
X-8410913Y-40093300D01*
X-8396627Y-40150443D01*
X-8396627Y-40221871D01*
X-8410913Y-40279014D01*
X-8425199Y-40307586D01*
X-8439484Y-40321871D01*
X-8468056Y-40336157D01*
X-8496627Y-40336157D01*
X-8525199Y-40321871D01*
X-8539484Y-40307586D01*
X-8553770Y-40279014D01*
X-8568056Y-40221871D01*
X-8568056Y-40150443D01*
X-8553770Y-40093300D01*
X-8539484Y-40064728D01*
X-8525199Y-40050443D01*
X-8496627Y-40036157D01*
X-8125199Y-40036157D02*
X-8268056Y-40036157D01*
X-8282342Y-40179014D01*
X-8268056Y-40164728D01*
X-8239484Y-40150443D01*
X-8168056Y-40150443D01*
X-8139484Y-40164728D01*
X-8125199Y-40179014D01*
X-8110913Y-40207586D01*
X-8110913Y-40279014D01*
X-8125199Y-40307586D01*
X-8139484Y-40321871D01*
X-8168056Y-40336157D01*
X-8239484Y-40336157D01*
X-8268056Y-40321871D01*
X-8282342Y-40307586D01*
X-7982342Y-40336157D02*
X-7982342Y-40136157D01*
X-7982342Y-40164728D02*
X-7968056Y-40150443D01*
X-7939484Y-40136157D01*
X-7896627Y-40136157D01*
X-7868056Y-40150443D01*
X-7853770Y-40179014D01*
X-7853770Y-40336157D01*
X-7853770Y-40179014D02*
X-7839484Y-40150443D01*
X-7810913Y-40136157D01*
X-7768056Y-40136157D01*
X-7739484Y-40150443D01*
X-7725199Y-40179014D01*
X-7725199Y-40336157D01*
X-7582342Y-40336157D02*
X-7582342Y-40136157D01*
X-7582342Y-40164728D02*
X-7568056Y-40150443D01*
X-7539484Y-40136157D01*
X-7496627Y-40136157D01*
X-7468056Y-40150443D01*
X-7453770Y-40179014D01*
X-7453770Y-40336157D01*
X-7453770Y-40179014D02*
X-7439484Y-40150443D01*
X-7410913Y-40136157D01*
X-7368056Y-40136157D01*
X-7339484Y-40150443D01*
X-7325199Y-40179014D01*
X-7325199Y-40336157D01*
X-6739484Y-40021871D02*
X-6996627Y-40407586D01*
X-6353770Y-40036157D02*
X-6325199Y-40036157D01*
X-6296627Y-40050443D01*
X-6282342Y-40064728D01*
X-6268056Y-40093300D01*
X-6253770Y-40150443D01*
X-6253770Y-40221871D01*
X-6268056Y-40279014D01*
X-6282342Y-40307586D01*
X-6296627Y-40321871D01*
X-6325199Y-40336157D01*
X-6353770Y-40336157D01*
X-6382342Y-40321871D01*
X-6396627Y-40307586D01*
X-6410913Y-40279014D01*
X-6425199Y-40221871D01*
X-6425199Y-40150443D01*
X-6410913Y-40093300D01*
X-6396627Y-40064728D01*
X-6382342Y-40050443D01*
X-6353770Y-40036157D01*
X-6125199Y-40307586D02*
X-6110913Y-40321871D01*
X-6125199Y-40336157D01*
X-6139484Y-40321871D01*
X-6125199Y-40307586D01*
X-6125199Y-40336157D01*
X-5825199Y-40336157D02*
X-5996627Y-40336157D01*
X-5910913Y-40336157D02*
X-5910913Y-40036157D01*
X-5939484Y-40079014D01*
X-5968056Y-40107586D01*
X-5996627Y-40121871D01*
X-5682342Y-40336157D02*
X-5625199Y-40336157D01*
X-5596627Y-40321871D01*
X-5582342Y-40307586D01*
X-5553770Y-40264728D01*
X-5539484Y-40207586D01*
X-5539484Y-40093300D01*
X-5553770Y-40064728D01*
X-5568056Y-40050443D01*
X-5596627Y-40036157D01*
X-5653770Y-40036157D01*
X-5682342Y-40050443D01*
X-5696627Y-40064728D01*
X-5710913Y-40093300D01*
X-5710913Y-40164728D01*
X-5696627Y-40193300D01*
X-5682342Y-40207586D01*
X-5653770Y-40221871D01*
X-5596627Y-40221871D01*
X-5568056Y-40207586D01*
X-5553770Y-40193300D01*
X-5539484Y-40164728D01*
X-5396627Y-40336157D02*
X-5339484Y-40336157D01*
X-5310913Y-40321871D01*
X-5296627Y-40307586D01*
X-5268056Y-40264728D01*
X-5253770Y-40207586D01*
X-5253770Y-40093300D01*
X-5268056Y-40064728D01*
X-5282342Y-40050443D01*
X-5310913Y-40036157D01*
X-5368056Y-40036157D01*
X-5396627Y-40050443D01*
X-5410913Y-40064728D01*
X-5425199Y-40093300D01*
X-5425199Y-40164728D01*
X-5410913Y-40193300D01*
X-5396627Y-40207586D01*
X-5368056Y-40221871D01*
X-5310913Y-40221871D01*
X-5282342Y-40207586D01*
X-5268056Y-40193300D01*
X-5253770Y-40164728D01*
X-5139484Y-40036157D02*
X-5139484Y-40093300D01*
X-5025199Y-40036157D02*
X-5025199Y-40093300D01*
X-4582342Y-40450443D02*
X-4596627Y-40436157D01*
X-4625199Y-40393300D01*
X-4639484Y-40364728D01*
X-4653770Y-40321871D01*
X-4668056Y-40250443D01*
X-4668056Y-40193300D01*
X-4653770Y-40121871D01*
X-4639484Y-40079014D01*
X-4625199Y-40050443D01*
X-4596627Y-40007586D01*
X-4582342Y-39993300D01*
X-4496627Y-40036157D02*
X-4310913Y-40036157D01*
X-4410913Y-40150443D01*
X-4368056Y-40150443D01*
X-4339484Y-40164728D01*
X-4325199Y-40179014D01*
X-4310913Y-40207586D01*
X-4310913Y-40279014D01*
X-4325199Y-40307586D01*
X-4339484Y-40321871D01*
X-4368056Y-40336157D01*
X-4453770Y-40336157D01*
X-4482342Y-40321871D01*
X-4496627Y-40307586D01*
X-3953770Y-40336157D02*
X-3953770Y-40036157D01*
X-3825199Y-40336157D02*
X-3825199Y-40179014D01*
X-3839484Y-40150443D01*
X-3868056Y-40136157D01*
X-3910913Y-40136157D01*
X-3939484Y-40150443D01*
X-3953770Y-40164728D01*
X-3639484Y-40336157D02*
X-3668056Y-40321871D01*
X-3682342Y-40307586D01*
X-3696627Y-40279014D01*
X-3696627Y-40193300D01*
X-3682342Y-40164728D01*
X-3668056Y-40150443D01*
X-3639484Y-40136157D01*
X-3596627Y-40136157D01*
X-3568056Y-40150443D01*
X-3553770Y-40164728D01*
X-3539484Y-40193300D01*
X-3539484Y-40279014D01*
X-3553770Y-40307586D01*
X-3568056Y-40321871D01*
X-3596627Y-40336157D01*
X-3639484Y-40336157D01*
X-3368056Y-40336157D02*
X-3396627Y-40321871D01*
X-3410913Y-40293300D01*
X-3410913Y-40036157D01*
X-3139484Y-40321871D02*
X-3168056Y-40336157D01*
X-3225199Y-40336157D01*
X-3253770Y-40321871D01*
X-3268056Y-40293300D01*
X-3268056Y-40179014D01*
X-3253770Y-40150443D01*
X-3225199Y-40136157D01*
X-3168056Y-40136157D01*
X-3139484Y-40150443D01*
X-3125199Y-40179014D01*
X-3125199Y-40207586D01*
X-3268056Y-40236157D01*
X-3010913Y-40321871D02*
X-2982342Y-40336157D01*
X-2925199Y-40336157D01*
X-2896627Y-40321871D01*
X-2882342Y-40293300D01*
X-2882342Y-40279014D01*
X-2896627Y-40250443D01*
X-2925199Y-40236157D01*
X-2968056Y-40236157D01*
X-2996627Y-40221871D01*
X-3010913Y-40193300D01*
X-3010913Y-40179014D01*
X-2996627Y-40150443D01*
X-2968056Y-40136157D01*
X-2925199Y-40136157D01*
X-2896627Y-40150443D01*
X-2782342Y-40450443D02*
X-2768056Y-40436157D01*
X-2739484Y-40393300D01*
X-2725199Y-40364728D01*
X-2710913Y-40321871D01*
X-2696627Y-40250443D01*
X-2696627Y-40193300D01*
X-2710913Y-40121871D01*
X-2725199Y-40079014D01*
X-2739484Y-40050443D01*
X-2768056Y-40007586D01*
X-2782342Y-39993300D01*
X-2239484Y-40450443D02*
X-2253770Y-40436157D01*
X-2282342Y-40393300D01*
X-2296627Y-40364728D01*
X-2310913Y-40321871D01*
X-2325199Y-40250443D01*
X-2325199Y-40193300D01*
X-2310913Y-40121871D01*
X-2296627Y-40079014D01*
X-2282342Y-40050443D01*
X-2253770Y-40007586D01*
X-2239484Y-39993300D01*
X-2125199Y-40136157D02*
X-2125199Y-40336157D01*
X-2125199Y-40164728D02*
X-2110913Y-40150443D01*
X-2082342Y-40136157D01*
X-2039484Y-40136157D01*
X-2010913Y-40150443D01*
X-1996627Y-40179014D01*
X-1996627Y-40336157D01*
X-1810913Y-40336157D02*
X-1839484Y-40321871D01*
X-1853770Y-40307586D01*
X-1868056Y-40279014D01*
X-1868056Y-40193300D01*
X-1853770Y-40164728D01*
X-1839484Y-40150443D01*
X-1810913Y-40136157D01*
X-1768056Y-40136157D01*
X-1739484Y-40150443D01*
X-1725199Y-40164728D01*
X-1710913Y-40193300D01*
X-1710913Y-40279014D01*
X-1725199Y-40307586D01*
X-1739484Y-40321871D01*
X-1768056Y-40336157D01*
X-1810913Y-40336157D01*
X-1625199Y-40136157D02*
X-1510913Y-40136157D01*
X-1582342Y-40036157D02*
X-1582342Y-40293300D01*
X-1568056Y-40321871D01*
X-1539484Y-40336157D01*
X-1510913Y-40336157D01*
X-1182342Y-40136157D02*
X-1182342Y-40436157D01*
X-1182342Y-40150443D02*
X-1153770Y-40136157D01*
X-1096627Y-40136157D01*
X-1068056Y-40150443D01*
X-1053770Y-40164728D01*
X-1039484Y-40193300D01*
X-1039484Y-40279014D01*
X-1053770Y-40307586D01*
X-1068056Y-40321871D01*
X-1096627Y-40336157D01*
X-1153770Y-40336157D01*
X-1182342Y-40321871D01*
X-868056Y-40336157D02*
X-896627Y-40321871D01*
X-910913Y-40293300D01*
X-910913Y-40036157D01*
X-625199Y-40336157D02*
X-625199Y-40179014D01*
X-639484Y-40150443D01*
X-668056Y-40136157D01*
X-725199Y-40136157D01*
X-753770Y-40150443D01*
X-625199Y-40321871D02*
X-653770Y-40336157D01*
X-725199Y-40336157D01*
X-753770Y-40321871D01*
X-768056Y-40293300D01*
X-768056Y-40264728D01*
X-753770Y-40236157D01*
X-725199Y-40221871D01*
X-653770Y-40221871D01*
X-625199Y-40207586D01*
X-525199Y-40136157D02*
X-410913Y-40136157D01*
X-482342Y-40036157D02*
X-482342Y-40293300D01*
X-468056Y-40321871D01*
X-439484Y-40336157D01*
X-410913Y-40336157D01*
X-196627Y-40321871D02*
X-225199Y-40336157D01*
X-282342Y-40336157D01*
X-310913Y-40321871D01*
X-325199Y-40293300D01*
X-325199Y-40179014D01*
X-310913Y-40150443D01*
X-282342Y-40136157D01*
X-225199Y-40136157D01*
X-196627Y-40150443D01*
X-182342Y-40179014D01*
X-182342Y-40207586D01*
X-325199Y-40236157D01*
X74801Y-40336157D02*
X74801Y-40036157D01*
X74801Y-40321871D02*
X46230Y-40336157D01*
X-10913Y-40336157D01*
X-39484Y-40321871D01*
X-53770Y-40307586D01*
X-68056Y-40279014D01*
X-68056Y-40193300D01*
X-53770Y-40164728D01*
X-39484Y-40150443D01*
X-10913Y-40136157D01*
X46230Y-40136157D01*
X74801Y-40150443D01*
X189087Y-40450443D02*
X203373Y-40436157D01*
X231944Y-40393300D01*
X246230Y-40364728D01*
X260515Y-40321871D01*
X274801Y-40250443D01*
X274801Y-40193300D01*
X260515Y-40121871D01*
X246230Y-40079014D01*
X231944Y-40050443D01*
X203373Y-40007586D01*
X189087Y-39993300D01*
M02*
