M48
; DRILL file {KiCad (5.1.4)-1} date 9/9/2023 5:27:58 AM
; FORMAT={-:-/ absolute / metric / decimal}
; #@! TF.CreationDate,2023-09-09T05:27:58-04:00
; #@! TF.GenerationSoftware,Kicad,Pcbnew,(5.1.4)-1
; #@! TF.FileFunction,NonPlated,1,2,NPTH
FMAT,2
METRIC
T1C1.750
T2C2.950
T3C3.000
T4C5.050
%
G90
G05
T1
X-66.1Y-355.622
X-55.94Y-355.622
X-85.18Y-371.48
X-75.02Y-371.48
X-85.18Y-352.422
X-75.02Y-352.422
T2
X-65.72Y-360.022
X-58.42Y-361.372
X-82.7Y-365.73
X-75.4Y-367.08
X-84.8Y-356.822
X-77.5Y-358.172
T3
X-64.83Y-353.082
X-58.48Y-350.542
X-82.64Y-376.56
X-76.29Y-374.02
X-83.91Y-349.882
X-77.56Y-347.342
T4
X-61.02Y-355.622
X-80.1Y-371.48
X-80.1Y-352.422
T0
M30
