G04 #@! TF.GenerationSoftware,KiCad,Pcbnew,(5.1.4)-1*
G04 #@! TF.CreationDate,2023-09-09T05:27:56-04:00*
G04 #@! TF.ProjectId,ThumbsUp,5468756d-6273-4557-902e-6b696361645f,rev?*
G04 #@! TF.SameCoordinates,Original*
G04 #@! TF.FileFunction,Soldermask,Bot*
G04 #@! TF.FilePolarity,Negative*
%FSLAX46Y46*%
G04 Gerber Fmt 4.6, Leading zero omitted, Abs format (unit mm)*
G04 Created by KiCad (PCBNEW (5.1.4)-1) date 2023-09-09 05:27:56*
%MOMM*%
%LPD*%
G04 APERTURE LIST*
%ADD10C,0.100000*%
G04 APERTURE END LIST*
D10*
G36*
X-82337415Y-375038802D02*
G01*
X-82187590Y-375068604D01*
X-81905326Y-375185521D01*
X-81651295Y-375355259D01*
X-81435259Y-375571295D01*
X-81265521Y-375825326D01*
X-81148604Y-376107590D01*
X-81089000Y-376407240D01*
X-81089000Y-376712760D01*
X-81148604Y-377012410D01*
X-81265521Y-377294674D01*
X-81435259Y-377548705D01*
X-81651295Y-377764741D01*
X-81905326Y-377934479D01*
X-82187590Y-378051396D01*
X-82337415Y-378081198D01*
X-82487239Y-378111000D01*
X-82792761Y-378111000D01*
X-82942585Y-378081198D01*
X-83092410Y-378051396D01*
X-83374674Y-377934479D01*
X-83628705Y-377764741D01*
X-83844741Y-377548705D01*
X-84014479Y-377294674D01*
X-84131396Y-377012410D01*
X-84191000Y-376712760D01*
X-84191000Y-376407240D01*
X-84131396Y-376107590D01*
X-84014479Y-375825326D01*
X-83844741Y-375571295D01*
X-83628705Y-375355259D01*
X-83374674Y-375185521D01*
X-83092410Y-375068604D01*
X-82942585Y-375038802D01*
X-82792761Y-375009000D01*
X-82487239Y-375009000D01*
X-82337415Y-375038802D01*
X-82337415Y-375038802D01*
G37*
G36*
X-84616000Y-377861000D02*
G01*
X-87268000Y-377861000D01*
X-87268000Y-375259000D01*
X-84616000Y-375259000D01*
X-84616000Y-377861000D01*
X-84616000Y-377861000D01*
G37*
G36*
X-75987415Y-372498802D02*
G01*
X-75837590Y-372528604D01*
X-75555326Y-372645521D01*
X-75301295Y-372815259D01*
X-75085259Y-373031295D01*
X-74915521Y-373285326D01*
X-74798604Y-373567590D01*
X-74739000Y-373867240D01*
X-74739000Y-374172760D01*
X-74798604Y-374472410D01*
X-74915521Y-374754674D01*
X-75085259Y-375008705D01*
X-75301295Y-375224741D01*
X-75555326Y-375394479D01*
X-75837590Y-375511396D01*
X-75987415Y-375541198D01*
X-76137239Y-375571000D01*
X-76442761Y-375571000D01*
X-76592585Y-375541198D01*
X-76742410Y-375511396D01*
X-77024674Y-375394479D01*
X-77278705Y-375224741D01*
X-77494741Y-375008705D01*
X-77664479Y-374754674D01*
X-77781396Y-374472410D01*
X-77841000Y-374172760D01*
X-77841000Y-373867240D01*
X-77781396Y-373567590D01*
X-77664479Y-373285326D01*
X-77494741Y-373031295D01*
X-77278705Y-372815259D01*
X-77024674Y-372645521D01*
X-76742410Y-372528604D01*
X-76592585Y-372498802D01*
X-76442761Y-372469000D01*
X-76137239Y-372469000D01*
X-75987415Y-372498802D01*
X-75987415Y-372498802D01*
G37*
G36*
X-71689000Y-375321000D02*
G01*
X-74341000Y-375321000D01*
X-74341000Y-372719000D01*
X-71689000Y-372719000D01*
X-71689000Y-375321000D01*
X-71689000Y-375321000D01*
G37*
G36*
X-79597448Y-368953497D02*
G01*
X-79348609Y-369002994D01*
X-79154425Y-369083428D01*
X-78879808Y-369197178D01*
X-78457896Y-369479090D01*
X-78099090Y-369837896D01*
X-77817178Y-370259808D01*
X-77703428Y-370534425D01*
X-77622994Y-370728609D01*
X-77524000Y-371226286D01*
X-77524000Y-371733714D01*
X-77622994Y-372231391D01*
X-77680580Y-372370415D01*
X-77817178Y-372700192D01*
X-78099090Y-373122104D01*
X-78457896Y-373480910D01*
X-78879808Y-373762822D01*
X-79131893Y-373867239D01*
X-79348609Y-373957006D01*
X-79597448Y-374006503D01*
X-79846285Y-374056000D01*
X-80353715Y-374056000D01*
X-80602552Y-374006503D01*
X-80851391Y-373957006D01*
X-81068107Y-373867239D01*
X-81320192Y-373762822D01*
X-81742104Y-373480910D01*
X-82100910Y-373122104D01*
X-82382822Y-372700192D01*
X-82519420Y-372370415D01*
X-82577006Y-372231391D01*
X-82676000Y-371733714D01*
X-82676000Y-371226286D01*
X-82577006Y-370728609D01*
X-82496572Y-370534425D01*
X-82382822Y-370259808D01*
X-82100910Y-369837896D01*
X-81742104Y-369479090D01*
X-81320192Y-369197178D01*
X-81045575Y-369083428D01*
X-80851391Y-369002994D01*
X-80602552Y-368953497D01*
X-80353715Y-368904000D01*
X-79846285Y-368904000D01*
X-79597448Y-368953497D01*
X-79597448Y-368953497D01*
G37*
G36*
X-74749896Y-370589585D02*
G01*
X-74581374Y-370659389D01*
X-74429709Y-370760728D01*
X-74300728Y-370889709D01*
X-74199389Y-371041374D01*
X-74129585Y-371209896D01*
X-74094000Y-371388797D01*
X-74094000Y-371571203D01*
X-74129585Y-371750104D01*
X-74199389Y-371918626D01*
X-74300728Y-372070291D01*
X-74429709Y-372199272D01*
X-74581374Y-372300611D01*
X-74749896Y-372370415D01*
X-74928797Y-372406000D01*
X-75111203Y-372406000D01*
X-75290104Y-372370415D01*
X-75458626Y-372300611D01*
X-75610291Y-372199272D01*
X-75739272Y-372070291D01*
X-75840611Y-371918626D01*
X-75910415Y-371750104D01*
X-75946000Y-371571203D01*
X-75946000Y-371388797D01*
X-75910415Y-371209896D01*
X-75840611Y-371041374D01*
X-75739272Y-370889709D01*
X-75610291Y-370760728D01*
X-75458626Y-370659389D01*
X-75290104Y-370589585D01*
X-75111203Y-370554000D01*
X-74928797Y-370554000D01*
X-74749896Y-370589585D01*
X-74749896Y-370589585D01*
G37*
G36*
X-84909896Y-370589585D02*
G01*
X-84741374Y-370659389D01*
X-84589709Y-370760728D01*
X-84460728Y-370889709D01*
X-84359389Y-371041374D01*
X-84289585Y-371209896D01*
X-84254000Y-371388797D01*
X-84254000Y-371571203D01*
X-84289585Y-371750104D01*
X-84359389Y-371918626D01*
X-84460728Y-372070291D01*
X-84589709Y-372199272D01*
X-84741374Y-372300611D01*
X-84909896Y-372370415D01*
X-85088797Y-372406000D01*
X-85271203Y-372406000D01*
X-85450104Y-372370415D01*
X-85618626Y-372300611D01*
X-85770291Y-372199272D01*
X-85899272Y-372070291D01*
X-86000611Y-371918626D01*
X-86070415Y-371750104D01*
X-86106000Y-371571203D01*
X-86106000Y-371388797D01*
X-86070415Y-371209896D01*
X-86000611Y-371041374D01*
X-85899272Y-370889709D01*
X-85770291Y-370760728D01*
X-85618626Y-370659389D01*
X-85450104Y-370589585D01*
X-85271203Y-370554000D01*
X-85088797Y-370554000D01*
X-84909896Y-370589585D01*
X-84909896Y-370589585D01*
G37*
G36*
X-75097415Y-365558802D02*
G01*
X-74947590Y-365588604D01*
X-74665326Y-365705521D01*
X-74411295Y-365875259D01*
X-74195259Y-366091295D01*
X-74025521Y-366345326D01*
X-73976087Y-366464672D01*
X-73908604Y-366627591D01*
X-73849000Y-366927239D01*
X-73849000Y-367232761D01*
X-73878802Y-367382585D01*
X-73908604Y-367532410D01*
X-74025521Y-367814674D01*
X-74195259Y-368068705D01*
X-74411295Y-368284741D01*
X-74665326Y-368454479D01*
X-74947590Y-368571396D01*
X-75097415Y-368601198D01*
X-75247239Y-368631000D01*
X-75552761Y-368631000D01*
X-75702585Y-368601198D01*
X-75852410Y-368571396D01*
X-76134674Y-368454479D01*
X-76388705Y-368284741D01*
X-76604741Y-368068705D01*
X-76774479Y-367814674D01*
X-76891396Y-367532410D01*
X-76921198Y-367382585D01*
X-76951000Y-367232761D01*
X-76951000Y-366927239D01*
X-76891396Y-366627591D01*
X-76823913Y-366464672D01*
X-76774479Y-366345326D01*
X-76604741Y-366091295D01*
X-76388705Y-365875259D01*
X-76134674Y-365705521D01*
X-75852410Y-365588604D01*
X-75702585Y-365558802D01*
X-75552761Y-365529000D01*
X-75247239Y-365529000D01*
X-75097415Y-365558802D01*
X-75097415Y-365558802D01*
G37*
G36*
X-70849000Y-368131000D02*
G01*
X-72951000Y-368131000D01*
X-72951000Y-366029000D01*
X-70849000Y-366029000D01*
X-70849000Y-368131000D01*
X-70849000Y-368131000D01*
G37*
G36*
X-82397415Y-364208802D02*
G01*
X-82247590Y-364238604D01*
X-81965326Y-364355521D01*
X-81711295Y-364525259D01*
X-81495259Y-364741295D01*
X-81325521Y-364995326D01*
X-81208604Y-365277590D01*
X-81208604Y-365277591D01*
X-81149000Y-365577239D01*
X-81149000Y-365882761D01*
X-81169605Y-365986351D01*
X-81208604Y-366182410D01*
X-81325521Y-366464674D01*
X-81495259Y-366718705D01*
X-81711295Y-366934741D01*
X-81965326Y-367104479D01*
X-82247590Y-367221396D01*
X-82304721Y-367232760D01*
X-82547239Y-367281000D01*
X-82852761Y-367281000D01*
X-83095279Y-367232760D01*
X-83152410Y-367221396D01*
X-83434674Y-367104479D01*
X-83688705Y-366934741D01*
X-83904741Y-366718705D01*
X-84074479Y-366464674D01*
X-84191396Y-366182410D01*
X-84230395Y-365986351D01*
X-84251000Y-365882761D01*
X-84251000Y-365577239D01*
X-84191396Y-365277591D01*
X-84191396Y-365277590D01*
X-84074479Y-364995326D01*
X-83904741Y-364741295D01*
X-83688705Y-364525259D01*
X-83434674Y-364355521D01*
X-83152410Y-364238604D01*
X-83002585Y-364208802D01*
X-82852761Y-364179000D01*
X-82547239Y-364179000D01*
X-82397415Y-364208802D01*
X-82397415Y-364208802D01*
G37*
G36*
X-85174000Y-367031000D02*
G01*
X-87826000Y-367031000D01*
X-87826000Y-364429000D01*
X-85174000Y-364429000D01*
X-85174000Y-367031000D01*
X-85174000Y-367031000D01*
G37*
G36*
X-59523426Y-364406563D02*
G01*
X-59457241Y-364413082D01*
X-59287402Y-364464602D01*
X-59130877Y-364548267D01*
X-59095139Y-364577597D01*
X-58993682Y-364660859D01*
X-58927671Y-364741295D01*
X-58881090Y-364798054D01*
X-58797425Y-364954579D01*
X-58745905Y-365124418D01*
X-58728509Y-365301045D01*
X-58745905Y-365477672D01*
X-58797425Y-365647511D01*
X-58881090Y-365804036D01*
X-58910420Y-365839774D01*
X-58993682Y-365941231D01*
X-59095139Y-366024493D01*
X-59130877Y-366053823D01*
X-59287402Y-366137488D01*
X-59457241Y-366189008D01*
X-59523425Y-366195526D01*
X-59589608Y-366202045D01*
X-59678128Y-366202045D01*
X-59744311Y-366195526D01*
X-59810495Y-366189008D01*
X-59980334Y-366137488D01*
X-60136859Y-366053823D01*
X-60172597Y-366024493D01*
X-60274054Y-365941231D01*
X-60357316Y-365839774D01*
X-60386646Y-365804036D01*
X-60470311Y-365647511D01*
X-60521831Y-365477672D01*
X-60539227Y-365301045D01*
X-60521831Y-365124418D01*
X-60470311Y-364954579D01*
X-60386646Y-364798054D01*
X-60340065Y-364741295D01*
X-60274054Y-364660859D01*
X-60172597Y-364577597D01*
X-60136859Y-364548267D01*
X-59980334Y-364464602D01*
X-59810495Y-364413082D01*
X-59744310Y-364406563D01*
X-59678128Y-364400045D01*
X-59589608Y-364400045D01*
X-59523426Y-364406563D01*
X-59523426Y-364406563D01*
G37*
G36*
X-62063426Y-364406563D02*
G01*
X-61997241Y-364413082D01*
X-61827402Y-364464602D01*
X-61670877Y-364548267D01*
X-61635139Y-364577597D01*
X-61533682Y-364660859D01*
X-61467671Y-364741295D01*
X-61421090Y-364798054D01*
X-61337425Y-364954579D01*
X-61285905Y-365124418D01*
X-61268509Y-365301045D01*
X-61285905Y-365477672D01*
X-61337425Y-365647511D01*
X-61421090Y-365804036D01*
X-61450420Y-365839774D01*
X-61533682Y-365941231D01*
X-61635139Y-366024493D01*
X-61670877Y-366053823D01*
X-61827402Y-366137488D01*
X-61997241Y-366189008D01*
X-62063425Y-366195526D01*
X-62129608Y-366202045D01*
X-62218128Y-366202045D01*
X-62284311Y-366195526D01*
X-62350495Y-366189008D01*
X-62520334Y-366137488D01*
X-62676859Y-366053823D01*
X-62712597Y-366024493D01*
X-62814054Y-365941231D01*
X-62897316Y-365839774D01*
X-62926646Y-365804036D01*
X-63010311Y-365647511D01*
X-63061831Y-365477672D01*
X-63079227Y-365301045D01*
X-63061831Y-365124418D01*
X-63010311Y-364954579D01*
X-62926646Y-364798054D01*
X-62880065Y-364741295D01*
X-62814054Y-364660859D01*
X-62712597Y-364577597D01*
X-62676859Y-364548267D01*
X-62520334Y-364464602D01*
X-62350495Y-364413082D01*
X-62284310Y-364406563D01*
X-62218128Y-364400045D01*
X-62129608Y-364400045D01*
X-62063426Y-364406563D01*
X-62063426Y-364406563D01*
G37*
G36*
X-56192868Y-366202045D02*
G01*
X-57994868Y-366202045D01*
X-57994868Y-364400045D01*
X-56192868Y-364400045D01*
X-56192868Y-366202045D01*
X-56192868Y-366202045D01*
G37*
G36*
X-64603426Y-364406563D02*
G01*
X-64537241Y-364413082D01*
X-64367402Y-364464602D01*
X-64210877Y-364548267D01*
X-64175139Y-364577597D01*
X-64073682Y-364660859D01*
X-64007671Y-364741295D01*
X-63961090Y-364798054D01*
X-63877425Y-364954579D01*
X-63825905Y-365124418D01*
X-63808509Y-365301045D01*
X-63825905Y-365477672D01*
X-63877425Y-365647511D01*
X-63961090Y-365804036D01*
X-63990420Y-365839774D01*
X-64073682Y-365941231D01*
X-64175139Y-366024493D01*
X-64210877Y-366053823D01*
X-64367402Y-366137488D01*
X-64537241Y-366189008D01*
X-64603425Y-366195526D01*
X-64669608Y-366202045D01*
X-64758128Y-366202045D01*
X-64824311Y-366195526D01*
X-64890495Y-366189008D01*
X-65060334Y-366137488D01*
X-65216859Y-366053823D01*
X-65252597Y-366024493D01*
X-65354054Y-365941231D01*
X-65437316Y-365839774D01*
X-65466646Y-365804036D01*
X-65550311Y-365647511D01*
X-65601831Y-365477672D01*
X-65619227Y-365301045D01*
X-65601831Y-365124418D01*
X-65550311Y-364954579D01*
X-65466646Y-364798054D01*
X-65420065Y-364741295D01*
X-65354054Y-364660859D01*
X-65252597Y-364577597D01*
X-65216859Y-364548267D01*
X-65060334Y-364464602D01*
X-64890495Y-364413082D01*
X-64824310Y-364406563D01*
X-64758128Y-364400045D01*
X-64669608Y-364400045D01*
X-64603426Y-364406563D01*
X-64603426Y-364406563D01*
G37*
G36*
X-52012571Y-364339091D02*
G01*
X-51946386Y-364345610D01*
X-51776547Y-364397130D01*
X-51620022Y-364480795D01*
X-51584284Y-364510125D01*
X-51482827Y-364593387D01*
X-51399565Y-364694844D01*
X-51370235Y-364730582D01*
X-51286570Y-364887107D01*
X-51235050Y-365056946D01*
X-51217654Y-365233573D01*
X-51235050Y-365410200D01*
X-51286570Y-365580039D01*
X-51370235Y-365736564D01*
X-51399565Y-365772302D01*
X-51482827Y-365873759D01*
X-51584284Y-365957021D01*
X-51620022Y-365986351D01*
X-51776547Y-366070016D01*
X-51946386Y-366121536D01*
X-52012571Y-366128055D01*
X-52078753Y-366134573D01*
X-52167273Y-366134573D01*
X-52233455Y-366128055D01*
X-52299640Y-366121536D01*
X-52469479Y-366070016D01*
X-52626004Y-365986351D01*
X-52661742Y-365957021D01*
X-52763199Y-365873759D01*
X-52846461Y-365772302D01*
X-52875791Y-365736564D01*
X-52959456Y-365580039D01*
X-53010976Y-365410200D01*
X-53028372Y-365233573D01*
X-53010976Y-365056946D01*
X-52959456Y-364887107D01*
X-52875791Y-364730582D01*
X-52846461Y-364694844D01*
X-52763199Y-364593387D01*
X-52661742Y-364510125D01*
X-52626004Y-364480795D01*
X-52469479Y-364397130D01*
X-52299640Y-364345610D01*
X-52233455Y-364339091D01*
X-52167273Y-364332573D01*
X-52078753Y-364332573D01*
X-52012571Y-364339091D01*
X-52012571Y-364339091D01*
G37*
G36*
X-52012570Y-361799092D02*
G01*
X-51946386Y-361805610D01*
X-51776547Y-361857130D01*
X-51620022Y-361940795D01*
X-51584284Y-361970125D01*
X-51482827Y-362053387D01*
X-51399565Y-362154844D01*
X-51370235Y-362190582D01*
X-51286570Y-362347107D01*
X-51235050Y-362516946D01*
X-51217654Y-362693573D01*
X-51235050Y-362870200D01*
X-51286570Y-363040039D01*
X-51370235Y-363196564D01*
X-51399565Y-363232302D01*
X-51482827Y-363333759D01*
X-51584284Y-363417021D01*
X-51620022Y-363446351D01*
X-51776547Y-363530016D01*
X-51946386Y-363581536D01*
X-52012570Y-363588054D01*
X-52078753Y-363594573D01*
X-52167273Y-363594573D01*
X-52233456Y-363588054D01*
X-52299640Y-363581536D01*
X-52469479Y-363530016D01*
X-52626004Y-363446351D01*
X-52661742Y-363417021D01*
X-52763199Y-363333759D01*
X-52846461Y-363232302D01*
X-52875791Y-363196564D01*
X-52959456Y-363040039D01*
X-53010976Y-362870200D01*
X-53028372Y-362693573D01*
X-53010976Y-362516946D01*
X-52959456Y-362347107D01*
X-52875791Y-362190582D01*
X-52846461Y-362154844D01*
X-52763199Y-362053387D01*
X-52661742Y-361970125D01*
X-52626004Y-361940795D01*
X-52469479Y-361857130D01*
X-52299640Y-361805610D01*
X-52233456Y-361799092D01*
X-52167273Y-361792573D01*
X-52078753Y-361792573D01*
X-52012570Y-361799092D01*
X-52012570Y-361799092D01*
G37*
G36*
X-58125074Y-359849287D02*
G01*
X-57968045Y-359880522D01*
X-57685781Y-359997439D01*
X-57431750Y-360167177D01*
X-57215714Y-360383213D01*
X-57045976Y-360637244D01*
X-56931896Y-360912659D01*
X-56929059Y-360919509D01*
X-56869455Y-361219157D01*
X-56869455Y-361524679D01*
X-56899257Y-361674503D01*
X-56929059Y-361824328D01*
X-57045976Y-362106592D01*
X-57215714Y-362360623D01*
X-57431750Y-362576659D01*
X-57685781Y-362746397D01*
X-57968045Y-362863314D01*
X-58117870Y-362893116D01*
X-58267694Y-362922918D01*
X-58573216Y-362922918D01*
X-58723040Y-362893116D01*
X-58872865Y-362863314D01*
X-59155129Y-362746397D01*
X-59409160Y-362576659D01*
X-59625196Y-362360623D01*
X-59794934Y-362106592D01*
X-59911851Y-361824328D01*
X-59941653Y-361674503D01*
X-59971455Y-361524679D01*
X-59971455Y-361219157D01*
X-59911851Y-360919509D01*
X-59909014Y-360912659D01*
X-59794934Y-360637244D01*
X-59625196Y-360383213D01*
X-59409160Y-360167177D01*
X-59155129Y-359997439D01*
X-58872865Y-359880522D01*
X-58715836Y-359849287D01*
X-58573216Y-359820918D01*
X-58267694Y-359820918D01*
X-58125074Y-359849287D01*
X-58125074Y-359849287D01*
G37*
G36*
X-53294455Y-362672918D02*
G01*
X-55946455Y-362672918D01*
X-55946455Y-360070918D01*
X-53294455Y-360070918D01*
X-53294455Y-362672918D01*
X-53294455Y-362672918D01*
G37*
G36*
X-90735068Y-360854621D02*
G01*
X-90668884Y-360861139D01*
X-90499045Y-360912659D01*
X-90499043Y-360912660D01*
X-90486230Y-360919509D01*
X-90342520Y-360996324D01*
X-90325098Y-361010622D01*
X-90205325Y-361108916D01*
X-90122063Y-361210373D01*
X-90092733Y-361246111D01*
X-90009068Y-361402636D01*
X-89957548Y-361572475D01*
X-89940152Y-361749102D01*
X-89957548Y-361925729D01*
X-90009068Y-362095568D01*
X-90092733Y-362252093D01*
X-90122063Y-362287831D01*
X-90205325Y-362389288D01*
X-90306782Y-362472550D01*
X-90342520Y-362501880D01*
X-90342522Y-362501881D01*
X-90482420Y-362576659D01*
X-90499045Y-362585545D01*
X-90668884Y-362637065D01*
X-90735068Y-362643583D01*
X-90801251Y-362650102D01*
X-90889771Y-362650102D01*
X-90955954Y-362643583D01*
X-91022138Y-362637065D01*
X-91191977Y-362585545D01*
X-91208601Y-362576659D01*
X-91348500Y-362501881D01*
X-91348502Y-362501880D01*
X-91384240Y-362472550D01*
X-91485697Y-362389288D01*
X-91568959Y-362287831D01*
X-91598289Y-362252093D01*
X-91681954Y-362095568D01*
X-91733474Y-361925729D01*
X-91750870Y-361749102D01*
X-91733474Y-361572475D01*
X-91681954Y-361402636D01*
X-91598289Y-361246111D01*
X-91568959Y-361210373D01*
X-91485697Y-361108916D01*
X-91365924Y-361010622D01*
X-91348502Y-360996324D01*
X-91204792Y-360919509D01*
X-91191979Y-360912660D01*
X-91191977Y-360912659D01*
X-91022138Y-360861139D01*
X-90955954Y-360854621D01*
X-90889771Y-360848102D01*
X-90801251Y-360848102D01*
X-90735068Y-360854621D01*
X-90735068Y-360854621D01*
G37*
G36*
X-65417870Y-358500720D02*
G01*
X-65268045Y-358530522D01*
X-64985781Y-358647439D01*
X-64731750Y-358817177D01*
X-64515714Y-359033213D01*
X-64345976Y-359287244D01*
X-64229059Y-359569508D01*
X-64229059Y-359569509D01*
X-64173407Y-359849287D01*
X-64169455Y-359869158D01*
X-64169455Y-360174678D01*
X-64229059Y-360474328D01*
X-64345976Y-360756592D01*
X-64515714Y-361010623D01*
X-64731750Y-361226659D01*
X-64985781Y-361396397D01*
X-65268045Y-361513314D01*
X-65325176Y-361524678D01*
X-65567694Y-361572918D01*
X-65873216Y-361572918D01*
X-66115734Y-361524678D01*
X-66172865Y-361513314D01*
X-66455129Y-361396397D01*
X-66709160Y-361226659D01*
X-66925196Y-361010623D01*
X-67094934Y-360756592D01*
X-67211851Y-360474328D01*
X-67271455Y-360174678D01*
X-67271455Y-359869158D01*
X-67267502Y-359849287D01*
X-67211851Y-359569509D01*
X-67211851Y-359569508D01*
X-67094934Y-359287244D01*
X-66925196Y-359033213D01*
X-66709160Y-358817177D01*
X-66455129Y-358647439D01*
X-66172865Y-358530522D01*
X-66023040Y-358500720D01*
X-65873216Y-358470918D01*
X-65567694Y-358470918D01*
X-65417870Y-358500720D01*
X-65417870Y-358500720D01*
G37*
G36*
X-68169455Y-361072918D02*
G01*
X-70271455Y-361072918D01*
X-70271455Y-358970918D01*
X-68169455Y-358970918D01*
X-68169455Y-361072918D01*
X-68169455Y-361072918D01*
G37*
G36*
X-52012571Y-359259091D02*
G01*
X-51946386Y-359265610D01*
X-51776547Y-359317130D01*
X-51620022Y-359400795D01*
X-51584284Y-359430125D01*
X-51482827Y-359513387D01*
X-51436770Y-359569509D01*
X-51370235Y-359650582D01*
X-51286570Y-359807107D01*
X-51235050Y-359976946D01*
X-51217654Y-360153573D01*
X-51235050Y-360330200D01*
X-51286570Y-360500039D01*
X-51370235Y-360656564D01*
X-51399565Y-360692302D01*
X-51482827Y-360793759D01*
X-51564931Y-360861139D01*
X-51620022Y-360906351D01*
X-51776547Y-360990016D01*
X-51946386Y-361041536D01*
X-52012571Y-361048055D01*
X-52078753Y-361054573D01*
X-52167273Y-361054573D01*
X-52233455Y-361048055D01*
X-52299640Y-361041536D01*
X-52469479Y-360990016D01*
X-52626004Y-360906351D01*
X-52681095Y-360861139D01*
X-52763199Y-360793759D01*
X-52846461Y-360692302D01*
X-52875791Y-360656564D01*
X-52959456Y-360500039D01*
X-53010976Y-360330200D01*
X-53028372Y-360153573D01*
X-53010976Y-359976946D01*
X-52959456Y-359807107D01*
X-52875791Y-359650582D01*
X-52809256Y-359569509D01*
X-52763199Y-359513387D01*
X-52661742Y-359430125D01*
X-52626004Y-359400795D01*
X-52469479Y-359317130D01*
X-52299640Y-359265610D01*
X-52233455Y-359259091D01*
X-52167273Y-359252573D01*
X-52078753Y-359252573D01*
X-52012571Y-359259091D01*
X-52012571Y-359259091D01*
G37*
G36*
X-90735068Y-358314621D02*
G01*
X-90668884Y-358321139D01*
X-90499045Y-358372659D01*
X-90342520Y-358456324D01*
X-90306782Y-358485654D01*
X-90205325Y-358568916D01*
X-90140884Y-358647439D01*
X-90092733Y-358706111D01*
X-90092732Y-358706113D01*
X-90033366Y-358817177D01*
X-90009068Y-358862636D01*
X-89957548Y-359032475D01*
X-89940152Y-359209102D01*
X-89957548Y-359385729D01*
X-90009068Y-359555568D01*
X-90092733Y-359712093D01*
X-90101617Y-359722918D01*
X-90205325Y-359849288D01*
X-90306782Y-359932550D01*
X-90342520Y-359961880D01*
X-90499045Y-360045545D01*
X-90668884Y-360097065D01*
X-90735069Y-360103584D01*
X-90801251Y-360110102D01*
X-90889771Y-360110102D01*
X-90955953Y-360103584D01*
X-91022138Y-360097065D01*
X-91191977Y-360045545D01*
X-91348502Y-359961880D01*
X-91384240Y-359932550D01*
X-91485697Y-359849288D01*
X-91589405Y-359722918D01*
X-91598289Y-359712093D01*
X-91681954Y-359555568D01*
X-91733474Y-359385729D01*
X-91750870Y-359209102D01*
X-91733474Y-359032475D01*
X-91681954Y-358862636D01*
X-91657655Y-358817177D01*
X-91598290Y-358706113D01*
X-91598289Y-358706111D01*
X-91550138Y-358647439D01*
X-91485697Y-358568916D01*
X-91384240Y-358485654D01*
X-91348502Y-358456324D01*
X-91191977Y-358372659D01*
X-91022138Y-358321139D01*
X-90955954Y-358314621D01*
X-90889771Y-358308102D01*
X-90801251Y-358308102D01*
X-90735068Y-358314621D01*
X-90735068Y-358314621D01*
G37*
G36*
X-77197415Y-356650720D02*
G01*
X-77047590Y-356680522D01*
X-76765326Y-356797439D01*
X-76511295Y-356967177D01*
X-76295259Y-357183213D01*
X-76125521Y-357437244D01*
X-76008604Y-357719508D01*
X-76008604Y-357719509D01*
X-75949000Y-358019157D01*
X-75949000Y-358324679D01*
X-75975186Y-358456323D01*
X-76008604Y-358624328D01*
X-76125521Y-358906592D01*
X-76295259Y-359160623D01*
X-76511295Y-359376659D01*
X-76765326Y-359546397D01*
X-77047590Y-359663314D01*
X-77197415Y-359693116D01*
X-77347239Y-359722918D01*
X-77652761Y-359722918D01*
X-77802585Y-359693116D01*
X-77952410Y-359663314D01*
X-78234674Y-359546397D01*
X-78488705Y-359376659D01*
X-78704741Y-359160623D01*
X-78874479Y-358906592D01*
X-78991396Y-358624328D01*
X-79024814Y-358456323D01*
X-79051000Y-358324679D01*
X-79051000Y-358019157D01*
X-78991396Y-357719509D01*
X-78991396Y-357719508D01*
X-78874479Y-357437244D01*
X-78704741Y-357183213D01*
X-78488705Y-356967177D01*
X-78234674Y-356797439D01*
X-77952410Y-356680522D01*
X-77802585Y-356650720D01*
X-77652761Y-356620918D01*
X-77347239Y-356620918D01*
X-77197415Y-356650720D01*
X-77197415Y-356650720D01*
G37*
G36*
X-72374000Y-359472918D02*
G01*
X-75026000Y-359472918D01*
X-75026000Y-356870918D01*
X-72374000Y-356870918D01*
X-72374000Y-359472918D01*
X-72374000Y-359472918D01*
G37*
G36*
X-51222013Y-358514573D02*
G01*
X-53024013Y-358514573D01*
X-53024013Y-356712573D01*
X-51222013Y-356712573D01*
X-51222013Y-358514573D01*
X-51222013Y-358514573D01*
G37*
G36*
X-84497415Y-355300720D02*
G01*
X-84347590Y-355330522D01*
X-84065326Y-355447439D01*
X-83811295Y-355617177D01*
X-83595259Y-355833213D01*
X-83425521Y-356087244D01*
X-83320334Y-356341190D01*
X-83308604Y-356369509D01*
X-83249000Y-356669157D01*
X-83249000Y-356974679D01*
X-83257134Y-357015570D01*
X-83308604Y-357274328D01*
X-83425521Y-357556592D01*
X-83595259Y-357810623D01*
X-83811295Y-358026659D01*
X-84065326Y-358196397D01*
X-84347590Y-358313314D01*
X-84404721Y-358324678D01*
X-84647239Y-358372918D01*
X-84952761Y-358372918D01*
X-85195279Y-358324678D01*
X-85252410Y-358313314D01*
X-85534674Y-358196397D01*
X-85788705Y-358026659D01*
X-86004741Y-357810623D01*
X-86174479Y-357556592D01*
X-86291396Y-357274328D01*
X-86342866Y-357015570D01*
X-86351000Y-356974679D01*
X-86351000Y-356669157D01*
X-86291396Y-356369509D01*
X-86279666Y-356341190D01*
X-86174479Y-356087244D01*
X-86004741Y-355833213D01*
X-85788705Y-355617177D01*
X-85534674Y-355447439D01*
X-85252410Y-355330522D01*
X-85102585Y-355300720D01*
X-84952761Y-355270918D01*
X-84647239Y-355270918D01*
X-84497415Y-355300720D01*
X-84497415Y-355300720D01*
G37*
G36*
X-60269064Y-353144912D02*
G01*
X-60074880Y-353225346D01*
X-59800263Y-353339096D01*
X-59378351Y-353621008D01*
X-59019545Y-353979814D01*
X-58737633Y-354401726D01*
X-58714988Y-354456397D01*
X-58543449Y-354870527D01*
X-58444455Y-355368204D01*
X-58444455Y-355875632D01*
X-58543449Y-356373309D01*
X-58601035Y-356512333D01*
X-58737633Y-356842110D01*
X-59019545Y-357264022D01*
X-59378351Y-357622828D01*
X-59800263Y-357904740D01*
X-60074880Y-358018490D01*
X-60269064Y-358098924D01*
X-60766740Y-358197918D01*
X-61274170Y-358197918D01*
X-61771846Y-358098924D01*
X-61966030Y-358018490D01*
X-62240647Y-357904740D01*
X-62662559Y-357622828D01*
X-63021365Y-357264022D01*
X-63303277Y-356842110D01*
X-63439875Y-356512333D01*
X-63497461Y-356373309D01*
X-63596455Y-355875632D01*
X-63596455Y-355368204D01*
X-63497461Y-354870527D01*
X-63325922Y-354456397D01*
X-63303277Y-354401726D01*
X-63021365Y-353979814D01*
X-62662559Y-353621008D01*
X-62240647Y-353339096D01*
X-61966030Y-353225346D01*
X-61771846Y-353144912D01*
X-61274170Y-353045918D01*
X-60766740Y-353045918D01*
X-60269064Y-353144912D01*
X-60269064Y-353144912D01*
G37*
G36*
X-87249000Y-357872918D02*
G01*
X-89351000Y-357872918D01*
X-89351000Y-355770918D01*
X-87249000Y-355770918D01*
X-87249000Y-357872918D01*
X-87249000Y-357872918D01*
G37*
G36*
X-90735068Y-355774621D02*
G01*
X-90668884Y-355781139D01*
X-90499045Y-355832659D01*
X-90499043Y-355832660D01*
X-90498007Y-355833214D01*
X-90342520Y-355916324D01*
X-90306782Y-355945654D01*
X-90205325Y-356028916D01*
X-90157456Y-356087246D01*
X-90092733Y-356166111D01*
X-90009068Y-356322636D01*
X-89957548Y-356492475D01*
X-89940152Y-356669102D01*
X-89957548Y-356845729D01*
X-90009068Y-357015568D01*
X-90092733Y-357172093D01*
X-90101859Y-357183213D01*
X-90205325Y-357309288D01*
X-90306782Y-357392550D01*
X-90342520Y-357421880D01*
X-90499045Y-357505545D01*
X-90668884Y-357557065D01*
X-90735068Y-357563583D01*
X-90801251Y-357570102D01*
X-90889771Y-357570102D01*
X-90955954Y-357563583D01*
X-91022138Y-357557065D01*
X-91191977Y-357505545D01*
X-91348502Y-357421880D01*
X-91384240Y-357392550D01*
X-91485697Y-357309288D01*
X-91589163Y-357183213D01*
X-91598289Y-357172093D01*
X-91681954Y-357015568D01*
X-91733474Y-356845729D01*
X-91750870Y-356669102D01*
X-91733474Y-356492475D01*
X-91681954Y-356322636D01*
X-91598289Y-356166111D01*
X-91533566Y-356087246D01*
X-91485697Y-356028916D01*
X-91384240Y-355945654D01*
X-91348502Y-355916324D01*
X-91193015Y-355833214D01*
X-91191979Y-355832660D01*
X-91191977Y-355832659D01*
X-91022138Y-355781139D01*
X-90955954Y-355774621D01*
X-90889771Y-355768102D01*
X-90801251Y-355768102D01*
X-90735068Y-355774621D01*
X-90735068Y-355774621D01*
G37*
G36*
X-55670351Y-354731503D02*
G01*
X-55501829Y-354801307D01*
X-55350164Y-354902646D01*
X-55221183Y-355031627D01*
X-55119844Y-355183292D01*
X-55050040Y-355351814D01*
X-55014455Y-355530715D01*
X-55014455Y-355713121D01*
X-55050040Y-355892022D01*
X-55119844Y-356060544D01*
X-55221183Y-356212209D01*
X-55350164Y-356341190D01*
X-55501829Y-356442529D01*
X-55670351Y-356512333D01*
X-55849252Y-356547918D01*
X-56031658Y-356547918D01*
X-56210559Y-356512333D01*
X-56379081Y-356442529D01*
X-56530746Y-356341190D01*
X-56659727Y-356212209D01*
X-56761066Y-356060544D01*
X-56830870Y-355892022D01*
X-56866455Y-355713121D01*
X-56866455Y-355530715D01*
X-56830870Y-355351814D01*
X-56761066Y-355183292D01*
X-56659727Y-355031627D01*
X-56530746Y-354902646D01*
X-56379081Y-354801307D01*
X-56210559Y-354731503D01*
X-56031658Y-354695918D01*
X-55849252Y-354695918D01*
X-55670351Y-354731503D01*
X-55670351Y-354731503D01*
G37*
G36*
X-65830351Y-354731503D02*
G01*
X-65661829Y-354801307D01*
X-65510164Y-354902646D01*
X-65381183Y-355031627D01*
X-65279844Y-355183292D01*
X-65210040Y-355351814D01*
X-65174455Y-355530715D01*
X-65174455Y-355713121D01*
X-65210040Y-355892022D01*
X-65279844Y-356060544D01*
X-65381183Y-356212209D01*
X-65510164Y-356341190D01*
X-65661829Y-356442529D01*
X-65830351Y-356512333D01*
X-66009252Y-356547918D01*
X-66191658Y-356547918D01*
X-66370559Y-356512333D01*
X-66539081Y-356442529D01*
X-66690746Y-356341190D01*
X-66819727Y-356212209D01*
X-66921066Y-356060544D01*
X-66990870Y-355892022D01*
X-67026455Y-355713121D01*
X-67026455Y-355530715D01*
X-66990870Y-355351814D01*
X-66921066Y-355183292D01*
X-66819727Y-355031627D01*
X-66690746Y-354902646D01*
X-66539081Y-354801307D01*
X-66370559Y-354731503D01*
X-66191658Y-354695918D01*
X-66009252Y-354695918D01*
X-65830351Y-354731503D01*
X-65830351Y-354731503D01*
G37*
G36*
X-89944511Y-355030102D02*
G01*
X-91746511Y-355030102D01*
X-91746511Y-353228102D01*
X-89944511Y-353228102D01*
X-89944511Y-355030102D01*
X-89944511Y-355030102D01*
G37*
G36*
X-79597448Y-349895415D02*
G01*
X-79348609Y-349944912D01*
X-79154425Y-350025346D01*
X-78879808Y-350139096D01*
X-78457896Y-350421008D01*
X-78099090Y-350779814D01*
X-77817178Y-351201726D01*
X-77786168Y-351276592D01*
X-77622994Y-351670527D01*
X-77601036Y-351780918D01*
X-77538916Y-352093213D01*
X-77524000Y-352168204D01*
X-77524000Y-352675632D01*
X-77622994Y-353173309D01*
X-77680580Y-353312333D01*
X-77817178Y-353642110D01*
X-78099090Y-354064022D01*
X-78457896Y-354422828D01*
X-78879808Y-354704740D01*
X-79112942Y-354801307D01*
X-79348609Y-354898924D01*
X-79597448Y-354948421D01*
X-79846285Y-354997918D01*
X-80353715Y-354997918D01*
X-80602552Y-354948421D01*
X-80851391Y-354898924D01*
X-81087058Y-354801307D01*
X-81320192Y-354704740D01*
X-81742104Y-354422828D01*
X-82100910Y-354064022D01*
X-82382822Y-353642110D01*
X-82519420Y-353312333D01*
X-82577006Y-353173309D01*
X-82676000Y-352675632D01*
X-82676000Y-352168204D01*
X-82661083Y-352093213D01*
X-82598964Y-351780918D01*
X-82577006Y-351670527D01*
X-82413832Y-351276592D01*
X-82382822Y-351201726D01*
X-82100910Y-350779814D01*
X-81742104Y-350421008D01*
X-81320192Y-350139096D01*
X-81045575Y-350025346D01*
X-80851391Y-349944912D01*
X-80602552Y-349895415D01*
X-80353715Y-349845918D01*
X-79846285Y-349845918D01*
X-79597448Y-349895415D01*
X-79597448Y-349895415D01*
G37*
G36*
X-64527870Y-351560720D02*
G01*
X-64378045Y-351590522D01*
X-64095781Y-351707439D01*
X-63841750Y-351877177D01*
X-63625714Y-352093213D01*
X-63455976Y-352347244D01*
X-63339059Y-352629508D01*
X-63326624Y-352692022D01*
X-63279455Y-352929157D01*
X-63279455Y-353234679D01*
X-63300225Y-353339096D01*
X-63339059Y-353534328D01*
X-63455976Y-353816592D01*
X-63625714Y-354070623D01*
X-63841750Y-354286659D01*
X-64095781Y-354456397D01*
X-64378045Y-354573314D01*
X-64527870Y-354603116D01*
X-64677694Y-354632918D01*
X-64983216Y-354632918D01*
X-65133040Y-354603116D01*
X-65282865Y-354573314D01*
X-65565129Y-354456397D01*
X-65819160Y-354286659D01*
X-66035196Y-354070623D01*
X-66204934Y-353816592D01*
X-66321851Y-353534328D01*
X-66360685Y-353339096D01*
X-66381455Y-353234679D01*
X-66381455Y-352929157D01*
X-66334286Y-352692022D01*
X-66321851Y-352629508D01*
X-66204934Y-352347244D01*
X-66035196Y-352093213D01*
X-65819160Y-351877177D01*
X-65565129Y-351707439D01*
X-65282865Y-351590522D01*
X-65133040Y-351560720D01*
X-64983216Y-351530918D01*
X-64677694Y-351530918D01*
X-64527870Y-351560720D01*
X-64527870Y-351560720D01*
G37*
G36*
X-66779455Y-354382918D02*
G01*
X-69431455Y-354382918D01*
X-69431455Y-351780918D01*
X-66779455Y-351780918D01*
X-66779455Y-354382918D01*
X-66779455Y-354382918D01*
G37*
G36*
X-74749896Y-351531503D02*
G01*
X-74581374Y-351601307D01*
X-74429709Y-351702646D01*
X-74300728Y-351831627D01*
X-74199389Y-351983292D01*
X-74129585Y-352151814D01*
X-74094000Y-352330715D01*
X-74094000Y-352513121D01*
X-74129585Y-352692022D01*
X-74199389Y-352860544D01*
X-74300728Y-353012209D01*
X-74429709Y-353141190D01*
X-74581374Y-353242529D01*
X-74749896Y-353312333D01*
X-74928797Y-353347918D01*
X-75111203Y-353347918D01*
X-75290104Y-353312333D01*
X-75458626Y-353242529D01*
X-75610291Y-353141190D01*
X-75739272Y-353012209D01*
X-75840611Y-352860544D01*
X-75910415Y-352692022D01*
X-75946000Y-352513121D01*
X-75946000Y-352330715D01*
X-75910415Y-352151814D01*
X-75840611Y-351983292D01*
X-75739272Y-351831627D01*
X-75610291Y-351702646D01*
X-75458626Y-351601307D01*
X-75290104Y-351531503D01*
X-75111203Y-351495918D01*
X-74928797Y-351495918D01*
X-74749896Y-351531503D01*
X-74749896Y-351531503D01*
G37*
G36*
X-84909896Y-351531503D02*
G01*
X-84741374Y-351601307D01*
X-84589709Y-351702646D01*
X-84460728Y-351831627D01*
X-84359389Y-351983292D01*
X-84289585Y-352151814D01*
X-84254000Y-352330715D01*
X-84254000Y-352513121D01*
X-84289585Y-352692022D01*
X-84359389Y-352860544D01*
X-84460728Y-353012209D01*
X-84589709Y-353141190D01*
X-84741374Y-353242529D01*
X-84909896Y-353312333D01*
X-85088797Y-353347918D01*
X-85271203Y-353347918D01*
X-85450104Y-353312333D01*
X-85618626Y-353242529D01*
X-85770291Y-353141190D01*
X-85899272Y-353012209D01*
X-86000611Y-352860544D01*
X-86070415Y-352692022D01*
X-86106000Y-352513121D01*
X-86106000Y-352330715D01*
X-86070415Y-352151814D01*
X-86000611Y-351983292D01*
X-85899272Y-351831627D01*
X-85770291Y-351702646D01*
X-85618626Y-351601307D01*
X-85450104Y-351531503D01*
X-85271203Y-351495918D01*
X-85088797Y-351495918D01*
X-84909896Y-351531503D01*
X-84909896Y-351531503D01*
G37*
G36*
X-58177870Y-349020720D02*
G01*
X-58028045Y-349050522D01*
X-57745781Y-349167439D01*
X-57491750Y-349337177D01*
X-57275714Y-349553213D01*
X-57105976Y-349807244D01*
X-57011770Y-350034679D01*
X-56989059Y-350089509D01*
X-56929455Y-350389157D01*
X-56929455Y-350694679D01*
X-56959257Y-350844503D01*
X-56989059Y-350994328D01*
X-57105976Y-351276592D01*
X-57275714Y-351530623D01*
X-57491750Y-351746659D01*
X-57745781Y-351916397D01*
X-58028045Y-352033314D01*
X-58177870Y-352063116D01*
X-58327694Y-352092918D01*
X-58633216Y-352092918D01*
X-58783040Y-352063116D01*
X-58932865Y-352033314D01*
X-59215129Y-351916397D01*
X-59469160Y-351746659D01*
X-59685196Y-351530623D01*
X-59854934Y-351276592D01*
X-59971851Y-350994328D01*
X-60001653Y-350844503D01*
X-60031455Y-350694679D01*
X-60031455Y-350389157D01*
X-59971851Y-350089509D01*
X-59949140Y-350034679D01*
X-59854934Y-349807244D01*
X-59685196Y-349553213D01*
X-59469160Y-349337177D01*
X-59215129Y-349167439D01*
X-58932865Y-349050522D01*
X-58783040Y-349020720D01*
X-58633216Y-348990918D01*
X-58327694Y-348990918D01*
X-58177870Y-349020720D01*
X-58177870Y-349020720D01*
G37*
G36*
X-53852455Y-351842918D02*
G01*
X-56504455Y-351842918D01*
X-56504455Y-349240918D01*
X-53852455Y-349240918D01*
X-53852455Y-351842918D01*
X-53852455Y-351842918D01*
G37*
G36*
X-83607415Y-348360720D02*
G01*
X-83457590Y-348390522D01*
X-83175326Y-348507439D01*
X-82921295Y-348677177D01*
X-82705259Y-348893213D01*
X-82535521Y-349147244D01*
X-82418604Y-349429508D01*
X-82418604Y-349429509D01*
X-82359000Y-349729157D01*
X-82359000Y-350034679D01*
X-82379770Y-350139096D01*
X-82418604Y-350334328D01*
X-82535521Y-350616592D01*
X-82705259Y-350870623D01*
X-82921295Y-351086659D01*
X-83175326Y-351256397D01*
X-83457590Y-351373314D01*
X-83607415Y-351403116D01*
X-83757239Y-351432918D01*
X-84062761Y-351432918D01*
X-84212585Y-351403116D01*
X-84362410Y-351373314D01*
X-84644674Y-351256397D01*
X-84898705Y-351086659D01*
X-85114741Y-350870623D01*
X-85284479Y-350616592D01*
X-85401396Y-350334328D01*
X-85440230Y-350139096D01*
X-85461000Y-350034679D01*
X-85461000Y-349729157D01*
X-85401396Y-349429509D01*
X-85401396Y-349429508D01*
X-85284479Y-349147244D01*
X-85114741Y-348893213D01*
X-84898705Y-348677177D01*
X-84644674Y-348507439D01*
X-84362410Y-348390522D01*
X-84212585Y-348360720D01*
X-84062761Y-348330918D01*
X-83757239Y-348330918D01*
X-83607415Y-348360720D01*
X-83607415Y-348360720D01*
G37*
G36*
X-85859000Y-351182918D02*
G01*
X-88511000Y-351182918D01*
X-88511000Y-348580918D01*
X-85859000Y-348580918D01*
X-85859000Y-351182918D01*
X-85859000Y-351182918D01*
G37*
G36*
X-77257415Y-345820720D02*
G01*
X-77107590Y-345850522D01*
X-76825326Y-345967439D01*
X-76571295Y-346137177D01*
X-76355259Y-346353213D01*
X-76185521Y-346607244D01*
X-76068604Y-346889508D01*
X-76009000Y-347189158D01*
X-76009000Y-347494678D01*
X-76068604Y-347794328D01*
X-76185521Y-348076592D01*
X-76355259Y-348330623D01*
X-76571295Y-348546659D01*
X-76825326Y-348716397D01*
X-77107590Y-348833314D01*
X-77257415Y-348863116D01*
X-77407239Y-348892918D01*
X-77712761Y-348892918D01*
X-77862585Y-348863116D01*
X-78012410Y-348833314D01*
X-78294674Y-348716397D01*
X-78548705Y-348546659D01*
X-78764741Y-348330623D01*
X-78934479Y-348076592D01*
X-79051396Y-347794328D01*
X-79111000Y-347494678D01*
X-79111000Y-347189158D01*
X-79051396Y-346889508D01*
X-78934479Y-346607244D01*
X-78764741Y-346353213D01*
X-78548705Y-346137177D01*
X-78294674Y-345967439D01*
X-78012410Y-345850522D01*
X-77862585Y-345820720D01*
X-77712761Y-345790918D01*
X-77407239Y-345790918D01*
X-77257415Y-345820720D01*
X-77257415Y-345820720D01*
G37*
G36*
X-72932000Y-348642918D02*
G01*
X-75584000Y-348642918D01*
X-75584000Y-346040918D01*
X-72932000Y-346040918D01*
X-72932000Y-348642918D01*
X-72932000Y-348642918D01*
G37*
G36*
X-77204898Y-343010029D02*
G01*
X-77671290Y-344750627D01*
X-79411888Y-344284235D01*
X-78945496Y-342543637D01*
X-77204898Y-343010029D01*
X-77204898Y-343010029D01*
G37*
G36*
X-80651403Y-342095250D02*
G01*
X-80585218Y-342101769D01*
X-80415379Y-342153289D01*
X-80258854Y-342236954D01*
X-80223116Y-342266284D01*
X-80121659Y-342349546D01*
X-80038397Y-342451003D01*
X-80009067Y-342486741D01*
X-79925402Y-342643266D01*
X-79873882Y-342813105D01*
X-79856486Y-342989732D01*
X-79873882Y-343166359D01*
X-79925402Y-343336198D01*
X-80009067Y-343492723D01*
X-80038397Y-343528461D01*
X-80121659Y-343629918D01*
X-80223116Y-343713180D01*
X-80258854Y-343742510D01*
X-80415379Y-343826175D01*
X-80585218Y-343877695D01*
X-80651402Y-343884213D01*
X-80717585Y-343890732D01*
X-80806105Y-343890732D01*
X-80872288Y-343884213D01*
X-80938472Y-343877695D01*
X-81108311Y-343826175D01*
X-81264836Y-343742510D01*
X-81300574Y-343713180D01*
X-81402031Y-343629918D01*
X-81485293Y-343528461D01*
X-81514623Y-343492723D01*
X-81598288Y-343336198D01*
X-81649808Y-343166359D01*
X-81667204Y-342989732D01*
X-81649808Y-342813105D01*
X-81598288Y-342643266D01*
X-81514623Y-342486741D01*
X-81485293Y-342451003D01*
X-81402031Y-342349546D01*
X-81300574Y-342266284D01*
X-81264836Y-342236954D01*
X-81108311Y-342153289D01*
X-80938472Y-342101769D01*
X-80872287Y-342095250D01*
X-80806105Y-342088732D01*
X-80717585Y-342088732D01*
X-80651403Y-342095250D01*
X-80651403Y-342095250D01*
G37*
G36*
X-83104853Y-341437850D02*
G01*
X-83038669Y-341444368D01*
X-82868830Y-341495888D01*
X-82712305Y-341579553D01*
X-82676567Y-341608883D01*
X-82575110Y-341692145D01*
X-82491848Y-341793602D01*
X-82462518Y-341829340D01*
X-82378853Y-341985865D01*
X-82327333Y-342155704D01*
X-82309937Y-342332331D01*
X-82327333Y-342508958D01*
X-82378853Y-342678797D01*
X-82462518Y-342835322D01*
X-82491848Y-342871060D01*
X-82575110Y-342972517D01*
X-82676567Y-343055779D01*
X-82712305Y-343085109D01*
X-82868830Y-343168774D01*
X-83038669Y-343220294D01*
X-83104854Y-343226813D01*
X-83171036Y-343233331D01*
X-83259556Y-343233331D01*
X-83325738Y-343226813D01*
X-83391923Y-343220294D01*
X-83561762Y-343168774D01*
X-83718287Y-343085109D01*
X-83754025Y-343055779D01*
X-83855482Y-342972517D01*
X-83938744Y-342871060D01*
X-83968074Y-342835322D01*
X-84051739Y-342678797D01*
X-84103259Y-342508958D01*
X-84120655Y-342332331D01*
X-84103259Y-342155704D01*
X-84051739Y-341985865D01*
X-83968074Y-341829340D01*
X-83938744Y-341793602D01*
X-83855482Y-341692145D01*
X-83754025Y-341608883D01*
X-83718287Y-341579553D01*
X-83561762Y-341495888D01*
X-83391923Y-341444368D01*
X-83325739Y-341437850D01*
X-83259556Y-341431331D01*
X-83171036Y-341431331D01*
X-83104853Y-341437850D01*
X-83104853Y-341437850D01*
G37*
G36*
X-85558306Y-340780449D02*
G01*
X-85492121Y-340786968D01*
X-85322282Y-340838488D01*
X-85165757Y-340922153D01*
X-85130019Y-340951483D01*
X-85028562Y-341034745D01*
X-84945300Y-341136202D01*
X-84915970Y-341171940D01*
X-84832305Y-341328465D01*
X-84780785Y-341498304D01*
X-84763389Y-341674931D01*
X-84780785Y-341851558D01*
X-84832305Y-342021397D01*
X-84915970Y-342177922D01*
X-84945300Y-342213660D01*
X-85028562Y-342315117D01*
X-85130019Y-342398379D01*
X-85165757Y-342427709D01*
X-85322282Y-342511374D01*
X-85492121Y-342562894D01*
X-85558306Y-342569413D01*
X-85624488Y-342575931D01*
X-85713008Y-342575931D01*
X-85779190Y-342569413D01*
X-85845375Y-342562894D01*
X-86015214Y-342511374D01*
X-86171739Y-342427709D01*
X-86207477Y-342398379D01*
X-86308934Y-342315117D01*
X-86392196Y-342213660D01*
X-86421526Y-342177922D01*
X-86505191Y-342021397D01*
X-86556711Y-341851558D01*
X-86574107Y-341674931D01*
X-86556711Y-341498304D01*
X-86505191Y-341328465D01*
X-86421526Y-341171940D01*
X-86392196Y-341136202D01*
X-86308934Y-341034745D01*
X-86207477Y-340951483D01*
X-86171739Y-340922153D01*
X-86015214Y-340838488D01*
X-85845375Y-340786968D01*
X-85779190Y-340780449D01*
X-85713008Y-340773931D01*
X-85624488Y-340773931D01*
X-85558306Y-340780449D01*
X-85558306Y-340780449D01*
G37*
M02*
