%FSLAX45Y45*%
G04 Gerber Fmt 4.5, Leading zero omitted, Abs format (unit mm)*
G04 Created by KiCad (PCBNEW (5.1.4)-1) date 2023-09-09 05:27:59*
%MOMM*%
%LPD*%
G04 APERTURE LIST*
%ADD10C,0.050000*%
%ADD11C,0.200000*%
%ADD12C,0.300000*%
G04 APERTURE END LIST*
D10*
X-6865125Y-36816943D02*
X-6622125Y-36663943D01*
X-8745125Y-37986943D02*
X-7315125Y-37986943D01*
X-7315125Y-37986943D02*
X-7155125Y-37826943D01*
X-7155125Y-37826943D02*
X-6865125Y-36816943D01*
X-9266270Y-36347075D02*
X-8915125Y-37816943D01*
X-6622125Y-36663943D02*
X-5127980Y-36664473D01*
X-8915125Y-37816943D02*
X-8745125Y-37986943D01*
X-5073509Y-36608864D02*
X-5127980Y-36664473D01*
X-9266125Y-36346943D02*
X-9265596Y-35232941D01*
X-8976724Y-34849596D02*
X-8786120Y-34143027D01*
X-8976724Y-34849596D02*
X-9265596Y-35232941D01*
X-8786120Y-34143027D02*
X-8608823Y-34012429D01*
X-5536125Y-34837148D02*
X-5380301Y-34987247D01*
X-8608823Y-34012429D02*
X-5536125Y-34837148D01*
X-5379118Y-35379366D02*
X-5380301Y-34987247D01*
X-5073899Y-35635660D02*
X-5379118Y-35379366D01*
X-5073509Y-36608864D02*
X-5073899Y-35635660D01*
D11*
X-8796000Y-35386000D02*
X-8756000Y-35426000D01*
X-8756000Y-35386000D02*
X-8796000Y-35426000D01*
X-6910000Y-35767000D02*
X-6870000Y-35807000D01*
X-6870000Y-35767000D02*
X-6910000Y-35807000D01*
X-6685000Y-36372000D02*
X-6645000Y-36412000D01*
X-6645000Y-36372000D02*
X-6685000Y-36412000D01*
X-6369000Y-36372000D02*
X-6329000Y-36412000D01*
X-6329000Y-36372000D02*
X-6369000Y-36412000D01*
X-8516875Y-34167493D02*
G75*
G03X-8516875Y-34167493I-50000J0D01*
G01*
X-8271530Y-34233233D02*
G75*
G03X-8271530Y-34233233I-50000J0D01*
G01*
X-8026184Y-34298973D02*
G75*
G03X-8026184Y-34298973I-50000J0D01*
G01*
X-7780839Y-34364713D02*
G75*
G03X-7780839Y-34364713I-50000J0D01*
G01*
X-5162301Y-35761357D02*
G75*
G03X-5162301Y-35761357I-50000J0D01*
G01*
X-5162301Y-36015357D02*
G75*
G03X-5162301Y-36015357I-50000J0D01*
G01*
X-5162301Y-36269357D02*
G75*
G03X-5162301Y-36269357I-50000J0D01*
G01*
X-5162301Y-36523357D02*
G75*
G03X-5162301Y-36523357I-50000J0D01*
G01*
X-9034551Y-35412910D02*
G75*
G03X-9034551Y-35412910I-50000J0D01*
G01*
X-9034551Y-35666910D02*
G75*
G03X-9034551Y-35666910I-50000J0D01*
G01*
X-9034551Y-35920910D02*
G75*
G03X-9034551Y-35920910I-50000J0D01*
G01*
X-9034551Y-36174910D02*
G75*
G03X-9034551Y-36174910I-50000J0D01*
G01*
X-6421387Y-36530105D02*
G75*
G03X-6421387Y-36530105I-50000J0D01*
G01*
X-6167387Y-36530105D02*
G75*
G03X-6167387Y-36530105I-50000J0D01*
G01*
X-5913387Y-36530105D02*
G75*
G03X-5913387Y-36530105I-50000J0D01*
G01*
X-5659387Y-36530105D02*
G75*
G03X-5659387Y-36530105I-50000J0D01*
G01*
D12*
X-8982342Y-38455157D02*
X-8982342Y-38155157D01*
X-8910913Y-38155157D01*
X-8868056Y-38169443D01*
X-8839484Y-38198014D01*
X-8825199Y-38226586D01*
X-8810913Y-38283728D01*
X-8810913Y-38326586D01*
X-8825199Y-38383728D01*
X-8839484Y-38412300D01*
X-8868056Y-38440871D01*
X-8910913Y-38455157D01*
X-8982342Y-38455157D01*
X-8682342Y-38455157D02*
X-8682342Y-38255157D01*
X-8682342Y-38312300D02*
X-8668056Y-38283728D01*
X-8653770Y-38269443D01*
X-8625199Y-38255157D01*
X-8596627Y-38255157D01*
X-8496627Y-38455157D02*
X-8496627Y-38255157D01*
X-8496627Y-38155157D02*
X-8510913Y-38169443D01*
X-8496627Y-38183728D01*
X-8482342Y-38169443D01*
X-8496627Y-38155157D01*
X-8496627Y-38183728D01*
X-8310913Y-38455157D02*
X-8339484Y-38440871D01*
X-8353770Y-38412300D01*
X-8353770Y-38155157D01*
X-8153770Y-38455157D02*
X-8182342Y-38440871D01*
X-8196627Y-38412300D01*
X-8196627Y-38155157D01*
X-7810913Y-38455157D02*
X-7810913Y-38155157D01*
X-7710913Y-38369443D01*
X-7610913Y-38155157D01*
X-7610913Y-38455157D01*
X-7339484Y-38455157D02*
X-7339484Y-38298014D01*
X-7353770Y-38269443D01*
X-7382342Y-38255157D01*
X-7439484Y-38255157D01*
X-7468056Y-38269443D01*
X-7339484Y-38440871D02*
X-7368056Y-38455157D01*
X-7439484Y-38455157D01*
X-7468056Y-38440871D01*
X-7482342Y-38412300D01*
X-7482342Y-38383728D01*
X-7468056Y-38355157D01*
X-7439484Y-38340871D01*
X-7368056Y-38340871D01*
X-7339484Y-38326586D01*
X-7196627Y-38255157D02*
X-7196627Y-38555157D01*
X-7196627Y-38269443D02*
X-7168056Y-38255157D01*
X-7110913Y-38255157D01*
X-7082342Y-38269443D01*
X-7068056Y-38283728D01*
X-7053770Y-38312300D01*
X-7053770Y-38398014D01*
X-7068056Y-38426586D01*
X-7082342Y-38440871D01*
X-7110913Y-38455157D01*
X-7168056Y-38455157D01*
X-7196627Y-38440871D01*
X-6925199Y-38426586D02*
X-6910913Y-38440871D01*
X-6925199Y-38455157D01*
X-6939484Y-38440871D01*
X-6925199Y-38426586D01*
X-6925199Y-38455157D01*
X-6925199Y-38269443D02*
X-6910913Y-38283728D01*
X-6925199Y-38298014D01*
X-6939484Y-38283728D01*
X-6925199Y-38269443D01*
X-6925199Y-38298014D01*
X-9308770Y-38929443D02*
X-9268770Y-38969443D01*
X-9268770Y-38929443D02*
X-9308770Y-38969443D01*
X-8925199Y-38785157D02*
X-8896627Y-38785157D01*
X-8868056Y-38799443D01*
X-8853770Y-38813728D01*
X-8839484Y-38842300D01*
X-8825199Y-38899443D01*
X-8825199Y-38970871D01*
X-8839484Y-39028014D01*
X-8853770Y-39056586D01*
X-8868056Y-39070871D01*
X-8896627Y-39085157D01*
X-8925199Y-39085157D01*
X-8953770Y-39070871D01*
X-8968056Y-39056586D01*
X-8982342Y-39028014D01*
X-8996627Y-38970871D01*
X-8996627Y-38899443D01*
X-8982342Y-38842300D01*
X-8968056Y-38813728D01*
X-8953770Y-38799443D01*
X-8925199Y-38785157D01*
X-8696627Y-39056586D02*
X-8682342Y-39070871D01*
X-8696627Y-39085157D01*
X-8710913Y-39070871D01*
X-8696627Y-39056586D01*
X-8696627Y-39085157D01*
X-8425199Y-38885157D02*
X-8425199Y-39085157D01*
X-8496627Y-38770871D02*
X-8568056Y-38985157D01*
X-8382342Y-38985157D01*
X-8210913Y-38785157D02*
X-8182342Y-38785157D01*
X-8153770Y-38799443D01*
X-8139484Y-38813728D01*
X-8125199Y-38842300D01*
X-8110913Y-38899443D01*
X-8110913Y-38970871D01*
X-8125199Y-39028014D01*
X-8139484Y-39056586D01*
X-8153770Y-39070871D01*
X-8182342Y-39085157D01*
X-8210913Y-39085157D01*
X-8239484Y-39070871D01*
X-8253770Y-39056586D01*
X-8268056Y-39028014D01*
X-8282342Y-38970871D01*
X-8282342Y-38899443D01*
X-8268056Y-38842300D01*
X-8253770Y-38813728D01*
X-8239484Y-38799443D01*
X-8210913Y-38785157D01*
X-7982342Y-39085157D02*
X-7982342Y-38885157D01*
X-7982342Y-38913728D02*
X-7968056Y-38899443D01*
X-7939484Y-38885157D01*
X-7896627Y-38885157D01*
X-7868056Y-38899443D01*
X-7853770Y-38928014D01*
X-7853770Y-39085157D01*
X-7853770Y-38928014D02*
X-7839484Y-38899443D01*
X-7810913Y-38885157D01*
X-7768056Y-38885157D01*
X-7739484Y-38899443D01*
X-7725199Y-38928014D01*
X-7725199Y-39085157D01*
X-7582342Y-39085157D02*
X-7582342Y-38885157D01*
X-7582342Y-38913728D02*
X-7568056Y-38899443D01*
X-7539484Y-38885157D01*
X-7496627Y-38885157D01*
X-7468056Y-38899443D01*
X-7453770Y-38928014D01*
X-7453770Y-39085157D01*
X-7453770Y-38928014D02*
X-7439484Y-38899443D01*
X-7410913Y-38885157D01*
X-7368056Y-38885157D01*
X-7339484Y-38899443D01*
X-7325199Y-38928014D01*
X-7325199Y-39085157D01*
X-6739484Y-38770871D02*
X-6996627Y-39156586D01*
X-6353770Y-38785157D02*
X-6325199Y-38785157D01*
X-6296627Y-38799443D01*
X-6282342Y-38813728D01*
X-6268056Y-38842300D01*
X-6253770Y-38899443D01*
X-6253770Y-38970871D01*
X-6268056Y-39028014D01*
X-6282342Y-39056586D01*
X-6296627Y-39070871D01*
X-6325199Y-39085157D01*
X-6353770Y-39085157D01*
X-6382342Y-39070871D01*
X-6396627Y-39056586D01*
X-6410913Y-39028014D01*
X-6425199Y-38970871D01*
X-6425199Y-38899443D01*
X-6410913Y-38842300D01*
X-6396627Y-38813728D01*
X-6382342Y-38799443D01*
X-6353770Y-38785157D01*
X-6125199Y-39056586D02*
X-6110913Y-39070871D01*
X-6125199Y-39085157D01*
X-6139484Y-39070871D01*
X-6125199Y-39056586D01*
X-6125199Y-39085157D01*
X-5925199Y-38785157D02*
X-5896627Y-38785157D01*
X-5868056Y-38799443D01*
X-5853770Y-38813728D01*
X-5839484Y-38842300D01*
X-5825199Y-38899443D01*
X-5825199Y-38970871D01*
X-5839484Y-39028014D01*
X-5853770Y-39056586D01*
X-5868056Y-39070871D01*
X-5896627Y-39085157D01*
X-5925199Y-39085157D01*
X-5953770Y-39070871D01*
X-5968056Y-39056586D01*
X-5982342Y-39028014D01*
X-5996627Y-38970871D01*
X-5996627Y-38899443D01*
X-5982342Y-38842300D01*
X-5968056Y-38813728D01*
X-5953770Y-38799443D01*
X-5925199Y-38785157D01*
X-5539484Y-39085157D02*
X-5710913Y-39085157D01*
X-5625199Y-39085157D02*
X-5625199Y-38785157D01*
X-5653770Y-38828014D01*
X-5682342Y-38856586D01*
X-5710913Y-38870871D01*
X-5282342Y-38785157D02*
X-5339484Y-38785157D01*
X-5368056Y-38799443D01*
X-5382342Y-38813728D01*
X-5410913Y-38856586D01*
X-5425199Y-38913728D01*
X-5425199Y-39028014D01*
X-5410913Y-39056586D01*
X-5396627Y-39070871D01*
X-5368056Y-39085157D01*
X-5310913Y-39085157D01*
X-5282342Y-39070871D01*
X-5268056Y-39056586D01*
X-5253770Y-39028014D01*
X-5253770Y-38956586D01*
X-5268056Y-38928014D01*
X-5282342Y-38913728D01*
X-5310913Y-38899443D01*
X-5368056Y-38899443D01*
X-5396627Y-38913728D01*
X-5410913Y-38928014D01*
X-5425199Y-38956586D01*
X-5139484Y-38785157D02*
X-5139484Y-38842300D01*
X-5025199Y-38785157D02*
X-5025199Y-38842300D01*
X-4582342Y-39199443D02*
X-4596627Y-39185157D01*
X-4625199Y-39142300D01*
X-4639484Y-39113728D01*
X-4653770Y-39070871D01*
X-4668056Y-38999443D01*
X-4668056Y-38942300D01*
X-4653770Y-38870871D01*
X-4639484Y-38828014D01*
X-4625199Y-38799443D01*
X-4596627Y-38756586D01*
X-4582342Y-38742300D01*
X-4339484Y-38885157D02*
X-4339484Y-39085157D01*
X-4410913Y-38770871D02*
X-4482342Y-38985157D01*
X-4296627Y-38985157D01*
X-3953770Y-39085157D02*
X-3953770Y-38785157D01*
X-3825199Y-39085157D02*
X-3825199Y-38928014D01*
X-3839484Y-38899443D01*
X-3868056Y-38885157D01*
X-3910913Y-38885157D01*
X-3939484Y-38899443D01*
X-3953770Y-38913728D01*
X-3639484Y-39085157D02*
X-3668056Y-39070871D01*
X-3682342Y-39056586D01*
X-3696627Y-39028014D01*
X-3696627Y-38942300D01*
X-3682342Y-38913728D01*
X-3668056Y-38899443D01*
X-3639484Y-38885157D01*
X-3596627Y-38885157D01*
X-3568056Y-38899443D01*
X-3553770Y-38913728D01*
X-3539484Y-38942300D01*
X-3539484Y-39028014D01*
X-3553770Y-39056586D01*
X-3568056Y-39070871D01*
X-3596627Y-39085157D01*
X-3639484Y-39085157D01*
X-3368056Y-39085157D02*
X-3396627Y-39070871D01*
X-3410913Y-39042300D01*
X-3410913Y-38785157D01*
X-3139484Y-39070871D02*
X-3168056Y-39085157D01*
X-3225199Y-39085157D01*
X-3253770Y-39070871D01*
X-3268056Y-39042300D01*
X-3268056Y-38928014D01*
X-3253770Y-38899443D01*
X-3225199Y-38885157D01*
X-3168056Y-38885157D01*
X-3139484Y-38899443D01*
X-3125199Y-38928014D01*
X-3125199Y-38956586D01*
X-3268056Y-38985157D01*
X-3010913Y-39070871D02*
X-2982342Y-39085157D01*
X-2925199Y-39085157D01*
X-2896627Y-39070871D01*
X-2882342Y-39042300D01*
X-2882342Y-39028014D01*
X-2896627Y-38999443D01*
X-2925199Y-38985157D01*
X-2968056Y-38985157D01*
X-2996627Y-38970871D01*
X-3010913Y-38942300D01*
X-3010913Y-38928014D01*
X-2996627Y-38899443D01*
X-2968056Y-38885157D01*
X-2925199Y-38885157D01*
X-2896627Y-38899443D01*
X-2782342Y-39199443D02*
X-2768056Y-39185157D01*
X-2739484Y-39142300D01*
X-2725199Y-39113728D01*
X-2710913Y-39070871D01*
X-2696627Y-38999443D01*
X-2696627Y-38942300D01*
X-2710913Y-38870871D01*
X-2725199Y-38828014D01*
X-2739484Y-38799443D01*
X-2768056Y-38756586D01*
X-2782342Y-38742300D01*
X-9268770Y-39345443D02*
G75*
G03X-9268770Y-39345443I-50000J0D01*
G01*
X-8825199Y-39481157D02*
X-8996627Y-39481157D01*
X-8910913Y-39481157D02*
X-8910913Y-39181157D01*
X-8939484Y-39224014D01*
X-8968056Y-39252586D01*
X-8996627Y-39266871D01*
X-8696627Y-39452586D02*
X-8682342Y-39466871D01*
X-8696627Y-39481157D01*
X-8710913Y-39466871D01*
X-8696627Y-39452586D01*
X-8696627Y-39481157D01*
X-8496627Y-39181157D02*
X-8468056Y-39181157D01*
X-8439484Y-39195443D01*
X-8425199Y-39209728D01*
X-8410913Y-39238300D01*
X-8396627Y-39295443D01*
X-8396627Y-39366871D01*
X-8410913Y-39424014D01*
X-8425199Y-39452586D01*
X-8439484Y-39466871D01*
X-8468056Y-39481157D01*
X-8496627Y-39481157D01*
X-8525199Y-39466871D01*
X-8539484Y-39452586D01*
X-8553770Y-39424014D01*
X-8568056Y-39366871D01*
X-8568056Y-39295443D01*
X-8553770Y-39238300D01*
X-8539484Y-39209728D01*
X-8525199Y-39195443D01*
X-8496627Y-39181157D01*
X-8210913Y-39181157D02*
X-8182342Y-39181157D01*
X-8153770Y-39195443D01*
X-8139484Y-39209728D01*
X-8125199Y-39238300D01*
X-8110913Y-39295443D01*
X-8110913Y-39366871D01*
X-8125199Y-39424014D01*
X-8139484Y-39452586D01*
X-8153770Y-39466871D01*
X-8182342Y-39481157D01*
X-8210913Y-39481157D01*
X-8239484Y-39466871D01*
X-8253770Y-39452586D01*
X-8268056Y-39424014D01*
X-8282342Y-39366871D01*
X-8282342Y-39295443D01*
X-8268056Y-39238300D01*
X-8253770Y-39209728D01*
X-8239484Y-39195443D01*
X-8210913Y-39181157D01*
X-7982342Y-39481157D02*
X-7982342Y-39281157D01*
X-7982342Y-39309728D02*
X-7968056Y-39295443D01*
X-7939484Y-39281157D01*
X-7896627Y-39281157D01*
X-7868056Y-39295443D01*
X-7853770Y-39324014D01*
X-7853770Y-39481157D01*
X-7853770Y-39324014D02*
X-7839484Y-39295443D01*
X-7810913Y-39281157D01*
X-7768056Y-39281157D01*
X-7739484Y-39295443D01*
X-7725199Y-39324014D01*
X-7725199Y-39481157D01*
X-7582342Y-39481157D02*
X-7582342Y-39281157D01*
X-7582342Y-39309728D02*
X-7568056Y-39295443D01*
X-7539484Y-39281157D01*
X-7496627Y-39281157D01*
X-7468056Y-39295443D01*
X-7453770Y-39324014D01*
X-7453770Y-39481157D01*
X-7453770Y-39324014D02*
X-7439484Y-39295443D01*
X-7410913Y-39281157D01*
X-7368056Y-39281157D01*
X-7339484Y-39295443D01*
X-7325199Y-39324014D01*
X-7325199Y-39481157D01*
X-6739484Y-39166871D02*
X-6996627Y-39552586D01*
X-6353770Y-39181157D02*
X-6325199Y-39181157D01*
X-6296627Y-39195443D01*
X-6282342Y-39209728D01*
X-6268056Y-39238300D01*
X-6253770Y-39295443D01*
X-6253770Y-39366871D01*
X-6268056Y-39424014D01*
X-6282342Y-39452586D01*
X-6296627Y-39466871D01*
X-6325199Y-39481157D01*
X-6353770Y-39481157D01*
X-6382342Y-39466871D01*
X-6396627Y-39452586D01*
X-6410913Y-39424014D01*
X-6425199Y-39366871D01*
X-6425199Y-39295443D01*
X-6410913Y-39238300D01*
X-6396627Y-39209728D01*
X-6382342Y-39195443D01*
X-6353770Y-39181157D01*
X-6125199Y-39452586D02*
X-6110913Y-39466871D01*
X-6125199Y-39481157D01*
X-6139484Y-39466871D01*
X-6125199Y-39452586D01*
X-6125199Y-39481157D01*
X-5925199Y-39181157D02*
X-5896627Y-39181157D01*
X-5868056Y-39195443D01*
X-5853770Y-39209728D01*
X-5839484Y-39238300D01*
X-5825199Y-39295443D01*
X-5825199Y-39366871D01*
X-5839484Y-39424014D01*
X-5853770Y-39452586D01*
X-5868056Y-39466871D01*
X-5896627Y-39481157D01*
X-5925199Y-39481157D01*
X-5953770Y-39466871D01*
X-5968056Y-39452586D01*
X-5982342Y-39424014D01*
X-5996627Y-39366871D01*
X-5996627Y-39295443D01*
X-5982342Y-39238300D01*
X-5968056Y-39209728D01*
X-5953770Y-39195443D01*
X-5925199Y-39181157D01*
X-5725199Y-39181157D02*
X-5539484Y-39181157D01*
X-5639484Y-39295443D01*
X-5596627Y-39295443D01*
X-5568056Y-39309728D01*
X-5553770Y-39324014D01*
X-5539484Y-39352586D01*
X-5539484Y-39424014D01*
X-5553770Y-39452586D01*
X-5568056Y-39466871D01*
X-5596627Y-39481157D01*
X-5682342Y-39481157D01*
X-5710913Y-39466871D01*
X-5725199Y-39452586D01*
X-5396627Y-39481157D02*
X-5339484Y-39481157D01*
X-5310913Y-39466871D01*
X-5296627Y-39452586D01*
X-5268056Y-39409728D01*
X-5253770Y-39352586D01*
X-5253770Y-39238300D01*
X-5268056Y-39209728D01*
X-5282342Y-39195443D01*
X-5310913Y-39181157D01*
X-5368056Y-39181157D01*
X-5396627Y-39195443D01*
X-5410913Y-39209728D01*
X-5425199Y-39238300D01*
X-5425199Y-39309728D01*
X-5410913Y-39338300D01*
X-5396627Y-39352586D01*
X-5368056Y-39366871D01*
X-5310913Y-39366871D01*
X-5282342Y-39352586D01*
X-5268056Y-39338300D01*
X-5253770Y-39309728D01*
X-5139484Y-39181157D02*
X-5139484Y-39238300D01*
X-5025199Y-39181157D02*
X-5025199Y-39238300D01*
X-4582342Y-39595443D02*
X-4596627Y-39581157D01*
X-4625199Y-39538300D01*
X-4639484Y-39509728D01*
X-4653770Y-39466871D01*
X-4668056Y-39395443D01*
X-4668056Y-39338300D01*
X-4653770Y-39266871D01*
X-4639484Y-39224014D01*
X-4625199Y-39195443D01*
X-4596627Y-39152586D01*
X-4582342Y-39138300D01*
X-4310913Y-39481157D02*
X-4482342Y-39481157D01*
X-4396627Y-39481157D02*
X-4396627Y-39181157D01*
X-4425199Y-39224014D01*
X-4453770Y-39252586D01*
X-4482342Y-39266871D01*
X-4053770Y-39181157D02*
X-4110913Y-39181157D01*
X-4139484Y-39195443D01*
X-4153770Y-39209728D01*
X-4182342Y-39252586D01*
X-4196627Y-39309728D01*
X-4196627Y-39424014D01*
X-4182342Y-39452586D01*
X-4168056Y-39466871D01*
X-4139484Y-39481157D01*
X-4082342Y-39481157D01*
X-4053770Y-39466871D01*
X-4039484Y-39452586D01*
X-4025199Y-39424014D01*
X-4025199Y-39352586D01*
X-4039484Y-39324014D01*
X-4053770Y-39309728D01*
X-4082342Y-39295443D01*
X-4139484Y-39295443D01*
X-4168056Y-39309728D01*
X-4182342Y-39324014D01*
X-4196627Y-39352586D01*
X-3668056Y-39481157D02*
X-3668056Y-39181157D01*
X-3539484Y-39481157D02*
X-3539484Y-39324014D01*
X-3553770Y-39295443D01*
X-3582342Y-39281157D01*
X-3625199Y-39281157D01*
X-3653770Y-39295443D01*
X-3668056Y-39309728D01*
X-3353770Y-39481157D02*
X-3382342Y-39466871D01*
X-3396627Y-39452586D01*
X-3410913Y-39424014D01*
X-3410913Y-39338300D01*
X-3396627Y-39309728D01*
X-3382342Y-39295443D01*
X-3353770Y-39281157D01*
X-3310913Y-39281157D01*
X-3282342Y-39295443D01*
X-3268056Y-39309728D01*
X-3253770Y-39338300D01*
X-3253770Y-39424014D01*
X-3268056Y-39452586D01*
X-3282342Y-39466871D01*
X-3310913Y-39481157D01*
X-3353770Y-39481157D01*
X-3082342Y-39481157D02*
X-3110913Y-39466871D01*
X-3125199Y-39438300D01*
X-3125199Y-39181157D01*
X-2853770Y-39466871D02*
X-2882342Y-39481157D01*
X-2939484Y-39481157D01*
X-2968056Y-39466871D01*
X-2982342Y-39438300D01*
X-2982342Y-39324014D01*
X-2968056Y-39295443D01*
X-2939484Y-39281157D01*
X-2882342Y-39281157D01*
X-2853770Y-39295443D01*
X-2839484Y-39324014D01*
X-2839484Y-39352586D01*
X-2982342Y-39381157D01*
X-2725199Y-39466871D02*
X-2696627Y-39481157D01*
X-2639484Y-39481157D01*
X-2610913Y-39466871D01*
X-2596627Y-39438300D01*
X-2596627Y-39424014D01*
X-2610913Y-39395443D01*
X-2639484Y-39381157D01*
X-2682342Y-39381157D01*
X-2710913Y-39366871D01*
X-2725199Y-39338300D01*
X-2725199Y-39324014D01*
X-2710913Y-39295443D01*
X-2682342Y-39281157D01*
X-2639484Y-39281157D01*
X-2610913Y-39295443D01*
X-2496627Y-39595443D02*
X-2482342Y-39581157D01*
X-2453770Y-39538300D01*
X-2439484Y-39509728D01*
X-2425199Y-39466871D01*
X-2410913Y-39395443D01*
X-2410913Y-39338300D01*
X-2425199Y-39266871D01*
X-2439484Y-39224014D01*
X-2453770Y-39195443D01*
X-2482342Y-39152586D01*
X-2496627Y-39138300D01*
M02*
