M48
; DRILL file {KiCad (5.1.4)-1} date 9/9/2023 5:32:18 AM
; FORMAT={-:-/ absolute / metric / decimal}
; #@! TF.CreationDate,2023-09-09T05:32:18-04:00
; #@! TF.GenerationSoftware,Kicad,Pcbnew,(5.1.4)-1
; #@! TF.FileFunction,NonPlated,1,2,NPTH
FMAT,2
METRIC
T1C0.600
T2C1.500
T3C1.750
T4C2.950
T5C3.000
T6C5.050
%
G90
G05
T1
X108.74Y-369.35
X114.52Y-369.35
T2
X120.75Y-367.61
X127.75Y-367.61
T3
X116.003Y-397.463
X126.163Y-397.463
X77.903Y-447.063
X88.063Y-447.063
X116.003Y-416.513
X126.163Y-416.513
X116.003Y-435.563
X126.163Y-435.563
X96.953Y-419.513
X107.113Y-419.513
X96.953Y-381.4
X107.113Y-381.4
X96.953Y-438.563
X107.113Y-438.563
X116.003Y-378.42
X126.163Y-378.42
X96.953Y-400.463
X107.113Y-400.463
X58.853Y-452.063
X69.013Y-452.063
T4
X116.383Y-382.82
X123.683Y-384.17
X99.433Y-394.713
X106.733Y-396.063
X61.333Y-446.313
X68.633Y-447.663
X116.383Y-401.863
X123.683Y-403.213
X80.383Y-441.313
X87.683Y-442.663
X116.383Y-420.913
X123.683Y-422.263
X116.383Y-439.963
X123.683Y-441.313
X99.433Y-413.763
X106.733Y-415.113
X99.433Y-375.65
X106.733Y-377.0
X99.433Y-432.813
X106.733Y-434.163
T5
X80.443Y-452.143
X86.793Y-449.603
X117.273Y-413.973
X123.623Y-411.433
X117.273Y-433.023
X123.623Y-430.483
X99.493Y-424.593
X105.843Y-422.053
X99.493Y-386.48
X105.843Y-383.94
X99.493Y-443.643
X105.843Y-441.103
X117.273Y-375.88
X123.623Y-373.34
X99.493Y-405.543
X105.843Y-403.003
X61.393Y-457.143
X67.743Y-454.603
X117.273Y-394.923
X123.623Y-392.383
T6
X121.083Y-435.563
X102.033Y-438.563
X102.033Y-400.463
X63.933Y-452.063
X121.083Y-397.463
X82.983Y-447.063
X121.083Y-416.513
X102.033Y-419.513
X102.033Y-381.4
X121.083Y-378.42
T0
M30
