M48
; DRILL file {KiCad (5.1.4)-1} date 6/13/2023 8:25:16 PM
; FORMAT={-:-/ absolute / metric / decimal}
; #@! TF.CreationDate,2023-06-13T20:25:16-04:00
; #@! TF.GenerationSoftware,Kicad,Pcbnew,(5.1.4)-1
; #@! TF.FileFunction,Plated,1,2,PTH
FMAT,2
METRIC
T1C0.400
T2C0.600
T3C1.000
T4C1.050
T5C1.470
T6C1.500
T7C1.600
T8C2.000
%
G90
G05
T1
X67.743Y-459.332
X96.49Y-463.07
X98.03Y-463.07
X99.8Y-463.835
X101.423Y-448.2
X102.467Y-448.2
X103.52Y-448.2
X104.036Y-451.656
X104.04Y-455.96
X104.164Y-465.0
X104.5Y-448.2
X105.084Y-464.131
X105.93Y-448.28
X107.146Y-463.88
X107.3Y-449.77
X107.621Y-461.501
X107.788Y-464.803
X107.908Y-467.182
X107.967Y-463.326
X108.0Y-470.4
X108.277Y-450.946
X108.509Y-468.646
X109.35Y-451.361
X109.624Y-457.092
X111.569Y-377.012
X111.76Y-449.707
X112.141Y-445.27
X112.903Y-446.024
X113.386Y-377.076
X113.5Y-453.55
X113.5Y-455.125
X113.52Y-407.89
X114.681Y-443.992
X114.9Y-463.1
X115.456Y-469.344
X115.503Y-468.225
X115.6Y-445.07
X116.713Y-443.992
X117.99Y-462.94
X118.334Y-464.859
X118.875Y-457.025
X120.125Y-464.046
X120.3Y-465.325
X120.35Y-467.45
X120.625Y-472.2
X120.625Y-471.175
X120.708Y-469.613
X120.802Y-468.691
X121.4Y-462.1
X121.679Y-465.174
X121.948Y-447.728
X121.95Y-448.655
X121.964Y-446.801
X122.0Y-445.875
X123.25Y-471.85
X124.777Y-470.875
T3
X94.633Y-466.713
X97.086Y-467.37
X99.54Y-468.028
X101.993Y-468.685
X97.51Y-370.82
X100.05Y-370.82
X102.59Y-370.82
X105.13Y-370.82
X56.533Y-451.193
X56.533Y-453.733
X56.533Y-456.273
X56.533Y-458.813
X89.628Y-465.272
X90.285Y-462.818
X90.943Y-460.365
X91.6Y-457.911
X128.876Y-372.098
X128.876Y-374.638
X128.876Y-377.178
X128.876Y-379.718
X127.933Y-471.913
X128.59Y-469.459
X129.248Y-467.006
X129.905Y-464.553
X98.377Y-429.021
X100.917Y-429.021
X103.457Y-429.021
X105.997Y-429.021
X128.941Y-422.225
X128.941Y-424.765
X128.941Y-427.305
X128.941Y-429.845
X120.448Y-451.181
X122.988Y-451.181
X125.528Y-451.181
X128.068Y-451.181
X111.333Y-471.113
X113.786Y-471.77
X116.24Y-472.428
X118.693Y-473.085
X98.534Y-409.935
X101.074Y-409.935
X103.614Y-409.935
X106.154Y-409.935
X98.509Y-390.818
X101.049Y-390.818
X103.589Y-390.818
X106.129Y-390.818
T4
X80.551Y-462.326
X81.723Y-457.981
X85.447Y-456.655
X86.827Y-464.019
X87.999Y-459.674
X70.773Y-459.726
X71.946Y-455.381
X75.67Y-454.055
X77.049Y-461.419
X78.221Y-457.074
T5
X98.223Y-436.023
X99.533Y-434.563
X104.533Y-434.063
X104.573Y-433.483
X98.223Y-378.86
X99.533Y-377.4
X104.533Y-376.9
X104.573Y-376.32
X117.273Y-433.023
X118.583Y-431.563
X123.583Y-431.063
X123.623Y-430.483
X117.273Y-394.923
X118.583Y-393.463
X123.583Y-392.963
X123.623Y-392.383
X98.223Y-397.923
X99.533Y-396.463
X104.533Y-395.963
X104.573Y-395.383
X61.393Y-457.143
X61.433Y-456.563
X66.433Y-456.063
X67.743Y-454.603
X117.273Y-375.88
X118.583Y-374.42
X123.583Y-373.92
X123.623Y-373.34
X118.543Y-421.593
X118.583Y-421.013
X123.583Y-420.513
X124.893Y-419.053
X98.223Y-416.973
X99.533Y-415.513
X104.533Y-415.013
X104.573Y-414.433
X80.443Y-452.143
X80.483Y-451.563
X85.483Y-451.063
X86.793Y-449.603
T6
X124.0Y-386.2
X125.9Y-391.25
T7
X117.8Y-388.725
X124.8Y-388.725
T8
X116.6Y-391.125
T2
X107.66Y-369.525G85X107.66Y-370.325
G05
X107.66Y-373.545G85X107.66Y-374.645
G05
X116.3Y-369.525G85X116.3Y-370.325
G05
X116.3Y-373.545G85X116.3Y-374.645
G05
T0
M30
