G04 #@! TF.GenerationSoftware,KiCad,Pcbnew,(5.1.4)-1*
G04 #@! TF.CreationDate,2023-06-13T20:25:11-04:00*
G04 #@! TF.ProjectId,ThumbsUp,5468756d-6273-4557-902e-6b696361645f,rev?*
G04 #@! TF.SameCoordinates,Original*
G04 #@! TF.FileFunction,Soldermask,Top*
G04 #@! TF.FilePolarity,Negative*
%FSLAX46Y46*%
G04 Gerber Fmt 4.6, Leading zero omitted, Abs format (unit mm)*
G04 Created by KiCad (PCBNEW (5.1.4)-1) date 2023-06-13 20:25:11*
%MOMM*%
%LPD*%
G04 APERTURE LIST*
%ADD10C,0.100000*%
G04 APERTURE END LIST*
D10*
G36*
X118803587Y-472190671D02*
G01*
X118869772Y-472197190D01*
X119039611Y-472248710D01*
X119196136Y-472332375D01*
X119231874Y-472361705D01*
X119333331Y-472444967D01*
X119416593Y-472546424D01*
X119445923Y-472582162D01*
X119529588Y-472738687D01*
X119581108Y-472908526D01*
X119598504Y-473085153D01*
X119581108Y-473261780D01*
X119529588Y-473431619D01*
X119445923Y-473588144D01*
X119416593Y-473623882D01*
X119333331Y-473725339D01*
X119231874Y-473808601D01*
X119196136Y-473837931D01*
X119039611Y-473921596D01*
X118869772Y-473973116D01*
X118803587Y-473979635D01*
X118737405Y-473986153D01*
X118648885Y-473986153D01*
X118582703Y-473979635D01*
X118516518Y-473973116D01*
X118346679Y-473921596D01*
X118190154Y-473837931D01*
X118154416Y-473808601D01*
X118052959Y-473725339D01*
X117969697Y-473623882D01*
X117940367Y-473588144D01*
X117856702Y-473431619D01*
X117805182Y-473261780D01*
X117787786Y-473085153D01*
X117805182Y-472908526D01*
X117856702Y-472738687D01*
X117940367Y-472582162D01*
X117969697Y-472546424D01*
X118052959Y-472444967D01*
X118154416Y-472361705D01*
X118190154Y-472332375D01*
X118346679Y-472248710D01*
X118516518Y-472197190D01*
X118582703Y-472190671D01*
X118648885Y-472184153D01*
X118737405Y-472184153D01*
X118803587Y-472190671D01*
X118803587Y-472190671D01*
G37*
G36*
X116350136Y-471533272D02*
G01*
X116416320Y-471539790D01*
X116586159Y-471591310D01*
X116742684Y-471674975D01*
X116778422Y-471704305D01*
X116879879Y-471787567D01*
X116963141Y-471889024D01*
X116992471Y-471924762D01*
X117076136Y-472081287D01*
X117127656Y-472251126D01*
X117145052Y-472427753D01*
X117127656Y-472604380D01*
X117076136Y-472774219D01*
X116992471Y-472930744D01*
X116963141Y-472966482D01*
X116879879Y-473067939D01*
X116778422Y-473151201D01*
X116742684Y-473180531D01*
X116586159Y-473264196D01*
X116416320Y-473315716D01*
X116350135Y-473322235D01*
X116283953Y-473328753D01*
X116195433Y-473328753D01*
X116129251Y-473322235D01*
X116063066Y-473315716D01*
X115893227Y-473264196D01*
X115736702Y-473180531D01*
X115700964Y-473151201D01*
X115599507Y-473067939D01*
X115516245Y-472966482D01*
X115486915Y-472930744D01*
X115403250Y-472774219D01*
X115351730Y-472604380D01*
X115334334Y-472427753D01*
X115351730Y-472251126D01*
X115403250Y-472081287D01*
X115486915Y-471924762D01*
X115516245Y-471889024D01*
X115599507Y-471787567D01*
X115700964Y-471704305D01*
X115736702Y-471674975D01*
X115893227Y-471591310D01*
X116063066Y-471539790D01*
X116129250Y-471533272D01*
X116195433Y-471526753D01*
X116283953Y-471526753D01*
X116350136Y-471533272D01*
X116350136Y-471533272D01*
G37*
G36*
X128034119Y-471017573D02*
G01*
X128109416Y-471024989D01*
X128279255Y-471076509D01*
X128435780Y-471160174D01*
X128471518Y-471189504D01*
X128572975Y-471272766D01*
X128656237Y-471374223D01*
X128685567Y-471409961D01*
X128769232Y-471566486D01*
X128820752Y-471736325D01*
X128838148Y-471912952D01*
X128820752Y-472089579D01*
X128769232Y-472259418D01*
X128685567Y-472415943D01*
X128661747Y-472444967D01*
X128572975Y-472553138D01*
X128471518Y-472636400D01*
X128435780Y-472665730D01*
X128279255Y-472749395D01*
X128109416Y-472800915D01*
X128043232Y-472807433D01*
X127977049Y-472813952D01*
X127888529Y-472813952D01*
X127822346Y-472807433D01*
X127756162Y-472800915D01*
X127586323Y-472749395D01*
X127429798Y-472665730D01*
X127394060Y-472636400D01*
X127292603Y-472553138D01*
X127203831Y-472444967D01*
X127180011Y-472415943D01*
X127096346Y-472259418D01*
X127044826Y-472089579D01*
X127027430Y-471912952D01*
X127044826Y-471736325D01*
X127096346Y-471566486D01*
X127180011Y-471409961D01*
X127209341Y-471374223D01*
X127292603Y-471272766D01*
X127394060Y-471189504D01*
X127429798Y-471160174D01*
X127586323Y-471076509D01*
X127756162Y-471024989D01*
X127831459Y-471017573D01*
X127888529Y-471011952D01*
X127977049Y-471011952D01*
X128034119Y-471017573D01*
X128034119Y-471017573D01*
G37*
G36*
X113896685Y-470875871D02*
G01*
X113962869Y-470882389D01*
X114132708Y-470933909D01*
X114289233Y-471017574D01*
X114298268Y-471024989D01*
X114426428Y-471130166D01*
X114509690Y-471231623D01*
X114539020Y-471267361D01*
X114622685Y-471423886D01*
X114674205Y-471593725D01*
X114691601Y-471770352D01*
X114674205Y-471946979D01*
X114622685Y-472116818D01*
X114539020Y-472273343D01*
X114509690Y-472309081D01*
X114426428Y-472410538D01*
X114324971Y-472493800D01*
X114289233Y-472523130D01*
X114132708Y-472606795D01*
X113962869Y-472658315D01*
X113896684Y-472664834D01*
X113830502Y-472671352D01*
X113741982Y-472671352D01*
X113675800Y-472664834D01*
X113609615Y-472658315D01*
X113439776Y-472606795D01*
X113283251Y-472523130D01*
X113247513Y-472493800D01*
X113146056Y-472410538D01*
X113062794Y-472309081D01*
X113033464Y-472273343D01*
X112949799Y-472116818D01*
X112898279Y-471946979D01*
X112880883Y-471770352D01*
X112898279Y-471593725D01*
X112949799Y-471423886D01*
X113033464Y-471267361D01*
X113062794Y-471231623D01*
X113146056Y-471130166D01*
X113274216Y-471024989D01*
X113283251Y-471017574D01*
X113439776Y-470933909D01*
X113609615Y-470882389D01*
X113675799Y-470875871D01*
X113741982Y-470869352D01*
X113830502Y-470869352D01*
X113896685Y-470875871D01*
X113896685Y-470875871D01*
G37*
G36*
X112436285Y-470475849D02*
G01*
X111969893Y-472216447D01*
X110229295Y-471750055D01*
X110695687Y-470009457D01*
X112436285Y-470475849D01*
X112436285Y-470475849D01*
G37*
G36*
X128700632Y-468565019D02*
G01*
X128766816Y-468571537D01*
X128936655Y-468623057D01*
X129093180Y-468706722D01*
X129128918Y-468736052D01*
X129230375Y-468819314D01*
X129309490Y-468915717D01*
X129342967Y-468956509D01*
X129426632Y-469113034D01*
X129478152Y-469282873D01*
X129495548Y-469459500D01*
X129478152Y-469636127D01*
X129426632Y-469805966D01*
X129342967Y-469962491D01*
X129313637Y-469998229D01*
X129230375Y-470099686D01*
X129128918Y-470182948D01*
X129093180Y-470212278D01*
X128936655Y-470295943D01*
X128766816Y-470347463D01*
X128700632Y-470353981D01*
X128634449Y-470360500D01*
X128545929Y-470360500D01*
X128479746Y-470353981D01*
X128413562Y-470347463D01*
X128243723Y-470295943D01*
X128087198Y-470212278D01*
X128051460Y-470182948D01*
X127950003Y-470099686D01*
X127866741Y-469998229D01*
X127837411Y-469962491D01*
X127753746Y-469805966D01*
X127702226Y-469636127D01*
X127684830Y-469459500D01*
X127702226Y-469282873D01*
X127753746Y-469113034D01*
X127837411Y-468956509D01*
X127870888Y-468915717D01*
X127950003Y-468819314D01*
X128051460Y-468736052D01*
X128087198Y-468706722D01*
X128243723Y-468623057D01*
X128413562Y-468571537D01*
X128479746Y-468565019D01*
X128545929Y-468558500D01*
X128634449Y-468558500D01*
X128700632Y-468565019D01*
X128700632Y-468565019D01*
G37*
G36*
X102103586Y-467790672D02*
G01*
X102169771Y-467797191D01*
X102339610Y-467848711D01*
X102496135Y-467932376D01*
X102531873Y-467961706D01*
X102633330Y-468044968D01*
X102716592Y-468146425D01*
X102745922Y-468182163D01*
X102829587Y-468338688D01*
X102881107Y-468508527D01*
X102898503Y-468685154D01*
X102881107Y-468861781D01*
X102829587Y-469031620D01*
X102745922Y-469188145D01*
X102716592Y-469223883D01*
X102633330Y-469325340D01*
X102531873Y-469408602D01*
X102496135Y-469437932D01*
X102339610Y-469521597D01*
X102169771Y-469573117D01*
X102103586Y-469579636D01*
X102037404Y-469586154D01*
X101948884Y-469586154D01*
X101882702Y-469579636D01*
X101816517Y-469573117D01*
X101646678Y-469521597D01*
X101490153Y-469437932D01*
X101454415Y-469408602D01*
X101352958Y-469325340D01*
X101269696Y-469223883D01*
X101240366Y-469188145D01*
X101156701Y-469031620D01*
X101105181Y-468861781D01*
X101087785Y-468685154D01*
X101105181Y-468508527D01*
X101156701Y-468338688D01*
X101240366Y-468182163D01*
X101269696Y-468146425D01*
X101352958Y-468044968D01*
X101454415Y-467961706D01*
X101490153Y-467932376D01*
X101646678Y-467848711D01*
X101816517Y-467797191D01*
X101882702Y-467790672D01*
X101948884Y-467784154D01*
X102037404Y-467784154D01*
X102103586Y-467790672D01*
X102103586Y-467790672D01*
G37*
G36*
X99650134Y-467133272D02*
G01*
X99716319Y-467139791D01*
X99886158Y-467191311D01*
X100042683Y-467274976D01*
X100078421Y-467304306D01*
X100179878Y-467387568D01*
X100263140Y-467489025D01*
X100292470Y-467524763D01*
X100376135Y-467681288D01*
X100427655Y-467851127D01*
X100445051Y-468027754D01*
X100427655Y-468204381D01*
X100376135Y-468374220D01*
X100292470Y-468530745D01*
X100269692Y-468558500D01*
X100179878Y-468667940D01*
X100078421Y-468751202D01*
X100042683Y-468780532D01*
X99886158Y-468864197D01*
X99716319Y-468915717D01*
X99650134Y-468922236D01*
X99583952Y-468928754D01*
X99495432Y-468928754D01*
X99429250Y-468922236D01*
X99363065Y-468915717D01*
X99193226Y-468864197D01*
X99036701Y-468780532D01*
X99000963Y-468751202D01*
X98899506Y-468667940D01*
X98809692Y-468558500D01*
X98786914Y-468530745D01*
X98703249Y-468374220D01*
X98651729Y-468204381D01*
X98634333Y-468027754D01*
X98651729Y-467851127D01*
X98703249Y-467681288D01*
X98786914Y-467524763D01*
X98816244Y-467489025D01*
X98899506Y-467387568D01*
X99000963Y-467304306D01*
X99036701Y-467274976D01*
X99193226Y-467191311D01*
X99363065Y-467139791D01*
X99429250Y-467133272D01*
X99495432Y-467126754D01*
X99583952Y-467126754D01*
X99650134Y-467133272D01*
X99650134Y-467133272D01*
G37*
G36*
X97196683Y-466475871D02*
G01*
X97262868Y-466482390D01*
X97432707Y-466533910D01*
X97589232Y-466617575D01*
X97624970Y-466646905D01*
X97726427Y-466730167D01*
X97807882Y-466829422D01*
X97839019Y-466867362D01*
X97922684Y-467023887D01*
X97974204Y-467193726D01*
X97991600Y-467370353D01*
X97974204Y-467546980D01*
X97922684Y-467716819D01*
X97839019Y-467873344D01*
X97822057Y-467894012D01*
X97726427Y-468010539D01*
X97624970Y-468093801D01*
X97589232Y-468123131D01*
X97432707Y-468206796D01*
X97262868Y-468258316D01*
X97196683Y-468264835D01*
X97130501Y-468271353D01*
X97041981Y-468271353D01*
X96975799Y-468264835D01*
X96909614Y-468258316D01*
X96739775Y-468206796D01*
X96583250Y-468123131D01*
X96547512Y-468093801D01*
X96446055Y-468010539D01*
X96350425Y-467894012D01*
X96333463Y-467873344D01*
X96249798Y-467716819D01*
X96198278Y-467546980D01*
X96180882Y-467370353D01*
X96198278Y-467193726D01*
X96249798Y-467023887D01*
X96333463Y-466867362D01*
X96364600Y-466829422D01*
X96446055Y-466730167D01*
X96547512Y-466646905D01*
X96583250Y-466617575D01*
X96739775Y-466533910D01*
X96909614Y-466482390D01*
X96975799Y-466475871D01*
X97041981Y-466469353D01*
X97130501Y-466469353D01*
X97196683Y-466475871D01*
X97196683Y-466475871D01*
G37*
G36*
X129358033Y-466111568D02*
G01*
X129424217Y-466118086D01*
X129594056Y-466169606D01*
X129750581Y-466253271D01*
X129786319Y-466282601D01*
X129887776Y-466365863D01*
X129971038Y-466467320D01*
X130000368Y-466503058D01*
X130084033Y-466659583D01*
X130135553Y-466829422D01*
X130152949Y-467006049D01*
X130135553Y-467182676D01*
X130084033Y-467352515D01*
X130000368Y-467509040D01*
X129971038Y-467544778D01*
X129887776Y-467646235D01*
X129801768Y-467716819D01*
X129750581Y-467758827D01*
X129594056Y-467842492D01*
X129424217Y-467894012D01*
X129358033Y-467900530D01*
X129291850Y-467907049D01*
X129203330Y-467907049D01*
X129137147Y-467900530D01*
X129070963Y-467894012D01*
X128901124Y-467842492D01*
X128744599Y-467758827D01*
X128693412Y-467716819D01*
X128607404Y-467646235D01*
X128524142Y-467544778D01*
X128494812Y-467509040D01*
X128411147Y-467352515D01*
X128359627Y-467182676D01*
X128342231Y-467006049D01*
X128359627Y-466829422D01*
X128411147Y-466659583D01*
X128494812Y-466503058D01*
X128524142Y-466467320D01*
X128607404Y-466365863D01*
X128708861Y-466282601D01*
X128744599Y-466253271D01*
X128901124Y-466169606D01*
X129070963Y-466118086D01*
X129137147Y-466111568D01*
X129203330Y-466105049D01*
X129291850Y-466105049D01*
X129358033Y-466111568D01*
X129358033Y-466111568D01*
G37*
G36*
X95736284Y-466075850D02*
G01*
X95269892Y-467816448D01*
X93529294Y-467350056D01*
X93995686Y-465609458D01*
X95736284Y-466075850D01*
X95736284Y-466075850D01*
G37*
G36*
X89738399Y-464377339D02*
G01*
X89804583Y-464383857D01*
X89974422Y-464435377D01*
X90130947Y-464519042D01*
X90166685Y-464548372D01*
X90268142Y-464631634D01*
X90351404Y-464733091D01*
X90380734Y-464768829D01*
X90464399Y-464925354D01*
X90515919Y-465095193D01*
X90533315Y-465271820D01*
X90515919Y-465448447D01*
X90464399Y-465618286D01*
X90380734Y-465774811D01*
X90351404Y-465810549D01*
X90268142Y-465912006D01*
X90166685Y-465995268D01*
X90130947Y-466024598D01*
X89974422Y-466108263D01*
X89804583Y-466159783D01*
X89738398Y-466166302D01*
X89672216Y-466172820D01*
X89583696Y-466172820D01*
X89517514Y-466166302D01*
X89451329Y-466159783D01*
X89281490Y-466108263D01*
X89124965Y-466024598D01*
X89089227Y-465995268D01*
X88987770Y-465912006D01*
X88904508Y-465810549D01*
X88875178Y-465774811D01*
X88791513Y-465618286D01*
X88739993Y-465448447D01*
X88722597Y-465271820D01*
X88739993Y-465095193D01*
X88791513Y-464925354D01*
X88875178Y-464768829D01*
X88904508Y-464733091D01*
X88987770Y-464631634D01*
X89089227Y-464548372D01*
X89124965Y-464519042D01*
X89281490Y-464435377D01*
X89451329Y-464383857D01*
X89517513Y-464377339D01*
X89583696Y-464370820D01*
X89672216Y-464370820D01*
X89738399Y-464377339D01*
X89738399Y-464377339D01*
G37*
G36*
X131008485Y-463915494D02*
G01*
X130542093Y-465656092D01*
X128801495Y-465189700D01*
X129267887Y-463449102D01*
X131008485Y-463915494D01*
X131008485Y-463915494D01*
G37*
G36*
X87071239Y-463212676D02*
G01*
X87223836Y-463275883D01*
X87361170Y-463367647D01*
X87477964Y-463484441D01*
X87569728Y-463621775D01*
X87632935Y-463774372D01*
X87665158Y-463936367D01*
X87665158Y-464101539D01*
X87632935Y-464263534D01*
X87569728Y-464416131D01*
X87477964Y-464553465D01*
X87361170Y-464670259D01*
X87223836Y-464762023D01*
X87071239Y-464825230D01*
X86909244Y-464857453D01*
X86744072Y-464857453D01*
X86582077Y-464825230D01*
X86429480Y-464762023D01*
X86292146Y-464670259D01*
X86175352Y-464553465D01*
X86083588Y-464416131D01*
X86020381Y-464263534D01*
X85988158Y-464101539D01*
X85988158Y-463936367D01*
X86020381Y-463774372D01*
X86083588Y-463621775D01*
X86175352Y-463484441D01*
X86292146Y-463367647D01*
X86429480Y-463275883D01*
X86582077Y-463212676D01*
X86744072Y-463180453D01*
X86909244Y-463180453D01*
X87071239Y-463212676D01*
X87071239Y-463212676D01*
G37*
G36*
X90395799Y-461923887D02*
G01*
X90461983Y-461930405D01*
X90631822Y-461981925D01*
X90788347Y-462065590D01*
X90807237Y-462081093D01*
X90925542Y-462178182D01*
X90990597Y-462257453D01*
X91038134Y-462315377D01*
X91121799Y-462471902D01*
X91173319Y-462641741D01*
X91190715Y-462818368D01*
X91173319Y-462994995D01*
X91121799Y-463164834D01*
X91038134Y-463321359D01*
X91008804Y-463357097D01*
X90925542Y-463458554D01*
X90824085Y-463541816D01*
X90788347Y-463571146D01*
X90631822Y-463654811D01*
X90461983Y-463706331D01*
X90395799Y-463712849D01*
X90329616Y-463719368D01*
X90241096Y-463719368D01*
X90174913Y-463712849D01*
X90108729Y-463706331D01*
X89938890Y-463654811D01*
X89782365Y-463571146D01*
X89746627Y-463541816D01*
X89645170Y-463458554D01*
X89561908Y-463357097D01*
X89532578Y-463321359D01*
X89448913Y-463164834D01*
X89397393Y-462994995D01*
X89379997Y-462818368D01*
X89397393Y-462641741D01*
X89448913Y-462471902D01*
X89532578Y-462315377D01*
X89580115Y-462257453D01*
X89645170Y-462178182D01*
X89763475Y-462081093D01*
X89782365Y-462065590D01*
X89938890Y-461981925D01*
X90108729Y-461930405D01*
X90174913Y-461923887D01*
X90241096Y-461917368D01*
X90329616Y-461917368D01*
X90395799Y-461923887D01*
X90395799Y-461923887D01*
G37*
G36*
X80795667Y-461519397D02*
G01*
X80948264Y-461582604D01*
X81085598Y-461674368D01*
X81202392Y-461791162D01*
X81294156Y-461928496D01*
X81357363Y-462081093D01*
X81389586Y-462243088D01*
X81389586Y-462408260D01*
X81357363Y-462570255D01*
X81294156Y-462722852D01*
X81202392Y-462860186D01*
X81085598Y-462976980D01*
X80948264Y-463068744D01*
X80795667Y-463131951D01*
X80633672Y-463164174D01*
X80468500Y-463164174D01*
X80306505Y-463131951D01*
X80153908Y-463068744D01*
X80016574Y-462976980D01*
X79899780Y-462860186D01*
X79808016Y-462722852D01*
X79744809Y-462570255D01*
X79712586Y-462408260D01*
X79712586Y-462243088D01*
X79744809Y-462081093D01*
X79808016Y-461928496D01*
X79899780Y-461791162D01*
X80016574Y-461674368D01*
X80153908Y-461582604D01*
X80306505Y-461519397D01*
X80468500Y-461487174D01*
X80633672Y-461487174D01*
X80795667Y-461519397D01*
X80795667Y-461519397D01*
G37*
G36*
X77293494Y-460612676D02*
G01*
X77446091Y-460675883D01*
X77583425Y-460767647D01*
X77700219Y-460884441D01*
X77791983Y-461021775D01*
X77855190Y-461174372D01*
X77887413Y-461336367D01*
X77887413Y-461501539D01*
X77855190Y-461663534D01*
X77791983Y-461816131D01*
X77700219Y-461953465D01*
X77583425Y-462070259D01*
X77446091Y-462162023D01*
X77293494Y-462225230D01*
X77131499Y-462257453D01*
X76966327Y-462257453D01*
X76804332Y-462225230D01*
X76651735Y-462162023D01*
X76514401Y-462070259D01*
X76397607Y-461953465D01*
X76305843Y-461816131D01*
X76242636Y-461663534D01*
X76210413Y-461501539D01*
X76210413Y-461336367D01*
X76242636Y-461174372D01*
X76305843Y-461021775D01*
X76397607Y-460884441D01*
X76514401Y-460767647D01*
X76651735Y-460675883D01*
X76804332Y-460612676D01*
X76966327Y-460580453D01*
X77131499Y-460580453D01*
X77293494Y-460612676D01*
X77293494Y-460612676D01*
G37*
G36*
X91053200Y-459470436D02*
G01*
X91119384Y-459476954D01*
X91289223Y-459528474D01*
X91445748Y-459612139D01*
X91481486Y-459641469D01*
X91582943Y-459724731D01*
X91651492Y-459808260D01*
X91695535Y-459861926D01*
X91779200Y-460018451D01*
X91830720Y-460188290D01*
X91848116Y-460364917D01*
X91830720Y-460541544D01*
X91789968Y-460675884D01*
X91779199Y-460711385D01*
X91737367Y-460789646D01*
X91695535Y-460867908D01*
X91666205Y-460903646D01*
X91582943Y-461005103D01*
X91481486Y-461088365D01*
X91445748Y-461117695D01*
X91289223Y-461201360D01*
X91119384Y-461252880D01*
X91053200Y-461259398D01*
X90987017Y-461265917D01*
X90898497Y-461265917D01*
X90832314Y-461259398D01*
X90766130Y-461252880D01*
X90596291Y-461201360D01*
X90439766Y-461117695D01*
X90404028Y-461088365D01*
X90302571Y-461005103D01*
X90219309Y-460903646D01*
X90189979Y-460867908D01*
X90148147Y-460789646D01*
X90106315Y-460711385D01*
X90095546Y-460675884D01*
X90054794Y-460541544D01*
X90037398Y-460364917D01*
X90054794Y-460188290D01*
X90106314Y-460018451D01*
X90189979Y-459861926D01*
X90234022Y-459808260D01*
X90302571Y-459724731D01*
X90404028Y-459641469D01*
X90439766Y-459612139D01*
X90596291Y-459528474D01*
X90766130Y-459476954D01*
X90832314Y-459470436D01*
X90898497Y-459463917D01*
X90987017Y-459463917D01*
X91053200Y-459470436D01*
X91053200Y-459470436D01*
G37*
G36*
X71017922Y-458919397D02*
G01*
X71170519Y-458982604D01*
X71307853Y-459074368D01*
X71424647Y-459191162D01*
X71516411Y-459328496D01*
X71579618Y-459481093D01*
X71611841Y-459643088D01*
X71611841Y-459808260D01*
X71579618Y-459970255D01*
X71516411Y-460122852D01*
X71424647Y-460260186D01*
X71307853Y-460376980D01*
X71170519Y-460468744D01*
X71017922Y-460531951D01*
X70855927Y-460564174D01*
X70690755Y-460564174D01*
X70528760Y-460531951D01*
X70376163Y-460468744D01*
X70238829Y-460376980D01*
X70122035Y-460260186D01*
X70030271Y-460122852D01*
X69967064Y-459970255D01*
X69934841Y-459808260D01*
X69934841Y-459643088D01*
X69967064Y-459481093D01*
X70030271Y-459328496D01*
X70122035Y-459191162D01*
X70238829Y-459074368D01*
X70376163Y-458982604D01*
X70528760Y-458919397D01*
X70690755Y-458887174D01*
X70855927Y-458887174D01*
X71017922Y-458919397D01*
X71017922Y-458919397D01*
G37*
G36*
X88243509Y-458868049D02*
G01*
X88396106Y-458931256D01*
X88533440Y-459023020D01*
X88650234Y-459139814D01*
X88741998Y-459277148D01*
X88805205Y-459429745D01*
X88837428Y-459591740D01*
X88837428Y-459756912D01*
X88805205Y-459918907D01*
X88741998Y-460071504D01*
X88650234Y-460208838D01*
X88533440Y-460325632D01*
X88396106Y-460417396D01*
X88243509Y-460480603D01*
X88081514Y-460512826D01*
X87916342Y-460512826D01*
X87754347Y-460480603D01*
X87601750Y-460417396D01*
X87464416Y-460325632D01*
X87347622Y-460208838D01*
X87255858Y-460071504D01*
X87192651Y-459918907D01*
X87160428Y-459756912D01*
X87160428Y-459591740D01*
X87192651Y-459429745D01*
X87255858Y-459277148D01*
X87347622Y-459139814D01*
X87464416Y-459023020D01*
X87601750Y-458931256D01*
X87754347Y-458868049D01*
X87916342Y-458835826D01*
X88081514Y-458835826D01*
X88243509Y-458868049D01*
X88243509Y-458868049D01*
G37*
G36*
X56643231Y-457918470D02*
G01*
X56709416Y-457924989D01*
X56879255Y-457976509D01*
X57035780Y-458060174D01*
X57071518Y-458089504D01*
X57172975Y-458172766D01*
X57256237Y-458274223D01*
X57285567Y-458309961D01*
X57369232Y-458466486D01*
X57420752Y-458636325D01*
X57438148Y-458812952D01*
X57420752Y-458989579D01*
X57369232Y-459159418D01*
X57285567Y-459315943D01*
X57275265Y-459328496D01*
X57172975Y-459453138D01*
X57081176Y-459528474D01*
X57035780Y-459565730D01*
X57035778Y-459565731D01*
X56891055Y-459643088D01*
X56879255Y-459649395D01*
X56709416Y-459700915D01*
X56643232Y-459707433D01*
X56577049Y-459713952D01*
X56488529Y-459713952D01*
X56422346Y-459707433D01*
X56356162Y-459700915D01*
X56186323Y-459649395D01*
X56174524Y-459643088D01*
X56029800Y-459565731D01*
X56029798Y-459565730D01*
X55984402Y-459528474D01*
X55892603Y-459453138D01*
X55790313Y-459328496D01*
X55780011Y-459315943D01*
X55696346Y-459159418D01*
X55644826Y-458989579D01*
X55627430Y-458812952D01*
X55644826Y-458636325D01*
X55696346Y-458466486D01*
X55780011Y-458309961D01*
X55809341Y-458274223D01*
X55892603Y-458172766D01*
X55994060Y-458089504D01*
X56029798Y-458060174D01*
X56186323Y-457976509D01*
X56356162Y-457924989D01*
X56422347Y-457918470D01*
X56488529Y-457911952D01*
X56577049Y-457911952D01*
X56643231Y-457918470D01*
X56643231Y-457918470D01*
G37*
G36*
X92703652Y-457274362D02*
G01*
X92237260Y-459014960D01*
X90496662Y-458548568D01*
X90963054Y-456807970D01*
X92703652Y-457274362D01*
X92703652Y-457274362D01*
G37*
G36*
X81967937Y-457174770D02*
G01*
X82120534Y-457237977D01*
X82257868Y-457329741D01*
X82374662Y-457446535D01*
X82466426Y-457583869D01*
X82529633Y-457736466D01*
X82561856Y-457898461D01*
X82561856Y-458063633D01*
X82529633Y-458225628D01*
X82466426Y-458378225D01*
X82374662Y-458515559D01*
X82257868Y-458632353D01*
X82120534Y-458724117D01*
X81967937Y-458787324D01*
X81805942Y-458819547D01*
X81640770Y-458819547D01*
X81478775Y-458787324D01*
X81326178Y-458724117D01*
X81188844Y-458632353D01*
X81072050Y-458515559D01*
X80980286Y-458378225D01*
X80917079Y-458225628D01*
X80884856Y-458063633D01*
X80884856Y-457898461D01*
X80917079Y-457736466D01*
X80980286Y-457583869D01*
X81072050Y-457446535D01*
X81188844Y-457329741D01*
X81326178Y-457237977D01*
X81478775Y-457174770D01*
X81640770Y-457142547D01*
X81805942Y-457142547D01*
X81967937Y-457174770D01*
X81967937Y-457174770D01*
G37*
G36*
X78465764Y-456268049D02*
G01*
X78618361Y-456331256D01*
X78755695Y-456423020D01*
X78872489Y-456539814D01*
X78964253Y-456677148D01*
X79027460Y-456829745D01*
X79059683Y-456991740D01*
X79059683Y-457156912D01*
X79027460Y-457318907D01*
X78964253Y-457471504D01*
X78872489Y-457608838D01*
X78755695Y-457725632D01*
X78618361Y-457817396D01*
X78465764Y-457880603D01*
X78303769Y-457912826D01*
X78138597Y-457912826D01*
X77976602Y-457880603D01*
X77824005Y-457817396D01*
X77686671Y-457725632D01*
X77569877Y-457608838D01*
X77478113Y-457471504D01*
X77414906Y-457318907D01*
X77382683Y-457156912D01*
X77382683Y-456991740D01*
X77414906Y-456829745D01*
X77478113Y-456677148D01*
X77569877Y-456539814D01*
X77686671Y-456423020D01*
X77824005Y-456331256D01*
X77976602Y-456268049D01*
X78138597Y-456235826D01*
X78303769Y-456235826D01*
X78465764Y-456268049D01*
X78465764Y-456268049D01*
G37*
G36*
X85691858Y-455849096D02*
G01*
X85844455Y-455912303D01*
X85981789Y-456004067D01*
X86098583Y-456120861D01*
X86190347Y-456258195D01*
X86253554Y-456410792D01*
X86285777Y-456572787D01*
X86285777Y-456737959D01*
X86253554Y-456899954D01*
X86190347Y-457052551D01*
X86098583Y-457189885D01*
X85981789Y-457306679D01*
X85844455Y-457398443D01*
X85691858Y-457461650D01*
X85529863Y-457493873D01*
X85364691Y-457493873D01*
X85202696Y-457461650D01*
X85050099Y-457398443D01*
X84912765Y-457306679D01*
X84795971Y-457189885D01*
X84704207Y-457052551D01*
X84641000Y-456899954D01*
X84608777Y-456737959D01*
X84608777Y-456572787D01*
X84641000Y-456410792D01*
X84704207Y-456258195D01*
X84795971Y-456120861D01*
X84912765Y-456004067D01*
X85050099Y-455912303D01*
X85202696Y-455849096D01*
X85364691Y-455816873D01*
X85529863Y-455816873D01*
X85691858Y-455849096D01*
X85691858Y-455849096D01*
G37*
G36*
X56643231Y-455378470D02*
G01*
X56709416Y-455384989D01*
X56879255Y-455436509D01*
X57035780Y-455520174D01*
X57071518Y-455549504D01*
X57172975Y-455632766D01*
X57256237Y-455734223D01*
X57285567Y-455769961D01*
X57369232Y-455926486D01*
X57420752Y-456096325D01*
X57438148Y-456272952D01*
X57420752Y-456449579D01*
X57369232Y-456619418D01*
X57285567Y-456775943D01*
X57259283Y-456807970D01*
X57172975Y-456913138D01*
X57071518Y-456996400D01*
X57035780Y-457025730D01*
X56879255Y-457109395D01*
X56709416Y-457160915D01*
X56643231Y-457167434D01*
X56577049Y-457173952D01*
X56488529Y-457173952D01*
X56422347Y-457167434D01*
X56356162Y-457160915D01*
X56186323Y-457109395D01*
X56029798Y-457025730D01*
X55994060Y-456996400D01*
X55892603Y-456913138D01*
X55806295Y-456807970D01*
X55780011Y-456775943D01*
X55696346Y-456619418D01*
X55644826Y-456449579D01*
X55627430Y-456272952D01*
X55644826Y-456096325D01*
X55696346Y-455926486D01*
X55780011Y-455769961D01*
X55809341Y-455734223D01*
X55892603Y-455632766D01*
X55994060Y-455549504D01*
X56029798Y-455520174D01*
X56186323Y-455436509D01*
X56356162Y-455384989D01*
X56422347Y-455378470D01*
X56488529Y-455371952D01*
X56577049Y-455371952D01*
X56643231Y-455378470D01*
X56643231Y-455378470D01*
G37*
G36*
X72190192Y-454574770D02*
G01*
X72342789Y-454637977D01*
X72480123Y-454729741D01*
X72596917Y-454846535D01*
X72688681Y-454983869D01*
X72751888Y-455136466D01*
X72784111Y-455298461D01*
X72784111Y-455463633D01*
X72751888Y-455625628D01*
X72688681Y-455778225D01*
X72596917Y-455915559D01*
X72480123Y-456032353D01*
X72342789Y-456124117D01*
X72190192Y-456187324D01*
X72028197Y-456219547D01*
X71863025Y-456219547D01*
X71701030Y-456187324D01*
X71548433Y-456124117D01*
X71411099Y-456032353D01*
X71294305Y-455915559D01*
X71202541Y-455778225D01*
X71139334Y-455625628D01*
X71107111Y-455463633D01*
X71107111Y-455298461D01*
X71139334Y-455136466D01*
X71202541Y-454983869D01*
X71294305Y-454846535D01*
X71411099Y-454729741D01*
X71548433Y-454637977D01*
X71701030Y-454574770D01*
X71863025Y-454542547D01*
X72028197Y-454542547D01*
X72190192Y-454574770D01*
X72190192Y-454574770D01*
G37*
G36*
X75914113Y-453249096D02*
G01*
X76066710Y-453312303D01*
X76204044Y-453404067D01*
X76320838Y-453520861D01*
X76412602Y-453658195D01*
X76475809Y-453810792D01*
X76508032Y-453972787D01*
X76508032Y-454137959D01*
X76475809Y-454299954D01*
X76412602Y-454452551D01*
X76320838Y-454589885D01*
X76204044Y-454706679D01*
X76066710Y-454798443D01*
X75914113Y-454861650D01*
X75752118Y-454893873D01*
X75586946Y-454893873D01*
X75424951Y-454861650D01*
X75272354Y-454798443D01*
X75135020Y-454706679D01*
X75018226Y-454589885D01*
X74926462Y-454452551D01*
X74863255Y-454299954D01*
X74831032Y-454137959D01*
X74831032Y-453972787D01*
X74863255Y-453810792D01*
X74926462Y-453658195D01*
X75018226Y-453520861D01*
X75135020Y-453404067D01*
X75272354Y-453312303D01*
X75424951Y-453249096D01*
X75586946Y-453216873D01*
X75752118Y-453216873D01*
X75914113Y-453249096D01*
X75914113Y-453249096D01*
G37*
G36*
X56643232Y-452838471D02*
G01*
X56709416Y-452844989D01*
X56879255Y-452896509D01*
X57035780Y-452980174D01*
X57071518Y-453009504D01*
X57172975Y-453092766D01*
X57256237Y-453194223D01*
X57285567Y-453229961D01*
X57369232Y-453386486D01*
X57420752Y-453556325D01*
X57438148Y-453732952D01*
X57420752Y-453909579D01*
X57369232Y-454079418D01*
X57285567Y-454235943D01*
X57256237Y-454271681D01*
X57172975Y-454373138D01*
X57076207Y-454452552D01*
X57035780Y-454485730D01*
X56879255Y-454569395D01*
X56709416Y-454620915D01*
X56643232Y-454627433D01*
X56577049Y-454633952D01*
X56488529Y-454633952D01*
X56422346Y-454627433D01*
X56356162Y-454620915D01*
X56186323Y-454569395D01*
X56029798Y-454485730D01*
X55989371Y-454452552D01*
X55892603Y-454373138D01*
X55809341Y-454271681D01*
X55780011Y-454235943D01*
X55696346Y-454079418D01*
X55644826Y-453909579D01*
X55627430Y-453732952D01*
X55644826Y-453556325D01*
X55696346Y-453386486D01*
X55780011Y-453229961D01*
X55809341Y-453194223D01*
X55892603Y-453092766D01*
X55994060Y-453009504D01*
X56029798Y-452980174D01*
X56186323Y-452896509D01*
X56356162Y-452844989D01*
X56422346Y-452838471D01*
X56488529Y-452831952D01*
X56577049Y-452831952D01*
X56643232Y-452838471D01*
X56643232Y-452838471D01*
G37*
G36*
X64529263Y-450096636D02*
G01*
X64747263Y-450186935D01*
X64901412Y-450250785D01*
X65236337Y-450474575D01*
X65521166Y-450759404D01*
X65744956Y-451094329D01*
X65806264Y-451242341D01*
X65899105Y-451466478D01*
X65977689Y-451861546D01*
X65977689Y-452264358D01*
X65899105Y-452659426D01*
X65848240Y-452782224D01*
X65744956Y-453031575D01*
X65521166Y-453366500D01*
X65236337Y-453651329D01*
X64901412Y-453875119D01*
X64747263Y-453938969D01*
X64529263Y-454029268D01*
X64134195Y-454107852D01*
X63731383Y-454107852D01*
X63336315Y-454029268D01*
X63118315Y-453938969D01*
X62964166Y-453875119D01*
X62629241Y-453651329D01*
X62344412Y-453366500D01*
X62120622Y-453031575D01*
X62017338Y-452782224D01*
X61966473Y-452659426D01*
X61887889Y-452264358D01*
X61887889Y-451861546D01*
X61966473Y-451466478D01*
X62059314Y-451242341D01*
X62120622Y-451094329D01*
X62344412Y-450759404D01*
X62629241Y-450474575D01*
X62964166Y-450250785D01*
X63118315Y-450186935D01*
X63336315Y-450096636D01*
X63731383Y-450018052D01*
X64134195Y-450018052D01*
X64529263Y-450096636D01*
X64529263Y-450096636D01*
G37*
G36*
X59122893Y-451172537D02*
G01*
X59291415Y-451242341D01*
X59443080Y-451343680D01*
X59572061Y-451472661D01*
X59673400Y-451624326D01*
X59743204Y-451792848D01*
X59778789Y-451971749D01*
X59778789Y-452154155D01*
X59743204Y-452333056D01*
X59673400Y-452501578D01*
X59572061Y-452653243D01*
X59443080Y-452782224D01*
X59291415Y-452883563D01*
X59122893Y-452953367D01*
X58943992Y-452988952D01*
X58761586Y-452988952D01*
X58582685Y-452953367D01*
X58414163Y-452883563D01*
X58262498Y-452782224D01*
X58133517Y-452653243D01*
X58032178Y-452501578D01*
X57962374Y-452333056D01*
X57926789Y-452154155D01*
X57926789Y-451971749D01*
X57962374Y-451792848D01*
X58032178Y-451624326D01*
X58133517Y-451472661D01*
X58262498Y-451343680D01*
X58414163Y-451242341D01*
X58582685Y-451172537D01*
X58761586Y-451136952D01*
X58943992Y-451136952D01*
X59122893Y-451172537D01*
X59122893Y-451172537D01*
G37*
G36*
X69282893Y-451172537D02*
G01*
X69451415Y-451242341D01*
X69603080Y-451343680D01*
X69732061Y-451472661D01*
X69833400Y-451624326D01*
X69903204Y-451792848D01*
X69938789Y-451971749D01*
X69938789Y-452154155D01*
X69903204Y-452333056D01*
X69833400Y-452501578D01*
X69732061Y-452653243D01*
X69603080Y-452782224D01*
X69451415Y-452883563D01*
X69282893Y-452953367D01*
X69103992Y-452988952D01*
X68921586Y-452988952D01*
X68742685Y-452953367D01*
X68574163Y-452883563D01*
X68422498Y-452782224D01*
X68293517Y-452653243D01*
X68192178Y-452501578D01*
X68122374Y-452333056D01*
X68086789Y-452154155D01*
X68086789Y-451971749D01*
X68122374Y-451792848D01*
X68192178Y-451624326D01*
X68293517Y-451472661D01*
X68422498Y-451343680D01*
X68574163Y-451242341D01*
X68742685Y-451172537D01*
X68921586Y-451136952D01*
X69103992Y-451136952D01*
X69282893Y-451172537D01*
X69282893Y-451172537D01*
G37*
G36*
X57433789Y-452093952D02*
G01*
X55631789Y-452093952D01*
X55631789Y-450291952D01*
X57433789Y-450291952D01*
X57433789Y-452093952D01*
X57433789Y-452093952D01*
G37*
G36*
X125638870Y-450286840D02*
G01*
X125705055Y-450293359D01*
X125874894Y-450344879D01*
X126031419Y-450428544D01*
X126067157Y-450457874D01*
X126168614Y-450541136D01*
X126251876Y-450642593D01*
X126281206Y-450678331D01*
X126364871Y-450834856D01*
X126416391Y-451004695D01*
X126433787Y-451181322D01*
X126416391Y-451357949D01*
X126364871Y-451527788D01*
X126281206Y-451684313D01*
X126251876Y-451720051D01*
X126168614Y-451821508D01*
X126067157Y-451904770D01*
X126031419Y-451934100D01*
X125874894Y-452017765D01*
X125705055Y-452069285D01*
X125638871Y-452075803D01*
X125572688Y-452082322D01*
X125484168Y-452082322D01*
X125417985Y-452075803D01*
X125351801Y-452069285D01*
X125181962Y-452017765D01*
X125025437Y-451934100D01*
X124989699Y-451904770D01*
X124888242Y-451821508D01*
X124804980Y-451720051D01*
X124775650Y-451684313D01*
X124691985Y-451527788D01*
X124640465Y-451357949D01*
X124623069Y-451181322D01*
X124640465Y-451004695D01*
X124691985Y-450834856D01*
X124775650Y-450678331D01*
X124804980Y-450642593D01*
X124888242Y-450541136D01*
X124989699Y-450457874D01*
X125025437Y-450428544D01*
X125181962Y-450344879D01*
X125351801Y-450293359D01*
X125417986Y-450286840D01*
X125484168Y-450280322D01*
X125572688Y-450280322D01*
X125638870Y-450286840D01*
X125638870Y-450286840D01*
G37*
G36*
X121349428Y-452082322D02*
G01*
X119547428Y-452082322D01*
X119547428Y-450280322D01*
X121349428Y-450280322D01*
X121349428Y-452082322D01*
X121349428Y-452082322D01*
G37*
G36*
X128178870Y-450286840D02*
G01*
X128245055Y-450293359D01*
X128414894Y-450344879D01*
X128571419Y-450428544D01*
X128607157Y-450457874D01*
X128708614Y-450541136D01*
X128791876Y-450642593D01*
X128821206Y-450678331D01*
X128904871Y-450834856D01*
X128956391Y-451004695D01*
X128973787Y-451181322D01*
X128956391Y-451357949D01*
X128904871Y-451527788D01*
X128821206Y-451684313D01*
X128791876Y-451720051D01*
X128708614Y-451821508D01*
X128607157Y-451904770D01*
X128571419Y-451934100D01*
X128414894Y-452017765D01*
X128245055Y-452069285D01*
X128178871Y-452075803D01*
X128112688Y-452082322D01*
X128024168Y-452082322D01*
X127957985Y-452075803D01*
X127891801Y-452069285D01*
X127721962Y-452017765D01*
X127565437Y-451934100D01*
X127529699Y-451904770D01*
X127428242Y-451821508D01*
X127344980Y-451720051D01*
X127315650Y-451684313D01*
X127231985Y-451527788D01*
X127180465Y-451357949D01*
X127163069Y-451181322D01*
X127180465Y-451004695D01*
X127231985Y-450834856D01*
X127315650Y-450678331D01*
X127344980Y-450642593D01*
X127428242Y-450541136D01*
X127529699Y-450457874D01*
X127565437Y-450428544D01*
X127721962Y-450344879D01*
X127891801Y-450293359D01*
X127957986Y-450286840D01*
X128024168Y-450280322D01*
X128112688Y-450280322D01*
X128178870Y-450286840D01*
X128178870Y-450286840D01*
G37*
G36*
X123098870Y-450286840D02*
G01*
X123165055Y-450293359D01*
X123334894Y-450344879D01*
X123491419Y-450428544D01*
X123527157Y-450457874D01*
X123628614Y-450541136D01*
X123711876Y-450642593D01*
X123741206Y-450678331D01*
X123824871Y-450834856D01*
X123876391Y-451004695D01*
X123893787Y-451181322D01*
X123876391Y-451357949D01*
X123824871Y-451527788D01*
X123741206Y-451684313D01*
X123711876Y-451720051D01*
X123628614Y-451821508D01*
X123527157Y-451904770D01*
X123491419Y-451934100D01*
X123334894Y-452017765D01*
X123165055Y-452069285D01*
X123098871Y-452075803D01*
X123032688Y-452082322D01*
X122944168Y-452082322D01*
X122877985Y-452075803D01*
X122811801Y-452069285D01*
X122641962Y-452017765D01*
X122485437Y-451934100D01*
X122449699Y-451904770D01*
X122348242Y-451821508D01*
X122264980Y-451720051D01*
X122235650Y-451684313D01*
X122151985Y-451527788D01*
X122100465Y-451357949D01*
X122083069Y-451181322D01*
X122100465Y-451004695D01*
X122151985Y-450834856D01*
X122235650Y-450678331D01*
X122264980Y-450642593D01*
X122348242Y-450541136D01*
X122449699Y-450457874D01*
X122485437Y-450428544D01*
X122641962Y-450344879D01*
X122811801Y-450293359D01*
X122877986Y-450286840D01*
X122944168Y-450280322D01*
X123032688Y-450280322D01*
X123098870Y-450286840D01*
X123098870Y-450286840D01*
G37*
G36*
X60361019Y-447988953D02*
G01*
X60575199Y-448031556D01*
X60857463Y-448148473D01*
X61111494Y-448318211D01*
X61327530Y-448534247D01*
X61497268Y-448788278D01*
X61614185Y-449070542D01*
X61673789Y-449370192D01*
X61673789Y-449675712D01*
X61614185Y-449975362D01*
X61497268Y-450257626D01*
X61327530Y-450511657D01*
X61111494Y-450727693D01*
X60857463Y-450897431D01*
X60575199Y-451014348D01*
X60425374Y-451044150D01*
X60275550Y-451073952D01*
X59970028Y-451073952D01*
X59820204Y-451044150D01*
X59670379Y-451014348D01*
X59388115Y-450897431D01*
X59134084Y-450727693D01*
X58918048Y-450511657D01*
X58748310Y-450257626D01*
X58631393Y-449975362D01*
X58571789Y-449675712D01*
X58571789Y-449370192D01*
X58631393Y-449070542D01*
X58748310Y-448788278D01*
X58918048Y-448534247D01*
X59134084Y-448318211D01*
X59388115Y-448148473D01*
X59670379Y-448031556D01*
X59884559Y-447988953D01*
X59970028Y-447971952D01*
X60275550Y-447971952D01*
X60361019Y-447988953D01*
X60361019Y-447988953D01*
G37*
G36*
X83579263Y-445096637D02*
G01*
X83797263Y-445186936D01*
X83951412Y-445250786D01*
X84286337Y-445474576D01*
X84571166Y-445759405D01*
X84794956Y-446094330D01*
X84827351Y-446172539D01*
X84949105Y-446466479D01*
X85027689Y-446861547D01*
X85027689Y-447264359D01*
X84949105Y-447659427D01*
X84898240Y-447782225D01*
X84794956Y-448031576D01*
X84571166Y-448366501D01*
X84286337Y-448651330D01*
X83951412Y-448875120D01*
X83797263Y-448938970D01*
X83579263Y-449029269D01*
X83184195Y-449107853D01*
X82781383Y-449107853D01*
X82386315Y-449029269D01*
X82168315Y-448938970D01*
X82014166Y-448875120D01*
X81679241Y-448651330D01*
X81394412Y-448366501D01*
X81170622Y-448031576D01*
X81067338Y-447782225D01*
X81016473Y-447659427D01*
X80937889Y-447264359D01*
X80937889Y-446861547D01*
X81016473Y-446466479D01*
X81138227Y-446172539D01*
X81170622Y-446094330D01*
X81394412Y-445759405D01*
X81679241Y-445474576D01*
X82014166Y-445250786D01*
X82168315Y-445186936D01*
X82386315Y-445096637D01*
X82781383Y-445018053D01*
X83184195Y-445018053D01*
X83579263Y-445096637D01*
X83579263Y-445096637D01*
G37*
G36*
X66775374Y-445461754D02*
G01*
X66925199Y-445491556D01*
X67207463Y-445608473D01*
X67461494Y-445778211D01*
X67677530Y-445994247D01*
X67847268Y-446248278D01*
X67964185Y-446530542D01*
X68023789Y-446830192D01*
X68023789Y-447135712D01*
X67964185Y-447435362D01*
X67847268Y-447717626D01*
X67677530Y-447971657D01*
X67461494Y-448187693D01*
X67207463Y-448357431D01*
X66925199Y-448474348D01*
X66775374Y-448504150D01*
X66625550Y-448533952D01*
X66320028Y-448533952D01*
X66170204Y-448504150D01*
X66020379Y-448474348D01*
X65738115Y-448357431D01*
X65484084Y-448187693D01*
X65268048Y-447971657D01*
X65098310Y-447717626D01*
X64981393Y-447435362D01*
X64921789Y-447135712D01*
X64921789Y-446830192D01*
X64981393Y-446530542D01*
X65098310Y-446248278D01*
X65268048Y-445994247D01*
X65484084Y-445778211D01*
X65738115Y-445608473D01*
X66020379Y-445491556D01*
X66170204Y-445461754D01*
X66320028Y-445431952D01*
X66625550Y-445431952D01*
X66775374Y-445461754D01*
X66775374Y-445461754D01*
G37*
G36*
X88332893Y-446172538D02*
G01*
X88501415Y-446242342D01*
X88653080Y-446343681D01*
X88782061Y-446472662D01*
X88883400Y-446624327D01*
X88953204Y-446792849D01*
X88988789Y-446971750D01*
X88988789Y-447154156D01*
X88953204Y-447333057D01*
X88883400Y-447501579D01*
X88782061Y-447653244D01*
X88653080Y-447782225D01*
X88501415Y-447883564D01*
X88332893Y-447953368D01*
X88153992Y-447988953D01*
X87971586Y-447988953D01*
X87792685Y-447953368D01*
X87624163Y-447883564D01*
X87472498Y-447782225D01*
X87343517Y-447653244D01*
X87242178Y-447501579D01*
X87172374Y-447333057D01*
X87136789Y-447154156D01*
X87136789Y-446971750D01*
X87172374Y-446792849D01*
X87242178Y-446624327D01*
X87343517Y-446472662D01*
X87472498Y-446343681D01*
X87624163Y-446242342D01*
X87792685Y-446172538D01*
X87971586Y-446136953D01*
X88153992Y-446136953D01*
X88332893Y-446172538D01*
X88332893Y-446172538D01*
G37*
G36*
X78172893Y-446172538D02*
G01*
X78341415Y-446242342D01*
X78493080Y-446343681D01*
X78622061Y-446472662D01*
X78723400Y-446624327D01*
X78793204Y-446792849D01*
X78828789Y-446971750D01*
X78828789Y-447154156D01*
X78793204Y-447333057D01*
X78723400Y-447501579D01*
X78622061Y-447653244D01*
X78493080Y-447782225D01*
X78341415Y-447883564D01*
X78172893Y-447953368D01*
X77993992Y-447988953D01*
X77811586Y-447988953D01*
X77632685Y-447953368D01*
X77464163Y-447883564D01*
X77312498Y-447782225D01*
X77183517Y-447653244D01*
X77082178Y-447501579D01*
X77012374Y-447333057D01*
X76976789Y-447154156D01*
X76976789Y-446971750D01*
X77012374Y-446792849D01*
X77082178Y-446624327D01*
X77183517Y-446472662D01*
X77312498Y-446343681D01*
X77464163Y-446242342D01*
X77632685Y-446172538D01*
X77811586Y-446136953D01*
X77993992Y-446136953D01*
X78172893Y-446172538D01*
X78172893Y-446172538D01*
G37*
G36*
X79475374Y-443001755D02*
G01*
X79625199Y-443031557D01*
X79907463Y-443148474D01*
X80161494Y-443318212D01*
X80377530Y-443534248D01*
X80547268Y-443788279D01*
X80664185Y-444070543D01*
X80723789Y-444370193D01*
X80723789Y-444675713D01*
X80664185Y-444975363D01*
X80547268Y-445257627D01*
X80377530Y-445511658D01*
X80161494Y-445727694D01*
X79907463Y-445897432D01*
X79625199Y-446014349D01*
X79475374Y-446044151D01*
X79325550Y-446073953D01*
X79020028Y-446073953D01*
X78870204Y-446044151D01*
X78720379Y-446014349D01*
X78438115Y-445897432D01*
X78184084Y-445727694D01*
X77968048Y-445511658D01*
X77798310Y-445257627D01*
X77681393Y-444975363D01*
X77621789Y-444675713D01*
X77621789Y-444370193D01*
X77681393Y-444070543D01*
X77798310Y-443788279D01*
X77968048Y-443534248D01*
X78184084Y-443318212D01*
X78438115Y-443148474D01*
X78720379Y-443031557D01*
X78870204Y-443001755D01*
X79020028Y-442971953D01*
X79325550Y-442971953D01*
X79475374Y-443001755D01*
X79475374Y-443001755D01*
G37*
G36*
X99795375Y-442121754D02*
G01*
X99945200Y-442151556D01*
X100227464Y-442268473D01*
X100481495Y-442438211D01*
X100697531Y-442654247D01*
X100867269Y-442908278D01*
X100984186Y-443190542D01*
X101043790Y-443490192D01*
X101043790Y-443795712D01*
X100984186Y-444095362D01*
X100867269Y-444377626D01*
X100697531Y-444631657D01*
X100481495Y-444847693D01*
X100227464Y-445017431D01*
X99945200Y-445134348D01*
X99795375Y-445164150D01*
X99645551Y-445193952D01*
X99340029Y-445193952D01*
X99190205Y-445164150D01*
X99040380Y-445134348D01*
X98758116Y-445017431D01*
X98504085Y-444847693D01*
X98288049Y-444631657D01*
X98118311Y-444377626D01*
X98001394Y-444095362D01*
X97941790Y-443795712D01*
X97941790Y-443490192D01*
X98001394Y-443190542D01*
X98118311Y-442908278D01*
X98288049Y-442654247D01*
X98504085Y-442438211D01*
X98758116Y-442268473D01*
X99040380Y-442151556D01*
X99190205Y-442121754D01*
X99340029Y-442091952D01*
X99645551Y-442091952D01*
X99795375Y-442121754D01*
X99795375Y-442121754D01*
G37*
G36*
X85825374Y-440461755D02*
G01*
X85975199Y-440491557D01*
X86257463Y-440608474D01*
X86511494Y-440778212D01*
X86727530Y-440994248D01*
X86897268Y-441248279D01*
X87014185Y-441530543D01*
X87073789Y-441830193D01*
X87073789Y-442135713D01*
X87014185Y-442435363D01*
X86897268Y-442717627D01*
X86727530Y-442971658D01*
X86511494Y-443187694D01*
X86257463Y-443357432D01*
X85975199Y-443474349D01*
X85825374Y-443504151D01*
X85675550Y-443533953D01*
X85370028Y-443533953D01*
X85220204Y-443504151D01*
X85070379Y-443474349D01*
X84788115Y-443357432D01*
X84534084Y-443187694D01*
X84318048Y-442971658D01*
X84148310Y-442717627D01*
X84031393Y-442435363D01*
X83971789Y-442135713D01*
X83971789Y-441830193D01*
X84031393Y-441530543D01*
X84148310Y-441248279D01*
X84318048Y-440994248D01*
X84534084Y-440778212D01*
X84788115Y-440608474D01*
X85070379Y-440491557D01*
X85220204Y-440461755D01*
X85370028Y-440431953D01*
X85675550Y-440431953D01*
X85825374Y-440461755D01*
X85825374Y-440461755D01*
G37*
G36*
X106145375Y-439581754D02*
G01*
X106295200Y-439611556D01*
X106577464Y-439728473D01*
X106831495Y-439898211D01*
X107047531Y-440114247D01*
X107217269Y-440368278D01*
X107334186Y-440650542D01*
X107393790Y-440950192D01*
X107393790Y-441255712D01*
X107334186Y-441555362D01*
X107217269Y-441837626D01*
X107047531Y-442091657D01*
X106831495Y-442307693D01*
X106577464Y-442477431D01*
X106295200Y-442594348D01*
X106145375Y-442624150D01*
X105995551Y-442653952D01*
X105690029Y-442653952D01*
X105540205Y-442624150D01*
X105390380Y-442594348D01*
X105108116Y-442477431D01*
X104854085Y-442307693D01*
X104638049Y-442091657D01*
X104468311Y-441837626D01*
X104351394Y-441555362D01*
X104291790Y-441255712D01*
X104291790Y-440950192D01*
X104351394Y-440650542D01*
X104468311Y-440368278D01*
X104638049Y-440114247D01*
X104854085Y-439898211D01*
X105108116Y-439728473D01*
X105390380Y-439611556D01*
X105540205Y-439581754D01*
X105690029Y-439551952D01*
X105995551Y-439551952D01*
X106145375Y-439581754D01*
X106145375Y-439581754D01*
G37*
G36*
X118845374Y-439121754D02*
G01*
X118995199Y-439151556D01*
X119277463Y-439268473D01*
X119531494Y-439438211D01*
X119747530Y-439654247D01*
X119917268Y-439908278D01*
X120034185Y-440190542D01*
X120093789Y-440490192D01*
X120093789Y-440795712D01*
X120034185Y-441095362D01*
X119917268Y-441377626D01*
X119747530Y-441631657D01*
X119531494Y-441847693D01*
X119277463Y-442017431D01*
X118995199Y-442134348D01*
X118908688Y-442151556D01*
X118695550Y-442193952D01*
X118390028Y-442193952D01*
X118176890Y-442151556D01*
X118090379Y-442134348D01*
X117808115Y-442017431D01*
X117554084Y-441847693D01*
X117338048Y-441631657D01*
X117168310Y-441377626D01*
X117051393Y-441095362D01*
X116991789Y-440795712D01*
X116991789Y-440490192D01*
X117051393Y-440190542D01*
X117168310Y-439908278D01*
X117338048Y-439654247D01*
X117554084Y-439438211D01*
X117808115Y-439268473D01*
X118090379Y-439151556D01*
X118240204Y-439121754D01*
X118390028Y-439091952D01*
X118695550Y-439091952D01*
X118845374Y-439121754D01*
X118845374Y-439121754D01*
G37*
G36*
X102629264Y-436596636D02*
G01*
X102847264Y-436686935D01*
X103001413Y-436750785D01*
X103336338Y-436974575D01*
X103621167Y-437259404D01*
X103844957Y-437594329D01*
X103877352Y-437672538D01*
X103999106Y-437966478D01*
X104077690Y-438361546D01*
X104077690Y-438764358D01*
X103999106Y-439159426D01*
X103948241Y-439282224D01*
X103844957Y-439531575D01*
X103621167Y-439866500D01*
X103336338Y-440151329D01*
X103001413Y-440375119D01*
X102864203Y-440431953D01*
X102629264Y-440529268D01*
X102234196Y-440607852D01*
X101831384Y-440607852D01*
X101436316Y-440529268D01*
X101201377Y-440431953D01*
X101064167Y-440375119D01*
X100729242Y-440151329D01*
X100444413Y-439866500D01*
X100220623Y-439531575D01*
X100117339Y-439282224D01*
X100066474Y-439159426D01*
X99987890Y-438764358D01*
X99987890Y-438361546D01*
X100066474Y-437966478D01*
X100188228Y-437672538D01*
X100220623Y-437594329D01*
X100444413Y-437259404D01*
X100729242Y-436974575D01*
X101064167Y-436750785D01*
X101218316Y-436686935D01*
X101436316Y-436596636D01*
X101831384Y-436518052D01*
X102234196Y-436518052D01*
X102629264Y-436596636D01*
X102629264Y-436596636D01*
G37*
G36*
X125195374Y-436581754D02*
G01*
X125345199Y-436611556D01*
X125627463Y-436728473D01*
X125881494Y-436898211D01*
X126097530Y-437114247D01*
X126267268Y-437368278D01*
X126384185Y-437650542D01*
X126384185Y-437650543D01*
X126422603Y-437843680D01*
X126443789Y-437950192D01*
X126443789Y-438255712D01*
X126384185Y-438555362D01*
X126267268Y-438837626D01*
X126097530Y-439091657D01*
X125881494Y-439307693D01*
X125627463Y-439477431D01*
X125345199Y-439594348D01*
X125258688Y-439611556D01*
X125045550Y-439653952D01*
X124740028Y-439653952D01*
X124526890Y-439611556D01*
X124440379Y-439594348D01*
X124158115Y-439477431D01*
X123904084Y-439307693D01*
X123688048Y-439091657D01*
X123518310Y-438837626D01*
X123401393Y-438555362D01*
X123341789Y-438255712D01*
X123341789Y-437950192D01*
X123362976Y-437843680D01*
X123401393Y-437650543D01*
X123401393Y-437650542D01*
X123518310Y-437368278D01*
X123688048Y-437114247D01*
X123904084Y-436898211D01*
X124158115Y-436728473D01*
X124440379Y-436611556D01*
X124590204Y-436581754D01*
X124740028Y-436551952D01*
X125045550Y-436551952D01*
X125195374Y-436581754D01*
X125195374Y-436581754D01*
G37*
G36*
X107382894Y-437672537D02*
G01*
X107551416Y-437742341D01*
X107703081Y-437843680D01*
X107832062Y-437972661D01*
X107933401Y-438124326D01*
X108003205Y-438292848D01*
X108038790Y-438471749D01*
X108038790Y-438654155D01*
X108003205Y-438833056D01*
X107933401Y-439001578D01*
X107832062Y-439153243D01*
X107703081Y-439282224D01*
X107551416Y-439383563D01*
X107382894Y-439453367D01*
X107203993Y-439488952D01*
X107021587Y-439488952D01*
X106842686Y-439453367D01*
X106674164Y-439383563D01*
X106522499Y-439282224D01*
X106393518Y-439153243D01*
X106292179Y-439001578D01*
X106222375Y-438833056D01*
X106186790Y-438654155D01*
X106186790Y-438471749D01*
X106222375Y-438292848D01*
X106292179Y-438124326D01*
X106393518Y-437972661D01*
X106522499Y-437843680D01*
X106674164Y-437742341D01*
X106842686Y-437672537D01*
X107021587Y-437636952D01*
X107203993Y-437636952D01*
X107382894Y-437672537D01*
X107382894Y-437672537D01*
G37*
G36*
X97222894Y-437672537D02*
G01*
X97391416Y-437742341D01*
X97543081Y-437843680D01*
X97672062Y-437972661D01*
X97773401Y-438124326D01*
X97843205Y-438292848D01*
X97878790Y-438471749D01*
X97878790Y-438654155D01*
X97843205Y-438833056D01*
X97773401Y-439001578D01*
X97672062Y-439153243D01*
X97543081Y-439282224D01*
X97391416Y-439383563D01*
X97222894Y-439453367D01*
X97043993Y-439488952D01*
X96861587Y-439488952D01*
X96682686Y-439453367D01*
X96514164Y-439383563D01*
X96362499Y-439282224D01*
X96233518Y-439153243D01*
X96132179Y-439001578D01*
X96062375Y-438833056D01*
X96026790Y-438654155D01*
X96026790Y-438471749D01*
X96062375Y-438292848D01*
X96132179Y-438124326D01*
X96233518Y-437972661D01*
X96362499Y-437843680D01*
X96514164Y-437742341D01*
X96682686Y-437672537D01*
X96861587Y-437636952D01*
X97043993Y-437636952D01*
X97222894Y-437672537D01*
X97222894Y-437672537D01*
G37*
G36*
X121679263Y-433596636D02*
G01*
X121897263Y-433686935D01*
X122051412Y-433750785D01*
X122386337Y-433974575D01*
X122671166Y-434259404D01*
X122894956Y-434594329D01*
X122927351Y-434672538D01*
X123049105Y-434966478D01*
X123127689Y-435361546D01*
X123127689Y-435764358D01*
X123049105Y-436159426D01*
X122998240Y-436282224D01*
X122894956Y-436531575D01*
X122671166Y-436866500D01*
X122386337Y-437151329D01*
X122051412Y-437375119D01*
X121897263Y-437438969D01*
X121679263Y-437529268D01*
X121284195Y-437607852D01*
X120881383Y-437607852D01*
X120486315Y-437529268D01*
X120268315Y-437438969D01*
X120114166Y-437375119D01*
X119779241Y-437151329D01*
X119494412Y-436866500D01*
X119270622Y-436531575D01*
X119167338Y-436282224D01*
X119116473Y-436159426D01*
X119037889Y-435764358D01*
X119037889Y-435361546D01*
X119116473Y-434966478D01*
X119238227Y-434672538D01*
X119270622Y-434594329D01*
X119494412Y-434259404D01*
X119779241Y-433974575D01*
X120114166Y-433750785D01*
X120268315Y-433686935D01*
X120486315Y-433596636D01*
X120881383Y-433518052D01*
X121284195Y-433518052D01*
X121679263Y-433596636D01*
X121679263Y-433596636D01*
G37*
G36*
X116272893Y-434672537D02*
G01*
X116441415Y-434742341D01*
X116593080Y-434843680D01*
X116722061Y-434972661D01*
X116823400Y-435124326D01*
X116893204Y-435292848D01*
X116928789Y-435471749D01*
X116928789Y-435654155D01*
X116893204Y-435833056D01*
X116823400Y-436001578D01*
X116722061Y-436153243D01*
X116593080Y-436282224D01*
X116441415Y-436383563D01*
X116272893Y-436453367D01*
X116093992Y-436488952D01*
X115911586Y-436488952D01*
X115732685Y-436453367D01*
X115564163Y-436383563D01*
X115412498Y-436282224D01*
X115283517Y-436153243D01*
X115182178Y-436001578D01*
X115112374Y-435833056D01*
X115076789Y-435654155D01*
X115076789Y-435471749D01*
X115112374Y-435292848D01*
X115182178Y-435124326D01*
X115283517Y-434972661D01*
X115412498Y-434843680D01*
X115564163Y-434742341D01*
X115732685Y-434672537D01*
X115911586Y-434636952D01*
X116093992Y-434636952D01*
X116272893Y-434672537D01*
X116272893Y-434672537D01*
G37*
G36*
X126432893Y-434672537D02*
G01*
X126601415Y-434742341D01*
X126753080Y-434843680D01*
X126882061Y-434972661D01*
X126983400Y-435124326D01*
X127053204Y-435292848D01*
X127088789Y-435471749D01*
X127088789Y-435654155D01*
X127053204Y-435833056D01*
X126983400Y-436001578D01*
X126882061Y-436153243D01*
X126753080Y-436282224D01*
X126601415Y-436383563D01*
X126432893Y-436453367D01*
X126253992Y-436488952D01*
X126071586Y-436488952D01*
X125892685Y-436453367D01*
X125724163Y-436383563D01*
X125572498Y-436282224D01*
X125443517Y-436153243D01*
X125342178Y-436001578D01*
X125272374Y-435833056D01*
X125236789Y-435654155D01*
X125236789Y-435471749D01*
X125272374Y-435292848D01*
X125342178Y-435124326D01*
X125443517Y-434972661D01*
X125572498Y-434843680D01*
X125724163Y-434742341D01*
X125892685Y-434672537D01*
X126071586Y-434636952D01*
X126253992Y-434636952D01*
X126432893Y-434672537D01*
X126432893Y-434672537D01*
G37*
G36*
X129841599Y-430745893D02*
G01*
X128039599Y-430745893D01*
X128039599Y-428943893D01*
X129841599Y-428943893D01*
X129841599Y-430745893D01*
X129841599Y-430745893D01*
G37*
G36*
X98487417Y-428126491D02*
G01*
X98553601Y-428133009D01*
X98723440Y-428184529D01*
X98879965Y-428268194D01*
X98915703Y-428297524D01*
X99017160Y-428380786D01*
X99100422Y-428482243D01*
X99129752Y-428517981D01*
X99213417Y-428674506D01*
X99264937Y-428844345D01*
X99282333Y-429020972D01*
X99264937Y-429197599D01*
X99213417Y-429367438D01*
X99129752Y-429523963D01*
X99100422Y-429559701D01*
X99017160Y-429661158D01*
X98915703Y-429744420D01*
X98879965Y-429773750D01*
X98723440Y-429857415D01*
X98553601Y-429908935D01*
X98487417Y-429915453D01*
X98421234Y-429921972D01*
X98332714Y-429921972D01*
X98266531Y-429915453D01*
X98200347Y-429908935D01*
X98030508Y-429857415D01*
X97873983Y-429773750D01*
X97838245Y-429744420D01*
X97736788Y-429661158D01*
X97653526Y-429559701D01*
X97624196Y-429523963D01*
X97540531Y-429367438D01*
X97489011Y-429197599D01*
X97471615Y-429020972D01*
X97489011Y-428844345D01*
X97540531Y-428674506D01*
X97624196Y-428517981D01*
X97653526Y-428482243D01*
X97736788Y-428380786D01*
X97838245Y-428297524D01*
X97873983Y-428268194D01*
X98030508Y-428184529D01*
X98200347Y-428133009D01*
X98266531Y-428126491D01*
X98332714Y-428119972D01*
X98421234Y-428119972D01*
X98487417Y-428126491D01*
X98487417Y-428126491D01*
G37*
G36*
X101027417Y-428126491D02*
G01*
X101093601Y-428133009D01*
X101263440Y-428184529D01*
X101419965Y-428268194D01*
X101455703Y-428297524D01*
X101557160Y-428380786D01*
X101640422Y-428482243D01*
X101669752Y-428517981D01*
X101753417Y-428674506D01*
X101804937Y-428844345D01*
X101822333Y-429020972D01*
X101804937Y-429197599D01*
X101753417Y-429367438D01*
X101669752Y-429523963D01*
X101640422Y-429559701D01*
X101557160Y-429661158D01*
X101455703Y-429744420D01*
X101419965Y-429773750D01*
X101263440Y-429857415D01*
X101093601Y-429908935D01*
X101027417Y-429915453D01*
X100961234Y-429921972D01*
X100872714Y-429921972D01*
X100806531Y-429915453D01*
X100740347Y-429908935D01*
X100570508Y-429857415D01*
X100413983Y-429773750D01*
X100378245Y-429744420D01*
X100276788Y-429661158D01*
X100193526Y-429559701D01*
X100164196Y-429523963D01*
X100080531Y-429367438D01*
X100029011Y-429197599D01*
X100011615Y-429020972D01*
X100029011Y-428844345D01*
X100080531Y-428674506D01*
X100164196Y-428517981D01*
X100193526Y-428482243D01*
X100276788Y-428380786D01*
X100378245Y-428297524D01*
X100413983Y-428268194D01*
X100570508Y-428184529D01*
X100740347Y-428133009D01*
X100806531Y-428126491D01*
X100872714Y-428119972D01*
X100961234Y-428119972D01*
X101027417Y-428126491D01*
X101027417Y-428126491D01*
G37*
G36*
X103567417Y-428126491D02*
G01*
X103633601Y-428133009D01*
X103803440Y-428184529D01*
X103959965Y-428268194D01*
X103995703Y-428297524D01*
X104097160Y-428380786D01*
X104180422Y-428482243D01*
X104209752Y-428517981D01*
X104293417Y-428674506D01*
X104344937Y-428844345D01*
X104362333Y-429020972D01*
X104344937Y-429197599D01*
X104293417Y-429367438D01*
X104209752Y-429523963D01*
X104180422Y-429559701D01*
X104097160Y-429661158D01*
X103995703Y-429744420D01*
X103959965Y-429773750D01*
X103803440Y-429857415D01*
X103633601Y-429908935D01*
X103567417Y-429915453D01*
X103501234Y-429921972D01*
X103412714Y-429921972D01*
X103346531Y-429915453D01*
X103280347Y-429908935D01*
X103110508Y-429857415D01*
X102953983Y-429773750D01*
X102918245Y-429744420D01*
X102816788Y-429661158D01*
X102733526Y-429559701D01*
X102704196Y-429523963D01*
X102620531Y-429367438D01*
X102569011Y-429197599D01*
X102551615Y-429020972D01*
X102569011Y-428844345D01*
X102620531Y-428674506D01*
X102704196Y-428517981D01*
X102733526Y-428482243D01*
X102816788Y-428380786D01*
X102918245Y-428297524D01*
X102953983Y-428268194D01*
X103110508Y-428184529D01*
X103280347Y-428133009D01*
X103346531Y-428126491D01*
X103412714Y-428119972D01*
X103501234Y-428119972D01*
X103567417Y-428126491D01*
X103567417Y-428126491D01*
G37*
G36*
X106897974Y-429921972D02*
G01*
X105095974Y-429921972D01*
X105095974Y-428119972D01*
X106897974Y-428119972D01*
X106897974Y-429921972D01*
X106897974Y-429921972D01*
G37*
G36*
X129051041Y-426410411D02*
G01*
X129117226Y-426416930D01*
X129287065Y-426468450D01*
X129443590Y-426552115D01*
X129479328Y-426581445D01*
X129580785Y-426664707D01*
X129664047Y-426766164D01*
X129693377Y-426801902D01*
X129777042Y-426958427D01*
X129828562Y-427128266D01*
X129845958Y-427304893D01*
X129828562Y-427481520D01*
X129777042Y-427651359D01*
X129693377Y-427807884D01*
X129664047Y-427843622D01*
X129580785Y-427945079D01*
X129479328Y-428028341D01*
X129443590Y-428057671D01*
X129287065Y-428141336D01*
X129117226Y-428192856D01*
X129051041Y-428199375D01*
X128984859Y-428205893D01*
X128896339Y-428205893D01*
X128830157Y-428199375D01*
X128763972Y-428192856D01*
X128594133Y-428141336D01*
X128437608Y-428057671D01*
X128401870Y-428028341D01*
X128300413Y-427945079D01*
X128217151Y-427843622D01*
X128187821Y-427807884D01*
X128104156Y-427651359D01*
X128052636Y-427481520D01*
X128035240Y-427304893D01*
X128052636Y-427128266D01*
X128104156Y-426958427D01*
X128187821Y-426801902D01*
X128217151Y-426766164D01*
X128300413Y-426664707D01*
X128401870Y-426581445D01*
X128437608Y-426552115D01*
X128594133Y-426468450D01*
X128763972Y-426416930D01*
X128830157Y-426410411D01*
X128896339Y-426403893D01*
X128984859Y-426403893D01*
X129051041Y-426410411D01*
X129051041Y-426410411D01*
G37*
G36*
X99742994Y-423061335D02*
G01*
X99945199Y-423101556D01*
X100227463Y-423218473D01*
X100481494Y-423388211D01*
X100697530Y-423604247D01*
X100867268Y-423858278D01*
X100984185Y-424140542D01*
X101043789Y-424440192D01*
X101043789Y-424745712D01*
X100984185Y-425045362D01*
X100867268Y-425327626D01*
X100697530Y-425581657D01*
X100481494Y-425797693D01*
X100227463Y-425967431D01*
X99945199Y-426084348D01*
X99795374Y-426114150D01*
X99645550Y-426143952D01*
X99340028Y-426143952D01*
X99190204Y-426114150D01*
X99040379Y-426084348D01*
X98758115Y-425967431D01*
X98504084Y-425797693D01*
X98288048Y-425581657D01*
X98118310Y-425327626D01*
X98001393Y-425045362D01*
X97941789Y-424745712D01*
X97941789Y-424440192D01*
X98001393Y-424140542D01*
X98118310Y-423858278D01*
X98288048Y-423604247D01*
X98504084Y-423388211D01*
X98758115Y-423218473D01*
X99040379Y-423101556D01*
X99242584Y-423061335D01*
X99340028Y-423041952D01*
X99645550Y-423041952D01*
X99742994Y-423061335D01*
X99742994Y-423061335D01*
G37*
G36*
X129051042Y-423870412D02*
G01*
X129117226Y-423876930D01*
X129287065Y-423928450D01*
X129443590Y-424012115D01*
X129479328Y-424041445D01*
X129580785Y-424124707D01*
X129664047Y-424226164D01*
X129693377Y-424261902D01*
X129777042Y-424418427D01*
X129828562Y-424588266D01*
X129845958Y-424764893D01*
X129828562Y-424941520D01*
X129777042Y-425111359D01*
X129693377Y-425267884D01*
X129664047Y-425303622D01*
X129580785Y-425405079D01*
X129479328Y-425488341D01*
X129443590Y-425517671D01*
X129287065Y-425601336D01*
X129117226Y-425652856D01*
X129051042Y-425659374D01*
X128984859Y-425665893D01*
X128896339Y-425665893D01*
X128830156Y-425659374D01*
X128763972Y-425652856D01*
X128594133Y-425601336D01*
X128437608Y-425517671D01*
X128401870Y-425488341D01*
X128300413Y-425405079D01*
X128217151Y-425303622D01*
X128187821Y-425267884D01*
X128104156Y-425111359D01*
X128052636Y-424941520D01*
X128035240Y-424764893D01*
X128052636Y-424588266D01*
X128104156Y-424418427D01*
X128187821Y-424261902D01*
X128217151Y-424226164D01*
X128300413Y-424124707D01*
X128401870Y-424041445D01*
X128437608Y-424012115D01*
X128594133Y-423928450D01*
X128763972Y-423876930D01*
X128830156Y-423870412D01*
X128896339Y-423863893D01*
X128984859Y-423863893D01*
X129051042Y-423870412D01*
X129051042Y-423870412D01*
G37*
G36*
X106145374Y-420531754D02*
G01*
X106295199Y-420561556D01*
X106577463Y-420678473D01*
X106831494Y-420848211D01*
X107047530Y-421064247D01*
X107217268Y-421318278D01*
X107334185Y-421600542D01*
X107393789Y-421900192D01*
X107393789Y-422205712D01*
X107334185Y-422505362D01*
X107217268Y-422787626D01*
X107047530Y-423041657D01*
X106831494Y-423257693D01*
X106577463Y-423427431D01*
X106295199Y-423544348D01*
X106145374Y-423574150D01*
X105995550Y-423603952D01*
X105690028Y-423603952D01*
X105540204Y-423574150D01*
X105390379Y-423544348D01*
X105108115Y-423427431D01*
X104854084Y-423257693D01*
X104638048Y-423041657D01*
X104468310Y-422787626D01*
X104351393Y-422505362D01*
X104291789Y-422205712D01*
X104291789Y-421900192D01*
X104351393Y-421600542D01*
X104468310Y-421318278D01*
X104638048Y-421064247D01*
X104854084Y-420848211D01*
X105108115Y-420678473D01*
X105390379Y-420561556D01*
X105540204Y-420531754D01*
X105690028Y-420501952D01*
X105995550Y-420501952D01*
X106145374Y-420531754D01*
X106145374Y-420531754D01*
G37*
G36*
X129051042Y-421330412D02*
G01*
X129117226Y-421336930D01*
X129287065Y-421388450D01*
X129443590Y-421472115D01*
X129479328Y-421501445D01*
X129580785Y-421584707D01*
X129664047Y-421686164D01*
X129693377Y-421721902D01*
X129777042Y-421878427D01*
X129828562Y-422048266D01*
X129845958Y-422224893D01*
X129828562Y-422401520D01*
X129777042Y-422571359D01*
X129693377Y-422727884D01*
X129664047Y-422763622D01*
X129580785Y-422865079D01*
X129479328Y-422948341D01*
X129443590Y-422977671D01*
X129287065Y-423061336D01*
X129117226Y-423112856D01*
X129051042Y-423119374D01*
X128984859Y-423125893D01*
X128896339Y-423125893D01*
X128830156Y-423119374D01*
X128763972Y-423112856D01*
X128594133Y-423061336D01*
X128437608Y-422977671D01*
X128401870Y-422948341D01*
X128300413Y-422865079D01*
X128217151Y-422763622D01*
X128187821Y-422727884D01*
X128104156Y-422571359D01*
X128052636Y-422401520D01*
X128035240Y-422224893D01*
X128052636Y-422048266D01*
X128104156Y-421878427D01*
X128187821Y-421721902D01*
X128217151Y-421686164D01*
X128300413Y-421584707D01*
X128401870Y-421501445D01*
X128437608Y-421472115D01*
X128594133Y-421388450D01*
X128763972Y-421336930D01*
X128830156Y-421330412D01*
X128896339Y-421323893D01*
X128984859Y-421323893D01*
X129051042Y-421330412D01*
X129051042Y-421330412D01*
G37*
G36*
X102629263Y-417546636D02*
G01*
X102847263Y-417636935D01*
X103001412Y-417700785D01*
X103336337Y-417924575D01*
X103621166Y-418209404D01*
X103844956Y-418544329D01*
X103877351Y-418622538D01*
X103999105Y-418916478D01*
X104077689Y-419311546D01*
X104077689Y-419714358D01*
X103999105Y-420109426D01*
X103948240Y-420232224D01*
X103844956Y-420481575D01*
X103621166Y-420816500D01*
X103336337Y-421101329D01*
X103001412Y-421325119D01*
X102848517Y-421388450D01*
X102629263Y-421479268D01*
X102234195Y-421557852D01*
X101831383Y-421557852D01*
X101436315Y-421479268D01*
X101217061Y-421388450D01*
X101064166Y-421325119D01*
X100729241Y-421101329D01*
X100444412Y-420816500D01*
X100220622Y-420481575D01*
X100117338Y-420232224D01*
X100066473Y-420109426D01*
X99987889Y-419714358D01*
X99987889Y-419311546D01*
X100066473Y-418916478D01*
X100188227Y-418622538D01*
X100220622Y-418544329D01*
X100444412Y-418209404D01*
X100729241Y-417924575D01*
X101064166Y-417700785D01*
X101218315Y-417636935D01*
X101436315Y-417546636D01*
X101831383Y-417468052D01*
X102234195Y-417468052D01*
X102629263Y-417546636D01*
X102629263Y-417546636D01*
G37*
G36*
X97222893Y-418622537D02*
G01*
X97391415Y-418692341D01*
X97543080Y-418793680D01*
X97672061Y-418922661D01*
X97773400Y-419074326D01*
X97843204Y-419242848D01*
X97878789Y-419421749D01*
X97878789Y-419604155D01*
X97843204Y-419783056D01*
X97773400Y-419951578D01*
X97672061Y-420103243D01*
X97543080Y-420232224D01*
X97391415Y-420333563D01*
X97222893Y-420403367D01*
X97043992Y-420438952D01*
X96861586Y-420438952D01*
X96682685Y-420403367D01*
X96514163Y-420333563D01*
X96362498Y-420232224D01*
X96233517Y-420103243D01*
X96132178Y-419951578D01*
X96062374Y-419783056D01*
X96026789Y-419604155D01*
X96026789Y-419421749D01*
X96062374Y-419242848D01*
X96132178Y-419074326D01*
X96233517Y-418922661D01*
X96362498Y-418793680D01*
X96514163Y-418692341D01*
X96682685Y-418622537D01*
X96861586Y-418586952D01*
X97043992Y-418586952D01*
X97222893Y-418622537D01*
X97222893Y-418622537D01*
G37*
G36*
X107382893Y-418622537D02*
G01*
X107551415Y-418692341D01*
X107703080Y-418793680D01*
X107832061Y-418922661D01*
X107933400Y-419074326D01*
X108003204Y-419242848D01*
X108038789Y-419421749D01*
X108038789Y-419604155D01*
X108003204Y-419783056D01*
X107933400Y-419951578D01*
X107832061Y-420103243D01*
X107703080Y-420232224D01*
X107551415Y-420333563D01*
X107382893Y-420403367D01*
X107203992Y-420438952D01*
X107021586Y-420438952D01*
X106842685Y-420403367D01*
X106674163Y-420333563D01*
X106522498Y-420232224D01*
X106393517Y-420103243D01*
X106292178Y-419951578D01*
X106222374Y-419783056D01*
X106186789Y-419604155D01*
X106186789Y-419421749D01*
X106222374Y-419242848D01*
X106292178Y-419074326D01*
X106393517Y-418922661D01*
X106522498Y-418793680D01*
X106674163Y-418692341D01*
X106842685Y-418622537D01*
X107021586Y-418586952D01*
X107203992Y-418586952D01*
X107382893Y-418622537D01*
X107382893Y-418622537D01*
G37*
G36*
X121679263Y-414546636D02*
G01*
X121897263Y-414636935D01*
X122051412Y-414700785D01*
X122386337Y-414924575D01*
X122671166Y-415209404D01*
X122894956Y-415544329D01*
X122927351Y-415622538D01*
X123049105Y-415916478D01*
X123127689Y-416311546D01*
X123127689Y-416714358D01*
X123049105Y-417109426D01*
X122998240Y-417232224D01*
X122894956Y-417481575D01*
X122671166Y-417816500D01*
X122386337Y-418101329D01*
X122051412Y-418325119D01*
X121897263Y-418388969D01*
X121679263Y-418479268D01*
X121284195Y-418557852D01*
X120881383Y-418557852D01*
X120486315Y-418479268D01*
X120268315Y-418388969D01*
X120114166Y-418325119D01*
X119779241Y-418101329D01*
X119494412Y-417816500D01*
X119270622Y-417481575D01*
X119167338Y-417232224D01*
X119116473Y-417109426D01*
X119037889Y-416714358D01*
X119037889Y-416311546D01*
X119116473Y-415916478D01*
X119238227Y-415622538D01*
X119270622Y-415544329D01*
X119494412Y-415209404D01*
X119779241Y-414924575D01*
X120114166Y-414700785D01*
X120268315Y-414636935D01*
X120486315Y-414546636D01*
X120881383Y-414468052D01*
X121284195Y-414468052D01*
X121679263Y-414546636D01*
X121679263Y-414546636D01*
G37*
G36*
X126432893Y-415622537D02*
G01*
X126601415Y-415692341D01*
X126753080Y-415793680D01*
X126882061Y-415922661D01*
X126983400Y-416074326D01*
X127053204Y-416242848D01*
X127088789Y-416421749D01*
X127088789Y-416604155D01*
X127053204Y-416783056D01*
X126983400Y-416951578D01*
X126882061Y-417103243D01*
X126753080Y-417232224D01*
X126601415Y-417333563D01*
X126432893Y-417403367D01*
X126253992Y-417438952D01*
X126071586Y-417438952D01*
X125892685Y-417403367D01*
X125724163Y-417333563D01*
X125572498Y-417232224D01*
X125443517Y-417103243D01*
X125342178Y-416951578D01*
X125272374Y-416783056D01*
X125236789Y-416604155D01*
X125236789Y-416421749D01*
X125272374Y-416242848D01*
X125342178Y-416074326D01*
X125443517Y-415922661D01*
X125572498Y-415793680D01*
X125724163Y-415692341D01*
X125892685Y-415622537D01*
X126071586Y-415586952D01*
X126253992Y-415586952D01*
X126432893Y-415622537D01*
X126432893Y-415622537D01*
G37*
G36*
X116272893Y-415622537D02*
G01*
X116441415Y-415692341D01*
X116593080Y-415793680D01*
X116722061Y-415922661D01*
X116823400Y-416074326D01*
X116893204Y-416242848D01*
X116928789Y-416421749D01*
X116928789Y-416604155D01*
X116893204Y-416783056D01*
X116823400Y-416951578D01*
X116722061Y-417103243D01*
X116593080Y-417232224D01*
X116441415Y-417333563D01*
X116272893Y-417403367D01*
X116093992Y-417438952D01*
X115911586Y-417438952D01*
X115732685Y-417403367D01*
X115564163Y-417333563D01*
X115412498Y-417232224D01*
X115283517Y-417103243D01*
X115182178Y-416951578D01*
X115112374Y-416783056D01*
X115076789Y-416604155D01*
X115076789Y-416421749D01*
X115112374Y-416242848D01*
X115182178Y-416074326D01*
X115283517Y-415922661D01*
X115412498Y-415793680D01*
X115564163Y-415692341D01*
X115732685Y-415622537D01*
X115911586Y-415586952D01*
X116093992Y-415586952D01*
X116272893Y-415622537D01*
X116272893Y-415622537D01*
G37*
G36*
X117575374Y-412451754D02*
G01*
X117725199Y-412481556D01*
X118007463Y-412598473D01*
X118261494Y-412768211D01*
X118477530Y-412984247D01*
X118647268Y-413238278D01*
X118764185Y-413520542D01*
X118823789Y-413820192D01*
X118823789Y-414125712D01*
X118764185Y-414425362D01*
X118647268Y-414707626D01*
X118477530Y-414961657D01*
X118261494Y-415177693D01*
X118007463Y-415347431D01*
X117725199Y-415464348D01*
X117575374Y-415494150D01*
X117425550Y-415523952D01*
X117120028Y-415523952D01*
X116970204Y-415494150D01*
X116820379Y-415464348D01*
X116538115Y-415347431D01*
X116284084Y-415177693D01*
X116068048Y-414961657D01*
X115898310Y-414707626D01*
X115781393Y-414425362D01*
X115721789Y-414125712D01*
X115721789Y-413820192D01*
X115781393Y-413520542D01*
X115898310Y-413238278D01*
X116068048Y-412984247D01*
X116284084Y-412768211D01*
X116538115Y-412598473D01*
X116820379Y-412481556D01*
X116970204Y-412451754D01*
X117120028Y-412421952D01*
X117425550Y-412421952D01*
X117575374Y-412451754D01*
X117575374Y-412451754D01*
G37*
G36*
X123925374Y-409911754D02*
G01*
X124075199Y-409941556D01*
X124357463Y-410058473D01*
X124611494Y-410228211D01*
X124827530Y-410444247D01*
X124997268Y-410698278D01*
X125114185Y-410980542D01*
X125173789Y-411280192D01*
X125173789Y-411585712D01*
X125114185Y-411885362D01*
X124997268Y-412167626D01*
X124827530Y-412421657D01*
X124611494Y-412637693D01*
X124357463Y-412807431D01*
X124075199Y-412924348D01*
X123925374Y-412954150D01*
X123775550Y-412983952D01*
X123470028Y-412983952D01*
X123320204Y-412954150D01*
X123170379Y-412924348D01*
X122888115Y-412807431D01*
X122634084Y-412637693D01*
X122418048Y-412421657D01*
X122248310Y-412167626D01*
X122131393Y-411885362D01*
X122071789Y-411585712D01*
X122071789Y-411280192D01*
X122131393Y-410980542D01*
X122248310Y-410698278D01*
X122418048Y-410444247D01*
X122634084Y-410228211D01*
X122888115Y-410058473D01*
X123170379Y-409941556D01*
X123320204Y-409911754D01*
X123470028Y-409881952D01*
X123775550Y-409881952D01*
X123925374Y-409911754D01*
X123925374Y-409911754D01*
G37*
G36*
X98644603Y-409040720D02*
G01*
X98710788Y-409047239D01*
X98880627Y-409098759D01*
X99037152Y-409182424D01*
X99072890Y-409211754D01*
X99174347Y-409295016D01*
X99257609Y-409396473D01*
X99286939Y-409432211D01*
X99370604Y-409588736D01*
X99422124Y-409758575D01*
X99439520Y-409935202D01*
X99422124Y-410111829D01*
X99370604Y-410281668D01*
X99286939Y-410438193D01*
X99257609Y-410473931D01*
X99174347Y-410575388D01*
X99072890Y-410658650D01*
X99037152Y-410687980D01*
X98880627Y-410771645D01*
X98710788Y-410823165D01*
X98644604Y-410829683D01*
X98578421Y-410836202D01*
X98489901Y-410836202D01*
X98423718Y-410829683D01*
X98357534Y-410823165D01*
X98187695Y-410771645D01*
X98031170Y-410687980D01*
X97995432Y-410658650D01*
X97893975Y-410575388D01*
X97810713Y-410473931D01*
X97781383Y-410438193D01*
X97697718Y-410281668D01*
X97646198Y-410111829D01*
X97628802Y-409935202D01*
X97646198Y-409758575D01*
X97697718Y-409588736D01*
X97781383Y-409432211D01*
X97810713Y-409396473D01*
X97893975Y-409295016D01*
X97995432Y-409211754D01*
X98031170Y-409182424D01*
X98187695Y-409098759D01*
X98357534Y-409047239D01*
X98423719Y-409040720D01*
X98489901Y-409034202D01*
X98578421Y-409034202D01*
X98644603Y-409040720D01*
X98644603Y-409040720D01*
G37*
G36*
X101184603Y-409040720D02*
G01*
X101250788Y-409047239D01*
X101420627Y-409098759D01*
X101577152Y-409182424D01*
X101612890Y-409211754D01*
X101714347Y-409295016D01*
X101797609Y-409396473D01*
X101826939Y-409432211D01*
X101910604Y-409588736D01*
X101962124Y-409758575D01*
X101979520Y-409935202D01*
X101962124Y-410111829D01*
X101910604Y-410281668D01*
X101826939Y-410438193D01*
X101797609Y-410473931D01*
X101714347Y-410575388D01*
X101612890Y-410658650D01*
X101577152Y-410687980D01*
X101420627Y-410771645D01*
X101250788Y-410823165D01*
X101184604Y-410829683D01*
X101118421Y-410836202D01*
X101029901Y-410836202D01*
X100963718Y-410829683D01*
X100897534Y-410823165D01*
X100727695Y-410771645D01*
X100571170Y-410687980D01*
X100535432Y-410658650D01*
X100433975Y-410575388D01*
X100350713Y-410473931D01*
X100321383Y-410438193D01*
X100237718Y-410281668D01*
X100186198Y-410111829D01*
X100168802Y-409935202D01*
X100186198Y-409758575D01*
X100237718Y-409588736D01*
X100321383Y-409432211D01*
X100350713Y-409396473D01*
X100433975Y-409295016D01*
X100535432Y-409211754D01*
X100571170Y-409182424D01*
X100727695Y-409098759D01*
X100897534Y-409047239D01*
X100963719Y-409040720D01*
X101029901Y-409034202D01*
X101118421Y-409034202D01*
X101184603Y-409040720D01*
X101184603Y-409040720D01*
G37*
G36*
X107055161Y-410836202D02*
G01*
X105253161Y-410836202D01*
X105253161Y-409034202D01*
X107055161Y-409034202D01*
X107055161Y-410836202D01*
X107055161Y-410836202D01*
G37*
G36*
X103724603Y-409040720D02*
G01*
X103790788Y-409047239D01*
X103960627Y-409098759D01*
X104117152Y-409182424D01*
X104152890Y-409211754D01*
X104254347Y-409295016D01*
X104337609Y-409396473D01*
X104366939Y-409432211D01*
X104450604Y-409588736D01*
X104502124Y-409758575D01*
X104519520Y-409935202D01*
X104502124Y-410111829D01*
X104450604Y-410281668D01*
X104366939Y-410438193D01*
X104337609Y-410473931D01*
X104254347Y-410575388D01*
X104152890Y-410658650D01*
X104117152Y-410687980D01*
X103960627Y-410771645D01*
X103790788Y-410823165D01*
X103724604Y-410829683D01*
X103658421Y-410836202D01*
X103569901Y-410836202D01*
X103503718Y-410829683D01*
X103437534Y-410823165D01*
X103267695Y-410771645D01*
X103111170Y-410687980D01*
X103075432Y-410658650D01*
X102973975Y-410575388D01*
X102890713Y-410473931D01*
X102861383Y-410438193D01*
X102777718Y-410281668D01*
X102726198Y-410111829D01*
X102708802Y-409935202D01*
X102726198Y-409758575D01*
X102777718Y-409588736D01*
X102861383Y-409432211D01*
X102890713Y-409396473D01*
X102973975Y-409295016D01*
X103075432Y-409211754D01*
X103111170Y-409182424D01*
X103267695Y-409098759D01*
X103437534Y-409047239D01*
X103503719Y-409040720D01*
X103569901Y-409034202D01*
X103658421Y-409034202D01*
X103724603Y-409040720D01*
X103724603Y-409040720D01*
G37*
G36*
X99795375Y-404021754D02*
G01*
X99945200Y-404051556D01*
X100227464Y-404168473D01*
X100481495Y-404338211D01*
X100697531Y-404554247D01*
X100867269Y-404808278D01*
X100984186Y-405090542D01*
X101043790Y-405390192D01*
X101043790Y-405695712D01*
X100984186Y-405995362D01*
X100867269Y-406277626D01*
X100697531Y-406531657D01*
X100481495Y-406747693D01*
X100227464Y-406917431D01*
X99945200Y-407034348D01*
X99795375Y-407064150D01*
X99645551Y-407093952D01*
X99340029Y-407093952D01*
X99190205Y-407064150D01*
X99040380Y-407034348D01*
X98758116Y-406917431D01*
X98504085Y-406747693D01*
X98288049Y-406531657D01*
X98118311Y-406277626D01*
X98001394Y-405995362D01*
X97941790Y-405695712D01*
X97941790Y-405390192D01*
X98001394Y-405090542D01*
X98118311Y-404808278D01*
X98288049Y-404554247D01*
X98504085Y-404338211D01*
X98758116Y-404168473D01*
X99040380Y-404051556D01*
X99190205Y-404021754D01*
X99340029Y-403991952D01*
X99645551Y-403991952D01*
X99795375Y-404021754D01*
X99795375Y-404021754D01*
G37*
G36*
X106145375Y-401481754D02*
G01*
X106295200Y-401511556D01*
X106577464Y-401628473D01*
X106831495Y-401798211D01*
X107047531Y-402014247D01*
X107217269Y-402268278D01*
X107334186Y-402550542D01*
X107393790Y-402850192D01*
X107393790Y-403155712D01*
X107334186Y-403455362D01*
X107217269Y-403737626D01*
X107047531Y-403991657D01*
X106831495Y-404207693D01*
X106577464Y-404377431D01*
X106295200Y-404494348D01*
X106145375Y-404524150D01*
X105995551Y-404553952D01*
X105690029Y-404553952D01*
X105540205Y-404524150D01*
X105390380Y-404494348D01*
X105108116Y-404377431D01*
X104854085Y-404207693D01*
X104638049Y-403991657D01*
X104468311Y-403737626D01*
X104351394Y-403455362D01*
X104291790Y-403155712D01*
X104291790Y-402850192D01*
X104351394Y-402550542D01*
X104468311Y-402268278D01*
X104638049Y-402014247D01*
X104854085Y-401798211D01*
X105108116Y-401628473D01*
X105390380Y-401511556D01*
X105540205Y-401481754D01*
X105690029Y-401451952D01*
X105995551Y-401451952D01*
X106145375Y-401481754D01*
X106145375Y-401481754D01*
G37*
G36*
X118845375Y-401021754D02*
G01*
X118995200Y-401051556D01*
X119277464Y-401168473D01*
X119531495Y-401338211D01*
X119747531Y-401554247D01*
X119917269Y-401808278D01*
X120034186Y-402090542D01*
X120093790Y-402390192D01*
X120093790Y-402695712D01*
X120034186Y-402995362D01*
X119917269Y-403277626D01*
X119747531Y-403531657D01*
X119531495Y-403747693D01*
X119277464Y-403917431D01*
X118995200Y-404034348D01*
X118908689Y-404051556D01*
X118695551Y-404093952D01*
X118390029Y-404093952D01*
X118176891Y-404051556D01*
X118090380Y-404034348D01*
X117808116Y-403917431D01*
X117554085Y-403747693D01*
X117338049Y-403531657D01*
X117168311Y-403277626D01*
X117051394Y-402995362D01*
X116991790Y-402695712D01*
X116991790Y-402390192D01*
X117051394Y-402090542D01*
X117168311Y-401808278D01*
X117338049Y-401554247D01*
X117554085Y-401338211D01*
X117808116Y-401168473D01*
X118090380Y-401051556D01*
X118240205Y-401021754D01*
X118390029Y-400991952D01*
X118695551Y-400991952D01*
X118845375Y-401021754D01*
X118845375Y-401021754D01*
G37*
G36*
X102629264Y-398496636D02*
G01*
X102847264Y-398586935D01*
X103001413Y-398650785D01*
X103336338Y-398874575D01*
X103621167Y-399159404D01*
X103844957Y-399494329D01*
X103877352Y-399572538D01*
X103999106Y-399866478D01*
X104077690Y-400261546D01*
X104077690Y-400664358D01*
X103999106Y-401059426D01*
X103948241Y-401182224D01*
X103844957Y-401431575D01*
X103621167Y-401766500D01*
X103336338Y-402051329D01*
X103001413Y-402275119D01*
X102847264Y-402338969D01*
X102629264Y-402429268D01*
X102234196Y-402507852D01*
X101831384Y-402507852D01*
X101436316Y-402429268D01*
X101218316Y-402338969D01*
X101064167Y-402275119D01*
X100729242Y-402051329D01*
X100444413Y-401766500D01*
X100220623Y-401431575D01*
X100117339Y-401182224D01*
X100066474Y-401059426D01*
X99987890Y-400664358D01*
X99987890Y-400261546D01*
X100066474Y-399866478D01*
X100188228Y-399572538D01*
X100220623Y-399494329D01*
X100444413Y-399159404D01*
X100729242Y-398874575D01*
X101064167Y-398650785D01*
X101218316Y-398586935D01*
X101436316Y-398496636D01*
X101831384Y-398418052D01*
X102234196Y-398418052D01*
X102629264Y-398496636D01*
X102629264Y-398496636D01*
G37*
G36*
X125195375Y-398481754D02*
G01*
X125345200Y-398511556D01*
X125627464Y-398628473D01*
X125881495Y-398798211D01*
X126097531Y-399014247D01*
X126267269Y-399268278D01*
X126384186Y-399550542D01*
X126384186Y-399550543D01*
X126422604Y-399743680D01*
X126443790Y-399850192D01*
X126443790Y-400155712D01*
X126384186Y-400455362D01*
X126267269Y-400737626D01*
X126097531Y-400991657D01*
X125881495Y-401207693D01*
X125627464Y-401377431D01*
X125345200Y-401494348D01*
X125258689Y-401511556D01*
X125045551Y-401553952D01*
X124740029Y-401553952D01*
X124526891Y-401511556D01*
X124440380Y-401494348D01*
X124158116Y-401377431D01*
X123904085Y-401207693D01*
X123688049Y-400991657D01*
X123518311Y-400737626D01*
X123401394Y-400455362D01*
X123341790Y-400155712D01*
X123341790Y-399850192D01*
X123362977Y-399743680D01*
X123401394Y-399550543D01*
X123401394Y-399550542D01*
X123518311Y-399268278D01*
X123688049Y-399014247D01*
X123904085Y-398798211D01*
X124158116Y-398628473D01*
X124440380Y-398511556D01*
X124590205Y-398481754D01*
X124740029Y-398451952D01*
X125045551Y-398451952D01*
X125195375Y-398481754D01*
X125195375Y-398481754D01*
G37*
G36*
X97222894Y-399572537D02*
G01*
X97391416Y-399642341D01*
X97543081Y-399743680D01*
X97672062Y-399872661D01*
X97773401Y-400024326D01*
X97843205Y-400192848D01*
X97878790Y-400371749D01*
X97878790Y-400554155D01*
X97843205Y-400733056D01*
X97773401Y-400901578D01*
X97672062Y-401053243D01*
X97543081Y-401182224D01*
X97391416Y-401283563D01*
X97222894Y-401353367D01*
X97043993Y-401388952D01*
X96861587Y-401388952D01*
X96682686Y-401353367D01*
X96514164Y-401283563D01*
X96362499Y-401182224D01*
X96233518Y-401053243D01*
X96132179Y-400901578D01*
X96062375Y-400733056D01*
X96026790Y-400554155D01*
X96026790Y-400371749D01*
X96062375Y-400192848D01*
X96132179Y-400024326D01*
X96233518Y-399872661D01*
X96362499Y-399743680D01*
X96514164Y-399642341D01*
X96682686Y-399572537D01*
X96861587Y-399536952D01*
X97043993Y-399536952D01*
X97222894Y-399572537D01*
X97222894Y-399572537D01*
G37*
G36*
X107382894Y-399572537D02*
G01*
X107551416Y-399642341D01*
X107703081Y-399743680D01*
X107832062Y-399872661D01*
X107933401Y-400024326D01*
X108003205Y-400192848D01*
X108038790Y-400371749D01*
X108038790Y-400554155D01*
X108003205Y-400733056D01*
X107933401Y-400901578D01*
X107832062Y-401053243D01*
X107703081Y-401182224D01*
X107551416Y-401283563D01*
X107382894Y-401353367D01*
X107203993Y-401388952D01*
X107021587Y-401388952D01*
X106842686Y-401353367D01*
X106674164Y-401283563D01*
X106522499Y-401182224D01*
X106393518Y-401053243D01*
X106292179Y-400901578D01*
X106222375Y-400733056D01*
X106186790Y-400554155D01*
X106186790Y-400371749D01*
X106222375Y-400192848D01*
X106292179Y-400024326D01*
X106393518Y-399872661D01*
X106522499Y-399743680D01*
X106674164Y-399642341D01*
X106842686Y-399572537D01*
X107021587Y-399536952D01*
X107203993Y-399536952D01*
X107382894Y-399572537D01*
X107382894Y-399572537D01*
G37*
G36*
X121679264Y-395496636D02*
G01*
X121897264Y-395586935D01*
X122051413Y-395650785D01*
X122386338Y-395874575D01*
X122671167Y-396159404D01*
X122894957Y-396494329D01*
X122927352Y-396572538D01*
X123049106Y-396866478D01*
X123127690Y-397261546D01*
X123127690Y-397664358D01*
X123049106Y-398059426D01*
X122998241Y-398182224D01*
X122894957Y-398431575D01*
X122671167Y-398766500D01*
X122386338Y-399051329D01*
X122051413Y-399275119D01*
X121897264Y-399338969D01*
X121679264Y-399429268D01*
X121284196Y-399507852D01*
X120881384Y-399507852D01*
X120486316Y-399429268D01*
X120268316Y-399338969D01*
X120114167Y-399275119D01*
X119779242Y-399051329D01*
X119494413Y-398766500D01*
X119270623Y-398431575D01*
X119167339Y-398182224D01*
X119116474Y-398059426D01*
X119037890Y-397664358D01*
X119037890Y-397261546D01*
X119116474Y-396866478D01*
X119238228Y-396572538D01*
X119270623Y-396494329D01*
X119494413Y-396159404D01*
X119779242Y-395874575D01*
X120114167Y-395650785D01*
X120268316Y-395586935D01*
X120486316Y-395496636D01*
X120881384Y-395418052D01*
X121284196Y-395418052D01*
X121679264Y-395496636D01*
X121679264Y-395496636D01*
G37*
G36*
X126432894Y-396572537D02*
G01*
X126601416Y-396642341D01*
X126753081Y-396743680D01*
X126882062Y-396872661D01*
X126983401Y-397024326D01*
X127053205Y-397192848D01*
X127088790Y-397371749D01*
X127088790Y-397554155D01*
X127053205Y-397733056D01*
X126983401Y-397901578D01*
X126882062Y-398053243D01*
X126753081Y-398182224D01*
X126601416Y-398283563D01*
X126432894Y-398353367D01*
X126253993Y-398388952D01*
X126071587Y-398388952D01*
X125892686Y-398353367D01*
X125724164Y-398283563D01*
X125572499Y-398182224D01*
X125443518Y-398053243D01*
X125342179Y-397901578D01*
X125272375Y-397733056D01*
X125236790Y-397554155D01*
X125236790Y-397371749D01*
X125272375Y-397192848D01*
X125342179Y-397024326D01*
X125443518Y-396872661D01*
X125572499Y-396743680D01*
X125724164Y-396642341D01*
X125892686Y-396572537D01*
X126071587Y-396536952D01*
X126253993Y-396536952D01*
X126432894Y-396572537D01*
X126432894Y-396572537D01*
G37*
G36*
X116272894Y-396572537D02*
G01*
X116441416Y-396642341D01*
X116593081Y-396743680D01*
X116722062Y-396872661D01*
X116823401Y-397024326D01*
X116893205Y-397192848D01*
X116928790Y-397371749D01*
X116928790Y-397554155D01*
X116893205Y-397733056D01*
X116823401Y-397901578D01*
X116722062Y-398053243D01*
X116593081Y-398182224D01*
X116441416Y-398283563D01*
X116272894Y-398353367D01*
X116093993Y-398388952D01*
X115911587Y-398388952D01*
X115732686Y-398353367D01*
X115564164Y-398283563D01*
X115412499Y-398182224D01*
X115283518Y-398053243D01*
X115182179Y-397901578D01*
X115112375Y-397733056D01*
X115076790Y-397554155D01*
X115076790Y-397371749D01*
X115112375Y-397192848D01*
X115182179Y-397024326D01*
X115283518Y-396872661D01*
X115412499Y-396743680D01*
X115564164Y-396642341D01*
X115732686Y-396572537D01*
X115911587Y-396536952D01*
X116093993Y-396536952D01*
X116272894Y-396572537D01*
X116272894Y-396572537D01*
G37*
G36*
X116902585Y-389603802D02*
G01*
X117052410Y-389633604D01*
X117334674Y-389750521D01*
X117588705Y-389920259D01*
X117804741Y-390136295D01*
X117974479Y-390390326D01*
X118091396Y-390672590D01*
X118151000Y-390972240D01*
X118151000Y-391277760D01*
X118091396Y-391577410D01*
X117974479Y-391859674D01*
X117804741Y-392113705D01*
X117588705Y-392329741D01*
X117334674Y-392499479D01*
X117052410Y-392616396D01*
X116902585Y-392646198D01*
X116752761Y-392676000D01*
X116447239Y-392676000D01*
X116297415Y-392646198D01*
X116147590Y-392616396D01*
X115865326Y-392499479D01*
X115611295Y-392329741D01*
X115395259Y-392113705D01*
X115225521Y-391859674D01*
X115108604Y-391577410D01*
X115049000Y-391277760D01*
X115049000Y-390972240D01*
X115108604Y-390672590D01*
X115225521Y-390390326D01*
X115395259Y-390136295D01*
X115611295Y-389920259D01*
X115865326Y-389750521D01*
X116147590Y-389633604D01*
X116297415Y-389603802D01*
X116447239Y-389574000D01*
X116752761Y-389574000D01*
X116902585Y-389603802D01*
X116902585Y-389603802D01*
G37*
G36*
X126091560Y-390089064D02*
G01*
X126243027Y-390119193D01*
X126457045Y-390207842D01*
X126457046Y-390207843D01*
X126649654Y-390336539D01*
X126813461Y-390500346D01*
X126899258Y-390628751D01*
X126942158Y-390692955D01*
X127030807Y-390906973D01*
X127076000Y-391134174D01*
X127076000Y-391365826D01*
X127030807Y-391593027D01*
X126942158Y-391807045D01*
X126942157Y-391807046D01*
X126813461Y-391999654D01*
X126649654Y-392163461D01*
X126521249Y-392249258D01*
X126457045Y-392292158D01*
X126243027Y-392380807D01*
X126091560Y-392410936D01*
X126015827Y-392426000D01*
X125784173Y-392426000D01*
X125708440Y-392410936D01*
X125556973Y-392380807D01*
X125342955Y-392292158D01*
X125278751Y-392249258D01*
X125150346Y-392163461D01*
X124986539Y-391999654D01*
X124857843Y-391807046D01*
X124857842Y-391807045D01*
X124769193Y-391593027D01*
X124724000Y-391365826D01*
X124724000Y-391134174D01*
X124769193Y-390906973D01*
X124857842Y-390692955D01*
X124900742Y-390628751D01*
X124986539Y-390500346D01*
X125150346Y-390336539D01*
X125342954Y-390207843D01*
X125342955Y-390207842D01*
X125556973Y-390119193D01*
X125708440Y-390089064D01*
X125784173Y-390074000D01*
X126015827Y-390074000D01*
X126091560Y-390089064D01*
X126091560Y-390089064D01*
G37*
G36*
X107030278Y-391719375D02*
G01*
X105228278Y-391719375D01*
X105228278Y-389917375D01*
X107030278Y-389917375D01*
X107030278Y-391719375D01*
X107030278Y-391719375D01*
G37*
G36*
X101159720Y-389923893D02*
G01*
X101225905Y-389930412D01*
X101395744Y-389981932D01*
X101552269Y-390065597D01*
X101588007Y-390094927D01*
X101689464Y-390178189D01*
X101772726Y-390279646D01*
X101802056Y-390315384D01*
X101885721Y-390471909D01*
X101937241Y-390641748D01*
X101954637Y-390818375D01*
X101937241Y-390995002D01*
X101885721Y-391164841D01*
X101802056Y-391321366D01*
X101772726Y-391357104D01*
X101689464Y-391458561D01*
X101588007Y-391541823D01*
X101552269Y-391571153D01*
X101395744Y-391654818D01*
X101225905Y-391706338D01*
X101159721Y-391712856D01*
X101093538Y-391719375D01*
X101005018Y-391719375D01*
X100938835Y-391712856D01*
X100872651Y-391706338D01*
X100702812Y-391654818D01*
X100546287Y-391571153D01*
X100510549Y-391541823D01*
X100409092Y-391458561D01*
X100325830Y-391357104D01*
X100296500Y-391321366D01*
X100212835Y-391164841D01*
X100161315Y-390995002D01*
X100143919Y-390818375D01*
X100161315Y-390641748D01*
X100212835Y-390471909D01*
X100296500Y-390315384D01*
X100325830Y-390279646D01*
X100409092Y-390178189D01*
X100510549Y-390094927D01*
X100546287Y-390065597D01*
X100702812Y-389981932D01*
X100872651Y-389930412D01*
X100938836Y-389923893D01*
X101005018Y-389917375D01*
X101093538Y-389917375D01*
X101159720Y-389923893D01*
X101159720Y-389923893D01*
G37*
G36*
X98619720Y-389923893D02*
G01*
X98685905Y-389930412D01*
X98855744Y-389981932D01*
X99012269Y-390065597D01*
X99048007Y-390094927D01*
X99149464Y-390178189D01*
X99232726Y-390279646D01*
X99262056Y-390315384D01*
X99345721Y-390471909D01*
X99397241Y-390641748D01*
X99414637Y-390818375D01*
X99397241Y-390995002D01*
X99345721Y-391164841D01*
X99262056Y-391321366D01*
X99232726Y-391357104D01*
X99149464Y-391458561D01*
X99048007Y-391541823D01*
X99012269Y-391571153D01*
X98855744Y-391654818D01*
X98685905Y-391706338D01*
X98619721Y-391712856D01*
X98553538Y-391719375D01*
X98465018Y-391719375D01*
X98398835Y-391712856D01*
X98332651Y-391706338D01*
X98162812Y-391654818D01*
X98006287Y-391571153D01*
X97970549Y-391541823D01*
X97869092Y-391458561D01*
X97785830Y-391357104D01*
X97756500Y-391321366D01*
X97672835Y-391164841D01*
X97621315Y-390995002D01*
X97603919Y-390818375D01*
X97621315Y-390641748D01*
X97672835Y-390471909D01*
X97756500Y-390315384D01*
X97785830Y-390279646D01*
X97869092Y-390178189D01*
X97970549Y-390094927D01*
X98006287Y-390065597D01*
X98162812Y-389981932D01*
X98332651Y-389930412D01*
X98398836Y-389923893D01*
X98465018Y-389917375D01*
X98553538Y-389917375D01*
X98619720Y-389923893D01*
X98619720Y-389923893D01*
G37*
G36*
X103699720Y-389923893D02*
G01*
X103765905Y-389930412D01*
X103935744Y-389981932D01*
X104092269Y-390065597D01*
X104128007Y-390094927D01*
X104229464Y-390178189D01*
X104312726Y-390279646D01*
X104342056Y-390315384D01*
X104425721Y-390471909D01*
X104477241Y-390641748D01*
X104494637Y-390818375D01*
X104477241Y-390995002D01*
X104425721Y-391164841D01*
X104342056Y-391321366D01*
X104312726Y-391357104D01*
X104229464Y-391458561D01*
X104128007Y-391541823D01*
X104092269Y-391571153D01*
X103935744Y-391654818D01*
X103765905Y-391706338D01*
X103699721Y-391712856D01*
X103633538Y-391719375D01*
X103545018Y-391719375D01*
X103478835Y-391712856D01*
X103412651Y-391706338D01*
X103242812Y-391654818D01*
X103086287Y-391571153D01*
X103050549Y-391541823D01*
X102949092Y-391458561D01*
X102865830Y-391357104D01*
X102836500Y-391321366D01*
X102752835Y-391164841D01*
X102701315Y-390995002D01*
X102683919Y-390818375D01*
X102701315Y-390641748D01*
X102752835Y-390471909D01*
X102836500Y-390315384D01*
X102865830Y-390279646D01*
X102949092Y-390178189D01*
X103050549Y-390094927D01*
X103086287Y-390065597D01*
X103242812Y-389981932D01*
X103412651Y-389930412D01*
X103478836Y-389923893D01*
X103545018Y-389917375D01*
X103633538Y-389917375D01*
X103699720Y-389923893D01*
X103699720Y-389923893D01*
G37*
G36*
X124931552Y-388291331D02*
G01*
X125013627Y-388325328D01*
X125013629Y-388325329D01*
X125050813Y-388350175D01*
X125087495Y-388374685D01*
X125150315Y-388437505D01*
X125199672Y-388511373D01*
X125233669Y-388593448D01*
X125251000Y-388680579D01*
X125251000Y-388769421D01*
X125233669Y-388856552D01*
X125199672Y-388938627D01*
X125199671Y-388938629D01*
X125150314Y-389012496D01*
X125087496Y-389075314D01*
X125013629Y-389124671D01*
X125013628Y-389124672D01*
X125013627Y-389124672D01*
X124931552Y-389158669D01*
X124844421Y-389176000D01*
X124755579Y-389176000D01*
X124668448Y-389158669D01*
X124586373Y-389124672D01*
X124586372Y-389124672D01*
X124586371Y-389124671D01*
X124512504Y-389075314D01*
X124449686Y-389012496D01*
X124400329Y-388938629D01*
X124400328Y-388938627D01*
X124366331Y-388856552D01*
X124349000Y-388769421D01*
X124349000Y-388680579D01*
X124366331Y-388593448D01*
X124400328Y-388511373D01*
X124449685Y-388437505D01*
X124512505Y-388374685D01*
X124549187Y-388350175D01*
X124586371Y-388325329D01*
X124586373Y-388325328D01*
X124668448Y-388291331D01*
X124755579Y-388274000D01*
X124844421Y-388274000D01*
X124931552Y-388291331D01*
X124931552Y-388291331D01*
G37*
G36*
X117931552Y-388291331D02*
G01*
X118013627Y-388325328D01*
X118013629Y-388325329D01*
X118050813Y-388350175D01*
X118087495Y-388374685D01*
X118150315Y-388437505D01*
X118199672Y-388511373D01*
X118233669Y-388593448D01*
X118251000Y-388680579D01*
X118251000Y-388769421D01*
X118233669Y-388856552D01*
X118199672Y-388938627D01*
X118199671Y-388938629D01*
X118150314Y-389012496D01*
X118087496Y-389075314D01*
X118013629Y-389124671D01*
X118013628Y-389124672D01*
X118013627Y-389124672D01*
X117931552Y-389158669D01*
X117844421Y-389176000D01*
X117755579Y-389176000D01*
X117668448Y-389158669D01*
X117586373Y-389124672D01*
X117586372Y-389124672D01*
X117586371Y-389124671D01*
X117512504Y-389075314D01*
X117449686Y-389012496D01*
X117400329Y-388938629D01*
X117400328Y-388938627D01*
X117366331Y-388856552D01*
X117349000Y-388769421D01*
X117349000Y-388680579D01*
X117366331Y-388593448D01*
X117400328Y-388511373D01*
X117449685Y-388437505D01*
X117512505Y-388374685D01*
X117549187Y-388350175D01*
X117586371Y-388325329D01*
X117586373Y-388325328D01*
X117668448Y-388291331D01*
X117755579Y-388274000D01*
X117844421Y-388274000D01*
X117931552Y-388291331D01*
X117931552Y-388291331D01*
G37*
G36*
X99795375Y-384958802D02*
G01*
X99945200Y-384988604D01*
X100227464Y-385105521D01*
X100481495Y-385275259D01*
X100697531Y-385491295D01*
X100867269Y-385745326D01*
X100984186Y-386027590D01*
X101043790Y-386327240D01*
X101043790Y-386632760D01*
X100984186Y-386932410D01*
X100867269Y-387214674D01*
X100697531Y-387468705D01*
X100481495Y-387684741D01*
X100227464Y-387854479D01*
X99945200Y-387971396D01*
X99795375Y-388001198D01*
X99645551Y-388031000D01*
X99340029Y-388031000D01*
X99190205Y-388001198D01*
X99040380Y-387971396D01*
X98758116Y-387854479D01*
X98504085Y-387684741D01*
X98288049Y-387468705D01*
X98118311Y-387214674D01*
X98001394Y-386932410D01*
X97941790Y-386632760D01*
X97941790Y-386327240D01*
X98001394Y-386027590D01*
X98118311Y-385745326D01*
X98288049Y-385491295D01*
X98504085Y-385275259D01*
X98758116Y-385105521D01*
X99040380Y-384988604D01*
X99190205Y-384958802D01*
X99340029Y-384929000D01*
X99645551Y-384929000D01*
X99795375Y-384958802D01*
X99795375Y-384958802D01*
G37*
G36*
X124191560Y-385039064D02*
G01*
X124343027Y-385069193D01*
X124557045Y-385157842D01*
X124557046Y-385157843D01*
X124749654Y-385286539D01*
X124913461Y-385450346D01*
X124999258Y-385578751D01*
X125042158Y-385642955D01*
X125130807Y-385856973D01*
X125176000Y-386084174D01*
X125176000Y-386315826D01*
X125130807Y-386543027D01*
X125042158Y-386757045D01*
X125042157Y-386757046D01*
X124913461Y-386949654D01*
X124749654Y-387113461D01*
X124621249Y-387199258D01*
X124557045Y-387242158D01*
X124343027Y-387330807D01*
X124191560Y-387360936D01*
X124115827Y-387376000D01*
X123884173Y-387376000D01*
X123808440Y-387360936D01*
X123656973Y-387330807D01*
X123442955Y-387242158D01*
X123378751Y-387199258D01*
X123250346Y-387113461D01*
X123086539Y-386949654D01*
X122957843Y-386757046D01*
X122957842Y-386757045D01*
X122869193Y-386543027D01*
X122824000Y-386315826D01*
X122824000Y-386084174D01*
X122869193Y-385856973D01*
X122957842Y-385642955D01*
X123000742Y-385578751D01*
X123086539Y-385450346D01*
X123250346Y-385286539D01*
X123442954Y-385157843D01*
X123442955Y-385157842D01*
X123656973Y-385069193D01*
X123808440Y-385039064D01*
X123884173Y-385024000D01*
X124115827Y-385024000D01*
X124191560Y-385039064D01*
X124191560Y-385039064D01*
G37*
G36*
X106145375Y-382418802D02*
G01*
X106295200Y-382448604D01*
X106577464Y-382565521D01*
X106831495Y-382735259D01*
X107047531Y-382951295D01*
X107217269Y-383205326D01*
X107334186Y-383487590D01*
X107393790Y-383787240D01*
X107393790Y-384092760D01*
X107334186Y-384392410D01*
X107217269Y-384674674D01*
X107047531Y-384928705D01*
X106831495Y-385144741D01*
X106577464Y-385314479D01*
X106295200Y-385431396D01*
X106145375Y-385461198D01*
X105995551Y-385491000D01*
X105690029Y-385491000D01*
X105540205Y-385461198D01*
X105390380Y-385431396D01*
X105108116Y-385314479D01*
X104854085Y-385144741D01*
X104638049Y-384928705D01*
X104468311Y-384674674D01*
X104351394Y-384392410D01*
X104291790Y-384092760D01*
X104291790Y-383787240D01*
X104351394Y-383487590D01*
X104468311Y-383205326D01*
X104638049Y-382951295D01*
X104854085Y-382735259D01*
X105108116Y-382565521D01*
X105390380Y-382448604D01*
X105540205Y-382418802D01*
X105690029Y-382389000D01*
X105995551Y-382389000D01*
X106145375Y-382418802D01*
X106145375Y-382418802D01*
G37*
G36*
X118845375Y-381978802D02*
G01*
X118995200Y-382008604D01*
X119277464Y-382125521D01*
X119531495Y-382295259D01*
X119747531Y-382511295D01*
X119917269Y-382765326D01*
X120034186Y-383047590D01*
X120093790Y-383347240D01*
X120093790Y-383652760D01*
X120034186Y-383952410D01*
X119917269Y-384234674D01*
X119747531Y-384488705D01*
X119531495Y-384704741D01*
X119277464Y-384874479D01*
X118995200Y-384991396D01*
X118845375Y-385021198D01*
X118695551Y-385051000D01*
X118390029Y-385051000D01*
X118240205Y-385021198D01*
X118090380Y-384991396D01*
X117808116Y-384874479D01*
X117554085Y-384704741D01*
X117338049Y-384488705D01*
X117168311Y-384234674D01*
X117051394Y-383952410D01*
X116991790Y-383652760D01*
X116991790Y-383347240D01*
X117051394Y-383047590D01*
X117168311Y-382765326D01*
X117338049Y-382511295D01*
X117554085Y-382295259D01*
X117808116Y-382125521D01*
X118090380Y-382008604D01*
X118240205Y-381978802D01*
X118390029Y-381949000D01*
X118695551Y-381949000D01*
X118845375Y-381978802D01*
X118845375Y-381978802D01*
G37*
G36*
X102629264Y-379433684D02*
G01*
X102847264Y-379523983D01*
X103001413Y-379587833D01*
X103336338Y-379811623D01*
X103621167Y-380096452D01*
X103844957Y-380431377D01*
X103877352Y-380509586D01*
X103999106Y-380803526D01*
X104077690Y-381198594D01*
X104077690Y-381601406D01*
X103999106Y-381996474D01*
X103948241Y-382119272D01*
X103844957Y-382368623D01*
X103621167Y-382703548D01*
X103336338Y-382988377D01*
X103001413Y-383212167D01*
X102847264Y-383276017D01*
X102629264Y-383366316D01*
X102234196Y-383444900D01*
X101831384Y-383444900D01*
X101436316Y-383366316D01*
X101218316Y-383276017D01*
X101064167Y-383212167D01*
X100729242Y-382988377D01*
X100444413Y-382703548D01*
X100220623Y-382368623D01*
X100117339Y-382119272D01*
X100066474Y-381996474D01*
X99987890Y-381601406D01*
X99987890Y-381198594D01*
X100066474Y-380803526D01*
X100188228Y-380509586D01*
X100220623Y-380431377D01*
X100444413Y-380096452D01*
X100729242Y-379811623D01*
X101064167Y-379587833D01*
X101218316Y-379523983D01*
X101436316Y-379433684D01*
X101831384Y-379355100D01*
X102234196Y-379355100D01*
X102629264Y-379433684D01*
X102629264Y-379433684D01*
G37*
G36*
X125169645Y-379433684D02*
G01*
X125345200Y-379468604D01*
X125627464Y-379585521D01*
X125881495Y-379755259D01*
X126097531Y-379971295D01*
X126267269Y-380225326D01*
X126384186Y-380507590D01*
X126384186Y-380507591D01*
X126443790Y-380807239D01*
X126443790Y-381112761D01*
X126440381Y-381129897D01*
X126384186Y-381412410D01*
X126267269Y-381694674D01*
X126097531Y-381948705D01*
X125881495Y-382164741D01*
X125627464Y-382334479D01*
X125345200Y-382451396D01*
X125195375Y-382481198D01*
X125045551Y-382511000D01*
X124740029Y-382511000D01*
X124590205Y-382481198D01*
X124440380Y-382451396D01*
X124158116Y-382334479D01*
X123904085Y-382164741D01*
X123688049Y-381948705D01*
X123518311Y-381694674D01*
X123401394Y-381412410D01*
X123345199Y-381129897D01*
X123341790Y-381112761D01*
X123341790Y-380807239D01*
X123401394Y-380507591D01*
X123401394Y-380507590D01*
X123518311Y-380225326D01*
X123688049Y-379971295D01*
X123904085Y-379755259D01*
X124158116Y-379585521D01*
X124440380Y-379468604D01*
X124615935Y-379433684D01*
X124740029Y-379409000D01*
X125045551Y-379409000D01*
X125169645Y-379433684D01*
X125169645Y-379433684D01*
G37*
G36*
X107382894Y-380509585D02*
G01*
X107551416Y-380579389D01*
X107703081Y-380680728D01*
X107832062Y-380809709D01*
X107933401Y-380961374D01*
X108003205Y-381129896D01*
X108038790Y-381308797D01*
X108038790Y-381491203D01*
X108003205Y-381670104D01*
X107933401Y-381838626D01*
X107832062Y-381990291D01*
X107703081Y-382119272D01*
X107551416Y-382220611D01*
X107382894Y-382290415D01*
X107203993Y-382326000D01*
X107021587Y-382326000D01*
X106842686Y-382290415D01*
X106674164Y-382220611D01*
X106522499Y-382119272D01*
X106393518Y-381990291D01*
X106292179Y-381838626D01*
X106222375Y-381670104D01*
X106186790Y-381491203D01*
X106186790Y-381308797D01*
X106222375Y-381129896D01*
X106292179Y-380961374D01*
X106393518Y-380809709D01*
X106522499Y-380680728D01*
X106674164Y-380579389D01*
X106842686Y-380509585D01*
X107021587Y-380474000D01*
X107203993Y-380474000D01*
X107382894Y-380509585D01*
X107382894Y-380509585D01*
G37*
G36*
X97222894Y-380509585D02*
G01*
X97391416Y-380579389D01*
X97543081Y-380680728D01*
X97672062Y-380809709D01*
X97773401Y-380961374D01*
X97843205Y-381129896D01*
X97878790Y-381308797D01*
X97878790Y-381491203D01*
X97843205Y-381670104D01*
X97773401Y-381838626D01*
X97672062Y-381990291D01*
X97543081Y-382119272D01*
X97391416Y-382220611D01*
X97222894Y-382290415D01*
X97043993Y-382326000D01*
X96861587Y-382326000D01*
X96682686Y-382290415D01*
X96514164Y-382220611D01*
X96362499Y-382119272D01*
X96233518Y-381990291D01*
X96132179Y-381838626D01*
X96062375Y-381670104D01*
X96026790Y-381491203D01*
X96026790Y-381308797D01*
X96062375Y-381129896D01*
X96132179Y-380961374D01*
X96233518Y-380809709D01*
X96362499Y-380680728D01*
X96514164Y-380579389D01*
X96682686Y-380509585D01*
X96861587Y-380474000D01*
X97043993Y-380474000D01*
X97222894Y-380509585D01*
X97222894Y-380509585D01*
G37*
G36*
X129777095Y-380619305D02*
G01*
X127975095Y-380619305D01*
X127975095Y-378817305D01*
X129777095Y-378817305D01*
X129777095Y-380619305D01*
X129777095Y-380619305D01*
G37*
G36*
X121679264Y-376453684D02*
G01*
X121883108Y-376538119D01*
X122051413Y-376607833D01*
X122386338Y-376831623D01*
X122671167Y-377116452D01*
X122894957Y-377451377D01*
X122927352Y-377529586D01*
X123049106Y-377823526D01*
X123127690Y-378218594D01*
X123127690Y-378621406D01*
X123049106Y-379016474D01*
X122998241Y-379139272D01*
X122894957Y-379388623D01*
X122671167Y-379723548D01*
X122386338Y-380008377D01*
X122051413Y-380232167D01*
X121897264Y-380296017D01*
X121679264Y-380386316D01*
X121284196Y-380464900D01*
X120881384Y-380464900D01*
X120486316Y-380386316D01*
X120268316Y-380296017D01*
X120114167Y-380232167D01*
X119779242Y-380008377D01*
X119494413Y-379723548D01*
X119270623Y-379388623D01*
X119167339Y-379139272D01*
X119116474Y-379016474D01*
X119037890Y-378621406D01*
X119037890Y-378218594D01*
X119116474Y-377823526D01*
X119238228Y-377529586D01*
X119270623Y-377451377D01*
X119494413Y-377116452D01*
X119779242Y-376831623D01*
X120114167Y-376607833D01*
X120282472Y-376538119D01*
X120486316Y-376453684D01*
X120881384Y-376375100D01*
X121284196Y-376375100D01*
X121679264Y-376453684D01*
X121679264Y-376453684D01*
G37*
G36*
X126432894Y-377529585D02*
G01*
X126601416Y-377599389D01*
X126753081Y-377700728D01*
X126882062Y-377829709D01*
X126983401Y-377981374D01*
X127053205Y-378149896D01*
X127088790Y-378328797D01*
X127088790Y-378511203D01*
X127053205Y-378690104D01*
X126983401Y-378858626D01*
X126882062Y-379010291D01*
X126753081Y-379139272D01*
X126601416Y-379240611D01*
X126432894Y-379310415D01*
X126253993Y-379346000D01*
X126071587Y-379346000D01*
X125892686Y-379310415D01*
X125724164Y-379240611D01*
X125572499Y-379139272D01*
X125443518Y-379010291D01*
X125342179Y-378858626D01*
X125272375Y-378690104D01*
X125236790Y-378511203D01*
X125236790Y-378328797D01*
X125272375Y-378149896D01*
X125342179Y-377981374D01*
X125443518Y-377829709D01*
X125572499Y-377700728D01*
X125724164Y-377599389D01*
X125892686Y-377529585D01*
X126071587Y-377494000D01*
X126253993Y-377494000D01*
X126432894Y-377529585D01*
X126432894Y-377529585D01*
G37*
G36*
X116272894Y-377529585D02*
G01*
X116441416Y-377599389D01*
X116593081Y-377700728D01*
X116722062Y-377829709D01*
X116823401Y-377981374D01*
X116893205Y-378149896D01*
X116928790Y-378328797D01*
X116928790Y-378511203D01*
X116893205Y-378690104D01*
X116823401Y-378858626D01*
X116722062Y-379010291D01*
X116593081Y-379139272D01*
X116441416Y-379240611D01*
X116272894Y-379310415D01*
X116093993Y-379346000D01*
X115911587Y-379346000D01*
X115732686Y-379310415D01*
X115564164Y-379240611D01*
X115412499Y-379139272D01*
X115283518Y-379010291D01*
X115182179Y-378858626D01*
X115112375Y-378690104D01*
X115076790Y-378511203D01*
X115076790Y-378328797D01*
X115112375Y-378149896D01*
X115182179Y-377981374D01*
X115283518Y-377829709D01*
X115412499Y-377700728D01*
X115564164Y-377599389D01*
X115732686Y-377529585D01*
X115911587Y-377494000D01*
X116093993Y-377494000D01*
X116272894Y-377529585D01*
X116272894Y-377529585D01*
G37*
G36*
X128986537Y-376283823D02*
G01*
X129052722Y-376290342D01*
X129222561Y-376341862D01*
X129379086Y-376425527D01*
X129413395Y-376453684D01*
X129516281Y-376538119D01*
X129599543Y-376639576D01*
X129628873Y-376675314D01*
X129712538Y-376831839D01*
X129764058Y-377001678D01*
X129781454Y-377178305D01*
X129764058Y-377354932D01*
X129712538Y-377524771D01*
X129628873Y-377681296D01*
X129599543Y-377717034D01*
X129516281Y-377818491D01*
X129414824Y-377901753D01*
X129379086Y-377931083D01*
X129222561Y-378014748D01*
X129052722Y-378066268D01*
X128986537Y-378072787D01*
X128920355Y-378079305D01*
X128831835Y-378079305D01*
X128765653Y-378072787D01*
X128699468Y-378066268D01*
X128529629Y-378014748D01*
X128373104Y-377931083D01*
X128337366Y-377901753D01*
X128235909Y-377818491D01*
X128152647Y-377717034D01*
X128123317Y-377681296D01*
X128039652Y-377524771D01*
X127988132Y-377354932D01*
X127970736Y-377178305D01*
X127988132Y-377001678D01*
X128039652Y-376831839D01*
X128123317Y-376675314D01*
X128152647Y-376639576D01*
X128235909Y-376538119D01*
X128338795Y-376453684D01*
X128373104Y-376425527D01*
X128529629Y-376341862D01*
X128699468Y-376290342D01*
X128765653Y-376283823D01*
X128831835Y-376277305D01*
X128920355Y-376277305D01*
X128986537Y-376283823D01*
X128986537Y-376283823D01*
G37*
G36*
X128986537Y-373743823D02*
G01*
X129052722Y-373750342D01*
X129222561Y-373801862D01*
X129379086Y-373885527D01*
X129414824Y-373914857D01*
X129516281Y-373998119D01*
X129599543Y-374099576D01*
X129628873Y-374135314D01*
X129712538Y-374291839D01*
X129764058Y-374461678D01*
X129781454Y-374638305D01*
X129764058Y-374814932D01*
X129712538Y-374984771D01*
X129628873Y-375141296D01*
X129623023Y-375148424D01*
X129516281Y-375278491D01*
X129414824Y-375361753D01*
X129379086Y-375391083D01*
X129222561Y-375474748D01*
X129052722Y-375526268D01*
X128986538Y-375532786D01*
X128920355Y-375539305D01*
X128831835Y-375539305D01*
X128765652Y-375532786D01*
X128699468Y-375526268D01*
X128529629Y-375474748D01*
X128373104Y-375391083D01*
X128337366Y-375361753D01*
X128235909Y-375278491D01*
X128129167Y-375148424D01*
X128123317Y-375141296D01*
X128039652Y-374984771D01*
X127988132Y-374814932D01*
X127970736Y-374638305D01*
X127988132Y-374461678D01*
X128039652Y-374291839D01*
X128123317Y-374135314D01*
X128152647Y-374099576D01*
X128235909Y-373998119D01*
X128337366Y-373914857D01*
X128373104Y-373885527D01*
X128529629Y-373801862D01*
X128699468Y-373750342D01*
X128765653Y-373743823D01*
X128831835Y-373737305D01*
X128920355Y-373737305D01*
X128986537Y-373743823D01*
X128986537Y-373743823D01*
G37*
G36*
X116398213Y-373051249D02*
G01*
X116492652Y-373079897D01*
X116579687Y-373126418D01*
X116655975Y-373189025D01*
X116718582Y-373265313D01*
X116765103Y-373352348D01*
X116793751Y-373446787D01*
X116801000Y-373520388D01*
X116801000Y-374669612D01*
X116793751Y-374743213D01*
X116765103Y-374837652D01*
X116718582Y-374924687D01*
X116655975Y-375000975D01*
X116579687Y-375063582D01*
X116492651Y-375110103D01*
X116398212Y-375138751D01*
X116300000Y-375148424D01*
X116201787Y-375138751D01*
X116107348Y-375110103D01*
X116020313Y-375063582D01*
X115944025Y-375000975D01*
X115881418Y-374924687D01*
X115834897Y-374837651D01*
X115806249Y-374743212D01*
X115799000Y-374669611D01*
X115799001Y-373520388D01*
X115806250Y-373446787D01*
X115834898Y-373352348D01*
X115881419Y-373265313D01*
X115944026Y-373189025D01*
X116020314Y-373126418D01*
X116107349Y-373079897D01*
X116201788Y-373051249D01*
X116300000Y-373041576D01*
X116398213Y-373051249D01*
X116398213Y-373051249D01*
G37*
G36*
X107758213Y-373051249D02*
G01*
X107852652Y-373079897D01*
X107939687Y-373126418D01*
X108015975Y-373189025D01*
X108078582Y-373265313D01*
X108125103Y-373352348D01*
X108153751Y-373446787D01*
X108161000Y-373520388D01*
X108161000Y-374669612D01*
X108153751Y-374743213D01*
X108125103Y-374837652D01*
X108078582Y-374924687D01*
X108015975Y-375000975D01*
X107939687Y-375063582D01*
X107852651Y-375110103D01*
X107758212Y-375138751D01*
X107660000Y-375148424D01*
X107561787Y-375138751D01*
X107467348Y-375110103D01*
X107380313Y-375063582D01*
X107304025Y-375000975D01*
X107241418Y-374924687D01*
X107194897Y-374837651D01*
X107166249Y-374743212D01*
X107159000Y-374669611D01*
X107159001Y-373520388D01*
X107166250Y-373446787D01*
X107194898Y-373352348D01*
X107241419Y-373265313D01*
X107304026Y-373189025D01*
X107380314Y-373126418D01*
X107467349Y-373079897D01*
X107561788Y-373051249D01*
X107660000Y-373041576D01*
X107758213Y-373051249D01*
X107758213Y-373051249D01*
G37*
G36*
X114972383Y-373277489D02*
G01*
X114972386Y-373277490D01*
X114972385Y-373277490D01*
X115036258Y-373303946D01*
X115093748Y-373342360D01*
X115142640Y-373391252D01*
X115181054Y-373448742D01*
X115202624Y-373500818D01*
X115207511Y-373512617D01*
X115221000Y-373580430D01*
X115221000Y-373649570D01*
X115207511Y-373717383D01*
X115207510Y-373717385D01*
X115181054Y-373781258D01*
X115142640Y-373838748D01*
X115093748Y-373887640D01*
X115036258Y-373926054D01*
X114984182Y-373947624D01*
X114972383Y-373952511D01*
X114904570Y-373966000D01*
X114835430Y-373966000D01*
X114767617Y-373952511D01*
X114755818Y-373947624D01*
X114703742Y-373926054D01*
X114646252Y-373887640D01*
X114597360Y-373838748D01*
X114558946Y-373781258D01*
X114532490Y-373717385D01*
X114532489Y-373717383D01*
X114519000Y-373649570D01*
X114519000Y-373580430D01*
X114532489Y-373512617D01*
X114537376Y-373500818D01*
X114558946Y-373448742D01*
X114597360Y-373391252D01*
X114646252Y-373342360D01*
X114703742Y-373303946D01*
X114767615Y-373277490D01*
X114767614Y-373277490D01*
X114767617Y-373277489D01*
X114835430Y-373264000D01*
X114904570Y-373264000D01*
X114972383Y-373277489D01*
X114972383Y-373277489D01*
G37*
G36*
X109192383Y-373277489D02*
G01*
X109192386Y-373277490D01*
X109192385Y-373277490D01*
X109256258Y-373303946D01*
X109313748Y-373342360D01*
X109362640Y-373391252D01*
X109401054Y-373448742D01*
X109422624Y-373500818D01*
X109427511Y-373512617D01*
X109441000Y-373580430D01*
X109441000Y-373649570D01*
X109427511Y-373717383D01*
X109427510Y-373717385D01*
X109401054Y-373781258D01*
X109362640Y-373838748D01*
X109313748Y-373887640D01*
X109256258Y-373926054D01*
X109204182Y-373947624D01*
X109192383Y-373952511D01*
X109124570Y-373966000D01*
X109055430Y-373966000D01*
X108987617Y-373952511D01*
X108975818Y-373947624D01*
X108923742Y-373926054D01*
X108866252Y-373887640D01*
X108817360Y-373838748D01*
X108778946Y-373781258D01*
X108752490Y-373717385D01*
X108752489Y-373717383D01*
X108739000Y-373649570D01*
X108739000Y-373580430D01*
X108752489Y-373512617D01*
X108757376Y-373500818D01*
X108778946Y-373448742D01*
X108817360Y-373391252D01*
X108866252Y-373342360D01*
X108923742Y-373303946D01*
X108987615Y-373277490D01*
X108987614Y-373277490D01*
X108987617Y-373277489D01*
X109055430Y-373264000D01*
X109124570Y-373264000D01*
X109192383Y-373277489D01*
X109192383Y-373277489D01*
G37*
G36*
X128986537Y-371203823D02*
G01*
X129052722Y-371210342D01*
X129222561Y-371261862D01*
X129379086Y-371345527D01*
X129414824Y-371374857D01*
X129516281Y-371458119D01*
X129599543Y-371559576D01*
X129628873Y-371595314D01*
X129712538Y-371751839D01*
X129764058Y-371921678D01*
X129781454Y-372098305D01*
X129764058Y-372274932D01*
X129712538Y-372444771D01*
X129628873Y-372601296D01*
X129599543Y-372637034D01*
X129516281Y-372738491D01*
X129414824Y-372821753D01*
X129379086Y-372851083D01*
X129222561Y-372934748D01*
X129052722Y-372986268D01*
X128986538Y-372992786D01*
X128920355Y-372999305D01*
X128831835Y-372999305D01*
X128765652Y-372992786D01*
X128699468Y-372986268D01*
X128529629Y-372934748D01*
X128373104Y-372851083D01*
X128337366Y-372821753D01*
X128235909Y-372738491D01*
X128152647Y-372637034D01*
X128123317Y-372601296D01*
X128039652Y-372444771D01*
X127988132Y-372274932D01*
X127970736Y-372098305D01*
X127988132Y-371921678D01*
X128039652Y-371751839D01*
X128123317Y-371595314D01*
X128152647Y-371559576D01*
X128235909Y-371458119D01*
X128337366Y-371374857D01*
X128373104Y-371345527D01*
X128529629Y-371261862D01*
X128699468Y-371210342D01*
X128765653Y-371203823D01*
X128831835Y-371197305D01*
X128920355Y-371197305D01*
X128986537Y-371203823D01*
X128986537Y-371203823D01*
G37*
G36*
X106031000Y-371721000D02*
G01*
X104229000Y-371721000D01*
X104229000Y-369919000D01*
X106031000Y-369919000D01*
X106031000Y-371721000D01*
X106031000Y-371721000D01*
G37*
G36*
X102700442Y-369925518D02*
G01*
X102766627Y-369932037D01*
X102936466Y-369983557D01*
X103092991Y-370067222D01*
X103128729Y-370096552D01*
X103230186Y-370179814D01*
X103313448Y-370281271D01*
X103342778Y-370317009D01*
X103426443Y-370473534D01*
X103477963Y-370643373D01*
X103495359Y-370820000D01*
X103477963Y-370996627D01*
X103426443Y-371166466D01*
X103342778Y-371322991D01*
X103324284Y-371345526D01*
X103230186Y-371460186D01*
X103128729Y-371543448D01*
X103092991Y-371572778D01*
X102936466Y-371656443D01*
X102766627Y-371707963D01*
X102700442Y-371714482D01*
X102634260Y-371721000D01*
X102545740Y-371721000D01*
X102479558Y-371714482D01*
X102413373Y-371707963D01*
X102243534Y-371656443D01*
X102087009Y-371572778D01*
X102051271Y-371543448D01*
X101949814Y-371460186D01*
X101855716Y-371345526D01*
X101837222Y-371322991D01*
X101753557Y-371166466D01*
X101702037Y-370996627D01*
X101684641Y-370820000D01*
X101702037Y-370643373D01*
X101753557Y-370473534D01*
X101837222Y-370317009D01*
X101866552Y-370281271D01*
X101949814Y-370179814D01*
X102051271Y-370096552D01*
X102087009Y-370067222D01*
X102243534Y-369983557D01*
X102413373Y-369932037D01*
X102479558Y-369925518D01*
X102545740Y-369919000D01*
X102634260Y-369919000D01*
X102700442Y-369925518D01*
X102700442Y-369925518D01*
G37*
G36*
X97620442Y-369925518D02*
G01*
X97686627Y-369932037D01*
X97856466Y-369983557D01*
X98012991Y-370067222D01*
X98048729Y-370096552D01*
X98150186Y-370179814D01*
X98233448Y-370281271D01*
X98262778Y-370317009D01*
X98346443Y-370473534D01*
X98397963Y-370643373D01*
X98415359Y-370820000D01*
X98397963Y-370996627D01*
X98346443Y-371166466D01*
X98262778Y-371322991D01*
X98244284Y-371345526D01*
X98150186Y-371460186D01*
X98048729Y-371543448D01*
X98012991Y-371572778D01*
X97856466Y-371656443D01*
X97686627Y-371707963D01*
X97620442Y-371714482D01*
X97554260Y-371721000D01*
X97465740Y-371721000D01*
X97399558Y-371714482D01*
X97333373Y-371707963D01*
X97163534Y-371656443D01*
X97007009Y-371572778D01*
X96971271Y-371543448D01*
X96869814Y-371460186D01*
X96775716Y-371345526D01*
X96757222Y-371322991D01*
X96673557Y-371166466D01*
X96622037Y-370996627D01*
X96604641Y-370820000D01*
X96622037Y-370643373D01*
X96673557Y-370473534D01*
X96757222Y-370317009D01*
X96786552Y-370281271D01*
X96869814Y-370179814D01*
X96971271Y-370096552D01*
X97007009Y-370067222D01*
X97163534Y-369983557D01*
X97333373Y-369932037D01*
X97399558Y-369925518D01*
X97465740Y-369919000D01*
X97554260Y-369919000D01*
X97620442Y-369925518D01*
X97620442Y-369925518D01*
G37*
G36*
X100160442Y-369925518D02*
G01*
X100226627Y-369932037D01*
X100396466Y-369983557D01*
X100552991Y-370067222D01*
X100588729Y-370096552D01*
X100690186Y-370179814D01*
X100773448Y-370281271D01*
X100802778Y-370317009D01*
X100886443Y-370473534D01*
X100937963Y-370643373D01*
X100955359Y-370820000D01*
X100937963Y-370996627D01*
X100886443Y-371166466D01*
X100802778Y-371322991D01*
X100784284Y-371345526D01*
X100690186Y-371460186D01*
X100588729Y-371543448D01*
X100552991Y-371572778D01*
X100396466Y-371656443D01*
X100226627Y-371707963D01*
X100160442Y-371714482D01*
X100094260Y-371721000D01*
X100005740Y-371721000D01*
X99939558Y-371714482D01*
X99873373Y-371707963D01*
X99703534Y-371656443D01*
X99547009Y-371572778D01*
X99511271Y-371543448D01*
X99409814Y-371460186D01*
X99315716Y-371345526D01*
X99297222Y-371322991D01*
X99213557Y-371166466D01*
X99162037Y-370996627D01*
X99144641Y-370820000D01*
X99162037Y-370643373D01*
X99213557Y-370473534D01*
X99297222Y-370317009D01*
X99326552Y-370281271D01*
X99409814Y-370179814D01*
X99511271Y-370096552D01*
X99547009Y-370067222D01*
X99703534Y-369983557D01*
X99873373Y-369932037D01*
X99939558Y-369925518D01*
X100005740Y-369919000D01*
X100094260Y-369919000D01*
X100160442Y-369925518D01*
X100160442Y-369925518D01*
G37*
G36*
X116398213Y-369031249D02*
G01*
X116492652Y-369059897D01*
X116579687Y-369106418D01*
X116655975Y-369169025D01*
X116718582Y-369245313D01*
X116765103Y-369332348D01*
X116793751Y-369426787D01*
X116801000Y-369500388D01*
X116801000Y-370349612D01*
X116793751Y-370423213D01*
X116765103Y-370517652D01*
X116718582Y-370604687D01*
X116655975Y-370680975D01*
X116579687Y-370743582D01*
X116492651Y-370790103D01*
X116398212Y-370818751D01*
X116300000Y-370828424D01*
X116201787Y-370818751D01*
X116107348Y-370790103D01*
X116020313Y-370743582D01*
X115944025Y-370680975D01*
X115881418Y-370604687D01*
X115834897Y-370517651D01*
X115806249Y-370423212D01*
X115799000Y-370349611D01*
X115799000Y-369500398D01*
X115806250Y-369426786D01*
X115816846Y-369391856D01*
X115834898Y-369332348D01*
X115881419Y-369245313D01*
X115944026Y-369169025D01*
X116020314Y-369106418D01*
X116107349Y-369059897D01*
X116201788Y-369031249D01*
X116300000Y-369021576D01*
X116398213Y-369031249D01*
X116398213Y-369031249D01*
G37*
G36*
X107758213Y-369031249D02*
G01*
X107852652Y-369059897D01*
X107939687Y-369106418D01*
X108015975Y-369169025D01*
X108078582Y-369245313D01*
X108125103Y-369332348D01*
X108153751Y-369426787D01*
X108161000Y-369500388D01*
X108161000Y-370349612D01*
X108153751Y-370423213D01*
X108125103Y-370517652D01*
X108078582Y-370604687D01*
X108015975Y-370680975D01*
X107939687Y-370743582D01*
X107852651Y-370790103D01*
X107758212Y-370818751D01*
X107660000Y-370828424D01*
X107561787Y-370818751D01*
X107467348Y-370790103D01*
X107380313Y-370743582D01*
X107304025Y-370680975D01*
X107241418Y-370604687D01*
X107194897Y-370517651D01*
X107166249Y-370423212D01*
X107159000Y-370349611D01*
X107159000Y-369500398D01*
X107166250Y-369426786D01*
X107176846Y-369391856D01*
X107194898Y-369332348D01*
X107241419Y-369245313D01*
X107304026Y-369169025D01*
X107380314Y-369106418D01*
X107467349Y-369059897D01*
X107561788Y-369031249D01*
X107660000Y-369021576D01*
X107758213Y-369031249D01*
X107758213Y-369031249D01*
G37*
M02*
