M48
; DRILL file {KiCad (5.1.4)-1} date 9/9/2023 5:32:18 AM
; FORMAT={-:-/ absolute / metric / decimal}
; #@! TF.CreationDate,2023-09-09T05:32:18-04:00
; #@! TF.GenerationSoftware,Kicad,Pcbnew,(5.1.4)-1
; #@! TF.FileFunction,Plated,1,2,PTH
FMAT,2
METRIC
T1C0.350
T2C0.400
T3C0.600
T4C1.000
T5C1.050
%
G90
G05
T1
X110.71Y-463.79
X114.86Y-462.64
X111.532Y-460.765
X111.532Y-462.04
X111.532Y-463.315
X112.807Y-460.765
X112.807Y-462.04
X112.807Y-463.315
X114.082Y-460.765
X114.082Y-462.04
X114.082Y-463.315
T2
X75.94Y-448.91
X96.5Y-446.0
X100.5Y-461.8
X100.8Y-456.1
X103.8Y-466.0
X104.522Y-464.477
X105.177Y-463.821
X105.3Y-445.2
X105.3Y-462.6
X106.33Y-393.84
X106.4Y-445.1
X107.389Y-445.211
X108.041Y-436.5
X108.1Y-462.01
X108.1Y-465.2
X108.316Y-445.198
X108.43Y-458.25
X108.65Y-468.065
X108.94Y-373.18
X108.94Y-373.18
X109.076Y-418.35
X109.242Y-445.157
X109.3Y-455.5
X109.748Y-373.816
X109.9Y-368.9
X110.337Y-445.152
X111.44Y-372.69
X112.625Y-372.814
X112.946Y-403.83
X113.176Y-398.45
X113.3Y-416.7
X113.34Y-385.76
X113.35Y-369.17
X113.84Y-378.03
X114.054Y-454.167
X114.5Y-448.3
X114.5Y-452.673
X114.554Y-444.996
X114.654Y-437.6
X114.992Y-468.906
X115.354Y-453.239
X115.444Y-445.256
X115.605Y-448.401
X116.379Y-445.626
X117.48Y-463.38
X117.66Y-466.22
X118.074Y-460.401
X118.4Y-462.88
X118.5Y-445.1
X118.73Y-464.2
X118.77Y-465.19
X119.31Y-372.15
X119.83Y-465.81
X120.05Y-467.68
X120.79Y-465.79
X120.8Y-466.83
X121.39Y-459.83
X121.39Y-459.83
X121.39Y-462.88
X121.39Y-462.88
X121.84Y-466.82
X121.948Y-447.728
X121.95Y-448.655
X121.964Y-446.801
X122.0Y-445.875
T4
X128.876Y-372.098
X128.876Y-374.638
X128.876Y-377.178
X128.876Y-379.718
X56.533Y-451.193
X56.533Y-453.733
X56.533Y-456.273
X56.533Y-458.813
X89.628Y-465.272
X90.285Y-462.818
X90.943Y-460.365
X91.6Y-457.911
X98.509Y-390.818
X101.049Y-390.818
X103.589Y-390.818
X106.129Y-390.818
X94.633Y-466.713
X97.086Y-467.37
X99.54Y-468.028
X101.993Y-468.685
X120.448Y-451.181
X122.988Y-451.181
X125.528Y-451.181
X128.068Y-451.181
X128.941Y-422.225
X128.941Y-424.765
X128.941Y-427.305
X128.941Y-429.845
X98.377Y-429.021
X100.917Y-429.021
X103.457Y-429.021
X105.997Y-429.021
X97.51Y-370.82
X100.05Y-370.82
X102.59Y-370.82
X105.13Y-370.82
X127.933Y-471.913
X128.59Y-469.459
X129.248Y-467.006
X129.905Y-464.553
X98.534Y-409.935
X101.074Y-409.935
X103.614Y-409.935
X106.154Y-409.935
X111.333Y-471.113
X113.786Y-471.77
X116.24Y-472.428
X118.693Y-473.085
T5
X70.773Y-459.726
X77.049Y-461.419
X78.221Y-457.074
X80.551Y-462.326
X81.723Y-457.981
X86.827Y-464.019
X87.999Y-459.674
T3
X118.35Y-369.91G85X117.75Y-369.91
G05
X119.45Y-365.31G85X118.85Y-365.31
G05
X123.45Y-365.31G85X122.85Y-365.31
G05
X126.45Y-365.31G85X125.85Y-365.31
G05
X107.31Y-365.26G85X107.31Y-366.06
G05
X107.31Y-369.28G85X107.31Y-370.38
G05
X115.95Y-365.26G85X115.95Y-366.06
G05
X115.95Y-369.28G85X115.95Y-370.38
G05
T0
M30
