%FSLAX45Y45*%
G04 Gerber Fmt 4.5, Leading zero omitted, Abs format (unit mm)*
G04 Created by KiCad (PCBNEW (5.1.4)-1) date 2023-06-13 20:25:15*
%MOMM*%
%LPD*%
G04 APERTURE LIST*
%ADD10C,0.050000*%
%ADD11C,0.200000*%
%ADD12C,0.300000*%
G04 APERTURE END LIST*
D10*
X7580000Y-44060000D02*
X7080000Y-44560000D01*
X7080000Y-44560000D02*
X5670000Y-44560000D01*
X9390000Y-44060000D02*
X9490000Y-43960000D01*
X9390000Y-44060000D02*
X7580000Y-44060000D01*
X13031480Y-37311016D02*
X13031480Y-37091016D01*
X9493279Y-37366295D02*
X9493279Y-37146295D01*
X9493279Y-39271295D02*
X9493279Y-37366295D01*
X13031480Y-39216016D02*
X13031480Y-37311016D01*
X6523279Y-46021295D02*
X6543279Y-46021295D01*
X9493279Y-39271295D02*
X9490000Y-43960000D01*
X12925419Y-47405040D02*
X12003279Y-47491295D01*
X12925419Y-47405040D02*
X13213232Y-46328860D01*
X13031346Y-39391871D02*
X13031480Y-39216016D01*
X13033920Y-43349053D02*
X13032767Y-45050023D01*
X13033421Y-45883812D02*
X13032185Y-45151986D01*
X13033421Y-45883812D02*
X13213232Y-46328860D01*
X13031480Y-37091016D02*
X12813279Y-36876295D01*
X9763279Y-36876295D02*
X9493279Y-37146295D01*
X9763279Y-36876295D02*
X12813279Y-36876295D01*
X5463279Y-44780000D02*
X5463279Y-45901295D01*
X5463279Y-44780000D02*
X5670000Y-44560000D01*
X5463279Y-45901295D02*
X5603279Y-46021295D01*
X6523279Y-46021295D02*
X5603279Y-46021295D01*
X13031346Y-39391871D02*
X13033920Y-43349053D01*
X13032185Y-45151986D02*
X13032767Y-45050023D01*
X12003279Y-47491295D02*
X6543279Y-46021295D01*
D11*
X6754279Y-45913221D02*
X6794279Y-45953221D01*
X6794279Y-45913221D02*
X6754279Y-45953221D01*
X9629000Y-46287000D02*
X9669000Y-46327000D01*
X9669000Y-46287000D02*
X9629000Y-46327000D01*
X9783000Y-46287000D02*
X9823000Y-46327000D01*
X9823000Y-46287000D02*
X9783000Y-46327000D01*
X9960000Y-46363500D02*
X10000000Y-46403500D01*
X10000000Y-46363500D02*
X9960000Y-46403500D01*
X10122267Y-44799996D02*
X10162267Y-44839996D01*
X10162267Y-44799996D02*
X10122267Y-44839996D01*
X10226673Y-44799996D02*
X10266673Y-44839996D01*
X10266673Y-44799996D02*
X10226673Y-44839996D01*
X10331989Y-44799996D02*
X10371989Y-44839996D01*
X10371989Y-44799996D02*
X10331989Y-44839996D01*
X10383636Y-45145603D02*
X10423636Y-45185603D01*
X10423636Y-45145603D02*
X10383636Y-45185603D01*
X10384000Y-45576000D02*
X10424000Y-45616000D01*
X10424000Y-45576000D02*
X10384000Y-45616000D01*
X10396397Y-46480028D02*
X10436397Y-46520028D01*
X10436397Y-46480028D02*
X10396397Y-46520028D01*
X10430000Y-44799996D02*
X10470000Y-44839996D01*
X10470000Y-44799996D02*
X10430000Y-44839996D01*
X10488399Y-46393075D02*
X10528399Y-46433075D01*
X10528399Y-46393075D02*
X10488399Y-46433075D01*
X10573000Y-44808000D02*
X10613000Y-44848000D01*
X10613000Y-44808000D02*
X10573000Y-44848000D01*
X10694600Y-46368000D02*
X10734600Y-46408000D01*
X10734600Y-46368000D02*
X10694600Y-46408000D01*
X10710000Y-44957000D02*
X10750000Y-44997000D01*
X10750000Y-44957000D02*
X10710000Y-44997000D01*
X10742098Y-46130119D02*
X10782098Y-46170119D01*
X10782098Y-46130119D02*
X10742098Y-46170119D01*
X10758788Y-46460284D02*
X10798788Y-46500284D01*
X10798788Y-46460284D02*
X10758788Y-46500284D01*
X10770800Y-46698200D02*
X10810800Y-46738200D01*
X10810800Y-46698200D02*
X10770800Y-46738200D01*
X10776660Y-46312560D02*
X10816660Y-46352560D01*
X10816660Y-46312560D02*
X10776660Y-46352560D01*
X10780000Y-47020000D02*
X10820000Y-47060000D01*
X10820000Y-47020000D02*
X10780000Y-47060000D01*
X10807670Y-45074557D02*
X10847670Y-45114557D01*
X10847670Y-45074557D02*
X10807670Y-45114557D01*
X10830866Y-46844598D02*
X10870866Y-46884598D01*
X10870866Y-46844598D02*
X10830866Y-46884598D01*
X10915000Y-45116100D02*
X10955000Y-45156100D01*
X10955000Y-45116100D02*
X10915000Y-45156100D01*
X10942402Y-45689200D02*
X10982402Y-45729200D01*
X10982402Y-45689200D02*
X10942402Y-45729200D01*
X11136950Y-37681220D02*
X11176950Y-37721220D01*
X11176950Y-37681220D02*
X11136950Y-37721220D01*
X11156000Y-44950700D02*
X11196000Y-44990700D01*
X11196000Y-44950700D02*
X11156000Y-44990700D01*
X11194101Y-44506999D02*
X11234101Y-44546999D01*
X11234101Y-44506999D02*
X11194101Y-44546999D01*
X11270300Y-44582400D02*
X11310300Y-44622400D01*
X11310300Y-44582400D02*
X11270300Y-44622400D01*
X11318560Y-37687570D02*
X11358560Y-37727570D01*
X11358560Y-37687570D02*
X11318560Y-37727570D01*
X11330000Y-45335000D02*
X11370000Y-45375000D01*
X11370000Y-45335000D02*
X11330000Y-45375000D01*
X11330000Y-45492500D02*
X11370000Y-45532500D01*
X11370000Y-45492500D02*
X11330000Y-45532500D01*
X11332000Y-40769000D02*
X11372000Y-40809000D01*
X11372000Y-40769000D02*
X11332000Y-40809000D01*
X11448100Y-44379200D02*
X11488100Y-44419200D01*
X11488100Y-44379200D02*
X11448100Y-44419200D01*
X11470000Y-46290000D02*
X11510000Y-46330000D01*
X11510000Y-46290000D02*
X11470000Y-46330000D01*
X11525586Y-46914414D02*
X11565586Y-46954414D01*
X11565586Y-46914414D02*
X11525586Y-46954414D01*
X11530315Y-46802501D02*
X11570315Y-46842501D01*
X11570315Y-46802501D02*
X11530315Y-46842501D01*
X11540000Y-44487000D02*
X11580000Y-44527000D01*
X11580000Y-44487000D02*
X11540000Y-44527000D01*
X11651300Y-44379200D02*
X11691300Y-44419200D01*
X11691300Y-44379200D02*
X11651300Y-44419200D01*
X11779000Y-46274000D02*
X11819000Y-46314000D01*
X11819000Y-46274000D02*
X11779000Y-46314000D01*
X11813362Y-46465943D02*
X11853362Y-46505943D01*
X11853362Y-46465943D02*
X11813362Y-46505943D01*
X11867500Y-45682500D02*
X11907500Y-45722500D01*
X11907500Y-45682500D02*
X11867500Y-45722500D01*
X11992536Y-46384599D02*
X12032536Y-46424599D01*
X12032536Y-46384599D02*
X11992536Y-46424599D01*
X12010000Y-46512500D02*
X12050000Y-46552500D01*
X12050000Y-46512500D02*
X12010000Y-46552500D01*
X12015000Y-46725000D02*
X12055000Y-46765000D01*
X12055000Y-46725000D02*
X12015000Y-46765000D01*
X12042500Y-47200000D02*
X12082500Y-47240000D01*
X12082500Y-47200000D02*
X12042500Y-47240000D01*
X12042501Y-47097501D02*
X12082501Y-47137501D01*
X12082501Y-47097501D02*
X12042501Y-47137501D01*
X12050832Y-46941338D02*
X12090832Y-46981338D01*
X12090832Y-46941338D02*
X12050832Y-46981338D01*
X12060234Y-46849114D02*
X12100234Y-46889114D01*
X12100234Y-46849114D02*
X12060234Y-46889114D01*
X12119999Y-46190000D02*
X12159999Y-46230000D01*
X12159999Y-46190000D02*
X12119999Y-46230000D01*
X12147901Y-46497374D02*
X12187901Y-46537374D01*
X12187901Y-46497374D02*
X12147901Y-46537374D01*
X12174769Y-44752817D02*
X12214769Y-44792817D01*
X12214769Y-44752817D02*
X12174769Y-44792817D01*
X12175014Y-44845517D02*
X12215014Y-44885517D01*
X12215014Y-44845517D02*
X12175014Y-44885517D01*
X12176437Y-44660132D02*
X12216437Y-44700132D01*
X12216437Y-44660132D02*
X12176437Y-44700132D01*
X12180000Y-44567500D02*
X12220000Y-44607500D01*
X12220000Y-44567500D02*
X12180000Y-44607500D01*
X12305000Y-47165000D02*
X12345000Y-47205000D01*
X12345000Y-47165000D02*
X12305000Y-47205000D01*
X12457700Y-47067500D02*
X12497700Y-47107500D01*
X12497700Y-47067500D02*
X12457700Y-47107500D01*
X10796000Y-36992500D02*
G75*
G03X10796000Y-36992500I-30000J0D01*
G01*
X10746000Y-36952500D02*
X10746000Y-37032500D01*
X10786000Y-36952500D02*
X10786000Y-37032500D01*
X10746000Y-37032500D02*
G75*
G03X10786000Y-37032500I20000J0D01*
G01*
X10786000Y-36952500D02*
G75*
G03X10746000Y-36952500I-20000J0D01*
G01*
X10796000Y-37409500D02*
G75*
G03X10796000Y-37409500I-30000J0D01*
G01*
X10746000Y-37354500D02*
X10746000Y-37464500D01*
X10786000Y-37354500D02*
X10786000Y-37464500D01*
X10746000Y-37464500D02*
G75*
G03X10786000Y-37464500I20000J0D01*
G01*
X10786000Y-37354500D02*
G75*
G03X10746000Y-37354500I-20000J0D01*
G01*
X11660000Y-36992500D02*
G75*
G03X11660000Y-36992500I-30000J0D01*
G01*
X11610000Y-36952500D02*
X11610000Y-37032500D01*
X11650000Y-36952500D02*
X11650000Y-37032500D01*
X11610000Y-37032500D02*
G75*
G03X11650000Y-37032500I20000J0D01*
G01*
X11650000Y-36952500D02*
G75*
G03X11610000Y-36952500I-20000J0D01*
G01*
X11660000Y-37409500D02*
G75*
G03X11660000Y-37409500I-30000J0D01*
G01*
X11610000Y-37354500D02*
X11610000Y-37464500D01*
X11650000Y-37354500D02*
X11650000Y-37464500D01*
X11610000Y-37464500D02*
G75*
G03X11650000Y-37464500I20000J0D01*
G01*
X11650000Y-37354500D02*
G75*
G03X11610000Y-37354500I-20000J0D01*
G01*
X9463279Y-46621295D02*
X9463279Y-46721295D01*
X9413279Y-46671295D02*
X9513279Y-46671295D01*
X9708624Y-46687035D02*
X9708624Y-46787035D01*
X9658624Y-46737035D02*
X9758624Y-46737035D01*
X9953969Y-46752775D02*
X9953969Y-46852775D01*
X9903969Y-46802775D02*
X10003969Y-46802775D01*
X10199314Y-46818515D02*
X10199314Y-46918515D01*
X10149314Y-46868515D02*
X10249314Y-46868515D01*
X9751000Y-37032000D02*
X9751000Y-37132000D01*
X9701000Y-37082000D02*
X9801000Y-37082000D01*
X10005000Y-37032000D02*
X10005000Y-37132000D01*
X9955000Y-37082000D02*
X10055000Y-37082000D01*
X10259000Y-37032000D02*
X10259000Y-37132000D01*
X10209000Y-37082000D02*
X10309000Y-37082000D01*
X10513000Y-37032000D02*
X10513000Y-37132000D01*
X10463000Y-37082000D02*
X10563000Y-37082000D01*
X5653279Y-45069295D02*
X5653279Y-45169295D01*
X5603279Y-45119295D02*
X5703279Y-45119295D01*
X5653279Y-45323295D02*
X5653279Y-45423295D01*
X5603279Y-45373295D02*
X5703279Y-45373295D01*
X5653279Y-45577295D02*
X5653279Y-45677295D01*
X5603279Y-45627295D02*
X5703279Y-45627295D01*
X5653279Y-45831295D02*
X5653279Y-45931295D01*
X5603279Y-45881295D02*
X5703279Y-45881295D01*
X8962796Y-46477182D02*
X8962796Y-46577182D01*
X8912796Y-46527182D02*
X9012796Y-46527182D01*
X9028536Y-46231837D02*
X9028536Y-46331837D01*
X8978536Y-46281837D02*
X9078536Y-46281837D01*
X9094276Y-45986492D02*
X9094276Y-46086492D01*
X9044276Y-46036492D02*
X9144276Y-46036492D01*
X9160016Y-45741146D02*
X9160016Y-45841146D01*
X9110016Y-45791146D02*
X9210016Y-45791146D01*
X12887609Y-37159831D02*
X12887609Y-37259831D01*
X12837609Y-37209831D02*
X12937609Y-37209831D01*
X12887609Y-37413831D02*
X12887609Y-37513831D01*
X12837609Y-37463831D02*
X12937609Y-37463831D01*
X12887609Y-37667831D02*
X12887609Y-37767831D01*
X12837609Y-37717831D02*
X12937609Y-37717831D01*
X12887609Y-37921831D02*
X12887609Y-38021831D01*
X12837609Y-37971831D02*
X12937609Y-37971831D01*
X12793279Y-47141295D02*
X12793279Y-47241295D01*
X12743279Y-47191295D02*
X12843279Y-47191295D01*
X12859019Y-46895950D02*
X12859019Y-46995950D01*
X12809019Y-46945950D02*
X12909019Y-46945950D01*
X12924759Y-46650605D02*
X12924759Y-46750605D01*
X12874759Y-46700605D02*
X12974759Y-46700605D01*
X12990499Y-46405260D02*
X12990499Y-46505260D01*
X12940499Y-46455260D02*
X13040499Y-46455260D01*
X9837697Y-42852097D02*
X9837697Y-42952097D01*
X9787697Y-42902097D02*
X9887697Y-42902097D01*
X10091697Y-42852097D02*
X10091697Y-42952097D01*
X10041697Y-42902097D02*
X10141697Y-42902097D01*
X10345697Y-42852097D02*
X10345697Y-42952097D01*
X10295697Y-42902097D02*
X10395697Y-42902097D01*
X10599697Y-42852097D02*
X10599697Y-42952097D01*
X10549697Y-42902097D02*
X10649697Y-42902097D01*
X12894060Y-42172489D02*
X12894060Y-42272489D01*
X12844060Y-42222489D02*
X12944060Y-42222489D01*
X12894060Y-42426489D02*
X12894060Y-42526489D01*
X12844060Y-42476489D02*
X12944060Y-42476489D01*
X12894060Y-42680489D02*
X12894060Y-42780489D01*
X12844060Y-42730489D02*
X12944060Y-42730489D01*
X12894060Y-42934489D02*
X12894060Y-43034489D01*
X12844060Y-42984489D02*
X12944060Y-42984489D01*
X12044843Y-45068132D02*
X12044843Y-45168132D01*
X11994843Y-45118132D02*
X12094843Y-45118132D01*
X12298843Y-45068132D02*
X12298843Y-45168132D01*
X12248843Y-45118132D02*
X12348843Y-45118132D01*
X12552843Y-45068132D02*
X12552843Y-45168132D01*
X12502843Y-45118132D02*
X12602843Y-45118132D01*
X12806843Y-45068132D02*
X12806843Y-45168132D01*
X12756843Y-45118132D02*
X12856843Y-45118132D01*
X11133279Y-47061295D02*
X11133279Y-47161295D01*
X11083279Y-47111295D02*
X11183279Y-47111295D01*
X11378624Y-47127035D02*
X11378624Y-47227035D01*
X11328624Y-47177035D02*
X11428624Y-47177035D01*
X11623969Y-47192775D02*
X11623969Y-47292775D01*
X11573969Y-47242775D02*
X11673969Y-47242775D01*
X11869314Y-47258515D02*
X11869314Y-47358515D01*
X11819314Y-47308515D02*
X11919314Y-47308515D01*
X9853416Y-40943520D02*
X9853416Y-41043520D01*
X9803416Y-40993520D02*
X9903416Y-40993520D01*
X10107416Y-40943520D02*
X10107416Y-41043520D01*
X10057416Y-40993520D02*
X10157416Y-40993520D01*
X10361416Y-40943520D02*
X10361416Y-41043520D01*
X10311416Y-40993520D02*
X10411416Y-40993520D01*
X10615416Y-40943520D02*
X10615416Y-41043520D01*
X10565416Y-40993520D02*
X10665416Y-40993520D01*
X9850928Y-39031838D02*
X9850928Y-39131838D01*
X9800928Y-39081838D02*
X9900928Y-39081838D01*
X10104928Y-39031838D02*
X10104928Y-39131838D01*
X10054928Y-39081838D02*
X10154928Y-39081838D01*
X10358928Y-39031838D02*
X10358928Y-39131838D01*
X10308928Y-39081838D02*
X10408928Y-39081838D01*
X10612928Y-39031838D02*
X10612928Y-39131838D01*
X10562928Y-39081838D02*
X10662928Y-39081838D01*
X8092232Y-46269691D02*
X8092232Y-46195444D01*
X8017985Y-46195444D01*
X8017985Y-46269691D01*
X8092232Y-46269691D01*
X8209459Y-45835228D02*
X8209459Y-45760981D01*
X8135212Y-45760981D01*
X8135212Y-45835228D01*
X8209459Y-45835228D01*
X8581851Y-45702661D02*
X8581851Y-45628414D01*
X8507604Y-45628414D01*
X8507604Y-45702661D01*
X8581851Y-45702661D01*
X8719789Y-46439019D02*
X8719789Y-46364772D01*
X8645542Y-46364772D01*
X8645542Y-46439019D01*
X8719789Y-46439019D01*
X8837016Y-46004556D02*
X8837016Y-45930309D01*
X8762769Y-45930309D01*
X8762769Y-46004556D01*
X8837016Y-46004556D01*
X7114458Y-46009691D02*
X7114458Y-45935444D01*
X7040211Y-45935444D01*
X7040211Y-46009691D01*
X7114458Y-46009691D01*
X7231685Y-45575228D02*
X7231685Y-45500981D01*
X7157438Y-45500981D01*
X7157438Y-45575228D01*
X7231685Y-45575228D01*
X7604077Y-45442661D02*
X7604077Y-45368414D01*
X7529830Y-45368414D01*
X7529830Y-45442661D01*
X7604077Y-45442661D01*
X7742015Y-46179019D02*
X7742015Y-46104772D01*
X7667768Y-46104772D01*
X7667768Y-46179019D01*
X7742015Y-46179019D01*
X7859242Y-45744556D02*
X7859242Y-45670309D01*
X7784995Y-45670309D01*
X7784995Y-45744556D01*
X7859242Y-45744556D01*
X9822279Y-43675795D02*
X9895779Y-43602295D01*
X9822279Y-43528795D01*
X9748779Y-43602295D01*
X9822279Y-43675795D01*
X9953279Y-43529795D02*
X10026779Y-43456295D01*
X9953279Y-43382795D01*
X9879779Y-43456295D01*
X9953279Y-43529795D01*
X10453279Y-43479795D02*
X10526779Y-43406295D01*
X10453279Y-43332795D01*
X10379779Y-43406295D01*
X10453279Y-43479795D01*
X10457279Y-43421795D02*
X10530779Y-43348295D01*
X10457279Y-43274795D01*
X10383779Y-43348295D01*
X10457279Y-43421795D01*
X9822279Y-37959500D02*
X9895779Y-37886000D01*
X9822279Y-37812500D01*
X9748779Y-37886000D01*
X9822279Y-37959500D01*
X9953279Y-37813500D02*
X10026779Y-37740000D01*
X9953279Y-37666500D01*
X9879779Y-37740000D01*
X9953279Y-37813500D01*
X10453279Y-37763500D02*
X10526779Y-37690000D01*
X10453279Y-37616500D01*
X10379779Y-37690000D01*
X10453279Y-37763500D01*
X10457279Y-37705500D02*
X10530779Y-37632000D01*
X10457279Y-37558500D01*
X10383779Y-37632000D01*
X10457279Y-37705500D01*
X11727279Y-43375795D02*
X11800779Y-43302295D01*
X11727279Y-43228795D01*
X11653779Y-43302295D01*
X11727279Y-43375795D01*
X11858279Y-43229795D02*
X11931779Y-43156295D01*
X11858279Y-43082795D01*
X11784779Y-43156295D01*
X11858279Y-43229795D01*
X12358279Y-43179795D02*
X12431779Y-43106295D01*
X12358279Y-43032795D01*
X12284779Y-43106295D01*
X12358279Y-43179795D01*
X12362279Y-43121795D02*
X12435779Y-43048295D01*
X12362279Y-42974795D01*
X12288779Y-43048295D01*
X12362279Y-43121795D01*
X11727279Y-39565795D02*
X11800779Y-39492295D01*
X11727279Y-39418795D01*
X11653779Y-39492295D01*
X11727279Y-39565795D01*
X11858279Y-39419795D02*
X11931779Y-39346295D01*
X11858279Y-39272795D01*
X11784779Y-39346295D01*
X11858279Y-39419795D01*
X12358279Y-39369795D02*
X12431779Y-39296295D01*
X12358279Y-39222795D01*
X12284779Y-39296295D01*
X12358279Y-39369795D01*
X12362279Y-39311795D02*
X12435779Y-39238295D01*
X12362279Y-39164795D01*
X12288779Y-39238295D01*
X12362279Y-39311795D01*
X9822279Y-39865795D02*
X9895779Y-39792295D01*
X9822279Y-39718795D01*
X9748779Y-39792295D01*
X9822279Y-39865795D01*
X9953279Y-39719795D02*
X10026779Y-39646295D01*
X9953279Y-39572795D01*
X9879779Y-39646295D01*
X9953279Y-39719795D01*
X10453279Y-39669795D02*
X10526779Y-39596295D01*
X10453279Y-39522795D01*
X10379779Y-39596295D01*
X10453279Y-39669795D01*
X10457279Y-39611795D02*
X10530779Y-39538295D01*
X10457279Y-39464795D01*
X10383779Y-39538295D01*
X10457279Y-39611795D01*
X6139279Y-45787795D02*
X6212779Y-45714295D01*
X6139279Y-45640795D01*
X6065779Y-45714295D01*
X6139279Y-45787795D01*
X6143279Y-45729795D02*
X6216779Y-45656295D01*
X6143279Y-45582795D01*
X6069779Y-45656295D01*
X6143279Y-45729795D01*
X6643279Y-45679795D02*
X6716779Y-45606295D01*
X6643279Y-45532795D01*
X6569779Y-45606295D01*
X6643279Y-45679795D01*
X6774279Y-45533795D02*
X6847779Y-45460295D01*
X6774279Y-45386795D01*
X6700779Y-45460295D01*
X6774279Y-45533795D01*
X11727279Y-37661500D02*
X11800779Y-37588000D01*
X11727279Y-37514500D01*
X11653779Y-37588000D01*
X11727279Y-37661500D01*
X11858279Y-37515500D02*
X11931779Y-37442000D01*
X11858279Y-37368500D01*
X11784779Y-37442000D01*
X11858279Y-37515500D01*
X12358279Y-37465500D02*
X12431779Y-37392000D01*
X12358279Y-37318500D01*
X12284779Y-37392000D01*
X12358279Y-37465500D01*
X12362279Y-37407500D02*
X12435779Y-37334000D01*
X12362279Y-37260500D01*
X12288779Y-37334000D01*
X12362279Y-37407500D01*
X11854279Y-42232795D02*
X11927779Y-42159295D01*
X11854279Y-42085795D01*
X11780779Y-42159295D01*
X11854279Y-42232795D01*
X11858279Y-42174795D02*
X11931779Y-42101295D01*
X11858279Y-42027795D01*
X11784779Y-42101295D01*
X11858279Y-42174795D01*
X12358279Y-42124795D02*
X12431779Y-42051295D01*
X12358279Y-41977795D01*
X12284779Y-42051295D01*
X12358279Y-42124795D01*
X12489279Y-41978795D02*
X12562779Y-41905295D01*
X12489279Y-41831795D01*
X12415779Y-41905295D01*
X12489279Y-41978795D01*
X9822279Y-41770795D02*
X9895779Y-41697295D01*
X9822279Y-41623795D01*
X9748779Y-41697295D01*
X9822279Y-41770795D01*
X9953279Y-41624795D02*
X10026779Y-41551295D01*
X9953279Y-41477795D01*
X9879779Y-41551295D01*
X9953279Y-41624795D01*
X10453279Y-41574795D02*
X10526779Y-41501295D01*
X10453279Y-41427795D01*
X10379779Y-41501295D01*
X10453279Y-41574795D01*
X10457279Y-41516795D02*
X10530779Y-41443295D01*
X10457279Y-41369795D01*
X10383779Y-41443295D01*
X10457279Y-41516795D01*
X8044279Y-45287795D02*
X8117779Y-45214295D01*
X8044279Y-45140795D01*
X7970779Y-45214295D01*
X8044279Y-45287795D01*
X8048279Y-45229795D02*
X8121779Y-45156295D01*
X8048279Y-45082795D01*
X7974779Y-45156295D01*
X8048279Y-45229795D01*
X8548279Y-45179795D02*
X8621779Y-45106295D01*
X8548279Y-45032795D01*
X8474779Y-45106295D01*
X8548279Y-45179795D01*
X8679279Y-45033795D02*
X8752779Y-44960295D01*
X8679279Y-44886795D01*
X8605779Y-44960295D01*
X8679279Y-45033795D01*
X12325000Y-38545000D02*
X12475000Y-38695000D01*
X12475000Y-38545000D02*
X12325000Y-38695000D01*
X12475000Y-38620000D02*
G75*
G03X12475000Y-38620000I-75000J0D01*
G01*
X12515000Y-39050000D02*
X12665000Y-39200000D01*
X12665000Y-39050000D02*
X12515000Y-39200000D01*
X12665000Y-39125000D02*
G75*
G03X12665000Y-39125000I-75000J0D01*
G01*
X11700000Y-38792500D02*
X11860000Y-38952500D01*
X11860000Y-38792500D02*
X11700000Y-38952500D01*
X11780000Y-38792500D02*
X11780000Y-38952500D01*
X11700000Y-38872500D02*
X11860000Y-38872500D01*
X12400000Y-38792500D02*
X12560000Y-38952500D01*
X12560000Y-38792500D02*
X12400000Y-38952500D01*
X12480000Y-38792500D02*
X12480000Y-38952500D01*
X12400000Y-38872500D02*
X12560000Y-38872500D01*
X11560000Y-39012500D02*
X11760000Y-39212500D01*
X11760000Y-39012500D02*
X11560000Y-39212500D01*
X11730711Y-39183211D02*
X11730711Y-39041789D01*
X11589289Y-39041789D01*
X11589289Y-39183211D01*
X11730711Y-39183211D01*
D12*
X5747207Y-47959509D02*
X5747207Y-47659509D01*
X5818636Y-47659509D01*
X5861493Y-47673795D01*
X5890064Y-47702367D01*
X5904350Y-47730938D01*
X5918636Y-47788081D01*
X5918636Y-47830938D01*
X5904350Y-47888081D01*
X5890064Y-47916652D01*
X5861493Y-47945224D01*
X5818636Y-47959509D01*
X5747207Y-47959509D01*
X6047207Y-47959509D02*
X6047207Y-47759509D01*
X6047207Y-47816652D02*
X6061493Y-47788081D01*
X6075779Y-47773795D01*
X6104350Y-47759509D01*
X6132922Y-47759509D01*
X6232922Y-47959509D02*
X6232922Y-47759509D01*
X6232922Y-47659509D02*
X6218636Y-47673795D01*
X6232922Y-47688081D01*
X6247207Y-47673795D01*
X6232922Y-47659509D01*
X6232922Y-47688081D01*
X6418636Y-47959509D02*
X6390064Y-47945224D01*
X6375779Y-47916652D01*
X6375779Y-47659509D01*
X6575779Y-47959509D02*
X6547207Y-47945224D01*
X6532922Y-47916652D01*
X6532922Y-47659509D01*
X6918636Y-47959509D02*
X6918636Y-47659509D01*
X7018636Y-47873795D01*
X7118636Y-47659509D01*
X7118636Y-47959509D01*
X7390064Y-47959509D02*
X7390064Y-47802367D01*
X7375779Y-47773795D01*
X7347207Y-47759509D01*
X7290064Y-47759509D01*
X7261493Y-47773795D01*
X7390064Y-47945224D02*
X7361493Y-47959509D01*
X7290064Y-47959509D01*
X7261493Y-47945224D01*
X7247207Y-47916652D01*
X7247207Y-47888081D01*
X7261493Y-47859509D01*
X7290064Y-47845224D01*
X7361493Y-47845224D01*
X7390064Y-47830938D01*
X7532922Y-47759509D02*
X7532922Y-48059509D01*
X7532922Y-47773795D02*
X7561493Y-47759509D01*
X7618636Y-47759509D01*
X7647207Y-47773795D01*
X7661493Y-47788081D01*
X7675779Y-47816652D01*
X7675779Y-47902367D01*
X7661493Y-47930938D01*
X7647207Y-47945224D01*
X7618636Y-47959509D01*
X7561493Y-47959509D01*
X7532922Y-47945224D01*
X7804350Y-47930938D02*
X7818636Y-47945224D01*
X7804350Y-47959509D01*
X7790064Y-47945224D01*
X7804350Y-47930938D01*
X7804350Y-47959509D01*
X7804350Y-47773795D02*
X7818636Y-47788081D01*
X7804350Y-47802367D01*
X7790064Y-47788081D01*
X7804350Y-47773795D01*
X7804350Y-47802367D01*
X5420779Y-48433795D02*
X5460779Y-48473795D01*
X5460779Y-48433795D02*
X5420779Y-48473795D01*
X5804350Y-48289509D02*
X5832922Y-48289509D01*
X5861493Y-48303795D01*
X5875779Y-48318081D01*
X5890064Y-48346652D01*
X5904350Y-48403795D01*
X5904350Y-48475224D01*
X5890064Y-48532367D01*
X5875779Y-48560938D01*
X5861493Y-48575224D01*
X5832922Y-48589509D01*
X5804350Y-48589509D01*
X5775779Y-48575224D01*
X5761493Y-48560938D01*
X5747207Y-48532367D01*
X5732922Y-48475224D01*
X5732922Y-48403795D01*
X5747207Y-48346652D01*
X5761493Y-48318081D01*
X5775779Y-48303795D01*
X5804350Y-48289509D01*
X6032922Y-48560938D02*
X6047207Y-48575224D01*
X6032922Y-48589509D01*
X6018636Y-48575224D01*
X6032922Y-48560938D01*
X6032922Y-48589509D01*
X6304350Y-48389509D02*
X6304350Y-48589509D01*
X6232922Y-48275224D02*
X6161493Y-48489509D01*
X6347207Y-48489509D01*
X6518636Y-48289509D02*
X6547207Y-48289509D01*
X6575779Y-48303795D01*
X6590064Y-48318081D01*
X6604350Y-48346652D01*
X6618636Y-48403795D01*
X6618636Y-48475224D01*
X6604350Y-48532367D01*
X6590064Y-48560938D01*
X6575779Y-48575224D01*
X6547207Y-48589509D01*
X6518636Y-48589509D01*
X6490064Y-48575224D01*
X6475779Y-48560938D01*
X6461493Y-48532367D01*
X6447207Y-48475224D01*
X6447207Y-48403795D01*
X6461493Y-48346652D01*
X6475779Y-48318081D01*
X6490064Y-48303795D01*
X6518636Y-48289509D01*
X6747207Y-48589509D02*
X6747207Y-48389509D01*
X6747207Y-48418081D02*
X6761493Y-48403795D01*
X6790064Y-48389509D01*
X6832922Y-48389509D01*
X6861493Y-48403795D01*
X6875779Y-48432367D01*
X6875779Y-48589509D01*
X6875779Y-48432367D02*
X6890064Y-48403795D01*
X6918636Y-48389509D01*
X6961493Y-48389509D01*
X6990064Y-48403795D01*
X7004350Y-48432367D01*
X7004350Y-48589509D01*
X7147207Y-48589509D02*
X7147207Y-48389509D01*
X7147207Y-48418081D02*
X7161493Y-48403795D01*
X7190064Y-48389509D01*
X7232922Y-48389509D01*
X7261493Y-48403795D01*
X7275779Y-48432367D01*
X7275779Y-48589509D01*
X7275779Y-48432367D02*
X7290064Y-48403795D01*
X7318636Y-48389509D01*
X7361493Y-48389509D01*
X7390064Y-48403795D01*
X7404350Y-48432367D01*
X7404350Y-48589509D01*
X7990064Y-48275224D02*
X7732922Y-48660938D01*
X8375779Y-48289509D02*
X8404350Y-48289509D01*
X8432922Y-48303795D01*
X8447207Y-48318081D01*
X8461493Y-48346652D01*
X8475779Y-48403795D01*
X8475779Y-48475224D01*
X8461493Y-48532367D01*
X8447207Y-48560938D01*
X8432922Y-48575224D01*
X8404350Y-48589509D01*
X8375779Y-48589509D01*
X8347207Y-48575224D01*
X8332922Y-48560938D01*
X8318636Y-48532367D01*
X8304350Y-48475224D01*
X8304350Y-48403795D01*
X8318636Y-48346652D01*
X8332922Y-48318081D01*
X8347207Y-48303795D01*
X8375779Y-48289509D01*
X8604350Y-48560938D02*
X8618636Y-48575224D01*
X8604350Y-48589509D01*
X8590065Y-48575224D01*
X8604350Y-48560938D01*
X8604350Y-48589509D01*
X8804350Y-48289509D02*
X8832922Y-48289509D01*
X8861493Y-48303795D01*
X8875779Y-48318081D01*
X8890065Y-48346652D01*
X8904350Y-48403795D01*
X8904350Y-48475224D01*
X8890065Y-48532367D01*
X8875779Y-48560938D01*
X8861493Y-48575224D01*
X8832922Y-48589509D01*
X8804350Y-48589509D01*
X8775779Y-48575224D01*
X8761493Y-48560938D01*
X8747207Y-48532367D01*
X8732922Y-48475224D01*
X8732922Y-48403795D01*
X8747207Y-48346652D01*
X8761493Y-48318081D01*
X8775779Y-48303795D01*
X8804350Y-48289509D01*
X9190065Y-48589509D02*
X9018636Y-48589509D01*
X9104350Y-48589509D02*
X9104350Y-48289509D01*
X9075779Y-48332367D01*
X9047207Y-48360938D01*
X9018636Y-48375224D01*
X9447207Y-48289509D02*
X9390065Y-48289509D01*
X9361493Y-48303795D01*
X9347207Y-48318081D01*
X9318636Y-48360938D01*
X9304350Y-48418081D01*
X9304350Y-48532367D01*
X9318636Y-48560938D01*
X9332922Y-48575224D01*
X9361493Y-48589509D01*
X9418636Y-48589509D01*
X9447207Y-48575224D01*
X9461493Y-48560938D01*
X9475779Y-48532367D01*
X9475779Y-48460938D01*
X9461493Y-48432367D01*
X9447207Y-48418081D01*
X9418636Y-48403795D01*
X9361493Y-48403795D01*
X9332922Y-48418081D01*
X9318636Y-48432367D01*
X9304350Y-48460938D01*
X9590065Y-48289509D02*
X9590065Y-48346652D01*
X9704350Y-48289509D02*
X9704350Y-48346652D01*
X10147207Y-48703795D02*
X10132922Y-48689509D01*
X10104350Y-48646652D01*
X10090065Y-48618081D01*
X10075779Y-48575224D01*
X10061493Y-48503795D01*
X10061493Y-48446652D01*
X10075779Y-48375224D01*
X10090065Y-48332367D01*
X10104350Y-48303795D01*
X10132922Y-48260938D01*
X10147207Y-48246652D01*
X10404350Y-48289509D02*
X10261493Y-48289509D01*
X10247207Y-48432367D01*
X10261493Y-48418081D01*
X10290065Y-48403795D01*
X10361493Y-48403795D01*
X10390065Y-48418081D01*
X10404350Y-48432367D01*
X10418636Y-48460938D01*
X10418636Y-48532367D01*
X10404350Y-48560938D01*
X10390065Y-48575224D01*
X10361493Y-48589509D01*
X10290065Y-48589509D01*
X10261493Y-48575224D01*
X10247207Y-48560938D01*
X10675779Y-48289509D02*
X10618636Y-48289509D01*
X10590065Y-48303795D01*
X10575779Y-48318081D01*
X10547207Y-48360938D01*
X10532922Y-48418081D01*
X10532922Y-48532367D01*
X10547207Y-48560938D01*
X10561493Y-48575224D01*
X10590065Y-48589509D01*
X10647207Y-48589509D01*
X10675779Y-48575224D01*
X10690065Y-48560938D01*
X10704350Y-48532367D01*
X10704350Y-48460938D01*
X10690065Y-48432367D01*
X10675779Y-48418081D01*
X10647207Y-48403795D01*
X10590065Y-48403795D01*
X10561493Y-48418081D01*
X10547207Y-48432367D01*
X10532922Y-48460938D01*
X11061493Y-48589509D02*
X11061493Y-48289509D01*
X11190064Y-48589509D02*
X11190064Y-48432367D01*
X11175779Y-48403795D01*
X11147207Y-48389509D01*
X11104350Y-48389509D01*
X11075779Y-48403795D01*
X11061493Y-48418081D01*
X11375779Y-48589509D02*
X11347207Y-48575224D01*
X11332922Y-48560938D01*
X11318636Y-48532367D01*
X11318636Y-48446652D01*
X11332922Y-48418081D01*
X11347207Y-48403795D01*
X11375779Y-48389509D01*
X11418636Y-48389509D01*
X11447207Y-48403795D01*
X11461493Y-48418081D01*
X11475779Y-48446652D01*
X11475779Y-48532367D01*
X11461493Y-48560938D01*
X11447207Y-48575224D01*
X11418636Y-48589509D01*
X11375779Y-48589509D01*
X11647207Y-48589509D02*
X11618636Y-48575224D01*
X11604350Y-48546652D01*
X11604350Y-48289509D01*
X11875779Y-48575224D02*
X11847207Y-48589509D01*
X11790064Y-48589509D01*
X11761493Y-48575224D01*
X11747207Y-48546652D01*
X11747207Y-48432367D01*
X11761493Y-48403795D01*
X11790064Y-48389509D01*
X11847207Y-48389509D01*
X11875779Y-48403795D01*
X11890064Y-48432367D01*
X11890064Y-48460938D01*
X11747207Y-48489509D01*
X12004350Y-48575224D02*
X12032922Y-48589509D01*
X12090064Y-48589509D01*
X12118636Y-48575224D01*
X12132922Y-48546652D01*
X12132922Y-48532367D01*
X12118636Y-48503795D01*
X12090064Y-48489509D01*
X12047207Y-48489509D01*
X12018636Y-48475224D01*
X12004350Y-48446652D01*
X12004350Y-48432367D01*
X12018636Y-48403795D01*
X12047207Y-48389509D01*
X12090064Y-48389509D01*
X12118636Y-48403795D01*
X12232922Y-48703795D02*
X12247207Y-48689509D01*
X12275779Y-48646652D01*
X12290064Y-48618081D01*
X12304350Y-48575224D01*
X12318636Y-48503795D01*
X12318636Y-48446652D01*
X12304350Y-48375224D01*
X12290064Y-48332367D01*
X12275779Y-48303795D01*
X12247207Y-48260938D01*
X12232922Y-48246652D01*
X5460779Y-48849795D02*
G75*
G03X5460779Y-48849795I-30000J0D01*
G01*
X5804350Y-48685509D02*
X5832922Y-48685509D01*
X5861493Y-48699795D01*
X5875779Y-48714081D01*
X5890064Y-48742652D01*
X5904350Y-48799795D01*
X5904350Y-48871224D01*
X5890064Y-48928367D01*
X5875779Y-48956938D01*
X5861493Y-48971224D01*
X5832922Y-48985509D01*
X5804350Y-48985509D01*
X5775779Y-48971224D01*
X5761493Y-48956938D01*
X5747207Y-48928367D01*
X5732922Y-48871224D01*
X5732922Y-48799795D01*
X5747207Y-48742652D01*
X5761493Y-48714081D01*
X5775779Y-48699795D01*
X5804350Y-48685509D01*
X6032922Y-48956938D02*
X6047207Y-48971224D01*
X6032922Y-48985509D01*
X6018636Y-48971224D01*
X6032922Y-48956938D01*
X6032922Y-48985509D01*
X6304350Y-48685509D02*
X6247207Y-48685509D01*
X6218636Y-48699795D01*
X6204350Y-48714081D01*
X6175779Y-48756938D01*
X6161493Y-48814081D01*
X6161493Y-48928367D01*
X6175779Y-48956938D01*
X6190064Y-48971224D01*
X6218636Y-48985509D01*
X6275779Y-48985509D01*
X6304350Y-48971224D01*
X6318636Y-48956938D01*
X6332922Y-48928367D01*
X6332922Y-48856938D01*
X6318636Y-48828367D01*
X6304350Y-48814081D01*
X6275779Y-48799795D01*
X6218636Y-48799795D01*
X6190064Y-48814081D01*
X6175779Y-48828367D01*
X6161493Y-48856938D01*
X6518636Y-48685509D02*
X6547207Y-48685509D01*
X6575779Y-48699795D01*
X6590064Y-48714081D01*
X6604350Y-48742652D01*
X6618636Y-48799795D01*
X6618636Y-48871224D01*
X6604350Y-48928367D01*
X6590064Y-48956938D01*
X6575779Y-48971224D01*
X6547207Y-48985509D01*
X6518636Y-48985509D01*
X6490064Y-48971224D01*
X6475779Y-48956938D01*
X6461493Y-48928367D01*
X6447207Y-48871224D01*
X6447207Y-48799795D01*
X6461493Y-48742652D01*
X6475779Y-48714081D01*
X6490064Y-48699795D01*
X6518636Y-48685509D01*
X6747207Y-48985509D02*
X6747207Y-48785509D01*
X6747207Y-48814081D02*
X6761493Y-48799795D01*
X6790064Y-48785509D01*
X6832922Y-48785509D01*
X6861493Y-48799795D01*
X6875779Y-48828367D01*
X6875779Y-48985509D01*
X6875779Y-48828367D02*
X6890064Y-48799795D01*
X6918636Y-48785509D01*
X6961493Y-48785509D01*
X6990064Y-48799795D01*
X7004350Y-48828367D01*
X7004350Y-48985509D01*
X7147207Y-48985509D02*
X7147207Y-48785509D01*
X7147207Y-48814081D02*
X7161493Y-48799795D01*
X7190064Y-48785509D01*
X7232922Y-48785509D01*
X7261493Y-48799795D01*
X7275779Y-48828367D01*
X7275779Y-48985509D01*
X7275779Y-48828367D02*
X7290064Y-48799795D01*
X7318636Y-48785509D01*
X7361493Y-48785509D01*
X7390064Y-48799795D01*
X7404350Y-48828367D01*
X7404350Y-48985509D01*
X7990064Y-48671224D02*
X7732922Y-49056938D01*
X8375779Y-48685509D02*
X8404350Y-48685509D01*
X8432922Y-48699795D01*
X8447207Y-48714081D01*
X8461493Y-48742652D01*
X8475779Y-48799795D01*
X8475779Y-48871224D01*
X8461493Y-48928367D01*
X8447207Y-48956938D01*
X8432922Y-48971224D01*
X8404350Y-48985509D01*
X8375779Y-48985509D01*
X8347207Y-48971224D01*
X8332922Y-48956938D01*
X8318636Y-48928367D01*
X8304350Y-48871224D01*
X8304350Y-48799795D01*
X8318636Y-48742652D01*
X8332922Y-48714081D01*
X8347207Y-48699795D01*
X8375779Y-48685509D01*
X8604350Y-48956938D02*
X8618636Y-48971224D01*
X8604350Y-48985509D01*
X8590065Y-48971224D01*
X8604350Y-48956938D01*
X8604350Y-48985509D01*
X8804350Y-48685509D02*
X8832922Y-48685509D01*
X8861493Y-48699795D01*
X8875779Y-48714081D01*
X8890065Y-48742652D01*
X8904350Y-48799795D01*
X8904350Y-48871224D01*
X8890065Y-48928367D01*
X8875779Y-48956938D01*
X8861493Y-48971224D01*
X8832922Y-48985509D01*
X8804350Y-48985509D01*
X8775779Y-48971224D01*
X8761493Y-48956938D01*
X8747207Y-48928367D01*
X8732922Y-48871224D01*
X8732922Y-48799795D01*
X8747207Y-48742652D01*
X8761493Y-48714081D01*
X8775779Y-48699795D01*
X8804350Y-48685509D01*
X9018636Y-48714081D02*
X9032922Y-48699795D01*
X9061493Y-48685509D01*
X9132922Y-48685509D01*
X9161493Y-48699795D01*
X9175779Y-48714081D01*
X9190065Y-48742652D01*
X9190065Y-48771224D01*
X9175779Y-48814081D01*
X9004350Y-48985509D01*
X9190065Y-48985509D01*
X9447207Y-48785509D02*
X9447207Y-48985509D01*
X9375779Y-48671224D02*
X9304350Y-48885509D01*
X9490065Y-48885509D01*
X9590065Y-48685509D02*
X9590065Y-48742652D01*
X9704350Y-48685509D02*
X9704350Y-48742652D01*
X10147207Y-49099795D02*
X10132922Y-49085509D01*
X10104350Y-49042652D01*
X10090065Y-49014081D01*
X10075779Y-48971224D01*
X10061493Y-48899795D01*
X10061493Y-48842652D01*
X10075779Y-48771224D01*
X10090065Y-48728367D01*
X10104350Y-48699795D01*
X10132922Y-48656938D01*
X10147207Y-48642652D01*
X10318636Y-48685509D02*
X10347207Y-48685509D01*
X10375779Y-48699795D01*
X10390065Y-48714081D01*
X10404350Y-48742652D01*
X10418636Y-48799795D01*
X10418636Y-48871224D01*
X10404350Y-48928367D01*
X10390065Y-48956938D01*
X10375779Y-48971224D01*
X10347207Y-48985509D01*
X10318636Y-48985509D01*
X10290065Y-48971224D01*
X10275779Y-48956938D01*
X10261493Y-48928367D01*
X10247207Y-48871224D01*
X10247207Y-48799795D01*
X10261493Y-48742652D01*
X10275779Y-48714081D01*
X10290065Y-48699795D01*
X10318636Y-48685509D01*
X10775779Y-48985509D02*
X10775779Y-48685509D01*
X10904350Y-48985509D02*
X10904350Y-48828367D01*
X10890065Y-48799795D01*
X10861493Y-48785509D01*
X10818636Y-48785509D01*
X10790065Y-48799795D01*
X10775779Y-48814081D01*
X11090065Y-48985509D02*
X11061493Y-48971224D01*
X11047207Y-48956938D01*
X11032922Y-48928367D01*
X11032922Y-48842652D01*
X11047207Y-48814081D01*
X11061493Y-48799795D01*
X11090065Y-48785509D01*
X11132922Y-48785509D01*
X11161493Y-48799795D01*
X11175779Y-48814081D01*
X11190064Y-48842652D01*
X11190064Y-48928367D01*
X11175779Y-48956938D01*
X11161493Y-48971224D01*
X11132922Y-48985509D01*
X11090065Y-48985509D01*
X11361493Y-48985509D02*
X11332922Y-48971224D01*
X11318636Y-48942652D01*
X11318636Y-48685509D01*
X11590064Y-48971224D02*
X11561493Y-48985509D01*
X11504350Y-48985509D01*
X11475779Y-48971224D01*
X11461493Y-48942652D01*
X11461493Y-48828367D01*
X11475779Y-48799795D01*
X11504350Y-48785509D01*
X11561493Y-48785509D01*
X11590064Y-48799795D01*
X11604350Y-48828367D01*
X11604350Y-48856938D01*
X11461493Y-48885509D01*
X11718636Y-48971224D02*
X11747207Y-48985509D01*
X11804350Y-48985509D01*
X11832922Y-48971224D01*
X11847207Y-48942652D01*
X11847207Y-48928367D01*
X11832922Y-48899795D01*
X11804350Y-48885509D01*
X11761493Y-48885509D01*
X11732922Y-48871224D01*
X11718636Y-48842652D01*
X11718636Y-48828367D01*
X11732922Y-48799795D01*
X11761493Y-48785509D01*
X11804350Y-48785509D01*
X11832922Y-48799795D01*
X12204350Y-48871224D02*
X12432922Y-48871224D01*
X12318636Y-48985509D02*
X12318636Y-48756938D01*
X12932922Y-48785509D02*
X12932922Y-48985509D01*
X12861493Y-48671224D02*
X12790064Y-48885509D01*
X12975779Y-48885509D01*
X13304350Y-48971224D02*
X13332922Y-48985509D01*
X13390064Y-48985509D01*
X13418636Y-48971224D01*
X13432922Y-48942652D01*
X13432922Y-48928367D01*
X13418636Y-48899795D01*
X13390064Y-48885509D01*
X13347207Y-48885509D01*
X13318636Y-48871224D01*
X13304350Y-48842652D01*
X13304350Y-48828367D01*
X13318636Y-48799795D01*
X13347207Y-48785509D01*
X13390064Y-48785509D01*
X13418636Y-48799795D01*
X13604350Y-48985509D02*
X13575779Y-48971224D01*
X13561493Y-48942652D01*
X13561493Y-48685509D01*
X13761493Y-48985509D02*
X13732922Y-48971224D01*
X13718636Y-48956938D01*
X13704350Y-48928367D01*
X13704350Y-48842652D01*
X13718636Y-48814081D01*
X13732922Y-48799795D01*
X13761493Y-48785509D01*
X13804350Y-48785509D01*
X13832922Y-48799795D01*
X13847207Y-48814081D01*
X13861493Y-48842652D01*
X13861493Y-48928367D01*
X13847207Y-48956938D01*
X13832922Y-48971224D01*
X13804350Y-48985509D01*
X13761493Y-48985509D01*
X13947207Y-48785509D02*
X14061493Y-48785509D01*
X13990064Y-48685509D02*
X13990064Y-48942652D01*
X14004350Y-48971224D01*
X14032922Y-48985509D01*
X14061493Y-48985509D01*
X14147207Y-48971224D02*
X14175779Y-48985509D01*
X14232922Y-48985509D01*
X14261493Y-48971224D01*
X14275779Y-48942652D01*
X14275779Y-48928367D01*
X14261493Y-48899795D01*
X14232922Y-48885509D01*
X14190064Y-48885509D01*
X14161493Y-48871224D01*
X14147207Y-48842652D01*
X14147207Y-48828367D01*
X14161493Y-48799795D01*
X14190064Y-48785509D01*
X14232922Y-48785509D01*
X14261493Y-48799795D01*
X14375779Y-49099795D02*
X14390064Y-49085509D01*
X14418636Y-49042652D01*
X14432922Y-49014081D01*
X14447207Y-48971224D01*
X14461493Y-48899795D01*
X14461493Y-48842652D01*
X14447207Y-48771224D01*
X14432922Y-48728367D01*
X14418636Y-48699795D01*
X14390064Y-48656938D01*
X14375779Y-48642652D01*
X5410779Y-49195795D02*
X5410779Y-49295795D01*
X5360779Y-49245795D02*
X5460779Y-49245795D01*
X5904350Y-49381509D02*
X5732922Y-49381509D01*
X5818636Y-49381509D02*
X5818636Y-49081509D01*
X5790064Y-49124367D01*
X5761493Y-49152938D01*
X5732922Y-49167224D01*
X6032922Y-49352938D02*
X6047207Y-49367224D01*
X6032922Y-49381509D01*
X6018636Y-49367224D01*
X6032922Y-49352938D01*
X6032922Y-49381509D01*
X6232922Y-49081509D02*
X6261493Y-49081509D01*
X6290064Y-49095795D01*
X6304350Y-49110081D01*
X6318636Y-49138652D01*
X6332922Y-49195795D01*
X6332922Y-49267224D01*
X6318636Y-49324367D01*
X6304350Y-49352938D01*
X6290064Y-49367224D01*
X6261493Y-49381509D01*
X6232922Y-49381509D01*
X6204350Y-49367224D01*
X6190064Y-49352938D01*
X6175779Y-49324367D01*
X6161493Y-49267224D01*
X6161493Y-49195795D01*
X6175779Y-49138652D01*
X6190064Y-49110081D01*
X6204350Y-49095795D01*
X6232922Y-49081509D01*
X6518636Y-49081509D02*
X6547207Y-49081509D01*
X6575779Y-49095795D01*
X6590064Y-49110081D01*
X6604350Y-49138652D01*
X6618636Y-49195795D01*
X6618636Y-49267224D01*
X6604350Y-49324367D01*
X6590064Y-49352938D01*
X6575779Y-49367224D01*
X6547207Y-49381509D01*
X6518636Y-49381509D01*
X6490064Y-49367224D01*
X6475779Y-49352938D01*
X6461493Y-49324367D01*
X6447207Y-49267224D01*
X6447207Y-49195795D01*
X6461493Y-49138652D01*
X6475779Y-49110081D01*
X6490064Y-49095795D01*
X6518636Y-49081509D01*
X6747207Y-49381509D02*
X6747207Y-49181509D01*
X6747207Y-49210081D02*
X6761493Y-49195795D01*
X6790064Y-49181509D01*
X6832922Y-49181509D01*
X6861493Y-49195795D01*
X6875779Y-49224367D01*
X6875779Y-49381509D01*
X6875779Y-49224367D02*
X6890064Y-49195795D01*
X6918636Y-49181509D01*
X6961493Y-49181509D01*
X6990064Y-49195795D01*
X7004350Y-49224367D01*
X7004350Y-49381509D01*
X7147207Y-49381509D02*
X7147207Y-49181509D01*
X7147207Y-49210081D02*
X7161493Y-49195795D01*
X7190064Y-49181509D01*
X7232922Y-49181509D01*
X7261493Y-49195795D01*
X7275779Y-49224367D01*
X7275779Y-49381509D01*
X7275779Y-49224367D02*
X7290064Y-49195795D01*
X7318636Y-49181509D01*
X7361493Y-49181509D01*
X7390064Y-49195795D01*
X7404350Y-49224367D01*
X7404350Y-49381509D01*
X7990064Y-49067224D02*
X7732922Y-49452938D01*
X8375779Y-49081509D02*
X8404350Y-49081509D01*
X8432922Y-49095795D01*
X8447207Y-49110081D01*
X8461493Y-49138652D01*
X8475779Y-49195795D01*
X8475779Y-49267224D01*
X8461493Y-49324367D01*
X8447207Y-49352938D01*
X8432922Y-49367224D01*
X8404350Y-49381509D01*
X8375779Y-49381509D01*
X8347207Y-49367224D01*
X8332922Y-49352938D01*
X8318636Y-49324367D01*
X8304350Y-49267224D01*
X8304350Y-49195795D01*
X8318636Y-49138652D01*
X8332922Y-49110081D01*
X8347207Y-49095795D01*
X8375779Y-49081509D01*
X8604350Y-49352938D02*
X8618636Y-49367224D01*
X8604350Y-49381509D01*
X8590065Y-49367224D01*
X8604350Y-49352938D01*
X8604350Y-49381509D01*
X8804350Y-49081509D02*
X8832922Y-49081509D01*
X8861493Y-49095795D01*
X8875779Y-49110081D01*
X8890065Y-49138652D01*
X8904350Y-49195795D01*
X8904350Y-49267224D01*
X8890065Y-49324367D01*
X8875779Y-49352938D01*
X8861493Y-49367224D01*
X8832922Y-49381509D01*
X8804350Y-49381509D01*
X8775779Y-49367224D01*
X8761493Y-49352938D01*
X8747207Y-49324367D01*
X8732922Y-49267224D01*
X8732922Y-49195795D01*
X8747207Y-49138652D01*
X8761493Y-49110081D01*
X8775779Y-49095795D01*
X8804350Y-49081509D01*
X9004350Y-49081509D02*
X9190065Y-49081509D01*
X9090065Y-49195795D01*
X9132922Y-49195795D01*
X9161493Y-49210081D01*
X9175779Y-49224367D01*
X9190065Y-49252938D01*
X9190065Y-49324367D01*
X9175779Y-49352938D01*
X9161493Y-49367224D01*
X9132922Y-49381509D01*
X9047207Y-49381509D01*
X9018636Y-49367224D01*
X9004350Y-49352938D01*
X9332922Y-49381509D02*
X9390065Y-49381509D01*
X9418636Y-49367224D01*
X9432922Y-49352938D01*
X9461493Y-49310081D01*
X9475779Y-49252938D01*
X9475779Y-49138652D01*
X9461493Y-49110081D01*
X9447207Y-49095795D01*
X9418636Y-49081509D01*
X9361493Y-49081509D01*
X9332922Y-49095795D01*
X9318636Y-49110081D01*
X9304350Y-49138652D01*
X9304350Y-49210081D01*
X9318636Y-49238652D01*
X9332922Y-49252938D01*
X9361493Y-49267224D01*
X9418636Y-49267224D01*
X9447207Y-49252938D01*
X9461493Y-49238652D01*
X9475779Y-49210081D01*
X9590065Y-49081509D02*
X9590065Y-49138652D01*
X9704350Y-49081509D02*
X9704350Y-49138652D01*
X10147207Y-49495795D02*
X10132922Y-49481509D01*
X10104350Y-49438652D01*
X10090065Y-49410081D01*
X10075779Y-49367224D01*
X10061493Y-49295795D01*
X10061493Y-49238652D01*
X10075779Y-49167224D01*
X10090065Y-49124367D01*
X10104350Y-49095795D01*
X10132922Y-49052938D01*
X10147207Y-49038652D01*
X10390065Y-49181509D02*
X10390065Y-49381509D01*
X10318636Y-49067224D02*
X10247207Y-49281509D01*
X10432922Y-49281509D01*
X10590065Y-49210081D02*
X10561493Y-49195795D01*
X10547207Y-49181509D01*
X10532922Y-49152938D01*
X10532922Y-49138652D01*
X10547207Y-49110081D01*
X10561493Y-49095795D01*
X10590065Y-49081509D01*
X10647207Y-49081509D01*
X10675779Y-49095795D01*
X10690065Y-49110081D01*
X10704350Y-49138652D01*
X10704350Y-49152938D01*
X10690065Y-49181509D01*
X10675779Y-49195795D01*
X10647207Y-49210081D01*
X10590065Y-49210081D01*
X10561493Y-49224367D01*
X10547207Y-49238652D01*
X10532922Y-49267224D01*
X10532922Y-49324367D01*
X10547207Y-49352938D01*
X10561493Y-49367224D01*
X10590065Y-49381509D01*
X10647207Y-49381509D01*
X10675779Y-49367224D01*
X10690065Y-49352938D01*
X10704350Y-49324367D01*
X10704350Y-49267224D01*
X10690065Y-49238652D01*
X10675779Y-49224367D01*
X10647207Y-49210081D01*
X11061493Y-49381509D02*
X11061493Y-49081509D01*
X11190064Y-49381509D02*
X11190064Y-49224367D01*
X11175779Y-49195795D01*
X11147207Y-49181509D01*
X11104350Y-49181509D01*
X11075779Y-49195795D01*
X11061493Y-49210081D01*
X11375779Y-49381509D02*
X11347207Y-49367224D01*
X11332922Y-49352938D01*
X11318636Y-49324367D01*
X11318636Y-49238652D01*
X11332922Y-49210081D01*
X11347207Y-49195795D01*
X11375779Y-49181509D01*
X11418636Y-49181509D01*
X11447207Y-49195795D01*
X11461493Y-49210081D01*
X11475779Y-49238652D01*
X11475779Y-49324367D01*
X11461493Y-49352938D01*
X11447207Y-49367224D01*
X11418636Y-49381509D01*
X11375779Y-49381509D01*
X11647207Y-49381509D02*
X11618636Y-49367224D01*
X11604350Y-49338652D01*
X11604350Y-49081509D01*
X11875779Y-49367224D02*
X11847207Y-49381509D01*
X11790064Y-49381509D01*
X11761493Y-49367224D01*
X11747207Y-49338652D01*
X11747207Y-49224367D01*
X11761493Y-49195795D01*
X11790064Y-49181509D01*
X11847207Y-49181509D01*
X11875779Y-49195795D01*
X11890064Y-49224367D01*
X11890064Y-49252938D01*
X11747207Y-49281509D01*
X12004350Y-49367224D02*
X12032922Y-49381509D01*
X12090064Y-49381509D01*
X12118636Y-49367224D01*
X12132922Y-49338652D01*
X12132922Y-49324367D01*
X12118636Y-49295795D01*
X12090064Y-49281509D01*
X12047207Y-49281509D01*
X12018636Y-49267224D01*
X12004350Y-49238652D01*
X12004350Y-49224367D01*
X12018636Y-49195795D01*
X12047207Y-49181509D01*
X12090064Y-49181509D01*
X12118636Y-49195795D01*
X12232922Y-49495795D02*
X12247207Y-49481509D01*
X12275779Y-49438652D01*
X12290064Y-49410081D01*
X12304350Y-49367224D01*
X12318636Y-49295795D01*
X12318636Y-49238652D01*
X12304350Y-49167224D01*
X12290064Y-49124367D01*
X12275779Y-49095795D01*
X12247207Y-49052938D01*
X12232922Y-49038652D01*
X5445402Y-49678919D02*
X5445402Y-49604672D01*
X5371155Y-49604672D01*
X5371155Y-49678919D01*
X5445402Y-49678919D01*
X5904350Y-49777509D02*
X5732922Y-49777509D01*
X5818636Y-49777509D02*
X5818636Y-49477509D01*
X5790064Y-49520367D01*
X5761493Y-49548938D01*
X5732922Y-49563224D01*
X6032922Y-49748938D02*
X6047207Y-49763224D01*
X6032922Y-49777509D01*
X6018636Y-49763224D01*
X6032922Y-49748938D01*
X6032922Y-49777509D01*
X6232922Y-49477509D02*
X6261493Y-49477509D01*
X6290064Y-49491795D01*
X6304350Y-49506081D01*
X6318636Y-49534652D01*
X6332922Y-49591795D01*
X6332922Y-49663224D01*
X6318636Y-49720367D01*
X6304350Y-49748938D01*
X6290064Y-49763224D01*
X6261493Y-49777509D01*
X6232922Y-49777509D01*
X6204350Y-49763224D01*
X6190064Y-49748938D01*
X6175779Y-49720367D01*
X6161493Y-49663224D01*
X6161493Y-49591795D01*
X6175779Y-49534652D01*
X6190064Y-49506081D01*
X6204350Y-49491795D01*
X6232922Y-49477509D01*
X6604350Y-49477509D02*
X6461493Y-49477509D01*
X6447207Y-49620367D01*
X6461493Y-49606081D01*
X6490064Y-49591795D01*
X6561493Y-49591795D01*
X6590064Y-49606081D01*
X6604350Y-49620367D01*
X6618636Y-49648938D01*
X6618636Y-49720367D01*
X6604350Y-49748938D01*
X6590064Y-49763224D01*
X6561493Y-49777509D01*
X6490064Y-49777509D01*
X6461493Y-49763224D01*
X6447207Y-49748938D01*
X6747207Y-49777509D02*
X6747207Y-49577509D01*
X6747207Y-49606081D02*
X6761493Y-49591795D01*
X6790064Y-49577509D01*
X6832922Y-49577509D01*
X6861493Y-49591795D01*
X6875779Y-49620367D01*
X6875779Y-49777509D01*
X6875779Y-49620367D02*
X6890064Y-49591795D01*
X6918636Y-49577509D01*
X6961493Y-49577509D01*
X6990064Y-49591795D01*
X7004350Y-49620367D01*
X7004350Y-49777509D01*
X7147207Y-49777509D02*
X7147207Y-49577509D01*
X7147207Y-49606081D02*
X7161493Y-49591795D01*
X7190064Y-49577509D01*
X7232922Y-49577509D01*
X7261493Y-49591795D01*
X7275779Y-49620367D01*
X7275779Y-49777509D01*
X7275779Y-49620367D02*
X7290064Y-49591795D01*
X7318636Y-49577509D01*
X7361493Y-49577509D01*
X7390064Y-49591795D01*
X7404350Y-49620367D01*
X7404350Y-49777509D01*
X7990064Y-49463224D02*
X7732922Y-49848938D01*
X8375779Y-49477509D02*
X8404350Y-49477509D01*
X8432922Y-49491795D01*
X8447207Y-49506081D01*
X8461493Y-49534652D01*
X8475779Y-49591795D01*
X8475779Y-49663224D01*
X8461493Y-49720367D01*
X8447207Y-49748938D01*
X8432922Y-49763224D01*
X8404350Y-49777509D01*
X8375779Y-49777509D01*
X8347207Y-49763224D01*
X8332922Y-49748938D01*
X8318636Y-49720367D01*
X8304350Y-49663224D01*
X8304350Y-49591795D01*
X8318636Y-49534652D01*
X8332922Y-49506081D01*
X8347207Y-49491795D01*
X8375779Y-49477509D01*
X8604350Y-49748938D02*
X8618636Y-49763224D01*
X8604350Y-49777509D01*
X8590065Y-49763224D01*
X8604350Y-49748938D01*
X8604350Y-49777509D01*
X8804350Y-49477509D02*
X8832922Y-49477509D01*
X8861493Y-49491795D01*
X8875779Y-49506081D01*
X8890065Y-49534652D01*
X8904350Y-49591795D01*
X8904350Y-49663224D01*
X8890065Y-49720367D01*
X8875779Y-49748938D01*
X8861493Y-49763224D01*
X8832922Y-49777509D01*
X8804350Y-49777509D01*
X8775779Y-49763224D01*
X8761493Y-49748938D01*
X8747207Y-49720367D01*
X8732922Y-49663224D01*
X8732922Y-49591795D01*
X8747207Y-49534652D01*
X8761493Y-49506081D01*
X8775779Y-49491795D01*
X8804350Y-49477509D01*
X9161493Y-49577509D02*
X9161493Y-49777509D01*
X9090065Y-49463224D02*
X9018636Y-49677509D01*
X9204350Y-49677509D01*
X9475779Y-49777509D02*
X9304350Y-49777509D01*
X9390065Y-49777509D02*
X9390065Y-49477509D01*
X9361493Y-49520367D01*
X9332922Y-49548938D01*
X9304350Y-49563224D01*
X9590065Y-49477509D02*
X9590065Y-49534652D01*
X9704350Y-49477509D02*
X9704350Y-49534652D01*
X10147207Y-49891795D02*
X10132922Y-49877509D01*
X10104350Y-49834652D01*
X10090065Y-49806081D01*
X10075779Y-49763224D01*
X10061493Y-49691795D01*
X10061493Y-49634652D01*
X10075779Y-49563224D01*
X10090065Y-49520367D01*
X10104350Y-49491795D01*
X10132922Y-49448938D01*
X10147207Y-49434652D01*
X10418636Y-49777509D02*
X10247207Y-49777509D01*
X10332922Y-49777509D02*
X10332922Y-49477509D01*
X10304350Y-49520367D01*
X10275779Y-49548938D01*
X10247207Y-49563224D01*
X10604350Y-49477509D02*
X10632922Y-49477509D01*
X10661493Y-49491795D01*
X10675779Y-49506081D01*
X10690065Y-49534652D01*
X10704350Y-49591795D01*
X10704350Y-49663224D01*
X10690065Y-49720367D01*
X10675779Y-49748938D01*
X10661493Y-49763224D01*
X10632922Y-49777509D01*
X10604350Y-49777509D01*
X10575779Y-49763224D01*
X10561493Y-49748938D01*
X10547207Y-49720367D01*
X10532922Y-49663224D01*
X10532922Y-49591795D01*
X10547207Y-49534652D01*
X10561493Y-49506081D01*
X10575779Y-49491795D01*
X10604350Y-49477509D01*
X11061493Y-49777509D02*
X11061493Y-49477509D01*
X11190064Y-49777509D02*
X11190064Y-49620367D01*
X11175779Y-49591795D01*
X11147207Y-49577509D01*
X11104350Y-49577509D01*
X11075779Y-49591795D01*
X11061493Y-49606081D01*
X11375779Y-49777509D02*
X11347207Y-49763224D01*
X11332922Y-49748938D01*
X11318636Y-49720367D01*
X11318636Y-49634652D01*
X11332922Y-49606081D01*
X11347207Y-49591795D01*
X11375779Y-49577509D01*
X11418636Y-49577509D01*
X11447207Y-49591795D01*
X11461493Y-49606081D01*
X11475779Y-49634652D01*
X11475779Y-49720367D01*
X11461493Y-49748938D01*
X11447207Y-49763224D01*
X11418636Y-49777509D01*
X11375779Y-49777509D01*
X11647207Y-49777509D02*
X11618636Y-49763224D01*
X11604350Y-49734652D01*
X11604350Y-49477509D01*
X11875779Y-49763224D02*
X11847207Y-49777509D01*
X11790064Y-49777509D01*
X11761493Y-49763224D01*
X11747207Y-49734652D01*
X11747207Y-49620367D01*
X11761493Y-49591795D01*
X11790064Y-49577509D01*
X11847207Y-49577509D01*
X11875779Y-49591795D01*
X11890064Y-49620367D01*
X11890064Y-49648938D01*
X11747207Y-49677509D01*
X12004350Y-49763224D02*
X12032922Y-49777509D01*
X12090064Y-49777509D01*
X12118636Y-49763224D01*
X12132922Y-49734652D01*
X12132922Y-49720367D01*
X12118636Y-49691795D01*
X12090064Y-49677509D01*
X12047207Y-49677509D01*
X12018636Y-49663224D01*
X12004350Y-49634652D01*
X12004350Y-49620367D01*
X12018636Y-49591795D01*
X12047207Y-49577509D01*
X12090064Y-49577509D01*
X12118636Y-49591795D01*
X12232922Y-49891795D02*
X12247207Y-49877509D01*
X12275779Y-49834652D01*
X12290064Y-49806081D01*
X12304350Y-49763224D01*
X12318636Y-49691795D01*
X12318636Y-49634652D01*
X12304350Y-49563224D01*
X12290064Y-49520367D01*
X12275779Y-49491795D01*
X12247207Y-49448938D01*
X12232922Y-49434652D01*
X5387279Y-50111295D02*
X5460779Y-50037795D01*
X5387279Y-49964295D01*
X5313779Y-50037795D01*
X5387279Y-50111295D01*
X5904350Y-50173509D02*
X5732922Y-50173509D01*
X5818636Y-50173509D02*
X5818636Y-49873509D01*
X5790064Y-49916367D01*
X5761493Y-49944938D01*
X5732922Y-49959224D01*
X6032922Y-50144938D02*
X6047207Y-50159224D01*
X6032922Y-50173509D01*
X6018636Y-50159224D01*
X6032922Y-50144938D01*
X6032922Y-50173509D01*
X6304350Y-49973509D02*
X6304350Y-50173509D01*
X6232922Y-49859224D02*
X6161493Y-50073509D01*
X6347207Y-50073509D01*
X6432922Y-49873509D02*
X6632922Y-49873509D01*
X6504350Y-50173509D01*
X6747207Y-50173509D02*
X6747207Y-49973509D01*
X6747207Y-50002081D02*
X6761493Y-49987795D01*
X6790064Y-49973509D01*
X6832922Y-49973509D01*
X6861493Y-49987795D01*
X6875779Y-50016367D01*
X6875779Y-50173509D01*
X6875779Y-50016367D02*
X6890064Y-49987795D01*
X6918636Y-49973509D01*
X6961493Y-49973509D01*
X6990064Y-49987795D01*
X7004350Y-50016367D01*
X7004350Y-50173509D01*
X7147207Y-50173509D02*
X7147207Y-49973509D01*
X7147207Y-50002081D02*
X7161493Y-49987795D01*
X7190064Y-49973509D01*
X7232922Y-49973509D01*
X7261493Y-49987795D01*
X7275779Y-50016367D01*
X7275779Y-50173509D01*
X7275779Y-50016367D02*
X7290064Y-49987795D01*
X7318636Y-49973509D01*
X7361493Y-49973509D01*
X7390064Y-49987795D01*
X7404350Y-50016367D01*
X7404350Y-50173509D01*
X7990064Y-49859224D02*
X7732922Y-50244938D01*
X8375779Y-49873509D02*
X8404350Y-49873509D01*
X8432922Y-49887795D01*
X8447207Y-49902081D01*
X8461493Y-49930652D01*
X8475779Y-49987795D01*
X8475779Y-50059224D01*
X8461493Y-50116367D01*
X8447207Y-50144938D01*
X8432922Y-50159224D01*
X8404350Y-50173509D01*
X8375779Y-50173509D01*
X8347207Y-50159224D01*
X8332922Y-50144938D01*
X8318636Y-50116367D01*
X8304350Y-50059224D01*
X8304350Y-49987795D01*
X8318636Y-49930652D01*
X8332922Y-49902081D01*
X8347207Y-49887795D01*
X8375779Y-49873509D01*
X8604350Y-50144938D02*
X8618636Y-50159224D01*
X8604350Y-50173509D01*
X8590065Y-50159224D01*
X8604350Y-50144938D01*
X8604350Y-50173509D01*
X8804350Y-49873509D02*
X8832922Y-49873509D01*
X8861493Y-49887795D01*
X8875779Y-49902081D01*
X8890065Y-49930652D01*
X8904350Y-49987795D01*
X8904350Y-50059224D01*
X8890065Y-50116367D01*
X8875779Y-50144938D01*
X8861493Y-50159224D01*
X8832922Y-50173509D01*
X8804350Y-50173509D01*
X8775779Y-50159224D01*
X8761493Y-50144938D01*
X8747207Y-50116367D01*
X8732922Y-50059224D01*
X8732922Y-49987795D01*
X8747207Y-49930652D01*
X8761493Y-49902081D01*
X8775779Y-49887795D01*
X8804350Y-49873509D01*
X9175779Y-49873509D02*
X9032922Y-49873509D01*
X9018636Y-50016367D01*
X9032922Y-50002081D01*
X9061493Y-49987795D01*
X9132922Y-49987795D01*
X9161493Y-50002081D01*
X9175779Y-50016367D01*
X9190065Y-50044938D01*
X9190065Y-50116367D01*
X9175779Y-50144938D01*
X9161493Y-50159224D01*
X9132922Y-50173509D01*
X9061493Y-50173509D01*
X9032922Y-50159224D01*
X9018636Y-50144938D01*
X9361493Y-50002081D02*
X9332922Y-49987795D01*
X9318636Y-49973509D01*
X9304350Y-49944938D01*
X9304350Y-49930652D01*
X9318636Y-49902081D01*
X9332922Y-49887795D01*
X9361493Y-49873509D01*
X9418636Y-49873509D01*
X9447207Y-49887795D01*
X9461493Y-49902081D01*
X9475779Y-49930652D01*
X9475779Y-49944938D01*
X9461493Y-49973509D01*
X9447207Y-49987795D01*
X9418636Y-50002081D01*
X9361493Y-50002081D01*
X9332922Y-50016367D01*
X9318636Y-50030652D01*
X9304350Y-50059224D01*
X9304350Y-50116367D01*
X9318636Y-50144938D01*
X9332922Y-50159224D01*
X9361493Y-50173509D01*
X9418636Y-50173509D01*
X9447207Y-50159224D01*
X9461493Y-50144938D01*
X9475779Y-50116367D01*
X9475779Y-50059224D01*
X9461493Y-50030652D01*
X9447207Y-50016367D01*
X9418636Y-50002081D01*
X9590065Y-49873509D02*
X9590065Y-49930652D01*
X9704350Y-49873509D02*
X9704350Y-49930652D01*
X10147207Y-50287795D02*
X10132922Y-50273509D01*
X10104350Y-50230652D01*
X10090065Y-50202081D01*
X10075779Y-50159224D01*
X10061493Y-50087795D01*
X10061493Y-50030652D01*
X10075779Y-49959224D01*
X10090065Y-49916367D01*
X10104350Y-49887795D01*
X10132922Y-49844938D01*
X10147207Y-49830652D01*
X10390065Y-49973509D02*
X10390065Y-50173509D01*
X10318636Y-49859224D02*
X10247207Y-50073509D01*
X10432922Y-50073509D01*
X10604350Y-49873509D02*
X10632922Y-49873509D01*
X10661493Y-49887795D01*
X10675779Y-49902081D01*
X10690065Y-49930652D01*
X10704350Y-49987795D01*
X10704350Y-50059224D01*
X10690065Y-50116367D01*
X10675779Y-50144938D01*
X10661493Y-50159224D01*
X10632922Y-50173509D01*
X10604350Y-50173509D01*
X10575779Y-50159224D01*
X10561493Y-50144938D01*
X10547207Y-50116367D01*
X10532922Y-50059224D01*
X10532922Y-49987795D01*
X10547207Y-49930652D01*
X10561493Y-49902081D01*
X10575779Y-49887795D01*
X10604350Y-49873509D01*
X11061493Y-50173509D02*
X11061493Y-49873509D01*
X11190064Y-50173509D02*
X11190064Y-50016367D01*
X11175779Y-49987795D01*
X11147207Y-49973509D01*
X11104350Y-49973509D01*
X11075779Y-49987795D01*
X11061493Y-50002081D01*
X11375779Y-50173509D02*
X11347207Y-50159224D01*
X11332922Y-50144938D01*
X11318636Y-50116367D01*
X11318636Y-50030652D01*
X11332922Y-50002081D01*
X11347207Y-49987795D01*
X11375779Y-49973509D01*
X11418636Y-49973509D01*
X11447207Y-49987795D01*
X11461493Y-50002081D01*
X11475779Y-50030652D01*
X11475779Y-50116367D01*
X11461493Y-50144938D01*
X11447207Y-50159224D01*
X11418636Y-50173509D01*
X11375779Y-50173509D01*
X11647207Y-50173509D02*
X11618636Y-50159224D01*
X11604350Y-50130652D01*
X11604350Y-49873509D01*
X11875779Y-50159224D02*
X11847207Y-50173509D01*
X11790064Y-50173509D01*
X11761493Y-50159224D01*
X11747207Y-50130652D01*
X11747207Y-50016367D01*
X11761493Y-49987795D01*
X11790064Y-49973509D01*
X11847207Y-49973509D01*
X11875779Y-49987795D01*
X11890064Y-50016367D01*
X11890064Y-50044938D01*
X11747207Y-50073509D01*
X12004350Y-50159224D02*
X12032922Y-50173509D01*
X12090064Y-50173509D01*
X12118636Y-50159224D01*
X12132922Y-50130652D01*
X12132922Y-50116367D01*
X12118636Y-50087795D01*
X12090064Y-50073509D01*
X12047207Y-50073509D01*
X12018636Y-50059224D01*
X12004350Y-50030652D01*
X12004350Y-50016367D01*
X12018636Y-49987795D01*
X12047207Y-49973509D01*
X12090064Y-49973509D01*
X12118636Y-49987795D01*
X12232922Y-50287795D02*
X12247207Y-50273509D01*
X12275779Y-50230652D01*
X12290064Y-50202081D01*
X12304350Y-50159224D01*
X12318636Y-50087795D01*
X12318636Y-50030652D01*
X12304350Y-49959224D01*
X12290064Y-49916367D01*
X12275779Y-49887795D01*
X12247207Y-49844938D01*
X12232922Y-49830652D01*
X5310779Y-50358795D02*
X5460779Y-50508795D01*
X5460779Y-50358795D02*
X5310779Y-50508795D01*
X5460779Y-50433795D02*
G75*
G03X5460779Y-50433795I-75000J0D01*
G01*
X5904350Y-50569509D02*
X5732922Y-50569509D01*
X5818636Y-50569509D02*
X5818636Y-50269509D01*
X5790064Y-50312367D01*
X5761493Y-50340938D01*
X5732922Y-50355224D01*
X6032922Y-50540938D02*
X6047207Y-50555224D01*
X6032922Y-50569509D01*
X6018636Y-50555224D01*
X6032922Y-50540938D01*
X6032922Y-50569509D01*
X6318636Y-50269509D02*
X6175779Y-50269509D01*
X6161493Y-50412367D01*
X6175779Y-50398081D01*
X6204350Y-50383795D01*
X6275779Y-50383795D01*
X6304350Y-50398081D01*
X6318636Y-50412367D01*
X6332922Y-50440938D01*
X6332922Y-50512367D01*
X6318636Y-50540938D01*
X6304350Y-50555224D01*
X6275779Y-50569509D01*
X6204350Y-50569509D01*
X6175779Y-50555224D01*
X6161493Y-50540938D01*
X6518636Y-50269509D02*
X6547207Y-50269509D01*
X6575779Y-50283795D01*
X6590064Y-50298081D01*
X6604350Y-50326652D01*
X6618636Y-50383795D01*
X6618636Y-50455224D01*
X6604350Y-50512367D01*
X6590064Y-50540938D01*
X6575779Y-50555224D01*
X6547207Y-50569509D01*
X6518636Y-50569509D01*
X6490064Y-50555224D01*
X6475779Y-50540938D01*
X6461493Y-50512367D01*
X6447207Y-50455224D01*
X6447207Y-50383795D01*
X6461493Y-50326652D01*
X6475779Y-50298081D01*
X6490064Y-50283795D01*
X6518636Y-50269509D01*
X6747207Y-50569509D02*
X6747207Y-50369509D01*
X6747207Y-50398081D02*
X6761493Y-50383795D01*
X6790064Y-50369509D01*
X6832922Y-50369509D01*
X6861493Y-50383795D01*
X6875779Y-50412367D01*
X6875779Y-50569509D01*
X6875779Y-50412367D02*
X6890064Y-50383795D01*
X6918636Y-50369509D01*
X6961493Y-50369509D01*
X6990064Y-50383795D01*
X7004350Y-50412367D01*
X7004350Y-50569509D01*
X7147207Y-50569509D02*
X7147207Y-50369509D01*
X7147207Y-50398081D02*
X7161493Y-50383795D01*
X7190064Y-50369509D01*
X7232922Y-50369509D01*
X7261493Y-50383795D01*
X7275779Y-50412367D01*
X7275779Y-50569509D01*
X7275779Y-50412367D02*
X7290064Y-50383795D01*
X7318636Y-50369509D01*
X7361493Y-50369509D01*
X7390064Y-50383795D01*
X7404350Y-50412367D01*
X7404350Y-50569509D01*
X7990064Y-50255224D02*
X7732922Y-50640938D01*
X8375779Y-50269509D02*
X8404350Y-50269509D01*
X8432922Y-50283795D01*
X8447207Y-50298081D01*
X8461493Y-50326652D01*
X8475779Y-50383795D01*
X8475779Y-50455224D01*
X8461493Y-50512367D01*
X8447207Y-50540938D01*
X8432922Y-50555224D01*
X8404350Y-50569509D01*
X8375779Y-50569509D01*
X8347207Y-50555224D01*
X8332922Y-50540938D01*
X8318636Y-50512367D01*
X8304350Y-50455224D01*
X8304350Y-50383795D01*
X8318636Y-50326652D01*
X8332922Y-50298081D01*
X8347207Y-50283795D01*
X8375779Y-50269509D01*
X8604350Y-50540938D02*
X8618636Y-50555224D01*
X8604350Y-50569509D01*
X8590065Y-50555224D01*
X8604350Y-50540938D01*
X8604350Y-50569509D01*
X8804350Y-50269509D02*
X8832922Y-50269509D01*
X8861493Y-50283795D01*
X8875779Y-50298081D01*
X8890065Y-50326652D01*
X8904350Y-50383795D01*
X8904350Y-50455224D01*
X8890065Y-50512367D01*
X8875779Y-50540938D01*
X8861493Y-50555224D01*
X8832922Y-50569509D01*
X8804350Y-50569509D01*
X8775779Y-50555224D01*
X8761493Y-50540938D01*
X8747207Y-50512367D01*
X8732922Y-50455224D01*
X8732922Y-50383795D01*
X8747207Y-50326652D01*
X8761493Y-50298081D01*
X8775779Y-50283795D01*
X8804350Y-50269509D01*
X9175779Y-50269509D02*
X9032922Y-50269509D01*
X9018636Y-50412367D01*
X9032922Y-50398081D01*
X9061493Y-50383795D01*
X9132922Y-50383795D01*
X9161493Y-50398081D01*
X9175779Y-50412367D01*
X9190065Y-50440938D01*
X9190065Y-50512367D01*
X9175779Y-50540938D01*
X9161493Y-50555224D01*
X9132922Y-50569509D01*
X9061493Y-50569509D01*
X9032922Y-50555224D01*
X9018636Y-50540938D01*
X9332922Y-50569509D02*
X9390065Y-50569509D01*
X9418636Y-50555224D01*
X9432922Y-50540938D01*
X9461493Y-50498081D01*
X9475779Y-50440938D01*
X9475779Y-50326652D01*
X9461493Y-50298081D01*
X9447207Y-50283795D01*
X9418636Y-50269509D01*
X9361493Y-50269509D01*
X9332922Y-50283795D01*
X9318636Y-50298081D01*
X9304350Y-50326652D01*
X9304350Y-50398081D01*
X9318636Y-50426652D01*
X9332922Y-50440938D01*
X9361493Y-50455224D01*
X9418636Y-50455224D01*
X9447207Y-50440938D01*
X9461493Y-50426652D01*
X9475779Y-50398081D01*
X9590065Y-50269509D02*
X9590065Y-50326652D01*
X9704350Y-50269509D02*
X9704350Y-50326652D01*
X10147207Y-50683795D02*
X10132922Y-50669509D01*
X10104350Y-50626652D01*
X10090065Y-50598081D01*
X10075779Y-50555224D01*
X10061493Y-50483795D01*
X10061493Y-50426652D01*
X10075779Y-50355224D01*
X10090065Y-50312367D01*
X10104350Y-50283795D01*
X10132922Y-50240938D01*
X10147207Y-50226652D01*
X10247207Y-50298081D02*
X10261493Y-50283795D01*
X10290065Y-50269509D01*
X10361493Y-50269509D01*
X10390065Y-50283795D01*
X10404350Y-50298081D01*
X10418636Y-50326652D01*
X10418636Y-50355224D01*
X10404350Y-50398081D01*
X10232922Y-50569509D01*
X10418636Y-50569509D01*
X10775779Y-50569509D02*
X10775779Y-50269509D01*
X10904350Y-50569509D02*
X10904350Y-50412367D01*
X10890065Y-50383795D01*
X10861493Y-50369509D01*
X10818636Y-50369509D01*
X10790065Y-50383795D01*
X10775779Y-50398081D01*
X11090065Y-50569509D02*
X11061493Y-50555224D01*
X11047207Y-50540938D01*
X11032922Y-50512367D01*
X11032922Y-50426652D01*
X11047207Y-50398081D01*
X11061493Y-50383795D01*
X11090065Y-50369509D01*
X11132922Y-50369509D01*
X11161493Y-50383795D01*
X11175779Y-50398081D01*
X11190064Y-50426652D01*
X11190064Y-50512367D01*
X11175779Y-50540938D01*
X11161493Y-50555224D01*
X11132922Y-50569509D01*
X11090065Y-50569509D01*
X11361493Y-50569509D02*
X11332922Y-50555224D01*
X11318636Y-50526652D01*
X11318636Y-50269509D01*
X11590064Y-50555224D02*
X11561493Y-50569509D01*
X11504350Y-50569509D01*
X11475779Y-50555224D01*
X11461493Y-50526652D01*
X11461493Y-50412367D01*
X11475779Y-50383795D01*
X11504350Y-50369509D01*
X11561493Y-50369509D01*
X11590064Y-50383795D01*
X11604350Y-50412367D01*
X11604350Y-50440938D01*
X11461493Y-50469509D01*
X11718636Y-50555224D02*
X11747207Y-50569509D01*
X11804350Y-50569509D01*
X11832922Y-50555224D01*
X11847207Y-50526652D01*
X11847207Y-50512367D01*
X11832922Y-50483795D01*
X11804350Y-50469509D01*
X11761493Y-50469509D01*
X11732922Y-50455224D01*
X11718636Y-50426652D01*
X11718636Y-50412367D01*
X11732922Y-50383795D01*
X11761493Y-50369509D01*
X11804350Y-50369509D01*
X11832922Y-50383795D01*
X11947207Y-50683795D02*
X11961493Y-50669509D01*
X11990064Y-50626652D01*
X12004350Y-50598081D01*
X12018636Y-50555224D01*
X12032922Y-50483795D01*
X12032922Y-50426652D01*
X12018636Y-50355224D01*
X12004350Y-50312367D01*
X11990064Y-50283795D01*
X11961493Y-50240938D01*
X11947207Y-50226652D01*
X5300779Y-50749795D02*
X5460779Y-50909795D01*
X5460779Y-50749795D02*
X5300779Y-50909795D01*
X5380779Y-50749795D02*
X5380779Y-50909795D01*
X5300779Y-50829795D02*
X5460779Y-50829795D01*
X5904350Y-50965509D02*
X5732922Y-50965509D01*
X5818636Y-50965509D02*
X5818636Y-50665509D01*
X5790064Y-50708367D01*
X5761493Y-50736938D01*
X5732922Y-50751224D01*
X6032922Y-50936938D02*
X6047207Y-50951224D01*
X6032922Y-50965509D01*
X6018636Y-50951224D01*
X6032922Y-50936938D01*
X6032922Y-50965509D01*
X6304350Y-50665509D02*
X6247207Y-50665509D01*
X6218636Y-50679795D01*
X6204350Y-50694081D01*
X6175779Y-50736938D01*
X6161493Y-50794081D01*
X6161493Y-50908367D01*
X6175779Y-50936938D01*
X6190064Y-50951224D01*
X6218636Y-50965509D01*
X6275779Y-50965509D01*
X6304350Y-50951224D01*
X6318636Y-50936938D01*
X6332922Y-50908367D01*
X6332922Y-50836938D01*
X6318636Y-50808367D01*
X6304350Y-50794081D01*
X6275779Y-50779795D01*
X6218636Y-50779795D01*
X6190064Y-50794081D01*
X6175779Y-50808367D01*
X6161493Y-50836938D01*
X6518636Y-50665509D02*
X6547207Y-50665509D01*
X6575779Y-50679795D01*
X6590064Y-50694081D01*
X6604350Y-50722652D01*
X6618636Y-50779795D01*
X6618636Y-50851224D01*
X6604350Y-50908367D01*
X6590064Y-50936938D01*
X6575779Y-50951224D01*
X6547207Y-50965509D01*
X6518636Y-50965509D01*
X6490064Y-50951224D01*
X6475779Y-50936938D01*
X6461493Y-50908367D01*
X6447207Y-50851224D01*
X6447207Y-50779795D01*
X6461493Y-50722652D01*
X6475779Y-50694081D01*
X6490064Y-50679795D01*
X6518636Y-50665509D01*
X6747207Y-50965509D02*
X6747207Y-50765509D01*
X6747207Y-50794081D02*
X6761493Y-50779795D01*
X6790064Y-50765509D01*
X6832922Y-50765509D01*
X6861493Y-50779795D01*
X6875779Y-50808367D01*
X6875779Y-50965509D01*
X6875779Y-50808367D02*
X6890064Y-50779795D01*
X6918636Y-50765509D01*
X6961493Y-50765509D01*
X6990064Y-50779795D01*
X7004350Y-50808367D01*
X7004350Y-50965509D01*
X7147207Y-50965509D02*
X7147207Y-50765509D01*
X7147207Y-50794081D02*
X7161493Y-50779795D01*
X7190064Y-50765509D01*
X7232922Y-50765509D01*
X7261493Y-50779795D01*
X7275779Y-50808367D01*
X7275779Y-50965509D01*
X7275779Y-50808367D02*
X7290064Y-50779795D01*
X7318636Y-50765509D01*
X7361493Y-50765509D01*
X7390064Y-50779795D01*
X7404350Y-50808367D01*
X7404350Y-50965509D01*
X7990064Y-50651224D02*
X7732922Y-51036938D01*
X8375779Y-50665509D02*
X8404350Y-50665509D01*
X8432922Y-50679795D01*
X8447207Y-50694081D01*
X8461493Y-50722652D01*
X8475779Y-50779795D01*
X8475779Y-50851224D01*
X8461493Y-50908367D01*
X8447207Y-50936938D01*
X8432922Y-50951224D01*
X8404350Y-50965509D01*
X8375779Y-50965509D01*
X8347207Y-50951224D01*
X8332922Y-50936938D01*
X8318636Y-50908367D01*
X8304350Y-50851224D01*
X8304350Y-50779795D01*
X8318636Y-50722652D01*
X8332922Y-50694081D01*
X8347207Y-50679795D01*
X8375779Y-50665509D01*
X8604350Y-50936938D02*
X8618636Y-50951224D01*
X8604350Y-50965509D01*
X8590065Y-50951224D01*
X8604350Y-50936938D01*
X8604350Y-50965509D01*
X8804350Y-50665509D02*
X8832922Y-50665509D01*
X8861493Y-50679795D01*
X8875779Y-50694081D01*
X8890065Y-50722652D01*
X8904350Y-50779795D01*
X8904350Y-50851224D01*
X8890065Y-50908367D01*
X8875779Y-50936938D01*
X8861493Y-50951224D01*
X8832922Y-50965509D01*
X8804350Y-50965509D01*
X8775779Y-50951224D01*
X8761493Y-50936938D01*
X8747207Y-50908367D01*
X8732922Y-50851224D01*
X8732922Y-50779795D01*
X8747207Y-50722652D01*
X8761493Y-50694081D01*
X8775779Y-50679795D01*
X8804350Y-50665509D01*
X9161493Y-50665509D02*
X9104350Y-50665509D01*
X9075779Y-50679795D01*
X9061493Y-50694081D01*
X9032922Y-50736938D01*
X9018636Y-50794081D01*
X9018636Y-50908367D01*
X9032922Y-50936938D01*
X9047207Y-50951224D01*
X9075779Y-50965509D01*
X9132922Y-50965509D01*
X9161493Y-50951224D01*
X9175779Y-50936938D01*
X9190065Y-50908367D01*
X9190065Y-50836938D01*
X9175779Y-50808367D01*
X9161493Y-50794081D01*
X9132922Y-50779795D01*
X9075779Y-50779795D01*
X9047207Y-50794081D01*
X9032922Y-50808367D01*
X9018636Y-50836938D01*
X9290065Y-50665509D02*
X9475779Y-50665509D01*
X9375779Y-50779795D01*
X9418636Y-50779795D01*
X9447207Y-50794081D01*
X9461493Y-50808367D01*
X9475779Y-50836938D01*
X9475779Y-50908367D01*
X9461493Y-50936938D01*
X9447207Y-50951224D01*
X9418636Y-50965509D01*
X9332922Y-50965509D01*
X9304350Y-50951224D01*
X9290065Y-50936938D01*
X9590065Y-50665509D02*
X9590065Y-50722652D01*
X9704350Y-50665509D02*
X9704350Y-50722652D01*
X10147207Y-51079795D02*
X10132922Y-51065509D01*
X10104350Y-51022652D01*
X10090065Y-50994081D01*
X10075779Y-50951224D01*
X10061493Y-50879795D01*
X10061493Y-50822652D01*
X10075779Y-50751224D01*
X10090065Y-50708367D01*
X10104350Y-50679795D01*
X10132922Y-50636938D01*
X10147207Y-50622652D01*
X10247207Y-50694081D02*
X10261493Y-50679795D01*
X10290065Y-50665509D01*
X10361493Y-50665509D01*
X10390065Y-50679795D01*
X10404350Y-50694081D01*
X10418636Y-50722652D01*
X10418636Y-50751224D01*
X10404350Y-50794081D01*
X10232922Y-50965509D01*
X10418636Y-50965509D01*
X10775779Y-50965509D02*
X10775779Y-50665509D01*
X10904350Y-50965509D02*
X10904350Y-50808367D01*
X10890065Y-50779795D01*
X10861493Y-50765509D01*
X10818636Y-50765509D01*
X10790065Y-50779795D01*
X10775779Y-50794081D01*
X11090065Y-50965509D02*
X11061493Y-50951224D01*
X11047207Y-50936938D01*
X11032922Y-50908367D01*
X11032922Y-50822652D01*
X11047207Y-50794081D01*
X11061493Y-50779795D01*
X11090065Y-50765509D01*
X11132922Y-50765509D01*
X11161493Y-50779795D01*
X11175779Y-50794081D01*
X11190064Y-50822652D01*
X11190064Y-50908367D01*
X11175779Y-50936938D01*
X11161493Y-50951224D01*
X11132922Y-50965509D01*
X11090065Y-50965509D01*
X11361493Y-50965509D02*
X11332922Y-50951224D01*
X11318636Y-50922652D01*
X11318636Y-50665509D01*
X11590064Y-50951224D02*
X11561493Y-50965509D01*
X11504350Y-50965509D01*
X11475779Y-50951224D01*
X11461493Y-50922652D01*
X11461493Y-50808367D01*
X11475779Y-50779795D01*
X11504350Y-50765509D01*
X11561493Y-50765509D01*
X11590064Y-50779795D01*
X11604350Y-50808367D01*
X11604350Y-50836938D01*
X11461493Y-50865509D01*
X11718636Y-50951224D02*
X11747207Y-50965509D01*
X11804350Y-50965509D01*
X11832922Y-50951224D01*
X11847207Y-50922652D01*
X11847207Y-50908367D01*
X11832922Y-50879795D01*
X11804350Y-50865509D01*
X11761493Y-50865509D01*
X11732922Y-50851224D01*
X11718636Y-50822652D01*
X11718636Y-50808367D01*
X11732922Y-50779795D01*
X11761493Y-50765509D01*
X11804350Y-50765509D01*
X11832922Y-50779795D01*
X11947207Y-51079795D02*
X11961493Y-51065509D01*
X11990064Y-51022652D01*
X12004350Y-50994081D01*
X12018636Y-50951224D01*
X12032922Y-50879795D01*
X12032922Y-50822652D01*
X12018636Y-50751224D01*
X12004350Y-50708367D01*
X11990064Y-50679795D01*
X11961493Y-50636938D01*
X11947207Y-50622652D01*
X5260779Y-51125795D02*
X5460779Y-51325795D01*
X5460779Y-51125795D02*
X5260779Y-51325795D01*
X5431490Y-51296507D02*
X5431490Y-51155084D01*
X5290067Y-51155084D01*
X5290067Y-51296507D01*
X5431490Y-51296507D01*
X5732922Y-51090081D02*
X5747207Y-51075795D01*
X5775779Y-51061509D01*
X5847207Y-51061509D01*
X5875779Y-51075795D01*
X5890064Y-51090081D01*
X5904350Y-51118652D01*
X5904350Y-51147224D01*
X5890064Y-51190081D01*
X5718636Y-51361509D01*
X5904350Y-51361509D01*
X6032922Y-51332938D02*
X6047207Y-51347224D01*
X6032922Y-51361509D01*
X6018636Y-51347224D01*
X6032922Y-51332938D01*
X6032922Y-51361509D01*
X6232922Y-51061509D02*
X6261493Y-51061509D01*
X6290064Y-51075795D01*
X6304350Y-51090081D01*
X6318636Y-51118652D01*
X6332922Y-51175795D01*
X6332922Y-51247224D01*
X6318636Y-51304367D01*
X6304350Y-51332938D01*
X6290064Y-51347224D01*
X6261493Y-51361509D01*
X6232922Y-51361509D01*
X6204350Y-51347224D01*
X6190064Y-51332938D01*
X6175779Y-51304367D01*
X6161493Y-51247224D01*
X6161493Y-51175795D01*
X6175779Y-51118652D01*
X6190064Y-51090081D01*
X6204350Y-51075795D01*
X6232922Y-51061509D01*
X6518636Y-51061509D02*
X6547207Y-51061509D01*
X6575779Y-51075795D01*
X6590064Y-51090081D01*
X6604350Y-51118652D01*
X6618636Y-51175795D01*
X6618636Y-51247224D01*
X6604350Y-51304367D01*
X6590064Y-51332938D01*
X6575779Y-51347224D01*
X6547207Y-51361509D01*
X6518636Y-51361509D01*
X6490064Y-51347224D01*
X6475779Y-51332938D01*
X6461493Y-51304367D01*
X6447207Y-51247224D01*
X6447207Y-51175795D01*
X6461493Y-51118652D01*
X6475779Y-51090081D01*
X6490064Y-51075795D01*
X6518636Y-51061509D01*
X6747207Y-51361509D02*
X6747207Y-51161509D01*
X6747207Y-51190081D02*
X6761493Y-51175795D01*
X6790064Y-51161509D01*
X6832922Y-51161509D01*
X6861493Y-51175795D01*
X6875779Y-51204367D01*
X6875779Y-51361509D01*
X6875779Y-51204367D02*
X6890064Y-51175795D01*
X6918636Y-51161509D01*
X6961493Y-51161509D01*
X6990064Y-51175795D01*
X7004350Y-51204367D01*
X7004350Y-51361509D01*
X7147207Y-51361509D02*
X7147207Y-51161509D01*
X7147207Y-51190081D02*
X7161493Y-51175795D01*
X7190064Y-51161509D01*
X7232922Y-51161509D01*
X7261493Y-51175795D01*
X7275779Y-51204367D01*
X7275779Y-51361509D01*
X7275779Y-51204367D02*
X7290064Y-51175795D01*
X7318636Y-51161509D01*
X7361493Y-51161509D01*
X7390064Y-51175795D01*
X7404350Y-51204367D01*
X7404350Y-51361509D01*
X7990064Y-51047224D02*
X7732922Y-51432938D01*
X8375779Y-51061509D02*
X8404350Y-51061509D01*
X8432922Y-51075795D01*
X8447207Y-51090081D01*
X8461493Y-51118652D01*
X8475779Y-51175795D01*
X8475779Y-51247224D01*
X8461493Y-51304367D01*
X8447207Y-51332938D01*
X8432922Y-51347224D01*
X8404350Y-51361509D01*
X8375779Y-51361509D01*
X8347207Y-51347224D01*
X8332922Y-51332938D01*
X8318636Y-51304367D01*
X8304350Y-51247224D01*
X8304350Y-51175795D01*
X8318636Y-51118652D01*
X8332922Y-51090081D01*
X8347207Y-51075795D01*
X8375779Y-51061509D01*
X8604350Y-51332938D02*
X8618636Y-51347224D01*
X8604350Y-51361509D01*
X8590065Y-51347224D01*
X8604350Y-51332938D01*
X8604350Y-51361509D01*
X8804350Y-51061509D02*
X8832922Y-51061509D01*
X8861493Y-51075795D01*
X8875779Y-51090081D01*
X8890065Y-51118652D01*
X8904350Y-51175795D01*
X8904350Y-51247224D01*
X8890065Y-51304367D01*
X8875779Y-51332938D01*
X8861493Y-51347224D01*
X8832922Y-51361509D01*
X8804350Y-51361509D01*
X8775779Y-51347224D01*
X8761493Y-51332938D01*
X8747207Y-51304367D01*
X8732922Y-51247224D01*
X8732922Y-51175795D01*
X8747207Y-51118652D01*
X8761493Y-51090081D01*
X8775779Y-51075795D01*
X8804350Y-51061509D01*
X9004350Y-51061509D02*
X9204350Y-51061509D01*
X9075779Y-51361509D01*
X9332922Y-51361509D02*
X9390065Y-51361509D01*
X9418636Y-51347224D01*
X9432922Y-51332938D01*
X9461493Y-51290081D01*
X9475779Y-51232938D01*
X9475779Y-51118652D01*
X9461493Y-51090081D01*
X9447207Y-51075795D01*
X9418636Y-51061509D01*
X9361493Y-51061509D01*
X9332922Y-51075795D01*
X9318636Y-51090081D01*
X9304350Y-51118652D01*
X9304350Y-51190081D01*
X9318636Y-51218652D01*
X9332922Y-51232938D01*
X9361493Y-51247224D01*
X9418636Y-51247224D01*
X9447207Y-51232938D01*
X9461493Y-51218652D01*
X9475779Y-51190081D01*
X9590065Y-51061509D02*
X9590065Y-51118652D01*
X9704350Y-51061509D02*
X9704350Y-51118652D01*
X10147207Y-51475795D02*
X10132922Y-51461509D01*
X10104350Y-51418652D01*
X10090065Y-51390081D01*
X10075779Y-51347224D01*
X10061493Y-51275795D01*
X10061493Y-51218652D01*
X10075779Y-51147224D01*
X10090065Y-51104367D01*
X10104350Y-51075795D01*
X10132922Y-51032938D01*
X10147207Y-51018652D01*
X10418636Y-51361509D02*
X10247207Y-51361509D01*
X10332922Y-51361509D02*
X10332922Y-51061509D01*
X10304350Y-51104367D01*
X10275779Y-51132938D01*
X10247207Y-51147224D01*
X10775779Y-51361509D02*
X10775779Y-51061509D01*
X10904350Y-51361509D02*
X10904350Y-51204367D01*
X10890065Y-51175795D01*
X10861493Y-51161509D01*
X10818636Y-51161509D01*
X10790065Y-51175795D01*
X10775779Y-51190081D01*
X11090065Y-51361509D02*
X11061493Y-51347224D01*
X11047207Y-51332938D01*
X11032922Y-51304367D01*
X11032922Y-51218652D01*
X11047207Y-51190081D01*
X11061493Y-51175795D01*
X11090065Y-51161509D01*
X11132922Y-51161509D01*
X11161493Y-51175795D01*
X11175779Y-51190081D01*
X11190064Y-51218652D01*
X11190064Y-51304367D01*
X11175779Y-51332938D01*
X11161493Y-51347224D01*
X11132922Y-51361509D01*
X11090065Y-51361509D01*
X11361493Y-51361509D02*
X11332922Y-51347224D01*
X11318636Y-51318652D01*
X11318636Y-51061509D01*
X11590064Y-51347224D02*
X11561493Y-51361509D01*
X11504350Y-51361509D01*
X11475779Y-51347224D01*
X11461493Y-51318652D01*
X11461493Y-51204367D01*
X11475779Y-51175795D01*
X11504350Y-51161509D01*
X11561493Y-51161509D01*
X11590064Y-51175795D01*
X11604350Y-51204367D01*
X11604350Y-51232938D01*
X11461493Y-51261509D01*
X11704350Y-51475795D02*
X11718636Y-51461509D01*
X11747207Y-51418652D01*
X11761493Y-51390081D01*
X11775779Y-51347224D01*
X11790064Y-51275795D01*
X11790064Y-51218652D01*
X11775779Y-51147224D01*
X11761493Y-51104367D01*
X11747207Y-51075795D01*
X11718636Y-51032938D01*
X11704350Y-51018652D01*
M02*
