M48
; DRILL file {KiCad (5.1.4)-1} date 6/13/2023 8:25:16 PM
; FORMAT={-:-/ absolute / metric / decimal}
; #@! TF.CreationDate,2023-06-13T20:25:16-04:00
; #@! TF.GenerationSoftware,Kicad,Pcbnew,(5.1.4)-1
; #@! TF.FileFunction,NonPlated,1,2,NPTH
FMAT,2
METRIC
T1C0.600
T2C1.750
T3C3.000
T4C3.988
%
G90
G05
T1
X109.09Y-373.615
X114.87Y-373.615
T2
X96.953Y-438.563
X107.113Y-438.563
X96.953Y-381.4
X107.113Y-381.4
X116.003Y-435.563
X126.163Y-435.563
X116.003Y-397.463
X126.163Y-397.463
X96.953Y-400.463
X107.113Y-400.463
X58.853Y-452.063
X69.013Y-452.063
X116.003Y-378.42
X126.163Y-378.42
X116.003Y-416.513
X126.163Y-416.513
X96.953Y-419.513
X107.113Y-419.513
X77.903Y-447.063
X88.063Y-447.063
T3
X99.493Y-443.643
X105.843Y-441.103
X99.493Y-386.48
X105.843Y-383.94
X118.543Y-440.643
X124.893Y-438.103
X118.543Y-402.543
X124.893Y-400.003
X99.493Y-405.543
X105.843Y-403.003
X60.123Y-449.523
X66.473Y-446.983
X118.543Y-383.5
X124.893Y-380.96
X117.273Y-413.973
X123.623Y-411.433
X99.493Y-424.593
X105.843Y-422.053
X79.173Y-444.523
X85.523Y-441.983
T4
X102.033Y-438.563
X102.033Y-381.4
X121.083Y-435.563
X121.083Y-397.463
X102.033Y-400.463
X63.933Y-452.063
X121.083Y-378.42
X121.083Y-416.513
X102.033Y-419.513
X82.983Y-447.063
T0
M30
