G04 #@! TF.GenerationSoftware,KiCad,Pcbnew,(5.1.4)-1*
G04 #@! TF.CreationDate,2023-09-09T05:32:15-04:00*
G04 #@! TF.ProjectId,ThumbsUp,5468756d-6273-4557-902e-6b696361645f,rev?*
G04 #@! TF.SameCoordinates,Original*
G04 #@! TF.FileFunction,Legend,Bot*
G04 #@! TF.FilePolarity,Positive*
%FSLAX46Y46*%
G04 Gerber Fmt 4.6, Leading zero omitted, Abs format (unit mm)*
G04 Created by KiCad (PCBNEW (5.1.4)-1) date 2023-09-09 05:32:15*
%MOMM*%
%LPD*%
G04 APERTURE LIST*
%ADD10C,0.150000*%
%ADD11C,0.100000*%
%ADD12C,0.200000*%
%ADD13C,0.120000*%
%ADD14C,0.254000*%
G04 APERTURE END LIST*
D10*
X127107619Y-444735714D02*
X127107619Y-445402380D01*
X127536190Y-444735714D02*
X127536190Y-445259523D01*
X127488571Y-445354761D01*
X127393333Y-445402380D01*
X127250476Y-445402380D01*
X127155238Y-445354761D01*
X127107619Y-445307142D01*
X125917142Y-444354761D02*
X126774285Y-445640476D01*
X125155238Y-445402380D02*
X125155238Y-444878571D01*
X125202857Y-444783333D01*
X125298095Y-444735714D01*
X125488571Y-444735714D01*
X125583809Y-444783333D01*
X125155238Y-445354761D02*
X125250476Y-445402380D01*
X125488571Y-445402380D01*
X125583809Y-445354761D01*
X125631428Y-445259523D01*
X125631428Y-445164285D01*
X125583809Y-445069047D01*
X125488571Y-445021428D01*
X125250476Y-445021428D01*
X125155238Y-444973809D01*
X124679047Y-445402380D02*
X124679047Y-444402380D01*
X124583809Y-445021428D02*
X124298095Y-445402380D01*
X124298095Y-444735714D02*
X124679047Y-445116666D01*
X123440952Y-444402380D02*
X123631428Y-444402380D01*
X123726666Y-444450000D01*
X123774285Y-444497619D01*
X123869523Y-444640476D01*
X123917142Y-444830952D01*
X123917142Y-445211904D01*
X123869523Y-445307142D01*
X123821904Y-445354761D01*
X123726666Y-445402380D01*
X123536190Y-445402380D01*
X123440952Y-445354761D01*
X123393333Y-445307142D01*
X123345714Y-445211904D01*
X123345714Y-444973809D01*
X123393333Y-444878571D01*
X123440952Y-444830952D01*
X123536190Y-444783333D01*
X123726666Y-444783333D01*
X123821904Y-444830952D01*
X123869523Y-444878571D01*
X123917142Y-444973809D01*
X122488571Y-444402380D02*
X122679047Y-444402380D01*
X122774285Y-444450000D01*
X122821904Y-444497619D01*
X122917142Y-444640476D01*
X122964761Y-444830952D01*
X122964761Y-445211904D01*
X122917142Y-445307142D01*
X122869523Y-445354761D01*
X122774285Y-445402380D01*
X122583809Y-445402380D01*
X122488571Y-445354761D01*
X122440952Y-445307142D01*
X122393333Y-445211904D01*
X122393333Y-444973809D01*
X122440952Y-444878571D01*
X122488571Y-444830952D01*
X122583809Y-444783333D01*
X122774285Y-444783333D01*
X122869523Y-444830952D01*
X122917142Y-444878571D01*
X122964761Y-444973809D01*
X121536190Y-444402380D02*
X121726666Y-444402380D01*
X121821904Y-444450000D01*
X121869523Y-444497619D01*
X121964761Y-444640476D01*
X122012380Y-444830952D01*
X122012380Y-445211904D01*
X121964761Y-445307142D01*
X121917142Y-445354761D01*
X121821904Y-445402380D01*
X121631428Y-445402380D01*
X121536190Y-445354761D01*
X121488571Y-445307142D01*
X121440952Y-445211904D01*
X121440952Y-444973809D01*
X121488571Y-444878571D01*
X121536190Y-444830952D01*
X121631428Y-444783333D01*
X121821904Y-444783333D01*
X121917142Y-444830952D01*
X121964761Y-444878571D01*
X122012380Y-444973809D01*
X120583809Y-444402380D02*
X120774285Y-444402380D01*
X120869523Y-444450000D01*
X120917142Y-444497619D01*
X121012380Y-444640476D01*
X121060000Y-444830952D01*
X121060000Y-445211904D01*
X121012380Y-445307142D01*
X120964761Y-445354761D01*
X120869523Y-445402380D01*
X120679047Y-445402380D01*
X120583809Y-445354761D01*
X120536190Y-445307142D01*
X120488571Y-445211904D01*
X120488571Y-444973809D01*
X120536190Y-444878571D01*
X120583809Y-444830952D01*
X120679047Y-444783333D01*
X120869523Y-444783333D01*
X120964761Y-444830952D01*
X121012380Y-444878571D01*
X121060000Y-444973809D01*
X119631428Y-444402380D02*
X119821904Y-444402380D01*
X119917142Y-444450000D01*
X119964761Y-444497619D01*
X120060000Y-444640476D01*
X120107619Y-444830952D01*
X120107619Y-445211904D01*
X120060000Y-445307142D01*
X120012380Y-445354761D01*
X119917142Y-445402380D01*
X119726666Y-445402380D01*
X119631428Y-445354761D01*
X119583809Y-445307142D01*
X119536190Y-445211904D01*
X119536190Y-444973809D01*
X119583809Y-444878571D01*
X119631428Y-444830952D01*
X119726666Y-444783333D01*
X119917142Y-444783333D01*
X120012380Y-444830952D01*
X120060000Y-444878571D01*
X120107619Y-444973809D01*
X128726666Y-446052380D02*
X128155238Y-446052380D01*
X128440952Y-447052380D02*
X128440952Y-446052380D01*
X127821904Y-447052380D02*
X127821904Y-446052380D01*
X127393333Y-447052380D02*
X127393333Y-446528571D01*
X127440952Y-446433333D01*
X127536190Y-446385714D01*
X127679047Y-446385714D01*
X127774285Y-446433333D01*
X127821904Y-446480952D01*
X126488571Y-446385714D02*
X126488571Y-447052380D01*
X126917142Y-446385714D02*
X126917142Y-446909523D01*
X126869523Y-447004761D01*
X126774285Y-447052380D01*
X126631428Y-447052380D01*
X126536190Y-447004761D01*
X126488571Y-446957142D01*
X126012380Y-447052380D02*
X126012380Y-446385714D01*
X126012380Y-446480952D02*
X125964761Y-446433333D01*
X125869523Y-446385714D01*
X125726666Y-446385714D01*
X125631428Y-446433333D01*
X125583809Y-446528571D01*
X125583809Y-447052380D01*
X125583809Y-446528571D02*
X125536190Y-446433333D01*
X125440952Y-446385714D01*
X125298095Y-446385714D01*
X125202857Y-446433333D01*
X125155238Y-446528571D01*
X125155238Y-447052380D01*
X124679047Y-447052380D02*
X124679047Y-446052380D01*
X124679047Y-446433333D02*
X124583809Y-446385714D01*
X124393333Y-446385714D01*
X124298095Y-446433333D01*
X124250476Y-446480952D01*
X124202857Y-446576190D01*
X124202857Y-446861904D01*
X124250476Y-446957142D01*
X124298095Y-447004761D01*
X124393333Y-447052380D01*
X124583809Y-447052380D01*
X124679047Y-447004761D01*
X123821904Y-447004761D02*
X123726666Y-447052380D01*
X123536190Y-447052380D01*
X123440952Y-447004761D01*
X123393333Y-446909523D01*
X123393333Y-446861904D01*
X123440952Y-446766666D01*
X123536190Y-446719047D01*
X123679047Y-446719047D01*
X123774285Y-446671428D01*
X123821904Y-446576190D01*
X123821904Y-446528571D01*
X123774285Y-446433333D01*
X123679047Y-446385714D01*
X123536190Y-446385714D01*
X123440952Y-446433333D01*
X122964761Y-446052380D02*
X122964761Y-446861904D01*
X122917142Y-446957142D01*
X122869523Y-447004761D01*
X122774285Y-447052380D01*
X122583809Y-447052380D01*
X122488571Y-447004761D01*
X122440952Y-446957142D01*
X122393333Y-446861904D01*
X122393333Y-446052380D01*
X121917142Y-446385714D02*
X121917142Y-447385714D01*
X121917142Y-446433333D02*
X121821904Y-446385714D01*
X121631428Y-446385714D01*
X121536190Y-446433333D01*
X121488571Y-446480952D01*
X121440952Y-446576190D01*
X121440952Y-446861904D01*
X121488571Y-446957142D01*
X121536190Y-447004761D01*
X121631428Y-447052380D01*
X121821904Y-447052380D01*
X121917142Y-447004761D01*
X121012380Y-446957142D02*
X120964761Y-447004761D01*
X121012380Y-447052380D01*
X121060000Y-447004761D01*
X121012380Y-446957142D01*
X121012380Y-447052380D01*
X121012380Y-446671428D02*
X121060000Y-446100000D01*
X121012380Y-446052380D01*
X120964761Y-446100000D01*
X121012380Y-446671428D01*
X121012380Y-446052380D01*
X119869523Y-446385714D02*
X119631428Y-447052380D01*
X119393333Y-446385714D01*
X119107619Y-446052380D02*
X118440952Y-446052380D01*
X118869523Y-447052380D01*
X128417142Y-447797619D02*
X128369523Y-447750000D01*
X128274285Y-447702380D01*
X128036190Y-447702380D01*
X127940952Y-447750000D01*
X127893333Y-447797619D01*
X127845714Y-447892857D01*
X127845714Y-447988095D01*
X127893333Y-448130952D01*
X128464761Y-448702380D01*
X127845714Y-448702380D01*
X127226666Y-447702380D02*
X127131428Y-447702380D01*
X127036190Y-447750000D01*
X126988571Y-447797619D01*
X126940952Y-447892857D01*
X126893333Y-448083333D01*
X126893333Y-448321428D01*
X126940952Y-448511904D01*
X126988571Y-448607142D01*
X127036190Y-448654761D01*
X127131428Y-448702380D01*
X127226666Y-448702380D01*
X127321904Y-448654761D01*
X127369523Y-448607142D01*
X127417142Y-448511904D01*
X127464761Y-448321428D01*
X127464761Y-448083333D01*
X127417142Y-447892857D01*
X127369523Y-447797619D01*
X127321904Y-447750000D01*
X127226666Y-447702380D01*
X126512380Y-447797619D02*
X126464761Y-447750000D01*
X126369523Y-447702380D01*
X126131428Y-447702380D01*
X126036190Y-447750000D01*
X125988571Y-447797619D01*
X125940952Y-447892857D01*
X125940952Y-447988095D01*
X125988571Y-448130952D01*
X126560000Y-448702380D01*
X125940952Y-448702380D01*
X125607619Y-447702380D02*
X124988571Y-447702380D01*
X125321904Y-448083333D01*
X125179047Y-448083333D01*
X125083809Y-448130952D01*
X125036190Y-448178571D01*
X124988571Y-448273809D01*
X124988571Y-448511904D01*
X125036190Y-448607142D01*
X125083809Y-448654761D01*
X125179047Y-448702380D01*
X125464761Y-448702380D01*
X125560000Y-448654761D01*
X125607619Y-448607142D01*
X124560000Y-448321428D02*
X123798095Y-448321428D01*
X123131428Y-447702380D02*
X123036190Y-447702380D01*
X122940952Y-447750000D01*
X122893333Y-447797619D01*
X122845714Y-447892857D01*
X122798095Y-448083333D01*
X122798095Y-448321428D01*
X122845714Y-448511904D01*
X122893333Y-448607142D01*
X122940952Y-448654761D01*
X123036190Y-448702380D01*
X123131428Y-448702380D01*
X123226666Y-448654761D01*
X123274285Y-448607142D01*
X123321904Y-448511904D01*
X123369523Y-448321428D01*
X123369523Y-448083333D01*
X123321904Y-447892857D01*
X123274285Y-447797619D01*
X123226666Y-447750000D01*
X123131428Y-447702380D01*
X122226666Y-448130952D02*
X122321904Y-448083333D01*
X122369523Y-448035714D01*
X122417142Y-447940476D01*
X122417142Y-447892857D01*
X122369523Y-447797619D01*
X122321904Y-447750000D01*
X122226666Y-447702380D01*
X122036190Y-447702380D01*
X121940952Y-447750000D01*
X121893333Y-447797619D01*
X121845714Y-447892857D01*
X121845714Y-447940476D01*
X121893333Y-448035714D01*
X121940952Y-448083333D01*
X122036190Y-448130952D01*
X122226666Y-448130952D01*
X122321904Y-448178571D01*
X122369523Y-448226190D01*
X122417142Y-448321428D01*
X122417142Y-448511904D01*
X122369523Y-448607142D01*
X122321904Y-448654761D01*
X122226666Y-448702380D01*
X122036190Y-448702380D01*
X121940952Y-448654761D01*
X121893333Y-448607142D01*
X121845714Y-448511904D01*
X121845714Y-448321428D01*
X121893333Y-448226190D01*
X121940952Y-448178571D01*
X122036190Y-448130952D01*
X121417142Y-448321428D02*
X120655238Y-448321428D01*
X120274285Y-447702380D02*
X119655238Y-447702380D01*
X119988571Y-448083333D01*
X119845714Y-448083333D01*
X119750476Y-448130952D01*
X119702857Y-448178571D01*
X119655238Y-448273809D01*
X119655238Y-448511904D01*
X119702857Y-448607142D01*
X119750476Y-448654761D01*
X119845714Y-448702380D01*
X120131428Y-448702380D01*
X120226666Y-448654761D01*
X120274285Y-448607142D01*
X119036190Y-447702380D02*
X118940952Y-447702380D01*
X118845714Y-447750000D01*
X118798095Y-447797619D01*
X118750476Y-447892857D01*
X118702857Y-448083333D01*
X118702857Y-448321428D01*
X118750476Y-448511904D01*
X118798095Y-448607142D01*
X118845714Y-448654761D01*
X118940952Y-448702380D01*
X119036190Y-448702380D01*
X119131428Y-448654761D01*
X119179047Y-448607142D01*
X119226666Y-448511904D01*
X119274285Y-448321428D01*
X119274285Y-448083333D01*
X119226666Y-447892857D01*
X119179047Y-447797619D01*
X119131428Y-447750000D01*
X119036190Y-447702380D01*
D11*
X77133175Y-460146986D02*
X77654184Y-458216041D01*
X71340340Y-458583959D02*
X71861349Y-456653014D01*
X71784803Y-460775409D02*
X75646694Y-461817427D01*
X73347830Y-454982573D02*
X77209721Y-456024591D01*
X86910920Y-462746986D02*
X87431929Y-460816041D01*
X81118085Y-461183959D02*
X81639094Y-459253014D01*
X81562548Y-463375409D02*
X85424439Y-464417427D01*
X83125575Y-457582573D02*
X86987466Y-458624591D01*
D12*
X100950000Y-454615000D02*
X102250000Y-454615000D01*
X103198000Y-448248000D02*
X103198000Y-454752000D01*
X106702000Y-448248000D02*
X103198000Y-448248000D01*
X106702000Y-454752000D02*
X106702000Y-448248000D01*
X103198000Y-454752000D02*
X106702000Y-454752000D01*
D13*
X98860000Y-451997936D02*
X98860000Y-453202064D01*
X96140000Y-451997936D02*
X96140000Y-453202064D01*
X109197500Y-459080000D02*
X109197500Y-458430000D01*
X116417500Y-465650000D02*
X115767500Y-465650000D01*
X116417500Y-465000000D02*
X116417500Y-465650000D01*
X116417500Y-458430000D02*
X115767500Y-458430000D01*
X116417500Y-459080000D02*
X116417500Y-458430000D01*
X109197500Y-465650000D02*
X109847500Y-465650000D01*
X109197500Y-465000000D02*
X109197500Y-465650000D01*
X106460000Y-372150000D02*
X106460000Y-370820000D01*
X105130000Y-372150000D02*
X106460000Y-372150000D01*
X103860000Y-372150000D02*
X103860000Y-369490000D01*
X103860000Y-369490000D02*
X96180000Y-369490000D01*
X103860000Y-372150000D02*
X96180000Y-372150000D01*
X96180000Y-372150000D02*
X96180000Y-369490000D01*
X107160000Y-368570000D02*
X107160000Y-366770000D01*
X107160000Y-363060000D02*
X107160000Y-364520000D01*
X116100000Y-363060000D02*
X116100000Y-364520000D01*
X116100000Y-368570000D02*
X116100000Y-366770000D01*
X116100000Y-363060000D02*
X107160000Y-363060000D01*
X127546095Y-381048305D02*
X128876095Y-381048305D01*
X127546095Y-379718305D02*
X127546095Y-381048305D01*
X127546095Y-378448305D02*
X130206095Y-378448305D01*
X130206095Y-378448305D02*
X130206095Y-370768305D01*
X127546095Y-378448305D02*
X127546095Y-370768305D01*
X127546095Y-370768305D02*
X130206095Y-370768305D01*
X127610599Y-431174893D02*
X128940599Y-431174893D01*
X127610599Y-429844893D02*
X127610599Y-431174893D01*
X127610599Y-428574893D02*
X130270599Y-428574893D01*
X130270599Y-428574893D02*
X130270599Y-420894893D01*
X127610599Y-428574893D02*
X127610599Y-420894893D01*
X127610599Y-420894893D02*
X130270599Y-420894893D01*
X110392338Y-469484041D02*
X110048109Y-470768723D01*
X111677019Y-469828271D02*
X110392338Y-469484041D01*
X112903745Y-470156971D02*
X112215286Y-472726334D01*
X112215286Y-472726334D02*
X119633597Y-474714064D01*
X112903745Y-470156971D02*
X120322055Y-472144701D01*
X120322055Y-472144701D02*
X119633597Y-474714064D01*
D14*
X125985880Y-470280000D02*
G75*
G03X125985880Y-470280000I-125880J0D01*
G01*
D12*
X126750000Y-456475000D02*
X125650000Y-456475000D01*
X121950000Y-456475000D02*
X123050000Y-456475000D01*
X121950000Y-467875000D02*
X123050000Y-467875000D01*
X126750000Y-467875000D02*
X125650000Y-467875000D01*
X121950000Y-467875000D02*
X121950000Y-456475000D01*
X126750000Y-467875000D02*
X126750000Y-456475000D01*
D13*
X107459278Y-392148375D02*
X107459278Y-390818375D01*
X106129278Y-392148375D02*
X107459278Y-392148375D01*
X104859278Y-392148375D02*
X104859278Y-389488375D01*
X104859278Y-389488375D02*
X97179278Y-389488375D01*
X104859278Y-392148375D02*
X97179278Y-392148375D01*
X97179278Y-392148375D02*
X97179278Y-389488375D01*
X57862789Y-449862952D02*
X56532789Y-449862952D01*
X57862789Y-451192952D02*
X57862789Y-449862952D01*
X57862789Y-452462952D02*
X55202789Y-452462952D01*
X55202789Y-452462952D02*
X55202789Y-460142952D01*
X57862789Y-452462952D02*
X57862789Y-460142952D01*
X57862789Y-460142952D02*
X55202789Y-460142952D01*
X107484161Y-411265202D02*
X107484161Y-409935202D01*
X106154161Y-411265202D02*
X107484161Y-411265202D01*
X104884161Y-411265202D02*
X104884161Y-408605202D01*
X104884161Y-408605202D02*
X97204161Y-408605202D01*
X104884161Y-411265202D02*
X97204161Y-411265202D01*
X97204161Y-411265202D02*
X97204161Y-408605202D01*
X107326974Y-430350972D02*
X107326974Y-429020972D01*
X105996974Y-430350972D02*
X107326974Y-430350972D01*
X104726974Y-430350972D02*
X104726974Y-427690972D01*
X104726974Y-427690972D02*
X97046974Y-427690972D01*
X104726974Y-430350972D02*
X97046974Y-430350972D01*
X97046974Y-430350972D02*
X97046974Y-427690972D01*
D12*
X103225000Y-457015000D02*
X101575000Y-457015000D01*
X101225000Y-462235000D02*
X101225000Y-456955000D01*
X96375000Y-462235000D02*
X101225000Y-462235000D01*
X96375000Y-456955000D02*
X96375000Y-462235000D01*
X101225000Y-456955000D02*
X96375000Y-456955000D01*
D13*
X117302064Y-389210000D02*
X116097936Y-389210000D01*
X117302064Y-387390000D02*
X116097936Y-387390000D01*
D14*
X75606440Y-462160080D02*
X75415521Y-462171205D01*
X75341379Y-462213839D01*
X75251482Y-462314860D01*
X75204219Y-462490025D01*
X75231099Y-462622555D01*
X75273733Y-462696698D01*
X75374754Y-462786594D01*
X75841859Y-462912629D01*
X76172700Y-461686479D01*
X75763983Y-461576199D01*
X75631453Y-461603078D01*
X75557310Y-461645712D01*
X75467414Y-461746734D01*
X75435905Y-461863510D01*
X75462784Y-461996040D01*
X75505418Y-462070183D01*
X75606440Y-462160080D01*
X76015157Y-462270360D01*
X74712997Y-461292621D02*
X74479445Y-461229604D01*
X74346914Y-461256483D01*
X74198630Y-461341751D01*
X74077224Y-461559549D01*
X73966944Y-461968265D01*
X73962315Y-462217572D01*
X74047582Y-462365857D01*
X74148604Y-462455754D01*
X74382157Y-462518771D01*
X74514687Y-462491892D01*
X74662972Y-462406624D01*
X74784377Y-462188826D01*
X74894658Y-461780109D01*
X74899287Y-461530802D01*
X74814019Y-461382518D01*
X74712997Y-461292621D01*
X73428459Y-460946026D02*
X73194907Y-460883008D01*
X73062376Y-460909888D01*
X72914091Y-460995156D01*
X72792686Y-461212954D01*
X72682406Y-461621670D01*
X72677776Y-461870977D01*
X72763044Y-462019262D01*
X72864066Y-462109159D01*
X73097618Y-462172176D01*
X73230149Y-462145297D01*
X73378434Y-462060029D01*
X73499839Y-461842231D01*
X73610119Y-461433514D01*
X73614748Y-461184207D01*
X73529481Y-461035923D01*
X73428459Y-460946026D01*
X72552637Y-460709711D02*
X71851980Y-460520659D01*
X71871468Y-461841335D02*
X72202309Y-460615185D01*
X71186565Y-461593895D02*
X70995646Y-461605020D01*
X70703706Y-461526249D01*
X70602684Y-461436352D01*
X70560050Y-461362210D01*
X70533171Y-461229679D01*
X70564679Y-461112903D01*
X70654576Y-461011881D01*
X70728719Y-460969247D01*
X70861249Y-460942368D01*
X71110556Y-460946997D01*
X71243086Y-460920118D01*
X71317229Y-460877484D01*
X71407126Y-460776462D01*
X71438634Y-460659686D01*
X71411755Y-460527155D01*
X71369121Y-460453013D01*
X71268099Y-460363116D01*
X70976159Y-460284344D01*
X70785240Y-460295469D01*
X70117958Y-460679174D02*
X69709241Y-460568893D01*
X69360779Y-461163900D02*
X69944661Y-461321443D01*
X70275501Y-460095292D01*
X69691620Y-459937749D01*
X68251405Y-460864567D02*
X68835286Y-461022111D01*
X69166127Y-459795960D01*
X67200420Y-460580990D02*
X67901077Y-460770041D01*
X67550748Y-460675516D02*
X67881589Y-459449365D01*
X67951102Y-459656038D01*
X68036370Y-459804323D01*
X68137392Y-459894220D01*
X84639230Y-465156422D02*
X85205490Y-464682821D01*
X85339887Y-465345474D02*
X85670728Y-464119323D01*
X85203623Y-463993289D01*
X85071093Y-464020168D01*
X84996950Y-464062802D01*
X84907054Y-464163824D01*
X84859791Y-464338988D01*
X84886670Y-464471519D01*
X84929304Y-464545661D01*
X85030326Y-464635558D01*
X85497431Y-464761592D01*
X84444578Y-463788483D02*
X84176754Y-464781080D01*
X84086858Y-464882102D01*
X84012715Y-464924736D01*
X83880185Y-464951616D01*
X83646632Y-464888598D01*
X83545610Y-464798701D01*
X83502977Y-464724559D01*
X83476097Y-464592029D01*
X83743921Y-463599431D01*
X82829199Y-464668038D02*
X83160040Y-463441888D01*
X82128542Y-464478986D01*
X82459382Y-463252836D01*
X80902391Y-464148145D02*
X81603049Y-464337197D01*
X81252720Y-464242671D02*
X81583561Y-463016521D01*
X81653074Y-463223194D01*
X81738342Y-463371479D01*
X81839363Y-463461375D01*
D10*
X127659523Y-371312380D02*
X127659523Y-372026666D01*
X127707142Y-372169523D01*
X127802380Y-372264761D01*
X127945238Y-372312380D01*
X128040476Y-372312380D01*
X127278571Y-371312380D02*
X126659523Y-371312380D01*
X126992857Y-371693333D01*
X126850000Y-371693333D01*
X126754761Y-371740952D01*
X126707142Y-371788571D01*
X126659523Y-371883809D01*
X126659523Y-372121904D01*
X126707142Y-372217142D01*
X126754761Y-372264761D01*
X126850000Y-372312380D01*
X127135714Y-372312380D01*
X127230952Y-372264761D01*
X127278571Y-372217142D01*
X125802380Y-371312380D02*
X125992857Y-371312380D01*
X126088095Y-371360000D01*
X126135714Y-371407619D01*
X126230952Y-371550476D01*
X126278571Y-371740952D01*
X126278571Y-372121904D01*
X126230952Y-372217142D01*
X126183333Y-372264761D01*
X126088095Y-372312380D01*
X125897619Y-372312380D01*
X125802380Y-372264761D01*
X125754761Y-372217142D01*
X125707142Y-372121904D01*
X125707142Y-371883809D01*
X125754761Y-371788571D01*
X125802380Y-371740952D01*
X125897619Y-371693333D01*
X126088095Y-371693333D01*
X126183333Y-371740952D01*
X126230952Y-371788571D01*
X126278571Y-371883809D01*
D14*
X105917619Y-450804523D02*
X105917619Y-451832619D01*
X105857142Y-451953571D01*
X105796666Y-452014047D01*
X105675714Y-452074523D01*
X105433809Y-452074523D01*
X105312857Y-452014047D01*
X105252380Y-451953571D01*
X105191904Y-451832619D01*
X105191904Y-450804523D01*
X103921904Y-452074523D02*
X104647619Y-452074523D01*
X104284761Y-452074523D02*
X104284761Y-450804523D01*
X104405714Y-450985952D01*
X104526666Y-451106904D01*
X104647619Y-451167380D01*
D10*
X95577142Y-451957142D02*
X95624761Y-451909523D01*
X95672380Y-451766666D01*
X95672380Y-451671428D01*
X95624761Y-451528571D01*
X95529523Y-451433333D01*
X95434285Y-451385714D01*
X95243809Y-451338095D01*
X95100952Y-451338095D01*
X94910476Y-451385714D01*
X94815238Y-451433333D01*
X94720000Y-451528571D01*
X94672380Y-451671428D01*
X94672380Y-451766666D01*
X94720000Y-451909523D01*
X94767619Y-451957142D01*
X95672380Y-452909523D02*
X95672380Y-452338095D01*
X95672380Y-452623809D02*
X94672380Y-452623809D01*
X94815238Y-452528571D01*
X94910476Y-452433333D01*
X94958095Y-452338095D01*
X95672380Y-453861904D02*
X95672380Y-453290476D01*
X95672380Y-453576190D02*
X94672380Y-453576190D01*
X94815238Y-453480952D01*
X94910476Y-453385714D01*
X94958095Y-453290476D01*
X108439880Y-461063809D02*
X107439880Y-461063809D01*
X108344642Y-462111428D02*
X108392261Y-462063809D01*
X108439880Y-461920952D01*
X108439880Y-461825714D01*
X108392261Y-461682857D01*
X108297023Y-461587619D01*
X108201785Y-461540000D01*
X108011309Y-461492380D01*
X107868452Y-461492380D01*
X107677976Y-461540000D01*
X107582738Y-461587619D01*
X107487500Y-461682857D01*
X107439880Y-461825714D01*
X107439880Y-461920952D01*
X107487500Y-462063809D01*
X107535119Y-462111428D01*
X108439880Y-463063809D02*
X108439880Y-462492380D01*
X108439880Y-462778095D02*
X107439880Y-462778095D01*
X107582738Y-462682857D01*
X107677976Y-462587619D01*
X107725595Y-462492380D01*
X117511666Y-470072380D02*
X117845000Y-469596190D01*
X118083095Y-470072380D02*
X118083095Y-469072380D01*
X117702142Y-469072380D01*
X117606904Y-469120000D01*
X117559285Y-469167619D01*
X117511666Y-469262857D01*
X117511666Y-469405714D01*
X117559285Y-469500952D01*
X117606904Y-469548571D01*
X117702142Y-469596190D01*
X118083095Y-469596190D01*
X116654523Y-469405714D02*
X116654523Y-470072380D01*
X116892619Y-469024761D02*
X117130714Y-469739047D01*
X116511666Y-469739047D01*
X108007619Y-371629523D02*
X107293333Y-371629523D01*
X107150476Y-371677142D01*
X107055238Y-371772380D01*
X107007619Y-371915238D01*
X107007619Y-372010476D01*
X108007619Y-370677142D02*
X108007619Y-371153333D01*
X107531428Y-371200952D01*
X107579047Y-371153333D01*
X107626666Y-371058095D01*
X107626666Y-370820000D01*
X107579047Y-370724761D01*
X107531428Y-370677142D01*
X107436190Y-370629523D01*
X107198095Y-370629523D01*
X107102857Y-370677142D01*
X107055238Y-370724761D01*
X107007619Y-370820000D01*
X107007619Y-371058095D01*
X107055238Y-371153333D01*
X107102857Y-371200952D01*
X108007619Y-370010476D02*
X108007619Y-369915238D01*
X107960000Y-369820000D01*
X107912380Y-369772380D01*
X107817142Y-369724761D01*
X107626666Y-369677142D01*
X107388571Y-369677142D01*
X107198095Y-369724761D01*
X107102857Y-369772380D01*
X107055238Y-369820000D01*
X107007619Y-369915238D01*
X107007619Y-370010476D01*
X107055238Y-370105714D01*
X107102857Y-370153333D01*
X107198095Y-370200952D01*
X107388571Y-370248571D01*
X107626666Y-370248571D01*
X107817142Y-370200952D01*
X107912380Y-370153333D01*
X107960000Y-370105714D01*
X108007619Y-370010476D01*
X108767142Y-467042142D02*
X108814761Y-466994523D01*
X108862380Y-466851666D01*
X108862380Y-466756428D01*
X108814761Y-466613571D01*
X108719523Y-466518333D01*
X108624285Y-466470714D01*
X108433809Y-466423095D01*
X108290952Y-466423095D01*
X108100476Y-466470714D01*
X108005238Y-466518333D01*
X107910000Y-466613571D01*
X107862380Y-466756428D01*
X107862380Y-466851666D01*
X107910000Y-466994523D01*
X107957619Y-467042142D01*
X108862380Y-467994523D02*
X108862380Y-467423095D01*
X108862380Y-467708809D02*
X107862380Y-467708809D01*
X108005238Y-467613571D01*
X108100476Y-467518333D01*
X108148095Y-467423095D01*
X107862380Y-468327857D02*
X107862380Y-468994523D01*
X108862380Y-468565952D01*
X114771380Y-451907333D02*
X114295190Y-451574000D01*
X114771380Y-451335904D02*
X113771380Y-451335904D01*
X113771380Y-451716857D01*
X113819000Y-451812095D01*
X113866619Y-451859714D01*
X113961857Y-451907333D01*
X114104714Y-451907333D01*
X114199952Y-451859714D01*
X114247571Y-451812095D01*
X114295190Y-451716857D01*
X114295190Y-451335904D01*
X114771380Y-452859714D02*
X114771380Y-452288285D01*
X114771380Y-452574000D02*
X113771380Y-452574000D01*
X113914238Y-452478761D01*
X114009476Y-452383523D01*
X114057095Y-452288285D01*
X116091380Y-451907333D02*
X115615190Y-451574000D01*
X116091380Y-451335904D02*
X115091380Y-451335904D01*
X115091380Y-451716857D01*
X115139000Y-451812095D01*
X115186619Y-451859714D01*
X115281857Y-451907333D01*
X115424714Y-451907333D01*
X115519952Y-451859714D01*
X115567571Y-451812095D01*
X115615190Y-451716857D01*
X115615190Y-451335904D01*
X115186619Y-452288285D02*
X115139000Y-452335904D01*
X115091380Y-452431142D01*
X115091380Y-452669238D01*
X115139000Y-452764476D01*
X115186619Y-452812095D01*
X115281857Y-452859714D01*
X115377095Y-452859714D01*
X115519952Y-452812095D01*
X116091380Y-452240666D01*
X116091380Y-452859714D01*
X109452380Y-370628333D02*
X108976190Y-370295000D01*
X109452380Y-370056904D02*
X108452380Y-370056904D01*
X108452380Y-370437857D01*
X108500000Y-370533095D01*
X108547619Y-370580714D01*
X108642857Y-370628333D01*
X108785714Y-370628333D01*
X108880952Y-370580714D01*
X108928571Y-370533095D01*
X108976190Y-370437857D01*
X108976190Y-370056904D01*
X108880952Y-371199761D02*
X108833333Y-371104523D01*
X108785714Y-371056904D01*
X108690476Y-371009285D01*
X108642857Y-371009285D01*
X108547619Y-371056904D01*
X108500000Y-371104523D01*
X108452380Y-371199761D01*
X108452380Y-371390238D01*
X108500000Y-371485476D01*
X108547619Y-371533095D01*
X108642857Y-371580714D01*
X108690476Y-371580714D01*
X108785714Y-371533095D01*
X108833333Y-371485476D01*
X108880952Y-371390238D01*
X108880952Y-371199761D01*
X108928571Y-371104523D01*
X108976190Y-371056904D01*
X109071428Y-371009285D01*
X109261904Y-371009285D01*
X109357142Y-371056904D01*
X109404761Y-371104523D01*
X109452380Y-371199761D01*
X109452380Y-371390238D01*
X109404761Y-371485476D01*
X109357142Y-371533095D01*
X109261904Y-371580714D01*
X109071428Y-371580714D01*
X108976190Y-371533095D01*
X108928571Y-371485476D01*
X108880952Y-371390238D01*
X109052380Y-456733333D02*
X108576190Y-456400000D01*
X109052380Y-456161904D02*
X108052380Y-456161904D01*
X108052380Y-456542857D01*
X108100000Y-456638095D01*
X108147619Y-456685714D01*
X108242857Y-456733333D01*
X108385714Y-456733333D01*
X108480952Y-456685714D01*
X108528571Y-456638095D01*
X108576190Y-456542857D01*
X108576190Y-456161904D01*
X108052380Y-457066666D02*
X108052380Y-457733333D01*
X109052380Y-457304761D01*
X106912380Y-458771333D02*
X106436190Y-458438000D01*
X106912380Y-458199904D02*
X105912380Y-458199904D01*
X105912380Y-458580857D01*
X105960000Y-458676095D01*
X106007619Y-458723714D01*
X106102857Y-458771333D01*
X106245714Y-458771333D01*
X106340952Y-458723714D01*
X106388571Y-458676095D01*
X106436190Y-458580857D01*
X106436190Y-458199904D01*
X105912380Y-459104666D02*
X105912380Y-459723714D01*
X106293333Y-459390380D01*
X106293333Y-459533238D01*
X106340952Y-459628476D01*
X106388571Y-459676095D01*
X106483809Y-459723714D01*
X106721904Y-459723714D01*
X106817142Y-459676095D01*
X106864761Y-459628476D01*
X106912380Y-459533238D01*
X106912380Y-459247523D01*
X106864761Y-459152285D01*
X106817142Y-459104666D01*
X106182380Y-370628333D02*
X105706190Y-370295000D01*
X106182380Y-370056904D02*
X105182380Y-370056904D01*
X105182380Y-370437857D01*
X105230000Y-370533095D01*
X105277619Y-370580714D01*
X105372857Y-370628333D01*
X105515714Y-370628333D01*
X105610952Y-370580714D01*
X105658571Y-370533095D01*
X105706190Y-370437857D01*
X105706190Y-370056904D01*
X106182380Y-371104523D02*
X106182380Y-371295000D01*
X106134761Y-371390238D01*
X106087142Y-371437857D01*
X105944285Y-371533095D01*
X105753809Y-371580714D01*
X105372857Y-371580714D01*
X105277619Y-371533095D01*
X105230000Y-371485476D01*
X105182380Y-371390238D01*
X105182380Y-371199761D01*
X105230000Y-371104523D01*
X105277619Y-371056904D01*
X105372857Y-371009285D01*
X105610952Y-371009285D01*
X105706190Y-371056904D01*
X105753809Y-371104523D01*
X105801428Y-371199761D01*
X105801428Y-371390238D01*
X105753809Y-371485476D01*
X105706190Y-371533095D01*
X105610952Y-371580714D01*
X115597142Y-455172142D02*
X115644761Y-455124523D01*
X115692380Y-454981666D01*
X115692380Y-454886428D01*
X115644761Y-454743571D01*
X115549523Y-454648333D01*
X115454285Y-454600714D01*
X115263809Y-454553095D01*
X115120952Y-454553095D01*
X114930476Y-454600714D01*
X114835238Y-454648333D01*
X114740000Y-454743571D01*
X114692380Y-454886428D01*
X114692380Y-454981666D01*
X114740000Y-455124523D01*
X114787619Y-455172142D01*
X115692380Y-456124523D02*
X115692380Y-455553095D01*
X115692380Y-455838809D02*
X114692380Y-455838809D01*
X114835238Y-455743571D01*
X114930476Y-455648333D01*
X114978095Y-455553095D01*
X114692380Y-456981666D02*
X114692380Y-456791190D01*
X114740000Y-456695952D01*
X114787619Y-456648333D01*
X114930476Y-456553095D01*
X115120952Y-456505476D01*
X115501904Y-456505476D01*
X115597142Y-456553095D01*
X115644761Y-456600714D01*
X115692380Y-456695952D01*
X115692380Y-456886428D01*
X115644761Y-456981666D01*
X115597142Y-457029285D01*
X115501904Y-457076904D01*
X115263809Y-457076904D01*
X115168571Y-457029285D01*
X115120952Y-456981666D01*
X115073333Y-456886428D01*
X115073333Y-456695952D01*
X115120952Y-456600714D01*
X115168571Y-456553095D01*
X115263809Y-456505476D01*
X120151666Y-458240142D02*
X120199285Y-458287761D01*
X120342142Y-458335380D01*
X120437380Y-458335380D01*
X120580238Y-458287761D01*
X120675476Y-458192523D01*
X120723095Y-458097285D01*
X120770714Y-457906809D01*
X120770714Y-457763952D01*
X120723095Y-457573476D01*
X120675476Y-457478238D01*
X120580238Y-457383000D01*
X120437380Y-457335380D01*
X120342142Y-457335380D01*
X120199285Y-457383000D01*
X120151666Y-457430619D01*
X119246904Y-457335380D02*
X119723095Y-457335380D01*
X119770714Y-457811571D01*
X119723095Y-457763952D01*
X119627857Y-457716333D01*
X119389761Y-457716333D01*
X119294523Y-457763952D01*
X119246904Y-457811571D01*
X119199285Y-457906809D01*
X119199285Y-458144904D01*
X119246904Y-458240142D01*
X119294523Y-458287761D01*
X119389761Y-458335380D01*
X119627857Y-458335380D01*
X119723095Y-458287761D01*
X119770714Y-458240142D01*
X120126666Y-460252380D02*
X120460000Y-459776190D01*
X120698095Y-460252380D02*
X120698095Y-459252380D01*
X120317142Y-459252380D01*
X120221904Y-459300000D01*
X120174285Y-459347619D01*
X120126666Y-459442857D01*
X120126666Y-459585714D01*
X120174285Y-459680952D01*
X120221904Y-459728571D01*
X120317142Y-459776190D01*
X120698095Y-459776190D01*
X119269523Y-459252380D02*
X119460000Y-459252380D01*
X119555238Y-459300000D01*
X119602857Y-459347619D01*
X119698095Y-459490476D01*
X119745714Y-459680952D01*
X119745714Y-460061904D01*
X119698095Y-460157142D01*
X119650476Y-460204761D01*
X119555238Y-460252380D01*
X119364761Y-460252380D01*
X119269523Y-460204761D01*
X119221904Y-460157142D01*
X119174285Y-460061904D01*
X119174285Y-459823809D01*
X119221904Y-459728571D01*
X119269523Y-459680952D01*
X119364761Y-459633333D01*
X119555238Y-459633333D01*
X119650476Y-459680952D01*
X119698095Y-459728571D01*
X119745714Y-459823809D01*
X104772666Y-466523142D02*
X104820285Y-466570761D01*
X104963142Y-466618380D01*
X105058380Y-466618380D01*
X105201238Y-466570761D01*
X105296476Y-466475523D01*
X105344095Y-466380285D01*
X105391714Y-466189809D01*
X105391714Y-466046952D01*
X105344095Y-465856476D01*
X105296476Y-465761238D01*
X105201238Y-465666000D01*
X105058380Y-465618380D01*
X104963142Y-465618380D01*
X104820285Y-465666000D01*
X104772666Y-465713619D01*
X104439333Y-465618380D02*
X103772666Y-465618380D01*
X104201238Y-466618380D01*
X112439523Y-371932380D02*
X112439523Y-372646666D01*
X112487142Y-372789523D01*
X112582380Y-372884761D01*
X112725238Y-372932380D01*
X112820476Y-372932380D01*
X112058571Y-371932380D02*
X111439523Y-371932380D01*
X111772857Y-372313333D01*
X111630000Y-372313333D01*
X111534761Y-372360952D01*
X111487142Y-372408571D01*
X111439523Y-372503809D01*
X111439523Y-372741904D01*
X111487142Y-372837142D01*
X111534761Y-372884761D01*
X111630000Y-372932380D01*
X111915714Y-372932380D01*
X112010952Y-372884761D01*
X112058571Y-372837142D01*
X111058571Y-372027619D02*
X111010952Y-371980000D01*
X110915714Y-371932380D01*
X110677619Y-371932380D01*
X110582380Y-371980000D01*
X110534761Y-372027619D01*
X110487142Y-372122857D01*
X110487142Y-372218095D01*
X110534761Y-372360952D01*
X111106190Y-372932380D01*
X110487142Y-372932380D01*
X122772857Y-463075142D02*
X122820476Y-463122761D01*
X122963333Y-463170380D01*
X123058571Y-463170380D01*
X123201428Y-463122761D01*
X123296666Y-463027523D01*
X123344285Y-462932285D01*
X123391904Y-462741809D01*
X123391904Y-462598952D01*
X123344285Y-462408476D01*
X123296666Y-462313238D01*
X123201428Y-462218000D01*
X123058571Y-462170380D01*
X122963333Y-462170380D01*
X122820476Y-462218000D01*
X122772857Y-462265619D01*
X121820476Y-463170380D02*
X122391904Y-463170380D01*
X122106190Y-463170380D02*
X122106190Y-462170380D01*
X122201428Y-462313238D01*
X122296666Y-462408476D01*
X122391904Y-462456095D01*
X120915714Y-462170380D02*
X121391904Y-462170380D01*
X121439523Y-462646571D01*
X121391904Y-462598952D01*
X121296666Y-462551333D01*
X121058571Y-462551333D01*
X120963333Y-462598952D01*
X120915714Y-462646571D01*
X120868095Y-462741809D01*
X120868095Y-462979904D01*
X120915714Y-463075142D01*
X120963333Y-463122761D01*
X121058571Y-463170380D01*
X121296666Y-463170380D01*
X121391904Y-463122761D01*
X121439523Y-463075142D01*
X104740857Y-465253142D02*
X104788476Y-465300761D01*
X104931333Y-465348380D01*
X105026571Y-465348380D01*
X105169428Y-465300761D01*
X105264666Y-465205523D01*
X105312285Y-465110285D01*
X105359904Y-464919809D01*
X105359904Y-464776952D01*
X105312285Y-464586476D01*
X105264666Y-464491238D01*
X105169428Y-464396000D01*
X105026571Y-464348380D01*
X104931333Y-464348380D01*
X104788476Y-464396000D01*
X104740857Y-464443619D01*
X103788476Y-465348380D02*
X104359904Y-465348380D01*
X104074190Y-465348380D02*
X104074190Y-464348380D01*
X104169428Y-464491238D01*
X104264666Y-464586476D01*
X104359904Y-464634095D01*
X103407523Y-464443619D02*
X103359904Y-464396000D01*
X103264666Y-464348380D01*
X103026571Y-464348380D01*
X102931333Y-464396000D01*
X102883714Y-464443619D01*
X102836095Y-464538857D01*
X102836095Y-464634095D01*
X102883714Y-464776952D01*
X103455142Y-465348380D01*
X102836095Y-465348380D01*
X101797857Y-456537142D02*
X101845476Y-456584761D01*
X101988333Y-456632380D01*
X102083571Y-456632380D01*
X102226428Y-456584761D01*
X102321666Y-456489523D01*
X102369285Y-456394285D01*
X102416904Y-456203809D01*
X102416904Y-456060952D01*
X102369285Y-455870476D01*
X102321666Y-455775238D01*
X102226428Y-455680000D01*
X102083571Y-455632380D01*
X101988333Y-455632380D01*
X101845476Y-455680000D01*
X101797857Y-455727619D01*
X100845476Y-456632380D02*
X101416904Y-456632380D01*
X101131190Y-456632380D02*
X101131190Y-455632380D01*
X101226428Y-455775238D01*
X101321666Y-455870476D01*
X101416904Y-455918095D01*
X100226428Y-455632380D02*
X100131190Y-455632380D01*
X100035952Y-455680000D01*
X99988333Y-455727619D01*
X99940714Y-455822857D01*
X99893095Y-456013333D01*
X99893095Y-456251428D01*
X99940714Y-456441904D01*
X99988333Y-456537142D01*
X100035952Y-456584761D01*
X100131190Y-456632380D01*
X100226428Y-456632380D01*
X100321666Y-456584761D01*
X100369285Y-456537142D01*
X100416904Y-456441904D01*
X100464523Y-456251428D01*
X100464523Y-456013333D01*
X100416904Y-455822857D01*
X100369285Y-455727619D01*
X100321666Y-455680000D01*
X100226428Y-455632380D01*
X113457142Y-467588333D02*
X113504761Y-467540714D01*
X113552380Y-467397857D01*
X113552380Y-467302619D01*
X113504761Y-467159761D01*
X113409523Y-467064523D01*
X113314285Y-467016904D01*
X113123809Y-466969285D01*
X112980952Y-466969285D01*
X112790476Y-467016904D01*
X112695238Y-467064523D01*
X112600000Y-467159761D01*
X112552380Y-467302619D01*
X112552380Y-467397857D01*
X112600000Y-467540714D01*
X112647619Y-467588333D01*
X112647619Y-467969285D02*
X112600000Y-468016904D01*
X112552380Y-468112142D01*
X112552380Y-468350238D01*
X112600000Y-468445476D01*
X112647619Y-468493095D01*
X112742857Y-468540714D01*
X112838095Y-468540714D01*
X112980952Y-468493095D01*
X113552380Y-467921666D01*
X113552380Y-468540714D01*
X120117666Y-456945142D02*
X120165285Y-456992761D01*
X120308142Y-457040380D01*
X120403380Y-457040380D01*
X120546238Y-456992761D01*
X120641476Y-456897523D01*
X120689095Y-456802285D01*
X120736714Y-456611809D01*
X120736714Y-456468952D01*
X120689095Y-456278476D01*
X120641476Y-456183238D01*
X120546238Y-456088000D01*
X120403380Y-456040380D01*
X120308142Y-456040380D01*
X120165285Y-456088000D01*
X120117666Y-456135619D01*
X119260523Y-456373714D02*
X119260523Y-457040380D01*
X119498619Y-455992761D02*
X119736714Y-456707047D01*
X119117666Y-456707047D01*
X107517142Y-456748333D02*
X107564761Y-456700714D01*
X107612380Y-456557857D01*
X107612380Y-456462619D01*
X107564761Y-456319761D01*
X107469523Y-456224523D01*
X107374285Y-456176904D01*
X107183809Y-456129285D01*
X107040952Y-456129285D01*
X106850476Y-456176904D01*
X106755238Y-456224523D01*
X106660000Y-456319761D01*
X106612380Y-456462619D01*
X106612380Y-456557857D01*
X106660000Y-456700714D01*
X106707619Y-456748333D01*
X106612380Y-457605476D02*
X106612380Y-457415000D01*
X106660000Y-457319761D01*
X106707619Y-457272142D01*
X106850476Y-457176904D01*
X107040952Y-457129285D01*
X107421904Y-457129285D01*
X107517142Y-457176904D01*
X107564761Y-457224523D01*
X107612380Y-457319761D01*
X107612380Y-457510238D01*
X107564761Y-457605476D01*
X107517142Y-457653095D01*
X107421904Y-457700714D01*
X107183809Y-457700714D01*
X107088571Y-457653095D01*
X107040952Y-457605476D01*
X106993333Y-457510238D01*
X106993333Y-457319761D01*
X107040952Y-457224523D01*
X107088571Y-457176904D01*
X107183809Y-457129285D01*
X107317857Y-461297142D02*
X107365476Y-461344761D01*
X107508333Y-461392380D01*
X107603571Y-461392380D01*
X107746428Y-461344761D01*
X107841666Y-461249523D01*
X107889285Y-461154285D01*
X107936904Y-460963809D01*
X107936904Y-460820952D01*
X107889285Y-460630476D01*
X107841666Y-460535238D01*
X107746428Y-460440000D01*
X107603571Y-460392380D01*
X107508333Y-460392380D01*
X107365476Y-460440000D01*
X107317857Y-460487619D01*
X106365476Y-461392380D02*
X106936904Y-461392380D01*
X106651190Y-461392380D02*
X106651190Y-460392380D01*
X106746428Y-460535238D01*
X106841666Y-460630476D01*
X106936904Y-460678095D01*
X105508333Y-460725714D02*
X105508333Y-461392380D01*
X105746428Y-460344761D02*
X105984523Y-461059047D01*
X105365476Y-461059047D01*
X105027666Y-463547142D02*
X105075285Y-463594761D01*
X105218142Y-463642380D01*
X105313380Y-463642380D01*
X105456238Y-463594761D01*
X105551476Y-463499523D01*
X105599095Y-463404285D01*
X105646714Y-463213809D01*
X105646714Y-463070952D01*
X105599095Y-462880476D01*
X105551476Y-462785238D01*
X105456238Y-462690000D01*
X105313380Y-462642380D01*
X105218142Y-462642380D01*
X105075285Y-462690000D01*
X105027666Y-462737619D01*
X104694333Y-462642380D02*
X104075285Y-462642380D01*
X104408619Y-463023333D01*
X104265761Y-463023333D01*
X104170523Y-463070952D01*
X104122904Y-463118571D01*
X104075285Y-463213809D01*
X104075285Y-463451904D01*
X104122904Y-463547142D01*
X104170523Y-463594761D01*
X104265761Y-463642380D01*
X104551476Y-463642380D01*
X104646714Y-463594761D01*
X104694333Y-463547142D01*
X122787857Y-463850142D02*
X122835476Y-463897761D01*
X122978333Y-463945380D01*
X123073571Y-463945380D01*
X123216428Y-463897761D01*
X123311666Y-463802523D01*
X123359285Y-463707285D01*
X123406904Y-463516809D01*
X123406904Y-463373952D01*
X123359285Y-463183476D01*
X123311666Y-463088238D01*
X123216428Y-462993000D01*
X123073571Y-462945380D01*
X122978333Y-462945380D01*
X122835476Y-462993000D01*
X122787857Y-463040619D01*
X121835476Y-463945380D02*
X122406904Y-463945380D01*
X122121190Y-463945380D02*
X122121190Y-462945380D01*
X122216428Y-463088238D01*
X122311666Y-463183476D01*
X122406904Y-463231095D01*
X121502142Y-462945380D02*
X120883095Y-462945380D01*
X121216428Y-463326333D01*
X121073571Y-463326333D01*
X120978333Y-463373952D01*
X120930714Y-463421571D01*
X120883095Y-463516809D01*
X120883095Y-463754904D01*
X120930714Y-463850142D01*
X120978333Y-463897761D01*
X121073571Y-463945380D01*
X121359285Y-463945380D01*
X121454523Y-463897761D01*
X121502142Y-463850142D01*
X98081666Y-446987142D02*
X98129285Y-447034761D01*
X98272142Y-447082380D01*
X98367380Y-447082380D01*
X98510238Y-447034761D01*
X98605476Y-446939523D01*
X98653095Y-446844285D01*
X98700714Y-446653809D01*
X98700714Y-446510952D01*
X98653095Y-446320476D01*
X98605476Y-446225238D01*
X98510238Y-446130000D01*
X98367380Y-446082380D01*
X98272142Y-446082380D01*
X98129285Y-446130000D01*
X98081666Y-446177619D01*
X97605476Y-447082380D02*
X97415000Y-447082380D01*
X97319761Y-447034761D01*
X97272142Y-446987142D01*
X97176904Y-446844285D01*
X97129285Y-446653809D01*
X97129285Y-446272857D01*
X97176904Y-446177619D01*
X97224523Y-446130000D01*
X97319761Y-446082380D01*
X97510238Y-446082380D01*
X97605476Y-446130000D01*
X97653095Y-446177619D01*
X97700714Y-446272857D01*
X97700714Y-446510952D01*
X97653095Y-446606190D01*
X97605476Y-446653809D01*
X97510238Y-446701428D01*
X97319761Y-446701428D01*
X97224523Y-446653809D01*
X97176904Y-446606190D01*
X97129285Y-446510952D01*
X129685618Y-381500685D02*
X129685618Y-382214971D01*
X129733237Y-382357828D01*
X129828475Y-382453066D01*
X129971333Y-382500685D01*
X130066571Y-382500685D01*
X129304666Y-381500685D02*
X128685618Y-381500685D01*
X129018952Y-381881638D01*
X128876095Y-381881638D01*
X128780856Y-381929257D01*
X128733237Y-381976876D01*
X128685618Y-382072114D01*
X128685618Y-382310209D01*
X128733237Y-382405447D01*
X128780856Y-382453066D01*
X128876095Y-382500685D01*
X129161809Y-382500685D01*
X129257047Y-382453066D01*
X129304666Y-382405447D01*
X128209428Y-382500685D02*
X128018952Y-382500685D01*
X127923714Y-382453066D01*
X127876095Y-382405447D01*
X127780856Y-382262590D01*
X127733237Y-382072114D01*
X127733237Y-381691162D01*
X127780856Y-381595924D01*
X127828475Y-381548305D01*
X127923714Y-381500685D01*
X128114190Y-381500685D01*
X128209428Y-381548305D01*
X128257047Y-381595924D01*
X128304666Y-381691162D01*
X128304666Y-381929257D01*
X128257047Y-382024495D01*
X128209428Y-382072114D01*
X128114190Y-382119733D01*
X127923714Y-382119733D01*
X127828475Y-382072114D01*
X127780856Y-382024495D01*
X127733237Y-381929257D01*
X129750122Y-431627273D02*
X129750122Y-432341559D01*
X129797741Y-432484416D01*
X129892979Y-432579654D01*
X130035837Y-432627273D01*
X130131075Y-432627273D01*
X128845360Y-431960607D02*
X128845360Y-432627273D01*
X129083456Y-431579654D02*
X129321551Y-432293940D01*
X128702503Y-432293940D01*
X127845360Y-431627273D02*
X128321551Y-431627273D01*
X128369170Y-432103464D01*
X128321551Y-432055845D01*
X128226313Y-432008226D01*
X127988218Y-432008226D01*
X127892979Y-432055845D01*
X127845360Y-432103464D01*
X127797741Y-432198702D01*
X127797741Y-432436797D01*
X127845360Y-432532035D01*
X127892979Y-432579654D01*
X127988218Y-432627273D01*
X128226313Y-432627273D01*
X128321551Y-432579654D01*
X128369170Y-432532035D01*
X108762743Y-469586229D02*
X109452690Y-469771100D01*
X109603004Y-469762078D01*
X109719647Y-469694734D01*
X109802617Y-469569070D01*
X109827267Y-469477077D01*
X109469850Y-470810974D02*
X109617747Y-470259017D01*
X109543798Y-470534995D02*
X108577873Y-470276176D01*
X108740511Y-470221158D01*
X108857154Y-470153814D01*
X108927800Y-470074146D01*
X108282079Y-471380092D02*
X108331378Y-471196106D01*
X108402024Y-471116437D01*
X108460345Y-471082766D01*
X108622984Y-471027747D01*
X108819295Y-471031049D01*
X109187266Y-471129647D01*
X109266935Y-471200293D01*
X109300606Y-471258614D01*
X109321953Y-471362932D01*
X109272655Y-471546918D01*
X109202009Y-471626586D01*
X109143688Y-471660258D01*
X109039370Y-471681605D01*
X108809388Y-471619981D01*
X108729719Y-471549335D01*
X108696048Y-471491014D01*
X108674701Y-471386696D01*
X108723999Y-471202710D01*
X108794645Y-471123042D01*
X108852966Y-471089371D01*
X108957284Y-471068023D01*
D14*
X124370021Y-461942068D02*
X124974783Y-461942068D01*
X123704783Y-461518734D02*
X124370021Y-461942068D01*
X123704783Y-462365401D01*
X124974783Y-463453972D02*
X124974783Y-462728258D01*
X124974783Y-463091115D02*
X123704783Y-463091115D01*
X123886212Y-462970163D01*
X124007164Y-462849210D01*
X124067640Y-462728258D01*
D10*
X107752380Y-389416666D02*
X108466666Y-389416666D01*
X108609523Y-389369047D01*
X108704761Y-389273809D01*
X108752380Y-389130952D01*
X108752380Y-389035714D01*
X107847619Y-389845238D02*
X107800000Y-389892857D01*
X107752380Y-389988095D01*
X107752380Y-390226190D01*
X107800000Y-390321428D01*
X107847619Y-390369047D01*
X107942857Y-390416666D01*
X108038095Y-390416666D01*
X108180952Y-390369047D01*
X108752380Y-389797619D01*
X108752380Y-390416666D01*
X56866122Y-448315332D02*
X56866122Y-449029618D01*
X56913741Y-449172475D01*
X57008979Y-449267713D01*
X57151836Y-449315332D01*
X57247074Y-449315332D01*
X55866122Y-449315332D02*
X56437550Y-449315332D01*
X56151836Y-449315332D02*
X56151836Y-448315332D01*
X56247074Y-448458190D01*
X56342312Y-448553428D01*
X56437550Y-448601047D01*
X107936541Y-409601868D02*
X108650827Y-409601868D01*
X108793684Y-409554249D01*
X108888922Y-409459011D01*
X108936541Y-409316154D01*
X108936541Y-409220916D01*
X107936541Y-409982821D02*
X107936541Y-410649487D01*
X108936541Y-410220916D01*
X107779354Y-428687638D02*
X108493640Y-428687638D01*
X108636497Y-428640019D01*
X108731735Y-428544781D01*
X108779354Y-428401924D01*
X108779354Y-428306686D01*
X108207926Y-429306686D02*
X108160307Y-429211448D01*
X108112688Y-429163829D01*
X108017450Y-429116210D01*
X107969831Y-429116210D01*
X107874593Y-429163829D01*
X107826974Y-429211448D01*
X107779354Y-429306686D01*
X107779354Y-429497162D01*
X107826974Y-429592400D01*
X107874593Y-429640019D01*
X107969831Y-429687638D01*
X108017450Y-429687638D01*
X108112688Y-429640019D01*
X108160307Y-429592400D01*
X108207926Y-429497162D01*
X108207926Y-429306686D01*
X108255545Y-429211448D01*
X108303164Y-429163829D01*
X108398402Y-429116210D01*
X108588878Y-429116210D01*
X108684116Y-429163829D01*
X108731735Y-429211448D01*
X108779354Y-429306686D01*
X108779354Y-429497162D01*
X108731735Y-429592400D01*
X108684116Y-429640019D01*
X108588878Y-429687638D01*
X108398402Y-429687638D01*
X108303164Y-429640019D01*
X108255545Y-429592400D01*
X108207926Y-429497162D01*
D14*
X99395761Y-456205523D02*
X99395761Y-454935523D01*
X98065285Y-456084571D02*
X98125761Y-456145047D01*
X98307190Y-456205523D01*
X98428142Y-456205523D01*
X98609571Y-456145047D01*
X98730523Y-456024095D01*
X98791000Y-455903142D01*
X98851476Y-455661238D01*
X98851476Y-455479809D01*
X98791000Y-455237904D01*
X98730523Y-455116952D01*
X98609571Y-454996000D01*
X98428142Y-454935523D01*
X98307190Y-454935523D01*
X98125761Y-454996000D01*
X98065285Y-455056476D01*
X97581476Y-455056476D02*
X97521000Y-454996000D01*
X97400047Y-454935523D01*
X97097666Y-454935523D01*
X96976714Y-454996000D01*
X96916238Y-455056476D01*
X96855761Y-455177428D01*
X96855761Y-455298380D01*
X96916238Y-455479809D01*
X97641952Y-456205523D01*
X96855761Y-456205523D01*
D10*
X117033333Y-386408571D02*
X117366666Y-386408571D01*
X117366666Y-386932380D02*
X117366666Y-385932380D01*
X116890476Y-385932380D01*
X115985714Y-386932380D02*
X116557142Y-386932380D01*
X116271428Y-386932380D02*
X116271428Y-385932380D01*
X116366666Y-386075238D01*
X116461904Y-386170476D01*
X116557142Y-386218095D01*
M02*
