G04 #@! TF.GenerationSoftware,KiCad,Pcbnew,(5.1.4)-1*
G04 #@! TF.CreationDate,2023-06-13T20:25:11-04:00*
G04 #@! TF.ProjectId,ThumbsUp,5468756d-6273-4557-902e-6b696361645f,rev?*
G04 #@! TF.SameCoordinates,Original*
G04 #@! TF.FileFunction,Copper,L2,Bot*
G04 #@! TF.FilePolarity,Positive*
%FSLAX46Y46*%
G04 Gerber Fmt 4.6, Leading zero omitted, Abs format (unit mm)*
G04 Created by KiCad (PCBNEW (5.1.4)-1) date 2023-06-13 20:25:11*
%MOMM*%
%LPD*%
G04 APERTURE LIST*
%ADD10R,1.300000X3.250000*%
%ADD11R,1.300000X0.950000*%
%ADD12C,0.100000*%
%ADD13C,1.250000*%
%ADD14C,1.575000*%
%ADD15C,0.590000*%
%ADD16O,1.700000X1.700000*%
%ADD17R,1.700000X1.700000*%
%ADD18R,2.550000X2.500000*%
%ADD19C,2.250000*%
%ADD20C,2.250000*%
%ADD21R,0.600000X1.160000*%
%ADD22R,0.300000X1.160000*%
%ADD23O,0.900000X1.700000*%
%ADD24O,0.900000X2.000000*%
%ADD25C,1.700000*%
%ADD26C,1.700000*%
%ADD27C,0.800000*%
%ADD28C,3.000000*%
%ADD29R,2.100000X5.600000*%
%ADD30R,0.650000X1.650000*%
%ADD31R,3.200000X3.200000*%
%ADD32R,0.850000X0.200000*%
%ADD33R,0.200000X0.850000*%
%ADD34C,0.200000*%
%ADD35C,0.500000*%
G04 APERTURE END LIST*
D10*
X119425000Y-426500000D03*
D11*
X112725000Y-424210000D03*
X112725000Y-426500000D03*
X112725000Y-428790000D03*
D12*
G36*
X113519504Y-432186204D02*
G01*
X113543773Y-432189804D01*
X113567571Y-432195765D01*
X113590671Y-432204030D01*
X113612849Y-432214520D01*
X113633893Y-432227133D01*
X113653598Y-432241747D01*
X113671777Y-432258223D01*
X113688253Y-432276402D01*
X113702867Y-432296107D01*
X113715480Y-432317151D01*
X113725970Y-432339329D01*
X113734235Y-432362429D01*
X113740196Y-432386227D01*
X113743796Y-432410496D01*
X113745000Y-432435000D01*
X113745000Y-433185000D01*
X113743796Y-433209504D01*
X113740196Y-433233773D01*
X113734235Y-433257571D01*
X113725970Y-433280671D01*
X113715480Y-433302849D01*
X113702867Y-433323893D01*
X113688253Y-433343598D01*
X113671777Y-433361777D01*
X113653598Y-433378253D01*
X113633893Y-433392867D01*
X113612849Y-433405480D01*
X113590671Y-433415970D01*
X113567571Y-433424235D01*
X113543773Y-433430196D01*
X113519504Y-433433796D01*
X113495000Y-433435000D01*
X111345000Y-433435000D01*
X111320496Y-433433796D01*
X111296227Y-433430196D01*
X111272429Y-433424235D01*
X111249329Y-433415970D01*
X111227151Y-433405480D01*
X111206107Y-433392867D01*
X111186402Y-433378253D01*
X111168223Y-433361777D01*
X111151747Y-433343598D01*
X111137133Y-433323893D01*
X111124520Y-433302849D01*
X111114030Y-433280671D01*
X111105765Y-433257571D01*
X111099804Y-433233773D01*
X111096204Y-433209504D01*
X111095000Y-433185000D01*
X111095000Y-432435000D01*
X111096204Y-432410496D01*
X111099804Y-432386227D01*
X111105765Y-432362429D01*
X111114030Y-432339329D01*
X111124520Y-432317151D01*
X111137133Y-432296107D01*
X111151747Y-432276402D01*
X111168223Y-432258223D01*
X111186402Y-432241747D01*
X111206107Y-432227133D01*
X111227151Y-432214520D01*
X111249329Y-432204030D01*
X111272429Y-432195765D01*
X111296227Y-432189804D01*
X111320496Y-432186204D01*
X111345000Y-432185000D01*
X113495000Y-432185000D01*
X113519504Y-432186204D01*
X113519504Y-432186204D01*
G37*
D13*
X112420000Y-432810000D03*
D12*
G36*
X113519504Y-434986204D02*
G01*
X113543773Y-434989804D01*
X113567571Y-434995765D01*
X113590671Y-435004030D01*
X113612849Y-435014520D01*
X113633893Y-435027133D01*
X113653598Y-435041747D01*
X113671777Y-435058223D01*
X113688253Y-435076402D01*
X113702867Y-435096107D01*
X113715480Y-435117151D01*
X113725970Y-435139329D01*
X113734235Y-435162429D01*
X113740196Y-435186227D01*
X113743796Y-435210496D01*
X113745000Y-435235000D01*
X113745000Y-435985000D01*
X113743796Y-436009504D01*
X113740196Y-436033773D01*
X113734235Y-436057571D01*
X113725970Y-436080671D01*
X113715480Y-436102849D01*
X113702867Y-436123893D01*
X113688253Y-436143598D01*
X113671777Y-436161777D01*
X113653598Y-436178253D01*
X113633893Y-436192867D01*
X113612849Y-436205480D01*
X113590671Y-436215970D01*
X113567571Y-436224235D01*
X113543773Y-436230196D01*
X113519504Y-436233796D01*
X113495000Y-436235000D01*
X111345000Y-436235000D01*
X111320496Y-436233796D01*
X111296227Y-436230196D01*
X111272429Y-436224235D01*
X111249329Y-436215970D01*
X111227151Y-436205480D01*
X111206107Y-436192867D01*
X111186402Y-436178253D01*
X111168223Y-436161777D01*
X111151747Y-436143598D01*
X111137133Y-436123893D01*
X111124520Y-436102849D01*
X111114030Y-436080671D01*
X111105765Y-436057571D01*
X111099804Y-436033773D01*
X111096204Y-436009504D01*
X111095000Y-435985000D01*
X111095000Y-435235000D01*
X111096204Y-435210496D01*
X111099804Y-435186227D01*
X111105765Y-435162429D01*
X111114030Y-435139329D01*
X111124520Y-435117151D01*
X111137133Y-435096107D01*
X111151747Y-435076402D01*
X111168223Y-435058223D01*
X111186402Y-435041747D01*
X111206107Y-435027133D01*
X111227151Y-435014520D01*
X111249329Y-435004030D01*
X111272429Y-434995765D01*
X111296227Y-434989804D01*
X111320496Y-434986204D01*
X111345000Y-434985000D01*
X113495000Y-434985000D01*
X113519504Y-434986204D01*
X113519504Y-434986204D01*
G37*
D13*
X112420000Y-435610000D03*
D14*
X85447277Y-456655373D03*
X87998928Y-459674326D03*
X86826658Y-464018953D03*
X81723356Y-457981047D03*
X80551086Y-462325674D03*
X75669532Y-454055373D03*
X78221183Y-457074326D03*
X77048913Y-461418953D03*
X71945611Y-455381047D03*
X70773341Y-459725674D03*
D12*
G36*
X118676958Y-467080710D02*
G01*
X118691276Y-467082834D01*
X118705317Y-467086351D01*
X118718946Y-467091228D01*
X118732031Y-467097417D01*
X118744447Y-467104858D01*
X118756073Y-467113481D01*
X118766798Y-467123202D01*
X118776519Y-467133927D01*
X118785142Y-467145553D01*
X118792583Y-467157969D01*
X118798772Y-467171054D01*
X118803649Y-467184683D01*
X118807166Y-467198724D01*
X118809290Y-467213042D01*
X118810000Y-467227500D01*
X118810000Y-467572500D01*
X118809290Y-467586958D01*
X118807166Y-467601276D01*
X118803649Y-467615317D01*
X118798772Y-467628946D01*
X118792583Y-467642031D01*
X118785142Y-467654447D01*
X118776519Y-467666073D01*
X118766798Y-467676798D01*
X118756073Y-467686519D01*
X118744447Y-467695142D01*
X118732031Y-467702583D01*
X118718946Y-467708772D01*
X118705317Y-467713649D01*
X118691276Y-467717166D01*
X118676958Y-467719290D01*
X118662500Y-467720000D01*
X118367500Y-467720000D01*
X118353042Y-467719290D01*
X118338724Y-467717166D01*
X118324683Y-467713649D01*
X118311054Y-467708772D01*
X118297969Y-467702583D01*
X118285553Y-467695142D01*
X118273927Y-467686519D01*
X118263202Y-467676798D01*
X118253481Y-467666073D01*
X118244858Y-467654447D01*
X118237417Y-467642031D01*
X118231228Y-467628946D01*
X118226351Y-467615317D01*
X118222834Y-467601276D01*
X118220710Y-467586958D01*
X118220000Y-467572500D01*
X118220000Y-467227500D01*
X118220710Y-467213042D01*
X118222834Y-467198724D01*
X118226351Y-467184683D01*
X118231228Y-467171054D01*
X118237417Y-467157969D01*
X118244858Y-467145553D01*
X118253481Y-467133927D01*
X118263202Y-467123202D01*
X118273927Y-467113481D01*
X118285553Y-467104858D01*
X118297969Y-467097417D01*
X118311054Y-467091228D01*
X118324683Y-467086351D01*
X118338724Y-467082834D01*
X118353042Y-467080710D01*
X118367500Y-467080000D01*
X118662500Y-467080000D01*
X118676958Y-467080710D01*
X118676958Y-467080710D01*
G37*
D15*
X118515000Y-467400000D03*
D12*
G36*
X119646958Y-467080710D02*
G01*
X119661276Y-467082834D01*
X119675317Y-467086351D01*
X119688946Y-467091228D01*
X119702031Y-467097417D01*
X119714447Y-467104858D01*
X119726073Y-467113481D01*
X119736798Y-467123202D01*
X119746519Y-467133927D01*
X119755142Y-467145553D01*
X119762583Y-467157969D01*
X119768772Y-467171054D01*
X119773649Y-467184683D01*
X119777166Y-467198724D01*
X119779290Y-467213042D01*
X119780000Y-467227500D01*
X119780000Y-467572500D01*
X119779290Y-467586958D01*
X119777166Y-467601276D01*
X119773649Y-467615317D01*
X119768772Y-467628946D01*
X119762583Y-467642031D01*
X119755142Y-467654447D01*
X119746519Y-467666073D01*
X119736798Y-467676798D01*
X119726073Y-467686519D01*
X119714447Y-467695142D01*
X119702031Y-467702583D01*
X119688946Y-467708772D01*
X119675317Y-467713649D01*
X119661276Y-467717166D01*
X119646958Y-467719290D01*
X119632500Y-467720000D01*
X119337500Y-467720000D01*
X119323042Y-467719290D01*
X119308724Y-467717166D01*
X119294683Y-467713649D01*
X119281054Y-467708772D01*
X119267969Y-467702583D01*
X119255553Y-467695142D01*
X119243927Y-467686519D01*
X119233202Y-467676798D01*
X119223481Y-467666073D01*
X119214858Y-467654447D01*
X119207417Y-467642031D01*
X119201228Y-467628946D01*
X119196351Y-467615317D01*
X119192834Y-467601276D01*
X119190710Y-467586958D01*
X119190000Y-467572500D01*
X119190000Y-467227500D01*
X119190710Y-467213042D01*
X119192834Y-467198724D01*
X119196351Y-467184683D01*
X119201228Y-467171054D01*
X119207417Y-467157969D01*
X119214858Y-467145553D01*
X119223481Y-467133927D01*
X119233202Y-467123202D01*
X119243927Y-467113481D01*
X119255553Y-467104858D01*
X119267969Y-467097417D01*
X119281054Y-467091228D01*
X119294683Y-467086351D01*
X119308724Y-467082834D01*
X119323042Y-467080710D01*
X119337500Y-467080000D01*
X119632500Y-467080000D01*
X119646958Y-467080710D01*
X119646958Y-467080710D01*
G37*
D15*
X119485000Y-467400000D03*
D16*
X97510000Y-370820000D03*
X100050000Y-370820000D03*
X102590000Y-370820000D03*
D17*
X105130000Y-370820000D03*
D18*
X109117789Y-422052952D03*
X96190789Y-424592952D03*
D19*
X99532789Y-415512952D03*
X98877790Y-416242952D03*
D20*
X98222789Y-416972952D02*
X99532791Y-415512952D01*
D19*
X104572789Y-414432952D03*
X104552789Y-414722952D03*
D20*
X104532789Y-415012952D02*
X104572789Y-414432952D01*
D18*
X128167790Y-380960000D03*
X115240790Y-383500000D03*
D19*
X118582790Y-374420000D03*
X117927791Y-375150000D03*
D20*
X117272790Y-375880000D02*
X118582792Y-374420000D01*
D19*
X123622790Y-373340000D03*
X123602790Y-373630000D03*
D20*
X123582790Y-373920000D02*
X123622790Y-373340000D01*
D18*
X109117790Y-383940000D03*
X96190790Y-386480000D03*
D19*
X99532790Y-377400000D03*
X98877791Y-378130000D03*
D20*
X98222790Y-378860000D02*
X99532792Y-377400000D01*
D19*
X104572790Y-376320000D03*
X104552790Y-376610000D03*
D20*
X104532790Y-376900000D02*
X104572790Y-376320000D01*
D18*
X128167789Y-438102952D03*
X115240789Y-440642952D03*
D19*
X118582789Y-431562952D03*
X117927790Y-432292952D03*
D20*
X117272789Y-433022952D02*
X118582791Y-431562952D01*
D19*
X123622789Y-430482952D03*
X123602789Y-430772952D03*
D20*
X123582789Y-431062952D02*
X123622789Y-430482952D01*
D18*
X113997789Y-413972952D03*
X126924789Y-411432952D03*
D19*
X123582789Y-420512952D03*
X124237788Y-419782952D03*
D20*
X124892789Y-419052952D02*
X123582787Y-420512952D01*
D19*
X118542789Y-421592952D03*
X118562789Y-421302952D03*
D20*
X118582789Y-421012952D02*
X118542789Y-421592952D01*
D19*
X123602790Y-392672952D03*
D20*
X123582790Y-392962952D02*
X123622790Y-392382952D01*
D19*
X123622790Y-392382952D03*
X117927791Y-394192952D03*
D20*
X117272790Y-394922952D02*
X118582792Y-393462952D01*
D19*
X118582790Y-393462952D03*
D18*
X115240790Y-402542952D03*
X128167790Y-400002952D03*
X109117790Y-441102952D03*
X96190790Y-443642952D03*
D19*
X99532790Y-434562952D03*
X98877791Y-435292952D03*
D20*
X98222790Y-436022952D02*
X99532792Y-434562952D01*
D19*
X104572790Y-433482952D03*
X104552790Y-433772952D03*
D20*
X104532790Y-434062952D02*
X104572790Y-433482952D01*
D19*
X104552790Y-395672952D03*
D20*
X104532790Y-395962952D02*
X104572790Y-395382952D01*
D19*
X104572790Y-395382952D03*
X98877791Y-397192952D03*
D20*
X98222790Y-397922952D02*
X99532792Y-396462952D01*
D19*
X99532790Y-396462952D03*
D18*
X96190790Y-405542952D03*
X109117790Y-403002952D03*
X75897789Y-444522953D03*
X88824789Y-441982953D03*
D19*
X85482789Y-451062953D03*
X86137788Y-450332953D03*
D20*
X86792789Y-449602953D02*
X85482787Y-451062953D01*
D19*
X80442789Y-452142953D03*
X80462789Y-451852953D03*
D20*
X80482789Y-451562953D02*
X80442789Y-452142953D01*
D18*
X56847789Y-449522952D03*
X69774789Y-446982952D03*
D19*
X66432789Y-456062952D03*
X67087788Y-455332952D03*
D20*
X67742789Y-454602952D02*
X66432787Y-456062952D01*
D19*
X61392789Y-457142952D03*
X61412789Y-456852952D03*
D20*
X61432789Y-456562952D02*
X61392789Y-457142952D01*
D12*
G36*
X117556958Y-469055710D02*
G01*
X117571276Y-469057834D01*
X117585317Y-469061351D01*
X117598946Y-469066228D01*
X117612031Y-469072417D01*
X117624447Y-469079858D01*
X117636073Y-469088481D01*
X117646798Y-469098202D01*
X117656519Y-469108927D01*
X117665142Y-469120553D01*
X117672583Y-469132969D01*
X117678772Y-469146054D01*
X117683649Y-469159683D01*
X117687166Y-469173724D01*
X117689290Y-469188042D01*
X117690000Y-469202500D01*
X117690000Y-469547500D01*
X117689290Y-469561958D01*
X117687166Y-469576276D01*
X117683649Y-469590317D01*
X117678772Y-469603946D01*
X117672583Y-469617031D01*
X117665142Y-469629447D01*
X117656519Y-469641073D01*
X117646798Y-469651798D01*
X117636073Y-469661519D01*
X117624447Y-469670142D01*
X117612031Y-469677583D01*
X117598946Y-469683772D01*
X117585317Y-469688649D01*
X117571276Y-469692166D01*
X117556958Y-469694290D01*
X117542500Y-469695000D01*
X117247500Y-469695000D01*
X117233042Y-469694290D01*
X117218724Y-469692166D01*
X117204683Y-469688649D01*
X117191054Y-469683772D01*
X117177969Y-469677583D01*
X117165553Y-469670142D01*
X117153927Y-469661519D01*
X117143202Y-469651798D01*
X117133481Y-469641073D01*
X117124858Y-469629447D01*
X117117417Y-469617031D01*
X117111228Y-469603946D01*
X117106351Y-469590317D01*
X117102834Y-469576276D01*
X117100710Y-469561958D01*
X117100000Y-469547500D01*
X117100000Y-469202500D01*
X117100710Y-469188042D01*
X117102834Y-469173724D01*
X117106351Y-469159683D01*
X117111228Y-469146054D01*
X117117417Y-469132969D01*
X117124858Y-469120553D01*
X117133481Y-469108927D01*
X117143202Y-469098202D01*
X117153927Y-469088481D01*
X117165553Y-469079858D01*
X117177969Y-469072417D01*
X117191054Y-469066228D01*
X117204683Y-469061351D01*
X117218724Y-469057834D01*
X117233042Y-469055710D01*
X117247500Y-469055000D01*
X117542500Y-469055000D01*
X117556958Y-469055710D01*
X117556958Y-469055710D01*
G37*
D15*
X117395000Y-469375000D03*
D12*
G36*
X116586958Y-469055710D02*
G01*
X116601276Y-469057834D01*
X116615317Y-469061351D01*
X116628946Y-469066228D01*
X116642031Y-469072417D01*
X116654447Y-469079858D01*
X116666073Y-469088481D01*
X116676798Y-469098202D01*
X116686519Y-469108927D01*
X116695142Y-469120553D01*
X116702583Y-469132969D01*
X116708772Y-469146054D01*
X116713649Y-469159683D01*
X116717166Y-469173724D01*
X116719290Y-469188042D01*
X116720000Y-469202500D01*
X116720000Y-469547500D01*
X116719290Y-469561958D01*
X116717166Y-469576276D01*
X116713649Y-469590317D01*
X116708772Y-469603946D01*
X116702583Y-469617031D01*
X116695142Y-469629447D01*
X116686519Y-469641073D01*
X116676798Y-469651798D01*
X116666073Y-469661519D01*
X116654447Y-469670142D01*
X116642031Y-469677583D01*
X116628946Y-469683772D01*
X116615317Y-469688649D01*
X116601276Y-469692166D01*
X116586958Y-469694290D01*
X116572500Y-469695000D01*
X116277500Y-469695000D01*
X116263042Y-469694290D01*
X116248724Y-469692166D01*
X116234683Y-469688649D01*
X116221054Y-469683772D01*
X116207969Y-469677583D01*
X116195553Y-469670142D01*
X116183927Y-469661519D01*
X116173202Y-469651798D01*
X116163481Y-469641073D01*
X116154858Y-469629447D01*
X116147417Y-469617031D01*
X116141228Y-469603946D01*
X116136351Y-469590317D01*
X116132834Y-469576276D01*
X116130710Y-469561958D01*
X116130000Y-469547500D01*
X116130000Y-469202500D01*
X116130710Y-469188042D01*
X116132834Y-469173724D01*
X116136351Y-469159683D01*
X116141228Y-469146054D01*
X116147417Y-469132969D01*
X116154858Y-469120553D01*
X116163481Y-469108927D01*
X116173202Y-469098202D01*
X116183927Y-469088481D01*
X116195553Y-469079858D01*
X116207969Y-469072417D01*
X116221054Y-469066228D01*
X116234683Y-469061351D01*
X116248724Y-469057834D01*
X116263042Y-469055710D01*
X116277500Y-469055000D01*
X116572500Y-469055000D01*
X116586958Y-469055710D01*
X116586958Y-469055710D01*
G37*
D15*
X116425000Y-469375000D03*
D12*
G36*
X109612958Y-447797710D02*
G01*
X109627276Y-447799834D01*
X109641317Y-447803351D01*
X109654946Y-447808228D01*
X109668031Y-447814417D01*
X109680447Y-447821858D01*
X109692073Y-447830481D01*
X109702798Y-447840202D01*
X109712519Y-447850927D01*
X109721142Y-447862553D01*
X109728583Y-447874969D01*
X109734772Y-447888054D01*
X109739649Y-447901683D01*
X109743166Y-447915724D01*
X109745290Y-447930042D01*
X109746000Y-447944500D01*
X109746000Y-448239500D01*
X109745290Y-448253958D01*
X109743166Y-448268276D01*
X109739649Y-448282317D01*
X109734772Y-448295946D01*
X109728583Y-448309031D01*
X109721142Y-448321447D01*
X109712519Y-448333073D01*
X109702798Y-448343798D01*
X109692073Y-448353519D01*
X109680447Y-448362142D01*
X109668031Y-448369583D01*
X109654946Y-448375772D01*
X109641317Y-448380649D01*
X109627276Y-448384166D01*
X109612958Y-448386290D01*
X109598500Y-448387000D01*
X109253500Y-448387000D01*
X109239042Y-448386290D01*
X109224724Y-448384166D01*
X109210683Y-448380649D01*
X109197054Y-448375772D01*
X109183969Y-448369583D01*
X109171553Y-448362142D01*
X109159927Y-448353519D01*
X109149202Y-448343798D01*
X109139481Y-448333073D01*
X109130858Y-448321447D01*
X109123417Y-448309031D01*
X109117228Y-448295946D01*
X109112351Y-448282317D01*
X109108834Y-448268276D01*
X109106710Y-448253958D01*
X109106000Y-448239500D01*
X109106000Y-447944500D01*
X109106710Y-447930042D01*
X109108834Y-447915724D01*
X109112351Y-447901683D01*
X109117228Y-447888054D01*
X109123417Y-447874969D01*
X109130858Y-447862553D01*
X109139481Y-447850927D01*
X109149202Y-447840202D01*
X109159927Y-447830481D01*
X109171553Y-447821858D01*
X109183969Y-447814417D01*
X109197054Y-447808228D01*
X109210683Y-447803351D01*
X109224724Y-447799834D01*
X109239042Y-447797710D01*
X109253500Y-447797000D01*
X109598500Y-447797000D01*
X109612958Y-447797710D01*
X109612958Y-447797710D01*
G37*
D15*
X109426000Y-448092000D03*
D12*
G36*
X109612958Y-448767710D02*
G01*
X109627276Y-448769834D01*
X109641317Y-448773351D01*
X109654946Y-448778228D01*
X109668031Y-448784417D01*
X109680447Y-448791858D01*
X109692073Y-448800481D01*
X109702798Y-448810202D01*
X109712519Y-448820927D01*
X109721142Y-448832553D01*
X109728583Y-448844969D01*
X109734772Y-448858054D01*
X109739649Y-448871683D01*
X109743166Y-448885724D01*
X109745290Y-448900042D01*
X109746000Y-448914500D01*
X109746000Y-449209500D01*
X109745290Y-449223958D01*
X109743166Y-449238276D01*
X109739649Y-449252317D01*
X109734772Y-449265946D01*
X109728583Y-449279031D01*
X109721142Y-449291447D01*
X109712519Y-449303073D01*
X109702798Y-449313798D01*
X109692073Y-449323519D01*
X109680447Y-449332142D01*
X109668031Y-449339583D01*
X109654946Y-449345772D01*
X109641317Y-449350649D01*
X109627276Y-449354166D01*
X109612958Y-449356290D01*
X109598500Y-449357000D01*
X109253500Y-449357000D01*
X109239042Y-449356290D01*
X109224724Y-449354166D01*
X109210683Y-449350649D01*
X109197054Y-449345772D01*
X109183969Y-449339583D01*
X109171553Y-449332142D01*
X109159927Y-449323519D01*
X109149202Y-449313798D01*
X109139481Y-449303073D01*
X109130858Y-449291447D01*
X109123417Y-449279031D01*
X109117228Y-449265946D01*
X109112351Y-449252317D01*
X109108834Y-449238276D01*
X109106710Y-449223958D01*
X109106000Y-449209500D01*
X109106000Y-448914500D01*
X109106710Y-448900042D01*
X109108834Y-448885724D01*
X109112351Y-448871683D01*
X109117228Y-448858054D01*
X109123417Y-448844969D01*
X109130858Y-448832553D01*
X109139481Y-448820927D01*
X109149202Y-448810202D01*
X109159927Y-448800481D01*
X109171553Y-448791858D01*
X109183969Y-448784417D01*
X109197054Y-448778228D01*
X109210683Y-448773351D01*
X109224724Y-448769834D01*
X109239042Y-448767710D01*
X109253500Y-448767000D01*
X109598500Y-448767000D01*
X109612958Y-448767710D01*
X109612958Y-448767710D01*
G37*
D15*
X109426000Y-449062000D03*
D12*
G36*
X108562958Y-447797710D02*
G01*
X108577276Y-447799834D01*
X108591317Y-447803351D01*
X108604946Y-447808228D01*
X108618031Y-447814417D01*
X108630447Y-447821858D01*
X108642073Y-447830481D01*
X108652798Y-447840202D01*
X108662519Y-447850927D01*
X108671142Y-447862553D01*
X108678583Y-447874969D01*
X108684772Y-447888054D01*
X108689649Y-447901683D01*
X108693166Y-447915724D01*
X108695290Y-447930042D01*
X108696000Y-447944500D01*
X108696000Y-448239500D01*
X108695290Y-448253958D01*
X108693166Y-448268276D01*
X108689649Y-448282317D01*
X108684772Y-448295946D01*
X108678583Y-448309031D01*
X108671142Y-448321447D01*
X108662519Y-448333073D01*
X108652798Y-448343798D01*
X108642073Y-448353519D01*
X108630447Y-448362142D01*
X108618031Y-448369583D01*
X108604946Y-448375772D01*
X108591317Y-448380649D01*
X108577276Y-448384166D01*
X108562958Y-448386290D01*
X108548500Y-448387000D01*
X108203500Y-448387000D01*
X108189042Y-448386290D01*
X108174724Y-448384166D01*
X108160683Y-448380649D01*
X108147054Y-448375772D01*
X108133969Y-448369583D01*
X108121553Y-448362142D01*
X108109927Y-448353519D01*
X108099202Y-448343798D01*
X108089481Y-448333073D01*
X108080858Y-448321447D01*
X108073417Y-448309031D01*
X108067228Y-448295946D01*
X108062351Y-448282317D01*
X108058834Y-448268276D01*
X108056710Y-448253958D01*
X108056000Y-448239500D01*
X108056000Y-447944500D01*
X108056710Y-447930042D01*
X108058834Y-447915724D01*
X108062351Y-447901683D01*
X108067228Y-447888054D01*
X108073417Y-447874969D01*
X108080858Y-447862553D01*
X108089481Y-447850927D01*
X108099202Y-447840202D01*
X108109927Y-447830481D01*
X108121553Y-447821858D01*
X108133969Y-447814417D01*
X108147054Y-447808228D01*
X108160683Y-447803351D01*
X108174724Y-447799834D01*
X108189042Y-447797710D01*
X108203500Y-447797000D01*
X108548500Y-447797000D01*
X108562958Y-447797710D01*
X108562958Y-447797710D01*
G37*
D15*
X108376000Y-448092000D03*
D12*
G36*
X108562958Y-448767710D02*
G01*
X108577276Y-448769834D01*
X108591317Y-448773351D01*
X108604946Y-448778228D01*
X108618031Y-448784417D01*
X108630447Y-448791858D01*
X108642073Y-448800481D01*
X108652798Y-448810202D01*
X108662519Y-448820927D01*
X108671142Y-448832553D01*
X108678583Y-448844969D01*
X108684772Y-448858054D01*
X108689649Y-448871683D01*
X108693166Y-448885724D01*
X108695290Y-448900042D01*
X108696000Y-448914500D01*
X108696000Y-449209500D01*
X108695290Y-449223958D01*
X108693166Y-449238276D01*
X108689649Y-449252317D01*
X108684772Y-449265946D01*
X108678583Y-449279031D01*
X108671142Y-449291447D01*
X108662519Y-449303073D01*
X108652798Y-449313798D01*
X108642073Y-449323519D01*
X108630447Y-449332142D01*
X108618031Y-449339583D01*
X108604946Y-449345772D01*
X108591317Y-449350649D01*
X108577276Y-449354166D01*
X108562958Y-449356290D01*
X108548500Y-449357000D01*
X108203500Y-449357000D01*
X108189042Y-449356290D01*
X108174724Y-449354166D01*
X108160683Y-449350649D01*
X108147054Y-449345772D01*
X108133969Y-449339583D01*
X108121553Y-449332142D01*
X108109927Y-449323519D01*
X108099202Y-449313798D01*
X108089481Y-449303073D01*
X108080858Y-449291447D01*
X108073417Y-449279031D01*
X108067228Y-449265946D01*
X108062351Y-449252317D01*
X108058834Y-449238276D01*
X108056710Y-449223958D01*
X108056000Y-449209500D01*
X108056000Y-448914500D01*
X108056710Y-448900042D01*
X108058834Y-448885724D01*
X108062351Y-448871683D01*
X108067228Y-448858054D01*
X108073417Y-448844969D01*
X108080858Y-448832553D01*
X108089481Y-448820927D01*
X108099202Y-448810202D01*
X108109927Y-448800481D01*
X108121553Y-448791858D01*
X108133969Y-448784417D01*
X108147054Y-448778228D01*
X108160683Y-448773351D01*
X108174724Y-448769834D01*
X108189042Y-448767710D01*
X108203500Y-448767000D01*
X108548500Y-448767000D01*
X108562958Y-448767710D01*
X108562958Y-448767710D01*
G37*
D15*
X108376000Y-449062000D03*
D12*
G36*
X118286958Y-372155710D02*
G01*
X118301276Y-372157834D01*
X118315317Y-372161351D01*
X118328946Y-372166228D01*
X118342031Y-372172417D01*
X118354447Y-372179858D01*
X118366073Y-372188481D01*
X118376798Y-372198202D01*
X118386519Y-372208927D01*
X118395142Y-372220553D01*
X118402583Y-372232969D01*
X118408772Y-372246054D01*
X118413649Y-372259683D01*
X118417166Y-372273724D01*
X118419290Y-372288042D01*
X118420000Y-372302500D01*
X118420000Y-372647500D01*
X118419290Y-372661958D01*
X118417166Y-372676276D01*
X118413649Y-372690317D01*
X118408772Y-372703946D01*
X118402583Y-372717031D01*
X118395142Y-372729447D01*
X118386519Y-372741073D01*
X118376798Y-372751798D01*
X118366073Y-372761519D01*
X118354447Y-372770142D01*
X118342031Y-372777583D01*
X118328946Y-372783772D01*
X118315317Y-372788649D01*
X118301276Y-372792166D01*
X118286958Y-372794290D01*
X118272500Y-372795000D01*
X117977500Y-372795000D01*
X117963042Y-372794290D01*
X117948724Y-372792166D01*
X117934683Y-372788649D01*
X117921054Y-372783772D01*
X117907969Y-372777583D01*
X117895553Y-372770142D01*
X117883927Y-372761519D01*
X117873202Y-372751798D01*
X117863481Y-372741073D01*
X117854858Y-372729447D01*
X117847417Y-372717031D01*
X117841228Y-372703946D01*
X117836351Y-372690317D01*
X117832834Y-372676276D01*
X117830710Y-372661958D01*
X117830000Y-372647500D01*
X117830000Y-372302500D01*
X117830710Y-372288042D01*
X117832834Y-372273724D01*
X117836351Y-372259683D01*
X117841228Y-372246054D01*
X117847417Y-372232969D01*
X117854858Y-372220553D01*
X117863481Y-372208927D01*
X117873202Y-372198202D01*
X117883927Y-372188481D01*
X117895553Y-372179858D01*
X117907969Y-372172417D01*
X117921054Y-372166228D01*
X117934683Y-372161351D01*
X117948724Y-372157834D01*
X117963042Y-372155710D01*
X117977500Y-372155000D01*
X118272500Y-372155000D01*
X118286958Y-372155710D01*
X118286958Y-372155710D01*
G37*
D15*
X118125000Y-372475000D03*
D12*
G36*
X119256958Y-372155710D02*
G01*
X119271276Y-372157834D01*
X119285317Y-372161351D01*
X119298946Y-372166228D01*
X119312031Y-372172417D01*
X119324447Y-372179858D01*
X119336073Y-372188481D01*
X119346798Y-372198202D01*
X119356519Y-372208927D01*
X119365142Y-372220553D01*
X119372583Y-372232969D01*
X119378772Y-372246054D01*
X119383649Y-372259683D01*
X119387166Y-372273724D01*
X119389290Y-372288042D01*
X119390000Y-372302500D01*
X119390000Y-372647500D01*
X119389290Y-372661958D01*
X119387166Y-372676276D01*
X119383649Y-372690317D01*
X119378772Y-372703946D01*
X119372583Y-372717031D01*
X119365142Y-372729447D01*
X119356519Y-372741073D01*
X119346798Y-372751798D01*
X119336073Y-372761519D01*
X119324447Y-372770142D01*
X119312031Y-372777583D01*
X119298946Y-372783772D01*
X119285317Y-372788649D01*
X119271276Y-372792166D01*
X119256958Y-372794290D01*
X119242500Y-372795000D01*
X118947500Y-372795000D01*
X118933042Y-372794290D01*
X118918724Y-372792166D01*
X118904683Y-372788649D01*
X118891054Y-372783772D01*
X118877969Y-372777583D01*
X118865553Y-372770142D01*
X118853927Y-372761519D01*
X118843202Y-372751798D01*
X118833481Y-372741073D01*
X118824858Y-372729447D01*
X118817417Y-372717031D01*
X118811228Y-372703946D01*
X118806351Y-372690317D01*
X118802834Y-372676276D01*
X118800710Y-372661958D01*
X118800000Y-372647500D01*
X118800000Y-372302500D01*
X118800710Y-372288042D01*
X118802834Y-372273724D01*
X118806351Y-372259683D01*
X118811228Y-372246054D01*
X118817417Y-372232969D01*
X118824858Y-372220553D01*
X118833481Y-372208927D01*
X118843202Y-372198202D01*
X118853927Y-372188481D01*
X118865553Y-372179858D01*
X118877969Y-372172417D01*
X118891054Y-372166228D01*
X118904683Y-372161351D01*
X118918724Y-372157834D01*
X118933042Y-372155710D01*
X118947500Y-372155000D01*
X119242500Y-372155000D01*
X119256958Y-372155710D01*
X119256958Y-372155710D01*
G37*
D15*
X119095000Y-372475000D03*
D12*
G36*
X119256958Y-371155710D02*
G01*
X119271276Y-371157834D01*
X119285317Y-371161351D01*
X119298946Y-371166228D01*
X119312031Y-371172417D01*
X119324447Y-371179858D01*
X119336073Y-371188481D01*
X119346798Y-371198202D01*
X119356519Y-371208927D01*
X119365142Y-371220553D01*
X119372583Y-371232969D01*
X119378772Y-371246054D01*
X119383649Y-371259683D01*
X119387166Y-371273724D01*
X119389290Y-371288042D01*
X119390000Y-371302500D01*
X119390000Y-371647500D01*
X119389290Y-371661958D01*
X119387166Y-371676276D01*
X119383649Y-371690317D01*
X119378772Y-371703946D01*
X119372583Y-371717031D01*
X119365142Y-371729447D01*
X119356519Y-371741073D01*
X119346798Y-371751798D01*
X119336073Y-371761519D01*
X119324447Y-371770142D01*
X119312031Y-371777583D01*
X119298946Y-371783772D01*
X119285317Y-371788649D01*
X119271276Y-371792166D01*
X119256958Y-371794290D01*
X119242500Y-371795000D01*
X118947500Y-371795000D01*
X118933042Y-371794290D01*
X118918724Y-371792166D01*
X118904683Y-371788649D01*
X118891054Y-371783772D01*
X118877969Y-371777583D01*
X118865553Y-371770142D01*
X118853927Y-371761519D01*
X118843202Y-371751798D01*
X118833481Y-371741073D01*
X118824858Y-371729447D01*
X118817417Y-371717031D01*
X118811228Y-371703946D01*
X118806351Y-371690317D01*
X118802834Y-371676276D01*
X118800710Y-371661958D01*
X118800000Y-371647500D01*
X118800000Y-371302500D01*
X118800710Y-371288042D01*
X118802834Y-371273724D01*
X118806351Y-371259683D01*
X118811228Y-371246054D01*
X118817417Y-371232969D01*
X118824858Y-371220553D01*
X118833481Y-371208927D01*
X118843202Y-371198202D01*
X118853927Y-371188481D01*
X118865553Y-371179858D01*
X118877969Y-371172417D01*
X118891054Y-371166228D01*
X118904683Y-371161351D01*
X118918724Y-371157834D01*
X118933042Y-371155710D01*
X118947500Y-371155000D01*
X119242500Y-371155000D01*
X119256958Y-371155710D01*
X119256958Y-371155710D01*
G37*
D15*
X119095000Y-371475000D03*
D12*
G36*
X118286958Y-371155710D02*
G01*
X118301276Y-371157834D01*
X118315317Y-371161351D01*
X118328946Y-371166228D01*
X118342031Y-371172417D01*
X118354447Y-371179858D01*
X118366073Y-371188481D01*
X118376798Y-371198202D01*
X118386519Y-371208927D01*
X118395142Y-371220553D01*
X118402583Y-371232969D01*
X118408772Y-371246054D01*
X118413649Y-371259683D01*
X118417166Y-371273724D01*
X118419290Y-371288042D01*
X118420000Y-371302500D01*
X118420000Y-371647500D01*
X118419290Y-371661958D01*
X118417166Y-371676276D01*
X118413649Y-371690317D01*
X118408772Y-371703946D01*
X118402583Y-371717031D01*
X118395142Y-371729447D01*
X118386519Y-371741073D01*
X118376798Y-371751798D01*
X118366073Y-371761519D01*
X118354447Y-371770142D01*
X118342031Y-371777583D01*
X118328946Y-371783772D01*
X118315317Y-371788649D01*
X118301276Y-371792166D01*
X118286958Y-371794290D01*
X118272500Y-371795000D01*
X117977500Y-371795000D01*
X117963042Y-371794290D01*
X117948724Y-371792166D01*
X117934683Y-371788649D01*
X117921054Y-371783772D01*
X117907969Y-371777583D01*
X117895553Y-371770142D01*
X117883927Y-371761519D01*
X117873202Y-371751798D01*
X117863481Y-371741073D01*
X117854858Y-371729447D01*
X117847417Y-371717031D01*
X117841228Y-371703946D01*
X117836351Y-371690317D01*
X117832834Y-371676276D01*
X117830710Y-371661958D01*
X117830000Y-371647500D01*
X117830000Y-371302500D01*
X117830710Y-371288042D01*
X117832834Y-371273724D01*
X117836351Y-371259683D01*
X117841228Y-371246054D01*
X117847417Y-371232969D01*
X117854858Y-371220553D01*
X117863481Y-371208927D01*
X117873202Y-371198202D01*
X117883927Y-371188481D01*
X117895553Y-371179858D01*
X117907969Y-371172417D01*
X117921054Y-371166228D01*
X117934683Y-371161351D01*
X117948724Y-371157834D01*
X117963042Y-371155710D01*
X117977500Y-371155000D01*
X118272500Y-371155000D01*
X118286958Y-371155710D01*
X118286958Y-371155710D01*
G37*
D15*
X118125000Y-371475000D03*
D12*
G36*
X107071958Y-466770710D02*
G01*
X107086276Y-466772834D01*
X107100317Y-466776351D01*
X107113946Y-466781228D01*
X107127031Y-466787417D01*
X107139447Y-466794858D01*
X107151073Y-466803481D01*
X107161798Y-466813202D01*
X107171519Y-466823927D01*
X107180142Y-466835553D01*
X107187583Y-466847969D01*
X107193772Y-466861054D01*
X107198649Y-466874683D01*
X107202166Y-466888724D01*
X107204290Y-466903042D01*
X107205000Y-466917500D01*
X107205000Y-467262500D01*
X107204290Y-467276958D01*
X107202166Y-467291276D01*
X107198649Y-467305317D01*
X107193772Y-467318946D01*
X107187583Y-467332031D01*
X107180142Y-467344447D01*
X107171519Y-467356073D01*
X107161798Y-467366798D01*
X107151073Y-467376519D01*
X107139447Y-467385142D01*
X107127031Y-467392583D01*
X107113946Y-467398772D01*
X107100317Y-467403649D01*
X107086276Y-467407166D01*
X107071958Y-467409290D01*
X107057500Y-467410000D01*
X106762500Y-467410000D01*
X106748042Y-467409290D01*
X106733724Y-467407166D01*
X106719683Y-467403649D01*
X106706054Y-467398772D01*
X106692969Y-467392583D01*
X106680553Y-467385142D01*
X106668927Y-467376519D01*
X106658202Y-467366798D01*
X106648481Y-467356073D01*
X106639858Y-467344447D01*
X106632417Y-467332031D01*
X106626228Y-467318946D01*
X106621351Y-467305317D01*
X106617834Y-467291276D01*
X106615710Y-467276958D01*
X106615000Y-467262500D01*
X106615000Y-466917500D01*
X106615710Y-466903042D01*
X106617834Y-466888724D01*
X106621351Y-466874683D01*
X106626228Y-466861054D01*
X106632417Y-466847969D01*
X106639858Y-466835553D01*
X106648481Y-466823927D01*
X106658202Y-466813202D01*
X106668927Y-466803481D01*
X106680553Y-466794858D01*
X106692969Y-466787417D01*
X106706054Y-466781228D01*
X106719683Y-466776351D01*
X106733724Y-466772834D01*
X106748042Y-466770710D01*
X106762500Y-466770000D01*
X107057500Y-466770000D01*
X107071958Y-466770710D01*
X107071958Y-466770710D01*
G37*
D15*
X106910000Y-467090000D03*
D12*
G36*
X106101958Y-466770710D02*
G01*
X106116276Y-466772834D01*
X106130317Y-466776351D01*
X106143946Y-466781228D01*
X106157031Y-466787417D01*
X106169447Y-466794858D01*
X106181073Y-466803481D01*
X106191798Y-466813202D01*
X106201519Y-466823927D01*
X106210142Y-466835553D01*
X106217583Y-466847969D01*
X106223772Y-466861054D01*
X106228649Y-466874683D01*
X106232166Y-466888724D01*
X106234290Y-466903042D01*
X106235000Y-466917500D01*
X106235000Y-467262500D01*
X106234290Y-467276958D01*
X106232166Y-467291276D01*
X106228649Y-467305317D01*
X106223772Y-467318946D01*
X106217583Y-467332031D01*
X106210142Y-467344447D01*
X106201519Y-467356073D01*
X106191798Y-467366798D01*
X106181073Y-467376519D01*
X106169447Y-467385142D01*
X106157031Y-467392583D01*
X106143946Y-467398772D01*
X106130317Y-467403649D01*
X106116276Y-467407166D01*
X106101958Y-467409290D01*
X106087500Y-467410000D01*
X105792500Y-467410000D01*
X105778042Y-467409290D01*
X105763724Y-467407166D01*
X105749683Y-467403649D01*
X105736054Y-467398772D01*
X105722969Y-467392583D01*
X105710553Y-467385142D01*
X105698927Y-467376519D01*
X105688202Y-467366798D01*
X105678481Y-467356073D01*
X105669858Y-467344447D01*
X105662417Y-467332031D01*
X105656228Y-467318946D01*
X105651351Y-467305317D01*
X105647834Y-467291276D01*
X105645710Y-467276958D01*
X105645000Y-467262500D01*
X105645000Y-466917500D01*
X105645710Y-466903042D01*
X105647834Y-466888724D01*
X105651351Y-466874683D01*
X105656228Y-466861054D01*
X105662417Y-466847969D01*
X105669858Y-466835553D01*
X105678481Y-466823927D01*
X105688202Y-466813202D01*
X105698927Y-466803481D01*
X105710553Y-466794858D01*
X105722969Y-466787417D01*
X105736054Y-466781228D01*
X105749683Y-466776351D01*
X105763724Y-466772834D01*
X105778042Y-466770710D01*
X105792500Y-466770000D01*
X106087500Y-466770000D01*
X106101958Y-466770710D01*
X106101958Y-466770710D01*
G37*
D15*
X105940000Y-467090000D03*
D12*
G36*
X119846958Y-460930710D02*
G01*
X119861276Y-460932834D01*
X119875317Y-460936351D01*
X119888946Y-460941228D01*
X119902031Y-460947417D01*
X119914447Y-460954858D01*
X119926073Y-460963481D01*
X119936798Y-460973202D01*
X119946519Y-460983927D01*
X119955142Y-460995553D01*
X119962583Y-461007969D01*
X119968772Y-461021054D01*
X119973649Y-461034683D01*
X119977166Y-461048724D01*
X119979290Y-461063042D01*
X119980000Y-461077500D01*
X119980000Y-461422500D01*
X119979290Y-461436958D01*
X119977166Y-461451276D01*
X119973649Y-461465317D01*
X119968772Y-461478946D01*
X119962583Y-461492031D01*
X119955142Y-461504447D01*
X119946519Y-461516073D01*
X119936798Y-461526798D01*
X119926073Y-461536519D01*
X119914447Y-461545142D01*
X119902031Y-461552583D01*
X119888946Y-461558772D01*
X119875317Y-461563649D01*
X119861276Y-461567166D01*
X119846958Y-461569290D01*
X119832500Y-461570000D01*
X119537500Y-461570000D01*
X119523042Y-461569290D01*
X119508724Y-461567166D01*
X119494683Y-461563649D01*
X119481054Y-461558772D01*
X119467969Y-461552583D01*
X119455553Y-461545142D01*
X119443927Y-461536519D01*
X119433202Y-461526798D01*
X119423481Y-461516073D01*
X119414858Y-461504447D01*
X119407417Y-461492031D01*
X119401228Y-461478946D01*
X119396351Y-461465317D01*
X119392834Y-461451276D01*
X119390710Y-461436958D01*
X119390000Y-461422500D01*
X119390000Y-461077500D01*
X119390710Y-461063042D01*
X119392834Y-461048724D01*
X119396351Y-461034683D01*
X119401228Y-461021054D01*
X119407417Y-461007969D01*
X119414858Y-460995553D01*
X119423481Y-460983927D01*
X119433202Y-460973202D01*
X119443927Y-460963481D01*
X119455553Y-460954858D01*
X119467969Y-460947417D01*
X119481054Y-460941228D01*
X119494683Y-460936351D01*
X119508724Y-460932834D01*
X119523042Y-460930710D01*
X119537500Y-460930000D01*
X119832500Y-460930000D01*
X119846958Y-460930710D01*
X119846958Y-460930710D01*
G37*
D15*
X119685000Y-461250000D03*
D12*
G36*
X118876958Y-460930710D02*
G01*
X118891276Y-460932834D01*
X118905317Y-460936351D01*
X118918946Y-460941228D01*
X118932031Y-460947417D01*
X118944447Y-460954858D01*
X118956073Y-460963481D01*
X118966798Y-460973202D01*
X118976519Y-460983927D01*
X118985142Y-460995553D01*
X118992583Y-461007969D01*
X118998772Y-461021054D01*
X119003649Y-461034683D01*
X119007166Y-461048724D01*
X119009290Y-461063042D01*
X119010000Y-461077500D01*
X119010000Y-461422500D01*
X119009290Y-461436958D01*
X119007166Y-461451276D01*
X119003649Y-461465317D01*
X118998772Y-461478946D01*
X118992583Y-461492031D01*
X118985142Y-461504447D01*
X118976519Y-461516073D01*
X118966798Y-461526798D01*
X118956073Y-461536519D01*
X118944447Y-461545142D01*
X118932031Y-461552583D01*
X118918946Y-461558772D01*
X118905317Y-461563649D01*
X118891276Y-461567166D01*
X118876958Y-461569290D01*
X118862500Y-461570000D01*
X118567500Y-461570000D01*
X118553042Y-461569290D01*
X118538724Y-461567166D01*
X118524683Y-461563649D01*
X118511054Y-461558772D01*
X118497969Y-461552583D01*
X118485553Y-461545142D01*
X118473927Y-461536519D01*
X118463202Y-461526798D01*
X118453481Y-461516073D01*
X118444858Y-461504447D01*
X118437417Y-461492031D01*
X118431228Y-461478946D01*
X118426351Y-461465317D01*
X118422834Y-461451276D01*
X118420710Y-461436958D01*
X118420000Y-461422500D01*
X118420000Y-461077500D01*
X118420710Y-461063042D01*
X118422834Y-461048724D01*
X118426351Y-461034683D01*
X118431228Y-461021054D01*
X118437417Y-461007969D01*
X118444858Y-460995553D01*
X118453481Y-460983927D01*
X118463202Y-460973202D01*
X118473927Y-460963481D01*
X118485553Y-460954858D01*
X118497969Y-460947417D01*
X118511054Y-460941228D01*
X118524683Y-460936351D01*
X118538724Y-460932834D01*
X118553042Y-460930710D01*
X118567500Y-460930000D01*
X118862500Y-460930000D01*
X118876958Y-460930710D01*
X118876958Y-460930710D01*
G37*
D15*
X118715000Y-461250000D03*
D12*
G36*
X97486958Y-454485710D02*
G01*
X97501276Y-454487834D01*
X97515317Y-454491351D01*
X97528946Y-454496228D01*
X97542031Y-454502417D01*
X97554447Y-454509858D01*
X97566073Y-454518481D01*
X97576798Y-454528202D01*
X97586519Y-454538927D01*
X97595142Y-454550553D01*
X97602583Y-454562969D01*
X97608772Y-454576054D01*
X97613649Y-454589683D01*
X97617166Y-454603724D01*
X97619290Y-454618042D01*
X97620000Y-454632500D01*
X97620000Y-454927500D01*
X97619290Y-454941958D01*
X97617166Y-454956276D01*
X97613649Y-454970317D01*
X97608772Y-454983946D01*
X97602583Y-454997031D01*
X97595142Y-455009447D01*
X97586519Y-455021073D01*
X97576798Y-455031798D01*
X97566073Y-455041519D01*
X97554447Y-455050142D01*
X97542031Y-455057583D01*
X97528946Y-455063772D01*
X97515317Y-455068649D01*
X97501276Y-455072166D01*
X97486958Y-455074290D01*
X97472500Y-455075000D01*
X97127500Y-455075000D01*
X97113042Y-455074290D01*
X97098724Y-455072166D01*
X97084683Y-455068649D01*
X97071054Y-455063772D01*
X97057969Y-455057583D01*
X97045553Y-455050142D01*
X97033927Y-455041519D01*
X97023202Y-455031798D01*
X97013481Y-455021073D01*
X97004858Y-455009447D01*
X96997417Y-454997031D01*
X96991228Y-454983946D01*
X96986351Y-454970317D01*
X96982834Y-454956276D01*
X96980710Y-454941958D01*
X96980000Y-454927500D01*
X96980000Y-454632500D01*
X96980710Y-454618042D01*
X96982834Y-454603724D01*
X96986351Y-454589683D01*
X96991228Y-454576054D01*
X96997417Y-454562969D01*
X97004858Y-454550553D01*
X97013481Y-454538927D01*
X97023202Y-454528202D01*
X97033927Y-454518481D01*
X97045553Y-454509858D01*
X97057969Y-454502417D01*
X97071054Y-454496228D01*
X97084683Y-454491351D01*
X97098724Y-454487834D01*
X97113042Y-454485710D01*
X97127500Y-454485000D01*
X97472500Y-454485000D01*
X97486958Y-454485710D01*
X97486958Y-454485710D01*
G37*
D15*
X97300000Y-454780000D03*
D12*
G36*
X97486958Y-455455710D02*
G01*
X97501276Y-455457834D01*
X97515317Y-455461351D01*
X97528946Y-455466228D01*
X97542031Y-455472417D01*
X97554447Y-455479858D01*
X97566073Y-455488481D01*
X97576798Y-455498202D01*
X97586519Y-455508927D01*
X97595142Y-455520553D01*
X97602583Y-455532969D01*
X97608772Y-455546054D01*
X97613649Y-455559683D01*
X97617166Y-455573724D01*
X97619290Y-455588042D01*
X97620000Y-455602500D01*
X97620000Y-455897500D01*
X97619290Y-455911958D01*
X97617166Y-455926276D01*
X97613649Y-455940317D01*
X97608772Y-455953946D01*
X97602583Y-455967031D01*
X97595142Y-455979447D01*
X97586519Y-455991073D01*
X97576798Y-456001798D01*
X97566073Y-456011519D01*
X97554447Y-456020142D01*
X97542031Y-456027583D01*
X97528946Y-456033772D01*
X97515317Y-456038649D01*
X97501276Y-456042166D01*
X97486958Y-456044290D01*
X97472500Y-456045000D01*
X97127500Y-456045000D01*
X97113042Y-456044290D01*
X97098724Y-456042166D01*
X97084683Y-456038649D01*
X97071054Y-456033772D01*
X97057969Y-456027583D01*
X97045553Y-456020142D01*
X97033927Y-456011519D01*
X97023202Y-456001798D01*
X97013481Y-455991073D01*
X97004858Y-455979447D01*
X96997417Y-455967031D01*
X96991228Y-455953946D01*
X96986351Y-455940317D01*
X96982834Y-455926276D01*
X96980710Y-455911958D01*
X96980000Y-455897500D01*
X96980000Y-455602500D01*
X96980710Y-455588042D01*
X96982834Y-455573724D01*
X96986351Y-455559683D01*
X96991228Y-455546054D01*
X96997417Y-455532969D01*
X97004858Y-455520553D01*
X97013481Y-455508927D01*
X97023202Y-455498202D01*
X97033927Y-455488481D01*
X97045553Y-455479858D01*
X97057969Y-455472417D01*
X97071054Y-455466228D01*
X97084683Y-455461351D01*
X97098724Y-455457834D01*
X97113042Y-455455710D01*
X97127500Y-455455000D01*
X97472500Y-455455000D01*
X97486958Y-455455710D01*
X97486958Y-455455710D01*
G37*
D15*
X97300000Y-455750000D03*
D12*
G36*
X109586958Y-468325710D02*
G01*
X109601276Y-468327834D01*
X109615317Y-468331351D01*
X109628946Y-468336228D01*
X109642031Y-468342417D01*
X109654447Y-468349858D01*
X109666073Y-468358481D01*
X109676798Y-468368202D01*
X109686519Y-468378927D01*
X109695142Y-468390553D01*
X109702583Y-468402969D01*
X109708772Y-468416054D01*
X109713649Y-468429683D01*
X109717166Y-468443724D01*
X109719290Y-468458042D01*
X109720000Y-468472500D01*
X109720000Y-468767500D01*
X109719290Y-468781958D01*
X109717166Y-468796276D01*
X109713649Y-468810317D01*
X109708772Y-468823946D01*
X109702583Y-468837031D01*
X109695142Y-468849447D01*
X109686519Y-468861073D01*
X109676798Y-468871798D01*
X109666073Y-468881519D01*
X109654447Y-468890142D01*
X109642031Y-468897583D01*
X109628946Y-468903772D01*
X109615317Y-468908649D01*
X109601276Y-468912166D01*
X109586958Y-468914290D01*
X109572500Y-468915000D01*
X109227500Y-468915000D01*
X109213042Y-468914290D01*
X109198724Y-468912166D01*
X109184683Y-468908649D01*
X109171054Y-468903772D01*
X109157969Y-468897583D01*
X109145553Y-468890142D01*
X109133927Y-468881519D01*
X109123202Y-468871798D01*
X109113481Y-468861073D01*
X109104858Y-468849447D01*
X109097417Y-468837031D01*
X109091228Y-468823946D01*
X109086351Y-468810317D01*
X109082834Y-468796276D01*
X109080710Y-468781958D01*
X109080000Y-468767500D01*
X109080000Y-468472500D01*
X109080710Y-468458042D01*
X109082834Y-468443724D01*
X109086351Y-468429683D01*
X109091228Y-468416054D01*
X109097417Y-468402969D01*
X109104858Y-468390553D01*
X109113481Y-468378927D01*
X109123202Y-468368202D01*
X109133927Y-468358481D01*
X109145553Y-468349858D01*
X109157969Y-468342417D01*
X109171054Y-468336228D01*
X109184683Y-468331351D01*
X109198724Y-468327834D01*
X109213042Y-468325710D01*
X109227500Y-468325000D01*
X109572500Y-468325000D01*
X109586958Y-468325710D01*
X109586958Y-468325710D01*
G37*
D15*
X109400000Y-468620000D03*
D12*
G36*
X109586958Y-467355710D02*
G01*
X109601276Y-467357834D01*
X109615317Y-467361351D01*
X109628946Y-467366228D01*
X109642031Y-467372417D01*
X109654447Y-467379858D01*
X109666073Y-467388481D01*
X109676798Y-467398202D01*
X109686519Y-467408927D01*
X109695142Y-467420553D01*
X109702583Y-467432969D01*
X109708772Y-467446054D01*
X109713649Y-467459683D01*
X109717166Y-467473724D01*
X109719290Y-467488042D01*
X109720000Y-467502500D01*
X109720000Y-467797500D01*
X109719290Y-467811958D01*
X109717166Y-467826276D01*
X109713649Y-467840317D01*
X109708772Y-467853946D01*
X109702583Y-467867031D01*
X109695142Y-467879447D01*
X109686519Y-467891073D01*
X109676798Y-467901798D01*
X109666073Y-467911519D01*
X109654447Y-467920142D01*
X109642031Y-467927583D01*
X109628946Y-467933772D01*
X109615317Y-467938649D01*
X109601276Y-467942166D01*
X109586958Y-467944290D01*
X109572500Y-467945000D01*
X109227500Y-467945000D01*
X109213042Y-467944290D01*
X109198724Y-467942166D01*
X109184683Y-467938649D01*
X109171054Y-467933772D01*
X109157969Y-467927583D01*
X109145553Y-467920142D01*
X109133927Y-467911519D01*
X109123202Y-467901798D01*
X109113481Y-467891073D01*
X109104858Y-467879447D01*
X109097417Y-467867031D01*
X109091228Y-467853946D01*
X109086351Y-467840317D01*
X109082834Y-467826276D01*
X109080710Y-467811958D01*
X109080000Y-467797500D01*
X109080000Y-467502500D01*
X109080710Y-467488042D01*
X109082834Y-467473724D01*
X109086351Y-467459683D01*
X109091228Y-467446054D01*
X109097417Y-467432969D01*
X109104858Y-467420553D01*
X109113481Y-467408927D01*
X109123202Y-467398202D01*
X109133927Y-467388481D01*
X109145553Y-467379858D01*
X109157969Y-467372417D01*
X109171054Y-467366228D01*
X109184683Y-467361351D01*
X109198724Y-467357834D01*
X109213042Y-467355710D01*
X109227500Y-467355000D01*
X109572500Y-467355000D01*
X109586958Y-467355710D01*
X109586958Y-467355710D01*
G37*
D15*
X109400000Y-467650000D03*
D12*
G36*
X114611958Y-454620710D02*
G01*
X114626276Y-454622834D01*
X114640317Y-454626351D01*
X114653946Y-454631228D01*
X114667031Y-454637417D01*
X114679447Y-454644858D01*
X114691073Y-454653481D01*
X114701798Y-454663202D01*
X114711519Y-454673927D01*
X114720142Y-454685553D01*
X114727583Y-454697969D01*
X114733772Y-454711054D01*
X114738649Y-454724683D01*
X114742166Y-454738724D01*
X114744290Y-454753042D01*
X114745000Y-454767500D01*
X114745000Y-455062500D01*
X114744290Y-455076958D01*
X114742166Y-455091276D01*
X114738649Y-455105317D01*
X114733772Y-455118946D01*
X114727583Y-455132031D01*
X114720142Y-455144447D01*
X114711519Y-455156073D01*
X114701798Y-455166798D01*
X114691073Y-455176519D01*
X114679447Y-455185142D01*
X114667031Y-455192583D01*
X114653946Y-455198772D01*
X114640317Y-455203649D01*
X114626276Y-455207166D01*
X114611958Y-455209290D01*
X114597500Y-455210000D01*
X114252500Y-455210000D01*
X114238042Y-455209290D01*
X114223724Y-455207166D01*
X114209683Y-455203649D01*
X114196054Y-455198772D01*
X114182969Y-455192583D01*
X114170553Y-455185142D01*
X114158927Y-455176519D01*
X114148202Y-455166798D01*
X114138481Y-455156073D01*
X114129858Y-455144447D01*
X114122417Y-455132031D01*
X114116228Y-455118946D01*
X114111351Y-455105317D01*
X114107834Y-455091276D01*
X114105710Y-455076958D01*
X114105000Y-455062500D01*
X114105000Y-454767500D01*
X114105710Y-454753042D01*
X114107834Y-454738724D01*
X114111351Y-454724683D01*
X114116228Y-454711054D01*
X114122417Y-454697969D01*
X114129858Y-454685553D01*
X114138481Y-454673927D01*
X114148202Y-454663202D01*
X114158927Y-454653481D01*
X114170553Y-454644858D01*
X114182969Y-454637417D01*
X114196054Y-454631228D01*
X114209683Y-454626351D01*
X114223724Y-454622834D01*
X114238042Y-454620710D01*
X114252500Y-454620000D01*
X114597500Y-454620000D01*
X114611958Y-454620710D01*
X114611958Y-454620710D01*
G37*
D15*
X114425000Y-454915000D03*
D12*
G36*
X114611958Y-455590710D02*
G01*
X114626276Y-455592834D01*
X114640317Y-455596351D01*
X114653946Y-455601228D01*
X114667031Y-455607417D01*
X114679447Y-455614858D01*
X114691073Y-455623481D01*
X114701798Y-455633202D01*
X114711519Y-455643927D01*
X114720142Y-455655553D01*
X114727583Y-455667969D01*
X114733772Y-455681054D01*
X114738649Y-455694683D01*
X114742166Y-455708724D01*
X114744290Y-455723042D01*
X114745000Y-455737500D01*
X114745000Y-456032500D01*
X114744290Y-456046958D01*
X114742166Y-456061276D01*
X114738649Y-456075317D01*
X114733772Y-456088946D01*
X114727583Y-456102031D01*
X114720142Y-456114447D01*
X114711519Y-456126073D01*
X114701798Y-456136798D01*
X114691073Y-456146519D01*
X114679447Y-456155142D01*
X114667031Y-456162583D01*
X114653946Y-456168772D01*
X114640317Y-456173649D01*
X114626276Y-456177166D01*
X114611958Y-456179290D01*
X114597500Y-456180000D01*
X114252500Y-456180000D01*
X114238042Y-456179290D01*
X114223724Y-456177166D01*
X114209683Y-456173649D01*
X114196054Y-456168772D01*
X114182969Y-456162583D01*
X114170553Y-456155142D01*
X114158927Y-456146519D01*
X114148202Y-456136798D01*
X114138481Y-456126073D01*
X114129858Y-456114447D01*
X114122417Y-456102031D01*
X114116228Y-456088946D01*
X114111351Y-456075317D01*
X114107834Y-456061276D01*
X114105710Y-456046958D01*
X114105000Y-456032500D01*
X114105000Y-455737500D01*
X114105710Y-455723042D01*
X114107834Y-455708724D01*
X114111351Y-455694683D01*
X114116228Y-455681054D01*
X114122417Y-455667969D01*
X114129858Y-455655553D01*
X114138481Y-455643927D01*
X114148202Y-455633202D01*
X114158927Y-455623481D01*
X114170553Y-455614858D01*
X114182969Y-455607417D01*
X114196054Y-455601228D01*
X114209683Y-455596351D01*
X114223724Y-455592834D01*
X114238042Y-455590710D01*
X114252500Y-455590000D01*
X114597500Y-455590000D01*
X114611958Y-455590710D01*
X114611958Y-455590710D01*
G37*
D15*
X114425000Y-455885000D03*
D12*
G36*
X119846958Y-461930710D02*
G01*
X119861276Y-461932834D01*
X119875317Y-461936351D01*
X119888946Y-461941228D01*
X119902031Y-461947417D01*
X119914447Y-461954858D01*
X119926073Y-461963481D01*
X119936798Y-461973202D01*
X119946519Y-461983927D01*
X119955142Y-461995553D01*
X119962583Y-462007969D01*
X119968772Y-462021054D01*
X119973649Y-462034683D01*
X119977166Y-462048724D01*
X119979290Y-462063042D01*
X119980000Y-462077500D01*
X119980000Y-462422500D01*
X119979290Y-462436958D01*
X119977166Y-462451276D01*
X119973649Y-462465317D01*
X119968772Y-462478946D01*
X119962583Y-462492031D01*
X119955142Y-462504447D01*
X119946519Y-462516073D01*
X119936798Y-462526798D01*
X119926073Y-462536519D01*
X119914447Y-462545142D01*
X119902031Y-462552583D01*
X119888946Y-462558772D01*
X119875317Y-462563649D01*
X119861276Y-462567166D01*
X119846958Y-462569290D01*
X119832500Y-462570000D01*
X119537500Y-462570000D01*
X119523042Y-462569290D01*
X119508724Y-462567166D01*
X119494683Y-462563649D01*
X119481054Y-462558772D01*
X119467969Y-462552583D01*
X119455553Y-462545142D01*
X119443927Y-462536519D01*
X119433202Y-462526798D01*
X119423481Y-462516073D01*
X119414858Y-462504447D01*
X119407417Y-462492031D01*
X119401228Y-462478946D01*
X119396351Y-462465317D01*
X119392834Y-462451276D01*
X119390710Y-462436958D01*
X119390000Y-462422500D01*
X119390000Y-462077500D01*
X119390710Y-462063042D01*
X119392834Y-462048724D01*
X119396351Y-462034683D01*
X119401228Y-462021054D01*
X119407417Y-462007969D01*
X119414858Y-461995553D01*
X119423481Y-461983927D01*
X119433202Y-461973202D01*
X119443927Y-461963481D01*
X119455553Y-461954858D01*
X119467969Y-461947417D01*
X119481054Y-461941228D01*
X119494683Y-461936351D01*
X119508724Y-461932834D01*
X119523042Y-461930710D01*
X119537500Y-461930000D01*
X119832500Y-461930000D01*
X119846958Y-461930710D01*
X119846958Y-461930710D01*
G37*
D15*
X119685000Y-462250000D03*
D12*
G36*
X118876958Y-461930710D02*
G01*
X118891276Y-461932834D01*
X118905317Y-461936351D01*
X118918946Y-461941228D01*
X118932031Y-461947417D01*
X118944447Y-461954858D01*
X118956073Y-461963481D01*
X118966798Y-461973202D01*
X118976519Y-461983927D01*
X118985142Y-461995553D01*
X118992583Y-462007969D01*
X118998772Y-462021054D01*
X119003649Y-462034683D01*
X119007166Y-462048724D01*
X119009290Y-462063042D01*
X119010000Y-462077500D01*
X119010000Y-462422500D01*
X119009290Y-462436958D01*
X119007166Y-462451276D01*
X119003649Y-462465317D01*
X118998772Y-462478946D01*
X118992583Y-462492031D01*
X118985142Y-462504447D01*
X118976519Y-462516073D01*
X118966798Y-462526798D01*
X118956073Y-462536519D01*
X118944447Y-462545142D01*
X118932031Y-462552583D01*
X118918946Y-462558772D01*
X118905317Y-462563649D01*
X118891276Y-462567166D01*
X118876958Y-462569290D01*
X118862500Y-462570000D01*
X118567500Y-462570000D01*
X118553042Y-462569290D01*
X118538724Y-462567166D01*
X118524683Y-462563649D01*
X118511054Y-462558772D01*
X118497969Y-462552583D01*
X118485553Y-462545142D01*
X118473927Y-462536519D01*
X118463202Y-462526798D01*
X118453481Y-462516073D01*
X118444858Y-462504447D01*
X118437417Y-462492031D01*
X118431228Y-462478946D01*
X118426351Y-462465317D01*
X118422834Y-462451276D01*
X118420710Y-462436958D01*
X118420000Y-462422500D01*
X118420000Y-462077500D01*
X118420710Y-462063042D01*
X118422834Y-462048724D01*
X118426351Y-462034683D01*
X118431228Y-462021054D01*
X118437417Y-462007969D01*
X118444858Y-461995553D01*
X118453481Y-461983927D01*
X118463202Y-461973202D01*
X118473927Y-461963481D01*
X118485553Y-461954858D01*
X118497969Y-461947417D01*
X118511054Y-461941228D01*
X118524683Y-461936351D01*
X118538724Y-461932834D01*
X118553042Y-461930710D01*
X118567500Y-461930000D01*
X118862500Y-461930000D01*
X118876958Y-461930710D01*
X118876958Y-461930710D01*
G37*
D15*
X118715000Y-462250000D03*
D12*
G36*
X106091958Y-461230710D02*
G01*
X106106276Y-461232834D01*
X106120317Y-461236351D01*
X106133946Y-461241228D01*
X106147031Y-461247417D01*
X106159447Y-461254858D01*
X106171073Y-461263481D01*
X106181798Y-461273202D01*
X106191519Y-461283927D01*
X106200142Y-461295553D01*
X106207583Y-461307969D01*
X106213772Y-461321054D01*
X106218649Y-461334683D01*
X106222166Y-461348724D01*
X106224290Y-461363042D01*
X106225000Y-461377500D01*
X106225000Y-461722500D01*
X106224290Y-461736958D01*
X106222166Y-461751276D01*
X106218649Y-461765317D01*
X106213772Y-461778946D01*
X106207583Y-461792031D01*
X106200142Y-461804447D01*
X106191519Y-461816073D01*
X106181798Y-461826798D01*
X106171073Y-461836519D01*
X106159447Y-461845142D01*
X106147031Y-461852583D01*
X106133946Y-461858772D01*
X106120317Y-461863649D01*
X106106276Y-461867166D01*
X106091958Y-461869290D01*
X106077500Y-461870000D01*
X105782500Y-461870000D01*
X105768042Y-461869290D01*
X105753724Y-461867166D01*
X105739683Y-461863649D01*
X105726054Y-461858772D01*
X105712969Y-461852583D01*
X105700553Y-461845142D01*
X105688927Y-461836519D01*
X105678202Y-461826798D01*
X105668481Y-461816073D01*
X105659858Y-461804447D01*
X105652417Y-461792031D01*
X105646228Y-461778946D01*
X105641351Y-461765317D01*
X105637834Y-461751276D01*
X105635710Y-461736958D01*
X105635000Y-461722500D01*
X105635000Y-461377500D01*
X105635710Y-461363042D01*
X105637834Y-461348724D01*
X105641351Y-461334683D01*
X105646228Y-461321054D01*
X105652417Y-461307969D01*
X105659858Y-461295553D01*
X105668481Y-461283927D01*
X105678202Y-461273202D01*
X105688927Y-461263481D01*
X105700553Y-461254858D01*
X105712969Y-461247417D01*
X105726054Y-461241228D01*
X105739683Y-461236351D01*
X105753724Y-461232834D01*
X105768042Y-461230710D01*
X105782500Y-461230000D01*
X106077500Y-461230000D01*
X106091958Y-461230710D01*
X106091958Y-461230710D01*
G37*
D15*
X105930000Y-461550000D03*
D12*
G36*
X107061958Y-461230710D02*
G01*
X107076276Y-461232834D01*
X107090317Y-461236351D01*
X107103946Y-461241228D01*
X107117031Y-461247417D01*
X107129447Y-461254858D01*
X107141073Y-461263481D01*
X107151798Y-461273202D01*
X107161519Y-461283927D01*
X107170142Y-461295553D01*
X107177583Y-461307969D01*
X107183772Y-461321054D01*
X107188649Y-461334683D01*
X107192166Y-461348724D01*
X107194290Y-461363042D01*
X107195000Y-461377500D01*
X107195000Y-461722500D01*
X107194290Y-461736958D01*
X107192166Y-461751276D01*
X107188649Y-461765317D01*
X107183772Y-461778946D01*
X107177583Y-461792031D01*
X107170142Y-461804447D01*
X107161519Y-461816073D01*
X107151798Y-461826798D01*
X107141073Y-461836519D01*
X107129447Y-461845142D01*
X107117031Y-461852583D01*
X107103946Y-461858772D01*
X107090317Y-461863649D01*
X107076276Y-461867166D01*
X107061958Y-461869290D01*
X107047500Y-461870000D01*
X106752500Y-461870000D01*
X106738042Y-461869290D01*
X106723724Y-461867166D01*
X106709683Y-461863649D01*
X106696054Y-461858772D01*
X106682969Y-461852583D01*
X106670553Y-461845142D01*
X106658927Y-461836519D01*
X106648202Y-461826798D01*
X106638481Y-461816073D01*
X106629858Y-461804447D01*
X106622417Y-461792031D01*
X106616228Y-461778946D01*
X106611351Y-461765317D01*
X106607834Y-461751276D01*
X106605710Y-461736958D01*
X106605000Y-461722500D01*
X106605000Y-461377500D01*
X106605710Y-461363042D01*
X106607834Y-461348724D01*
X106611351Y-461334683D01*
X106616228Y-461321054D01*
X106622417Y-461307969D01*
X106629858Y-461295553D01*
X106638481Y-461283927D01*
X106648202Y-461273202D01*
X106658927Y-461263481D01*
X106670553Y-461254858D01*
X106682969Y-461247417D01*
X106696054Y-461241228D01*
X106709683Y-461236351D01*
X106723724Y-461232834D01*
X106738042Y-461230710D01*
X106752500Y-461230000D01*
X107047500Y-461230000D01*
X107061958Y-461230710D01*
X107061958Y-461230710D01*
G37*
D15*
X106900000Y-461550000D03*
D12*
G36*
X119831958Y-463455710D02*
G01*
X119846276Y-463457834D01*
X119860317Y-463461351D01*
X119873946Y-463466228D01*
X119887031Y-463472417D01*
X119899447Y-463479858D01*
X119911073Y-463488481D01*
X119921798Y-463498202D01*
X119931519Y-463508927D01*
X119940142Y-463520553D01*
X119947583Y-463532969D01*
X119953772Y-463546054D01*
X119958649Y-463559683D01*
X119962166Y-463573724D01*
X119964290Y-463588042D01*
X119965000Y-463602500D01*
X119965000Y-463947500D01*
X119964290Y-463961958D01*
X119962166Y-463976276D01*
X119958649Y-463990317D01*
X119953772Y-464003946D01*
X119947583Y-464017031D01*
X119940142Y-464029447D01*
X119931519Y-464041073D01*
X119921798Y-464051798D01*
X119911073Y-464061519D01*
X119899447Y-464070142D01*
X119887031Y-464077583D01*
X119873946Y-464083772D01*
X119860317Y-464088649D01*
X119846276Y-464092166D01*
X119831958Y-464094290D01*
X119817500Y-464095000D01*
X119522500Y-464095000D01*
X119508042Y-464094290D01*
X119493724Y-464092166D01*
X119479683Y-464088649D01*
X119466054Y-464083772D01*
X119452969Y-464077583D01*
X119440553Y-464070142D01*
X119428927Y-464061519D01*
X119418202Y-464051798D01*
X119408481Y-464041073D01*
X119399858Y-464029447D01*
X119392417Y-464017031D01*
X119386228Y-464003946D01*
X119381351Y-463990317D01*
X119377834Y-463976276D01*
X119375710Y-463961958D01*
X119375000Y-463947500D01*
X119375000Y-463602500D01*
X119375710Y-463588042D01*
X119377834Y-463573724D01*
X119381351Y-463559683D01*
X119386228Y-463546054D01*
X119392417Y-463532969D01*
X119399858Y-463520553D01*
X119408481Y-463508927D01*
X119418202Y-463498202D01*
X119428927Y-463488481D01*
X119440553Y-463479858D01*
X119452969Y-463472417D01*
X119466054Y-463466228D01*
X119479683Y-463461351D01*
X119493724Y-463457834D01*
X119508042Y-463455710D01*
X119522500Y-463455000D01*
X119817500Y-463455000D01*
X119831958Y-463455710D01*
X119831958Y-463455710D01*
G37*
D15*
X119670000Y-463775000D03*
D12*
G36*
X118861958Y-463455710D02*
G01*
X118876276Y-463457834D01*
X118890317Y-463461351D01*
X118903946Y-463466228D01*
X118917031Y-463472417D01*
X118929447Y-463479858D01*
X118941073Y-463488481D01*
X118951798Y-463498202D01*
X118961519Y-463508927D01*
X118970142Y-463520553D01*
X118977583Y-463532969D01*
X118983772Y-463546054D01*
X118988649Y-463559683D01*
X118992166Y-463573724D01*
X118994290Y-463588042D01*
X118995000Y-463602500D01*
X118995000Y-463947500D01*
X118994290Y-463961958D01*
X118992166Y-463976276D01*
X118988649Y-463990317D01*
X118983772Y-464003946D01*
X118977583Y-464017031D01*
X118970142Y-464029447D01*
X118961519Y-464041073D01*
X118951798Y-464051798D01*
X118941073Y-464061519D01*
X118929447Y-464070142D01*
X118917031Y-464077583D01*
X118903946Y-464083772D01*
X118890317Y-464088649D01*
X118876276Y-464092166D01*
X118861958Y-464094290D01*
X118847500Y-464095000D01*
X118552500Y-464095000D01*
X118538042Y-464094290D01*
X118523724Y-464092166D01*
X118509683Y-464088649D01*
X118496054Y-464083772D01*
X118482969Y-464077583D01*
X118470553Y-464070142D01*
X118458927Y-464061519D01*
X118448202Y-464051798D01*
X118438481Y-464041073D01*
X118429858Y-464029447D01*
X118422417Y-464017031D01*
X118416228Y-464003946D01*
X118411351Y-463990317D01*
X118407834Y-463976276D01*
X118405710Y-463961958D01*
X118405000Y-463947500D01*
X118405000Y-463602500D01*
X118405710Y-463588042D01*
X118407834Y-463573724D01*
X118411351Y-463559683D01*
X118416228Y-463546054D01*
X118422417Y-463532969D01*
X118429858Y-463520553D01*
X118438481Y-463508927D01*
X118448202Y-463498202D01*
X118458927Y-463488481D01*
X118470553Y-463479858D01*
X118482969Y-463472417D01*
X118496054Y-463466228D01*
X118509683Y-463461351D01*
X118523724Y-463457834D01*
X118538042Y-463455710D01*
X118552500Y-463455000D01*
X118847500Y-463455000D01*
X118861958Y-463455710D01*
X118861958Y-463455710D01*
G37*
D15*
X118700000Y-463775000D03*
D12*
G36*
X106126958Y-464730710D02*
G01*
X106141276Y-464732834D01*
X106155317Y-464736351D01*
X106168946Y-464741228D01*
X106182031Y-464747417D01*
X106194447Y-464754858D01*
X106206073Y-464763481D01*
X106216798Y-464773202D01*
X106226519Y-464783927D01*
X106235142Y-464795553D01*
X106242583Y-464807969D01*
X106248772Y-464821054D01*
X106253649Y-464834683D01*
X106257166Y-464848724D01*
X106259290Y-464863042D01*
X106260000Y-464877500D01*
X106260000Y-465222500D01*
X106259290Y-465236958D01*
X106257166Y-465251276D01*
X106253649Y-465265317D01*
X106248772Y-465278946D01*
X106242583Y-465292031D01*
X106235142Y-465304447D01*
X106226519Y-465316073D01*
X106216798Y-465326798D01*
X106206073Y-465336519D01*
X106194447Y-465345142D01*
X106182031Y-465352583D01*
X106168946Y-465358772D01*
X106155317Y-465363649D01*
X106141276Y-465367166D01*
X106126958Y-465369290D01*
X106112500Y-465370000D01*
X105817500Y-465370000D01*
X105803042Y-465369290D01*
X105788724Y-465367166D01*
X105774683Y-465363649D01*
X105761054Y-465358772D01*
X105747969Y-465352583D01*
X105735553Y-465345142D01*
X105723927Y-465336519D01*
X105713202Y-465326798D01*
X105703481Y-465316073D01*
X105694858Y-465304447D01*
X105687417Y-465292031D01*
X105681228Y-465278946D01*
X105676351Y-465265317D01*
X105672834Y-465251276D01*
X105670710Y-465236958D01*
X105670000Y-465222500D01*
X105670000Y-464877500D01*
X105670710Y-464863042D01*
X105672834Y-464848724D01*
X105676351Y-464834683D01*
X105681228Y-464821054D01*
X105687417Y-464807969D01*
X105694858Y-464795553D01*
X105703481Y-464783927D01*
X105713202Y-464773202D01*
X105723927Y-464763481D01*
X105735553Y-464754858D01*
X105747969Y-464747417D01*
X105761054Y-464741228D01*
X105774683Y-464736351D01*
X105788724Y-464732834D01*
X105803042Y-464730710D01*
X105817500Y-464730000D01*
X106112500Y-464730000D01*
X106126958Y-464730710D01*
X106126958Y-464730710D01*
G37*
D15*
X105965000Y-465050000D03*
D12*
G36*
X107096958Y-464730710D02*
G01*
X107111276Y-464732834D01*
X107125317Y-464736351D01*
X107138946Y-464741228D01*
X107152031Y-464747417D01*
X107164447Y-464754858D01*
X107176073Y-464763481D01*
X107186798Y-464773202D01*
X107196519Y-464783927D01*
X107205142Y-464795553D01*
X107212583Y-464807969D01*
X107218772Y-464821054D01*
X107223649Y-464834683D01*
X107227166Y-464848724D01*
X107229290Y-464863042D01*
X107230000Y-464877500D01*
X107230000Y-465222500D01*
X107229290Y-465236958D01*
X107227166Y-465251276D01*
X107223649Y-465265317D01*
X107218772Y-465278946D01*
X107212583Y-465292031D01*
X107205142Y-465304447D01*
X107196519Y-465316073D01*
X107186798Y-465326798D01*
X107176073Y-465336519D01*
X107164447Y-465345142D01*
X107152031Y-465352583D01*
X107138946Y-465358772D01*
X107125317Y-465363649D01*
X107111276Y-465367166D01*
X107096958Y-465369290D01*
X107082500Y-465370000D01*
X106787500Y-465370000D01*
X106773042Y-465369290D01*
X106758724Y-465367166D01*
X106744683Y-465363649D01*
X106731054Y-465358772D01*
X106717969Y-465352583D01*
X106705553Y-465345142D01*
X106693927Y-465336519D01*
X106683202Y-465326798D01*
X106673481Y-465316073D01*
X106664858Y-465304447D01*
X106657417Y-465292031D01*
X106651228Y-465278946D01*
X106646351Y-465265317D01*
X106642834Y-465251276D01*
X106640710Y-465236958D01*
X106640000Y-465222500D01*
X106640000Y-464877500D01*
X106640710Y-464863042D01*
X106642834Y-464848724D01*
X106646351Y-464834683D01*
X106651228Y-464821054D01*
X106657417Y-464807969D01*
X106664858Y-464795553D01*
X106673481Y-464783927D01*
X106683202Y-464773202D01*
X106693927Y-464763481D01*
X106705553Y-464754858D01*
X106717969Y-464747417D01*
X106731054Y-464741228D01*
X106744683Y-464736351D01*
X106758724Y-464732834D01*
X106773042Y-464730710D01*
X106787500Y-464730000D01*
X107082500Y-464730000D01*
X107096958Y-464730710D01*
X107096958Y-464730710D01*
G37*
D15*
X106935000Y-465050000D03*
D12*
G36*
X98216958Y-463540710D02*
G01*
X98231276Y-463542834D01*
X98245317Y-463546351D01*
X98258946Y-463551228D01*
X98272031Y-463557417D01*
X98284447Y-463564858D01*
X98296073Y-463573481D01*
X98306798Y-463583202D01*
X98316519Y-463593927D01*
X98325142Y-463605553D01*
X98332583Y-463617969D01*
X98338772Y-463631054D01*
X98343649Y-463644683D01*
X98347166Y-463658724D01*
X98349290Y-463673042D01*
X98350000Y-463687500D01*
X98350000Y-464032500D01*
X98349290Y-464046958D01*
X98347166Y-464061276D01*
X98343649Y-464075317D01*
X98338772Y-464088946D01*
X98332583Y-464102031D01*
X98325142Y-464114447D01*
X98316519Y-464126073D01*
X98306798Y-464136798D01*
X98296073Y-464146519D01*
X98284447Y-464155142D01*
X98272031Y-464162583D01*
X98258946Y-464168772D01*
X98245317Y-464173649D01*
X98231276Y-464177166D01*
X98216958Y-464179290D01*
X98202500Y-464180000D01*
X97907500Y-464180000D01*
X97893042Y-464179290D01*
X97878724Y-464177166D01*
X97864683Y-464173649D01*
X97851054Y-464168772D01*
X97837969Y-464162583D01*
X97825553Y-464155142D01*
X97813927Y-464146519D01*
X97803202Y-464136798D01*
X97793481Y-464126073D01*
X97784858Y-464114447D01*
X97777417Y-464102031D01*
X97771228Y-464088946D01*
X97766351Y-464075317D01*
X97762834Y-464061276D01*
X97760710Y-464046958D01*
X97760000Y-464032500D01*
X97760000Y-463687500D01*
X97760710Y-463673042D01*
X97762834Y-463658724D01*
X97766351Y-463644683D01*
X97771228Y-463631054D01*
X97777417Y-463617969D01*
X97784858Y-463605553D01*
X97793481Y-463593927D01*
X97803202Y-463583202D01*
X97813927Y-463573481D01*
X97825553Y-463564858D01*
X97837969Y-463557417D01*
X97851054Y-463551228D01*
X97864683Y-463546351D01*
X97878724Y-463542834D01*
X97893042Y-463540710D01*
X97907500Y-463540000D01*
X98202500Y-463540000D01*
X98216958Y-463540710D01*
X98216958Y-463540710D01*
G37*
D15*
X98055000Y-463860000D03*
D12*
G36*
X99186958Y-463540710D02*
G01*
X99201276Y-463542834D01*
X99215317Y-463546351D01*
X99228946Y-463551228D01*
X99242031Y-463557417D01*
X99254447Y-463564858D01*
X99266073Y-463573481D01*
X99276798Y-463583202D01*
X99286519Y-463593927D01*
X99295142Y-463605553D01*
X99302583Y-463617969D01*
X99308772Y-463631054D01*
X99313649Y-463644683D01*
X99317166Y-463658724D01*
X99319290Y-463673042D01*
X99320000Y-463687500D01*
X99320000Y-464032500D01*
X99319290Y-464046958D01*
X99317166Y-464061276D01*
X99313649Y-464075317D01*
X99308772Y-464088946D01*
X99302583Y-464102031D01*
X99295142Y-464114447D01*
X99286519Y-464126073D01*
X99276798Y-464136798D01*
X99266073Y-464146519D01*
X99254447Y-464155142D01*
X99242031Y-464162583D01*
X99228946Y-464168772D01*
X99215317Y-464173649D01*
X99201276Y-464177166D01*
X99186958Y-464179290D01*
X99172500Y-464180000D01*
X98877500Y-464180000D01*
X98863042Y-464179290D01*
X98848724Y-464177166D01*
X98834683Y-464173649D01*
X98821054Y-464168772D01*
X98807969Y-464162583D01*
X98795553Y-464155142D01*
X98783927Y-464146519D01*
X98773202Y-464136798D01*
X98763481Y-464126073D01*
X98754858Y-464114447D01*
X98747417Y-464102031D01*
X98741228Y-464088946D01*
X98736351Y-464075317D01*
X98732834Y-464061276D01*
X98730710Y-464046958D01*
X98730000Y-464032500D01*
X98730000Y-463687500D01*
X98730710Y-463673042D01*
X98732834Y-463658724D01*
X98736351Y-463644683D01*
X98741228Y-463631054D01*
X98747417Y-463617969D01*
X98754858Y-463605553D01*
X98763481Y-463593927D01*
X98773202Y-463583202D01*
X98783927Y-463573481D01*
X98795553Y-463564858D01*
X98807969Y-463557417D01*
X98821054Y-463551228D01*
X98834683Y-463546351D01*
X98848724Y-463542834D01*
X98863042Y-463540710D01*
X98877500Y-463540000D01*
X99172500Y-463540000D01*
X99186958Y-463540710D01*
X99186958Y-463540710D01*
G37*
D15*
X99025000Y-463860000D03*
D12*
G36*
X114171958Y-420410710D02*
G01*
X114186276Y-420412834D01*
X114200317Y-420416351D01*
X114213946Y-420421228D01*
X114227031Y-420427417D01*
X114239447Y-420434858D01*
X114251073Y-420443481D01*
X114261798Y-420453202D01*
X114271519Y-420463927D01*
X114280142Y-420475553D01*
X114287583Y-420487969D01*
X114293772Y-420501054D01*
X114298649Y-420514683D01*
X114302166Y-420528724D01*
X114304290Y-420543042D01*
X114305000Y-420557500D01*
X114305000Y-420902500D01*
X114304290Y-420916958D01*
X114302166Y-420931276D01*
X114298649Y-420945317D01*
X114293772Y-420958946D01*
X114287583Y-420972031D01*
X114280142Y-420984447D01*
X114271519Y-420996073D01*
X114261798Y-421006798D01*
X114251073Y-421016519D01*
X114239447Y-421025142D01*
X114227031Y-421032583D01*
X114213946Y-421038772D01*
X114200317Y-421043649D01*
X114186276Y-421047166D01*
X114171958Y-421049290D01*
X114157500Y-421050000D01*
X113862500Y-421050000D01*
X113848042Y-421049290D01*
X113833724Y-421047166D01*
X113819683Y-421043649D01*
X113806054Y-421038772D01*
X113792969Y-421032583D01*
X113780553Y-421025142D01*
X113768927Y-421016519D01*
X113758202Y-421006798D01*
X113748481Y-420996073D01*
X113739858Y-420984447D01*
X113732417Y-420972031D01*
X113726228Y-420958946D01*
X113721351Y-420945317D01*
X113717834Y-420931276D01*
X113715710Y-420916958D01*
X113715000Y-420902500D01*
X113715000Y-420557500D01*
X113715710Y-420543042D01*
X113717834Y-420528724D01*
X113721351Y-420514683D01*
X113726228Y-420501054D01*
X113732417Y-420487969D01*
X113739858Y-420475553D01*
X113748481Y-420463927D01*
X113758202Y-420453202D01*
X113768927Y-420443481D01*
X113780553Y-420434858D01*
X113792969Y-420427417D01*
X113806054Y-420421228D01*
X113819683Y-420416351D01*
X113833724Y-420412834D01*
X113848042Y-420410710D01*
X113862500Y-420410000D01*
X114157500Y-420410000D01*
X114171958Y-420410710D01*
X114171958Y-420410710D01*
G37*
D15*
X114010000Y-420730000D03*
D12*
G36*
X113201958Y-420410710D02*
G01*
X113216276Y-420412834D01*
X113230317Y-420416351D01*
X113243946Y-420421228D01*
X113257031Y-420427417D01*
X113269447Y-420434858D01*
X113281073Y-420443481D01*
X113291798Y-420453202D01*
X113301519Y-420463927D01*
X113310142Y-420475553D01*
X113317583Y-420487969D01*
X113323772Y-420501054D01*
X113328649Y-420514683D01*
X113332166Y-420528724D01*
X113334290Y-420543042D01*
X113335000Y-420557500D01*
X113335000Y-420902500D01*
X113334290Y-420916958D01*
X113332166Y-420931276D01*
X113328649Y-420945317D01*
X113323772Y-420958946D01*
X113317583Y-420972031D01*
X113310142Y-420984447D01*
X113301519Y-420996073D01*
X113291798Y-421006798D01*
X113281073Y-421016519D01*
X113269447Y-421025142D01*
X113257031Y-421032583D01*
X113243946Y-421038772D01*
X113230317Y-421043649D01*
X113216276Y-421047166D01*
X113201958Y-421049290D01*
X113187500Y-421050000D01*
X112892500Y-421050000D01*
X112878042Y-421049290D01*
X112863724Y-421047166D01*
X112849683Y-421043649D01*
X112836054Y-421038772D01*
X112822969Y-421032583D01*
X112810553Y-421025142D01*
X112798927Y-421016519D01*
X112788202Y-421006798D01*
X112778481Y-420996073D01*
X112769858Y-420984447D01*
X112762417Y-420972031D01*
X112756228Y-420958946D01*
X112751351Y-420945317D01*
X112747834Y-420931276D01*
X112745710Y-420916958D01*
X112745000Y-420902500D01*
X112745000Y-420557500D01*
X112745710Y-420543042D01*
X112747834Y-420528724D01*
X112751351Y-420514683D01*
X112756228Y-420501054D01*
X112762417Y-420487969D01*
X112769858Y-420475553D01*
X112778481Y-420463927D01*
X112788202Y-420453202D01*
X112798927Y-420443481D01*
X112810553Y-420434858D01*
X112822969Y-420427417D01*
X112836054Y-420421228D01*
X112849683Y-420416351D01*
X112863724Y-420412834D01*
X112878042Y-420410710D01*
X112892500Y-420410000D01*
X113187500Y-420410000D01*
X113201958Y-420410710D01*
X113201958Y-420410710D01*
G37*
D15*
X113040000Y-420730000D03*
D12*
G36*
X106121958Y-465750710D02*
G01*
X106136276Y-465752834D01*
X106150317Y-465756351D01*
X106163946Y-465761228D01*
X106177031Y-465767417D01*
X106189447Y-465774858D01*
X106201073Y-465783481D01*
X106211798Y-465793202D01*
X106221519Y-465803927D01*
X106230142Y-465815553D01*
X106237583Y-465827969D01*
X106243772Y-465841054D01*
X106248649Y-465854683D01*
X106252166Y-465868724D01*
X106254290Y-465883042D01*
X106255000Y-465897500D01*
X106255000Y-466242500D01*
X106254290Y-466256958D01*
X106252166Y-466271276D01*
X106248649Y-466285317D01*
X106243772Y-466298946D01*
X106237583Y-466312031D01*
X106230142Y-466324447D01*
X106221519Y-466336073D01*
X106211798Y-466346798D01*
X106201073Y-466356519D01*
X106189447Y-466365142D01*
X106177031Y-466372583D01*
X106163946Y-466378772D01*
X106150317Y-466383649D01*
X106136276Y-466387166D01*
X106121958Y-466389290D01*
X106107500Y-466390000D01*
X105812500Y-466390000D01*
X105798042Y-466389290D01*
X105783724Y-466387166D01*
X105769683Y-466383649D01*
X105756054Y-466378772D01*
X105742969Y-466372583D01*
X105730553Y-466365142D01*
X105718927Y-466356519D01*
X105708202Y-466346798D01*
X105698481Y-466336073D01*
X105689858Y-466324447D01*
X105682417Y-466312031D01*
X105676228Y-466298946D01*
X105671351Y-466285317D01*
X105667834Y-466271276D01*
X105665710Y-466256958D01*
X105665000Y-466242500D01*
X105665000Y-465897500D01*
X105665710Y-465883042D01*
X105667834Y-465868724D01*
X105671351Y-465854683D01*
X105676228Y-465841054D01*
X105682417Y-465827969D01*
X105689858Y-465815553D01*
X105698481Y-465803927D01*
X105708202Y-465793202D01*
X105718927Y-465783481D01*
X105730553Y-465774858D01*
X105742969Y-465767417D01*
X105756054Y-465761228D01*
X105769683Y-465756351D01*
X105783724Y-465752834D01*
X105798042Y-465750710D01*
X105812500Y-465750000D01*
X106107500Y-465750000D01*
X106121958Y-465750710D01*
X106121958Y-465750710D01*
G37*
D15*
X105960000Y-466070000D03*
D12*
G36*
X107091958Y-465750710D02*
G01*
X107106276Y-465752834D01*
X107120317Y-465756351D01*
X107133946Y-465761228D01*
X107147031Y-465767417D01*
X107159447Y-465774858D01*
X107171073Y-465783481D01*
X107181798Y-465793202D01*
X107191519Y-465803927D01*
X107200142Y-465815553D01*
X107207583Y-465827969D01*
X107213772Y-465841054D01*
X107218649Y-465854683D01*
X107222166Y-465868724D01*
X107224290Y-465883042D01*
X107225000Y-465897500D01*
X107225000Y-466242500D01*
X107224290Y-466256958D01*
X107222166Y-466271276D01*
X107218649Y-466285317D01*
X107213772Y-466298946D01*
X107207583Y-466312031D01*
X107200142Y-466324447D01*
X107191519Y-466336073D01*
X107181798Y-466346798D01*
X107171073Y-466356519D01*
X107159447Y-466365142D01*
X107147031Y-466372583D01*
X107133946Y-466378772D01*
X107120317Y-466383649D01*
X107106276Y-466387166D01*
X107091958Y-466389290D01*
X107077500Y-466390000D01*
X106782500Y-466390000D01*
X106768042Y-466389290D01*
X106753724Y-466387166D01*
X106739683Y-466383649D01*
X106726054Y-466378772D01*
X106712969Y-466372583D01*
X106700553Y-466365142D01*
X106688927Y-466356519D01*
X106678202Y-466346798D01*
X106668481Y-466336073D01*
X106659858Y-466324447D01*
X106652417Y-466312031D01*
X106646228Y-466298946D01*
X106641351Y-466285317D01*
X106637834Y-466271276D01*
X106635710Y-466256958D01*
X106635000Y-466242500D01*
X106635000Y-465897500D01*
X106635710Y-465883042D01*
X106637834Y-465868724D01*
X106641351Y-465854683D01*
X106646228Y-465841054D01*
X106652417Y-465827969D01*
X106659858Y-465815553D01*
X106668481Y-465803927D01*
X106678202Y-465793202D01*
X106688927Y-465783481D01*
X106700553Y-465774858D01*
X106712969Y-465767417D01*
X106726054Y-465761228D01*
X106739683Y-465756351D01*
X106753724Y-465752834D01*
X106768042Y-465750710D01*
X106782500Y-465750000D01*
X107077500Y-465750000D01*
X107091958Y-465750710D01*
X107091958Y-465750710D01*
G37*
D15*
X106930000Y-466070000D03*
D12*
G36*
X108836958Y-455535710D02*
G01*
X108851276Y-455537834D01*
X108865317Y-455541351D01*
X108878946Y-455546228D01*
X108892031Y-455552417D01*
X108904447Y-455559858D01*
X108916073Y-455568481D01*
X108926798Y-455578202D01*
X108936519Y-455588927D01*
X108945142Y-455600553D01*
X108952583Y-455612969D01*
X108958772Y-455626054D01*
X108963649Y-455639683D01*
X108967166Y-455653724D01*
X108969290Y-455668042D01*
X108970000Y-455682500D01*
X108970000Y-455977500D01*
X108969290Y-455991958D01*
X108967166Y-456006276D01*
X108963649Y-456020317D01*
X108958772Y-456033946D01*
X108952583Y-456047031D01*
X108945142Y-456059447D01*
X108936519Y-456071073D01*
X108926798Y-456081798D01*
X108916073Y-456091519D01*
X108904447Y-456100142D01*
X108892031Y-456107583D01*
X108878946Y-456113772D01*
X108865317Y-456118649D01*
X108851276Y-456122166D01*
X108836958Y-456124290D01*
X108822500Y-456125000D01*
X108477500Y-456125000D01*
X108463042Y-456124290D01*
X108448724Y-456122166D01*
X108434683Y-456118649D01*
X108421054Y-456113772D01*
X108407969Y-456107583D01*
X108395553Y-456100142D01*
X108383927Y-456091519D01*
X108373202Y-456081798D01*
X108363481Y-456071073D01*
X108354858Y-456059447D01*
X108347417Y-456047031D01*
X108341228Y-456033946D01*
X108336351Y-456020317D01*
X108332834Y-456006276D01*
X108330710Y-455991958D01*
X108330000Y-455977500D01*
X108330000Y-455682500D01*
X108330710Y-455668042D01*
X108332834Y-455653724D01*
X108336351Y-455639683D01*
X108341228Y-455626054D01*
X108347417Y-455612969D01*
X108354858Y-455600553D01*
X108363481Y-455588927D01*
X108373202Y-455578202D01*
X108383927Y-455568481D01*
X108395553Y-455559858D01*
X108407969Y-455552417D01*
X108421054Y-455546228D01*
X108434683Y-455541351D01*
X108448724Y-455537834D01*
X108463042Y-455535710D01*
X108477500Y-455535000D01*
X108822500Y-455535000D01*
X108836958Y-455535710D01*
X108836958Y-455535710D01*
G37*
D15*
X108650000Y-455830000D03*
D12*
G36*
X108836958Y-456505710D02*
G01*
X108851276Y-456507834D01*
X108865317Y-456511351D01*
X108878946Y-456516228D01*
X108892031Y-456522417D01*
X108904447Y-456529858D01*
X108916073Y-456538481D01*
X108926798Y-456548202D01*
X108936519Y-456558927D01*
X108945142Y-456570553D01*
X108952583Y-456582969D01*
X108958772Y-456596054D01*
X108963649Y-456609683D01*
X108967166Y-456623724D01*
X108969290Y-456638042D01*
X108970000Y-456652500D01*
X108970000Y-456947500D01*
X108969290Y-456961958D01*
X108967166Y-456976276D01*
X108963649Y-456990317D01*
X108958772Y-457003946D01*
X108952583Y-457017031D01*
X108945142Y-457029447D01*
X108936519Y-457041073D01*
X108926798Y-457051798D01*
X108916073Y-457061519D01*
X108904447Y-457070142D01*
X108892031Y-457077583D01*
X108878946Y-457083772D01*
X108865317Y-457088649D01*
X108851276Y-457092166D01*
X108836958Y-457094290D01*
X108822500Y-457095000D01*
X108477500Y-457095000D01*
X108463042Y-457094290D01*
X108448724Y-457092166D01*
X108434683Y-457088649D01*
X108421054Y-457083772D01*
X108407969Y-457077583D01*
X108395553Y-457070142D01*
X108383927Y-457061519D01*
X108373202Y-457051798D01*
X108363481Y-457041073D01*
X108354858Y-457029447D01*
X108347417Y-457017031D01*
X108341228Y-457003946D01*
X108336351Y-456990317D01*
X108332834Y-456976276D01*
X108330710Y-456961958D01*
X108330000Y-456947500D01*
X108330000Y-456652500D01*
X108330710Y-456638042D01*
X108332834Y-456623724D01*
X108336351Y-456609683D01*
X108341228Y-456596054D01*
X108347417Y-456582969D01*
X108354858Y-456570553D01*
X108363481Y-456558927D01*
X108373202Y-456548202D01*
X108383927Y-456538481D01*
X108395553Y-456529858D01*
X108407969Y-456522417D01*
X108421054Y-456516228D01*
X108434683Y-456511351D01*
X108448724Y-456507834D01*
X108463042Y-456505710D01*
X108477500Y-456505000D01*
X108822500Y-456505000D01*
X108836958Y-456505710D01*
X108836958Y-456505710D01*
G37*
D15*
X108650000Y-456800000D03*
D12*
G36*
X120631958Y-459505710D02*
G01*
X120646276Y-459507834D01*
X120660317Y-459511351D01*
X120673946Y-459516228D01*
X120687031Y-459522417D01*
X120699447Y-459529858D01*
X120711073Y-459538481D01*
X120721798Y-459548202D01*
X120731519Y-459558927D01*
X120740142Y-459570553D01*
X120747583Y-459582969D01*
X120753772Y-459596054D01*
X120758649Y-459609683D01*
X120762166Y-459623724D01*
X120764290Y-459638042D01*
X120765000Y-459652500D01*
X120765000Y-459997500D01*
X120764290Y-460011958D01*
X120762166Y-460026276D01*
X120758649Y-460040317D01*
X120753772Y-460053946D01*
X120747583Y-460067031D01*
X120740142Y-460079447D01*
X120731519Y-460091073D01*
X120721798Y-460101798D01*
X120711073Y-460111519D01*
X120699447Y-460120142D01*
X120687031Y-460127583D01*
X120673946Y-460133772D01*
X120660317Y-460138649D01*
X120646276Y-460142166D01*
X120631958Y-460144290D01*
X120617500Y-460145000D01*
X120322500Y-460145000D01*
X120308042Y-460144290D01*
X120293724Y-460142166D01*
X120279683Y-460138649D01*
X120266054Y-460133772D01*
X120252969Y-460127583D01*
X120240553Y-460120142D01*
X120228927Y-460111519D01*
X120218202Y-460101798D01*
X120208481Y-460091073D01*
X120199858Y-460079447D01*
X120192417Y-460067031D01*
X120186228Y-460053946D01*
X120181351Y-460040317D01*
X120177834Y-460026276D01*
X120175710Y-460011958D01*
X120175000Y-459997500D01*
X120175000Y-459652500D01*
X120175710Y-459638042D01*
X120177834Y-459623724D01*
X120181351Y-459609683D01*
X120186228Y-459596054D01*
X120192417Y-459582969D01*
X120199858Y-459570553D01*
X120208481Y-459558927D01*
X120218202Y-459548202D01*
X120228927Y-459538481D01*
X120240553Y-459529858D01*
X120252969Y-459522417D01*
X120266054Y-459516228D01*
X120279683Y-459511351D01*
X120293724Y-459507834D01*
X120308042Y-459505710D01*
X120322500Y-459505000D01*
X120617500Y-459505000D01*
X120631958Y-459505710D01*
X120631958Y-459505710D01*
G37*
D15*
X120470000Y-459825000D03*
D12*
G36*
X119661958Y-459505710D02*
G01*
X119676276Y-459507834D01*
X119690317Y-459511351D01*
X119703946Y-459516228D01*
X119717031Y-459522417D01*
X119729447Y-459529858D01*
X119741073Y-459538481D01*
X119751798Y-459548202D01*
X119761519Y-459558927D01*
X119770142Y-459570553D01*
X119777583Y-459582969D01*
X119783772Y-459596054D01*
X119788649Y-459609683D01*
X119792166Y-459623724D01*
X119794290Y-459638042D01*
X119795000Y-459652500D01*
X119795000Y-459997500D01*
X119794290Y-460011958D01*
X119792166Y-460026276D01*
X119788649Y-460040317D01*
X119783772Y-460053946D01*
X119777583Y-460067031D01*
X119770142Y-460079447D01*
X119761519Y-460091073D01*
X119751798Y-460101798D01*
X119741073Y-460111519D01*
X119729447Y-460120142D01*
X119717031Y-460127583D01*
X119703946Y-460133772D01*
X119690317Y-460138649D01*
X119676276Y-460142166D01*
X119661958Y-460144290D01*
X119647500Y-460145000D01*
X119352500Y-460145000D01*
X119338042Y-460144290D01*
X119323724Y-460142166D01*
X119309683Y-460138649D01*
X119296054Y-460133772D01*
X119282969Y-460127583D01*
X119270553Y-460120142D01*
X119258927Y-460111519D01*
X119248202Y-460101798D01*
X119238481Y-460091073D01*
X119229858Y-460079447D01*
X119222417Y-460067031D01*
X119216228Y-460053946D01*
X119211351Y-460040317D01*
X119207834Y-460026276D01*
X119205710Y-460011958D01*
X119205000Y-459997500D01*
X119205000Y-459652500D01*
X119205710Y-459638042D01*
X119207834Y-459623724D01*
X119211351Y-459609683D01*
X119216228Y-459596054D01*
X119222417Y-459582969D01*
X119229858Y-459570553D01*
X119238481Y-459558927D01*
X119248202Y-459548202D01*
X119258927Y-459538481D01*
X119270553Y-459529858D01*
X119282969Y-459522417D01*
X119296054Y-459516228D01*
X119309683Y-459511351D01*
X119323724Y-459507834D01*
X119338042Y-459505710D01*
X119352500Y-459505000D01*
X119647500Y-459505000D01*
X119661958Y-459505710D01*
X119661958Y-459505710D01*
G37*
D15*
X119500000Y-459825000D03*
D12*
G36*
X120631958Y-458480710D02*
G01*
X120646276Y-458482834D01*
X120660317Y-458486351D01*
X120673946Y-458491228D01*
X120687031Y-458497417D01*
X120699447Y-458504858D01*
X120711073Y-458513481D01*
X120721798Y-458523202D01*
X120731519Y-458533927D01*
X120740142Y-458545553D01*
X120747583Y-458557969D01*
X120753772Y-458571054D01*
X120758649Y-458584683D01*
X120762166Y-458598724D01*
X120764290Y-458613042D01*
X120765000Y-458627500D01*
X120765000Y-458972500D01*
X120764290Y-458986958D01*
X120762166Y-459001276D01*
X120758649Y-459015317D01*
X120753772Y-459028946D01*
X120747583Y-459042031D01*
X120740142Y-459054447D01*
X120731519Y-459066073D01*
X120721798Y-459076798D01*
X120711073Y-459086519D01*
X120699447Y-459095142D01*
X120687031Y-459102583D01*
X120673946Y-459108772D01*
X120660317Y-459113649D01*
X120646276Y-459117166D01*
X120631958Y-459119290D01*
X120617500Y-459120000D01*
X120322500Y-459120000D01*
X120308042Y-459119290D01*
X120293724Y-459117166D01*
X120279683Y-459113649D01*
X120266054Y-459108772D01*
X120252969Y-459102583D01*
X120240553Y-459095142D01*
X120228927Y-459086519D01*
X120218202Y-459076798D01*
X120208481Y-459066073D01*
X120199858Y-459054447D01*
X120192417Y-459042031D01*
X120186228Y-459028946D01*
X120181351Y-459015317D01*
X120177834Y-459001276D01*
X120175710Y-458986958D01*
X120175000Y-458972500D01*
X120175000Y-458627500D01*
X120175710Y-458613042D01*
X120177834Y-458598724D01*
X120181351Y-458584683D01*
X120186228Y-458571054D01*
X120192417Y-458557969D01*
X120199858Y-458545553D01*
X120208481Y-458533927D01*
X120218202Y-458523202D01*
X120228927Y-458513481D01*
X120240553Y-458504858D01*
X120252969Y-458497417D01*
X120266054Y-458491228D01*
X120279683Y-458486351D01*
X120293724Y-458482834D01*
X120308042Y-458480710D01*
X120322500Y-458480000D01*
X120617500Y-458480000D01*
X120631958Y-458480710D01*
X120631958Y-458480710D01*
G37*
D15*
X120470000Y-458800000D03*
D12*
G36*
X119661958Y-458480710D02*
G01*
X119676276Y-458482834D01*
X119690317Y-458486351D01*
X119703946Y-458491228D01*
X119717031Y-458497417D01*
X119729447Y-458504858D01*
X119741073Y-458513481D01*
X119751798Y-458523202D01*
X119761519Y-458533927D01*
X119770142Y-458545553D01*
X119777583Y-458557969D01*
X119783772Y-458571054D01*
X119788649Y-458584683D01*
X119792166Y-458598724D01*
X119794290Y-458613042D01*
X119795000Y-458627500D01*
X119795000Y-458972500D01*
X119794290Y-458986958D01*
X119792166Y-459001276D01*
X119788649Y-459015317D01*
X119783772Y-459028946D01*
X119777583Y-459042031D01*
X119770142Y-459054447D01*
X119761519Y-459066073D01*
X119751798Y-459076798D01*
X119741073Y-459086519D01*
X119729447Y-459095142D01*
X119717031Y-459102583D01*
X119703946Y-459108772D01*
X119690317Y-459113649D01*
X119676276Y-459117166D01*
X119661958Y-459119290D01*
X119647500Y-459120000D01*
X119352500Y-459120000D01*
X119338042Y-459119290D01*
X119323724Y-459117166D01*
X119309683Y-459113649D01*
X119296054Y-459108772D01*
X119282969Y-459102583D01*
X119270553Y-459095142D01*
X119258927Y-459086519D01*
X119248202Y-459076798D01*
X119238481Y-459066073D01*
X119229858Y-459054447D01*
X119222417Y-459042031D01*
X119216228Y-459028946D01*
X119211351Y-459015317D01*
X119207834Y-459001276D01*
X119205710Y-458986958D01*
X119205000Y-458972500D01*
X119205000Y-458627500D01*
X119205710Y-458613042D01*
X119207834Y-458598724D01*
X119211351Y-458584683D01*
X119216228Y-458571054D01*
X119222417Y-458557969D01*
X119229858Y-458545553D01*
X119238481Y-458533927D01*
X119248202Y-458523202D01*
X119258927Y-458513481D01*
X119270553Y-458504858D01*
X119282969Y-458497417D01*
X119296054Y-458491228D01*
X119309683Y-458486351D01*
X119323724Y-458482834D01*
X119338042Y-458480710D01*
X119352500Y-458480000D01*
X119647500Y-458480000D01*
X119661958Y-458480710D01*
X119661958Y-458480710D01*
G37*
D15*
X119500000Y-458800000D03*
D12*
G36*
X106091958Y-462230710D02*
G01*
X106106276Y-462232834D01*
X106120317Y-462236351D01*
X106133946Y-462241228D01*
X106147031Y-462247417D01*
X106159447Y-462254858D01*
X106171073Y-462263481D01*
X106181798Y-462273202D01*
X106191519Y-462283927D01*
X106200142Y-462295553D01*
X106207583Y-462307969D01*
X106213772Y-462321054D01*
X106218649Y-462334683D01*
X106222166Y-462348724D01*
X106224290Y-462363042D01*
X106225000Y-462377500D01*
X106225000Y-462722500D01*
X106224290Y-462736958D01*
X106222166Y-462751276D01*
X106218649Y-462765317D01*
X106213772Y-462778946D01*
X106207583Y-462792031D01*
X106200142Y-462804447D01*
X106191519Y-462816073D01*
X106181798Y-462826798D01*
X106171073Y-462836519D01*
X106159447Y-462845142D01*
X106147031Y-462852583D01*
X106133946Y-462858772D01*
X106120317Y-462863649D01*
X106106276Y-462867166D01*
X106091958Y-462869290D01*
X106077500Y-462870000D01*
X105782500Y-462870000D01*
X105768042Y-462869290D01*
X105753724Y-462867166D01*
X105739683Y-462863649D01*
X105726054Y-462858772D01*
X105712969Y-462852583D01*
X105700553Y-462845142D01*
X105688927Y-462836519D01*
X105678202Y-462826798D01*
X105668481Y-462816073D01*
X105659858Y-462804447D01*
X105652417Y-462792031D01*
X105646228Y-462778946D01*
X105641351Y-462765317D01*
X105637834Y-462751276D01*
X105635710Y-462736958D01*
X105635000Y-462722500D01*
X105635000Y-462377500D01*
X105635710Y-462363042D01*
X105637834Y-462348724D01*
X105641351Y-462334683D01*
X105646228Y-462321054D01*
X105652417Y-462307969D01*
X105659858Y-462295553D01*
X105668481Y-462283927D01*
X105678202Y-462273202D01*
X105688927Y-462263481D01*
X105700553Y-462254858D01*
X105712969Y-462247417D01*
X105726054Y-462241228D01*
X105739683Y-462236351D01*
X105753724Y-462232834D01*
X105768042Y-462230710D01*
X105782500Y-462230000D01*
X106077500Y-462230000D01*
X106091958Y-462230710D01*
X106091958Y-462230710D01*
G37*
D15*
X105930000Y-462550000D03*
D12*
G36*
X107061958Y-462230710D02*
G01*
X107076276Y-462232834D01*
X107090317Y-462236351D01*
X107103946Y-462241228D01*
X107117031Y-462247417D01*
X107129447Y-462254858D01*
X107141073Y-462263481D01*
X107151798Y-462273202D01*
X107161519Y-462283927D01*
X107170142Y-462295553D01*
X107177583Y-462307969D01*
X107183772Y-462321054D01*
X107188649Y-462334683D01*
X107192166Y-462348724D01*
X107194290Y-462363042D01*
X107195000Y-462377500D01*
X107195000Y-462722500D01*
X107194290Y-462736958D01*
X107192166Y-462751276D01*
X107188649Y-462765317D01*
X107183772Y-462778946D01*
X107177583Y-462792031D01*
X107170142Y-462804447D01*
X107161519Y-462816073D01*
X107151798Y-462826798D01*
X107141073Y-462836519D01*
X107129447Y-462845142D01*
X107117031Y-462852583D01*
X107103946Y-462858772D01*
X107090317Y-462863649D01*
X107076276Y-462867166D01*
X107061958Y-462869290D01*
X107047500Y-462870000D01*
X106752500Y-462870000D01*
X106738042Y-462869290D01*
X106723724Y-462867166D01*
X106709683Y-462863649D01*
X106696054Y-462858772D01*
X106682969Y-462852583D01*
X106670553Y-462845142D01*
X106658927Y-462836519D01*
X106648202Y-462826798D01*
X106638481Y-462816073D01*
X106629858Y-462804447D01*
X106622417Y-462792031D01*
X106616228Y-462778946D01*
X106611351Y-462765317D01*
X106607834Y-462751276D01*
X106605710Y-462736958D01*
X106605000Y-462722500D01*
X106605000Y-462377500D01*
X106605710Y-462363042D01*
X106607834Y-462348724D01*
X106611351Y-462334683D01*
X106616228Y-462321054D01*
X106622417Y-462307969D01*
X106629858Y-462295553D01*
X106638481Y-462283927D01*
X106648202Y-462273202D01*
X106658927Y-462263481D01*
X106670553Y-462254858D01*
X106682969Y-462247417D01*
X106696054Y-462241228D01*
X106709683Y-462236351D01*
X106723724Y-462232834D01*
X106738042Y-462230710D01*
X106752500Y-462230000D01*
X107047500Y-462230000D01*
X107061958Y-462230710D01*
X107061958Y-462230710D01*
G37*
D15*
X106900000Y-462550000D03*
D12*
G36*
X114511958Y-467900710D02*
G01*
X114526276Y-467902834D01*
X114540317Y-467906351D01*
X114553946Y-467911228D01*
X114567031Y-467917417D01*
X114579447Y-467924858D01*
X114591073Y-467933481D01*
X114601798Y-467943202D01*
X114611519Y-467953927D01*
X114620142Y-467965553D01*
X114627583Y-467977969D01*
X114633772Y-467991054D01*
X114638649Y-468004683D01*
X114642166Y-468018724D01*
X114644290Y-468033042D01*
X114645000Y-468047500D01*
X114645000Y-468342500D01*
X114644290Y-468356958D01*
X114642166Y-468371276D01*
X114638649Y-468385317D01*
X114633772Y-468398946D01*
X114627583Y-468412031D01*
X114620142Y-468424447D01*
X114611519Y-468436073D01*
X114601798Y-468446798D01*
X114591073Y-468456519D01*
X114579447Y-468465142D01*
X114567031Y-468472583D01*
X114553946Y-468478772D01*
X114540317Y-468483649D01*
X114526276Y-468487166D01*
X114511958Y-468489290D01*
X114497500Y-468490000D01*
X114152500Y-468490000D01*
X114138042Y-468489290D01*
X114123724Y-468487166D01*
X114109683Y-468483649D01*
X114096054Y-468478772D01*
X114082969Y-468472583D01*
X114070553Y-468465142D01*
X114058927Y-468456519D01*
X114048202Y-468446798D01*
X114038481Y-468436073D01*
X114029858Y-468424447D01*
X114022417Y-468412031D01*
X114016228Y-468398946D01*
X114011351Y-468385317D01*
X114007834Y-468371276D01*
X114005710Y-468356958D01*
X114005000Y-468342500D01*
X114005000Y-468047500D01*
X114005710Y-468033042D01*
X114007834Y-468018724D01*
X114011351Y-468004683D01*
X114016228Y-467991054D01*
X114022417Y-467977969D01*
X114029858Y-467965553D01*
X114038481Y-467953927D01*
X114048202Y-467943202D01*
X114058927Y-467933481D01*
X114070553Y-467924858D01*
X114082969Y-467917417D01*
X114096054Y-467911228D01*
X114109683Y-467906351D01*
X114123724Y-467902834D01*
X114138042Y-467900710D01*
X114152500Y-467900000D01*
X114497500Y-467900000D01*
X114511958Y-467900710D01*
X114511958Y-467900710D01*
G37*
D15*
X114325000Y-468195000D03*
D12*
G36*
X114511958Y-466930710D02*
G01*
X114526276Y-466932834D01*
X114540317Y-466936351D01*
X114553946Y-466941228D01*
X114567031Y-466947417D01*
X114579447Y-466954858D01*
X114591073Y-466963481D01*
X114601798Y-466973202D01*
X114611519Y-466983927D01*
X114620142Y-466995553D01*
X114627583Y-467007969D01*
X114633772Y-467021054D01*
X114638649Y-467034683D01*
X114642166Y-467048724D01*
X114644290Y-467063042D01*
X114645000Y-467077500D01*
X114645000Y-467372500D01*
X114644290Y-467386958D01*
X114642166Y-467401276D01*
X114638649Y-467415317D01*
X114633772Y-467428946D01*
X114627583Y-467442031D01*
X114620142Y-467454447D01*
X114611519Y-467466073D01*
X114601798Y-467476798D01*
X114591073Y-467486519D01*
X114579447Y-467495142D01*
X114567031Y-467502583D01*
X114553946Y-467508772D01*
X114540317Y-467513649D01*
X114526276Y-467517166D01*
X114511958Y-467519290D01*
X114497500Y-467520000D01*
X114152500Y-467520000D01*
X114138042Y-467519290D01*
X114123724Y-467517166D01*
X114109683Y-467513649D01*
X114096054Y-467508772D01*
X114082969Y-467502583D01*
X114070553Y-467495142D01*
X114058927Y-467486519D01*
X114048202Y-467476798D01*
X114038481Y-467466073D01*
X114029858Y-467454447D01*
X114022417Y-467442031D01*
X114016228Y-467428946D01*
X114011351Y-467415317D01*
X114007834Y-467401276D01*
X114005710Y-467386958D01*
X114005000Y-467372500D01*
X114005000Y-467077500D01*
X114005710Y-467063042D01*
X114007834Y-467048724D01*
X114011351Y-467034683D01*
X114016228Y-467021054D01*
X114022417Y-467007969D01*
X114029858Y-466995553D01*
X114038481Y-466983927D01*
X114048202Y-466973202D01*
X114058927Y-466963481D01*
X114070553Y-466954858D01*
X114082969Y-466947417D01*
X114096054Y-466941228D01*
X114109683Y-466936351D01*
X114123724Y-466932834D01*
X114138042Y-466930710D01*
X114152500Y-466930000D01*
X114497500Y-466930000D01*
X114511958Y-466930710D01*
X114511958Y-466930710D01*
G37*
D15*
X114325000Y-467225000D03*
D21*
X115180000Y-374675000D03*
X114380000Y-374675000D03*
X115180000Y-374675000D03*
X114380000Y-374675000D03*
X108780000Y-374675000D03*
X108780000Y-374675000D03*
X109580000Y-374675000D03*
X109580000Y-374675000D03*
D22*
X113730000Y-374675000D03*
X112730000Y-374675000D03*
X113230000Y-374675000D03*
X110730000Y-374675000D03*
X110230000Y-374675000D03*
X112230000Y-374675000D03*
X111730000Y-374675000D03*
X111230000Y-374675000D03*
D23*
X116300000Y-369925000D03*
X107660000Y-369925000D03*
D24*
X116300000Y-374095000D03*
X107660000Y-374095000D03*
D25*
X101993144Y-468685154D03*
D26*
X101993144Y-468685154D02*
X101993144Y-468685154D01*
D25*
X99539692Y-468027754D03*
D26*
X99539692Y-468027754D02*
X99539692Y-468027754D01*
D25*
X97086241Y-467370353D03*
D26*
X97086241Y-467370353D02*
X97086241Y-467370353D01*
D25*
X94632789Y-466712953D03*
D12*
G36*
X95233830Y-467753986D02*
G01*
X93591756Y-467313994D01*
X94031748Y-465671920D01*
X95673822Y-466111912D01*
X95233830Y-467753986D01*
X95233830Y-467753986D01*
G37*
D27*
X117800000Y-388725000D03*
X124800000Y-388725000D03*
D19*
X124000000Y-386200000D03*
D28*
X116600000Y-391125000D03*
D19*
X125900000Y-391250000D03*
D16*
X128876095Y-372098305D03*
X128876095Y-374638305D03*
X128876095Y-377178305D03*
D17*
X128876095Y-379718305D03*
D16*
X128940599Y-422224893D03*
X128940599Y-424764893D03*
X128940599Y-427304893D03*
D17*
X128940599Y-429844893D03*
D16*
X128068428Y-451181322D03*
X125528428Y-451181322D03*
X122988428Y-451181322D03*
D17*
X120448428Y-451181322D03*
D25*
X89627956Y-465271820D03*
D26*
X89627956Y-465271820D02*
X89627956Y-465271820D01*
D25*
X90285356Y-462818368D03*
D26*
X90285356Y-462818368D02*
X90285356Y-462818368D01*
D25*
X90942757Y-460364917D03*
D26*
X90942757Y-460364917D02*
X90942757Y-460364917D01*
D25*
X91600157Y-457911465D03*
D12*
G36*
X90559124Y-458512506D02*
G01*
X90999116Y-456870432D01*
X92641190Y-457310424D01*
X92201198Y-458952498D01*
X90559124Y-458512506D01*
X90559124Y-458512506D01*
G37*
D16*
X56532789Y-458812952D03*
X56532789Y-456272952D03*
X56532789Y-453732952D03*
D17*
X56532789Y-451192952D03*
D16*
X98376974Y-429020972D03*
X100916974Y-429020972D03*
X103456974Y-429020972D03*
D17*
X105996974Y-429020972D03*
D16*
X98509278Y-390818375D03*
X101049278Y-390818375D03*
X103589278Y-390818375D03*
D17*
X106129278Y-390818375D03*
D16*
X98534161Y-409935202D03*
X101074161Y-409935202D03*
X103614161Y-409935202D03*
D17*
X106154161Y-409935202D03*
D25*
X118693145Y-473085153D03*
D26*
X118693145Y-473085153D02*
X118693145Y-473085153D01*
D25*
X116239693Y-472427753D03*
D26*
X116239693Y-472427753D02*
X116239693Y-472427753D01*
D25*
X113786242Y-471770352D03*
D26*
X113786242Y-471770352D02*
X113786242Y-471770352D01*
D25*
X111332790Y-471112952D03*
D12*
G36*
X110731749Y-470071919D02*
G01*
X112373823Y-470511911D01*
X111933831Y-472153985D01*
X110291757Y-471713993D01*
X110731749Y-470071919D01*
X110731749Y-470071919D01*
G37*
D25*
X127932789Y-471912952D03*
D26*
X127932789Y-471912952D02*
X127932789Y-471912952D01*
D25*
X128590189Y-469459500D03*
D26*
X128590189Y-469459500D02*
X128590189Y-469459500D01*
D25*
X129247590Y-467006049D03*
D26*
X129247590Y-467006049D02*
X129247590Y-467006049D01*
D25*
X129904990Y-464552597D03*
D12*
G36*
X128863957Y-465153638D02*
G01*
X129303949Y-463511564D01*
X130946023Y-463951556D01*
X130506031Y-465593630D01*
X128863957Y-465153638D01*
X128863957Y-465153638D01*
G37*
D29*
X124350000Y-457425000D03*
X124350000Y-466925000D03*
D30*
X99045000Y-462010000D03*
X100315000Y-462010000D03*
X101585000Y-462010000D03*
X102855000Y-462010000D03*
X102855000Y-454810000D03*
X101585000Y-454810000D03*
X100315000Y-454810000D03*
X99045000Y-454810000D03*
D31*
X112800000Y-462050000D03*
D32*
X109350000Y-459450000D03*
X109350000Y-459850000D03*
X109350000Y-460250000D03*
X109350000Y-460650000D03*
X109350000Y-461050000D03*
X109350000Y-461450000D03*
X109350000Y-461850000D03*
X109350000Y-462250000D03*
X109350000Y-462650000D03*
X109350000Y-463050000D03*
X109350000Y-463450000D03*
X109350000Y-463850000D03*
X109350000Y-464250000D03*
X109350000Y-464650000D03*
D33*
X110200000Y-465500000D03*
X110600000Y-465500000D03*
X111000000Y-465500000D03*
X111400000Y-465500000D03*
X111800000Y-465500000D03*
X112200000Y-465500000D03*
X112600000Y-465500000D03*
X113000000Y-465500000D03*
X113400000Y-465500000D03*
X113800000Y-465500000D03*
X114200000Y-465500000D03*
X114600000Y-465500000D03*
X115000000Y-465500000D03*
X115400000Y-465500000D03*
D32*
X116250000Y-464650000D03*
X116250000Y-464250000D03*
X116250000Y-463850000D03*
X116250000Y-463450000D03*
X116250000Y-463050000D03*
X116250000Y-462650000D03*
X116250000Y-462250000D03*
X116250000Y-461850000D03*
X116250000Y-461450000D03*
X116250000Y-461050000D03*
X116250000Y-460650000D03*
X116250000Y-460250000D03*
X116250000Y-459850000D03*
X116250000Y-459450000D03*
D33*
X115400000Y-458600000D03*
X115000000Y-458600000D03*
X114600000Y-458600000D03*
X114200000Y-458600000D03*
X113800000Y-458600000D03*
X113400000Y-458600000D03*
X113000000Y-458600000D03*
X112600000Y-458600000D03*
X112200000Y-458600000D03*
X111800000Y-458600000D03*
X111400000Y-458600000D03*
X111000000Y-458600000D03*
X110600000Y-458600000D03*
X110200000Y-458600000D03*
D12*
G36*
X112899504Y-378926204D02*
G01*
X112923773Y-378929804D01*
X112947571Y-378935765D01*
X112970671Y-378944030D01*
X112992849Y-378954520D01*
X113013893Y-378967133D01*
X113033598Y-378981747D01*
X113051777Y-378998223D01*
X113068253Y-379016402D01*
X113082867Y-379036107D01*
X113095480Y-379057151D01*
X113105970Y-379079329D01*
X113114235Y-379102429D01*
X113120196Y-379126227D01*
X113123796Y-379150496D01*
X113125000Y-379175000D01*
X113125000Y-379925000D01*
X113123796Y-379949504D01*
X113120196Y-379973773D01*
X113114235Y-379997571D01*
X113105970Y-380020671D01*
X113095480Y-380042849D01*
X113082867Y-380063893D01*
X113068253Y-380083598D01*
X113051777Y-380101777D01*
X113033598Y-380118253D01*
X113013893Y-380132867D01*
X112992849Y-380145480D01*
X112970671Y-380155970D01*
X112947571Y-380164235D01*
X112923773Y-380170196D01*
X112899504Y-380173796D01*
X112875000Y-380175000D01*
X111625000Y-380175000D01*
X111600496Y-380173796D01*
X111576227Y-380170196D01*
X111552429Y-380164235D01*
X111529329Y-380155970D01*
X111507151Y-380145480D01*
X111486107Y-380132867D01*
X111466402Y-380118253D01*
X111448223Y-380101777D01*
X111431747Y-380083598D01*
X111417133Y-380063893D01*
X111404520Y-380042849D01*
X111394030Y-380020671D01*
X111385765Y-379997571D01*
X111379804Y-379973773D01*
X111376204Y-379949504D01*
X111375000Y-379925000D01*
X111375000Y-379175000D01*
X111376204Y-379150496D01*
X111379804Y-379126227D01*
X111385765Y-379102429D01*
X111394030Y-379079329D01*
X111404520Y-379057151D01*
X111417133Y-379036107D01*
X111431747Y-379016402D01*
X111448223Y-378998223D01*
X111466402Y-378981747D01*
X111486107Y-378967133D01*
X111507151Y-378954520D01*
X111529329Y-378944030D01*
X111552429Y-378935765D01*
X111576227Y-378929804D01*
X111600496Y-378926204D01*
X111625000Y-378925000D01*
X112875000Y-378925000D01*
X112899504Y-378926204D01*
X112899504Y-378926204D01*
G37*
D13*
X112250000Y-379550000D03*
D12*
G36*
X112899504Y-381726204D02*
G01*
X112923773Y-381729804D01*
X112947571Y-381735765D01*
X112970671Y-381744030D01*
X112992849Y-381754520D01*
X113013893Y-381767133D01*
X113033598Y-381781747D01*
X113051777Y-381798223D01*
X113068253Y-381816402D01*
X113082867Y-381836107D01*
X113095480Y-381857151D01*
X113105970Y-381879329D01*
X113114235Y-381902429D01*
X113120196Y-381926227D01*
X113123796Y-381950496D01*
X113125000Y-381975000D01*
X113125000Y-382725000D01*
X113123796Y-382749504D01*
X113120196Y-382773773D01*
X113114235Y-382797571D01*
X113105970Y-382820671D01*
X113095480Y-382842849D01*
X113082867Y-382863893D01*
X113068253Y-382883598D01*
X113051777Y-382901777D01*
X113033598Y-382918253D01*
X113013893Y-382932867D01*
X112992849Y-382945480D01*
X112970671Y-382955970D01*
X112947571Y-382964235D01*
X112923773Y-382970196D01*
X112899504Y-382973796D01*
X112875000Y-382975000D01*
X111625000Y-382975000D01*
X111600496Y-382973796D01*
X111576227Y-382970196D01*
X111552429Y-382964235D01*
X111529329Y-382955970D01*
X111507151Y-382945480D01*
X111486107Y-382932867D01*
X111466402Y-382918253D01*
X111448223Y-382901777D01*
X111431747Y-382883598D01*
X111417133Y-382863893D01*
X111404520Y-382842849D01*
X111394030Y-382820671D01*
X111385765Y-382797571D01*
X111379804Y-382773773D01*
X111376204Y-382749504D01*
X111375000Y-382725000D01*
X111375000Y-381975000D01*
X111376204Y-381950496D01*
X111379804Y-381926227D01*
X111385765Y-381902429D01*
X111394030Y-381879329D01*
X111404520Y-381857151D01*
X111417133Y-381836107D01*
X111431747Y-381816402D01*
X111448223Y-381798223D01*
X111466402Y-381781747D01*
X111486107Y-381767133D01*
X111507151Y-381754520D01*
X111529329Y-381744030D01*
X111552429Y-381735765D01*
X111576227Y-381729804D01*
X111600496Y-381726204D01*
X111625000Y-381725000D01*
X112875000Y-381725000D01*
X112899504Y-381726204D01*
X112899504Y-381726204D01*
G37*
D13*
X112250000Y-382350000D03*
D27*
X111569500Y-377012202D03*
X112141011Y-445269990D03*
X113385600Y-377075700D03*
X112903000Y-446024000D03*
X107787880Y-464802836D03*
X120300000Y-465325002D03*
X107620979Y-461501191D03*
X107966595Y-463325603D03*
X109350000Y-451361000D03*
X107146000Y-463880000D03*
X108276702Y-450945568D03*
X104163969Y-465000283D03*
X96490000Y-463070000D03*
X98030000Y-463070000D03*
X104040000Y-455960000D03*
X114900000Y-463100000D03*
X104036356Y-451656032D03*
X113500000Y-453550002D03*
X118875000Y-457025000D03*
X115455864Y-469344136D03*
X121399988Y-462100000D03*
X120125365Y-464045989D03*
X67742789Y-459332211D03*
X105930000Y-448280000D03*
X108508655Y-468645979D03*
X108000000Y-470400000D03*
X123250000Y-471850000D03*
X121950145Y-448655167D03*
X121947694Y-447728169D03*
X121964373Y-446801317D03*
X122000000Y-445875000D03*
X104500000Y-448199964D03*
X103519894Y-448199964D03*
X102466731Y-448199964D03*
X101422667Y-448199964D03*
X114681000Y-443992004D03*
X113520000Y-407890000D03*
X111760000Y-449707000D03*
X116713000Y-443992000D03*
X115600000Y-445070000D03*
X105083989Y-464130749D03*
X109624021Y-457092000D03*
X107908000Y-467182000D03*
X117990000Y-462940000D03*
X99800000Y-463835000D03*
X113500000Y-455125000D03*
X120350000Y-467450000D03*
X115503153Y-468225008D03*
X107300000Y-449770000D03*
X118333617Y-464859428D03*
X120625000Y-472200000D03*
X120625008Y-471175008D03*
X120708320Y-469613376D03*
X120802344Y-468691144D03*
X121679012Y-465173740D03*
X124776999Y-470875000D03*
D34*
X119685000Y-460010000D02*
X119500000Y-459825000D01*
X119685000Y-461250000D02*
X119685000Y-460010000D01*
X119685000Y-461250000D02*
X120550000Y-462115000D01*
X123100000Y-463925000D02*
X124350000Y-465175000D01*
X121350000Y-463925000D02*
X123100000Y-463925000D01*
X120550000Y-463125000D02*
X121350000Y-463925000D01*
X120550000Y-462115000D02*
X120550000Y-463125000D01*
X124350000Y-465175000D02*
X124350000Y-466925000D01*
X111230000Y-376672702D02*
X111569500Y-377012202D01*
X111230000Y-374675000D02*
X111230000Y-376672702D01*
X112230000Y-376351702D02*
X111569500Y-377012202D01*
X112230000Y-374675000D02*
X112230000Y-376351702D01*
X108376000Y-448092000D02*
X111198010Y-445269990D01*
X111575326Y-445269990D02*
X112141011Y-445269990D01*
X111198010Y-445269990D02*
X111575326Y-445269990D01*
X111730000Y-373206800D02*
X111730000Y-374675000D01*
X112217200Y-372719600D02*
X111730000Y-373206800D01*
X112730000Y-374675000D02*
X112730000Y-373232400D01*
X112730000Y-373232400D02*
X112217200Y-372719600D01*
X112730000Y-374675000D02*
X112730000Y-376420100D01*
X112730000Y-376420100D02*
X112985601Y-376675701D01*
X112985601Y-376675701D02*
X113385600Y-377075700D01*
X112503001Y-446423999D02*
X112903000Y-446024000D01*
X111106001Y-446423999D02*
X112503001Y-446423999D01*
X109426000Y-448092000D02*
X109438000Y-448092000D01*
X109438000Y-448092000D02*
X111106001Y-446423999D01*
X117050000Y-461500000D02*
X116475000Y-461500000D01*
X118775000Y-459775000D02*
X117050000Y-461500000D01*
X118775000Y-458875000D02*
X118775000Y-459775000D01*
X119475000Y-458875000D02*
X118775000Y-458875000D01*
X119575000Y-458975000D02*
X119475000Y-458875000D01*
X120425000Y-457425000D02*
X124350000Y-457425000D01*
X119500000Y-458800000D02*
X119500000Y-458350000D01*
X119500000Y-458350000D02*
X120425000Y-457425000D01*
X108900370Y-463850000D02*
X107947534Y-464802836D01*
X109350000Y-463850000D02*
X108900370Y-463850000D01*
X107947534Y-464802836D02*
X107787880Y-464802836D01*
D35*
X106935000Y-465050000D02*
X107540716Y-465050000D01*
X107540716Y-465050000D02*
X107787880Y-464802836D01*
D34*
X108118000Y-461550000D02*
X107698000Y-461550000D01*
X107698000Y-461550000D02*
X106900000Y-461550000D01*
X108418000Y-461850000D02*
X108118000Y-461550000D01*
X109350000Y-461850000D02*
X108418000Y-461850000D01*
X117840000Y-463750000D02*
X116740000Y-462650000D01*
X118575000Y-463750000D02*
X117840000Y-463750000D01*
X116740000Y-462650000D02*
X116250000Y-462650000D01*
D35*
X119499154Y-464925003D02*
X119900001Y-464925003D01*
X119900001Y-464925003D02*
X120300000Y-465325002D01*
X118700000Y-463775000D02*
X118700000Y-464125849D01*
X118700000Y-464125849D02*
X119499154Y-464925003D01*
X107698000Y-461550000D02*
X107649191Y-461501191D01*
D34*
X109350000Y-459850000D02*
X108816398Y-459850000D01*
X100315000Y-454310000D02*
X100315000Y-454810000D01*
X108816398Y-459850000D02*
X107420000Y-458453602D01*
X107420000Y-458453602D02*
X107420000Y-456325537D01*
X101194012Y-453430988D02*
X100315000Y-454310000D01*
X104525451Y-453430988D02*
X101194012Y-453430988D01*
X107420000Y-456325537D02*
X104525451Y-453430988D01*
X107092989Y-458617989D02*
X107092989Y-456460989D01*
X107092989Y-456460989D02*
X104389999Y-453757999D01*
X108725000Y-460250000D02*
X107092989Y-458617989D01*
X109350000Y-460250000D02*
X108725000Y-460250000D01*
X102137001Y-453757999D02*
X101585000Y-454310000D01*
X104389999Y-453757999D02*
X102137001Y-453757999D01*
X101585000Y-454310000D02*
X101585000Y-454810000D01*
X102855000Y-462010000D02*
X103380000Y-462010000D01*
X103380000Y-462010000D02*
X105169832Y-460220168D01*
X108193946Y-460220168D02*
X108623777Y-460650000D01*
X105169832Y-460220168D02*
X108193946Y-460220168D01*
X108623777Y-460650000D02*
X109350000Y-460650000D01*
X101585000Y-462510000D02*
X101585000Y-462010000D01*
X108058494Y-460547179D02*
X105620720Y-460547179D01*
X102697989Y-463622989D02*
X101585000Y-462510000D01*
X103337991Y-463622989D02*
X102697989Y-463622989D01*
X108561315Y-461050000D02*
X108058494Y-460547179D01*
X105080979Y-461880001D02*
X103337991Y-463622989D01*
X105620720Y-460547179D02*
X105080979Y-461086920D01*
X105080979Y-461086920D02*
X105080979Y-461880001D01*
X109350000Y-461050000D02*
X108561315Y-461050000D01*
X101755000Y-463950000D02*
X100315000Y-462510000D01*
X109350000Y-461450000D02*
X108498852Y-461450000D01*
X108498852Y-461450000D02*
X107923042Y-460874190D01*
X107923042Y-460874190D02*
X105756172Y-460874190D01*
X105756172Y-460874190D02*
X105407990Y-461222372D01*
X105407990Y-461222372D02*
X105407990Y-462015453D01*
X105407990Y-462015453D02*
X103473443Y-463950000D01*
X100315000Y-462510000D02*
X100315000Y-462010000D01*
X103473443Y-463950000D02*
X101755000Y-463950000D01*
X107976000Y-463050000D02*
X107976000Y-463316198D01*
X107976000Y-463316198D02*
X107966595Y-463325603D01*
X109350000Y-463050000D02*
X107976000Y-463050000D01*
X107976000Y-463050000D02*
X107908000Y-463118000D01*
X109426000Y-449062000D02*
X109426000Y-451285000D01*
X109426000Y-451285000D02*
X109350000Y-451361000D01*
X109350000Y-463450000D02*
X108753935Y-463450000D01*
X107291992Y-464025992D02*
X107146000Y-463880000D01*
X108177943Y-464025992D02*
X107291992Y-464025992D01*
X108753935Y-463450000D02*
X108177943Y-464025992D01*
X108376000Y-449062000D02*
X108376000Y-450846270D01*
X108376000Y-450846270D02*
X108276702Y-450945568D01*
X116250000Y-461850000D02*
X118100000Y-461850000D01*
X118100000Y-461850000D02*
X118700000Y-461250000D01*
X114775000Y-372475000D02*
X118125000Y-372475000D01*
X113730000Y-374675000D02*
X113730000Y-373520000D01*
X113730000Y-373520000D02*
X114775000Y-372475000D01*
X111525000Y-371475000D02*
X118125000Y-371475000D01*
X110730000Y-374675000D02*
X110730000Y-372270000D01*
X110730000Y-372270000D02*
X111525000Y-371475000D01*
X111000000Y-468632463D02*
X111000000Y-465500000D01*
X110032463Y-469600000D02*
X111000000Y-468632463D01*
X107900000Y-469600000D02*
X110032463Y-469600000D01*
X106400000Y-468100000D02*
X107900000Y-469600000D01*
X101993144Y-468685154D02*
X102578298Y-468100000D01*
X102578298Y-468100000D02*
X106400000Y-468100000D01*
X103982816Y-466520354D02*
X105235451Y-467772989D01*
X108035451Y-469272989D02*
X109897011Y-469272989D01*
X97086241Y-467370353D02*
X97936240Y-466520354D01*
X110600000Y-468570000D02*
X110600000Y-466125000D01*
X110600000Y-466125000D02*
X110600000Y-465500000D01*
X109897011Y-469272989D02*
X110600000Y-468570000D01*
X106535452Y-467772989D02*
X108035451Y-469272989D01*
X105235451Y-467772989D02*
X106535452Y-467772989D01*
X97936240Y-466520354D02*
X103982816Y-466520354D01*
D35*
X103763970Y-464334068D02*
X103763970Y-464600284D01*
X105630832Y-465384168D02*
X104547854Y-465384168D01*
X104547854Y-465384168D02*
X104163969Y-465000283D01*
X103763970Y-464600284D02*
X104163969Y-465000283D01*
X105213870Y-462884168D02*
X103763970Y-464334068D01*
X105930000Y-462550000D02*
X105595832Y-462884168D01*
X105595832Y-462884168D02*
X105213870Y-462884168D01*
X105965000Y-465050000D02*
X105630832Y-465384168D01*
X104040000Y-455960000D02*
X102890000Y-454810000D01*
X102890000Y-454810000D02*
X102855000Y-454810000D01*
X96490000Y-463070000D02*
X96490000Y-464855742D01*
X96490000Y-464855742D02*
X94632789Y-466712953D01*
X98030000Y-463415000D02*
X98030000Y-463070000D01*
X98055000Y-463860000D02*
X98055000Y-463440000D01*
X98055000Y-463440000D02*
X98030000Y-463415000D01*
X105965000Y-465050000D02*
X105965000Y-466065000D01*
X105965000Y-466065000D02*
X105960000Y-466070000D01*
X105930000Y-461550000D02*
X105930000Y-462550000D01*
X94632789Y-466712953D02*
X93652805Y-466712953D01*
X93652805Y-466712953D02*
X92211672Y-465271820D01*
X92211672Y-465271820D02*
X89627956Y-465271820D01*
X114334315Y-463100000D02*
X114900000Y-463100000D01*
X113850000Y-463100000D02*
X114334315Y-463100000D01*
X112800000Y-462050000D02*
X113850000Y-463100000D01*
X104476032Y-451656032D02*
X104036356Y-451656032D01*
X108650000Y-455830000D02*
X104476032Y-451656032D01*
X114400000Y-454900000D02*
X114400000Y-454450002D01*
X114400000Y-454450002D02*
X113500000Y-453550002D01*
D34*
X118447989Y-457452011D02*
X118875000Y-457025000D01*
X116962538Y-461050000D02*
X118447989Y-459564549D01*
X118447989Y-459564549D02*
X118447989Y-457452011D01*
X116250000Y-461050000D02*
X116962538Y-461050000D01*
D35*
X120470000Y-459825000D02*
X120470000Y-458800000D01*
X114400000Y-468175000D02*
X114400000Y-468288272D01*
X114400000Y-468288272D02*
X115455864Y-469344136D01*
X119725366Y-463645990D02*
X120125365Y-464045989D01*
X119685000Y-462250000D02*
X119685000Y-463605624D01*
X119685000Y-463605624D02*
X119725366Y-463645990D01*
X117272790Y-375067790D02*
X116300000Y-374095000D01*
X117272790Y-375880000D02*
X117272790Y-375067790D01*
X116067790Y-374675000D02*
X117272790Y-375880000D01*
X115180000Y-374675000D02*
X116067790Y-374675000D01*
X108240000Y-374675000D02*
X107660000Y-374095000D01*
X108780000Y-374675000D02*
X108240000Y-374675000D01*
X119095000Y-374057790D02*
X119095000Y-372475000D01*
X117272790Y-375880000D02*
X119095000Y-374057790D01*
X88849789Y-441982953D02*
X88824789Y-441982953D01*
X90599789Y-448350211D02*
X90599789Y-443732953D01*
X86792789Y-449602953D02*
X89347047Y-449602953D01*
X89347047Y-449602953D02*
X90599789Y-448350211D01*
X69799789Y-446982952D02*
X69774789Y-446982952D01*
X71549789Y-448732952D02*
X69799789Y-446982952D01*
X71549789Y-452550211D02*
X71549789Y-448732952D01*
X67742789Y-454602952D02*
X69497048Y-454602952D01*
X69497048Y-454602952D02*
X71549789Y-452550211D01*
X109400000Y-468620000D02*
X108534634Y-468620000D01*
X108534634Y-468620000D02*
X108508655Y-468645979D01*
X117250000Y-369925000D02*
X116300000Y-369925000D01*
X118585000Y-369925000D02*
X117250000Y-369925000D01*
X119095000Y-372475000D02*
X119095000Y-370435000D01*
X119095000Y-370435000D02*
X118585000Y-369925000D01*
X116300000Y-369925000D02*
X107660000Y-369925000D01*
X107660000Y-369925000D02*
X107660000Y-374095000D01*
X102837790Y-374095000D02*
X99532790Y-377400000D01*
X107660000Y-374095000D02*
X102837790Y-374095000D01*
X96190790Y-385549210D02*
X96190790Y-386480000D01*
X99010000Y-382730000D02*
X96190790Y-385549210D01*
X98222790Y-378860000D02*
X99010000Y-379647210D01*
X99010000Y-379647210D02*
X99010000Y-382730000D01*
X96560000Y-386849210D02*
X96190790Y-386480000D01*
X98222790Y-397922952D02*
X96560000Y-396260162D01*
X96560000Y-396260162D02*
X96560000Y-386849210D01*
X96190790Y-404349210D02*
X96190790Y-405542952D01*
X98960000Y-401580000D02*
X96190790Y-404349210D01*
X98222790Y-397922952D02*
X98960000Y-398660162D01*
X98960000Y-398660162D02*
X98960000Y-401580000D01*
X96190790Y-407591831D02*
X98534161Y-409935202D01*
X96190790Y-405542952D02*
X96190790Y-407591831D01*
X98534161Y-409935202D02*
X106154161Y-409935202D01*
X98534161Y-414514324D02*
X99532789Y-415512952D01*
X98534161Y-409935202D02*
X98534161Y-414514324D01*
X96190789Y-424009211D02*
X96190789Y-424592952D01*
X99120000Y-421080000D02*
X96190789Y-424009211D01*
X98222789Y-416972952D02*
X99120000Y-417870163D01*
X99120000Y-417870163D02*
X99120000Y-421080000D01*
X96630000Y-431660162D02*
X99532790Y-434562952D01*
X96190789Y-424592952D02*
X96630000Y-425032163D01*
X96630000Y-425032163D02*
X96630000Y-431660162D01*
X96190790Y-442726081D02*
X96190790Y-443642952D01*
X98850000Y-440066871D02*
X96190790Y-442726081D01*
X98222790Y-436022952D02*
X98850000Y-436650162D01*
X98850000Y-436650162D02*
X98850000Y-440066871D01*
X90509788Y-443642952D02*
X90333418Y-443466582D01*
X96190790Y-443642952D02*
X90509788Y-443642952D01*
X90599789Y-443732953D02*
X90333418Y-443466582D01*
X90333418Y-443466582D02*
X88849789Y-441982953D01*
X115240790Y-382769210D02*
X115240790Y-383500000D01*
X117930000Y-380080000D02*
X115240790Y-382769210D01*
X117272790Y-375880000D02*
X117930000Y-376537210D01*
X117930000Y-376537210D02*
X117930000Y-380080000D01*
X119707789Y-392337953D02*
X118582790Y-393462952D01*
X121725742Y-390320000D02*
X119707789Y-392337953D01*
X125900000Y-391250000D02*
X124970000Y-390320000D01*
X124970000Y-390320000D02*
X121725742Y-390320000D01*
X115240790Y-401569210D02*
X115240790Y-402542952D01*
X117980000Y-398830000D02*
X115240790Y-401569210D01*
X118230000Y-398830000D02*
X117980000Y-398830000D01*
X126924789Y-411432952D02*
X126924789Y-407524789D01*
X126924789Y-407524789D02*
X118230000Y-398830000D01*
X118110000Y-398700000D02*
X117980000Y-398830000D01*
X117272790Y-394922952D02*
X118110000Y-395760162D01*
X118110000Y-395760162D02*
X118110000Y-398700000D01*
X124230000Y-418390163D02*
X124892789Y-419052952D01*
X124230000Y-415120000D02*
X124230000Y-418390163D01*
X126924789Y-411432952D02*
X126924789Y-412425211D01*
X126924789Y-412425211D02*
X124230000Y-415120000D01*
X117272789Y-432872952D02*
X117272789Y-433022952D01*
X124892789Y-425252952D02*
X117272789Y-432872952D01*
X124892789Y-419052952D02*
X124892789Y-423432789D01*
X124892789Y-423432789D02*
X124892789Y-425252952D01*
X99180000Y-417930163D02*
X98222789Y-416972952D01*
X99180000Y-420730000D02*
X99180000Y-417930163D01*
X115240789Y-440039211D02*
X115240789Y-440642952D01*
X117920000Y-437360000D02*
X115240789Y-440039211D01*
X117272789Y-433022952D02*
X117920000Y-433670163D01*
X117920000Y-433670163D02*
X117920000Y-437360000D01*
X87998928Y-460788019D02*
X87998928Y-459674326D01*
X87998928Y-462440711D02*
X87998928Y-460788019D01*
X89627956Y-464069739D02*
X87998928Y-462440711D01*
X89627956Y-465271820D02*
X89627956Y-464069739D01*
X83049030Y-456655373D02*
X81723356Y-457981047D01*
X85447277Y-456655373D02*
X83049030Y-456655373D01*
X79127904Y-457981047D02*
X78221183Y-457074326D01*
X81723356Y-457981047D02*
X79127904Y-457981047D01*
X121399988Y-459729988D02*
X120470000Y-458800000D01*
X121399988Y-462100000D02*
X121399988Y-459729988D01*
X122457790Y-421637951D02*
X123582789Y-420512952D01*
X120375741Y-423720000D02*
X122457790Y-421637951D01*
X114010000Y-420730000D02*
X117000000Y-423720000D01*
X117000000Y-423720000D02*
X120375741Y-423720000D01*
X112725000Y-432505000D02*
X112420000Y-432810000D01*
X112725000Y-428790000D02*
X112725000Y-432505000D01*
X117079837Y-432830000D02*
X117272789Y-433022952D01*
X112420000Y-432810000D02*
X112440000Y-432830000D01*
X112440000Y-432830000D02*
X117079837Y-432830000D01*
X113750000Y-453300002D02*
X113500000Y-453550002D01*
X113750000Y-442108741D02*
X113750000Y-453300002D01*
X115240789Y-440642952D02*
X115215789Y-440642952D01*
X115215789Y-440642952D02*
X113750000Y-442108741D01*
X124000000Y-386200000D02*
X112875000Y-386200000D01*
X112050000Y-420730000D02*
X111875000Y-420905000D01*
X113040000Y-420730000D02*
X112050000Y-420730000D01*
X112465000Y-424190000D02*
X112730000Y-424190000D01*
X111875000Y-420905000D02*
X111875000Y-423600000D01*
X111875000Y-423600000D02*
X112465000Y-424190000D01*
X112250000Y-385710000D02*
X112250000Y-382350000D01*
X112775000Y-386300000D02*
X112775000Y-386235000D01*
X112775000Y-386235000D02*
X112250000Y-385710000D01*
X111875000Y-412415000D02*
X111875000Y-420905000D01*
X114870000Y-409420000D02*
X111875000Y-412415000D01*
X114870000Y-406360000D02*
X114870000Y-409420000D01*
X112762056Y-386200000D02*
X112762056Y-404252056D01*
X112762056Y-404252056D02*
X114870000Y-406360000D01*
D34*
X115422999Y-467347999D02*
X116410933Y-467347999D01*
X116410933Y-467347999D02*
X117443967Y-468381033D01*
X114200000Y-465500000D02*
X114200000Y-466125000D01*
X114200000Y-466125000D02*
X115422999Y-467347999D01*
X121700001Y-470300001D02*
X123250000Y-471850000D01*
X119362935Y-470300001D02*
X121700001Y-470300001D01*
X117443967Y-468381033D02*
X119362935Y-470300001D01*
X117395000Y-468430000D02*
X117443967Y-468381033D01*
X117395000Y-469375000D02*
X117395000Y-468430000D01*
X116900076Y-460650000D02*
X118114077Y-459435999D01*
X118114077Y-449710923D02*
X119169833Y-448655167D01*
X119169833Y-448655167D02*
X121950145Y-448655167D01*
X118114077Y-459435999D02*
X118114077Y-449710923D01*
X116250000Y-460650000D02*
X116900076Y-460650000D01*
X117787066Y-449575471D02*
X119634368Y-447728169D01*
X117787066Y-459300548D02*
X117787066Y-449575471D01*
X116250000Y-460250000D02*
X116837614Y-460250000D01*
X119634368Y-447728169D02*
X121947694Y-447728169D01*
X116837614Y-460250000D02*
X117787066Y-459300548D01*
X117460055Y-449440019D02*
X120098757Y-446801317D01*
X116775152Y-459850000D02*
X117460055Y-459165097D01*
X120098757Y-446801317D02*
X121964373Y-446801317D01*
X116250000Y-459850000D02*
X116775152Y-459850000D01*
X117460055Y-459165097D02*
X117460055Y-449440019D01*
X117133044Y-458266956D02*
X117133044Y-449275418D01*
X120533462Y-445875000D02*
X122000000Y-445875000D01*
X117133044Y-449275418D02*
X120533462Y-445875000D01*
X116250000Y-459150000D02*
X117133044Y-458266956D01*
X116250000Y-459450000D02*
X116250000Y-459150000D01*
X111400000Y-465500000D02*
X111400000Y-471045742D01*
X111400000Y-471045742D02*
X111332790Y-471112952D01*
X111800000Y-465500000D02*
X111800000Y-468582029D01*
X111800000Y-468582029D02*
X113786242Y-470568271D01*
X113786242Y-470568271D02*
X113786242Y-471770352D01*
X116190290Y-472427753D02*
X116239693Y-472427753D01*
X112200000Y-465500000D02*
X112200000Y-468437463D01*
X112200000Y-468437463D02*
X116190290Y-472427753D01*
X112600000Y-468375000D02*
X115175000Y-470950000D01*
X112600000Y-465500000D02*
X112600000Y-468375000D01*
X117900000Y-470950000D02*
X118670000Y-471720000D01*
X115175000Y-470950000D02*
X117900000Y-470950000D01*
X118670000Y-471720000D02*
X118670000Y-473062008D01*
X118670000Y-473062008D02*
X118693145Y-473085153D01*
X113000000Y-458600000D02*
X112927001Y-458527001D01*
X113000000Y-456555585D02*
X104644379Y-448199964D01*
X104644379Y-448199964D02*
X104500000Y-448199964D01*
X113000000Y-458600000D02*
X113000000Y-456555585D01*
X103519894Y-448419894D02*
X103519894Y-448285346D01*
X104427002Y-449327002D02*
X103519894Y-448419894D01*
X105308954Y-449327002D02*
X104427002Y-449327002D01*
X112600000Y-458600000D02*
X112600000Y-456618048D01*
X112600000Y-456618048D02*
X105308954Y-449327002D01*
X112200000Y-458600000D02*
X112200000Y-456680511D01*
X112200000Y-456680511D02*
X105173502Y-449654013D01*
X105173502Y-449654013D02*
X103749574Y-449654013D01*
X103749574Y-449654013D02*
X102466731Y-448371170D01*
X103003691Y-449981024D02*
X101422667Y-448400000D01*
X111800000Y-458600000D02*
X111800000Y-456742974D01*
X111800000Y-456742974D02*
X105038050Y-449981024D01*
X105038050Y-449981024D02*
X103003691Y-449981024D01*
X56532789Y-451662952D02*
X56532789Y-451192952D01*
X61432789Y-456562952D02*
X56532789Y-451662952D01*
X56532789Y-449837952D02*
X56847789Y-449522952D01*
X56532789Y-451192952D02*
X56532789Y-449837952D01*
X110600000Y-456930363D02*
X104698659Y-451029022D01*
X110600000Y-458600000D02*
X110600000Y-456930363D01*
X104698659Y-451029022D02*
X92770978Y-451029022D01*
X92770978Y-451029022D02*
X89700000Y-454100000D01*
X89700000Y-454100000D02*
X82162850Y-454100000D01*
X62619837Y-457750000D02*
X61432789Y-456562952D01*
X74150000Y-457750000D02*
X62619837Y-457750000D01*
X82100000Y-454100000D02*
X77800000Y-454100000D01*
X77800000Y-454100000D02*
X74150000Y-457750000D01*
X75897789Y-448522789D02*
X75897789Y-444522953D01*
X80482789Y-451562953D02*
X78937953Y-451562953D01*
X78937953Y-451562953D02*
X75897789Y-448522789D01*
X111000000Y-456867901D02*
X104834111Y-450702011D01*
X81567788Y-453267952D02*
X80442789Y-452142953D01*
X88807048Y-453267952D02*
X81567788Y-453267952D01*
X91372989Y-450702011D02*
X88807048Y-453267952D01*
X104834111Y-450702011D02*
X91372989Y-450702011D01*
X111000000Y-458600000D02*
X111000000Y-456867901D01*
X109117790Y-399742790D02*
X109117790Y-403002952D01*
X104532790Y-395962952D02*
X105337952Y-395962952D01*
X105337952Y-395962952D02*
X109117790Y-399742790D01*
X115080999Y-456494001D02*
X115080999Y-445478963D01*
X114200000Y-458600000D02*
X114200000Y-457375000D01*
X114200000Y-457375000D02*
X115080999Y-456494001D01*
X114681000Y-445078964D02*
X114681000Y-444557689D01*
X115080999Y-445478963D02*
X114681000Y-445078964D01*
X114681000Y-444557689D02*
X114681000Y-443992004D01*
X109117790Y-403002952D02*
X109142790Y-403002952D01*
X113520000Y-407380162D02*
X113520000Y-407890000D01*
X109142790Y-403002952D02*
X113520000Y-407380162D01*
X109117789Y-419597952D02*
X109117789Y-422052952D01*
X104532789Y-415012952D02*
X109117789Y-419597952D01*
X111760000Y-450272685D02*
X111760000Y-449707000D01*
X111760000Y-454847695D02*
X111760000Y-450272685D01*
X113400000Y-456487695D02*
X111760000Y-454847695D01*
X113400000Y-458600000D02*
X113400000Y-456487695D01*
X111400000Y-458600000D02*
X111472999Y-458527001D01*
X109092790Y-441102952D02*
X109117790Y-441102952D01*
X103895742Y-446300000D02*
X109092790Y-441102952D01*
X101700000Y-446300000D02*
X103895742Y-446300000D01*
X111400000Y-456805437D02*
X104969563Y-450375000D01*
X111400000Y-458600000D02*
X111400000Y-456805437D01*
X104969563Y-450375000D02*
X102075000Y-450375000D01*
X102075000Y-450375000D02*
X100400000Y-448700000D01*
X100400000Y-448700000D02*
X100400000Y-447600000D01*
X100400000Y-447600000D02*
X101700000Y-446300000D01*
X109117790Y-439652952D02*
X109117790Y-441102952D01*
X109117790Y-436717790D02*
X109117790Y-439652952D01*
X104532790Y-434062952D02*
X106462952Y-434062952D01*
X106462952Y-434062952D02*
X109117790Y-436717790D01*
X128167790Y-395967790D02*
X128167790Y-400002952D01*
X123582790Y-392962952D02*
X125162952Y-392962952D01*
X125162952Y-392962952D02*
X128167790Y-395967790D01*
X114600000Y-458600000D02*
X114600000Y-457437463D01*
X114600000Y-457437463D02*
X116152011Y-455885452D01*
X116152011Y-455885452D02*
X116152011Y-445614526D01*
X116713000Y-444557685D02*
X116713000Y-443992000D01*
X116713000Y-445053537D02*
X116713000Y-444557685D01*
X116152011Y-445614526D02*
X116713000Y-445053537D01*
X113997789Y-417247789D02*
X113997789Y-413972952D01*
X118582789Y-421012952D02*
X117762952Y-421012952D01*
X117762952Y-421012952D02*
X113997789Y-417247789D01*
X115600000Y-444504315D02*
X115600000Y-445070000D01*
X115600000Y-443980000D02*
X115600000Y-444504315D01*
X116350000Y-443230000D02*
X115600000Y-443980000D01*
X115000000Y-457499926D02*
X116479022Y-456020904D01*
X115000000Y-458600000D02*
X115000000Y-457499926D01*
X116479022Y-456020904D02*
X116479022Y-446030978D01*
X116479022Y-446030978D02*
X117475000Y-445035000D01*
X117221000Y-443230000D02*
X116350000Y-443230000D01*
X117475000Y-445035000D02*
X117475000Y-443484000D01*
X117475000Y-443484000D02*
X117221000Y-443230000D01*
X128167789Y-435027952D02*
X123622789Y-430482952D01*
X128167789Y-438102952D02*
X128167789Y-435027952D01*
X116806033Y-449139967D02*
X128807789Y-437138211D01*
X115400000Y-457975000D02*
X116806033Y-456568967D01*
X116806033Y-456568967D02*
X116806033Y-449139967D01*
X115400000Y-458600000D02*
X115400000Y-457975000D01*
D35*
X110825000Y-379550000D02*
X112250000Y-379550000D01*
X109580000Y-374675000D02*
X109580000Y-378305000D01*
X109580000Y-378305000D02*
X110825000Y-379550000D01*
X113575000Y-379550000D02*
X112250000Y-379550000D01*
X114380000Y-374675000D02*
X114380000Y-378745000D01*
X114380000Y-378745000D02*
X113575000Y-379550000D01*
D34*
X114400000Y-456600000D02*
X113800000Y-457200000D01*
X114400000Y-455900000D02*
X114400000Y-456600000D01*
X113800000Y-457200000D02*
X113800000Y-458600000D01*
D35*
X106900000Y-462550000D02*
X106900000Y-462970000D01*
X106900000Y-462970000D02*
X105739251Y-464130749D01*
X105739251Y-464130749D02*
X105083989Y-464130749D01*
X110010000Y-457740000D02*
X110024020Y-457725980D01*
X109332021Y-456800000D02*
X109624021Y-457092000D01*
X108650000Y-456800000D02*
X109332021Y-456800000D01*
X110024020Y-457491999D02*
X109624021Y-457092000D01*
X110024020Y-457725980D02*
X110024020Y-457491999D01*
X109400000Y-467650000D02*
X108376000Y-467650000D01*
X106930000Y-466070000D02*
X107908000Y-467048000D01*
X107816000Y-467090000D02*
X107908000Y-467182000D01*
X106910000Y-467090000D02*
X107816000Y-467090000D01*
X108376000Y-467650000D02*
X107908000Y-467182000D01*
X107908000Y-467048000D02*
X107908000Y-467182000D01*
D34*
X108650000Y-464625000D02*
X108650000Y-464775000D01*
X109350000Y-464250000D02*
X109025000Y-464250000D01*
X109025000Y-464250000D02*
X108650000Y-464625000D01*
X110010000Y-457740000D02*
X110200000Y-457930000D01*
X110200000Y-457930000D02*
X110200000Y-458600000D01*
X107710000Y-466080000D02*
X108650000Y-465140000D01*
X106880000Y-466080000D02*
X107710000Y-466080000D01*
X108650000Y-465140000D02*
X108650000Y-464775000D01*
X108325000Y-462650000D02*
X106900000Y-462650000D01*
X109350000Y-462650000D02*
X108325000Y-462650000D01*
X109350000Y-462250000D02*
X108725000Y-462250000D01*
X108725000Y-462250000D02*
X108325000Y-462650000D01*
X108650000Y-464775000D02*
X108775000Y-464650000D01*
X108775000Y-464650000D02*
X109350000Y-464650000D01*
X109400000Y-467150000D02*
X110200000Y-466350000D01*
X110200000Y-466350000D02*
X110200000Y-465500000D01*
X109400000Y-467650000D02*
X109400000Y-467150000D01*
D35*
X118068356Y-463081644D02*
X118068356Y-462896644D01*
X118068356Y-462896644D02*
X118715000Y-462250000D01*
X99445000Y-463835000D02*
X99800000Y-463835000D01*
X99025000Y-463860000D02*
X99420000Y-463860000D01*
X99420000Y-463860000D02*
X99445000Y-463835000D01*
X99045000Y-462010000D02*
X99045000Y-463840000D01*
X99045000Y-463840000D02*
X99025000Y-463860000D01*
D34*
X118700000Y-462250000D02*
X116250000Y-462250000D01*
D35*
X119225000Y-426500000D02*
X115800000Y-426500000D01*
X115800000Y-426500000D02*
X112925000Y-426500000D01*
X114275000Y-455900000D02*
X113500000Y-455125000D01*
X114400000Y-455900000D02*
X114275000Y-455900000D01*
D34*
X113800000Y-466725000D02*
X113800000Y-465500000D01*
X114300000Y-467225000D02*
X113800000Y-466725000D01*
D35*
X119450000Y-467450000D02*
X120350000Y-467450000D01*
X114503145Y-467225000D02*
X115503153Y-468225008D01*
X116425000Y-469375000D02*
X116425000Y-468955000D01*
X116425000Y-468955000D02*
X115695008Y-468225008D01*
X114400000Y-467225000D02*
X114503145Y-467225000D01*
X115695008Y-468225008D02*
X115503153Y-468225008D01*
X107300000Y-449770000D02*
X107300000Y-447400000D01*
X111480000Y-443220000D02*
X111480000Y-435660000D01*
X111480000Y-435660000D02*
X110110000Y-434290000D01*
X107300000Y-447400000D02*
X111480000Y-443220000D01*
X110110000Y-434290000D02*
X110110000Y-427140000D01*
X110750000Y-426500000D02*
X112725000Y-426500000D01*
X110110000Y-427140000D02*
X110750000Y-426500000D01*
D34*
X116250000Y-463850000D02*
X117324189Y-463850000D01*
X117324189Y-463850000D02*
X118333617Y-464859428D01*
X80651086Y-462225674D02*
X80551086Y-462325674D01*
X85033379Y-462225674D02*
X80651086Y-462225674D01*
X86251651Y-463918953D02*
X86251651Y-463443946D01*
X86251651Y-463443946D02*
X85033379Y-462225674D01*
X99815522Y-453103978D02*
X99018000Y-453901500D01*
X104660902Y-453103978D02*
X99815522Y-453103978D01*
X107747010Y-456190086D02*
X104660902Y-453103978D01*
X107747010Y-458172010D02*
X107747010Y-456190086D01*
X109350000Y-459450000D02*
X109025000Y-459450000D01*
X109025000Y-459450000D02*
X107747010Y-458172010D01*
X99018000Y-453901500D02*
X99018000Y-454736000D01*
X99045000Y-454810000D02*
X97330000Y-454810000D01*
X97330000Y-454810000D02*
X97300000Y-454780000D01*
X105090000Y-467090000D02*
X102675000Y-464675000D01*
X99045000Y-456775000D02*
X99045000Y-454810000D01*
X105940000Y-467090000D02*
X105090000Y-467090000D01*
X102675000Y-464675000D02*
X97775000Y-464675000D01*
X97775000Y-464675000D02*
X97180000Y-464080000D01*
X97180000Y-464080000D02*
X97180000Y-458640000D01*
X97180000Y-458640000D02*
X99045000Y-456775000D01*
X120037538Y-472200000D02*
X120625000Y-472200000D01*
X115385526Y-470622989D02*
X118460527Y-470622989D01*
X113000000Y-468237461D02*
X115385526Y-470622989D01*
X113000000Y-465500000D02*
X113000000Y-468237461D01*
X118460527Y-470622989D02*
X120037538Y-472200000D01*
X118595978Y-470295978D02*
X119475008Y-471175008D01*
X115520978Y-470295978D02*
X118595978Y-470295978D01*
X113400000Y-465500000D02*
X113400000Y-468174998D01*
X113400000Y-468174998D02*
X115520978Y-470295978D01*
X119475008Y-471175008D02*
X120625008Y-471175008D01*
X119150914Y-469613376D02*
X120708320Y-469613376D01*
X116558526Y-467020988D02*
X119150914Y-469613376D01*
X114600000Y-466037538D02*
X115583448Y-467020988D01*
X114600000Y-465500000D02*
X114600000Y-466037538D01*
X115583448Y-467020988D02*
X116558526Y-467020988D01*
X118691144Y-468691144D02*
X120802344Y-468691144D01*
X115000000Y-465975077D02*
X115718900Y-466693977D01*
X115718900Y-466693977D02*
X116693977Y-466693977D01*
X115000000Y-465500000D02*
X115000000Y-465975077D01*
X116693977Y-466693977D02*
X118691144Y-468691144D01*
X116837462Y-464250000D02*
X118539464Y-465952002D01*
X120900750Y-465952002D02*
X121679012Y-465173740D01*
X116250000Y-464250000D02*
X116837462Y-464250000D01*
X118539464Y-465952002D02*
X120900750Y-465952002D01*
X109117790Y-380865000D02*
X104572790Y-376320000D01*
X109117790Y-383940000D02*
X109117790Y-380865000D01*
X128167790Y-380426610D02*
X128876095Y-379718305D01*
X128167790Y-380960000D02*
X128167790Y-380426610D01*
X124045000Y-373920000D02*
X123582790Y-373920000D01*
X127450000Y-377325000D02*
X124045000Y-373920000D01*
X127450000Y-378792210D02*
X127450000Y-377325000D01*
X128167790Y-380960000D02*
X128167790Y-379510000D01*
X128167790Y-379510000D02*
X127450000Y-378792210D01*
X123355000Y-470925000D02*
X124726999Y-470925000D01*
X116775000Y-464650000D02*
X118404013Y-466279013D01*
X118404013Y-466279013D02*
X121429013Y-466279013D01*
X116250000Y-464650000D02*
X116775000Y-464650000D01*
X121429013Y-466279013D02*
X122450000Y-467300000D01*
X124726999Y-470925000D02*
X124776999Y-470875000D01*
X122450000Y-467300000D02*
X122450000Y-470020000D01*
X122450000Y-470020000D02*
X123355000Y-470925000D01*
X116575000Y-465500000D02*
X115400000Y-465500000D01*
X118475000Y-467400000D02*
X116575000Y-465500000D01*
X70873341Y-459625674D02*
X70773341Y-459725674D01*
X88512462Y-455750000D02*
X84362462Y-459900000D01*
X97300000Y-455750000D02*
X88512462Y-455750000D01*
X84362462Y-459900000D02*
X78567866Y-459900000D01*
X78567866Y-459900000D02*
X77048913Y-461418953D01*
X77048913Y-461418953D02*
X75255634Y-459625674D01*
X75255634Y-459625674D02*
X70873341Y-459625674D01*
M02*
