G04 #@! TF.GenerationSoftware,KiCad,Pcbnew,(5.1.4)-1*
G04 #@! TF.CreationDate,2023-06-13T20:25:11-04:00*
G04 #@! TF.ProjectId,ThumbsUp,5468756d-6273-4557-902e-6b696361645f,rev?*
G04 #@! TF.SameCoordinates,Original*
G04 #@! TF.FileFunction,Profile,NP*
%FSLAX46Y46*%
G04 Gerber Fmt 4.6, Leading zero omitted, Abs format (unit mm)*
G04 Created by KiCad (PCBNEW (5.1.4)-1) date 2023-06-13 20:25:11*
%MOMM*%
%LPD*%
G04 APERTURE LIST*
%ADD10C,0.050000*%
G04 APERTURE END LIST*
D10*
X75800000Y-440600000D02*
X70800000Y-445600000D01*
X70800000Y-445600000D02*
X56700000Y-445600000D01*
X93900000Y-440600000D02*
X94900000Y-439600000D01*
X93900000Y-440600000D02*
X75800000Y-440600000D01*
X130314797Y-373110158D02*
X130314797Y-370910158D01*
X94932790Y-373662952D02*
X94932790Y-371462952D01*
X94932790Y-392712952D02*
X94932790Y-373662952D01*
X130314797Y-392160158D02*
X130314797Y-373110158D01*
X65232790Y-460212952D02*
X65432790Y-460212952D01*
X94932790Y-392712952D02*
X94900000Y-439600000D01*
X129254192Y-474050399D02*
X120032789Y-474912952D01*
X129254192Y-474050399D02*
X132132325Y-463288599D01*
X130313464Y-393918708D02*
X130314797Y-392160158D01*
X130339205Y-433490533D02*
X130327669Y-450500233D01*
X130334214Y-458838116D02*
X130321847Y-451519862D01*
X130334214Y-458838116D02*
X132132325Y-463288599D01*
X130314797Y-370910158D02*
X128132789Y-368762952D01*
X97632790Y-368762952D02*
X94932790Y-371462952D01*
X97632790Y-368762952D02*
X128132789Y-368762952D01*
X54632790Y-447800000D02*
X54632789Y-459012952D01*
X54632790Y-447800000D02*
X56700000Y-445600000D01*
X54632789Y-459012952D02*
X56032790Y-460212952D01*
X65232790Y-460212952D02*
X56032790Y-460212952D01*
X130313464Y-393918708D02*
X130339205Y-433490533D01*
X130321847Y-451519862D02*
X130327669Y-450500233D01*
X120032789Y-474912952D02*
X65432790Y-460212952D01*
M02*
