G04 #@! TF.GenerationSoftware,KiCad,Pcbnew,(5.1.4)-1*
G04 #@! TF.CreationDate,2023-09-09T05:32:15-04:00*
G04 #@! TF.ProjectId,ThumbsUp,5468756d-6273-4557-902e-6b696361645f,rev?*
G04 #@! TF.SameCoordinates,Original*
G04 #@! TF.FileFunction,Soldermask,Top*
G04 #@! TF.FilePolarity,Negative*
%FSLAX46Y46*%
G04 Gerber Fmt 4.6, Leading zero omitted, Abs format (unit mm)*
G04 Created by KiCad (PCBNEW (5.1.4)-1) date 2023-09-09 05:32:15*
%MOMM*%
%LPD*%
G04 APERTURE LIST*
%ADD10C,0.100000*%
G04 APERTURE END LIST*
D10*
G36*
X118803587Y-472190671D02*
G01*
X118869772Y-472197190D01*
X119039611Y-472248710D01*
X119196136Y-472332375D01*
X119231874Y-472361705D01*
X119333331Y-472444967D01*
X119416593Y-472546424D01*
X119445923Y-472582162D01*
X119529588Y-472738687D01*
X119581108Y-472908526D01*
X119598504Y-473085153D01*
X119581108Y-473261780D01*
X119529588Y-473431619D01*
X119445923Y-473588144D01*
X119416593Y-473623882D01*
X119333331Y-473725339D01*
X119231874Y-473808601D01*
X119196136Y-473837931D01*
X119039611Y-473921596D01*
X118869772Y-473973116D01*
X118803587Y-473979635D01*
X118737405Y-473986153D01*
X118648885Y-473986153D01*
X118582703Y-473979635D01*
X118516518Y-473973116D01*
X118346679Y-473921596D01*
X118190154Y-473837931D01*
X118154416Y-473808601D01*
X118052959Y-473725339D01*
X117969697Y-473623882D01*
X117940367Y-473588144D01*
X117856702Y-473431619D01*
X117805182Y-473261780D01*
X117787786Y-473085153D01*
X117805182Y-472908526D01*
X117856702Y-472738687D01*
X117940367Y-472582162D01*
X117969697Y-472546424D01*
X118052959Y-472444967D01*
X118154416Y-472361705D01*
X118190154Y-472332375D01*
X118346679Y-472248710D01*
X118516518Y-472197190D01*
X118582703Y-472190671D01*
X118648885Y-472184153D01*
X118737405Y-472184153D01*
X118803587Y-472190671D01*
X118803587Y-472190671D01*
G37*
G36*
X116350136Y-471533272D02*
G01*
X116416320Y-471539790D01*
X116586159Y-471591310D01*
X116742684Y-471674975D01*
X116778422Y-471704305D01*
X116879879Y-471787567D01*
X116963141Y-471889024D01*
X116992471Y-471924762D01*
X117076136Y-472081287D01*
X117127656Y-472251126D01*
X117145052Y-472427753D01*
X117127656Y-472604380D01*
X117076136Y-472774219D01*
X116992471Y-472930744D01*
X116963141Y-472966482D01*
X116879879Y-473067939D01*
X116778422Y-473151201D01*
X116742684Y-473180531D01*
X116586159Y-473264196D01*
X116416320Y-473315716D01*
X116350135Y-473322235D01*
X116283953Y-473328753D01*
X116195433Y-473328753D01*
X116129251Y-473322235D01*
X116063066Y-473315716D01*
X115893227Y-473264196D01*
X115736702Y-473180531D01*
X115700964Y-473151201D01*
X115599507Y-473067939D01*
X115516245Y-472966482D01*
X115486915Y-472930744D01*
X115403250Y-472774219D01*
X115351730Y-472604380D01*
X115334334Y-472427753D01*
X115351730Y-472251126D01*
X115403250Y-472081287D01*
X115486915Y-471924762D01*
X115516245Y-471889024D01*
X115599507Y-471787567D01*
X115700964Y-471704305D01*
X115736702Y-471674975D01*
X115893227Y-471591310D01*
X116063066Y-471539790D01*
X116129250Y-471533272D01*
X116195433Y-471526753D01*
X116283953Y-471526753D01*
X116350136Y-471533272D01*
X116350136Y-471533272D01*
G37*
G36*
X128034119Y-471017573D02*
G01*
X128109416Y-471024989D01*
X128279255Y-471076509D01*
X128435780Y-471160174D01*
X128471518Y-471189504D01*
X128572975Y-471272766D01*
X128656237Y-471374223D01*
X128685567Y-471409961D01*
X128769232Y-471566486D01*
X128820752Y-471736325D01*
X128838148Y-471912952D01*
X128820752Y-472089579D01*
X128769232Y-472259418D01*
X128685567Y-472415943D01*
X128661747Y-472444967D01*
X128572975Y-472553138D01*
X128471518Y-472636400D01*
X128435780Y-472665730D01*
X128279255Y-472749395D01*
X128109416Y-472800915D01*
X128043232Y-472807433D01*
X127977049Y-472813952D01*
X127888529Y-472813952D01*
X127822346Y-472807433D01*
X127756162Y-472800915D01*
X127586323Y-472749395D01*
X127429798Y-472665730D01*
X127394060Y-472636400D01*
X127292603Y-472553138D01*
X127203831Y-472444967D01*
X127180011Y-472415943D01*
X127096346Y-472259418D01*
X127044826Y-472089579D01*
X127027430Y-471912952D01*
X127044826Y-471736325D01*
X127096346Y-471566486D01*
X127180011Y-471409961D01*
X127209341Y-471374223D01*
X127292603Y-471272766D01*
X127394060Y-471189504D01*
X127429798Y-471160174D01*
X127586323Y-471076509D01*
X127756162Y-471024989D01*
X127831459Y-471017573D01*
X127888529Y-471011952D01*
X127977049Y-471011952D01*
X128034119Y-471017573D01*
X128034119Y-471017573D01*
G37*
G36*
X113896685Y-470875871D02*
G01*
X113962869Y-470882389D01*
X114132708Y-470933909D01*
X114289233Y-471017574D01*
X114298268Y-471024989D01*
X114426428Y-471130166D01*
X114509690Y-471231623D01*
X114539020Y-471267361D01*
X114622685Y-471423886D01*
X114674205Y-471593725D01*
X114691601Y-471770352D01*
X114674205Y-471946979D01*
X114622685Y-472116818D01*
X114539020Y-472273343D01*
X114509690Y-472309081D01*
X114426428Y-472410538D01*
X114324971Y-472493800D01*
X114289233Y-472523130D01*
X114132708Y-472606795D01*
X113962869Y-472658315D01*
X113896684Y-472664834D01*
X113830502Y-472671352D01*
X113741982Y-472671352D01*
X113675800Y-472664834D01*
X113609615Y-472658315D01*
X113439776Y-472606795D01*
X113283251Y-472523130D01*
X113247513Y-472493800D01*
X113146056Y-472410538D01*
X113062794Y-472309081D01*
X113033464Y-472273343D01*
X112949799Y-472116818D01*
X112898279Y-471946979D01*
X112880883Y-471770352D01*
X112898279Y-471593725D01*
X112949799Y-471423886D01*
X113033464Y-471267361D01*
X113062794Y-471231623D01*
X113146056Y-471130166D01*
X113274216Y-471024989D01*
X113283251Y-471017574D01*
X113439776Y-470933909D01*
X113609615Y-470882389D01*
X113675799Y-470875871D01*
X113741982Y-470869352D01*
X113830502Y-470869352D01*
X113896685Y-470875871D01*
X113896685Y-470875871D01*
G37*
G36*
X112436285Y-470475849D02*
G01*
X111969893Y-472216447D01*
X110229295Y-471750055D01*
X110695687Y-470009457D01*
X112436285Y-470475849D01*
X112436285Y-470475849D01*
G37*
G36*
X128700632Y-468565019D02*
G01*
X128766816Y-468571537D01*
X128936655Y-468623057D01*
X129093180Y-468706722D01*
X129128918Y-468736052D01*
X129230375Y-468819314D01*
X129309490Y-468915717D01*
X129342967Y-468956509D01*
X129426632Y-469113034D01*
X129478152Y-469282873D01*
X129495548Y-469459500D01*
X129478152Y-469636127D01*
X129426632Y-469805966D01*
X129342967Y-469962491D01*
X129313637Y-469998229D01*
X129230375Y-470099686D01*
X129128918Y-470182948D01*
X129093180Y-470212278D01*
X128936655Y-470295943D01*
X128766816Y-470347463D01*
X128700632Y-470353981D01*
X128634449Y-470360500D01*
X128545929Y-470360500D01*
X128479746Y-470353981D01*
X128413562Y-470347463D01*
X128243723Y-470295943D01*
X128087198Y-470212278D01*
X128051460Y-470182948D01*
X127950003Y-470099686D01*
X127866741Y-469998229D01*
X127837411Y-469962491D01*
X127753746Y-469805966D01*
X127702226Y-469636127D01*
X127684830Y-469459500D01*
X127702226Y-469282873D01*
X127753746Y-469113034D01*
X127837411Y-468956509D01*
X127870888Y-468915717D01*
X127950003Y-468819314D01*
X128051460Y-468736052D01*
X128087198Y-468706722D01*
X128243723Y-468623057D01*
X128413562Y-468571537D01*
X128479746Y-468565019D01*
X128545929Y-468558500D01*
X128634449Y-468558500D01*
X128700632Y-468565019D01*
X128700632Y-468565019D01*
G37*
G36*
X102103586Y-467790672D02*
G01*
X102169771Y-467797191D01*
X102339610Y-467848711D01*
X102496135Y-467932376D01*
X102531873Y-467961706D01*
X102633330Y-468044968D01*
X102716592Y-468146425D01*
X102745922Y-468182163D01*
X102829587Y-468338688D01*
X102881107Y-468508527D01*
X102898503Y-468685154D01*
X102881107Y-468861781D01*
X102829587Y-469031620D01*
X102745922Y-469188145D01*
X102716592Y-469223883D01*
X102633330Y-469325340D01*
X102531873Y-469408602D01*
X102496135Y-469437932D01*
X102339610Y-469521597D01*
X102169771Y-469573117D01*
X102103586Y-469579636D01*
X102037404Y-469586154D01*
X101948884Y-469586154D01*
X101882702Y-469579636D01*
X101816517Y-469573117D01*
X101646678Y-469521597D01*
X101490153Y-469437932D01*
X101454415Y-469408602D01*
X101352958Y-469325340D01*
X101269696Y-469223883D01*
X101240366Y-469188145D01*
X101156701Y-469031620D01*
X101105181Y-468861781D01*
X101087785Y-468685154D01*
X101105181Y-468508527D01*
X101156701Y-468338688D01*
X101240366Y-468182163D01*
X101269696Y-468146425D01*
X101352958Y-468044968D01*
X101454415Y-467961706D01*
X101490153Y-467932376D01*
X101646678Y-467848711D01*
X101816517Y-467797191D01*
X101882702Y-467790672D01*
X101948884Y-467784154D01*
X102037404Y-467784154D01*
X102103586Y-467790672D01*
X102103586Y-467790672D01*
G37*
G36*
X99650134Y-467133272D02*
G01*
X99716319Y-467139791D01*
X99886158Y-467191311D01*
X100042683Y-467274976D01*
X100078421Y-467304306D01*
X100179878Y-467387568D01*
X100263140Y-467489025D01*
X100292470Y-467524763D01*
X100376135Y-467681288D01*
X100427655Y-467851127D01*
X100445051Y-468027754D01*
X100427655Y-468204381D01*
X100376135Y-468374220D01*
X100292470Y-468530745D01*
X100269692Y-468558500D01*
X100179878Y-468667940D01*
X100078421Y-468751202D01*
X100042683Y-468780532D01*
X99886158Y-468864197D01*
X99716319Y-468915717D01*
X99650134Y-468922236D01*
X99583952Y-468928754D01*
X99495432Y-468928754D01*
X99429250Y-468922236D01*
X99363065Y-468915717D01*
X99193226Y-468864197D01*
X99036701Y-468780532D01*
X99000963Y-468751202D01*
X98899506Y-468667940D01*
X98809692Y-468558500D01*
X98786914Y-468530745D01*
X98703249Y-468374220D01*
X98651729Y-468204381D01*
X98634333Y-468027754D01*
X98651729Y-467851127D01*
X98703249Y-467681288D01*
X98786914Y-467524763D01*
X98816244Y-467489025D01*
X98899506Y-467387568D01*
X99000963Y-467304306D01*
X99036701Y-467274976D01*
X99193226Y-467191311D01*
X99363065Y-467139791D01*
X99429250Y-467133272D01*
X99495432Y-467126754D01*
X99583952Y-467126754D01*
X99650134Y-467133272D01*
X99650134Y-467133272D01*
G37*
G36*
X97196683Y-466475871D02*
G01*
X97262868Y-466482390D01*
X97432707Y-466533910D01*
X97589232Y-466617575D01*
X97624970Y-466646905D01*
X97726427Y-466730167D01*
X97807882Y-466829422D01*
X97839019Y-466867362D01*
X97922684Y-467023887D01*
X97974204Y-467193726D01*
X97991600Y-467370353D01*
X97974204Y-467546980D01*
X97922684Y-467716819D01*
X97839019Y-467873344D01*
X97822057Y-467894012D01*
X97726427Y-468010539D01*
X97624970Y-468093801D01*
X97589232Y-468123131D01*
X97432707Y-468206796D01*
X97262868Y-468258316D01*
X97196683Y-468264835D01*
X97130501Y-468271353D01*
X97041981Y-468271353D01*
X96975799Y-468264835D01*
X96909614Y-468258316D01*
X96739775Y-468206796D01*
X96583250Y-468123131D01*
X96547512Y-468093801D01*
X96446055Y-468010539D01*
X96350425Y-467894012D01*
X96333463Y-467873344D01*
X96249798Y-467716819D01*
X96198278Y-467546980D01*
X96180882Y-467370353D01*
X96198278Y-467193726D01*
X96249798Y-467023887D01*
X96333463Y-466867362D01*
X96364600Y-466829422D01*
X96446055Y-466730167D01*
X96547512Y-466646905D01*
X96583250Y-466617575D01*
X96739775Y-466533910D01*
X96909614Y-466482390D01*
X96975799Y-466475871D01*
X97041981Y-466469353D01*
X97130501Y-466469353D01*
X97196683Y-466475871D01*
X97196683Y-466475871D01*
G37*
G36*
X129358033Y-466111568D02*
G01*
X129424217Y-466118086D01*
X129594056Y-466169606D01*
X129750581Y-466253271D01*
X129786319Y-466282601D01*
X129887776Y-466365863D01*
X129971038Y-466467320D01*
X130000368Y-466503058D01*
X130084033Y-466659583D01*
X130135553Y-466829422D01*
X130152949Y-467006049D01*
X130135553Y-467182676D01*
X130084033Y-467352515D01*
X130000368Y-467509040D01*
X129971038Y-467544778D01*
X129887776Y-467646235D01*
X129801768Y-467716819D01*
X129750581Y-467758827D01*
X129594056Y-467842492D01*
X129424217Y-467894012D01*
X129358033Y-467900530D01*
X129291850Y-467907049D01*
X129203330Y-467907049D01*
X129137147Y-467900530D01*
X129070963Y-467894012D01*
X128901124Y-467842492D01*
X128744599Y-467758827D01*
X128693412Y-467716819D01*
X128607404Y-467646235D01*
X128524142Y-467544778D01*
X128494812Y-467509040D01*
X128411147Y-467352515D01*
X128359627Y-467182676D01*
X128342231Y-467006049D01*
X128359627Y-466829422D01*
X128411147Y-466659583D01*
X128494812Y-466503058D01*
X128524142Y-466467320D01*
X128607404Y-466365863D01*
X128708861Y-466282601D01*
X128744599Y-466253271D01*
X128901124Y-466169606D01*
X129070963Y-466118086D01*
X129137147Y-466111568D01*
X129203330Y-466105049D01*
X129291850Y-466105049D01*
X129358033Y-466111568D01*
X129358033Y-466111568D01*
G37*
G36*
X95736284Y-466075850D02*
G01*
X95269892Y-467816448D01*
X93529294Y-467350056D01*
X93995686Y-465609458D01*
X95736284Y-466075850D01*
X95736284Y-466075850D01*
G37*
G36*
X89738399Y-464377339D02*
G01*
X89804583Y-464383857D01*
X89974422Y-464435377D01*
X90130947Y-464519042D01*
X90166685Y-464548372D01*
X90268142Y-464631634D01*
X90351404Y-464733091D01*
X90380734Y-464768829D01*
X90464399Y-464925354D01*
X90515919Y-465095193D01*
X90533315Y-465271820D01*
X90515919Y-465448447D01*
X90464399Y-465618286D01*
X90380734Y-465774811D01*
X90351404Y-465810549D01*
X90268142Y-465912006D01*
X90166685Y-465995268D01*
X90130947Y-466024598D01*
X89974422Y-466108263D01*
X89804583Y-466159783D01*
X89738398Y-466166302D01*
X89672216Y-466172820D01*
X89583696Y-466172820D01*
X89517514Y-466166302D01*
X89451329Y-466159783D01*
X89281490Y-466108263D01*
X89124965Y-466024598D01*
X89089227Y-465995268D01*
X88987770Y-465912006D01*
X88904508Y-465810549D01*
X88875178Y-465774811D01*
X88791513Y-465618286D01*
X88739993Y-465448447D01*
X88722597Y-465271820D01*
X88739993Y-465095193D01*
X88791513Y-464925354D01*
X88875178Y-464768829D01*
X88904508Y-464733091D01*
X88987770Y-464631634D01*
X89089227Y-464548372D01*
X89124965Y-464519042D01*
X89281490Y-464435377D01*
X89451329Y-464383857D01*
X89517513Y-464377339D01*
X89583696Y-464370820D01*
X89672216Y-464370820D01*
X89738399Y-464377339D01*
X89738399Y-464377339D01*
G37*
G36*
X131008485Y-463915494D02*
G01*
X130542093Y-465656092D01*
X128801495Y-465189700D01*
X129267887Y-463449102D01*
X131008485Y-463915494D01*
X131008485Y-463915494D01*
G37*
G36*
X87071239Y-463212676D02*
G01*
X87223836Y-463275883D01*
X87361170Y-463367647D01*
X87477964Y-463484441D01*
X87569728Y-463621775D01*
X87632935Y-463774372D01*
X87665158Y-463936367D01*
X87665158Y-464101539D01*
X87632935Y-464263534D01*
X87569728Y-464416131D01*
X87477964Y-464553465D01*
X87361170Y-464670259D01*
X87223836Y-464762023D01*
X87071239Y-464825230D01*
X86909244Y-464857453D01*
X86744072Y-464857453D01*
X86582077Y-464825230D01*
X86429480Y-464762023D01*
X86292146Y-464670259D01*
X86175352Y-464553465D01*
X86083588Y-464416131D01*
X86020381Y-464263534D01*
X85988158Y-464101539D01*
X85988158Y-463936367D01*
X86020381Y-463774372D01*
X86083588Y-463621775D01*
X86175352Y-463484441D01*
X86292146Y-463367647D01*
X86429480Y-463275883D01*
X86582077Y-463212676D01*
X86744072Y-463180453D01*
X86909244Y-463180453D01*
X87071239Y-463212676D01*
X87071239Y-463212676D01*
G37*
G36*
X90395799Y-461923887D02*
G01*
X90461983Y-461930405D01*
X90631822Y-461981925D01*
X90788347Y-462065590D01*
X90807237Y-462081093D01*
X90925542Y-462178182D01*
X90990597Y-462257453D01*
X91038134Y-462315377D01*
X91121799Y-462471902D01*
X91173319Y-462641741D01*
X91190715Y-462818368D01*
X91173319Y-462994995D01*
X91121799Y-463164834D01*
X91038134Y-463321359D01*
X91008804Y-463357097D01*
X90925542Y-463458554D01*
X90824085Y-463541816D01*
X90788347Y-463571146D01*
X90631822Y-463654811D01*
X90461983Y-463706331D01*
X90395799Y-463712849D01*
X90329616Y-463719368D01*
X90241096Y-463719368D01*
X90174913Y-463712849D01*
X90108729Y-463706331D01*
X89938890Y-463654811D01*
X89782365Y-463571146D01*
X89746627Y-463541816D01*
X89645170Y-463458554D01*
X89561908Y-463357097D01*
X89532578Y-463321359D01*
X89448913Y-463164834D01*
X89397393Y-462994995D01*
X89379997Y-462818368D01*
X89397393Y-462641741D01*
X89448913Y-462471902D01*
X89532578Y-462315377D01*
X89580115Y-462257453D01*
X89645170Y-462178182D01*
X89763475Y-462081093D01*
X89782365Y-462065590D01*
X89938890Y-461981925D01*
X90108729Y-461930405D01*
X90174913Y-461923887D01*
X90241096Y-461917368D01*
X90329616Y-461917368D01*
X90395799Y-461923887D01*
X90395799Y-461923887D01*
G37*
G36*
X80795667Y-461519397D02*
G01*
X80948264Y-461582604D01*
X81085598Y-461674368D01*
X81202392Y-461791162D01*
X81294156Y-461928496D01*
X81357363Y-462081093D01*
X81389586Y-462243088D01*
X81389586Y-462408260D01*
X81357363Y-462570255D01*
X81294156Y-462722852D01*
X81202392Y-462860186D01*
X81085598Y-462976980D01*
X80948264Y-463068744D01*
X80795667Y-463131951D01*
X80633672Y-463164174D01*
X80468500Y-463164174D01*
X80306505Y-463131951D01*
X80153908Y-463068744D01*
X80016574Y-462976980D01*
X79899780Y-462860186D01*
X79808016Y-462722852D01*
X79744809Y-462570255D01*
X79712586Y-462408260D01*
X79712586Y-462243088D01*
X79744809Y-462081093D01*
X79808016Y-461928496D01*
X79899780Y-461791162D01*
X80016574Y-461674368D01*
X80153908Y-461582604D01*
X80306505Y-461519397D01*
X80468500Y-461487174D01*
X80633672Y-461487174D01*
X80795667Y-461519397D01*
X80795667Y-461519397D01*
G37*
G36*
X77293494Y-460612676D02*
G01*
X77446091Y-460675883D01*
X77583425Y-460767647D01*
X77700219Y-460884441D01*
X77791983Y-461021775D01*
X77855190Y-461174372D01*
X77887413Y-461336367D01*
X77887413Y-461501539D01*
X77855190Y-461663534D01*
X77791983Y-461816131D01*
X77700219Y-461953465D01*
X77583425Y-462070259D01*
X77446091Y-462162023D01*
X77293494Y-462225230D01*
X77131499Y-462257453D01*
X76966327Y-462257453D01*
X76804332Y-462225230D01*
X76651735Y-462162023D01*
X76514401Y-462070259D01*
X76397607Y-461953465D01*
X76305843Y-461816131D01*
X76242636Y-461663534D01*
X76210413Y-461501539D01*
X76210413Y-461336367D01*
X76242636Y-461174372D01*
X76305843Y-461021775D01*
X76397607Y-460884441D01*
X76514401Y-460767647D01*
X76651735Y-460675883D01*
X76804332Y-460612676D01*
X76966327Y-460580453D01*
X77131499Y-460580453D01*
X77293494Y-460612676D01*
X77293494Y-460612676D01*
G37*
G36*
X91053200Y-459470436D02*
G01*
X91119384Y-459476954D01*
X91289223Y-459528474D01*
X91445748Y-459612139D01*
X91481486Y-459641469D01*
X91582943Y-459724731D01*
X91651492Y-459808260D01*
X91695535Y-459861926D01*
X91779200Y-460018451D01*
X91830720Y-460188290D01*
X91848116Y-460364917D01*
X91830720Y-460541544D01*
X91789968Y-460675884D01*
X91779199Y-460711385D01*
X91737367Y-460789646D01*
X91695535Y-460867908D01*
X91666205Y-460903646D01*
X91582943Y-461005103D01*
X91481486Y-461088365D01*
X91445748Y-461117695D01*
X91289223Y-461201360D01*
X91119384Y-461252880D01*
X91053200Y-461259398D01*
X90987017Y-461265917D01*
X90898497Y-461265917D01*
X90832314Y-461259398D01*
X90766130Y-461252880D01*
X90596291Y-461201360D01*
X90439766Y-461117695D01*
X90404028Y-461088365D01*
X90302571Y-461005103D01*
X90219309Y-460903646D01*
X90189979Y-460867908D01*
X90148147Y-460789646D01*
X90106315Y-460711385D01*
X90095546Y-460675884D01*
X90054794Y-460541544D01*
X90037398Y-460364917D01*
X90054794Y-460188290D01*
X90106314Y-460018451D01*
X90189979Y-459861926D01*
X90234022Y-459808260D01*
X90302571Y-459724731D01*
X90404028Y-459641469D01*
X90439766Y-459612139D01*
X90596291Y-459528474D01*
X90766130Y-459476954D01*
X90832314Y-459470436D01*
X90898497Y-459463917D01*
X90987017Y-459463917D01*
X91053200Y-459470436D01*
X91053200Y-459470436D01*
G37*
G36*
X71017922Y-458919397D02*
G01*
X71170519Y-458982604D01*
X71307853Y-459074368D01*
X71424647Y-459191162D01*
X71516411Y-459328496D01*
X71579618Y-459481093D01*
X71611841Y-459643088D01*
X71611841Y-459808260D01*
X71579618Y-459970255D01*
X71516411Y-460122852D01*
X71424647Y-460260186D01*
X71307853Y-460376980D01*
X71170519Y-460468744D01*
X71017922Y-460531951D01*
X70855927Y-460564174D01*
X70690755Y-460564174D01*
X70528760Y-460531951D01*
X70376163Y-460468744D01*
X70238829Y-460376980D01*
X70122035Y-460260186D01*
X70030271Y-460122852D01*
X69967064Y-459970255D01*
X69934841Y-459808260D01*
X69934841Y-459643088D01*
X69967064Y-459481093D01*
X70030271Y-459328496D01*
X70122035Y-459191162D01*
X70238829Y-459074368D01*
X70376163Y-458982604D01*
X70528760Y-458919397D01*
X70690755Y-458887174D01*
X70855927Y-458887174D01*
X71017922Y-458919397D01*
X71017922Y-458919397D01*
G37*
G36*
X88243509Y-458868049D02*
G01*
X88396106Y-458931256D01*
X88533440Y-459023020D01*
X88650234Y-459139814D01*
X88741998Y-459277148D01*
X88805205Y-459429745D01*
X88837428Y-459591740D01*
X88837428Y-459756912D01*
X88805205Y-459918907D01*
X88741998Y-460071504D01*
X88650234Y-460208838D01*
X88533440Y-460325632D01*
X88396106Y-460417396D01*
X88243509Y-460480603D01*
X88081514Y-460512826D01*
X87916342Y-460512826D01*
X87754347Y-460480603D01*
X87601750Y-460417396D01*
X87464416Y-460325632D01*
X87347622Y-460208838D01*
X87255858Y-460071504D01*
X87192651Y-459918907D01*
X87160428Y-459756912D01*
X87160428Y-459591740D01*
X87192651Y-459429745D01*
X87255858Y-459277148D01*
X87347622Y-459139814D01*
X87464416Y-459023020D01*
X87601750Y-458931256D01*
X87754347Y-458868049D01*
X87916342Y-458835826D01*
X88081514Y-458835826D01*
X88243509Y-458868049D01*
X88243509Y-458868049D01*
G37*
G36*
X56643231Y-457918470D02*
G01*
X56709416Y-457924989D01*
X56879255Y-457976509D01*
X57035780Y-458060174D01*
X57071518Y-458089504D01*
X57172975Y-458172766D01*
X57256237Y-458274223D01*
X57285567Y-458309961D01*
X57369232Y-458466486D01*
X57420752Y-458636325D01*
X57438148Y-458812952D01*
X57420752Y-458989579D01*
X57369232Y-459159418D01*
X57285567Y-459315943D01*
X57275265Y-459328496D01*
X57172975Y-459453138D01*
X57081176Y-459528474D01*
X57035780Y-459565730D01*
X57035778Y-459565731D01*
X56891055Y-459643088D01*
X56879255Y-459649395D01*
X56709416Y-459700915D01*
X56643232Y-459707433D01*
X56577049Y-459713952D01*
X56488529Y-459713952D01*
X56422346Y-459707433D01*
X56356162Y-459700915D01*
X56186323Y-459649395D01*
X56174524Y-459643088D01*
X56029800Y-459565731D01*
X56029798Y-459565730D01*
X55984402Y-459528474D01*
X55892603Y-459453138D01*
X55790313Y-459328496D01*
X55780011Y-459315943D01*
X55696346Y-459159418D01*
X55644826Y-458989579D01*
X55627430Y-458812952D01*
X55644826Y-458636325D01*
X55696346Y-458466486D01*
X55780011Y-458309961D01*
X55809341Y-458274223D01*
X55892603Y-458172766D01*
X55994060Y-458089504D01*
X56029798Y-458060174D01*
X56186323Y-457976509D01*
X56356162Y-457924989D01*
X56422347Y-457918470D01*
X56488529Y-457911952D01*
X56577049Y-457911952D01*
X56643231Y-457918470D01*
X56643231Y-457918470D01*
G37*
G36*
X92703652Y-457274362D02*
G01*
X92237260Y-459014960D01*
X90496662Y-458548568D01*
X90963054Y-456807970D01*
X92703652Y-457274362D01*
X92703652Y-457274362D01*
G37*
G36*
X81967937Y-457174770D02*
G01*
X82120534Y-457237977D01*
X82257868Y-457329741D01*
X82374662Y-457446535D01*
X82466426Y-457583869D01*
X82529633Y-457736466D01*
X82561856Y-457898461D01*
X82561856Y-458063633D01*
X82529633Y-458225628D01*
X82466426Y-458378225D01*
X82374662Y-458515559D01*
X82257868Y-458632353D01*
X82120534Y-458724117D01*
X81967937Y-458787324D01*
X81805942Y-458819547D01*
X81640770Y-458819547D01*
X81478775Y-458787324D01*
X81326178Y-458724117D01*
X81188844Y-458632353D01*
X81072050Y-458515559D01*
X80980286Y-458378225D01*
X80917079Y-458225628D01*
X80884856Y-458063633D01*
X80884856Y-457898461D01*
X80917079Y-457736466D01*
X80980286Y-457583869D01*
X81072050Y-457446535D01*
X81188844Y-457329741D01*
X81326178Y-457237977D01*
X81478775Y-457174770D01*
X81640770Y-457142547D01*
X81805942Y-457142547D01*
X81967937Y-457174770D01*
X81967937Y-457174770D01*
G37*
G36*
X61695374Y-455621754D02*
G01*
X61845199Y-455651556D01*
X62127463Y-455768473D01*
X62381494Y-455938211D01*
X62597530Y-456154247D01*
X62767268Y-456408278D01*
X62884185Y-456690542D01*
X62943789Y-456990192D01*
X62943789Y-457295712D01*
X62884185Y-457595362D01*
X62767268Y-457877626D01*
X62597530Y-458131657D01*
X62381494Y-458347693D01*
X62127463Y-458517431D01*
X61845199Y-458634348D01*
X61695374Y-458664150D01*
X61545550Y-458693952D01*
X61240028Y-458693952D01*
X61090204Y-458664150D01*
X60940379Y-458634348D01*
X60658115Y-458517431D01*
X60404084Y-458347693D01*
X60188048Y-458131657D01*
X60018310Y-457877626D01*
X59901393Y-457595362D01*
X59841789Y-457295712D01*
X59841789Y-456990192D01*
X59901393Y-456690542D01*
X60018310Y-456408278D01*
X60188048Y-456154247D01*
X60404084Y-455938211D01*
X60658115Y-455768473D01*
X60940379Y-455651556D01*
X61090204Y-455621754D01*
X61240028Y-455591952D01*
X61545550Y-455591952D01*
X61695374Y-455621754D01*
X61695374Y-455621754D01*
G37*
G36*
X78465764Y-456268049D02*
G01*
X78618361Y-456331256D01*
X78755695Y-456423020D01*
X78872489Y-456539814D01*
X78964253Y-456677148D01*
X79027460Y-456829745D01*
X79059683Y-456991740D01*
X79059683Y-457156912D01*
X79027460Y-457318907D01*
X78964253Y-457471504D01*
X78872489Y-457608838D01*
X78755695Y-457725632D01*
X78618361Y-457817396D01*
X78465764Y-457880603D01*
X78303769Y-457912826D01*
X78138597Y-457912826D01*
X77976602Y-457880603D01*
X77824005Y-457817396D01*
X77686671Y-457725632D01*
X77569877Y-457608838D01*
X77478113Y-457471504D01*
X77414906Y-457318907D01*
X77382683Y-457156912D01*
X77382683Y-456991740D01*
X77414906Y-456829745D01*
X77478113Y-456677148D01*
X77569877Y-456539814D01*
X77686671Y-456423020D01*
X77824005Y-456331256D01*
X77976602Y-456268049D01*
X78138597Y-456235826D01*
X78303769Y-456235826D01*
X78465764Y-456268049D01*
X78465764Y-456268049D01*
G37*
G36*
X56643231Y-455378470D02*
G01*
X56709416Y-455384989D01*
X56879255Y-455436509D01*
X57035780Y-455520174D01*
X57071518Y-455549504D01*
X57172975Y-455632766D01*
X57256237Y-455734223D01*
X57285567Y-455769961D01*
X57369232Y-455926486D01*
X57420752Y-456096325D01*
X57438148Y-456272952D01*
X57420752Y-456449579D01*
X57369232Y-456619418D01*
X57285567Y-456775943D01*
X57259283Y-456807970D01*
X57172975Y-456913138D01*
X57071518Y-456996400D01*
X57035780Y-457025730D01*
X56879255Y-457109395D01*
X56709416Y-457160915D01*
X56643231Y-457167434D01*
X56577049Y-457173952D01*
X56488529Y-457173952D01*
X56422347Y-457167434D01*
X56356162Y-457160915D01*
X56186323Y-457109395D01*
X56029798Y-457025730D01*
X55994060Y-456996400D01*
X55892603Y-456913138D01*
X55806295Y-456807970D01*
X55780011Y-456775943D01*
X55696346Y-456619418D01*
X55644826Y-456449579D01*
X55627430Y-456272952D01*
X55644826Y-456096325D01*
X55696346Y-455926486D01*
X55780011Y-455769961D01*
X55809341Y-455734223D01*
X55892603Y-455632766D01*
X55994060Y-455549504D01*
X56029798Y-455520174D01*
X56186323Y-455436509D01*
X56356162Y-455384989D01*
X56422347Y-455378470D01*
X56488529Y-455371952D01*
X56577049Y-455371952D01*
X56643231Y-455378470D01*
X56643231Y-455378470D01*
G37*
G36*
X68045374Y-453081754D02*
G01*
X68195199Y-453111556D01*
X68477463Y-453228473D01*
X68731494Y-453398211D01*
X68947530Y-453614247D01*
X69117268Y-453868278D01*
X69234185Y-454150542D01*
X69293789Y-454450192D01*
X69293789Y-454755712D01*
X69234185Y-455055362D01*
X69117268Y-455337626D01*
X68947530Y-455591657D01*
X68731494Y-455807693D01*
X68477463Y-455977431D01*
X68195199Y-456094348D01*
X68045374Y-456124150D01*
X67895550Y-456153952D01*
X67590028Y-456153952D01*
X67440204Y-456124150D01*
X67290379Y-456094348D01*
X67008115Y-455977431D01*
X66754084Y-455807693D01*
X66538048Y-455591657D01*
X66368310Y-455337626D01*
X66251393Y-455055362D01*
X66191789Y-454755712D01*
X66191789Y-454450192D01*
X66251393Y-454150542D01*
X66368310Y-453868278D01*
X66538048Y-453614247D01*
X66754084Y-453398211D01*
X67008115Y-453228473D01*
X67290379Y-453111556D01*
X67440204Y-453081754D01*
X67590028Y-453051952D01*
X67895550Y-453051952D01*
X68045374Y-453081754D01*
X68045374Y-453081754D01*
G37*
G36*
X64684180Y-449585946D02*
G01*
X64878364Y-449666380D01*
X65152981Y-449780130D01*
X65574893Y-450062042D01*
X65933699Y-450420848D01*
X66215611Y-450842760D01*
X66282687Y-451004697D01*
X66409795Y-451311561D01*
X66508789Y-451809238D01*
X66508789Y-452316666D01*
X66409795Y-452814343D01*
X66352209Y-452953367D01*
X66215611Y-453283144D01*
X65933699Y-453705056D01*
X65574893Y-454063862D01*
X65152981Y-454345774D01*
X64900896Y-454450191D01*
X64684180Y-454539958D01*
X64536195Y-454569394D01*
X64186504Y-454638952D01*
X63679074Y-454638952D01*
X63329383Y-454569394D01*
X63181398Y-454539958D01*
X62964682Y-454450191D01*
X62712597Y-454345774D01*
X62290685Y-454063862D01*
X61931879Y-453705056D01*
X61649967Y-453283144D01*
X61513369Y-452953367D01*
X61455783Y-452814343D01*
X61356789Y-452316666D01*
X61356789Y-451809238D01*
X61455783Y-451311561D01*
X61582891Y-451004697D01*
X61649967Y-450842760D01*
X61931879Y-450420848D01*
X62290685Y-450062042D01*
X62712597Y-449780130D01*
X62987214Y-449666380D01*
X63181398Y-449585946D01*
X63679074Y-449486952D01*
X64186504Y-449486952D01*
X64684180Y-449585946D01*
X64684180Y-449585946D01*
G37*
G36*
X56643232Y-452838471D02*
G01*
X56709416Y-452844989D01*
X56879255Y-452896509D01*
X57035780Y-452980174D01*
X57071518Y-453009504D01*
X57172975Y-453092766D01*
X57256237Y-453194223D01*
X57285567Y-453229961D01*
X57369232Y-453386486D01*
X57420752Y-453556325D01*
X57438148Y-453732952D01*
X57420752Y-453909579D01*
X57369232Y-454079418D01*
X57285567Y-454235943D01*
X57256237Y-454271681D01*
X57172975Y-454373138D01*
X57079084Y-454450191D01*
X57035780Y-454485730D01*
X56879255Y-454569395D01*
X56709416Y-454620915D01*
X56643232Y-454627433D01*
X56577049Y-454633952D01*
X56488529Y-454633952D01*
X56422346Y-454627433D01*
X56356162Y-454620915D01*
X56186323Y-454569395D01*
X56029798Y-454485730D01*
X55986494Y-454450191D01*
X55892603Y-454373138D01*
X55809341Y-454271681D01*
X55780011Y-454235943D01*
X55696346Y-454079418D01*
X55644826Y-453909579D01*
X55627430Y-453732952D01*
X55644826Y-453556325D01*
X55696346Y-453386486D01*
X55780011Y-453229961D01*
X55809341Y-453194223D01*
X55892603Y-453092766D01*
X55994060Y-453009504D01*
X56029798Y-452980174D01*
X56186323Y-452896509D01*
X56356162Y-452844989D01*
X56422346Y-452838471D01*
X56488529Y-452831952D01*
X56577049Y-452831952D01*
X56643232Y-452838471D01*
X56643232Y-452838471D01*
G37*
G36*
X80745374Y-450621755D02*
G01*
X80895199Y-450651557D01*
X81177463Y-450768474D01*
X81431494Y-450938212D01*
X81647530Y-451154248D01*
X81817268Y-451408279D01*
X81934185Y-451690543D01*
X81963987Y-451840368D01*
X81982632Y-451934100D01*
X81993789Y-451990193D01*
X81993789Y-452295713D01*
X81934185Y-452595363D01*
X81817268Y-452877627D01*
X81647530Y-453131658D01*
X81431494Y-453347694D01*
X81177463Y-453517432D01*
X80895199Y-453634349D01*
X80745374Y-453664151D01*
X80595550Y-453693953D01*
X80290028Y-453693953D01*
X80140204Y-453664151D01*
X79990379Y-453634349D01*
X79708115Y-453517432D01*
X79454084Y-453347694D01*
X79238048Y-453131658D01*
X79068310Y-452877627D01*
X78951393Y-452595363D01*
X78891789Y-452295713D01*
X78891789Y-451990193D01*
X78902947Y-451934100D01*
X78921591Y-451840368D01*
X78951393Y-451690543D01*
X79068310Y-451408279D01*
X79238048Y-451154248D01*
X79454084Y-450938212D01*
X79708115Y-450768474D01*
X79990379Y-450651557D01*
X80140204Y-450621755D01*
X80290028Y-450591953D01*
X80595550Y-450591953D01*
X80745374Y-450621755D01*
X80745374Y-450621755D01*
G37*
G36*
X59122893Y-451172537D02*
G01*
X59291415Y-451242341D01*
X59443080Y-451343680D01*
X59572061Y-451472661D01*
X59673400Y-451624326D01*
X59743204Y-451792848D01*
X59778789Y-451971749D01*
X59778789Y-452154155D01*
X59743204Y-452333056D01*
X59673400Y-452501578D01*
X59572061Y-452653243D01*
X59443080Y-452782224D01*
X59291415Y-452883563D01*
X59122893Y-452953367D01*
X58943992Y-452988952D01*
X58761586Y-452988952D01*
X58582685Y-452953367D01*
X58414163Y-452883563D01*
X58262498Y-452782224D01*
X58133517Y-452653243D01*
X58032178Y-452501578D01*
X57962374Y-452333056D01*
X57926789Y-452154155D01*
X57926789Y-451971749D01*
X57962374Y-451792848D01*
X58032178Y-451624326D01*
X58133517Y-451472661D01*
X58262498Y-451343680D01*
X58414163Y-451242341D01*
X58582685Y-451172537D01*
X58761586Y-451136952D01*
X58943992Y-451136952D01*
X59122893Y-451172537D01*
X59122893Y-451172537D01*
G37*
G36*
X69282893Y-451172537D02*
G01*
X69451415Y-451242341D01*
X69603080Y-451343680D01*
X69732061Y-451472661D01*
X69833400Y-451624326D01*
X69903204Y-451792848D01*
X69938789Y-451971749D01*
X69938789Y-452154155D01*
X69903204Y-452333056D01*
X69833400Y-452501578D01*
X69732061Y-452653243D01*
X69603080Y-452782224D01*
X69451415Y-452883563D01*
X69282893Y-452953367D01*
X69103992Y-452988952D01*
X68921586Y-452988952D01*
X68742685Y-452953367D01*
X68574163Y-452883563D01*
X68422498Y-452782224D01*
X68293517Y-452653243D01*
X68192178Y-452501578D01*
X68122374Y-452333056D01*
X68086789Y-452154155D01*
X68086789Y-451971749D01*
X68122374Y-451792848D01*
X68192178Y-451624326D01*
X68293517Y-451472661D01*
X68422498Y-451343680D01*
X68574163Y-451242341D01*
X68742685Y-451172537D01*
X68921586Y-451136952D01*
X69103992Y-451136952D01*
X69282893Y-451172537D01*
X69282893Y-451172537D01*
G37*
G36*
X57433789Y-452093952D02*
G01*
X55631789Y-452093952D01*
X55631789Y-450291952D01*
X57433789Y-450291952D01*
X57433789Y-452093952D01*
X57433789Y-452093952D01*
G37*
G36*
X125638870Y-450286840D02*
G01*
X125705055Y-450293359D01*
X125874894Y-450344879D01*
X126031419Y-450428544D01*
X126067157Y-450457874D01*
X126168614Y-450541136D01*
X126251876Y-450642593D01*
X126281206Y-450678331D01*
X126281207Y-450678333D01*
X126350353Y-450807694D01*
X126364871Y-450834856D01*
X126416391Y-451004695D01*
X126433787Y-451181322D01*
X126416391Y-451357949D01*
X126364871Y-451527788D01*
X126281206Y-451684313D01*
X126276093Y-451690543D01*
X126168614Y-451821508D01*
X126067157Y-451904770D01*
X126031419Y-451934100D01*
X125874894Y-452017765D01*
X125705055Y-452069285D01*
X125638871Y-452075803D01*
X125572688Y-452082322D01*
X125484168Y-452082322D01*
X125417985Y-452075803D01*
X125351801Y-452069285D01*
X125181962Y-452017765D01*
X125025437Y-451934100D01*
X124989699Y-451904770D01*
X124888242Y-451821508D01*
X124780763Y-451690543D01*
X124775650Y-451684313D01*
X124691985Y-451527788D01*
X124640465Y-451357949D01*
X124623069Y-451181322D01*
X124640465Y-451004695D01*
X124691985Y-450834856D01*
X124706504Y-450807694D01*
X124775649Y-450678333D01*
X124775650Y-450678331D01*
X124804980Y-450642593D01*
X124888242Y-450541136D01*
X124989699Y-450457874D01*
X125025437Y-450428544D01*
X125181962Y-450344879D01*
X125351801Y-450293359D01*
X125417986Y-450286840D01*
X125484168Y-450280322D01*
X125572688Y-450280322D01*
X125638870Y-450286840D01*
X125638870Y-450286840D01*
G37*
G36*
X123098870Y-450286840D02*
G01*
X123165055Y-450293359D01*
X123334894Y-450344879D01*
X123491419Y-450428544D01*
X123527157Y-450457874D01*
X123628614Y-450541136D01*
X123711876Y-450642593D01*
X123741206Y-450678331D01*
X123741207Y-450678333D01*
X123810353Y-450807694D01*
X123824871Y-450834856D01*
X123876391Y-451004695D01*
X123893787Y-451181322D01*
X123876391Y-451357949D01*
X123824871Y-451527788D01*
X123741206Y-451684313D01*
X123736093Y-451690543D01*
X123628614Y-451821508D01*
X123527157Y-451904770D01*
X123491419Y-451934100D01*
X123334894Y-452017765D01*
X123165055Y-452069285D01*
X123098871Y-452075803D01*
X123032688Y-452082322D01*
X122944168Y-452082322D01*
X122877985Y-452075803D01*
X122811801Y-452069285D01*
X122641962Y-452017765D01*
X122485437Y-451934100D01*
X122449699Y-451904770D01*
X122348242Y-451821508D01*
X122240763Y-451690543D01*
X122235650Y-451684313D01*
X122151985Y-451527788D01*
X122100465Y-451357949D01*
X122083069Y-451181322D01*
X122100465Y-451004695D01*
X122151985Y-450834856D01*
X122166504Y-450807694D01*
X122235649Y-450678333D01*
X122235650Y-450678331D01*
X122264980Y-450642593D01*
X122348242Y-450541136D01*
X122449699Y-450457874D01*
X122485437Y-450428544D01*
X122641962Y-450344879D01*
X122811801Y-450293359D01*
X122877986Y-450286840D01*
X122944168Y-450280322D01*
X123032688Y-450280322D01*
X123098870Y-450286840D01*
X123098870Y-450286840D01*
G37*
G36*
X128178870Y-450286840D02*
G01*
X128245055Y-450293359D01*
X128414894Y-450344879D01*
X128571419Y-450428544D01*
X128607157Y-450457874D01*
X128708614Y-450541136D01*
X128791876Y-450642593D01*
X128821206Y-450678331D01*
X128821207Y-450678333D01*
X128890353Y-450807694D01*
X128904871Y-450834856D01*
X128956391Y-451004695D01*
X128973787Y-451181322D01*
X128956391Y-451357949D01*
X128904871Y-451527788D01*
X128821206Y-451684313D01*
X128816093Y-451690543D01*
X128708614Y-451821508D01*
X128607157Y-451904770D01*
X128571419Y-451934100D01*
X128414894Y-452017765D01*
X128245055Y-452069285D01*
X128178871Y-452075803D01*
X128112688Y-452082322D01*
X128024168Y-452082322D01*
X127957985Y-452075803D01*
X127891801Y-452069285D01*
X127721962Y-452017765D01*
X127565437Y-451934100D01*
X127529699Y-451904770D01*
X127428242Y-451821508D01*
X127320763Y-451690543D01*
X127315650Y-451684313D01*
X127231985Y-451527788D01*
X127180465Y-451357949D01*
X127163069Y-451181322D01*
X127180465Y-451004695D01*
X127231985Y-450834856D01*
X127246504Y-450807694D01*
X127315649Y-450678333D01*
X127315650Y-450678331D01*
X127344980Y-450642593D01*
X127428242Y-450541136D01*
X127529699Y-450457874D01*
X127565437Y-450428544D01*
X127721962Y-450344879D01*
X127891801Y-450293359D01*
X127957986Y-450286840D01*
X128024168Y-450280322D01*
X128112688Y-450280322D01*
X128178870Y-450286840D01*
X128178870Y-450286840D01*
G37*
G36*
X121349428Y-452082322D02*
G01*
X119547428Y-452082322D01*
X119547428Y-450280322D01*
X121349428Y-450280322D01*
X121349428Y-452082322D01*
X121349428Y-452082322D01*
G37*
G36*
X87095374Y-448081755D02*
G01*
X87245199Y-448111557D01*
X87527463Y-448228474D01*
X87781494Y-448398212D01*
X87997530Y-448614248D01*
X88167268Y-448868279D01*
X88284185Y-449150543D01*
X88343789Y-449450193D01*
X88343789Y-449755713D01*
X88284185Y-450055363D01*
X88167268Y-450337627D01*
X87997530Y-450591658D01*
X87781494Y-450807694D01*
X87527463Y-450977432D01*
X87245199Y-451094349D01*
X87095374Y-451124151D01*
X86945550Y-451153953D01*
X86640028Y-451153953D01*
X86490204Y-451124151D01*
X86340379Y-451094349D01*
X86058115Y-450977432D01*
X85804084Y-450807694D01*
X85588048Y-450591658D01*
X85418310Y-450337627D01*
X85301393Y-450055363D01*
X85241789Y-449755713D01*
X85241789Y-449450193D01*
X85301393Y-449150543D01*
X85418310Y-448868279D01*
X85588048Y-448614248D01*
X85804084Y-448398212D01*
X86058115Y-448228474D01*
X86340379Y-448111557D01*
X86490204Y-448081755D01*
X86640028Y-448051953D01*
X86945550Y-448051953D01*
X87095374Y-448081755D01*
X87095374Y-448081755D01*
G37*
G36*
X83485341Y-444536450D02*
G01*
X83734180Y-444585947D01*
X83844533Y-444631657D01*
X84202981Y-444780131D01*
X84624893Y-445062043D01*
X84983699Y-445420849D01*
X85265611Y-445842761D01*
X85377113Y-446111952D01*
X85459795Y-446311562D01*
X85491840Y-446472662D01*
X85558789Y-446809238D01*
X85558789Y-447316668D01*
X85459795Y-447814344D01*
X85402209Y-447953368D01*
X85265611Y-448283145D01*
X84983699Y-448705057D01*
X84624893Y-449063863D01*
X84202981Y-449345775D01*
X83950896Y-449450192D01*
X83734180Y-449539959D01*
X83502987Y-449585946D01*
X83236504Y-449638953D01*
X82729074Y-449638953D01*
X82462591Y-449585946D01*
X82231398Y-449539959D01*
X82014682Y-449450192D01*
X81762597Y-449345775D01*
X81340685Y-449063863D01*
X80981879Y-448705057D01*
X80699967Y-448283145D01*
X80563369Y-447953368D01*
X80505783Y-447814344D01*
X80406789Y-447316668D01*
X80406789Y-446809238D01*
X80473738Y-446472662D01*
X80505783Y-446311562D01*
X80588465Y-446111952D01*
X80699967Y-445842761D01*
X80981879Y-445420849D01*
X81340685Y-445062043D01*
X81762597Y-444780131D01*
X82121045Y-444631657D01*
X82231398Y-444585947D01*
X82480237Y-444536450D01*
X82729074Y-444486953D01*
X83236504Y-444486953D01*
X83485341Y-444536450D01*
X83485341Y-444536450D01*
G37*
G36*
X68911238Y-446136953D02*
G01*
X69085199Y-446171556D01*
X69367463Y-446288473D01*
X69621494Y-446458211D01*
X69837530Y-446674247D01*
X70007268Y-446928278D01*
X70124185Y-447210542D01*
X70148555Y-447333057D01*
X70183789Y-447510191D01*
X70183789Y-447815713D01*
X70156408Y-447953367D01*
X70124185Y-448115362D01*
X70007268Y-448397626D01*
X69837530Y-448651657D01*
X69621494Y-448867693D01*
X69367463Y-449037431D01*
X69085199Y-449154348D01*
X68935374Y-449184150D01*
X68785550Y-449213952D01*
X68480028Y-449213952D01*
X68330204Y-449184150D01*
X68180379Y-449154348D01*
X67898115Y-449037431D01*
X67644084Y-448867693D01*
X67428048Y-448651657D01*
X67258310Y-448397626D01*
X67141393Y-448115362D01*
X67109170Y-447953367D01*
X67081789Y-447815713D01*
X67081789Y-447510191D01*
X67117023Y-447333057D01*
X67141393Y-447210542D01*
X67258310Y-446928278D01*
X67428048Y-446674247D01*
X67644084Y-446458211D01*
X67898115Y-446288473D01*
X68180379Y-446171556D01*
X68354340Y-446136953D01*
X68480028Y-446111952D01*
X68785550Y-446111952D01*
X68911238Y-446136953D01*
X68911238Y-446136953D01*
G37*
G36*
X88332893Y-446172538D02*
G01*
X88501415Y-446242342D01*
X88653080Y-446343681D01*
X88782061Y-446472662D01*
X88883400Y-446624327D01*
X88953204Y-446792849D01*
X88988789Y-446971750D01*
X88988789Y-447154156D01*
X88953204Y-447333057D01*
X88883400Y-447501579D01*
X88782061Y-447653244D01*
X88653080Y-447782225D01*
X88501415Y-447883564D01*
X88332893Y-447953368D01*
X88153992Y-447988953D01*
X87971586Y-447988953D01*
X87792685Y-447953368D01*
X87624163Y-447883564D01*
X87472498Y-447782225D01*
X87343517Y-447653244D01*
X87242178Y-447501579D01*
X87172374Y-447333057D01*
X87136789Y-447154156D01*
X87136789Y-446971750D01*
X87172374Y-446792849D01*
X87242178Y-446624327D01*
X87343517Y-446472662D01*
X87472498Y-446343681D01*
X87624163Y-446242342D01*
X87792685Y-446172538D01*
X87971586Y-446136953D01*
X88153992Y-446136953D01*
X88332893Y-446172538D01*
X88332893Y-446172538D01*
G37*
G36*
X78172893Y-446172538D02*
G01*
X78341415Y-446242342D01*
X78493080Y-446343681D01*
X78622061Y-446472662D01*
X78723400Y-446624327D01*
X78793204Y-446792849D01*
X78828789Y-446971750D01*
X78828789Y-447154156D01*
X78793204Y-447333057D01*
X78723400Y-447501579D01*
X78622061Y-447653244D01*
X78493080Y-447782225D01*
X78341415Y-447883564D01*
X78172893Y-447953368D01*
X77993992Y-447988953D01*
X77811586Y-447988953D01*
X77632685Y-447953368D01*
X77464163Y-447883564D01*
X77312498Y-447782225D01*
X77183517Y-447653244D01*
X77082178Y-447501579D01*
X77012374Y-447333057D01*
X76976789Y-447154156D01*
X76976789Y-446971750D01*
X77012374Y-446792849D01*
X77082178Y-446624327D01*
X77183517Y-446472662D01*
X77312498Y-446343681D01*
X77464163Y-446242342D01*
X77632685Y-446172538D01*
X77811586Y-446136953D01*
X77993992Y-446136953D01*
X78172893Y-446172538D01*
X78172893Y-446172538D01*
G37*
G36*
X61635374Y-444791754D02*
G01*
X61785199Y-444821556D01*
X62067463Y-444938473D01*
X62321494Y-445108211D01*
X62537530Y-445324247D01*
X62707268Y-445578278D01*
X62824185Y-445860542D01*
X62824185Y-445860543D01*
X62883789Y-446160191D01*
X62883789Y-446465713D01*
X62853987Y-446615537D01*
X62824185Y-446765362D01*
X62707268Y-447047626D01*
X62537530Y-447301657D01*
X62321494Y-447517693D01*
X62067463Y-447687431D01*
X61785199Y-447804348D01*
X61728068Y-447815712D01*
X61485550Y-447863952D01*
X61180028Y-447863952D01*
X60937510Y-447815712D01*
X60880379Y-447804348D01*
X60598115Y-447687431D01*
X60344084Y-447517693D01*
X60128048Y-447301657D01*
X59958310Y-447047626D01*
X59841393Y-446765362D01*
X59811591Y-446615537D01*
X59781789Y-446465713D01*
X59781789Y-446160191D01*
X59841393Y-445860543D01*
X59841393Y-445860542D01*
X59958310Y-445578278D01*
X60128048Y-445324247D01*
X60344084Y-445108211D01*
X60598115Y-444938473D01*
X60880379Y-444821556D01*
X61030204Y-444791754D01*
X61180028Y-444761952D01*
X61485550Y-444761952D01*
X61635374Y-444791754D01*
X61635374Y-444791754D01*
G37*
G36*
X99795375Y-442121754D02*
G01*
X99945200Y-442151556D01*
X100227464Y-442268473D01*
X100481495Y-442438211D01*
X100697531Y-442654247D01*
X100867269Y-442908278D01*
X100984186Y-443190542D01*
X101043790Y-443490192D01*
X101043790Y-443795712D01*
X100984186Y-444095362D01*
X100867269Y-444377626D01*
X100697531Y-444631657D01*
X100481495Y-444847693D01*
X100227464Y-445017431D01*
X99945200Y-445134348D01*
X99795375Y-445164150D01*
X99645551Y-445193952D01*
X99340029Y-445193952D01*
X99190205Y-445164150D01*
X99040380Y-445134348D01*
X98758116Y-445017431D01*
X98504085Y-444847693D01*
X98288049Y-444631657D01*
X98118311Y-444377626D01*
X98001394Y-444095362D01*
X97941790Y-443795712D01*
X97941790Y-443490192D01*
X98001394Y-443190542D01*
X98118311Y-442908278D01*
X98288049Y-442654247D01*
X98504085Y-442438211D01*
X98758116Y-442268473D01*
X99040380Y-442151556D01*
X99190205Y-442121754D01*
X99340029Y-442091952D01*
X99645551Y-442091952D01*
X99795375Y-442121754D01*
X99795375Y-442121754D01*
G37*
G36*
X87971282Y-441138952D02*
G01*
X88135199Y-441171557D01*
X88417463Y-441288474D01*
X88671494Y-441458212D01*
X88887530Y-441674248D01*
X89057268Y-441928279D01*
X89174185Y-442210543D01*
X89174185Y-442210544D01*
X89233789Y-442510192D01*
X89233789Y-442815714D01*
X89215377Y-442908278D01*
X89174185Y-443115363D01*
X89057268Y-443397627D01*
X88887530Y-443651658D01*
X88671494Y-443867694D01*
X88417463Y-444037432D01*
X88135199Y-444154349D01*
X87985374Y-444184151D01*
X87835550Y-444213953D01*
X87530028Y-444213953D01*
X87380204Y-444184151D01*
X87230379Y-444154349D01*
X86948115Y-444037432D01*
X86694084Y-443867694D01*
X86478048Y-443651658D01*
X86308310Y-443397627D01*
X86191393Y-443115363D01*
X86150201Y-442908278D01*
X86131789Y-442815714D01*
X86131789Y-442510192D01*
X86191393Y-442210544D01*
X86191393Y-442210543D01*
X86308310Y-441928279D01*
X86478048Y-441674248D01*
X86694084Y-441458212D01*
X86948115Y-441288474D01*
X87230379Y-441171557D01*
X87394296Y-441138952D01*
X87530028Y-441111953D01*
X87835550Y-441111953D01*
X87971282Y-441138952D01*
X87971282Y-441138952D01*
G37*
G36*
X80642084Y-439783144D02*
G01*
X80835199Y-439821557D01*
X81117463Y-439938474D01*
X81371494Y-440108212D01*
X81587530Y-440324248D01*
X81757268Y-440578279D01*
X81874185Y-440860543D01*
X81874185Y-440860544D01*
X81924194Y-441111953D01*
X81933789Y-441160193D01*
X81933789Y-441465713D01*
X81874185Y-441765363D01*
X81757268Y-442047627D01*
X81587530Y-442301658D01*
X81371494Y-442517694D01*
X81117463Y-442687432D01*
X80835199Y-442804349D01*
X80778068Y-442815713D01*
X80535550Y-442863953D01*
X80230028Y-442863953D01*
X79987510Y-442815713D01*
X79930379Y-442804349D01*
X79648115Y-442687432D01*
X79394084Y-442517694D01*
X79178048Y-442301658D01*
X79008310Y-442047627D01*
X78891393Y-441765363D01*
X78831789Y-441465713D01*
X78831789Y-441160193D01*
X78841385Y-441111953D01*
X78891393Y-440860544D01*
X78891393Y-440860543D01*
X79008310Y-440578279D01*
X79178048Y-440324248D01*
X79394084Y-440108212D01*
X79648115Y-439938474D01*
X79930379Y-439821557D01*
X80123494Y-439783144D01*
X80230028Y-439761953D01*
X80535550Y-439761953D01*
X80642084Y-439783144D01*
X80642084Y-439783144D01*
G37*
G36*
X123942089Y-439783144D02*
G01*
X124135199Y-439821556D01*
X124417463Y-439938473D01*
X124671494Y-440108211D01*
X124887530Y-440324247D01*
X125057268Y-440578278D01*
X125174185Y-440860542D01*
X125174185Y-440860543D01*
X125233789Y-441160191D01*
X125233789Y-441465713D01*
X125215957Y-441555361D01*
X125174185Y-441765362D01*
X125057268Y-442047626D01*
X124887530Y-442301657D01*
X124671494Y-442517693D01*
X124417463Y-442687431D01*
X124135199Y-442804348D01*
X124078063Y-442815713D01*
X123835550Y-442863952D01*
X123530028Y-442863952D01*
X123287515Y-442815713D01*
X123230379Y-442804348D01*
X122948115Y-442687431D01*
X122694084Y-442517693D01*
X122478048Y-442301657D01*
X122308310Y-442047626D01*
X122191393Y-441765362D01*
X122149621Y-441555361D01*
X122131789Y-441465713D01*
X122131789Y-441160191D01*
X122191393Y-440860543D01*
X122191393Y-440860542D01*
X122308310Y-440578278D01*
X122478048Y-440324247D01*
X122694084Y-440108211D01*
X122948115Y-439938473D01*
X123230379Y-439821556D01*
X123423489Y-439783144D01*
X123530028Y-439761952D01*
X123835550Y-439761952D01*
X123942089Y-439783144D01*
X123942089Y-439783144D01*
G37*
G36*
X106145375Y-439581754D02*
G01*
X106295200Y-439611556D01*
X106577464Y-439728473D01*
X106831495Y-439898211D01*
X107047531Y-440114247D01*
X107217269Y-440368278D01*
X107334186Y-440650542D01*
X107393790Y-440950192D01*
X107393790Y-441255712D01*
X107334186Y-441555362D01*
X107217269Y-441837626D01*
X107047531Y-442091657D01*
X106831495Y-442307693D01*
X106577464Y-442477431D01*
X106295200Y-442594348D01*
X106145375Y-442624150D01*
X105995551Y-442653952D01*
X105690029Y-442653952D01*
X105540205Y-442624150D01*
X105390380Y-442594348D01*
X105108116Y-442477431D01*
X104854085Y-442307693D01*
X104638049Y-442091657D01*
X104468311Y-441837626D01*
X104351394Y-441555362D01*
X104291790Y-441255712D01*
X104291790Y-440950192D01*
X104351394Y-440650542D01*
X104468311Y-440368278D01*
X104638049Y-440114247D01*
X104854085Y-439898211D01*
X105108116Y-439728473D01*
X105390380Y-439611556D01*
X105540205Y-439581754D01*
X105690029Y-439551952D01*
X105995551Y-439551952D01*
X106145375Y-439581754D01*
X106145375Y-439581754D01*
G37*
G36*
X116685374Y-438441754D02*
G01*
X116835199Y-438471556D01*
X117117463Y-438588473D01*
X117371494Y-438758211D01*
X117587530Y-438974247D01*
X117757268Y-439228278D01*
X117850502Y-439453366D01*
X117874185Y-439510543D01*
X117924194Y-439761952D01*
X117933789Y-439810192D01*
X117933789Y-440115712D01*
X117874185Y-440415362D01*
X117757268Y-440697626D01*
X117587530Y-440951657D01*
X117371494Y-441167693D01*
X117117463Y-441337431D01*
X116835199Y-441454348D01*
X116778068Y-441465712D01*
X116535550Y-441513952D01*
X116230028Y-441513952D01*
X115987510Y-441465712D01*
X115930379Y-441454348D01*
X115648115Y-441337431D01*
X115394084Y-441167693D01*
X115178048Y-440951657D01*
X115008310Y-440697626D01*
X114891393Y-440415362D01*
X114831789Y-440115712D01*
X114831789Y-439810192D01*
X114841385Y-439761952D01*
X114891393Y-439510543D01*
X114915076Y-439453366D01*
X115008310Y-439228278D01*
X115178048Y-438974247D01*
X115394084Y-438758211D01*
X115648115Y-438588473D01*
X115930379Y-438471556D01*
X116080204Y-438441754D01*
X116230028Y-438411952D01*
X116535550Y-438411952D01*
X116685374Y-438441754D01*
X116685374Y-438441754D01*
G37*
G36*
X102784181Y-436085946D02*
G01*
X102978365Y-436166380D01*
X103252982Y-436280130D01*
X103674894Y-436562042D01*
X104033700Y-436920848D01*
X104315612Y-437342760D01*
X104407195Y-437563862D01*
X104509796Y-437811561D01*
X104608790Y-438309238D01*
X104608790Y-438816666D01*
X104509796Y-439314343D01*
X104452210Y-439453367D01*
X104315612Y-439783144D01*
X104033700Y-440205056D01*
X103674894Y-440563862D01*
X103252982Y-440845774D01*
X103000897Y-440950191D01*
X102784181Y-441039958D01*
X102535342Y-441089455D01*
X102286505Y-441138952D01*
X101779075Y-441138952D01*
X101530238Y-441089455D01*
X101281399Y-441039958D01*
X101064683Y-440950191D01*
X100812598Y-440845774D01*
X100390686Y-440563862D01*
X100031880Y-440205056D01*
X99749968Y-439783144D01*
X99613370Y-439453367D01*
X99555784Y-439314343D01*
X99456790Y-438816666D01*
X99456790Y-438309238D01*
X99555784Y-437811561D01*
X99658385Y-437563862D01*
X99749968Y-437342760D01*
X100031880Y-436920848D01*
X100390686Y-436562042D01*
X100812598Y-436280130D01*
X101087215Y-436166380D01*
X101281399Y-436085946D01*
X101779075Y-435986952D01*
X102286505Y-435986952D01*
X102784181Y-436085946D01*
X102784181Y-436085946D01*
G37*
G36*
X107382894Y-437672537D02*
G01*
X107551416Y-437742341D01*
X107703081Y-437843680D01*
X107832062Y-437972661D01*
X107933401Y-438124326D01*
X108003205Y-438292848D01*
X108038790Y-438471749D01*
X108038790Y-438654155D01*
X108003205Y-438833056D01*
X107933401Y-439001578D01*
X107832062Y-439153243D01*
X107703081Y-439282224D01*
X107551416Y-439383563D01*
X107382894Y-439453367D01*
X107203993Y-439488952D01*
X107021587Y-439488952D01*
X106842686Y-439453367D01*
X106674164Y-439383563D01*
X106522499Y-439282224D01*
X106393518Y-439153243D01*
X106292179Y-439001578D01*
X106222375Y-438833056D01*
X106186790Y-438654155D01*
X106186790Y-438471749D01*
X106222375Y-438292848D01*
X106292179Y-438124326D01*
X106393518Y-437972661D01*
X106522499Y-437843680D01*
X106674164Y-437742341D01*
X106842686Y-437672537D01*
X107021587Y-437636952D01*
X107203993Y-437636952D01*
X107382894Y-437672537D01*
X107382894Y-437672537D01*
G37*
G36*
X97222894Y-437672537D02*
G01*
X97391416Y-437742341D01*
X97543081Y-437843680D01*
X97672062Y-437972661D01*
X97773401Y-438124326D01*
X97843205Y-438292848D01*
X97878790Y-438471749D01*
X97878790Y-438654155D01*
X97843205Y-438833056D01*
X97773401Y-439001578D01*
X97672062Y-439153243D01*
X97543081Y-439282224D01*
X97391416Y-439383563D01*
X97222894Y-439453367D01*
X97043993Y-439488952D01*
X96861587Y-439488952D01*
X96682686Y-439453367D01*
X96514164Y-439383563D01*
X96362499Y-439282224D01*
X96233518Y-439153243D01*
X96132179Y-439001578D01*
X96062375Y-438833056D01*
X96026790Y-438654155D01*
X96026790Y-438471749D01*
X96062375Y-438292848D01*
X96132179Y-438124326D01*
X96233518Y-437972661D01*
X96362499Y-437843680D01*
X96514164Y-437742341D01*
X96682686Y-437672537D01*
X96861587Y-437636952D01*
X97043993Y-437636952D01*
X97222894Y-437672537D01*
X97222894Y-437672537D01*
G37*
G36*
X121834180Y-433085946D02*
G01*
X122028364Y-433166380D01*
X122302981Y-433280130D01*
X122724893Y-433562042D01*
X123083699Y-433920848D01*
X123365611Y-434342760D01*
X123388256Y-434397431D01*
X123559795Y-434811561D01*
X123658789Y-435309238D01*
X123658789Y-435816666D01*
X123559795Y-436314343D01*
X123502209Y-436453367D01*
X123365611Y-436783144D01*
X123083699Y-437205056D01*
X122724893Y-437563862D01*
X122302981Y-437845774D01*
X122028364Y-437959524D01*
X121834180Y-438039958D01*
X121585341Y-438089455D01*
X121336504Y-438138952D01*
X120829074Y-438138952D01*
X120580237Y-438089455D01*
X120331398Y-438039958D01*
X120137214Y-437959524D01*
X119862597Y-437845774D01*
X119440685Y-437563862D01*
X119081879Y-437205056D01*
X118799967Y-436783144D01*
X118663369Y-436453367D01*
X118605783Y-436314343D01*
X118506789Y-435816666D01*
X118506789Y-435309238D01*
X118605783Y-434811561D01*
X118777322Y-434397431D01*
X118799967Y-434342760D01*
X119081879Y-433920848D01*
X119440685Y-433562042D01*
X119862597Y-433280130D01*
X120137214Y-433166380D01*
X120331398Y-433085946D01*
X120829074Y-432986952D01*
X121336504Y-432986952D01*
X121834180Y-433085946D01*
X121834180Y-433085946D01*
G37*
G36*
X126432893Y-434672537D02*
G01*
X126601415Y-434742341D01*
X126753080Y-434843680D01*
X126882061Y-434972661D01*
X126983400Y-435124326D01*
X127053204Y-435292848D01*
X127088789Y-435471749D01*
X127088789Y-435654155D01*
X127053204Y-435833056D01*
X126983400Y-436001578D01*
X126882061Y-436153243D01*
X126753080Y-436282224D01*
X126601415Y-436383563D01*
X126432893Y-436453367D01*
X126253992Y-436488952D01*
X126071586Y-436488952D01*
X125892685Y-436453367D01*
X125724163Y-436383563D01*
X125572498Y-436282224D01*
X125443517Y-436153243D01*
X125342178Y-436001578D01*
X125272374Y-435833056D01*
X125236789Y-435654155D01*
X125236789Y-435471749D01*
X125272374Y-435292848D01*
X125342178Y-435124326D01*
X125443517Y-434972661D01*
X125572498Y-434843680D01*
X125724163Y-434742341D01*
X125892685Y-434672537D01*
X126071586Y-434636952D01*
X126253992Y-434636952D01*
X126432893Y-434672537D01*
X126432893Y-434672537D01*
G37*
G36*
X116272893Y-434672537D02*
G01*
X116441415Y-434742341D01*
X116593080Y-434843680D01*
X116722061Y-434972661D01*
X116823400Y-435124326D01*
X116893204Y-435292848D01*
X116928789Y-435471749D01*
X116928789Y-435654155D01*
X116893204Y-435833056D01*
X116823400Y-436001578D01*
X116722061Y-436153243D01*
X116593080Y-436282224D01*
X116441415Y-436383563D01*
X116272893Y-436453367D01*
X116093992Y-436488952D01*
X115911586Y-436488952D01*
X115732685Y-436453367D01*
X115564163Y-436383563D01*
X115412498Y-436282224D01*
X115283517Y-436153243D01*
X115182178Y-436001578D01*
X115112374Y-435833056D01*
X115076789Y-435654155D01*
X115076789Y-435471749D01*
X115112374Y-435292848D01*
X115182178Y-435124326D01*
X115283517Y-434972661D01*
X115412498Y-434843680D01*
X115564163Y-434742341D01*
X115732685Y-434672537D01*
X115911586Y-434636952D01*
X116093992Y-434636952D01*
X116272893Y-434672537D01*
X116272893Y-434672537D01*
G37*
G36*
X107035375Y-432641754D02*
G01*
X107185200Y-432671556D01*
X107467464Y-432788473D01*
X107721495Y-432958211D01*
X107937531Y-433174247D01*
X108107269Y-433428278D01*
X108224186Y-433710542D01*
X108242310Y-433801656D01*
X108283790Y-434010191D01*
X108283790Y-434315713D01*
X108267535Y-434397431D01*
X108224186Y-434615362D01*
X108107269Y-434897626D01*
X107937531Y-435151657D01*
X107721495Y-435367693D01*
X107467464Y-435537431D01*
X107185200Y-435654348D01*
X107035375Y-435684150D01*
X106885551Y-435713952D01*
X106580029Y-435713952D01*
X106430205Y-435684150D01*
X106280380Y-435654348D01*
X105998116Y-435537431D01*
X105744085Y-435367693D01*
X105528049Y-435151657D01*
X105358311Y-434897626D01*
X105241394Y-434615362D01*
X105198045Y-434397431D01*
X105181790Y-434315713D01*
X105181790Y-434010191D01*
X105223270Y-433801656D01*
X105241394Y-433710542D01*
X105358311Y-433428278D01*
X105528049Y-433174247D01*
X105744085Y-432958211D01*
X105998116Y-432788473D01*
X106280380Y-432671556D01*
X106430205Y-432641754D01*
X106580029Y-432611952D01*
X106885551Y-432611952D01*
X107035375Y-432641754D01*
X107035375Y-432641754D01*
G37*
G36*
X117575374Y-431501754D02*
G01*
X117725199Y-431531556D01*
X118007463Y-431648473D01*
X118261494Y-431818211D01*
X118477530Y-432034247D01*
X118647268Y-432288278D01*
X118764185Y-432570542D01*
X118823789Y-432870192D01*
X118823789Y-433175712D01*
X118764185Y-433475362D01*
X118647268Y-433757626D01*
X118477530Y-434011657D01*
X118261494Y-434227693D01*
X118007463Y-434397431D01*
X117725199Y-434514348D01*
X117575374Y-434544150D01*
X117425550Y-434573952D01*
X117120028Y-434573952D01*
X116970204Y-434544150D01*
X116820379Y-434514348D01*
X116538115Y-434397431D01*
X116284084Y-434227693D01*
X116068048Y-434011657D01*
X115898310Y-433757626D01*
X115781393Y-433475362D01*
X115721789Y-433175712D01*
X115721789Y-432870192D01*
X115781393Y-432570542D01*
X115898310Y-432288278D01*
X116068048Y-432034247D01*
X116284084Y-431818211D01*
X116538115Y-431648473D01*
X116820379Y-431531556D01*
X116970204Y-431501754D01*
X117120028Y-431471952D01*
X117425550Y-431471952D01*
X117575374Y-431501754D01*
X117575374Y-431501754D01*
G37*
G36*
X99735375Y-431291754D02*
G01*
X99885200Y-431321556D01*
X100167464Y-431438473D01*
X100421495Y-431608211D01*
X100637531Y-431824247D01*
X100807269Y-432078278D01*
X100894253Y-432288278D01*
X100924186Y-432360543D01*
X100974195Y-432611952D01*
X100983790Y-432660192D01*
X100983790Y-432965712D01*
X100924186Y-433265362D01*
X100807269Y-433547626D01*
X100637531Y-433801657D01*
X100421495Y-434017693D01*
X100167464Y-434187431D01*
X99885200Y-434304348D01*
X99828069Y-434315712D01*
X99585551Y-434363952D01*
X99280029Y-434363952D01*
X99037511Y-434315712D01*
X98980380Y-434304348D01*
X98698116Y-434187431D01*
X98444085Y-434017693D01*
X98228049Y-433801657D01*
X98058311Y-433547626D01*
X97941394Y-433265362D01*
X97881790Y-432965712D01*
X97881790Y-432660192D01*
X97891386Y-432611952D01*
X97941394Y-432360543D01*
X97971327Y-432288278D01*
X98058311Y-432078278D01*
X98228049Y-431824247D01*
X98444085Y-431608211D01*
X98698116Y-431438473D01*
X98980380Y-431321556D01*
X99130205Y-431291754D01*
X99280029Y-431261952D01*
X99585551Y-431261952D01*
X99735375Y-431291754D01*
X99735375Y-431291754D01*
G37*
G36*
X123835581Y-428943893D02*
G01*
X124075199Y-428991556D01*
X124357463Y-429108473D01*
X124611494Y-429278211D01*
X124827530Y-429494247D01*
X124997268Y-429748278D01*
X125114185Y-430030542D01*
X125173789Y-430330192D01*
X125173789Y-430635712D01*
X125114185Y-430935362D01*
X124997268Y-431217626D01*
X124827530Y-431471657D01*
X124611494Y-431687693D01*
X124357463Y-431857431D01*
X124075199Y-431974348D01*
X123925374Y-432004150D01*
X123775550Y-432033952D01*
X123470028Y-432033952D01*
X123320204Y-432004150D01*
X123170379Y-431974348D01*
X122888115Y-431857431D01*
X122634084Y-431687693D01*
X122418048Y-431471657D01*
X122248310Y-431217626D01*
X122131393Y-430935362D01*
X122071789Y-430635712D01*
X122071789Y-430330192D01*
X122131393Y-430030542D01*
X122248310Y-429748278D01*
X122418048Y-429494247D01*
X122634084Y-429278211D01*
X122888115Y-429108473D01*
X123170379Y-428991556D01*
X123409997Y-428943893D01*
X123470028Y-428931952D01*
X123775550Y-428931952D01*
X123835581Y-428943893D01*
X123835581Y-428943893D01*
G37*
G36*
X129841599Y-430745893D02*
G01*
X128039599Y-430745893D01*
X128039599Y-428943893D01*
X129841599Y-428943893D01*
X129841599Y-430745893D01*
X129841599Y-430745893D01*
G37*
G36*
X106897974Y-429921972D02*
G01*
X105095974Y-429921972D01*
X105095974Y-428119972D01*
X106897974Y-428119972D01*
X106897974Y-429921972D01*
X106897974Y-429921972D01*
G37*
G36*
X103567417Y-428126491D02*
G01*
X103633601Y-428133009D01*
X103803440Y-428184529D01*
X103959965Y-428268194D01*
X103995703Y-428297524D01*
X104097160Y-428380786D01*
X104180422Y-428482243D01*
X104209752Y-428517981D01*
X104293417Y-428674506D01*
X104344937Y-428844345D01*
X104362333Y-429020972D01*
X104344937Y-429197599D01*
X104293417Y-429367438D01*
X104209752Y-429523963D01*
X104180422Y-429559701D01*
X104097160Y-429661158D01*
X103995703Y-429744420D01*
X103959965Y-429773750D01*
X103803440Y-429857415D01*
X103633601Y-429908935D01*
X103567417Y-429915453D01*
X103501234Y-429921972D01*
X103412714Y-429921972D01*
X103346531Y-429915453D01*
X103280347Y-429908935D01*
X103110508Y-429857415D01*
X102953983Y-429773750D01*
X102918245Y-429744420D01*
X102816788Y-429661158D01*
X102733526Y-429559701D01*
X102704196Y-429523963D01*
X102620531Y-429367438D01*
X102569011Y-429197599D01*
X102551615Y-429020972D01*
X102569011Y-428844345D01*
X102620531Y-428674506D01*
X102704196Y-428517981D01*
X102733526Y-428482243D01*
X102816788Y-428380786D01*
X102918245Y-428297524D01*
X102953983Y-428268194D01*
X103110508Y-428184529D01*
X103280347Y-428133009D01*
X103346531Y-428126491D01*
X103412714Y-428119972D01*
X103501234Y-428119972D01*
X103567417Y-428126491D01*
X103567417Y-428126491D01*
G37*
G36*
X101027417Y-428126491D02*
G01*
X101093601Y-428133009D01*
X101263440Y-428184529D01*
X101419965Y-428268194D01*
X101455703Y-428297524D01*
X101557160Y-428380786D01*
X101640422Y-428482243D01*
X101669752Y-428517981D01*
X101753417Y-428674506D01*
X101804937Y-428844345D01*
X101822333Y-429020972D01*
X101804937Y-429197599D01*
X101753417Y-429367438D01*
X101669752Y-429523963D01*
X101640422Y-429559701D01*
X101557160Y-429661158D01*
X101455703Y-429744420D01*
X101419965Y-429773750D01*
X101263440Y-429857415D01*
X101093601Y-429908935D01*
X101027417Y-429915453D01*
X100961234Y-429921972D01*
X100872714Y-429921972D01*
X100806531Y-429915453D01*
X100740347Y-429908935D01*
X100570508Y-429857415D01*
X100413983Y-429773750D01*
X100378245Y-429744420D01*
X100276788Y-429661158D01*
X100193526Y-429559701D01*
X100164196Y-429523963D01*
X100080531Y-429367438D01*
X100029011Y-429197599D01*
X100011615Y-429020972D01*
X100029011Y-428844345D01*
X100080531Y-428674506D01*
X100164196Y-428517981D01*
X100193526Y-428482243D01*
X100276788Y-428380786D01*
X100378245Y-428297524D01*
X100413983Y-428268194D01*
X100570508Y-428184529D01*
X100740347Y-428133009D01*
X100806531Y-428126491D01*
X100872714Y-428119972D01*
X100961234Y-428119972D01*
X101027417Y-428126491D01*
X101027417Y-428126491D01*
G37*
G36*
X98487417Y-428126491D02*
G01*
X98553601Y-428133009D01*
X98723440Y-428184529D01*
X98879965Y-428268194D01*
X98915703Y-428297524D01*
X99017160Y-428380786D01*
X99100422Y-428482243D01*
X99129752Y-428517981D01*
X99213417Y-428674506D01*
X99264937Y-428844345D01*
X99282333Y-429020972D01*
X99264937Y-429197599D01*
X99213417Y-429367438D01*
X99129752Y-429523963D01*
X99100422Y-429559701D01*
X99017160Y-429661158D01*
X98915703Y-429744420D01*
X98879965Y-429773750D01*
X98723440Y-429857415D01*
X98553601Y-429908935D01*
X98487417Y-429915453D01*
X98421234Y-429921972D01*
X98332714Y-429921972D01*
X98266531Y-429915453D01*
X98200347Y-429908935D01*
X98030508Y-429857415D01*
X97873983Y-429773750D01*
X97838245Y-429744420D01*
X97736788Y-429661158D01*
X97653526Y-429559701D01*
X97624196Y-429523963D01*
X97540531Y-429367438D01*
X97489011Y-429197599D01*
X97471615Y-429020972D01*
X97489011Y-428844345D01*
X97540531Y-428674506D01*
X97624196Y-428517981D01*
X97653526Y-428482243D01*
X97736788Y-428380786D01*
X97838245Y-428297524D01*
X97873983Y-428268194D01*
X98030508Y-428184529D01*
X98200347Y-428133009D01*
X98266531Y-428126491D01*
X98332714Y-428119972D01*
X98421234Y-428119972D01*
X98487417Y-428126491D01*
X98487417Y-428126491D01*
G37*
G36*
X129051041Y-426410411D02*
G01*
X129117226Y-426416930D01*
X129287065Y-426468450D01*
X129443590Y-426552115D01*
X129479328Y-426581445D01*
X129580785Y-426664707D01*
X129664047Y-426766164D01*
X129693377Y-426801902D01*
X129777042Y-426958427D01*
X129828562Y-427128266D01*
X129845958Y-427304893D01*
X129828562Y-427481520D01*
X129777042Y-427651359D01*
X129693377Y-427807884D01*
X129664047Y-427843622D01*
X129580785Y-427945079D01*
X129479328Y-428028341D01*
X129443590Y-428057671D01*
X129287065Y-428141336D01*
X129117226Y-428192856D01*
X129051041Y-428199375D01*
X128984859Y-428205893D01*
X128896339Y-428205893D01*
X128830157Y-428199375D01*
X128763972Y-428192856D01*
X128594133Y-428141336D01*
X128437608Y-428057671D01*
X128401870Y-428028341D01*
X128300413Y-427945079D01*
X128217151Y-427843622D01*
X128187821Y-427807884D01*
X128104156Y-427651359D01*
X128052636Y-427481520D01*
X128035240Y-427304893D01*
X128052636Y-427128266D01*
X128104156Y-426958427D01*
X128187821Y-426801902D01*
X128217151Y-426766164D01*
X128300413Y-426664707D01*
X128401870Y-426581445D01*
X128437608Y-426552115D01*
X128594133Y-426468450D01*
X128763972Y-426416930D01*
X128830157Y-426410411D01*
X128896339Y-426403893D01*
X128984859Y-426403893D01*
X129051041Y-426410411D01*
X129051041Y-426410411D01*
G37*
G36*
X99742994Y-423061335D02*
G01*
X99945199Y-423101556D01*
X100227463Y-423218473D01*
X100481494Y-423388211D01*
X100697530Y-423604247D01*
X100867268Y-423858278D01*
X100984185Y-424140542D01*
X101043789Y-424440192D01*
X101043789Y-424745712D01*
X100984185Y-425045362D01*
X100867268Y-425327626D01*
X100697530Y-425581657D01*
X100481494Y-425797693D01*
X100227463Y-425967431D01*
X99945199Y-426084348D01*
X99795374Y-426114150D01*
X99645550Y-426143952D01*
X99340028Y-426143952D01*
X99190204Y-426114150D01*
X99040379Y-426084348D01*
X98758115Y-425967431D01*
X98504084Y-425797693D01*
X98288048Y-425581657D01*
X98118310Y-425327626D01*
X98001393Y-425045362D01*
X97941789Y-424745712D01*
X97941789Y-424440192D01*
X98001393Y-424140542D01*
X98118310Y-423858278D01*
X98288048Y-423604247D01*
X98504084Y-423388211D01*
X98758115Y-423218473D01*
X99040379Y-423101556D01*
X99242584Y-423061335D01*
X99340028Y-423041952D01*
X99645550Y-423041952D01*
X99742994Y-423061335D01*
X99742994Y-423061335D01*
G37*
G36*
X129051042Y-423870412D02*
G01*
X129117226Y-423876930D01*
X129287065Y-423928450D01*
X129443590Y-424012115D01*
X129479328Y-424041445D01*
X129580785Y-424124707D01*
X129664047Y-424226164D01*
X129693377Y-424261902D01*
X129777042Y-424418427D01*
X129828562Y-424588266D01*
X129845958Y-424764893D01*
X129828562Y-424941520D01*
X129777042Y-425111359D01*
X129693377Y-425267884D01*
X129664047Y-425303622D01*
X129580785Y-425405079D01*
X129479328Y-425488341D01*
X129443590Y-425517671D01*
X129287065Y-425601336D01*
X129117226Y-425652856D01*
X129051042Y-425659374D01*
X128984859Y-425665893D01*
X128896339Y-425665893D01*
X128830156Y-425659374D01*
X128763972Y-425652856D01*
X128594133Y-425601336D01*
X128437608Y-425517671D01*
X128401870Y-425488341D01*
X128300413Y-425405079D01*
X128217151Y-425303622D01*
X128187821Y-425267884D01*
X128104156Y-425111359D01*
X128052636Y-424941520D01*
X128035240Y-424764893D01*
X128052636Y-424588266D01*
X128104156Y-424418427D01*
X128187821Y-424261902D01*
X128217151Y-424226164D01*
X128300413Y-424124707D01*
X128401870Y-424041445D01*
X128437608Y-424012115D01*
X128594133Y-423928450D01*
X128763972Y-423876930D01*
X128830156Y-423870412D01*
X128896339Y-423863893D01*
X128984859Y-423863893D01*
X129051042Y-423870412D01*
X129051042Y-423870412D01*
G37*
G36*
X123942089Y-420733144D02*
G01*
X124135199Y-420771556D01*
X124417463Y-420888473D01*
X124671494Y-421058211D01*
X124887530Y-421274247D01*
X125057268Y-421528278D01*
X125174185Y-421810542D01*
X125174185Y-421810543D01*
X125233789Y-422110191D01*
X125233789Y-422415713D01*
X125215957Y-422505361D01*
X125174185Y-422715362D01*
X125057268Y-422997626D01*
X124887530Y-423251657D01*
X124671494Y-423467693D01*
X124417463Y-423637431D01*
X124135199Y-423754348D01*
X123985374Y-423784150D01*
X123835550Y-423813952D01*
X123530028Y-423813952D01*
X123380204Y-423784150D01*
X123230379Y-423754348D01*
X122948115Y-423637431D01*
X122694084Y-423467693D01*
X122478048Y-423251657D01*
X122308310Y-422997626D01*
X122191393Y-422715362D01*
X122149621Y-422505361D01*
X122131789Y-422415713D01*
X122131789Y-422110191D01*
X122191393Y-421810543D01*
X122191393Y-421810542D01*
X122308310Y-421528278D01*
X122478048Y-421274247D01*
X122694084Y-421058211D01*
X122948115Y-420888473D01*
X123230379Y-420771556D01*
X123423489Y-420733144D01*
X123530028Y-420711952D01*
X123835550Y-420711952D01*
X123942089Y-420733144D01*
X123942089Y-420733144D01*
G37*
G36*
X106145374Y-420531754D02*
G01*
X106295199Y-420561556D01*
X106577463Y-420678473D01*
X106831494Y-420848211D01*
X107047530Y-421064247D01*
X107217268Y-421318278D01*
X107334185Y-421600542D01*
X107393789Y-421900192D01*
X107393789Y-422205712D01*
X107334185Y-422505362D01*
X107217268Y-422787626D01*
X107047530Y-423041657D01*
X106831494Y-423257693D01*
X106577463Y-423427431D01*
X106295199Y-423544348D01*
X106145374Y-423574150D01*
X105995550Y-423603952D01*
X105690028Y-423603952D01*
X105540204Y-423574150D01*
X105390379Y-423544348D01*
X105108115Y-423427431D01*
X104854084Y-423257693D01*
X104638048Y-423041657D01*
X104468310Y-422787626D01*
X104351393Y-422505362D01*
X104291789Y-422205712D01*
X104291789Y-421900192D01*
X104351393Y-421600542D01*
X104468310Y-421318278D01*
X104638048Y-421064247D01*
X104854084Y-420848211D01*
X105108115Y-420678473D01*
X105390379Y-420561556D01*
X105540204Y-420531754D01*
X105690028Y-420501952D01*
X105995550Y-420501952D01*
X106145374Y-420531754D01*
X106145374Y-420531754D01*
G37*
G36*
X129051042Y-421330412D02*
G01*
X129117226Y-421336930D01*
X129287065Y-421388450D01*
X129443590Y-421472115D01*
X129479328Y-421501445D01*
X129580785Y-421584707D01*
X129664047Y-421686164D01*
X129693377Y-421721902D01*
X129777042Y-421878427D01*
X129828562Y-422048266D01*
X129845958Y-422224893D01*
X129828562Y-422401520D01*
X129777042Y-422571359D01*
X129693377Y-422727884D01*
X129664047Y-422763622D01*
X129580785Y-422865079D01*
X129479328Y-422948341D01*
X129443590Y-422977671D01*
X129287065Y-423061336D01*
X129117226Y-423112856D01*
X129051042Y-423119374D01*
X128984859Y-423125893D01*
X128896339Y-423125893D01*
X128830156Y-423119374D01*
X128763972Y-423112856D01*
X128594133Y-423061336D01*
X128437608Y-422977671D01*
X128401870Y-422948341D01*
X128300413Y-422865079D01*
X128217151Y-422763622D01*
X128187821Y-422727884D01*
X128104156Y-422571359D01*
X128052636Y-422401520D01*
X128035240Y-422224893D01*
X128052636Y-422048266D01*
X128104156Y-421878427D01*
X128187821Y-421721902D01*
X128217151Y-421686164D01*
X128300413Y-421584707D01*
X128401870Y-421501445D01*
X128437608Y-421472115D01*
X128594133Y-421388450D01*
X128763972Y-421336930D01*
X128830156Y-421330412D01*
X128896339Y-421323893D01*
X128984859Y-421323893D01*
X129051042Y-421330412D01*
X129051042Y-421330412D01*
G37*
G36*
X116685374Y-419391754D02*
G01*
X116835199Y-419421556D01*
X117117463Y-419538473D01*
X117371494Y-419708211D01*
X117587530Y-419924247D01*
X117757268Y-420178278D01*
X117850502Y-420403366D01*
X117874185Y-420460543D01*
X117924194Y-420711952D01*
X117933789Y-420760192D01*
X117933789Y-421065712D01*
X117874185Y-421365362D01*
X117757268Y-421647626D01*
X117587530Y-421901657D01*
X117371494Y-422117693D01*
X117117463Y-422287431D01*
X116835199Y-422404348D01*
X116778068Y-422415712D01*
X116535550Y-422463952D01*
X116230028Y-422463952D01*
X115987510Y-422415712D01*
X115930379Y-422404348D01*
X115648115Y-422287431D01*
X115394084Y-422117693D01*
X115178048Y-421901657D01*
X115008310Y-421647626D01*
X114891393Y-421365362D01*
X114831789Y-421065712D01*
X114831789Y-420760192D01*
X114841385Y-420711952D01*
X114891393Y-420460543D01*
X114915076Y-420403366D01*
X115008310Y-420178278D01*
X115178048Y-419924247D01*
X115394084Y-419708211D01*
X115648115Y-419538473D01*
X115930379Y-419421556D01*
X116080204Y-419391754D01*
X116230028Y-419361952D01*
X116535550Y-419361952D01*
X116685374Y-419391754D01*
X116685374Y-419391754D01*
G37*
G36*
X102784180Y-417035946D02*
G01*
X102978364Y-417116380D01*
X103252981Y-417230130D01*
X103674893Y-417512042D01*
X104033699Y-417870848D01*
X104315611Y-418292760D01*
X104407194Y-418513862D01*
X104509795Y-418761561D01*
X104608789Y-419259238D01*
X104608789Y-419766666D01*
X104509795Y-420264343D01*
X104452209Y-420403367D01*
X104315611Y-420733144D01*
X104033699Y-421155056D01*
X103674893Y-421513862D01*
X103252981Y-421795774D01*
X103000896Y-421900191D01*
X102784180Y-421989958D01*
X102286504Y-422088952D01*
X101779074Y-422088952D01*
X101281398Y-421989958D01*
X101064682Y-421900191D01*
X100812597Y-421795774D01*
X100390685Y-421513862D01*
X100031879Y-421155056D01*
X99749967Y-420733144D01*
X99613369Y-420403367D01*
X99555783Y-420264343D01*
X99456789Y-419766666D01*
X99456789Y-419259238D01*
X99555783Y-418761561D01*
X99658384Y-418513862D01*
X99749967Y-418292760D01*
X100031879Y-417870848D01*
X100390685Y-417512042D01*
X100812597Y-417230130D01*
X101087214Y-417116380D01*
X101281398Y-417035946D01*
X101530237Y-416986449D01*
X101779074Y-416936952D01*
X102286504Y-416936952D01*
X102784180Y-417035946D01*
X102784180Y-417035946D01*
G37*
G36*
X107382893Y-418622537D02*
G01*
X107551415Y-418692341D01*
X107703080Y-418793680D01*
X107832061Y-418922661D01*
X107933400Y-419074326D01*
X108003204Y-419242848D01*
X108038789Y-419421749D01*
X108038789Y-419604155D01*
X108003204Y-419783056D01*
X107933400Y-419951578D01*
X107832061Y-420103243D01*
X107703080Y-420232224D01*
X107551415Y-420333563D01*
X107382893Y-420403367D01*
X107203992Y-420438952D01*
X107021586Y-420438952D01*
X106842685Y-420403367D01*
X106674163Y-420333563D01*
X106522498Y-420232224D01*
X106393517Y-420103243D01*
X106292178Y-419951578D01*
X106222374Y-419783056D01*
X106186789Y-419604155D01*
X106186789Y-419421749D01*
X106222374Y-419242848D01*
X106292178Y-419074326D01*
X106393517Y-418922661D01*
X106522498Y-418793680D01*
X106674163Y-418692341D01*
X106842685Y-418622537D01*
X107021586Y-418586952D01*
X107203992Y-418586952D01*
X107382893Y-418622537D01*
X107382893Y-418622537D01*
G37*
G36*
X97222893Y-418622537D02*
G01*
X97391415Y-418692341D01*
X97543080Y-418793680D01*
X97672061Y-418922661D01*
X97773400Y-419074326D01*
X97843204Y-419242848D01*
X97878789Y-419421749D01*
X97878789Y-419604155D01*
X97843204Y-419783056D01*
X97773400Y-419951578D01*
X97672061Y-420103243D01*
X97543080Y-420232224D01*
X97391415Y-420333563D01*
X97222893Y-420403367D01*
X97043992Y-420438952D01*
X96861586Y-420438952D01*
X96682685Y-420403367D01*
X96514163Y-420333563D01*
X96362498Y-420232224D01*
X96233517Y-420103243D01*
X96132178Y-419951578D01*
X96062374Y-419783056D01*
X96026789Y-419604155D01*
X96026789Y-419421749D01*
X96062374Y-419242848D01*
X96132178Y-419074326D01*
X96233517Y-418922661D01*
X96362498Y-418793680D01*
X96514163Y-418692341D01*
X96682685Y-418622537D01*
X96861586Y-418586952D01*
X97043992Y-418586952D01*
X97222893Y-418622537D01*
X97222893Y-418622537D01*
G37*
G36*
X121834180Y-414035946D02*
G01*
X122028364Y-414116380D01*
X122302981Y-414230130D01*
X122724893Y-414512042D01*
X123083699Y-414870848D01*
X123365611Y-415292760D01*
X123388256Y-415347431D01*
X123559795Y-415761561D01*
X123658789Y-416259238D01*
X123658789Y-416766666D01*
X123559795Y-417264343D01*
X123502209Y-417403367D01*
X123365611Y-417733144D01*
X123083699Y-418155056D01*
X122724893Y-418513862D01*
X122302981Y-418795774D01*
X122028364Y-418909524D01*
X121834180Y-418989958D01*
X121585341Y-419039455D01*
X121336504Y-419088952D01*
X120829074Y-419088952D01*
X120580237Y-419039455D01*
X120331398Y-418989958D01*
X120137214Y-418909524D01*
X119862597Y-418795774D01*
X119440685Y-418513862D01*
X119081879Y-418155056D01*
X118799967Y-417733144D01*
X118663369Y-417403367D01*
X118605783Y-417264343D01*
X118506789Y-416766666D01*
X118506789Y-416259238D01*
X118605783Y-415761561D01*
X118777322Y-415347431D01*
X118799967Y-415292760D01*
X119081879Y-414870848D01*
X119440685Y-414512042D01*
X119862597Y-414230130D01*
X120137214Y-414116380D01*
X120331398Y-414035946D01*
X120829074Y-413936952D01*
X121336504Y-413936952D01*
X121834180Y-414035946D01*
X121834180Y-414035946D01*
G37*
G36*
X126432893Y-415622537D02*
G01*
X126601415Y-415692341D01*
X126753080Y-415793680D01*
X126882061Y-415922661D01*
X126983400Y-416074326D01*
X127053204Y-416242848D01*
X127088789Y-416421749D01*
X127088789Y-416604155D01*
X127053204Y-416783056D01*
X126983400Y-416951578D01*
X126882061Y-417103243D01*
X126753080Y-417232224D01*
X126601415Y-417333563D01*
X126432893Y-417403367D01*
X126253992Y-417438952D01*
X126071586Y-417438952D01*
X125892685Y-417403367D01*
X125724163Y-417333563D01*
X125572498Y-417232224D01*
X125443517Y-417103243D01*
X125342178Y-416951578D01*
X125272374Y-416783056D01*
X125236789Y-416604155D01*
X125236789Y-416421749D01*
X125272374Y-416242848D01*
X125342178Y-416074326D01*
X125443517Y-415922661D01*
X125572498Y-415793680D01*
X125724163Y-415692341D01*
X125892685Y-415622537D01*
X126071586Y-415586952D01*
X126253992Y-415586952D01*
X126432893Y-415622537D01*
X126432893Y-415622537D01*
G37*
G36*
X116272893Y-415622537D02*
G01*
X116441415Y-415692341D01*
X116593080Y-415793680D01*
X116722061Y-415922661D01*
X116823400Y-416074326D01*
X116893204Y-416242848D01*
X116928789Y-416421749D01*
X116928789Y-416604155D01*
X116893204Y-416783056D01*
X116823400Y-416951578D01*
X116722061Y-417103243D01*
X116593080Y-417232224D01*
X116441415Y-417333563D01*
X116272893Y-417403367D01*
X116093992Y-417438952D01*
X115911586Y-417438952D01*
X115732685Y-417403367D01*
X115564163Y-417333563D01*
X115412498Y-417232224D01*
X115283517Y-417103243D01*
X115182178Y-416951578D01*
X115112374Y-416783056D01*
X115076789Y-416604155D01*
X115076789Y-416421749D01*
X115112374Y-416242848D01*
X115182178Y-416074326D01*
X115283517Y-415922661D01*
X115412498Y-415793680D01*
X115564163Y-415692341D01*
X115732685Y-415622537D01*
X115911586Y-415586952D01*
X116093992Y-415586952D01*
X116272893Y-415622537D01*
X116272893Y-415622537D01*
G37*
G36*
X107035374Y-413591754D02*
G01*
X107185199Y-413621556D01*
X107467463Y-413738473D01*
X107721494Y-413908211D01*
X107937530Y-414124247D01*
X108107268Y-414378278D01*
X108224185Y-414660542D01*
X108242309Y-414751656D01*
X108283789Y-414960191D01*
X108283789Y-415265713D01*
X108267534Y-415347431D01*
X108224185Y-415565362D01*
X108107268Y-415847626D01*
X107937530Y-416101657D01*
X107721494Y-416317693D01*
X107467463Y-416487431D01*
X107185199Y-416604348D01*
X107035374Y-416634150D01*
X106885550Y-416663952D01*
X106580028Y-416663952D01*
X106430204Y-416634150D01*
X106280379Y-416604348D01*
X105998115Y-416487431D01*
X105744084Y-416317693D01*
X105528048Y-416101657D01*
X105358310Y-415847626D01*
X105241393Y-415565362D01*
X105198044Y-415347431D01*
X105181789Y-415265713D01*
X105181789Y-414960191D01*
X105223269Y-414751656D01*
X105241393Y-414660542D01*
X105358310Y-414378278D01*
X105528048Y-414124247D01*
X105744084Y-413908211D01*
X105998115Y-413738473D01*
X106280379Y-413621556D01*
X106430204Y-413591754D01*
X106580028Y-413561952D01*
X106885550Y-413561952D01*
X107035374Y-413591754D01*
X107035374Y-413591754D01*
G37*
G36*
X117575374Y-412451754D02*
G01*
X117725199Y-412481556D01*
X118007463Y-412598473D01*
X118261494Y-412768211D01*
X118477530Y-412984247D01*
X118647268Y-413238278D01*
X118764185Y-413520542D01*
X118823789Y-413820192D01*
X118823789Y-414125712D01*
X118764185Y-414425362D01*
X118647268Y-414707626D01*
X118477530Y-414961657D01*
X118261494Y-415177693D01*
X118007463Y-415347431D01*
X117725199Y-415464348D01*
X117575374Y-415494150D01*
X117425550Y-415523952D01*
X117120028Y-415523952D01*
X116970204Y-415494150D01*
X116820379Y-415464348D01*
X116538115Y-415347431D01*
X116284084Y-415177693D01*
X116068048Y-414961657D01*
X115898310Y-414707626D01*
X115781393Y-414425362D01*
X115721789Y-414125712D01*
X115721789Y-413820192D01*
X115781393Y-413520542D01*
X115898310Y-413238278D01*
X116068048Y-412984247D01*
X116284084Y-412768211D01*
X116538115Y-412598473D01*
X116820379Y-412481556D01*
X116970204Y-412451754D01*
X117120028Y-412421952D01*
X117425550Y-412421952D01*
X117575374Y-412451754D01*
X117575374Y-412451754D01*
G37*
G36*
X99735374Y-412241754D02*
G01*
X99885199Y-412271556D01*
X100167463Y-412388473D01*
X100421494Y-412558211D01*
X100637530Y-412774247D01*
X100807268Y-413028278D01*
X100894252Y-413238278D01*
X100924185Y-413310543D01*
X100974194Y-413561952D01*
X100983789Y-413610192D01*
X100983789Y-413915712D01*
X100924185Y-414215362D01*
X100807268Y-414497626D01*
X100637530Y-414751657D01*
X100421494Y-414967693D01*
X100167463Y-415137431D01*
X99885199Y-415254348D01*
X99828068Y-415265712D01*
X99585550Y-415313952D01*
X99280028Y-415313952D01*
X99037510Y-415265712D01*
X98980379Y-415254348D01*
X98698115Y-415137431D01*
X98444084Y-414967693D01*
X98228048Y-414751657D01*
X98058310Y-414497626D01*
X97941393Y-414215362D01*
X97881789Y-413915712D01*
X97881789Y-413610192D01*
X97891385Y-413561952D01*
X97941393Y-413310543D01*
X97971326Y-413238278D01*
X98058310Y-413028278D01*
X98228048Y-412774247D01*
X98444084Y-412558211D01*
X98698115Y-412388473D01*
X98980379Y-412271556D01*
X99130204Y-412241754D01*
X99280028Y-412211952D01*
X99585550Y-412211952D01*
X99735374Y-412241754D01*
X99735374Y-412241754D01*
G37*
G36*
X123925374Y-409911754D02*
G01*
X124075199Y-409941556D01*
X124357463Y-410058473D01*
X124611494Y-410228211D01*
X124827530Y-410444247D01*
X124997268Y-410698278D01*
X125114185Y-410980542D01*
X125173789Y-411280192D01*
X125173789Y-411585712D01*
X125114185Y-411885362D01*
X124997268Y-412167626D01*
X124827530Y-412421657D01*
X124611494Y-412637693D01*
X124357463Y-412807431D01*
X124075199Y-412924348D01*
X123925374Y-412954150D01*
X123775550Y-412983952D01*
X123470028Y-412983952D01*
X123320204Y-412954150D01*
X123170379Y-412924348D01*
X122888115Y-412807431D01*
X122634084Y-412637693D01*
X122418048Y-412421657D01*
X122248310Y-412167626D01*
X122131393Y-411885362D01*
X122071789Y-411585712D01*
X122071789Y-411280192D01*
X122131393Y-410980542D01*
X122248310Y-410698278D01*
X122418048Y-410444247D01*
X122634084Y-410228211D01*
X122888115Y-410058473D01*
X123170379Y-409941556D01*
X123320204Y-409911754D01*
X123470028Y-409881952D01*
X123775550Y-409881952D01*
X123925374Y-409911754D01*
X123925374Y-409911754D01*
G37*
G36*
X101184603Y-409040720D02*
G01*
X101250788Y-409047239D01*
X101420627Y-409098759D01*
X101577152Y-409182424D01*
X101612890Y-409211754D01*
X101714347Y-409295016D01*
X101797609Y-409396473D01*
X101826939Y-409432211D01*
X101910604Y-409588736D01*
X101962124Y-409758575D01*
X101979520Y-409935202D01*
X101962124Y-410111829D01*
X101910604Y-410281668D01*
X101826939Y-410438193D01*
X101797609Y-410473931D01*
X101714347Y-410575388D01*
X101612890Y-410658650D01*
X101577152Y-410687980D01*
X101420627Y-410771645D01*
X101250788Y-410823165D01*
X101184604Y-410829683D01*
X101118421Y-410836202D01*
X101029901Y-410836202D01*
X100963718Y-410829683D01*
X100897534Y-410823165D01*
X100727695Y-410771645D01*
X100571170Y-410687980D01*
X100535432Y-410658650D01*
X100433975Y-410575388D01*
X100350713Y-410473931D01*
X100321383Y-410438193D01*
X100237718Y-410281668D01*
X100186198Y-410111829D01*
X100168802Y-409935202D01*
X100186198Y-409758575D01*
X100237718Y-409588736D01*
X100321383Y-409432211D01*
X100350713Y-409396473D01*
X100433975Y-409295016D01*
X100535432Y-409211754D01*
X100571170Y-409182424D01*
X100727695Y-409098759D01*
X100897534Y-409047239D01*
X100963719Y-409040720D01*
X101029901Y-409034202D01*
X101118421Y-409034202D01*
X101184603Y-409040720D01*
X101184603Y-409040720D01*
G37*
G36*
X107055161Y-410836202D02*
G01*
X105253161Y-410836202D01*
X105253161Y-409034202D01*
X107055161Y-409034202D01*
X107055161Y-410836202D01*
X107055161Y-410836202D01*
G37*
G36*
X98644603Y-409040720D02*
G01*
X98710788Y-409047239D01*
X98880627Y-409098759D01*
X99037152Y-409182424D01*
X99072890Y-409211754D01*
X99174347Y-409295016D01*
X99257609Y-409396473D01*
X99286939Y-409432211D01*
X99370604Y-409588736D01*
X99422124Y-409758575D01*
X99439520Y-409935202D01*
X99422124Y-410111829D01*
X99370604Y-410281668D01*
X99286939Y-410438193D01*
X99257609Y-410473931D01*
X99174347Y-410575388D01*
X99072890Y-410658650D01*
X99037152Y-410687980D01*
X98880627Y-410771645D01*
X98710788Y-410823165D01*
X98644604Y-410829683D01*
X98578421Y-410836202D01*
X98489901Y-410836202D01*
X98423718Y-410829683D01*
X98357534Y-410823165D01*
X98187695Y-410771645D01*
X98031170Y-410687980D01*
X97995432Y-410658650D01*
X97893975Y-410575388D01*
X97810713Y-410473931D01*
X97781383Y-410438193D01*
X97697718Y-410281668D01*
X97646198Y-410111829D01*
X97628802Y-409935202D01*
X97646198Y-409758575D01*
X97697718Y-409588736D01*
X97781383Y-409432211D01*
X97810713Y-409396473D01*
X97893975Y-409295016D01*
X97995432Y-409211754D01*
X98031170Y-409182424D01*
X98187695Y-409098759D01*
X98357534Y-409047239D01*
X98423719Y-409040720D01*
X98489901Y-409034202D01*
X98578421Y-409034202D01*
X98644603Y-409040720D01*
X98644603Y-409040720D01*
G37*
G36*
X103724603Y-409040720D02*
G01*
X103790788Y-409047239D01*
X103960627Y-409098759D01*
X104117152Y-409182424D01*
X104152890Y-409211754D01*
X104254347Y-409295016D01*
X104337609Y-409396473D01*
X104366939Y-409432211D01*
X104450604Y-409588736D01*
X104502124Y-409758575D01*
X104519520Y-409935202D01*
X104502124Y-410111829D01*
X104450604Y-410281668D01*
X104366939Y-410438193D01*
X104337609Y-410473931D01*
X104254347Y-410575388D01*
X104152890Y-410658650D01*
X104117152Y-410687980D01*
X103960627Y-410771645D01*
X103790788Y-410823165D01*
X103724604Y-410829683D01*
X103658421Y-410836202D01*
X103569901Y-410836202D01*
X103503718Y-410829683D01*
X103437534Y-410823165D01*
X103267695Y-410771645D01*
X103111170Y-410687980D01*
X103075432Y-410658650D01*
X102973975Y-410575388D01*
X102890713Y-410473931D01*
X102861383Y-410438193D01*
X102777718Y-410281668D01*
X102726198Y-410111829D01*
X102708802Y-409935202D01*
X102726198Y-409758575D01*
X102777718Y-409588736D01*
X102861383Y-409432211D01*
X102890713Y-409396473D01*
X102973975Y-409295016D01*
X103075432Y-409211754D01*
X103111170Y-409182424D01*
X103267695Y-409098759D01*
X103437534Y-409047239D01*
X103503719Y-409040720D01*
X103569901Y-409034202D01*
X103658421Y-409034202D01*
X103724603Y-409040720D01*
X103724603Y-409040720D01*
G37*
G36*
X99795375Y-404021754D02*
G01*
X99945200Y-404051556D01*
X100227464Y-404168473D01*
X100481495Y-404338211D01*
X100697531Y-404554247D01*
X100867269Y-404808278D01*
X100984186Y-405090542D01*
X101043790Y-405390192D01*
X101043790Y-405695712D01*
X100984186Y-405995362D01*
X100867269Y-406277626D01*
X100697531Y-406531657D01*
X100481495Y-406747693D01*
X100227464Y-406917431D01*
X99945200Y-407034348D01*
X99795375Y-407064150D01*
X99645551Y-407093952D01*
X99340029Y-407093952D01*
X99190205Y-407064150D01*
X99040380Y-407034348D01*
X98758116Y-406917431D01*
X98504085Y-406747693D01*
X98288049Y-406531657D01*
X98118311Y-406277626D01*
X98001394Y-405995362D01*
X97941790Y-405695712D01*
X97941790Y-405390192D01*
X98001394Y-405090542D01*
X98118311Y-404808278D01*
X98288049Y-404554247D01*
X98504085Y-404338211D01*
X98758116Y-404168473D01*
X99040380Y-404051556D01*
X99190205Y-404021754D01*
X99340029Y-403991952D01*
X99645551Y-403991952D01*
X99795375Y-404021754D01*
X99795375Y-404021754D01*
G37*
G36*
X123942090Y-401683144D02*
G01*
X124135200Y-401721556D01*
X124417464Y-401838473D01*
X124671495Y-402008211D01*
X124887531Y-402224247D01*
X125057269Y-402478278D01*
X125174186Y-402760542D01*
X125174186Y-402760543D01*
X125233790Y-403060191D01*
X125233790Y-403365713D01*
X125215958Y-403455361D01*
X125174186Y-403665362D01*
X125057269Y-403947626D01*
X124887531Y-404201657D01*
X124671495Y-404417693D01*
X124417464Y-404587431D01*
X124135200Y-404704348D01*
X123985375Y-404734150D01*
X123835551Y-404763952D01*
X123530029Y-404763952D01*
X123380205Y-404734150D01*
X123230380Y-404704348D01*
X122948116Y-404587431D01*
X122694085Y-404417693D01*
X122478049Y-404201657D01*
X122308311Y-403947626D01*
X122191394Y-403665362D01*
X122149622Y-403455361D01*
X122131790Y-403365713D01*
X122131790Y-403060191D01*
X122191394Y-402760543D01*
X122191394Y-402760542D01*
X122308311Y-402478278D01*
X122478049Y-402224247D01*
X122694085Y-402008211D01*
X122948116Y-401838473D01*
X123230380Y-401721556D01*
X123423490Y-401683144D01*
X123530029Y-401661952D01*
X123835551Y-401661952D01*
X123942090Y-401683144D01*
X123942090Y-401683144D01*
G37*
G36*
X106145375Y-401481754D02*
G01*
X106295200Y-401511556D01*
X106577464Y-401628473D01*
X106831495Y-401798211D01*
X107047531Y-402014247D01*
X107217269Y-402268278D01*
X107334186Y-402550542D01*
X107393790Y-402850192D01*
X107393790Y-403155712D01*
X107334186Y-403455362D01*
X107217269Y-403737626D01*
X107047531Y-403991657D01*
X106831495Y-404207693D01*
X106577464Y-404377431D01*
X106295200Y-404494348D01*
X106145375Y-404524150D01*
X105995551Y-404553952D01*
X105690029Y-404553952D01*
X105540205Y-404524150D01*
X105390380Y-404494348D01*
X105108116Y-404377431D01*
X104854085Y-404207693D01*
X104638049Y-403991657D01*
X104468311Y-403737626D01*
X104351394Y-403455362D01*
X104291790Y-403155712D01*
X104291790Y-402850192D01*
X104351394Y-402550542D01*
X104468311Y-402268278D01*
X104638049Y-402014247D01*
X104854085Y-401798211D01*
X105108116Y-401628473D01*
X105390380Y-401511556D01*
X105540205Y-401481754D01*
X105690029Y-401451952D01*
X105995551Y-401451952D01*
X106145375Y-401481754D01*
X106145375Y-401481754D01*
G37*
G36*
X116685375Y-400341754D02*
G01*
X116835200Y-400371556D01*
X117117464Y-400488473D01*
X117371495Y-400658211D01*
X117587531Y-400874247D01*
X117757269Y-401128278D01*
X117850503Y-401353366D01*
X117874186Y-401410543D01*
X117924195Y-401661952D01*
X117933790Y-401710192D01*
X117933790Y-402015712D01*
X117874186Y-402315362D01*
X117757269Y-402597626D01*
X117587531Y-402851657D01*
X117371495Y-403067693D01*
X117117464Y-403237431D01*
X116835200Y-403354348D01*
X116778069Y-403365712D01*
X116535551Y-403413952D01*
X116230029Y-403413952D01*
X115987511Y-403365712D01*
X115930380Y-403354348D01*
X115648116Y-403237431D01*
X115394085Y-403067693D01*
X115178049Y-402851657D01*
X115008311Y-402597626D01*
X114891394Y-402315362D01*
X114831790Y-402015712D01*
X114831790Y-401710192D01*
X114841386Y-401661952D01*
X114891394Y-401410543D01*
X114915077Y-401353366D01*
X115008311Y-401128278D01*
X115178049Y-400874247D01*
X115394085Y-400658211D01*
X115648116Y-400488473D01*
X115930380Y-400371556D01*
X116080205Y-400341754D01*
X116230029Y-400311952D01*
X116535551Y-400311952D01*
X116685375Y-400341754D01*
X116685375Y-400341754D01*
G37*
G36*
X102784181Y-397985946D02*
G01*
X102978365Y-398066380D01*
X103252982Y-398180130D01*
X103674894Y-398462042D01*
X104033700Y-398820848D01*
X104315612Y-399242760D01*
X104407195Y-399463862D01*
X104509796Y-399711561D01*
X104608790Y-400209238D01*
X104608790Y-400716666D01*
X104509796Y-401214343D01*
X104452210Y-401353367D01*
X104315612Y-401683144D01*
X104033700Y-402105056D01*
X103674894Y-402463862D01*
X103252982Y-402745774D01*
X103000897Y-402850191D01*
X102784181Y-402939958D01*
X102286505Y-403038952D01*
X101779075Y-403038952D01*
X101281399Y-402939958D01*
X101064683Y-402850191D01*
X100812598Y-402745774D01*
X100390686Y-402463862D01*
X100031880Y-402105056D01*
X99749968Y-401683144D01*
X99613370Y-401353367D01*
X99555784Y-401214343D01*
X99456790Y-400716666D01*
X99456790Y-400209238D01*
X99555784Y-399711561D01*
X99658385Y-399463862D01*
X99749968Y-399242760D01*
X100031880Y-398820848D01*
X100390686Y-398462042D01*
X100812598Y-398180130D01*
X101087215Y-398066380D01*
X101281399Y-397985946D01*
X101779075Y-397886952D01*
X102286505Y-397886952D01*
X102784181Y-397985946D01*
X102784181Y-397985946D01*
G37*
G36*
X97222894Y-399572537D02*
G01*
X97391416Y-399642341D01*
X97543081Y-399743680D01*
X97672062Y-399872661D01*
X97773401Y-400024326D01*
X97843205Y-400192848D01*
X97878790Y-400371749D01*
X97878790Y-400554155D01*
X97843205Y-400733056D01*
X97773401Y-400901578D01*
X97672062Y-401053243D01*
X97543081Y-401182224D01*
X97391416Y-401283563D01*
X97222894Y-401353367D01*
X97043993Y-401388952D01*
X96861587Y-401388952D01*
X96682686Y-401353367D01*
X96514164Y-401283563D01*
X96362499Y-401182224D01*
X96233518Y-401053243D01*
X96132179Y-400901578D01*
X96062375Y-400733056D01*
X96026790Y-400554155D01*
X96026790Y-400371749D01*
X96062375Y-400192848D01*
X96132179Y-400024326D01*
X96233518Y-399872661D01*
X96362499Y-399743680D01*
X96514164Y-399642341D01*
X96682686Y-399572537D01*
X96861587Y-399536952D01*
X97043993Y-399536952D01*
X97222894Y-399572537D01*
X97222894Y-399572537D01*
G37*
G36*
X107382894Y-399572537D02*
G01*
X107551416Y-399642341D01*
X107703081Y-399743680D01*
X107832062Y-399872661D01*
X107933401Y-400024326D01*
X108003205Y-400192848D01*
X108038790Y-400371749D01*
X108038790Y-400554155D01*
X108003205Y-400733056D01*
X107933401Y-400901578D01*
X107832062Y-401053243D01*
X107703081Y-401182224D01*
X107551416Y-401283563D01*
X107382894Y-401353367D01*
X107203993Y-401388952D01*
X107021587Y-401388952D01*
X106842686Y-401353367D01*
X106674164Y-401283563D01*
X106522499Y-401182224D01*
X106393518Y-401053243D01*
X106292179Y-400901578D01*
X106222375Y-400733056D01*
X106186790Y-400554155D01*
X106186790Y-400371749D01*
X106222375Y-400192848D01*
X106292179Y-400024326D01*
X106393518Y-399872661D01*
X106522499Y-399743680D01*
X106674164Y-399642341D01*
X106842686Y-399572537D01*
X107021587Y-399536952D01*
X107203993Y-399536952D01*
X107382894Y-399572537D01*
X107382894Y-399572537D01*
G37*
G36*
X121585342Y-394936449D02*
G01*
X121834181Y-394985946D01*
X122028365Y-395066380D01*
X122302982Y-395180130D01*
X122724894Y-395462042D01*
X123083700Y-395820848D01*
X123365612Y-396242760D01*
X123388257Y-396297431D01*
X123559796Y-396711561D01*
X123658790Y-397209238D01*
X123658790Y-397716666D01*
X123559796Y-398214343D01*
X123502210Y-398353367D01*
X123365612Y-398683144D01*
X123083700Y-399105056D01*
X122724894Y-399463862D01*
X122302982Y-399745774D01*
X122028365Y-399859524D01*
X121834181Y-399939958D01*
X121585342Y-399989455D01*
X121336505Y-400038952D01*
X120829075Y-400038952D01*
X120580238Y-399989455D01*
X120331399Y-399939958D01*
X120137215Y-399859524D01*
X119862598Y-399745774D01*
X119440686Y-399463862D01*
X119081880Y-399105056D01*
X118799968Y-398683144D01*
X118663370Y-398353367D01*
X118605784Y-398214343D01*
X118506790Y-397716666D01*
X118506790Y-397209238D01*
X118605784Y-396711561D01*
X118777323Y-396297431D01*
X118799968Y-396242760D01*
X119081880Y-395820848D01*
X119440686Y-395462042D01*
X119862598Y-395180130D01*
X120137215Y-395066380D01*
X120331399Y-394985946D01*
X120580238Y-394936449D01*
X120829075Y-394886952D01*
X121336505Y-394886952D01*
X121585342Y-394936449D01*
X121585342Y-394936449D01*
G37*
G36*
X126432894Y-396572537D02*
G01*
X126601416Y-396642341D01*
X126753081Y-396743680D01*
X126882062Y-396872661D01*
X126983401Y-397024326D01*
X127053205Y-397192848D01*
X127088790Y-397371749D01*
X127088790Y-397554155D01*
X127053205Y-397733056D01*
X126983401Y-397901578D01*
X126882062Y-398053243D01*
X126753081Y-398182224D01*
X126601416Y-398283563D01*
X126432894Y-398353367D01*
X126253993Y-398388952D01*
X126071587Y-398388952D01*
X125892686Y-398353367D01*
X125724164Y-398283563D01*
X125572499Y-398182224D01*
X125443518Y-398053243D01*
X125342179Y-397901578D01*
X125272375Y-397733056D01*
X125236790Y-397554155D01*
X125236790Y-397371749D01*
X125272375Y-397192848D01*
X125342179Y-397024326D01*
X125443518Y-396872661D01*
X125572499Y-396743680D01*
X125724164Y-396642341D01*
X125892686Y-396572537D01*
X126071587Y-396536952D01*
X126253993Y-396536952D01*
X126432894Y-396572537D01*
X126432894Y-396572537D01*
G37*
G36*
X116272894Y-396572537D02*
G01*
X116441416Y-396642341D01*
X116593081Y-396743680D01*
X116722062Y-396872661D01*
X116823401Y-397024326D01*
X116893205Y-397192848D01*
X116928790Y-397371749D01*
X116928790Y-397554155D01*
X116893205Y-397733056D01*
X116823401Y-397901578D01*
X116722062Y-398053243D01*
X116593081Y-398182224D01*
X116441416Y-398283563D01*
X116272894Y-398353367D01*
X116093993Y-398388952D01*
X115911587Y-398388952D01*
X115732686Y-398353367D01*
X115564164Y-398283563D01*
X115412499Y-398182224D01*
X115283518Y-398053243D01*
X115182179Y-397901578D01*
X115112375Y-397733056D01*
X115076790Y-397554155D01*
X115076790Y-397371749D01*
X115112375Y-397192848D01*
X115182179Y-397024326D01*
X115283518Y-396872661D01*
X115412499Y-396743680D01*
X115564164Y-396642341D01*
X115732686Y-396572537D01*
X115911587Y-396536952D01*
X116093993Y-396536952D01*
X116272894Y-396572537D01*
X116272894Y-396572537D01*
G37*
G36*
X107035375Y-394541754D02*
G01*
X107185200Y-394571556D01*
X107467464Y-394688473D01*
X107721495Y-394858211D01*
X107937531Y-395074247D01*
X108107269Y-395328278D01*
X108224186Y-395610542D01*
X108242310Y-395701656D01*
X108283790Y-395910191D01*
X108283790Y-396215713D01*
X108267535Y-396297431D01*
X108224186Y-396515362D01*
X108107269Y-396797626D01*
X107937531Y-397051657D01*
X107721495Y-397267693D01*
X107467464Y-397437431D01*
X107185200Y-397554348D01*
X107035375Y-397584150D01*
X106885551Y-397613952D01*
X106580029Y-397613952D01*
X106430205Y-397584150D01*
X106280380Y-397554348D01*
X105998116Y-397437431D01*
X105744085Y-397267693D01*
X105528049Y-397051657D01*
X105358311Y-396797626D01*
X105241394Y-396515362D01*
X105198045Y-396297431D01*
X105181790Y-396215713D01*
X105181790Y-395910191D01*
X105223270Y-395701656D01*
X105241394Y-395610542D01*
X105358311Y-395328278D01*
X105528049Y-395074247D01*
X105744085Y-394858211D01*
X105998116Y-394688473D01*
X106280380Y-394571556D01*
X106430205Y-394541754D01*
X106580029Y-394511952D01*
X106885551Y-394511952D01*
X107035375Y-394541754D01*
X107035375Y-394541754D01*
G37*
G36*
X117575375Y-393401754D02*
G01*
X117725200Y-393431556D01*
X118007464Y-393548473D01*
X118261495Y-393718211D01*
X118477531Y-393934247D01*
X118647269Y-394188278D01*
X118764186Y-394470542D01*
X118823790Y-394770192D01*
X118823790Y-395075712D01*
X118764186Y-395375362D01*
X118647269Y-395657626D01*
X118477531Y-395911657D01*
X118261495Y-396127693D01*
X118007464Y-396297431D01*
X117725200Y-396414348D01*
X117575375Y-396444150D01*
X117425551Y-396473952D01*
X117120029Y-396473952D01*
X116970205Y-396444150D01*
X116820380Y-396414348D01*
X116538116Y-396297431D01*
X116284085Y-396127693D01*
X116068049Y-395911657D01*
X115898311Y-395657626D01*
X115781394Y-395375362D01*
X115721790Y-395075712D01*
X115721790Y-394770192D01*
X115781394Y-394470542D01*
X115898311Y-394188278D01*
X116068049Y-393934247D01*
X116284085Y-393718211D01*
X116538116Y-393548473D01*
X116820380Y-393431556D01*
X116970205Y-393401754D01*
X117120029Y-393371952D01*
X117425551Y-393371952D01*
X117575375Y-393401754D01*
X117575375Y-393401754D01*
G37*
G36*
X99735375Y-393191754D02*
G01*
X99885200Y-393221556D01*
X100167464Y-393338473D01*
X100421495Y-393508211D01*
X100637531Y-393724247D01*
X100807269Y-393978278D01*
X100894253Y-394188278D01*
X100924186Y-394260543D01*
X100974195Y-394511952D01*
X100983790Y-394560192D01*
X100983790Y-394865712D01*
X100924186Y-395165362D01*
X100807269Y-395447626D01*
X100637531Y-395701657D01*
X100421495Y-395917693D01*
X100167464Y-396087431D01*
X99885200Y-396204348D01*
X99828069Y-396215712D01*
X99585551Y-396263952D01*
X99280029Y-396263952D01*
X99037511Y-396215712D01*
X98980380Y-396204348D01*
X98698116Y-396087431D01*
X98444085Y-395917693D01*
X98228049Y-395701657D01*
X98058311Y-395447626D01*
X97941394Y-395165362D01*
X97881790Y-394865712D01*
X97881790Y-394560192D01*
X97891386Y-394511952D01*
X97941394Y-394260543D01*
X97971327Y-394188278D01*
X98058311Y-393978278D01*
X98228049Y-393724247D01*
X98444085Y-393508211D01*
X98698116Y-393338473D01*
X98980380Y-393221556D01*
X99130205Y-393191754D01*
X99280029Y-393161952D01*
X99585551Y-393161952D01*
X99735375Y-393191754D01*
X99735375Y-393191754D01*
G37*
G36*
X123925375Y-390861754D02*
G01*
X124075200Y-390891556D01*
X124357464Y-391008473D01*
X124611495Y-391178211D01*
X124827531Y-391394247D01*
X124997269Y-391648278D01*
X125114186Y-391930542D01*
X125173790Y-392230192D01*
X125173790Y-392535712D01*
X125114186Y-392835362D01*
X124997269Y-393117626D01*
X124827531Y-393371657D01*
X124611495Y-393587693D01*
X124357464Y-393757431D01*
X124075200Y-393874348D01*
X123925375Y-393904150D01*
X123775551Y-393933952D01*
X123470029Y-393933952D01*
X123320205Y-393904150D01*
X123170380Y-393874348D01*
X122888116Y-393757431D01*
X122634085Y-393587693D01*
X122418049Y-393371657D01*
X122248311Y-393117626D01*
X122131394Y-392835362D01*
X122071790Y-392535712D01*
X122071790Y-392230192D01*
X122131394Y-391930542D01*
X122248311Y-391648278D01*
X122418049Y-391394247D01*
X122634085Y-391178211D01*
X122888116Y-391008473D01*
X123170380Y-390891556D01*
X123320205Y-390861754D01*
X123470029Y-390831952D01*
X123775551Y-390831952D01*
X123925375Y-390861754D01*
X123925375Y-390861754D01*
G37*
G36*
X103699720Y-389923893D02*
G01*
X103765905Y-389930412D01*
X103935744Y-389981932D01*
X104092269Y-390065597D01*
X104128007Y-390094927D01*
X104229464Y-390178189D01*
X104312726Y-390279646D01*
X104342056Y-390315384D01*
X104425721Y-390471909D01*
X104477241Y-390641748D01*
X104494637Y-390818375D01*
X104477241Y-390995002D01*
X104425721Y-391164841D01*
X104342056Y-391321366D01*
X104312726Y-391357104D01*
X104229464Y-391458561D01*
X104128007Y-391541823D01*
X104092269Y-391571153D01*
X103935744Y-391654818D01*
X103765905Y-391706338D01*
X103699721Y-391712856D01*
X103633538Y-391719375D01*
X103545018Y-391719375D01*
X103478835Y-391712856D01*
X103412651Y-391706338D01*
X103242812Y-391654818D01*
X103086287Y-391571153D01*
X103050549Y-391541823D01*
X102949092Y-391458561D01*
X102865830Y-391357104D01*
X102836500Y-391321366D01*
X102752835Y-391164841D01*
X102701315Y-390995002D01*
X102683919Y-390818375D01*
X102701315Y-390641748D01*
X102752835Y-390471909D01*
X102836500Y-390315384D01*
X102865830Y-390279646D01*
X102949092Y-390178189D01*
X103050549Y-390094927D01*
X103086287Y-390065597D01*
X103242812Y-389981932D01*
X103412651Y-389930412D01*
X103478836Y-389923893D01*
X103545018Y-389917375D01*
X103633538Y-389917375D01*
X103699720Y-389923893D01*
X103699720Y-389923893D01*
G37*
G36*
X107030278Y-391719375D02*
G01*
X105228278Y-391719375D01*
X105228278Y-389917375D01*
X107030278Y-389917375D01*
X107030278Y-391719375D01*
X107030278Y-391719375D01*
G37*
G36*
X98619720Y-389923893D02*
G01*
X98685905Y-389930412D01*
X98855744Y-389981932D01*
X99012269Y-390065597D01*
X99048007Y-390094927D01*
X99149464Y-390178189D01*
X99232726Y-390279646D01*
X99262056Y-390315384D01*
X99345721Y-390471909D01*
X99397241Y-390641748D01*
X99414637Y-390818375D01*
X99397241Y-390995002D01*
X99345721Y-391164841D01*
X99262056Y-391321366D01*
X99232726Y-391357104D01*
X99149464Y-391458561D01*
X99048007Y-391541823D01*
X99012269Y-391571153D01*
X98855744Y-391654818D01*
X98685905Y-391706338D01*
X98619721Y-391712856D01*
X98553538Y-391719375D01*
X98465018Y-391719375D01*
X98398835Y-391712856D01*
X98332651Y-391706338D01*
X98162812Y-391654818D01*
X98006287Y-391571153D01*
X97970549Y-391541823D01*
X97869092Y-391458561D01*
X97785830Y-391357104D01*
X97756500Y-391321366D01*
X97672835Y-391164841D01*
X97621315Y-390995002D01*
X97603919Y-390818375D01*
X97621315Y-390641748D01*
X97672835Y-390471909D01*
X97756500Y-390315384D01*
X97785830Y-390279646D01*
X97869092Y-390178189D01*
X97970549Y-390094927D01*
X98006287Y-390065597D01*
X98162812Y-389981932D01*
X98332651Y-389930412D01*
X98398836Y-389923893D01*
X98465018Y-389917375D01*
X98553538Y-389917375D01*
X98619720Y-389923893D01*
X98619720Y-389923893D01*
G37*
G36*
X101159720Y-389923893D02*
G01*
X101225905Y-389930412D01*
X101395744Y-389981932D01*
X101552269Y-390065597D01*
X101588007Y-390094927D01*
X101689464Y-390178189D01*
X101772726Y-390279646D01*
X101802056Y-390315384D01*
X101885721Y-390471909D01*
X101937241Y-390641748D01*
X101954637Y-390818375D01*
X101937241Y-390995002D01*
X101885721Y-391164841D01*
X101802056Y-391321366D01*
X101772726Y-391357104D01*
X101689464Y-391458561D01*
X101588007Y-391541823D01*
X101552269Y-391571153D01*
X101395744Y-391654818D01*
X101225905Y-391706338D01*
X101159721Y-391712856D01*
X101093538Y-391719375D01*
X101005018Y-391719375D01*
X100938835Y-391712856D01*
X100872651Y-391706338D01*
X100702812Y-391654818D01*
X100546287Y-391571153D01*
X100510549Y-391541823D01*
X100409092Y-391458561D01*
X100325830Y-391357104D01*
X100296500Y-391321366D01*
X100212835Y-391164841D01*
X100161315Y-390995002D01*
X100143919Y-390818375D01*
X100161315Y-390641748D01*
X100212835Y-390471909D01*
X100296500Y-390315384D01*
X100325830Y-390279646D01*
X100409092Y-390178189D01*
X100510549Y-390094927D01*
X100546287Y-390065597D01*
X100702812Y-389981932D01*
X100872651Y-389930412D01*
X100938836Y-389923893D01*
X101005018Y-389917375D01*
X101093538Y-389917375D01*
X101159720Y-389923893D01*
X101159720Y-389923893D01*
G37*
G36*
X99795375Y-384958802D02*
G01*
X99945200Y-384988604D01*
X100227464Y-385105521D01*
X100481495Y-385275259D01*
X100697531Y-385491295D01*
X100867269Y-385745326D01*
X100984186Y-386027590D01*
X101043790Y-386327240D01*
X101043790Y-386632760D01*
X100984186Y-386932410D01*
X100867269Y-387214674D01*
X100697531Y-387468705D01*
X100481495Y-387684741D01*
X100227464Y-387854479D01*
X99945200Y-387971396D01*
X99795375Y-388001198D01*
X99645551Y-388031000D01*
X99340029Y-388031000D01*
X99190205Y-388001198D01*
X99040380Y-387971396D01*
X98758116Y-387854479D01*
X98504085Y-387684741D01*
X98288049Y-387468705D01*
X98118311Y-387214674D01*
X98001394Y-386932410D01*
X97941790Y-386632760D01*
X97941790Y-386327240D01*
X98001394Y-386027590D01*
X98118311Y-385745326D01*
X98288049Y-385491295D01*
X98504085Y-385275259D01*
X98758116Y-385105521D01*
X99040380Y-384988604D01*
X99190205Y-384958802D01*
X99340029Y-384929000D01*
X99645551Y-384929000D01*
X99795375Y-384958802D01*
X99795375Y-384958802D01*
G37*
G36*
X123985375Y-382648802D02*
G01*
X124135200Y-382678604D01*
X124417464Y-382795521D01*
X124671495Y-382965259D01*
X124887531Y-383181295D01*
X125057269Y-383435326D01*
X125174186Y-383717590D01*
X125174186Y-383717591D01*
X125233790Y-384017239D01*
X125233790Y-384322761D01*
X125219936Y-384392409D01*
X125174186Y-384622410D01*
X125057269Y-384904674D01*
X124887531Y-385158705D01*
X124671495Y-385374741D01*
X124417464Y-385544479D01*
X124135200Y-385661396D01*
X123985375Y-385691198D01*
X123835551Y-385721000D01*
X123530029Y-385721000D01*
X123380205Y-385691198D01*
X123230380Y-385661396D01*
X122948116Y-385544479D01*
X122694085Y-385374741D01*
X122478049Y-385158705D01*
X122308311Y-384904674D01*
X122191394Y-384622410D01*
X122145644Y-384392409D01*
X122131790Y-384322761D01*
X122131790Y-384017239D01*
X122191394Y-383717591D01*
X122191394Y-383717590D01*
X122308311Y-383435326D01*
X122478049Y-383181295D01*
X122694085Y-382965259D01*
X122948116Y-382795521D01*
X123230380Y-382678604D01*
X123380205Y-382648802D01*
X123530029Y-382619000D01*
X123835551Y-382619000D01*
X123985375Y-382648802D01*
X123985375Y-382648802D01*
G37*
G36*
X106145375Y-382418802D02*
G01*
X106295200Y-382448604D01*
X106577464Y-382565521D01*
X106831495Y-382735259D01*
X107047531Y-382951295D01*
X107217269Y-383205326D01*
X107334186Y-383487590D01*
X107393790Y-383787240D01*
X107393790Y-384092760D01*
X107334186Y-384392410D01*
X107217269Y-384674674D01*
X107047531Y-384928705D01*
X106831495Y-385144741D01*
X106577464Y-385314479D01*
X106295200Y-385431396D01*
X106145375Y-385461198D01*
X105995551Y-385491000D01*
X105690029Y-385491000D01*
X105540205Y-385461198D01*
X105390380Y-385431396D01*
X105108116Y-385314479D01*
X104854085Y-385144741D01*
X104638049Y-384928705D01*
X104468311Y-384674674D01*
X104351394Y-384392410D01*
X104291790Y-384092760D01*
X104291790Y-383787240D01*
X104351394Y-383487590D01*
X104468311Y-383205326D01*
X104638049Y-382951295D01*
X104854085Y-382735259D01*
X105108116Y-382565521D01*
X105390380Y-382448604D01*
X105540205Y-382418802D01*
X105690029Y-382389000D01*
X105995551Y-382389000D01*
X106145375Y-382418802D01*
X106145375Y-382418802D01*
G37*
G36*
X116685375Y-381298802D02*
G01*
X116835200Y-381328604D01*
X117117464Y-381445521D01*
X117371495Y-381615259D01*
X117587531Y-381831295D01*
X117757269Y-382085326D01*
X117874186Y-382367590D01*
X117874186Y-382367591D01*
X117924195Y-382619000D01*
X117933790Y-382667240D01*
X117933790Y-382972760D01*
X117874186Y-383272410D01*
X117757269Y-383554674D01*
X117587531Y-383808705D01*
X117371495Y-384024741D01*
X117117464Y-384194479D01*
X116835200Y-384311396D01*
X116778069Y-384322760D01*
X116535551Y-384371000D01*
X116230029Y-384371000D01*
X115987511Y-384322760D01*
X115930380Y-384311396D01*
X115648116Y-384194479D01*
X115394085Y-384024741D01*
X115178049Y-383808705D01*
X115008311Y-383554674D01*
X114891394Y-383272410D01*
X114831790Y-382972760D01*
X114831790Y-382667240D01*
X114841386Y-382619000D01*
X114891394Y-382367591D01*
X114891394Y-382367590D01*
X115008311Y-382085326D01*
X115178049Y-381831295D01*
X115394085Y-381615259D01*
X115648116Y-381445521D01*
X115930380Y-381328604D01*
X116080205Y-381298802D01*
X116230029Y-381269000D01*
X116535551Y-381269000D01*
X116685375Y-381298802D01*
X116685375Y-381298802D01*
G37*
G36*
X102460576Y-378858625D02*
G01*
X102784181Y-378922994D01*
X102978365Y-379003428D01*
X103252982Y-379117178D01*
X103674894Y-379399090D01*
X104033700Y-379757896D01*
X104315612Y-380179808D01*
X104415480Y-380420910D01*
X104509796Y-380648609D01*
X104608790Y-381146286D01*
X104608790Y-381653714D01*
X104509796Y-382151391D01*
X104452210Y-382290415D01*
X104315612Y-382620192D01*
X104033700Y-383042104D01*
X103674894Y-383400910D01*
X103252982Y-383682822D01*
X103000897Y-383787239D01*
X102784181Y-383877006D01*
X102535342Y-383926503D01*
X102286505Y-383976000D01*
X101779075Y-383976000D01*
X101530238Y-383926503D01*
X101281399Y-383877006D01*
X101064683Y-383787239D01*
X100812598Y-383682822D01*
X100390686Y-383400910D01*
X100031880Y-383042104D01*
X99749968Y-382620192D01*
X99613370Y-382290415D01*
X99555784Y-382151391D01*
X99456790Y-381653714D01*
X99456790Y-381146286D01*
X99555784Y-380648609D01*
X99650100Y-380420910D01*
X99749968Y-380179808D01*
X100031880Y-379757896D01*
X100390686Y-379399090D01*
X100812598Y-379117178D01*
X101087215Y-379003428D01*
X101281399Y-378922994D01*
X101605004Y-378858625D01*
X101779075Y-378824000D01*
X102286505Y-378824000D01*
X102460576Y-378858625D01*
X102460576Y-378858625D01*
G37*
G36*
X97222894Y-380509585D02*
G01*
X97391416Y-380579389D01*
X97543081Y-380680728D01*
X97672062Y-380809709D01*
X97773401Y-380961374D01*
X97843205Y-381129896D01*
X97878790Y-381308797D01*
X97878790Y-381491203D01*
X97843205Y-381670104D01*
X97773401Y-381838626D01*
X97672062Y-381990291D01*
X97543081Y-382119272D01*
X97391416Y-382220611D01*
X97222894Y-382290415D01*
X97043993Y-382326000D01*
X96861587Y-382326000D01*
X96682686Y-382290415D01*
X96514164Y-382220611D01*
X96362499Y-382119272D01*
X96233518Y-381990291D01*
X96132179Y-381838626D01*
X96062375Y-381670104D01*
X96026790Y-381491203D01*
X96026790Y-381308797D01*
X96062375Y-381129896D01*
X96132179Y-380961374D01*
X96233518Y-380809709D01*
X96362499Y-380680728D01*
X96514164Y-380579389D01*
X96682686Y-380509585D01*
X96861587Y-380474000D01*
X97043993Y-380474000D01*
X97222894Y-380509585D01*
X97222894Y-380509585D01*
G37*
G36*
X107382894Y-380509585D02*
G01*
X107551416Y-380579389D01*
X107703081Y-380680728D01*
X107832062Y-380809709D01*
X107933401Y-380961374D01*
X108003205Y-381129896D01*
X108038790Y-381308797D01*
X108038790Y-381491203D01*
X108003205Y-381670104D01*
X107933401Y-381838626D01*
X107832062Y-381990291D01*
X107703081Y-382119272D01*
X107551416Y-382220611D01*
X107382894Y-382290415D01*
X107203993Y-382326000D01*
X107021587Y-382326000D01*
X106842686Y-382290415D01*
X106674164Y-382220611D01*
X106522499Y-382119272D01*
X106393518Y-381990291D01*
X106292179Y-381838626D01*
X106222375Y-381670104D01*
X106186790Y-381491203D01*
X106186790Y-381308797D01*
X106222375Y-381129896D01*
X106292179Y-380961374D01*
X106393518Y-380809709D01*
X106522499Y-380680728D01*
X106674164Y-380579389D01*
X106842686Y-380509585D01*
X107021587Y-380474000D01*
X107203993Y-380474000D01*
X107382894Y-380509585D01*
X107382894Y-380509585D01*
G37*
G36*
X121834181Y-375942994D02*
G01*
X121999073Y-376011295D01*
X122302982Y-376137178D01*
X122724894Y-376419090D01*
X123083700Y-376777896D01*
X123365612Y-377199808D01*
X123429866Y-377354932D01*
X123559796Y-377668609D01*
X123566185Y-377700728D01*
X123641489Y-378079305D01*
X123658790Y-378166286D01*
X123658790Y-378673714D01*
X123559796Y-379171391D01*
X123502210Y-379310415D01*
X123365612Y-379640192D01*
X123083700Y-380062104D01*
X122724894Y-380420910D01*
X122302982Y-380702822D01*
X122044934Y-380809709D01*
X121834181Y-380897006D01*
X121336505Y-380996000D01*
X120829075Y-380996000D01*
X120331399Y-380897006D01*
X120120646Y-380809709D01*
X119862598Y-380702822D01*
X119440686Y-380420910D01*
X119081880Y-380062104D01*
X118799968Y-379640192D01*
X118663370Y-379310415D01*
X118605784Y-379171391D01*
X118506790Y-378673714D01*
X118506790Y-378166286D01*
X118524092Y-378079305D01*
X118599395Y-377700728D01*
X118605784Y-377668609D01*
X118735714Y-377354932D01*
X118799968Y-377199808D01*
X119081880Y-376777896D01*
X119440686Y-376419090D01*
X119862598Y-376137178D01*
X120166507Y-376011295D01*
X120331399Y-375942994D01*
X120829075Y-375844000D01*
X121336505Y-375844000D01*
X121834181Y-375942994D01*
X121834181Y-375942994D01*
G37*
G36*
X129777095Y-380619305D02*
G01*
X127975095Y-380619305D01*
X127975095Y-378817305D01*
X129777095Y-378817305D01*
X129777095Y-380619305D01*
X129777095Y-380619305D01*
G37*
G36*
X126432894Y-377529585D02*
G01*
X126601416Y-377599389D01*
X126753081Y-377700728D01*
X126882062Y-377829709D01*
X126983401Y-377981374D01*
X127053205Y-378149896D01*
X127088790Y-378328797D01*
X127088790Y-378511203D01*
X127053205Y-378690104D01*
X126983401Y-378858626D01*
X126882062Y-379010291D01*
X126753081Y-379139272D01*
X126601416Y-379240611D01*
X126432894Y-379310415D01*
X126253993Y-379346000D01*
X126071587Y-379346000D01*
X125892686Y-379310415D01*
X125724164Y-379240611D01*
X125572499Y-379139272D01*
X125443518Y-379010291D01*
X125342179Y-378858626D01*
X125272375Y-378690104D01*
X125236790Y-378511203D01*
X125236790Y-378328797D01*
X125272375Y-378149896D01*
X125342179Y-377981374D01*
X125443518Y-377829709D01*
X125572499Y-377700728D01*
X125724164Y-377599389D01*
X125892686Y-377529585D01*
X126071587Y-377494000D01*
X126253993Y-377494000D01*
X126432894Y-377529585D01*
X126432894Y-377529585D01*
G37*
G36*
X116272894Y-377529585D02*
G01*
X116441416Y-377599389D01*
X116593081Y-377700728D01*
X116722062Y-377829709D01*
X116823401Y-377981374D01*
X116893205Y-378149896D01*
X116928790Y-378328797D01*
X116928790Y-378511203D01*
X116893205Y-378690104D01*
X116823401Y-378858626D01*
X116722062Y-379010291D01*
X116593081Y-379139272D01*
X116441416Y-379240611D01*
X116272894Y-379310415D01*
X116093993Y-379346000D01*
X115911587Y-379346000D01*
X115732686Y-379310415D01*
X115564164Y-379240611D01*
X115412499Y-379139272D01*
X115283518Y-379010291D01*
X115182179Y-378858626D01*
X115112375Y-378690104D01*
X115076790Y-378511203D01*
X115076790Y-378328797D01*
X115112375Y-378149896D01*
X115182179Y-377981374D01*
X115283518Y-377829709D01*
X115412499Y-377700728D01*
X115564164Y-377599389D01*
X115732686Y-377529585D01*
X115911587Y-377494000D01*
X116093993Y-377494000D01*
X116272894Y-377529585D01*
X116272894Y-377529585D01*
G37*
G36*
X107014989Y-375474747D02*
G01*
X107185200Y-375508604D01*
X107467464Y-375625521D01*
X107721495Y-375795259D01*
X107937531Y-376011295D01*
X108107269Y-376265326D01*
X108173626Y-376425527D01*
X108224186Y-376547591D01*
X108283790Y-376847239D01*
X108283790Y-377152761D01*
X108263557Y-377254479D01*
X108224186Y-377452410D01*
X108107269Y-377734674D01*
X107937531Y-377988705D01*
X107721495Y-378204741D01*
X107467464Y-378374479D01*
X107185200Y-378491396D01*
X107085623Y-378511203D01*
X106885551Y-378551000D01*
X106580029Y-378551000D01*
X106379957Y-378511203D01*
X106280380Y-378491396D01*
X105998116Y-378374479D01*
X105744085Y-378204741D01*
X105528049Y-377988705D01*
X105358311Y-377734674D01*
X105241394Y-377452410D01*
X105202023Y-377254479D01*
X105181790Y-377152761D01*
X105181790Y-376847239D01*
X105241394Y-376547591D01*
X105291954Y-376425527D01*
X105358311Y-376265326D01*
X105528049Y-376011295D01*
X105744085Y-375795259D01*
X105998116Y-375625521D01*
X106280380Y-375508604D01*
X106450591Y-375474747D01*
X106580029Y-375449000D01*
X106885551Y-375449000D01*
X107014989Y-375474747D01*
X107014989Y-375474747D01*
G37*
G36*
X128986537Y-376283823D02*
G01*
X129052722Y-376290342D01*
X129222561Y-376341862D01*
X129379086Y-376425527D01*
X129414824Y-376454857D01*
X129516281Y-376538119D01*
X129579105Y-376614672D01*
X129628873Y-376675314D01*
X129712538Y-376831839D01*
X129764058Y-377001678D01*
X129781454Y-377178305D01*
X129764058Y-377354932D01*
X129712538Y-377524771D01*
X129628873Y-377681296D01*
X129599543Y-377717034D01*
X129516281Y-377818491D01*
X129414824Y-377901753D01*
X129379086Y-377931083D01*
X129222561Y-378014748D01*
X129052722Y-378066268D01*
X128986537Y-378072787D01*
X128920355Y-378079305D01*
X128831835Y-378079305D01*
X128765653Y-378072787D01*
X128699468Y-378066268D01*
X128529629Y-378014748D01*
X128373104Y-377931083D01*
X128337366Y-377901753D01*
X128235909Y-377818491D01*
X128152647Y-377717034D01*
X128123317Y-377681296D01*
X128039652Y-377524771D01*
X127988132Y-377354932D01*
X127970736Y-377178305D01*
X127988132Y-377001678D01*
X128039652Y-376831839D01*
X128123317Y-376675314D01*
X128173085Y-376614672D01*
X128235909Y-376538119D01*
X128337366Y-376454857D01*
X128373104Y-376425527D01*
X128529629Y-376341862D01*
X128699468Y-376290342D01*
X128765653Y-376283823D01*
X128831835Y-376277305D01*
X128920355Y-376277305D01*
X128986537Y-376283823D01*
X128986537Y-376283823D01*
G37*
G36*
X117575375Y-374358802D02*
G01*
X117725200Y-374388604D01*
X118007464Y-374505521D01*
X118261495Y-374675259D01*
X118477531Y-374891295D01*
X118647269Y-375145326D01*
X118764186Y-375427590D01*
X118823790Y-375727240D01*
X118823790Y-376032760D01*
X118764186Y-376332410D01*
X118647269Y-376614674D01*
X118477531Y-376868705D01*
X118261495Y-377084741D01*
X118007464Y-377254479D01*
X117725200Y-377371396D01*
X117575375Y-377401198D01*
X117425551Y-377431000D01*
X117120029Y-377431000D01*
X116970205Y-377401198D01*
X116820380Y-377371396D01*
X116538116Y-377254479D01*
X116284085Y-377084741D01*
X116068049Y-376868705D01*
X115898311Y-376614674D01*
X115781394Y-376332410D01*
X115721790Y-376032760D01*
X115721790Y-375727240D01*
X115781394Y-375427590D01*
X115898311Y-375145326D01*
X116068049Y-374891295D01*
X116284085Y-374675259D01*
X116538116Y-374505521D01*
X116820380Y-374388604D01*
X116970205Y-374358802D01*
X117120029Y-374329000D01*
X117425551Y-374329000D01*
X117575375Y-374358802D01*
X117575375Y-374358802D01*
G37*
G36*
X99735375Y-374128802D02*
G01*
X99885200Y-374158604D01*
X100167464Y-374275521D01*
X100421495Y-374445259D01*
X100637531Y-374661295D01*
X100807269Y-374915326D01*
X100902538Y-375145328D01*
X100924186Y-375197591D01*
X100974195Y-375449000D01*
X100983790Y-375497240D01*
X100983790Y-375802760D01*
X100924186Y-376102410D01*
X100807269Y-376384674D01*
X100637531Y-376638705D01*
X100421495Y-376854741D01*
X100167464Y-377024479D01*
X99885200Y-377141396D01*
X99828069Y-377152760D01*
X99585551Y-377201000D01*
X99280029Y-377201000D01*
X99037511Y-377152760D01*
X98980380Y-377141396D01*
X98698116Y-377024479D01*
X98444085Y-376854741D01*
X98228049Y-376638705D01*
X98058311Y-376384674D01*
X97941394Y-376102410D01*
X97881790Y-375802760D01*
X97881790Y-375497240D01*
X97891386Y-375449000D01*
X97941394Y-375197591D01*
X97963042Y-375145328D01*
X98058311Y-374915326D01*
X98228049Y-374661295D01*
X98444085Y-374445259D01*
X98698116Y-374275521D01*
X98980380Y-374158604D01*
X99130205Y-374128802D01*
X99280029Y-374099000D01*
X99585551Y-374099000D01*
X99735375Y-374128802D01*
X99735375Y-374128802D01*
G37*
G36*
X128986537Y-373743823D02*
G01*
X129052722Y-373750342D01*
X129222561Y-373801862D01*
X129379086Y-373885527D01*
X129414824Y-373914857D01*
X129516281Y-373998119D01*
X129579105Y-374074672D01*
X129628873Y-374135314D01*
X129712538Y-374291839D01*
X129764058Y-374461678D01*
X129781454Y-374638305D01*
X129764058Y-374814932D01*
X129712538Y-374984771D01*
X129628873Y-375141296D01*
X129599543Y-375177034D01*
X129516281Y-375278491D01*
X129414824Y-375361753D01*
X129379086Y-375391083D01*
X129222561Y-375474748D01*
X129052722Y-375526268D01*
X128986538Y-375532786D01*
X128920355Y-375539305D01*
X128831835Y-375539305D01*
X128765652Y-375532786D01*
X128699468Y-375526268D01*
X128529629Y-375474748D01*
X128373104Y-375391083D01*
X128337366Y-375361753D01*
X128235909Y-375278491D01*
X128152647Y-375177034D01*
X128123317Y-375141296D01*
X128039652Y-374984771D01*
X127988132Y-374814932D01*
X127970736Y-374638305D01*
X127988132Y-374461678D01*
X128039652Y-374291839D01*
X128123317Y-374135314D01*
X128173085Y-374074672D01*
X128235909Y-373998119D01*
X128337366Y-373914857D01*
X128373104Y-373885527D01*
X128529629Y-373801862D01*
X128699468Y-373750342D01*
X128765653Y-373743823D01*
X128831835Y-373737305D01*
X128920355Y-373737305D01*
X128986537Y-373743823D01*
X128986537Y-373743823D01*
G37*
G36*
X123925375Y-371818802D02*
G01*
X124075200Y-371848604D01*
X124357464Y-371965521D01*
X124611495Y-372135259D01*
X124827531Y-372351295D01*
X124997269Y-372605326D01*
X125114186Y-372887590D01*
X125173790Y-373187240D01*
X125173790Y-373492760D01*
X125114186Y-373792410D01*
X124997269Y-374074674D01*
X124827531Y-374328705D01*
X124611495Y-374544741D01*
X124357464Y-374714479D01*
X124075200Y-374831396D01*
X123925375Y-374861198D01*
X123775551Y-374891000D01*
X123470029Y-374891000D01*
X123320205Y-374861198D01*
X123170380Y-374831396D01*
X122888116Y-374714479D01*
X122634085Y-374544741D01*
X122418049Y-374328705D01*
X122248311Y-374074674D01*
X122131394Y-373792410D01*
X122071790Y-373492760D01*
X122071790Y-373187240D01*
X122131394Y-372887590D01*
X122248311Y-372605326D01*
X122418049Y-372351295D01*
X122634085Y-372135259D01*
X122888116Y-371965521D01*
X123170380Y-371848604D01*
X123320205Y-371818802D01*
X123470029Y-371789000D01*
X123775551Y-371789000D01*
X123925375Y-371818802D01*
X123925375Y-371818802D01*
G37*
G36*
X128986537Y-371203823D02*
G01*
X129052722Y-371210342D01*
X129222561Y-371261862D01*
X129379086Y-371345527D01*
X129414824Y-371374857D01*
X129516281Y-371458119D01*
X129599543Y-371559576D01*
X129628873Y-371595314D01*
X129712538Y-371751839D01*
X129764058Y-371921678D01*
X129781454Y-372098305D01*
X129764058Y-372274932D01*
X129712538Y-372444771D01*
X129628873Y-372601296D01*
X129599543Y-372637034D01*
X129516281Y-372738491D01*
X129414824Y-372821753D01*
X129379086Y-372851083D01*
X129222561Y-372934748D01*
X129052722Y-372986268D01*
X128986538Y-372992786D01*
X128920355Y-372999305D01*
X128831835Y-372999305D01*
X128765652Y-372992786D01*
X128699468Y-372986268D01*
X128529629Y-372934748D01*
X128373104Y-372851083D01*
X128337366Y-372821753D01*
X128235909Y-372738491D01*
X128152647Y-372637034D01*
X128123317Y-372601296D01*
X128039652Y-372444771D01*
X127988132Y-372274932D01*
X127970736Y-372098305D01*
X127988132Y-371921678D01*
X128039652Y-371751839D01*
X128123317Y-371595314D01*
X128152647Y-371559576D01*
X128235909Y-371458119D01*
X128337366Y-371374857D01*
X128373104Y-371345527D01*
X128529629Y-371261862D01*
X128699468Y-371210342D01*
X128765653Y-371203823D01*
X128831835Y-371197305D01*
X128920355Y-371197305D01*
X128986537Y-371203823D01*
X128986537Y-371203823D01*
G37*
G36*
X102700442Y-369925518D02*
G01*
X102766627Y-369932037D01*
X102936466Y-369983557D01*
X103092991Y-370067222D01*
X103128729Y-370096552D01*
X103230186Y-370179814D01*
X103307009Y-370273425D01*
X103342778Y-370317009D01*
X103426443Y-370473534D01*
X103477963Y-370643373D01*
X103495359Y-370820000D01*
X103477963Y-370996627D01*
X103426443Y-371166466D01*
X103342778Y-371322991D01*
X103324284Y-371345526D01*
X103230186Y-371460186D01*
X103128729Y-371543448D01*
X103092991Y-371572778D01*
X102936466Y-371656443D01*
X102766627Y-371707963D01*
X102700442Y-371714482D01*
X102634260Y-371721000D01*
X102545740Y-371721000D01*
X102479558Y-371714482D01*
X102413373Y-371707963D01*
X102243534Y-371656443D01*
X102087009Y-371572778D01*
X102051271Y-371543448D01*
X101949814Y-371460186D01*
X101855716Y-371345526D01*
X101837222Y-371322991D01*
X101753557Y-371166466D01*
X101702037Y-370996627D01*
X101684641Y-370820000D01*
X101702037Y-370643373D01*
X101753557Y-370473534D01*
X101837222Y-370317009D01*
X101872991Y-370273425D01*
X101949814Y-370179814D01*
X102051271Y-370096552D01*
X102087009Y-370067222D01*
X102243534Y-369983557D01*
X102413373Y-369932037D01*
X102479558Y-369925518D01*
X102545740Y-369919000D01*
X102634260Y-369919000D01*
X102700442Y-369925518D01*
X102700442Y-369925518D01*
G37*
G36*
X97620442Y-369925518D02*
G01*
X97686627Y-369932037D01*
X97856466Y-369983557D01*
X98012991Y-370067222D01*
X98048729Y-370096552D01*
X98150186Y-370179814D01*
X98227009Y-370273425D01*
X98262778Y-370317009D01*
X98346443Y-370473534D01*
X98397963Y-370643373D01*
X98415359Y-370820000D01*
X98397963Y-370996627D01*
X98346443Y-371166466D01*
X98262778Y-371322991D01*
X98244284Y-371345526D01*
X98150186Y-371460186D01*
X98048729Y-371543448D01*
X98012991Y-371572778D01*
X97856466Y-371656443D01*
X97686627Y-371707963D01*
X97620442Y-371714482D01*
X97554260Y-371721000D01*
X97465740Y-371721000D01*
X97399558Y-371714482D01*
X97333373Y-371707963D01*
X97163534Y-371656443D01*
X97007009Y-371572778D01*
X96971271Y-371543448D01*
X96869814Y-371460186D01*
X96775716Y-371345526D01*
X96757222Y-371322991D01*
X96673557Y-371166466D01*
X96622037Y-370996627D01*
X96604641Y-370820000D01*
X96622037Y-370643373D01*
X96673557Y-370473534D01*
X96757222Y-370317009D01*
X96792991Y-370273425D01*
X96869814Y-370179814D01*
X96971271Y-370096552D01*
X97007009Y-370067222D01*
X97163534Y-369983557D01*
X97333373Y-369932037D01*
X97399558Y-369925518D01*
X97465740Y-369919000D01*
X97554260Y-369919000D01*
X97620442Y-369925518D01*
X97620442Y-369925518D01*
G37*
G36*
X100160442Y-369925518D02*
G01*
X100226627Y-369932037D01*
X100396466Y-369983557D01*
X100552991Y-370067222D01*
X100588729Y-370096552D01*
X100690186Y-370179814D01*
X100767009Y-370273425D01*
X100802778Y-370317009D01*
X100886443Y-370473534D01*
X100937963Y-370643373D01*
X100955359Y-370820000D01*
X100937963Y-370996627D01*
X100886443Y-371166466D01*
X100802778Y-371322991D01*
X100784284Y-371345526D01*
X100690186Y-371460186D01*
X100588729Y-371543448D01*
X100552991Y-371572778D01*
X100396466Y-371656443D01*
X100226627Y-371707963D01*
X100160442Y-371714482D01*
X100094260Y-371721000D01*
X100005740Y-371721000D01*
X99939558Y-371714482D01*
X99873373Y-371707963D01*
X99703534Y-371656443D01*
X99547009Y-371572778D01*
X99511271Y-371543448D01*
X99409814Y-371460186D01*
X99315716Y-371345526D01*
X99297222Y-371322991D01*
X99213557Y-371166466D01*
X99162037Y-370996627D01*
X99144641Y-370820000D01*
X99162037Y-370643373D01*
X99213557Y-370473534D01*
X99297222Y-370317009D01*
X99332991Y-370273425D01*
X99409814Y-370179814D01*
X99511271Y-370096552D01*
X99547009Y-370067222D01*
X99703534Y-369983557D01*
X99873373Y-369932037D01*
X99939558Y-369925518D01*
X100005740Y-369919000D01*
X100094260Y-369919000D01*
X100160442Y-369925518D01*
X100160442Y-369925518D01*
G37*
G36*
X106031000Y-371721000D02*
G01*
X104229000Y-371721000D01*
X104229000Y-369919000D01*
X106031000Y-369919000D01*
X106031000Y-371721000D01*
X106031000Y-371721000D01*
G37*
G36*
X107408213Y-368786249D02*
G01*
X107502652Y-368814897D01*
X107589687Y-368861418D01*
X107665975Y-368924025D01*
X107728582Y-369000313D01*
X107775103Y-369087348D01*
X107803751Y-369181787D01*
X107811000Y-369255388D01*
X107811000Y-370404612D01*
X107803751Y-370478213D01*
X107775103Y-370572652D01*
X107728582Y-370659687D01*
X107665975Y-370735975D01*
X107589687Y-370798582D01*
X107502651Y-370845103D01*
X107408212Y-370873751D01*
X107310000Y-370883424D01*
X107211787Y-370873751D01*
X107117348Y-370845103D01*
X107030313Y-370798582D01*
X106954025Y-370735975D01*
X106891418Y-370659687D01*
X106844897Y-370572651D01*
X106816249Y-370478212D01*
X106809000Y-370404611D01*
X106809001Y-369255388D01*
X106816250Y-369181787D01*
X106844898Y-369087348D01*
X106891419Y-369000313D01*
X106954026Y-368924025D01*
X107030314Y-368861418D01*
X107117349Y-368814897D01*
X107211788Y-368786249D01*
X107310000Y-368776576D01*
X107408213Y-368786249D01*
X107408213Y-368786249D01*
G37*
G36*
X116048213Y-368786249D02*
G01*
X116142652Y-368814897D01*
X116229687Y-368861418D01*
X116305975Y-368924025D01*
X116368582Y-369000313D01*
X116415103Y-369087348D01*
X116443751Y-369181787D01*
X116451000Y-369255388D01*
X116451000Y-370404612D01*
X116443751Y-370478213D01*
X116415103Y-370572652D01*
X116368582Y-370659687D01*
X116305975Y-370735975D01*
X116229687Y-370798582D01*
X116142651Y-370845103D01*
X116048212Y-370873751D01*
X115950000Y-370883424D01*
X115851787Y-370873751D01*
X115757348Y-370845103D01*
X115670313Y-370798582D01*
X115594025Y-370735975D01*
X115531418Y-370659687D01*
X115484897Y-370572651D01*
X115456249Y-370478212D01*
X115449000Y-370404611D01*
X115449001Y-369255388D01*
X115456250Y-369181787D01*
X115484898Y-369087348D01*
X115531419Y-369000313D01*
X115594026Y-368924025D01*
X115670314Y-368861418D01*
X115757349Y-368814897D01*
X115851788Y-368786249D01*
X115950000Y-368776576D01*
X116048213Y-368786249D01*
X116048213Y-368786249D01*
G37*
G36*
X118413855Y-369262140D02*
G01*
X118477618Y-369268420D01*
X118568404Y-369295960D01*
X118600336Y-369305646D01*
X118713425Y-369366094D01*
X118812554Y-369447446D01*
X118893906Y-369546575D01*
X118954354Y-369659664D01*
X118962801Y-369687510D01*
X118991580Y-369782382D01*
X119004149Y-369910000D01*
X118991580Y-370037618D01*
X118964040Y-370128404D01*
X118954354Y-370160336D01*
X118893906Y-370273425D01*
X118812554Y-370372554D01*
X118713425Y-370453906D01*
X118600336Y-370514354D01*
X118568404Y-370524040D01*
X118477618Y-370551580D01*
X118413855Y-370557860D01*
X118381974Y-370561000D01*
X117718026Y-370561000D01*
X117686145Y-370557860D01*
X117622382Y-370551580D01*
X117531596Y-370524040D01*
X117499664Y-370514354D01*
X117386575Y-370453906D01*
X117287446Y-370372554D01*
X117206094Y-370273425D01*
X117145646Y-370160336D01*
X117135960Y-370128404D01*
X117108420Y-370037618D01*
X117095851Y-369910000D01*
X117108420Y-369782382D01*
X117137199Y-369687510D01*
X117145646Y-369659664D01*
X117206094Y-369546575D01*
X117287446Y-369447446D01*
X117386575Y-369366094D01*
X117499664Y-369305646D01*
X117531596Y-369295960D01*
X117622382Y-369268420D01*
X117686145Y-369262140D01*
X117718026Y-369259000D01*
X118381974Y-369259000D01*
X118413855Y-369262140D01*
X118413855Y-369262140D01*
G37*
G36*
X114622383Y-369012489D02*
G01*
X114622386Y-369012490D01*
X114622385Y-369012490D01*
X114686258Y-369038946D01*
X114743748Y-369077360D01*
X114792640Y-369126252D01*
X114831054Y-369183742D01*
X114852624Y-369235818D01*
X114857511Y-369247617D01*
X114871000Y-369315430D01*
X114871000Y-369384570D01*
X114857511Y-369452383D01*
X114857510Y-369452385D01*
X114831054Y-369516258D01*
X114792640Y-369573748D01*
X114743748Y-369622640D01*
X114686258Y-369661054D01*
X114634182Y-369682624D01*
X114622383Y-369687511D01*
X114554570Y-369701000D01*
X114485430Y-369701000D01*
X114417617Y-369687511D01*
X114405818Y-369682624D01*
X114353742Y-369661054D01*
X114296252Y-369622640D01*
X114247360Y-369573748D01*
X114208946Y-369516258D01*
X114182490Y-369452385D01*
X114182489Y-369452383D01*
X114169000Y-369384570D01*
X114169000Y-369315430D01*
X114182489Y-369247617D01*
X114187376Y-369235818D01*
X114208946Y-369183742D01*
X114247360Y-369126252D01*
X114296252Y-369077360D01*
X114353742Y-369038946D01*
X114417615Y-369012490D01*
X114417614Y-369012490D01*
X114417617Y-369012489D01*
X114485430Y-368999000D01*
X114554570Y-368999000D01*
X114622383Y-369012489D01*
X114622383Y-369012489D01*
G37*
G36*
X108842383Y-369012489D02*
G01*
X108842386Y-369012490D01*
X108842385Y-369012490D01*
X108906258Y-369038946D01*
X108963748Y-369077360D01*
X109012640Y-369126252D01*
X109051054Y-369183742D01*
X109072624Y-369235818D01*
X109077511Y-369247617D01*
X109091000Y-369315430D01*
X109091000Y-369384570D01*
X109077511Y-369452383D01*
X109077510Y-369452385D01*
X109051054Y-369516258D01*
X109012640Y-369573748D01*
X108963748Y-369622640D01*
X108906258Y-369661054D01*
X108854182Y-369682624D01*
X108842383Y-369687511D01*
X108774570Y-369701000D01*
X108705430Y-369701000D01*
X108637617Y-369687511D01*
X108625818Y-369682624D01*
X108573742Y-369661054D01*
X108516252Y-369622640D01*
X108467360Y-369573748D01*
X108428946Y-369516258D01*
X108402490Y-369452385D01*
X108402489Y-369452383D01*
X108389000Y-369384570D01*
X108389000Y-369315430D01*
X108402489Y-369247617D01*
X108407376Y-369235818D01*
X108428946Y-369183742D01*
X108467360Y-369126252D01*
X108516252Y-369077360D01*
X108573742Y-369038946D01*
X108637615Y-369012490D01*
X108637614Y-369012490D01*
X108637617Y-369012489D01*
X108705430Y-368999000D01*
X108774570Y-368999000D01*
X108842383Y-369012489D01*
X108842383Y-369012489D01*
G37*
G36*
X120983642Y-366839781D02*
G01*
X121129414Y-366900162D01*
X121129416Y-366900163D01*
X121260608Y-366987822D01*
X121372178Y-367099392D01*
X121459837Y-367230584D01*
X121459838Y-367230586D01*
X121520219Y-367376358D01*
X121551000Y-367531107D01*
X121551000Y-367688893D01*
X121520219Y-367843642D01*
X121459838Y-367989414D01*
X121459837Y-367989416D01*
X121372178Y-368120608D01*
X121260608Y-368232178D01*
X121129416Y-368319837D01*
X121129415Y-368319838D01*
X121129414Y-368319838D01*
X120983642Y-368380219D01*
X120828893Y-368411000D01*
X120671107Y-368411000D01*
X120516358Y-368380219D01*
X120370586Y-368319838D01*
X120370585Y-368319838D01*
X120370584Y-368319837D01*
X120239392Y-368232178D01*
X120127822Y-368120608D01*
X120040163Y-367989416D01*
X120040162Y-367989414D01*
X119979781Y-367843642D01*
X119949000Y-367688893D01*
X119949000Y-367531107D01*
X119979781Y-367376358D01*
X120040162Y-367230586D01*
X120040163Y-367230584D01*
X120127822Y-367099392D01*
X120239392Y-366987822D01*
X120370584Y-366900163D01*
X120370586Y-366900162D01*
X120516358Y-366839781D01*
X120671107Y-366809000D01*
X120828893Y-366809000D01*
X120983642Y-366839781D01*
X120983642Y-366839781D01*
G37*
G36*
X127983642Y-366839781D02*
G01*
X128129414Y-366900162D01*
X128129416Y-366900163D01*
X128260608Y-366987822D01*
X128372178Y-367099392D01*
X128459837Y-367230584D01*
X128459838Y-367230586D01*
X128520219Y-367376358D01*
X128551000Y-367531107D01*
X128551000Y-367688893D01*
X128520219Y-367843642D01*
X128459838Y-367989414D01*
X128459837Y-367989416D01*
X128372178Y-368120608D01*
X128260608Y-368232178D01*
X128129416Y-368319837D01*
X128129415Y-368319838D01*
X128129414Y-368319838D01*
X127983642Y-368380219D01*
X127828893Y-368411000D01*
X127671107Y-368411000D01*
X127516358Y-368380219D01*
X127370586Y-368319838D01*
X127370585Y-368319838D01*
X127370584Y-368319837D01*
X127239392Y-368232178D01*
X127127822Y-368120608D01*
X127040163Y-367989416D01*
X127040162Y-367989414D01*
X126979781Y-367843642D01*
X126949000Y-367688893D01*
X126949000Y-367531107D01*
X126979781Y-367376358D01*
X127040162Y-367230586D01*
X127040163Y-367230584D01*
X127127822Y-367099392D01*
X127239392Y-366987822D01*
X127370584Y-366900163D01*
X127370586Y-366900162D01*
X127516358Y-366839781D01*
X127671107Y-366809000D01*
X127828893Y-366809000D01*
X127983642Y-366839781D01*
X127983642Y-366839781D01*
G37*
G36*
X107408213Y-364766249D02*
G01*
X107502652Y-364794897D01*
X107589687Y-364841418D01*
X107665975Y-364904025D01*
X107728582Y-364980313D01*
X107775103Y-365067348D01*
X107803751Y-365161787D01*
X107811000Y-365235388D01*
X107811000Y-366084612D01*
X107803751Y-366158213D01*
X107775103Y-366252652D01*
X107728582Y-366339687D01*
X107665975Y-366415975D01*
X107589687Y-366478582D01*
X107502651Y-366525103D01*
X107408212Y-366553751D01*
X107310000Y-366563424D01*
X107211787Y-366553751D01*
X107117348Y-366525103D01*
X107030313Y-366478582D01*
X106954025Y-366415975D01*
X106891418Y-366339687D01*
X106844897Y-366252651D01*
X106816249Y-366158212D01*
X106809000Y-366084611D01*
X106809000Y-365235398D01*
X106816250Y-365161786D01*
X106826846Y-365126856D01*
X106844898Y-365067348D01*
X106891419Y-364980313D01*
X106954026Y-364904025D01*
X107030314Y-364841418D01*
X107117349Y-364794897D01*
X107211788Y-364766249D01*
X107310000Y-364756576D01*
X107408213Y-364766249D01*
X107408213Y-364766249D01*
G37*
G36*
X116048213Y-364766249D02*
G01*
X116142652Y-364794897D01*
X116229687Y-364841418D01*
X116305975Y-364904025D01*
X116368582Y-364980313D01*
X116415103Y-365067348D01*
X116443751Y-365161787D01*
X116451000Y-365235388D01*
X116451000Y-366084612D01*
X116443751Y-366158213D01*
X116415103Y-366252652D01*
X116368582Y-366339687D01*
X116305975Y-366415975D01*
X116229687Y-366478582D01*
X116142651Y-366525103D01*
X116048212Y-366553751D01*
X115950000Y-366563424D01*
X115851787Y-366553751D01*
X115757348Y-366525103D01*
X115670313Y-366478582D01*
X115594025Y-366415975D01*
X115531418Y-366339687D01*
X115484897Y-366252651D01*
X115456249Y-366158212D01*
X115449000Y-366084611D01*
X115449000Y-365235398D01*
X115456250Y-365161786D01*
X115466846Y-365126856D01*
X115484898Y-365067348D01*
X115531419Y-364980313D01*
X115594026Y-364904025D01*
X115670314Y-364841418D01*
X115757349Y-364794897D01*
X115851788Y-364766249D01*
X115950000Y-364756576D01*
X116048213Y-364766249D01*
X116048213Y-364766249D01*
G37*
G36*
X126513855Y-364662140D02*
G01*
X126577618Y-364668420D01*
X126668404Y-364695960D01*
X126700336Y-364705646D01*
X126813425Y-364766094D01*
X126912554Y-364847446D01*
X126993906Y-364946575D01*
X127054354Y-365059664D01*
X127054355Y-365059668D01*
X127091580Y-365182382D01*
X127104149Y-365310000D01*
X127091580Y-365437618D01*
X127064040Y-365528404D01*
X127054354Y-365560336D01*
X126993906Y-365673425D01*
X126912554Y-365772554D01*
X126813425Y-365853906D01*
X126700336Y-365914354D01*
X126668404Y-365924040D01*
X126577618Y-365951580D01*
X126513855Y-365957860D01*
X126481974Y-365961000D01*
X125818026Y-365961000D01*
X125786145Y-365957860D01*
X125722382Y-365951580D01*
X125631596Y-365924040D01*
X125599664Y-365914354D01*
X125486575Y-365853906D01*
X125387446Y-365772554D01*
X125306094Y-365673425D01*
X125245646Y-365560336D01*
X125235960Y-365528404D01*
X125208420Y-365437618D01*
X125195851Y-365310000D01*
X125208420Y-365182382D01*
X125245645Y-365059668D01*
X125245646Y-365059664D01*
X125306094Y-364946575D01*
X125387446Y-364847446D01*
X125486575Y-364766094D01*
X125599664Y-364705646D01*
X125631596Y-364695960D01*
X125722382Y-364668420D01*
X125786145Y-364662140D01*
X125818026Y-364659000D01*
X126481974Y-364659000D01*
X126513855Y-364662140D01*
X126513855Y-364662140D01*
G37*
G36*
X123513855Y-364662140D02*
G01*
X123577618Y-364668420D01*
X123668404Y-364695960D01*
X123700336Y-364705646D01*
X123813425Y-364766094D01*
X123912554Y-364847446D01*
X123993906Y-364946575D01*
X124054354Y-365059664D01*
X124054355Y-365059668D01*
X124091580Y-365182382D01*
X124104149Y-365310000D01*
X124091580Y-365437618D01*
X124064040Y-365528404D01*
X124054354Y-365560336D01*
X123993906Y-365673425D01*
X123912554Y-365772554D01*
X123813425Y-365853906D01*
X123700336Y-365914354D01*
X123668404Y-365924040D01*
X123577618Y-365951580D01*
X123513855Y-365957860D01*
X123481974Y-365961000D01*
X122818026Y-365961000D01*
X122786145Y-365957860D01*
X122722382Y-365951580D01*
X122631596Y-365924040D01*
X122599664Y-365914354D01*
X122486575Y-365853906D01*
X122387446Y-365772554D01*
X122306094Y-365673425D01*
X122245646Y-365560336D01*
X122235960Y-365528404D01*
X122208420Y-365437618D01*
X122195851Y-365310000D01*
X122208420Y-365182382D01*
X122245645Y-365059668D01*
X122245646Y-365059664D01*
X122306094Y-364946575D01*
X122387446Y-364847446D01*
X122486575Y-364766094D01*
X122599664Y-364705646D01*
X122631596Y-364695960D01*
X122722382Y-364668420D01*
X122786145Y-364662140D01*
X122818026Y-364659000D01*
X123481974Y-364659000D01*
X123513855Y-364662140D01*
X123513855Y-364662140D01*
G37*
G36*
X119513855Y-364662140D02*
G01*
X119577618Y-364668420D01*
X119668404Y-364695960D01*
X119700336Y-364705646D01*
X119813425Y-364766094D01*
X119912554Y-364847446D01*
X119993906Y-364946575D01*
X120054354Y-365059664D01*
X120054355Y-365059668D01*
X120091580Y-365182382D01*
X120104149Y-365310000D01*
X120091580Y-365437618D01*
X120064040Y-365528404D01*
X120054354Y-365560336D01*
X119993906Y-365673425D01*
X119912554Y-365772554D01*
X119813425Y-365853906D01*
X119700336Y-365914354D01*
X119668404Y-365924040D01*
X119577618Y-365951580D01*
X119513855Y-365957860D01*
X119481974Y-365961000D01*
X118818026Y-365961000D01*
X118786145Y-365957860D01*
X118722382Y-365951580D01*
X118631596Y-365924040D01*
X118599664Y-365914354D01*
X118486575Y-365853906D01*
X118387446Y-365772554D01*
X118306094Y-365673425D01*
X118245646Y-365560336D01*
X118235960Y-365528404D01*
X118208420Y-365437618D01*
X118195851Y-365310000D01*
X118208420Y-365182382D01*
X118245645Y-365059668D01*
X118245646Y-365059664D01*
X118306094Y-364946575D01*
X118387446Y-364847446D01*
X118486575Y-364766094D01*
X118599664Y-364705646D01*
X118631596Y-364695960D01*
X118722382Y-364668420D01*
X118786145Y-364662140D01*
X118818026Y-364659000D01*
X119481974Y-364659000D01*
X119513855Y-364662140D01*
X119513855Y-364662140D01*
G37*
M02*
