%FSLAX45Y45*%
G04 Gerber Fmt 4.5, Leading zero omitted, Abs format (unit mm)*
G04 Created by KiCad (PCBNEW (5.1.4)-1) date 2023-09-09 05:32:19*
%MOMM*%
%LPD*%
G04 APERTURE LIST*
%ADD10C,0.050000*%
%ADD11C,0.200000*%
%ADD12C,0.300000*%
G04 APERTURE END LIST*
D10*
X9390000Y-44060000D02*
X9490000Y-43960000D01*
X7580000Y-44060000D02*
X7080000Y-44560000D01*
X9390000Y-44060000D02*
X7580000Y-44060000D01*
X9697500Y-36942500D02*
X10214000Y-36942500D01*
X10214000Y-36942500D02*
X10710000Y-36446295D01*
X9493279Y-39271295D02*
X9493279Y-37366295D01*
X13031480Y-37311016D02*
X13031480Y-36661016D01*
X9493279Y-37366295D02*
X9493279Y-37146295D01*
X7080000Y-44560000D02*
X5670000Y-44560000D01*
X13031480Y-39216016D02*
X13031480Y-37311016D01*
X9493279Y-39271295D02*
X9490000Y-43960000D01*
X12925419Y-47405040D02*
X12003279Y-47491295D01*
X13031346Y-39391871D02*
X13031480Y-39216016D01*
X13033421Y-45883812D02*
X13032185Y-45151986D01*
X6523279Y-46021295D02*
X6543279Y-46021295D01*
X12925419Y-47405040D02*
X13213232Y-46328860D01*
X13033920Y-43349053D02*
X13032767Y-45050023D01*
X13033421Y-45883812D02*
X13213232Y-46328860D01*
X13032185Y-45151986D02*
X13032767Y-45050023D01*
X6523279Y-46021295D02*
X5603279Y-46021295D01*
X12003279Y-47491295D02*
X6543279Y-46021295D01*
X5463279Y-44780000D02*
X5670000Y-44560000D01*
X9697500Y-36942500D02*
X9493279Y-37146295D01*
X5463279Y-44780000D02*
X5463279Y-45901295D01*
X13031346Y-39391871D02*
X13033920Y-43349053D01*
X10710000Y-36446295D02*
X12813279Y-36446295D01*
X13031480Y-36661016D02*
X12813279Y-36446295D01*
X5463279Y-45901295D02*
X5603279Y-46021295D01*
D11*
X10844000Y-36905000D02*
X10904000Y-36965000D01*
X10904000Y-36905000D02*
X10844000Y-36965000D01*
X11422000Y-36905000D02*
X11482000Y-36965000D01*
X11482000Y-36905000D02*
X11422000Y-36965000D01*
X12150000Y-36761000D02*
G75*
G03X12150000Y-36761000I-75000J0D01*
G01*
X12850000Y-36761000D02*
G75*
G03X12850000Y-36761000I-75000J0D01*
G01*
X11600279Y-39658795D02*
X11600279Y-39833795D01*
X11512779Y-39746295D02*
X11687779Y-39746295D01*
X12616279Y-39658795D02*
X12616279Y-39833795D01*
X12528779Y-39746295D02*
X12703779Y-39746295D01*
X7790279Y-44618795D02*
X7790279Y-44793795D01*
X7702779Y-44706295D02*
X7877779Y-44706295D01*
X8806279Y-44618795D02*
X8806279Y-44793795D01*
X8718779Y-44706295D02*
X8893779Y-44706295D01*
X11600279Y-41563795D02*
X11600279Y-41738795D01*
X11512779Y-41651295D02*
X11687779Y-41651295D01*
X12616279Y-41563795D02*
X12616279Y-41738795D01*
X12528779Y-41651295D02*
X12703779Y-41651295D01*
X11600279Y-43468795D02*
X11600279Y-43643795D01*
X11512779Y-43556295D02*
X11687779Y-43556295D01*
X12616279Y-43468795D02*
X12616279Y-43643795D01*
X12528779Y-43556295D02*
X12703779Y-43556295D01*
X9695279Y-41863795D02*
X9695279Y-42038795D01*
X9607779Y-41951295D02*
X9782779Y-41951295D01*
X10711279Y-41863795D02*
X10711279Y-42038795D01*
X10623779Y-41951295D02*
X10798779Y-41951295D01*
X9695279Y-38052500D02*
X9695279Y-38227500D01*
X9607779Y-38140000D02*
X9782779Y-38140000D01*
X10711279Y-38052500D02*
X10711279Y-38227500D01*
X10623779Y-38140000D02*
X10798779Y-38140000D01*
X9695279Y-43768795D02*
X9695279Y-43943795D01*
X9607779Y-43856295D02*
X9782779Y-43856295D01*
X10711279Y-43768795D02*
X10711279Y-43943795D01*
X10623779Y-43856295D02*
X10798779Y-43856295D01*
X11600279Y-37754500D02*
X11600279Y-37929500D01*
X11512779Y-37842000D02*
X11687779Y-37842000D01*
X12616279Y-37754500D02*
X12616279Y-37929500D01*
X12528779Y-37842000D02*
X12703779Y-37842000D01*
X9695279Y-39958795D02*
X9695279Y-40133795D01*
X9607779Y-40046295D02*
X9782779Y-40046295D01*
X10711279Y-39958795D02*
X10711279Y-40133795D01*
X10623779Y-40046295D02*
X10798779Y-40046295D01*
X5885279Y-45118795D02*
X5885279Y-45293795D01*
X5797779Y-45206295D02*
X5972779Y-45206295D01*
X6901279Y-45118795D02*
X6901279Y-45293795D01*
X6813779Y-45206295D02*
X6988779Y-45206295D01*
X11742578Y-38386299D02*
X11742578Y-38177701D01*
X11533980Y-38177701D01*
X11533980Y-38386299D01*
X11742578Y-38386299D01*
X12472578Y-38521299D02*
X12472578Y-38312701D01*
X12263980Y-38312701D01*
X12263980Y-38521299D01*
X12472578Y-38521299D01*
X10047578Y-39575595D02*
X10047578Y-39366996D01*
X9838980Y-39366996D01*
X9838980Y-39575595D01*
X10047578Y-39575595D01*
X10777578Y-39710595D02*
X10777578Y-39501996D01*
X10568980Y-39501996D01*
X10568980Y-39710595D01*
X10777578Y-39710595D01*
X6237578Y-44735595D02*
X6237578Y-44526996D01*
X6028980Y-44526996D01*
X6028980Y-44735595D01*
X6237578Y-44735595D01*
X6967578Y-44870594D02*
X6967578Y-44661996D01*
X6758980Y-44661996D01*
X6758980Y-44870594D01*
X6967578Y-44870594D01*
X11742578Y-40290595D02*
X11742578Y-40081996D01*
X11533980Y-40081996D01*
X11533980Y-40290595D01*
X11742578Y-40290595D01*
X12472578Y-40425595D02*
X12472578Y-40216996D01*
X12263980Y-40216996D01*
X12263980Y-40425595D01*
X12472578Y-40425595D01*
X8142578Y-44235595D02*
X8142578Y-44026996D01*
X7933980Y-44026996D01*
X7933980Y-44235595D01*
X8142578Y-44235595D01*
X8872578Y-44370595D02*
X8872578Y-44161996D01*
X8663980Y-44161996D01*
X8663980Y-44370595D01*
X8872578Y-44370595D01*
X11742578Y-42195595D02*
X11742578Y-41986996D01*
X11533980Y-41986996D01*
X11533980Y-42195595D01*
X11742578Y-42195595D01*
X12472578Y-42330595D02*
X12472578Y-42121996D01*
X12263980Y-42121996D01*
X12263980Y-42330595D01*
X12472578Y-42330595D01*
X11742578Y-44100595D02*
X11742578Y-43891996D01*
X11533980Y-43891996D01*
X11533980Y-44100595D01*
X11742578Y-44100595D01*
X12472578Y-44235595D02*
X12472578Y-44026996D01*
X12263980Y-44026996D01*
X12263980Y-44235595D01*
X12472578Y-44235595D01*
X10047578Y-41480595D02*
X10047578Y-41271996D01*
X9838980Y-41271996D01*
X9838980Y-41480595D01*
X10047578Y-41480595D01*
X10777578Y-41615595D02*
X10777578Y-41406996D01*
X10568980Y-41406996D01*
X10568980Y-41615595D01*
X10777578Y-41615595D01*
X10047578Y-37669299D02*
X10047578Y-37460701D01*
X9838980Y-37460701D01*
X9838980Y-37669299D01*
X10047578Y-37669299D01*
X10777578Y-37804299D02*
X10777578Y-37595701D01*
X10568980Y-37595701D01*
X10568980Y-37804299D01*
X10777578Y-37804299D01*
X10047578Y-43385595D02*
X10047578Y-43176996D01*
X9838980Y-43176996D01*
X9838980Y-43385595D01*
X10047578Y-43385595D01*
X10777578Y-43520595D02*
X10777578Y-43311996D01*
X10568980Y-43311996D01*
X10568980Y-43520595D01*
X10777578Y-43520595D01*
X8044279Y-45364295D02*
X8194279Y-45214295D01*
X8044279Y-45064295D01*
X7894279Y-45214295D01*
X8044279Y-45364295D01*
X8679279Y-45110295D02*
X8829279Y-44960295D01*
X8679279Y-44810295D01*
X8529279Y-44960295D01*
X8679279Y-45110295D01*
X11727279Y-41547295D02*
X11877279Y-41397295D01*
X11727279Y-41247295D01*
X11577279Y-41397295D01*
X11727279Y-41547295D01*
X12362279Y-41293295D02*
X12512279Y-41143295D01*
X12362279Y-40993295D01*
X12212279Y-41143295D01*
X12362279Y-41293295D01*
X11727279Y-43452295D02*
X11877279Y-43302295D01*
X11727279Y-43152295D01*
X11577279Y-43302295D01*
X11727279Y-43452295D01*
X12362279Y-43198295D02*
X12512279Y-43048295D01*
X12362279Y-42898295D01*
X12212279Y-43048295D01*
X12362279Y-43198295D01*
X9949279Y-42609295D02*
X10099279Y-42459295D01*
X9949279Y-42309295D01*
X9799279Y-42459295D01*
X9949279Y-42609295D01*
X10584279Y-42355295D02*
X10734279Y-42205295D01*
X10584279Y-42055295D01*
X10434279Y-42205295D01*
X10584279Y-42355295D01*
X9949279Y-38798000D02*
X10099279Y-38648000D01*
X9949279Y-38498000D01*
X9799279Y-38648000D01*
X9949279Y-38798000D01*
X10584279Y-38544000D02*
X10734279Y-38394000D01*
X10584279Y-38244000D01*
X10434279Y-38394000D01*
X10584279Y-38544000D01*
X9949279Y-44514295D02*
X10099279Y-44364295D01*
X9949279Y-44214295D01*
X9799279Y-44364295D01*
X9949279Y-44514295D01*
X10584279Y-44260295D02*
X10734279Y-44110295D01*
X10584279Y-43960295D01*
X10434279Y-44110295D01*
X10584279Y-44260295D01*
X11727279Y-37738000D02*
X11877279Y-37588000D01*
X11727279Y-37438000D01*
X11577279Y-37588000D01*
X11727279Y-37738000D01*
X12362279Y-37484000D02*
X12512279Y-37334000D01*
X12362279Y-37184000D01*
X12212279Y-37334000D01*
X12362279Y-37484000D01*
X9949279Y-40704295D02*
X10099279Y-40554295D01*
X9949279Y-40404295D01*
X9799279Y-40554295D01*
X9949279Y-40704295D01*
X10584279Y-40450295D02*
X10734279Y-40300295D01*
X10584279Y-40150295D01*
X10434279Y-40300295D01*
X10584279Y-40450295D01*
X6139279Y-45864295D02*
X6289279Y-45714295D01*
X6139279Y-45564295D01*
X5989279Y-45714295D01*
X6139279Y-45864295D01*
X6774279Y-45610295D02*
X6924279Y-45460295D01*
X6774279Y-45310295D01*
X6624279Y-45460295D01*
X6774279Y-45610295D01*
X11727279Y-39642295D02*
X11877279Y-39492295D01*
X11727279Y-39342295D01*
X11577279Y-39492295D01*
X11727279Y-39642295D01*
X12362279Y-39388295D02*
X12512279Y-39238295D01*
X12362279Y-39088295D01*
X12212279Y-39238295D01*
X12362279Y-39388295D01*
X11855779Y-43303795D02*
X12360779Y-43808795D01*
X12360779Y-43303795D02*
X11855779Y-43808795D01*
X12360779Y-43556295D02*
G75*
G03X12360779Y-43556295I-252500J0D01*
G01*
X9950779Y-43603795D02*
X10455779Y-44108795D01*
X10455779Y-43603795D02*
X9950779Y-44108795D01*
X10455779Y-43856295D02*
G75*
G03X10455779Y-43856295I-252500J0D01*
G01*
X9950779Y-39793795D02*
X10455779Y-40298795D01*
X10455779Y-39793795D02*
X9950779Y-40298795D01*
X10455779Y-40046295D02*
G75*
G03X10455779Y-40046295I-252500J0D01*
G01*
X6140779Y-44953795D02*
X6645779Y-45458795D01*
X6645779Y-44953795D02*
X6140779Y-45458795D01*
X6645779Y-45206295D02*
G75*
G03X6645779Y-45206295I-252500J0D01*
G01*
X11855779Y-39493795D02*
X12360779Y-39998795D01*
X12360779Y-39493795D02*
X11855779Y-39998795D01*
X12360779Y-39746295D02*
G75*
G03X12360779Y-39746295I-252500J0D01*
G01*
X8045779Y-44453795D02*
X8550779Y-44958795D01*
X8550779Y-44453795D02*
X8045779Y-44958795D01*
X8550779Y-44706295D02*
G75*
G03X8550779Y-44706295I-252500J0D01*
G01*
X11855779Y-41398795D02*
X12360779Y-41903795D01*
X12360779Y-41398795D02*
X11855779Y-41903795D01*
X12360779Y-41651295D02*
G75*
G03X12360779Y-41651295I-252500J0D01*
G01*
X9950779Y-41698795D02*
X10455779Y-42203795D01*
X10455779Y-41698795D02*
X9950779Y-42203795D01*
X10455779Y-41951295D02*
G75*
G03X10455779Y-41951295I-252500J0D01*
G01*
X9950779Y-37887500D02*
X10455779Y-38392500D01*
X10455779Y-37887500D02*
X9950779Y-38392500D01*
X10455779Y-38140000D02*
G75*
G03X10455779Y-38140000I-252500J0D01*
G01*
X11855779Y-37589500D02*
X12360779Y-38094500D01*
X12360779Y-37589500D02*
X11855779Y-38094500D01*
X12360779Y-37842000D02*
G75*
G03X12360779Y-37842000I-252500J0D01*
G01*
D12*
X5747207Y-47959509D02*
X5747207Y-47659509D01*
X5818636Y-47659509D01*
X5861493Y-47673795D01*
X5890064Y-47702367D01*
X5904350Y-47730938D01*
X5918636Y-47788081D01*
X5918636Y-47830938D01*
X5904350Y-47888081D01*
X5890064Y-47916652D01*
X5861493Y-47945224D01*
X5818636Y-47959509D01*
X5747207Y-47959509D01*
X6047207Y-47959509D02*
X6047207Y-47759509D01*
X6047207Y-47816652D02*
X6061493Y-47788081D01*
X6075779Y-47773795D01*
X6104350Y-47759509D01*
X6132922Y-47759509D01*
X6232922Y-47959509D02*
X6232922Y-47759509D01*
X6232922Y-47659509D02*
X6218636Y-47673795D01*
X6232922Y-47688081D01*
X6247207Y-47673795D01*
X6232922Y-47659509D01*
X6232922Y-47688081D01*
X6418636Y-47959509D02*
X6390064Y-47945224D01*
X6375779Y-47916652D01*
X6375779Y-47659509D01*
X6575779Y-47959509D02*
X6547207Y-47945224D01*
X6532922Y-47916652D01*
X6532922Y-47659509D01*
X6918636Y-47959509D02*
X6918636Y-47659509D01*
X7018636Y-47873795D01*
X7118636Y-47659509D01*
X7118636Y-47959509D01*
X7390064Y-47959509D02*
X7390064Y-47802367D01*
X7375779Y-47773795D01*
X7347207Y-47759509D01*
X7290064Y-47759509D01*
X7261493Y-47773795D01*
X7390064Y-47945224D02*
X7361493Y-47959509D01*
X7290064Y-47959509D01*
X7261493Y-47945224D01*
X7247207Y-47916652D01*
X7247207Y-47888081D01*
X7261493Y-47859509D01*
X7290064Y-47845224D01*
X7361493Y-47845224D01*
X7390064Y-47830938D01*
X7532922Y-47759509D02*
X7532922Y-48059509D01*
X7532922Y-47773795D02*
X7561493Y-47759509D01*
X7618636Y-47759509D01*
X7647207Y-47773795D01*
X7661493Y-47788081D01*
X7675779Y-47816652D01*
X7675779Y-47902367D01*
X7661493Y-47930938D01*
X7647207Y-47945224D01*
X7618636Y-47959509D01*
X7561493Y-47959509D01*
X7532922Y-47945224D01*
X7804350Y-47930938D02*
X7818636Y-47945224D01*
X7804350Y-47959509D01*
X7790064Y-47945224D01*
X7804350Y-47930938D01*
X7804350Y-47959509D01*
X7804350Y-47773795D02*
X7818636Y-47788081D01*
X7804350Y-47802367D01*
X7790064Y-47788081D01*
X7804350Y-47773795D01*
X7804350Y-47802367D01*
X5400779Y-48423795D02*
X5460779Y-48483795D01*
X5460779Y-48423795D02*
X5400779Y-48483795D01*
X5804350Y-48289509D02*
X5832922Y-48289509D01*
X5861493Y-48303795D01*
X5875779Y-48318081D01*
X5890064Y-48346652D01*
X5904350Y-48403795D01*
X5904350Y-48475224D01*
X5890064Y-48532367D01*
X5875779Y-48560938D01*
X5861493Y-48575224D01*
X5832922Y-48589509D01*
X5804350Y-48589509D01*
X5775779Y-48575224D01*
X5761493Y-48560938D01*
X5747207Y-48532367D01*
X5732922Y-48475224D01*
X5732922Y-48403795D01*
X5747207Y-48346652D01*
X5761493Y-48318081D01*
X5775779Y-48303795D01*
X5804350Y-48289509D01*
X6032922Y-48560938D02*
X6047207Y-48575224D01*
X6032922Y-48589509D01*
X6018636Y-48575224D01*
X6032922Y-48560938D01*
X6032922Y-48589509D01*
X6304350Y-48289509D02*
X6247207Y-48289509D01*
X6218636Y-48303795D01*
X6204350Y-48318081D01*
X6175779Y-48360938D01*
X6161493Y-48418081D01*
X6161493Y-48532367D01*
X6175779Y-48560938D01*
X6190064Y-48575224D01*
X6218636Y-48589509D01*
X6275779Y-48589509D01*
X6304350Y-48575224D01*
X6318636Y-48560938D01*
X6332922Y-48532367D01*
X6332922Y-48460938D01*
X6318636Y-48432367D01*
X6304350Y-48418081D01*
X6275779Y-48403795D01*
X6218636Y-48403795D01*
X6190064Y-48418081D01*
X6175779Y-48432367D01*
X6161493Y-48460938D01*
X6518636Y-48289509D02*
X6547207Y-48289509D01*
X6575779Y-48303795D01*
X6590064Y-48318081D01*
X6604350Y-48346652D01*
X6618636Y-48403795D01*
X6618636Y-48475224D01*
X6604350Y-48532367D01*
X6590064Y-48560938D01*
X6575779Y-48575224D01*
X6547207Y-48589509D01*
X6518636Y-48589509D01*
X6490064Y-48575224D01*
X6475779Y-48560938D01*
X6461493Y-48532367D01*
X6447207Y-48475224D01*
X6447207Y-48403795D01*
X6461493Y-48346652D01*
X6475779Y-48318081D01*
X6490064Y-48303795D01*
X6518636Y-48289509D01*
X6747207Y-48589509D02*
X6747207Y-48389509D01*
X6747207Y-48418081D02*
X6761493Y-48403795D01*
X6790064Y-48389509D01*
X6832922Y-48389509D01*
X6861493Y-48403795D01*
X6875779Y-48432367D01*
X6875779Y-48589509D01*
X6875779Y-48432367D02*
X6890064Y-48403795D01*
X6918636Y-48389509D01*
X6961493Y-48389509D01*
X6990064Y-48403795D01*
X7004350Y-48432367D01*
X7004350Y-48589509D01*
X7147207Y-48589509D02*
X7147207Y-48389509D01*
X7147207Y-48418081D02*
X7161493Y-48403795D01*
X7190064Y-48389509D01*
X7232922Y-48389509D01*
X7261493Y-48403795D01*
X7275779Y-48432367D01*
X7275779Y-48589509D01*
X7275779Y-48432367D02*
X7290064Y-48403795D01*
X7318636Y-48389509D01*
X7361493Y-48389509D01*
X7390064Y-48403795D01*
X7404350Y-48432367D01*
X7404350Y-48589509D01*
X7990064Y-48275224D02*
X7732922Y-48660938D01*
X8375779Y-48289509D02*
X8404350Y-48289509D01*
X8432922Y-48303795D01*
X8447207Y-48318081D01*
X8461493Y-48346652D01*
X8475779Y-48403795D01*
X8475779Y-48475224D01*
X8461493Y-48532367D01*
X8447207Y-48560938D01*
X8432922Y-48575224D01*
X8404350Y-48589509D01*
X8375779Y-48589509D01*
X8347207Y-48575224D01*
X8332922Y-48560938D01*
X8318636Y-48532367D01*
X8304350Y-48475224D01*
X8304350Y-48403795D01*
X8318636Y-48346652D01*
X8332922Y-48318081D01*
X8347207Y-48303795D01*
X8375779Y-48289509D01*
X8604350Y-48560938D02*
X8618636Y-48575224D01*
X8604350Y-48589509D01*
X8590065Y-48575224D01*
X8604350Y-48560938D01*
X8604350Y-48589509D01*
X8804350Y-48289509D02*
X8832922Y-48289509D01*
X8861493Y-48303795D01*
X8875779Y-48318081D01*
X8890065Y-48346652D01*
X8904350Y-48403795D01*
X8904350Y-48475224D01*
X8890065Y-48532367D01*
X8875779Y-48560938D01*
X8861493Y-48575224D01*
X8832922Y-48589509D01*
X8804350Y-48589509D01*
X8775779Y-48575224D01*
X8761493Y-48560938D01*
X8747207Y-48532367D01*
X8732922Y-48475224D01*
X8732922Y-48403795D01*
X8747207Y-48346652D01*
X8761493Y-48318081D01*
X8775779Y-48303795D01*
X8804350Y-48289509D01*
X9018636Y-48318081D02*
X9032922Y-48303795D01*
X9061493Y-48289509D01*
X9132922Y-48289509D01*
X9161493Y-48303795D01*
X9175779Y-48318081D01*
X9190065Y-48346652D01*
X9190065Y-48375224D01*
X9175779Y-48418081D01*
X9004350Y-48589509D01*
X9190065Y-48589509D01*
X9447207Y-48389509D02*
X9447207Y-48589509D01*
X9375779Y-48275224D02*
X9304350Y-48489509D01*
X9490065Y-48489509D01*
X9590065Y-48289509D02*
X9590065Y-48346652D01*
X9704350Y-48289509D02*
X9704350Y-48346652D01*
X10147207Y-48703795D02*
X10132922Y-48689509D01*
X10104350Y-48646652D01*
X10090065Y-48618081D01*
X10075779Y-48575224D01*
X10061493Y-48503795D01*
X10061493Y-48446652D01*
X10075779Y-48375224D01*
X10090065Y-48332367D01*
X10104350Y-48303795D01*
X10132922Y-48260938D01*
X10147207Y-48246652D01*
X10247207Y-48318081D02*
X10261493Y-48303795D01*
X10290065Y-48289509D01*
X10361493Y-48289509D01*
X10390065Y-48303795D01*
X10404350Y-48318081D01*
X10418636Y-48346652D01*
X10418636Y-48375224D01*
X10404350Y-48418081D01*
X10232922Y-48589509D01*
X10418636Y-48589509D01*
X10775779Y-48589509D02*
X10775779Y-48289509D01*
X10904350Y-48589509D02*
X10904350Y-48432367D01*
X10890065Y-48403795D01*
X10861493Y-48389509D01*
X10818636Y-48389509D01*
X10790065Y-48403795D01*
X10775779Y-48418081D01*
X11090065Y-48589509D02*
X11061493Y-48575224D01*
X11047207Y-48560938D01*
X11032922Y-48532367D01*
X11032922Y-48446652D01*
X11047207Y-48418081D01*
X11061493Y-48403795D01*
X11090065Y-48389509D01*
X11132922Y-48389509D01*
X11161493Y-48403795D01*
X11175779Y-48418081D01*
X11190064Y-48446652D01*
X11190064Y-48532367D01*
X11175779Y-48560938D01*
X11161493Y-48575224D01*
X11132922Y-48589509D01*
X11090065Y-48589509D01*
X11361493Y-48589509D02*
X11332922Y-48575224D01*
X11318636Y-48546652D01*
X11318636Y-48289509D01*
X11590064Y-48575224D02*
X11561493Y-48589509D01*
X11504350Y-48589509D01*
X11475779Y-48575224D01*
X11461493Y-48546652D01*
X11461493Y-48432367D01*
X11475779Y-48403795D01*
X11504350Y-48389509D01*
X11561493Y-48389509D01*
X11590064Y-48403795D01*
X11604350Y-48432367D01*
X11604350Y-48460938D01*
X11461493Y-48489509D01*
X11718636Y-48575224D02*
X11747207Y-48589509D01*
X11804350Y-48589509D01*
X11832922Y-48575224D01*
X11847207Y-48546652D01*
X11847207Y-48532367D01*
X11832922Y-48503795D01*
X11804350Y-48489509D01*
X11761493Y-48489509D01*
X11732922Y-48475224D01*
X11718636Y-48446652D01*
X11718636Y-48432367D01*
X11732922Y-48403795D01*
X11761493Y-48389509D01*
X11804350Y-48389509D01*
X11832922Y-48403795D01*
X11947207Y-48703795D02*
X11961493Y-48689509D01*
X11990064Y-48646652D01*
X12004350Y-48618081D01*
X12018636Y-48575224D01*
X12032922Y-48503795D01*
X12032922Y-48446652D01*
X12018636Y-48375224D01*
X12004350Y-48332367D01*
X11990064Y-48303795D01*
X11961493Y-48260938D01*
X11947207Y-48246652D01*
X12490064Y-48703795D02*
X12475779Y-48689509D01*
X12447207Y-48646652D01*
X12432922Y-48618081D01*
X12418636Y-48575224D01*
X12404350Y-48503795D01*
X12404350Y-48446652D01*
X12418636Y-48375224D01*
X12432922Y-48332367D01*
X12447207Y-48303795D01*
X12475779Y-48260938D01*
X12490064Y-48246652D01*
X12604350Y-48389509D02*
X12604350Y-48589509D01*
X12604350Y-48418081D02*
X12618636Y-48403795D01*
X12647207Y-48389509D01*
X12690064Y-48389509D01*
X12718636Y-48403795D01*
X12732922Y-48432367D01*
X12732922Y-48589509D01*
X12918636Y-48589509D02*
X12890064Y-48575224D01*
X12875779Y-48560938D01*
X12861493Y-48532367D01*
X12861493Y-48446652D01*
X12875779Y-48418081D01*
X12890064Y-48403795D01*
X12918636Y-48389509D01*
X12961493Y-48389509D01*
X12990064Y-48403795D01*
X13004350Y-48418081D01*
X13018636Y-48446652D01*
X13018636Y-48532367D01*
X13004350Y-48560938D01*
X12990064Y-48575224D01*
X12961493Y-48589509D01*
X12918636Y-48589509D01*
X13104350Y-48389509D02*
X13218636Y-48389509D01*
X13147207Y-48289509D02*
X13147207Y-48546652D01*
X13161493Y-48575224D01*
X13190064Y-48589509D01*
X13218636Y-48589509D01*
X13547207Y-48389509D02*
X13547207Y-48689509D01*
X13547207Y-48403795D02*
X13575779Y-48389509D01*
X13632922Y-48389509D01*
X13661493Y-48403795D01*
X13675779Y-48418081D01*
X13690064Y-48446652D01*
X13690064Y-48532367D01*
X13675779Y-48560938D01*
X13661493Y-48575224D01*
X13632922Y-48589509D01*
X13575779Y-48589509D01*
X13547207Y-48575224D01*
X13861493Y-48589509D02*
X13832922Y-48575224D01*
X13818636Y-48546652D01*
X13818636Y-48289509D01*
X14104350Y-48589509D02*
X14104350Y-48432367D01*
X14090064Y-48403795D01*
X14061493Y-48389509D01*
X14004350Y-48389509D01*
X13975779Y-48403795D01*
X14104350Y-48575224D02*
X14075779Y-48589509D01*
X14004350Y-48589509D01*
X13975779Y-48575224D01*
X13961493Y-48546652D01*
X13961493Y-48518081D01*
X13975779Y-48489509D01*
X14004350Y-48475224D01*
X14075779Y-48475224D01*
X14104350Y-48460938D01*
X14204350Y-48389509D02*
X14318636Y-48389509D01*
X14247207Y-48289509D02*
X14247207Y-48546652D01*
X14261493Y-48575224D01*
X14290064Y-48589509D01*
X14318636Y-48589509D01*
X14532922Y-48575224D02*
X14504350Y-48589509D01*
X14447207Y-48589509D01*
X14418636Y-48575224D01*
X14404350Y-48546652D01*
X14404350Y-48432367D01*
X14418636Y-48403795D01*
X14447207Y-48389509D01*
X14504350Y-48389509D01*
X14532922Y-48403795D01*
X14547207Y-48432367D01*
X14547207Y-48460938D01*
X14404350Y-48489509D01*
X14804350Y-48589509D02*
X14804350Y-48289509D01*
X14804350Y-48575224D02*
X14775779Y-48589509D01*
X14718636Y-48589509D01*
X14690064Y-48575224D01*
X14675779Y-48560938D01*
X14661493Y-48532367D01*
X14661493Y-48446652D01*
X14675779Y-48418081D01*
X14690064Y-48403795D01*
X14718636Y-48389509D01*
X14775779Y-48389509D01*
X14804350Y-48403795D01*
X14918636Y-48703795D02*
X14932922Y-48689509D01*
X14961493Y-48646652D01*
X14975779Y-48618081D01*
X14990064Y-48575224D01*
X15004350Y-48503795D01*
X15004350Y-48446652D01*
X14990064Y-48375224D01*
X14975779Y-48332367D01*
X14961493Y-48303795D01*
X14932922Y-48260938D01*
X14918636Y-48246652D01*
X5460779Y-48849795D02*
G75*
G03X5460779Y-48849795I-75000J0D01*
G01*
X5904350Y-48985509D02*
X5732922Y-48985509D01*
X5818636Y-48985509D02*
X5818636Y-48685509D01*
X5790064Y-48728367D01*
X5761493Y-48756938D01*
X5732922Y-48771224D01*
X6032922Y-48956938D02*
X6047207Y-48971224D01*
X6032922Y-48985509D01*
X6018636Y-48971224D01*
X6032922Y-48956938D01*
X6032922Y-48985509D01*
X6318636Y-48685509D02*
X6175779Y-48685509D01*
X6161493Y-48828367D01*
X6175779Y-48814081D01*
X6204350Y-48799795D01*
X6275779Y-48799795D01*
X6304350Y-48814081D01*
X6318636Y-48828367D01*
X6332922Y-48856938D01*
X6332922Y-48928367D01*
X6318636Y-48956938D01*
X6304350Y-48971224D01*
X6275779Y-48985509D01*
X6204350Y-48985509D01*
X6175779Y-48971224D01*
X6161493Y-48956938D01*
X6518636Y-48685509D02*
X6547207Y-48685509D01*
X6575779Y-48699795D01*
X6590064Y-48714081D01*
X6604350Y-48742652D01*
X6618636Y-48799795D01*
X6618636Y-48871224D01*
X6604350Y-48928367D01*
X6590064Y-48956938D01*
X6575779Y-48971224D01*
X6547207Y-48985509D01*
X6518636Y-48985509D01*
X6490064Y-48971224D01*
X6475779Y-48956938D01*
X6461493Y-48928367D01*
X6447207Y-48871224D01*
X6447207Y-48799795D01*
X6461493Y-48742652D01*
X6475779Y-48714081D01*
X6490064Y-48699795D01*
X6518636Y-48685509D01*
X6747207Y-48985509D02*
X6747207Y-48785509D01*
X6747207Y-48814081D02*
X6761493Y-48799795D01*
X6790064Y-48785509D01*
X6832922Y-48785509D01*
X6861493Y-48799795D01*
X6875779Y-48828367D01*
X6875779Y-48985509D01*
X6875779Y-48828367D02*
X6890064Y-48799795D01*
X6918636Y-48785509D01*
X6961493Y-48785509D01*
X6990064Y-48799795D01*
X7004350Y-48828367D01*
X7004350Y-48985509D01*
X7147207Y-48985509D02*
X7147207Y-48785509D01*
X7147207Y-48814081D02*
X7161493Y-48799795D01*
X7190064Y-48785509D01*
X7232922Y-48785509D01*
X7261493Y-48799795D01*
X7275779Y-48828367D01*
X7275779Y-48985509D01*
X7275779Y-48828367D02*
X7290064Y-48799795D01*
X7318636Y-48785509D01*
X7361493Y-48785509D01*
X7390064Y-48799795D01*
X7404350Y-48828367D01*
X7404350Y-48985509D01*
X7990064Y-48671224D02*
X7732922Y-49056938D01*
X8375779Y-48685509D02*
X8404350Y-48685509D01*
X8432922Y-48699795D01*
X8447207Y-48714081D01*
X8461493Y-48742652D01*
X8475779Y-48799795D01*
X8475779Y-48871224D01*
X8461493Y-48928367D01*
X8447207Y-48956938D01*
X8432922Y-48971224D01*
X8404350Y-48985509D01*
X8375779Y-48985509D01*
X8347207Y-48971224D01*
X8332922Y-48956938D01*
X8318636Y-48928367D01*
X8304350Y-48871224D01*
X8304350Y-48799795D01*
X8318636Y-48742652D01*
X8332922Y-48714081D01*
X8347207Y-48699795D01*
X8375779Y-48685509D01*
X8604350Y-48956938D02*
X8618636Y-48971224D01*
X8604350Y-48985509D01*
X8590065Y-48971224D01*
X8604350Y-48956938D01*
X8604350Y-48985509D01*
X8804350Y-48685509D02*
X8832922Y-48685509D01*
X8861493Y-48699795D01*
X8875779Y-48714081D01*
X8890065Y-48742652D01*
X8904350Y-48799795D01*
X8904350Y-48871224D01*
X8890065Y-48928367D01*
X8875779Y-48956938D01*
X8861493Y-48971224D01*
X8832922Y-48985509D01*
X8804350Y-48985509D01*
X8775779Y-48971224D01*
X8761493Y-48956938D01*
X8747207Y-48928367D01*
X8732922Y-48871224D01*
X8732922Y-48799795D01*
X8747207Y-48742652D01*
X8761493Y-48714081D01*
X8775779Y-48699795D01*
X8804350Y-48685509D01*
X9175779Y-48685509D02*
X9032922Y-48685509D01*
X9018636Y-48828367D01*
X9032922Y-48814081D01*
X9061493Y-48799795D01*
X9132922Y-48799795D01*
X9161493Y-48814081D01*
X9175779Y-48828367D01*
X9190065Y-48856938D01*
X9190065Y-48928367D01*
X9175779Y-48956938D01*
X9161493Y-48971224D01*
X9132922Y-48985509D01*
X9061493Y-48985509D01*
X9032922Y-48971224D01*
X9018636Y-48956938D01*
X9332922Y-48985509D02*
X9390065Y-48985509D01*
X9418636Y-48971224D01*
X9432922Y-48956938D01*
X9461493Y-48914081D01*
X9475779Y-48856938D01*
X9475779Y-48742652D01*
X9461493Y-48714081D01*
X9447207Y-48699795D01*
X9418636Y-48685509D01*
X9361493Y-48685509D01*
X9332922Y-48699795D01*
X9318636Y-48714081D01*
X9304350Y-48742652D01*
X9304350Y-48814081D01*
X9318636Y-48842652D01*
X9332922Y-48856938D01*
X9361493Y-48871224D01*
X9418636Y-48871224D01*
X9447207Y-48856938D01*
X9461493Y-48842652D01*
X9475779Y-48814081D01*
X9590065Y-48685509D02*
X9590065Y-48742652D01*
X9704350Y-48685509D02*
X9704350Y-48742652D01*
X10147207Y-49099795D02*
X10132922Y-49085509D01*
X10104350Y-49042652D01*
X10090065Y-49014081D01*
X10075779Y-48971224D01*
X10061493Y-48899795D01*
X10061493Y-48842652D01*
X10075779Y-48771224D01*
X10090065Y-48728367D01*
X10104350Y-48699795D01*
X10132922Y-48656938D01*
X10147207Y-48642652D01*
X10247207Y-48714081D02*
X10261493Y-48699795D01*
X10290065Y-48685509D01*
X10361493Y-48685509D01*
X10390065Y-48699795D01*
X10404350Y-48714081D01*
X10418636Y-48742652D01*
X10418636Y-48771224D01*
X10404350Y-48814081D01*
X10232922Y-48985509D01*
X10418636Y-48985509D01*
X10775779Y-48985509D02*
X10775779Y-48685509D01*
X10904350Y-48985509D02*
X10904350Y-48828367D01*
X10890065Y-48799795D01*
X10861493Y-48785509D01*
X10818636Y-48785509D01*
X10790065Y-48799795D01*
X10775779Y-48814081D01*
X11090065Y-48985509D02*
X11061493Y-48971224D01*
X11047207Y-48956938D01*
X11032922Y-48928367D01*
X11032922Y-48842652D01*
X11047207Y-48814081D01*
X11061493Y-48799795D01*
X11090065Y-48785509D01*
X11132922Y-48785509D01*
X11161493Y-48799795D01*
X11175779Y-48814081D01*
X11190064Y-48842652D01*
X11190064Y-48928367D01*
X11175779Y-48956938D01*
X11161493Y-48971224D01*
X11132922Y-48985509D01*
X11090065Y-48985509D01*
X11361493Y-48985509D02*
X11332922Y-48971224D01*
X11318636Y-48942652D01*
X11318636Y-48685509D01*
X11590064Y-48971224D02*
X11561493Y-48985509D01*
X11504350Y-48985509D01*
X11475779Y-48971224D01*
X11461493Y-48942652D01*
X11461493Y-48828367D01*
X11475779Y-48799795D01*
X11504350Y-48785509D01*
X11561493Y-48785509D01*
X11590064Y-48799795D01*
X11604350Y-48828367D01*
X11604350Y-48856938D01*
X11461493Y-48885509D01*
X11718636Y-48971224D02*
X11747207Y-48985509D01*
X11804350Y-48985509D01*
X11832922Y-48971224D01*
X11847207Y-48942652D01*
X11847207Y-48928367D01*
X11832922Y-48899795D01*
X11804350Y-48885509D01*
X11761493Y-48885509D01*
X11732922Y-48871224D01*
X11718636Y-48842652D01*
X11718636Y-48828367D01*
X11732922Y-48799795D01*
X11761493Y-48785509D01*
X11804350Y-48785509D01*
X11832922Y-48799795D01*
X11947207Y-49099795D02*
X11961493Y-49085509D01*
X11990064Y-49042652D01*
X12004350Y-49014081D01*
X12018636Y-48971224D01*
X12032922Y-48899795D01*
X12032922Y-48842652D01*
X12018636Y-48771224D01*
X12004350Y-48728367D01*
X11990064Y-48699795D01*
X11961493Y-48656938D01*
X11947207Y-48642652D01*
X12490064Y-49099795D02*
X12475779Y-49085509D01*
X12447207Y-49042652D01*
X12432922Y-49014081D01*
X12418636Y-48971224D01*
X12404350Y-48899795D01*
X12404350Y-48842652D01*
X12418636Y-48771224D01*
X12432922Y-48728367D01*
X12447207Y-48699795D01*
X12475779Y-48656938D01*
X12490064Y-48642652D01*
X12604350Y-48785509D02*
X12604350Y-48985509D01*
X12604350Y-48814081D02*
X12618636Y-48799795D01*
X12647207Y-48785509D01*
X12690064Y-48785509D01*
X12718636Y-48799795D01*
X12732922Y-48828367D01*
X12732922Y-48985509D01*
X12918636Y-48985509D02*
X12890064Y-48971224D01*
X12875779Y-48956938D01*
X12861493Y-48928367D01*
X12861493Y-48842652D01*
X12875779Y-48814081D01*
X12890064Y-48799795D01*
X12918636Y-48785509D01*
X12961493Y-48785509D01*
X12990064Y-48799795D01*
X13004350Y-48814081D01*
X13018636Y-48842652D01*
X13018636Y-48928367D01*
X13004350Y-48956938D01*
X12990064Y-48971224D01*
X12961493Y-48985509D01*
X12918636Y-48985509D01*
X13104350Y-48785509D02*
X13218636Y-48785509D01*
X13147207Y-48685509D02*
X13147207Y-48942652D01*
X13161493Y-48971224D01*
X13190064Y-48985509D01*
X13218636Y-48985509D01*
X13547207Y-48785509D02*
X13547207Y-49085509D01*
X13547207Y-48799795D02*
X13575779Y-48785509D01*
X13632922Y-48785509D01*
X13661493Y-48799795D01*
X13675779Y-48814081D01*
X13690064Y-48842652D01*
X13690064Y-48928367D01*
X13675779Y-48956938D01*
X13661493Y-48971224D01*
X13632922Y-48985509D01*
X13575779Y-48985509D01*
X13547207Y-48971224D01*
X13861493Y-48985509D02*
X13832922Y-48971224D01*
X13818636Y-48942652D01*
X13818636Y-48685509D01*
X14104350Y-48985509D02*
X14104350Y-48828367D01*
X14090064Y-48799795D01*
X14061493Y-48785509D01*
X14004350Y-48785509D01*
X13975779Y-48799795D01*
X14104350Y-48971224D02*
X14075779Y-48985509D01*
X14004350Y-48985509D01*
X13975779Y-48971224D01*
X13961493Y-48942652D01*
X13961493Y-48914081D01*
X13975779Y-48885509D01*
X14004350Y-48871224D01*
X14075779Y-48871224D01*
X14104350Y-48856938D01*
X14204350Y-48785509D02*
X14318636Y-48785509D01*
X14247207Y-48685509D02*
X14247207Y-48942652D01*
X14261493Y-48971224D01*
X14290064Y-48985509D01*
X14318636Y-48985509D01*
X14532922Y-48971224D02*
X14504350Y-48985509D01*
X14447207Y-48985509D01*
X14418636Y-48971224D01*
X14404350Y-48942652D01*
X14404350Y-48828367D01*
X14418636Y-48799795D01*
X14447207Y-48785509D01*
X14504350Y-48785509D01*
X14532922Y-48799795D01*
X14547207Y-48828367D01*
X14547207Y-48856938D01*
X14404350Y-48885509D01*
X14804350Y-48985509D02*
X14804350Y-48685509D01*
X14804350Y-48971224D02*
X14775779Y-48985509D01*
X14718636Y-48985509D01*
X14690064Y-48971224D01*
X14675779Y-48956938D01*
X14661493Y-48928367D01*
X14661493Y-48842652D01*
X14675779Y-48814081D01*
X14690064Y-48799795D01*
X14718636Y-48785509D01*
X14775779Y-48785509D01*
X14804350Y-48799795D01*
X14918636Y-49099795D02*
X14932922Y-49085509D01*
X14961493Y-49042652D01*
X14975779Y-49014081D01*
X14990064Y-48971224D01*
X15004350Y-48899795D01*
X15004350Y-48842652D01*
X14990064Y-48771224D01*
X14975779Y-48728367D01*
X14961493Y-48699795D01*
X14932922Y-48656938D01*
X14918636Y-48642652D01*
X5373279Y-49158295D02*
X5373279Y-49333295D01*
X5285779Y-49245795D02*
X5460779Y-49245795D01*
X5904350Y-49381509D02*
X5732922Y-49381509D01*
X5818636Y-49381509D02*
X5818636Y-49081509D01*
X5790064Y-49124367D01*
X5761493Y-49152938D01*
X5732922Y-49167224D01*
X6032922Y-49352938D02*
X6047207Y-49367224D01*
X6032922Y-49381509D01*
X6018636Y-49367224D01*
X6032922Y-49352938D01*
X6032922Y-49381509D01*
X6147207Y-49081509D02*
X6347207Y-49081509D01*
X6218636Y-49381509D01*
X6604350Y-49081509D02*
X6461493Y-49081509D01*
X6447207Y-49224367D01*
X6461493Y-49210081D01*
X6490064Y-49195795D01*
X6561493Y-49195795D01*
X6590064Y-49210081D01*
X6604350Y-49224367D01*
X6618636Y-49252938D01*
X6618636Y-49324367D01*
X6604350Y-49352938D01*
X6590064Y-49367224D01*
X6561493Y-49381509D01*
X6490064Y-49381509D01*
X6461493Y-49367224D01*
X6447207Y-49352938D01*
X6747207Y-49381509D02*
X6747207Y-49181509D01*
X6747207Y-49210081D02*
X6761493Y-49195795D01*
X6790064Y-49181509D01*
X6832922Y-49181509D01*
X6861493Y-49195795D01*
X6875779Y-49224367D01*
X6875779Y-49381509D01*
X6875779Y-49224367D02*
X6890064Y-49195795D01*
X6918636Y-49181509D01*
X6961493Y-49181509D01*
X6990064Y-49195795D01*
X7004350Y-49224367D01*
X7004350Y-49381509D01*
X7147207Y-49381509D02*
X7147207Y-49181509D01*
X7147207Y-49210081D02*
X7161493Y-49195795D01*
X7190064Y-49181509D01*
X7232922Y-49181509D01*
X7261493Y-49195795D01*
X7275779Y-49224367D01*
X7275779Y-49381509D01*
X7275779Y-49224367D02*
X7290064Y-49195795D01*
X7318636Y-49181509D01*
X7361493Y-49181509D01*
X7390064Y-49195795D01*
X7404350Y-49224367D01*
X7404350Y-49381509D01*
X7990064Y-49067224D02*
X7732922Y-49452938D01*
X8375779Y-49081509D02*
X8404350Y-49081509D01*
X8432922Y-49095795D01*
X8447207Y-49110081D01*
X8461493Y-49138652D01*
X8475779Y-49195795D01*
X8475779Y-49267224D01*
X8461493Y-49324367D01*
X8447207Y-49352938D01*
X8432922Y-49367224D01*
X8404350Y-49381509D01*
X8375779Y-49381509D01*
X8347207Y-49367224D01*
X8332922Y-49352938D01*
X8318636Y-49324367D01*
X8304350Y-49267224D01*
X8304350Y-49195795D01*
X8318636Y-49138652D01*
X8332922Y-49110081D01*
X8347207Y-49095795D01*
X8375779Y-49081509D01*
X8604350Y-49352938D02*
X8618636Y-49367224D01*
X8604350Y-49381509D01*
X8590065Y-49367224D01*
X8604350Y-49352938D01*
X8604350Y-49381509D01*
X8804350Y-49081509D02*
X8832922Y-49081509D01*
X8861493Y-49095795D01*
X8875779Y-49110081D01*
X8890065Y-49138652D01*
X8904350Y-49195795D01*
X8904350Y-49267224D01*
X8890065Y-49324367D01*
X8875779Y-49352938D01*
X8861493Y-49367224D01*
X8832922Y-49381509D01*
X8804350Y-49381509D01*
X8775779Y-49367224D01*
X8761493Y-49352938D01*
X8747207Y-49324367D01*
X8732922Y-49267224D01*
X8732922Y-49195795D01*
X8747207Y-49138652D01*
X8761493Y-49110081D01*
X8775779Y-49095795D01*
X8804350Y-49081509D01*
X9161493Y-49081509D02*
X9104350Y-49081509D01*
X9075779Y-49095795D01*
X9061493Y-49110081D01*
X9032922Y-49152938D01*
X9018636Y-49210081D01*
X9018636Y-49324367D01*
X9032922Y-49352938D01*
X9047207Y-49367224D01*
X9075779Y-49381509D01*
X9132922Y-49381509D01*
X9161493Y-49367224D01*
X9175779Y-49352938D01*
X9190065Y-49324367D01*
X9190065Y-49252938D01*
X9175779Y-49224367D01*
X9161493Y-49210081D01*
X9132922Y-49195795D01*
X9075779Y-49195795D01*
X9047207Y-49210081D01*
X9032922Y-49224367D01*
X9018636Y-49252938D01*
X9332922Y-49381509D02*
X9390065Y-49381509D01*
X9418636Y-49367224D01*
X9432922Y-49352938D01*
X9461493Y-49310081D01*
X9475779Y-49252938D01*
X9475779Y-49138652D01*
X9461493Y-49110081D01*
X9447207Y-49095795D01*
X9418636Y-49081509D01*
X9361493Y-49081509D01*
X9332922Y-49095795D01*
X9318636Y-49110081D01*
X9304350Y-49138652D01*
X9304350Y-49210081D01*
X9318636Y-49238652D01*
X9332922Y-49252938D01*
X9361493Y-49267224D01*
X9418636Y-49267224D01*
X9447207Y-49252938D01*
X9461493Y-49238652D01*
X9475779Y-49210081D01*
X9590065Y-49081509D02*
X9590065Y-49138652D01*
X9704350Y-49081509D02*
X9704350Y-49138652D01*
X10147207Y-49495795D02*
X10132922Y-49481509D01*
X10104350Y-49438652D01*
X10090065Y-49410081D01*
X10075779Y-49367224D01*
X10061493Y-49295795D01*
X10061493Y-49238652D01*
X10075779Y-49167224D01*
X10090065Y-49124367D01*
X10104350Y-49095795D01*
X10132922Y-49052938D01*
X10147207Y-49038652D01*
X10247207Y-49110081D02*
X10261493Y-49095795D01*
X10290065Y-49081509D01*
X10361493Y-49081509D01*
X10390065Y-49095795D01*
X10404350Y-49110081D01*
X10418636Y-49138652D01*
X10418636Y-49167224D01*
X10404350Y-49210081D01*
X10232922Y-49381509D01*
X10418636Y-49381509D01*
X10604350Y-49081509D02*
X10632922Y-49081509D01*
X10661493Y-49095795D01*
X10675779Y-49110081D01*
X10690065Y-49138652D01*
X10704350Y-49195795D01*
X10704350Y-49267224D01*
X10690065Y-49324367D01*
X10675779Y-49352938D01*
X10661493Y-49367224D01*
X10632922Y-49381509D01*
X10604350Y-49381509D01*
X10575779Y-49367224D01*
X10561493Y-49352938D01*
X10547207Y-49324367D01*
X10532922Y-49267224D01*
X10532922Y-49195795D01*
X10547207Y-49138652D01*
X10561493Y-49110081D01*
X10575779Y-49095795D01*
X10604350Y-49081509D01*
X11061493Y-49381509D02*
X11061493Y-49081509D01*
X11190064Y-49381509D02*
X11190064Y-49224367D01*
X11175779Y-49195795D01*
X11147207Y-49181509D01*
X11104350Y-49181509D01*
X11075779Y-49195795D01*
X11061493Y-49210081D01*
X11375779Y-49381509D02*
X11347207Y-49367224D01*
X11332922Y-49352938D01*
X11318636Y-49324367D01*
X11318636Y-49238652D01*
X11332922Y-49210081D01*
X11347207Y-49195795D01*
X11375779Y-49181509D01*
X11418636Y-49181509D01*
X11447207Y-49195795D01*
X11461493Y-49210081D01*
X11475779Y-49238652D01*
X11475779Y-49324367D01*
X11461493Y-49352938D01*
X11447207Y-49367224D01*
X11418636Y-49381509D01*
X11375779Y-49381509D01*
X11647207Y-49381509D02*
X11618636Y-49367224D01*
X11604350Y-49338652D01*
X11604350Y-49081509D01*
X11875779Y-49367224D02*
X11847207Y-49381509D01*
X11790064Y-49381509D01*
X11761493Y-49367224D01*
X11747207Y-49338652D01*
X11747207Y-49224367D01*
X11761493Y-49195795D01*
X11790064Y-49181509D01*
X11847207Y-49181509D01*
X11875779Y-49195795D01*
X11890064Y-49224367D01*
X11890064Y-49252938D01*
X11747207Y-49281509D01*
X12004350Y-49367224D02*
X12032922Y-49381509D01*
X12090064Y-49381509D01*
X12118636Y-49367224D01*
X12132922Y-49338652D01*
X12132922Y-49324367D01*
X12118636Y-49295795D01*
X12090064Y-49281509D01*
X12047207Y-49281509D01*
X12018636Y-49267224D01*
X12004350Y-49238652D01*
X12004350Y-49224367D01*
X12018636Y-49195795D01*
X12047207Y-49181509D01*
X12090064Y-49181509D01*
X12118636Y-49195795D01*
X12232922Y-49495795D02*
X12247207Y-49481509D01*
X12275779Y-49438652D01*
X12290064Y-49410081D01*
X12304350Y-49367224D01*
X12318636Y-49295795D01*
X12318636Y-49238652D01*
X12304350Y-49167224D01*
X12290064Y-49124367D01*
X12275779Y-49095795D01*
X12247207Y-49052938D01*
X12232922Y-49038652D01*
X12775779Y-49495795D02*
X12761493Y-49481509D01*
X12732922Y-49438652D01*
X12718636Y-49410081D01*
X12704350Y-49367224D01*
X12690064Y-49295795D01*
X12690064Y-49238652D01*
X12704350Y-49167224D01*
X12718636Y-49124367D01*
X12732922Y-49095795D01*
X12761493Y-49052938D01*
X12775779Y-49038652D01*
X12890064Y-49181509D02*
X12890064Y-49381509D01*
X12890064Y-49210081D02*
X12904350Y-49195795D01*
X12932922Y-49181509D01*
X12975779Y-49181509D01*
X13004350Y-49195795D01*
X13018636Y-49224367D01*
X13018636Y-49381509D01*
X13204350Y-49381509D02*
X13175779Y-49367224D01*
X13161493Y-49352938D01*
X13147207Y-49324367D01*
X13147207Y-49238652D01*
X13161493Y-49210081D01*
X13175779Y-49195795D01*
X13204350Y-49181509D01*
X13247207Y-49181509D01*
X13275779Y-49195795D01*
X13290064Y-49210081D01*
X13304350Y-49238652D01*
X13304350Y-49324367D01*
X13290064Y-49352938D01*
X13275779Y-49367224D01*
X13247207Y-49381509D01*
X13204350Y-49381509D01*
X13390064Y-49181509D02*
X13504350Y-49181509D01*
X13432922Y-49081509D02*
X13432922Y-49338652D01*
X13447207Y-49367224D01*
X13475779Y-49381509D01*
X13504350Y-49381509D01*
X13832922Y-49181509D02*
X13832922Y-49481509D01*
X13832922Y-49195795D02*
X13861493Y-49181509D01*
X13918636Y-49181509D01*
X13947207Y-49195795D01*
X13961493Y-49210081D01*
X13975779Y-49238652D01*
X13975779Y-49324367D01*
X13961493Y-49352938D01*
X13947207Y-49367224D01*
X13918636Y-49381509D01*
X13861493Y-49381509D01*
X13832922Y-49367224D01*
X14147207Y-49381509D02*
X14118636Y-49367224D01*
X14104350Y-49338652D01*
X14104350Y-49081509D01*
X14390064Y-49381509D02*
X14390064Y-49224367D01*
X14375779Y-49195795D01*
X14347207Y-49181509D01*
X14290064Y-49181509D01*
X14261493Y-49195795D01*
X14390064Y-49367224D02*
X14361493Y-49381509D01*
X14290064Y-49381509D01*
X14261493Y-49367224D01*
X14247207Y-49338652D01*
X14247207Y-49310081D01*
X14261493Y-49281509D01*
X14290064Y-49267224D01*
X14361493Y-49267224D01*
X14390064Y-49252938D01*
X14490064Y-49181509D02*
X14604350Y-49181509D01*
X14532922Y-49081509D02*
X14532922Y-49338652D01*
X14547207Y-49367224D01*
X14575779Y-49381509D01*
X14604350Y-49381509D01*
X14818636Y-49367224D02*
X14790064Y-49381509D01*
X14732922Y-49381509D01*
X14704350Y-49367224D01*
X14690064Y-49338652D01*
X14690064Y-49224367D01*
X14704350Y-49195795D01*
X14732922Y-49181509D01*
X14790064Y-49181509D01*
X14818636Y-49195795D01*
X14832922Y-49224367D01*
X14832922Y-49252938D01*
X14690064Y-49281509D01*
X15090064Y-49381509D02*
X15090064Y-49081509D01*
X15090064Y-49367224D02*
X15061493Y-49381509D01*
X15004350Y-49381509D01*
X14975779Y-49367224D01*
X14961493Y-49352938D01*
X14947207Y-49324367D01*
X14947207Y-49238652D01*
X14961493Y-49210081D01*
X14975779Y-49195795D01*
X15004350Y-49181509D01*
X15061493Y-49181509D01*
X15090064Y-49195795D01*
X15204350Y-49495795D02*
X15218636Y-49481509D01*
X15247207Y-49438652D01*
X15261493Y-49410081D01*
X15275779Y-49367224D01*
X15290064Y-49295795D01*
X15290064Y-49238652D01*
X15275779Y-49167224D01*
X15261493Y-49124367D01*
X15247207Y-49095795D01*
X15218636Y-49052938D01*
X15204350Y-49038652D01*
X5417578Y-49746095D02*
X5417578Y-49537496D01*
X5208980Y-49537496D01*
X5208980Y-49746095D01*
X5417578Y-49746095D01*
X5732922Y-49506081D02*
X5747207Y-49491795D01*
X5775779Y-49477509D01*
X5847207Y-49477509D01*
X5875779Y-49491795D01*
X5890064Y-49506081D01*
X5904350Y-49534652D01*
X5904350Y-49563224D01*
X5890064Y-49606081D01*
X5718636Y-49777509D01*
X5904350Y-49777509D01*
X6032922Y-49748938D02*
X6047207Y-49763224D01*
X6032922Y-49777509D01*
X6018636Y-49763224D01*
X6032922Y-49748938D01*
X6032922Y-49777509D01*
X6190064Y-49777509D02*
X6247207Y-49777509D01*
X6275779Y-49763224D01*
X6290064Y-49748938D01*
X6318636Y-49706081D01*
X6332922Y-49648938D01*
X6332922Y-49534652D01*
X6318636Y-49506081D01*
X6304350Y-49491795D01*
X6275779Y-49477509D01*
X6218636Y-49477509D01*
X6190064Y-49491795D01*
X6175779Y-49506081D01*
X6161493Y-49534652D01*
X6161493Y-49606081D01*
X6175779Y-49634652D01*
X6190064Y-49648938D01*
X6218636Y-49663224D01*
X6275779Y-49663224D01*
X6304350Y-49648938D01*
X6318636Y-49634652D01*
X6332922Y-49606081D01*
X6604350Y-49477509D02*
X6461493Y-49477509D01*
X6447207Y-49620367D01*
X6461493Y-49606081D01*
X6490064Y-49591795D01*
X6561493Y-49591795D01*
X6590064Y-49606081D01*
X6604350Y-49620367D01*
X6618636Y-49648938D01*
X6618636Y-49720367D01*
X6604350Y-49748938D01*
X6590064Y-49763224D01*
X6561493Y-49777509D01*
X6490064Y-49777509D01*
X6461493Y-49763224D01*
X6447207Y-49748938D01*
X6747207Y-49777509D02*
X6747207Y-49577509D01*
X6747207Y-49606081D02*
X6761493Y-49591795D01*
X6790064Y-49577509D01*
X6832922Y-49577509D01*
X6861493Y-49591795D01*
X6875779Y-49620367D01*
X6875779Y-49777509D01*
X6875779Y-49620367D02*
X6890064Y-49591795D01*
X6918636Y-49577509D01*
X6961493Y-49577509D01*
X6990064Y-49591795D01*
X7004350Y-49620367D01*
X7004350Y-49777509D01*
X7147207Y-49777509D02*
X7147207Y-49577509D01*
X7147207Y-49606081D02*
X7161493Y-49591795D01*
X7190064Y-49577509D01*
X7232922Y-49577509D01*
X7261493Y-49591795D01*
X7275779Y-49620367D01*
X7275779Y-49777509D01*
X7275779Y-49620367D02*
X7290064Y-49591795D01*
X7318636Y-49577509D01*
X7361493Y-49577509D01*
X7390064Y-49591795D01*
X7404350Y-49620367D01*
X7404350Y-49777509D01*
X7990064Y-49463224D02*
X7732922Y-49848938D01*
X8375779Y-49477509D02*
X8404350Y-49477509D01*
X8432922Y-49491795D01*
X8447207Y-49506081D01*
X8461493Y-49534652D01*
X8475779Y-49591795D01*
X8475779Y-49663224D01*
X8461493Y-49720367D01*
X8447207Y-49748938D01*
X8432922Y-49763224D01*
X8404350Y-49777509D01*
X8375779Y-49777509D01*
X8347207Y-49763224D01*
X8332922Y-49748938D01*
X8318636Y-49720367D01*
X8304350Y-49663224D01*
X8304350Y-49591795D01*
X8318636Y-49534652D01*
X8332922Y-49506081D01*
X8347207Y-49491795D01*
X8375779Y-49477509D01*
X8604350Y-49748938D02*
X8618636Y-49763224D01*
X8604350Y-49777509D01*
X8590065Y-49763224D01*
X8604350Y-49748938D01*
X8604350Y-49777509D01*
X8904350Y-49777509D02*
X8732922Y-49777509D01*
X8818636Y-49777509D02*
X8818636Y-49477509D01*
X8790065Y-49520367D01*
X8761493Y-49548938D01*
X8732922Y-49563224D01*
X9190065Y-49777509D02*
X9018636Y-49777509D01*
X9104350Y-49777509D02*
X9104350Y-49477509D01*
X9075779Y-49520367D01*
X9047207Y-49548938D01*
X9018636Y-49563224D01*
X9447207Y-49477509D02*
X9390065Y-49477509D01*
X9361493Y-49491795D01*
X9347207Y-49506081D01*
X9318636Y-49548938D01*
X9304350Y-49606081D01*
X9304350Y-49720367D01*
X9318636Y-49748938D01*
X9332922Y-49763224D01*
X9361493Y-49777509D01*
X9418636Y-49777509D01*
X9447207Y-49763224D01*
X9461493Y-49748938D01*
X9475779Y-49720367D01*
X9475779Y-49648938D01*
X9461493Y-49620367D01*
X9447207Y-49606081D01*
X9418636Y-49591795D01*
X9361493Y-49591795D01*
X9332922Y-49606081D01*
X9318636Y-49620367D01*
X9304350Y-49648938D01*
X9590065Y-49477509D02*
X9590065Y-49534652D01*
X9704350Y-49477509D02*
X9704350Y-49534652D01*
X10147207Y-49891795D02*
X10132922Y-49877509D01*
X10104350Y-49834652D01*
X10090065Y-49806081D01*
X10075779Y-49763224D01*
X10061493Y-49691795D01*
X10061493Y-49634652D01*
X10075779Y-49563224D01*
X10090065Y-49520367D01*
X10104350Y-49491795D01*
X10132922Y-49448938D01*
X10147207Y-49434652D01*
X10247207Y-49506081D02*
X10261493Y-49491795D01*
X10290065Y-49477509D01*
X10361493Y-49477509D01*
X10390065Y-49491795D01*
X10404350Y-49506081D01*
X10418636Y-49534652D01*
X10418636Y-49563224D01*
X10404350Y-49606081D01*
X10232922Y-49777509D01*
X10418636Y-49777509D01*
X10604350Y-49477509D02*
X10632922Y-49477509D01*
X10661493Y-49491795D01*
X10675779Y-49506081D01*
X10690065Y-49534652D01*
X10704350Y-49591795D01*
X10704350Y-49663224D01*
X10690065Y-49720367D01*
X10675779Y-49748938D01*
X10661493Y-49763224D01*
X10632922Y-49777509D01*
X10604350Y-49777509D01*
X10575779Y-49763224D01*
X10561493Y-49748938D01*
X10547207Y-49720367D01*
X10532922Y-49663224D01*
X10532922Y-49591795D01*
X10547207Y-49534652D01*
X10561493Y-49506081D01*
X10575779Y-49491795D01*
X10604350Y-49477509D01*
X11061493Y-49777509D02*
X11061493Y-49477509D01*
X11190064Y-49777509D02*
X11190064Y-49620367D01*
X11175779Y-49591795D01*
X11147207Y-49577509D01*
X11104350Y-49577509D01*
X11075779Y-49591795D01*
X11061493Y-49606081D01*
X11375779Y-49777509D02*
X11347207Y-49763224D01*
X11332922Y-49748938D01*
X11318636Y-49720367D01*
X11318636Y-49634652D01*
X11332922Y-49606081D01*
X11347207Y-49591795D01*
X11375779Y-49577509D01*
X11418636Y-49577509D01*
X11447207Y-49591795D01*
X11461493Y-49606081D01*
X11475779Y-49634652D01*
X11475779Y-49720367D01*
X11461493Y-49748938D01*
X11447207Y-49763224D01*
X11418636Y-49777509D01*
X11375779Y-49777509D01*
X11647207Y-49777509D02*
X11618636Y-49763224D01*
X11604350Y-49734652D01*
X11604350Y-49477509D01*
X11875779Y-49763224D02*
X11847207Y-49777509D01*
X11790064Y-49777509D01*
X11761493Y-49763224D01*
X11747207Y-49734652D01*
X11747207Y-49620367D01*
X11761493Y-49591795D01*
X11790064Y-49577509D01*
X11847207Y-49577509D01*
X11875779Y-49591795D01*
X11890064Y-49620367D01*
X11890064Y-49648938D01*
X11747207Y-49677509D01*
X12004350Y-49763224D02*
X12032922Y-49777509D01*
X12090064Y-49777509D01*
X12118636Y-49763224D01*
X12132922Y-49734652D01*
X12132922Y-49720367D01*
X12118636Y-49691795D01*
X12090064Y-49677509D01*
X12047207Y-49677509D01*
X12018636Y-49663224D01*
X12004350Y-49634652D01*
X12004350Y-49620367D01*
X12018636Y-49591795D01*
X12047207Y-49577509D01*
X12090064Y-49577509D01*
X12118636Y-49591795D01*
X12232922Y-49891795D02*
X12247207Y-49877509D01*
X12275779Y-49834652D01*
X12290064Y-49806081D01*
X12304350Y-49763224D01*
X12318636Y-49691795D01*
X12318636Y-49634652D01*
X12304350Y-49563224D01*
X12290064Y-49520367D01*
X12275779Y-49491795D01*
X12247207Y-49448938D01*
X12232922Y-49434652D01*
X12775779Y-49891795D02*
X12761493Y-49877509D01*
X12732922Y-49834652D01*
X12718636Y-49806081D01*
X12704350Y-49763224D01*
X12690064Y-49691795D01*
X12690064Y-49634652D01*
X12704350Y-49563224D01*
X12718636Y-49520367D01*
X12732922Y-49491795D01*
X12761493Y-49448938D01*
X12775779Y-49434652D01*
X12890064Y-49577509D02*
X12890064Y-49777509D01*
X12890064Y-49606081D02*
X12904350Y-49591795D01*
X12932922Y-49577509D01*
X12975779Y-49577509D01*
X13004350Y-49591795D01*
X13018636Y-49620367D01*
X13018636Y-49777509D01*
X13204350Y-49777509D02*
X13175779Y-49763224D01*
X13161493Y-49748938D01*
X13147207Y-49720367D01*
X13147207Y-49634652D01*
X13161493Y-49606081D01*
X13175779Y-49591795D01*
X13204350Y-49577509D01*
X13247207Y-49577509D01*
X13275779Y-49591795D01*
X13290064Y-49606081D01*
X13304350Y-49634652D01*
X13304350Y-49720367D01*
X13290064Y-49748938D01*
X13275779Y-49763224D01*
X13247207Y-49777509D01*
X13204350Y-49777509D01*
X13390064Y-49577509D02*
X13504350Y-49577509D01*
X13432922Y-49477509D02*
X13432922Y-49734652D01*
X13447207Y-49763224D01*
X13475779Y-49777509D01*
X13504350Y-49777509D01*
X13832922Y-49577509D02*
X13832922Y-49877509D01*
X13832922Y-49591795D02*
X13861493Y-49577509D01*
X13918636Y-49577509D01*
X13947207Y-49591795D01*
X13961493Y-49606081D01*
X13975779Y-49634652D01*
X13975779Y-49720367D01*
X13961493Y-49748938D01*
X13947207Y-49763224D01*
X13918636Y-49777509D01*
X13861493Y-49777509D01*
X13832922Y-49763224D01*
X14147207Y-49777509D02*
X14118636Y-49763224D01*
X14104350Y-49734652D01*
X14104350Y-49477509D01*
X14390064Y-49777509D02*
X14390064Y-49620367D01*
X14375779Y-49591795D01*
X14347207Y-49577509D01*
X14290064Y-49577509D01*
X14261493Y-49591795D01*
X14390064Y-49763224D02*
X14361493Y-49777509D01*
X14290064Y-49777509D01*
X14261493Y-49763224D01*
X14247207Y-49734652D01*
X14247207Y-49706081D01*
X14261493Y-49677509D01*
X14290064Y-49663224D01*
X14361493Y-49663224D01*
X14390064Y-49648938D01*
X14490064Y-49577509D02*
X14604350Y-49577509D01*
X14532922Y-49477509D02*
X14532922Y-49734652D01*
X14547207Y-49763224D01*
X14575779Y-49777509D01*
X14604350Y-49777509D01*
X14818636Y-49763224D02*
X14790064Y-49777509D01*
X14732922Y-49777509D01*
X14704350Y-49763224D01*
X14690064Y-49734652D01*
X14690064Y-49620367D01*
X14704350Y-49591795D01*
X14732922Y-49577509D01*
X14790064Y-49577509D01*
X14818636Y-49591795D01*
X14832922Y-49620367D01*
X14832922Y-49648938D01*
X14690064Y-49677509D01*
X15090064Y-49777509D02*
X15090064Y-49477509D01*
X15090064Y-49763224D02*
X15061493Y-49777509D01*
X15004350Y-49777509D01*
X14975779Y-49763224D01*
X14961493Y-49748938D01*
X14947207Y-49720367D01*
X14947207Y-49634652D01*
X14961493Y-49606081D01*
X14975779Y-49591795D01*
X15004350Y-49577509D01*
X15061493Y-49577509D01*
X15090064Y-49591795D01*
X15204350Y-49891795D02*
X15218636Y-49877509D01*
X15247207Y-49834652D01*
X15261493Y-49806081D01*
X15275779Y-49763224D01*
X15290064Y-49691795D01*
X15290064Y-49634652D01*
X15275779Y-49563224D01*
X15261493Y-49520367D01*
X15247207Y-49491795D01*
X15218636Y-49448938D01*
X15204350Y-49434652D01*
X5310779Y-50216795D02*
X5460779Y-50066795D01*
X5310779Y-49916795D01*
X5160779Y-50066795D01*
X5310779Y-50216795D01*
X5718636Y-49902509D02*
X5904350Y-49902509D01*
X5804350Y-50016795D01*
X5847207Y-50016795D01*
X5875779Y-50031081D01*
X5890064Y-50045367D01*
X5904350Y-50073938D01*
X5904350Y-50145367D01*
X5890064Y-50173938D01*
X5875779Y-50188224D01*
X5847207Y-50202509D01*
X5761493Y-50202509D01*
X5732922Y-50188224D01*
X5718636Y-50173938D01*
X6032922Y-50173938D02*
X6047207Y-50188224D01*
X6032922Y-50202509D01*
X6018636Y-50188224D01*
X6032922Y-50173938D01*
X6032922Y-50202509D01*
X6232922Y-49902509D02*
X6261493Y-49902509D01*
X6290064Y-49916795D01*
X6304350Y-49931081D01*
X6318636Y-49959652D01*
X6332922Y-50016795D01*
X6332922Y-50088224D01*
X6318636Y-50145367D01*
X6304350Y-50173938D01*
X6290064Y-50188224D01*
X6261493Y-50202509D01*
X6232922Y-50202509D01*
X6204350Y-50188224D01*
X6190064Y-50173938D01*
X6175779Y-50145367D01*
X6161493Y-50088224D01*
X6161493Y-50016795D01*
X6175779Y-49959652D01*
X6190064Y-49931081D01*
X6204350Y-49916795D01*
X6232922Y-49902509D01*
X6518636Y-49902509D02*
X6547207Y-49902509D01*
X6575779Y-49916795D01*
X6590064Y-49931081D01*
X6604350Y-49959652D01*
X6618636Y-50016795D01*
X6618636Y-50088224D01*
X6604350Y-50145367D01*
X6590064Y-50173938D01*
X6575779Y-50188224D01*
X6547207Y-50202509D01*
X6518636Y-50202509D01*
X6490064Y-50188224D01*
X6475779Y-50173938D01*
X6461493Y-50145367D01*
X6447207Y-50088224D01*
X6447207Y-50016795D01*
X6461493Y-49959652D01*
X6475779Y-49931081D01*
X6490064Y-49916795D01*
X6518636Y-49902509D01*
X6747207Y-50202509D02*
X6747207Y-50002509D01*
X6747207Y-50031081D02*
X6761493Y-50016795D01*
X6790064Y-50002509D01*
X6832922Y-50002509D01*
X6861493Y-50016795D01*
X6875779Y-50045367D01*
X6875779Y-50202509D01*
X6875779Y-50045367D02*
X6890064Y-50016795D01*
X6918636Y-50002509D01*
X6961493Y-50002509D01*
X6990064Y-50016795D01*
X7004350Y-50045367D01*
X7004350Y-50202509D01*
X7147207Y-50202509D02*
X7147207Y-50002509D01*
X7147207Y-50031081D02*
X7161493Y-50016795D01*
X7190064Y-50002509D01*
X7232922Y-50002509D01*
X7261493Y-50016795D01*
X7275779Y-50045367D01*
X7275779Y-50202509D01*
X7275779Y-50045367D02*
X7290064Y-50016795D01*
X7318636Y-50002509D01*
X7361493Y-50002509D01*
X7390064Y-50016795D01*
X7404350Y-50045367D01*
X7404350Y-50202509D01*
X7990064Y-49888224D02*
X7732922Y-50273938D01*
X8375779Y-49902509D02*
X8404350Y-49902509D01*
X8432922Y-49916795D01*
X8447207Y-49931081D01*
X8461493Y-49959652D01*
X8475779Y-50016795D01*
X8475779Y-50088224D01*
X8461493Y-50145367D01*
X8447207Y-50173938D01*
X8432922Y-50188224D01*
X8404350Y-50202509D01*
X8375779Y-50202509D01*
X8347207Y-50188224D01*
X8332922Y-50173938D01*
X8318636Y-50145367D01*
X8304350Y-50088224D01*
X8304350Y-50016795D01*
X8318636Y-49959652D01*
X8332922Y-49931081D01*
X8347207Y-49916795D01*
X8375779Y-49902509D01*
X8604350Y-50173938D02*
X8618636Y-50188224D01*
X8604350Y-50202509D01*
X8590065Y-50188224D01*
X8604350Y-50173938D01*
X8604350Y-50202509D01*
X8904350Y-50202509D02*
X8732922Y-50202509D01*
X8818636Y-50202509D02*
X8818636Y-49902509D01*
X8790065Y-49945367D01*
X8761493Y-49973938D01*
X8732922Y-49988224D01*
X9190065Y-50202509D02*
X9018636Y-50202509D01*
X9104350Y-50202509D02*
X9104350Y-49902509D01*
X9075779Y-49945367D01*
X9047207Y-49973938D01*
X9018636Y-49988224D01*
X9361493Y-50031081D02*
X9332922Y-50016795D01*
X9318636Y-50002509D01*
X9304350Y-49973938D01*
X9304350Y-49959652D01*
X9318636Y-49931081D01*
X9332922Y-49916795D01*
X9361493Y-49902509D01*
X9418636Y-49902509D01*
X9447207Y-49916795D01*
X9461493Y-49931081D01*
X9475779Y-49959652D01*
X9475779Y-49973938D01*
X9461493Y-50002509D01*
X9447207Y-50016795D01*
X9418636Y-50031081D01*
X9361493Y-50031081D01*
X9332922Y-50045367D01*
X9318636Y-50059652D01*
X9304350Y-50088224D01*
X9304350Y-50145367D01*
X9318636Y-50173938D01*
X9332922Y-50188224D01*
X9361493Y-50202509D01*
X9418636Y-50202509D01*
X9447207Y-50188224D01*
X9461493Y-50173938D01*
X9475779Y-50145367D01*
X9475779Y-50088224D01*
X9461493Y-50059652D01*
X9447207Y-50045367D01*
X9418636Y-50031081D01*
X9590065Y-49902509D02*
X9590065Y-49959652D01*
X9704350Y-49902509D02*
X9704350Y-49959652D01*
X10147207Y-50316795D02*
X10132922Y-50302509D01*
X10104350Y-50259652D01*
X10090065Y-50231081D01*
X10075779Y-50188224D01*
X10061493Y-50116795D01*
X10061493Y-50059652D01*
X10075779Y-49988224D01*
X10090065Y-49945367D01*
X10104350Y-49916795D01*
X10132922Y-49873938D01*
X10147207Y-49859652D01*
X10247207Y-49931081D02*
X10261493Y-49916795D01*
X10290065Y-49902509D01*
X10361493Y-49902509D01*
X10390065Y-49916795D01*
X10404350Y-49931081D01*
X10418636Y-49959652D01*
X10418636Y-49988224D01*
X10404350Y-50031081D01*
X10232922Y-50202509D01*
X10418636Y-50202509D01*
X10604350Y-49902509D02*
X10632922Y-49902509D01*
X10661493Y-49916795D01*
X10675779Y-49931081D01*
X10690065Y-49959652D01*
X10704350Y-50016795D01*
X10704350Y-50088224D01*
X10690065Y-50145367D01*
X10675779Y-50173938D01*
X10661493Y-50188224D01*
X10632922Y-50202509D01*
X10604350Y-50202509D01*
X10575779Y-50188224D01*
X10561493Y-50173938D01*
X10547207Y-50145367D01*
X10532922Y-50088224D01*
X10532922Y-50016795D01*
X10547207Y-49959652D01*
X10561493Y-49931081D01*
X10575779Y-49916795D01*
X10604350Y-49902509D01*
X11061493Y-50202509D02*
X11061493Y-49902509D01*
X11190064Y-50202509D02*
X11190064Y-50045367D01*
X11175779Y-50016795D01*
X11147207Y-50002509D01*
X11104350Y-50002509D01*
X11075779Y-50016795D01*
X11061493Y-50031081D01*
X11375779Y-50202509D02*
X11347207Y-50188224D01*
X11332922Y-50173938D01*
X11318636Y-50145367D01*
X11318636Y-50059652D01*
X11332922Y-50031081D01*
X11347207Y-50016795D01*
X11375779Y-50002509D01*
X11418636Y-50002509D01*
X11447207Y-50016795D01*
X11461493Y-50031081D01*
X11475779Y-50059652D01*
X11475779Y-50145367D01*
X11461493Y-50173938D01*
X11447207Y-50188224D01*
X11418636Y-50202509D01*
X11375779Y-50202509D01*
X11647207Y-50202509D02*
X11618636Y-50188224D01*
X11604350Y-50159652D01*
X11604350Y-49902509D01*
X11875779Y-50188224D02*
X11847207Y-50202509D01*
X11790064Y-50202509D01*
X11761493Y-50188224D01*
X11747207Y-50159652D01*
X11747207Y-50045367D01*
X11761493Y-50016795D01*
X11790064Y-50002509D01*
X11847207Y-50002509D01*
X11875779Y-50016795D01*
X11890064Y-50045367D01*
X11890064Y-50073938D01*
X11747207Y-50102509D01*
X12004350Y-50188224D02*
X12032922Y-50202509D01*
X12090064Y-50202509D01*
X12118636Y-50188224D01*
X12132922Y-50159652D01*
X12132922Y-50145367D01*
X12118636Y-50116795D01*
X12090064Y-50102509D01*
X12047207Y-50102509D01*
X12018636Y-50088224D01*
X12004350Y-50059652D01*
X12004350Y-50045367D01*
X12018636Y-50016795D01*
X12047207Y-50002509D01*
X12090064Y-50002509D01*
X12118636Y-50016795D01*
X12232922Y-50316795D02*
X12247207Y-50302509D01*
X12275779Y-50259652D01*
X12290064Y-50231081D01*
X12304350Y-50188224D01*
X12318636Y-50116795D01*
X12318636Y-50059652D01*
X12304350Y-49988224D01*
X12290064Y-49945367D01*
X12275779Y-49916795D01*
X12247207Y-49873938D01*
X12232922Y-49859652D01*
X12775779Y-50316795D02*
X12761493Y-50302509D01*
X12732922Y-50259652D01*
X12718636Y-50231081D01*
X12704350Y-50188224D01*
X12690064Y-50116795D01*
X12690064Y-50059652D01*
X12704350Y-49988224D01*
X12718636Y-49945367D01*
X12732922Y-49916795D01*
X12761493Y-49873938D01*
X12775779Y-49859652D01*
X12890064Y-50002509D02*
X12890064Y-50202509D01*
X12890064Y-50031081D02*
X12904350Y-50016795D01*
X12932922Y-50002509D01*
X12975779Y-50002509D01*
X13004350Y-50016795D01*
X13018636Y-50045367D01*
X13018636Y-50202509D01*
X13204350Y-50202509D02*
X13175779Y-50188224D01*
X13161493Y-50173938D01*
X13147207Y-50145367D01*
X13147207Y-50059652D01*
X13161493Y-50031081D01*
X13175779Y-50016795D01*
X13204350Y-50002509D01*
X13247207Y-50002509D01*
X13275779Y-50016795D01*
X13290064Y-50031081D01*
X13304350Y-50059652D01*
X13304350Y-50145367D01*
X13290064Y-50173938D01*
X13275779Y-50188224D01*
X13247207Y-50202509D01*
X13204350Y-50202509D01*
X13390064Y-50002509D02*
X13504350Y-50002509D01*
X13432922Y-49902509D02*
X13432922Y-50159652D01*
X13447207Y-50188224D01*
X13475779Y-50202509D01*
X13504350Y-50202509D01*
X13832922Y-50002509D02*
X13832922Y-50302509D01*
X13832922Y-50016795D02*
X13861493Y-50002509D01*
X13918636Y-50002509D01*
X13947207Y-50016795D01*
X13961493Y-50031081D01*
X13975779Y-50059652D01*
X13975779Y-50145367D01*
X13961493Y-50173938D01*
X13947207Y-50188224D01*
X13918636Y-50202509D01*
X13861493Y-50202509D01*
X13832922Y-50188224D01*
X14147207Y-50202509D02*
X14118636Y-50188224D01*
X14104350Y-50159652D01*
X14104350Y-49902509D01*
X14390064Y-50202509D02*
X14390064Y-50045367D01*
X14375779Y-50016795D01*
X14347207Y-50002509D01*
X14290064Y-50002509D01*
X14261493Y-50016795D01*
X14390064Y-50188224D02*
X14361493Y-50202509D01*
X14290064Y-50202509D01*
X14261493Y-50188224D01*
X14247207Y-50159652D01*
X14247207Y-50131081D01*
X14261493Y-50102509D01*
X14290064Y-50088224D01*
X14361493Y-50088224D01*
X14390064Y-50073938D01*
X14490064Y-50002509D02*
X14604350Y-50002509D01*
X14532922Y-49902509D02*
X14532922Y-50159652D01*
X14547207Y-50188224D01*
X14575779Y-50202509D01*
X14604350Y-50202509D01*
X14818636Y-50188224D02*
X14790064Y-50202509D01*
X14732922Y-50202509D01*
X14704350Y-50188224D01*
X14690064Y-50159652D01*
X14690064Y-50045367D01*
X14704350Y-50016795D01*
X14732922Y-50002509D01*
X14790064Y-50002509D01*
X14818636Y-50016795D01*
X14832922Y-50045367D01*
X14832922Y-50073938D01*
X14690064Y-50102509D01*
X15090064Y-50202509D02*
X15090064Y-49902509D01*
X15090064Y-50188224D02*
X15061493Y-50202509D01*
X15004350Y-50202509D01*
X14975779Y-50188224D01*
X14961493Y-50173938D01*
X14947207Y-50145367D01*
X14947207Y-50059652D01*
X14961493Y-50031081D01*
X14975779Y-50016795D01*
X15004350Y-50002509D01*
X15061493Y-50002509D01*
X15090064Y-50016795D01*
X15204350Y-50316795D02*
X15218636Y-50302509D01*
X15247207Y-50259652D01*
X15261493Y-50231081D01*
X15275779Y-50188224D01*
X15290064Y-50116795D01*
X15290064Y-50059652D01*
X15275779Y-49988224D01*
X15261493Y-49945367D01*
X15247207Y-49916795D01*
X15218636Y-49873938D01*
X15204350Y-49859652D01*
X4955779Y-50244295D02*
X5460779Y-50749295D01*
X5460779Y-50244295D02*
X4955779Y-50749295D01*
X5460779Y-50496795D02*
G75*
G03X5460779Y-50496795I-252500J0D01*
G01*
X5890064Y-50332509D02*
X5747207Y-50332509D01*
X5732922Y-50475367D01*
X5747207Y-50461081D01*
X5775779Y-50446795D01*
X5847207Y-50446795D01*
X5875779Y-50461081D01*
X5890064Y-50475367D01*
X5904350Y-50503938D01*
X5904350Y-50575367D01*
X5890064Y-50603938D01*
X5875779Y-50618224D01*
X5847207Y-50632509D01*
X5775779Y-50632509D01*
X5747207Y-50618224D01*
X5732922Y-50603938D01*
X6032922Y-50603938D02*
X6047207Y-50618224D01*
X6032922Y-50632509D01*
X6018636Y-50618224D01*
X6032922Y-50603938D01*
X6032922Y-50632509D01*
X6232922Y-50332509D02*
X6261493Y-50332509D01*
X6290064Y-50346795D01*
X6304350Y-50361081D01*
X6318636Y-50389652D01*
X6332922Y-50446795D01*
X6332922Y-50518224D01*
X6318636Y-50575367D01*
X6304350Y-50603938D01*
X6290064Y-50618224D01*
X6261493Y-50632509D01*
X6232922Y-50632509D01*
X6204350Y-50618224D01*
X6190064Y-50603938D01*
X6175779Y-50575367D01*
X6161493Y-50518224D01*
X6161493Y-50446795D01*
X6175779Y-50389652D01*
X6190064Y-50361081D01*
X6204350Y-50346795D01*
X6232922Y-50332509D01*
X6604350Y-50332509D02*
X6461493Y-50332509D01*
X6447207Y-50475367D01*
X6461493Y-50461081D01*
X6490064Y-50446795D01*
X6561493Y-50446795D01*
X6590064Y-50461081D01*
X6604350Y-50475367D01*
X6618636Y-50503938D01*
X6618636Y-50575367D01*
X6604350Y-50603938D01*
X6590064Y-50618224D01*
X6561493Y-50632509D01*
X6490064Y-50632509D01*
X6461493Y-50618224D01*
X6447207Y-50603938D01*
X6747207Y-50632509D02*
X6747207Y-50432509D01*
X6747207Y-50461081D02*
X6761493Y-50446795D01*
X6790064Y-50432509D01*
X6832922Y-50432509D01*
X6861493Y-50446795D01*
X6875779Y-50475367D01*
X6875779Y-50632509D01*
X6875779Y-50475367D02*
X6890064Y-50446795D01*
X6918636Y-50432509D01*
X6961493Y-50432509D01*
X6990064Y-50446795D01*
X7004350Y-50475367D01*
X7004350Y-50632509D01*
X7147207Y-50632509D02*
X7147207Y-50432509D01*
X7147207Y-50461081D02*
X7161493Y-50446795D01*
X7190064Y-50432509D01*
X7232922Y-50432509D01*
X7261493Y-50446795D01*
X7275779Y-50475367D01*
X7275779Y-50632509D01*
X7275779Y-50475367D02*
X7290064Y-50446795D01*
X7318636Y-50432509D01*
X7361493Y-50432509D01*
X7390064Y-50446795D01*
X7404350Y-50475367D01*
X7404350Y-50632509D01*
X7990064Y-50318224D02*
X7732922Y-50703938D01*
X8375779Y-50332509D02*
X8404350Y-50332509D01*
X8432922Y-50346795D01*
X8447207Y-50361081D01*
X8461493Y-50389652D01*
X8475779Y-50446795D01*
X8475779Y-50518224D01*
X8461493Y-50575367D01*
X8447207Y-50603938D01*
X8432922Y-50618224D01*
X8404350Y-50632509D01*
X8375779Y-50632509D01*
X8347207Y-50618224D01*
X8332922Y-50603938D01*
X8318636Y-50575367D01*
X8304350Y-50518224D01*
X8304350Y-50446795D01*
X8318636Y-50389652D01*
X8332922Y-50361081D01*
X8347207Y-50346795D01*
X8375779Y-50332509D01*
X8604350Y-50603938D02*
X8618636Y-50618224D01*
X8604350Y-50632509D01*
X8590065Y-50618224D01*
X8604350Y-50603938D01*
X8604350Y-50632509D01*
X8904350Y-50632509D02*
X8732922Y-50632509D01*
X8818636Y-50632509D02*
X8818636Y-50332509D01*
X8790065Y-50375367D01*
X8761493Y-50403938D01*
X8732922Y-50418224D01*
X9047207Y-50632509D02*
X9104350Y-50632509D01*
X9132922Y-50618224D01*
X9147207Y-50603938D01*
X9175779Y-50561081D01*
X9190065Y-50503938D01*
X9190065Y-50389652D01*
X9175779Y-50361081D01*
X9161493Y-50346795D01*
X9132922Y-50332509D01*
X9075779Y-50332509D01*
X9047207Y-50346795D01*
X9032922Y-50361081D01*
X9018636Y-50389652D01*
X9018636Y-50461081D01*
X9032922Y-50489652D01*
X9047207Y-50503938D01*
X9075779Y-50518224D01*
X9132922Y-50518224D01*
X9161493Y-50503938D01*
X9175779Y-50489652D01*
X9190065Y-50461081D01*
X9332922Y-50632509D02*
X9390065Y-50632509D01*
X9418636Y-50618224D01*
X9432922Y-50603938D01*
X9461493Y-50561081D01*
X9475779Y-50503938D01*
X9475779Y-50389652D01*
X9461493Y-50361081D01*
X9447207Y-50346795D01*
X9418636Y-50332509D01*
X9361493Y-50332509D01*
X9332922Y-50346795D01*
X9318636Y-50361081D01*
X9304350Y-50389652D01*
X9304350Y-50461081D01*
X9318636Y-50489652D01*
X9332922Y-50503938D01*
X9361493Y-50518224D01*
X9418636Y-50518224D01*
X9447207Y-50503938D01*
X9461493Y-50489652D01*
X9475779Y-50461081D01*
X9590065Y-50332509D02*
X9590065Y-50389652D01*
X9704350Y-50332509D02*
X9704350Y-50389652D01*
X10147207Y-50746795D02*
X10132922Y-50732509D01*
X10104350Y-50689652D01*
X10090065Y-50661081D01*
X10075779Y-50618224D01*
X10061493Y-50546795D01*
X10061493Y-50489652D01*
X10075779Y-50418224D01*
X10090065Y-50375367D01*
X10104350Y-50346795D01*
X10132922Y-50303938D01*
X10147207Y-50289652D01*
X10418636Y-50632509D02*
X10247207Y-50632509D01*
X10332922Y-50632509D02*
X10332922Y-50332509D01*
X10304350Y-50375367D01*
X10275779Y-50403938D01*
X10247207Y-50418224D01*
X10604350Y-50332509D02*
X10632922Y-50332509D01*
X10661493Y-50346795D01*
X10675779Y-50361081D01*
X10690065Y-50389652D01*
X10704350Y-50446795D01*
X10704350Y-50518224D01*
X10690065Y-50575367D01*
X10675779Y-50603938D01*
X10661493Y-50618224D01*
X10632922Y-50632509D01*
X10604350Y-50632509D01*
X10575779Y-50618224D01*
X10561493Y-50603938D01*
X10547207Y-50575367D01*
X10532922Y-50518224D01*
X10532922Y-50446795D01*
X10547207Y-50389652D01*
X10561493Y-50361081D01*
X10575779Y-50346795D01*
X10604350Y-50332509D01*
X11061493Y-50632509D02*
X11061493Y-50332509D01*
X11190064Y-50632509D02*
X11190064Y-50475367D01*
X11175779Y-50446795D01*
X11147207Y-50432509D01*
X11104350Y-50432509D01*
X11075779Y-50446795D01*
X11061493Y-50461081D01*
X11375779Y-50632509D02*
X11347207Y-50618224D01*
X11332922Y-50603938D01*
X11318636Y-50575367D01*
X11318636Y-50489652D01*
X11332922Y-50461081D01*
X11347207Y-50446795D01*
X11375779Y-50432509D01*
X11418636Y-50432509D01*
X11447207Y-50446795D01*
X11461493Y-50461081D01*
X11475779Y-50489652D01*
X11475779Y-50575367D01*
X11461493Y-50603938D01*
X11447207Y-50618224D01*
X11418636Y-50632509D01*
X11375779Y-50632509D01*
X11647207Y-50632509D02*
X11618636Y-50618224D01*
X11604350Y-50589652D01*
X11604350Y-50332509D01*
X11875779Y-50618224D02*
X11847207Y-50632509D01*
X11790064Y-50632509D01*
X11761493Y-50618224D01*
X11747207Y-50589652D01*
X11747207Y-50475367D01*
X11761493Y-50446795D01*
X11790064Y-50432509D01*
X11847207Y-50432509D01*
X11875779Y-50446795D01*
X11890064Y-50475367D01*
X11890064Y-50503938D01*
X11747207Y-50532509D01*
X12004350Y-50618224D02*
X12032922Y-50632509D01*
X12090064Y-50632509D01*
X12118636Y-50618224D01*
X12132922Y-50589652D01*
X12132922Y-50575367D01*
X12118636Y-50546795D01*
X12090064Y-50532509D01*
X12047207Y-50532509D01*
X12018636Y-50518224D01*
X12004350Y-50489652D01*
X12004350Y-50475367D01*
X12018636Y-50446795D01*
X12047207Y-50432509D01*
X12090064Y-50432509D01*
X12118636Y-50446795D01*
X12232922Y-50746795D02*
X12247207Y-50732509D01*
X12275779Y-50689652D01*
X12290064Y-50661081D01*
X12304350Y-50618224D01*
X12318636Y-50546795D01*
X12318636Y-50489652D01*
X12304350Y-50418224D01*
X12290064Y-50375367D01*
X12275779Y-50346795D01*
X12247207Y-50303938D01*
X12232922Y-50289652D01*
X12775779Y-50746795D02*
X12761493Y-50732509D01*
X12732922Y-50689652D01*
X12718636Y-50661081D01*
X12704350Y-50618224D01*
X12690064Y-50546795D01*
X12690064Y-50489652D01*
X12704350Y-50418224D01*
X12718636Y-50375367D01*
X12732922Y-50346795D01*
X12761493Y-50303938D01*
X12775779Y-50289652D01*
X12890064Y-50432509D02*
X12890064Y-50632509D01*
X12890064Y-50461081D02*
X12904350Y-50446795D01*
X12932922Y-50432509D01*
X12975779Y-50432509D01*
X13004350Y-50446795D01*
X13018636Y-50475367D01*
X13018636Y-50632509D01*
X13204350Y-50632509D02*
X13175779Y-50618224D01*
X13161493Y-50603938D01*
X13147207Y-50575367D01*
X13147207Y-50489652D01*
X13161493Y-50461081D01*
X13175779Y-50446795D01*
X13204350Y-50432509D01*
X13247207Y-50432509D01*
X13275779Y-50446795D01*
X13290064Y-50461081D01*
X13304350Y-50489652D01*
X13304350Y-50575367D01*
X13290064Y-50603938D01*
X13275779Y-50618224D01*
X13247207Y-50632509D01*
X13204350Y-50632509D01*
X13390064Y-50432509D02*
X13504350Y-50432509D01*
X13432922Y-50332509D02*
X13432922Y-50589652D01*
X13447207Y-50618224D01*
X13475779Y-50632509D01*
X13504350Y-50632509D01*
X13832922Y-50432509D02*
X13832922Y-50732509D01*
X13832922Y-50446795D02*
X13861493Y-50432509D01*
X13918636Y-50432509D01*
X13947207Y-50446795D01*
X13961493Y-50461081D01*
X13975779Y-50489652D01*
X13975779Y-50575367D01*
X13961493Y-50603938D01*
X13947207Y-50618224D01*
X13918636Y-50632509D01*
X13861493Y-50632509D01*
X13832922Y-50618224D01*
X14147207Y-50632509D02*
X14118636Y-50618224D01*
X14104350Y-50589652D01*
X14104350Y-50332509D01*
X14390064Y-50632509D02*
X14390064Y-50475367D01*
X14375779Y-50446795D01*
X14347207Y-50432509D01*
X14290064Y-50432509D01*
X14261493Y-50446795D01*
X14390064Y-50618224D02*
X14361493Y-50632509D01*
X14290064Y-50632509D01*
X14261493Y-50618224D01*
X14247207Y-50589652D01*
X14247207Y-50561081D01*
X14261493Y-50532509D01*
X14290064Y-50518224D01*
X14361493Y-50518224D01*
X14390064Y-50503938D01*
X14490064Y-50432509D02*
X14604350Y-50432509D01*
X14532922Y-50332509D02*
X14532922Y-50589652D01*
X14547207Y-50618224D01*
X14575779Y-50632509D01*
X14604350Y-50632509D01*
X14818636Y-50618224D02*
X14790064Y-50632509D01*
X14732922Y-50632509D01*
X14704350Y-50618224D01*
X14690064Y-50589652D01*
X14690064Y-50475367D01*
X14704350Y-50446795D01*
X14732922Y-50432509D01*
X14790064Y-50432509D01*
X14818636Y-50446795D01*
X14832922Y-50475367D01*
X14832922Y-50503938D01*
X14690064Y-50532509D01*
X15090064Y-50632509D02*
X15090064Y-50332509D01*
X15090064Y-50618224D02*
X15061493Y-50632509D01*
X15004350Y-50632509D01*
X14975779Y-50618224D01*
X14961493Y-50603938D01*
X14947207Y-50575367D01*
X14947207Y-50489652D01*
X14961493Y-50461081D01*
X14975779Y-50446795D01*
X15004350Y-50432509D01*
X15061493Y-50432509D01*
X15090064Y-50446795D01*
X15204350Y-50746795D02*
X15218636Y-50732509D01*
X15247207Y-50689652D01*
X15261493Y-50661081D01*
X15275779Y-50618224D01*
X15290064Y-50546795D01*
X15290064Y-50489652D01*
X15275779Y-50418224D01*
X15261493Y-50375367D01*
X15247207Y-50346795D01*
X15218636Y-50303938D01*
X15204350Y-50289652D01*
M02*
