M48
; DRILL file {KiCad (5.1.4)-1} date 9/9/2023 5:27:40 AM
; FORMAT={-:-/ absolute / metric / decimal}
; #@! TF.CreationDate,2023-09-09T05:27:40-04:00
; #@! TF.GenerationSoftware,Kicad,Pcbnew,(5.1.4)-1
; #@! TF.FileFunction,NonPlated,1,2,NPTH
FMAT,2
METRIC
T1C1.750
T2C2.950
T3C3.000
T4C5.050
%
G90
G05
T1
X-111.92Y-371.48
X-101.76Y-371.48
X-111.92Y-352.422
X-101.76Y-352.422
X-130.984Y-355.56
X-120.824Y-355.56
T2
X-109.44Y-365.73
X-102.14Y-367.08
X-111.54Y-356.822
X-104.24Y-358.172
X-128.504Y-349.81
X-121.204Y-351.16
T3
X-109.38Y-376.56
X-103.03Y-374.02
X-110.65Y-349.882
X-104.3Y-347.342
X-128.444Y-360.64
X-122.094Y-358.1
T4
X-106.84Y-371.48
X-106.84Y-352.422
X-125.904Y-355.56
T0
M30
