G04 #@! TF.GenerationSoftware,KiCad,Pcbnew,(5.1.4)-1*
G04 #@! TF.CreationDate,2023-09-09T05:27:38-04:00*
G04 #@! TF.ProjectId,ThumbsUp,5468756d-6273-4557-902e-6b696361645f,rev?*
G04 #@! TF.SameCoordinates,Original*
G04 #@! TF.FileFunction,Copper,L1,Top*
G04 #@! TF.FilePolarity,Positive*
%FSLAX46Y46*%
G04 Gerber Fmt 4.6, Leading zero omitted, Abs format (unit mm)*
G04 Created by KiCad (PCBNEW (5.1.4)-1) date 2023-09-09 05:27:38*
%MOMM*%
%LPD*%
G04 APERTURE LIST*
%ADD10C,3.000000*%
%ADD11O,1.700000X1.700000*%
%ADD12R,1.700000X1.700000*%
%ADD13C,1.700000*%
%ADD14C,1.700000*%
%ADD15C,0.100000*%
%ADD16C,0.800000*%
%ADD17C,0.200000*%
G04 APERTURE END LIST*
D10*
X-111540000Y-356821918D03*
X-104240000Y-358171918D03*
X-121203954Y-351160061D03*
X-128503954Y-349810061D03*
D11*
X-96258141Y-361748713D03*
X-96258141Y-359208713D03*
X-96258141Y-356668713D03*
D12*
X-96258141Y-354128713D03*
D11*
X-134976620Y-365247892D03*
X-134976620Y-362707892D03*
X-134976620Y-360167892D03*
D12*
X-134976620Y-357627892D03*
D11*
X-122149330Y-365344574D03*
X-124689330Y-365344574D03*
X-127229330Y-365344574D03*
D12*
X-129769330Y-365344574D03*
D13*
X-101492864Y-341688390D03*
D14*
X-101492864Y-341688390D02*
X-101492864Y-341688390D01*
D13*
X-103946316Y-342345790D03*
D14*
X-103946316Y-342345790D02*
X-103946316Y-342345790D01*
D13*
X-106399767Y-343003191D03*
D14*
X-106399767Y-343003191D02*
X-106399767Y-343003191D01*
D13*
X-108853219Y-343660591D03*
D15*
G36*
X-109894252Y-343059550D02*
G01*
X-108252178Y-342619558D01*
X-107812186Y-344261632D01*
X-109454260Y-344701624D01*
X-109894252Y-343059550D01*
X-109894252Y-343059550D01*
G37*
D10*
X-102140000Y-367080000D03*
X-109440000Y-365730000D03*
D16*
X-114480000Y-353840000D03*
X-117740000Y-355470000D03*
X-114720000Y-362900000D03*
X-113660000Y-370500000D03*
D17*
X-122149330Y-365344574D02*
X-114480000Y-357675244D01*
X-114480000Y-357675244D02*
X-114480000Y-353840000D01*
X-125940000Y-362870000D02*
X-121940000Y-362870000D01*
X-127229330Y-365344574D02*
X-127229330Y-364159330D01*
X-117740000Y-358670000D02*
X-117740000Y-355470000D01*
X-127229330Y-364159330D02*
X-125940000Y-362870000D01*
X-121940000Y-362870000D02*
X-117740000Y-358670000D01*
X-114720000Y-362900000D02*
X-114720000Y-369440000D01*
X-114720000Y-369440000D02*
X-113660000Y-370500000D01*
M02*
