M48
; DRILL file {KiCad (5.1.4)-1} date 9/9/2023 5:27:40 AM
; FORMAT={-:-/ absolute / metric / decimal}
; #@! TF.CreationDate,2023-09-09T05:27:40-04:00
; #@! TF.GenerationSoftware,Kicad,Pcbnew,(5.1.4)-1
; #@! TF.FileFunction,Plated,1,2,PTH
FMAT,2
METRIC
T1C0.400
T2C1.000
%
G90
G05
T1
X-117.74Y-355.47
X-114.72Y-362.9
X-114.48Y-353.84
X-113.66Y-370.5
T2
X-129.769Y-365.345
X-127.229Y-365.345
X-124.689Y-365.345
X-122.149Y-365.345
X-134.977Y-357.628
X-134.977Y-360.168
X-134.977Y-362.708
X-134.977Y-365.248
X-108.853Y-343.661
X-106.4Y-343.003
X-103.946Y-342.346
X-101.493Y-341.688
X-96.258Y-354.129
X-96.258Y-356.669
X-96.258Y-359.209
X-96.258Y-361.749
T0
M30
