G04 #@! TF.GenerationSoftware,KiCad,Pcbnew,(5.1.4)-1*
G04 #@! TF.CreationDate,2023-09-09T05:27:38-04:00*
G04 #@! TF.ProjectId,ThumbsUp,5468756d-6273-4557-902e-6b696361645f,rev?*
G04 #@! TF.SameCoordinates,Original*
G04 #@! TF.FileFunction,Soldermask,Top*
G04 #@! TF.FilePolarity,Negative*
%FSLAX46Y46*%
G04 Gerber Fmt 4.6, Leading zero omitted, Abs format (unit mm)*
G04 Created by KiCad (PCBNEW (5.1.4)-1) date 2023-09-09 05:27:38*
%MOMM*%
%LPD*%
G04 APERTURE LIST*
%ADD10C,0.100000*%
G04 APERTURE END LIST*
D10*
G36*
X-109077415Y-375038802D02*
G01*
X-108927590Y-375068604D01*
X-108645326Y-375185521D01*
X-108391295Y-375355259D01*
X-108175259Y-375571295D01*
X-108005521Y-375825326D01*
X-107888604Y-376107590D01*
X-107829000Y-376407240D01*
X-107829000Y-376712760D01*
X-107888604Y-377012410D01*
X-108005521Y-377294674D01*
X-108175259Y-377548705D01*
X-108391295Y-377764741D01*
X-108645326Y-377934479D01*
X-108927590Y-378051396D01*
X-109077415Y-378081198D01*
X-109227239Y-378111000D01*
X-109532761Y-378111000D01*
X-109682585Y-378081198D01*
X-109832410Y-378051396D01*
X-110114674Y-377934479D01*
X-110368705Y-377764741D01*
X-110584741Y-377548705D01*
X-110754479Y-377294674D01*
X-110871396Y-377012410D01*
X-110931000Y-376712760D01*
X-110931000Y-376407240D01*
X-110871396Y-376107590D01*
X-110754479Y-375825326D01*
X-110584741Y-375571295D01*
X-110368705Y-375355259D01*
X-110114674Y-375185521D01*
X-109832410Y-375068604D01*
X-109682585Y-375038802D01*
X-109532761Y-375009000D01*
X-109227239Y-375009000D01*
X-109077415Y-375038802D01*
X-109077415Y-375038802D01*
G37*
G36*
X-102727415Y-372498802D02*
G01*
X-102577590Y-372528604D01*
X-102295326Y-372645521D01*
X-102041295Y-372815259D01*
X-101825259Y-373031295D01*
X-101655521Y-373285326D01*
X-101538604Y-373567590D01*
X-101479000Y-373867240D01*
X-101479000Y-374172760D01*
X-101538604Y-374472410D01*
X-101655521Y-374754674D01*
X-101825259Y-375008705D01*
X-102041295Y-375224741D01*
X-102295326Y-375394479D01*
X-102577590Y-375511396D01*
X-102727415Y-375541198D01*
X-102877239Y-375571000D01*
X-103182761Y-375571000D01*
X-103332585Y-375541198D01*
X-103482410Y-375511396D01*
X-103764674Y-375394479D01*
X-104018705Y-375224741D01*
X-104234741Y-375008705D01*
X-104404479Y-374754674D01*
X-104521396Y-374472410D01*
X-104581000Y-374172760D01*
X-104581000Y-373867240D01*
X-104521396Y-373567590D01*
X-104404479Y-373285326D01*
X-104234741Y-373031295D01*
X-104018705Y-372815259D01*
X-103764674Y-372645521D01*
X-103482410Y-372528604D01*
X-103332585Y-372498802D01*
X-103182761Y-372469000D01*
X-102877239Y-372469000D01*
X-102727415Y-372498802D01*
X-102727415Y-372498802D01*
G37*
G36*
X-106337448Y-368953497D02*
G01*
X-106088609Y-369002994D01*
X-105894425Y-369083428D01*
X-105619808Y-369197178D01*
X-105197896Y-369479090D01*
X-104839090Y-369837896D01*
X-104557178Y-370259808D01*
X-104443428Y-370534425D01*
X-104362994Y-370728609D01*
X-104264000Y-371226286D01*
X-104264000Y-371733714D01*
X-104362994Y-372231391D01*
X-104420580Y-372370415D01*
X-104557178Y-372700192D01*
X-104839090Y-373122104D01*
X-105197896Y-373480910D01*
X-105619808Y-373762822D01*
X-105871893Y-373867239D01*
X-106088609Y-373957006D01*
X-106337448Y-374006503D01*
X-106586285Y-374056000D01*
X-107093715Y-374056000D01*
X-107342552Y-374006503D01*
X-107591391Y-373957006D01*
X-107808107Y-373867239D01*
X-108060192Y-373762822D01*
X-108482104Y-373480910D01*
X-108840910Y-373122104D01*
X-109122822Y-372700192D01*
X-109259420Y-372370415D01*
X-109317006Y-372231391D01*
X-109416000Y-371733714D01*
X-109416000Y-371226286D01*
X-109317006Y-370728609D01*
X-109236572Y-370534425D01*
X-109122822Y-370259808D01*
X-108840910Y-369837896D01*
X-108482104Y-369479090D01*
X-108060192Y-369197178D01*
X-107785575Y-369083428D01*
X-107591391Y-369002994D01*
X-107342552Y-368953497D01*
X-107093715Y-368904000D01*
X-106586285Y-368904000D01*
X-106337448Y-368953497D01*
X-106337448Y-368953497D01*
G37*
G36*
X-111649896Y-370589585D02*
G01*
X-111481374Y-370659389D01*
X-111329709Y-370760728D01*
X-111200728Y-370889709D01*
X-111099389Y-371041374D01*
X-111029585Y-371209896D01*
X-110994000Y-371388797D01*
X-110994000Y-371571203D01*
X-111029585Y-371750104D01*
X-111099389Y-371918626D01*
X-111200728Y-372070291D01*
X-111329709Y-372199272D01*
X-111481374Y-372300611D01*
X-111649896Y-372370415D01*
X-111828797Y-372406000D01*
X-112011203Y-372406000D01*
X-112190104Y-372370415D01*
X-112358626Y-372300611D01*
X-112510291Y-372199272D01*
X-112639272Y-372070291D01*
X-112740611Y-371918626D01*
X-112810415Y-371750104D01*
X-112846000Y-371571203D01*
X-112846000Y-371388797D01*
X-112810415Y-371209896D01*
X-112740611Y-371041374D01*
X-112639272Y-370889709D01*
X-112510291Y-370760728D01*
X-112358626Y-370659389D01*
X-112190104Y-370589585D01*
X-112011203Y-370554000D01*
X-111828797Y-370554000D01*
X-111649896Y-370589585D01*
X-111649896Y-370589585D01*
G37*
G36*
X-101489896Y-370589585D02*
G01*
X-101321374Y-370659389D01*
X-101169709Y-370760728D01*
X-101040728Y-370889709D01*
X-100939389Y-371041374D01*
X-100869585Y-371209896D01*
X-100834000Y-371388797D01*
X-100834000Y-371571203D01*
X-100869585Y-371750104D01*
X-100939389Y-371918626D01*
X-101040728Y-372070291D01*
X-101169709Y-372199272D01*
X-101321374Y-372300611D01*
X-101489896Y-372370415D01*
X-101668797Y-372406000D01*
X-101851203Y-372406000D01*
X-102030104Y-372370415D01*
X-102198626Y-372300611D01*
X-102350291Y-372199272D01*
X-102479272Y-372070291D01*
X-102580611Y-371918626D01*
X-102650415Y-371750104D01*
X-102686000Y-371571203D01*
X-102686000Y-371388797D01*
X-102650415Y-371209896D01*
X-102580611Y-371041374D01*
X-102479272Y-370889709D01*
X-102350291Y-370760728D01*
X-102198626Y-370659389D01*
X-102030104Y-370589585D01*
X-101851203Y-370554000D01*
X-101668797Y-370554000D01*
X-101489896Y-370589585D01*
X-101489896Y-370589585D01*
G37*
G36*
X-101837415Y-365558802D02*
G01*
X-101687590Y-365588604D01*
X-101405326Y-365705521D01*
X-101151295Y-365875259D01*
X-100935259Y-366091295D01*
X-100765521Y-366345326D01*
X-100716087Y-366464672D01*
X-100648604Y-366627591D01*
X-100589000Y-366927239D01*
X-100589000Y-367232761D01*
X-100618802Y-367382585D01*
X-100648604Y-367532410D01*
X-100765521Y-367814674D01*
X-100935259Y-368068705D01*
X-101151295Y-368284741D01*
X-101405326Y-368454479D01*
X-101687590Y-368571396D01*
X-101837415Y-368601198D01*
X-101987239Y-368631000D01*
X-102292761Y-368631000D01*
X-102442585Y-368601198D01*
X-102592410Y-368571396D01*
X-102874674Y-368454479D01*
X-103128705Y-368284741D01*
X-103344741Y-368068705D01*
X-103514479Y-367814674D01*
X-103631396Y-367532410D01*
X-103661198Y-367382585D01*
X-103691000Y-367232761D01*
X-103691000Y-366927239D01*
X-103631396Y-366627591D01*
X-103563913Y-366464672D01*
X-103514479Y-366345326D01*
X-103344741Y-366091295D01*
X-103128705Y-365875259D01*
X-102874674Y-365705521D01*
X-102592410Y-365588604D01*
X-102442585Y-365558802D01*
X-102292761Y-365529000D01*
X-101987239Y-365529000D01*
X-101837415Y-365558802D01*
X-101837415Y-365558802D01*
G37*
G36*
X-109137415Y-364208802D02*
G01*
X-108987590Y-364238604D01*
X-108705326Y-364355521D01*
X-108451295Y-364525259D01*
X-108235259Y-364741295D01*
X-108065521Y-364995326D01*
X-107948604Y-365277590D01*
X-107948604Y-365277591D01*
X-107889000Y-365577239D01*
X-107889000Y-365882761D01*
X-107890058Y-365888078D01*
X-107948604Y-366182410D01*
X-108065521Y-366464674D01*
X-108235259Y-366718705D01*
X-108451295Y-366934741D01*
X-108705326Y-367104479D01*
X-108987590Y-367221396D01*
X-109044721Y-367232760D01*
X-109287239Y-367281000D01*
X-109592761Y-367281000D01*
X-109835279Y-367232760D01*
X-109892410Y-367221396D01*
X-110174674Y-367104479D01*
X-110428705Y-366934741D01*
X-110644741Y-366718705D01*
X-110814479Y-366464674D01*
X-110931396Y-366182410D01*
X-110989942Y-365888078D01*
X-110991000Y-365882761D01*
X-110991000Y-365577239D01*
X-110931396Y-365277591D01*
X-110931396Y-365277590D01*
X-110814479Y-364995326D01*
X-110644741Y-364741295D01*
X-110428705Y-364525259D01*
X-110174674Y-364355521D01*
X-109892410Y-364238604D01*
X-109742585Y-364208802D01*
X-109592761Y-364179000D01*
X-109287239Y-364179000D01*
X-109137415Y-364208802D01*
X-109137415Y-364208802D01*
G37*
G36*
X-128868330Y-366245574D02*
G01*
X-130670330Y-366245574D01*
X-130670330Y-364443574D01*
X-128868330Y-364443574D01*
X-128868330Y-366245574D01*
X-128868330Y-366245574D01*
G37*
G36*
X-127118888Y-364450092D02*
G01*
X-127052703Y-364456611D01*
X-126882864Y-364508131D01*
X-126726339Y-364591796D01*
X-126706953Y-364607706D01*
X-126589144Y-364704388D01*
X-126505882Y-364805845D01*
X-126476552Y-364841583D01*
X-126392887Y-364998108D01*
X-126341367Y-365167947D01*
X-126323971Y-365344574D01*
X-126341367Y-365521201D01*
X-126392887Y-365691040D01*
X-126476552Y-365847565D01*
X-126499280Y-365875259D01*
X-126589144Y-365984760D01*
X-126690601Y-366068022D01*
X-126726339Y-366097352D01*
X-126882864Y-366181017D01*
X-127052703Y-366232537D01*
X-127118888Y-366239056D01*
X-127185070Y-366245574D01*
X-127273590Y-366245574D01*
X-127339772Y-366239056D01*
X-127405957Y-366232537D01*
X-127575796Y-366181017D01*
X-127732321Y-366097352D01*
X-127768059Y-366068022D01*
X-127869516Y-365984760D01*
X-127959380Y-365875259D01*
X-127982108Y-365847565D01*
X-128065773Y-365691040D01*
X-128117293Y-365521201D01*
X-128134689Y-365344574D01*
X-128117293Y-365167947D01*
X-128065773Y-364998108D01*
X-127982108Y-364841583D01*
X-127952778Y-364805845D01*
X-127869516Y-364704388D01*
X-127751707Y-364607706D01*
X-127732321Y-364591796D01*
X-127575796Y-364508131D01*
X-127405957Y-364456611D01*
X-127339772Y-364450092D01*
X-127273590Y-364443574D01*
X-127185070Y-364443574D01*
X-127118888Y-364450092D01*
X-127118888Y-364450092D01*
G37*
G36*
X-124578888Y-364450092D02*
G01*
X-124512703Y-364456611D01*
X-124342864Y-364508131D01*
X-124186339Y-364591796D01*
X-124166953Y-364607706D01*
X-124049144Y-364704388D01*
X-123965882Y-364805845D01*
X-123936552Y-364841583D01*
X-123852887Y-364998108D01*
X-123801367Y-365167947D01*
X-123783971Y-365344574D01*
X-123801367Y-365521201D01*
X-123852887Y-365691040D01*
X-123936552Y-365847565D01*
X-123959280Y-365875259D01*
X-124049144Y-365984760D01*
X-124150601Y-366068022D01*
X-124186339Y-366097352D01*
X-124342864Y-366181017D01*
X-124512703Y-366232537D01*
X-124578888Y-366239056D01*
X-124645070Y-366245574D01*
X-124733590Y-366245574D01*
X-124799772Y-366239056D01*
X-124865957Y-366232537D01*
X-125035796Y-366181017D01*
X-125192321Y-366097352D01*
X-125228059Y-366068022D01*
X-125329516Y-365984760D01*
X-125419380Y-365875259D01*
X-125442108Y-365847565D01*
X-125525773Y-365691040D01*
X-125577293Y-365521201D01*
X-125594689Y-365344574D01*
X-125577293Y-365167947D01*
X-125525773Y-364998108D01*
X-125442108Y-364841583D01*
X-125412778Y-364805845D01*
X-125329516Y-364704388D01*
X-125211707Y-364607706D01*
X-125192321Y-364591796D01*
X-125035796Y-364508131D01*
X-124865957Y-364456611D01*
X-124799772Y-364450092D01*
X-124733590Y-364443574D01*
X-124645070Y-364443574D01*
X-124578888Y-364450092D01*
X-124578888Y-364450092D01*
G37*
G36*
X-122038888Y-364450092D02*
G01*
X-121972703Y-364456611D01*
X-121802864Y-364508131D01*
X-121646339Y-364591796D01*
X-121626953Y-364607706D01*
X-121509144Y-364704388D01*
X-121425882Y-364805845D01*
X-121396552Y-364841583D01*
X-121312887Y-364998108D01*
X-121261367Y-365167947D01*
X-121243971Y-365344574D01*
X-121261367Y-365521201D01*
X-121312887Y-365691040D01*
X-121396552Y-365847565D01*
X-121419280Y-365875259D01*
X-121509144Y-365984760D01*
X-121610601Y-366068022D01*
X-121646339Y-366097352D01*
X-121802864Y-366181017D01*
X-121972703Y-366232537D01*
X-122038888Y-366239056D01*
X-122105070Y-366245574D01*
X-122193590Y-366245574D01*
X-122259772Y-366239056D01*
X-122325957Y-366232537D01*
X-122495796Y-366181017D01*
X-122652321Y-366097352D01*
X-122688059Y-366068022D01*
X-122789516Y-365984760D01*
X-122879380Y-365875259D01*
X-122902108Y-365847565D01*
X-122985773Y-365691040D01*
X-123037293Y-365521201D01*
X-123054689Y-365344574D01*
X-123037293Y-365167947D01*
X-122985773Y-364998108D01*
X-122902108Y-364841583D01*
X-122872778Y-364805845D01*
X-122789516Y-364704388D01*
X-122671707Y-364607706D01*
X-122652321Y-364591796D01*
X-122495796Y-364508131D01*
X-122325957Y-364456611D01*
X-122259772Y-364450092D01*
X-122193590Y-364443574D01*
X-122105070Y-364443574D01*
X-122038888Y-364450092D01*
X-122038888Y-364450092D01*
G37*
G36*
X-134866177Y-364353411D02*
G01*
X-134799993Y-364359929D01*
X-134630154Y-364411449D01*
X-134473629Y-364495114D01*
X-134457768Y-364508131D01*
X-134336434Y-364607706D01*
X-134253172Y-364709163D01*
X-134223842Y-364744901D01*
X-134140177Y-364901426D01*
X-134088657Y-365071265D01*
X-134071261Y-365247892D01*
X-134088657Y-365424519D01*
X-134140177Y-365594358D01*
X-134223842Y-365750883D01*
X-134253172Y-365786621D01*
X-134336434Y-365888078D01*
X-134437891Y-365971340D01*
X-134473629Y-366000670D01*
X-134630154Y-366084335D01*
X-134799993Y-366135855D01*
X-134866177Y-366142373D01*
X-134932360Y-366148892D01*
X-135020880Y-366148892D01*
X-135087063Y-366142373D01*
X-135153247Y-366135855D01*
X-135323086Y-366084335D01*
X-135479611Y-366000670D01*
X-135515349Y-365971340D01*
X-135616806Y-365888078D01*
X-135700068Y-365786621D01*
X-135729398Y-365750883D01*
X-135813063Y-365594358D01*
X-135864583Y-365424519D01*
X-135881979Y-365247892D01*
X-135864583Y-365071265D01*
X-135813063Y-364901426D01*
X-135729398Y-364744901D01*
X-135700068Y-364709163D01*
X-135616806Y-364607706D01*
X-135495472Y-364508131D01*
X-135479611Y-364495114D01*
X-135323086Y-364411449D01*
X-135153247Y-364359929D01*
X-135087063Y-364353411D01*
X-135020880Y-364346892D01*
X-134932360Y-364346892D01*
X-134866177Y-364353411D01*
X-134866177Y-364353411D01*
G37*
G36*
X-134866177Y-361813411D02*
G01*
X-134799993Y-361819929D01*
X-134630154Y-361871449D01*
X-134473629Y-361955114D01*
X-134437891Y-361984444D01*
X-134336434Y-362067706D01*
X-134284116Y-362131457D01*
X-134223842Y-362204901D01*
X-134140177Y-362361426D01*
X-134088657Y-362531265D01*
X-134071261Y-362707892D01*
X-134088657Y-362884519D01*
X-134140177Y-363054358D01*
X-134223842Y-363210883D01*
X-134253172Y-363246621D01*
X-134336434Y-363348078D01*
X-134437891Y-363431340D01*
X-134473629Y-363460670D01*
X-134630154Y-363544335D01*
X-134799993Y-363595855D01*
X-134866177Y-363602373D01*
X-134932360Y-363608892D01*
X-135020880Y-363608892D01*
X-135087063Y-363602373D01*
X-135153247Y-363595855D01*
X-135323086Y-363544335D01*
X-135479611Y-363460670D01*
X-135515349Y-363431340D01*
X-135616806Y-363348078D01*
X-135700068Y-363246621D01*
X-135729398Y-363210883D01*
X-135813063Y-363054358D01*
X-135864583Y-362884519D01*
X-135881979Y-362707892D01*
X-135864583Y-362531265D01*
X-135813063Y-362361426D01*
X-135729398Y-362204901D01*
X-135669124Y-362131457D01*
X-135616806Y-362067706D01*
X-135515349Y-361984444D01*
X-135479611Y-361955114D01*
X-135323086Y-361871449D01*
X-135153247Y-361819929D01*
X-135087063Y-361813411D01*
X-135020880Y-361806892D01*
X-134932360Y-361806892D01*
X-134866177Y-361813411D01*
X-134866177Y-361813411D01*
G37*
G36*
X-96147698Y-360854232D02*
G01*
X-96081514Y-360860750D01*
X-95911675Y-360912270D01*
X-95755150Y-360995935D01*
X-95744916Y-361004334D01*
X-95617955Y-361108527D01*
X-95534693Y-361209984D01*
X-95505363Y-361245722D01*
X-95421698Y-361402247D01*
X-95370178Y-361572086D01*
X-95352782Y-361748713D01*
X-95370178Y-361925340D01*
X-95421698Y-362095179D01*
X-95505363Y-362251704D01*
X-95534693Y-362287442D01*
X-95617955Y-362388899D01*
X-95719412Y-362472161D01*
X-95755150Y-362501491D01*
X-95911675Y-362585156D01*
X-96081514Y-362636676D01*
X-96147699Y-362643195D01*
X-96213881Y-362649713D01*
X-96302401Y-362649713D01*
X-96368583Y-362643195D01*
X-96434768Y-362636676D01*
X-96604607Y-362585156D01*
X-96761132Y-362501491D01*
X-96796870Y-362472161D01*
X-96898327Y-362388899D01*
X-96981589Y-362287442D01*
X-97010919Y-362251704D01*
X-97094584Y-362095179D01*
X-97146104Y-361925340D01*
X-97163500Y-361748713D01*
X-97146104Y-361572086D01*
X-97094584Y-361402247D01*
X-97010919Y-361245722D01*
X-96981589Y-361209984D01*
X-96898327Y-361108527D01*
X-96771366Y-361004334D01*
X-96761132Y-360995935D01*
X-96604607Y-360912270D01*
X-96434768Y-360860750D01*
X-96368584Y-360854232D01*
X-96302401Y-360847713D01*
X-96213881Y-360847713D01*
X-96147698Y-360854232D01*
X-96147698Y-360854232D01*
G37*
G36*
X-128141369Y-359118863D02*
G01*
X-127991544Y-359148665D01*
X-127709280Y-359265582D01*
X-127455249Y-359435320D01*
X-127239213Y-359651356D01*
X-127069475Y-359905387D01*
X-126952558Y-360187651D01*
X-126952558Y-360187652D01*
X-126892954Y-360487300D01*
X-126892954Y-360792822D01*
X-126895989Y-360808078D01*
X-126952558Y-361092471D01*
X-127069475Y-361374735D01*
X-127239213Y-361628766D01*
X-127455249Y-361844802D01*
X-127709280Y-362014540D01*
X-127991544Y-362131457D01*
X-128141369Y-362161259D01*
X-128291193Y-362191061D01*
X-128596715Y-362191061D01*
X-128746539Y-362161259D01*
X-128896364Y-362131457D01*
X-129178628Y-362014540D01*
X-129432659Y-361844802D01*
X-129648695Y-361628766D01*
X-129818433Y-361374735D01*
X-129935350Y-361092471D01*
X-129991919Y-360808078D01*
X-129994954Y-360792822D01*
X-129994954Y-360487300D01*
X-129935350Y-360187652D01*
X-129935350Y-360187651D01*
X-129818433Y-359905387D01*
X-129648695Y-359651356D01*
X-129432659Y-359435320D01*
X-129178628Y-359265582D01*
X-128896364Y-359148665D01*
X-128746539Y-359118863D01*
X-128596715Y-359089061D01*
X-128291193Y-359089061D01*
X-128141369Y-359118863D01*
X-128141369Y-359118863D01*
G37*
G36*
X-134866178Y-359273410D02*
G01*
X-134799993Y-359279929D01*
X-134630154Y-359331449D01*
X-134473629Y-359415114D01*
X-134449008Y-359435320D01*
X-134336434Y-359527706D01*
X-134284116Y-359591457D01*
X-134223842Y-359664901D01*
X-134140177Y-359821426D01*
X-134088657Y-359991265D01*
X-134071261Y-360167892D01*
X-134088657Y-360344519D01*
X-134140177Y-360514358D01*
X-134223842Y-360670883D01*
X-134253172Y-360706621D01*
X-134336434Y-360808078D01*
X-134437891Y-360891340D01*
X-134473629Y-360920670D01*
X-134630154Y-361004335D01*
X-134799993Y-361055855D01*
X-134866177Y-361062373D01*
X-134932360Y-361068892D01*
X-135020880Y-361068892D01*
X-135087063Y-361062373D01*
X-135153247Y-361055855D01*
X-135323086Y-361004335D01*
X-135479611Y-360920670D01*
X-135515349Y-360891340D01*
X-135616806Y-360808078D01*
X-135700068Y-360706621D01*
X-135729398Y-360670883D01*
X-135813063Y-360514358D01*
X-135864583Y-360344519D01*
X-135881979Y-360167892D01*
X-135864583Y-359991265D01*
X-135813063Y-359821426D01*
X-135729398Y-359664901D01*
X-135669124Y-359591457D01*
X-135616806Y-359527706D01*
X-135504232Y-359435320D01*
X-135479611Y-359415114D01*
X-135323086Y-359331449D01*
X-135153247Y-359279929D01*
X-135087062Y-359273410D01*
X-135020880Y-359266892D01*
X-134932360Y-359266892D01*
X-134866178Y-359273410D01*
X-134866178Y-359273410D01*
G37*
G36*
X-96157014Y-358313314D02*
G01*
X-96081514Y-358320750D01*
X-95911675Y-358372270D01*
X-95755150Y-358455935D01*
X-95719412Y-358485265D01*
X-95617955Y-358568527D01*
X-95534693Y-358669984D01*
X-95505363Y-358705722D01*
X-95421698Y-358862247D01*
X-95370178Y-359032086D01*
X-95352782Y-359208713D01*
X-95370178Y-359385340D01*
X-95421698Y-359555179D01*
X-95505363Y-359711704D01*
X-95534693Y-359747442D01*
X-95617955Y-359848899D01*
X-95719412Y-359932161D01*
X-95755150Y-359961491D01*
X-95911675Y-360045156D01*
X-96081514Y-360096676D01*
X-96147698Y-360103194D01*
X-96213881Y-360109713D01*
X-96302401Y-360109713D01*
X-96368584Y-360103194D01*
X-96434768Y-360096676D01*
X-96604607Y-360045156D01*
X-96761132Y-359961491D01*
X-96796870Y-359932161D01*
X-96898327Y-359848899D01*
X-96981589Y-359747442D01*
X-97010919Y-359711704D01*
X-97094584Y-359555179D01*
X-97146104Y-359385340D01*
X-97163500Y-359208713D01*
X-97146104Y-359032086D01*
X-97094584Y-358862247D01*
X-97010919Y-358705722D01*
X-96981589Y-358669984D01*
X-96898327Y-358568527D01*
X-96796870Y-358485265D01*
X-96761132Y-358455935D01*
X-96604607Y-358372270D01*
X-96434768Y-358320750D01*
X-96359268Y-358313314D01*
X-96302401Y-358307713D01*
X-96213881Y-358307713D01*
X-96157014Y-358313314D01*
X-96157014Y-358313314D01*
G37*
G36*
X-103937415Y-356650720D02*
G01*
X-103787590Y-356680522D01*
X-103505326Y-356797439D01*
X-103251295Y-356967177D01*
X-103035259Y-357183213D01*
X-102865521Y-357437244D01*
X-102778368Y-357647652D01*
X-102748604Y-357719509D01*
X-102689000Y-358019157D01*
X-102689000Y-358324679D01*
X-102715108Y-358455934D01*
X-102748604Y-358624328D01*
X-102865521Y-358906592D01*
X-103035259Y-359160623D01*
X-103251295Y-359376659D01*
X-103505326Y-359546397D01*
X-103787590Y-359663314D01*
X-103937415Y-359693116D01*
X-104087239Y-359722918D01*
X-104392761Y-359722918D01*
X-104542585Y-359693116D01*
X-104692410Y-359663314D01*
X-104974674Y-359546397D01*
X-105228705Y-359376659D01*
X-105444741Y-359160623D01*
X-105614479Y-358906592D01*
X-105731396Y-358624328D01*
X-105764892Y-358455934D01*
X-105791000Y-358324679D01*
X-105791000Y-358019157D01*
X-105731396Y-357719509D01*
X-105701632Y-357647652D01*
X-105614479Y-357437244D01*
X-105444741Y-357183213D01*
X-105228705Y-356967177D01*
X-104974674Y-356797439D01*
X-104692410Y-356680522D01*
X-104542585Y-356650720D01*
X-104392761Y-356620918D01*
X-104087239Y-356620918D01*
X-103937415Y-356650720D01*
X-103937415Y-356650720D01*
G37*
G36*
X-121791369Y-356578863D02*
G01*
X-121641544Y-356608665D01*
X-121359280Y-356725582D01*
X-121105249Y-356895320D01*
X-120889213Y-357111356D01*
X-120719475Y-357365387D01*
X-120602558Y-357647651D01*
X-120542954Y-357947301D01*
X-120542954Y-358252821D01*
X-120602558Y-358552471D01*
X-120719475Y-358834735D01*
X-120889213Y-359088766D01*
X-121105249Y-359304802D01*
X-121359280Y-359474540D01*
X-121641544Y-359591457D01*
X-121791369Y-359621259D01*
X-121941193Y-359651061D01*
X-122246715Y-359651061D01*
X-122396539Y-359621259D01*
X-122546364Y-359591457D01*
X-122828628Y-359474540D01*
X-123082659Y-359304802D01*
X-123298695Y-359088766D01*
X-123468433Y-358834735D01*
X-123585350Y-358552471D01*
X-123644954Y-358252821D01*
X-123644954Y-357947301D01*
X-123585350Y-357647651D01*
X-123468433Y-357365387D01*
X-123298695Y-357111356D01*
X-123082659Y-356895320D01*
X-122828628Y-356725582D01*
X-122546364Y-356608665D01*
X-122396539Y-356578863D01*
X-122246715Y-356549061D01*
X-121941193Y-356549061D01*
X-121791369Y-356578863D01*
X-121791369Y-356578863D01*
G37*
G36*
X-134075620Y-358528892D02*
G01*
X-135877620Y-358528892D01*
X-135877620Y-356726892D01*
X-134075620Y-356726892D01*
X-134075620Y-358528892D01*
X-134075620Y-358528892D01*
G37*
G36*
X-111291524Y-355289957D02*
G01*
X-111087590Y-355330522D01*
X-110805326Y-355447439D01*
X-110551295Y-355617177D01*
X-110335259Y-355833213D01*
X-110165521Y-356087244D01*
X-110048604Y-356369508D01*
X-110025420Y-356486061D01*
X-109989000Y-356669157D01*
X-109989000Y-356974679D01*
X-110016187Y-357111356D01*
X-110048604Y-357274328D01*
X-110165521Y-357556592D01*
X-110335259Y-357810623D01*
X-110551295Y-358026659D01*
X-110805326Y-358196397D01*
X-111087590Y-358313314D01*
X-111144721Y-358324678D01*
X-111387239Y-358372918D01*
X-111692761Y-358372918D01*
X-111935279Y-358324678D01*
X-111992410Y-358313314D01*
X-112274674Y-358196397D01*
X-112528705Y-358026659D01*
X-112744741Y-357810623D01*
X-112914479Y-357556592D01*
X-113031396Y-357274328D01*
X-113063813Y-357111356D01*
X-113091000Y-356974679D01*
X-113091000Y-356669157D01*
X-113054580Y-356486061D01*
X-113031396Y-356369508D01*
X-112914479Y-356087244D01*
X-112744741Y-355833213D01*
X-112528705Y-355617177D01*
X-112274674Y-355447439D01*
X-111992410Y-355330522D01*
X-111788476Y-355289957D01*
X-111692761Y-355270918D01*
X-111387239Y-355270918D01*
X-111291524Y-355289957D01*
X-111291524Y-355289957D01*
G37*
G36*
X-125508735Y-353012208D02*
G01*
X-125152563Y-353083055D01*
X-124958379Y-353163489D01*
X-124683762Y-353277239D01*
X-124261850Y-353559151D01*
X-123903044Y-353917957D01*
X-123621132Y-354339869D01*
X-123507382Y-354614486D01*
X-123426948Y-354808670D01*
X-123394903Y-354969770D01*
X-123327954Y-355306346D01*
X-123327954Y-355813776D01*
X-123348275Y-355915934D01*
X-123426948Y-356311452D01*
X-123484534Y-356450476D01*
X-123621132Y-356780253D01*
X-123903044Y-357202165D01*
X-124261850Y-357560971D01*
X-124683762Y-357842883D01*
X-124935847Y-357947300D01*
X-125152563Y-358037067D01*
X-125401402Y-358086564D01*
X-125650239Y-358136061D01*
X-126157669Y-358136061D01*
X-126406506Y-358086564D01*
X-126655345Y-358037067D01*
X-126872061Y-357947300D01*
X-127124146Y-357842883D01*
X-127546058Y-357560971D01*
X-127904864Y-357202165D01*
X-128186776Y-356780253D01*
X-128323374Y-356450476D01*
X-128380960Y-356311452D01*
X-128459633Y-355915934D01*
X-128479954Y-355813776D01*
X-128479954Y-355306346D01*
X-128413005Y-354969770D01*
X-128380960Y-354808670D01*
X-128300526Y-354614486D01*
X-128186776Y-354339869D01*
X-127904864Y-353917957D01*
X-127546058Y-353559151D01*
X-127124146Y-353277239D01*
X-126849529Y-353163489D01*
X-126655345Y-353083055D01*
X-126299173Y-353012208D01*
X-126157669Y-352984061D01*
X-125650239Y-352984061D01*
X-125508735Y-353012208D01*
X-125508735Y-353012208D01*
G37*
G36*
X-96147698Y-355774232D02*
G01*
X-96081514Y-355780750D01*
X-95911675Y-355832270D01*
X-95755150Y-355915935D01*
X-95719412Y-355945265D01*
X-95617955Y-356028527D01*
X-95534693Y-356129984D01*
X-95505363Y-356165722D01*
X-95421698Y-356322247D01*
X-95370178Y-356492086D01*
X-95352782Y-356668713D01*
X-95370178Y-356845340D01*
X-95421698Y-357015179D01*
X-95505363Y-357171704D01*
X-95530362Y-357202165D01*
X-95617955Y-357308899D01*
X-95719412Y-357392161D01*
X-95755150Y-357421491D01*
X-95911675Y-357505156D01*
X-96081514Y-357556676D01*
X-96125123Y-357560971D01*
X-96213881Y-357569713D01*
X-96302401Y-357569713D01*
X-96391159Y-357560971D01*
X-96434768Y-357556676D01*
X-96604607Y-357505156D01*
X-96761132Y-357421491D01*
X-96796870Y-357392161D01*
X-96898327Y-357308899D01*
X-96985920Y-357202165D01*
X-97010919Y-357171704D01*
X-97094584Y-357015179D01*
X-97146104Y-356845340D01*
X-97163500Y-356668713D01*
X-97146104Y-356492086D01*
X-97094584Y-356322247D01*
X-97010919Y-356165722D01*
X-96981589Y-356129984D01*
X-96898327Y-356028527D01*
X-96796870Y-355945265D01*
X-96761132Y-355915935D01*
X-96604607Y-355832270D01*
X-96434768Y-355780750D01*
X-96368584Y-355774232D01*
X-96302401Y-355767713D01*
X-96213881Y-355767713D01*
X-96147698Y-355774232D01*
X-96147698Y-355774232D01*
G37*
G36*
X-120553850Y-354669646D02*
G01*
X-120385328Y-354739450D01*
X-120233663Y-354840789D01*
X-120104682Y-354969770D01*
X-120003343Y-355121435D01*
X-119933539Y-355289957D01*
X-119897954Y-355468858D01*
X-119897954Y-355651264D01*
X-119933539Y-355830165D01*
X-120003343Y-355998687D01*
X-120104682Y-356150352D01*
X-120233663Y-356279333D01*
X-120385328Y-356380672D01*
X-120553850Y-356450476D01*
X-120732751Y-356486061D01*
X-120915157Y-356486061D01*
X-121094058Y-356450476D01*
X-121262580Y-356380672D01*
X-121414245Y-356279333D01*
X-121543226Y-356150352D01*
X-121644565Y-355998687D01*
X-121714369Y-355830165D01*
X-121749954Y-355651264D01*
X-121749954Y-355468858D01*
X-121714369Y-355289957D01*
X-121644565Y-355121435D01*
X-121543226Y-354969770D01*
X-121414245Y-354840789D01*
X-121262580Y-354739450D01*
X-121094058Y-354669646D01*
X-120915157Y-354634061D01*
X-120732751Y-354634061D01*
X-120553850Y-354669646D01*
X-120553850Y-354669646D01*
G37*
G36*
X-130713850Y-354669646D02*
G01*
X-130545328Y-354739450D01*
X-130393663Y-354840789D01*
X-130264682Y-354969770D01*
X-130163343Y-355121435D01*
X-130093539Y-355289957D01*
X-130057954Y-355468858D01*
X-130057954Y-355651264D01*
X-130093539Y-355830165D01*
X-130163343Y-355998687D01*
X-130264682Y-356150352D01*
X-130393663Y-356279333D01*
X-130545328Y-356380672D01*
X-130713850Y-356450476D01*
X-130892751Y-356486061D01*
X-131075157Y-356486061D01*
X-131254058Y-356450476D01*
X-131422580Y-356380672D01*
X-131574245Y-356279333D01*
X-131703226Y-356150352D01*
X-131804565Y-355998687D01*
X-131874369Y-355830165D01*
X-131909954Y-355651264D01*
X-131909954Y-355468858D01*
X-131874369Y-355289957D01*
X-131804565Y-355121435D01*
X-131703226Y-354969770D01*
X-131574245Y-354840789D01*
X-131422580Y-354739450D01*
X-131254058Y-354669646D01*
X-131075157Y-354634061D01*
X-130892751Y-354634061D01*
X-130713850Y-354669646D01*
X-130713850Y-354669646D01*
G37*
G36*
X-95357141Y-355029713D02*
G01*
X-97159141Y-355029713D01*
X-97159141Y-353227713D01*
X-95357141Y-353227713D01*
X-95357141Y-355029713D01*
X-95357141Y-355029713D01*
G37*
G36*
X-106337448Y-349895415D02*
G01*
X-106088609Y-349944912D01*
X-106045371Y-349962822D01*
X-105619808Y-350139096D01*
X-105197896Y-350421008D01*
X-104839090Y-350779814D01*
X-104557178Y-351201726D01*
X-104486104Y-351373314D01*
X-104420579Y-351531504D01*
X-104362994Y-351670528D01*
X-104267866Y-352148765D01*
X-104264000Y-352168204D01*
X-104264000Y-352675632D01*
X-104362994Y-353173309D01*
X-104420580Y-353312333D01*
X-104557178Y-353642110D01*
X-104839090Y-354064022D01*
X-105197896Y-354422828D01*
X-105619808Y-354704740D01*
X-105870720Y-354808671D01*
X-106088609Y-354898924D01*
X-106337448Y-354948421D01*
X-106586285Y-354997918D01*
X-107093715Y-354997918D01*
X-107342552Y-354948421D01*
X-107591391Y-354898924D01*
X-107809280Y-354808671D01*
X-108060192Y-354704740D01*
X-108482104Y-354422828D01*
X-108840910Y-354064022D01*
X-109122822Y-353642110D01*
X-109259420Y-353312333D01*
X-109317006Y-353173309D01*
X-109416000Y-352675632D01*
X-109416000Y-352168204D01*
X-109412133Y-352148765D01*
X-109317006Y-351670528D01*
X-109259420Y-351531504D01*
X-109193896Y-351373314D01*
X-109122822Y-351201726D01*
X-108840910Y-350779814D01*
X-108482104Y-350421008D01*
X-108060192Y-350139096D01*
X-107634629Y-349962822D01*
X-107591391Y-349944912D01*
X-107342552Y-349895415D01*
X-107093715Y-349845918D01*
X-106586285Y-349845918D01*
X-106337448Y-349895415D01*
X-106337448Y-349895415D01*
G37*
G36*
X-111649896Y-351531503D02*
G01*
X-111481374Y-351601307D01*
X-111329709Y-351702646D01*
X-111200728Y-351831627D01*
X-111099389Y-351983292D01*
X-111029585Y-352151814D01*
X-110994000Y-352330715D01*
X-110994000Y-352513121D01*
X-111029585Y-352692022D01*
X-111099389Y-352860544D01*
X-111200728Y-353012209D01*
X-111329709Y-353141190D01*
X-111481374Y-353242529D01*
X-111649896Y-353312333D01*
X-111828797Y-353347918D01*
X-112011203Y-353347918D01*
X-112190104Y-353312333D01*
X-112358626Y-353242529D01*
X-112510291Y-353141190D01*
X-112639272Y-353012209D01*
X-112740611Y-352860544D01*
X-112810415Y-352692022D01*
X-112846000Y-352513121D01*
X-112846000Y-352330715D01*
X-112810415Y-352151814D01*
X-112740611Y-351983292D01*
X-112639272Y-351831627D01*
X-112510291Y-351702646D01*
X-112358626Y-351601307D01*
X-112190104Y-351531503D01*
X-112011203Y-351495918D01*
X-111828797Y-351495918D01*
X-111649896Y-351531503D01*
X-111649896Y-351531503D01*
G37*
G36*
X-101489896Y-351531503D02*
G01*
X-101321374Y-351601307D01*
X-101169709Y-351702646D01*
X-101040728Y-351831627D01*
X-100939389Y-351983292D01*
X-100869585Y-352151814D01*
X-100834000Y-352330715D01*
X-100834000Y-352513121D01*
X-100869585Y-352692022D01*
X-100939389Y-352860544D01*
X-101040728Y-353012209D01*
X-101169709Y-353141190D01*
X-101321374Y-353242529D01*
X-101489896Y-353312333D01*
X-101668797Y-353347918D01*
X-101851203Y-353347918D01*
X-102030104Y-353312333D01*
X-102198626Y-353242529D01*
X-102350291Y-353141190D01*
X-102479272Y-353012209D01*
X-102580611Y-352860544D01*
X-102650415Y-352692022D01*
X-102686000Y-352513121D01*
X-102686000Y-352330715D01*
X-102650415Y-352151814D01*
X-102580611Y-351983292D01*
X-102479272Y-351831627D01*
X-102350291Y-351702646D01*
X-102198626Y-351601307D01*
X-102030104Y-351531503D01*
X-101851203Y-351495918D01*
X-101668797Y-351495918D01*
X-101489896Y-351531503D01*
X-101489896Y-351531503D01*
G37*
G36*
X-120901369Y-349638863D02*
G01*
X-120751544Y-349668665D01*
X-120469280Y-349785582D01*
X-120215249Y-349955320D01*
X-119999213Y-350171356D01*
X-119829475Y-350425387D01*
X-119780041Y-350544733D01*
X-119712558Y-350707652D01*
X-119652954Y-351007300D01*
X-119652954Y-351312822D01*
X-119664987Y-351373314D01*
X-119712558Y-351612471D01*
X-119829475Y-351894735D01*
X-119999213Y-352148766D01*
X-120215249Y-352364802D01*
X-120469280Y-352534540D01*
X-120751544Y-352651457D01*
X-120873080Y-352675632D01*
X-121051193Y-352711061D01*
X-121356715Y-352711061D01*
X-121534828Y-352675632D01*
X-121656364Y-352651457D01*
X-121938628Y-352534540D01*
X-122192659Y-352364802D01*
X-122408695Y-352148766D01*
X-122578433Y-351894735D01*
X-122695350Y-351612471D01*
X-122742921Y-351373314D01*
X-122754954Y-351312822D01*
X-122754954Y-351007300D01*
X-122695350Y-350707652D01*
X-122627867Y-350544733D01*
X-122578433Y-350425387D01*
X-122408695Y-350171356D01*
X-122192659Y-349955320D01*
X-121938628Y-349785582D01*
X-121656364Y-349668665D01*
X-121506539Y-349638863D01*
X-121356715Y-349609061D01*
X-121051193Y-349609061D01*
X-120901369Y-349638863D01*
X-120901369Y-349638863D01*
G37*
G36*
X-110347415Y-348360720D02*
G01*
X-110197590Y-348390522D01*
X-109915326Y-348507439D01*
X-109661295Y-348677177D01*
X-109445259Y-348893213D01*
X-109275521Y-349147244D01*
X-109158604Y-349429508D01*
X-109099000Y-349729158D01*
X-109099000Y-350034678D01*
X-109158604Y-350334328D01*
X-109275521Y-350616592D01*
X-109445259Y-350870623D01*
X-109661295Y-351086659D01*
X-109915326Y-351256397D01*
X-110197590Y-351373314D01*
X-110347415Y-351403116D01*
X-110497239Y-351432918D01*
X-110802761Y-351432918D01*
X-110952585Y-351403116D01*
X-111102410Y-351373314D01*
X-111384674Y-351256397D01*
X-111638705Y-351086659D01*
X-111854741Y-350870623D01*
X-112024479Y-350616592D01*
X-112141396Y-350334328D01*
X-112201000Y-350034678D01*
X-112201000Y-349729158D01*
X-112141396Y-349429508D01*
X-112024479Y-349147244D01*
X-111854741Y-348893213D01*
X-111638705Y-348677177D01*
X-111384674Y-348507439D01*
X-111102410Y-348390522D01*
X-110952585Y-348360720D01*
X-110802761Y-348330918D01*
X-110497239Y-348330918D01*
X-110347415Y-348360720D01*
X-110347415Y-348360720D01*
G37*
G36*
X-128201369Y-348288863D02*
G01*
X-128051544Y-348318665D01*
X-127769280Y-348435582D01*
X-127515249Y-348605320D01*
X-127299213Y-348821356D01*
X-127129475Y-349075387D01*
X-127012558Y-349357651D01*
X-127012558Y-349357652D01*
X-126962549Y-349609061D01*
X-126952954Y-349657301D01*
X-126952954Y-349962821D01*
X-127012558Y-350262471D01*
X-127129475Y-350544735D01*
X-127299213Y-350798766D01*
X-127515249Y-351014802D01*
X-127769280Y-351184540D01*
X-128051544Y-351301457D01*
X-128108675Y-351312821D01*
X-128351193Y-351361061D01*
X-128656715Y-351361061D01*
X-128899233Y-351312821D01*
X-128956364Y-351301457D01*
X-129238628Y-351184540D01*
X-129492659Y-351014802D01*
X-129708695Y-350798766D01*
X-129878433Y-350544735D01*
X-129995350Y-350262471D01*
X-130054954Y-349962821D01*
X-130054954Y-349657301D01*
X-130045358Y-349609061D01*
X-129995350Y-349357652D01*
X-129995350Y-349357651D01*
X-129878433Y-349075387D01*
X-129708695Y-348821356D01*
X-129492659Y-348605320D01*
X-129238628Y-348435582D01*
X-128956364Y-348318665D01*
X-128806539Y-348288863D01*
X-128656715Y-348259061D01*
X-128351193Y-348259061D01*
X-128201369Y-348288863D01*
X-128201369Y-348288863D01*
G37*
G36*
X-103997415Y-345820720D02*
G01*
X-103847590Y-345850522D01*
X-103565326Y-345967439D01*
X-103311295Y-346137177D01*
X-103095259Y-346353213D01*
X-102925521Y-346607244D01*
X-102808604Y-346889508D01*
X-102749000Y-347189158D01*
X-102749000Y-347494678D01*
X-102808604Y-347794328D01*
X-102925521Y-348076592D01*
X-103095259Y-348330623D01*
X-103311295Y-348546659D01*
X-103565326Y-348716397D01*
X-103847590Y-348833314D01*
X-103997415Y-348863116D01*
X-104147239Y-348892918D01*
X-104452761Y-348892918D01*
X-104602585Y-348863116D01*
X-104752410Y-348833314D01*
X-105034674Y-348716397D01*
X-105288705Y-348546659D01*
X-105504741Y-348330623D01*
X-105674479Y-348076592D01*
X-105791396Y-347794328D01*
X-105851000Y-347494678D01*
X-105851000Y-347189158D01*
X-105791396Y-346889508D01*
X-105674479Y-346607244D01*
X-105504741Y-346353213D01*
X-105288705Y-346137177D01*
X-105034674Y-345967439D01*
X-104752410Y-345850522D01*
X-104602585Y-345820720D01*
X-104452761Y-345790918D01*
X-104147239Y-345790918D01*
X-103997415Y-345820720D01*
X-103997415Y-345820720D01*
G37*
G36*
X-107749724Y-344297694D02*
G01*
X-109490322Y-344764086D01*
X-109956714Y-343023488D01*
X-108216116Y-342557096D01*
X-107749724Y-344297694D01*
X-107749724Y-344297694D01*
G37*
G36*
X-106289324Y-342108710D02*
G01*
X-106223140Y-342115228D01*
X-106053301Y-342166748D01*
X-105896776Y-342250413D01*
X-105861038Y-342279743D01*
X-105759581Y-342363005D01*
X-105676319Y-342464462D01*
X-105646989Y-342500200D01*
X-105563324Y-342656725D01*
X-105511804Y-342826564D01*
X-105494408Y-343003191D01*
X-105511804Y-343179818D01*
X-105563324Y-343349657D01*
X-105646989Y-343506182D01*
X-105676319Y-343541920D01*
X-105759581Y-343643377D01*
X-105861038Y-343726639D01*
X-105896776Y-343755969D01*
X-106053301Y-343839634D01*
X-106223140Y-343891154D01*
X-106289324Y-343897672D01*
X-106355507Y-343904191D01*
X-106444027Y-343904191D01*
X-106510210Y-343897672D01*
X-106576394Y-343891154D01*
X-106746233Y-343839634D01*
X-106902758Y-343755969D01*
X-106938496Y-343726639D01*
X-107039953Y-343643377D01*
X-107123215Y-343541920D01*
X-107152545Y-343506182D01*
X-107236210Y-343349657D01*
X-107287730Y-343179818D01*
X-107305126Y-343003191D01*
X-107287730Y-342826564D01*
X-107236210Y-342656725D01*
X-107152545Y-342500200D01*
X-107123215Y-342464462D01*
X-107039953Y-342363005D01*
X-106938496Y-342279743D01*
X-106902758Y-342250413D01*
X-106746233Y-342166748D01*
X-106576394Y-342115228D01*
X-106510210Y-342108710D01*
X-106444027Y-342102191D01*
X-106355507Y-342102191D01*
X-106289324Y-342108710D01*
X-106289324Y-342108710D01*
G37*
G36*
X-103835873Y-341451309D02*
G01*
X-103769689Y-341457827D01*
X-103599850Y-341509347D01*
X-103443325Y-341593012D01*
X-103407587Y-341622342D01*
X-103306130Y-341705604D01*
X-103222868Y-341807061D01*
X-103193538Y-341842799D01*
X-103109873Y-341999324D01*
X-103058353Y-342169163D01*
X-103040957Y-342345790D01*
X-103058353Y-342522417D01*
X-103109873Y-342692256D01*
X-103193538Y-342848781D01*
X-103222868Y-342884519D01*
X-103306130Y-342985976D01*
X-103407587Y-343069238D01*
X-103443325Y-343098568D01*
X-103599850Y-343182233D01*
X-103769689Y-343233753D01*
X-103835873Y-343240271D01*
X-103902056Y-343246790D01*
X-103990576Y-343246790D01*
X-104056759Y-343240271D01*
X-104122943Y-343233753D01*
X-104292782Y-343182233D01*
X-104449307Y-343098568D01*
X-104485045Y-343069238D01*
X-104586502Y-342985976D01*
X-104669764Y-342884519D01*
X-104699094Y-342848781D01*
X-104782759Y-342692256D01*
X-104834279Y-342522417D01*
X-104851675Y-342345790D01*
X-104834279Y-342169163D01*
X-104782759Y-341999324D01*
X-104699094Y-341842799D01*
X-104669764Y-341807061D01*
X-104586502Y-341705604D01*
X-104485045Y-341622342D01*
X-104449307Y-341593012D01*
X-104292782Y-341509347D01*
X-104122943Y-341457827D01*
X-104056759Y-341451309D01*
X-103990576Y-341444790D01*
X-103902056Y-341444790D01*
X-103835873Y-341451309D01*
X-103835873Y-341451309D01*
G37*
G36*
X-101382421Y-340793909D02*
G01*
X-101316237Y-340800427D01*
X-101146398Y-340851947D01*
X-100989873Y-340935612D01*
X-100954135Y-340964942D01*
X-100852678Y-341048204D01*
X-100769416Y-341149661D01*
X-100740086Y-341185399D01*
X-100656421Y-341341924D01*
X-100604901Y-341511763D01*
X-100587505Y-341688390D01*
X-100604901Y-341865017D01*
X-100656421Y-342034856D01*
X-100740086Y-342191381D01*
X-100769416Y-342227119D01*
X-100852678Y-342328576D01*
X-100954135Y-342411838D01*
X-100989873Y-342441168D01*
X-101146398Y-342524833D01*
X-101316237Y-342576353D01*
X-101382422Y-342582872D01*
X-101448604Y-342589390D01*
X-101537124Y-342589390D01*
X-101603306Y-342582872D01*
X-101669491Y-342576353D01*
X-101839330Y-342524833D01*
X-101995855Y-342441168D01*
X-102031593Y-342411838D01*
X-102133050Y-342328576D01*
X-102216312Y-342227119D01*
X-102245642Y-342191381D01*
X-102329307Y-342034856D01*
X-102380827Y-341865017D01*
X-102398223Y-341688390D01*
X-102380827Y-341511763D01*
X-102329307Y-341341924D01*
X-102245642Y-341185399D01*
X-102216312Y-341149661D01*
X-102133050Y-341048204D01*
X-102031593Y-340964942D01*
X-101995855Y-340935612D01*
X-101839330Y-340851947D01*
X-101669491Y-340800427D01*
X-101603307Y-340793909D01*
X-101537124Y-340787390D01*
X-101448604Y-340787390D01*
X-101382421Y-340793909D01*
X-101382421Y-340793909D01*
G37*
M02*
