G04 #@! TF.GenerationSoftware,KiCad,Pcbnew,(5.1.4)-1*
G04 #@! TF.CreationDate,2023-09-09T05:28:41-04:00*
G04 #@! TF.ProjectId,ThumbsUp,5468756d-6273-4557-902e-6b696361645f,rev?*
G04 #@! TF.SameCoordinates,Original*
G04 #@! TF.FileFunction,Legend,Bot*
G04 #@! TF.FilePolarity,Positive*
%FSLAX46Y46*%
G04 Gerber Fmt 4.6, Leading zero omitted, Abs format (unit mm)*
G04 Created by KiCad (PCBNEW (5.1.4)-1) date 2023-09-09 05:28:41*
%MOMM*%
%LPD*%
G04 APERTURE LIST*
%ADD10C,0.150000*%
%ADD11C,0.120000*%
G04 APERTURE END LIST*
D10*
X-54080704Y-418695026D02*
X-53593259Y-418378379D01*
X-53550885Y-418909087D02*
X-53176278Y-417981903D01*
X-53529491Y-417839196D01*
X-53635633Y-417847671D01*
X-53697623Y-417873984D01*
X-53777451Y-417944449D01*
X-53830966Y-418076904D01*
X-53822491Y-418183045D01*
X-53796178Y-418245035D01*
X-53725713Y-418324864D01*
X-53372500Y-418467571D01*
X-54478068Y-418534481D02*
X-54103462Y-417607297D01*
X-55048484Y-417276842D02*
X-54942342Y-417268367D01*
X-54809888Y-417321882D01*
X-54695271Y-417419549D01*
X-54642645Y-417543529D01*
X-54634170Y-417649671D01*
X-54661372Y-417844116D01*
X-54714887Y-417976570D01*
X-54830392Y-418135338D01*
X-54910221Y-418205803D01*
X-55034201Y-418258430D01*
X-55184494Y-418249066D01*
X-55272797Y-418213389D01*
X-55387414Y-418115722D01*
X-55413727Y-418053732D01*
X-55288858Y-417744671D01*
X-55112252Y-417816025D01*
X-55846768Y-417981490D02*
X-55472162Y-417054306D01*
X-55650546Y-417495822D02*
X-56180365Y-417281761D01*
X-56376588Y-417767429D02*
X-56001981Y-416840245D01*
X-56311042Y-416715376D02*
X-56840862Y-416501315D01*
X-56950559Y-417535530D02*
X-56575952Y-416608346D01*
X-58343794Y-416407679D02*
X-58034733Y-416532548D01*
X-58230955Y-417018216D02*
X-57856349Y-416091032D01*
X-58297865Y-415912648D01*
X-59555504Y-416483064D02*
X-59068058Y-416166416D01*
X-59025684Y-416697124D02*
X-58651078Y-415769941D01*
X-59004291Y-415627233D01*
X-59110432Y-415635708D01*
X-59172422Y-415662021D01*
X-59252251Y-415732486D01*
X-59305766Y-415864941D01*
X-59297291Y-415971083D01*
X-59270978Y-416033073D01*
X-59200513Y-416112901D01*
X-58847300Y-416255608D01*
X-59754868Y-415323980D02*
X-59931475Y-415252627D01*
X-60037616Y-415261102D01*
X-60161596Y-415313728D01*
X-60277102Y-415472496D01*
X-60401970Y-415781557D01*
X-60429172Y-415976002D01*
X-60376546Y-416099982D01*
X-60306081Y-416179811D01*
X-60129475Y-416251164D01*
X-60023333Y-416242689D01*
X-59899353Y-416190063D01*
X-59783848Y-416031295D01*
X-59658979Y-415722234D01*
X-59631777Y-415527789D01*
X-59684403Y-415403809D01*
X-59754868Y-415323980D01*
X-60924204Y-415930073D02*
X-60549597Y-415002889D01*
X-61126235Y-415540294D01*
X-61167720Y-414753151D01*
X-61542326Y-415680335D01*
X-62803107Y-414606000D02*
X-62953400Y-414596636D01*
X-63015390Y-414622949D01*
X-63095219Y-414693414D01*
X-63148734Y-414825869D01*
X-63140259Y-414932011D01*
X-63113946Y-414994001D01*
X-63043481Y-415073829D01*
X-62690268Y-415216536D01*
X-62315662Y-414289353D01*
X-62624723Y-414164484D01*
X-62730865Y-414172959D01*
X-62792855Y-414199272D01*
X-62872683Y-414269737D01*
X-62908360Y-414358040D01*
X-62899885Y-414464181D01*
X-62873572Y-414526171D01*
X-62803107Y-414606000D01*
X-62494046Y-414730869D01*
X-63421230Y-414356262D02*
X-63730291Y-414231393D01*
X-64058968Y-414663546D02*
X-63617452Y-414841930D01*
X-63242846Y-413914746D01*
X-63684362Y-413736362D01*
X-64897849Y-414324616D02*
X-64456333Y-414503000D01*
X-64081726Y-413575816D01*
X-65008910Y-413201210D02*
X-65185516Y-413129856D01*
X-65291658Y-413138331D01*
X-65415638Y-413190957D01*
X-65531143Y-413349725D01*
X-65656012Y-413658787D01*
X-65683214Y-413853231D01*
X-65630588Y-413977211D01*
X-65560123Y-414057040D01*
X-65383517Y-414128394D01*
X-65277375Y-414119919D01*
X-65153395Y-414067292D01*
X-65037890Y-413908524D01*
X-64913021Y-413599463D01*
X-64885819Y-413405018D01*
X-64938445Y-413281038D01*
X-65008910Y-413201210D01*
X-65715336Y-412915795D02*
X-66310700Y-413753787D01*
X-66219731Y-413020159D01*
X-66663913Y-413611080D01*
X-66510065Y-412594704D01*
D11*
X-68677941Y-396876043D02*
X-68333712Y-395591361D01*
X-69962622Y-396531813D02*
X-68677941Y-396876043D01*
X-71189348Y-396203113D02*
X-70500889Y-393633750D01*
X-70500889Y-393633750D02*
X-77919200Y-391646020D01*
X-71189348Y-396203113D02*
X-78607658Y-394215383D01*
X-78607658Y-394215383D02*
X-77919200Y-391646020D01*
X-42103013Y-407883573D02*
X-43433013Y-407883573D01*
X-42103013Y-409213573D02*
X-42103013Y-407883573D01*
X-42103013Y-410483573D02*
X-44763013Y-410483573D01*
X-44763013Y-410483573D02*
X-44763013Y-418163573D01*
X-42103013Y-410483573D02*
X-42103013Y-418163573D01*
X-42103013Y-418163573D02*
X-44763013Y-418163573D01*
X-47073868Y-418231045D02*
X-47073868Y-416901045D01*
X-48403868Y-418231045D02*
X-47073868Y-418231045D01*
X-49673868Y-418231045D02*
X-49673868Y-415571045D01*
X-49673868Y-415571045D02*
X-57353868Y-415571045D01*
X-49673868Y-418231045D02*
X-57353868Y-418231045D01*
X-57353868Y-418231045D02*
X-57353868Y-415571045D01*
X-80825511Y-404399102D02*
X-82155511Y-404399102D01*
X-80825511Y-405729102D02*
X-80825511Y-404399102D01*
X-80825511Y-406999102D02*
X-83485511Y-406999102D01*
X-83485511Y-406999102D02*
X-83485511Y-414679102D01*
X-80825511Y-406999102D02*
X-80825511Y-414679102D01*
X-80825511Y-414679102D02*
X-83485511Y-414679102D01*
D10*
X-67687225Y-394926505D02*
X-66997278Y-395111376D01*
X-66846964Y-395102354D01*
X-66730321Y-395035010D01*
X-66647351Y-394909346D01*
X-66622701Y-394817353D01*
X-67921394Y-395800438D02*
X-67872095Y-395616452D01*
X-67801450Y-395536784D01*
X-67743128Y-395503112D01*
X-67580490Y-395448094D01*
X-67384179Y-395451396D01*
X-67016207Y-395549994D01*
X-66936539Y-395620640D01*
X-66902867Y-395678961D01*
X-66881520Y-395783278D01*
X-66930819Y-395967264D01*
X-67001465Y-396046933D01*
X-67059786Y-396080604D01*
X-67164104Y-396101951D01*
X-67394086Y-396040328D01*
X-67473754Y-395969682D01*
X-67507426Y-395911361D01*
X-67528773Y-395807043D01*
X-67479474Y-395623057D01*
X-67408828Y-395543389D01*
X-67350507Y-395509717D01*
X-67246190Y-395488370D01*
X-67103365Y-396611215D02*
X-67152664Y-396795201D01*
X-67223310Y-396874869D01*
X-67281631Y-396908541D01*
X-67444270Y-396963559D01*
X-67640580Y-396960257D01*
X-68008552Y-396861659D01*
X-68088220Y-396791013D01*
X-68121892Y-396732692D01*
X-68143239Y-396628375D01*
X-68093940Y-396444389D01*
X-68023294Y-396364721D01*
X-67964973Y-396331049D01*
X-67860656Y-396309702D01*
X-67630673Y-396371325D01*
X-67551005Y-396441971D01*
X-67517333Y-396500292D01*
X-67495986Y-396604610D01*
X-67545285Y-396788596D01*
X-67615931Y-396868264D01*
X-67674252Y-396901936D01*
X-67778570Y-396923283D01*
X-42623489Y-406335953D02*
X-42623489Y-407050239D01*
X-42575870Y-407193096D01*
X-42480632Y-407288334D01*
X-42337774Y-407335953D01*
X-42242536Y-407335953D01*
X-43004441Y-406335953D02*
X-43671108Y-406335953D01*
X-43242536Y-407335953D01*
X-44242536Y-406335953D02*
X-44337774Y-406335953D01*
X-44433013Y-406383573D01*
X-44480632Y-406431192D01*
X-44528251Y-406526430D01*
X-44575870Y-406716906D01*
X-44575870Y-406955001D01*
X-44528251Y-407145477D01*
X-44480632Y-407240715D01*
X-44433013Y-407288334D01*
X-44337774Y-407335953D01*
X-44242536Y-407335953D01*
X-44147298Y-407288334D01*
X-44099679Y-407240715D01*
X-44052060Y-407145477D01*
X-44004441Y-406955001D01*
X-44004441Y-406716906D01*
X-44052060Y-406526430D01*
X-44099679Y-406431192D01*
X-44147298Y-406383573D01*
X-44242536Y-406335953D01*
X-45526248Y-417710568D02*
X-46240534Y-417710568D01*
X-46383391Y-417758187D01*
X-46478629Y-417853425D01*
X-46526248Y-417996283D01*
X-46526248Y-418091521D01*
X-45526248Y-416758187D02*
X-45526248Y-417234378D01*
X-46002439Y-417281997D01*
X-45954820Y-417234378D01*
X-45907201Y-417139140D01*
X-45907201Y-416901045D01*
X-45954820Y-416805806D01*
X-46002439Y-416758187D01*
X-46097677Y-416710568D01*
X-46335772Y-416710568D01*
X-46431010Y-416758187D01*
X-46478629Y-416805806D01*
X-46526248Y-416901045D01*
X-46526248Y-417139140D01*
X-46478629Y-417234378D01*
X-46431010Y-417281997D01*
X-45526248Y-415853425D02*
X-45526248Y-416043902D01*
X-45573868Y-416139140D01*
X-45621487Y-416186759D01*
X-45764344Y-416281997D01*
X-45954820Y-416329616D01*
X-46335772Y-416329616D01*
X-46431010Y-416281997D01*
X-46478629Y-416234378D01*
X-46526248Y-416139140D01*
X-46526248Y-415948664D01*
X-46478629Y-415853425D01*
X-46431010Y-415805806D01*
X-46335772Y-415758187D01*
X-46097677Y-415758187D01*
X-46002439Y-415805806D01*
X-45954820Y-415853425D01*
X-45907201Y-415948664D01*
X-45907201Y-416139140D01*
X-45954820Y-416234378D01*
X-46002439Y-416281997D01*
X-46097677Y-416329616D01*
X-81345987Y-402851482D02*
X-81345987Y-403565768D01*
X-81298368Y-403708625D01*
X-81203130Y-403803863D01*
X-81060272Y-403851482D01*
X-80965034Y-403851482D01*
X-82250749Y-402851482D02*
X-82060272Y-402851482D01*
X-81965034Y-402899102D01*
X-81917415Y-402946721D01*
X-81822177Y-403089578D01*
X-81774558Y-403280054D01*
X-81774558Y-403661006D01*
X-81822177Y-403756244D01*
X-81869796Y-403803863D01*
X-81965034Y-403851482D01*
X-82155511Y-403851482D01*
X-82250749Y-403803863D01*
X-82298368Y-403756244D01*
X-82345987Y-403661006D01*
X-82345987Y-403422911D01*
X-82298368Y-403327673D01*
X-82250749Y-403280054D01*
X-82155511Y-403232435D01*
X-81965034Y-403232435D01*
X-81869796Y-403280054D01*
X-81822177Y-403327673D01*
X-81774558Y-403422911D01*
X-82917415Y-403280054D02*
X-82822177Y-403232435D01*
X-82774558Y-403184816D01*
X-82726939Y-403089578D01*
X-82726939Y-403041959D01*
X-82774558Y-402946721D01*
X-82822177Y-402899102D01*
X-82917415Y-402851482D01*
X-83107891Y-402851482D01*
X-83203130Y-402899102D01*
X-83250749Y-402946721D01*
X-83298368Y-403041959D01*
X-83298368Y-403089578D01*
X-83250749Y-403184816D01*
X-83203130Y-403232435D01*
X-83107891Y-403280054D01*
X-82917415Y-403280054D01*
X-82822177Y-403327673D01*
X-82774558Y-403375292D01*
X-82726939Y-403470530D01*
X-82726939Y-403661006D01*
X-82774558Y-403756244D01*
X-82822177Y-403803863D01*
X-82917415Y-403851482D01*
X-83107891Y-403851482D01*
X-83203130Y-403803863D01*
X-83250749Y-403756244D01*
X-83298368Y-403661006D01*
X-83298368Y-403470530D01*
X-83250749Y-403375292D01*
X-83203130Y-403327673D01*
X-83107891Y-403280054D01*
M02*
