%FSLAX45Y45*%
G04 Gerber Fmt 4.5, Leading zero omitted, Abs format (unit mm)*
G04 Created by KiCad (PCBNEW (5.1.4)-1) date 2023-09-09 05:28:44*
%MOMM*%
%LPD*%
G04 APERTURE LIST*
%ADD10C,0.050000*%
%ADD11C,0.200000*%
%ADD12C,0.300000*%
G04 APERTURE END LIST*
D10*
X-4204981Y-41045810D02*
X-4204900Y-40795660D01*
X-4204981Y-41045810D02*
X-2508981Y-41499810D01*
X-2449981Y-43218810D02*
X-4219981Y-43219810D01*
X-2389981Y-43158810D02*
X-2449981Y-43218810D01*
X-8397125Y-41506943D02*
X-4219981Y-43219810D01*
X-2388981Y-41633810D02*
X-2389981Y-43158810D01*
X-2508981Y-41499810D02*
X-2388981Y-41633810D01*
X-4204899Y-40795660D02*
X-4510118Y-40539366D01*
X-8397125Y-41506943D02*
X-8396596Y-40392941D01*
X-4510118Y-40539366D02*
X-4511301Y-40147247D01*
X-4667125Y-39997148D02*
X-4511301Y-40147247D01*
X-8107724Y-40009596D02*
X-8396596Y-40392941D01*
X-8107724Y-40009596D02*
X-7917120Y-39303027D01*
X-7739822Y-39172429D02*
X-4667125Y-39997148D01*
X-7917120Y-39303027D02*
X-7739822Y-39172429D01*
D11*
X-7921000Y-40877000D02*
X-7881000Y-40917000D01*
X-7881000Y-40877000D02*
X-7921000Y-40917000D01*
X-6041000Y-40927000D02*
X-6001000Y-40967000D01*
X-6001000Y-40927000D02*
X-6041000Y-40967000D01*
X-5552387Y-41690105D02*
G75*
G03X-5552387Y-41690105I-50000J0D01*
G01*
X-5298387Y-41690105D02*
G75*
G03X-5298387Y-41690105I-50000J0D01*
G01*
X-5044387Y-41690105D02*
G75*
G03X-5044387Y-41690105I-50000J0D01*
G01*
X-4790387Y-41690105D02*
G75*
G03X-4790387Y-41690105I-50000J0D01*
G01*
X-4293301Y-40921357D02*
G75*
G03X-4293301Y-40921357I-50000J0D01*
G01*
X-4293301Y-41175357D02*
G75*
G03X-4293301Y-41175357I-50000J0D01*
G01*
X-4293301Y-41429357D02*
G75*
G03X-4293301Y-41429357I-50000J0D01*
G01*
X-4293301Y-41683357D02*
G75*
G03X-4293301Y-41683357I-50000J0D01*
G01*
X-8165551Y-40572910D02*
G75*
G03X-8165551Y-40572910I-50000J0D01*
G01*
X-8165551Y-40826910D02*
G75*
G03X-8165551Y-40826910I-50000J0D01*
G01*
X-8165551Y-41080910D02*
G75*
G03X-8165551Y-41080910I-50000J0D01*
G01*
X-8165551Y-41334910D02*
G75*
G03X-8165551Y-41334910I-50000J0D01*
G01*
X-7647875Y-39327493D02*
G75*
G03X-7647875Y-39327493I-50000J0D01*
G01*
X-7402530Y-39393233D02*
G75*
G03X-7402530Y-39393233I-50000J0D01*
G01*
X-7157184Y-39458973D02*
G75*
G03X-7157184Y-39458973I-50000J0D01*
G01*
X-6911839Y-39524713D02*
G75*
G03X-6911839Y-39524713I-50000J0D01*
G01*
D12*
X-8113197Y-43688025D02*
X-8113197Y-43388025D01*
X-8041768Y-43388025D01*
X-7998911Y-43402310D01*
X-7970340Y-43430882D01*
X-7956054Y-43459453D01*
X-7941768Y-43516596D01*
X-7941768Y-43559453D01*
X-7956054Y-43616596D01*
X-7970340Y-43645167D01*
X-7998911Y-43673739D01*
X-8041768Y-43688025D01*
X-8113197Y-43688025D01*
X-7813197Y-43688025D02*
X-7813197Y-43488025D01*
X-7813197Y-43545167D02*
X-7798911Y-43516596D01*
X-7784625Y-43502310D01*
X-7756054Y-43488025D01*
X-7727482Y-43488025D01*
X-7627482Y-43688025D02*
X-7627482Y-43488025D01*
X-7627482Y-43388025D02*
X-7641768Y-43402310D01*
X-7627482Y-43416596D01*
X-7613197Y-43402310D01*
X-7627482Y-43388025D01*
X-7627482Y-43416596D01*
X-7441768Y-43688025D02*
X-7470340Y-43673739D01*
X-7484625Y-43645167D01*
X-7484625Y-43388025D01*
X-7284625Y-43688025D02*
X-7313197Y-43673739D01*
X-7327482Y-43645167D01*
X-7327482Y-43388025D01*
X-6941768Y-43688025D02*
X-6941768Y-43388025D01*
X-6841768Y-43602310D01*
X-6741768Y-43388025D01*
X-6741768Y-43688025D01*
X-6470340Y-43688025D02*
X-6470340Y-43530882D01*
X-6484625Y-43502310D01*
X-6513197Y-43488025D01*
X-6570340Y-43488025D01*
X-6598911Y-43502310D01*
X-6470340Y-43673739D02*
X-6498911Y-43688025D01*
X-6570340Y-43688025D01*
X-6598911Y-43673739D01*
X-6613197Y-43645167D01*
X-6613197Y-43616596D01*
X-6598911Y-43588025D01*
X-6570340Y-43573739D01*
X-6498911Y-43573739D01*
X-6470340Y-43559453D01*
X-6327482Y-43488025D02*
X-6327482Y-43788025D01*
X-6327482Y-43502310D02*
X-6298911Y-43488025D01*
X-6241768Y-43488025D01*
X-6213197Y-43502310D01*
X-6198911Y-43516596D01*
X-6184625Y-43545167D01*
X-6184625Y-43630882D01*
X-6198911Y-43659453D01*
X-6213197Y-43673739D01*
X-6241768Y-43688025D01*
X-6298911Y-43688025D01*
X-6327482Y-43673739D01*
X-6056054Y-43659453D02*
X-6041768Y-43673739D01*
X-6056054Y-43688025D01*
X-6070340Y-43673739D01*
X-6056054Y-43659453D01*
X-6056054Y-43688025D01*
X-6056054Y-43502310D02*
X-6041768Y-43516596D01*
X-6056054Y-43530882D01*
X-6070340Y-43516596D01*
X-6056054Y-43502310D01*
X-6056054Y-43530882D01*
X-8439625Y-44162310D02*
X-8399625Y-44202310D01*
X-8399625Y-44162310D02*
X-8439625Y-44202310D01*
X-8056054Y-44018025D02*
X-8027482Y-44018025D01*
X-7998911Y-44032310D01*
X-7984625Y-44046596D01*
X-7970340Y-44075167D01*
X-7956054Y-44132310D01*
X-7956054Y-44203739D01*
X-7970340Y-44260882D01*
X-7984625Y-44289453D01*
X-7998911Y-44303739D01*
X-8027482Y-44318025D01*
X-8056054Y-44318025D01*
X-8084625Y-44303739D01*
X-8098911Y-44289453D01*
X-8113197Y-44260882D01*
X-8127482Y-44203739D01*
X-8127482Y-44132310D01*
X-8113197Y-44075167D01*
X-8098911Y-44046596D01*
X-8084625Y-44032310D01*
X-8056054Y-44018025D01*
X-7827482Y-44289453D02*
X-7813197Y-44303739D01*
X-7827482Y-44318025D01*
X-7841768Y-44303739D01*
X-7827482Y-44289453D01*
X-7827482Y-44318025D01*
X-7556054Y-44118025D02*
X-7556054Y-44318025D01*
X-7627482Y-44003739D02*
X-7698911Y-44218025D01*
X-7513197Y-44218025D01*
X-7341768Y-44018025D02*
X-7313197Y-44018025D01*
X-7284625Y-44032310D01*
X-7270340Y-44046596D01*
X-7256054Y-44075167D01*
X-7241768Y-44132310D01*
X-7241768Y-44203739D01*
X-7256054Y-44260882D01*
X-7270340Y-44289453D01*
X-7284625Y-44303739D01*
X-7313197Y-44318025D01*
X-7341768Y-44318025D01*
X-7370340Y-44303739D01*
X-7384625Y-44289453D01*
X-7398911Y-44260882D01*
X-7413197Y-44203739D01*
X-7413197Y-44132310D01*
X-7398911Y-44075167D01*
X-7384625Y-44046596D01*
X-7370340Y-44032310D01*
X-7341768Y-44018025D01*
X-7113197Y-44318025D02*
X-7113197Y-44118025D01*
X-7113197Y-44146596D02*
X-7098911Y-44132310D01*
X-7070340Y-44118025D01*
X-7027482Y-44118025D01*
X-6998911Y-44132310D01*
X-6984625Y-44160882D01*
X-6984625Y-44318025D01*
X-6984625Y-44160882D02*
X-6970340Y-44132310D01*
X-6941768Y-44118025D01*
X-6898911Y-44118025D01*
X-6870340Y-44132310D01*
X-6856054Y-44160882D01*
X-6856054Y-44318025D01*
X-6713197Y-44318025D02*
X-6713197Y-44118025D01*
X-6713197Y-44146596D02*
X-6698911Y-44132310D01*
X-6670340Y-44118025D01*
X-6627482Y-44118025D01*
X-6598911Y-44132310D01*
X-6584625Y-44160882D01*
X-6584625Y-44318025D01*
X-6584625Y-44160882D02*
X-6570340Y-44132310D01*
X-6541768Y-44118025D01*
X-6498911Y-44118025D01*
X-6470340Y-44132310D01*
X-6456054Y-44160882D01*
X-6456054Y-44318025D01*
X-5870340Y-44003739D02*
X-6127482Y-44389453D01*
X-5484625Y-44018025D02*
X-5456054Y-44018025D01*
X-5427483Y-44032310D01*
X-5413197Y-44046596D01*
X-5398911Y-44075167D01*
X-5384625Y-44132310D01*
X-5384625Y-44203739D01*
X-5398911Y-44260882D01*
X-5413197Y-44289453D01*
X-5427483Y-44303739D01*
X-5456054Y-44318025D01*
X-5484625Y-44318025D01*
X-5513197Y-44303739D01*
X-5527483Y-44289453D01*
X-5541768Y-44260882D01*
X-5556054Y-44203739D01*
X-5556054Y-44132310D01*
X-5541768Y-44075167D01*
X-5527483Y-44046596D01*
X-5513197Y-44032310D01*
X-5484625Y-44018025D01*
X-5256054Y-44289453D02*
X-5241768Y-44303739D01*
X-5256054Y-44318025D01*
X-5270340Y-44303739D01*
X-5256054Y-44289453D01*
X-5256054Y-44318025D01*
X-5056054Y-44018025D02*
X-5027483Y-44018025D01*
X-4998911Y-44032310D01*
X-4984625Y-44046596D01*
X-4970340Y-44075167D01*
X-4956054Y-44132310D01*
X-4956054Y-44203739D01*
X-4970340Y-44260882D01*
X-4984625Y-44289453D01*
X-4998911Y-44303739D01*
X-5027483Y-44318025D01*
X-5056054Y-44318025D01*
X-5084625Y-44303739D01*
X-5098911Y-44289453D01*
X-5113197Y-44260882D01*
X-5127483Y-44203739D01*
X-5127483Y-44132310D01*
X-5113197Y-44075167D01*
X-5098911Y-44046596D01*
X-5084625Y-44032310D01*
X-5056054Y-44018025D01*
X-4670340Y-44318025D02*
X-4841768Y-44318025D01*
X-4756054Y-44318025D02*
X-4756054Y-44018025D01*
X-4784625Y-44060882D01*
X-4813197Y-44089453D01*
X-4841768Y-44103739D01*
X-4413197Y-44018025D02*
X-4470340Y-44018025D01*
X-4498911Y-44032310D01*
X-4513197Y-44046596D01*
X-4541768Y-44089453D01*
X-4556054Y-44146596D01*
X-4556054Y-44260882D01*
X-4541768Y-44289453D01*
X-4527483Y-44303739D01*
X-4498911Y-44318025D01*
X-4441768Y-44318025D01*
X-4413197Y-44303739D01*
X-4398911Y-44289453D01*
X-4384625Y-44260882D01*
X-4384625Y-44189453D01*
X-4398911Y-44160882D01*
X-4413197Y-44146596D01*
X-4441768Y-44132310D01*
X-4498911Y-44132310D01*
X-4527483Y-44146596D01*
X-4541768Y-44160882D01*
X-4556054Y-44189453D01*
X-4270340Y-44018025D02*
X-4270340Y-44075167D01*
X-4156054Y-44018025D02*
X-4156054Y-44075167D01*
X-3713197Y-44432310D02*
X-3727482Y-44418025D01*
X-3756054Y-44375167D01*
X-3770340Y-44346596D01*
X-3784625Y-44303739D01*
X-3798911Y-44232310D01*
X-3798911Y-44175167D01*
X-3784625Y-44103739D01*
X-3770340Y-44060882D01*
X-3756054Y-44032310D01*
X-3727482Y-43989453D01*
X-3713197Y-43975167D01*
X-3613197Y-44046596D02*
X-3598911Y-44032310D01*
X-3570340Y-44018025D01*
X-3498911Y-44018025D01*
X-3470340Y-44032310D01*
X-3456054Y-44046596D01*
X-3441768Y-44075167D01*
X-3441768Y-44103739D01*
X-3456054Y-44146596D01*
X-3627482Y-44318025D01*
X-3441768Y-44318025D01*
X-3084625Y-44318025D02*
X-3084625Y-44018025D01*
X-2956054Y-44318025D02*
X-2956054Y-44160882D01*
X-2970340Y-44132310D01*
X-2998911Y-44118025D01*
X-3041768Y-44118025D01*
X-3070340Y-44132310D01*
X-3084625Y-44146596D01*
X-2770340Y-44318025D02*
X-2798911Y-44303739D01*
X-2813197Y-44289453D01*
X-2827482Y-44260882D01*
X-2827482Y-44175167D01*
X-2813197Y-44146596D01*
X-2798911Y-44132310D01*
X-2770340Y-44118025D01*
X-2727483Y-44118025D01*
X-2698911Y-44132310D01*
X-2684625Y-44146596D01*
X-2670340Y-44175167D01*
X-2670340Y-44260882D01*
X-2684625Y-44289453D01*
X-2698911Y-44303739D01*
X-2727483Y-44318025D01*
X-2770340Y-44318025D01*
X-2498911Y-44318025D02*
X-2527483Y-44303739D01*
X-2541768Y-44275167D01*
X-2541768Y-44018025D01*
X-2270340Y-44303739D02*
X-2298911Y-44318025D01*
X-2356054Y-44318025D01*
X-2384625Y-44303739D01*
X-2398911Y-44275167D01*
X-2398911Y-44160882D01*
X-2384625Y-44132310D01*
X-2356054Y-44118025D01*
X-2298911Y-44118025D01*
X-2270340Y-44132310D01*
X-2256054Y-44160882D01*
X-2256054Y-44189453D01*
X-2398911Y-44218025D01*
X-2141768Y-44303739D02*
X-2113197Y-44318025D01*
X-2056054Y-44318025D01*
X-2027482Y-44303739D01*
X-2013197Y-44275167D01*
X-2013197Y-44260882D01*
X-2027482Y-44232310D01*
X-2056054Y-44218025D01*
X-2098911Y-44218025D01*
X-2127483Y-44203739D01*
X-2141768Y-44175167D01*
X-2141768Y-44160882D01*
X-2127483Y-44132310D01*
X-2098911Y-44118025D01*
X-2056054Y-44118025D01*
X-2027482Y-44132310D01*
X-1913197Y-44432310D02*
X-1898911Y-44418025D01*
X-1870340Y-44375167D01*
X-1856054Y-44346596D01*
X-1841768Y-44303739D01*
X-1827482Y-44232310D01*
X-1827482Y-44175167D01*
X-1841768Y-44103739D01*
X-1856054Y-44060882D01*
X-1870340Y-44032310D01*
X-1898911Y-43989453D01*
X-1913197Y-43975167D01*
X-8399625Y-44578310D02*
G75*
G03X-8399625Y-44578310I-50000J0D01*
G01*
X-7956054Y-44714025D02*
X-8127482Y-44714025D01*
X-8041768Y-44714025D02*
X-8041768Y-44414025D01*
X-8070340Y-44456882D01*
X-8098911Y-44485453D01*
X-8127482Y-44499739D01*
X-7827482Y-44685453D02*
X-7813197Y-44699739D01*
X-7827482Y-44714025D01*
X-7841768Y-44699739D01*
X-7827482Y-44685453D01*
X-7827482Y-44714025D01*
X-7627482Y-44414025D02*
X-7598911Y-44414025D01*
X-7570340Y-44428310D01*
X-7556054Y-44442596D01*
X-7541768Y-44471167D01*
X-7527482Y-44528310D01*
X-7527482Y-44599739D01*
X-7541768Y-44656882D01*
X-7556054Y-44685453D01*
X-7570340Y-44699739D01*
X-7598911Y-44714025D01*
X-7627482Y-44714025D01*
X-7656054Y-44699739D01*
X-7670340Y-44685453D01*
X-7684625Y-44656882D01*
X-7698911Y-44599739D01*
X-7698911Y-44528310D01*
X-7684625Y-44471167D01*
X-7670340Y-44442596D01*
X-7656054Y-44428310D01*
X-7627482Y-44414025D01*
X-7341768Y-44414025D02*
X-7313197Y-44414025D01*
X-7284625Y-44428310D01*
X-7270340Y-44442596D01*
X-7256054Y-44471167D01*
X-7241768Y-44528310D01*
X-7241768Y-44599739D01*
X-7256054Y-44656882D01*
X-7270340Y-44685453D01*
X-7284625Y-44699739D01*
X-7313197Y-44714025D01*
X-7341768Y-44714025D01*
X-7370340Y-44699739D01*
X-7384625Y-44685453D01*
X-7398911Y-44656882D01*
X-7413197Y-44599739D01*
X-7413197Y-44528310D01*
X-7398911Y-44471167D01*
X-7384625Y-44442596D01*
X-7370340Y-44428310D01*
X-7341768Y-44414025D01*
X-7113197Y-44714025D02*
X-7113197Y-44514025D01*
X-7113197Y-44542596D02*
X-7098911Y-44528310D01*
X-7070340Y-44514025D01*
X-7027482Y-44514025D01*
X-6998911Y-44528310D01*
X-6984625Y-44556882D01*
X-6984625Y-44714025D01*
X-6984625Y-44556882D02*
X-6970340Y-44528310D01*
X-6941768Y-44514025D01*
X-6898911Y-44514025D01*
X-6870340Y-44528310D01*
X-6856054Y-44556882D01*
X-6856054Y-44714025D01*
X-6713197Y-44714025D02*
X-6713197Y-44514025D01*
X-6713197Y-44542596D02*
X-6698911Y-44528310D01*
X-6670340Y-44514025D01*
X-6627482Y-44514025D01*
X-6598911Y-44528310D01*
X-6584625Y-44556882D01*
X-6584625Y-44714025D01*
X-6584625Y-44556882D02*
X-6570340Y-44528310D01*
X-6541768Y-44514025D01*
X-6498911Y-44514025D01*
X-6470340Y-44528310D01*
X-6456054Y-44556882D01*
X-6456054Y-44714025D01*
X-5870340Y-44399739D02*
X-6127482Y-44785453D01*
X-5484625Y-44414025D02*
X-5456054Y-44414025D01*
X-5427483Y-44428310D01*
X-5413197Y-44442596D01*
X-5398911Y-44471167D01*
X-5384625Y-44528310D01*
X-5384625Y-44599739D01*
X-5398911Y-44656882D01*
X-5413197Y-44685453D01*
X-5427483Y-44699739D01*
X-5456054Y-44714025D01*
X-5484625Y-44714025D01*
X-5513197Y-44699739D01*
X-5527483Y-44685453D01*
X-5541768Y-44656882D01*
X-5556054Y-44599739D01*
X-5556054Y-44528310D01*
X-5541768Y-44471167D01*
X-5527483Y-44442596D01*
X-5513197Y-44428310D01*
X-5484625Y-44414025D01*
X-5256054Y-44685453D02*
X-5241768Y-44699739D01*
X-5256054Y-44714025D01*
X-5270340Y-44699739D01*
X-5256054Y-44685453D01*
X-5256054Y-44714025D01*
X-5056054Y-44414025D02*
X-5027483Y-44414025D01*
X-4998911Y-44428310D01*
X-4984625Y-44442596D01*
X-4970340Y-44471167D01*
X-4956054Y-44528310D01*
X-4956054Y-44599739D01*
X-4970340Y-44656882D01*
X-4984625Y-44685453D01*
X-4998911Y-44699739D01*
X-5027483Y-44714025D01*
X-5056054Y-44714025D01*
X-5084625Y-44699739D01*
X-5098911Y-44685453D01*
X-5113197Y-44656882D01*
X-5127483Y-44599739D01*
X-5127483Y-44528310D01*
X-5113197Y-44471167D01*
X-5098911Y-44442596D01*
X-5084625Y-44428310D01*
X-5056054Y-44414025D01*
X-4856054Y-44414025D02*
X-4670340Y-44414025D01*
X-4770340Y-44528310D01*
X-4727483Y-44528310D01*
X-4698911Y-44542596D01*
X-4684625Y-44556882D01*
X-4670340Y-44585453D01*
X-4670340Y-44656882D01*
X-4684625Y-44685453D01*
X-4698911Y-44699739D01*
X-4727483Y-44714025D01*
X-4813197Y-44714025D01*
X-4841768Y-44699739D01*
X-4856054Y-44685453D01*
X-4527483Y-44714025D02*
X-4470340Y-44714025D01*
X-4441768Y-44699739D01*
X-4427483Y-44685453D01*
X-4398911Y-44642596D01*
X-4384625Y-44585453D01*
X-4384625Y-44471167D01*
X-4398911Y-44442596D01*
X-4413197Y-44428310D01*
X-4441768Y-44414025D01*
X-4498911Y-44414025D01*
X-4527483Y-44428310D01*
X-4541768Y-44442596D01*
X-4556054Y-44471167D01*
X-4556054Y-44542596D01*
X-4541768Y-44571167D01*
X-4527483Y-44585453D01*
X-4498911Y-44599739D01*
X-4441768Y-44599739D01*
X-4413197Y-44585453D01*
X-4398911Y-44571167D01*
X-4384625Y-44542596D01*
X-4270340Y-44414025D02*
X-4270340Y-44471167D01*
X-4156054Y-44414025D02*
X-4156054Y-44471167D01*
X-3713197Y-44828310D02*
X-3727482Y-44814024D01*
X-3756054Y-44771167D01*
X-3770340Y-44742596D01*
X-3784625Y-44699739D01*
X-3798911Y-44628310D01*
X-3798911Y-44571167D01*
X-3784625Y-44499739D01*
X-3770340Y-44456882D01*
X-3756054Y-44428310D01*
X-3727482Y-44385453D01*
X-3713197Y-44371167D01*
X-3441768Y-44714025D02*
X-3613197Y-44714025D01*
X-3527482Y-44714025D02*
X-3527482Y-44414025D01*
X-3556054Y-44456882D01*
X-3584625Y-44485453D01*
X-3613197Y-44499739D01*
X-3184625Y-44414025D02*
X-3241768Y-44414025D01*
X-3270340Y-44428310D01*
X-3284625Y-44442596D01*
X-3313197Y-44485453D01*
X-3327482Y-44542596D01*
X-3327482Y-44656882D01*
X-3313197Y-44685453D01*
X-3298911Y-44699739D01*
X-3270340Y-44714025D01*
X-3213197Y-44714025D01*
X-3184625Y-44699739D01*
X-3170340Y-44685453D01*
X-3156054Y-44656882D01*
X-3156054Y-44585453D01*
X-3170340Y-44556882D01*
X-3184625Y-44542596D01*
X-3213197Y-44528310D01*
X-3270340Y-44528310D01*
X-3298911Y-44542596D01*
X-3313197Y-44556882D01*
X-3327482Y-44585453D01*
X-2798911Y-44714025D02*
X-2798911Y-44414025D01*
X-2670340Y-44714025D02*
X-2670340Y-44556882D01*
X-2684625Y-44528310D01*
X-2713197Y-44514025D01*
X-2756054Y-44514025D01*
X-2784625Y-44528310D01*
X-2798911Y-44542596D01*
X-2484625Y-44714025D02*
X-2513197Y-44699739D01*
X-2527483Y-44685453D01*
X-2541768Y-44656882D01*
X-2541768Y-44571167D01*
X-2527483Y-44542596D01*
X-2513197Y-44528310D01*
X-2484625Y-44514025D01*
X-2441768Y-44514025D01*
X-2413197Y-44528310D01*
X-2398911Y-44542596D01*
X-2384625Y-44571167D01*
X-2384625Y-44656882D01*
X-2398911Y-44685453D01*
X-2413197Y-44699739D01*
X-2441768Y-44714025D01*
X-2484625Y-44714025D01*
X-2213197Y-44714025D02*
X-2241768Y-44699739D01*
X-2256054Y-44671167D01*
X-2256054Y-44414025D01*
X-1984625Y-44699739D02*
X-2013197Y-44714025D01*
X-2070340Y-44714025D01*
X-2098911Y-44699739D01*
X-2113197Y-44671167D01*
X-2113197Y-44556882D01*
X-2098911Y-44528310D01*
X-2070340Y-44514025D01*
X-2013197Y-44514025D01*
X-1984625Y-44528310D01*
X-1970340Y-44556882D01*
X-1970340Y-44585453D01*
X-2113197Y-44614025D01*
X-1856054Y-44699739D02*
X-1827482Y-44714025D01*
X-1770340Y-44714025D01*
X-1741768Y-44699739D01*
X-1727482Y-44671167D01*
X-1727482Y-44656882D01*
X-1741768Y-44628310D01*
X-1770340Y-44614025D01*
X-1813197Y-44614025D01*
X-1841768Y-44599739D01*
X-1856054Y-44571167D01*
X-1856054Y-44556882D01*
X-1841768Y-44528310D01*
X-1813197Y-44514025D01*
X-1770340Y-44514025D01*
X-1741768Y-44528310D01*
X-1627482Y-44828310D02*
X-1613197Y-44814024D01*
X-1584625Y-44771167D01*
X-1570340Y-44742596D01*
X-1556054Y-44699739D01*
X-1541768Y-44628310D01*
X-1541768Y-44571167D01*
X-1556054Y-44499739D01*
X-1570340Y-44456882D01*
X-1584625Y-44428310D01*
X-1613197Y-44385453D01*
X-1627482Y-44371167D01*
M02*
