G04 #@! TF.GenerationSoftware,KiCad,Pcbnew,(5.1.4)-1*
G04 #@! TF.CreationDate,2023-09-09T05:28:41-04:00*
G04 #@! TF.ProjectId,ThumbsUp,5468756d-6273-4557-902e-6b696361645f,rev?*
G04 #@! TF.SameCoordinates,Original*
G04 #@! TF.FileFunction,Soldermask,Top*
G04 #@! TF.FilePolarity,Negative*
%FSLAX46Y46*%
G04 Gerber Fmt 4.6, Leading zero omitted, Abs format (unit mm)*
G04 Created by KiCad (PCBNEW (5.1.4)-1) date 2023-09-09 05:28:41*
%MOMM*%
%LPD*%
G04 APERTURE LIST*
%ADD10C,0.100000*%
G04 APERTURE END LIST*
D10*
G36*
X-35657415Y-426318863D02*
G01*
X-35507590Y-426348665D01*
X-35225326Y-426465582D01*
X-34971295Y-426635320D01*
X-34755259Y-426851356D01*
X-34585521Y-427105387D01*
X-34468604Y-427387651D01*
X-34409000Y-427687301D01*
X-34409000Y-427992821D01*
X-34468604Y-428292471D01*
X-34585521Y-428574735D01*
X-34755259Y-428828766D01*
X-34971295Y-429044802D01*
X-35225326Y-429214540D01*
X-35507590Y-429331457D01*
X-35657415Y-429361259D01*
X-35807239Y-429391061D01*
X-36112761Y-429391061D01*
X-36262585Y-429361259D01*
X-36412410Y-429331457D01*
X-36694674Y-429214540D01*
X-36948705Y-429044802D01*
X-37164741Y-428828766D01*
X-37334479Y-428574735D01*
X-37451396Y-428292471D01*
X-37511000Y-427992821D01*
X-37511000Y-427687301D01*
X-37451396Y-427387651D01*
X-37334479Y-427105387D01*
X-37164741Y-426851356D01*
X-36948705Y-426635320D01*
X-36694674Y-426465582D01*
X-36412410Y-426348665D01*
X-36262585Y-426318863D01*
X-36112761Y-426289061D01*
X-35807239Y-426289061D01*
X-35657415Y-426318863D01*
X-35657415Y-426318863D01*
G37*
G36*
X-29307415Y-423778863D02*
G01*
X-29157590Y-423808665D01*
X-28875326Y-423925582D01*
X-28621295Y-424095320D01*
X-28405259Y-424311356D01*
X-28235521Y-424565387D01*
X-28118604Y-424847651D01*
X-28059000Y-425147301D01*
X-28059000Y-425452821D01*
X-28118604Y-425752471D01*
X-28235521Y-426034735D01*
X-28405259Y-426288766D01*
X-28621295Y-426504802D01*
X-28875326Y-426674540D01*
X-29157590Y-426791457D01*
X-29307415Y-426821259D01*
X-29457239Y-426851061D01*
X-29762761Y-426851061D01*
X-29912585Y-426821259D01*
X-30062410Y-426791457D01*
X-30344674Y-426674540D01*
X-30598705Y-426504802D01*
X-30814741Y-426288766D01*
X-30984479Y-426034735D01*
X-31101396Y-425752471D01*
X-31161000Y-425452821D01*
X-31161000Y-425147301D01*
X-31101396Y-424847651D01*
X-30984479Y-424565387D01*
X-30814741Y-424311356D01*
X-30598705Y-424095320D01*
X-30344674Y-423925582D01*
X-30062410Y-423808665D01*
X-29912585Y-423778863D01*
X-29762761Y-423749061D01*
X-29457239Y-423749061D01*
X-29307415Y-423778863D01*
X-29307415Y-423778863D01*
G37*
G36*
X-32668609Y-420283055D02*
G01*
X-32474425Y-420363489D01*
X-32199808Y-420477239D01*
X-31777896Y-420759151D01*
X-31419090Y-421117957D01*
X-31137178Y-421539869D01*
X-31023428Y-421814486D01*
X-30942994Y-422008670D01*
X-30844000Y-422506347D01*
X-30844000Y-423013775D01*
X-30942994Y-423511452D01*
X-31000580Y-423650476D01*
X-31137178Y-423980253D01*
X-31419090Y-424402165D01*
X-31777896Y-424760971D01*
X-32199808Y-425042883D01*
X-32451893Y-425147300D01*
X-32668609Y-425237067D01*
X-32917448Y-425286564D01*
X-33166285Y-425336061D01*
X-33673715Y-425336061D01*
X-34171391Y-425237067D01*
X-34388107Y-425147300D01*
X-34640192Y-425042883D01*
X-35062104Y-424760971D01*
X-35420910Y-424402165D01*
X-35702822Y-423980253D01*
X-35839420Y-423650476D01*
X-35897006Y-423511452D01*
X-35996000Y-423013775D01*
X-35996000Y-422506347D01*
X-35897006Y-422008670D01*
X-35816572Y-421814486D01*
X-35702822Y-421539869D01*
X-35420910Y-421117957D01*
X-35062104Y-420759151D01*
X-34640192Y-420477239D01*
X-34365575Y-420363489D01*
X-34171391Y-420283055D01*
X-33673715Y-420184061D01*
X-33166285Y-420184061D01*
X-32668609Y-420283055D01*
X-32668609Y-420283055D01*
G37*
G36*
X-28069896Y-421869646D02*
G01*
X-27901374Y-421939450D01*
X-27749709Y-422040789D01*
X-27620728Y-422169770D01*
X-27519389Y-422321435D01*
X-27449585Y-422489957D01*
X-27414000Y-422668858D01*
X-27414000Y-422851264D01*
X-27449585Y-423030165D01*
X-27519389Y-423198687D01*
X-27620728Y-423350352D01*
X-27749709Y-423479333D01*
X-27901374Y-423580672D01*
X-28069896Y-423650476D01*
X-28248797Y-423686061D01*
X-28431203Y-423686061D01*
X-28610104Y-423650476D01*
X-28778626Y-423580672D01*
X-28930291Y-423479333D01*
X-29059272Y-423350352D01*
X-29160611Y-423198687D01*
X-29230415Y-423030165D01*
X-29266000Y-422851264D01*
X-29266000Y-422668858D01*
X-29230415Y-422489957D01*
X-29160611Y-422321435D01*
X-29059272Y-422169770D01*
X-28930291Y-422040789D01*
X-28778626Y-421939450D01*
X-28610104Y-421869646D01*
X-28431203Y-421834061D01*
X-28248797Y-421834061D01*
X-28069896Y-421869646D01*
X-28069896Y-421869646D01*
G37*
G36*
X-38229896Y-421869646D02*
G01*
X-38061374Y-421939450D01*
X-37909709Y-422040789D01*
X-37780728Y-422169770D01*
X-37679389Y-422321435D01*
X-37609585Y-422489957D01*
X-37574000Y-422668858D01*
X-37574000Y-422851264D01*
X-37609585Y-423030165D01*
X-37679389Y-423198687D01*
X-37780728Y-423350352D01*
X-37909709Y-423479333D01*
X-38061374Y-423580672D01*
X-38229896Y-423650476D01*
X-38408797Y-423686061D01*
X-38591203Y-423686061D01*
X-38770104Y-423650476D01*
X-38938626Y-423580672D01*
X-39090291Y-423479333D01*
X-39219272Y-423350352D01*
X-39320611Y-423198687D01*
X-39390415Y-423030165D01*
X-39426000Y-422851264D01*
X-39426000Y-422668858D01*
X-39390415Y-422489957D01*
X-39320611Y-422321435D01*
X-39219272Y-422169770D01*
X-39090291Y-422040789D01*
X-38938626Y-421939450D01*
X-38770104Y-421869646D01*
X-38591203Y-421834061D01*
X-38408797Y-421834061D01*
X-38229896Y-421869646D01*
X-38229896Y-421869646D01*
G37*
G36*
X-28417415Y-416838863D02*
G01*
X-28267590Y-416868665D01*
X-27985326Y-416985582D01*
X-27731295Y-417155320D01*
X-27515259Y-417371356D01*
X-27345521Y-417625387D01*
X-27228604Y-417907651D01*
X-27228604Y-417907652D01*
X-27169000Y-418207300D01*
X-27169000Y-418512822D01*
X-27198802Y-418662646D01*
X-27228604Y-418812471D01*
X-27345521Y-419094735D01*
X-27515259Y-419348766D01*
X-27731295Y-419564802D01*
X-27985326Y-419734540D01*
X-28267590Y-419851457D01*
X-28417415Y-419881259D01*
X-28567239Y-419911061D01*
X-28872761Y-419911061D01*
X-29022585Y-419881259D01*
X-29172410Y-419851457D01*
X-29454674Y-419734540D01*
X-29708705Y-419564802D01*
X-29924741Y-419348766D01*
X-30094479Y-419094735D01*
X-30211396Y-418812471D01*
X-30241198Y-418662646D01*
X-30271000Y-418512822D01*
X-30271000Y-418207300D01*
X-30211396Y-417907652D01*
X-30211396Y-417907651D01*
X-30094479Y-417625387D01*
X-29924741Y-417371356D01*
X-29708705Y-417155320D01*
X-29454674Y-416985582D01*
X-29172410Y-416868665D01*
X-29022585Y-416838863D01*
X-28872761Y-416809061D01*
X-28567239Y-416809061D01*
X-28417415Y-416838863D01*
X-28417415Y-416838863D01*
G37*
G36*
X-35717415Y-415488863D02*
G01*
X-35567590Y-415518665D01*
X-35285326Y-415635582D01*
X-35031295Y-415805320D01*
X-34815259Y-416021356D01*
X-34645521Y-416275387D01*
X-34528604Y-416557651D01*
X-34528604Y-416557652D01*
X-34478595Y-416809061D01*
X-34469000Y-416857301D01*
X-34469000Y-417162821D01*
X-34528604Y-417462471D01*
X-34645521Y-417744735D01*
X-34815259Y-417998766D01*
X-35031295Y-418214802D01*
X-35285326Y-418384540D01*
X-35567590Y-418501457D01*
X-35624721Y-418512821D01*
X-35867239Y-418561061D01*
X-36172761Y-418561061D01*
X-36415279Y-418512821D01*
X-36472410Y-418501457D01*
X-36754674Y-418384540D01*
X-37008705Y-418214802D01*
X-37224741Y-417998766D01*
X-37394479Y-417744735D01*
X-37511396Y-417462471D01*
X-37571000Y-417162821D01*
X-37571000Y-416857301D01*
X-37561404Y-416809061D01*
X-37511396Y-416557652D01*
X-37511396Y-416557651D01*
X-37394479Y-416275387D01*
X-37224741Y-416021356D01*
X-37008705Y-415805320D01*
X-36754674Y-415635582D01*
X-36472410Y-415518665D01*
X-36322585Y-415488863D01*
X-36172761Y-415459061D01*
X-35867239Y-415459061D01*
X-35717415Y-415488863D01*
X-35717415Y-415488863D01*
G37*
G36*
X-55913426Y-416006563D02*
G01*
X-55847241Y-416013082D01*
X-55677402Y-416064602D01*
X-55520877Y-416148267D01*
X-55485139Y-416177597D01*
X-55383682Y-416260859D01*
X-55300420Y-416362316D01*
X-55271090Y-416398054D01*
X-55187425Y-416554579D01*
X-55135905Y-416724418D01*
X-55118509Y-416901045D01*
X-55135905Y-417077672D01*
X-55187425Y-417247511D01*
X-55271090Y-417404036D01*
X-55300420Y-417439774D01*
X-55383682Y-417541231D01*
X-55485139Y-417624493D01*
X-55520877Y-417653823D01*
X-55677402Y-417737488D01*
X-55847241Y-417789008D01*
X-55913425Y-417795526D01*
X-55979608Y-417802045D01*
X-56068128Y-417802045D01*
X-56134311Y-417795526D01*
X-56200495Y-417789008D01*
X-56370334Y-417737488D01*
X-56526859Y-417653823D01*
X-56562597Y-417624493D01*
X-56664054Y-417541231D01*
X-56747316Y-417439774D01*
X-56776646Y-417404036D01*
X-56860311Y-417247511D01*
X-56911831Y-417077672D01*
X-56929227Y-416901045D01*
X-56911831Y-416724418D01*
X-56860311Y-416554579D01*
X-56776646Y-416398054D01*
X-56747316Y-416362316D01*
X-56664054Y-416260859D01*
X-56562597Y-416177597D01*
X-56526859Y-416148267D01*
X-56370334Y-416064602D01*
X-56200495Y-416013082D01*
X-56134310Y-416006563D01*
X-56068128Y-416000045D01*
X-55979608Y-416000045D01*
X-55913426Y-416006563D01*
X-55913426Y-416006563D01*
G37*
G36*
X-53373426Y-416006563D02*
G01*
X-53307241Y-416013082D01*
X-53137402Y-416064602D01*
X-52980877Y-416148267D01*
X-52945139Y-416177597D01*
X-52843682Y-416260859D01*
X-52760420Y-416362316D01*
X-52731090Y-416398054D01*
X-52647425Y-416554579D01*
X-52595905Y-416724418D01*
X-52578509Y-416901045D01*
X-52595905Y-417077672D01*
X-52647425Y-417247511D01*
X-52731090Y-417404036D01*
X-52760420Y-417439774D01*
X-52843682Y-417541231D01*
X-52945139Y-417624493D01*
X-52980877Y-417653823D01*
X-53137402Y-417737488D01*
X-53307241Y-417789008D01*
X-53373425Y-417795526D01*
X-53439608Y-417802045D01*
X-53528128Y-417802045D01*
X-53594311Y-417795526D01*
X-53660495Y-417789008D01*
X-53830334Y-417737488D01*
X-53986859Y-417653823D01*
X-54022597Y-417624493D01*
X-54124054Y-417541231D01*
X-54207316Y-417439774D01*
X-54236646Y-417404036D01*
X-54320311Y-417247511D01*
X-54371831Y-417077672D01*
X-54389227Y-416901045D01*
X-54371831Y-416724418D01*
X-54320311Y-416554579D01*
X-54236646Y-416398054D01*
X-54207316Y-416362316D01*
X-54124054Y-416260859D01*
X-54022597Y-416177597D01*
X-53986859Y-416148267D01*
X-53830334Y-416064602D01*
X-53660495Y-416013082D01*
X-53594310Y-416006563D01*
X-53528128Y-416000045D01*
X-53439608Y-416000045D01*
X-53373426Y-416006563D01*
X-53373426Y-416006563D01*
G37*
G36*
X-50833426Y-416006563D02*
G01*
X-50767241Y-416013082D01*
X-50597402Y-416064602D01*
X-50440877Y-416148267D01*
X-50405139Y-416177597D01*
X-50303682Y-416260859D01*
X-50220420Y-416362316D01*
X-50191090Y-416398054D01*
X-50107425Y-416554579D01*
X-50055905Y-416724418D01*
X-50038509Y-416901045D01*
X-50055905Y-417077672D01*
X-50107425Y-417247511D01*
X-50191090Y-417404036D01*
X-50220420Y-417439774D01*
X-50303682Y-417541231D01*
X-50405139Y-417624493D01*
X-50440877Y-417653823D01*
X-50597402Y-417737488D01*
X-50767241Y-417789008D01*
X-50833425Y-417795526D01*
X-50899608Y-417802045D01*
X-50988128Y-417802045D01*
X-51054311Y-417795526D01*
X-51120495Y-417789008D01*
X-51290334Y-417737488D01*
X-51446859Y-417653823D01*
X-51482597Y-417624493D01*
X-51584054Y-417541231D01*
X-51667316Y-417439774D01*
X-51696646Y-417404036D01*
X-51780311Y-417247511D01*
X-51831831Y-417077672D01*
X-51849227Y-416901045D01*
X-51831831Y-416724418D01*
X-51780311Y-416554579D01*
X-51696646Y-416398054D01*
X-51667316Y-416362316D01*
X-51584054Y-416260859D01*
X-51482597Y-416177597D01*
X-51446859Y-416148267D01*
X-51290334Y-416064602D01*
X-51120495Y-416013082D01*
X-51054310Y-416006563D01*
X-50988128Y-416000045D01*
X-50899608Y-416000045D01*
X-50833426Y-416006563D01*
X-50833426Y-416006563D01*
G37*
G36*
X-47502868Y-417802045D02*
G01*
X-49304868Y-417802045D01*
X-49304868Y-416000045D01*
X-47502868Y-416000045D01*
X-47502868Y-417802045D01*
X-47502868Y-417802045D01*
G37*
G36*
X-43322570Y-415939092D02*
G01*
X-43256386Y-415945610D01*
X-43086547Y-415997130D01*
X-42930022Y-416080795D01*
X-42894284Y-416110125D01*
X-42792827Y-416193387D01*
X-42725531Y-416275389D01*
X-42680235Y-416330582D01*
X-42596570Y-416487107D01*
X-42545050Y-416656946D01*
X-42527654Y-416833573D01*
X-42545050Y-417010200D01*
X-42596570Y-417180039D01*
X-42680235Y-417336564D01*
X-42708788Y-417371356D01*
X-42792827Y-417473759D01*
X-42894284Y-417557021D01*
X-42930022Y-417586351D01*
X-43086547Y-417670016D01*
X-43256386Y-417721536D01*
X-43322571Y-417728055D01*
X-43388753Y-417734573D01*
X-43477273Y-417734573D01*
X-43543455Y-417728055D01*
X-43609640Y-417721536D01*
X-43779479Y-417670016D01*
X-43936004Y-417586351D01*
X-43971742Y-417557021D01*
X-44073199Y-417473759D01*
X-44157238Y-417371356D01*
X-44185791Y-417336564D01*
X-44269456Y-417180039D01*
X-44320976Y-417010200D01*
X-44338372Y-416833573D01*
X-44320976Y-416656946D01*
X-44269456Y-416487107D01*
X-44185791Y-416330582D01*
X-44140495Y-416275389D01*
X-44073199Y-416193387D01*
X-43971742Y-416110125D01*
X-43936004Y-416080795D01*
X-43779479Y-415997130D01*
X-43609640Y-415945610D01*
X-43543456Y-415939092D01*
X-43477273Y-415932573D01*
X-43388753Y-415932573D01*
X-43322570Y-415939092D01*
X-43322570Y-415939092D01*
G37*
G36*
X-43322570Y-413399092D02*
G01*
X-43256386Y-413405610D01*
X-43086547Y-413457130D01*
X-42930022Y-413540795D01*
X-42894284Y-413570125D01*
X-42792827Y-413653387D01*
X-42709565Y-413754844D01*
X-42680235Y-413790582D01*
X-42596570Y-413947107D01*
X-42545050Y-414116946D01*
X-42527654Y-414293573D01*
X-42545050Y-414470200D01*
X-42596570Y-414640039D01*
X-42680235Y-414796564D01*
X-42709565Y-414832302D01*
X-42792827Y-414933759D01*
X-42894284Y-415017021D01*
X-42930022Y-415046351D01*
X-43086547Y-415130016D01*
X-43256386Y-415181536D01*
X-43322571Y-415188055D01*
X-43388753Y-415194573D01*
X-43477273Y-415194573D01*
X-43543455Y-415188055D01*
X-43609640Y-415181536D01*
X-43779479Y-415130016D01*
X-43936004Y-415046351D01*
X-43971742Y-415017021D01*
X-44073199Y-414933759D01*
X-44156461Y-414832302D01*
X-44185791Y-414796564D01*
X-44269456Y-414640039D01*
X-44320976Y-414470200D01*
X-44338372Y-414293573D01*
X-44320976Y-414116946D01*
X-44269456Y-413947107D01*
X-44185791Y-413790582D01*
X-44156461Y-413754844D01*
X-44073199Y-413653387D01*
X-43971742Y-413570125D01*
X-43936004Y-413540795D01*
X-43779479Y-413457130D01*
X-43609640Y-413405610D01*
X-43543456Y-413399092D01*
X-43477273Y-413392573D01*
X-43388753Y-413392573D01*
X-43322570Y-413399092D01*
X-43322570Y-413399092D01*
G37*
G36*
X-49575074Y-411449287D02*
G01*
X-49418045Y-411480522D01*
X-49135781Y-411597439D01*
X-48881750Y-411767177D01*
X-48665714Y-411983213D01*
X-48495976Y-412237244D01*
X-48381896Y-412512659D01*
X-48379059Y-412519509D01*
X-48319455Y-412819157D01*
X-48319455Y-413124679D01*
X-48349257Y-413274503D01*
X-48379059Y-413424328D01*
X-48495976Y-413706592D01*
X-48665714Y-413960623D01*
X-48881750Y-414176659D01*
X-49135781Y-414346397D01*
X-49418045Y-414463314D01*
X-49567870Y-414493116D01*
X-49717694Y-414522918D01*
X-50023216Y-414522918D01*
X-50173040Y-414493116D01*
X-50322865Y-414463314D01*
X-50605129Y-414346397D01*
X-50859160Y-414176659D01*
X-51075196Y-413960623D01*
X-51244934Y-413706592D01*
X-51361851Y-413424328D01*
X-51391653Y-413274503D01*
X-51421455Y-413124679D01*
X-51421455Y-412819157D01*
X-51361851Y-412519509D01*
X-51359014Y-412512659D01*
X-51244934Y-412237244D01*
X-51075196Y-411983213D01*
X-50859160Y-411767177D01*
X-50605129Y-411597439D01*
X-50322865Y-411480522D01*
X-50165836Y-411449287D01*
X-50023216Y-411420918D01*
X-49717694Y-411420918D01*
X-49575074Y-411449287D01*
X-49575074Y-411449287D01*
G37*
G36*
X-68654619Y-411449287D02*
G01*
X-68497590Y-411480522D01*
X-68215326Y-411597439D01*
X-67961295Y-411767177D01*
X-67745259Y-411983213D01*
X-67575521Y-412237244D01*
X-67461441Y-412512659D01*
X-67458604Y-412519509D01*
X-67399000Y-412819157D01*
X-67399000Y-413124679D01*
X-67428802Y-413274503D01*
X-67458604Y-413424328D01*
X-67575521Y-413706592D01*
X-67745259Y-413960623D01*
X-67961295Y-414176659D01*
X-68215326Y-414346397D01*
X-68497590Y-414463314D01*
X-68647415Y-414493116D01*
X-68797239Y-414522918D01*
X-69102761Y-414522918D01*
X-69252585Y-414493116D01*
X-69402410Y-414463314D01*
X-69684674Y-414346397D01*
X-69938705Y-414176659D01*
X-70154741Y-413960623D01*
X-70324479Y-413706592D01*
X-70441396Y-413424328D01*
X-70471198Y-413274503D01*
X-70501000Y-413124679D01*
X-70501000Y-412819157D01*
X-70441396Y-412519509D01*
X-70438559Y-412512659D01*
X-70324479Y-412237244D01*
X-70154741Y-411983213D01*
X-69938705Y-411767177D01*
X-69684674Y-411597439D01*
X-69402410Y-411480522D01*
X-69245381Y-411449287D01*
X-69102761Y-411420918D01*
X-68797239Y-411420918D01*
X-68654619Y-411449287D01*
X-68654619Y-411449287D01*
G37*
G36*
X-82045069Y-412454620D02*
G01*
X-81978884Y-412461139D01*
X-81809045Y-412512659D01*
X-81809043Y-412512660D01*
X-81796230Y-412519509D01*
X-81652520Y-412596324D01*
X-81635098Y-412610622D01*
X-81515325Y-412708916D01*
X-81432063Y-412810373D01*
X-81402733Y-412846111D01*
X-81319068Y-413002636D01*
X-81267548Y-413172475D01*
X-81250152Y-413349102D01*
X-81267548Y-413525729D01*
X-81319068Y-413695568D01*
X-81402733Y-413852093D01*
X-81432063Y-413887831D01*
X-81515325Y-413989288D01*
X-81616782Y-414072550D01*
X-81652520Y-414101880D01*
X-81652522Y-414101881D01*
X-81792420Y-414176659D01*
X-81809045Y-414185545D01*
X-81978884Y-414237065D01*
X-82045069Y-414243584D01*
X-82111251Y-414250102D01*
X-82199771Y-414250102D01*
X-82265953Y-414243584D01*
X-82332138Y-414237065D01*
X-82501977Y-414185545D01*
X-82518601Y-414176659D01*
X-82658500Y-414101881D01*
X-82658502Y-414101880D01*
X-82694240Y-414072550D01*
X-82795697Y-413989288D01*
X-82878959Y-413887831D01*
X-82908289Y-413852093D01*
X-82991954Y-413695568D01*
X-83043474Y-413525729D01*
X-83060870Y-413349102D01*
X-83043474Y-413172475D01*
X-82991954Y-413002636D01*
X-82908289Y-412846111D01*
X-82878959Y-412810373D01*
X-82795697Y-412708916D01*
X-82675924Y-412610622D01*
X-82658502Y-412596324D01*
X-82514792Y-412519509D01*
X-82501979Y-412512660D01*
X-82501977Y-412512659D01*
X-82332138Y-412461139D01*
X-82265953Y-412454620D01*
X-82199771Y-412448102D01*
X-82111251Y-412448102D01*
X-82045069Y-412454620D01*
X-82045069Y-412454620D01*
G37*
G36*
X-75947415Y-410100720D02*
G01*
X-75797590Y-410130522D01*
X-75515326Y-410247439D01*
X-75261295Y-410417177D01*
X-75045259Y-410633213D01*
X-74875521Y-410887244D01*
X-74758604Y-411169508D01*
X-74758604Y-411169509D01*
X-74702952Y-411449287D01*
X-74699000Y-411469158D01*
X-74699000Y-411774678D01*
X-74758604Y-412074328D01*
X-74875521Y-412356592D01*
X-75045259Y-412610623D01*
X-75261295Y-412826659D01*
X-75515326Y-412996397D01*
X-75797590Y-413113314D01*
X-75854721Y-413124678D01*
X-76097239Y-413172918D01*
X-76402761Y-413172918D01*
X-76645279Y-413124678D01*
X-76702410Y-413113314D01*
X-76984674Y-412996397D01*
X-77238705Y-412826659D01*
X-77454741Y-412610623D01*
X-77624479Y-412356592D01*
X-77741396Y-412074328D01*
X-77801000Y-411774678D01*
X-77801000Y-411469158D01*
X-77797047Y-411449287D01*
X-77741396Y-411169509D01*
X-77741396Y-411169508D01*
X-77624479Y-410887244D01*
X-77454741Y-410633213D01*
X-77238705Y-410417177D01*
X-76984674Y-410247439D01*
X-76702410Y-410130522D01*
X-76552585Y-410100720D01*
X-76402761Y-410070918D01*
X-76097239Y-410070918D01*
X-75947415Y-410100720D01*
X-75947415Y-410100720D01*
G37*
G36*
X-56867870Y-410100720D02*
G01*
X-56718045Y-410130522D01*
X-56435781Y-410247439D01*
X-56181750Y-410417177D01*
X-55965714Y-410633213D01*
X-55795976Y-410887244D01*
X-55679059Y-411169508D01*
X-55679059Y-411169509D01*
X-55623407Y-411449287D01*
X-55619455Y-411469158D01*
X-55619455Y-411774678D01*
X-55679059Y-412074328D01*
X-55795976Y-412356592D01*
X-55965714Y-412610623D01*
X-56181750Y-412826659D01*
X-56435781Y-412996397D01*
X-56718045Y-413113314D01*
X-56775176Y-413124678D01*
X-57017694Y-413172918D01*
X-57323216Y-413172918D01*
X-57565734Y-413124678D01*
X-57622865Y-413113314D01*
X-57905129Y-412996397D01*
X-58159160Y-412826659D01*
X-58375196Y-412610623D01*
X-58544934Y-412356592D01*
X-58661851Y-412074328D01*
X-58721455Y-411774678D01*
X-58721455Y-411469158D01*
X-58717502Y-411449287D01*
X-58661851Y-411169509D01*
X-58661851Y-411169508D01*
X-58544934Y-410887244D01*
X-58375196Y-410633213D01*
X-58159160Y-410417177D01*
X-57905129Y-410247439D01*
X-57622865Y-410130522D01*
X-57473040Y-410100720D01*
X-57323216Y-410070918D01*
X-57017694Y-410070918D01*
X-56867870Y-410100720D01*
X-56867870Y-410100720D01*
G37*
G36*
X-43322571Y-410859091D02*
G01*
X-43256386Y-410865610D01*
X-43086547Y-410917130D01*
X-42930022Y-411000795D01*
X-42894284Y-411030125D01*
X-42792827Y-411113387D01*
X-42746770Y-411169509D01*
X-42680235Y-411250582D01*
X-42596570Y-411407107D01*
X-42545050Y-411576946D01*
X-42527654Y-411753573D01*
X-42545050Y-411930200D01*
X-42596570Y-412100039D01*
X-42680235Y-412256564D01*
X-42709565Y-412292302D01*
X-42792827Y-412393759D01*
X-42874931Y-412461139D01*
X-42930022Y-412506351D01*
X-43086547Y-412590016D01*
X-43256386Y-412641536D01*
X-43322570Y-412648054D01*
X-43388753Y-412654573D01*
X-43477273Y-412654573D01*
X-43543456Y-412648054D01*
X-43609640Y-412641536D01*
X-43779479Y-412590016D01*
X-43936004Y-412506351D01*
X-43991095Y-412461139D01*
X-44073199Y-412393759D01*
X-44156461Y-412292302D01*
X-44185791Y-412256564D01*
X-44269456Y-412100039D01*
X-44320976Y-411930200D01*
X-44338372Y-411753573D01*
X-44320976Y-411576946D01*
X-44269456Y-411407107D01*
X-44185791Y-411250582D01*
X-44119256Y-411169509D01*
X-44073199Y-411113387D01*
X-43971742Y-411030125D01*
X-43936004Y-411000795D01*
X-43779479Y-410917130D01*
X-43609640Y-410865610D01*
X-43543455Y-410859091D01*
X-43477273Y-410852573D01*
X-43388753Y-410852573D01*
X-43322571Y-410859091D01*
X-43322571Y-410859091D01*
G37*
G36*
X-82045069Y-409914620D02*
G01*
X-81978884Y-409921139D01*
X-81809045Y-409972659D01*
X-81652520Y-410056324D01*
X-81616782Y-410085654D01*
X-81515325Y-410168916D01*
X-81450884Y-410247439D01*
X-81402733Y-410306111D01*
X-81402732Y-410306113D01*
X-81343366Y-410417177D01*
X-81319068Y-410462636D01*
X-81267548Y-410632475D01*
X-81250152Y-410809102D01*
X-81267548Y-410985729D01*
X-81319068Y-411155568D01*
X-81402733Y-411312093D01*
X-81432063Y-411347831D01*
X-81515325Y-411449288D01*
X-81616782Y-411532550D01*
X-81652520Y-411561880D01*
X-81809045Y-411645545D01*
X-81978884Y-411697065D01*
X-82045068Y-411703583D01*
X-82111251Y-411710102D01*
X-82199771Y-411710102D01*
X-82265954Y-411703583D01*
X-82332138Y-411697065D01*
X-82501977Y-411645545D01*
X-82658502Y-411561880D01*
X-82694240Y-411532550D01*
X-82795697Y-411449288D01*
X-82878959Y-411347831D01*
X-82908289Y-411312093D01*
X-82991954Y-411155568D01*
X-83043474Y-410985729D01*
X-83060870Y-410809102D01*
X-83043474Y-410632475D01*
X-82991954Y-410462636D01*
X-82967655Y-410417177D01*
X-82908290Y-410306113D01*
X-82908289Y-410306111D01*
X-82860138Y-410247439D01*
X-82795697Y-410168916D01*
X-82694240Y-410085654D01*
X-82658502Y-410056324D01*
X-82501977Y-409972659D01*
X-82332138Y-409921139D01*
X-82265953Y-409914620D01*
X-82199771Y-409908102D01*
X-82111251Y-409908102D01*
X-82045069Y-409914620D01*
X-82045069Y-409914620D01*
G37*
G36*
X-42532013Y-410114573D02*
G01*
X-44334013Y-410114573D01*
X-44334013Y-408312573D01*
X-42532013Y-408312573D01*
X-42532013Y-410114573D01*
X-42532013Y-410114573D01*
G37*
G36*
X-51719064Y-404744912D02*
G01*
X-51524880Y-404825346D01*
X-51250263Y-404939096D01*
X-50828351Y-405221008D01*
X-50469545Y-405579814D01*
X-50187633Y-406001726D01*
X-50164988Y-406056397D01*
X-49993449Y-406470527D01*
X-49894455Y-406968204D01*
X-49894455Y-407475632D01*
X-49993449Y-407973309D01*
X-50051035Y-408112333D01*
X-50187633Y-408442110D01*
X-50469545Y-408864022D01*
X-50828351Y-409222828D01*
X-51250263Y-409504740D01*
X-51524880Y-409618490D01*
X-51719064Y-409698924D01*
X-52216740Y-409797918D01*
X-52724170Y-409797918D01*
X-53221846Y-409698924D01*
X-53416030Y-409618490D01*
X-53690647Y-409504740D01*
X-54112559Y-409222828D01*
X-54471365Y-408864022D01*
X-54753277Y-408442110D01*
X-54889875Y-408112333D01*
X-54947461Y-407973309D01*
X-55046455Y-407475632D01*
X-55046455Y-406968204D01*
X-54947461Y-406470527D01*
X-54775922Y-406056397D01*
X-54753277Y-406001726D01*
X-54471365Y-405579814D01*
X-54112559Y-405221008D01*
X-53690647Y-404939096D01*
X-53416030Y-404825346D01*
X-53221846Y-404744912D01*
X-52724170Y-404645918D01*
X-52216740Y-404645918D01*
X-51719064Y-404744912D01*
X-51719064Y-404744912D01*
G37*
G36*
X-70798609Y-404744912D02*
G01*
X-70604425Y-404825346D01*
X-70329808Y-404939096D01*
X-69907896Y-405221008D01*
X-69549090Y-405579814D01*
X-69267178Y-406001726D01*
X-69244533Y-406056397D01*
X-69072994Y-406470527D01*
X-68974000Y-406968204D01*
X-68974000Y-407475632D01*
X-69072994Y-407973309D01*
X-69130580Y-408112333D01*
X-69267178Y-408442110D01*
X-69549090Y-408864022D01*
X-69907896Y-409222828D01*
X-70329808Y-409504740D01*
X-70604425Y-409618490D01*
X-70798609Y-409698924D01*
X-71296285Y-409797918D01*
X-71803715Y-409797918D01*
X-72301391Y-409698924D01*
X-72495575Y-409618490D01*
X-72770192Y-409504740D01*
X-73192104Y-409222828D01*
X-73550910Y-408864022D01*
X-73832822Y-408442110D01*
X-73969420Y-408112333D01*
X-74027006Y-407973309D01*
X-74126000Y-407475632D01*
X-74126000Y-406968204D01*
X-74027006Y-406470527D01*
X-73855467Y-406056397D01*
X-73832822Y-406001726D01*
X-73550910Y-405579814D01*
X-73192104Y-405221008D01*
X-72770192Y-404939096D01*
X-72495575Y-404825346D01*
X-72301391Y-404744912D01*
X-71803715Y-404645918D01*
X-71296285Y-404645918D01*
X-70798609Y-404744912D01*
X-70798609Y-404744912D01*
G37*
G36*
X-82045069Y-407374620D02*
G01*
X-81978884Y-407381139D01*
X-81809045Y-407432659D01*
X-81652520Y-407516324D01*
X-81616782Y-407545654D01*
X-81515325Y-407628916D01*
X-81432063Y-407730373D01*
X-81402733Y-407766111D01*
X-81319068Y-407922636D01*
X-81267548Y-408092475D01*
X-81250152Y-408269102D01*
X-81267548Y-408445729D01*
X-81319068Y-408615568D01*
X-81402733Y-408772093D01*
X-81432063Y-408807831D01*
X-81515325Y-408909288D01*
X-81616782Y-408992550D01*
X-81652520Y-409021880D01*
X-81809045Y-409105545D01*
X-81978884Y-409157065D01*
X-82045069Y-409163584D01*
X-82111251Y-409170102D01*
X-82199771Y-409170102D01*
X-82265953Y-409163584D01*
X-82332138Y-409157065D01*
X-82501977Y-409105545D01*
X-82658502Y-409021880D01*
X-82694240Y-408992550D01*
X-82795697Y-408909288D01*
X-82878959Y-408807831D01*
X-82908289Y-408772093D01*
X-82991954Y-408615568D01*
X-83043474Y-408445729D01*
X-83060870Y-408269102D01*
X-83043474Y-408092475D01*
X-82991954Y-407922636D01*
X-82908289Y-407766111D01*
X-82878959Y-407730373D01*
X-82795697Y-407628916D01*
X-82694240Y-407545654D01*
X-82658502Y-407516324D01*
X-82501977Y-407432659D01*
X-82332138Y-407381139D01*
X-82265953Y-407374620D01*
X-82199771Y-407368102D01*
X-82111251Y-407368102D01*
X-82045069Y-407374620D01*
X-82045069Y-407374620D01*
G37*
G36*
X-57280351Y-406331503D02*
G01*
X-57111829Y-406401307D01*
X-56960164Y-406502646D01*
X-56831183Y-406631627D01*
X-56729844Y-406783292D01*
X-56660040Y-406951814D01*
X-56624455Y-407130715D01*
X-56624455Y-407313121D01*
X-56660040Y-407492022D01*
X-56729844Y-407660544D01*
X-56831183Y-407812209D01*
X-56960164Y-407941190D01*
X-57111829Y-408042529D01*
X-57280351Y-408112333D01*
X-57459252Y-408147918D01*
X-57641658Y-408147918D01*
X-57820559Y-408112333D01*
X-57989081Y-408042529D01*
X-58140746Y-407941190D01*
X-58269727Y-407812209D01*
X-58371066Y-407660544D01*
X-58440870Y-407492022D01*
X-58476455Y-407313121D01*
X-58476455Y-407130715D01*
X-58440870Y-406951814D01*
X-58371066Y-406783292D01*
X-58269727Y-406631627D01*
X-58140746Y-406502646D01*
X-57989081Y-406401307D01*
X-57820559Y-406331503D01*
X-57641658Y-406295918D01*
X-57459252Y-406295918D01*
X-57280351Y-406331503D01*
X-57280351Y-406331503D01*
G37*
G36*
X-76359896Y-406331503D02*
G01*
X-76191374Y-406401307D01*
X-76039709Y-406502646D01*
X-75910728Y-406631627D01*
X-75809389Y-406783292D01*
X-75739585Y-406951814D01*
X-75704000Y-407130715D01*
X-75704000Y-407313121D01*
X-75739585Y-407492022D01*
X-75809389Y-407660544D01*
X-75910728Y-407812209D01*
X-76039709Y-407941190D01*
X-76191374Y-408042529D01*
X-76359896Y-408112333D01*
X-76538797Y-408147918D01*
X-76721203Y-408147918D01*
X-76900104Y-408112333D01*
X-77068626Y-408042529D01*
X-77220291Y-407941190D01*
X-77349272Y-407812209D01*
X-77450611Y-407660544D01*
X-77520415Y-407492022D01*
X-77556000Y-407313121D01*
X-77556000Y-407130715D01*
X-77520415Y-406951814D01*
X-77450611Y-406783292D01*
X-77349272Y-406631627D01*
X-77220291Y-406502646D01*
X-77068626Y-406401307D01*
X-76900104Y-406331503D01*
X-76721203Y-406295918D01*
X-76538797Y-406295918D01*
X-76359896Y-406331503D01*
X-76359896Y-406331503D01*
G37*
G36*
X-66199896Y-406331503D02*
G01*
X-66031374Y-406401307D01*
X-65879709Y-406502646D01*
X-65750728Y-406631627D01*
X-65649389Y-406783292D01*
X-65579585Y-406951814D01*
X-65544000Y-407130715D01*
X-65544000Y-407313121D01*
X-65579585Y-407492022D01*
X-65649389Y-407660544D01*
X-65750728Y-407812209D01*
X-65879709Y-407941190D01*
X-66031374Y-408042529D01*
X-66199896Y-408112333D01*
X-66378797Y-408147918D01*
X-66561203Y-408147918D01*
X-66740104Y-408112333D01*
X-66908626Y-408042529D01*
X-67060291Y-407941190D01*
X-67189272Y-407812209D01*
X-67290611Y-407660544D01*
X-67360415Y-407492022D01*
X-67396000Y-407313121D01*
X-67396000Y-407130715D01*
X-67360415Y-406951814D01*
X-67290611Y-406783292D01*
X-67189272Y-406631627D01*
X-67060291Y-406502646D01*
X-66908626Y-406401307D01*
X-66740104Y-406331503D01*
X-66561203Y-406295918D01*
X-66378797Y-406295918D01*
X-66199896Y-406331503D01*
X-66199896Y-406331503D01*
G37*
G36*
X-47120351Y-406331503D02*
G01*
X-46951829Y-406401307D01*
X-46800164Y-406502646D01*
X-46671183Y-406631627D01*
X-46569844Y-406783292D01*
X-46500040Y-406951814D01*
X-46464455Y-407130715D01*
X-46464455Y-407313121D01*
X-46500040Y-407492022D01*
X-46569844Y-407660544D01*
X-46671183Y-407812209D01*
X-46800164Y-407941190D01*
X-46951829Y-408042529D01*
X-47120351Y-408112333D01*
X-47299252Y-408147918D01*
X-47481658Y-408147918D01*
X-47660559Y-408112333D01*
X-47829081Y-408042529D01*
X-47980746Y-407941190D01*
X-48109727Y-407812209D01*
X-48211066Y-407660544D01*
X-48280870Y-407492022D01*
X-48316455Y-407313121D01*
X-48316455Y-407130715D01*
X-48280870Y-406951814D01*
X-48211066Y-406783292D01*
X-48109727Y-406631627D01*
X-47980746Y-406502646D01*
X-47829081Y-406401307D01*
X-47660559Y-406331503D01*
X-47481658Y-406295918D01*
X-47299252Y-406295918D01*
X-47120351Y-406331503D01*
X-47120351Y-406331503D01*
G37*
G36*
X-81254511Y-406630102D02*
G01*
X-83056511Y-406630102D01*
X-83056511Y-404828102D01*
X-81254511Y-404828102D01*
X-81254511Y-406630102D01*
X-81254511Y-406630102D01*
G37*
G36*
X-75057415Y-403160720D02*
G01*
X-74907590Y-403190522D01*
X-74625326Y-403307439D01*
X-74371295Y-403477177D01*
X-74155259Y-403693213D01*
X-73985521Y-403947244D01*
X-73868604Y-404229508D01*
X-73809000Y-404529158D01*
X-73809000Y-404834678D01*
X-73868604Y-405134328D01*
X-73985521Y-405416592D01*
X-74155259Y-405670623D01*
X-74371295Y-405886659D01*
X-74625326Y-406056397D01*
X-74907590Y-406173314D01*
X-75057415Y-406203116D01*
X-75207239Y-406232918D01*
X-75512761Y-406232918D01*
X-75662585Y-406203116D01*
X-75812410Y-406173314D01*
X-76094674Y-406056397D01*
X-76348705Y-405886659D01*
X-76564741Y-405670623D01*
X-76734479Y-405416592D01*
X-76851396Y-405134328D01*
X-76911000Y-404834678D01*
X-76911000Y-404529158D01*
X-76851396Y-404229508D01*
X-76734479Y-403947244D01*
X-76564741Y-403693213D01*
X-76348705Y-403477177D01*
X-76094674Y-403307439D01*
X-75812410Y-403190522D01*
X-75662585Y-403160720D01*
X-75512761Y-403130918D01*
X-75207239Y-403130918D01*
X-75057415Y-403160720D01*
X-75057415Y-403160720D01*
G37*
G36*
X-55977870Y-403160720D02*
G01*
X-55828045Y-403190522D01*
X-55545781Y-403307439D01*
X-55291750Y-403477177D01*
X-55075714Y-403693213D01*
X-54905976Y-403947244D01*
X-54789059Y-404229508D01*
X-54729455Y-404529158D01*
X-54729455Y-404834678D01*
X-54789059Y-405134328D01*
X-54905976Y-405416592D01*
X-55075714Y-405670623D01*
X-55291750Y-405886659D01*
X-55545781Y-406056397D01*
X-55828045Y-406173314D01*
X-55977870Y-406203116D01*
X-56127694Y-406232918D01*
X-56433216Y-406232918D01*
X-56583040Y-406203116D01*
X-56732865Y-406173314D01*
X-57015129Y-406056397D01*
X-57269160Y-405886659D01*
X-57485196Y-405670623D01*
X-57654934Y-405416592D01*
X-57771851Y-405134328D01*
X-57831455Y-404834678D01*
X-57831455Y-404529158D01*
X-57771851Y-404229508D01*
X-57654934Y-403947244D01*
X-57485196Y-403693213D01*
X-57269160Y-403477177D01*
X-57015129Y-403307439D01*
X-56732865Y-403190522D01*
X-56583040Y-403160720D01*
X-56433216Y-403130918D01*
X-56127694Y-403130918D01*
X-55977870Y-403160720D01*
X-55977870Y-403160720D01*
G37*
G36*
X-49627870Y-400620720D02*
G01*
X-49478045Y-400650522D01*
X-49195781Y-400767439D01*
X-48941750Y-400937177D01*
X-48725714Y-401153213D01*
X-48555976Y-401407244D01*
X-48439059Y-401689508D01*
X-48379455Y-401989158D01*
X-48379455Y-402294678D01*
X-48439059Y-402594328D01*
X-48555976Y-402876592D01*
X-48725714Y-403130623D01*
X-48941750Y-403346659D01*
X-49195781Y-403516397D01*
X-49478045Y-403633314D01*
X-49627870Y-403663116D01*
X-49777694Y-403692918D01*
X-50083216Y-403692918D01*
X-50233040Y-403663116D01*
X-50382865Y-403633314D01*
X-50665129Y-403516397D01*
X-50919160Y-403346659D01*
X-51135196Y-403130623D01*
X-51304934Y-402876592D01*
X-51421851Y-402594328D01*
X-51481455Y-402294678D01*
X-51481455Y-401989158D01*
X-51421851Y-401689508D01*
X-51304934Y-401407244D01*
X-51135196Y-401153213D01*
X-50919160Y-400937177D01*
X-50665129Y-400767439D01*
X-50382865Y-400650522D01*
X-50233040Y-400620720D01*
X-50083216Y-400590918D01*
X-49777694Y-400590918D01*
X-49627870Y-400620720D01*
X-49627870Y-400620720D01*
G37*
G36*
X-68707415Y-400620720D02*
G01*
X-68557590Y-400650522D01*
X-68275326Y-400767439D01*
X-68021295Y-400937177D01*
X-67805259Y-401153213D01*
X-67635521Y-401407244D01*
X-67518604Y-401689508D01*
X-67459000Y-401989158D01*
X-67459000Y-402294678D01*
X-67518604Y-402594328D01*
X-67635521Y-402876592D01*
X-67805259Y-403130623D01*
X-68021295Y-403346659D01*
X-68275326Y-403516397D01*
X-68557590Y-403633314D01*
X-68707415Y-403663116D01*
X-68857239Y-403692918D01*
X-69162761Y-403692918D01*
X-69312585Y-403663116D01*
X-69462410Y-403633314D01*
X-69744674Y-403516397D01*
X-69998705Y-403346659D01*
X-70214741Y-403130623D01*
X-70384479Y-402876592D01*
X-70501396Y-402594328D01*
X-70561000Y-402294678D01*
X-70561000Y-401989158D01*
X-70501396Y-401689508D01*
X-70384479Y-401407244D01*
X-70214741Y-401153213D01*
X-69998705Y-400937177D01*
X-69744674Y-400767439D01*
X-69462410Y-400650522D01*
X-69312585Y-400620720D01*
X-69162761Y-400590918D01*
X-68857239Y-400590918D01*
X-68707415Y-400620720D01*
X-68707415Y-400620720D01*
G37*
G36*
X-68514898Y-394610029D02*
G01*
X-68981290Y-396350627D01*
X-70721888Y-395884235D01*
X-70255496Y-394143637D01*
X-68514898Y-394610029D01*
X-68514898Y-394610029D01*
G37*
G36*
X-71961402Y-393695251D02*
G01*
X-71895218Y-393701769D01*
X-71725379Y-393753289D01*
X-71568854Y-393836954D01*
X-71533116Y-393866284D01*
X-71431659Y-393949546D01*
X-71348397Y-394051003D01*
X-71319067Y-394086741D01*
X-71235402Y-394243266D01*
X-71183882Y-394413105D01*
X-71166486Y-394589732D01*
X-71183882Y-394766359D01*
X-71235402Y-394936198D01*
X-71319067Y-395092723D01*
X-71348397Y-395128461D01*
X-71431659Y-395229918D01*
X-71533116Y-395313180D01*
X-71568854Y-395342510D01*
X-71725379Y-395426175D01*
X-71895218Y-395477695D01*
X-71961403Y-395484214D01*
X-72027585Y-395490732D01*
X-72116105Y-395490732D01*
X-72182287Y-395484214D01*
X-72248472Y-395477695D01*
X-72418311Y-395426175D01*
X-72574836Y-395342510D01*
X-72610574Y-395313180D01*
X-72712031Y-395229918D01*
X-72795293Y-395128461D01*
X-72824623Y-395092723D01*
X-72908288Y-394936198D01*
X-72959808Y-394766359D01*
X-72977204Y-394589732D01*
X-72959808Y-394413105D01*
X-72908288Y-394243266D01*
X-72824623Y-394086741D01*
X-72795293Y-394051003D01*
X-72712031Y-393949546D01*
X-72610574Y-393866284D01*
X-72574836Y-393836954D01*
X-72418311Y-393753289D01*
X-72248472Y-393701769D01*
X-72182288Y-393695251D01*
X-72116105Y-393688732D01*
X-72027585Y-393688732D01*
X-71961402Y-393695251D01*
X-71961402Y-393695251D01*
G37*
G36*
X-74414854Y-393037849D02*
G01*
X-74348669Y-393044368D01*
X-74178830Y-393095888D01*
X-74022305Y-393179553D01*
X-73986567Y-393208883D01*
X-73885110Y-393292145D01*
X-73801848Y-393393602D01*
X-73772518Y-393429340D01*
X-73688853Y-393585865D01*
X-73637333Y-393755704D01*
X-73619937Y-393932331D01*
X-73637333Y-394108958D01*
X-73688853Y-394278797D01*
X-73772518Y-394435322D01*
X-73801848Y-394471060D01*
X-73885110Y-394572517D01*
X-73986567Y-394655779D01*
X-74022305Y-394685109D01*
X-74178830Y-394768774D01*
X-74348669Y-394820294D01*
X-74414853Y-394826812D01*
X-74481036Y-394833331D01*
X-74569556Y-394833331D01*
X-74635739Y-394826812D01*
X-74701923Y-394820294D01*
X-74871762Y-394768774D01*
X-75028287Y-394685109D01*
X-75064025Y-394655779D01*
X-75165482Y-394572517D01*
X-75248744Y-394471060D01*
X-75278074Y-394435322D01*
X-75361739Y-394278797D01*
X-75413259Y-394108958D01*
X-75430655Y-393932331D01*
X-75413259Y-393755704D01*
X-75361739Y-393585865D01*
X-75278074Y-393429340D01*
X-75248744Y-393393602D01*
X-75165482Y-393292145D01*
X-75064025Y-393208883D01*
X-75028287Y-393179553D01*
X-74871762Y-393095888D01*
X-74701923Y-393044368D01*
X-74635738Y-393037849D01*
X-74569556Y-393031331D01*
X-74481036Y-393031331D01*
X-74414854Y-393037849D01*
X-74414854Y-393037849D01*
G37*
G36*
X-76868306Y-392380449D02*
G01*
X-76802121Y-392386968D01*
X-76632282Y-392438488D01*
X-76475757Y-392522153D01*
X-76440019Y-392551483D01*
X-76338562Y-392634745D01*
X-76255300Y-392736202D01*
X-76225970Y-392771940D01*
X-76142305Y-392928465D01*
X-76090785Y-393098304D01*
X-76073389Y-393274931D01*
X-76090785Y-393451558D01*
X-76142305Y-393621397D01*
X-76225970Y-393777922D01*
X-76255300Y-393813660D01*
X-76338562Y-393915117D01*
X-76440019Y-393998379D01*
X-76475757Y-394027709D01*
X-76632282Y-394111374D01*
X-76802121Y-394162894D01*
X-76868305Y-394169412D01*
X-76934488Y-394175931D01*
X-77023008Y-394175931D01*
X-77089191Y-394169412D01*
X-77155375Y-394162894D01*
X-77325214Y-394111374D01*
X-77481739Y-394027709D01*
X-77517477Y-393998379D01*
X-77618934Y-393915117D01*
X-77702196Y-393813660D01*
X-77731526Y-393777922D01*
X-77815191Y-393621397D01*
X-77866711Y-393451558D01*
X-77884107Y-393274931D01*
X-77866711Y-393098304D01*
X-77815191Y-392928465D01*
X-77731526Y-392771940D01*
X-77702196Y-392736202D01*
X-77618934Y-392634745D01*
X-77517477Y-392551483D01*
X-77481739Y-392522153D01*
X-77325214Y-392438488D01*
X-77155375Y-392386968D01*
X-77089190Y-392380449D01*
X-77023008Y-392373931D01*
X-76934488Y-392373931D01*
X-76868306Y-392380449D01*
X-76868306Y-392380449D01*
G37*
M02*
