M48
; DRILL file {KiCad (5.1.4)-1} date 9/9/2023 5:28:43 AM
; FORMAT={-:-/ absolute / metric / decimal}
; #@! TF.CreationDate,2023-09-09T05:28:43-04:00
; #@! TF.GenerationSoftware,Kicad,Pcbnew,(5.1.4)-1
; #@! TF.FileFunction,NonPlated,1,2,NPTH
FMAT,2
METRIC
T1C1.750
T2C2.950
T3C3.000
T4C5.050
%
G90
G05
T1
X-38.5Y-422.76
X-28.34Y-422.76
X-57.55Y-407.222
X-47.39Y-407.222
X-76.63Y-407.222
X-66.47Y-407.222
T2
X-36.02Y-417.01
X-28.72Y-418.36
X-57.17Y-411.622
X-49.87Y-412.972
X-76.25Y-411.622
X-68.95Y-412.972
T3
X-35.96Y-427.84
X-29.61Y-425.3
X-56.28Y-404.682
X-49.93Y-402.142
X-75.36Y-404.682
X-69.01Y-402.142
T4
X-33.42Y-422.76
X-52.47Y-407.222
X-71.55Y-407.222
T0
M30
