%FSLAX45Y45*%
G04 Gerber Fmt 4.5, Leading zero omitted, Abs format (unit mm)*
G04 Created by KiCad (PCBNEW (5.1.4)-1) date 2023-09-09 05:29:43*
%MOMM*%
%LPD*%
G04 APERTURE LIST*
%ADD10C,0.050000*%
%ADD11C,0.200000*%
%ADD12C,0.300000*%
G04 APERTURE END LIST*
D10*
X-8605980Y-47253810D02*
X-6908980Y-47254810D01*
X-6193980Y-46738810D02*
X-2930835Y-46739340D01*
X-8684980Y-47174810D02*
X-8605980Y-47253810D01*
X-6908980Y-47254810D02*
X-6193980Y-46738810D01*
X-8684980Y-45418810D02*
X-8684980Y-47174810D01*
X-7114980Y-45347810D02*
X-8612980Y-45346810D01*
X-8612980Y-45346810D02*
X-8684980Y-45418810D01*
X-3339125Y-44912148D02*
X-3183300Y-45062247D01*
X-6779724Y-44924596D02*
X-6589120Y-44218027D01*
X-7068596Y-45307941D02*
X-7114980Y-45347810D01*
X-2876899Y-45710660D02*
X-3182118Y-45454366D01*
X-6589120Y-44218027D02*
X-6411822Y-44087429D01*
X-3182118Y-45454366D02*
X-3183300Y-45062247D01*
X-6779724Y-44924596D02*
X-7068596Y-45307941D01*
X-6411822Y-44087429D02*
X-3339125Y-44912148D01*
X-2876509Y-46683864D02*
X-2876899Y-45710660D01*
X-2876509Y-46683864D02*
X-2930835Y-46739340D01*
D11*
X-8454000Y-46423000D02*
X-8414000Y-46463000D01*
X-8414000Y-46423000D02*
X-8454000Y-46463000D01*
X-6593000Y-45792000D02*
X-6553000Y-45832000D01*
X-6553000Y-45792000D02*
X-6593000Y-45832000D01*
X-4713000Y-45842000D02*
X-4673000Y-45882000D01*
X-4673000Y-45842000D02*
X-4713000Y-45882000D01*
X-4182000Y-46428000D02*
X-4142000Y-46468000D01*
X-4142000Y-46428000D02*
X-4182000Y-46468000D01*
X-6319875Y-44242493D02*
G75*
G03X-6319875Y-44242493I-50000J0D01*
G01*
X-6074530Y-44308233D02*
G75*
G03X-6074530Y-44308233I-50000J0D01*
G01*
X-5829184Y-44373973D02*
G75*
G03X-5829184Y-44373973I-50000J0D01*
G01*
X-5583839Y-44439713D02*
G75*
G03X-5583839Y-44439713I-50000J0D01*
G01*
X-6837551Y-45487910D02*
G75*
G03X-6837551Y-45487910I-50000J0D01*
G01*
X-6837551Y-45741910D02*
G75*
G03X-6837551Y-45741910I-50000J0D01*
G01*
X-6837551Y-45995910D02*
G75*
G03X-6837551Y-45995910I-50000J0D01*
G01*
X-6837551Y-46249910D02*
G75*
G03X-6837551Y-46249910I-50000J0D01*
G01*
X-2965301Y-45836357D02*
G75*
G03X-2965301Y-45836357I-50000J0D01*
G01*
X-2965301Y-46090357D02*
G75*
G03X-2965301Y-46090357I-50000J0D01*
G01*
X-2965301Y-46344357D02*
G75*
G03X-2965301Y-46344357I-50000J0D01*
G01*
X-2965301Y-46598357D02*
G75*
G03X-2965301Y-46598357I-50000J0D01*
G01*
X-4224387Y-46605104D02*
G75*
G03X-4224387Y-46605104I-50000J0D01*
G01*
X-3970387Y-46605104D02*
G75*
G03X-3970387Y-46605104I-50000J0D01*
G01*
X-3716387Y-46605104D02*
G75*
G03X-3716387Y-46605104I-50000J0D01*
G01*
X-3462387Y-46605104D02*
G75*
G03X-3462387Y-46605104I-50000J0D01*
G01*
D12*
X-8401052Y-47723025D02*
X-8401052Y-47423025D01*
X-8329623Y-47423025D01*
X-8286766Y-47437310D01*
X-8258195Y-47465882D01*
X-8243909Y-47494453D01*
X-8229623Y-47551596D01*
X-8229623Y-47594453D01*
X-8243909Y-47651596D01*
X-8258195Y-47680167D01*
X-8286766Y-47708739D01*
X-8329623Y-47723025D01*
X-8401052Y-47723025D01*
X-8101052Y-47723025D02*
X-8101052Y-47523025D01*
X-8101052Y-47580167D02*
X-8086766Y-47551596D01*
X-8072480Y-47537310D01*
X-8043909Y-47523025D01*
X-8015338Y-47523025D01*
X-7915338Y-47723025D02*
X-7915338Y-47523025D01*
X-7915338Y-47423025D02*
X-7929623Y-47437310D01*
X-7915338Y-47451596D01*
X-7901052Y-47437310D01*
X-7915338Y-47423025D01*
X-7915338Y-47451596D01*
X-7729623Y-47723025D02*
X-7758195Y-47708739D01*
X-7772480Y-47680167D01*
X-7772480Y-47423025D01*
X-7572480Y-47723025D02*
X-7601052Y-47708739D01*
X-7615338Y-47680167D01*
X-7615338Y-47423025D01*
X-7229623Y-47723025D02*
X-7229623Y-47423025D01*
X-7129623Y-47637310D01*
X-7029623Y-47423025D01*
X-7029623Y-47723025D01*
X-6758195Y-47723025D02*
X-6758195Y-47565882D01*
X-6772480Y-47537310D01*
X-6801052Y-47523025D01*
X-6858195Y-47523025D01*
X-6886766Y-47537310D01*
X-6758195Y-47708739D02*
X-6786766Y-47723025D01*
X-6858195Y-47723025D01*
X-6886766Y-47708739D01*
X-6901052Y-47680167D01*
X-6901052Y-47651596D01*
X-6886766Y-47623025D01*
X-6858195Y-47608739D01*
X-6786766Y-47608739D01*
X-6758195Y-47594453D01*
X-6615338Y-47523025D02*
X-6615338Y-47823025D01*
X-6615338Y-47537310D02*
X-6586766Y-47523025D01*
X-6529623Y-47523025D01*
X-6501052Y-47537310D01*
X-6486766Y-47551596D01*
X-6472480Y-47580167D01*
X-6472480Y-47665882D01*
X-6486766Y-47694453D01*
X-6501052Y-47708739D01*
X-6529623Y-47723025D01*
X-6586766Y-47723025D01*
X-6615338Y-47708739D01*
X-6343909Y-47694453D02*
X-6329623Y-47708739D01*
X-6343909Y-47723025D01*
X-6358195Y-47708739D01*
X-6343909Y-47694453D01*
X-6343909Y-47723025D01*
X-6343909Y-47537310D02*
X-6329623Y-47551596D01*
X-6343909Y-47565882D01*
X-6358195Y-47551596D01*
X-6343909Y-47537310D01*
X-6343909Y-47565882D01*
X-8727481Y-48197310D02*
X-8687481Y-48237310D01*
X-8687481Y-48197310D02*
X-8727481Y-48237310D01*
X-8343909Y-48053025D02*
X-8315338Y-48053025D01*
X-8286766Y-48067310D01*
X-8272480Y-48081596D01*
X-8258195Y-48110167D01*
X-8243909Y-48167310D01*
X-8243909Y-48238739D01*
X-8258195Y-48295882D01*
X-8272480Y-48324453D01*
X-8286766Y-48338739D01*
X-8315338Y-48353025D01*
X-8343909Y-48353025D01*
X-8372480Y-48338739D01*
X-8386766Y-48324453D01*
X-8401052Y-48295882D01*
X-8415338Y-48238739D01*
X-8415338Y-48167310D01*
X-8401052Y-48110167D01*
X-8386766Y-48081596D01*
X-8372480Y-48067310D01*
X-8343909Y-48053025D01*
X-8115338Y-48324453D02*
X-8101052Y-48338739D01*
X-8115338Y-48353025D01*
X-8129623Y-48338739D01*
X-8115338Y-48324453D01*
X-8115338Y-48353025D01*
X-7843909Y-48153025D02*
X-7843909Y-48353025D01*
X-7915338Y-48038739D02*
X-7986766Y-48253025D01*
X-7801052Y-48253025D01*
X-7629623Y-48053025D02*
X-7601052Y-48053025D01*
X-7572480Y-48067310D01*
X-7558195Y-48081596D01*
X-7543909Y-48110167D01*
X-7529623Y-48167310D01*
X-7529623Y-48238739D01*
X-7543909Y-48295882D01*
X-7558195Y-48324453D01*
X-7572480Y-48338739D01*
X-7601052Y-48353025D01*
X-7629623Y-48353025D01*
X-7658195Y-48338739D01*
X-7672480Y-48324453D01*
X-7686766Y-48295882D01*
X-7701052Y-48238739D01*
X-7701052Y-48167310D01*
X-7686766Y-48110167D01*
X-7672480Y-48081596D01*
X-7658195Y-48067310D01*
X-7629623Y-48053025D01*
X-7401052Y-48353025D02*
X-7401052Y-48153025D01*
X-7401052Y-48181596D02*
X-7386766Y-48167310D01*
X-7358195Y-48153025D01*
X-7315338Y-48153025D01*
X-7286766Y-48167310D01*
X-7272480Y-48195882D01*
X-7272480Y-48353025D01*
X-7272480Y-48195882D02*
X-7258195Y-48167310D01*
X-7229623Y-48153025D01*
X-7186766Y-48153025D01*
X-7158195Y-48167310D01*
X-7143909Y-48195882D01*
X-7143909Y-48353025D01*
X-7001052Y-48353025D02*
X-7001052Y-48153025D01*
X-7001052Y-48181596D02*
X-6986766Y-48167310D01*
X-6958195Y-48153025D01*
X-6915338Y-48153025D01*
X-6886766Y-48167310D01*
X-6872480Y-48195882D01*
X-6872480Y-48353025D01*
X-6872480Y-48195882D02*
X-6858195Y-48167310D01*
X-6829623Y-48153025D01*
X-6786766Y-48153025D01*
X-6758195Y-48167310D01*
X-6743909Y-48195882D01*
X-6743909Y-48353025D01*
X-6158195Y-48038739D02*
X-6415338Y-48424453D01*
X-5772480Y-48053025D02*
X-5743909Y-48053025D01*
X-5715338Y-48067310D01*
X-5701052Y-48081596D01*
X-5686766Y-48110167D01*
X-5672480Y-48167310D01*
X-5672480Y-48238739D01*
X-5686766Y-48295882D01*
X-5701052Y-48324453D01*
X-5715338Y-48338739D01*
X-5743909Y-48353025D01*
X-5772480Y-48353025D01*
X-5801052Y-48338739D01*
X-5815338Y-48324453D01*
X-5829623Y-48295882D01*
X-5843909Y-48238739D01*
X-5843909Y-48167310D01*
X-5829623Y-48110167D01*
X-5815338Y-48081596D01*
X-5801052Y-48067310D01*
X-5772480Y-48053025D01*
X-5543909Y-48324453D02*
X-5529623Y-48338739D01*
X-5543909Y-48353025D01*
X-5558195Y-48338739D01*
X-5543909Y-48324453D01*
X-5543909Y-48353025D01*
X-5343909Y-48053025D02*
X-5315338Y-48053025D01*
X-5286766Y-48067310D01*
X-5272481Y-48081596D01*
X-5258195Y-48110167D01*
X-5243909Y-48167310D01*
X-5243909Y-48238739D01*
X-5258195Y-48295882D01*
X-5272481Y-48324453D01*
X-5286766Y-48338739D01*
X-5315338Y-48353025D01*
X-5343909Y-48353025D01*
X-5372481Y-48338739D01*
X-5386766Y-48324453D01*
X-5401052Y-48295882D01*
X-5415338Y-48238739D01*
X-5415338Y-48167310D01*
X-5401052Y-48110167D01*
X-5386766Y-48081596D01*
X-5372481Y-48067310D01*
X-5343909Y-48053025D01*
X-4958195Y-48353025D02*
X-5129623Y-48353025D01*
X-5043909Y-48353025D02*
X-5043909Y-48053025D01*
X-5072481Y-48095882D01*
X-5101052Y-48124453D01*
X-5129623Y-48138739D01*
X-4701052Y-48053025D02*
X-4758195Y-48053025D01*
X-4786766Y-48067310D01*
X-4801052Y-48081596D01*
X-4829623Y-48124453D01*
X-4843909Y-48181596D01*
X-4843909Y-48295882D01*
X-4829623Y-48324453D01*
X-4815338Y-48338739D01*
X-4786766Y-48353025D01*
X-4729623Y-48353025D01*
X-4701052Y-48338739D01*
X-4686766Y-48324453D01*
X-4672481Y-48295882D01*
X-4672481Y-48224453D01*
X-4686766Y-48195882D01*
X-4701052Y-48181596D01*
X-4729623Y-48167310D01*
X-4786766Y-48167310D01*
X-4815338Y-48181596D01*
X-4829623Y-48195882D01*
X-4843909Y-48224453D01*
X-4558195Y-48053025D02*
X-4558195Y-48110167D01*
X-4443909Y-48053025D02*
X-4443909Y-48110167D01*
X-4001052Y-48467310D02*
X-4015338Y-48453025D01*
X-4043909Y-48410167D01*
X-4058195Y-48381596D01*
X-4072480Y-48338739D01*
X-4086766Y-48267310D01*
X-4086766Y-48210167D01*
X-4072480Y-48138739D01*
X-4058195Y-48095882D01*
X-4043909Y-48067310D01*
X-4015338Y-48024453D01*
X-4001052Y-48010167D01*
X-3758195Y-48153025D02*
X-3758195Y-48353025D01*
X-3829623Y-48038739D02*
X-3901052Y-48253025D01*
X-3715338Y-48253025D01*
X-3372480Y-48353025D02*
X-3372480Y-48053025D01*
X-3243909Y-48353025D02*
X-3243909Y-48195882D01*
X-3258195Y-48167310D01*
X-3286766Y-48153025D01*
X-3329623Y-48153025D01*
X-3358195Y-48167310D01*
X-3372480Y-48181596D01*
X-3058195Y-48353025D02*
X-3086766Y-48338739D01*
X-3101052Y-48324453D01*
X-3115338Y-48295882D01*
X-3115338Y-48210167D01*
X-3101052Y-48181596D01*
X-3086766Y-48167310D01*
X-3058195Y-48153025D01*
X-3015338Y-48153025D01*
X-2986766Y-48167310D01*
X-2972480Y-48181596D01*
X-2958195Y-48210167D01*
X-2958195Y-48295882D01*
X-2972480Y-48324453D01*
X-2986766Y-48338739D01*
X-3015338Y-48353025D01*
X-3058195Y-48353025D01*
X-2786766Y-48353025D02*
X-2815338Y-48338739D01*
X-2829623Y-48310167D01*
X-2829623Y-48053025D01*
X-2558195Y-48338739D02*
X-2586766Y-48353025D01*
X-2643909Y-48353025D01*
X-2672481Y-48338739D01*
X-2686766Y-48310167D01*
X-2686766Y-48195882D01*
X-2672481Y-48167310D01*
X-2643909Y-48153025D01*
X-2586766Y-48153025D01*
X-2558195Y-48167310D01*
X-2543909Y-48195882D01*
X-2543909Y-48224453D01*
X-2686766Y-48253025D01*
X-2429623Y-48338739D02*
X-2401052Y-48353025D01*
X-2343909Y-48353025D01*
X-2315338Y-48338739D01*
X-2301052Y-48310167D01*
X-2301052Y-48295882D01*
X-2315338Y-48267310D01*
X-2343909Y-48253025D01*
X-2386766Y-48253025D01*
X-2415338Y-48238739D01*
X-2429623Y-48210167D01*
X-2429623Y-48195882D01*
X-2415338Y-48167310D01*
X-2386766Y-48153025D01*
X-2343909Y-48153025D01*
X-2315338Y-48167310D01*
X-2201052Y-48467310D02*
X-2186766Y-48453025D01*
X-2158195Y-48410167D01*
X-2143909Y-48381596D01*
X-2129623Y-48338739D01*
X-2115338Y-48267310D01*
X-2115338Y-48210167D01*
X-2129623Y-48138739D01*
X-2143909Y-48095882D01*
X-2158195Y-48067310D01*
X-2186766Y-48024453D01*
X-2201052Y-48010167D01*
X-8687481Y-48613310D02*
G75*
G03X-8687481Y-48613310I-50000J0D01*
G01*
X-8243909Y-48749025D02*
X-8415338Y-48749025D01*
X-8329623Y-48749025D02*
X-8329623Y-48449025D01*
X-8358195Y-48491882D01*
X-8386766Y-48520453D01*
X-8415338Y-48534739D01*
X-8115338Y-48720453D02*
X-8101052Y-48734739D01*
X-8115338Y-48749025D01*
X-8129623Y-48734739D01*
X-8115338Y-48720453D01*
X-8115338Y-48749025D01*
X-7915338Y-48449025D02*
X-7886766Y-48449025D01*
X-7858195Y-48463310D01*
X-7843909Y-48477596D01*
X-7829623Y-48506167D01*
X-7815338Y-48563310D01*
X-7815338Y-48634739D01*
X-7829623Y-48691882D01*
X-7843909Y-48720453D01*
X-7858195Y-48734739D01*
X-7886766Y-48749025D01*
X-7915338Y-48749025D01*
X-7943909Y-48734739D01*
X-7958195Y-48720453D01*
X-7972480Y-48691882D01*
X-7986766Y-48634739D01*
X-7986766Y-48563310D01*
X-7972480Y-48506167D01*
X-7958195Y-48477596D01*
X-7943909Y-48463310D01*
X-7915338Y-48449025D01*
X-7629623Y-48449025D02*
X-7601052Y-48449025D01*
X-7572480Y-48463310D01*
X-7558195Y-48477596D01*
X-7543909Y-48506167D01*
X-7529623Y-48563310D01*
X-7529623Y-48634739D01*
X-7543909Y-48691882D01*
X-7558195Y-48720453D01*
X-7572480Y-48734739D01*
X-7601052Y-48749025D01*
X-7629623Y-48749025D01*
X-7658195Y-48734739D01*
X-7672480Y-48720453D01*
X-7686766Y-48691882D01*
X-7701052Y-48634739D01*
X-7701052Y-48563310D01*
X-7686766Y-48506167D01*
X-7672480Y-48477596D01*
X-7658195Y-48463310D01*
X-7629623Y-48449025D01*
X-7401052Y-48749025D02*
X-7401052Y-48549025D01*
X-7401052Y-48577596D02*
X-7386766Y-48563310D01*
X-7358195Y-48549025D01*
X-7315338Y-48549025D01*
X-7286766Y-48563310D01*
X-7272480Y-48591882D01*
X-7272480Y-48749025D01*
X-7272480Y-48591882D02*
X-7258195Y-48563310D01*
X-7229623Y-48549025D01*
X-7186766Y-48549025D01*
X-7158195Y-48563310D01*
X-7143909Y-48591882D01*
X-7143909Y-48749025D01*
X-7001052Y-48749025D02*
X-7001052Y-48549025D01*
X-7001052Y-48577596D02*
X-6986766Y-48563310D01*
X-6958195Y-48549025D01*
X-6915338Y-48549025D01*
X-6886766Y-48563310D01*
X-6872480Y-48591882D01*
X-6872480Y-48749025D01*
X-6872480Y-48591882D02*
X-6858195Y-48563310D01*
X-6829623Y-48549025D01*
X-6786766Y-48549025D01*
X-6758195Y-48563310D01*
X-6743909Y-48591882D01*
X-6743909Y-48749025D01*
X-6158195Y-48434739D02*
X-6415338Y-48820453D01*
X-5772480Y-48449025D02*
X-5743909Y-48449025D01*
X-5715338Y-48463310D01*
X-5701052Y-48477596D01*
X-5686766Y-48506167D01*
X-5672480Y-48563310D01*
X-5672480Y-48634739D01*
X-5686766Y-48691882D01*
X-5701052Y-48720453D01*
X-5715338Y-48734739D01*
X-5743909Y-48749025D01*
X-5772480Y-48749025D01*
X-5801052Y-48734739D01*
X-5815338Y-48720453D01*
X-5829623Y-48691882D01*
X-5843909Y-48634739D01*
X-5843909Y-48563310D01*
X-5829623Y-48506167D01*
X-5815338Y-48477596D01*
X-5801052Y-48463310D01*
X-5772480Y-48449025D01*
X-5543909Y-48720453D02*
X-5529623Y-48734739D01*
X-5543909Y-48749025D01*
X-5558195Y-48734739D01*
X-5543909Y-48720453D01*
X-5543909Y-48749025D01*
X-5343909Y-48449025D02*
X-5315338Y-48449025D01*
X-5286766Y-48463310D01*
X-5272481Y-48477596D01*
X-5258195Y-48506167D01*
X-5243909Y-48563310D01*
X-5243909Y-48634739D01*
X-5258195Y-48691882D01*
X-5272481Y-48720453D01*
X-5286766Y-48734739D01*
X-5315338Y-48749025D01*
X-5343909Y-48749025D01*
X-5372481Y-48734739D01*
X-5386766Y-48720453D01*
X-5401052Y-48691882D01*
X-5415338Y-48634739D01*
X-5415338Y-48563310D01*
X-5401052Y-48506167D01*
X-5386766Y-48477596D01*
X-5372481Y-48463310D01*
X-5343909Y-48449025D01*
X-5143909Y-48449025D02*
X-4958195Y-48449025D01*
X-5058195Y-48563310D01*
X-5015338Y-48563310D01*
X-4986766Y-48577596D01*
X-4972481Y-48591882D01*
X-4958195Y-48620453D01*
X-4958195Y-48691882D01*
X-4972481Y-48720453D01*
X-4986766Y-48734739D01*
X-5015338Y-48749025D01*
X-5101052Y-48749025D01*
X-5129623Y-48734739D01*
X-5143909Y-48720453D01*
X-4815338Y-48749025D02*
X-4758195Y-48749025D01*
X-4729623Y-48734739D01*
X-4715338Y-48720453D01*
X-4686766Y-48677596D01*
X-4672481Y-48620453D01*
X-4672481Y-48506167D01*
X-4686766Y-48477596D01*
X-4701052Y-48463310D01*
X-4729623Y-48449025D01*
X-4786766Y-48449025D01*
X-4815338Y-48463310D01*
X-4829623Y-48477596D01*
X-4843909Y-48506167D01*
X-4843909Y-48577596D01*
X-4829623Y-48606167D01*
X-4815338Y-48620453D01*
X-4786766Y-48634739D01*
X-4729623Y-48634739D01*
X-4701052Y-48620453D01*
X-4686766Y-48606167D01*
X-4672481Y-48577596D01*
X-4558195Y-48449025D02*
X-4558195Y-48506167D01*
X-4443909Y-48449025D02*
X-4443909Y-48506167D01*
X-4001052Y-48863310D02*
X-4015338Y-48849025D01*
X-4043909Y-48806167D01*
X-4058195Y-48777596D01*
X-4072480Y-48734739D01*
X-4086766Y-48663310D01*
X-4086766Y-48606167D01*
X-4072480Y-48534739D01*
X-4058195Y-48491882D01*
X-4043909Y-48463310D01*
X-4015338Y-48420453D01*
X-4001052Y-48406167D01*
X-3729623Y-48749025D02*
X-3901052Y-48749025D01*
X-3815338Y-48749025D02*
X-3815338Y-48449025D01*
X-3843909Y-48491882D01*
X-3872480Y-48520453D01*
X-3901052Y-48534739D01*
X-3472480Y-48449025D02*
X-3529623Y-48449025D01*
X-3558195Y-48463310D01*
X-3572480Y-48477596D01*
X-3601052Y-48520453D01*
X-3615338Y-48577596D01*
X-3615338Y-48691882D01*
X-3601052Y-48720453D01*
X-3586766Y-48734739D01*
X-3558195Y-48749025D01*
X-3501052Y-48749025D01*
X-3472480Y-48734739D01*
X-3458195Y-48720453D01*
X-3443909Y-48691882D01*
X-3443909Y-48620453D01*
X-3458195Y-48591882D01*
X-3472480Y-48577596D01*
X-3501052Y-48563310D01*
X-3558195Y-48563310D01*
X-3586766Y-48577596D01*
X-3601052Y-48591882D01*
X-3615338Y-48620453D01*
X-3086766Y-48749025D02*
X-3086766Y-48449025D01*
X-2958195Y-48749025D02*
X-2958195Y-48591882D01*
X-2972480Y-48563310D01*
X-3001052Y-48549025D01*
X-3043909Y-48549025D01*
X-3072480Y-48563310D01*
X-3086766Y-48577596D01*
X-2772481Y-48749025D02*
X-2801052Y-48734739D01*
X-2815338Y-48720453D01*
X-2829623Y-48691882D01*
X-2829623Y-48606167D01*
X-2815338Y-48577596D01*
X-2801052Y-48563310D01*
X-2772481Y-48549025D01*
X-2729623Y-48549025D01*
X-2701052Y-48563310D01*
X-2686766Y-48577596D01*
X-2672481Y-48606167D01*
X-2672481Y-48691882D01*
X-2686766Y-48720453D01*
X-2701052Y-48734739D01*
X-2729623Y-48749025D01*
X-2772481Y-48749025D01*
X-2501052Y-48749025D02*
X-2529623Y-48734739D01*
X-2543909Y-48706167D01*
X-2543909Y-48449025D01*
X-2272481Y-48734739D02*
X-2301052Y-48749025D01*
X-2358195Y-48749025D01*
X-2386766Y-48734739D01*
X-2401052Y-48706167D01*
X-2401052Y-48591882D01*
X-2386766Y-48563310D01*
X-2358195Y-48549025D01*
X-2301052Y-48549025D01*
X-2272481Y-48563310D01*
X-2258195Y-48591882D01*
X-2258195Y-48620453D01*
X-2401052Y-48649025D01*
X-2143909Y-48734739D02*
X-2115338Y-48749025D01*
X-2058195Y-48749025D01*
X-2029623Y-48734739D01*
X-2015338Y-48706167D01*
X-2015338Y-48691882D01*
X-2029623Y-48663310D01*
X-2058195Y-48649025D01*
X-2101052Y-48649025D01*
X-2129623Y-48634739D01*
X-2143909Y-48606167D01*
X-2143909Y-48591882D01*
X-2129623Y-48563310D01*
X-2101052Y-48549025D01*
X-2058195Y-48549025D01*
X-2029623Y-48563310D01*
X-1915338Y-48863310D02*
X-1901052Y-48849025D01*
X-1872480Y-48806167D01*
X-1858195Y-48777596D01*
X-1843909Y-48734739D01*
X-1829623Y-48663310D01*
X-1829623Y-48606167D01*
X-1843909Y-48534739D01*
X-1858195Y-48491882D01*
X-1872480Y-48463310D01*
X-1901052Y-48420453D01*
X-1915338Y-48406167D01*
M02*
