%FSLAX45Y45*%
G04 Gerber Fmt 4.5, Leading zero omitted, Abs format (unit mm)*
G04 Created by KiCad (PCBNEW (5.1.4)-1) date 2023-09-09 05:29:43*
%MOMM*%
%LPD*%
G04 APERTURE LIST*
%ADD10C,0.050000*%
%ADD11C,0.200000*%
%ADD12C,0.300000*%
G04 APERTURE END LIST*
D10*
X-8605980Y-47253810D02*
X-6908980Y-47254810D01*
X-6193980Y-46738810D02*
X-2930835Y-46739340D01*
X-8684980Y-47174810D02*
X-8605980Y-47253810D01*
X-6908980Y-47254810D02*
X-6193980Y-46738810D01*
X-8684980Y-45418810D02*
X-8684980Y-47174810D01*
X-7114980Y-45347810D02*
X-8612980Y-45346810D01*
X-8612980Y-45346810D02*
X-8684980Y-45418810D01*
X-3339125Y-44912148D02*
X-3183300Y-45062247D01*
X-6779724Y-44924596D02*
X-6589120Y-44218027D01*
X-7068596Y-45307941D02*
X-7114980Y-45347810D01*
X-2876899Y-45710660D02*
X-3182118Y-45454366D01*
X-6589120Y-44218027D02*
X-6411822Y-44087429D01*
X-3182118Y-45454366D02*
X-3183300Y-45062247D01*
X-6779724Y-44924596D02*
X-7068596Y-45307941D01*
X-6411822Y-44087429D02*
X-3339125Y-44912148D01*
X-2876509Y-46683864D02*
X-2876899Y-45710660D01*
X-2876509Y-46683864D02*
X-2930835Y-46739340D01*
D11*
X-8330500Y-46223500D02*
X-8155500Y-46398500D01*
X-8155500Y-46223500D02*
X-8330500Y-46398500D01*
X-6426500Y-45549692D02*
X-6251500Y-45724692D01*
X-6251500Y-45549692D02*
X-6426500Y-45724692D01*
X-5410500Y-45549692D02*
X-5235500Y-45724692D01*
X-5235500Y-45549692D02*
X-5410500Y-45724692D01*
X-4518546Y-45549692D02*
X-4343546Y-45724692D01*
X-4343546Y-45549692D02*
X-4518546Y-45724692D01*
X-3502545Y-45549692D02*
X-3327545Y-45724692D01*
X-3327545Y-45549692D02*
X-3502545Y-45724692D01*
X-7314500Y-46223500D02*
X-7139500Y-46398500D01*
X-7139500Y-46223500D02*
X-7314500Y-46398500D01*
X-6153500Y-46077192D02*
G75*
G03X-6153500Y-46077192I-147500J0D01*
G01*
X-5423500Y-46212192D02*
G75*
G03X-5423500Y-46212192I-147500J0D01*
G01*
X-4245546Y-46077192D02*
G75*
G03X-4245546Y-46077192I-147500J0D01*
G01*
X-3515545Y-46212192D02*
G75*
G03X-3515545Y-46212192I-147500J0D01*
G01*
X-8057500Y-46751000D02*
G75*
G03X-8057500Y-46751000I-147500J0D01*
G01*
X-7327500Y-46886000D02*
G75*
G03X-7327500Y-46886000I-147500J0D01*
G01*
X-4304046Y-45233192D02*
X-4304046Y-45533192D01*
X-4454046Y-45383192D02*
X-4154045Y-45383192D01*
X-3669045Y-44979192D02*
X-3669045Y-45279192D01*
X-3819045Y-45129192D02*
X-3519045Y-45129192D01*
X-8116000Y-45907000D02*
X-8116000Y-46207000D01*
X-8266000Y-46057000D02*
X-7966000Y-46057000D01*
X-7481000Y-45653000D02*
X-7481000Y-45953000D01*
X-7631000Y-45803000D02*
X-7331000Y-45803000D01*
X-6212000Y-45233192D02*
X-6212000Y-45533192D01*
X-6362000Y-45383192D02*
X-6062000Y-45383192D01*
X-5577000Y-44979192D02*
X-5577000Y-45279192D01*
X-5727000Y-45129192D02*
X-5427000Y-45129192D01*
X-7556454Y-46489546D02*
X-7556454Y-46132454D01*
X-7913546Y-46132454D01*
X-7913546Y-46489546D01*
X-7556454Y-46489546D01*
X-5652454Y-45815738D02*
X-5652454Y-45458646D01*
X-6009546Y-45458646D01*
X-6009546Y-45815738D01*
X-5652454Y-45815738D01*
X-3744499Y-45815738D02*
X-3744499Y-45458646D01*
X-4101592Y-45458646D01*
X-4101592Y-45815738D01*
X-3744499Y-45815738D01*
D12*
X-8401052Y-47723025D02*
X-8401052Y-47423025D01*
X-8329623Y-47423025D01*
X-8286766Y-47437310D01*
X-8258195Y-47465882D01*
X-8243909Y-47494453D01*
X-8229623Y-47551596D01*
X-8229623Y-47594453D01*
X-8243909Y-47651596D01*
X-8258195Y-47680167D01*
X-8286766Y-47708739D01*
X-8329623Y-47723025D01*
X-8401052Y-47723025D01*
X-8101052Y-47723025D02*
X-8101052Y-47523025D01*
X-8101052Y-47580167D02*
X-8086766Y-47551596D01*
X-8072480Y-47537310D01*
X-8043909Y-47523025D01*
X-8015338Y-47523025D01*
X-7915338Y-47723025D02*
X-7915338Y-47523025D01*
X-7915338Y-47423025D02*
X-7929623Y-47437310D01*
X-7915338Y-47451596D01*
X-7901052Y-47437310D01*
X-7915338Y-47423025D01*
X-7915338Y-47451596D01*
X-7729623Y-47723025D02*
X-7758195Y-47708739D01*
X-7772480Y-47680167D01*
X-7772480Y-47423025D01*
X-7572480Y-47723025D02*
X-7601052Y-47708739D01*
X-7615338Y-47680167D01*
X-7615338Y-47423025D01*
X-7229623Y-47723025D02*
X-7229623Y-47423025D01*
X-7129623Y-47637310D01*
X-7029623Y-47423025D01*
X-7029623Y-47723025D01*
X-6758195Y-47723025D02*
X-6758195Y-47565882D01*
X-6772480Y-47537310D01*
X-6801052Y-47523025D01*
X-6858195Y-47523025D01*
X-6886766Y-47537310D01*
X-6758195Y-47708739D02*
X-6786766Y-47723025D01*
X-6858195Y-47723025D01*
X-6886766Y-47708739D01*
X-6901052Y-47680167D01*
X-6901052Y-47651596D01*
X-6886766Y-47623025D01*
X-6858195Y-47608739D01*
X-6786766Y-47608739D01*
X-6758195Y-47594453D01*
X-6615338Y-47523025D02*
X-6615338Y-47823025D01*
X-6615338Y-47537310D02*
X-6586766Y-47523025D01*
X-6529623Y-47523025D01*
X-6501052Y-47537310D01*
X-6486766Y-47551596D01*
X-6472480Y-47580167D01*
X-6472480Y-47665882D01*
X-6486766Y-47694453D01*
X-6501052Y-47708739D01*
X-6529623Y-47723025D01*
X-6586766Y-47723025D01*
X-6615338Y-47708739D01*
X-6343909Y-47694453D02*
X-6329623Y-47708739D01*
X-6343909Y-47723025D01*
X-6358195Y-47708739D01*
X-6343909Y-47694453D01*
X-6343909Y-47723025D01*
X-6343909Y-47537310D02*
X-6329623Y-47551596D01*
X-6343909Y-47565882D01*
X-6358195Y-47551596D01*
X-6343909Y-47537310D01*
X-6343909Y-47565882D01*
X-8862481Y-48129810D02*
X-8687481Y-48304810D01*
X-8687481Y-48129810D02*
X-8862481Y-48304810D01*
X-8243909Y-48353025D02*
X-8415338Y-48353025D01*
X-8329623Y-48353025D02*
X-8329623Y-48053025D01*
X-8358195Y-48095882D01*
X-8386766Y-48124453D01*
X-8415338Y-48138739D01*
X-8115338Y-48324453D02*
X-8101052Y-48338739D01*
X-8115338Y-48353025D01*
X-8129623Y-48338739D01*
X-8115338Y-48324453D01*
X-8115338Y-48353025D01*
X-8001052Y-48053025D02*
X-7801052Y-48053025D01*
X-7929623Y-48353025D01*
X-7543909Y-48053025D02*
X-7686766Y-48053025D01*
X-7701052Y-48195882D01*
X-7686766Y-48181596D01*
X-7658195Y-48167310D01*
X-7586766Y-48167310D01*
X-7558195Y-48181596D01*
X-7543909Y-48195882D01*
X-7529623Y-48224453D01*
X-7529623Y-48295882D01*
X-7543909Y-48324453D01*
X-7558195Y-48338739D01*
X-7586766Y-48353025D01*
X-7658195Y-48353025D01*
X-7686766Y-48338739D01*
X-7701052Y-48324453D01*
X-7401052Y-48353025D02*
X-7401052Y-48153025D01*
X-7401052Y-48181596D02*
X-7386766Y-48167310D01*
X-7358195Y-48153025D01*
X-7315338Y-48153025D01*
X-7286766Y-48167310D01*
X-7272480Y-48195882D01*
X-7272480Y-48353025D01*
X-7272480Y-48195882D02*
X-7258195Y-48167310D01*
X-7229623Y-48153025D01*
X-7186766Y-48153025D01*
X-7158195Y-48167310D01*
X-7143909Y-48195882D01*
X-7143909Y-48353025D01*
X-7001052Y-48353025D02*
X-7001052Y-48153025D01*
X-7001052Y-48181596D02*
X-6986766Y-48167310D01*
X-6958195Y-48153025D01*
X-6915338Y-48153025D01*
X-6886766Y-48167310D01*
X-6872480Y-48195882D01*
X-6872480Y-48353025D01*
X-6872480Y-48195882D02*
X-6858195Y-48167310D01*
X-6829623Y-48153025D01*
X-6786766Y-48153025D01*
X-6758195Y-48167310D01*
X-6743909Y-48195882D01*
X-6743909Y-48353025D01*
X-6158195Y-48038739D02*
X-6415338Y-48424453D01*
X-5772480Y-48053025D02*
X-5743909Y-48053025D01*
X-5715338Y-48067310D01*
X-5701052Y-48081596D01*
X-5686766Y-48110167D01*
X-5672480Y-48167310D01*
X-5672480Y-48238739D01*
X-5686766Y-48295882D01*
X-5701052Y-48324453D01*
X-5715338Y-48338739D01*
X-5743909Y-48353025D01*
X-5772480Y-48353025D01*
X-5801052Y-48338739D01*
X-5815338Y-48324453D01*
X-5829623Y-48295882D01*
X-5843909Y-48238739D01*
X-5843909Y-48167310D01*
X-5829623Y-48110167D01*
X-5815338Y-48081596D01*
X-5801052Y-48067310D01*
X-5772480Y-48053025D01*
X-5543909Y-48324453D02*
X-5529623Y-48338739D01*
X-5543909Y-48353025D01*
X-5558195Y-48338739D01*
X-5543909Y-48324453D01*
X-5543909Y-48353025D01*
X-5343909Y-48053025D02*
X-5315338Y-48053025D01*
X-5286766Y-48067310D01*
X-5272481Y-48081596D01*
X-5258195Y-48110167D01*
X-5243909Y-48167310D01*
X-5243909Y-48238739D01*
X-5258195Y-48295882D01*
X-5272481Y-48324453D01*
X-5286766Y-48338739D01*
X-5315338Y-48353025D01*
X-5343909Y-48353025D01*
X-5372481Y-48338739D01*
X-5386766Y-48324453D01*
X-5401052Y-48295882D01*
X-5415338Y-48238739D01*
X-5415338Y-48167310D01*
X-5401052Y-48110167D01*
X-5386766Y-48081596D01*
X-5372481Y-48067310D01*
X-5343909Y-48053025D01*
X-4986766Y-48053025D02*
X-5043909Y-48053025D01*
X-5072481Y-48067310D01*
X-5086766Y-48081596D01*
X-5115338Y-48124453D01*
X-5129623Y-48181596D01*
X-5129623Y-48295882D01*
X-5115338Y-48324453D01*
X-5101052Y-48338739D01*
X-5072481Y-48353025D01*
X-5015338Y-48353025D01*
X-4986766Y-48338739D01*
X-4972481Y-48324453D01*
X-4958195Y-48295882D01*
X-4958195Y-48224453D01*
X-4972481Y-48195882D01*
X-4986766Y-48181596D01*
X-5015338Y-48167310D01*
X-5072481Y-48167310D01*
X-5101052Y-48181596D01*
X-5115338Y-48195882D01*
X-5129623Y-48224453D01*
X-4815338Y-48353025D02*
X-4758195Y-48353025D01*
X-4729623Y-48338739D01*
X-4715338Y-48324453D01*
X-4686766Y-48281596D01*
X-4672481Y-48224453D01*
X-4672481Y-48110167D01*
X-4686766Y-48081596D01*
X-4701052Y-48067310D01*
X-4729623Y-48053025D01*
X-4786766Y-48053025D01*
X-4815338Y-48067310D01*
X-4829623Y-48081596D01*
X-4843909Y-48110167D01*
X-4843909Y-48181596D01*
X-4829623Y-48210167D01*
X-4815338Y-48224453D01*
X-4786766Y-48238739D01*
X-4729623Y-48238739D01*
X-4701052Y-48224453D01*
X-4686766Y-48210167D01*
X-4672481Y-48181596D01*
X-4558195Y-48053025D02*
X-4558195Y-48110167D01*
X-4443909Y-48053025D02*
X-4443909Y-48110167D01*
X-4001052Y-48467310D02*
X-4015338Y-48453025D01*
X-4043909Y-48410167D01*
X-4058195Y-48381596D01*
X-4072480Y-48338739D01*
X-4086766Y-48267310D01*
X-4086766Y-48210167D01*
X-4072480Y-48138739D01*
X-4058195Y-48095882D01*
X-4043909Y-48067310D01*
X-4015338Y-48024453D01*
X-4001052Y-48010167D01*
X-3758195Y-48053025D02*
X-3815338Y-48053025D01*
X-3843909Y-48067310D01*
X-3858195Y-48081596D01*
X-3886766Y-48124453D01*
X-3901052Y-48181596D01*
X-3901052Y-48295882D01*
X-3886766Y-48324453D01*
X-3872480Y-48338739D01*
X-3843909Y-48353025D01*
X-3786766Y-48353025D01*
X-3758195Y-48338739D01*
X-3743909Y-48324453D01*
X-3729623Y-48295882D01*
X-3729623Y-48224453D01*
X-3743909Y-48195882D01*
X-3758195Y-48181596D01*
X-3786766Y-48167310D01*
X-3843909Y-48167310D01*
X-3872480Y-48181596D01*
X-3886766Y-48195882D01*
X-3901052Y-48224453D01*
X-3372480Y-48353025D02*
X-3372480Y-48053025D01*
X-3243909Y-48353025D02*
X-3243909Y-48195882D01*
X-3258195Y-48167310D01*
X-3286766Y-48153025D01*
X-3329623Y-48153025D01*
X-3358195Y-48167310D01*
X-3372480Y-48181596D01*
X-3058195Y-48353025D02*
X-3086766Y-48338739D01*
X-3101052Y-48324453D01*
X-3115338Y-48295882D01*
X-3115338Y-48210167D01*
X-3101052Y-48181596D01*
X-3086766Y-48167310D01*
X-3058195Y-48153025D01*
X-3015338Y-48153025D01*
X-2986766Y-48167310D01*
X-2972480Y-48181596D01*
X-2958195Y-48210167D01*
X-2958195Y-48295882D01*
X-2972480Y-48324453D01*
X-2986766Y-48338739D01*
X-3015338Y-48353025D01*
X-3058195Y-48353025D01*
X-2786766Y-48353025D02*
X-2815338Y-48338739D01*
X-2829623Y-48310167D01*
X-2829623Y-48053025D01*
X-2558195Y-48338739D02*
X-2586766Y-48353025D01*
X-2643909Y-48353025D01*
X-2672481Y-48338739D01*
X-2686766Y-48310167D01*
X-2686766Y-48195882D01*
X-2672481Y-48167310D01*
X-2643909Y-48153025D01*
X-2586766Y-48153025D01*
X-2558195Y-48167310D01*
X-2543909Y-48195882D01*
X-2543909Y-48224453D01*
X-2686766Y-48253025D01*
X-2429623Y-48338739D02*
X-2401052Y-48353025D01*
X-2343909Y-48353025D01*
X-2315338Y-48338739D01*
X-2301052Y-48310167D01*
X-2301052Y-48295882D01*
X-2315338Y-48267310D01*
X-2343909Y-48253025D01*
X-2386766Y-48253025D01*
X-2415338Y-48238739D01*
X-2429623Y-48210167D01*
X-2429623Y-48195882D01*
X-2415338Y-48167310D01*
X-2386766Y-48153025D01*
X-2343909Y-48153025D01*
X-2315338Y-48167310D01*
X-2201052Y-48467310D02*
X-2186766Y-48453025D01*
X-2158195Y-48410167D01*
X-2143909Y-48381596D01*
X-2129623Y-48338739D01*
X-2115338Y-48267310D01*
X-2115338Y-48210167D01*
X-2129623Y-48138739D01*
X-2143909Y-48095882D01*
X-2158195Y-48067310D01*
X-2186766Y-48024453D01*
X-2201052Y-48010167D01*
X-1658195Y-48467310D02*
X-1672480Y-48453025D01*
X-1701052Y-48410167D01*
X-1715338Y-48381596D01*
X-1729623Y-48338739D01*
X-1743909Y-48267310D01*
X-1743909Y-48210167D01*
X-1729623Y-48138739D01*
X-1715338Y-48095882D01*
X-1701052Y-48067310D01*
X-1672480Y-48024453D01*
X-1658195Y-48010167D01*
X-1543909Y-48153025D02*
X-1543909Y-48353025D01*
X-1543909Y-48181596D02*
X-1529623Y-48167310D01*
X-1501052Y-48153025D01*
X-1458195Y-48153025D01*
X-1429623Y-48167310D01*
X-1415338Y-48195882D01*
X-1415338Y-48353025D01*
X-1229623Y-48353025D02*
X-1258195Y-48338739D01*
X-1272481Y-48324453D01*
X-1286766Y-48295882D01*
X-1286766Y-48210167D01*
X-1272481Y-48181596D01*
X-1258195Y-48167310D01*
X-1229623Y-48153025D01*
X-1186766Y-48153025D01*
X-1158195Y-48167310D01*
X-1143909Y-48181596D01*
X-1129623Y-48210167D01*
X-1129623Y-48295882D01*
X-1143909Y-48324453D01*
X-1158195Y-48338739D01*
X-1186766Y-48353025D01*
X-1229623Y-48353025D01*
X-1043909Y-48153025D02*
X-929623Y-48153025D01*
X-1001052Y-48053025D02*
X-1001052Y-48310167D01*
X-986766Y-48338739D01*
X-958195Y-48353025D01*
X-929623Y-48353025D01*
X-601052Y-48153025D02*
X-601052Y-48453025D01*
X-601052Y-48167310D02*
X-572481Y-48153025D01*
X-515338Y-48153025D01*
X-486766Y-48167310D01*
X-472480Y-48181596D01*
X-458195Y-48210167D01*
X-458195Y-48295882D01*
X-472480Y-48324453D01*
X-486766Y-48338739D01*
X-515338Y-48353025D01*
X-572481Y-48353025D01*
X-601052Y-48338739D01*
X-286766Y-48353025D02*
X-315338Y-48338739D01*
X-329623Y-48310167D01*
X-329623Y-48053025D01*
X-43909Y-48353025D02*
X-43909Y-48195882D01*
X-58195Y-48167310D01*
X-86766Y-48153025D01*
X-143909Y-48153025D01*
X-172481Y-48167310D01*
X-43909Y-48338739D02*
X-72481Y-48353025D01*
X-143909Y-48353025D01*
X-172481Y-48338739D01*
X-186766Y-48310167D01*
X-186766Y-48281596D01*
X-172481Y-48253025D01*
X-143909Y-48238739D01*
X-72481Y-48238739D01*
X-43909Y-48224453D01*
X56091Y-48153025D02*
X170377Y-48153025D01*
X98948Y-48053025D02*
X98948Y-48310167D01*
X113234Y-48338739D01*
X141805Y-48353025D01*
X170377Y-48353025D01*
X384662Y-48338739D02*
X356091Y-48353025D01*
X298948Y-48353025D01*
X270377Y-48338739D01*
X256091Y-48310167D01*
X256091Y-48195882D01*
X270377Y-48167310D01*
X298948Y-48153025D01*
X356091Y-48153025D01*
X384662Y-48167310D01*
X398948Y-48195882D01*
X398948Y-48224453D01*
X256091Y-48253025D01*
X656091Y-48353025D02*
X656091Y-48053025D01*
X656091Y-48338739D02*
X627520Y-48353025D01*
X570377Y-48353025D01*
X541805Y-48338739D01*
X527520Y-48324453D01*
X513234Y-48295882D01*
X513234Y-48210167D01*
X527520Y-48181596D01*
X541805Y-48167310D01*
X570377Y-48153025D01*
X627520Y-48153025D01*
X656091Y-48167310D01*
X770377Y-48467310D02*
X784662Y-48453025D01*
X813234Y-48410167D01*
X827519Y-48381596D01*
X841805Y-48338739D01*
X856091Y-48267310D01*
X856091Y-48210167D01*
X841805Y-48138739D01*
X827519Y-48095882D01*
X813234Y-48067310D01*
X784662Y-48024453D01*
X770377Y-48010167D01*
X-8687481Y-48613310D02*
G75*
G03X-8687481Y-48613310I-147500J0D01*
G01*
X-8415338Y-48477596D02*
X-8401052Y-48463310D01*
X-8372480Y-48449025D01*
X-8301052Y-48449025D01*
X-8272480Y-48463310D01*
X-8258195Y-48477596D01*
X-8243909Y-48506167D01*
X-8243909Y-48534739D01*
X-8258195Y-48577596D01*
X-8429623Y-48749025D01*
X-8243909Y-48749025D01*
X-8115338Y-48720453D02*
X-8101052Y-48734739D01*
X-8115338Y-48749025D01*
X-8129623Y-48734739D01*
X-8115338Y-48720453D01*
X-8115338Y-48749025D01*
X-7958195Y-48749025D02*
X-7901052Y-48749025D01*
X-7872480Y-48734739D01*
X-7858195Y-48720453D01*
X-7829623Y-48677596D01*
X-7815338Y-48620453D01*
X-7815338Y-48506167D01*
X-7829623Y-48477596D01*
X-7843909Y-48463310D01*
X-7872480Y-48449025D01*
X-7929623Y-48449025D01*
X-7958195Y-48463310D01*
X-7972480Y-48477596D01*
X-7986766Y-48506167D01*
X-7986766Y-48577596D01*
X-7972480Y-48606167D01*
X-7958195Y-48620453D01*
X-7929623Y-48634739D01*
X-7872480Y-48634739D01*
X-7843909Y-48620453D01*
X-7829623Y-48606167D01*
X-7815338Y-48577596D01*
X-7543909Y-48449025D02*
X-7686766Y-48449025D01*
X-7701052Y-48591882D01*
X-7686766Y-48577596D01*
X-7658195Y-48563310D01*
X-7586766Y-48563310D01*
X-7558195Y-48577596D01*
X-7543909Y-48591882D01*
X-7529623Y-48620453D01*
X-7529623Y-48691882D01*
X-7543909Y-48720453D01*
X-7558195Y-48734739D01*
X-7586766Y-48749025D01*
X-7658195Y-48749025D01*
X-7686766Y-48734739D01*
X-7701052Y-48720453D01*
X-7401052Y-48749025D02*
X-7401052Y-48549025D01*
X-7401052Y-48577596D02*
X-7386766Y-48563310D01*
X-7358195Y-48549025D01*
X-7315338Y-48549025D01*
X-7286766Y-48563310D01*
X-7272480Y-48591882D01*
X-7272480Y-48749025D01*
X-7272480Y-48591882D02*
X-7258195Y-48563310D01*
X-7229623Y-48549025D01*
X-7186766Y-48549025D01*
X-7158195Y-48563310D01*
X-7143909Y-48591882D01*
X-7143909Y-48749025D01*
X-7001052Y-48749025D02*
X-7001052Y-48549025D01*
X-7001052Y-48577596D02*
X-6986766Y-48563310D01*
X-6958195Y-48549025D01*
X-6915338Y-48549025D01*
X-6886766Y-48563310D01*
X-6872480Y-48591882D01*
X-6872480Y-48749025D01*
X-6872480Y-48591882D02*
X-6858195Y-48563310D01*
X-6829623Y-48549025D01*
X-6786766Y-48549025D01*
X-6758195Y-48563310D01*
X-6743909Y-48591882D01*
X-6743909Y-48749025D01*
X-6158195Y-48434739D02*
X-6415338Y-48820453D01*
X-5772480Y-48449025D02*
X-5743909Y-48449025D01*
X-5715338Y-48463310D01*
X-5701052Y-48477596D01*
X-5686766Y-48506167D01*
X-5672480Y-48563310D01*
X-5672480Y-48634739D01*
X-5686766Y-48691882D01*
X-5701052Y-48720453D01*
X-5715338Y-48734739D01*
X-5743909Y-48749025D01*
X-5772480Y-48749025D01*
X-5801052Y-48734739D01*
X-5815338Y-48720453D01*
X-5829623Y-48691882D01*
X-5843909Y-48634739D01*
X-5843909Y-48563310D01*
X-5829623Y-48506167D01*
X-5815338Y-48477596D01*
X-5801052Y-48463310D01*
X-5772480Y-48449025D01*
X-5543909Y-48720453D02*
X-5529623Y-48734739D01*
X-5543909Y-48749025D01*
X-5558195Y-48734739D01*
X-5543909Y-48720453D01*
X-5543909Y-48749025D01*
X-5243909Y-48749025D02*
X-5415338Y-48749025D01*
X-5329623Y-48749025D02*
X-5329623Y-48449025D01*
X-5358195Y-48491882D01*
X-5386766Y-48520453D01*
X-5415338Y-48534739D01*
X-4958195Y-48749025D02*
X-5129623Y-48749025D01*
X-5043909Y-48749025D02*
X-5043909Y-48449025D01*
X-5072481Y-48491882D01*
X-5101052Y-48520453D01*
X-5129623Y-48534739D01*
X-4701052Y-48449025D02*
X-4758195Y-48449025D01*
X-4786766Y-48463310D01*
X-4801052Y-48477596D01*
X-4829623Y-48520453D01*
X-4843909Y-48577596D01*
X-4843909Y-48691882D01*
X-4829623Y-48720453D01*
X-4815338Y-48734739D01*
X-4786766Y-48749025D01*
X-4729623Y-48749025D01*
X-4701052Y-48734739D01*
X-4686766Y-48720453D01*
X-4672481Y-48691882D01*
X-4672481Y-48620453D01*
X-4686766Y-48591882D01*
X-4701052Y-48577596D01*
X-4729623Y-48563310D01*
X-4786766Y-48563310D01*
X-4815338Y-48577596D01*
X-4829623Y-48591882D01*
X-4843909Y-48620453D01*
X-4558195Y-48449025D02*
X-4558195Y-48506167D01*
X-4443909Y-48449025D02*
X-4443909Y-48506167D01*
X-4001052Y-48863310D02*
X-4015338Y-48849025D01*
X-4043909Y-48806167D01*
X-4058195Y-48777596D01*
X-4072480Y-48734739D01*
X-4086766Y-48663310D01*
X-4086766Y-48606167D01*
X-4072480Y-48534739D01*
X-4058195Y-48491882D01*
X-4043909Y-48463310D01*
X-4015338Y-48420453D01*
X-4001052Y-48406167D01*
X-3758195Y-48449025D02*
X-3815338Y-48449025D01*
X-3843909Y-48463310D01*
X-3858195Y-48477596D01*
X-3886766Y-48520453D01*
X-3901052Y-48577596D01*
X-3901052Y-48691882D01*
X-3886766Y-48720453D01*
X-3872480Y-48734739D01*
X-3843909Y-48749025D01*
X-3786766Y-48749025D01*
X-3758195Y-48734739D01*
X-3743909Y-48720453D01*
X-3729623Y-48691882D01*
X-3729623Y-48620453D01*
X-3743909Y-48591882D01*
X-3758195Y-48577596D01*
X-3786766Y-48563310D01*
X-3843909Y-48563310D01*
X-3872480Y-48577596D01*
X-3886766Y-48591882D01*
X-3901052Y-48620453D01*
X-3372480Y-48749025D02*
X-3372480Y-48449025D01*
X-3243909Y-48749025D02*
X-3243909Y-48591882D01*
X-3258195Y-48563310D01*
X-3286766Y-48549025D01*
X-3329623Y-48549025D01*
X-3358195Y-48563310D01*
X-3372480Y-48577596D01*
X-3058195Y-48749025D02*
X-3086766Y-48734739D01*
X-3101052Y-48720453D01*
X-3115338Y-48691882D01*
X-3115338Y-48606167D01*
X-3101052Y-48577596D01*
X-3086766Y-48563310D01*
X-3058195Y-48549025D01*
X-3015338Y-48549025D01*
X-2986766Y-48563310D01*
X-2972480Y-48577596D01*
X-2958195Y-48606167D01*
X-2958195Y-48691882D01*
X-2972480Y-48720453D01*
X-2986766Y-48734739D01*
X-3015338Y-48749025D01*
X-3058195Y-48749025D01*
X-2786766Y-48749025D02*
X-2815338Y-48734739D01*
X-2829623Y-48706167D01*
X-2829623Y-48449025D01*
X-2558195Y-48734739D02*
X-2586766Y-48749025D01*
X-2643909Y-48749025D01*
X-2672481Y-48734739D01*
X-2686766Y-48706167D01*
X-2686766Y-48591882D01*
X-2672481Y-48563310D01*
X-2643909Y-48549025D01*
X-2586766Y-48549025D01*
X-2558195Y-48563310D01*
X-2543909Y-48591882D01*
X-2543909Y-48620453D01*
X-2686766Y-48649025D01*
X-2429623Y-48734739D02*
X-2401052Y-48749025D01*
X-2343909Y-48749025D01*
X-2315338Y-48734739D01*
X-2301052Y-48706167D01*
X-2301052Y-48691882D01*
X-2315338Y-48663310D01*
X-2343909Y-48649025D01*
X-2386766Y-48649025D01*
X-2415338Y-48634739D01*
X-2429623Y-48606167D01*
X-2429623Y-48591882D01*
X-2415338Y-48563310D01*
X-2386766Y-48549025D01*
X-2343909Y-48549025D01*
X-2315338Y-48563310D01*
X-2201052Y-48863310D02*
X-2186766Y-48849025D01*
X-2158195Y-48806167D01*
X-2143909Y-48777596D01*
X-2129623Y-48734739D01*
X-2115338Y-48663310D01*
X-2115338Y-48606167D01*
X-2129623Y-48534739D01*
X-2143909Y-48491882D01*
X-2158195Y-48463310D01*
X-2186766Y-48420453D01*
X-2201052Y-48406167D01*
X-1658195Y-48863310D02*
X-1672480Y-48849025D01*
X-1701052Y-48806167D01*
X-1715338Y-48777596D01*
X-1729623Y-48734739D01*
X-1743909Y-48663310D01*
X-1743909Y-48606167D01*
X-1729623Y-48534739D01*
X-1715338Y-48491882D01*
X-1701052Y-48463310D01*
X-1672480Y-48420453D01*
X-1658195Y-48406167D01*
X-1543909Y-48549025D02*
X-1543909Y-48749025D01*
X-1543909Y-48577596D02*
X-1529623Y-48563310D01*
X-1501052Y-48549025D01*
X-1458195Y-48549025D01*
X-1429623Y-48563310D01*
X-1415338Y-48591882D01*
X-1415338Y-48749025D01*
X-1229623Y-48749025D02*
X-1258195Y-48734739D01*
X-1272481Y-48720453D01*
X-1286766Y-48691882D01*
X-1286766Y-48606167D01*
X-1272481Y-48577596D01*
X-1258195Y-48563310D01*
X-1229623Y-48549025D01*
X-1186766Y-48549025D01*
X-1158195Y-48563310D01*
X-1143909Y-48577596D01*
X-1129623Y-48606167D01*
X-1129623Y-48691882D01*
X-1143909Y-48720453D01*
X-1158195Y-48734739D01*
X-1186766Y-48749025D01*
X-1229623Y-48749025D01*
X-1043909Y-48549025D02*
X-929623Y-48549025D01*
X-1001052Y-48449025D02*
X-1001052Y-48706167D01*
X-986766Y-48734739D01*
X-958195Y-48749025D01*
X-929623Y-48749025D01*
X-601052Y-48549025D02*
X-601052Y-48849025D01*
X-601052Y-48563310D02*
X-572481Y-48549025D01*
X-515338Y-48549025D01*
X-486766Y-48563310D01*
X-472480Y-48577596D01*
X-458195Y-48606167D01*
X-458195Y-48691882D01*
X-472480Y-48720453D01*
X-486766Y-48734739D01*
X-515338Y-48749025D01*
X-572481Y-48749025D01*
X-601052Y-48734739D01*
X-286766Y-48749025D02*
X-315338Y-48734739D01*
X-329623Y-48706167D01*
X-329623Y-48449025D01*
X-43909Y-48749025D02*
X-43909Y-48591882D01*
X-58195Y-48563310D01*
X-86766Y-48549025D01*
X-143909Y-48549025D01*
X-172481Y-48563310D01*
X-43909Y-48734739D02*
X-72481Y-48749025D01*
X-143909Y-48749025D01*
X-172481Y-48734739D01*
X-186766Y-48706167D01*
X-186766Y-48677596D01*
X-172481Y-48649025D01*
X-143909Y-48634739D01*
X-72481Y-48634739D01*
X-43909Y-48620453D01*
X56091Y-48549025D02*
X170377Y-48549025D01*
X98948Y-48449025D02*
X98948Y-48706167D01*
X113234Y-48734739D01*
X141805Y-48749025D01*
X170377Y-48749025D01*
X384662Y-48734739D02*
X356091Y-48749025D01*
X298948Y-48749025D01*
X270377Y-48734739D01*
X256091Y-48706167D01*
X256091Y-48591882D01*
X270377Y-48563310D01*
X298948Y-48549025D01*
X356091Y-48549025D01*
X384662Y-48563310D01*
X398948Y-48591882D01*
X398948Y-48620453D01*
X256091Y-48649025D01*
X656091Y-48749025D02*
X656091Y-48449025D01*
X656091Y-48734739D02*
X627520Y-48749025D01*
X570377Y-48749025D01*
X541805Y-48734739D01*
X527520Y-48720453D01*
X513234Y-48691882D01*
X513234Y-48606167D01*
X527520Y-48577596D01*
X541805Y-48563310D01*
X570377Y-48549025D01*
X627520Y-48549025D01*
X656091Y-48563310D01*
X770377Y-48863310D02*
X784662Y-48849025D01*
X813234Y-48806167D01*
X827519Y-48777596D01*
X841805Y-48734739D01*
X856091Y-48663310D01*
X856091Y-48606167D01*
X841805Y-48534739D01*
X827519Y-48491882D01*
X813234Y-48463310D01*
X784662Y-48420453D01*
X770377Y-48406167D01*
X-8837481Y-48888310D02*
X-8837481Y-49188310D01*
X-8987481Y-49038310D02*
X-8687481Y-49038310D01*
X-8429623Y-48874025D02*
X-8243909Y-48874025D01*
X-8343909Y-48988310D01*
X-8301052Y-48988310D01*
X-8272480Y-49002596D01*
X-8258195Y-49016882D01*
X-8243909Y-49045453D01*
X-8243909Y-49116882D01*
X-8258195Y-49145453D01*
X-8272480Y-49159739D01*
X-8301052Y-49174025D01*
X-8386766Y-49174025D01*
X-8415338Y-49159739D01*
X-8429623Y-49145453D01*
X-8115338Y-49145453D02*
X-8101052Y-49159739D01*
X-8115338Y-49174025D01*
X-8129623Y-49159739D01*
X-8115338Y-49145453D01*
X-8115338Y-49174025D01*
X-7915338Y-48874025D02*
X-7886766Y-48874025D01*
X-7858195Y-48888310D01*
X-7843909Y-48902596D01*
X-7829623Y-48931167D01*
X-7815338Y-48988310D01*
X-7815338Y-49059739D01*
X-7829623Y-49116882D01*
X-7843909Y-49145453D01*
X-7858195Y-49159739D01*
X-7886766Y-49174025D01*
X-7915338Y-49174025D01*
X-7943909Y-49159739D01*
X-7958195Y-49145453D01*
X-7972480Y-49116882D01*
X-7986766Y-49059739D01*
X-7986766Y-48988310D01*
X-7972480Y-48931167D01*
X-7958195Y-48902596D01*
X-7943909Y-48888310D01*
X-7915338Y-48874025D01*
X-7629623Y-48874025D02*
X-7601052Y-48874025D01*
X-7572480Y-48888310D01*
X-7558195Y-48902596D01*
X-7543909Y-48931167D01*
X-7529623Y-48988310D01*
X-7529623Y-49059739D01*
X-7543909Y-49116882D01*
X-7558195Y-49145453D01*
X-7572480Y-49159739D01*
X-7601052Y-49174025D01*
X-7629623Y-49174025D01*
X-7658195Y-49159739D01*
X-7672480Y-49145453D01*
X-7686766Y-49116882D01*
X-7701052Y-49059739D01*
X-7701052Y-48988310D01*
X-7686766Y-48931167D01*
X-7672480Y-48902596D01*
X-7658195Y-48888310D01*
X-7629623Y-48874025D01*
X-7401052Y-49174025D02*
X-7401052Y-48974025D01*
X-7401052Y-49002596D02*
X-7386766Y-48988310D01*
X-7358195Y-48974025D01*
X-7315338Y-48974025D01*
X-7286766Y-48988310D01*
X-7272480Y-49016882D01*
X-7272480Y-49174025D01*
X-7272480Y-49016882D02*
X-7258195Y-48988310D01*
X-7229623Y-48974025D01*
X-7186766Y-48974025D01*
X-7158195Y-48988310D01*
X-7143909Y-49016882D01*
X-7143909Y-49174025D01*
X-7001052Y-49174025D02*
X-7001052Y-48974025D01*
X-7001052Y-49002596D02*
X-6986766Y-48988310D01*
X-6958195Y-48974025D01*
X-6915338Y-48974025D01*
X-6886766Y-48988310D01*
X-6872480Y-49016882D01*
X-6872480Y-49174025D01*
X-6872480Y-49016882D02*
X-6858195Y-48988310D01*
X-6829623Y-48974025D01*
X-6786766Y-48974025D01*
X-6758195Y-48988310D01*
X-6743909Y-49016882D01*
X-6743909Y-49174025D01*
X-6158195Y-48859739D02*
X-6415338Y-49245453D01*
X-5772480Y-48874025D02*
X-5743909Y-48874025D01*
X-5715338Y-48888310D01*
X-5701052Y-48902596D01*
X-5686766Y-48931167D01*
X-5672480Y-48988310D01*
X-5672480Y-49059739D01*
X-5686766Y-49116882D01*
X-5701052Y-49145453D01*
X-5715338Y-49159739D01*
X-5743909Y-49174025D01*
X-5772480Y-49174025D01*
X-5801052Y-49159739D01*
X-5815338Y-49145453D01*
X-5829623Y-49116882D01*
X-5843909Y-49059739D01*
X-5843909Y-48988310D01*
X-5829623Y-48931167D01*
X-5815338Y-48902596D01*
X-5801052Y-48888310D01*
X-5772480Y-48874025D01*
X-5543909Y-49145453D02*
X-5529623Y-49159739D01*
X-5543909Y-49174025D01*
X-5558195Y-49159739D01*
X-5543909Y-49145453D01*
X-5543909Y-49174025D01*
X-5243909Y-49174025D02*
X-5415338Y-49174025D01*
X-5329623Y-49174025D02*
X-5329623Y-48874025D01*
X-5358195Y-48916882D01*
X-5386766Y-48945453D01*
X-5415338Y-48959739D01*
X-4958195Y-49174025D02*
X-5129623Y-49174025D01*
X-5043909Y-49174025D02*
X-5043909Y-48874025D01*
X-5072481Y-48916882D01*
X-5101052Y-48945453D01*
X-5129623Y-48959739D01*
X-4786766Y-49002596D02*
X-4815338Y-48988310D01*
X-4829623Y-48974025D01*
X-4843909Y-48945453D01*
X-4843909Y-48931167D01*
X-4829623Y-48902596D01*
X-4815338Y-48888310D01*
X-4786766Y-48874025D01*
X-4729623Y-48874025D01*
X-4701052Y-48888310D01*
X-4686766Y-48902596D01*
X-4672481Y-48931167D01*
X-4672481Y-48945453D01*
X-4686766Y-48974025D01*
X-4701052Y-48988310D01*
X-4729623Y-49002596D01*
X-4786766Y-49002596D01*
X-4815338Y-49016882D01*
X-4829623Y-49031167D01*
X-4843909Y-49059739D01*
X-4843909Y-49116882D01*
X-4829623Y-49145453D01*
X-4815338Y-49159739D01*
X-4786766Y-49174025D01*
X-4729623Y-49174025D01*
X-4701052Y-49159739D01*
X-4686766Y-49145453D01*
X-4672481Y-49116882D01*
X-4672481Y-49059739D01*
X-4686766Y-49031167D01*
X-4701052Y-49016882D01*
X-4729623Y-49002596D01*
X-4558195Y-48874025D02*
X-4558195Y-48931167D01*
X-4443909Y-48874025D02*
X-4443909Y-48931167D01*
X-4001052Y-49288310D02*
X-4015338Y-49274025D01*
X-4043909Y-49231167D01*
X-4058195Y-49202596D01*
X-4072480Y-49159739D01*
X-4086766Y-49088310D01*
X-4086766Y-49031167D01*
X-4072480Y-48959739D01*
X-4058195Y-48916882D01*
X-4043909Y-48888310D01*
X-4015338Y-48845453D01*
X-4001052Y-48831167D01*
X-3758195Y-48874025D02*
X-3815338Y-48874025D01*
X-3843909Y-48888310D01*
X-3858195Y-48902596D01*
X-3886766Y-48945453D01*
X-3901052Y-49002596D01*
X-3901052Y-49116882D01*
X-3886766Y-49145453D01*
X-3872480Y-49159739D01*
X-3843909Y-49174025D01*
X-3786766Y-49174025D01*
X-3758195Y-49159739D01*
X-3743909Y-49145453D01*
X-3729623Y-49116882D01*
X-3729623Y-49045453D01*
X-3743909Y-49016882D01*
X-3758195Y-49002596D01*
X-3786766Y-48988310D01*
X-3843909Y-48988310D01*
X-3872480Y-49002596D01*
X-3886766Y-49016882D01*
X-3901052Y-49045453D01*
X-3372480Y-49174025D02*
X-3372480Y-48874025D01*
X-3243909Y-49174025D02*
X-3243909Y-49016882D01*
X-3258195Y-48988310D01*
X-3286766Y-48974025D01*
X-3329623Y-48974025D01*
X-3358195Y-48988310D01*
X-3372480Y-49002596D01*
X-3058195Y-49174025D02*
X-3086766Y-49159739D01*
X-3101052Y-49145453D01*
X-3115338Y-49116882D01*
X-3115338Y-49031167D01*
X-3101052Y-49002596D01*
X-3086766Y-48988310D01*
X-3058195Y-48974025D01*
X-3015338Y-48974025D01*
X-2986766Y-48988310D01*
X-2972480Y-49002596D01*
X-2958195Y-49031167D01*
X-2958195Y-49116882D01*
X-2972480Y-49145453D01*
X-2986766Y-49159739D01*
X-3015338Y-49174025D01*
X-3058195Y-49174025D01*
X-2786766Y-49174025D02*
X-2815338Y-49159739D01*
X-2829623Y-49131167D01*
X-2829623Y-48874025D01*
X-2558195Y-49159739D02*
X-2586766Y-49174025D01*
X-2643909Y-49174025D01*
X-2672481Y-49159739D01*
X-2686766Y-49131167D01*
X-2686766Y-49016882D01*
X-2672481Y-48988310D01*
X-2643909Y-48974025D01*
X-2586766Y-48974025D01*
X-2558195Y-48988310D01*
X-2543909Y-49016882D01*
X-2543909Y-49045453D01*
X-2686766Y-49074025D01*
X-2429623Y-49159739D02*
X-2401052Y-49174025D01*
X-2343909Y-49174025D01*
X-2315338Y-49159739D01*
X-2301052Y-49131167D01*
X-2301052Y-49116882D01*
X-2315338Y-49088310D01*
X-2343909Y-49074025D01*
X-2386766Y-49074025D01*
X-2415338Y-49059739D01*
X-2429623Y-49031167D01*
X-2429623Y-49016882D01*
X-2415338Y-48988310D01*
X-2386766Y-48974025D01*
X-2343909Y-48974025D01*
X-2315338Y-48988310D01*
X-2201052Y-49288310D02*
X-2186766Y-49274025D01*
X-2158195Y-49231167D01*
X-2143909Y-49202596D01*
X-2129623Y-49159739D01*
X-2115338Y-49088310D01*
X-2115338Y-49031167D01*
X-2129623Y-48959739D01*
X-2143909Y-48916882D01*
X-2158195Y-48888310D01*
X-2186766Y-48845453D01*
X-2201052Y-48831167D01*
X-1658195Y-49288310D02*
X-1672480Y-49274025D01*
X-1701052Y-49231167D01*
X-1715338Y-49202596D01*
X-1729623Y-49159739D01*
X-1743909Y-49088310D01*
X-1743909Y-49031167D01*
X-1729623Y-48959739D01*
X-1715338Y-48916882D01*
X-1701052Y-48888310D01*
X-1672480Y-48845453D01*
X-1658195Y-48831167D01*
X-1543909Y-48974025D02*
X-1543909Y-49174025D01*
X-1543909Y-49002596D02*
X-1529623Y-48988310D01*
X-1501052Y-48974025D01*
X-1458195Y-48974025D01*
X-1429623Y-48988310D01*
X-1415338Y-49016882D01*
X-1415338Y-49174025D01*
X-1229623Y-49174025D02*
X-1258195Y-49159739D01*
X-1272481Y-49145453D01*
X-1286766Y-49116882D01*
X-1286766Y-49031167D01*
X-1272481Y-49002596D01*
X-1258195Y-48988310D01*
X-1229623Y-48974025D01*
X-1186766Y-48974025D01*
X-1158195Y-48988310D01*
X-1143909Y-49002596D01*
X-1129623Y-49031167D01*
X-1129623Y-49116882D01*
X-1143909Y-49145453D01*
X-1158195Y-49159739D01*
X-1186766Y-49174025D01*
X-1229623Y-49174025D01*
X-1043909Y-48974025D02*
X-929623Y-48974025D01*
X-1001052Y-48874025D02*
X-1001052Y-49131167D01*
X-986766Y-49159739D01*
X-958195Y-49174025D01*
X-929623Y-49174025D01*
X-601052Y-48974025D02*
X-601052Y-49274025D01*
X-601052Y-48988310D02*
X-572481Y-48974025D01*
X-515338Y-48974025D01*
X-486766Y-48988310D01*
X-472480Y-49002596D01*
X-458195Y-49031167D01*
X-458195Y-49116882D01*
X-472480Y-49145453D01*
X-486766Y-49159739D01*
X-515338Y-49174025D01*
X-572481Y-49174025D01*
X-601052Y-49159739D01*
X-286766Y-49174025D02*
X-315338Y-49159739D01*
X-329623Y-49131167D01*
X-329623Y-48874025D01*
X-43909Y-49174025D02*
X-43909Y-49016882D01*
X-58195Y-48988310D01*
X-86766Y-48974025D01*
X-143909Y-48974025D01*
X-172481Y-48988310D01*
X-43909Y-49159739D02*
X-72481Y-49174025D01*
X-143909Y-49174025D01*
X-172481Y-49159739D01*
X-186766Y-49131167D01*
X-186766Y-49102596D01*
X-172481Y-49074025D01*
X-143909Y-49059739D01*
X-72481Y-49059739D01*
X-43909Y-49045453D01*
X56091Y-48974025D02*
X170377Y-48974025D01*
X98948Y-48874025D02*
X98948Y-49131167D01*
X113234Y-49159739D01*
X141805Y-49174025D01*
X170377Y-49174025D01*
X384662Y-49159739D02*
X356091Y-49174025D01*
X298948Y-49174025D01*
X270377Y-49159739D01*
X256091Y-49131167D01*
X256091Y-49016882D01*
X270377Y-48988310D01*
X298948Y-48974025D01*
X356091Y-48974025D01*
X384662Y-48988310D01*
X398948Y-49016882D01*
X398948Y-49045453D01*
X256091Y-49074025D01*
X656091Y-49174025D02*
X656091Y-48874025D01*
X656091Y-49159739D02*
X627520Y-49174025D01*
X570377Y-49174025D01*
X541805Y-49159739D01*
X527520Y-49145453D01*
X513234Y-49116882D01*
X513234Y-49031167D01*
X527520Y-49002596D01*
X541805Y-48988310D01*
X570377Y-48974025D01*
X627520Y-48974025D01*
X656091Y-48988310D01*
X770377Y-49288310D02*
X784662Y-49274025D01*
X813234Y-49231167D01*
X827519Y-49202596D01*
X841805Y-49159739D01*
X856091Y-49088310D01*
X856091Y-49031167D01*
X841805Y-48959739D01*
X827519Y-48916882D01*
X813234Y-48888310D01*
X784662Y-48845453D01*
X770377Y-48831167D01*
X-8761434Y-49646857D02*
X-8761434Y-49289764D01*
X-9118527Y-49289764D01*
X-9118527Y-49646857D01*
X-8761434Y-49646857D01*
X-8258195Y-49304025D02*
X-8401052Y-49304025D01*
X-8415338Y-49446882D01*
X-8401052Y-49432596D01*
X-8372480Y-49418310D01*
X-8301052Y-49418310D01*
X-8272480Y-49432596D01*
X-8258195Y-49446882D01*
X-8243909Y-49475453D01*
X-8243909Y-49546882D01*
X-8258195Y-49575453D01*
X-8272480Y-49589739D01*
X-8301052Y-49604025D01*
X-8372480Y-49604025D01*
X-8401052Y-49589739D01*
X-8415338Y-49575453D01*
X-8115338Y-49575453D02*
X-8101052Y-49589739D01*
X-8115338Y-49604025D01*
X-8129623Y-49589739D01*
X-8115338Y-49575453D01*
X-8115338Y-49604025D01*
X-7915338Y-49304025D02*
X-7886766Y-49304025D01*
X-7858195Y-49318310D01*
X-7843909Y-49332596D01*
X-7829623Y-49361167D01*
X-7815338Y-49418310D01*
X-7815338Y-49489739D01*
X-7829623Y-49546882D01*
X-7843909Y-49575453D01*
X-7858195Y-49589739D01*
X-7886766Y-49604025D01*
X-7915338Y-49604025D01*
X-7943909Y-49589739D01*
X-7958195Y-49575453D01*
X-7972480Y-49546882D01*
X-7986766Y-49489739D01*
X-7986766Y-49418310D01*
X-7972480Y-49361167D01*
X-7958195Y-49332596D01*
X-7943909Y-49318310D01*
X-7915338Y-49304025D01*
X-7543909Y-49304025D02*
X-7686766Y-49304025D01*
X-7701052Y-49446882D01*
X-7686766Y-49432596D01*
X-7658195Y-49418310D01*
X-7586766Y-49418310D01*
X-7558195Y-49432596D01*
X-7543909Y-49446882D01*
X-7529623Y-49475453D01*
X-7529623Y-49546882D01*
X-7543909Y-49575453D01*
X-7558195Y-49589739D01*
X-7586766Y-49604025D01*
X-7658195Y-49604025D01*
X-7686766Y-49589739D01*
X-7701052Y-49575453D01*
X-7401052Y-49604025D02*
X-7401052Y-49404025D01*
X-7401052Y-49432596D02*
X-7386766Y-49418310D01*
X-7358195Y-49404025D01*
X-7315338Y-49404025D01*
X-7286766Y-49418310D01*
X-7272480Y-49446882D01*
X-7272480Y-49604025D01*
X-7272480Y-49446882D02*
X-7258195Y-49418310D01*
X-7229623Y-49404025D01*
X-7186766Y-49404025D01*
X-7158195Y-49418310D01*
X-7143909Y-49446882D01*
X-7143909Y-49604025D01*
X-7001052Y-49604025D02*
X-7001052Y-49404025D01*
X-7001052Y-49432596D02*
X-6986766Y-49418310D01*
X-6958195Y-49404025D01*
X-6915338Y-49404025D01*
X-6886766Y-49418310D01*
X-6872480Y-49446882D01*
X-6872480Y-49604025D01*
X-6872480Y-49446882D02*
X-6858195Y-49418310D01*
X-6829623Y-49404025D01*
X-6786766Y-49404025D01*
X-6758195Y-49418310D01*
X-6743909Y-49446882D01*
X-6743909Y-49604025D01*
X-6158195Y-49289739D02*
X-6415338Y-49675453D01*
X-5772480Y-49304025D02*
X-5743909Y-49304025D01*
X-5715338Y-49318310D01*
X-5701052Y-49332596D01*
X-5686766Y-49361167D01*
X-5672480Y-49418310D01*
X-5672480Y-49489739D01*
X-5686766Y-49546882D01*
X-5701052Y-49575453D01*
X-5715338Y-49589739D01*
X-5743909Y-49604025D01*
X-5772480Y-49604025D01*
X-5801052Y-49589739D01*
X-5815338Y-49575453D01*
X-5829623Y-49546882D01*
X-5843909Y-49489739D01*
X-5843909Y-49418310D01*
X-5829623Y-49361167D01*
X-5815338Y-49332596D01*
X-5801052Y-49318310D01*
X-5772480Y-49304025D01*
X-5543909Y-49575453D02*
X-5529623Y-49589739D01*
X-5543909Y-49604025D01*
X-5558195Y-49589739D01*
X-5543909Y-49575453D01*
X-5543909Y-49604025D01*
X-5243909Y-49604025D02*
X-5415338Y-49604025D01*
X-5329623Y-49604025D02*
X-5329623Y-49304025D01*
X-5358195Y-49346882D01*
X-5386766Y-49375453D01*
X-5415338Y-49389739D01*
X-5101052Y-49604025D02*
X-5043909Y-49604025D01*
X-5015338Y-49589739D01*
X-5001052Y-49575453D01*
X-4972481Y-49532596D01*
X-4958195Y-49475453D01*
X-4958195Y-49361167D01*
X-4972481Y-49332596D01*
X-4986766Y-49318310D01*
X-5015338Y-49304025D01*
X-5072481Y-49304025D01*
X-5101052Y-49318310D01*
X-5115338Y-49332596D01*
X-5129623Y-49361167D01*
X-5129623Y-49432596D01*
X-5115338Y-49461167D01*
X-5101052Y-49475453D01*
X-5072481Y-49489739D01*
X-5015338Y-49489739D01*
X-4986766Y-49475453D01*
X-4972481Y-49461167D01*
X-4958195Y-49432596D01*
X-4815338Y-49604025D02*
X-4758195Y-49604025D01*
X-4729623Y-49589739D01*
X-4715338Y-49575453D01*
X-4686766Y-49532596D01*
X-4672481Y-49475453D01*
X-4672481Y-49361167D01*
X-4686766Y-49332596D01*
X-4701052Y-49318310D01*
X-4729623Y-49304025D01*
X-4786766Y-49304025D01*
X-4815338Y-49318310D01*
X-4829623Y-49332596D01*
X-4843909Y-49361167D01*
X-4843909Y-49432596D01*
X-4829623Y-49461167D01*
X-4815338Y-49475453D01*
X-4786766Y-49489739D01*
X-4729623Y-49489739D01*
X-4701052Y-49475453D01*
X-4686766Y-49461167D01*
X-4672481Y-49432596D01*
X-4558195Y-49304025D02*
X-4558195Y-49361167D01*
X-4443909Y-49304025D02*
X-4443909Y-49361167D01*
X-4001052Y-49718310D02*
X-4015338Y-49704025D01*
X-4043909Y-49661167D01*
X-4058195Y-49632596D01*
X-4072480Y-49589739D01*
X-4086766Y-49518310D01*
X-4086766Y-49461167D01*
X-4072480Y-49389739D01*
X-4058195Y-49346882D01*
X-4043909Y-49318310D01*
X-4015338Y-49275453D01*
X-4001052Y-49261167D01*
X-3915338Y-49304025D02*
X-3729623Y-49304025D01*
X-3829623Y-49418310D01*
X-3786766Y-49418310D01*
X-3758195Y-49432596D01*
X-3743909Y-49446882D01*
X-3729623Y-49475453D01*
X-3729623Y-49546882D01*
X-3743909Y-49575453D01*
X-3758195Y-49589739D01*
X-3786766Y-49604025D01*
X-3872480Y-49604025D01*
X-3901052Y-49589739D01*
X-3915338Y-49575453D01*
X-3372480Y-49604025D02*
X-3372480Y-49304025D01*
X-3243909Y-49604025D02*
X-3243909Y-49446882D01*
X-3258195Y-49418310D01*
X-3286766Y-49404025D01*
X-3329623Y-49404025D01*
X-3358195Y-49418310D01*
X-3372480Y-49432596D01*
X-3058195Y-49604025D02*
X-3086766Y-49589739D01*
X-3101052Y-49575453D01*
X-3115338Y-49546882D01*
X-3115338Y-49461167D01*
X-3101052Y-49432596D01*
X-3086766Y-49418310D01*
X-3058195Y-49404025D01*
X-3015338Y-49404025D01*
X-2986766Y-49418310D01*
X-2972480Y-49432596D01*
X-2958195Y-49461167D01*
X-2958195Y-49546882D01*
X-2972480Y-49575453D01*
X-2986766Y-49589739D01*
X-3015338Y-49604025D01*
X-3058195Y-49604025D01*
X-2786766Y-49604025D02*
X-2815338Y-49589739D01*
X-2829623Y-49561167D01*
X-2829623Y-49304025D01*
X-2558195Y-49589739D02*
X-2586766Y-49604025D01*
X-2643909Y-49604025D01*
X-2672481Y-49589739D01*
X-2686766Y-49561167D01*
X-2686766Y-49446882D01*
X-2672481Y-49418310D01*
X-2643909Y-49404025D01*
X-2586766Y-49404025D01*
X-2558195Y-49418310D01*
X-2543909Y-49446882D01*
X-2543909Y-49475453D01*
X-2686766Y-49504025D01*
X-2429623Y-49589739D02*
X-2401052Y-49604025D01*
X-2343909Y-49604025D01*
X-2315338Y-49589739D01*
X-2301052Y-49561167D01*
X-2301052Y-49546882D01*
X-2315338Y-49518310D01*
X-2343909Y-49504025D01*
X-2386766Y-49504025D01*
X-2415338Y-49489739D01*
X-2429623Y-49461167D01*
X-2429623Y-49446882D01*
X-2415338Y-49418310D01*
X-2386766Y-49404025D01*
X-2343909Y-49404025D01*
X-2315338Y-49418310D01*
X-2201052Y-49718310D02*
X-2186766Y-49704025D01*
X-2158195Y-49661167D01*
X-2143909Y-49632596D01*
X-2129623Y-49589739D01*
X-2115338Y-49518310D01*
X-2115338Y-49461167D01*
X-2129623Y-49389739D01*
X-2143909Y-49346882D01*
X-2158195Y-49318310D01*
X-2186766Y-49275453D01*
X-2201052Y-49261167D01*
X-1658195Y-49718310D02*
X-1672480Y-49704025D01*
X-1701052Y-49661167D01*
X-1715338Y-49632596D01*
X-1729623Y-49589739D01*
X-1743909Y-49518310D01*
X-1743909Y-49461167D01*
X-1729623Y-49389739D01*
X-1715338Y-49346882D01*
X-1701052Y-49318310D01*
X-1672480Y-49275453D01*
X-1658195Y-49261167D01*
X-1543909Y-49404025D02*
X-1543909Y-49604025D01*
X-1543909Y-49432596D02*
X-1529623Y-49418310D01*
X-1501052Y-49404025D01*
X-1458195Y-49404025D01*
X-1429623Y-49418310D01*
X-1415338Y-49446882D01*
X-1415338Y-49604025D01*
X-1229623Y-49604025D02*
X-1258195Y-49589739D01*
X-1272481Y-49575453D01*
X-1286766Y-49546882D01*
X-1286766Y-49461167D01*
X-1272481Y-49432596D01*
X-1258195Y-49418310D01*
X-1229623Y-49404025D01*
X-1186766Y-49404025D01*
X-1158195Y-49418310D01*
X-1143909Y-49432596D01*
X-1129623Y-49461167D01*
X-1129623Y-49546882D01*
X-1143909Y-49575453D01*
X-1158195Y-49589739D01*
X-1186766Y-49604025D01*
X-1229623Y-49604025D01*
X-1043909Y-49404025D02*
X-929623Y-49404025D01*
X-1001052Y-49304025D02*
X-1001052Y-49561167D01*
X-986766Y-49589739D01*
X-958195Y-49604025D01*
X-929623Y-49604025D01*
X-601052Y-49404025D02*
X-601052Y-49704025D01*
X-601052Y-49418310D02*
X-572481Y-49404025D01*
X-515338Y-49404025D01*
X-486766Y-49418310D01*
X-472480Y-49432596D01*
X-458195Y-49461167D01*
X-458195Y-49546882D01*
X-472480Y-49575453D01*
X-486766Y-49589739D01*
X-515338Y-49604025D01*
X-572481Y-49604025D01*
X-601052Y-49589739D01*
X-286766Y-49604025D02*
X-315338Y-49589739D01*
X-329623Y-49561167D01*
X-329623Y-49304025D01*
X-43909Y-49604025D02*
X-43909Y-49446882D01*
X-58195Y-49418310D01*
X-86766Y-49404025D01*
X-143909Y-49404025D01*
X-172481Y-49418310D01*
X-43909Y-49589739D02*
X-72481Y-49604025D01*
X-143909Y-49604025D01*
X-172481Y-49589739D01*
X-186766Y-49561167D01*
X-186766Y-49532596D01*
X-172481Y-49504025D01*
X-143909Y-49489739D01*
X-72481Y-49489739D01*
X-43909Y-49475453D01*
X56091Y-49404025D02*
X170377Y-49404025D01*
X98948Y-49304025D02*
X98948Y-49561167D01*
X113234Y-49589739D01*
X141805Y-49604025D01*
X170377Y-49604025D01*
X384662Y-49589739D02*
X356091Y-49604025D01*
X298948Y-49604025D01*
X270377Y-49589739D01*
X256091Y-49561167D01*
X256091Y-49446882D01*
X270377Y-49418310D01*
X298948Y-49404025D01*
X356091Y-49404025D01*
X384662Y-49418310D01*
X398948Y-49446882D01*
X398948Y-49475453D01*
X256091Y-49504025D01*
X656091Y-49604025D02*
X656091Y-49304025D01*
X656091Y-49589739D02*
X627520Y-49604025D01*
X570377Y-49604025D01*
X541805Y-49589739D01*
X527520Y-49575453D01*
X513234Y-49546882D01*
X513234Y-49461167D01*
X527520Y-49432596D01*
X541805Y-49418310D01*
X570377Y-49404025D01*
X627520Y-49404025D01*
X656091Y-49418310D01*
X770377Y-49718310D02*
X784662Y-49704025D01*
X813234Y-49661167D01*
X827519Y-49632596D01*
X841805Y-49589739D01*
X856091Y-49518310D01*
X856091Y-49461167D01*
X841805Y-49389739D01*
X827519Y-49346882D01*
X813234Y-49318310D01*
X784662Y-49275453D01*
X770377Y-49261167D01*
M02*
