G04 #@! TF.GenerationSoftware,KiCad,Pcbnew,(5.1.4)-1*
G04 #@! TF.CreationDate,2023-09-09T05:29:41-04:00*
G04 #@! TF.ProjectId,ThumbsUp,5468756d-6273-4557-902e-6b696361645f,rev?*
G04 #@! TF.SameCoordinates,Original*
G04 #@! TF.FileFunction,Legend,Bot*
G04 #@! TF.FilePolarity,Positive*
%FSLAX46Y46*%
G04 Gerber Fmt 4.6, Leading zero omitted, Abs format (unit mm)*
G04 Created by KiCad (PCBNEW (5.1.4)-1) date 2023-09-09 05:29:41*
%MOMM*%
%LPD*%
G04 APERTURE LIST*
%ADD10C,0.150000*%
%ADD11C,0.120000*%
G04 APERTURE END LIST*
D10*
X-40800704Y-467845026D02*
X-40313259Y-467528379D01*
X-40270885Y-468059087D02*
X-39896278Y-467131903D01*
X-40249491Y-466989196D01*
X-40355633Y-466997671D01*
X-40417623Y-467023984D01*
X-40497451Y-467094449D01*
X-40550966Y-467226904D01*
X-40542491Y-467333045D01*
X-40516178Y-467395035D01*
X-40445713Y-467474864D01*
X-40092500Y-467617571D01*
X-41198068Y-467684481D02*
X-40823462Y-466757297D01*
X-41768484Y-466426842D02*
X-41662342Y-466418367D01*
X-41529888Y-466471882D01*
X-41415271Y-466569549D01*
X-41362645Y-466693529D01*
X-41354170Y-466799671D01*
X-41381372Y-466994116D01*
X-41434887Y-467126570D01*
X-41550392Y-467285338D01*
X-41630221Y-467355803D01*
X-41754201Y-467408430D01*
X-41904494Y-467399066D01*
X-41992797Y-467363389D01*
X-42107414Y-467265722D01*
X-42133727Y-467203732D01*
X-42008858Y-466894671D01*
X-41832252Y-466966025D01*
X-42566768Y-467131490D02*
X-42192162Y-466204306D01*
X-42370546Y-466645822D02*
X-42900365Y-466431761D01*
X-43096588Y-466917429D02*
X-42721981Y-465990245D01*
X-43031042Y-465865376D02*
X-43560862Y-465651315D01*
X-43670559Y-466685530D02*
X-43295952Y-465758346D01*
X-45063794Y-465557679D02*
X-44754733Y-465682548D01*
X-44950955Y-466168216D02*
X-44576349Y-465241032D01*
X-45017865Y-465062648D01*
X-46275504Y-465633064D02*
X-45788058Y-465316416D01*
X-45745684Y-465847124D02*
X-45371078Y-464919941D01*
X-45724291Y-464777233D01*
X-45830432Y-464785708D01*
X-45892422Y-464812021D01*
X-45972251Y-464882486D01*
X-46025766Y-465014941D01*
X-46017291Y-465121083D01*
X-45990978Y-465183073D01*
X-45920513Y-465262901D01*
X-45567300Y-465405608D01*
X-46474868Y-464473980D02*
X-46651475Y-464402627D01*
X-46757616Y-464411102D01*
X-46881596Y-464463728D01*
X-46997102Y-464622496D01*
X-47121970Y-464931557D01*
X-47149172Y-465126002D01*
X-47096546Y-465249982D01*
X-47026081Y-465329811D01*
X-46849475Y-465401164D01*
X-46743333Y-465392689D01*
X-46619353Y-465340063D01*
X-46503848Y-465181295D01*
X-46378979Y-464872234D01*
X-46351777Y-464677789D01*
X-46404403Y-464553809D01*
X-46474868Y-464473980D01*
X-47644204Y-465080073D02*
X-47269597Y-464152889D01*
X-47846235Y-464690294D01*
X-47887720Y-463903151D01*
X-48262326Y-464830335D01*
X-49523107Y-463756000D02*
X-49673400Y-463746636D01*
X-49735390Y-463772949D01*
X-49815219Y-463843414D01*
X-49868734Y-463975869D01*
X-49860259Y-464082011D01*
X-49833946Y-464144001D01*
X-49763481Y-464223829D01*
X-49410268Y-464366536D01*
X-49035662Y-463439353D01*
X-49344723Y-463314484D01*
X-49450865Y-463322959D01*
X-49512855Y-463349272D01*
X-49592683Y-463419737D01*
X-49628360Y-463508040D01*
X-49619885Y-463614181D01*
X-49593572Y-463676171D01*
X-49523107Y-463756000D01*
X-49214046Y-463880869D01*
X-50141230Y-463506262D02*
X-50450291Y-463381393D01*
X-50778968Y-463813546D02*
X-50337452Y-463991930D01*
X-49962846Y-463064746D01*
X-50404362Y-462886362D01*
X-51617849Y-463474616D02*
X-51176333Y-463653000D01*
X-50801726Y-462725816D01*
X-51728910Y-462351210D02*
X-51905516Y-462279856D01*
X-52011658Y-462288331D01*
X-52135638Y-462340957D01*
X-52251143Y-462499725D01*
X-52376012Y-462808787D01*
X-52403214Y-463003231D01*
X-52350588Y-463127211D01*
X-52280123Y-463207040D01*
X-52103517Y-463278394D01*
X-51997375Y-463269919D01*
X-51873395Y-463217292D01*
X-51757890Y-463058524D01*
X-51633021Y-462749463D01*
X-51605819Y-462555018D01*
X-51658445Y-462431038D01*
X-51728910Y-462351210D01*
X-52435336Y-462065795D02*
X-53030700Y-462903787D01*
X-52939731Y-462170159D01*
X-53383913Y-462761080D01*
X-53230065Y-461744704D01*
D11*
X-55397941Y-446026043D02*
X-55053712Y-444741361D01*
X-56682622Y-445681813D02*
X-55397941Y-446026043D01*
X-57909348Y-445353113D02*
X-57220889Y-442783750D01*
X-57220889Y-442783750D02*
X-64639200Y-440796020D01*
X-57909348Y-445353113D02*
X-65327658Y-443365383D01*
X-65327658Y-443365383D02*
X-64639200Y-440796020D01*
X-67545511Y-453549102D02*
X-68875511Y-453549102D01*
X-67545511Y-454879102D02*
X-67545511Y-453549102D01*
X-67545511Y-456149102D02*
X-70205511Y-456149102D01*
X-70205511Y-456149102D02*
X-70205511Y-463829102D01*
X-67545511Y-456149102D02*
X-67545511Y-463829102D01*
X-67545511Y-463829102D02*
X-70205511Y-463829102D01*
X-28823013Y-457033573D02*
X-30153013Y-457033573D01*
X-28823013Y-458363573D02*
X-28823013Y-457033573D01*
X-28823013Y-459633573D02*
X-31483013Y-459633573D01*
X-31483013Y-459633573D02*
X-31483013Y-467313573D01*
X-28823013Y-459633573D02*
X-28823013Y-467313573D01*
X-28823013Y-467313573D02*
X-31483013Y-467313573D01*
X-33793868Y-467381045D02*
X-33793868Y-466051045D01*
X-35123868Y-467381045D02*
X-33793868Y-467381045D01*
X-36393868Y-467381045D02*
X-36393868Y-464721045D01*
X-36393868Y-464721045D02*
X-44073868Y-464721045D01*
X-36393868Y-467381045D02*
X-44073868Y-467381045D01*
X-44073868Y-467381045D02*
X-44073868Y-464721045D01*
D10*
X-54407225Y-444076505D02*
X-53717278Y-444261376D01*
X-53566964Y-444252354D01*
X-53450321Y-444185010D01*
X-53367351Y-444059346D01*
X-53342701Y-443967353D01*
X-54505822Y-444444477D02*
X-54678368Y-445088428D01*
X-53601520Y-444933278D01*
X-54900213Y-445916364D02*
X-54776966Y-445456399D01*
X-54304677Y-445533650D01*
X-54362998Y-445567322D01*
X-54433644Y-445646990D01*
X-54495267Y-445876972D01*
X-54473920Y-445981290D01*
X-54440249Y-446039611D01*
X-54360580Y-446110257D01*
X-54130598Y-446171881D01*
X-54026280Y-446150534D01*
X-53967959Y-446116862D01*
X-53897313Y-446037194D01*
X-53835690Y-445807211D01*
X-53857037Y-445702894D01*
X-53890709Y-445644572D01*
X-68065987Y-452001482D02*
X-68065987Y-452715768D01*
X-68018368Y-452858625D01*
X-67923130Y-452953863D01*
X-67780272Y-453001482D01*
X-67685034Y-453001482D01*
X-68446939Y-452001482D02*
X-69113606Y-452001482D01*
X-68685034Y-453001482D01*
X-69923130Y-452334816D02*
X-69923130Y-453001482D01*
X-69685034Y-451953863D02*
X-69446939Y-452668149D01*
X-70065987Y-452668149D01*
X-29343489Y-455485953D02*
X-29343489Y-456200239D01*
X-29295870Y-456343096D01*
X-29200632Y-456438334D01*
X-29057774Y-456485953D01*
X-28962536Y-456485953D01*
X-29724441Y-455485953D02*
X-30391108Y-455485953D01*
X-29962536Y-456485953D01*
X-31200632Y-455485953D02*
X-31010155Y-455485953D01*
X-30914917Y-455533573D01*
X-30867298Y-455581192D01*
X-30772060Y-455724049D01*
X-30724441Y-455914525D01*
X-30724441Y-456295477D01*
X-30772060Y-456390715D01*
X-30819679Y-456438334D01*
X-30914917Y-456485953D01*
X-31105393Y-456485953D01*
X-31200632Y-456438334D01*
X-31248251Y-456390715D01*
X-31295870Y-456295477D01*
X-31295870Y-456057382D01*
X-31248251Y-455962144D01*
X-31200632Y-455914525D01*
X-31105393Y-455866906D01*
X-30914917Y-455866906D01*
X-30819679Y-455914525D01*
X-30772060Y-455962144D01*
X-30724441Y-456057382D01*
X-32246248Y-466860568D02*
X-32960534Y-466860568D01*
X-33103391Y-466908187D01*
X-33198629Y-467003425D01*
X-33246248Y-467146283D01*
X-33246248Y-467241521D01*
X-32246248Y-465908187D02*
X-32246248Y-466384378D01*
X-32722439Y-466431997D01*
X-32674820Y-466384378D01*
X-32627201Y-466289140D01*
X-32627201Y-466051045D01*
X-32674820Y-465955806D01*
X-32722439Y-465908187D01*
X-32817677Y-465860568D01*
X-33055772Y-465860568D01*
X-33151010Y-465908187D01*
X-33198629Y-465955806D01*
X-33246248Y-466051045D01*
X-33246248Y-466289140D01*
X-33198629Y-466384378D01*
X-33151010Y-466431997D01*
X-32246248Y-465527235D02*
X-32246248Y-464860568D01*
X-33246248Y-465289140D01*
M02*
