M48
; DRILL file {KiCad (5.1.4)-1} date 9/9/2023 5:29:42 AM
; FORMAT={-:-/ absolute / metric / decimal}
; #@! TF.CreationDate,2023-09-09T05:29:42-04:00
; #@! TF.GenerationSoftware,Kicad,Pcbnew,(5.1.4)-1
; #@! TF.FileFunction,NonPlated,1,2,NPTH
FMAT,2
METRIC
T1C1.750
T2C2.950
T3C3.000
T4C5.050
%
G90
G05
T1
X-82.43Y-463.11
X-63.39Y-456.372
X-53.23Y-456.372
X-44.31Y-456.372
X-34.15Y-456.372
X-72.27Y-463.11
T2
X-63.01Y-460.772
X-55.71Y-462.122
X-43.93Y-460.772
X-36.63Y-462.122
X-82.05Y-467.51
X-74.75Y-468.86
T3
X-43.04Y-453.832
X-36.69Y-451.292
X-81.16Y-460.57
X-74.81Y-458.03
X-62.12Y-453.832
X-55.77Y-451.292
T4
X-77.35Y-463.11
X-58.31Y-456.372
X-39.23Y-456.372
T0
M30
