G04 #@! TF.GenerationSoftware,KiCad,Pcbnew,(5.1.4)-1*
G04 #@! TF.CreationDate,2023-09-09T05:29:41-04:00*
G04 #@! TF.ProjectId,ThumbsUp,5468756d-6273-4557-902e-6b696361645f,rev?*
G04 #@! TF.SameCoordinates,Original*
G04 #@! TF.FileFunction,Copper,L1,Top*
G04 #@! TF.FilePolarity,Positive*
%FSLAX46Y46*%
G04 Gerber Fmt 4.6, Leading zero omitted, Abs format (unit mm)*
G04 Created by KiCad (PCBNEW (5.1.4)-1) date 2023-09-09 05:29:41*
%MOMM*%
%LPD*%
G04 APERTURE LIST*
%ADD10C,1.700000*%
%ADD11C,1.700000*%
%ADD12C,0.100000*%
%ADD13O,1.700000X1.700000*%
%ADD14R,1.700000X1.700000*%
%ADD15C,3.000000*%
%ADD16C,0.800000*%
%ADD17C,0.200000*%
G04 APERTURE END LIST*
D10*
X-63698748Y-442424931D03*
D11*
X-63698748Y-442424931D02*
X-63698748Y-442424931D01*
D10*
X-61245296Y-443082331D03*
D11*
X-61245296Y-443082331D02*
X-61245296Y-443082331D01*
D10*
X-58791845Y-443739732D03*
D11*
X-58791845Y-443739732D02*
X-58791845Y-443739732D01*
D10*
X-56338393Y-444397132D03*
D12*
G36*
X-55737352Y-445438165D02*
G01*
X-57379426Y-444998173D01*
X-56939434Y-443356099D01*
X-55297360Y-443796091D01*
X-55737352Y-445438165D01*
X-55737352Y-445438165D01*
G37*
D13*
X-68875511Y-462499102D03*
X-68875511Y-459959102D03*
X-68875511Y-457419102D03*
D14*
X-68875511Y-454879102D03*
D13*
X-30153013Y-465983573D03*
X-30153013Y-463443573D03*
X-30153013Y-460903573D03*
D14*
X-30153013Y-458363573D03*
D15*
X-43930455Y-460771918D03*
X-36630455Y-462121918D03*
X-82050000Y-467510000D03*
X-74750000Y-468860000D03*
X-63010000Y-460771918D03*
X-55710000Y-462121918D03*
D13*
X-42743868Y-466051045D03*
X-40203868Y-466051045D03*
X-37663868Y-466051045D03*
D14*
X-35123868Y-466051045D03*
D16*
X-46930000Y-458620000D03*
X-65730000Y-458120000D03*
X-41620000Y-464480000D03*
X-84340000Y-464430000D03*
D17*
X-46930000Y-461520000D02*
X-46930000Y-459185685D01*
X-40203868Y-466051045D02*
X-40203868Y-463346132D01*
X-45520000Y-462930000D02*
X-46930000Y-461520000D01*
X-40620000Y-462930000D02*
X-45520000Y-462930000D01*
X-46930000Y-459185685D02*
X-46930000Y-458620000D01*
X-40203868Y-463346132D02*
X-40620000Y-462930000D01*
X-60530000Y-459820000D02*
X-62230000Y-458120000D01*
X-65164315Y-458120000D02*
X-65730000Y-458120000D01*
X-62230000Y-458120000D02*
X-65164315Y-458120000D01*
X-37663868Y-463786132D02*
X-43530000Y-457920000D01*
X-55730000Y-459820000D02*
X-60530000Y-459820000D01*
X-53830000Y-457920000D02*
X-55730000Y-459820000D01*
X-37663868Y-466051045D02*
X-37663868Y-463786132D01*
X-43530000Y-457920000D02*
X-53830000Y-457920000D01*
X-74050000Y-466700000D02*
X-79300000Y-466700000D01*
X-41620000Y-464480000D02*
X-71830000Y-464480000D01*
X-79300000Y-466700000D02*
X-81570000Y-464430000D01*
X-81570000Y-464430000D02*
X-84340000Y-464430000D01*
X-71830000Y-464480000D02*
X-74050000Y-466700000D01*
M02*
