G04 #@! TF.GenerationSoftware,KiCad,Pcbnew,(5.1.4)-1*
G04 #@! TF.CreationDate,2023-09-09T05:29:41-04:00*
G04 #@! TF.ProjectId,ThumbsUp,5468756d-6273-4557-902e-6b696361645f,rev?*
G04 #@! TF.SameCoordinates,Original*
G04 #@! TF.FileFunction,Copper,L2,Bot*
G04 #@! TF.FilePolarity,Positive*
%FSLAX46Y46*%
G04 Gerber Fmt 4.6, Leading zero omitted, Abs format (unit mm)*
G04 Created by KiCad (PCBNEW (5.1.4)-1) date 2023-09-09 05:29:41*
%MOMM*%
%LPD*%
G04 APERTURE LIST*
%ADD10C,1.700000*%
%ADD11C,1.700000*%
%ADD12C,0.100000*%
%ADD13O,1.700000X1.700000*%
%ADD14R,1.700000X1.700000*%
%ADD15R,1.700000X2.500000*%
%ADD16R,2.000000X2.000000*%
%ADD17C,3.000000*%
%ADD18R,2.550000X2.500000*%
%ADD19C,0.800000*%
%ADD20C,0.200000*%
G04 APERTURE END LIST*
D10*
X-63698748Y-442424931D03*
D11*
X-63698748Y-442424931D02*
X-63698748Y-442424931D01*
D10*
X-61245296Y-443082331D03*
D11*
X-61245296Y-443082331D02*
X-61245296Y-443082331D01*
D10*
X-58791845Y-443739732D03*
D11*
X-58791845Y-443739732D02*
X-58791845Y-443739732D01*
D10*
X-56338393Y-444397132D03*
D12*
G36*
X-55737352Y-445438165D02*
G01*
X-57379426Y-444998173D01*
X-56939434Y-443356099D01*
X-55297360Y-443796091D01*
X-55737352Y-445438165D01*
X-55737352Y-445438165D01*
G37*
D13*
X-68875511Y-462499102D03*
X-68875511Y-459959102D03*
X-68875511Y-457419102D03*
D14*
X-68875511Y-454879102D03*
D13*
X-30153013Y-465983573D03*
X-30153013Y-463443573D03*
X-30153013Y-460903573D03*
D14*
X-30153013Y-458363573D03*
D15*
X-33410455Y-462081918D03*
D16*
X-47430455Y-460771918D03*
D17*
X-43930455Y-460771918D03*
X-36630455Y-462121918D03*
D18*
X-33388455Y-451291918D03*
X-46315455Y-453831918D03*
X-70950000Y-468860000D03*
D16*
X-85550000Y-467510000D03*
D17*
X-82050000Y-467510000D03*
X-74750000Y-468860000D03*
D18*
X-71508000Y-458030000D03*
X-84435000Y-460570000D03*
X-51910000Y-462121918D03*
D16*
X-66510000Y-460771918D03*
D17*
X-63010000Y-460771918D03*
X-55710000Y-462121918D03*
D18*
X-52468000Y-451291918D03*
X-65395000Y-453831918D03*
D13*
X-42743868Y-466051045D03*
X-40203868Y-466051045D03*
X-37663868Y-466051045D03*
D14*
X-35123868Y-466051045D03*
D19*
X-46930000Y-458620000D03*
X-65730000Y-458120000D03*
X-41620000Y-464480000D03*
X-84340000Y-464430000D03*
D20*
X-46930000Y-458120000D02*
X-46930000Y-458620000D01*
X-46930000Y-454626463D02*
X-46930000Y-458120000D01*
X-46135455Y-453831918D02*
X-46930000Y-454626463D01*
X-47250455Y-460771918D02*
X-46930000Y-460451463D01*
X-46930000Y-460451463D02*
X-46930000Y-458620000D01*
X-65215000Y-453831918D02*
X-65730000Y-454346918D01*
X-65730000Y-454346918D02*
X-65730000Y-458120000D01*
X-65730000Y-460171918D02*
X-65730000Y-458620000D01*
X-65730000Y-458620000D02*
X-65730000Y-458120000D01*
X-66330000Y-460771918D02*
X-65730000Y-460171918D01*
X-35123868Y-466051045D02*
X-35123868Y-465001045D01*
X-35644913Y-464480000D02*
X-41620000Y-464480000D01*
X-35123868Y-465001045D02*
X-35644913Y-464480000D01*
X-84340000Y-460665000D02*
X-84435000Y-460570000D01*
X-84340000Y-464430000D02*
X-85060000Y-465150000D01*
X-85060000Y-465150000D02*
X-85060000Y-467020000D01*
X-85060000Y-467020000D02*
X-85550000Y-467510000D01*
X-84340000Y-464430000D02*
X-84340000Y-460665000D01*
X-70480000Y-459058000D02*
X-71508000Y-458030000D01*
X-70480000Y-468390000D02*
X-70480000Y-459058000D01*
X-66666045Y-466051045D02*
X-69475000Y-468860000D01*
X-49250873Y-466051045D02*
X-66666045Y-466051045D01*
X-69475000Y-468860000D02*
X-70950000Y-468860000D01*
X-70950000Y-468860000D02*
X-70480000Y-468390000D01*
X-34777373Y-460020000D02*
X-32675455Y-462121918D01*
X-35830000Y-453888463D02*
X-35830000Y-460020000D01*
X-33233455Y-451291918D02*
X-35830000Y-453888463D01*
X-38130000Y-460020000D02*
X-35830000Y-460020000D01*
X-33208455Y-451291918D02*
X-33233455Y-451291918D01*
X-32675455Y-462121918D02*
X-32650455Y-462121918D01*
X-51730000Y-463571918D02*
X-51730000Y-462121918D01*
X-51730000Y-462121918D02*
X-51130000Y-461521918D01*
X-42743868Y-466051045D02*
X-42730000Y-466037177D01*
X-42743868Y-466051045D02*
X-49250873Y-466051045D01*
X-35830000Y-460020000D02*
X-34777373Y-460020000D01*
X-49250873Y-466051045D02*
X-51730000Y-463571918D01*
X-51130000Y-461521918D02*
X-51130000Y-452449918D01*
X-51130000Y-452449918D02*
X-52288000Y-451291918D01*
X-42730000Y-466037177D02*
X-42730000Y-464620000D01*
X-42730000Y-464620000D02*
X-38130000Y-460020000D01*
M02*
