M48
; DRILL file {KiCad (5.1.4)-1} date 9/9/2023 5:29:42 AM
; FORMAT={-:-/ absolute / metric / decimal}
; #@! TF.CreationDate,2023-09-09T05:29:42-04:00
; #@! TF.GenerationSoftware,Kicad,Pcbnew,(5.1.4)-1
; #@! TF.FileFunction,Plated,1,2,PTH
FMAT,2
METRIC
T1C0.400
T2C1.000
%
G90
G05
T1
X-84.34Y-464.43
X-65.73Y-458.12
X-46.93Y-458.62
X-41.62Y-464.48
T2
X-63.699Y-442.425
X-61.245Y-443.082
X-58.792Y-443.74
X-56.338Y-444.397
X-68.876Y-454.879
X-68.876Y-457.419
X-68.876Y-459.959
X-68.876Y-462.499
X-30.153Y-458.364
X-30.153Y-460.904
X-30.153Y-463.444
X-30.153Y-465.984
X-42.744Y-466.051
X-40.204Y-466.051
X-37.664Y-466.051
X-35.124Y-466.051
T0
M30
