G04 #@! TF.GenerationSoftware,KiCad,Pcbnew,(5.1.4)-1*
G04 #@! TF.CreationDate,2023-09-09T05:31:09-04:00*
G04 #@! TF.ProjectId,ThumbsUp,5468756d-6273-4557-902e-6b696361645f,rev?*
G04 #@! TF.SameCoordinates,Original*
G04 #@! TF.FileFunction,Soldermask,Top*
G04 #@! TF.FilePolarity,Negative*
%FSLAX46Y46*%
G04 Gerber Fmt 4.6, Leading zero omitted, Abs format (unit mm)*
G04 Created by KiCad (PCBNEW (5.1.4)-1) date 2023-09-09 05:31:09*
%MOMM*%
%LPD*%
G04 APERTURE LIST*
%ADD10C,0.100000*%
G04 APERTURE END LIST*
D10*
G36*
X99571670Y-358075574D02*
G01*
X97769670Y-358075574D01*
X97769670Y-356273574D01*
X99571670Y-356273574D01*
X99571670Y-358075574D01*
X99571670Y-358075574D01*
G37*
G36*
X101321113Y-356280093D02*
G01*
X101387297Y-356286611D01*
X101557136Y-356338131D01*
X101713661Y-356421796D01*
X101733047Y-356437706D01*
X101850856Y-356534388D01*
X101934118Y-356635845D01*
X101963448Y-356671583D01*
X102047113Y-356828108D01*
X102098633Y-356997947D01*
X102116029Y-357174574D01*
X102098633Y-357351201D01*
X102047113Y-357521040D01*
X101963448Y-357677565D01*
X101934118Y-357713303D01*
X101850856Y-357814760D01*
X101749399Y-357898022D01*
X101713661Y-357927352D01*
X101557136Y-358011017D01*
X101387297Y-358062537D01*
X101321113Y-358069055D01*
X101254930Y-358075574D01*
X101166410Y-358075574D01*
X101100227Y-358069055D01*
X101034043Y-358062537D01*
X100864204Y-358011017D01*
X100707679Y-357927352D01*
X100671941Y-357898022D01*
X100570484Y-357814760D01*
X100487222Y-357713303D01*
X100457892Y-357677565D01*
X100374227Y-357521040D01*
X100322707Y-357351201D01*
X100305311Y-357174574D01*
X100322707Y-356997947D01*
X100374227Y-356828108D01*
X100457892Y-356671583D01*
X100487222Y-356635845D01*
X100570484Y-356534388D01*
X100688293Y-356437706D01*
X100707679Y-356421796D01*
X100864204Y-356338131D01*
X101034043Y-356286611D01*
X101100227Y-356280093D01*
X101166410Y-356273574D01*
X101254930Y-356273574D01*
X101321113Y-356280093D01*
X101321113Y-356280093D01*
G37*
G36*
X106401113Y-356280093D02*
G01*
X106467297Y-356286611D01*
X106637136Y-356338131D01*
X106793661Y-356421796D01*
X106813047Y-356437706D01*
X106930856Y-356534388D01*
X107014118Y-356635845D01*
X107043448Y-356671583D01*
X107127113Y-356828108D01*
X107178633Y-356997947D01*
X107196029Y-357174574D01*
X107178633Y-357351201D01*
X107127113Y-357521040D01*
X107043448Y-357677565D01*
X107014118Y-357713303D01*
X106930856Y-357814760D01*
X106829399Y-357898022D01*
X106793661Y-357927352D01*
X106637136Y-358011017D01*
X106467297Y-358062537D01*
X106401113Y-358069055D01*
X106334930Y-358075574D01*
X106246410Y-358075574D01*
X106180227Y-358069055D01*
X106114043Y-358062537D01*
X105944204Y-358011017D01*
X105787679Y-357927352D01*
X105751941Y-357898022D01*
X105650484Y-357814760D01*
X105567222Y-357713303D01*
X105537892Y-357677565D01*
X105454227Y-357521040D01*
X105402707Y-357351201D01*
X105385311Y-357174574D01*
X105402707Y-356997947D01*
X105454227Y-356828108D01*
X105537892Y-356671583D01*
X105567222Y-356635845D01*
X105650484Y-356534388D01*
X105768293Y-356437706D01*
X105787679Y-356421796D01*
X105944204Y-356338131D01*
X106114043Y-356286611D01*
X106180227Y-356280093D01*
X106246410Y-356273574D01*
X106334930Y-356273574D01*
X106401113Y-356280093D01*
X106401113Y-356280093D01*
G37*
G36*
X103861113Y-356280093D02*
G01*
X103927297Y-356286611D01*
X104097136Y-356338131D01*
X104253661Y-356421796D01*
X104273047Y-356437706D01*
X104390856Y-356534388D01*
X104474118Y-356635845D01*
X104503448Y-356671583D01*
X104587113Y-356828108D01*
X104638633Y-356997947D01*
X104656029Y-357174574D01*
X104638633Y-357351201D01*
X104587113Y-357521040D01*
X104503448Y-357677565D01*
X104474118Y-357713303D01*
X104390856Y-357814760D01*
X104289399Y-357898022D01*
X104253661Y-357927352D01*
X104097136Y-358011017D01*
X103927297Y-358062537D01*
X103861113Y-358069055D01*
X103794930Y-358075574D01*
X103706410Y-358075574D01*
X103640227Y-358069055D01*
X103574043Y-358062537D01*
X103404204Y-358011017D01*
X103247679Y-357927352D01*
X103211941Y-357898022D01*
X103110484Y-357814760D01*
X103027222Y-357713303D01*
X102997892Y-357677565D01*
X102914227Y-357521040D01*
X102862707Y-357351201D01*
X102845311Y-357174574D01*
X102862707Y-356997947D01*
X102914227Y-356828108D01*
X102997892Y-356671583D01*
X103027222Y-356635845D01*
X103110484Y-356534388D01*
X103228293Y-356437706D01*
X103247679Y-356421796D01*
X103404204Y-356338131D01*
X103574043Y-356286611D01*
X103640227Y-356280093D01*
X103706410Y-356273574D01*
X103794930Y-356273574D01*
X103861113Y-356280093D01*
X103861113Y-356280093D01*
G37*
G36*
X93573822Y-356183410D02*
G01*
X93640007Y-356189929D01*
X93809846Y-356241449D01*
X93966371Y-356325114D01*
X93982232Y-356338131D01*
X94103566Y-356437706D01*
X94186828Y-356539163D01*
X94216158Y-356574901D01*
X94299823Y-356731426D01*
X94351343Y-356901265D01*
X94368739Y-357077892D01*
X94351343Y-357254519D01*
X94299823Y-357424358D01*
X94216158Y-357580883D01*
X94186828Y-357616621D01*
X94103566Y-357718078D01*
X94002109Y-357801340D01*
X93966371Y-357830670D01*
X93809846Y-357914335D01*
X93640007Y-357965855D01*
X93573823Y-357972373D01*
X93507640Y-357978892D01*
X93419120Y-357978892D01*
X93352937Y-357972373D01*
X93286753Y-357965855D01*
X93116914Y-357914335D01*
X92960389Y-357830670D01*
X92924651Y-357801340D01*
X92823194Y-357718078D01*
X92739932Y-357616621D01*
X92710602Y-357580883D01*
X92626937Y-357424358D01*
X92575417Y-357254519D01*
X92558021Y-357077892D01*
X92575417Y-356901265D01*
X92626937Y-356731426D01*
X92710602Y-356574901D01*
X92739932Y-356539163D01*
X92823194Y-356437706D01*
X92944528Y-356338131D01*
X92960389Y-356325114D01*
X93116914Y-356241449D01*
X93286753Y-356189929D01*
X93352938Y-356183410D01*
X93419120Y-356176892D01*
X93507640Y-356176892D01*
X93573822Y-356183410D01*
X93573822Y-356183410D01*
G37*
G36*
X93573822Y-353643410D02*
G01*
X93640007Y-353649929D01*
X93809846Y-353701449D01*
X93966371Y-353785114D01*
X94002109Y-353814444D01*
X94103566Y-353897706D01*
X94155884Y-353961457D01*
X94216158Y-354034901D01*
X94299823Y-354191426D01*
X94351343Y-354361265D01*
X94368739Y-354537892D01*
X94351343Y-354714519D01*
X94299823Y-354884358D01*
X94216158Y-355040883D01*
X94186828Y-355076621D01*
X94103566Y-355178078D01*
X94002109Y-355261340D01*
X93966371Y-355290670D01*
X93809846Y-355374335D01*
X93640007Y-355425855D01*
X93573822Y-355432374D01*
X93507640Y-355438892D01*
X93419120Y-355438892D01*
X93352938Y-355432374D01*
X93286753Y-355425855D01*
X93116914Y-355374335D01*
X92960389Y-355290670D01*
X92924651Y-355261340D01*
X92823194Y-355178078D01*
X92739932Y-355076621D01*
X92710602Y-355040883D01*
X92626937Y-354884358D01*
X92575417Y-354714519D01*
X92558021Y-354537892D01*
X92575417Y-354361265D01*
X92626937Y-354191426D01*
X92710602Y-354034901D01*
X92770876Y-353961457D01*
X92823194Y-353897706D01*
X92924651Y-353814444D01*
X92960389Y-353785114D01*
X93116914Y-353701449D01*
X93286753Y-353649929D01*
X93352938Y-353643410D01*
X93419120Y-353636892D01*
X93507640Y-353636892D01*
X93573822Y-353643410D01*
X93573822Y-353643410D01*
G37*
G36*
X132292302Y-352684232D02*
G01*
X132358486Y-352690750D01*
X132528325Y-352742270D01*
X132684850Y-352825935D01*
X132695084Y-352834334D01*
X132822045Y-352938527D01*
X132905307Y-353039984D01*
X132934637Y-353075722D01*
X133018302Y-353232247D01*
X133069822Y-353402086D01*
X133087218Y-353578713D01*
X133069822Y-353755340D01*
X133018302Y-353925179D01*
X132934637Y-354081704D01*
X132905307Y-354117442D01*
X132822045Y-354218899D01*
X132720588Y-354302161D01*
X132684850Y-354331491D01*
X132528325Y-354415156D01*
X132358486Y-354466676D01*
X132292302Y-354473194D01*
X132226119Y-354479713D01*
X132137599Y-354479713D01*
X132071416Y-354473194D01*
X132005232Y-354466676D01*
X131835393Y-354415156D01*
X131678868Y-354331491D01*
X131643130Y-354302161D01*
X131541673Y-354218899D01*
X131458411Y-354117442D01*
X131429081Y-354081704D01*
X131345416Y-353925179D01*
X131293896Y-353755340D01*
X131276500Y-353578713D01*
X131293896Y-353402086D01*
X131345416Y-353232247D01*
X131429081Y-353075722D01*
X131458411Y-353039984D01*
X131541673Y-352938527D01*
X131668634Y-352834334D01*
X131678868Y-352825935D01*
X131835393Y-352742270D01*
X132005232Y-352690750D01*
X132071416Y-352684232D01*
X132137599Y-352677713D01*
X132226119Y-352677713D01*
X132292302Y-352684232D01*
X132292302Y-352684232D01*
G37*
G36*
X119362585Y-350948863D02*
G01*
X119512410Y-350978665D01*
X119794674Y-351095582D01*
X120048705Y-351265320D01*
X120264741Y-351481356D01*
X120434479Y-351735387D01*
X120551396Y-352017651D01*
X120551396Y-352017652D01*
X120611000Y-352317300D01*
X120611000Y-352622822D01*
X120607965Y-352638078D01*
X120551396Y-352922471D01*
X120434479Y-353204735D01*
X120264741Y-353458766D01*
X120048705Y-353674802D01*
X119794674Y-353844540D01*
X119512410Y-353961457D01*
X119362585Y-353991259D01*
X119212761Y-354021061D01*
X118907239Y-354021061D01*
X118757415Y-353991259D01*
X118607590Y-353961457D01*
X118325326Y-353844540D01*
X118071295Y-353674802D01*
X117855259Y-353458766D01*
X117685521Y-353204735D01*
X117568604Y-352922471D01*
X117512035Y-352638078D01*
X117509000Y-352622822D01*
X117509000Y-352317300D01*
X117568604Y-352017652D01*
X117568604Y-352017651D01*
X117685521Y-351735387D01*
X117855259Y-351481356D01*
X118071295Y-351265320D01*
X118325326Y-351095582D01*
X118607590Y-350978665D01*
X118757415Y-350948863D01*
X118907239Y-350919061D01*
X119212761Y-350919061D01*
X119362585Y-350948863D01*
X119362585Y-350948863D01*
G37*
G36*
X100298631Y-350948863D02*
G01*
X100448456Y-350978665D01*
X100730720Y-351095582D01*
X100984751Y-351265320D01*
X101200787Y-351481356D01*
X101370525Y-351735387D01*
X101487442Y-352017651D01*
X101487442Y-352017652D01*
X101547046Y-352317300D01*
X101547046Y-352622822D01*
X101544011Y-352638078D01*
X101487442Y-352922471D01*
X101370525Y-353204735D01*
X101200787Y-353458766D01*
X100984751Y-353674802D01*
X100730720Y-353844540D01*
X100448456Y-353961457D01*
X100298631Y-353991259D01*
X100148807Y-354021061D01*
X99843285Y-354021061D01*
X99693461Y-353991259D01*
X99543636Y-353961457D01*
X99261372Y-353844540D01*
X99007341Y-353674802D01*
X98791305Y-353458766D01*
X98621567Y-353204735D01*
X98504650Y-352922471D01*
X98448081Y-352638078D01*
X98445046Y-352622822D01*
X98445046Y-352317300D01*
X98504650Y-352017652D01*
X98504650Y-352017651D01*
X98621567Y-351735387D01*
X98791305Y-351481356D01*
X99007341Y-351265320D01*
X99261372Y-351095582D01*
X99543636Y-350978665D01*
X99693461Y-350948863D01*
X99843285Y-350919061D01*
X100148807Y-350919061D01*
X100298631Y-350948863D01*
X100298631Y-350948863D01*
G37*
G36*
X93573823Y-351103411D02*
G01*
X93640007Y-351109929D01*
X93809846Y-351161449D01*
X93966371Y-351245114D01*
X93990992Y-351265320D01*
X94103566Y-351357706D01*
X94155884Y-351421457D01*
X94216158Y-351494901D01*
X94299823Y-351651426D01*
X94351343Y-351821265D01*
X94368739Y-351997892D01*
X94351343Y-352174519D01*
X94299823Y-352344358D01*
X94216158Y-352500883D01*
X94186828Y-352536621D01*
X94103566Y-352638078D01*
X94002109Y-352721340D01*
X93966371Y-352750670D01*
X93809846Y-352834335D01*
X93640007Y-352885855D01*
X93573823Y-352892373D01*
X93507640Y-352898892D01*
X93419120Y-352898892D01*
X93352937Y-352892373D01*
X93286753Y-352885855D01*
X93116914Y-352834335D01*
X92960389Y-352750670D01*
X92924651Y-352721340D01*
X92823194Y-352638078D01*
X92739932Y-352536621D01*
X92710602Y-352500883D01*
X92626937Y-352344358D01*
X92575417Y-352174519D01*
X92558021Y-351997892D01*
X92575417Y-351821265D01*
X92626937Y-351651426D01*
X92710602Y-351494901D01*
X92770876Y-351421457D01*
X92823194Y-351357706D01*
X92935768Y-351265320D01*
X92960389Y-351245114D01*
X93116914Y-351161449D01*
X93286753Y-351109929D01*
X93352937Y-351103411D01*
X93419120Y-351096892D01*
X93507640Y-351096892D01*
X93573823Y-351103411D01*
X93573823Y-351103411D01*
G37*
G36*
X132292301Y-350144231D02*
G01*
X132358486Y-350150750D01*
X132528325Y-350202270D01*
X132684850Y-350285935D01*
X132720588Y-350315265D01*
X132822045Y-350398527D01*
X132905307Y-350499984D01*
X132934637Y-350535722D01*
X133018302Y-350692247D01*
X133069822Y-350862086D01*
X133087218Y-351038713D01*
X133069822Y-351215340D01*
X133018302Y-351385179D01*
X132934637Y-351541704D01*
X132905307Y-351577442D01*
X132822045Y-351678899D01*
X132720588Y-351762161D01*
X132684850Y-351791491D01*
X132528325Y-351875156D01*
X132358486Y-351926676D01*
X132292302Y-351933194D01*
X132226119Y-351939713D01*
X132137599Y-351939713D01*
X132071416Y-351933194D01*
X132005232Y-351926676D01*
X131835393Y-351875156D01*
X131678868Y-351791491D01*
X131643130Y-351762161D01*
X131541673Y-351678899D01*
X131458411Y-351577442D01*
X131429081Y-351541704D01*
X131345416Y-351385179D01*
X131293896Y-351215340D01*
X131276500Y-351038713D01*
X131293896Y-350862086D01*
X131345416Y-350692247D01*
X131429081Y-350535722D01*
X131458411Y-350499984D01*
X131541673Y-350398527D01*
X131643130Y-350315265D01*
X131678868Y-350285935D01*
X131835393Y-350202270D01*
X132005232Y-350150750D01*
X132071417Y-350144231D01*
X132137599Y-350137713D01*
X132226119Y-350137713D01*
X132292301Y-350144231D01*
X132292301Y-350144231D01*
G37*
G36*
X106648631Y-348408863D02*
G01*
X106798456Y-348438665D01*
X107080720Y-348555582D01*
X107334751Y-348725320D01*
X107550787Y-348941356D01*
X107720525Y-349195387D01*
X107837442Y-349477651D01*
X107897046Y-349777301D01*
X107897046Y-350082821D01*
X107837442Y-350382471D01*
X107720525Y-350664735D01*
X107550787Y-350918766D01*
X107334751Y-351134802D01*
X107080720Y-351304540D01*
X106798456Y-351421457D01*
X106648631Y-351451259D01*
X106498807Y-351481061D01*
X106193285Y-351481061D01*
X106043461Y-351451259D01*
X105893636Y-351421457D01*
X105611372Y-351304540D01*
X105357341Y-351134802D01*
X105141305Y-350918766D01*
X104971567Y-350664735D01*
X104854650Y-350382471D01*
X104795046Y-350082821D01*
X104795046Y-349777301D01*
X104854650Y-349477651D01*
X104971567Y-349195387D01*
X105141305Y-348941356D01*
X105357341Y-348725320D01*
X105611372Y-348555582D01*
X105893636Y-348438665D01*
X106043461Y-348408863D01*
X106193285Y-348379061D01*
X106498807Y-348379061D01*
X106648631Y-348408863D01*
X106648631Y-348408863D01*
G37*
G36*
X125712585Y-348408863D02*
G01*
X125862410Y-348438665D01*
X126144674Y-348555582D01*
X126398705Y-348725320D01*
X126614741Y-348941356D01*
X126784479Y-349195387D01*
X126901396Y-349477651D01*
X126961000Y-349777301D01*
X126961000Y-350082821D01*
X126901396Y-350382471D01*
X126784479Y-350664735D01*
X126614741Y-350918766D01*
X126398705Y-351134802D01*
X126144674Y-351304540D01*
X125862410Y-351421457D01*
X125712585Y-351451259D01*
X125562761Y-351481061D01*
X125257239Y-351481061D01*
X125107415Y-351451259D01*
X124957590Y-351421457D01*
X124675326Y-351304540D01*
X124421295Y-351134802D01*
X124205259Y-350918766D01*
X124035521Y-350664735D01*
X123918604Y-350382471D01*
X123859000Y-350082821D01*
X123859000Y-349777301D01*
X123918604Y-349477651D01*
X124035521Y-349195387D01*
X124205259Y-348941356D01*
X124421295Y-348725320D01*
X124675326Y-348555582D01*
X124957590Y-348438665D01*
X125107415Y-348408863D01*
X125257239Y-348379061D01*
X125562761Y-348379061D01*
X125712585Y-348408863D01*
X125712585Y-348408863D01*
G37*
G36*
X94364380Y-350358892D02*
G01*
X92562380Y-350358892D01*
X92562380Y-348556892D01*
X94364380Y-348556892D01*
X94364380Y-350358892D01*
X94364380Y-350358892D01*
G37*
G36*
X122102552Y-344863558D02*
G01*
X122351391Y-344913055D01*
X122545575Y-344993489D01*
X122820192Y-345107239D01*
X123242104Y-345389151D01*
X123600910Y-345747957D01*
X123882822Y-346169869D01*
X123996572Y-346444486D01*
X124077006Y-346638670D01*
X124176000Y-347136347D01*
X124176000Y-347643775D01*
X124077006Y-348141452D01*
X124019420Y-348280476D01*
X123882822Y-348610253D01*
X123600910Y-349032165D01*
X123242104Y-349390971D01*
X122820192Y-349672883D01*
X122568107Y-349777300D01*
X122351391Y-349867067D01*
X122102552Y-349916564D01*
X121853715Y-349966061D01*
X121346285Y-349966061D01*
X121097448Y-349916564D01*
X120848609Y-349867067D01*
X120631893Y-349777300D01*
X120379808Y-349672883D01*
X119957896Y-349390971D01*
X119599090Y-349032165D01*
X119317178Y-348610253D01*
X119180580Y-348280476D01*
X119122994Y-348141452D01*
X119024000Y-347643775D01*
X119024000Y-347136347D01*
X119122994Y-346638670D01*
X119203428Y-346444486D01*
X119317178Y-346169869D01*
X119599090Y-345747957D01*
X119957896Y-345389151D01*
X120379808Y-345107239D01*
X120654425Y-344993489D01*
X120848609Y-344913055D01*
X121097448Y-344863558D01*
X121346285Y-344814061D01*
X121853715Y-344814061D01*
X122102552Y-344863558D01*
X122102552Y-344863558D01*
G37*
G36*
X103038598Y-344863558D02*
G01*
X103287437Y-344913055D01*
X103481621Y-344993489D01*
X103756238Y-345107239D01*
X104178150Y-345389151D01*
X104536956Y-345747957D01*
X104818868Y-346169869D01*
X104932618Y-346444486D01*
X105013052Y-346638670D01*
X105112046Y-347136347D01*
X105112046Y-347643775D01*
X105013052Y-348141452D01*
X104955466Y-348280476D01*
X104818868Y-348610253D01*
X104536956Y-349032165D01*
X104178150Y-349390971D01*
X103756238Y-349672883D01*
X103504153Y-349777300D01*
X103287437Y-349867067D01*
X103038598Y-349916564D01*
X102789761Y-349966061D01*
X102282331Y-349966061D01*
X102033494Y-349916564D01*
X101784655Y-349867067D01*
X101567939Y-349777300D01*
X101315854Y-349672883D01*
X100893942Y-349390971D01*
X100535136Y-349032165D01*
X100253224Y-348610253D01*
X100116626Y-348280476D01*
X100059040Y-348141452D01*
X99960046Y-347643775D01*
X99960046Y-347136347D01*
X100059040Y-346638670D01*
X100139474Y-346444486D01*
X100253224Y-346169869D01*
X100535136Y-345747957D01*
X100893942Y-345389151D01*
X101315854Y-345107239D01*
X101590471Y-344993489D01*
X101784655Y-344913055D01*
X102033494Y-344863558D01*
X102282331Y-344814061D01*
X102789761Y-344814061D01*
X103038598Y-344863558D01*
X103038598Y-344863558D01*
G37*
G36*
X132292301Y-347604231D02*
G01*
X132358486Y-347610750D01*
X132528325Y-347662270D01*
X132684850Y-347745935D01*
X132720588Y-347775265D01*
X132822045Y-347858527D01*
X132905307Y-347959984D01*
X132934637Y-347995722D01*
X133018302Y-348152247D01*
X133069822Y-348322086D01*
X133087218Y-348498713D01*
X133069822Y-348675340D01*
X133018302Y-348845179D01*
X132934637Y-349001704D01*
X132909638Y-349032165D01*
X132822045Y-349138899D01*
X132720588Y-349222161D01*
X132684850Y-349251491D01*
X132528325Y-349335156D01*
X132358486Y-349386676D01*
X132314877Y-349390971D01*
X132226119Y-349399713D01*
X132137599Y-349399713D01*
X132048841Y-349390971D01*
X132005232Y-349386676D01*
X131835393Y-349335156D01*
X131678868Y-349251491D01*
X131643130Y-349222161D01*
X131541673Y-349138899D01*
X131454080Y-349032165D01*
X131429081Y-349001704D01*
X131345416Y-348845179D01*
X131293896Y-348675340D01*
X131276500Y-348498713D01*
X131293896Y-348322086D01*
X131345416Y-348152247D01*
X131429081Y-347995722D01*
X131458411Y-347959984D01*
X131541673Y-347858527D01*
X131643130Y-347775265D01*
X131678868Y-347745935D01*
X131835393Y-347662270D01*
X132005232Y-347610750D01*
X132071417Y-347604231D01*
X132137599Y-347597713D01*
X132226119Y-347597713D01*
X132292301Y-347604231D01*
X132292301Y-347604231D01*
G37*
G36*
X116790104Y-346499646D02*
G01*
X116958626Y-346569450D01*
X117110291Y-346670789D01*
X117239272Y-346799770D01*
X117340611Y-346951435D01*
X117410415Y-347119957D01*
X117446000Y-347298858D01*
X117446000Y-347481264D01*
X117410415Y-347660165D01*
X117340611Y-347828687D01*
X117239272Y-347980352D01*
X117110291Y-348109333D01*
X116958626Y-348210672D01*
X116790104Y-348280476D01*
X116611203Y-348316061D01*
X116428797Y-348316061D01*
X116249896Y-348280476D01*
X116081374Y-348210672D01*
X115929709Y-348109333D01*
X115800728Y-347980352D01*
X115699389Y-347828687D01*
X115629585Y-347660165D01*
X115594000Y-347481264D01*
X115594000Y-347298858D01*
X115629585Y-347119957D01*
X115699389Y-346951435D01*
X115800728Y-346799770D01*
X115929709Y-346670789D01*
X116081374Y-346569450D01*
X116249896Y-346499646D01*
X116428797Y-346464061D01*
X116611203Y-346464061D01*
X116790104Y-346499646D01*
X116790104Y-346499646D01*
G37*
G36*
X126950104Y-346499646D02*
G01*
X127118626Y-346569450D01*
X127270291Y-346670789D01*
X127399272Y-346799770D01*
X127500611Y-346951435D01*
X127570415Y-347119957D01*
X127606000Y-347298858D01*
X127606000Y-347481264D01*
X127570415Y-347660165D01*
X127500611Y-347828687D01*
X127399272Y-347980352D01*
X127270291Y-348109333D01*
X127118626Y-348210672D01*
X126950104Y-348280476D01*
X126771203Y-348316061D01*
X126588797Y-348316061D01*
X126409896Y-348280476D01*
X126241374Y-348210672D01*
X126089709Y-348109333D01*
X125960728Y-347980352D01*
X125859389Y-347828687D01*
X125789585Y-347660165D01*
X125754000Y-347481264D01*
X125754000Y-347298858D01*
X125789585Y-347119957D01*
X125859389Y-346951435D01*
X125960728Y-346799770D01*
X126089709Y-346670789D01*
X126241374Y-346569450D01*
X126409896Y-346499646D01*
X126588797Y-346464061D01*
X126771203Y-346464061D01*
X126950104Y-346499646D01*
X126950104Y-346499646D01*
G37*
G36*
X107886150Y-346499646D02*
G01*
X108054672Y-346569450D01*
X108206337Y-346670789D01*
X108335318Y-346799770D01*
X108436657Y-346951435D01*
X108506461Y-347119957D01*
X108542046Y-347298858D01*
X108542046Y-347481264D01*
X108506461Y-347660165D01*
X108436657Y-347828687D01*
X108335318Y-347980352D01*
X108206337Y-348109333D01*
X108054672Y-348210672D01*
X107886150Y-348280476D01*
X107707249Y-348316061D01*
X107524843Y-348316061D01*
X107345942Y-348280476D01*
X107177420Y-348210672D01*
X107025755Y-348109333D01*
X106896774Y-347980352D01*
X106795435Y-347828687D01*
X106725631Y-347660165D01*
X106690046Y-347481264D01*
X106690046Y-347298858D01*
X106725631Y-347119957D01*
X106795435Y-346951435D01*
X106896774Y-346799770D01*
X107025755Y-346670789D01*
X107177420Y-346569450D01*
X107345942Y-346499646D01*
X107524843Y-346464061D01*
X107707249Y-346464061D01*
X107886150Y-346499646D01*
X107886150Y-346499646D01*
G37*
G36*
X97726150Y-346499646D02*
G01*
X97894672Y-346569450D01*
X98046337Y-346670789D01*
X98175318Y-346799770D01*
X98276657Y-346951435D01*
X98346461Y-347119957D01*
X98382046Y-347298858D01*
X98382046Y-347481264D01*
X98346461Y-347660165D01*
X98276657Y-347828687D01*
X98175318Y-347980352D01*
X98046337Y-348109333D01*
X97894672Y-348210672D01*
X97726150Y-348280476D01*
X97547249Y-348316061D01*
X97364843Y-348316061D01*
X97185942Y-348280476D01*
X97017420Y-348210672D01*
X96865755Y-348109333D01*
X96736774Y-347980352D01*
X96635435Y-347828687D01*
X96565631Y-347660165D01*
X96530046Y-347481264D01*
X96530046Y-347298858D01*
X96565631Y-347119957D01*
X96635435Y-346951435D01*
X96736774Y-346799770D01*
X96865755Y-346670789D01*
X97017420Y-346569450D01*
X97185942Y-346499646D01*
X97364843Y-346464061D01*
X97547249Y-346464061D01*
X97726150Y-346499646D01*
X97726150Y-346499646D01*
G37*
G36*
X133082859Y-346859713D02*
G01*
X131280859Y-346859713D01*
X131280859Y-345057713D01*
X133082859Y-345057713D01*
X133082859Y-346859713D01*
X133082859Y-346859713D01*
G37*
G36*
X107538631Y-341468863D02*
G01*
X107688456Y-341498665D01*
X107970720Y-341615582D01*
X108224751Y-341785320D01*
X108440787Y-342001356D01*
X108610525Y-342255387D01*
X108659959Y-342374733D01*
X108727442Y-342537652D01*
X108787046Y-342837300D01*
X108787046Y-343142822D01*
X108757244Y-343292646D01*
X108727442Y-343442471D01*
X108610525Y-343724735D01*
X108440787Y-343978766D01*
X108224751Y-344194802D01*
X107970720Y-344364540D01*
X107688456Y-344481457D01*
X107538631Y-344511259D01*
X107388807Y-344541061D01*
X107083285Y-344541061D01*
X106933461Y-344511259D01*
X106783636Y-344481457D01*
X106501372Y-344364540D01*
X106247341Y-344194802D01*
X106031305Y-343978766D01*
X105861567Y-343724735D01*
X105744650Y-343442471D01*
X105714848Y-343292646D01*
X105685046Y-343142822D01*
X105685046Y-342837300D01*
X105744650Y-342537652D01*
X105812133Y-342374733D01*
X105861567Y-342255387D01*
X106031305Y-342001356D01*
X106247341Y-341785320D01*
X106501372Y-341615582D01*
X106783636Y-341498665D01*
X106933461Y-341468863D01*
X107083285Y-341439061D01*
X107388807Y-341439061D01*
X107538631Y-341468863D01*
X107538631Y-341468863D01*
G37*
G36*
X126602585Y-341468863D02*
G01*
X126752410Y-341498665D01*
X127034674Y-341615582D01*
X127288705Y-341785320D01*
X127504741Y-342001356D01*
X127674479Y-342255387D01*
X127723913Y-342374733D01*
X127791396Y-342537652D01*
X127851000Y-342837300D01*
X127851000Y-343142822D01*
X127821198Y-343292646D01*
X127791396Y-343442471D01*
X127674479Y-343724735D01*
X127504741Y-343978766D01*
X127288705Y-344194802D01*
X127034674Y-344364540D01*
X126752410Y-344481457D01*
X126602585Y-344511259D01*
X126452761Y-344541061D01*
X126147239Y-344541061D01*
X125997415Y-344511259D01*
X125847590Y-344481457D01*
X125565326Y-344364540D01*
X125311295Y-344194802D01*
X125095259Y-343978766D01*
X124925521Y-343724735D01*
X124808604Y-343442471D01*
X124778802Y-343292646D01*
X124749000Y-343142822D01*
X124749000Y-342837300D01*
X124808604Y-342537652D01*
X124876087Y-342374733D01*
X124925521Y-342255387D01*
X125095259Y-342001356D01*
X125311295Y-341785320D01*
X125565326Y-341615582D01*
X125847590Y-341498665D01*
X125997415Y-341468863D01*
X126147239Y-341439061D01*
X126452761Y-341439061D01*
X126602585Y-341468863D01*
X126602585Y-341468863D01*
G37*
G36*
X119302585Y-340118863D02*
G01*
X119452410Y-340148665D01*
X119734674Y-340265582D01*
X119988705Y-340435320D01*
X120204741Y-340651356D01*
X120374479Y-340905387D01*
X120491396Y-341187651D01*
X120491396Y-341187652D01*
X120541405Y-341439061D01*
X120551000Y-341487301D01*
X120551000Y-341792821D01*
X120491396Y-342092471D01*
X120374479Y-342374735D01*
X120204741Y-342628766D01*
X119988705Y-342844802D01*
X119734674Y-343014540D01*
X119452410Y-343131457D01*
X119395279Y-343142821D01*
X119152761Y-343191061D01*
X118847239Y-343191061D01*
X118604721Y-343142821D01*
X118547590Y-343131457D01*
X118265326Y-343014540D01*
X118011295Y-342844802D01*
X117795259Y-342628766D01*
X117625521Y-342374735D01*
X117508604Y-342092471D01*
X117449000Y-341792821D01*
X117449000Y-341487301D01*
X117458596Y-341439061D01*
X117508604Y-341187652D01*
X117508604Y-341187651D01*
X117625521Y-340905387D01*
X117795259Y-340651356D01*
X118011295Y-340435320D01*
X118265326Y-340265582D01*
X118547590Y-340148665D01*
X118697415Y-340118863D01*
X118847239Y-340089061D01*
X119152761Y-340089061D01*
X119302585Y-340118863D01*
X119302585Y-340118863D01*
G37*
G36*
X100238631Y-340118863D02*
G01*
X100388456Y-340148665D01*
X100670720Y-340265582D01*
X100924751Y-340435320D01*
X101140787Y-340651356D01*
X101310525Y-340905387D01*
X101427442Y-341187651D01*
X101427442Y-341187652D01*
X101477451Y-341439061D01*
X101487046Y-341487301D01*
X101487046Y-341792821D01*
X101427442Y-342092471D01*
X101310525Y-342374735D01*
X101140787Y-342628766D01*
X100924751Y-342844802D01*
X100670720Y-343014540D01*
X100388456Y-343131457D01*
X100331325Y-343142821D01*
X100088807Y-343191061D01*
X99783285Y-343191061D01*
X99540767Y-343142821D01*
X99483636Y-343131457D01*
X99201372Y-343014540D01*
X98947341Y-342844802D01*
X98731305Y-342628766D01*
X98561567Y-342374735D01*
X98444650Y-342092471D01*
X98385046Y-341792821D01*
X98385046Y-341487301D01*
X98394642Y-341439061D01*
X98444650Y-341187652D01*
X98444650Y-341187651D01*
X98561567Y-340905387D01*
X98731305Y-340651356D01*
X98947341Y-340435320D01*
X99201372Y-340265582D01*
X99483636Y-340148665D01*
X99633461Y-340118863D01*
X99783285Y-340089061D01*
X100088807Y-340089061D01*
X100238631Y-340118863D01*
X100238631Y-340118863D01*
G37*
G36*
X120690276Y-336127694D02*
G01*
X118949678Y-336594086D01*
X118483286Y-334853488D01*
X120223884Y-334387096D01*
X120690276Y-336127694D01*
X120690276Y-336127694D01*
G37*
G36*
X122150676Y-333938710D02*
G01*
X122216860Y-333945228D01*
X122386699Y-333996748D01*
X122543224Y-334080413D01*
X122578962Y-334109743D01*
X122680419Y-334193005D01*
X122763681Y-334294462D01*
X122793011Y-334330200D01*
X122876676Y-334486725D01*
X122928196Y-334656564D01*
X122945592Y-334833191D01*
X122928196Y-335009818D01*
X122876676Y-335179657D01*
X122793011Y-335336182D01*
X122763681Y-335371920D01*
X122680419Y-335473377D01*
X122578962Y-335556639D01*
X122543224Y-335585969D01*
X122386699Y-335669634D01*
X122216860Y-335721154D01*
X122150675Y-335727673D01*
X122084493Y-335734191D01*
X121995973Y-335734191D01*
X121929791Y-335727673D01*
X121863606Y-335721154D01*
X121693767Y-335669634D01*
X121537242Y-335585969D01*
X121501504Y-335556639D01*
X121400047Y-335473377D01*
X121316785Y-335371920D01*
X121287455Y-335336182D01*
X121203790Y-335179657D01*
X121152270Y-335009818D01*
X121134874Y-334833191D01*
X121152270Y-334656564D01*
X121203790Y-334486725D01*
X121287455Y-334330200D01*
X121316785Y-334294462D01*
X121400047Y-334193005D01*
X121501504Y-334109743D01*
X121537242Y-334080413D01*
X121693767Y-333996748D01*
X121863606Y-333945228D01*
X121929790Y-333938710D01*
X121995973Y-333932191D01*
X122084493Y-333932191D01*
X122150676Y-333938710D01*
X122150676Y-333938710D01*
G37*
G36*
X124604126Y-333281308D02*
G01*
X124670311Y-333287827D01*
X124840150Y-333339347D01*
X124996675Y-333423012D01*
X125032413Y-333452342D01*
X125133870Y-333535604D01*
X125217132Y-333637061D01*
X125246462Y-333672799D01*
X125330127Y-333829324D01*
X125381647Y-333999163D01*
X125399043Y-334175790D01*
X125381647Y-334352417D01*
X125330127Y-334522256D01*
X125246462Y-334678781D01*
X125217132Y-334714519D01*
X125133870Y-334815976D01*
X125032413Y-334899238D01*
X124996675Y-334928568D01*
X124840150Y-335012233D01*
X124670311Y-335063753D01*
X124604127Y-335070271D01*
X124537944Y-335076790D01*
X124449424Y-335076790D01*
X124383241Y-335070271D01*
X124317057Y-335063753D01*
X124147218Y-335012233D01*
X123990693Y-334928568D01*
X123954955Y-334899238D01*
X123853498Y-334815976D01*
X123770236Y-334714519D01*
X123740906Y-334678781D01*
X123657241Y-334522256D01*
X123605721Y-334352417D01*
X123588325Y-334175790D01*
X123605721Y-333999163D01*
X123657241Y-333829324D01*
X123740906Y-333672799D01*
X123770236Y-333637061D01*
X123853498Y-333535604D01*
X123954955Y-333452342D01*
X123990693Y-333423012D01*
X124147218Y-333339347D01*
X124317057Y-333287827D01*
X124383242Y-333281308D01*
X124449424Y-333274790D01*
X124537944Y-333274790D01*
X124604126Y-333281308D01*
X124604126Y-333281308D01*
G37*
G36*
X127057578Y-332623908D02*
G01*
X127123763Y-332630427D01*
X127293602Y-332681947D01*
X127450127Y-332765612D01*
X127485865Y-332794942D01*
X127587322Y-332878204D01*
X127670584Y-332979661D01*
X127699914Y-333015399D01*
X127783579Y-333171924D01*
X127835099Y-333341763D01*
X127852495Y-333518390D01*
X127835099Y-333695017D01*
X127783579Y-333864856D01*
X127699914Y-334021381D01*
X127670584Y-334057119D01*
X127587322Y-334158576D01*
X127485865Y-334241838D01*
X127450127Y-334271168D01*
X127293602Y-334354833D01*
X127123763Y-334406353D01*
X127057579Y-334412871D01*
X126991396Y-334419390D01*
X126902876Y-334419390D01*
X126836693Y-334412871D01*
X126770509Y-334406353D01*
X126600670Y-334354833D01*
X126444145Y-334271168D01*
X126408407Y-334241838D01*
X126306950Y-334158576D01*
X126223688Y-334057119D01*
X126194358Y-334021381D01*
X126110693Y-333864856D01*
X126059173Y-333695017D01*
X126041777Y-333518390D01*
X126059173Y-333341763D01*
X126110693Y-333171924D01*
X126194358Y-333015399D01*
X126223688Y-332979661D01*
X126306950Y-332878204D01*
X126408407Y-332794942D01*
X126444145Y-332765612D01*
X126600670Y-332681947D01*
X126770509Y-332630427D01*
X126836694Y-332623908D01*
X126902876Y-332617390D01*
X126991396Y-332617390D01*
X127057578Y-332623908D01*
X127057578Y-332623908D01*
G37*
M02*
