M48
; DRILL file {KiCad (5.1.4)-1} date 5/19/2023 9:15:44 AM
; FORMAT={-:-/ absolute / metric / decimal}
; #@! TF.CreationDate,2023-05-19T09:15:44-04:00
; #@! TF.GenerationSoftware,Kicad,Pcbnew,(5.1.4)-1
; #@! TF.FileFunction,Plated,1,2,PTH
FMAT,2
METRIC
T1C1.000
T2C1.470
%
G90
G05
T1
X98.671Y-357.175
X101.211Y-357.175
X103.751Y-357.175
X106.291Y-357.175
X119.587Y-335.491
X122.04Y-334.833
X124.494Y-334.176
X126.947Y-333.518
X132.182Y-345.959
X132.182Y-348.499
X132.182Y-351.039
X132.182Y-353.579
X93.463Y-349.458
X93.463Y-351.998
X93.463Y-354.538
X93.463Y-357.078
T2
X117.79Y-344.85
X119.1Y-343.39
X124.1Y-342.89
X124.14Y-342.31
X98.726Y-344.85
X100.036Y-343.39
X105.036Y-342.89
X105.076Y-342.31
T0
M30
