G04 #@! TF.GenerationSoftware,KiCad,Pcbnew,(5.1.4)-1*
G04 #@! TF.CreationDate,2023-05-19T09:15:40-04:00*
G04 #@! TF.ProjectId,ThumbsUp,5468756d-6273-4557-902e-6b696361645f,rev?*
G04 #@! TF.SameCoordinates,Original*
G04 #@! TF.FileFunction,Soldermask,Bot*
G04 #@! TF.FilePolarity,Negative*
%FSLAX46Y46*%
G04 Gerber Fmt 4.6, Leading zero omitted, Abs format (unit mm)*
G04 Created by KiCad (PCBNEW (5.1.4)-1) date 2023-05-19 09:15:40*
%MOMM*%
%LPD*%
G04 APERTURE LIST*
%ADD10C,0.100000*%
G04 APERTURE END LIST*
D10*
G36*
X99571670Y-358075574D02*
G01*
X97769670Y-358075574D01*
X97769670Y-356273574D01*
X99571670Y-356273574D01*
X99571670Y-358075574D01*
X99571670Y-358075574D01*
G37*
G36*
X103861113Y-356280093D02*
G01*
X103927297Y-356286611D01*
X104097136Y-356338131D01*
X104253661Y-356421796D01*
X104273047Y-356437706D01*
X104390856Y-356534388D01*
X104474118Y-356635845D01*
X104503448Y-356671583D01*
X104587113Y-356828108D01*
X104638633Y-356997947D01*
X104656029Y-357174574D01*
X104638633Y-357351201D01*
X104587113Y-357521040D01*
X104503448Y-357677565D01*
X104474118Y-357713303D01*
X104390856Y-357814760D01*
X104289399Y-357898022D01*
X104253661Y-357927352D01*
X104097136Y-358011017D01*
X103927297Y-358062537D01*
X103861113Y-358069055D01*
X103794930Y-358075574D01*
X103706410Y-358075574D01*
X103640227Y-358069055D01*
X103574043Y-358062537D01*
X103404204Y-358011017D01*
X103247679Y-357927352D01*
X103211941Y-357898022D01*
X103110484Y-357814760D01*
X103027222Y-357713303D01*
X102997892Y-357677565D01*
X102914227Y-357521040D01*
X102862707Y-357351201D01*
X102845311Y-357174574D01*
X102862707Y-356997947D01*
X102914227Y-356828108D01*
X102997892Y-356671583D01*
X103027222Y-356635845D01*
X103110484Y-356534388D01*
X103228293Y-356437706D01*
X103247679Y-356421796D01*
X103404204Y-356338131D01*
X103574043Y-356286611D01*
X103640227Y-356280093D01*
X103706410Y-356273574D01*
X103794930Y-356273574D01*
X103861113Y-356280093D01*
X103861113Y-356280093D01*
G37*
G36*
X106401113Y-356280093D02*
G01*
X106467297Y-356286611D01*
X106637136Y-356338131D01*
X106793661Y-356421796D01*
X106813047Y-356437706D01*
X106930856Y-356534388D01*
X107014118Y-356635845D01*
X107043448Y-356671583D01*
X107127113Y-356828108D01*
X107178633Y-356997947D01*
X107196029Y-357174574D01*
X107178633Y-357351201D01*
X107127113Y-357521040D01*
X107043448Y-357677565D01*
X107014118Y-357713303D01*
X106930856Y-357814760D01*
X106829399Y-357898022D01*
X106793661Y-357927352D01*
X106637136Y-358011017D01*
X106467297Y-358062537D01*
X106401113Y-358069055D01*
X106334930Y-358075574D01*
X106246410Y-358075574D01*
X106180227Y-358069055D01*
X106114043Y-358062537D01*
X105944204Y-358011017D01*
X105787679Y-357927352D01*
X105751941Y-357898022D01*
X105650484Y-357814760D01*
X105567222Y-357713303D01*
X105537892Y-357677565D01*
X105454227Y-357521040D01*
X105402707Y-357351201D01*
X105385311Y-357174574D01*
X105402707Y-356997947D01*
X105454227Y-356828108D01*
X105537892Y-356671583D01*
X105567222Y-356635845D01*
X105650484Y-356534388D01*
X105768293Y-356437706D01*
X105787679Y-356421796D01*
X105944204Y-356338131D01*
X106114043Y-356286611D01*
X106180227Y-356280093D01*
X106246410Y-356273574D01*
X106334930Y-356273574D01*
X106401113Y-356280093D01*
X106401113Y-356280093D01*
G37*
G36*
X101321113Y-356280093D02*
G01*
X101387297Y-356286611D01*
X101557136Y-356338131D01*
X101713661Y-356421796D01*
X101733047Y-356437706D01*
X101850856Y-356534388D01*
X101934118Y-356635845D01*
X101963448Y-356671583D01*
X102047113Y-356828108D01*
X102098633Y-356997947D01*
X102116029Y-357174574D01*
X102098633Y-357351201D01*
X102047113Y-357521040D01*
X101963448Y-357677565D01*
X101934118Y-357713303D01*
X101850856Y-357814760D01*
X101749399Y-357898022D01*
X101713661Y-357927352D01*
X101557136Y-358011017D01*
X101387297Y-358062537D01*
X101321113Y-358069055D01*
X101254930Y-358075574D01*
X101166410Y-358075574D01*
X101100227Y-358069055D01*
X101034043Y-358062537D01*
X100864204Y-358011017D01*
X100707679Y-357927352D01*
X100671941Y-357898022D01*
X100570484Y-357814760D01*
X100487222Y-357713303D01*
X100457892Y-357677565D01*
X100374227Y-357521040D01*
X100322707Y-357351201D01*
X100305311Y-357174574D01*
X100322707Y-356997947D01*
X100374227Y-356828108D01*
X100457892Y-356671583D01*
X100487222Y-356635845D01*
X100570484Y-356534388D01*
X100688293Y-356437706D01*
X100707679Y-356421796D01*
X100864204Y-356338131D01*
X101034043Y-356286611D01*
X101100227Y-356280093D01*
X101166410Y-356273574D01*
X101254930Y-356273574D01*
X101321113Y-356280093D01*
X101321113Y-356280093D01*
G37*
G36*
X93573822Y-356183410D02*
G01*
X93640007Y-356189929D01*
X93809846Y-356241449D01*
X93966371Y-356325114D01*
X93982232Y-356338131D01*
X94103566Y-356437706D01*
X94186828Y-356539163D01*
X94216158Y-356574901D01*
X94299823Y-356731426D01*
X94351343Y-356901265D01*
X94368739Y-357077892D01*
X94351343Y-357254519D01*
X94299823Y-357424358D01*
X94216158Y-357580883D01*
X94186828Y-357616621D01*
X94103566Y-357718078D01*
X94002109Y-357801340D01*
X93966371Y-357830670D01*
X93809846Y-357914335D01*
X93640007Y-357965855D01*
X93573823Y-357972373D01*
X93507640Y-357978892D01*
X93419120Y-357978892D01*
X93352937Y-357972373D01*
X93286753Y-357965855D01*
X93116914Y-357914335D01*
X92960389Y-357830670D01*
X92924651Y-357801340D01*
X92823194Y-357718078D01*
X92739932Y-357616621D01*
X92710602Y-357580883D01*
X92626937Y-357424358D01*
X92575417Y-357254519D01*
X92558021Y-357077892D01*
X92575417Y-356901265D01*
X92626937Y-356731426D01*
X92710602Y-356574901D01*
X92739932Y-356539163D01*
X92823194Y-356437706D01*
X92944528Y-356338131D01*
X92960389Y-356325114D01*
X93116914Y-356241449D01*
X93286753Y-356189929D01*
X93352938Y-356183410D01*
X93419120Y-356176892D01*
X93507640Y-356176892D01*
X93573822Y-356183410D01*
X93573822Y-356183410D01*
G37*
G36*
X93573822Y-353643410D02*
G01*
X93640007Y-353649929D01*
X93809846Y-353701449D01*
X93966371Y-353785114D01*
X94002109Y-353814444D01*
X94103566Y-353897706D01*
X94155884Y-353961457D01*
X94216158Y-354034901D01*
X94299823Y-354191426D01*
X94351343Y-354361265D01*
X94368739Y-354537892D01*
X94351343Y-354714519D01*
X94299823Y-354884358D01*
X94216158Y-355040883D01*
X94186828Y-355076621D01*
X94103566Y-355178078D01*
X94002109Y-355261340D01*
X93966371Y-355290670D01*
X93809846Y-355374335D01*
X93640007Y-355425855D01*
X93573822Y-355432374D01*
X93507640Y-355438892D01*
X93419120Y-355438892D01*
X93352938Y-355432374D01*
X93286753Y-355425855D01*
X93116914Y-355374335D01*
X92960389Y-355290670D01*
X92924651Y-355261340D01*
X92823194Y-355178078D01*
X92739932Y-355076621D01*
X92710602Y-355040883D01*
X92626937Y-354884358D01*
X92575417Y-354714519D01*
X92558021Y-354537892D01*
X92575417Y-354361265D01*
X92626937Y-354191426D01*
X92710602Y-354034901D01*
X92770876Y-353961457D01*
X92823194Y-353897706D01*
X92924651Y-353814444D01*
X92960389Y-353785114D01*
X93116914Y-353701449D01*
X93286753Y-353649929D01*
X93352938Y-353643410D01*
X93419120Y-353636892D01*
X93507640Y-353636892D01*
X93573822Y-353643410D01*
X93573822Y-353643410D01*
G37*
G36*
X132292302Y-352684232D02*
G01*
X132358486Y-352690750D01*
X132528325Y-352742270D01*
X132684850Y-352825935D01*
X132695084Y-352834334D01*
X132822045Y-352938527D01*
X132905307Y-353039984D01*
X132934637Y-353075722D01*
X133018302Y-353232247D01*
X133069822Y-353402086D01*
X133087218Y-353578713D01*
X133069822Y-353755340D01*
X133018302Y-353925179D01*
X132934637Y-354081704D01*
X132905307Y-354117442D01*
X132822045Y-354218899D01*
X132720588Y-354302161D01*
X132684850Y-354331491D01*
X132528325Y-354415156D01*
X132358486Y-354466676D01*
X132292302Y-354473194D01*
X132226119Y-354479713D01*
X132137599Y-354479713D01*
X132071416Y-354473194D01*
X132005232Y-354466676D01*
X131835393Y-354415156D01*
X131678868Y-354331491D01*
X131643130Y-354302161D01*
X131541673Y-354218899D01*
X131458411Y-354117442D01*
X131429081Y-354081704D01*
X131345416Y-353925179D01*
X131293896Y-353755340D01*
X131276500Y-353578713D01*
X131293896Y-353402086D01*
X131345416Y-353232247D01*
X131429081Y-353075722D01*
X131458411Y-353039984D01*
X131541673Y-352938527D01*
X131668634Y-352834334D01*
X131678868Y-352825935D01*
X131835393Y-352742270D01*
X132005232Y-352690750D01*
X132071416Y-352684232D01*
X132137599Y-352677713D01*
X132226119Y-352677713D01*
X132292302Y-352684232D01*
X132292302Y-352684232D01*
G37*
G36*
X100298631Y-350948863D02*
G01*
X100448456Y-350978665D01*
X100730720Y-351095582D01*
X100984751Y-351265320D01*
X101200787Y-351481356D01*
X101370525Y-351735387D01*
X101487442Y-352017651D01*
X101487442Y-352017652D01*
X101547046Y-352317300D01*
X101547046Y-352622822D01*
X101544011Y-352638078D01*
X101487442Y-352922471D01*
X101370525Y-353204735D01*
X101200787Y-353458766D01*
X100984751Y-353674802D01*
X100730720Y-353844540D01*
X100448456Y-353961457D01*
X100298631Y-353991259D01*
X100148807Y-354021061D01*
X99843285Y-354021061D01*
X99693461Y-353991259D01*
X99543636Y-353961457D01*
X99261372Y-353844540D01*
X99007341Y-353674802D01*
X98791305Y-353458766D01*
X98621567Y-353204735D01*
X98504650Y-352922471D01*
X98448081Y-352638078D01*
X98445046Y-352622822D01*
X98445046Y-352317300D01*
X98504650Y-352017652D01*
X98504650Y-352017651D01*
X98621567Y-351735387D01*
X98791305Y-351481356D01*
X99007341Y-351265320D01*
X99261372Y-351095582D01*
X99543636Y-350978665D01*
X99693461Y-350948863D01*
X99843285Y-350919061D01*
X100148807Y-350919061D01*
X100298631Y-350948863D01*
X100298631Y-350948863D01*
G37*
G36*
X119362585Y-350948863D02*
G01*
X119512410Y-350978665D01*
X119794674Y-351095582D01*
X120048705Y-351265320D01*
X120264741Y-351481356D01*
X120434479Y-351735387D01*
X120551396Y-352017651D01*
X120551396Y-352017652D01*
X120611000Y-352317300D01*
X120611000Y-352622822D01*
X120607965Y-352638078D01*
X120551396Y-352922471D01*
X120434479Y-353204735D01*
X120264741Y-353458766D01*
X120048705Y-353674802D01*
X119794674Y-353844540D01*
X119512410Y-353961457D01*
X119362585Y-353991259D01*
X119212761Y-354021061D01*
X118907239Y-354021061D01*
X118757415Y-353991259D01*
X118607590Y-353961457D01*
X118325326Y-353844540D01*
X118071295Y-353674802D01*
X117855259Y-353458766D01*
X117685521Y-353204735D01*
X117568604Y-352922471D01*
X117512035Y-352638078D01*
X117509000Y-352622822D01*
X117509000Y-352317300D01*
X117568604Y-352017652D01*
X117568604Y-352017651D01*
X117685521Y-351735387D01*
X117855259Y-351481356D01*
X118071295Y-351265320D01*
X118325326Y-351095582D01*
X118607590Y-350978665D01*
X118757415Y-350948863D01*
X118907239Y-350919061D01*
X119212761Y-350919061D01*
X119362585Y-350948863D01*
X119362585Y-350948863D01*
G37*
G36*
X117084000Y-353771061D02*
G01*
X114432000Y-353771061D01*
X114432000Y-351169061D01*
X117084000Y-351169061D01*
X117084000Y-353771061D01*
X117084000Y-353771061D01*
G37*
G36*
X98020046Y-353771061D02*
G01*
X95368046Y-353771061D01*
X95368046Y-351169061D01*
X98020046Y-351169061D01*
X98020046Y-353771061D01*
X98020046Y-353771061D01*
G37*
G36*
X93573823Y-351103411D02*
G01*
X93640007Y-351109929D01*
X93809846Y-351161449D01*
X93966371Y-351245114D01*
X93990992Y-351265320D01*
X94103566Y-351357706D01*
X94155884Y-351421457D01*
X94216158Y-351494901D01*
X94299823Y-351651426D01*
X94351343Y-351821265D01*
X94368739Y-351997892D01*
X94351343Y-352174519D01*
X94299823Y-352344358D01*
X94216158Y-352500883D01*
X94186828Y-352536621D01*
X94103566Y-352638078D01*
X94002109Y-352721340D01*
X93966371Y-352750670D01*
X93809846Y-352834335D01*
X93640007Y-352885855D01*
X93573823Y-352892373D01*
X93507640Y-352898892D01*
X93419120Y-352898892D01*
X93352937Y-352892373D01*
X93286753Y-352885855D01*
X93116914Y-352834335D01*
X92960389Y-352750670D01*
X92924651Y-352721340D01*
X92823194Y-352638078D01*
X92739932Y-352536621D01*
X92710602Y-352500883D01*
X92626937Y-352344358D01*
X92575417Y-352174519D01*
X92558021Y-351997892D01*
X92575417Y-351821265D01*
X92626937Y-351651426D01*
X92710602Y-351494901D01*
X92770876Y-351421457D01*
X92823194Y-351357706D01*
X92935768Y-351265320D01*
X92960389Y-351245114D01*
X93116914Y-351161449D01*
X93286753Y-351109929D01*
X93352937Y-351103411D01*
X93419120Y-351096892D01*
X93507640Y-351096892D01*
X93573823Y-351103411D01*
X93573823Y-351103411D01*
G37*
G36*
X132292301Y-350144231D02*
G01*
X132358486Y-350150750D01*
X132528325Y-350202270D01*
X132684850Y-350285935D01*
X132720588Y-350315265D01*
X132822045Y-350398527D01*
X132905307Y-350499984D01*
X132934637Y-350535722D01*
X133018302Y-350692247D01*
X133069822Y-350862086D01*
X133087218Y-351038713D01*
X133069822Y-351215340D01*
X133018302Y-351385179D01*
X132934637Y-351541704D01*
X132905307Y-351577442D01*
X132822045Y-351678899D01*
X132720588Y-351762161D01*
X132684850Y-351791491D01*
X132528325Y-351875156D01*
X132358486Y-351926676D01*
X132292302Y-351933194D01*
X132226119Y-351939713D01*
X132137599Y-351939713D01*
X132071416Y-351933194D01*
X132005232Y-351926676D01*
X131835393Y-351875156D01*
X131678868Y-351791491D01*
X131643130Y-351762161D01*
X131541673Y-351678899D01*
X131458411Y-351577442D01*
X131429081Y-351541704D01*
X131345416Y-351385179D01*
X131293896Y-351215340D01*
X131276500Y-351038713D01*
X131293896Y-350862086D01*
X131345416Y-350692247D01*
X131429081Y-350535722D01*
X131458411Y-350499984D01*
X131541673Y-350398527D01*
X131643130Y-350315265D01*
X131678868Y-350285935D01*
X131835393Y-350202270D01*
X132005232Y-350150750D01*
X132071417Y-350144231D01*
X132137599Y-350137713D01*
X132226119Y-350137713D01*
X132292301Y-350144231D01*
X132292301Y-350144231D01*
G37*
G36*
X125712585Y-348408863D02*
G01*
X125862410Y-348438665D01*
X126144674Y-348555582D01*
X126398705Y-348725320D01*
X126614741Y-348941356D01*
X126784479Y-349195387D01*
X126901396Y-349477651D01*
X126961000Y-349777301D01*
X126961000Y-350082821D01*
X126901396Y-350382471D01*
X126784479Y-350664735D01*
X126614741Y-350918766D01*
X126398705Y-351134802D01*
X126144674Y-351304540D01*
X125862410Y-351421457D01*
X125712585Y-351451259D01*
X125562761Y-351481061D01*
X125257239Y-351481061D01*
X125107415Y-351451259D01*
X124957590Y-351421457D01*
X124675326Y-351304540D01*
X124421295Y-351134802D01*
X124205259Y-350918766D01*
X124035521Y-350664735D01*
X123918604Y-350382471D01*
X123859000Y-350082821D01*
X123859000Y-349777301D01*
X123918604Y-349477651D01*
X124035521Y-349195387D01*
X124205259Y-348941356D01*
X124421295Y-348725320D01*
X124675326Y-348555582D01*
X124957590Y-348438665D01*
X125107415Y-348408863D01*
X125257239Y-348379061D01*
X125562761Y-348379061D01*
X125712585Y-348408863D01*
X125712585Y-348408863D01*
G37*
G36*
X106648631Y-348408863D02*
G01*
X106798456Y-348438665D01*
X107080720Y-348555582D01*
X107334751Y-348725320D01*
X107550787Y-348941356D01*
X107720525Y-349195387D01*
X107837442Y-349477651D01*
X107897046Y-349777301D01*
X107897046Y-350082821D01*
X107837442Y-350382471D01*
X107720525Y-350664735D01*
X107550787Y-350918766D01*
X107334751Y-351134802D01*
X107080720Y-351304540D01*
X106798456Y-351421457D01*
X106648631Y-351451259D01*
X106498807Y-351481061D01*
X106193285Y-351481061D01*
X106043461Y-351451259D01*
X105893636Y-351421457D01*
X105611372Y-351304540D01*
X105357341Y-351134802D01*
X105141305Y-350918766D01*
X104971567Y-350664735D01*
X104854650Y-350382471D01*
X104795046Y-350082821D01*
X104795046Y-349777301D01*
X104854650Y-349477651D01*
X104971567Y-349195387D01*
X105141305Y-348941356D01*
X105357341Y-348725320D01*
X105611372Y-348555582D01*
X105893636Y-348438665D01*
X106043461Y-348408863D01*
X106193285Y-348379061D01*
X106498807Y-348379061D01*
X106648631Y-348408863D01*
X106648631Y-348408863D01*
G37*
G36*
X130011000Y-351231061D02*
G01*
X127359000Y-351231061D01*
X127359000Y-348629061D01*
X130011000Y-348629061D01*
X130011000Y-351231061D01*
X130011000Y-351231061D01*
G37*
G36*
X110947046Y-351231061D02*
G01*
X108295046Y-351231061D01*
X108295046Y-348629061D01*
X110947046Y-348629061D01*
X110947046Y-351231061D01*
X110947046Y-351231061D01*
G37*
G36*
X94364380Y-350358892D02*
G01*
X92562380Y-350358892D01*
X92562380Y-348556892D01*
X94364380Y-348556892D01*
X94364380Y-350358892D01*
X94364380Y-350358892D01*
G37*
G36*
X122196474Y-345423745D02*
G01*
X122414474Y-345514044D01*
X122568623Y-345577894D01*
X122903548Y-345801684D01*
X123188377Y-346086513D01*
X123412167Y-346421438D01*
X123444562Y-346499647D01*
X123566316Y-346793587D01*
X123644900Y-347188655D01*
X123644900Y-347591467D01*
X123566316Y-347986535D01*
X123497676Y-348152247D01*
X123412167Y-348358684D01*
X123188377Y-348693609D01*
X122903548Y-348978438D01*
X122568623Y-349202228D01*
X122414474Y-349266078D01*
X122196474Y-349356377D01*
X121801406Y-349434961D01*
X121398594Y-349434961D01*
X121003526Y-349356377D01*
X120785526Y-349266078D01*
X120631377Y-349202228D01*
X120296452Y-348978438D01*
X120011623Y-348693609D01*
X119787833Y-348358684D01*
X119702324Y-348152247D01*
X119633684Y-347986535D01*
X119555100Y-347591467D01*
X119555100Y-347188655D01*
X119633684Y-346793587D01*
X119755438Y-346499647D01*
X119787833Y-346421438D01*
X120011623Y-346086513D01*
X120296452Y-345801684D01*
X120631377Y-345577894D01*
X120785526Y-345514044D01*
X121003526Y-345423745D01*
X121398594Y-345345161D01*
X121801406Y-345345161D01*
X122196474Y-345423745D01*
X122196474Y-345423745D01*
G37*
G36*
X103132520Y-345423745D02*
G01*
X103350520Y-345514044D01*
X103504669Y-345577894D01*
X103839594Y-345801684D01*
X104124423Y-346086513D01*
X104348213Y-346421438D01*
X104380608Y-346499647D01*
X104502362Y-346793587D01*
X104580946Y-347188655D01*
X104580946Y-347591467D01*
X104502362Y-347986535D01*
X104433722Y-348152247D01*
X104348213Y-348358684D01*
X104124423Y-348693609D01*
X103839594Y-348978438D01*
X103504669Y-349202228D01*
X103350520Y-349266078D01*
X103132520Y-349356377D01*
X102737452Y-349434961D01*
X102334640Y-349434961D01*
X101939572Y-349356377D01*
X101721572Y-349266078D01*
X101567423Y-349202228D01*
X101232498Y-348978438D01*
X100947669Y-348693609D01*
X100723879Y-348358684D01*
X100638370Y-348152247D01*
X100569730Y-347986535D01*
X100491146Y-347591467D01*
X100491146Y-347188655D01*
X100569730Y-346793587D01*
X100691484Y-346499647D01*
X100723879Y-346421438D01*
X100947669Y-346086513D01*
X101232498Y-345801684D01*
X101567423Y-345577894D01*
X101721572Y-345514044D01*
X101939572Y-345423745D01*
X102334640Y-345345161D01*
X102737452Y-345345161D01*
X103132520Y-345423745D01*
X103132520Y-345423745D01*
G37*
G36*
X132292301Y-347604231D02*
G01*
X132358486Y-347610750D01*
X132528325Y-347662270D01*
X132684850Y-347745935D01*
X132720588Y-347775265D01*
X132822045Y-347858527D01*
X132905307Y-347959984D01*
X132934637Y-347995722D01*
X133018302Y-348152247D01*
X133069822Y-348322086D01*
X133087218Y-348498713D01*
X133069822Y-348675340D01*
X133018302Y-348845179D01*
X132934637Y-349001704D01*
X132905307Y-349037442D01*
X132822045Y-349138899D01*
X132744877Y-349202228D01*
X132684850Y-349251491D01*
X132528325Y-349335156D01*
X132358486Y-349386676D01*
X132292301Y-349393195D01*
X132226119Y-349399713D01*
X132137599Y-349399713D01*
X132071417Y-349393195D01*
X132005232Y-349386676D01*
X131835393Y-349335156D01*
X131678868Y-349251491D01*
X131618841Y-349202228D01*
X131541673Y-349138899D01*
X131458411Y-349037442D01*
X131429081Y-349001704D01*
X131345416Y-348845179D01*
X131293896Y-348675340D01*
X131276500Y-348498713D01*
X131293896Y-348322086D01*
X131345416Y-348152247D01*
X131429081Y-347995722D01*
X131458411Y-347959984D01*
X131541673Y-347858527D01*
X131643130Y-347775265D01*
X131678868Y-347745935D01*
X131835393Y-347662270D01*
X132005232Y-347610750D01*
X132071417Y-347604231D01*
X132137599Y-347597713D01*
X132226119Y-347597713D01*
X132292301Y-347604231D01*
X132292301Y-347604231D01*
G37*
G36*
X126950104Y-346499646D02*
G01*
X127118626Y-346569450D01*
X127270291Y-346670789D01*
X127399272Y-346799770D01*
X127500611Y-346951435D01*
X127570415Y-347119957D01*
X127606000Y-347298858D01*
X127606000Y-347481264D01*
X127570415Y-347660165D01*
X127500611Y-347828687D01*
X127399272Y-347980352D01*
X127270291Y-348109333D01*
X127118626Y-348210672D01*
X126950104Y-348280476D01*
X126771203Y-348316061D01*
X126588797Y-348316061D01*
X126409896Y-348280476D01*
X126241374Y-348210672D01*
X126089709Y-348109333D01*
X125960728Y-347980352D01*
X125859389Y-347828687D01*
X125789585Y-347660165D01*
X125754000Y-347481264D01*
X125754000Y-347298858D01*
X125789585Y-347119957D01*
X125859389Y-346951435D01*
X125960728Y-346799770D01*
X126089709Y-346670789D01*
X126241374Y-346569450D01*
X126409896Y-346499646D01*
X126588797Y-346464061D01*
X126771203Y-346464061D01*
X126950104Y-346499646D01*
X126950104Y-346499646D01*
G37*
G36*
X97726150Y-346499646D02*
G01*
X97894672Y-346569450D01*
X98046337Y-346670789D01*
X98175318Y-346799770D01*
X98276657Y-346951435D01*
X98346461Y-347119957D01*
X98382046Y-347298858D01*
X98382046Y-347481264D01*
X98346461Y-347660165D01*
X98276657Y-347828687D01*
X98175318Y-347980352D01*
X98046337Y-348109333D01*
X97894672Y-348210672D01*
X97726150Y-348280476D01*
X97547249Y-348316061D01*
X97364843Y-348316061D01*
X97185942Y-348280476D01*
X97017420Y-348210672D01*
X96865755Y-348109333D01*
X96736774Y-347980352D01*
X96635435Y-347828687D01*
X96565631Y-347660165D01*
X96530046Y-347481264D01*
X96530046Y-347298858D01*
X96565631Y-347119957D01*
X96635435Y-346951435D01*
X96736774Y-346799770D01*
X96865755Y-346670789D01*
X97017420Y-346569450D01*
X97185942Y-346499646D01*
X97364843Y-346464061D01*
X97547249Y-346464061D01*
X97726150Y-346499646D01*
X97726150Y-346499646D01*
G37*
G36*
X107886150Y-346499646D02*
G01*
X108054672Y-346569450D01*
X108206337Y-346670789D01*
X108335318Y-346799770D01*
X108436657Y-346951435D01*
X108506461Y-347119957D01*
X108542046Y-347298858D01*
X108542046Y-347481264D01*
X108506461Y-347660165D01*
X108436657Y-347828687D01*
X108335318Y-347980352D01*
X108206337Y-348109333D01*
X108054672Y-348210672D01*
X107886150Y-348280476D01*
X107707249Y-348316061D01*
X107524843Y-348316061D01*
X107345942Y-348280476D01*
X107177420Y-348210672D01*
X107025755Y-348109333D01*
X106896774Y-347980352D01*
X106795435Y-347828687D01*
X106725631Y-347660165D01*
X106690046Y-347481264D01*
X106690046Y-347298858D01*
X106725631Y-347119957D01*
X106795435Y-346951435D01*
X106896774Y-346799770D01*
X107025755Y-346670789D01*
X107177420Y-346569450D01*
X107345942Y-346499646D01*
X107524843Y-346464061D01*
X107707249Y-346464061D01*
X107886150Y-346499646D01*
X107886150Y-346499646D01*
G37*
G36*
X116790104Y-346499646D02*
G01*
X116958626Y-346569450D01*
X117110291Y-346670789D01*
X117239272Y-346799770D01*
X117340611Y-346951435D01*
X117410415Y-347119957D01*
X117446000Y-347298858D01*
X117446000Y-347481264D01*
X117410415Y-347660165D01*
X117340611Y-347828687D01*
X117239272Y-347980352D01*
X117110291Y-348109333D01*
X116958626Y-348210672D01*
X116790104Y-348280476D01*
X116611203Y-348316061D01*
X116428797Y-348316061D01*
X116249896Y-348280476D01*
X116081374Y-348210672D01*
X115929709Y-348109333D01*
X115800728Y-347980352D01*
X115699389Y-347828687D01*
X115629585Y-347660165D01*
X115594000Y-347481264D01*
X115594000Y-347298858D01*
X115629585Y-347119957D01*
X115699389Y-346951435D01*
X115800728Y-346799770D01*
X115929709Y-346670789D01*
X116081374Y-346569450D01*
X116249896Y-346499646D01*
X116428797Y-346464061D01*
X116611203Y-346464061D01*
X116790104Y-346499646D01*
X116790104Y-346499646D01*
G37*
G36*
X133082859Y-346859713D02*
G01*
X131280859Y-346859713D01*
X131280859Y-345057713D01*
X133082859Y-345057713D01*
X133082859Y-346859713D01*
X133082859Y-346859713D01*
G37*
G36*
X119123205Y-342213942D02*
G01*
X119128645Y-342214061D01*
X119215828Y-342214061D01*
X119232097Y-342217297D01*
X119250956Y-342219576D01*
X119267532Y-342220307D01*
X119352223Y-342241071D01*
X119357518Y-342242245D01*
X119443027Y-342259254D01*
X119458362Y-342265606D01*
X119476401Y-342271516D01*
X119492521Y-342275468D01*
X119571504Y-342312341D01*
X119576494Y-342314538D01*
X119657045Y-342347903D01*
X119670841Y-342357121D01*
X119687393Y-342366443D01*
X119702426Y-342373461D01*
X119772694Y-342425032D01*
X119777192Y-342428183D01*
X119849656Y-342476602D01*
X119861383Y-342488329D01*
X119875809Y-342500709D01*
X119889179Y-342510522D01*
X119889180Y-342510523D01*
X119948021Y-342574794D01*
X119951829Y-342578775D01*
X120013459Y-342640405D01*
X120022674Y-342654196D01*
X120034396Y-342669139D01*
X120045605Y-342681382D01*
X120090799Y-342755935D01*
X120093746Y-342760562D01*
X120142158Y-342833016D01*
X120148505Y-342848338D01*
X120157092Y-342865292D01*
X120165691Y-342879478D01*
X120195478Y-342961429D01*
X120197452Y-342966509D01*
X120230807Y-343047034D01*
X120230807Y-343047035D01*
X120234041Y-343063294D01*
X120239158Y-343081603D01*
X120244825Y-343097195D01*
X120258055Y-343183406D01*
X120259001Y-343188774D01*
X120276000Y-343274234D01*
X120276000Y-343290813D01*
X120277444Y-343309753D01*
X120279963Y-343326165D01*
X120276120Y-343413310D01*
X120276000Y-343418750D01*
X120276000Y-343505886D01*
X120272766Y-343522144D01*
X120270488Y-343541002D01*
X120269756Y-343557592D01*
X120248988Y-343642298D01*
X120247812Y-343647598D01*
X120230807Y-343733088D01*
X120224457Y-343748418D01*
X120218549Y-343766454D01*
X120214595Y-343782581D01*
X120177711Y-343861587D01*
X120175511Y-343866584D01*
X120142158Y-343947106D01*
X120132944Y-343960896D01*
X120123622Y-343977448D01*
X120116602Y-343992485D01*
X120065011Y-344062781D01*
X120061866Y-344067271D01*
X120013461Y-344139715D01*
X119956460Y-344196716D01*
X119951811Y-344201624D01*
X119520311Y-344682531D01*
X118626723Y-345678437D01*
X118498679Y-345795663D01*
X118399631Y-345855706D01*
X118300583Y-345915750D01*
X118082866Y-345994884D01*
X117853895Y-346030022D01*
X117622470Y-346019815D01*
X117397481Y-345964654D01*
X117292727Y-345915750D01*
X117187579Y-345866663D01*
X117090838Y-345795663D01*
X117000823Y-345729600D01*
X116926394Y-345648302D01*
X116844398Y-345558740D01*
X116762564Y-345423746D01*
X116724311Y-345360644D01*
X116645177Y-345142927D01*
X116610039Y-344913956D01*
X116620246Y-344682531D01*
X116675407Y-344457542D01*
X116726972Y-344347089D01*
X116773398Y-344247641D01*
X116773400Y-344247638D01*
X116876114Y-344107683D01*
X117631245Y-343266088D01*
X118162787Y-342673682D01*
X118173681Y-342659650D01*
X118186539Y-342640407D01*
X118243573Y-342583373D01*
X118248223Y-342578464D01*
X118263278Y-342561685D01*
X118284701Y-342542072D01*
X118288682Y-342538264D01*
X118350346Y-342476600D01*
X118364143Y-342467381D01*
X118379102Y-342455646D01*
X118391321Y-342444459D01*
X118423385Y-342425022D01*
X118465830Y-342399292D01*
X118470421Y-342396369D01*
X118542955Y-342347903D01*
X118558300Y-342341547D01*
X118575248Y-342332962D01*
X118589416Y-342324373D01*
X118589417Y-342324373D01*
X118589418Y-342324372D01*
X118671312Y-342294606D01*
X118676410Y-342292624D01*
X118756973Y-342259254D01*
X118773252Y-342256016D01*
X118791542Y-342250905D01*
X118807135Y-342245238D01*
X118893300Y-342232015D01*
X118898663Y-342231070D01*
X118984173Y-342214061D01*
X119000766Y-342214061D01*
X119019709Y-342212616D01*
X119036106Y-342210100D01*
X119123205Y-342213942D01*
X119123205Y-342213942D01*
G37*
G36*
X100059251Y-342213942D02*
G01*
X100064691Y-342214061D01*
X100151874Y-342214061D01*
X100168143Y-342217297D01*
X100187002Y-342219576D01*
X100203578Y-342220307D01*
X100288269Y-342241071D01*
X100293564Y-342242245D01*
X100379073Y-342259254D01*
X100394408Y-342265606D01*
X100412447Y-342271516D01*
X100428567Y-342275468D01*
X100507550Y-342312341D01*
X100512540Y-342314538D01*
X100593091Y-342347903D01*
X100606887Y-342357121D01*
X100623439Y-342366443D01*
X100638472Y-342373461D01*
X100708740Y-342425032D01*
X100713238Y-342428183D01*
X100785702Y-342476602D01*
X100797429Y-342488329D01*
X100811855Y-342500709D01*
X100825225Y-342510522D01*
X100825226Y-342510523D01*
X100884067Y-342574794D01*
X100887875Y-342578775D01*
X100949505Y-342640405D01*
X100958720Y-342654196D01*
X100970442Y-342669139D01*
X100981651Y-342681382D01*
X101026845Y-342755935D01*
X101029792Y-342760562D01*
X101078204Y-342833016D01*
X101084551Y-342848338D01*
X101093138Y-342865292D01*
X101101737Y-342879478D01*
X101131524Y-342961429D01*
X101133498Y-342966509D01*
X101166853Y-343047034D01*
X101166853Y-343047035D01*
X101170087Y-343063294D01*
X101175204Y-343081603D01*
X101180871Y-343097195D01*
X101194101Y-343183406D01*
X101195047Y-343188774D01*
X101212046Y-343274234D01*
X101212046Y-343290813D01*
X101213490Y-343309753D01*
X101216009Y-343326165D01*
X101212166Y-343413310D01*
X101212046Y-343418750D01*
X101212046Y-343505886D01*
X101208812Y-343522144D01*
X101206534Y-343541002D01*
X101205802Y-343557592D01*
X101185034Y-343642298D01*
X101183858Y-343647598D01*
X101166853Y-343733088D01*
X101160503Y-343748418D01*
X101154595Y-343766454D01*
X101150641Y-343782581D01*
X101113757Y-343861587D01*
X101111557Y-343866584D01*
X101078204Y-343947106D01*
X101068990Y-343960896D01*
X101059668Y-343977448D01*
X101052648Y-343992485D01*
X101001057Y-344062781D01*
X100997912Y-344067271D01*
X100949507Y-344139715D01*
X100892506Y-344196716D01*
X100887857Y-344201624D01*
X100456357Y-344682531D01*
X99562769Y-345678437D01*
X99434725Y-345795663D01*
X99335677Y-345855706D01*
X99236629Y-345915750D01*
X99018912Y-345994884D01*
X98789941Y-346030022D01*
X98558516Y-346019815D01*
X98333527Y-345964654D01*
X98228773Y-345915750D01*
X98123625Y-345866663D01*
X98026884Y-345795663D01*
X97936869Y-345729600D01*
X97862440Y-345648302D01*
X97780444Y-345558740D01*
X97698610Y-345423746D01*
X97660357Y-345360644D01*
X97581223Y-345142927D01*
X97546085Y-344913956D01*
X97556292Y-344682531D01*
X97611453Y-344457542D01*
X97663018Y-344347089D01*
X97709444Y-344247641D01*
X97709446Y-344247638D01*
X97812160Y-344107683D01*
X98567291Y-343266088D01*
X99098833Y-342673682D01*
X99109727Y-342659650D01*
X99122585Y-342640407D01*
X99179619Y-342583373D01*
X99184269Y-342578464D01*
X99199324Y-342561685D01*
X99220747Y-342542072D01*
X99224728Y-342538264D01*
X99286392Y-342476600D01*
X99300189Y-342467381D01*
X99315148Y-342455646D01*
X99327367Y-342444459D01*
X99359431Y-342425022D01*
X99401876Y-342399292D01*
X99406467Y-342396369D01*
X99479001Y-342347903D01*
X99494346Y-342341547D01*
X99511294Y-342332962D01*
X99525462Y-342324373D01*
X99525463Y-342324373D01*
X99525464Y-342324372D01*
X99607358Y-342294606D01*
X99612456Y-342292624D01*
X99693019Y-342259254D01*
X99709298Y-342256016D01*
X99727588Y-342250905D01*
X99743181Y-342245238D01*
X99829346Y-342232015D01*
X99834709Y-342231070D01*
X99920219Y-342214061D01*
X99936812Y-342214061D01*
X99955755Y-342212616D01*
X99972152Y-342210100D01*
X100059251Y-342213942D01*
X100059251Y-342213942D01*
G37*
G36*
X124228127Y-341132322D02*
G01*
X124248900Y-341134061D01*
X124255827Y-341134061D01*
X124350754Y-341152943D01*
X124354348Y-341153603D01*
X124449730Y-341169685D01*
X124456203Y-341172146D01*
X124476228Y-341177902D01*
X124483027Y-341179254D01*
X124545414Y-341205095D01*
X124572443Y-341216291D01*
X124575844Y-341217642D01*
X124666255Y-341252022D01*
X124672127Y-341255701D01*
X124690636Y-341265248D01*
X124697045Y-341267903D01*
X124777563Y-341321703D01*
X124780554Y-341323639D01*
X124862557Y-341375020D01*
X124867584Y-341379761D01*
X124883896Y-341392752D01*
X124889652Y-341396598D01*
X124958110Y-341465056D01*
X124960689Y-341467560D01*
X125031090Y-341533950D01*
X125035095Y-341539580D01*
X125048559Y-341555505D01*
X125053459Y-341560405D01*
X125107244Y-341640900D01*
X125109291Y-341643868D01*
X125165380Y-341722706D01*
X125168214Y-341729019D01*
X125178308Y-341747254D01*
X125182158Y-341753016D01*
X125219220Y-341842491D01*
X125220624Y-341845746D01*
X125260265Y-341934034D01*
X125261815Y-341940786D01*
X125268152Y-341960623D01*
X125270807Y-341967034D01*
X125289692Y-342061978D01*
X125290438Y-342065462D01*
X125312098Y-342159812D01*
X125312098Y-342159815D01*
X125312300Y-342166715D01*
X125314647Y-342187431D01*
X125316000Y-342194235D01*
X125316000Y-342291047D01*
X125316053Y-342294645D01*
X125317188Y-342333338D01*
X125316295Y-342346286D01*
X125316000Y-342354858D01*
X125316000Y-342425887D01*
X125310081Y-342455646D01*
X125309604Y-342458040D01*
X125307500Y-342473811D01*
X125269238Y-343028606D01*
X125240376Y-343199791D01*
X125158038Y-343416316D01*
X125035041Y-343612618D01*
X124876111Y-343781151D01*
X124687355Y-343915441D01*
X124476027Y-344010326D01*
X124250249Y-344062159D01*
X124018698Y-344068950D01*
X124018697Y-344068950D01*
X123973012Y-344061247D01*
X123790270Y-344030437D01*
X123573745Y-343948099D01*
X123377443Y-343825102D01*
X123208910Y-343666172D01*
X123074620Y-343477416D01*
X122979735Y-343266088D01*
X122927902Y-343040310D01*
X122922812Y-342866784D01*
X122963704Y-342273855D01*
X122964000Y-342265257D01*
X122964000Y-342194236D01*
X122982882Y-342099311D01*
X122983544Y-342095706D01*
X122989231Y-342061978D01*
X122999624Y-342000331D01*
X123002085Y-341993860D01*
X123007842Y-341973828D01*
X123009193Y-341967035D01*
X123011843Y-341960637D01*
X123046264Y-341877537D01*
X123047553Y-341874291D01*
X123081962Y-341783806D01*
X123085636Y-341777942D01*
X123095187Y-341759426D01*
X123097842Y-341753016D01*
X123151657Y-341672476D01*
X123153577Y-341669510D01*
X123204959Y-341587504D01*
X123209711Y-341582465D01*
X123222689Y-341566168D01*
X123226537Y-341560409D01*
X123294993Y-341491953D01*
X123297546Y-341489323D01*
X123318023Y-341467609D01*
X123363889Y-341418971D01*
X123369521Y-341414964D01*
X123385447Y-341401499D01*
X123390346Y-341396600D01*
X123470824Y-341342827D01*
X123473806Y-341340771D01*
X123552645Y-341284681D01*
X123558955Y-341281848D01*
X123577194Y-341271752D01*
X123582951Y-341267905D01*
X123582954Y-341267904D01*
X123582955Y-341267903D01*
X123672429Y-341230842D01*
X123675687Y-341229436D01*
X123763973Y-341189796D01*
X123770725Y-341188246D01*
X123790562Y-341181909D01*
X123796973Y-341179254D01*
X123891899Y-341160372D01*
X123895446Y-341159612D01*
X123989751Y-341137962D01*
X123992130Y-341137892D01*
X123996665Y-341137759D01*
X124017381Y-341135412D01*
X124024174Y-341134061D01*
X124120959Y-341134061D01*
X124124584Y-341134008D01*
X124221302Y-341131171D01*
X124228127Y-341132322D01*
X124228127Y-341132322D01*
G37*
G36*
X105164173Y-341132322D02*
G01*
X105184946Y-341134061D01*
X105191873Y-341134061D01*
X105286800Y-341152943D01*
X105290394Y-341153603D01*
X105385776Y-341169685D01*
X105392249Y-341172146D01*
X105412274Y-341177902D01*
X105419073Y-341179254D01*
X105481460Y-341205095D01*
X105508489Y-341216291D01*
X105511890Y-341217642D01*
X105602301Y-341252022D01*
X105608173Y-341255701D01*
X105626682Y-341265248D01*
X105633091Y-341267903D01*
X105713609Y-341321703D01*
X105716600Y-341323639D01*
X105798603Y-341375020D01*
X105803630Y-341379761D01*
X105819942Y-341392752D01*
X105825698Y-341396598D01*
X105894156Y-341465056D01*
X105896735Y-341467560D01*
X105967136Y-341533950D01*
X105971141Y-341539580D01*
X105984605Y-341555505D01*
X105989505Y-341560405D01*
X106043290Y-341640900D01*
X106045337Y-341643868D01*
X106101426Y-341722706D01*
X106104260Y-341729019D01*
X106114354Y-341747254D01*
X106118204Y-341753016D01*
X106155266Y-341842491D01*
X106156670Y-341845746D01*
X106196311Y-341934034D01*
X106197861Y-341940786D01*
X106204198Y-341960623D01*
X106206853Y-341967034D01*
X106225738Y-342061978D01*
X106226484Y-342065462D01*
X106248144Y-342159812D01*
X106248144Y-342159815D01*
X106248346Y-342166715D01*
X106250693Y-342187431D01*
X106252046Y-342194235D01*
X106252046Y-342291047D01*
X106252099Y-342294645D01*
X106253234Y-342333338D01*
X106252341Y-342346286D01*
X106252046Y-342354858D01*
X106252046Y-342425887D01*
X106246127Y-342455646D01*
X106245650Y-342458040D01*
X106243546Y-342473811D01*
X106205284Y-343028606D01*
X106176422Y-343199791D01*
X106094084Y-343416316D01*
X105971087Y-343612618D01*
X105812157Y-343781151D01*
X105623401Y-343915441D01*
X105412073Y-344010326D01*
X105186295Y-344062159D01*
X104954744Y-344068950D01*
X104954743Y-344068950D01*
X104909058Y-344061247D01*
X104726316Y-344030437D01*
X104509791Y-343948099D01*
X104313489Y-343825102D01*
X104144956Y-343666172D01*
X104010666Y-343477416D01*
X103915781Y-343266088D01*
X103863948Y-343040310D01*
X103858858Y-342866784D01*
X103899750Y-342273855D01*
X103900046Y-342265257D01*
X103900046Y-342194236D01*
X103918928Y-342099311D01*
X103919590Y-342095706D01*
X103925277Y-342061978D01*
X103935670Y-342000331D01*
X103938131Y-341993860D01*
X103943888Y-341973828D01*
X103945239Y-341967035D01*
X103947889Y-341960637D01*
X103982310Y-341877537D01*
X103983599Y-341874291D01*
X104018008Y-341783806D01*
X104021682Y-341777942D01*
X104031233Y-341759426D01*
X104033888Y-341753016D01*
X104087703Y-341672476D01*
X104089623Y-341669510D01*
X104141005Y-341587504D01*
X104145757Y-341582465D01*
X104158735Y-341566168D01*
X104162583Y-341560409D01*
X104231039Y-341491953D01*
X104233592Y-341489323D01*
X104254069Y-341467609D01*
X104299935Y-341418971D01*
X104305567Y-341414964D01*
X104321493Y-341401499D01*
X104326392Y-341396600D01*
X104406870Y-341342827D01*
X104409852Y-341340771D01*
X104488691Y-341284681D01*
X104495001Y-341281848D01*
X104513240Y-341271752D01*
X104518997Y-341267905D01*
X104519000Y-341267904D01*
X104519001Y-341267903D01*
X104608475Y-341230842D01*
X104611733Y-341229436D01*
X104700019Y-341189796D01*
X104706771Y-341188246D01*
X104726608Y-341181909D01*
X104733019Y-341179254D01*
X104827945Y-341160372D01*
X104831492Y-341159612D01*
X104925797Y-341137962D01*
X104928176Y-341137892D01*
X104932711Y-341137759D01*
X104953427Y-341135412D01*
X104960220Y-341134061D01*
X105057005Y-341134061D01*
X105060630Y-341134008D01*
X105157348Y-341131171D01*
X105164173Y-341132322D01*
X105164173Y-341132322D01*
G37*
G36*
X120690276Y-336127694D02*
G01*
X118949678Y-336594086D01*
X118483286Y-334853488D01*
X120223884Y-334387096D01*
X120690276Y-336127694D01*
X120690276Y-336127694D01*
G37*
G36*
X122150676Y-333938710D02*
G01*
X122216860Y-333945228D01*
X122386699Y-333996748D01*
X122543224Y-334080413D01*
X122578962Y-334109743D01*
X122680419Y-334193005D01*
X122763681Y-334294462D01*
X122793011Y-334330200D01*
X122876676Y-334486725D01*
X122928196Y-334656564D01*
X122945592Y-334833191D01*
X122928196Y-335009818D01*
X122876676Y-335179657D01*
X122793011Y-335336182D01*
X122763681Y-335371920D01*
X122680419Y-335473377D01*
X122578962Y-335556639D01*
X122543224Y-335585969D01*
X122386699Y-335669634D01*
X122216860Y-335721154D01*
X122150675Y-335727673D01*
X122084493Y-335734191D01*
X121995973Y-335734191D01*
X121929791Y-335727673D01*
X121863606Y-335721154D01*
X121693767Y-335669634D01*
X121537242Y-335585969D01*
X121501504Y-335556639D01*
X121400047Y-335473377D01*
X121316785Y-335371920D01*
X121287455Y-335336182D01*
X121203790Y-335179657D01*
X121152270Y-335009818D01*
X121134874Y-334833191D01*
X121152270Y-334656564D01*
X121203790Y-334486725D01*
X121287455Y-334330200D01*
X121316785Y-334294462D01*
X121400047Y-334193005D01*
X121501504Y-334109743D01*
X121537242Y-334080413D01*
X121693767Y-333996748D01*
X121863606Y-333945228D01*
X121929790Y-333938710D01*
X121995973Y-333932191D01*
X122084493Y-333932191D01*
X122150676Y-333938710D01*
X122150676Y-333938710D01*
G37*
G36*
X124604126Y-333281308D02*
G01*
X124670311Y-333287827D01*
X124840150Y-333339347D01*
X124996675Y-333423012D01*
X125032413Y-333452342D01*
X125133870Y-333535604D01*
X125217132Y-333637061D01*
X125246462Y-333672799D01*
X125330127Y-333829324D01*
X125381647Y-333999163D01*
X125399043Y-334175790D01*
X125381647Y-334352417D01*
X125330127Y-334522256D01*
X125246462Y-334678781D01*
X125217132Y-334714519D01*
X125133870Y-334815976D01*
X125032413Y-334899238D01*
X124996675Y-334928568D01*
X124840150Y-335012233D01*
X124670311Y-335063753D01*
X124604127Y-335070271D01*
X124537944Y-335076790D01*
X124449424Y-335076790D01*
X124383241Y-335070271D01*
X124317057Y-335063753D01*
X124147218Y-335012233D01*
X123990693Y-334928568D01*
X123954955Y-334899238D01*
X123853498Y-334815976D01*
X123770236Y-334714519D01*
X123740906Y-334678781D01*
X123657241Y-334522256D01*
X123605721Y-334352417D01*
X123588325Y-334175790D01*
X123605721Y-333999163D01*
X123657241Y-333829324D01*
X123740906Y-333672799D01*
X123770236Y-333637061D01*
X123853498Y-333535604D01*
X123954955Y-333452342D01*
X123990693Y-333423012D01*
X124147218Y-333339347D01*
X124317057Y-333287827D01*
X124383242Y-333281308D01*
X124449424Y-333274790D01*
X124537944Y-333274790D01*
X124604126Y-333281308D01*
X124604126Y-333281308D01*
G37*
G36*
X127057578Y-332623908D02*
G01*
X127123763Y-332630427D01*
X127293602Y-332681947D01*
X127450127Y-332765612D01*
X127485865Y-332794942D01*
X127587322Y-332878204D01*
X127670584Y-332979661D01*
X127699914Y-333015399D01*
X127783579Y-333171924D01*
X127835099Y-333341763D01*
X127852495Y-333518390D01*
X127835099Y-333695017D01*
X127783579Y-333864856D01*
X127699914Y-334021381D01*
X127670584Y-334057119D01*
X127587322Y-334158576D01*
X127485865Y-334241838D01*
X127450127Y-334271168D01*
X127293602Y-334354833D01*
X127123763Y-334406353D01*
X127057579Y-334412871D01*
X126991396Y-334419390D01*
X126902876Y-334419390D01*
X126836693Y-334412871D01*
X126770509Y-334406353D01*
X126600670Y-334354833D01*
X126444145Y-334271168D01*
X126408407Y-334241838D01*
X126306950Y-334158576D01*
X126223688Y-334057119D01*
X126194358Y-334021381D01*
X126110693Y-333864856D01*
X126059173Y-333695017D01*
X126041777Y-333518390D01*
X126059173Y-333341763D01*
X126110693Y-333171924D01*
X126194358Y-333015399D01*
X126223688Y-332979661D01*
X126306950Y-332878204D01*
X126408407Y-332794942D01*
X126444145Y-332765612D01*
X126600670Y-332681947D01*
X126770509Y-332630427D01*
X126836694Y-332623908D01*
X126902876Y-332617390D01*
X126991396Y-332617390D01*
X127057578Y-332623908D01*
X127057578Y-332623908D01*
G37*
M02*
