%FSLAX45Y45*%
G04 Gerber Fmt 4.5, Leading zero omitted, Abs format (unit mm)*
G04 Created by KiCad (PCBNEW (5.1.4)-1) date 2023-05-19 09:15:45*
%MOMM*%
%LPD*%
G04 APERTURE LIST*
%ADD10C,0.050000*%
%ADD11C,0.200000*%
%ADD12C,0.300000*%
G04 APERTURE END LIST*
D10*
X12532750Y-35852116D02*
X9262855Y-35847530D01*
X9208529Y-35792053D02*
X9208919Y-34818850D01*
X9208529Y-35792053D02*
X9262855Y-35847530D01*
X9514138Y-34562556D02*
X9515320Y-34170437D01*
X9208919Y-34818850D02*
X9514138Y-34562556D01*
X12743842Y-33195619D02*
X9671144Y-34020338D01*
X13111744Y-34032786D02*
X12921139Y-33326217D01*
X12921139Y-33326217D02*
X12743842Y-33195619D01*
X13111744Y-34032786D02*
X13400615Y-34416131D01*
X13401145Y-35530132D02*
X13400615Y-34416131D01*
X13401145Y-35530132D02*
X12532750Y-35852116D01*
X9671144Y-34020338D02*
X9515320Y-34170437D01*
D11*
X9817067Y-35667457D02*
X9917067Y-35767457D01*
X9917067Y-35667457D02*
X9817067Y-35767457D01*
X10071067Y-35667457D02*
X10171067Y-35767457D01*
X10171067Y-35667457D02*
X10071067Y-35767457D01*
X10325067Y-35667457D02*
X10425067Y-35767457D01*
X10425067Y-35667457D02*
X10325067Y-35767457D01*
X10579067Y-35667457D02*
X10679067Y-35767457D01*
X10679067Y-35667457D02*
X10579067Y-35767457D01*
X11908678Y-33499059D02*
X12008678Y-33599059D01*
X12008678Y-33499059D02*
X11908678Y-33599059D01*
X12154023Y-33433319D02*
X12254023Y-33533319D01*
X12254023Y-33433319D02*
X12154023Y-33533319D01*
X12399368Y-33367579D02*
X12499368Y-33467579D01*
X12499368Y-33367579D02*
X12399368Y-33467579D01*
X12644714Y-33301839D02*
X12744714Y-33401839D01*
X12744714Y-33301839D02*
X12644714Y-33401839D01*
X13168186Y-34545871D02*
X13268186Y-34645871D01*
X13268186Y-34545871D02*
X13168186Y-34645871D01*
X13168186Y-34799871D02*
X13268186Y-34899871D01*
X13268186Y-34799871D02*
X13168186Y-34899871D01*
X13168186Y-35053871D02*
X13268186Y-35153871D01*
X13268186Y-35053871D02*
X13168186Y-35153871D01*
X13168186Y-35307871D02*
X13268186Y-35407871D01*
X13268186Y-35307871D02*
X13168186Y-35407871D01*
X9296338Y-34895789D02*
X9396338Y-34995789D01*
X9396338Y-34895789D02*
X9296338Y-34995789D01*
X9296338Y-35149789D02*
X9396338Y-35249789D01*
X9396338Y-35149789D02*
X9296338Y-35249789D01*
X9296338Y-35403789D02*
X9396338Y-35503789D01*
X9396338Y-35403789D02*
X9296338Y-35503789D01*
X9296338Y-35657789D02*
X9396338Y-35757789D01*
X9396338Y-35657789D02*
X9296338Y-35757789D01*
X11852500Y-34485006D02*
G75*
G03X11852500Y-34485006I-73500J0D01*
G01*
X11983500Y-34339006D02*
G75*
G03X11983500Y-34339006I-73500J0D01*
G01*
X12483500Y-34289006D02*
G75*
G03X12483500Y-34289006I-73500J0D01*
G01*
X12487500Y-34231006D02*
G75*
G03X12487500Y-34231006I-73500J0D01*
G01*
X9946105Y-34485006D02*
G75*
G03X9946105Y-34485006I-73500J0D01*
G01*
X10077105Y-34339006D02*
G75*
G03X10077105Y-34339006I-73500J0D01*
G01*
X10577105Y-34289006D02*
G75*
G03X10577105Y-34289006I-73500J0D01*
G01*
X10581105Y-34231006D02*
G75*
G03X10581105Y-34231006I-73500J0D01*
G01*
D12*
X9492457Y-36320330D02*
X9492457Y-36020330D01*
X9563886Y-36020330D01*
X9606743Y-36034616D01*
X9635314Y-36063188D01*
X9649600Y-36091759D01*
X9663886Y-36148902D01*
X9663886Y-36191759D01*
X9649600Y-36248902D01*
X9635314Y-36277473D01*
X9606743Y-36306045D01*
X9563886Y-36320330D01*
X9492457Y-36320330D01*
X9792457Y-36320330D02*
X9792457Y-36120330D01*
X9792457Y-36177473D02*
X9806743Y-36148902D01*
X9821029Y-36134616D01*
X9849600Y-36120330D01*
X9878172Y-36120330D01*
X9978172Y-36320330D02*
X9978172Y-36120330D01*
X9978172Y-36020330D02*
X9963886Y-36034616D01*
X9978172Y-36048902D01*
X9992457Y-36034616D01*
X9978172Y-36020330D01*
X9978172Y-36048902D01*
X10163886Y-36320330D02*
X10135314Y-36306045D01*
X10121029Y-36277473D01*
X10121029Y-36020330D01*
X10321029Y-36320330D02*
X10292457Y-36306045D01*
X10278172Y-36277473D01*
X10278172Y-36020330D01*
X10663886Y-36320330D02*
X10663886Y-36020330D01*
X10763886Y-36234616D01*
X10863886Y-36020330D01*
X10863886Y-36320330D01*
X11135314Y-36320330D02*
X11135314Y-36163188D01*
X11121029Y-36134616D01*
X11092457Y-36120330D01*
X11035314Y-36120330D01*
X11006743Y-36134616D01*
X11135314Y-36306045D02*
X11106743Y-36320330D01*
X11035314Y-36320330D01*
X11006743Y-36306045D01*
X10992457Y-36277473D01*
X10992457Y-36248902D01*
X11006743Y-36220330D01*
X11035314Y-36206045D01*
X11106743Y-36206045D01*
X11135314Y-36191759D01*
X11278171Y-36120330D02*
X11278171Y-36420330D01*
X11278171Y-36134616D02*
X11306743Y-36120330D01*
X11363886Y-36120330D01*
X11392457Y-36134616D01*
X11406743Y-36148902D01*
X11421029Y-36177473D01*
X11421029Y-36263188D01*
X11406743Y-36291759D01*
X11392457Y-36306045D01*
X11363886Y-36320330D01*
X11306743Y-36320330D01*
X11278171Y-36306045D01*
X11549600Y-36291759D02*
X11563886Y-36306045D01*
X11549600Y-36320330D01*
X11535314Y-36306045D01*
X11549600Y-36291759D01*
X11549600Y-36320330D01*
X11549600Y-36134616D02*
X11563886Y-36148902D01*
X11549600Y-36163188D01*
X11535314Y-36148902D01*
X11549600Y-36134616D01*
X11549600Y-36163188D01*
X9106029Y-36764616D02*
X9206029Y-36864616D01*
X9206029Y-36764616D02*
X9106029Y-36864616D01*
X9649600Y-36950330D02*
X9478172Y-36950330D01*
X9563886Y-36950330D02*
X9563886Y-36650330D01*
X9535314Y-36693188D01*
X9506743Y-36721759D01*
X9478172Y-36736045D01*
X9778172Y-36921759D02*
X9792457Y-36936045D01*
X9778172Y-36950330D01*
X9763886Y-36936045D01*
X9778172Y-36921759D01*
X9778172Y-36950330D01*
X9978172Y-36650330D02*
X10006743Y-36650330D01*
X10035314Y-36664616D01*
X10049600Y-36678902D01*
X10063886Y-36707473D01*
X10078172Y-36764616D01*
X10078172Y-36836045D01*
X10063886Y-36893188D01*
X10049600Y-36921759D01*
X10035314Y-36936045D01*
X10006743Y-36950330D01*
X9978172Y-36950330D01*
X9949600Y-36936045D01*
X9935314Y-36921759D01*
X9921029Y-36893188D01*
X9906743Y-36836045D01*
X9906743Y-36764616D01*
X9921029Y-36707473D01*
X9935314Y-36678902D01*
X9949600Y-36664616D01*
X9978172Y-36650330D01*
X10263886Y-36650330D02*
X10292457Y-36650330D01*
X10321029Y-36664616D01*
X10335314Y-36678902D01*
X10349600Y-36707473D01*
X10363886Y-36764616D01*
X10363886Y-36836045D01*
X10349600Y-36893188D01*
X10335314Y-36921759D01*
X10321029Y-36936045D01*
X10292457Y-36950330D01*
X10263886Y-36950330D01*
X10235314Y-36936045D01*
X10221029Y-36921759D01*
X10206743Y-36893188D01*
X10192457Y-36836045D01*
X10192457Y-36764616D01*
X10206743Y-36707473D01*
X10221029Y-36678902D01*
X10235314Y-36664616D01*
X10263886Y-36650330D01*
X10492457Y-36950330D02*
X10492457Y-36750330D01*
X10492457Y-36778902D02*
X10506743Y-36764616D01*
X10535314Y-36750330D01*
X10578172Y-36750330D01*
X10606743Y-36764616D01*
X10621029Y-36793188D01*
X10621029Y-36950330D01*
X10621029Y-36793188D02*
X10635314Y-36764616D01*
X10663886Y-36750330D01*
X10706743Y-36750330D01*
X10735314Y-36764616D01*
X10749600Y-36793188D01*
X10749600Y-36950330D01*
X10892457Y-36950330D02*
X10892457Y-36750330D01*
X10892457Y-36778902D02*
X10906743Y-36764616D01*
X10935314Y-36750330D01*
X10978172Y-36750330D01*
X11006743Y-36764616D01*
X11021029Y-36793188D01*
X11021029Y-36950330D01*
X11021029Y-36793188D02*
X11035314Y-36764616D01*
X11063886Y-36750330D01*
X11106743Y-36750330D01*
X11135314Y-36764616D01*
X11149600Y-36793188D01*
X11149600Y-36950330D01*
X11735314Y-36636045D02*
X11478171Y-37021759D01*
X12121029Y-36650330D02*
X12149600Y-36650330D01*
X12178171Y-36664616D01*
X12192457Y-36678902D01*
X12206743Y-36707473D01*
X12221029Y-36764616D01*
X12221029Y-36836045D01*
X12206743Y-36893188D01*
X12192457Y-36921759D01*
X12178171Y-36936045D01*
X12149600Y-36950330D01*
X12121029Y-36950330D01*
X12092457Y-36936045D01*
X12078171Y-36921759D01*
X12063886Y-36893188D01*
X12049600Y-36836045D01*
X12049600Y-36764616D01*
X12063886Y-36707473D01*
X12078171Y-36678902D01*
X12092457Y-36664616D01*
X12121029Y-36650330D01*
X12349600Y-36921759D02*
X12363886Y-36936045D01*
X12349600Y-36950330D01*
X12335314Y-36936045D01*
X12349600Y-36921759D01*
X12349600Y-36950330D01*
X12549600Y-36650330D02*
X12578171Y-36650330D01*
X12606743Y-36664616D01*
X12621029Y-36678902D01*
X12635314Y-36707473D01*
X12649600Y-36764616D01*
X12649600Y-36836045D01*
X12635314Y-36893188D01*
X12621029Y-36921759D01*
X12606743Y-36936045D01*
X12578171Y-36950330D01*
X12549600Y-36950330D01*
X12521029Y-36936045D01*
X12506743Y-36921759D01*
X12492457Y-36893188D01*
X12478171Y-36836045D01*
X12478171Y-36764616D01*
X12492457Y-36707473D01*
X12506743Y-36678902D01*
X12521029Y-36664616D01*
X12549600Y-36650330D01*
X12749600Y-36650330D02*
X12935314Y-36650330D01*
X12835314Y-36764616D01*
X12878171Y-36764616D01*
X12906743Y-36778902D01*
X12921029Y-36793188D01*
X12935314Y-36821759D01*
X12935314Y-36893188D01*
X12921029Y-36921759D01*
X12906743Y-36936045D01*
X12878171Y-36950330D01*
X12792457Y-36950330D01*
X12763886Y-36936045D01*
X12749600Y-36921759D01*
X13078171Y-36950330D02*
X13135314Y-36950330D01*
X13163886Y-36936045D01*
X13178171Y-36921759D01*
X13206743Y-36878902D01*
X13221029Y-36821759D01*
X13221029Y-36707473D01*
X13206743Y-36678902D01*
X13192457Y-36664616D01*
X13163886Y-36650330D01*
X13106743Y-36650330D01*
X13078171Y-36664616D01*
X13063886Y-36678902D01*
X13049600Y-36707473D01*
X13049600Y-36778902D01*
X13063886Y-36807473D01*
X13078171Y-36821759D01*
X13106743Y-36836045D01*
X13163886Y-36836045D01*
X13192457Y-36821759D01*
X13206743Y-36807473D01*
X13221029Y-36778902D01*
X13335314Y-36650330D02*
X13335314Y-36707473D01*
X13449600Y-36650330D02*
X13449600Y-36707473D01*
X13892457Y-37064616D02*
X13878171Y-37050330D01*
X13849600Y-37007473D01*
X13835314Y-36978902D01*
X13821029Y-36936045D01*
X13806743Y-36864616D01*
X13806743Y-36807473D01*
X13821029Y-36736045D01*
X13835314Y-36693188D01*
X13849600Y-36664616D01*
X13878171Y-36621759D01*
X13892457Y-36607473D01*
X14163886Y-36950330D02*
X13992457Y-36950330D01*
X14078171Y-36950330D02*
X14078171Y-36650330D01*
X14049600Y-36693188D01*
X14021029Y-36721759D01*
X13992457Y-36736045D01*
X14421029Y-36650330D02*
X14363886Y-36650330D01*
X14335314Y-36664616D01*
X14321029Y-36678902D01*
X14292457Y-36721759D01*
X14278171Y-36778902D01*
X14278171Y-36893188D01*
X14292457Y-36921759D01*
X14306743Y-36936045D01*
X14335314Y-36950330D01*
X14392457Y-36950330D01*
X14421029Y-36936045D01*
X14435314Y-36921759D01*
X14449600Y-36893188D01*
X14449600Y-36821759D01*
X14435314Y-36793188D01*
X14421029Y-36778902D01*
X14392457Y-36764616D01*
X14335314Y-36764616D01*
X14306743Y-36778902D01*
X14292457Y-36793188D01*
X14278171Y-36821759D01*
X14806743Y-36950330D02*
X14806743Y-36650330D01*
X14935314Y-36950330D02*
X14935314Y-36793188D01*
X14921029Y-36764616D01*
X14892457Y-36750330D01*
X14849600Y-36750330D01*
X14821029Y-36764616D01*
X14806743Y-36778902D01*
X15121029Y-36950330D02*
X15092457Y-36936045D01*
X15078171Y-36921759D01*
X15063886Y-36893188D01*
X15063886Y-36807473D01*
X15078171Y-36778902D01*
X15092457Y-36764616D01*
X15121029Y-36750330D01*
X15163886Y-36750330D01*
X15192457Y-36764616D01*
X15206743Y-36778902D01*
X15221029Y-36807473D01*
X15221029Y-36893188D01*
X15206743Y-36921759D01*
X15192457Y-36936045D01*
X15163886Y-36950330D01*
X15121029Y-36950330D01*
X15392457Y-36950330D02*
X15363886Y-36936045D01*
X15349600Y-36907473D01*
X15349600Y-36650330D01*
X15621029Y-36936045D02*
X15592457Y-36950330D01*
X15535314Y-36950330D01*
X15506743Y-36936045D01*
X15492457Y-36907473D01*
X15492457Y-36793188D01*
X15506743Y-36764616D01*
X15535314Y-36750330D01*
X15592457Y-36750330D01*
X15621029Y-36764616D01*
X15635314Y-36793188D01*
X15635314Y-36821759D01*
X15492457Y-36850330D01*
X15749600Y-36936045D02*
X15778171Y-36950330D01*
X15835314Y-36950330D01*
X15863886Y-36936045D01*
X15878171Y-36907473D01*
X15878171Y-36893188D01*
X15863886Y-36864616D01*
X15835314Y-36850330D01*
X15792457Y-36850330D01*
X15763886Y-36836045D01*
X15749600Y-36807473D01*
X15749600Y-36793188D01*
X15763886Y-36764616D01*
X15792457Y-36750330D01*
X15835314Y-36750330D01*
X15863886Y-36764616D01*
X15978171Y-37064616D02*
X15992457Y-37050330D01*
X16021029Y-37007473D01*
X16035314Y-36978902D01*
X16049600Y-36936045D01*
X16063886Y-36864616D01*
X16063886Y-36807473D01*
X16049600Y-36736045D01*
X16035314Y-36693188D01*
X16021029Y-36664616D01*
X15992457Y-36621759D01*
X15978171Y-36607473D01*
X9206029Y-37210616D02*
G75*
G03X9206029Y-37210616I-73500J0D01*
G01*
X9649600Y-37346330D02*
X9478172Y-37346330D01*
X9563886Y-37346330D02*
X9563886Y-37046330D01*
X9535314Y-37089188D01*
X9506743Y-37117759D01*
X9478172Y-37132045D01*
X9778172Y-37317759D02*
X9792457Y-37332045D01*
X9778172Y-37346330D01*
X9763886Y-37332045D01*
X9778172Y-37317759D01*
X9778172Y-37346330D01*
X10049600Y-37146330D02*
X10049600Y-37346330D01*
X9978172Y-37032045D02*
X9906743Y-37246330D01*
X10092457Y-37246330D01*
X10178172Y-37046330D02*
X10378172Y-37046330D01*
X10249600Y-37346330D01*
X10492457Y-37346330D02*
X10492457Y-37146330D01*
X10492457Y-37174902D02*
X10506743Y-37160616D01*
X10535314Y-37146330D01*
X10578172Y-37146330D01*
X10606743Y-37160616D01*
X10621029Y-37189188D01*
X10621029Y-37346330D01*
X10621029Y-37189188D02*
X10635314Y-37160616D01*
X10663886Y-37146330D01*
X10706743Y-37146330D01*
X10735314Y-37160616D01*
X10749600Y-37189188D01*
X10749600Y-37346330D01*
X10892457Y-37346330D02*
X10892457Y-37146330D01*
X10892457Y-37174902D02*
X10906743Y-37160616D01*
X10935314Y-37146330D01*
X10978172Y-37146330D01*
X11006743Y-37160616D01*
X11021029Y-37189188D01*
X11021029Y-37346330D01*
X11021029Y-37189188D02*
X11035314Y-37160616D01*
X11063886Y-37146330D01*
X11106743Y-37146330D01*
X11135314Y-37160616D01*
X11149600Y-37189188D01*
X11149600Y-37346330D01*
X11735314Y-37032045D02*
X11478171Y-37417759D01*
X12121029Y-37046330D02*
X12149600Y-37046330D01*
X12178171Y-37060616D01*
X12192457Y-37074902D01*
X12206743Y-37103473D01*
X12221029Y-37160616D01*
X12221029Y-37232045D01*
X12206743Y-37289188D01*
X12192457Y-37317759D01*
X12178171Y-37332045D01*
X12149600Y-37346330D01*
X12121029Y-37346330D01*
X12092457Y-37332045D01*
X12078171Y-37317759D01*
X12063886Y-37289188D01*
X12049600Y-37232045D01*
X12049600Y-37160616D01*
X12063886Y-37103473D01*
X12078171Y-37074902D01*
X12092457Y-37060616D01*
X12121029Y-37046330D01*
X12349600Y-37317759D02*
X12363886Y-37332045D01*
X12349600Y-37346330D01*
X12335314Y-37332045D01*
X12349600Y-37317759D01*
X12349600Y-37346330D01*
X12549600Y-37046330D02*
X12578171Y-37046330D01*
X12606743Y-37060616D01*
X12621029Y-37074902D01*
X12635314Y-37103473D01*
X12649600Y-37160616D01*
X12649600Y-37232045D01*
X12635314Y-37289188D01*
X12621029Y-37317759D01*
X12606743Y-37332045D01*
X12578171Y-37346330D01*
X12549600Y-37346330D01*
X12521029Y-37332045D01*
X12506743Y-37317759D01*
X12492457Y-37289188D01*
X12478171Y-37232045D01*
X12478171Y-37160616D01*
X12492457Y-37103473D01*
X12506743Y-37074902D01*
X12521029Y-37060616D01*
X12549600Y-37046330D01*
X12921029Y-37046330D02*
X12778171Y-37046330D01*
X12763886Y-37189188D01*
X12778171Y-37174902D01*
X12806743Y-37160616D01*
X12878171Y-37160616D01*
X12906743Y-37174902D01*
X12921029Y-37189188D01*
X12935314Y-37217759D01*
X12935314Y-37289188D01*
X12921029Y-37317759D01*
X12906743Y-37332045D01*
X12878171Y-37346330D01*
X12806743Y-37346330D01*
X12778171Y-37332045D01*
X12763886Y-37317759D01*
X13106743Y-37174902D02*
X13078171Y-37160616D01*
X13063886Y-37146330D01*
X13049600Y-37117759D01*
X13049600Y-37103473D01*
X13063886Y-37074902D01*
X13078171Y-37060616D01*
X13106743Y-37046330D01*
X13163886Y-37046330D01*
X13192457Y-37060616D01*
X13206743Y-37074902D01*
X13221029Y-37103473D01*
X13221029Y-37117759D01*
X13206743Y-37146330D01*
X13192457Y-37160616D01*
X13163886Y-37174902D01*
X13106743Y-37174902D01*
X13078171Y-37189188D01*
X13063886Y-37203473D01*
X13049600Y-37232045D01*
X13049600Y-37289188D01*
X13063886Y-37317759D01*
X13078171Y-37332045D01*
X13106743Y-37346330D01*
X13163886Y-37346330D01*
X13192457Y-37332045D01*
X13206743Y-37317759D01*
X13221029Y-37289188D01*
X13221029Y-37232045D01*
X13206743Y-37203473D01*
X13192457Y-37189188D01*
X13163886Y-37174902D01*
X13335314Y-37046330D02*
X13335314Y-37103473D01*
X13449600Y-37046330D02*
X13449600Y-37103473D01*
X13892457Y-37460616D02*
X13878171Y-37446330D01*
X13849600Y-37403473D01*
X13835314Y-37374902D01*
X13821029Y-37332045D01*
X13806743Y-37260616D01*
X13806743Y-37203473D01*
X13821029Y-37132045D01*
X13835314Y-37089188D01*
X13849600Y-37060616D01*
X13878171Y-37017759D01*
X13892457Y-37003473D01*
X14049600Y-37174902D02*
X14021029Y-37160616D01*
X14006743Y-37146330D01*
X13992457Y-37117759D01*
X13992457Y-37103473D01*
X14006743Y-37074902D01*
X14021029Y-37060616D01*
X14049600Y-37046330D01*
X14106743Y-37046330D01*
X14135314Y-37060616D01*
X14149600Y-37074902D01*
X14163886Y-37103473D01*
X14163886Y-37117759D01*
X14149600Y-37146330D01*
X14135314Y-37160616D01*
X14106743Y-37174902D01*
X14049600Y-37174902D01*
X14021029Y-37189188D01*
X14006743Y-37203473D01*
X13992457Y-37232045D01*
X13992457Y-37289188D01*
X14006743Y-37317759D01*
X14021029Y-37332045D01*
X14049600Y-37346330D01*
X14106743Y-37346330D01*
X14135314Y-37332045D01*
X14149600Y-37317759D01*
X14163886Y-37289188D01*
X14163886Y-37232045D01*
X14149600Y-37203473D01*
X14135314Y-37189188D01*
X14106743Y-37174902D01*
X14521029Y-37346330D02*
X14521029Y-37046330D01*
X14649600Y-37346330D02*
X14649600Y-37189188D01*
X14635314Y-37160616D01*
X14606743Y-37146330D01*
X14563886Y-37146330D01*
X14535314Y-37160616D01*
X14521029Y-37174902D01*
X14835314Y-37346330D02*
X14806743Y-37332045D01*
X14792457Y-37317759D01*
X14778171Y-37289188D01*
X14778171Y-37203473D01*
X14792457Y-37174902D01*
X14806743Y-37160616D01*
X14835314Y-37146330D01*
X14878171Y-37146330D01*
X14906743Y-37160616D01*
X14921029Y-37174902D01*
X14935314Y-37203473D01*
X14935314Y-37289188D01*
X14921029Y-37317759D01*
X14906743Y-37332045D01*
X14878171Y-37346330D01*
X14835314Y-37346330D01*
X15106743Y-37346330D02*
X15078171Y-37332045D01*
X15063886Y-37303473D01*
X15063886Y-37046330D01*
X15335314Y-37332045D02*
X15306743Y-37346330D01*
X15249600Y-37346330D01*
X15221029Y-37332045D01*
X15206743Y-37303473D01*
X15206743Y-37189188D01*
X15221029Y-37160616D01*
X15249600Y-37146330D01*
X15306743Y-37146330D01*
X15335314Y-37160616D01*
X15349600Y-37189188D01*
X15349600Y-37217759D01*
X15206743Y-37246330D01*
X15463886Y-37332045D02*
X15492457Y-37346330D01*
X15549600Y-37346330D01*
X15578171Y-37332045D01*
X15592457Y-37303473D01*
X15592457Y-37289188D01*
X15578171Y-37260616D01*
X15549600Y-37246330D01*
X15506743Y-37246330D01*
X15478171Y-37232045D01*
X15463886Y-37203473D01*
X15463886Y-37189188D01*
X15478171Y-37160616D01*
X15506743Y-37146330D01*
X15549600Y-37146330D01*
X15578171Y-37160616D01*
X15692457Y-37460616D02*
X15706743Y-37446330D01*
X15735314Y-37403473D01*
X15749600Y-37374902D01*
X15763886Y-37332045D01*
X15778171Y-37260616D01*
X15778171Y-37203473D01*
X15763886Y-37132045D01*
X15749600Y-37089188D01*
X15735314Y-37060616D01*
X15706743Y-37017759D01*
X15692457Y-37003473D01*
M02*
