%FSLAX45Y45*%
G04 Gerber Fmt 4.5, Leading zero omitted, Abs format (unit mm)*
G04 Created by KiCad (PCBNEW (5.1.4)-1) date 2023-09-09 05:31:12*
%MOMM*%
%LPD*%
G04 APERTURE LIST*
%ADD10C,0.050000*%
%ADD11C,0.200000*%
%ADD12C,0.300000*%
G04 APERTURE END LIST*
D10*
X12532750Y-35852116D02*
X9262855Y-35847530D01*
X13401145Y-35530132D02*
X13400615Y-34416131D01*
X13111744Y-34032786D02*
X13400615Y-34416131D01*
X9514138Y-34562556D02*
X9515320Y-34170437D01*
X12743842Y-33195619D02*
X9671144Y-34020338D01*
X9208529Y-35792053D02*
X9208919Y-34818850D01*
X9208919Y-34818850D02*
X9514138Y-34562556D01*
X13111744Y-34032786D02*
X12921139Y-33326217D01*
X13401145Y-35530132D02*
X12532750Y-35852116D01*
X9671144Y-34020338D02*
X9515320Y-34170437D01*
X9208529Y-35792053D02*
X9262855Y-35847530D01*
X12921139Y-33326217D02*
X12743842Y-33195619D01*
D11*
X9658105Y-34651506D02*
X9833105Y-34826506D01*
X9833105Y-34651506D02*
X9658105Y-34826506D01*
X10674105Y-34651506D02*
X10849105Y-34826506D01*
X10849105Y-34651506D02*
X10674105Y-34826506D01*
X11564500Y-34651506D02*
X11739500Y-34826506D01*
X11739500Y-34651506D02*
X11564500Y-34826506D01*
X12580500Y-34651506D02*
X12755500Y-34826506D01*
X12755500Y-34651506D02*
X12580500Y-34826506D01*
X10141105Y-34164006D02*
G75*
G03X10141105Y-34164006I-147500J0D01*
G01*
X10871105Y-34299006D02*
G75*
G03X10871105Y-34299006I-147500J0D01*
G01*
X12047500Y-34164006D02*
G75*
G03X12047500Y-34164006I-147500J0D01*
G01*
X12777500Y-34299006D02*
G75*
G03X12777500Y-34299006I-147500J0D01*
G01*
X9999605Y-35097006D02*
X9999605Y-35397006D01*
X9849605Y-35247006D02*
X10149605Y-35247006D01*
X10634605Y-34843006D02*
X10634605Y-35143006D01*
X10484605Y-34993006D02*
X10784605Y-34993006D01*
X11906000Y-35097006D02*
X11906000Y-35397006D01*
X11756000Y-35247006D02*
X12056000Y-35247006D01*
X12541000Y-34843006D02*
X12541000Y-35143006D01*
X12391000Y-34993006D02*
X12691000Y-34993006D01*
X10432151Y-34917552D02*
X10432151Y-34560460D01*
X10075058Y-34560460D01*
X10075058Y-34917552D01*
X10432151Y-34917552D01*
X12338546Y-34917552D02*
X12338546Y-34560460D01*
X11981454Y-34560460D01*
X11981454Y-34917552D01*
X12338546Y-34917552D01*
D12*
X9492457Y-36320330D02*
X9492457Y-36020330D01*
X9563886Y-36020330D01*
X9606743Y-36034616D01*
X9635314Y-36063188D01*
X9649600Y-36091759D01*
X9663886Y-36148902D01*
X9663886Y-36191759D01*
X9649600Y-36248902D01*
X9635314Y-36277473D01*
X9606743Y-36306045D01*
X9563886Y-36320330D01*
X9492457Y-36320330D01*
X9792457Y-36320330D02*
X9792457Y-36120330D01*
X9792457Y-36177473D02*
X9806743Y-36148902D01*
X9821029Y-36134616D01*
X9849600Y-36120330D01*
X9878172Y-36120330D01*
X9978172Y-36320330D02*
X9978172Y-36120330D01*
X9978172Y-36020330D02*
X9963886Y-36034616D01*
X9978172Y-36048902D01*
X9992457Y-36034616D01*
X9978172Y-36020330D01*
X9978172Y-36048902D01*
X10163886Y-36320330D02*
X10135314Y-36306045D01*
X10121029Y-36277473D01*
X10121029Y-36020330D01*
X10321029Y-36320330D02*
X10292457Y-36306045D01*
X10278172Y-36277473D01*
X10278172Y-36020330D01*
X10663886Y-36320330D02*
X10663886Y-36020330D01*
X10763886Y-36234616D01*
X10863886Y-36020330D01*
X10863886Y-36320330D01*
X11135314Y-36320330D02*
X11135314Y-36163188D01*
X11121029Y-36134616D01*
X11092457Y-36120330D01*
X11035314Y-36120330D01*
X11006743Y-36134616D01*
X11135314Y-36306045D02*
X11106743Y-36320330D01*
X11035314Y-36320330D01*
X11006743Y-36306045D01*
X10992457Y-36277473D01*
X10992457Y-36248902D01*
X11006743Y-36220330D01*
X11035314Y-36206045D01*
X11106743Y-36206045D01*
X11135314Y-36191759D01*
X11278171Y-36120330D02*
X11278171Y-36420330D01*
X11278171Y-36134616D02*
X11306743Y-36120330D01*
X11363886Y-36120330D01*
X11392457Y-36134616D01*
X11406743Y-36148902D01*
X11421029Y-36177473D01*
X11421029Y-36263188D01*
X11406743Y-36291759D01*
X11392457Y-36306045D01*
X11363886Y-36320330D01*
X11306743Y-36320330D01*
X11278171Y-36306045D01*
X11549600Y-36291759D02*
X11563886Y-36306045D01*
X11549600Y-36320330D01*
X11535314Y-36306045D01*
X11549600Y-36291759D01*
X11549600Y-36320330D01*
X11549600Y-36134616D02*
X11563886Y-36148902D01*
X11549600Y-36163188D01*
X11535314Y-36148902D01*
X11549600Y-36134616D01*
X11549600Y-36163188D01*
X9031029Y-36727116D02*
X9206029Y-36902116D01*
X9206029Y-36727116D02*
X9031029Y-36902116D01*
X9649600Y-36950330D02*
X9478172Y-36950330D01*
X9563886Y-36950330D02*
X9563886Y-36650330D01*
X9535314Y-36693188D01*
X9506743Y-36721759D01*
X9478172Y-36736045D01*
X9778172Y-36921759D02*
X9792457Y-36936045D01*
X9778172Y-36950330D01*
X9763886Y-36936045D01*
X9778172Y-36921759D01*
X9778172Y-36950330D01*
X9892457Y-36650330D02*
X10092457Y-36650330D01*
X9963886Y-36950330D01*
X10349600Y-36650330D02*
X10206743Y-36650330D01*
X10192457Y-36793188D01*
X10206743Y-36778902D01*
X10235314Y-36764616D01*
X10306743Y-36764616D01*
X10335314Y-36778902D01*
X10349600Y-36793188D01*
X10363886Y-36821759D01*
X10363886Y-36893188D01*
X10349600Y-36921759D01*
X10335314Y-36936045D01*
X10306743Y-36950330D01*
X10235314Y-36950330D01*
X10206743Y-36936045D01*
X10192457Y-36921759D01*
X10492457Y-36950330D02*
X10492457Y-36750330D01*
X10492457Y-36778902D02*
X10506743Y-36764616D01*
X10535314Y-36750330D01*
X10578172Y-36750330D01*
X10606743Y-36764616D01*
X10621029Y-36793188D01*
X10621029Y-36950330D01*
X10621029Y-36793188D02*
X10635314Y-36764616D01*
X10663886Y-36750330D01*
X10706743Y-36750330D01*
X10735314Y-36764616D01*
X10749600Y-36793188D01*
X10749600Y-36950330D01*
X10892457Y-36950330D02*
X10892457Y-36750330D01*
X10892457Y-36778902D02*
X10906743Y-36764616D01*
X10935314Y-36750330D01*
X10978172Y-36750330D01*
X11006743Y-36764616D01*
X11021029Y-36793188D01*
X11021029Y-36950330D01*
X11021029Y-36793188D02*
X11035314Y-36764616D01*
X11063886Y-36750330D01*
X11106743Y-36750330D01*
X11135314Y-36764616D01*
X11149600Y-36793188D01*
X11149600Y-36950330D01*
X11735314Y-36636045D02*
X11478171Y-37021759D01*
X12121029Y-36650330D02*
X12149600Y-36650330D01*
X12178171Y-36664616D01*
X12192457Y-36678902D01*
X12206743Y-36707473D01*
X12221029Y-36764616D01*
X12221029Y-36836045D01*
X12206743Y-36893188D01*
X12192457Y-36921759D01*
X12178171Y-36936045D01*
X12149600Y-36950330D01*
X12121029Y-36950330D01*
X12092457Y-36936045D01*
X12078171Y-36921759D01*
X12063886Y-36893188D01*
X12049600Y-36836045D01*
X12049600Y-36764616D01*
X12063886Y-36707473D01*
X12078171Y-36678902D01*
X12092457Y-36664616D01*
X12121029Y-36650330D01*
X12349600Y-36921759D02*
X12363886Y-36936045D01*
X12349600Y-36950330D01*
X12335314Y-36936045D01*
X12349600Y-36921759D01*
X12349600Y-36950330D01*
X12549600Y-36650330D02*
X12578171Y-36650330D01*
X12606743Y-36664616D01*
X12621029Y-36678902D01*
X12635314Y-36707473D01*
X12649600Y-36764616D01*
X12649600Y-36836045D01*
X12635314Y-36893188D01*
X12621029Y-36921759D01*
X12606743Y-36936045D01*
X12578171Y-36950330D01*
X12549600Y-36950330D01*
X12521029Y-36936045D01*
X12506743Y-36921759D01*
X12492457Y-36893188D01*
X12478171Y-36836045D01*
X12478171Y-36764616D01*
X12492457Y-36707473D01*
X12506743Y-36678902D01*
X12521029Y-36664616D01*
X12549600Y-36650330D01*
X12906743Y-36650330D02*
X12849600Y-36650330D01*
X12821029Y-36664616D01*
X12806743Y-36678902D01*
X12778171Y-36721759D01*
X12763886Y-36778902D01*
X12763886Y-36893188D01*
X12778171Y-36921759D01*
X12792457Y-36936045D01*
X12821029Y-36950330D01*
X12878171Y-36950330D01*
X12906743Y-36936045D01*
X12921029Y-36921759D01*
X12935314Y-36893188D01*
X12935314Y-36821759D01*
X12921029Y-36793188D01*
X12906743Y-36778902D01*
X12878171Y-36764616D01*
X12821029Y-36764616D01*
X12792457Y-36778902D01*
X12778171Y-36793188D01*
X12763886Y-36821759D01*
X13078171Y-36950330D02*
X13135314Y-36950330D01*
X13163886Y-36936045D01*
X13178171Y-36921759D01*
X13206743Y-36878902D01*
X13221029Y-36821759D01*
X13221029Y-36707473D01*
X13206743Y-36678902D01*
X13192457Y-36664616D01*
X13163886Y-36650330D01*
X13106743Y-36650330D01*
X13078171Y-36664616D01*
X13063886Y-36678902D01*
X13049600Y-36707473D01*
X13049600Y-36778902D01*
X13063886Y-36807473D01*
X13078171Y-36821759D01*
X13106743Y-36836045D01*
X13163886Y-36836045D01*
X13192457Y-36821759D01*
X13206743Y-36807473D01*
X13221029Y-36778902D01*
X13335314Y-36650330D02*
X13335314Y-36707473D01*
X13449600Y-36650330D02*
X13449600Y-36707473D01*
X13892457Y-37064616D02*
X13878171Y-37050330D01*
X13849600Y-37007473D01*
X13835314Y-36978902D01*
X13821029Y-36936045D01*
X13806743Y-36864616D01*
X13806743Y-36807473D01*
X13821029Y-36736045D01*
X13835314Y-36693188D01*
X13849600Y-36664616D01*
X13878171Y-36621759D01*
X13892457Y-36607473D01*
X14135314Y-36750330D02*
X14135314Y-36950330D01*
X14063886Y-36636045D02*
X13992457Y-36850330D01*
X14178171Y-36850330D01*
X14521029Y-36950330D02*
X14521029Y-36650330D01*
X14649600Y-36950330D02*
X14649600Y-36793188D01*
X14635314Y-36764616D01*
X14606743Y-36750330D01*
X14563886Y-36750330D01*
X14535314Y-36764616D01*
X14521029Y-36778902D01*
X14835314Y-36950330D02*
X14806743Y-36936045D01*
X14792457Y-36921759D01*
X14778171Y-36893188D01*
X14778171Y-36807473D01*
X14792457Y-36778902D01*
X14806743Y-36764616D01*
X14835314Y-36750330D01*
X14878171Y-36750330D01*
X14906743Y-36764616D01*
X14921029Y-36778902D01*
X14935314Y-36807473D01*
X14935314Y-36893188D01*
X14921029Y-36921759D01*
X14906743Y-36936045D01*
X14878171Y-36950330D01*
X14835314Y-36950330D01*
X15106743Y-36950330D02*
X15078171Y-36936045D01*
X15063886Y-36907473D01*
X15063886Y-36650330D01*
X15335314Y-36936045D02*
X15306743Y-36950330D01*
X15249600Y-36950330D01*
X15221029Y-36936045D01*
X15206743Y-36907473D01*
X15206743Y-36793188D01*
X15221029Y-36764616D01*
X15249600Y-36750330D01*
X15306743Y-36750330D01*
X15335314Y-36764616D01*
X15349600Y-36793188D01*
X15349600Y-36821759D01*
X15206743Y-36850330D01*
X15463886Y-36936045D02*
X15492457Y-36950330D01*
X15549600Y-36950330D01*
X15578171Y-36936045D01*
X15592457Y-36907473D01*
X15592457Y-36893188D01*
X15578171Y-36864616D01*
X15549600Y-36850330D01*
X15506743Y-36850330D01*
X15478171Y-36836045D01*
X15463886Y-36807473D01*
X15463886Y-36793188D01*
X15478171Y-36764616D01*
X15506743Y-36750330D01*
X15549600Y-36750330D01*
X15578171Y-36764616D01*
X15692457Y-37064616D02*
X15706743Y-37050330D01*
X15735314Y-37007473D01*
X15749600Y-36978902D01*
X15763886Y-36936045D01*
X15778171Y-36864616D01*
X15778171Y-36807473D01*
X15763886Y-36736045D01*
X15749600Y-36693188D01*
X15735314Y-36664616D01*
X15706743Y-36621759D01*
X15692457Y-36607473D01*
X16235314Y-37064616D02*
X16221029Y-37050330D01*
X16192457Y-37007473D01*
X16178171Y-36978902D01*
X16163886Y-36936045D01*
X16149600Y-36864616D01*
X16149600Y-36807473D01*
X16163886Y-36736045D01*
X16178171Y-36693188D01*
X16192457Y-36664616D01*
X16221029Y-36621759D01*
X16235314Y-36607473D01*
X16349600Y-36750330D02*
X16349600Y-36950330D01*
X16349600Y-36778902D02*
X16363886Y-36764616D01*
X16392457Y-36750330D01*
X16435314Y-36750330D01*
X16463886Y-36764616D01*
X16478171Y-36793188D01*
X16478171Y-36950330D01*
X16663886Y-36950330D02*
X16635314Y-36936045D01*
X16621029Y-36921759D01*
X16606743Y-36893188D01*
X16606743Y-36807473D01*
X16621029Y-36778902D01*
X16635314Y-36764616D01*
X16663886Y-36750330D01*
X16706743Y-36750330D01*
X16735314Y-36764616D01*
X16749600Y-36778902D01*
X16763886Y-36807473D01*
X16763886Y-36893188D01*
X16749600Y-36921759D01*
X16735314Y-36936045D01*
X16706743Y-36950330D01*
X16663886Y-36950330D01*
X16849600Y-36750330D02*
X16963886Y-36750330D01*
X16892457Y-36650330D02*
X16892457Y-36907473D01*
X16906743Y-36936045D01*
X16935314Y-36950330D01*
X16963886Y-36950330D01*
X17292457Y-36750330D02*
X17292457Y-37050330D01*
X17292457Y-36764616D02*
X17321029Y-36750330D01*
X17378172Y-36750330D01*
X17406743Y-36764616D01*
X17421029Y-36778902D01*
X17435314Y-36807473D01*
X17435314Y-36893188D01*
X17421029Y-36921759D01*
X17406743Y-36936045D01*
X17378172Y-36950330D01*
X17321029Y-36950330D01*
X17292457Y-36936045D01*
X17606743Y-36950330D02*
X17578172Y-36936045D01*
X17563886Y-36907473D01*
X17563886Y-36650330D01*
X17849600Y-36950330D02*
X17849600Y-36793188D01*
X17835314Y-36764616D01*
X17806743Y-36750330D01*
X17749600Y-36750330D01*
X17721029Y-36764616D01*
X17849600Y-36936045D02*
X17821029Y-36950330D01*
X17749600Y-36950330D01*
X17721029Y-36936045D01*
X17706743Y-36907473D01*
X17706743Y-36878902D01*
X17721029Y-36850330D01*
X17749600Y-36836045D01*
X17821029Y-36836045D01*
X17849600Y-36821759D01*
X17949600Y-36750330D02*
X18063886Y-36750330D01*
X17992457Y-36650330D02*
X17992457Y-36907473D01*
X18006743Y-36936045D01*
X18035314Y-36950330D01*
X18063886Y-36950330D01*
X18278172Y-36936045D02*
X18249600Y-36950330D01*
X18192457Y-36950330D01*
X18163886Y-36936045D01*
X18149600Y-36907473D01*
X18149600Y-36793188D01*
X18163886Y-36764616D01*
X18192457Y-36750330D01*
X18249600Y-36750330D01*
X18278172Y-36764616D01*
X18292457Y-36793188D01*
X18292457Y-36821759D01*
X18149600Y-36850330D01*
X18549600Y-36950330D02*
X18549600Y-36650330D01*
X18549600Y-36936045D02*
X18521029Y-36950330D01*
X18463886Y-36950330D01*
X18435314Y-36936045D01*
X18421029Y-36921759D01*
X18406743Y-36893188D01*
X18406743Y-36807473D01*
X18421029Y-36778902D01*
X18435314Y-36764616D01*
X18463886Y-36750330D01*
X18521029Y-36750330D01*
X18549600Y-36764616D01*
X18663886Y-37064616D02*
X18678172Y-37050330D01*
X18706743Y-37007473D01*
X18721029Y-36978902D01*
X18735314Y-36936045D01*
X18749600Y-36864616D01*
X18749600Y-36807473D01*
X18735314Y-36736045D01*
X18721029Y-36693188D01*
X18706743Y-36664616D01*
X18678172Y-36621759D01*
X18663886Y-36607473D01*
X9206029Y-37210616D02*
G75*
G03X9206029Y-37210616I-147500J0D01*
G01*
X9478172Y-37074902D02*
X9492457Y-37060616D01*
X9521029Y-37046330D01*
X9592457Y-37046330D01*
X9621029Y-37060616D01*
X9635314Y-37074902D01*
X9649600Y-37103473D01*
X9649600Y-37132045D01*
X9635314Y-37174902D01*
X9463886Y-37346330D01*
X9649600Y-37346330D01*
X9778172Y-37317759D02*
X9792457Y-37332045D01*
X9778172Y-37346330D01*
X9763886Y-37332045D01*
X9778172Y-37317759D01*
X9778172Y-37346330D01*
X9935314Y-37346330D02*
X9992457Y-37346330D01*
X10021029Y-37332045D01*
X10035314Y-37317759D01*
X10063886Y-37274902D01*
X10078172Y-37217759D01*
X10078172Y-37103473D01*
X10063886Y-37074902D01*
X10049600Y-37060616D01*
X10021029Y-37046330D01*
X9963886Y-37046330D01*
X9935314Y-37060616D01*
X9921029Y-37074902D01*
X9906743Y-37103473D01*
X9906743Y-37174902D01*
X9921029Y-37203473D01*
X9935314Y-37217759D01*
X9963886Y-37232045D01*
X10021029Y-37232045D01*
X10049600Y-37217759D01*
X10063886Y-37203473D01*
X10078172Y-37174902D01*
X10349600Y-37046330D02*
X10206743Y-37046330D01*
X10192457Y-37189188D01*
X10206743Y-37174902D01*
X10235314Y-37160616D01*
X10306743Y-37160616D01*
X10335314Y-37174902D01*
X10349600Y-37189188D01*
X10363886Y-37217759D01*
X10363886Y-37289188D01*
X10349600Y-37317759D01*
X10335314Y-37332045D01*
X10306743Y-37346330D01*
X10235314Y-37346330D01*
X10206743Y-37332045D01*
X10192457Y-37317759D01*
X10492457Y-37346330D02*
X10492457Y-37146330D01*
X10492457Y-37174902D02*
X10506743Y-37160616D01*
X10535314Y-37146330D01*
X10578172Y-37146330D01*
X10606743Y-37160616D01*
X10621029Y-37189188D01*
X10621029Y-37346330D01*
X10621029Y-37189188D02*
X10635314Y-37160616D01*
X10663886Y-37146330D01*
X10706743Y-37146330D01*
X10735314Y-37160616D01*
X10749600Y-37189188D01*
X10749600Y-37346330D01*
X10892457Y-37346330D02*
X10892457Y-37146330D01*
X10892457Y-37174902D02*
X10906743Y-37160616D01*
X10935314Y-37146330D01*
X10978172Y-37146330D01*
X11006743Y-37160616D01*
X11021029Y-37189188D01*
X11021029Y-37346330D01*
X11021029Y-37189188D02*
X11035314Y-37160616D01*
X11063886Y-37146330D01*
X11106743Y-37146330D01*
X11135314Y-37160616D01*
X11149600Y-37189188D01*
X11149600Y-37346330D01*
X11735314Y-37032045D02*
X11478171Y-37417759D01*
X12121029Y-37046330D02*
X12149600Y-37046330D01*
X12178171Y-37060616D01*
X12192457Y-37074902D01*
X12206743Y-37103473D01*
X12221029Y-37160616D01*
X12221029Y-37232045D01*
X12206743Y-37289188D01*
X12192457Y-37317759D01*
X12178171Y-37332045D01*
X12149600Y-37346330D01*
X12121029Y-37346330D01*
X12092457Y-37332045D01*
X12078171Y-37317759D01*
X12063886Y-37289188D01*
X12049600Y-37232045D01*
X12049600Y-37160616D01*
X12063886Y-37103473D01*
X12078171Y-37074902D01*
X12092457Y-37060616D01*
X12121029Y-37046330D01*
X12349600Y-37317759D02*
X12363886Y-37332045D01*
X12349600Y-37346330D01*
X12335314Y-37332045D01*
X12349600Y-37317759D01*
X12349600Y-37346330D01*
X12649600Y-37346330D02*
X12478171Y-37346330D01*
X12563886Y-37346330D02*
X12563886Y-37046330D01*
X12535314Y-37089188D01*
X12506743Y-37117759D01*
X12478171Y-37132045D01*
X12935314Y-37346330D02*
X12763886Y-37346330D01*
X12849600Y-37346330D02*
X12849600Y-37046330D01*
X12821029Y-37089188D01*
X12792457Y-37117759D01*
X12763886Y-37132045D01*
X13192457Y-37046330D02*
X13135314Y-37046330D01*
X13106743Y-37060616D01*
X13092457Y-37074902D01*
X13063886Y-37117759D01*
X13049600Y-37174902D01*
X13049600Y-37289188D01*
X13063886Y-37317759D01*
X13078171Y-37332045D01*
X13106743Y-37346330D01*
X13163886Y-37346330D01*
X13192457Y-37332045D01*
X13206743Y-37317759D01*
X13221029Y-37289188D01*
X13221029Y-37217759D01*
X13206743Y-37189188D01*
X13192457Y-37174902D01*
X13163886Y-37160616D01*
X13106743Y-37160616D01*
X13078171Y-37174902D01*
X13063886Y-37189188D01*
X13049600Y-37217759D01*
X13335314Y-37046330D02*
X13335314Y-37103473D01*
X13449600Y-37046330D02*
X13449600Y-37103473D01*
X13892457Y-37460616D02*
X13878171Y-37446330D01*
X13849600Y-37403473D01*
X13835314Y-37374902D01*
X13821029Y-37332045D01*
X13806743Y-37260616D01*
X13806743Y-37203473D01*
X13821029Y-37132045D01*
X13835314Y-37089188D01*
X13849600Y-37060616D01*
X13878171Y-37017759D01*
X13892457Y-37003473D01*
X14135314Y-37146330D02*
X14135314Y-37346330D01*
X14063886Y-37032045D02*
X13992457Y-37246330D01*
X14178171Y-37246330D01*
X14521029Y-37346330D02*
X14521029Y-37046330D01*
X14649600Y-37346330D02*
X14649600Y-37189188D01*
X14635314Y-37160616D01*
X14606743Y-37146330D01*
X14563886Y-37146330D01*
X14535314Y-37160616D01*
X14521029Y-37174902D01*
X14835314Y-37346330D02*
X14806743Y-37332045D01*
X14792457Y-37317759D01*
X14778171Y-37289188D01*
X14778171Y-37203473D01*
X14792457Y-37174902D01*
X14806743Y-37160616D01*
X14835314Y-37146330D01*
X14878171Y-37146330D01*
X14906743Y-37160616D01*
X14921029Y-37174902D01*
X14935314Y-37203473D01*
X14935314Y-37289188D01*
X14921029Y-37317759D01*
X14906743Y-37332045D01*
X14878171Y-37346330D01*
X14835314Y-37346330D01*
X15106743Y-37346330D02*
X15078171Y-37332045D01*
X15063886Y-37303473D01*
X15063886Y-37046330D01*
X15335314Y-37332045D02*
X15306743Y-37346330D01*
X15249600Y-37346330D01*
X15221029Y-37332045D01*
X15206743Y-37303473D01*
X15206743Y-37189188D01*
X15221029Y-37160616D01*
X15249600Y-37146330D01*
X15306743Y-37146330D01*
X15335314Y-37160616D01*
X15349600Y-37189188D01*
X15349600Y-37217759D01*
X15206743Y-37246330D01*
X15463886Y-37332045D02*
X15492457Y-37346330D01*
X15549600Y-37346330D01*
X15578171Y-37332045D01*
X15592457Y-37303473D01*
X15592457Y-37289188D01*
X15578171Y-37260616D01*
X15549600Y-37246330D01*
X15506743Y-37246330D01*
X15478171Y-37232045D01*
X15463886Y-37203473D01*
X15463886Y-37189188D01*
X15478171Y-37160616D01*
X15506743Y-37146330D01*
X15549600Y-37146330D01*
X15578171Y-37160616D01*
X15692457Y-37460616D02*
X15706743Y-37446330D01*
X15735314Y-37403473D01*
X15749600Y-37374902D01*
X15763886Y-37332045D01*
X15778171Y-37260616D01*
X15778171Y-37203473D01*
X15763886Y-37132045D01*
X15749600Y-37089188D01*
X15735314Y-37060616D01*
X15706743Y-37017759D01*
X15692457Y-37003473D01*
X16235314Y-37460616D02*
X16221029Y-37446330D01*
X16192457Y-37403473D01*
X16178171Y-37374902D01*
X16163886Y-37332045D01*
X16149600Y-37260616D01*
X16149600Y-37203473D01*
X16163886Y-37132045D01*
X16178171Y-37089188D01*
X16192457Y-37060616D01*
X16221029Y-37017759D01*
X16235314Y-37003473D01*
X16349600Y-37146330D02*
X16349600Y-37346330D01*
X16349600Y-37174902D02*
X16363886Y-37160616D01*
X16392457Y-37146330D01*
X16435314Y-37146330D01*
X16463886Y-37160616D01*
X16478171Y-37189188D01*
X16478171Y-37346330D01*
X16663886Y-37346330D02*
X16635314Y-37332045D01*
X16621029Y-37317759D01*
X16606743Y-37289188D01*
X16606743Y-37203473D01*
X16621029Y-37174902D01*
X16635314Y-37160616D01*
X16663886Y-37146330D01*
X16706743Y-37146330D01*
X16735314Y-37160616D01*
X16749600Y-37174902D01*
X16763886Y-37203473D01*
X16763886Y-37289188D01*
X16749600Y-37317759D01*
X16735314Y-37332045D01*
X16706743Y-37346330D01*
X16663886Y-37346330D01*
X16849600Y-37146330D02*
X16963886Y-37146330D01*
X16892457Y-37046330D02*
X16892457Y-37303473D01*
X16906743Y-37332045D01*
X16935314Y-37346330D01*
X16963886Y-37346330D01*
X17292457Y-37146330D02*
X17292457Y-37446330D01*
X17292457Y-37160616D02*
X17321029Y-37146330D01*
X17378172Y-37146330D01*
X17406743Y-37160616D01*
X17421029Y-37174902D01*
X17435314Y-37203473D01*
X17435314Y-37289188D01*
X17421029Y-37317759D01*
X17406743Y-37332045D01*
X17378172Y-37346330D01*
X17321029Y-37346330D01*
X17292457Y-37332045D01*
X17606743Y-37346330D02*
X17578172Y-37332045D01*
X17563886Y-37303473D01*
X17563886Y-37046330D01*
X17849600Y-37346330D02*
X17849600Y-37189188D01*
X17835314Y-37160616D01*
X17806743Y-37146330D01*
X17749600Y-37146330D01*
X17721029Y-37160616D01*
X17849600Y-37332045D02*
X17821029Y-37346330D01*
X17749600Y-37346330D01*
X17721029Y-37332045D01*
X17706743Y-37303473D01*
X17706743Y-37274902D01*
X17721029Y-37246330D01*
X17749600Y-37232045D01*
X17821029Y-37232045D01*
X17849600Y-37217759D01*
X17949600Y-37146330D02*
X18063886Y-37146330D01*
X17992457Y-37046330D02*
X17992457Y-37303473D01*
X18006743Y-37332045D01*
X18035314Y-37346330D01*
X18063886Y-37346330D01*
X18278172Y-37332045D02*
X18249600Y-37346330D01*
X18192457Y-37346330D01*
X18163886Y-37332045D01*
X18149600Y-37303473D01*
X18149600Y-37189188D01*
X18163886Y-37160616D01*
X18192457Y-37146330D01*
X18249600Y-37146330D01*
X18278172Y-37160616D01*
X18292457Y-37189188D01*
X18292457Y-37217759D01*
X18149600Y-37246330D01*
X18549600Y-37346330D02*
X18549600Y-37046330D01*
X18549600Y-37332045D02*
X18521029Y-37346330D01*
X18463886Y-37346330D01*
X18435314Y-37332045D01*
X18421029Y-37317759D01*
X18406743Y-37289188D01*
X18406743Y-37203473D01*
X18421029Y-37174902D01*
X18435314Y-37160616D01*
X18463886Y-37146330D01*
X18521029Y-37146330D01*
X18549600Y-37160616D01*
X18663886Y-37460616D02*
X18678172Y-37446330D01*
X18706743Y-37403473D01*
X18721029Y-37374902D01*
X18735314Y-37332045D01*
X18749600Y-37260616D01*
X18749600Y-37203473D01*
X18735314Y-37132045D01*
X18721029Y-37089188D01*
X18706743Y-37060616D01*
X18678172Y-37017759D01*
X18663886Y-37003473D01*
X9056029Y-37485616D02*
X9056029Y-37785616D01*
X8906029Y-37635616D02*
X9206029Y-37635616D01*
X9463886Y-37471330D02*
X9649600Y-37471330D01*
X9549600Y-37585616D01*
X9592457Y-37585616D01*
X9621029Y-37599902D01*
X9635314Y-37614188D01*
X9649600Y-37642759D01*
X9649600Y-37714188D01*
X9635314Y-37742759D01*
X9621029Y-37757045D01*
X9592457Y-37771330D01*
X9506743Y-37771330D01*
X9478172Y-37757045D01*
X9463886Y-37742759D01*
X9778172Y-37742759D02*
X9792457Y-37757045D01*
X9778172Y-37771330D01*
X9763886Y-37757045D01*
X9778172Y-37742759D01*
X9778172Y-37771330D01*
X9978172Y-37471330D02*
X10006743Y-37471330D01*
X10035314Y-37485616D01*
X10049600Y-37499902D01*
X10063886Y-37528473D01*
X10078172Y-37585616D01*
X10078172Y-37657045D01*
X10063886Y-37714188D01*
X10049600Y-37742759D01*
X10035314Y-37757045D01*
X10006743Y-37771330D01*
X9978172Y-37771330D01*
X9949600Y-37757045D01*
X9935314Y-37742759D01*
X9921029Y-37714188D01*
X9906743Y-37657045D01*
X9906743Y-37585616D01*
X9921029Y-37528473D01*
X9935314Y-37499902D01*
X9949600Y-37485616D01*
X9978172Y-37471330D01*
X10263886Y-37471330D02*
X10292457Y-37471330D01*
X10321029Y-37485616D01*
X10335314Y-37499902D01*
X10349600Y-37528473D01*
X10363886Y-37585616D01*
X10363886Y-37657045D01*
X10349600Y-37714188D01*
X10335314Y-37742759D01*
X10321029Y-37757045D01*
X10292457Y-37771330D01*
X10263886Y-37771330D01*
X10235314Y-37757045D01*
X10221029Y-37742759D01*
X10206743Y-37714188D01*
X10192457Y-37657045D01*
X10192457Y-37585616D01*
X10206743Y-37528473D01*
X10221029Y-37499902D01*
X10235314Y-37485616D01*
X10263886Y-37471330D01*
X10492457Y-37771330D02*
X10492457Y-37571330D01*
X10492457Y-37599902D02*
X10506743Y-37585616D01*
X10535314Y-37571330D01*
X10578172Y-37571330D01*
X10606743Y-37585616D01*
X10621029Y-37614188D01*
X10621029Y-37771330D01*
X10621029Y-37614188D02*
X10635314Y-37585616D01*
X10663886Y-37571330D01*
X10706743Y-37571330D01*
X10735314Y-37585616D01*
X10749600Y-37614188D01*
X10749600Y-37771330D01*
X10892457Y-37771330D02*
X10892457Y-37571330D01*
X10892457Y-37599902D02*
X10906743Y-37585616D01*
X10935314Y-37571330D01*
X10978172Y-37571330D01*
X11006743Y-37585616D01*
X11021029Y-37614188D01*
X11021029Y-37771330D01*
X11021029Y-37614188D02*
X11035314Y-37585616D01*
X11063886Y-37571330D01*
X11106743Y-37571330D01*
X11135314Y-37585616D01*
X11149600Y-37614188D01*
X11149600Y-37771330D01*
X11735314Y-37457045D02*
X11478171Y-37842759D01*
X12121029Y-37471330D02*
X12149600Y-37471330D01*
X12178171Y-37485616D01*
X12192457Y-37499902D01*
X12206743Y-37528473D01*
X12221029Y-37585616D01*
X12221029Y-37657045D01*
X12206743Y-37714188D01*
X12192457Y-37742759D01*
X12178171Y-37757045D01*
X12149600Y-37771330D01*
X12121029Y-37771330D01*
X12092457Y-37757045D01*
X12078171Y-37742759D01*
X12063886Y-37714188D01*
X12049600Y-37657045D01*
X12049600Y-37585616D01*
X12063886Y-37528473D01*
X12078171Y-37499902D01*
X12092457Y-37485616D01*
X12121029Y-37471330D01*
X12349600Y-37742759D02*
X12363886Y-37757045D01*
X12349600Y-37771330D01*
X12335314Y-37757045D01*
X12349600Y-37742759D01*
X12349600Y-37771330D01*
X12649600Y-37771330D02*
X12478171Y-37771330D01*
X12563886Y-37771330D02*
X12563886Y-37471330D01*
X12535314Y-37514188D01*
X12506743Y-37542759D01*
X12478171Y-37557045D01*
X12935314Y-37771330D02*
X12763886Y-37771330D01*
X12849600Y-37771330D02*
X12849600Y-37471330D01*
X12821029Y-37514188D01*
X12792457Y-37542759D01*
X12763886Y-37557045D01*
X13106743Y-37599902D02*
X13078171Y-37585616D01*
X13063886Y-37571330D01*
X13049600Y-37542759D01*
X13049600Y-37528473D01*
X13063886Y-37499902D01*
X13078171Y-37485616D01*
X13106743Y-37471330D01*
X13163886Y-37471330D01*
X13192457Y-37485616D01*
X13206743Y-37499902D01*
X13221029Y-37528473D01*
X13221029Y-37542759D01*
X13206743Y-37571330D01*
X13192457Y-37585616D01*
X13163886Y-37599902D01*
X13106743Y-37599902D01*
X13078171Y-37614188D01*
X13063886Y-37628473D01*
X13049600Y-37657045D01*
X13049600Y-37714188D01*
X13063886Y-37742759D01*
X13078171Y-37757045D01*
X13106743Y-37771330D01*
X13163886Y-37771330D01*
X13192457Y-37757045D01*
X13206743Y-37742759D01*
X13221029Y-37714188D01*
X13221029Y-37657045D01*
X13206743Y-37628473D01*
X13192457Y-37614188D01*
X13163886Y-37599902D01*
X13335314Y-37471330D02*
X13335314Y-37528473D01*
X13449600Y-37471330D02*
X13449600Y-37528473D01*
X13892457Y-37885616D02*
X13878171Y-37871330D01*
X13849600Y-37828473D01*
X13835314Y-37799902D01*
X13821029Y-37757045D01*
X13806743Y-37685616D01*
X13806743Y-37628473D01*
X13821029Y-37557045D01*
X13835314Y-37514188D01*
X13849600Y-37485616D01*
X13878171Y-37442759D01*
X13892457Y-37428473D01*
X14135314Y-37571330D02*
X14135314Y-37771330D01*
X14063886Y-37457045D02*
X13992457Y-37671330D01*
X14178171Y-37671330D01*
X14521029Y-37771330D02*
X14521029Y-37471330D01*
X14649600Y-37771330D02*
X14649600Y-37614188D01*
X14635314Y-37585616D01*
X14606743Y-37571330D01*
X14563886Y-37571330D01*
X14535314Y-37585616D01*
X14521029Y-37599902D01*
X14835314Y-37771330D02*
X14806743Y-37757045D01*
X14792457Y-37742759D01*
X14778171Y-37714188D01*
X14778171Y-37628473D01*
X14792457Y-37599902D01*
X14806743Y-37585616D01*
X14835314Y-37571330D01*
X14878171Y-37571330D01*
X14906743Y-37585616D01*
X14921029Y-37599902D01*
X14935314Y-37628473D01*
X14935314Y-37714188D01*
X14921029Y-37742759D01*
X14906743Y-37757045D01*
X14878171Y-37771330D01*
X14835314Y-37771330D01*
X15106743Y-37771330D02*
X15078171Y-37757045D01*
X15063886Y-37728473D01*
X15063886Y-37471330D01*
X15335314Y-37757045D02*
X15306743Y-37771330D01*
X15249600Y-37771330D01*
X15221029Y-37757045D01*
X15206743Y-37728473D01*
X15206743Y-37614188D01*
X15221029Y-37585616D01*
X15249600Y-37571330D01*
X15306743Y-37571330D01*
X15335314Y-37585616D01*
X15349600Y-37614188D01*
X15349600Y-37642759D01*
X15206743Y-37671330D01*
X15463886Y-37757045D02*
X15492457Y-37771330D01*
X15549600Y-37771330D01*
X15578171Y-37757045D01*
X15592457Y-37728473D01*
X15592457Y-37714188D01*
X15578171Y-37685616D01*
X15549600Y-37671330D01*
X15506743Y-37671330D01*
X15478171Y-37657045D01*
X15463886Y-37628473D01*
X15463886Y-37614188D01*
X15478171Y-37585616D01*
X15506743Y-37571330D01*
X15549600Y-37571330D01*
X15578171Y-37585616D01*
X15692457Y-37885616D02*
X15706743Y-37871330D01*
X15735314Y-37828473D01*
X15749600Y-37799902D01*
X15763886Y-37757045D01*
X15778171Y-37685616D01*
X15778171Y-37628473D01*
X15763886Y-37557045D01*
X15749600Y-37514188D01*
X15735314Y-37485616D01*
X15706743Y-37442759D01*
X15692457Y-37428473D01*
X16235314Y-37885616D02*
X16221029Y-37871330D01*
X16192457Y-37828473D01*
X16178171Y-37799902D01*
X16163886Y-37757045D01*
X16149600Y-37685616D01*
X16149600Y-37628473D01*
X16163886Y-37557045D01*
X16178171Y-37514188D01*
X16192457Y-37485616D01*
X16221029Y-37442759D01*
X16235314Y-37428473D01*
X16349600Y-37571330D02*
X16349600Y-37771330D01*
X16349600Y-37599902D02*
X16363886Y-37585616D01*
X16392457Y-37571330D01*
X16435314Y-37571330D01*
X16463886Y-37585616D01*
X16478171Y-37614188D01*
X16478171Y-37771330D01*
X16663886Y-37771330D02*
X16635314Y-37757045D01*
X16621029Y-37742759D01*
X16606743Y-37714188D01*
X16606743Y-37628473D01*
X16621029Y-37599902D01*
X16635314Y-37585616D01*
X16663886Y-37571330D01*
X16706743Y-37571330D01*
X16735314Y-37585616D01*
X16749600Y-37599902D01*
X16763886Y-37628473D01*
X16763886Y-37714188D01*
X16749600Y-37742759D01*
X16735314Y-37757045D01*
X16706743Y-37771330D01*
X16663886Y-37771330D01*
X16849600Y-37571330D02*
X16963886Y-37571330D01*
X16892457Y-37471330D02*
X16892457Y-37728473D01*
X16906743Y-37757045D01*
X16935314Y-37771330D01*
X16963886Y-37771330D01*
X17292457Y-37571330D02*
X17292457Y-37871330D01*
X17292457Y-37585616D02*
X17321029Y-37571330D01*
X17378172Y-37571330D01*
X17406743Y-37585616D01*
X17421029Y-37599902D01*
X17435314Y-37628473D01*
X17435314Y-37714188D01*
X17421029Y-37742759D01*
X17406743Y-37757045D01*
X17378172Y-37771330D01*
X17321029Y-37771330D01*
X17292457Y-37757045D01*
X17606743Y-37771330D02*
X17578172Y-37757045D01*
X17563886Y-37728473D01*
X17563886Y-37471330D01*
X17849600Y-37771330D02*
X17849600Y-37614188D01*
X17835314Y-37585616D01*
X17806743Y-37571330D01*
X17749600Y-37571330D01*
X17721029Y-37585616D01*
X17849600Y-37757045D02*
X17821029Y-37771330D01*
X17749600Y-37771330D01*
X17721029Y-37757045D01*
X17706743Y-37728473D01*
X17706743Y-37699902D01*
X17721029Y-37671330D01*
X17749600Y-37657045D01*
X17821029Y-37657045D01*
X17849600Y-37642759D01*
X17949600Y-37571330D02*
X18063886Y-37571330D01*
X17992457Y-37471330D02*
X17992457Y-37728473D01*
X18006743Y-37757045D01*
X18035314Y-37771330D01*
X18063886Y-37771330D01*
X18278172Y-37757045D02*
X18249600Y-37771330D01*
X18192457Y-37771330D01*
X18163886Y-37757045D01*
X18149600Y-37728473D01*
X18149600Y-37614188D01*
X18163886Y-37585616D01*
X18192457Y-37571330D01*
X18249600Y-37571330D01*
X18278172Y-37585616D01*
X18292457Y-37614188D01*
X18292457Y-37642759D01*
X18149600Y-37671330D01*
X18549600Y-37771330D02*
X18549600Y-37471330D01*
X18549600Y-37757045D02*
X18521029Y-37771330D01*
X18463886Y-37771330D01*
X18435314Y-37757045D01*
X18421029Y-37742759D01*
X18406743Y-37714188D01*
X18406743Y-37628473D01*
X18421029Y-37599902D01*
X18435314Y-37585616D01*
X18463886Y-37571330D01*
X18521029Y-37571330D01*
X18549600Y-37585616D01*
X18663886Y-37885616D02*
X18678172Y-37871330D01*
X18706743Y-37828473D01*
X18721029Y-37799902D01*
X18735314Y-37757045D01*
X18749600Y-37685616D01*
X18749600Y-37628473D01*
X18735314Y-37557045D01*
X18721029Y-37514188D01*
X18706743Y-37485616D01*
X18678172Y-37442759D01*
X18663886Y-37428473D01*
X9132075Y-38244162D02*
X9132075Y-37887070D01*
X8774983Y-37887070D01*
X8774983Y-38244162D01*
X9132075Y-38244162D01*
X9635314Y-37901330D02*
X9492457Y-37901330D01*
X9478172Y-38044188D01*
X9492457Y-38029902D01*
X9521029Y-38015616D01*
X9592457Y-38015616D01*
X9621029Y-38029902D01*
X9635314Y-38044188D01*
X9649600Y-38072759D01*
X9649600Y-38144188D01*
X9635314Y-38172759D01*
X9621029Y-38187045D01*
X9592457Y-38201330D01*
X9521029Y-38201330D01*
X9492457Y-38187045D01*
X9478172Y-38172759D01*
X9778172Y-38172759D02*
X9792457Y-38187045D01*
X9778172Y-38201330D01*
X9763886Y-38187045D01*
X9778172Y-38172759D01*
X9778172Y-38201330D01*
X9978172Y-37901330D02*
X10006743Y-37901330D01*
X10035314Y-37915616D01*
X10049600Y-37929902D01*
X10063886Y-37958473D01*
X10078172Y-38015616D01*
X10078172Y-38087045D01*
X10063886Y-38144188D01*
X10049600Y-38172759D01*
X10035314Y-38187045D01*
X10006743Y-38201330D01*
X9978172Y-38201330D01*
X9949600Y-38187045D01*
X9935314Y-38172759D01*
X9921029Y-38144188D01*
X9906743Y-38087045D01*
X9906743Y-38015616D01*
X9921029Y-37958473D01*
X9935314Y-37929902D01*
X9949600Y-37915616D01*
X9978172Y-37901330D01*
X10349600Y-37901330D02*
X10206743Y-37901330D01*
X10192457Y-38044188D01*
X10206743Y-38029902D01*
X10235314Y-38015616D01*
X10306743Y-38015616D01*
X10335314Y-38029902D01*
X10349600Y-38044188D01*
X10363886Y-38072759D01*
X10363886Y-38144188D01*
X10349600Y-38172759D01*
X10335314Y-38187045D01*
X10306743Y-38201330D01*
X10235314Y-38201330D01*
X10206743Y-38187045D01*
X10192457Y-38172759D01*
X10492457Y-38201330D02*
X10492457Y-38001330D01*
X10492457Y-38029902D02*
X10506743Y-38015616D01*
X10535314Y-38001330D01*
X10578172Y-38001330D01*
X10606743Y-38015616D01*
X10621029Y-38044188D01*
X10621029Y-38201330D01*
X10621029Y-38044188D02*
X10635314Y-38015616D01*
X10663886Y-38001330D01*
X10706743Y-38001330D01*
X10735314Y-38015616D01*
X10749600Y-38044188D01*
X10749600Y-38201330D01*
X10892457Y-38201330D02*
X10892457Y-38001330D01*
X10892457Y-38029902D02*
X10906743Y-38015616D01*
X10935314Y-38001330D01*
X10978172Y-38001330D01*
X11006743Y-38015616D01*
X11021029Y-38044188D01*
X11021029Y-38201330D01*
X11021029Y-38044188D02*
X11035314Y-38015616D01*
X11063886Y-38001330D01*
X11106743Y-38001330D01*
X11135314Y-38015616D01*
X11149600Y-38044188D01*
X11149600Y-38201330D01*
X11735314Y-37887045D02*
X11478171Y-38272759D01*
X12121029Y-37901330D02*
X12149600Y-37901330D01*
X12178171Y-37915616D01*
X12192457Y-37929902D01*
X12206743Y-37958473D01*
X12221029Y-38015616D01*
X12221029Y-38087045D01*
X12206743Y-38144188D01*
X12192457Y-38172759D01*
X12178171Y-38187045D01*
X12149600Y-38201330D01*
X12121029Y-38201330D01*
X12092457Y-38187045D01*
X12078171Y-38172759D01*
X12063886Y-38144188D01*
X12049600Y-38087045D01*
X12049600Y-38015616D01*
X12063886Y-37958473D01*
X12078171Y-37929902D01*
X12092457Y-37915616D01*
X12121029Y-37901330D01*
X12349600Y-38172759D02*
X12363886Y-38187045D01*
X12349600Y-38201330D01*
X12335314Y-38187045D01*
X12349600Y-38172759D01*
X12349600Y-38201330D01*
X12649600Y-38201330D02*
X12478171Y-38201330D01*
X12563886Y-38201330D02*
X12563886Y-37901330D01*
X12535314Y-37944188D01*
X12506743Y-37972759D01*
X12478171Y-37987045D01*
X12792457Y-38201330D02*
X12849600Y-38201330D01*
X12878171Y-38187045D01*
X12892457Y-38172759D01*
X12921029Y-38129902D01*
X12935314Y-38072759D01*
X12935314Y-37958473D01*
X12921029Y-37929902D01*
X12906743Y-37915616D01*
X12878171Y-37901330D01*
X12821029Y-37901330D01*
X12792457Y-37915616D01*
X12778171Y-37929902D01*
X12763886Y-37958473D01*
X12763886Y-38029902D01*
X12778171Y-38058473D01*
X12792457Y-38072759D01*
X12821029Y-38087045D01*
X12878171Y-38087045D01*
X12906743Y-38072759D01*
X12921029Y-38058473D01*
X12935314Y-38029902D01*
X13078171Y-38201330D02*
X13135314Y-38201330D01*
X13163886Y-38187045D01*
X13178171Y-38172759D01*
X13206743Y-38129902D01*
X13221029Y-38072759D01*
X13221029Y-37958473D01*
X13206743Y-37929902D01*
X13192457Y-37915616D01*
X13163886Y-37901330D01*
X13106743Y-37901330D01*
X13078171Y-37915616D01*
X13063886Y-37929902D01*
X13049600Y-37958473D01*
X13049600Y-38029902D01*
X13063886Y-38058473D01*
X13078171Y-38072759D01*
X13106743Y-38087045D01*
X13163886Y-38087045D01*
X13192457Y-38072759D01*
X13206743Y-38058473D01*
X13221029Y-38029902D01*
X13335314Y-37901330D02*
X13335314Y-37958473D01*
X13449600Y-37901330D02*
X13449600Y-37958473D01*
X13892457Y-38315616D02*
X13878171Y-38301330D01*
X13849600Y-38258473D01*
X13835314Y-38229902D01*
X13821029Y-38187045D01*
X13806743Y-38115616D01*
X13806743Y-38058473D01*
X13821029Y-37987045D01*
X13835314Y-37944188D01*
X13849600Y-37915616D01*
X13878171Y-37872759D01*
X13892457Y-37858473D01*
X13992457Y-37929902D02*
X14006743Y-37915616D01*
X14035314Y-37901330D01*
X14106743Y-37901330D01*
X14135314Y-37915616D01*
X14149600Y-37929902D01*
X14163886Y-37958473D01*
X14163886Y-37987045D01*
X14149600Y-38029902D01*
X13978171Y-38201330D01*
X14163886Y-38201330D01*
X14521029Y-38201330D02*
X14521029Y-37901330D01*
X14649600Y-38201330D02*
X14649600Y-38044188D01*
X14635314Y-38015616D01*
X14606743Y-38001330D01*
X14563886Y-38001330D01*
X14535314Y-38015616D01*
X14521029Y-38029902D01*
X14835314Y-38201330D02*
X14806743Y-38187045D01*
X14792457Y-38172759D01*
X14778171Y-38144188D01*
X14778171Y-38058473D01*
X14792457Y-38029902D01*
X14806743Y-38015616D01*
X14835314Y-38001330D01*
X14878171Y-38001330D01*
X14906743Y-38015616D01*
X14921029Y-38029902D01*
X14935314Y-38058473D01*
X14935314Y-38144188D01*
X14921029Y-38172759D01*
X14906743Y-38187045D01*
X14878171Y-38201330D01*
X14835314Y-38201330D01*
X15106743Y-38201330D02*
X15078171Y-38187045D01*
X15063886Y-38158473D01*
X15063886Y-37901330D01*
X15335314Y-38187045D02*
X15306743Y-38201330D01*
X15249600Y-38201330D01*
X15221029Y-38187045D01*
X15206743Y-38158473D01*
X15206743Y-38044188D01*
X15221029Y-38015616D01*
X15249600Y-38001330D01*
X15306743Y-38001330D01*
X15335314Y-38015616D01*
X15349600Y-38044188D01*
X15349600Y-38072759D01*
X15206743Y-38101330D01*
X15463886Y-38187045D02*
X15492457Y-38201330D01*
X15549600Y-38201330D01*
X15578171Y-38187045D01*
X15592457Y-38158473D01*
X15592457Y-38144188D01*
X15578171Y-38115616D01*
X15549600Y-38101330D01*
X15506743Y-38101330D01*
X15478171Y-38087045D01*
X15463886Y-38058473D01*
X15463886Y-38044188D01*
X15478171Y-38015616D01*
X15506743Y-38001330D01*
X15549600Y-38001330D01*
X15578171Y-38015616D01*
X15692457Y-38315616D02*
X15706743Y-38301330D01*
X15735314Y-38258473D01*
X15749600Y-38229902D01*
X15763886Y-38187045D01*
X15778171Y-38115616D01*
X15778171Y-38058473D01*
X15763886Y-37987045D01*
X15749600Y-37944188D01*
X15735314Y-37915616D01*
X15706743Y-37872759D01*
X15692457Y-37858473D01*
X16235314Y-38315616D02*
X16221029Y-38301330D01*
X16192457Y-38258473D01*
X16178171Y-38229902D01*
X16163886Y-38187045D01*
X16149600Y-38115616D01*
X16149600Y-38058473D01*
X16163886Y-37987045D01*
X16178171Y-37944188D01*
X16192457Y-37915616D01*
X16221029Y-37872759D01*
X16235314Y-37858473D01*
X16349600Y-38001330D02*
X16349600Y-38201330D01*
X16349600Y-38029902D02*
X16363886Y-38015616D01*
X16392457Y-38001330D01*
X16435314Y-38001330D01*
X16463886Y-38015616D01*
X16478171Y-38044188D01*
X16478171Y-38201330D01*
X16663886Y-38201330D02*
X16635314Y-38187045D01*
X16621029Y-38172759D01*
X16606743Y-38144188D01*
X16606743Y-38058473D01*
X16621029Y-38029902D01*
X16635314Y-38015616D01*
X16663886Y-38001330D01*
X16706743Y-38001330D01*
X16735314Y-38015616D01*
X16749600Y-38029902D01*
X16763886Y-38058473D01*
X16763886Y-38144188D01*
X16749600Y-38172759D01*
X16735314Y-38187045D01*
X16706743Y-38201330D01*
X16663886Y-38201330D01*
X16849600Y-38001330D02*
X16963886Y-38001330D01*
X16892457Y-37901330D02*
X16892457Y-38158473D01*
X16906743Y-38187045D01*
X16935314Y-38201330D01*
X16963886Y-38201330D01*
X17292457Y-38001330D02*
X17292457Y-38301330D01*
X17292457Y-38015616D02*
X17321029Y-38001330D01*
X17378172Y-38001330D01*
X17406743Y-38015616D01*
X17421029Y-38029902D01*
X17435314Y-38058473D01*
X17435314Y-38144188D01*
X17421029Y-38172759D01*
X17406743Y-38187045D01*
X17378172Y-38201330D01*
X17321029Y-38201330D01*
X17292457Y-38187045D01*
X17606743Y-38201330D02*
X17578172Y-38187045D01*
X17563886Y-38158473D01*
X17563886Y-37901330D01*
X17849600Y-38201330D02*
X17849600Y-38044188D01*
X17835314Y-38015616D01*
X17806743Y-38001330D01*
X17749600Y-38001330D01*
X17721029Y-38015616D01*
X17849600Y-38187045D02*
X17821029Y-38201330D01*
X17749600Y-38201330D01*
X17721029Y-38187045D01*
X17706743Y-38158473D01*
X17706743Y-38129902D01*
X17721029Y-38101330D01*
X17749600Y-38087045D01*
X17821029Y-38087045D01*
X17849600Y-38072759D01*
X17949600Y-38001330D02*
X18063886Y-38001330D01*
X17992457Y-37901330D02*
X17992457Y-38158473D01*
X18006743Y-38187045D01*
X18035314Y-38201330D01*
X18063886Y-38201330D01*
X18278172Y-38187045D02*
X18249600Y-38201330D01*
X18192457Y-38201330D01*
X18163886Y-38187045D01*
X18149600Y-38158473D01*
X18149600Y-38044188D01*
X18163886Y-38015616D01*
X18192457Y-38001330D01*
X18249600Y-38001330D01*
X18278172Y-38015616D01*
X18292457Y-38044188D01*
X18292457Y-38072759D01*
X18149600Y-38101330D01*
X18549600Y-38201330D02*
X18549600Y-37901330D01*
X18549600Y-38187045D02*
X18521029Y-38201330D01*
X18463886Y-38201330D01*
X18435314Y-38187045D01*
X18421029Y-38172759D01*
X18406743Y-38144188D01*
X18406743Y-38058473D01*
X18421029Y-38029902D01*
X18435314Y-38015616D01*
X18463886Y-38001330D01*
X18521029Y-38001330D01*
X18549600Y-38015616D01*
X18663886Y-38315616D02*
X18678172Y-38301330D01*
X18706743Y-38258473D01*
X18721029Y-38229902D01*
X18735314Y-38187045D01*
X18749600Y-38115616D01*
X18749600Y-38058473D01*
X18735314Y-37987045D01*
X18721029Y-37944188D01*
X18706743Y-37915616D01*
X18678172Y-37872759D01*
X18663886Y-37858473D01*
M02*
