G04 #@! TF.GenerationSoftware,KiCad,Pcbnew,(5.1.4)-1*
G04 #@! TF.CreationDate,2023-09-09T05:31:09-04:00*
G04 #@! TF.ProjectId,ThumbsUp,5468756d-6273-4557-902e-6b696361645f,rev?*
G04 #@! TF.SameCoordinates,Original*
G04 #@! TF.FileFunction,Copper,L2,Bot*
G04 #@! TF.FilePolarity,Positive*
%FSLAX46Y46*%
G04 Gerber Fmt 4.6, Leading zero omitted, Abs format (unit mm)*
G04 Created by KiCad (PCBNEW (5.1.4)-1) date 2023-09-09 05:31:09*
%MOMM*%
%LPD*%
G04 APERTURE LIST*
%ADD10R,2.550000X2.500000*%
%ADD11R,2.000000X2.000000*%
%ADD12C,3.000000*%
%ADD13O,1.700000X1.700000*%
%ADD14R,1.700000X1.700000*%
%ADD15C,1.700000*%
%ADD16C,1.700000*%
%ADD17C,0.100000*%
%ADD18C,0.800000*%
%ADD19C,0.200000*%
G04 APERTURE END LIST*
D10*
X115200000Y-341640061D03*
D11*
X129800000Y-342990061D03*
D12*
X126300000Y-342990061D03*
X119000000Y-341640061D03*
D10*
X115758000Y-352470061D03*
X128685000Y-349930061D03*
X96136046Y-341640061D03*
D11*
X110736046Y-342990061D03*
D12*
X107236046Y-342990061D03*
X99936046Y-341640061D03*
D10*
X96694046Y-352470061D03*
X109621046Y-349930061D03*
D13*
X132181859Y-353578713D03*
X132181859Y-351038713D03*
X132181859Y-348498713D03*
D14*
X132181859Y-345958713D03*
D13*
X93463380Y-357077892D03*
X93463380Y-354537892D03*
X93463380Y-351997892D03*
D14*
X93463380Y-349457892D03*
D15*
X126947136Y-333518390D03*
D16*
X126947136Y-333518390D02*
X126947136Y-333518390D01*
D15*
X124493684Y-334175790D03*
D16*
X124493684Y-334175790D02*
X124493684Y-334175790D01*
D15*
X122040233Y-334833191D03*
D16*
X122040233Y-334833191D02*
X122040233Y-334833191D01*
D15*
X119586781Y-335490591D03*
D17*
G36*
X118545748Y-334889550D02*
G01*
X120187822Y-334449558D01*
X120627814Y-336091632D01*
X118985740Y-336531624D01*
X118545748Y-334889550D01*
X118545748Y-334889550D01*
G37*
D13*
X106290670Y-357174574D03*
X103750670Y-357174574D03*
X101210670Y-357174574D03*
D14*
X98670670Y-357174574D03*
D18*
X110700000Y-347300000D03*
D19*
X126200000Y-355100000D02*
X128685000Y-352615000D01*
X108365244Y-355100000D02*
X126200000Y-355100000D01*
X106290670Y-357174574D02*
X108365244Y-355100000D01*
X128685000Y-352615000D02*
X128685000Y-349930061D01*
X129800000Y-342990061D02*
X129800000Y-348815061D01*
X129800000Y-348815061D02*
X128685000Y-349930061D01*
X110700000Y-347300000D02*
X110700000Y-348851107D01*
X110700000Y-348851107D02*
X109621046Y-349930061D01*
X110700000Y-343026107D02*
X110736046Y-342990061D01*
X110700000Y-347300000D02*
X110700000Y-343026107D01*
X114800000Y-342000000D02*
X115159939Y-341640061D01*
X96136046Y-341763954D02*
X96136046Y-341640061D01*
X115159939Y-341640061D02*
X115200000Y-341640061D01*
X96694046Y-352470061D02*
X96070061Y-352470061D01*
X98670670Y-357174574D02*
X98670670Y-354421685D01*
X98670670Y-354421685D02*
X96719046Y-352470061D01*
X115758000Y-352470061D02*
X114800000Y-352470061D01*
X103375183Y-352470061D02*
X115758000Y-352470061D01*
X98670670Y-357174574D02*
X103375183Y-352470061D01*
X95900000Y-352300000D02*
X95900000Y-342000000D01*
X96070061Y-352470061D02*
X95900000Y-352300000D01*
X96719046Y-352470061D02*
X96694046Y-352470061D01*
X95900000Y-342000000D02*
X96136046Y-341763954D01*
X114800000Y-352470061D02*
X114800000Y-342000000D01*
M02*
