G04 #@! TF.GenerationSoftware,KiCad,Pcbnew,(5.1.4)-1*
G04 #@! TF.CreationDate,2023-05-19T09:15:40-04:00*
G04 #@! TF.ProjectId,ThumbsUp,5468756d-6273-4557-902e-6b696361645f,rev?*
G04 #@! TF.SameCoordinates,Original*
G04 #@! TF.FileFunction,Copper,L2,Bot*
G04 #@! TF.FilePolarity,Positive*
%FSLAX46Y46*%
G04 Gerber Fmt 4.6, Leading zero omitted, Abs format (unit mm)*
G04 Created by KiCad (PCBNEW (5.1.4)-1) date 2023-05-19 09:15:40*
%MOMM*%
%LPD*%
G04 APERTURE LIST*
%ADD10R,2.550000X2.500000*%
%ADD11C,2.250000*%
%ADD12C,2.250000*%
%ADD13C,1.700000*%
%ADD14C,1.700000*%
%ADD15C,0.100000*%
%ADD16O,1.700000X1.700000*%
%ADD17R,1.700000X1.700000*%
%ADD18C,0.200000*%
%ADD19C,0.250000*%
G04 APERTURE END LIST*
D10*
X109621046Y-349930061D03*
X96694046Y-352470061D03*
D11*
X100036046Y-343390061D03*
X99381047Y-344120061D03*
D12*
X98726046Y-344850061D02*
X100036048Y-343390061D01*
D11*
X105076046Y-342310061D03*
X105056046Y-342600061D03*
D12*
X105036046Y-342890061D02*
X105076046Y-342310061D01*
D10*
X128685000Y-349930061D03*
X115758000Y-352470061D03*
D11*
X119100000Y-343390061D03*
X118445001Y-344120061D03*
D12*
X117790000Y-344850061D02*
X119100002Y-343390061D01*
D11*
X124140000Y-342310061D03*
X124120000Y-342600061D03*
D12*
X124100000Y-342890061D02*
X124140000Y-342310061D01*
D13*
X126947136Y-333518390D03*
D14*
X126947136Y-333518390D02*
X126947136Y-333518390D01*
D13*
X124493684Y-334175790D03*
D14*
X124493684Y-334175790D02*
X124493684Y-334175790D01*
D13*
X122040233Y-334833191D03*
D14*
X122040233Y-334833191D02*
X122040233Y-334833191D01*
D13*
X119586781Y-335490591D03*
D15*
G36*
X118545748Y-334889550D02*
G01*
X120187822Y-334449558D01*
X120627814Y-336091632D01*
X118985740Y-336531624D01*
X118545748Y-334889550D01*
X118545748Y-334889550D01*
G37*
D16*
X93463380Y-357077892D03*
X93463380Y-354537892D03*
X93463380Y-351997892D03*
D17*
X93463380Y-349457892D03*
D16*
X132181859Y-353578713D03*
X132181859Y-351038713D03*
X132181859Y-348498713D03*
D17*
X132181859Y-345958713D03*
D16*
X106290670Y-357174574D03*
X103750670Y-357174574D03*
X101210670Y-357174574D03*
D17*
X98670670Y-357174574D03*
D18*
X124720000Y-342890061D02*
X124100000Y-342890061D01*
X128685000Y-346855061D02*
X124720000Y-342890061D01*
X128685000Y-349930061D02*
X128685000Y-346855061D01*
X128685000Y-351380061D02*
X128685000Y-349930061D01*
X124665061Y-355400000D02*
X128685000Y-351380061D01*
X106290670Y-357174574D02*
X108065244Y-355400000D01*
X108065244Y-355400000D02*
X124665061Y-355400000D01*
X109621046Y-351578954D02*
X109621046Y-349930061D01*
X106950000Y-354250000D02*
X109621046Y-351578954D01*
X101210670Y-357174574D02*
X104135244Y-354250000D01*
X104135244Y-354250000D02*
X106950000Y-354250000D01*
X106285061Y-342310061D02*
X105076046Y-342310061D01*
X109621046Y-349930061D02*
X109621046Y-345646046D01*
X109621046Y-345646046D02*
X106285061Y-342310061D01*
D19*
X99306000Y-341485015D02*
X99261046Y-341440061D01*
X99261046Y-341440061D02*
X99261046Y-342990061D01*
X99261046Y-342990061D02*
X100474985Y-344204000D01*
D18*
X96719046Y-352470061D02*
X96694046Y-352470061D01*
X98670670Y-354421685D02*
X96719046Y-352470061D01*
X98670670Y-357174574D02*
X98670670Y-354421685D01*
X115733000Y-352470061D02*
X115758000Y-352470061D01*
X114283000Y-351020061D02*
X115733000Y-352470061D01*
X114283000Y-346517000D02*
X114283000Y-351020061D01*
X117790000Y-344850061D02*
X115949939Y-344850061D01*
X115949939Y-344850061D02*
X114283000Y-346517000D01*
X99375000Y-345499015D02*
X98726046Y-344850061D01*
X99375000Y-348925000D02*
X99375000Y-345499015D01*
X96694046Y-352470061D02*
X96694046Y-351605954D01*
X96694046Y-351605954D02*
X99375000Y-348925000D01*
X116009939Y-340300000D02*
X119100000Y-343390061D01*
X103126107Y-340300000D02*
X116009939Y-340300000D01*
X98726046Y-344850061D02*
X98726046Y-344700061D01*
X98726046Y-344700061D02*
X103126107Y-340300000D01*
M02*
