G04 #@! TF.GenerationSoftware,KiCad,Pcbnew,(5.1.4)-1*
G04 #@! TF.CreationDate,2023-09-09T05:31:09-04:00*
G04 #@! TF.ProjectId,ThumbsUp,5468756d-6273-4557-902e-6b696361645f,rev?*
G04 #@! TF.SameCoordinates,Original*
G04 #@! TF.FileFunction,Copper,L1,Top*
G04 #@! TF.FilePolarity,Positive*
%FSLAX46Y46*%
G04 Gerber Fmt 4.6, Leading zero omitted, Abs format (unit mm)*
G04 Created by KiCad (PCBNEW (5.1.4)-1) date 2023-09-09 05:31:09*
%MOMM*%
%LPD*%
G04 APERTURE LIST*
%ADD10C,3.000000*%
%ADD11O,1.700000X1.700000*%
%ADD12R,1.700000X1.700000*%
%ADD13C,1.700000*%
%ADD14C,1.700000*%
%ADD15C,0.100000*%
%ADD16C,0.800000*%
%ADD17C,0.200000*%
G04 APERTURE END LIST*
D10*
X126300000Y-342990061D03*
X119000000Y-341640061D03*
X107236046Y-342990061D03*
X99936046Y-341640061D03*
D11*
X132181859Y-353578713D03*
X132181859Y-351038713D03*
X132181859Y-348498713D03*
D12*
X132181859Y-345958713D03*
D11*
X93463380Y-357077892D03*
X93463380Y-354537892D03*
X93463380Y-351997892D03*
D12*
X93463380Y-349457892D03*
D13*
X126947136Y-333518390D03*
D14*
X126947136Y-333518390D02*
X126947136Y-333518390D01*
D13*
X124493684Y-334175790D03*
D14*
X124493684Y-334175790D02*
X124493684Y-334175790D01*
D13*
X122040233Y-334833191D03*
D14*
X122040233Y-334833191D02*
X122040233Y-334833191D01*
D13*
X119586781Y-335490591D03*
D15*
G36*
X118545748Y-334889550D02*
G01*
X120187822Y-334449558D01*
X120627814Y-336091632D01*
X118985740Y-336531624D01*
X118545748Y-334889550D01*
X118545748Y-334889550D01*
G37*
D11*
X106290670Y-357174574D03*
X103750670Y-357174574D03*
X101210670Y-357174574D03*
D12*
X98670670Y-357174574D03*
D16*
X110700000Y-347300000D03*
D17*
X102500000Y-354700000D02*
X106500000Y-354700000D01*
X101210670Y-355989330D02*
X102500000Y-354700000D01*
X110700000Y-350500000D02*
X110700000Y-347300000D01*
X101210670Y-357174574D02*
X101210670Y-355989330D01*
X106500000Y-354700000D02*
X110700000Y-350500000D01*
M02*
