G04 #@! TF.GenerationSoftware,KiCad,Pcbnew,(5.1.4)-1*
G04 #@! TF.CreationDate,2023-05-19T09:15:39-04:00*
G04 #@! TF.ProjectId,ThumbsUp,5468756d-6273-4557-902e-6b696361645f,rev?*
G04 #@! TF.SameCoordinates,Original*
G04 #@! TF.FileFunction,Copper,L1,Top*
G04 #@! TF.FilePolarity,Positive*
%FSLAX46Y46*%
G04 Gerber Fmt 4.6, Leading zero omitted, Abs format (unit mm)*
G04 Created by KiCad (PCBNEW (5.1.4)-1) date 2023-05-19 09:15:39*
%MOMM*%
%LPD*%
G04 APERTURE LIST*
%ADD10C,2.250000*%
%ADD11C,2.250000*%
%ADD12C,1.700000*%
%ADD13C,1.700000*%
%ADD14C,0.100000*%
%ADD15O,1.700000X1.700000*%
%ADD16R,1.700000X1.700000*%
G04 APERTURE END LIST*
D10*
X100036046Y-343390061D03*
X99381047Y-344120061D03*
D11*
X98726046Y-344850061D02*
X100036048Y-343390061D01*
D10*
X105076046Y-342310061D03*
X105056046Y-342600061D03*
D11*
X105036046Y-342890061D02*
X105076046Y-342310061D01*
D10*
X119100000Y-343390061D03*
X118445001Y-344120061D03*
D11*
X117790000Y-344850061D02*
X119100002Y-343390061D01*
D10*
X124140000Y-342310061D03*
X124120000Y-342600061D03*
D11*
X124100000Y-342890061D02*
X124140000Y-342310061D01*
D12*
X126947136Y-333518390D03*
D13*
X126947136Y-333518390D02*
X126947136Y-333518390D01*
D12*
X124493684Y-334175790D03*
D13*
X124493684Y-334175790D02*
X124493684Y-334175790D01*
D12*
X122040233Y-334833191D03*
D13*
X122040233Y-334833191D02*
X122040233Y-334833191D01*
D12*
X119586781Y-335490591D03*
D14*
G36*
X118545748Y-334889550D02*
G01*
X120187822Y-334449558D01*
X120627814Y-336091632D01*
X118985740Y-336531624D01*
X118545748Y-334889550D01*
X118545748Y-334889550D01*
G37*
D15*
X93463380Y-357077892D03*
X93463380Y-354537892D03*
X93463380Y-351997892D03*
D16*
X93463380Y-349457892D03*
D15*
X132181859Y-353578713D03*
X132181859Y-351038713D03*
X132181859Y-348498713D03*
D16*
X132181859Y-345958713D03*
D15*
X106290670Y-357174574D03*
X103750670Y-357174574D03*
X101210670Y-357174574D03*
D16*
X98670670Y-357174574D03*
M02*
