M48
; DRILL file {KiCad (5.1.4)-1} date 9/9/2023 5:25:44 AM
; FORMAT={-:-/ absolute / metric / decimal}
; #@! TF.CreationDate,2023-09-09T05:25:44-04:00
; #@! TF.GenerationSoftware,Kicad,Pcbnew,(5.1.4)-1
; #@! TF.FileFunction,NonPlated,1,2,NPTH
FMAT,2
METRIC
T1C1.750
T2C2.950
T3C3.000
T4C5.050
%
G90
G05
T1
X193.332Y-537.91
X193.332Y-499.8
X203.492Y-499.8
X212.382Y-523.86
X222.542Y-523.86
X193.332Y-518.86
X203.492Y-518.86
X250.482Y-543.91
X260.642Y-543.91
X231.432Y-509.8
X241.592Y-509.8
X212.382Y-504.8
X222.542Y-504.8
X250.482Y-505.8
X260.642Y-505.8
X231.432Y-528.86
X241.592Y-528.86
X212.382Y-561.96
X222.542Y-561.96
X231.432Y-566.96
X241.592Y-566.96
X212.382Y-542.91
X222.542Y-542.91
X231.432Y-547.91
X241.592Y-547.91
X193.332Y-556.96
X203.492Y-556.96
X250.482Y-524.86
X260.642Y-524.86
X203.492Y-537.91
X250.482Y-562.96
X260.642Y-562.96
T2
X214.862Y-499.05
X222.162Y-500.4
X252.962Y-500.05
X260.262Y-501.4
X231.812Y-533.26
X239.112Y-534.61
X212.762Y-566.36
X220.062Y-567.71
X231.812Y-571.36
X239.112Y-572.71
X212.762Y-547.31
X220.062Y-548.66
X231.812Y-552.31
X239.112Y-553.66
X193.712Y-561.36
X201.012Y-562.71
X250.862Y-529.26
X258.162Y-530.61
X193.712Y-542.31
X201.012Y-543.66
X250.862Y-567.36
X258.162Y-568.71
X195.812Y-494.05
X203.112Y-495.4
X212.762Y-528.26
X220.062Y-529.61
X193.712Y-523.26
X201.012Y-524.61
X250.862Y-548.31
X258.162Y-549.66
X233.912Y-504.05
X241.212Y-505.4
T3
X195.872Y-504.88
X202.222Y-502.34
X213.652Y-521.32
X220.002Y-518.78
X194.602Y-516.32
X200.952Y-513.78
X251.752Y-541.37
X258.102Y-538.83
X233.972Y-514.88
X240.322Y-512.34
X214.922Y-509.88
X221.272Y-507.34
X253.022Y-510.88
X259.372Y-508.34
X232.702Y-526.32
X239.052Y-523.78
X213.652Y-559.42
X220.002Y-556.88
X232.702Y-564.42
X239.052Y-561.88
X213.652Y-540.37
X220.002Y-537.83
X232.702Y-545.37
X239.052Y-542.83
X194.602Y-554.42
X200.952Y-551.88
X251.752Y-522.32
X258.102Y-519.78
X194.602Y-535.37
X200.952Y-532.83
X251.752Y-560.42
X258.102Y-557.88
T4
X217.462Y-542.91
X236.512Y-547.91
X198.412Y-556.96
X255.562Y-524.86
X198.412Y-537.91
X255.562Y-562.96
X198.412Y-499.8
X217.462Y-523.86
X198.412Y-518.86
X255.562Y-543.91
X236.512Y-509.8
X217.462Y-504.8
X255.562Y-505.8
X236.512Y-528.86
X217.462Y-561.96
X236.512Y-566.96
T0
M30
