G04 #@! TF.GenerationSoftware,KiCad,Pcbnew,(5.1.4)-1*
G04 #@! TF.CreationDate,2023-09-09T05:25:46-04:00*
G04 #@! TF.ProjectId,ThumbsUp,5468756d-6273-4557-902e-6b696361645f,rev?*
G04 #@! TF.SameCoordinates,Original*
G04 #@! TF.FileFunction,Paste,Bot*
G04 #@! TF.FilePolarity,Positive*
%FSLAX46Y46*%
G04 Gerber Fmt 4.6, Leading zero omitted, Abs format (unit mm)*
G04 Created by KiCad (PCBNEW (5.1.4)-1) date 2023-09-09 05:25:46*
%MOMM*%
%LPD*%
G04 APERTURE LIST*
%ADD10R,2.550000X2.500000*%
%ADD11R,2.000000X2.000000*%
G04 APERTURE END LIST*
D10*
X242912025Y-572710323D03*
D11*
X228312025Y-571360323D03*
D10*
X242354025Y-561880323D03*
X229427025Y-564420323D03*
X192012025Y-494050000D03*
D11*
X206612025Y-495400000D03*
D10*
X192570025Y-504880000D03*
X205497025Y-502340000D03*
X230112025Y-504050000D03*
D11*
X244712025Y-505400000D03*
D10*
X230670025Y-514880000D03*
X243597025Y-512340000D03*
X223862025Y-548660322D03*
D11*
X209262025Y-547310322D03*
D10*
X223304025Y-537830322D03*
X210377025Y-540370322D03*
X223862025Y-529610323D03*
D11*
X209262025Y-528260323D03*
D10*
X223304025Y-518780323D03*
X210377025Y-521320323D03*
X249162025Y-500050000D03*
D11*
X263762025Y-501400000D03*
D10*
X249720025Y-510880000D03*
X262647025Y-508340000D03*
X242912025Y-534610322D03*
D11*
X228312025Y-533260322D03*
D10*
X242354025Y-523780322D03*
X229427025Y-526320322D03*
X204812025Y-524610322D03*
D11*
X190212025Y-523260322D03*
D10*
X204254025Y-513780322D03*
X191327025Y-516320322D03*
X204812025Y-562710322D03*
D11*
X190212025Y-561360322D03*
D10*
X204254025Y-551880322D03*
X191327025Y-554420322D03*
X223862025Y-567710322D03*
D11*
X209262025Y-566360322D03*
D10*
X223304025Y-556880322D03*
X210377025Y-559420322D03*
X261962025Y-530610322D03*
D11*
X247362025Y-529260322D03*
D10*
X261404025Y-519780322D03*
X248477025Y-522320322D03*
X261962024Y-549660322D03*
D11*
X247362024Y-548310322D03*
D10*
X261404024Y-538830322D03*
X248477024Y-541370322D03*
X204812025Y-543660323D03*
D11*
X190212025Y-542310323D03*
D10*
X204254025Y-532830323D03*
X191327025Y-535370323D03*
X261962025Y-568710322D03*
D11*
X247362025Y-567360322D03*
D10*
X261404025Y-557880322D03*
X248477025Y-560420322D03*
X242912026Y-553660322D03*
D11*
X228312026Y-552310322D03*
D10*
X242354026Y-542830322D03*
X229427026Y-545370322D03*
X211062025Y-499050000D03*
D11*
X225662025Y-500400000D03*
D10*
X211620025Y-509880000D03*
X224547025Y-507340000D03*
M02*
