%FSLAX45Y45*%
G04 Gerber Fmt 4.5, Leading zero omitted, Abs format (unit mm)*
G04 Created by KiCad (PCBNEW (5.1.4)-1) date 2023-05-19 08:48:04*
%MOMM*%
%LPD*%
G04 APERTURE LIST*
%ADD10C,0.050000*%
%ADD11C,0.200000*%
%ADD12C,0.300000*%
G04 APERTURE END LIST*
D10*
X24648000Y-50298000D02*
X24648000Y-51600000D01*
X24648000Y-51600000D02*
G75*
G02X24548000Y-51600000I-50000J0D01*
G01*
X24548000Y-50298000D02*
G75*
G02X24648000Y-50298000I50000J0D01*
G01*
X24548000Y-50298000D02*
X24548000Y-51600000D01*
X24648000Y-52218000D02*
X24648000Y-53520000D01*
X24648000Y-53520000D02*
G75*
G02X24548000Y-53520000I-50000J0D01*
G01*
X24548000Y-52218000D02*
G75*
G02X24648000Y-52218000I50000J0D01*
G01*
X24548000Y-52218000D02*
X24548000Y-53520000D01*
X24648000Y-54128000D02*
X24648000Y-55430000D01*
X24548000Y-54128000D02*
G75*
G02X24648000Y-54128000I50000J0D01*
G01*
X24648000Y-55430000D02*
G75*
G02X24548000Y-55430000I-50000J0D01*
G01*
X24548000Y-54128000D02*
X24548000Y-55430000D01*
X24550000Y-55960000D02*
G75*
G02X24650000Y-55960000I50000J0D01*
G01*
X24650000Y-56960000D02*
G75*
G02X24550000Y-56960000I-50000J0D01*
G01*
X24650000Y-55960000D02*
X24650000Y-56960000D01*
X24550000Y-55960000D02*
X24550000Y-56960000D01*
X15150249Y-58623435D02*
X15152190Y-49930639D01*
X26511202Y-49966032D02*
X26511202Y-56941032D01*
X22721202Y-57931032D02*
X23121202Y-57656032D01*
X24731202Y-57241032D02*
X24911202Y-57241032D01*
X22861202Y-49626032D02*
X22681202Y-49626032D01*
X18890000Y-54697000D02*
G75*
G03X18890000Y-54697000I-480000J0D01*
G01*
X18685000Y-52875000D02*
G75*
G03X18685000Y-52875000I-325000J0D01*
G01*
X21641203Y-58761032D02*
X16180391Y-60230918D01*
X22721202Y-58641032D02*
X22721202Y-57931032D01*
X19091203Y-49066032D02*
X18421203Y-49716032D01*
X24316202Y-57656032D02*
X23121202Y-57656032D01*
X21241203Y-49541032D02*
X20746203Y-49066032D01*
X22596202Y-49541032D02*
X22681202Y-49626032D01*
X26201202Y-49626032D02*
X26511202Y-49966032D01*
X24911202Y-57241032D02*
X26201202Y-57241032D01*
X19091203Y-49066032D02*
X20746203Y-49066032D01*
X26201202Y-49626032D02*
X22861202Y-49626032D01*
X21661203Y-58761032D02*
X22581202Y-58761032D01*
X24316202Y-57656032D02*
X24711202Y-57241032D01*
X21661203Y-58761032D02*
X21641203Y-58761032D01*
X22721202Y-58641032D02*
X22581202Y-58761032D01*
X21241203Y-49541032D02*
X22596202Y-49541032D01*
X18421203Y-49716032D02*
X15371203Y-49716032D01*
X26511202Y-56941032D02*
X26201202Y-57241032D01*
X15152190Y-49930639D02*
X15371203Y-49716032D01*
X24731202Y-57241032D02*
X24711202Y-57241032D01*
X15258251Y-60144663D02*
X16180391Y-60230918D01*
X15150249Y-58623435D02*
X14970438Y-59068483D01*
X15258251Y-60144663D02*
X14970438Y-59068483D01*
D11*
X17621203Y-49786032D02*
X17721203Y-49886032D01*
X17721203Y-49786032D02*
X17621203Y-49886032D01*
X17875203Y-49786032D02*
X17975203Y-49886032D01*
X17975203Y-49786032D02*
X17875203Y-49886032D01*
X18129203Y-49786032D02*
X18229203Y-49886032D01*
X18229203Y-49786032D02*
X18129203Y-49886032D01*
X18383203Y-49786032D02*
X18483203Y-49886032D01*
X18483203Y-49786032D02*
X18383203Y-49886032D01*
X15241202Y-54911028D02*
X15341202Y-55011028D01*
X15341202Y-54911028D02*
X15241202Y-55011028D01*
X15241202Y-55165028D02*
X15341202Y-55265028D01*
X15341202Y-55165028D02*
X15241202Y-55265028D01*
X15241202Y-55419028D02*
X15341202Y-55519028D01*
X15341202Y-55419028D02*
X15241202Y-55519028D01*
X15241202Y-55673028D02*
X15341202Y-55773028D01*
X15341202Y-55673028D02*
X15241202Y-55773028D01*
X15245873Y-49876079D02*
X15345873Y-49976079D01*
X15345873Y-49876079D02*
X15245873Y-49976079D01*
X15245873Y-50130079D02*
X15345873Y-50230079D01*
X15345873Y-50130079D02*
X15245873Y-50230079D01*
X15245873Y-50384079D02*
X15345873Y-50484079D01*
X15345873Y-50384079D02*
X15245873Y-50484079D01*
X15245873Y-50638079D02*
X15345873Y-50738079D01*
X15345873Y-50638079D02*
X15245873Y-50738079D01*
X17543672Y-55595785D02*
X17643672Y-55695785D01*
X17643672Y-55595785D02*
X17543672Y-55695785D01*
X17797672Y-55595785D02*
X17897672Y-55695785D01*
X17897672Y-55595785D02*
X17797672Y-55695785D01*
X18051672Y-55595785D02*
X18151672Y-55695785D01*
X18151672Y-55595785D02*
X18051672Y-55695785D01*
X18305672Y-55595785D02*
X18405672Y-55695785D01*
X18405672Y-55595785D02*
X18305672Y-55695785D01*
X22541202Y-57811032D02*
X22641202Y-57911032D01*
X22641202Y-57811032D02*
X22541202Y-57911032D01*
X22541202Y-58065032D02*
X22641202Y-58165032D01*
X22641202Y-58065032D02*
X22541202Y-58165032D01*
X22541202Y-58319032D02*
X22641202Y-58419032D01*
X22641202Y-58319032D02*
X22541202Y-58419032D01*
X22541202Y-58573032D02*
X22641202Y-58673032D01*
X22641202Y-58573032D02*
X22541202Y-58673032D01*
X17521203Y-51786032D02*
X17621203Y-51886032D01*
X17621203Y-51786032D02*
X17521203Y-51886032D01*
X17775203Y-51786032D02*
X17875203Y-51886032D01*
X17875203Y-51786032D02*
X17775203Y-51886032D01*
X18029203Y-51786032D02*
X18129203Y-51886032D01*
X18129203Y-51786032D02*
X18029203Y-51886032D01*
X18283203Y-51786032D02*
X18383203Y-51886032D01*
X18383203Y-51786032D02*
X18283203Y-51886032D01*
X17573901Y-53684201D02*
X17673901Y-53784201D01*
X17673901Y-53684201D02*
X17573901Y-53784201D01*
X17827901Y-53684201D02*
X17927901Y-53784201D01*
X17927901Y-53684201D02*
X17827901Y-53784201D01*
X18081901Y-53684201D02*
X18181901Y-53784201D01*
X18181901Y-53684201D02*
X18081901Y-53784201D01*
X18335901Y-53684201D02*
X18435901Y-53784201D01*
X18435901Y-53684201D02*
X18335901Y-53784201D01*
X16285167Y-59998252D02*
X16385167Y-60098252D01*
X16385167Y-59998252D02*
X16285167Y-60098252D01*
X16530512Y-59932512D02*
X16630512Y-60032512D01*
X16630512Y-59932512D02*
X16530512Y-60032512D01*
X16775857Y-59866772D02*
X16875857Y-59966772D01*
X16875857Y-59866772D02*
X16775857Y-59966772D01*
X17021203Y-59801032D02*
X17121203Y-59901032D01*
X17121203Y-59801032D02*
X17021203Y-59901032D01*
X25375702Y-56804032D02*
G75*
G03X25375702Y-56804032I-73500J0D01*
G01*
X25379702Y-56746032D02*
G75*
G03X25379702Y-56746032I-73500J0D01*
G01*
X25879702Y-56696032D02*
G75*
G03X25879702Y-56696032I-73500J0D01*
G01*
X26010702Y-56550032D02*
G75*
G03X26010702Y-56550032I-73500J0D01*
G01*
X23470702Y-53394032D02*
G75*
G03X23470702Y-53394032I-73500J0D01*
G01*
X23474702Y-53336032D02*
G75*
G03X23474702Y-53336032I-73500J0D01*
G01*
X23974702Y-53286032D02*
G75*
G03X23974702Y-53286032I-73500J0D01*
G01*
X24105702Y-53140032D02*
G75*
G03X24105702Y-53140032I-73500J0D01*
G01*
X25375702Y-54899032D02*
G75*
G03X25375702Y-54899032I-73500J0D01*
G01*
X25379702Y-54841032D02*
G75*
G03X25379702Y-54841032I-73500J0D01*
G01*
X25879702Y-54791032D02*
G75*
G03X25879702Y-54791032I-73500J0D01*
G01*
X26010702Y-54645032D02*
G75*
G03X26010702Y-54645032I-73500J0D01*
G01*
X19660703Y-52394032D02*
G75*
G03X19660703Y-52394032I-73500J0D01*
G01*
X19664703Y-52336032D02*
G75*
G03X19664703Y-52336032I-73500J0D01*
G01*
X20164703Y-52286032D02*
G75*
G03X20164703Y-52286032I-73500J0D01*
G01*
X20295703Y-52140032D02*
G75*
G03X20295703Y-52140032I-73500J0D01*
G01*
X19533703Y-49726000D02*
G75*
G03X19533703Y-49726000I-73500J0D01*
G01*
X19664703Y-49580000D02*
G75*
G03X19664703Y-49580000I-73500J0D01*
G01*
X20164703Y-49530000D02*
G75*
G03X20164703Y-49530000I-73500J0D01*
G01*
X20168703Y-49472000D02*
G75*
G03X20168703Y-49472000I-73500J0D01*
G01*
X23343702Y-50726000D02*
G75*
G03X23343702Y-50726000I-73500J0D01*
G01*
X23474702Y-50580000D02*
G75*
G03X23474702Y-50580000I-73500J0D01*
G01*
X23974702Y-50530000D02*
G75*
G03X23974702Y-50530000I-73500J0D01*
G01*
X23978702Y-50472000D02*
G75*
G03X23978702Y-50472000I-73500J0D01*
G01*
X25375702Y-52994032D02*
G75*
G03X25375702Y-52994032I-73500J0D01*
G01*
X25379702Y-52936032D02*
G75*
G03X25379702Y-52936032I-73500J0D01*
G01*
X25879702Y-52886032D02*
G75*
G03X25879702Y-52886032I-73500J0D01*
G01*
X26010702Y-52740032D02*
G75*
G03X26010702Y-52740032I-73500J0D01*
G01*
X21565703Y-56704032D02*
G75*
G03X21565703Y-56704032I-73500J0D01*
G01*
X21569703Y-56646032D02*
G75*
G03X21569703Y-56646032I-73500J0D01*
G01*
X22069703Y-56596032D02*
G75*
G03X22069703Y-56596032I-73500J0D01*
G01*
X22200703Y-56450032D02*
G75*
G03X22200703Y-56450032I-73500J0D01*
G01*
X25248702Y-50326000D02*
G75*
G03X25248702Y-50326000I-73500J0D01*
G01*
X25379702Y-50180000D02*
G75*
G03X25379702Y-50180000I-73500J0D01*
G01*
X25879702Y-50130000D02*
G75*
G03X25879702Y-50130000I-73500J0D01*
G01*
X25883702Y-50072000D02*
G75*
G03X25883702Y-50072000I-73500J0D01*
G01*
X19660703Y-56204032D02*
G75*
G03X19660703Y-56204032I-73500J0D01*
G01*
X19664703Y-56146032D02*
G75*
G03X19664703Y-56146032I-73500J0D01*
G01*
X20164703Y-56096032D02*
G75*
G03X20164703Y-56096032I-73500J0D01*
G01*
X20295703Y-55950032D02*
G75*
G03X20295703Y-55950032I-73500J0D01*
G01*
X21565703Y-54799032D02*
G75*
G03X21565703Y-54799032I-73500J0D01*
G01*
X21569703Y-54741032D02*
G75*
G03X21569703Y-54741032I-73500J0D01*
G01*
X22069703Y-54691032D02*
G75*
G03X22069703Y-54691032I-73500J0D01*
G01*
X22200703Y-54545032D02*
G75*
G03X22200703Y-54545032I-73500J0D01*
G01*
X23470703Y-55299032D02*
G75*
G03X23470703Y-55299032I-73500J0D01*
G01*
X23474703Y-55241032D02*
G75*
G03X23474703Y-55241032I-73500J0D01*
G01*
X23974703Y-55191032D02*
G75*
G03X23974703Y-55191032I-73500J0D01*
G01*
X24105703Y-55045032D02*
G75*
G03X24105703Y-55045032I-73500J0D01*
G01*
X21438703Y-50226000D02*
G75*
G03X21438703Y-50226000I-73500J0D01*
G01*
X21569703Y-50080000D02*
G75*
G03X21569703Y-50080000I-73500J0D01*
G01*
X22069703Y-50030000D02*
G75*
G03X22069703Y-50030000I-73500J0D01*
G01*
X22073703Y-49972000D02*
G75*
G03X22073703Y-49972000I-73500J0D01*
G01*
X21565703Y-52894032D02*
G75*
G03X21565703Y-52894032I-73500J0D01*
G01*
X21569703Y-52836032D02*
G75*
G03X21569703Y-52836032I-73500J0D01*
G01*
X22069703Y-52786032D02*
G75*
G03X22069703Y-52786032I-73500J0D01*
G01*
X22200703Y-52640032D02*
G75*
G03X22200703Y-52640032I-73500J0D01*
G01*
X19660703Y-54299032D02*
G75*
G03X19660703Y-54299032I-73500J0D01*
G01*
X19664703Y-54241032D02*
G75*
G03X19664703Y-54241032I-73500J0D01*
G01*
X20164703Y-54191032D02*
G75*
G03X20164703Y-54191032I-73500J0D01*
G01*
X20295703Y-54045032D02*
G75*
G03X20295703Y-54045032I-73500J0D01*
G01*
X23470702Y-57204032D02*
G75*
G03X23470702Y-57204032I-73500J0D01*
G01*
X23474702Y-57146032D02*
G75*
G03X23474702Y-57146032I-73500J0D01*
G01*
X23974702Y-57096032D02*
G75*
G03X23974702Y-57096032I-73500J0D01*
G01*
X24105702Y-56950032D02*
G75*
G03X24105702Y-56950032I-73500J0D01*
G01*
D12*
X15254366Y-60699133D02*
X15254366Y-60399133D01*
X15325795Y-60399133D01*
X15368652Y-60413419D01*
X15397223Y-60441990D01*
X15411509Y-60470561D01*
X15425795Y-60527704D01*
X15425795Y-60570561D01*
X15411509Y-60627704D01*
X15397223Y-60656276D01*
X15368652Y-60684847D01*
X15325795Y-60699133D01*
X15254366Y-60699133D01*
X15554366Y-60699133D02*
X15554366Y-60499133D01*
X15554366Y-60556276D02*
X15568652Y-60527704D01*
X15582938Y-60513419D01*
X15611509Y-60499133D01*
X15640080Y-60499133D01*
X15740080Y-60699133D02*
X15740080Y-60499133D01*
X15740080Y-60399133D02*
X15725795Y-60413419D01*
X15740080Y-60427704D01*
X15754366Y-60413419D01*
X15740080Y-60399133D01*
X15740080Y-60427704D01*
X15925795Y-60699133D02*
X15897223Y-60684847D01*
X15882938Y-60656276D01*
X15882938Y-60399133D01*
X16082938Y-60699133D02*
X16054366Y-60684847D01*
X16040080Y-60656276D01*
X16040080Y-60399133D01*
X16425795Y-60699133D02*
X16425795Y-60399133D01*
X16525795Y-60613419D01*
X16625795Y-60399133D01*
X16625795Y-60699133D01*
X16897223Y-60699133D02*
X16897223Y-60541990D01*
X16882938Y-60513419D01*
X16854366Y-60499133D01*
X16797223Y-60499133D01*
X16768652Y-60513419D01*
X16897223Y-60684847D02*
X16868652Y-60699133D01*
X16797223Y-60699133D01*
X16768652Y-60684847D01*
X16754366Y-60656276D01*
X16754366Y-60627704D01*
X16768652Y-60599133D01*
X16797223Y-60584847D01*
X16868652Y-60584847D01*
X16897223Y-60570561D01*
X17040081Y-60499133D02*
X17040081Y-60799133D01*
X17040081Y-60513419D02*
X17068652Y-60499133D01*
X17125795Y-60499133D01*
X17154366Y-60513419D01*
X17168652Y-60527704D01*
X17182938Y-60556276D01*
X17182938Y-60641990D01*
X17168652Y-60670561D01*
X17154366Y-60684847D01*
X17125795Y-60699133D01*
X17068652Y-60699133D01*
X17040081Y-60684847D01*
X17311509Y-60670561D02*
X17325795Y-60684847D01*
X17311509Y-60699133D01*
X17297223Y-60684847D01*
X17311509Y-60670561D01*
X17311509Y-60699133D01*
X17311509Y-60513419D02*
X17325795Y-60527704D01*
X17311509Y-60541990D01*
X17297223Y-60527704D01*
X17311509Y-60513419D01*
X17311509Y-60541990D01*
X14867938Y-61143419D02*
X14967938Y-61243419D01*
X14967938Y-61143419D02*
X14867938Y-61243419D01*
X15411509Y-61329133D02*
X15240080Y-61329133D01*
X15325795Y-61329133D02*
X15325795Y-61029133D01*
X15297223Y-61071990D01*
X15268652Y-61100561D01*
X15240080Y-61114847D01*
X15540080Y-61300561D02*
X15554366Y-61314847D01*
X15540080Y-61329133D01*
X15525795Y-61314847D01*
X15540080Y-61300561D01*
X15540080Y-61329133D01*
X15740080Y-61029133D02*
X15768652Y-61029133D01*
X15797223Y-61043419D01*
X15811509Y-61057704D01*
X15825795Y-61086276D01*
X15840080Y-61143419D01*
X15840080Y-61214847D01*
X15825795Y-61271990D01*
X15811509Y-61300561D01*
X15797223Y-61314847D01*
X15768652Y-61329133D01*
X15740080Y-61329133D01*
X15711509Y-61314847D01*
X15697223Y-61300561D01*
X15682938Y-61271990D01*
X15668652Y-61214847D01*
X15668652Y-61143419D01*
X15682938Y-61086276D01*
X15697223Y-61057704D01*
X15711509Y-61043419D01*
X15740080Y-61029133D01*
X16025795Y-61029133D02*
X16054366Y-61029133D01*
X16082938Y-61043419D01*
X16097223Y-61057704D01*
X16111509Y-61086276D01*
X16125795Y-61143419D01*
X16125795Y-61214847D01*
X16111509Y-61271990D01*
X16097223Y-61300561D01*
X16082938Y-61314847D01*
X16054366Y-61329133D01*
X16025795Y-61329133D01*
X15997223Y-61314847D01*
X15982938Y-61300561D01*
X15968652Y-61271990D01*
X15954366Y-61214847D01*
X15954366Y-61143419D01*
X15968652Y-61086276D01*
X15982938Y-61057704D01*
X15997223Y-61043419D01*
X16025795Y-61029133D01*
X16254366Y-61329133D02*
X16254366Y-61129133D01*
X16254366Y-61157704D02*
X16268652Y-61143419D01*
X16297223Y-61129133D01*
X16340080Y-61129133D01*
X16368652Y-61143419D01*
X16382938Y-61171990D01*
X16382938Y-61329133D01*
X16382938Y-61171990D02*
X16397223Y-61143419D01*
X16425795Y-61129133D01*
X16468652Y-61129133D01*
X16497223Y-61143419D01*
X16511509Y-61171990D01*
X16511509Y-61329133D01*
X16654366Y-61329133D02*
X16654366Y-61129133D01*
X16654366Y-61157704D02*
X16668652Y-61143419D01*
X16697223Y-61129133D01*
X16740080Y-61129133D01*
X16768652Y-61143419D01*
X16782938Y-61171990D01*
X16782938Y-61329133D01*
X16782938Y-61171990D02*
X16797223Y-61143419D01*
X16825795Y-61129133D01*
X16868652Y-61129133D01*
X16897223Y-61143419D01*
X16911509Y-61171990D01*
X16911509Y-61329133D01*
X17497223Y-61014847D02*
X17240081Y-61400561D01*
X17882938Y-61029133D02*
X17911509Y-61029133D01*
X17940081Y-61043419D01*
X17954366Y-61057704D01*
X17968652Y-61086276D01*
X17982938Y-61143419D01*
X17982938Y-61214847D01*
X17968652Y-61271990D01*
X17954366Y-61300561D01*
X17940081Y-61314847D01*
X17911509Y-61329133D01*
X17882938Y-61329133D01*
X17854366Y-61314847D01*
X17840081Y-61300561D01*
X17825795Y-61271990D01*
X17811509Y-61214847D01*
X17811509Y-61143419D01*
X17825795Y-61086276D01*
X17840081Y-61057704D01*
X17854366Y-61043419D01*
X17882938Y-61029133D01*
X18111509Y-61300561D02*
X18125795Y-61314847D01*
X18111509Y-61329133D01*
X18097223Y-61314847D01*
X18111509Y-61300561D01*
X18111509Y-61329133D01*
X18311509Y-61029133D02*
X18340081Y-61029133D01*
X18368652Y-61043419D01*
X18382938Y-61057704D01*
X18397223Y-61086276D01*
X18411509Y-61143419D01*
X18411509Y-61214847D01*
X18397223Y-61271990D01*
X18382938Y-61300561D01*
X18368652Y-61314847D01*
X18340081Y-61329133D01*
X18311509Y-61329133D01*
X18282938Y-61314847D01*
X18268652Y-61300561D01*
X18254366Y-61271990D01*
X18240081Y-61214847D01*
X18240081Y-61143419D01*
X18254366Y-61086276D01*
X18268652Y-61057704D01*
X18282938Y-61043419D01*
X18311509Y-61029133D01*
X18511509Y-61029133D02*
X18697223Y-61029133D01*
X18597223Y-61143419D01*
X18640081Y-61143419D01*
X18668652Y-61157704D01*
X18682938Y-61171990D01*
X18697223Y-61200561D01*
X18697223Y-61271990D01*
X18682938Y-61300561D01*
X18668652Y-61314847D01*
X18640081Y-61329133D01*
X18554366Y-61329133D01*
X18525795Y-61314847D01*
X18511509Y-61300561D01*
X18840081Y-61329133D02*
X18897223Y-61329133D01*
X18925795Y-61314847D01*
X18940081Y-61300561D01*
X18968652Y-61257704D01*
X18982938Y-61200561D01*
X18982938Y-61086276D01*
X18968652Y-61057704D01*
X18954366Y-61043419D01*
X18925795Y-61029133D01*
X18868652Y-61029133D01*
X18840081Y-61043419D01*
X18825795Y-61057704D01*
X18811509Y-61086276D01*
X18811509Y-61157704D01*
X18825795Y-61186276D01*
X18840081Y-61200561D01*
X18868652Y-61214847D01*
X18925795Y-61214847D01*
X18954366Y-61200561D01*
X18968652Y-61186276D01*
X18982938Y-61157704D01*
X19097223Y-61029133D02*
X19097223Y-61086276D01*
X19211509Y-61029133D02*
X19211509Y-61086276D01*
X19654366Y-61443419D02*
X19640081Y-61429133D01*
X19611509Y-61386276D01*
X19597223Y-61357704D01*
X19582938Y-61314847D01*
X19568652Y-61243419D01*
X19568652Y-61186276D01*
X19582938Y-61114847D01*
X19597223Y-61071990D01*
X19611509Y-61043419D01*
X19640081Y-61000561D01*
X19654366Y-60986276D01*
X19740081Y-61029133D02*
X19925795Y-61029133D01*
X19825795Y-61143419D01*
X19868652Y-61143419D01*
X19897223Y-61157704D01*
X19911509Y-61171990D01*
X19925795Y-61200561D01*
X19925795Y-61271990D01*
X19911509Y-61300561D01*
X19897223Y-61314847D01*
X19868652Y-61329133D01*
X19782938Y-61329133D01*
X19754366Y-61314847D01*
X19740081Y-61300561D01*
X20040081Y-61057704D02*
X20054366Y-61043419D01*
X20082938Y-61029133D01*
X20154366Y-61029133D01*
X20182938Y-61043419D01*
X20197223Y-61057704D01*
X20211509Y-61086276D01*
X20211509Y-61114847D01*
X20197223Y-61157704D01*
X20025795Y-61329133D01*
X20211509Y-61329133D01*
X20568652Y-61329133D02*
X20568652Y-61029133D01*
X20697223Y-61329133D02*
X20697223Y-61171990D01*
X20682938Y-61143419D01*
X20654366Y-61129133D01*
X20611509Y-61129133D01*
X20582938Y-61143419D01*
X20568652Y-61157704D01*
X20882938Y-61329133D02*
X20854366Y-61314847D01*
X20840081Y-61300561D01*
X20825795Y-61271990D01*
X20825795Y-61186276D01*
X20840081Y-61157704D01*
X20854366Y-61143419D01*
X20882938Y-61129133D01*
X20925795Y-61129133D01*
X20954366Y-61143419D01*
X20968652Y-61157704D01*
X20982938Y-61186276D01*
X20982938Y-61271990D01*
X20968652Y-61300561D01*
X20954366Y-61314847D01*
X20925795Y-61329133D01*
X20882938Y-61329133D01*
X21154366Y-61329133D02*
X21125795Y-61314847D01*
X21111509Y-61286276D01*
X21111509Y-61029133D01*
X21382938Y-61314847D02*
X21354366Y-61329133D01*
X21297223Y-61329133D01*
X21268652Y-61314847D01*
X21254366Y-61286276D01*
X21254366Y-61171990D01*
X21268652Y-61143419D01*
X21297223Y-61129133D01*
X21354366Y-61129133D01*
X21382938Y-61143419D01*
X21397223Y-61171990D01*
X21397223Y-61200561D01*
X21254366Y-61229133D01*
X21511509Y-61314847D02*
X21540081Y-61329133D01*
X21597223Y-61329133D01*
X21625795Y-61314847D01*
X21640081Y-61286276D01*
X21640081Y-61271990D01*
X21625795Y-61243419D01*
X21597223Y-61229133D01*
X21554366Y-61229133D01*
X21525795Y-61214847D01*
X21511509Y-61186276D01*
X21511509Y-61171990D01*
X21525795Y-61143419D01*
X21554366Y-61129133D01*
X21597223Y-61129133D01*
X21625795Y-61143419D01*
X21740081Y-61443419D02*
X21754366Y-61429133D01*
X21782938Y-61386276D01*
X21797223Y-61357704D01*
X21811509Y-61314847D01*
X21825795Y-61243419D01*
X21825795Y-61186276D01*
X21811509Y-61114847D01*
X21797223Y-61071990D01*
X21782938Y-61043419D01*
X21754366Y-61000561D01*
X21740081Y-60986276D01*
X14967938Y-61589419D02*
G75*
G03X14967938Y-61589419I-73500J0D01*
G01*
X15411509Y-61725133D02*
X15240080Y-61725133D01*
X15325795Y-61725133D02*
X15325795Y-61425133D01*
X15297223Y-61467990D01*
X15268652Y-61496561D01*
X15240080Y-61510847D01*
X15540080Y-61696561D02*
X15554366Y-61710847D01*
X15540080Y-61725133D01*
X15525795Y-61710847D01*
X15540080Y-61696561D01*
X15540080Y-61725133D01*
X15811509Y-61525133D02*
X15811509Y-61725133D01*
X15740080Y-61410847D02*
X15668652Y-61625133D01*
X15854366Y-61625133D01*
X15940080Y-61425133D02*
X16140080Y-61425133D01*
X16011509Y-61725133D01*
X16254366Y-61725133D02*
X16254366Y-61525133D01*
X16254366Y-61553704D02*
X16268652Y-61539419D01*
X16297223Y-61525133D01*
X16340080Y-61525133D01*
X16368652Y-61539419D01*
X16382938Y-61567990D01*
X16382938Y-61725133D01*
X16382938Y-61567990D02*
X16397223Y-61539419D01*
X16425795Y-61525133D01*
X16468652Y-61525133D01*
X16497223Y-61539419D01*
X16511509Y-61567990D01*
X16511509Y-61725133D01*
X16654366Y-61725133D02*
X16654366Y-61525133D01*
X16654366Y-61553704D02*
X16668652Y-61539419D01*
X16697223Y-61525133D01*
X16740080Y-61525133D01*
X16768652Y-61539419D01*
X16782938Y-61567990D01*
X16782938Y-61725133D01*
X16782938Y-61567990D02*
X16797223Y-61539419D01*
X16825795Y-61525133D01*
X16868652Y-61525133D01*
X16897223Y-61539419D01*
X16911509Y-61567990D01*
X16911509Y-61725133D01*
X17497223Y-61410847D02*
X17240081Y-61796561D01*
X17882938Y-61425133D02*
X17911509Y-61425133D01*
X17940081Y-61439419D01*
X17954366Y-61453704D01*
X17968652Y-61482276D01*
X17982938Y-61539419D01*
X17982938Y-61610847D01*
X17968652Y-61667990D01*
X17954366Y-61696561D01*
X17940081Y-61710847D01*
X17911509Y-61725133D01*
X17882938Y-61725133D01*
X17854366Y-61710847D01*
X17840081Y-61696561D01*
X17825795Y-61667990D01*
X17811509Y-61610847D01*
X17811509Y-61539419D01*
X17825795Y-61482276D01*
X17840081Y-61453704D01*
X17854366Y-61439419D01*
X17882938Y-61425133D01*
X18111509Y-61696561D02*
X18125795Y-61710847D01*
X18111509Y-61725133D01*
X18097223Y-61710847D01*
X18111509Y-61696561D01*
X18111509Y-61725133D01*
X18311509Y-61425133D02*
X18340081Y-61425133D01*
X18368652Y-61439419D01*
X18382938Y-61453704D01*
X18397223Y-61482276D01*
X18411509Y-61539419D01*
X18411509Y-61610847D01*
X18397223Y-61667990D01*
X18382938Y-61696561D01*
X18368652Y-61710847D01*
X18340081Y-61725133D01*
X18311509Y-61725133D01*
X18282938Y-61710847D01*
X18268652Y-61696561D01*
X18254366Y-61667990D01*
X18240081Y-61610847D01*
X18240081Y-61539419D01*
X18254366Y-61482276D01*
X18268652Y-61453704D01*
X18282938Y-61439419D01*
X18311509Y-61425133D01*
X18682938Y-61425133D02*
X18540081Y-61425133D01*
X18525795Y-61567990D01*
X18540081Y-61553704D01*
X18568652Y-61539419D01*
X18640081Y-61539419D01*
X18668652Y-61553704D01*
X18682938Y-61567990D01*
X18697223Y-61596561D01*
X18697223Y-61667990D01*
X18682938Y-61696561D01*
X18668652Y-61710847D01*
X18640081Y-61725133D01*
X18568652Y-61725133D01*
X18540081Y-61710847D01*
X18525795Y-61696561D01*
X18868652Y-61553704D02*
X18840081Y-61539419D01*
X18825795Y-61525133D01*
X18811509Y-61496561D01*
X18811509Y-61482276D01*
X18825795Y-61453704D01*
X18840081Y-61439419D01*
X18868652Y-61425133D01*
X18925795Y-61425133D01*
X18954366Y-61439419D01*
X18968652Y-61453704D01*
X18982938Y-61482276D01*
X18982938Y-61496561D01*
X18968652Y-61525133D01*
X18954366Y-61539419D01*
X18925795Y-61553704D01*
X18868652Y-61553704D01*
X18840081Y-61567990D01*
X18825795Y-61582276D01*
X18811509Y-61610847D01*
X18811509Y-61667990D01*
X18825795Y-61696561D01*
X18840081Y-61710847D01*
X18868652Y-61725133D01*
X18925795Y-61725133D01*
X18954366Y-61710847D01*
X18968652Y-61696561D01*
X18982938Y-61667990D01*
X18982938Y-61610847D01*
X18968652Y-61582276D01*
X18954366Y-61567990D01*
X18925795Y-61553704D01*
X19097223Y-61425133D02*
X19097223Y-61482276D01*
X19211509Y-61425133D02*
X19211509Y-61482276D01*
X19654366Y-61839419D02*
X19640081Y-61825133D01*
X19611509Y-61782276D01*
X19597223Y-61753704D01*
X19582938Y-61710847D01*
X19568652Y-61639419D01*
X19568652Y-61582276D01*
X19582938Y-61510847D01*
X19597223Y-61467990D01*
X19611509Y-61439419D01*
X19640081Y-61396561D01*
X19654366Y-61382276D01*
X19897223Y-61425133D02*
X19840081Y-61425133D01*
X19811509Y-61439419D01*
X19797223Y-61453704D01*
X19768652Y-61496561D01*
X19754366Y-61553704D01*
X19754366Y-61667990D01*
X19768652Y-61696561D01*
X19782938Y-61710847D01*
X19811509Y-61725133D01*
X19868652Y-61725133D01*
X19897223Y-61710847D01*
X19911509Y-61696561D01*
X19925795Y-61667990D01*
X19925795Y-61596561D01*
X19911509Y-61567990D01*
X19897223Y-61553704D01*
X19868652Y-61539419D01*
X19811509Y-61539419D01*
X19782938Y-61553704D01*
X19768652Y-61567990D01*
X19754366Y-61596561D01*
X20182938Y-61525133D02*
X20182938Y-61725133D01*
X20111509Y-61410847D02*
X20040081Y-61625133D01*
X20225795Y-61625133D01*
X20568652Y-61725133D02*
X20568652Y-61425133D01*
X20697223Y-61725133D02*
X20697223Y-61567990D01*
X20682938Y-61539419D01*
X20654366Y-61525133D01*
X20611509Y-61525133D01*
X20582938Y-61539419D01*
X20568652Y-61553704D01*
X20882938Y-61725133D02*
X20854366Y-61710847D01*
X20840081Y-61696561D01*
X20825795Y-61667990D01*
X20825795Y-61582276D01*
X20840081Y-61553704D01*
X20854366Y-61539419D01*
X20882938Y-61525133D01*
X20925795Y-61525133D01*
X20954366Y-61539419D01*
X20968652Y-61553704D01*
X20982938Y-61582276D01*
X20982938Y-61667990D01*
X20968652Y-61696561D01*
X20954366Y-61710847D01*
X20925795Y-61725133D01*
X20882938Y-61725133D01*
X21154366Y-61725133D02*
X21125795Y-61710847D01*
X21111509Y-61682276D01*
X21111509Y-61425133D01*
X21382938Y-61710847D02*
X21354366Y-61725133D01*
X21297223Y-61725133D01*
X21268652Y-61710847D01*
X21254366Y-61682276D01*
X21254366Y-61567990D01*
X21268652Y-61539419D01*
X21297223Y-61525133D01*
X21354366Y-61525133D01*
X21382938Y-61539419D01*
X21397223Y-61567990D01*
X21397223Y-61596561D01*
X21254366Y-61625133D01*
X21511509Y-61710847D02*
X21540081Y-61725133D01*
X21597223Y-61725133D01*
X21625795Y-61710847D01*
X21640081Y-61682276D01*
X21640081Y-61667990D01*
X21625795Y-61639419D01*
X21597223Y-61625133D01*
X21554366Y-61625133D01*
X21525795Y-61610847D01*
X21511509Y-61582276D01*
X21511509Y-61567990D01*
X21525795Y-61539419D01*
X21554366Y-61525133D01*
X21597223Y-61525133D01*
X21625795Y-61539419D01*
X21740081Y-61839419D02*
X21754366Y-61825133D01*
X21782938Y-61782276D01*
X21797223Y-61753704D01*
X21811509Y-61710847D01*
X21825795Y-61639419D01*
X21825795Y-61582276D01*
X21811509Y-61510847D01*
X21797223Y-61467990D01*
X21782938Y-61439419D01*
X21754366Y-61396561D01*
X21740081Y-61382276D01*
M02*
