G04 #@! TF.GenerationSoftware,KiCad,Pcbnew,(5.1.4)-1*
G04 #@! TF.CreationDate,2023-09-09T05:25:47-04:00*
G04 #@! TF.ProjectId,ThumbsUp,5468756d-6273-4557-902e-6b696361645f,rev?*
G04 #@! TF.SameCoordinates,Original*
G04 #@! TF.FileFunction,Soldermask,Bot*
G04 #@! TF.FilePolarity,Negative*
%FSLAX46Y46*%
G04 Gerber Fmt 4.6, Leading zero omitted, Abs format (unit mm)*
G04 Created by KiCad (PCBNEW (5.1.4)-1) date 2023-09-09 05:25:47*
%MOMM*%
%LPD*%
G04 APERTURE LIST*
%ADD10C,0.100000*%
G04 APERTURE END LIST*
D10*
G36*
X164455165Y-601119626D02*
G01*
X162714567Y-601586018D01*
X162248175Y-599845420D01*
X163988773Y-599379028D01*
X164455165Y-601119626D01*
X164455165Y-601119626D01*
G37*
G36*
X165915564Y-598930641D02*
G01*
X165981749Y-598937160D01*
X166151588Y-598988680D01*
X166308113Y-599072345D01*
X166343851Y-599101675D01*
X166445308Y-599184937D01*
X166528570Y-599286394D01*
X166557900Y-599322132D01*
X166641565Y-599478657D01*
X166693085Y-599648496D01*
X166710481Y-599825123D01*
X166693085Y-600001750D01*
X166641565Y-600171589D01*
X166557900Y-600328114D01*
X166528570Y-600363852D01*
X166445308Y-600465309D01*
X166343851Y-600548571D01*
X166308113Y-600577901D01*
X166151588Y-600661566D01*
X165981749Y-600713086D01*
X165915565Y-600719604D01*
X165849382Y-600726123D01*
X165760862Y-600726123D01*
X165694679Y-600719604D01*
X165628495Y-600713086D01*
X165458656Y-600661566D01*
X165302131Y-600577901D01*
X165266393Y-600548571D01*
X165164936Y-600465309D01*
X165081674Y-600363852D01*
X165052344Y-600328114D01*
X164968679Y-600171589D01*
X164917159Y-600001750D01*
X164899763Y-599825123D01*
X164917159Y-599648496D01*
X164968679Y-599478657D01*
X165052344Y-599322132D01*
X165081674Y-599286394D01*
X165164936Y-599184937D01*
X165266393Y-599101675D01*
X165302131Y-599072345D01*
X165458656Y-598988680D01*
X165628495Y-598937160D01*
X165694680Y-598930641D01*
X165760862Y-598924123D01*
X165849382Y-598924123D01*
X165915564Y-598930641D01*
X165915564Y-598930641D01*
G37*
G36*
X168369015Y-598273240D02*
G01*
X168435200Y-598279759D01*
X168605039Y-598331279D01*
X168761564Y-598414944D01*
X168797302Y-598444274D01*
X168898759Y-598527536D01*
X168982021Y-598628993D01*
X169011351Y-598664731D01*
X169095016Y-598821256D01*
X169146536Y-598991095D01*
X169163932Y-599167722D01*
X169146536Y-599344349D01*
X169095016Y-599514188D01*
X169011351Y-599670713D01*
X168982021Y-599706451D01*
X168898759Y-599807908D01*
X168797302Y-599891170D01*
X168761564Y-599920500D01*
X168605039Y-600004165D01*
X168435200Y-600055685D01*
X168369016Y-600062203D01*
X168302833Y-600068722D01*
X168214313Y-600068722D01*
X168148130Y-600062203D01*
X168081946Y-600055685D01*
X167912107Y-600004165D01*
X167755582Y-599920500D01*
X167719844Y-599891170D01*
X167618387Y-599807908D01*
X167535125Y-599706451D01*
X167505795Y-599670713D01*
X167422130Y-599514188D01*
X167370610Y-599344349D01*
X167353214Y-599167722D01*
X167370610Y-598991095D01*
X167422130Y-598821256D01*
X167505795Y-598664731D01*
X167535125Y-598628993D01*
X167618387Y-598527536D01*
X167719844Y-598444274D01*
X167755582Y-598414944D01*
X167912107Y-598331279D01*
X168081946Y-598279759D01*
X168148131Y-598273240D01*
X168214313Y-598266722D01*
X168302833Y-598266722D01*
X168369015Y-598273240D01*
X168369015Y-598273240D01*
G37*
G36*
X170822467Y-597615840D02*
G01*
X170888652Y-597622359D01*
X171058491Y-597673879D01*
X171215016Y-597757544D01*
X171250754Y-597786874D01*
X171352211Y-597870136D01*
X171435473Y-597971593D01*
X171464803Y-598007331D01*
X171548468Y-598163856D01*
X171599988Y-598333695D01*
X171617384Y-598510322D01*
X171599988Y-598686949D01*
X171548468Y-598856788D01*
X171464803Y-599013313D01*
X171435473Y-599049051D01*
X171352211Y-599150508D01*
X171250754Y-599233770D01*
X171215016Y-599263100D01*
X171058491Y-599346765D01*
X170888652Y-599398285D01*
X170822467Y-599404804D01*
X170756285Y-599411322D01*
X170667765Y-599411322D01*
X170601583Y-599404804D01*
X170535398Y-599398285D01*
X170365559Y-599346765D01*
X170209034Y-599263100D01*
X170173296Y-599233770D01*
X170071839Y-599150508D01*
X169988577Y-599049051D01*
X169959247Y-599013313D01*
X169875582Y-598856788D01*
X169824062Y-598686949D01*
X169806666Y-598510322D01*
X169824062Y-598333695D01*
X169875582Y-598163856D01*
X169959247Y-598007331D01*
X169988577Y-597971593D01*
X170071839Y-597870136D01*
X170173296Y-597786874D01*
X170209034Y-597757544D01*
X170365559Y-597673879D01*
X170535398Y-597622359D01*
X170601583Y-597615840D01*
X170667765Y-597609322D01*
X170756285Y-597609322D01*
X170822467Y-597615840D01*
X170822467Y-597615840D01*
G37*
G36*
X226022468Y-585335841D02*
G01*
X226088652Y-585342359D01*
X226258491Y-585393879D01*
X226415016Y-585477544D01*
X226450754Y-585506874D01*
X226552211Y-585590136D01*
X226635473Y-585691593D01*
X226664803Y-585727331D01*
X226748468Y-585883856D01*
X226799988Y-586053695D01*
X226817384Y-586230322D01*
X226799988Y-586406949D01*
X226748468Y-586576788D01*
X226664803Y-586733313D01*
X226635473Y-586769051D01*
X226552211Y-586870508D01*
X226450754Y-586953770D01*
X226415016Y-586983100D01*
X226258491Y-587066765D01*
X226088652Y-587118285D01*
X226022467Y-587124804D01*
X225956285Y-587131322D01*
X225867765Y-587131322D01*
X225801583Y-587124804D01*
X225735398Y-587118285D01*
X225565559Y-587066765D01*
X225409034Y-586983100D01*
X225373296Y-586953770D01*
X225271839Y-586870508D01*
X225188577Y-586769051D01*
X225159247Y-586733313D01*
X225075582Y-586576788D01*
X225024062Y-586406949D01*
X225006666Y-586230322D01*
X225024062Y-586053695D01*
X225075582Y-585883856D01*
X225159247Y-585727331D01*
X225188577Y-585691593D01*
X225271839Y-585590136D01*
X225373296Y-585506874D01*
X225409034Y-585477544D01*
X225565559Y-585393879D01*
X225735398Y-585342359D01*
X225801582Y-585335841D01*
X225867765Y-585329322D01*
X225956285Y-585329322D01*
X226022468Y-585335841D01*
X226022468Y-585335841D01*
G37*
G36*
X226022467Y-582795840D02*
G01*
X226088652Y-582802359D01*
X226258491Y-582853879D01*
X226415016Y-582937544D01*
X226450754Y-582966874D01*
X226552211Y-583050136D01*
X226635473Y-583151593D01*
X226664803Y-583187331D01*
X226748468Y-583343856D01*
X226799988Y-583513695D01*
X226817384Y-583690322D01*
X226799988Y-583866949D01*
X226748468Y-584036788D01*
X226664803Y-584193313D01*
X226635473Y-584229051D01*
X226552211Y-584330508D01*
X226450754Y-584413770D01*
X226415016Y-584443100D01*
X226258491Y-584526765D01*
X226088652Y-584578285D01*
X226022468Y-584584803D01*
X225956285Y-584591322D01*
X225867765Y-584591322D01*
X225801582Y-584584803D01*
X225735398Y-584578285D01*
X225565559Y-584526765D01*
X225409034Y-584443100D01*
X225373296Y-584413770D01*
X225271839Y-584330508D01*
X225188577Y-584229051D01*
X225159247Y-584193313D01*
X225075582Y-584036788D01*
X225024062Y-583866949D01*
X225006666Y-583690322D01*
X225024062Y-583513695D01*
X225075582Y-583343856D01*
X225159247Y-583187331D01*
X225188577Y-583151593D01*
X225271839Y-583050136D01*
X225373296Y-582966874D01*
X225409034Y-582937544D01*
X225565559Y-582853879D01*
X225735398Y-582802359D01*
X225801583Y-582795840D01*
X225867765Y-582789322D01*
X225956285Y-582789322D01*
X226022467Y-582795840D01*
X226022467Y-582795840D01*
G37*
G36*
X226022467Y-580255840D02*
G01*
X226088652Y-580262359D01*
X226258491Y-580313879D01*
X226415016Y-580397544D01*
X226450754Y-580426874D01*
X226552211Y-580510136D01*
X226635473Y-580611593D01*
X226664803Y-580647331D01*
X226748468Y-580803856D01*
X226799988Y-580973695D01*
X226817384Y-581150322D01*
X226799988Y-581326949D01*
X226748468Y-581496788D01*
X226664803Y-581653313D01*
X226635473Y-581689051D01*
X226552211Y-581790508D01*
X226450754Y-581873770D01*
X226415016Y-581903100D01*
X226258491Y-581986765D01*
X226088652Y-582038285D01*
X226022467Y-582044804D01*
X225956285Y-582051322D01*
X225867765Y-582051322D01*
X225801583Y-582044804D01*
X225735398Y-582038285D01*
X225565559Y-581986765D01*
X225409034Y-581903100D01*
X225373296Y-581873770D01*
X225271839Y-581790508D01*
X225188577Y-581689051D01*
X225159247Y-581653313D01*
X225075582Y-581496788D01*
X225024062Y-581326949D01*
X225006666Y-581150322D01*
X225024062Y-580973695D01*
X225075582Y-580803856D01*
X225159247Y-580647331D01*
X225188577Y-580611593D01*
X225271839Y-580510136D01*
X225373296Y-580426874D01*
X225409034Y-580397544D01*
X225565559Y-580313879D01*
X225735398Y-580262359D01*
X225801583Y-580255840D01*
X225867765Y-580249322D01*
X225956285Y-580249322D01*
X226022467Y-580255840D01*
X226022467Y-580255840D01*
G37*
G36*
X226813025Y-579511322D02*
G01*
X225011025Y-579511322D01*
X225011025Y-577709322D01*
X226813025Y-577709322D01*
X226813025Y-579511322D01*
X226813025Y-579511322D01*
G37*
G36*
X239414610Y-571189125D02*
G01*
X239564435Y-571218927D01*
X239846699Y-571335844D01*
X240100730Y-571505582D01*
X240316766Y-571721618D01*
X240486504Y-571975649D01*
X240535938Y-572094995D01*
X240603421Y-572257914D01*
X240663025Y-572557562D01*
X240663025Y-572863084D01*
X240633223Y-573012908D01*
X240603421Y-573162733D01*
X240486504Y-573444997D01*
X240316766Y-573699028D01*
X240100730Y-573915064D01*
X239846699Y-574084802D01*
X239564435Y-574201719D01*
X239414610Y-574231521D01*
X239264786Y-574261323D01*
X238959264Y-574261323D01*
X238809440Y-574231521D01*
X238659615Y-574201719D01*
X238377351Y-574084802D01*
X238123320Y-573915064D01*
X237907284Y-573699028D01*
X237737546Y-573444997D01*
X237620629Y-573162733D01*
X237590827Y-573012908D01*
X237561025Y-572863084D01*
X237561025Y-572557562D01*
X237620629Y-572257914D01*
X237688112Y-572094995D01*
X237737546Y-571975649D01*
X237907284Y-571721618D01*
X238123320Y-571505582D01*
X238377351Y-571335844D01*
X238659615Y-571218927D01*
X238809440Y-571189125D01*
X238959264Y-571159323D01*
X239264786Y-571159323D01*
X239414610Y-571189125D01*
X239414610Y-571189125D01*
G37*
G36*
X244238025Y-574011323D02*
G01*
X241586025Y-574011323D01*
X241586025Y-571409323D01*
X244238025Y-571409323D01*
X244238025Y-574011323D01*
X244238025Y-574011323D01*
G37*
G36*
X232114610Y-569839125D02*
G01*
X232264435Y-569868927D01*
X232546699Y-569985844D01*
X232800730Y-570155582D01*
X233016766Y-570371618D01*
X233186504Y-570625649D01*
X233303421Y-570907913D01*
X233303421Y-570907914D01*
X233353430Y-571159323D01*
X233363025Y-571207563D01*
X233363025Y-571513083D01*
X233303421Y-571812733D01*
X233186504Y-572094997D01*
X233016766Y-572349028D01*
X232800730Y-572565064D01*
X232546699Y-572734802D01*
X232264435Y-572851719D01*
X232207304Y-572863083D01*
X231964786Y-572911323D01*
X231659264Y-572911323D01*
X231416746Y-572863083D01*
X231359615Y-572851719D01*
X231077351Y-572734802D01*
X230823320Y-572565064D01*
X230607284Y-572349028D01*
X230437546Y-572094997D01*
X230320629Y-571812733D01*
X230261025Y-571513083D01*
X230261025Y-571207563D01*
X230270621Y-571159323D01*
X230320629Y-570907914D01*
X230320629Y-570907913D01*
X230437546Y-570625649D01*
X230607284Y-570371618D01*
X230823320Y-570155582D01*
X231077351Y-569985844D01*
X231359615Y-569868927D01*
X231509440Y-569839125D01*
X231659264Y-569809323D01*
X231964786Y-569809323D01*
X232114610Y-569839125D01*
X232114610Y-569839125D01*
G37*
G36*
X229363025Y-572411323D02*
G01*
X227261025Y-572411323D01*
X227261025Y-570309323D01*
X229363025Y-570309323D01*
X229363025Y-572411323D01*
X229363025Y-572411323D01*
G37*
G36*
X258464610Y-567189124D02*
G01*
X258614435Y-567218926D01*
X258896699Y-567335843D01*
X259150730Y-567505581D01*
X259366766Y-567721617D01*
X259536504Y-567975648D01*
X259653421Y-568257912D01*
X259653421Y-568257913D01*
X259713025Y-568557561D01*
X259713025Y-568863083D01*
X259702686Y-568915062D01*
X259653421Y-569162732D01*
X259536504Y-569444996D01*
X259366766Y-569699027D01*
X259150730Y-569915063D01*
X258896699Y-570084801D01*
X258614435Y-570201718D01*
X258464610Y-570231520D01*
X258314786Y-570261322D01*
X258009264Y-570261322D01*
X257859440Y-570231520D01*
X257709615Y-570201718D01*
X257427351Y-570084801D01*
X257173320Y-569915063D01*
X256957284Y-569699027D01*
X256787546Y-569444996D01*
X256670629Y-569162732D01*
X256621364Y-568915062D01*
X256611025Y-568863083D01*
X256611025Y-568557561D01*
X256670629Y-568257913D01*
X256670629Y-568257912D01*
X256787546Y-567975648D01*
X256957284Y-567721617D01*
X257173320Y-567505581D01*
X257427351Y-567335843D01*
X257709615Y-567218926D01*
X257859440Y-567189124D01*
X258009264Y-567159322D01*
X258314786Y-567159322D01*
X258464610Y-567189124D01*
X258464610Y-567189124D01*
G37*
G36*
X263288025Y-570011322D02*
G01*
X260636025Y-570011322D01*
X260636025Y-567409322D01*
X263288025Y-567409322D01*
X263288025Y-570011322D01*
X263288025Y-570011322D01*
G37*
G36*
X237014577Y-564433820D02*
G01*
X237263416Y-564483317D01*
X237457600Y-564563751D01*
X237732217Y-564677501D01*
X238154129Y-564959413D01*
X238512935Y-565318219D01*
X238794847Y-565740131D01*
X238865921Y-565911719D01*
X238989031Y-566208932D01*
X239088025Y-566706609D01*
X239088025Y-567214037D01*
X238989031Y-567711714D01*
X238931445Y-567850738D01*
X238794847Y-568180515D01*
X238512935Y-568602427D01*
X238154129Y-568961233D01*
X237732217Y-569243145D01*
X237457600Y-569356895D01*
X237263416Y-569437329D01*
X237224881Y-569444994D01*
X236765740Y-569536323D01*
X236258310Y-569536323D01*
X235799169Y-569444994D01*
X235760634Y-569437329D01*
X235566450Y-569356895D01*
X235291833Y-569243145D01*
X234869921Y-568961233D01*
X234511115Y-568602427D01*
X234229203Y-568180515D01*
X234092605Y-567850738D01*
X234035019Y-567711714D01*
X233936025Y-567214037D01*
X233936025Y-566706609D01*
X234035019Y-566208932D01*
X234158129Y-565911719D01*
X234229203Y-565740131D01*
X234511115Y-565318219D01*
X234869921Y-564959413D01*
X235291833Y-564677501D01*
X235566450Y-564563751D01*
X235760634Y-564483317D01*
X236009473Y-564433820D01*
X236258310Y-564384323D01*
X236765740Y-564384323D01*
X237014577Y-564433820D01*
X237014577Y-564433820D01*
G37*
G36*
X220364610Y-566189124D02*
G01*
X220514435Y-566218926D01*
X220796699Y-566335843D01*
X221050730Y-566505581D01*
X221266766Y-566721617D01*
X221436504Y-566975648D01*
X221542036Y-567230426D01*
X221553421Y-567257913D01*
X221613025Y-567557561D01*
X221613025Y-567863083D01*
X221590634Y-567975648D01*
X221553421Y-568162732D01*
X221436504Y-568444996D01*
X221266766Y-568699027D01*
X221050730Y-568915063D01*
X220796699Y-569084801D01*
X220514435Y-569201718D01*
X220364610Y-569231520D01*
X220214786Y-569261322D01*
X219909264Y-569261322D01*
X219759440Y-569231520D01*
X219609615Y-569201718D01*
X219327351Y-569084801D01*
X219073320Y-568915063D01*
X218857284Y-568699027D01*
X218687546Y-568444996D01*
X218570629Y-568162732D01*
X218533416Y-567975648D01*
X218511025Y-567863083D01*
X218511025Y-567557561D01*
X218570629Y-567257913D01*
X218582014Y-567230426D01*
X218687546Y-566975648D01*
X218857284Y-566721617D01*
X219073320Y-566505581D01*
X219327351Y-566335843D01*
X219609615Y-566218926D01*
X219759440Y-566189124D01*
X219909264Y-566159322D01*
X220214786Y-566159322D01*
X220364610Y-566189124D01*
X220364610Y-566189124D01*
G37*
G36*
X225188025Y-569011322D02*
G01*
X222536025Y-569011322D01*
X222536025Y-566409322D01*
X225188025Y-566409322D01*
X225188025Y-569011322D01*
X225188025Y-569011322D01*
G37*
G36*
X251164610Y-565839124D02*
G01*
X251314435Y-565868926D01*
X251596699Y-565985843D01*
X251850730Y-566155581D01*
X252066766Y-566371617D01*
X252236504Y-566625648D01*
X252353421Y-566907912D01*
X252366895Y-566975650D01*
X252413025Y-567207561D01*
X252413025Y-567513083D01*
X252402686Y-567565062D01*
X252353421Y-567812732D01*
X252236504Y-568094996D01*
X252066766Y-568349027D01*
X251850730Y-568565063D01*
X251596699Y-568734801D01*
X251314435Y-568851718D01*
X251257304Y-568863082D01*
X251014786Y-568911322D01*
X250709264Y-568911322D01*
X250466746Y-568863082D01*
X250409615Y-568851718D01*
X250127351Y-568734801D01*
X249873320Y-568565063D01*
X249657284Y-568349027D01*
X249487546Y-568094996D01*
X249370629Y-567812732D01*
X249321364Y-567565062D01*
X249311025Y-567513083D01*
X249311025Y-567207561D01*
X249357155Y-566975650D01*
X249370629Y-566907912D01*
X249487546Y-566625648D01*
X249657284Y-566371617D01*
X249873320Y-566155581D01*
X250127351Y-565985843D01*
X250409615Y-565868926D01*
X250559440Y-565839124D01*
X250709264Y-565809322D01*
X251014786Y-565809322D01*
X251164610Y-565839124D01*
X251164610Y-565839124D01*
G37*
G36*
X248413025Y-568411322D02*
G01*
X246311025Y-568411322D01*
X246311025Y-566309322D01*
X248413025Y-566309322D01*
X248413025Y-568411322D01*
X248413025Y-568411322D01*
G37*
G36*
X213064610Y-564839124D02*
G01*
X213214435Y-564868926D01*
X213496699Y-564985843D01*
X213750730Y-565155581D01*
X213966766Y-565371617D01*
X214136504Y-565625648D01*
X214253421Y-565907912D01*
X214253421Y-565907913D01*
X214313025Y-566207561D01*
X214313025Y-566513083D01*
X214311311Y-566521698D01*
X214253421Y-566812732D01*
X214136504Y-567094996D01*
X213966766Y-567349027D01*
X213750730Y-567565063D01*
X213496699Y-567734801D01*
X213214435Y-567851718D01*
X213157304Y-567863082D01*
X212914786Y-567911322D01*
X212609264Y-567911322D01*
X212366746Y-567863082D01*
X212309615Y-567851718D01*
X212027351Y-567734801D01*
X211773320Y-567565063D01*
X211557284Y-567349027D01*
X211387546Y-567094996D01*
X211270629Y-566812732D01*
X211212739Y-566521698D01*
X211211025Y-566513083D01*
X211211025Y-566207561D01*
X211270629Y-565907913D01*
X211270629Y-565907912D01*
X211387546Y-565625648D01*
X211557284Y-565371617D01*
X211773320Y-565155581D01*
X212027351Y-564985843D01*
X212309615Y-564868926D01*
X212459440Y-564839124D01*
X212609264Y-564809322D01*
X212914786Y-564809322D01*
X213064610Y-564839124D01*
X213064610Y-564839124D01*
G37*
G36*
X231702129Y-566069908D02*
G01*
X231870651Y-566139712D01*
X232022316Y-566241051D01*
X232151297Y-566370032D01*
X232252636Y-566521697D01*
X232322440Y-566690219D01*
X232358025Y-566869120D01*
X232358025Y-567051526D01*
X232322440Y-567230427D01*
X232252636Y-567398949D01*
X232151297Y-567550614D01*
X232022316Y-567679595D01*
X231870651Y-567780934D01*
X231702129Y-567850738D01*
X231523228Y-567886323D01*
X231340822Y-567886323D01*
X231161921Y-567850738D01*
X230993399Y-567780934D01*
X230841734Y-567679595D01*
X230712753Y-567550614D01*
X230611414Y-567398949D01*
X230541610Y-567230427D01*
X230506025Y-567051526D01*
X230506025Y-566869120D01*
X230541610Y-566690219D01*
X230611414Y-566521697D01*
X230712753Y-566370032D01*
X230841734Y-566241051D01*
X230993399Y-566139712D01*
X231161921Y-566069908D01*
X231340822Y-566034323D01*
X231523228Y-566034323D01*
X231702129Y-566069908D01*
X231702129Y-566069908D01*
G37*
G36*
X241862129Y-566069908D02*
G01*
X242030651Y-566139712D01*
X242182316Y-566241051D01*
X242311297Y-566370032D01*
X242412636Y-566521697D01*
X242482440Y-566690219D01*
X242518025Y-566869120D01*
X242518025Y-567051526D01*
X242482440Y-567230427D01*
X242412636Y-567398949D01*
X242311297Y-567550614D01*
X242182316Y-567679595D01*
X242030651Y-567780934D01*
X241862129Y-567850738D01*
X241683228Y-567886323D01*
X241500822Y-567886323D01*
X241321921Y-567850738D01*
X241153399Y-567780934D01*
X241001734Y-567679595D01*
X240872753Y-567550614D01*
X240771414Y-567398949D01*
X240701610Y-567230427D01*
X240666025Y-567051526D01*
X240666025Y-566869120D01*
X240701610Y-566690219D01*
X240771414Y-566521697D01*
X240872753Y-566370032D01*
X241001734Y-566241051D01*
X241153399Y-566139712D01*
X241321921Y-566069908D01*
X241500822Y-566034323D01*
X241683228Y-566034323D01*
X241862129Y-566069908D01*
X241862129Y-566069908D01*
G37*
G36*
X210313025Y-567411322D02*
G01*
X208211025Y-567411322D01*
X208211025Y-565309322D01*
X210313025Y-565309322D01*
X210313025Y-567411322D01*
X210313025Y-567411322D01*
G37*
G36*
X232940245Y-562886322D02*
G01*
X233154435Y-562928927D01*
X233436699Y-563045844D01*
X233690730Y-563215582D01*
X233906766Y-563431618D01*
X234076504Y-563685649D01*
X234193421Y-563967913D01*
X234253025Y-564267563D01*
X234253025Y-564573083D01*
X234193421Y-564872733D01*
X234076504Y-565154997D01*
X233906766Y-565409028D01*
X233690730Y-565625064D01*
X233436699Y-565794802D01*
X233154435Y-565911719D01*
X233004610Y-565941521D01*
X232854786Y-565971323D01*
X232549264Y-565971323D01*
X232399440Y-565941521D01*
X232249615Y-565911719D01*
X231967351Y-565794802D01*
X231713320Y-565625064D01*
X231497284Y-565409028D01*
X231327546Y-565154997D01*
X231210629Y-564872733D01*
X231151025Y-564573083D01*
X231151025Y-564267563D01*
X231210629Y-563967913D01*
X231327546Y-563685649D01*
X231497284Y-563431618D01*
X231713320Y-563215582D01*
X231967351Y-563045844D01*
X232249615Y-562928927D01*
X232463805Y-562886322D01*
X232549264Y-562869323D01*
X232854786Y-562869323D01*
X232940245Y-562886322D01*
X232940245Y-562886322D01*
G37*
G36*
X230753025Y-565721323D02*
G01*
X228101025Y-565721323D01*
X228101025Y-563119323D01*
X230753025Y-563119323D01*
X230753025Y-565721323D01*
X230753025Y-565721323D01*
G37*
G36*
X255939935Y-560409026D02*
G01*
X256313416Y-560483316D01*
X256507600Y-560563750D01*
X256782217Y-560677500D01*
X257204129Y-560959412D01*
X257562935Y-561318218D01*
X257844847Y-561740130D01*
X257958597Y-562014747D01*
X258039031Y-562208931D01*
X258063657Y-562332733D01*
X258138025Y-562706607D01*
X258138025Y-563214037D01*
X258137717Y-563215583D01*
X258039031Y-563711713D01*
X257981445Y-563850737D01*
X257844847Y-564180514D01*
X257562935Y-564602426D01*
X257204129Y-564961232D01*
X256782217Y-565243144D01*
X256507600Y-565356894D01*
X256313416Y-565437328D01*
X256064577Y-565486825D01*
X255815740Y-565536322D01*
X255308310Y-565536322D01*
X255059473Y-565486825D01*
X254810634Y-565437328D01*
X254616450Y-565356894D01*
X254341833Y-565243144D01*
X253919921Y-564961232D01*
X253561115Y-564602426D01*
X253279203Y-564180514D01*
X253142605Y-563850737D01*
X253085019Y-563711713D01*
X252986333Y-563215583D01*
X252986025Y-563214037D01*
X252986025Y-562706607D01*
X253060393Y-562332733D01*
X253085019Y-562208931D01*
X253165453Y-562014747D01*
X253279203Y-561740130D01*
X253561115Y-561318218D01*
X253919921Y-560959412D01*
X254341833Y-560677500D01*
X254616450Y-560563750D01*
X254810634Y-560483316D01*
X255184115Y-560409026D01*
X255308310Y-560384322D01*
X255815740Y-560384322D01*
X255939935Y-560409026D01*
X255939935Y-560409026D01*
G37*
G36*
X217952024Y-559431322D02*
G01*
X218213416Y-559483316D01*
X218341383Y-559536322D01*
X218682217Y-559677500D01*
X219104129Y-559959412D01*
X219462935Y-560318218D01*
X219744847Y-560740130D01*
X219840610Y-560971322D01*
X219939031Y-561208931D01*
X219978891Y-561409322D01*
X220038025Y-561706607D01*
X220038025Y-562214037D01*
X220029298Y-562257912D01*
X219939031Y-562711713D01*
X219866705Y-562886322D01*
X219744847Y-563180514D01*
X219462935Y-563602426D01*
X219104129Y-563961232D01*
X218682217Y-564243144D01*
X218407600Y-564356894D01*
X218213416Y-564437328D01*
X217982213Y-564483317D01*
X217715740Y-564536322D01*
X217208310Y-564536322D01*
X216941837Y-564483317D01*
X216710634Y-564437328D01*
X216516450Y-564356894D01*
X216241833Y-564243144D01*
X215819921Y-563961232D01*
X215461115Y-563602426D01*
X215179203Y-563180514D01*
X215057345Y-562886322D01*
X214985019Y-562711713D01*
X214894752Y-562257912D01*
X214886025Y-562214037D01*
X214886025Y-561706607D01*
X214945159Y-561409322D01*
X214985019Y-561208931D01*
X215083440Y-560971322D01*
X215179203Y-560740130D01*
X215461115Y-560318218D01*
X215819921Y-559959412D01*
X216241833Y-559677500D01*
X216582667Y-559536322D01*
X216710634Y-559483316D01*
X216972026Y-559431322D01*
X217208310Y-559384322D01*
X217715740Y-559384322D01*
X217952024Y-559431322D01*
X217952024Y-559431322D01*
G37*
G36*
X201314610Y-561189124D02*
G01*
X201464435Y-561218926D01*
X201746699Y-561335843D01*
X202000730Y-561505581D01*
X202216766Y-561721617D01*
X202386504Y-561975648D01*
X202496437Y-562241051D01*
X202503421Y-562257913D01*
X202563025Y-562557561D01*
X202563025Y-562863083D01*
X202549928Y-562928927D01*
X202503421Y-563162732D01*
X202386504Y-563444996D01*
X202216766Y-563699027D01*
X202000730Y-563915063D01*
X201746699Y-564084801D01*
X201464435Y-564201718D01*
X201314610Y-564231520D01*
X201164786Y-564261322D01*
X200859264Y-564261322D01*
X200709440Y-564231520D01*
X200559615Y-564201718D01*
X200277351Y-564084801D01*
X200023320Y-563915063D01*
X199807284Y-563699027D01*
X199637546Y-563444996D01*
X199520629Y-563162732D01*
X199474122Y-562928927D01*
X199461025Y-562863083D01*
X199461025Y-562557561D01*
X199520629Y-562257913D01*
X199527613Y-562241051D01*
X199637546Y-561975648D01*
X199807284Y-561721617D01*
X200023320Y-561505581D01*
X200277351Y-561335843D01*
X200559615Y-561218926D01*
X200709440Y-561189124D01*
X200859264Y-561159322D01*
X201164786Y-561159322D01*
X201314610Y-561189124D01*
X201314610Y-561189124D01*
G37*
G36*
X206138025Y-564011322D02*
G01*
X203486025Y-564011322D01*
X203486025Y-561409322D01*
X206138025Y-561409322D01*
X206138025Y-564011322D01*
X206138025Y-564011322D01*
G37*
G36*
X250752129Y-562069907D02*
G01*
X250920651Y-562139711D01*
X251072316Y-562241050D01*
X251201297Y-562370031D01*
X251302636Y-562521696D01*
X251372440Y-562690218D01*
X251408025Y-562869119D01*
X251408025Y-563051525D01*
X251372440Y-563230426D01*
X251302636Y-563398948D01*
X251201297Y-563550613D01*
X251072316Y-563679594D01*
X250920651Y-563780933D01*
X250752129Y-563850737D01*
X250573228Y-563886322D01*
X250390822Y-563886322D01*
X250211921Y-563850737D01*
X250043399Y-563780933D01*
X249891734Y-563679594D01*
X249762753Y-563550613D01*
X249661414Y-563398948D01*
X249591610Y-563230426D01*
X249556025Y-563051525D01*
X249556025Y-562869119D01*
X249591610Y-562690218D01*
X249661414Y-562521696D01*
X249762753Y-562370031D01*
X249891734Y-562241050D01*
X250043399Y-562139711D01*
X250211921Y-562069907D01*
X250390822Y-562034322D01*
X250573228Y-562034322D01*
X250752129Y-562069907D01*
X250752129Y-562069907D01*
G37*
G36*
X260912129Y-562069907D02*
G01*
X261080651Y-562139711D01*
X261232316Y-562241050D01*
X261361297Y-562370031D01*
X261462636Y-562521696D01*
X261532440Y-562690218D01*
X261568025Y-562869119D01*
X261568025Y-563051525D01*
X261532440Y-563230426D01*
X261462636Y-563398948D01*
X261361297Y-563550613D01*
X261232316Y-563679594D01*
X261080651Y-563780933D01*
X260912129Y-563850737D01*
X260733228Y-563886322D01*
X260550822Y-563886322D01*
X260371921Y-563850737D01*
X260203399Y-563780933D01*
X260051734Y-563679594D01*
X259922753Y-563550613D01*
X259821414Y-563398948D01*
X259751610Y-563230426D01*
X259716025Y-563051525D01*
X259716025Y-562869119D01*
X259751610Y-562690218D01*
X259821414Y-562521696D01*
X259922753Y-562370031D01*
X260051734Y-562241050D01*
X260203399Y-562139711D01*
X260371921Y-562069907D01*
X260550822Y-562034322D01*
X260733228Y-562034322D01*
X260912129Y-562069907D01*
X260912129Y-562069907D01*
G37*
G36*
X239354610Y-560359125D02*
G01*
X239504435Y-560388927D01*
X239786699Y-560505844D01*
X240040730Y-560675582D01*
X240256766Y-560891618D01*
X240426504Y-561145649D01*
X240543421Y-561427913D01*
X240562076Y-561521697D01*
X240601843Y-561721618D01*
X240603025Y-561727563D01*
X240603025Y-562033083D01*
X240543421Y-562332733D01*
X240426504Y-562614997D01*
X240256766Y-562869028D01*
X240040730Y-563085064D01*
X239786699Y-563254802D01*
X239504435Y-563371719D01*
X239367550Y-563398947D01*
X239204786Y-563431323D01*
X238899264Y-563431323D01*
X238736500Y-563398947D01*
X238599615Y-563371719D01*
X238317351Y-563254802D01*
X238063320Y-563085064D01*
X237847284Y-562869028D01*
X237677546Y-562614997D01*
X237560629Y-562332733D01*
X237501025Y-562033083D01*
X237501025Y-561727563D01*
X237502208Y-561721618D01*
X237541974Y-561521697D01*
X237560629Y-561427913D01*
X237677546Y-561145649D01*
X237847284Y-560891618D01*
X238063320Y-560675582D01*
X238317351Y-560505844D01*
X238599615Y-560388927D01*
X238749440Y-560359125D01*
X238899264Y-560329323D01*
X239204786Y-560329323D01*
X239354610Y-560359125D01*
X239354610Y-560359125D01*
G37*
G36*
X243680025Y-563181323D02*
G01*
X241028025Y-563181323D01*
X241028025Y-560579323D01*
X243680025Y-560579323D01*
X243680025Y-563181323D01*
X243680025Y-563181323D01*
G37*
G36*
X194014610Y-559839124D02*
G01*
X194164435Y-559868926D01*
X194446699Y-559985843D01*
X194700730Y-560155581D01*
X194916766Y-560371617D01*
X195086504Y-560625648D01*
X195196672Y-560891619D01*
X195203421Y-560907913D01*
X195263025Y-561207561D01*
X195263025Y-561513083D01*
X195240751Y-561625062D01*
X195203421Y-561812732D01*
X195086504Y-562094996D01*
X194916766Y-562349027D01*
X194700730Y-562565063D01*
X194446699Y-562734801D01*
X194164435Y-562851718D01*
X194014610Y-562881520D01*
X193864786Y-562911322D01*
X193559264Y-562911322D01*
X193409440Y-562881520D01*
X193259615Y-562851718D01*
X192977351Y-562734801D01*
X192723320Y-562565063D01*
X192507284Y-562349027D01*
X192337546Y-562094996D01*
X192220629Y-561812732D01*
X192183299Y-561625062D01*
X192161025Y-561513083D01*
X192161025Y-561207561D01*
X192220629Y-560907913D01*
X192227378Y-560891619D01*
X192337546Y-560625648D01*
X192507284Y-560371617D01*
X192723320Y-560155581D01*
X192977351Y-559985843D01*
X193259615Y-559868926D01*
X193409440Y-559839124D01*
X193559264Y-559809322D01*
X193864786Y-559809322D01*
X194014610Y-559839124D01*
X194014610Y-559839124D01*
G37*
G36*
X222812129Y-561069907D02*
G01*
X222980651Y-561139711D01*
X223132316Y-561241050D01*
X223261297Y-561370031D01*
X223362636Y-561521696D01*
X223432440Y-561690218D01*
X223468025Y-561869119D01*
X223468025Y-562051525D01*
X223432440Y-562230426D01*
X223362636Y-562398948D01*
X223261297Y-562550613D01*
X223132316Y-562679594D01*
X222980651Y-562780933D01*
X222812129Y-562850737D01*
X222633228Y-562886322D01*
X222450822Y-562886322D01*
X222271921Y-562850737D01*
X222103399Y-562780933D01*
X221951734Y-562679594D01*
X221822753Y-562550613D01*
X221721414Y-562398948D01*
X221651610Y-562230426D01*
X221616025Y-562051525D01*
X221616025Y-561869119D01*
X221651610Y-561690218D01*
X221721414Y-561521696D01*
X221822753Y-561370031D01*
X221951734Y-561241050D01*
X222103399Y-561139711D01*
X222271921Y-561069907D01*
X222450822Y-561034322D01*
X222633228Y-561034322D01*
X222812129Y-561069907D01*
X222812129Y-561069907D01*
G37*
G36*
X212652129Y-561069907D02*
G01*
X212820651Y-561139711D01*
X212972316Y-561241050D01*
X213101297Y-561370031D01*
X213202636Y-561521696D01*
X213272440Y-561690218D01*
X213308025Y-561869119D01*
X213308025Y-562051525D01*
X213272440Y-562230426D01*
X213202636Y-562398948D01*
X213101297Y-562550613D01*
X212972316Y-562679594D01*
X212820651Y-562780933D01*
X212652129Y-562850737D01*
X212473228Y-562886322D01*
X212290822Y-562886322D01*
X212111921Y-562850737D01*
X211943399Y-562780933D01*
X211791734Y-562679594D01*
X211662753Y-562550613D01*
X211561414Y-562398948D01*
X211491610Y-562230426D01*
X211456025Y-562051525D01*
X211456025Y-561869119D01*
X211491610Y-561690218D01*
X211561414Y-561521696D01*
X211662753Y-561370031D01*
X211791734Y-561241050D01*
X211943399Y-561139711D01*
X212111921Y-561069907D01*
X212290822Y-561034322D01*
X212473228Y-561034322D01*
X212652129Y-561069907D01*
X212652129Y-561069907D01*
G37*
G36*
X191263025Y-562411322D02*
G01*
X189161025Y-562411322D01*
X189161025Y-560309322D01*
X191263025Y-560309322D01*
X191263025Y-562411322D01*
X191263025Y-562411322D01*
G37*
G36*
X252054610Y-558899124D02*
G01*
X252204435Y-558928926D01*
X252486699Y-559045843D01*
X252740730Y-559215581D01*
X252956766Y-559431617D01*
X253126504Y-559685648D01*
X253243421Y-559967912D01*
X253303025Y-560267562D01*
X253303025Y-560573082D01*
X253243421Y-560872732D01*
X253126504Y-561154996D01*
X252956766Y-561409027D01*
X252740730Y-561625063D01*
X252486699Y-561794801D01*
X252204435Y-561911718D01*
X252054610Y-561941520D01*
X251904786Y-561971322D01*
X251599264Y-561971322D01*
X251449440Y-561941520D01*
X251299615Y-561911718D01*
X251017351Y-561794801D01*
X250763320Y-561625063D01*
X250547284Y-561409027D01*
X250377546Y-561154996D01*
X250260629Y-560872732D01*
X250201025Y-560573082D01*
X250201025Y-560267562D01*
X250260629Y-559967912D01*
X250377546Y-559685648D01*
X250547284Y-559431617D01*
X250763320Y-559215581D01*
X251017351Y-559045843D01*
X251299615Y-558928926D01*
X251449440Y-558899124D01*
X251599264Y-558869322D01*
X251904786Y-558869322D01*
X252054610Y-558899124D01*
X252054610Y-558899124D01*
G37*
G36*
X249803025Y-561721322D02*
G01*
X247151025Y-561721322D01*
X247151025Y-559119322D01*
X249803025Y-559119322D01*
X249803025Y-561721322D01*
X249803025Y-561721322D01*
G37*
G36*
X213890250Y-557886322D02*
G01*
X214104435Y-557928926D01*
X214386699Y-558045843D01*
X214640730Y-558215581D01*
X214856766Y-558431617D01*
X215026504Y-558685648D01*
X215143421Y-558967912D01*
X215203025Y-559267562D01*
X215203025Y-559573082D01*
X215143421Y-559872732D01*
X215026504Y-560154996D01*
X214856766Y-560409027D01*
X214640730Y-560625063D01*
X214386699Y-560794801D01*
X214104435Y-560911718D01*
X213954610Y-560941520D01*
X213804786Y-560971322D01*
X213499264Y-560971322D01*
X213349440Y-560941520D01*
X213199615Y-560911718D01*
X212917351Y-560794801D01*
X212663320Y-560625063D01*
X212447284Y-560409027D01*
X212277546Y-560154996D01*
X212160629Y-559872732D01*
X212101025Y-559573082D01*
X212101025Y-559267562D01*
X212160629Y-558967912D01*
X212277546Y-558685648D01*
X212447284Y-558431617D01*
X212663320Y-558215581D01*
X212917351Y-558045843D01*
X213199615Y-557928926D01*
X213413800Y-557886322D01*
X213499264Y-557869322D01*
X213804786Y-557869322D01*
X213890250Y-557886322D01*
X213890250Y-557886322D01*
G37*
G36*
X211703025Y-560721322D02*
G01*
X209051025Y-560721322D01*
X209051025Y-558119322D01*
X211703025Y-558119322D01*
X211703025Y-560721322D01*
X211703025Y-560721322D01*
G37*
G36*
X199163416Y-554483316D02*
G01*
X199357600Y-554563750D01*
X199632217Y-554677500D01*
X200054129Y-554959412D01*
X200412935Y-555318218D01*
X200694847Y-555740130D01*
X200757595Y-555891617D01*
X200889031Y-556208931D01*
X200912970Y-556329280D01*
X200981854Y-556675581D01*
X200988025Y-556706608D01*
X200988025Y-557214036D01*
X200889031Y-557711713D01*
X200823869Y-557869027D01*
X200694847Y-558180514D01*
X200412935Y-558602426D01*
X200054129Y-558961232D01*
X199632217Y-559243144D01*
X199357600Y-559356894D01*
X199163416Y-559437328D01*
X198932218Y-559483316D01*
X198665740Y-559536322D01*
X198158310Y-559536322D01*
X197891832Y-559483316D01*
X197660634Y-559437328D01*
X197466450Y-559356894D01*
X197191833Y-559243144D01*
X196769921Y-558961232D01*
X196411115Y-558602426D01*
X196129203Y-558180514D01*
X196000181Y-557869027D01*
X195935019Y-557711713D01*
X195836025Y-557214036D01*
X195836025Y-556706608D01*
X195842197Y-556675581D01*
X195911080Y-556329280D01*
X195935019Y-556208931D01*
X196066455Y-555891617D01*
X196129203Y-555740130D01*
X196411115Y-555318218D01*
X196769921Y-554959412D01*
X197191833Y-554677500D01*
X197466450Y-554563750D01*
X197660634Y-554483316D01*
X198158310Y-554384322D01*
X198665740Y-554384322D01*
X199163416Y-554483316D01*
X199163416Y-554483316D01*
G37*
G36*
X258404610Y-556359124D02*
G01*
X258554435Y-556388926D01*
X258836699Y-556505843D01*
X259090730Y-556675581D01*
X259306766Y-556891617D01*
X259476504Y-557145648D01*
X259593421Y-557427912D01*
X259617828Y-557550613D01*
X259649873Y-557711713D01*
X259653025Y-557727562D01*
X259653025Y-558033082D01*
X259593421Y-558332732D01*
X259476504Y-558614996D01*
X259306766Y-558869027D01*
X259090730Y-559085063D01*
X258836699Y-559254801D01*
X258554435Y-559371718D01*
X258491070Y-559384322D01*
X258254786Y-559431322D01*
X257949264Y-559431322D01*
X257712980Y-559384322D01*
X257649615Y-559371718D01*
X257367351Y-559254801D01*
X257113320Y-559085063D01*
X256897284Y-558869027D01*
X256727546Y-558614996D01*
X256610629Y-558332732D01*
X256551025Y-558033082D01*
X256551025Y-557727562D01*
X256554178Y-557711713D01*
X256586222Y-557550613D01*
X256610629Y-557427912D01*
X256727546Y-557145648D01*
X256897284Y-556891617D01*
X257113320Y-556675581D01*
X257367351Y-556505843D01*
X257649615Y-556388926D01*
X257799440Y-556359124D01*
X257949264Y-556329322D01*
X258254786Y-556329322D01*
X258404610Y-556359124D01*
X258404610Y-556359124D01*
G37*
G36*
X262730025Y-559181322D02*
G01*
X260078025Y-559181322D01*
X260078025Y-556579322D01*
X262730025Y-556579322D01*
X262730025Y-559181322D01*
X262730025Y-559181322D01*
G37*
G36*
X220304610Y-555359124D02*
G01*
X220454435Y-555388926D01*
X220736699Y-555505843D01*
X220990730Y-555675581D01*
X221206766Y-555891617D01*
X221376504Y-556145648D01*
X221493421Y-556427912D01*
X221493421Y-556427913D01*
X221553025Y-556727561D01*
X221553025Y-557033083D01*
X221530634Y-557145648D01*
X221493421Y-557332732D01*
X221376504Y-557614996D01*
X221206766Y-557869027D01*
X220990730Y-558085063D01*
X220736699Y-558254801D01*
X220454435Y-558371718D01*
X220304610Y-558401520D01*
X220154786Y-558431322D01*
X219849264Y-558431322D01*
X219699440Y-558401520D01*
X219549615Y-558371718D01*
X219267351Y-558254801D01*
X219013320Y-558085063D01*
X218797284Y-557869027D01*
X218627546Y-557614996D01*
X218510629Y-557332732D01*
X218473416Y-557145648D01*
X218451025Y-557033083D01*
X218451025Y-556727561D01*
X218510629Y-556427913D01*
X218510629Y-556427912D01*
X218627546Y-556145648D01*
X218797284Y-555891617D01*
X219013320Y-555675581D01*
X219267351Y-555505843D01*
X219549615Y-555388926D01*
X219699440Y-555359124D01*
X219849264Y-555329322D01*
X220154786Y-555329322D01*
X220304610Y-555359124D01*
X220304610Y-555359124D01*
G37*
G36*
X224630025Y-558181322D02*
G01*
X221978025Y-558181322D01*
X221978025Y-555579322D01*
X224630025Y-555579322D01*
X224630025Y-558181322D01*
X224630025Y-558181322D01*
G37*
G36*
X153813019Y-558131280D02*
G01*
X152011019Y-558131280D01*
X152011019Y-556329280D01*
X153813019Y-556329280D01*
X153813019Y-558131280D01*
X153813019Y-558131280D01*
G37*
G36*
X203762129Y-556069907D02*
G01*
X203930651Y-556139711D01*
X204082316Y-556241050D01*
X204211297Y-556370031D01*
X204312636Y-556521696D01*
X204382440Y-556690218D01*
X204418025Y-556869119D01*
X204418025Y-557051525D01*
X204382440Y-557230426D01*
X204312636Y-557398948D01*
X204211297Y-557550613D01*
X204082316Y-557679594D01*
X203930651Y-557780933D01*
X203762129Y-557850737D01*
X203583228Y-557886322D01*
X203400822Y-557886322D01*
X203221921Y-557850737D01*
X203053399Y-557780933D01*
X202901734Y-557679594D01*
X202772753Y-557550613D01*
X202671414Y-557398948D01*
X202601610Y-557230426D01*
X202566025Y-557051525D01*
X202566025Y-556869119D01*
X202601610Y-556690218D01*
X202671414Y-556521696D01*
X202772753Y-556370031D01*
X202901734Y-556241050D01*
X203053399Y-556139711D01*
X203221921Y-556069907D01*
X203400822Y-556034322D01*
X203583228Y-556034322D01*
X203762129Y-556069907D01*
X203762129Y-556069907D01*
G37*
G36*
X193602129Y-556069907D02*
G01*
X193770651Y-556139711D01*
X193922316Y-556241050D01*
X194051297Y-556370031D01*
X194152636Y-556521696D01*
X194222440Y-556690218D01*
X194258025Y-556869119D01*
X194258025Y-557051525D01*
X194222440Y-557230426D01*
X194152636Y-557398948D01*
X194051297Y-557550613D01*
X193922316Y-557679594D01*
X193770651Y-557780933D01*
X193602129Y-557850737D01*
X193423228Y-557886322D01*
X193240822Y-557886322D01*
X193061921Y-557850737D01*
X192893399Y-557780933D01*
X192741734Y-557679594D01*
X192612753Y-557550613D01*
X192511414Y-557398948D01*
X192441610Y-557230426D01*
X192406025Y-557051525D01*
X192406025Y-556869119D01*
X192441610Y-556690218D01*
X192511414Y-556521696D01*
X192612753Y-556370031D01*
X192741734Y-556241050D01*
X192893399Y-556139711D01*
X193061921Y-556069907D01*
X193240822Y-556034322D01*
X193423228Y-556034322D01*
X193602129Y-556069907D01*
X193602129Y-556069907D01*
G37*
G36*
X184457722Y-557358847D02*
G01*
X182655722Y-557358847D01*
X182655722Y-555556847D01*
X184457722Y-555556847D01*
X184457722Y-557358847D01*
X184457722Y-557358847D01*
G37*
G36*
X181127164Y-555563365D02*
G01*
X181193349Y-555569884D01*
X181363188Y-555621404D01*
X181363190Y-555621405D01*
X181441450Y-555663236D01*
X181519713Y-555705069D01*
X181539517Y-555721322D01*
X181656908Y-555817661D01*
X181717601Y-555891617D01*
X181769500Y-555954856D01*
X181853165Y-556111381D01*
X181904685Y-556281220D01*
X181922081Y-556457847D01*
X181904685Y-556634474D01*
X181853165Y-556804313D01*
X181769500Y-556960838D01*
X181740170Y-556996576D01*
X181656908Y-557098033D01*
X181555451Y-557181295D01*
X181519713Y-557210625D01*
X181363188Y-557294290D01*
X181193349Y-557345810D01*
X181127165Y-557352328D01*
X181060982Y-557358847D01*
X180972462Y-557358847D01*
X180906279Y-557352328D01*
X180840095Y-557345810D01*
X180670256Y-557294290D01*
X180513731Y-557210625D01*
X180477993Y-557181295D01*
X180376536Y-557098033D01*
X180293274Y-556996576D01*
X180263944Y-556960838D01*
X180180279Y-556804313D01*
X180128759Y-556634474D01*
X180111363Y-556457847D01*
X180128759Y-556281220D01*
X180180279Y-556111381D01*
X180263944Y-555954856D01*
X180315843Y-555891617D01*
X180376536Y-555817661D01*
X180493927Y-555721322D01*
X180513731Y-555705069D01*
X180591994Y-555663236D01*
X180670254Y-555621405D01*
X180670256Y-555621404D01*
X180840095Y-555569884D01*
X180906280Y-555563365D01*
X180972462Y-555556847D01*
X181060982Y-555556847D01*
X181127164Y-555563365D01*
X181127164Y-555563365D01*
G37*
G36*
X178587164Y-555563365D02*
G01*
X178653349Y-555569884D01*
X178823188Y-555621404D01*
X178823190Y-555621405D01*
X178901450Y-555663236D01*
X178979713Y-555705069D01*
X178999517Y-555721322D01*
X179116908Y-555817661D01*
X179177601Y-555891617D01*
X179229500Y-555954856D01*
X179313165Y-556111381D01*
X179364685Y-556281220D01*
X179382081Y-556457847D01*
X179364685Y-556634474D01*
X179313165Y-556804313D01*
X179229500Y-556960838D01*
X179200170Y-556996576D01*
X179116908Y-557098033D01*
X179015451Y-557181295D01*
X178979713Y-557210625D01*
X178823188Y-557294290D01*
X178653349Y-557345810D01*
X178587165Y-557352328D01*
X178520982Y-557358847D01*
X178432462Y-557358847D01*
X178366279Y-557352328D01*
X178300095Y-557345810D01*
X178130256Y-557294290D01*
X177973731Y-557210625D01*
X177937993Y-557181295D01*
X177836536Y-557098033D01*
X177753274Y-556996576D01*
X177723944Y-556960838D01*
X177640279Y-556804313D01*
X177588759Y-556634474D01*
X177571363Y-556457847D01*
X177588759Y-556281220D01*
X177640279Y-556111381D01*
X177723944Y-555954856D01*
X177775843Y-555891617D01*
X177836536Y-555817661D01*
X177953927Y-555721322D01*
X177973731Y-555705069D01*
X178051994Y-555663236D01*
X178130254Y-555621405D01*
X178130256Y-555621404D01*
X178300095Y-555569884D01*
X178366280Y-555563365D01*
X178432462Y-555556847D01*
X178520982Y-555556847D01*
X178587164Y-555563365D01*
X178587164Y-555563365D01*
G37*
G36*
X176047164Y-555563365D02*
G01*
X176113349Y-555569884D01*
X176283188Y-555621404D01*
X176283190Y-555621405D01*
X176361450Y-555663236D01*
X176439713Y-555705069D01*
X176459517Y-555721322D01*
X176576908Y-555817661D01*
X176637601Y-555891617D01*
X176689500Y-555954856D01*
X176773165Y-556111381D01*
X176824685Y-556281220D01*
X176842081Y-556457847D01*
X176824685Y-556634474D01*
X176773165Y-556804313D01*
X176689500Y-556960838D01*
X176660170Y-556996576D01*
X176576908Y-557098033D01*
X176475451Y-557181295D01*
X176439713Y-557210625D01*
X176283188Y-557294290D01*
X176113349Y-557345810D01*
X176047165Y-557352328D01*
X175980982Y-557358847D01*
X175892462Y-557358847D01*
X175826279Y-557352328D01*
X175760095Y-557345810D01*
X175590256Y-557294290D01*
X175433731Y-557210625D01*
X175397993Y-557181295D01*
X175296536Y-557098033D01*
X175213274Y-556996576D01*
X175183944Y-556960838D01*
X175100279Y-556804313D01*
X175048759Y-556634474D01*
X175031363Y-556457847D01*
X175048759Y-556281220D01*
X175100279Y-556111381D01*
X175183944Y-555954856D01*
X175235843Y-555891617D01*
X175296536Y-555817661D01*
X175413927Y-555721322D01*
X175433731Y-555705069D01*
X175511994Y-555663236D01*
X175590254Y-555621405D01*
X175590256Y-555621404D01*
X175760095Y-555569884D01*
X175826280Y-555563365D01*
X175892462Y-555556847D01*
X175980982Y-555556847D01*
X176047164Y-555563365D01*
X176047164Y-555563365D01*
G37*
G36*
X194904610Y-552899124D02*
G01*
X195054435Y-552928926D01*
X195336699Y-553045843D01*
X195590730Y-553215581D01*
X195806766Y-553431617D01*
X195976504Y-553685648D01*
X196093421Y-553967912D01*
X196153025Y-554267562D01*
X196153025Y-554573082D01*
X196093421Y-554872732D01*
X195976504Y-555154996D01*
X195806766Y-555409027D01*
X195590730Y-555625063D01*
X195336699Y-555794801D01*
X195054435Y-555911718D01*
X194904610Y-555941520D01*
X194754786Y-555971322D01*
X194449264Y-555971322D01*
X194299440Y-555941520D01*
X194149615Y-555911718D01*
X193867351Y-555794801D01*
X193613320Y-555625063D01*
X193397284Y-555409027D01*
X193227546Y-555154996D01*
X193110629Y-554872732D01*
X193051025Y-554573082D01*
X193051025Y-554267562D01*
X193110629Y-553967912D01*
X193227546Y-553685648D01*
X193397284Y-553431617D01*
X193613320Y-553215581D01*
X193867351Y-553045843D01*
X194149615Y-552928926D01*
X194299440Y-552899124D01*
X194449264Y-552869322D01*
X194754786Y-552869322D01*
X194904610Y-552899124D01*
X194904610Y-552899124D01*
G37*
G36*
X192653025Y-555721322D02*
G01*
X190001025Y-555721322D01*
X190001025Y-553119322D01*
X192653025Y-553119322D01*
X192653025Y-555721322D01*
X192653025Y-555721322D01*
G37*
G36*
X153022462Y-553795799D02*
G01*
X153088646Y-553802317D01*
X153258485Y-553853837D01*
X153415010Y-553937502D01*
X153450748Y-553966832D01*
X153552205Y-554050094D01*
X153635467Y-554151551D01*
X153664797Y-554187289D01*
X153748462Y-554343814D01*
X153799982Y-554513653D01*
X153817378Y-554690280D01*
X153799982Y-554866907D01*
X153748462Y-555036746D01*
X153664797Y-555193271D01*
X153649983Y-555211322D01*
X153552205Y-555330466D01*
X153480970Y-555388926D01*
X153415010Y-555443058D01*
X153258485Y-555526723D01*
X153088646Y-555578243D01*
X153022462Y-555584761D01*
X152956279Y-555591280D01*
X152867759Y-555591280D01*
X152801576Y-555584761D01*
X152735392Y-555578243D01*
X152565553Y-555526723D01*
X152409028Y-555443058D01*
X152343068Y-555388926D01*
X152271833Y-555330466D01*
X152174055Y-555211322D01*
X152159241Y-555193271D01*
X152075576Y-555036746D01*
X152024056Y-554866907D01*
X152006660Y-554690280D01*
X152024056Y-554513653D01*
X152075576Y-554343814D01*
X152159241Y-554187289D01*
X152188571Y-554151551D01*
X152271833Y-554050094D01*
X152373290Y-553966832D01*
X152409028Y-553937502D01*
X152565553Y-553853837D01*
X152735392Y-553802317D01*
X152801576Y-553795799D01*
X152867759Y-553789280D01*
X152956279Y-553789280D01*
X153022462Y-553795799D01*
X153022462Y-553795799D01*
G37*
G36*
X239414611Y-552139124D02*
G01*
X239564436Y-552168926D01*
X239846700Y-552285843D01*
X240100731Y-552455581D01*
X240316767Y-552671617D01*
X240486505Y-552925648D01*
X240603422Y-553207912D01*
X240612749Y-553254801D01*
X240663026Y-553507561D01*
X240663026Y-553813083D01*
X240638278Y-553937501D01*
X240603422Y-554112732D01*
X240486505Y-554394996D01*
X240316767Y-554649027D01*
X240100731Y-554865063D01*
X239846700Y-555034801D01*
X239564436Y-555151718D01*
X239414611Y-555181520D01*
X239264787Y-555211322D01*
X238959265Y-555211322D01*
X238809441Y-555181520D01*
X238659616Y-555151718D01*
X238377352Y-555034801D01*
X238123321Y-554865063D01*
X237907285Y-554649027D01*
X237737547Y-554394996D01*
X237620630Y-554112732D01*
X237585774Y-553937501D01*
X237561026Y-553813083D01*
X237561026Y-553507561D01*
X237611303Y-553254801D01*
X237620630Y-553207912D01*
X237737547Y-552925648D01*
X237907285Y-552671617D01*
X238123321Y-552455581D01*
X238377352Y-552285843D01*
X238659616Y-552168926D01*
X238809441Y-552139124D01*
X238959265Y-552109322D01*
X239264787Y-552109322D01*
X239414611Y-552139124D01*
X239414611Y-552139124D01*
G37*
G36*
X244238026Y-554961322D02*
G01*
X241586026Y-554961322D01*
X241586026Y-552359322D01*
X244238026Y-552359322D01*
X244238026Y-554961322D01*
X244238026Y-554961322D01*
G37*
G36*
X232114611Y-550789124D02*
G01*
X232264436Y-550818926D01*
X232546700Y-550935843D01*
X232800731Y-551105581D01*
X233016767Y-551321617D01*
X233186505Y-551575648D01*
X233303422Y-551857912D01*
X233303422Y-551857913D01*
X233363026Y-552157561D01*
X233363026Y-552463083D01*
X233333224Y-552612907D01*
X233303422Y-552762732D01*
X233186505Y-553044996D01*
X233016767Y-553299027D01*
X232800731Y-553515063D01*
X232546700Y-553684801D01*
X232264436Y-553801718D01*
X232207305Y-553813082D01*
X231964787Y-553861322D01*
X231659265Y-553861322D01*
X231416747Y-553813082D01*
X231359616Y-553801718D01*
X231077352Y-553684801D01*
X230823321Y-553515063D01*
X230607285Y-553299027D01*
X230437547Y-553044996D01*
X230320630Y-552762732D01*
X230290828Y-552612907D01*
X230261026Y-552463083D01*
X230261026Y-552157561D01*
X230320630Y-551857913D01*
X230320630Y-551857912D01*
X230437547Y-551575648D01*
X230607285Y-551321617D01*
X230823321Y-551105581D01*
X231077352Y-550935843D01*
X231359616Y-550818926D01*
X231509441Y-550789124D01*
X231659265Y-550759322D01*
X231964787Y-550759322D01*
X232114611Y-550789124D01*
X232114611Y-550789124D01*
G37*
G36*
X201254610Y-550359124D02*
G01*
X201404435Y-550388926D01*
X201686699Y-550505843D01*
X201940730Y-550675581D01*
X202156766Y-550891617D01*
X202326504Y-551145648D01*
X202443421Y-551427912D01*
X202503025Y-551727562D01*
X202503025Y-552033082D01*
X202443421Y-552332732D01*
X202326504Y-552614996D01*
X202156766Y-552869027D01*
X201940730Y-553085063D01*
X201686699Y-553254801D01*
X201404435Y-553371718D01*
X201254610Y-553401520D01*
X201104786Y-553431322D01*
X200799264Y-553431322D01*
X200649440Y-553401520D01*
X200499615Y-553371718D01*
X200217351Y-553254801D01*
X199963320Y-553085063D01*
X199747284Y-552869027D01*
X199577546Y-552614996D01*
X199460629Y-552332732D01*
X199401025Y-552033082D01*
X199401025Y-551727562D01*
X199460629Y-551427912D01*
X199577546Y-551145648D01*
X199747284Y-550891617D01*
X199963320Y-550675581D01*
X200217351Y-550505843D01*
X200499615Y-550388926D01*
X200649440Y-550359124D01*
X200799264Y-550329322D01*
X201104786Y-550329322D01*
X201254610Y-550359124D01*
X201254610Y-550359124D01*
G37*
G36*
X229363026Y-553361322D02*
G01*
X227261026Y-553361322D01*
X227261026Y-551259322D01*
X229363026Y-551259322D01*
X229363026Y-553361322D01*
X229363026Y-553361322D01*
G37*
G36*
X205580025Y-553181322D02*
G01*
X202928025Y-553181322D01*
X202928025Y-550579322D01*
X205580025Y-550579322D01*
X205580025Y-553181322D01*
X205580025Y-553181322D01*
G37*
G36*
X153022462Y-551255799D02*
G01*
X153088646Y-551262317D01*
X153258485Y-551313837D01*
X153415010Y-551397502D01*
X153450748Y-551426832D01*
X153552205Y-551510094D01*
X153635467Y-551611551D01*
X153664797Y-551647289D01*
X153748462Y-551803814D01*
X153799982Y-551973653D01*
X153817378Y-552150280D01*
X153799982Y-552326907D01*
X153748462Y-552496746D01*
X153664797Y-552653271D01*
X153649740Y-552671618D01*
X153552205Y-552790466D01*
X153456478Y-552869026D01*
X153415010Y-552903058D01*
X153258485Y-552986723D01*
X153088646Y-553038243D01*
X153022462Y-553044761D01*
X152956279Y-553051280D01*
X152867759Y-553051280D01*
X152801576Y-553044761D01*
X152735392Y-553038243D01*
X152565553Y-552986723D01*
X152409028Y-552903058D01*
X152367560Y-552869026D01*
X152271833Y-552790466D01*
X152174298Y-552671618D01*
X152159241Y-552653271D01*
X152075576Y-552496746D01*
X152024056Y-552326907D01*
X152006660Y-552150280D01*
X152024056Y-551973653D01*
X152075576Y-551803814D01*
X152159241Y-551647289D01*
X152188571Y-551611551D01*
X152271833Y-551510094D01*
X152373290Y-551426832D01*
X152409028Y-551397502D01*
X152565553Y-551313837D01*
X152735392Y-551262317D01*
X152801576Y-551255799D01*
X152867759Y-551249280D01*
X152956279Y-551249280D01*
X153022462Y-551255799D01*
X153022462Y-551255799D01*
G37*
G36*
X258464609Y-548139124D02*
G01*
X258614434Y-548168926D01*
X258896698Y-548285843D01*
X259150729Y-548455581D01*
X259366765Y-548671617D01*
X259536503Y-548925648D01*
X259653420Y-549207912D01*
X259671544Y-549299026D01*
X259713024Y-549507561D01*
X259713024Y-549813083D01*
X259684447Y-549956748D01*
X259653420Y-550112732D01*
X259536503Y-550394996D01*
X259366765Y-550649027D01*
X259150729Y-550865063D01*
X258896698Y-551034801D01*
X258614434Y-551151718D01*
X258464609Y-551181520D01*
X258314785Y-551211322D01*
X258009263Y-551211322D01*
X257859439Y-551181520D01*
X257709614Y-551151718D01*
X257427350Y-551034801D01*
X257173319Y-550865063D01*
X256957283Y-550649027D01*
X256787545Y-550394996D01*
X256670628Y-550112732D01*
X256639601Y-549956748D01*
X256611024Y-549813083D01*
X256611024Y-549507561D01*
X256652504Y-549299026D01*
X256670628Y-549207912D01*
X256787545Y-548925648D01*
X256957283Y-548671617D01*
X257173319Y-548455581D01*
X257427350Y-548285843D01*
X257709614Y-548168926D01*
X257859439Y-548139124D01*
X258009263Y-548109322D01*
X258314785Y-548109322D01*
X258464609Y-548139124D01*
X258464609Y-548139124D01*
G37*
G36*
X263288024Y-550961322D02*
G01*
X260636024Y-550961322D01*
X260636024Y-548359322D01*
X263288024Y-548359322D01*
X263288024Y-550961322D01*
X263288024Y-550961322D01*
G37*
G36*
X153022461Y-548715798D02*
G01*
X153088646Y-548722317D01*
X153258485Y-548773837D01*
X153415010Y-548857502D01*
X153450748Y-548886832D01*
X153552205Y-548970094D01*
X153635467Y-549071551D01*
X153664797Y-549107289D01*
X153748462Y-549263814D01*
X153799982Y-549433653D01*
X153817378Y-549610280D01*
X153799982Y-549786907D01*
X153748462Y-549956746D01*
X153664797Y-550113271D01*
X153635467Y-550149009D01*
X153552205Y-550250466D01*
X153456117Y-550329322D01*
X153415010Y-550363058D01*
X153258485Y-550446723D01*
X153088646Y-550498243D01*
X153022462Y-550504761D01*
X152956279Y-550511280D01*
X152867759Y-550511280D01*
X152801576Y-550504761D01*
X152735392Y-550498243D01*
X152565553Y-550446723D01*
X152409028Y-550363058D01*
X152367921Y-550329322D01*
X152271833Y-550250466D01*
X152188571Y-550149009D01*
X152159241Y-550113271D01*
X152075576Y-549956746D01*
X152024056Y-549786907D01*
X152006660Y-549610280D01*
X152024056Y-549433653D01*
X152075576Y-549263814D01*
X152159241Y-549107289D01*
X152188571Y-549071551D01*
X152271833Y-548970094D01*
X152373290Y-548886832D01*
X152409028Y-548857502D01*
X152565553Y-548773837D01*
X152735392Y-548722317D01*
X152801577Y-548715798D01*
X152867759Y-548709280D01*
X152956279Y-548709280D01*
X153022461Y-548715798D01*
X153022461Y-548715798D01*
G37*
G36*
X237263417Y-545433316D02*
G01*
X237391384Y-545486322D01*
X237732218Y-545627500D01*
X238154130Y-545909412D01*
X238512936Y-546268218D01*
X238794848Y-546690130D01*
X238864346Y-546857913D01*
X238988465Y-547157561D01*
X238989032Y-547158932D01*
X239088026Y-547656607D01*
X239088026Y-548164037D01*
X239084766Y-548180425D01*
X238989032Y-548661713D01*
X238931446Y-548800737D01*
X238794848Y-549130514D01*
X238512936Y-549552426D01*
X238154130Y-549911232D01*
X237732218Y-550193144D01*
X237593830Y-550250466D01*
X237263417Y-550387328D01*
X237014578Y-550436825D01*
X236765741Y-550486322D01*
X236258311Y-550486322D01*
X236009474Y-550436825D01*
X235760635Y-550387328D01*
X235430222Y-550250466D01*
X235291834Y-550193144D01*
X234869922Y-549911232D01*
X234511116Y-549552426D01*
X234229204Y-549130514D01*
X234092606Y-548800737D01*
X234035020Y-548661713D01*
X233939286Y-548180425D01*
X233936026Y-548164037D01*
X233936026Y-547656607D01*
X234035020Y-547158932D01*
X234035588Y-547157561D01*
X234159706Y-546857913D01*
X234229204Y-546690130D01*
X234511116Y-546268218D01*
X234869922Y-545909412D01*
X235291834Y-545627500D01*
X235632668Y-545486322D01*
X235760635Y-545433316D01*
X236258311Y-545334322D01*
X236765741Y-545334322D01*
X237263417Y-545433316D01*
X237263417Y-545433316D01*
G37*
G36*
X220364610Y-547139124D02*
G01*
X220514435Y-547168926D01*
X220796699Y-547285843D01*
X221050730Y-547455581D01*
X221266766Y-547671617D01*
X221436504Y-547925648D01*
X221542036Y-548180426D01*
X221553421Y-548207913D01*
X221613025Y-548507561D01*
X221613025Y-548813083D01*
X221590634Y-548925648D01*
X221553421Y-549112732D01*
X221436504Y-549394996D01*
X221266766Y-549649027D01*
X221050730Y-549865063D01*
X220796699Y-550034801D01*
X220514435Y-550151718D01*
X220364610Y-550181520D01*
X220214786Y-550211322D01*
X219909264Y-550211322D01*
X219759440Y-550181520D01*
X219609615Y-550151718D01*
X219327351Y-550034801D01*
X219073320Y-549865063D01*
X218857284Y-549649027D01*
X218687546Y-549394996D01*
X218570629Y-549112732D01*
X218533416Y-548925648D01*
X218511025Y-548813083D01*
X218511025Y-548507561D01*
X218570629Y-548207913D01*
X218582014Y-548180426D01*
X218687546Y-547925648D01*
X218857284Y-547671617D01*
X219073320Y-547455581D01*
X219327351Y-547285843D01*
X219609615Y-547168926D01*
X219759440Y-547139124D01*
X219909264Y-547109322D01*
X220214786Y-547109322D01*
X220364610Y-547139124D01*
X220364610Y-547139124D01*
G37*
G36*
X225188025Y-549961322D02*
G01*
X222536025Y-549961322D01*
X222536025Y-547359322D01*
X225188025Y-547359322D01*
X225188025Y-549961322D01*
X225188025Y-549961322D01*
G37*
G36*
X251164609Y-546789124D02*
G01*
X251314434Y-546818926D01*
X251596698Y-546935843D01*
X251850729Y-547105581D01*
X252066765Y-547321617D01*
X252236503Y-547575648D01*
X252353420Y-547857912D01*
X252366894Y-547925650D01*
X252413024Y-548157561D01*
X252413024Y-548463083D01*
X252402685Y-548515062D01*
X252353420Y-548762732D01*
X252236503Y-549044996D01*
X252066765Y-549299027D01*
X251850729Y-549515063D01*
X251596698Y-549684801D01*
X251314434Y-549801718D01*
X251257303Y-549813082D01*
X251014785Y-549861322D01*
X250709263Y-549861322D01*
X250466745Y-549813082D01*
X250409614Y-549801718D01*
X250127350Y-549684801D01*
X249873319Y-549515063D01*
X249657283Y-549299027D01*
X249487545Y-549044996D01*
X249370628Y-548762732D01*
X249321363Y-548515062D01*
X249311024Y-548463083D01*
X249311024Y-548157561D01*
X249357154Y-547925650D01*
X249370628Y-547857912D01*
X249487545Y-547575648D01*
X249657283Y-547321617D01*
X249873319Y-547105581D01*
X250127350Y-546935843D01*
X250409614Y-546818926D01*
X250559439Y-546789124D01*
X250709263Y-546759322D01*
X251014785Y-546759322D01*
X251164609Y-546789124D01*
X251164609Y-546789124D01*
G37*
G36*
X248413024Y-549361322D02*
G01*
X246311024Y-549361322D01*
X246311024Y-547259322D01*
X248413024Y-547259322D01*
X248413024Y-549361322D01*
X248413024Y-549361322D01*
G37*
G36*
X213064610Y-545789124D02*
G01*
X213214435Y-545818926D01*
X213496699Y-545935843D01*
X213750730Y-546105581D01*
X213966766Y-546321617D01*
X214136504Y-546575648D01*
X214253421Y-546857912D01*
X214253421Y-546857913D01*
X214313025Y-547157561D01*
X214313025Y-547463083D01*
X214290634Y-547575648D01*
X214253421Y-547762732D01*
X214136504Y-548044996D01*
X213966766Y-548299027D01*
X213750730Y-548515063D01*
X213496699Y-548684801D01*
X213214435Y-548801718D01*
X213157304Y-548813082D01*
X212914786Y-548861322D01*
X212609264Y-548861322D01*
X212366746Y-548813082D01*
X212309615Y-548801718D01*
X212027351Y-548684801D01*
X211773320Y-548515063D01*
X211557284Y-548299027D01*
X211387546Y-548044996D01*
X211270629Y-547762732D01*
X211233416Y-547575648D01*
X211211025Y-547463083D01*
X211211025Y-547157561D01*
X211270629Y-546857913D01*
X211270629Y-546857912D01*
X211387546Y-546575648D01*
X211557284Y-546321617D01*
X211773320Y-546105581D01*
X212027351Y-545935843D01*
X212309615Y-545818926D01*
X212459440Y-545789124D01*
X212609264Y-545759322D01*
X212914786Y-545759322D01*
X213064610Y-545789124D01*
X213064610Y-545789124D01*
G37*
G36*
X241862130Y-547019907D02*
G01*
X242030652Y-547089711D01*
X242182317Y-547191050D01*
X242311298Y-547320031D01*
X242412637Y-547471696D01*
X242482441Y-547640218D01*
X242518026Y-547819119D01*
X242518026Y-548001525D01*
X242482441Y-548180426D01*
X242412637Y-548348948D01*
X242311298Y-548500613D01*
X242182317Y-548629594D01*
X242030652Y-548730933D01*
X241862130Y-548800737D01*
X241683229Y-548836322D01*
X241500823Y-548836322D01*
X241321922Y-548800737D01*
X241153400Y-548730933D01*
X241001735Y-548629594D01*
X240872754Y-548500613D01*
X240771415Y-548348948D01*
X240701611Y-548180426D01*
X240666026Y-548001525D01*
X240666026Y-547819119D01*
X240701611Y-547640218D01*
X240771415Y-547471696D01*
X240872754Y-547320031D01*
X241001735Y-547191050D01*
X241153400Y-547089711D01*
X241321922Y-547019907D01*
X241500823Y-546984322D01*
X241683229Y-546984322D01*
X241862130Y-547019907D01*
X241862130Y-547019907D01*
G37*
G36*
X231702130Y-547019907D02*
G01*
X231870652Y-547089711D01*
X232022317Y-547191050D01*
X232151298Y-547320031D01*
X232252637Y-547471696D01*
X232322441Y-547640218D01*
X232358026Y-547819119D01*
X232358026Y-548001525D01*
X232322441Y-548180426D01*
X232252637Y-548348948D01*
X232151298Y-548500613D01*
X232022317Y-548629594D01*
X231870652Y-548730933D01*
X231702130Y-548800737D01*
X231523229Y-548836322D01*
X231340823Y-548836322D01*
X231161922Y-548800737D01*
X230993400Y-548730933D01*
X230841735Y-548629594D01*
X230712754Y-548500613D01*
X230611415Y-548348948D01*
X230541611Y-548180426D01*
X230506026Y-548001525D01*
X230506026Y-547819119D01*
X230541611Y-547640218D01*
X230611415Y-547471696D01*
X230712754Y-547320031D01*
X230841735Y-547191050D01*
X230993400Y-547089711D01*
X231161922Y-547019907D01*
X231340823Y-546984322D01*
X231523229Y-546984322D01*
X231702130Y-547019907D01*
X231702130Y-547019907D01*
G37*
G36*
X210313025Y-548361322D02*
G01*
X208211025Y-548361322D01*
X208211025Y-546259322D01*
X210313025Y-546259322D01*
X210313025Y-548361322D01*
X210313025Y-548361322D01*
G37*
G36*
X232940251Y-543836322D02*
G01*
X233154436Y-543878926D01*
X233436700Y-543995843D01*
X233690731Y-544165581D01*
X233906767Y-544381617D01*
X234076505Y-544635648D01*
X234193422Y-544917912D01*
X234253026Y-545217562D01*
X234253026Y-545523082D01*
X234193422Y-545822732D01*
X234076505Y-546104996D01*
X233906767Y-546359027D01*
X233690731Y-546575063D01*
X233436700Y-546744801D01*
X233154436Y-546861718D01*
X233004611Y-546891520D01*
X232854787Y-546921322D01*
X232549265Y-546921322D01*
X232399441Y-546891520D01*
X232249616Y-546861718D01*
X231967352Y-546744801D01*
X231713321Y-546575063D01*
X231497285Y-546359027D01*
X231327547Y-546104996D01*
X231210630Y-545822732D01*
X231151026Y-545523082D01*
X231151026Y-545217562D01*
X231210630Y-544917912D01*
X231327547Y-544635648D01*
X231497285Y-544381617D01*
X231713321Y-544165581D01*
X231967352Y-543995843D01*
X232249616Y-543878926D01*
X232463801Y-543836322D01*
X232549265Y-543819322D01*
X232854787Y-543819322D01*
X232940251Y-543836322D01*
X232940251Y-543836322D01*
G37*
G36*
X230753026Y-546671322D02*
G01*
X228101026Y-546671322D01*
X228101026Y-544069322D01*
X230753026Y-544069322D01*
X230753026Y-546671322D01*
X230753026Y-546671322D01*
G37*
G36*
X255939934Y-541359026D02*
G01*
X256313415Y-541433316D01*
X256507599Y-541513750D01*
X256782216Y-541627500D01*
X257204128Y-541909412D01*
X257562934Y-542268218D01*
X257844846Y-542690130D01*
X257874919Y-542762733D01*
X258039030Y-543158931D01*
X258066897Y-543299027D01*
X258138024Y-543656607D01*
X258138024Y-544164037D01*
X258094744Y-544381618D01*
X258039030Y-544661713D01*
X257981444Y-544800737D01*
X257844846Y-545130514D01*
X257562934Y-545552426D01*
X257204128Y-545911232D01*
X256782216Y-546193144D01*
X256600971Y-546268218D01*
X256313415Y-546387328D01*
X256064576Y-546436825D01*
X255815739Y-546486322D01*
X255308309Y-546486322D01*
X255059472Y-546436825D01*
X254810633Y-546387328D01*
X254523077Y-546268218D01*
X254341832Y-546193144D01*
X253919920Y-545911232D01*
X253561114Y-545552426D01*
X253279202Y-545130514D01*
X253142604Y-544800737D01*
X253085018Y-544661713D01*
X253029304Y-544381618D01*
X252986024Y-544164037D01*
X252986024Y-543656607D01*
X253057151Y-543299027D01*
X253085018Y-543158931D01*
X253249129Y-542762733D01*
X253279202Y-542690130D01*
X253561114Y-542268218D01*
X253919920Y-541909412D01*
X254341832Y-541627500D01*
X254616449Y-541513750D01*
X254810633Y-541433316D01*
X255184114Y-541359026D01*
X255308309Y-541334322D01*
X255815739Y-541334322D01*
X255939934Y-541359026D01*
X255939934Y-541359026D01*
G37*
G36*
X217952024Y-540381322D02*
G01*
X218213416Y-540433316D01*
X218407600Y-540513750D01*
X218682217Y-540627500D01*
X219104129Y-540909412D01*
X219462935Y-541268218D01*
X219744847Y-541690130D01*
X219840610Y-541921322D01*
X219939031Y-542158931D01*
X219978891Y-542359323D01*
X220038025Y-542656607D01*
X220038025Y-543164037D01*
X220006996Y-543320031D01*
X219939031Y-543661713D01*
X219873869Y-543819027D01*
X219744847Y-544130514D01*
X219462935Y-544552426D01*
X219104129Y-544911232D01*
X218682217Y-545193144D01*
X218407600Y-545306894D01*
X218213416Y-545387328D01*
X217982218Y-545433316D01*
X217715740Y-545486322D01*
X217208310Y-545486322D01*
X216941832Y-545433316D01*
X216710634Y-545387328D01*
X216516450Y-545306894D01*
X216241833Y-545193144D01*
X215819921Y-544911232D01*
X215461115Y-544552426D01*
X215179203Y-544130514D01*
X215050181Y-543819027D01*
X214985019Y-543661713D01*
X214917054Y-543320031D01*
X214886025Y-543164037D01*
X214886025Y-542656607D01*
X214945159Y-542359323D01*
X214985019Y-542158931D01*
X215083440Y-541921322D01*
X215179203Y-541690130D01*
X215461115Y-541268218D01*
X215819921Y-540909412D01*
X216241833Y-540627500D01*
X216516450Y-540513750D01*
X216710634Y-540433316D01*
X216972026Y-540381322D01*
X217208310Y-540334322D01*
X217715740Y-540334322D01*
X217952024Y-540381322D01*
X217952024Y-540381322D01*
G37*
G36*
X201314610Y-542139125D02*
G01*
X201464435Y-542168927D01*
X201746699Y-542285844D01*
X202000730Y-542455582D01*
X202216766Y-542671618D01*
X202386504Y-542925649D01*
X202503421Y-543207913D01*
X202503421Y-543207914D01*
X202563025Y-543507562D01*
X202563025Y-543813084D01*
X202549928Y-543878926D01*
X202503421Y-544112733D01*
X202386504Y-544394997D01*
X202216766Y-544649028D01*
X202000730Y-544865064D01*
X201746699Y-545034802D01*
X201464435Y-545151719D01*
X201314610Y-545181521D01*
X201164786Y-545211323D01*
X200859264Y-545211323D01*
X200709440Y-545181521D01*
X200559615Y-545151719D01*
X200277351Y-545034802D01*
X200023320Y-544865064D01*
X199807284Y-544649028D01*
X199637546Y-544394997D01*
X199520629Y-544112733D01*
X199474122Y-543878926D01*
X199461025Y-543813084D01*
X199461025Y-543507562D01*
X199520629Y-543207914D01*
X199520629Y-543207913D01*
X199637546Y-542925649D01*
X199807284Y-542671618D01*
X200023320Y-542455582D01*
X200277351Y-542285844D01*
X200559615Y-542168927D01*
X200709440Y-542139125D01*
X200859264Y-542109323D01*
X201164786Y-542109323D01*
X201314610Y-542139125D01*
X201314610Y-542139125D01*
G37*
G36*
X206138025Y-544961323D02*
G01*
X203486025Y-544961323D01*
X203486025Y-542359323D01*
X206138025Y-542359323D01*
X206138025Y-544961323D01*
X206138025Y-544961323D01*
G37*
G36*
X260912128Y-543019907D02*
G01*
X261080650Y-543089711D01*
X261232315Y-543191050D01*
X261361296Y-543320031D01*
X261462635Y-543471696D01*
X261532439Y-543640218D01*
X261568024Y-543819119D01*
X261568024Y-544001525D01*
X261532439Y-544180426D01*
X261462635Y-544348948D01*
X261361296Y-544500613D01*
X261232315Y-544629594D01*
X261080650Y-544730933D01*
X260912128Y-544800737D01*
X260733227Y-544836322D01*
X260550821Y-544836322D01*
X260371920Y-544800737D01*
X260203398Y-544730933D01*
X260051733Y-544629594D01*
X259922752Y-544500613D01*
X259821413Y-544348948D01*
X259751609Y-544180426D01*
X259716024Y-544001525D01*
X259716024Y-543819119D01*
X259751609Y-543640218D01*
X259821413Y-543471696D01*
X259922752Y-543320031D01*
X260051733Y-543191050D01*
X260203398Y-543089711D01*
X260371920Y-543019907D01*
X260550821Y-542984322D01*
X260733227Y-542984322D01*
X260912128Y-543019907D01*
X260912128Y-543019907D01*
G37*
G36*
X250752128Y-543019907D02*
G01*
X250920650Y-543089711D01*
X251072315Y-543191050D01*
X251201296Y-543320031D01*
X251302635Y-543471696D01*
X251372439Y-543640218D01*
X251408024Y-543819119D01*
X251408024Y-544001525D01*
X251372439Y-544180426D01*
X251302635Y-544348948D01*
X251201296Y-544500613D01*
X251072315Y-544629594D01*
X250920650Y-544730933D01*
X250752128Y-544800737D01*
X250573227Y-544836322D01*
X250390821Y-544836322D01*
X250211920Y-544800737D01*
X250043398Y-544730933D01*
X249891733Y-544629594D01*
X249762752Y-544500613D01*
X249661413Y-544348948D01*
X249591609Y-544180426D01*
X249556024Y-544001525D01*
X249556024Y-543819119D01*
X249591609Y-543640218D01*
X249661413Y-543471696D01*
X249762752Y-543320031D01*
X249891733Y-543191050D01*
X250043398Y-543089711D01*
X250211920Y-543019907D01*
X250390821Y-542984322D01*
X250573227Y-542984322D01*
X250752128Y-543019907D01*
X250752128Y-543019907D01*
G37*
G36*
X239354611Y-541309124D02*
G01*
X239504436Y-541338926D01*
X239786700Y-541455843D01*
X240040731Y-541625581D01*
X240256767Y-541841617D01*
X240426505Y-542095648D01*
X240543422Y-542377912D01*
X240560364Y-542463084D01*
X240603026Y-542677561D01*
X240603026Y-542983083D01*
X240595701Y-543019907D01*
X240543422Y-543282732D01*
X240426505Y-543564996D01*
X240256767Y-543819027D01*
X240040731Y-544035063D01*
X239786700Y-544204801D01*
X239504436Y-544321718D01*
X239367546Y-544348947D01*
X239204787Y-544381322D01*
X238899265Y-544381322D01*
X238736506Y-544348947D01*
X238599616Y-544321718D01*
X238317352Y-544204801D01*
X238063321Y-544035063D01*
X237847285Y-543819027D01*
X237677547Y-543564996D01*
X237560630Y-543282732D01*
X237508351Y-543019907D01*
X237501026Y-542983083D01*
X237501026Y-542677561D01*
X237543688Y-542463084D01*
X237560630Y-542377912D01*
X237677547Y-542095648D01*
X237847285Y-541841617D01*
X238063321Y-541625581D01*
X238317352Y-541455843D01*
X238599616Y-541338926D01*
X238749441Y-541309124D01*
X238899265Y-541279322D01*
X239204787Y-541279322D01*
X239354611Y-541309124D01*
X239354611Y-541309124D01*
G37*
G36*
X243680026Y-544131322D02*
G01*
X241028026Y-544131322D01*
X241028026Y-541529322D01*
X243680026Y-541529322D01*
X243680026Y-544131322D01*
X243680026Y-544131322D01*
G37*
G36*
X194014610Y-540789125D02*
G01*
X194164435Y-540818927D01*
X194446699Y-540935844D01*
X194700730Y-541105582D01*
X194916766Y-541321618D01*
X195086504Y-541575649D01*
X195196671Y-541841617D01*
X195203421Y-541857914D01*
X195253430Y-542109323D01*
X195263025Y-542157563D01*
X195263025Y-542463083D01*
X195203421Y-542762733D01*
X195086504Y-543044997D01*
X194916766Y-543299028D01*
X194700730Y-543515064D01*
X194446699Y-543684802D01*
X194164435Y-543801719D01*
X194014610Y-543831521D01*
X193864786Y-543861323D01*
X193559264Y-543861323D01*
X193409440Y-543831521D01*
X193259615Y-543801719D01*
X192977351Y-543684802D01*
X192723320Y-543515064D01*
X192507284Y-543299028D01*
X192337546Y-543044997D01*
X192220629Y-542762733D01*
X192161025Y-542463083D01*
X192161025Y-542157563D01*
X192170621Y-542109323D01*
X192220629Y-541857914D01*
X192227379Y-541841617D01*
X192337546Y-541575649D01*
X192507284Y-541321618D01*
X192723320Y-541105582D01*
X192977351Y-540935844D01*
X193259615Y-540818927D01*
X193409440Y-540789125D01*
X193559264Y-540759323D01*
X193864786Y-540759323D01*
X194014610Y-540789125D01*
X194014610Y-540789125D01*
G37*
G36*
X212652129Y-542019907D02*
G01*
X212820651Y-542089711D01*
X212972316Y-542191050D01*
X213101297Y-542320031D01*
X213202636Y-542471696D01*
X213272440Y-542640218D01*
X213308025Y-542819119D01*
X213308025Y-543001525D01*
X213272440Y-543180426D01*
X213202636Y-543348948D01*
X213101297Y-543500613D01*
X212972316Y-543629594D01*
X212820651Y-543730933D01*
X212652129Y-543800737D01*
X212473228Y-543836322D01*
X212290822Y-543836322D01*
X212111921Y-543800737D01*
X211943399Y-543730933D01*
X211791734Y-543629594D01*
X211662753Y-543500613D01*
X211561414Y-543348948D01*
X211491610Y-543180426D01*
X211456025Y-543001525D01*
X211456025Y-542819119D01*
X211491610Y-542640218D01*
X211561414Y-542471696D01*
X211662753Y-542320031D01*
X211791734Y-542191050D01*
X211943399Y-542089711D01*
X212111921Y-542019907D01*
X212290822Y-541984322D01*
X212473228Y-541984322D01*
X212652129Y-542019907D01*
X212652129Y-542019907D01*
G37*
G36*
X222812129Y-542019907D02*
G01*
X222980651Y-542089711D01*
X223132316Y-542191050D01*
X223261297Y-542320031D01*
X223362636Y-542471696D01*
X223432440Y-542640218D01*
X223468025Y-542819119D01*
X223468025Y-543001525D01*
X223432440Y-543180426D01*
X223362636Y-543348948D01*
X223261297Y-543500613D01*
X223132316Y-543629594D01*
X222980651Y-543730933D01*
X222812129Y-543800737D01*
X222633228Y-543836322D01*
X222450822Y-543836322D01*
X222271921Y-543800737D01*
X222103399Y-543730933D01*
X221951734Y-543629594D01*
X221822753Y-543500613D01*
X221721414Y-543348948D01*
X221651610Y-543180426D01*
X221616025Y-543001525D01*
X221616025Y-542819119D01*
X221651610Y-542640218D01*
X221721414Y-542471696D01*
X221822753Y-542320031D01*
X221951734Y-542191050D01*
X222103399Y-542089711D01*
X222271921Y-542019907D01*
X222450822Y-541984322D01*
X222633228Y-541984322D01*
X222812129Y-542019907D01*
X222812129Y-542019907D01*
G37*
G36*
X191263025Y-543361323D02*
G01*
X189161025Y-543361323D01*
X189161025Y-541259323D01*
X191263025Y-541259323D01*
X191263025Y-543361323D01*
X191263025Y-543361323D01*
G37*
G36*
X252054609Y-539849124D02*
G01*
X252204434Y-539878926D01*
X252486698Y-539995843D01*
X252740729Y-540165581D01*
X252956765Y-540381617D01*
X253126503Y-540635648D01*
X253203995Y-540822732D01*
X253243420Y-540917913D01*
X253303024Y-541217561D01*
X253303024Y-541523083D01*
X253282636Y-541625581D01*
X253243420Y-541822732D01*
X253126503Y-542104996D01*
X252956765Y-542359027D01*
X252740729Y-542575063D01*
X252486698Y-542744801D01*
X252204434Y-542861718D01*
X252054609Y-542891520D01*
X251904785Y-542921322D01*
X251599263Y-542921322D01*
X251449439Y-542891520D01*
X251299614Y-542861718D01*
X251017350Y-542744801D01*
X250763319Y-542575063D01*
X250547283Y-542359027D01*
X250377545Y-542104996D01*
X250260628Y-541822732D01*
X250221412Y-541625581D01*
X250201024Y-541523083D01*
X250201024Y-541217561D01*
X250260628Y-540917913D01*
X250300053Y-540822732D01*
X250377545Y-540635648D01*
X250547283Y-540381617D01*
X250763319Y-540165581D01*
X251017350Y-539995843D01*
X251299614Y-539878926D01*
X251449439Y-539849124D01*
X251599263Y-539819322D01*
X251904785Y-539819322D01*
X252054609Y-539849124D01*
X252054609Y-539849124D01*
G37*
G36*
X249803024Y-542671322D02*
G01*
X247151024Y-542671322D01*
X247151024Y-540069322D01*
X249803024Y-540069322D01*
X249803024Y-542671322D01*
X249803024Y-542671322D01*
G37*
G36*
X213890255Y-538836323D02*
G01*
X214104435Y-538878926D01*
X214386699Y-538995843D01*
X214640730Y-539165581D01*
X214856766Y-539381617D01*
X215026504Y-539635648D01*
X215143421Y-539917912D01*
X215203025Y-540217562D01*
X215203025Y-540523082D01*
X215143421Y-540822732D01*
X215026504Y-541104996D01*
X214856766Y-541359027D01*
X214640730Y-541575063D01*
X214386699Y-541744801D01*
X214104435Y-541861718D01*
X213954610Y-541891520D01*
X213804786Y-541921322D01*
X213499264Y-541921322D01*
X213349440Y-541891520D01*
X213199615Y-541861718D01*
X212917351Y-541744801D01*
X212663320Y-541575063D01*
X212447284Y-541359027D01*
X212277546Y-541104996D01*
X212160629Y-540822732D01*
X212101025Y-540523082D01*
X212101025Y-540217562D01*
X212160629Y-539917912D01*
X212277546Y-539635648D01*
X212447284Y-539381617D01*
X212663320Y-539165581D01*
X212917351Y-538995843D01*
X213199615Y-538878926D01*
X213413795Y-538836323D01*
X213499264Y-538819322D01*
X213804786Y-538819322D01*
X213890255Y-538836323D01*
X213890255Y-538836323D01*
G37*
G36*
X211703025Y-541671322D02*
G01*
X209051025Y-541671322D01*
X209051025Y-539069322D01*
X211703025Y-539069322D01*
X211703025Y-541671322D01*
X211703025Y-541671322D01*
G37*
G36*
X198914577Y-535383820D02*
G01*
X199163416Y-535433317D01*
X199357600Y-535513751D01*
X199632217Y-535627501D01*
X200054129Y-535909413D01*
X200412935Y-536268219D01*
X200694847Y-536690131D01*
X200757595Y-536841618D01*
X200862819Y-537095650D01*
X200889031Y-537158933D01*
X200988025Y-537656608D01*
X200988025Y-538164038D01*
X200985157Y-538178454D01*
X200889031Y-538661714D01*
X200823747Y-538819322D01*
X200694847Y-539130515D01*
X200412935Y-539552427D01*
X200054129Y-539911233D01*
X199632217Y-540193145D01*
X199357600Y-540306895D01*
X199163416Y-540387329D01*
X198932223Y-540433316D01*
X198665740Y-540486323D01*
X198158310Y-540486323D01*
X197891827Y-540433316D01*
X197660634Y-540387329D01*
X197466450Y-540306895D01*
X197191833Y-540193145D01*
X196769921Y-539911233D01*
X196411115Y-539552427D01*
X196129203Y-539130515D01*
X196000303Y-538819322D01*
X195935019Y-538661714D01*
X195838893Y-538178454D01*
X195836025Y-538164038D01*
X195836025Y-537656608D01*
X195935019Y-537158933D01*
X195961232Y-537095650D01*
X196066455Y-536841618D01*
X196129203Y-536690131D01*
X196411115Y-536268219D01*
X196769921Y-535909413D01*
X197191833Y-535627501D01*
X197466450Y-535513751D01*
X197660634Y-535433317D01*
X197909473Y-535383820D01*
X198158310Y-535334323D01*
X198665740Y-535334323D01*
X198914577Y-535383820D01*
X198914577Y-535383820D01*
G37*
G36*
X258404609Y-537309124D02*
G01*
X258554434Y-537338926D01*
X258836698Y-537455843D01*
X259090729Y-537625581D01*
X259306765Y-537841617D01*
X259476503Y-538095648D01*
X259581423Y-538348949D01*
X259593420Y-538377913D01*
X259649872Y-538661713D01*
X259653024Y-538677562D01*
X259653024Y-538983082D01*
X259593420Y-539282732D01*
X259476503Y-539564996D01*
X259306765Y-539819027D01*
X259090729Y-540035063D01*
X258836698Y-540204801D01*
X258554434Y-540321718D01*
X258491069Y-540334322D01*
X258254785Y-540381322D01*
X257949263Y-540381322D01*
X257712979Y-540334322D01*
X257649614Y-540321718D01*
X257367350Y-540204801D01*
X257113319Y-540035063D01*
X256897283Y-539819027D01*
X256727545Y-539564996D01*
X256610628Y-539282732D01*
X256551024Y-538983082D01*
X256551024Y-538677562D01*
X256554177Y-538661713D01*
X256610628Y-538377913D01*
X256622625Y-538348949D01*
X256727545Y-538095648D01*
X256897283Y-537841617D01*
X257113319Y-537625581D01*
X257367350Y-537455843D01*
X257649614Y-537338926D01*
X257799439Y-537309124D01*
X257949263Y-537279322D01*
X258254785Y-537279322D01*
X258404609Y-537309124D01*
X258404609Y-537309124D01*
G37*
G36*
X262730024Y-540131322D02*
G01*
X260078024Y-540131322D01*
X260078024Y-537529322D01*
X262730024Y-537529322D01*
X262730024Y-540131322D01*
X262730024Y-540131322D01*
G37*
G36*
X220304610Y-536309124D02*
G01*
X220454435Y-536338926D01*
X220736699Y-536455843D01*
X220990730Y-536625581D01*
X221206766Y-536841617D01*
X221376504Y-537095648D01*
X221493421Y-537377912D01*
X221553025Y-537677562D01*
X221553025Y-537983082D01*
X221493421Y-538282732D01*
X221376504Y-538564996D01*
X221206766Y-538819027D01*
X220990730Y-539035063D01*
X220736699Y-539204801D01*
X220454435Y-539321718D01*
X220304610Y-539351520D01*
X220154786Y-539381322D01*
X219849264Y-539381322D01*
X219699440Y-539351520D01*
X219549615Y-539321718D01*
X219267351Y-539204801D01*
X219013320Y-539035063D01*
X218797284Y-538819027D01*
X218627546Y-538564996D01*
X218510629Y-538282732D01*
X218451025Y-537983082D01*
X218451025Y-537677562D01*
X218510629Y-537377912D01*
X218627546Y-537095648D01*
X218797284Y-536841617D01*
X219013320Y-536625581D01*
X219267351Y-536455843D01*
X219549615Y-536338926D01*
X219699440Y-536309124D01*
X219849264Y-536279322D01*
X220154786Y-536279322D01*
X220304610Y-536309124D01*
X220304610Y-536309124D01*
G37*
G36*
X224630025Y-539131322D02*
G01*
X221978025Y-539131322D01*
X221978025Y-536529322D01*
X224630025Y-536529322D01*
X224630025Y-539131322D01*
X224630025Y-539131322D01*
G37*
G36*
X203762129Y-537019908D02*
G01*
X203930651Y-537089712D01*
X204082316Y-537191051D01*
X204211297Y-537320032D01*
X204312636Y-537471697D01*
X204382440Y-537640219D01*
X204418025Y-537819120D01*
X204418025Y-538001526D01*
X204382440Y-538180427D01*
X204312636Y-538348949D01*
X204211297Y-538500614D01*
X204082316Y-538629595D01*
X203930651Y-538730934D01*
X203762129Y-538800738D01*
X203583228Y-538836323D01*
X203400822Y-538836323D01*
X203221921Y-538800738D01*
X203053399Y-538730934D01*
X202901734Y-538629595D01*
X202772753Y-538500614D01*
X202671414Y-538348949D01*
X202601610Y-538180427D01*
X202566025Y-538001526D01*
X202566025Y-537819120D01*
X202601610Y-537640219D01*
X202671414Y-537471697D01*
X202772753Y-537320032D01*
X202901734Y-537191051D01*
X203053399Y-537089712D01*
X203221921Y-537019908D01*
X203400822Y-536984323D01*
X203583228Y-536984323D01*
X203762129Y-537019908D01*
X203762129Y-537019908D01*
G37*
G36*
X193602129Y-537019908D02*
G01*
X193770651Y-537089712D01*
X193922316Y-537191051D01*
X194051297Y-537320032D01*
X194152636Y-537471697D01*
X194222440Y-537640219D01*
X194258025Y-537819120D01*
X194258025Y-538001526D01*
X194222440Y-538180427D01*
X194152636Y-538348949D01*
X194051297Y-538500614D01*
X193922316Y-538629595D01*
X193770651Y-538730934D01*
X193602129Y-538800738D01*
X193423228Y-538836323D01*
X193240822Y-538836323D01*
X193061921Y-538800738D01*
X192893399Y-538730934D01*
X192741734Y-538629595D01*
X192612753Y-538500614D01*
X192511414Y-538348949D01*
X192441610Y-538180427D01*
X192406025Y-538001526D01*
X192406025Y-537819120D01*
X192441610Y-537640219D01*
X192511414Y-537471697D01*
X192612753Y-537320032D01*
X192741734Y-537191051D01*
X192893399Y-537089712D01*
X193061921Y-537019908D01*
X193240822Y-536984323D01*
X193423228Y-536984323D01*
X193602129Y-537019908D01*
X193602129Y-537019908D01*
G37*
G36*
X181429454Y-536447529D02*
G01*
X181495639Y-536454048D01*
X181665478Y-536505568D01*
X181822003Y-536589233D01*
X181857741Y-536618563D01*
X181959198Y-536701825D01*
X182042460Y-536803282D01*
X182071790Y-536839020D01*
X182155455Y-536995545D01*
X182206975Y-537165384D01*
X182224371Y-537342011D01*
X182206975Y-537518638D01*
X182155455Y-537688477D01*
X182071790Y-537845002D01*
X182042460Y-537880740D01*
X181959198Y-537982197D01*
X181857741Y-538065459D01*
X181822003Y-538094789D01*
X181665478Y-538178454D01*
X181495639Y-538229974D01*
X181429455Y-538236492D01*
X181363272Y-538243011D01*
X181274752Y-538243011D01*
X181208569Y-538236492D01*
X181142385Y-538229974D01*
X180972546Y-538178454D01*
X180816021Y-538094789D01*
X180780283Y-538065459D01*
X180678826Y-537982197D01*
X180595564Y-537880740D01*
X180566234Y-537845002D01*
X180482569Y-537688477D01*
X180431049Y-537518638D01*
X180413653Y-537342011D01*
X180431049Y-537165384D01*
X180482569Y-536995545D01*
X180566234Y-536839020D01*
X180595564Y-536803282D01*
X180678826Y-536701825D01*
X180780283Y-536618563D01*
X180816021Y-536589233D01*
X180972546Y-536505568D01*
X181142385Y-536454048D01*
X181208570Y-536447529D01*
X181274752Y-536441011D01*
X181363272Y-536441011D01*
X181429454Y-536447529D01*
X181429454Y-536447529D01*
G37*
G36*
X184760012Y-538243011D02*
G01*
X182958012Y-538243011D01*
X182958012Y-536441011D01*
X184760012Y-536441011D01*
X184760012Y-538243011D01*
X184760012Y-538243011D01*
G37*
G36*
X176349454Y-536447529D02*
G01*
X176415639Y-536454048D01*
X176585478Y-536505568D01*
X176742003Y-536589233D01*
X176777741Y-536618563D01*
X176879198Y-536701825D01*
X176962460Y-536803282D01*
X176991790Y-536839020D01*
X177075455Y-536995545D01*
X177126975Y-537165384D01*
X177144371Y-537342011D01*
X177126975Y-537518638D01*
X177075455Y-537688477D01*
X176991790Y-537845002D01*
X176962460Y-537880740D01*
X176879198Y-537982197D01*
X176777741Y-538065459D01*
X176742003Y-538094789D01*
X176585478Y-538178454D01*
X176415639Y-538229974D01*
X176349455Y-538236492D01*
X176283272Y-538243011D01*
X176194752Y-538243011D01*
X176128569Y-538236492D01*
X176062385Y-538229974D01*
X175892546Y-538178454D01*
X175736021Y-538094789D01*
X175700283Y-538065459D01*
X175598826Y-537982197D01*
X175515564Y-537880740D01*
X175486234Y-537845002D01*
X175402569Y-537688477D01*
X175351049Y-537518638D01*
X175333653Y-537342011D01*
X175351049Y-537165384D01*
X175402569Y-536995545D01*
X175486234Y-536839020D01*
X175515564Y-536803282D01*
X175598826Y-536701825D01*
X175700283Y-536618563D01*
X175736021Y-536589233D01*
X175892546Y-536505568D01*
X176062385Y-536454048D01*
X176128570Y-536447529D01*
X176194752Y-536441011D01*
X176283272Y-536441011D01*
X176349454Y-536447529D01*
X176349454Y-536447529D01*
G37*
G36*
X178889454Y-536447529D02*
G01*
X178955639Y-536454048D01*
X179125478Y-536505568D01*
X179282003Y-536589233D01*
X179317741Y-536618563D01*
X179419198Y-536701825D01*
X179502460Y-536803282D01*
X179531790Y-536839020D01*
X179615455Y-536995545D01*
X179666975Y-537165384D01*
X179684371Y-537342011D01*
X179666975Y-537518638D01*
X179615455Y-537688477D01*
X179531790Y-537845002D01*
X179502460Y-537880740D01*
X179419198Y-537982197D01*
X179317741Y-538065459D01*
X179282003Y-538094789D01*
X179125478Y-538178454D01*
X178955639Y-538229974D01*
X178889455Y-538236492D01*
X178823272Y-538243011D01*
X178734752Y-538243011D01*
X178668569Y-538236492D01*
X178602385Y-538229974D01*
X178432546Y-538178454D01*
X178276021Y-538094789D01*
X178240283Y-538065459D01*
X178138826Y-537982197D01*
X178055564Y-537880740D01*
X178026234Y-537845002D01*
X177942569Y-537688477D01*
X177891049Y-537518638D01*
X177873653Y-537342011D01*
X177891049Y-537165384D01*
X177942569Y-536995545D01*
X178026234Y-536839020D01*
X178055564Y-536803282D01*
X178138826Y-536701825D01*
X178240283Y-536618563D01*
X178276021Y-536589233D01*
X178432546Y-536505568D01*
X178602385Y-536454048D01*
X178668570Y-536447529D01*
X178734752Y-536441011D01*
X178823272Y-536441011D01*
X178889454Y-536447529D01*
X178889454Y-536447529D01*
G37*
G36*
X194904610Y-533849125D02*
G01*
X195054435Y-533878927D01*
X195336699Y-533995844D01*
X195590730Y-534165582D01*
X195806766Y-534381618D01*
X195976504Y-534635649D01*
X196093421Y-534917913D01*
X196153025Y-535217563D01*
X196153025Y-535523083D01*
X196093421Y-535822733D01*
X195976504Y-536104997D01*
X195806766Y-536359028D01*
X195590730Y-536575064D01*
X195336699Y-536744802D01*
X195054435Y-536861719D01*
X194904610Y-536891521D01*
X194754786Y-536921323D01*
X194449264Y-536921323D01*
X194299440Y-536891521D01*
X194149615Y-536861719D01*
X193867351Y-536744802D01*
X193613320Y-536575064D01*
X193397284Y-536359028D01*
X193227546Y-536104997D01*
X193110629Y-535822733D01*
X193051025Y-535523083D01*
X193051025Y-535217563D01*
X193110629Y-534917913D01*
X193227546Y-534635649D01*
X193397284Y-534381618D01*
X193613320Y-534165582D01*
X193867351Y-533995844D01*
X194149615Y-533878927D01*
X194299440Y-533849125D01*
X194449264Y-533819323D01*
X194754786Y-533819323D01*
X194904610Y-533849125D01*
X194904610Y-533849125D01*
G37*
G36*
X192653025Y-536671323D02*
G01*
X190001025Y-536671323D01*
X190001025Y-534069323D01*
X192653025Y-534069323D01*
X192653025Y-536671323D01*
X192653025Y-536671323D01*
G37*
G36*
X239414610Y-533089124D02*
G01*
X239564435Y-533118926D01*
X239846699Y-533235843D01*
X240100730Y-533405581D01*
X240316766Y-533621617D01*
X240486504Y-533875648D01*
X240603421Y-534157912D01*
X240604947Y-534165583D01*
X240663025Y-534457561D01*
X240663025Y-534763083D01*
X240633223Y-534912907D01*
X240603421Y-535062732D01*
X240486504Y-535344996D01*
X240316766Y-535599027D01*
X240100730Y-535815063D01*
X239846699Y-535984801D01*
X239564435Y-536101718D01*
X239414610Y-536131520D01*
X239264786Y-536161322D01*
X238959264Y-536161322D01*
X238809440Y-536131520D01*
X238659615Y-536101718D01*
X238377351Y-535984801D01*
X238123320Y-535815063D01*
X237907284Y-535599027D01*
X237737546Y-535344996D01*
X237620629Y-535062732D01*
X237590827Y-534912907D01*
X237561025Y-534763083D01*
X237561025Y-534457561D01*
X237619103Y-534165583D01*
X237620629Y-534157912D01*
X237737546Y-533875648D01*
X237907284Y-533621617D01*
X238123320Y-533405581D01*
X238377351Y-533235843D01*
X238659615Y-533118926D01*
X238809440Y-533089124D01*
X238959264Y-533059322D01*
X239264786Y-533059322D01*
X239414610Y-533089124D01*
X239414610Y-533089124D01*
G37*
G36*
X244238025Y-535911322D02*
G01*
X241586025Y-535911322D01*
X241586025Y-533309322D01*
X244238025Y-533309322D01*
X244238025Y-535911322D01*
X244238025Y-535911322D01*
G37*
G36*
X232114610Y-531739124D02*
G01*
X232264435Y-531768926D01*
X232546699Y-531885843D01*
X232800730Y-532055581D01*
X233016766Y-532271617D01*
X233186504Y-532525648D01*
X233303421Y-532807912D01*
X233303421Y-532807913D01*
X233353430Y-533059322D01*
X233363025Y-533107562D01*
X233363025Y-533413082D01*
X233303421Y-533712732D01*
X233186504Y-533994996D01*
X233016766Y-534249027D01*
X232800730Y-534465063D01*
X232546699Y-534634801D01*
X232264435Y-534751718D01*
X232207304Y-534763082D01*
X231964786Y-534811322D01*
X231659264Y-534811322D01*
X231416746Y-534763082D01*
X231359615Y-534751718D01*
X231077351Y-534634801D01*
X230823320Y-534465063D01*
X230607284Y-534249027D01*
X230437546Y-533994996D01*
X230320629Y-533712732D01*
X230261025Y-533413082D01*
X230261025Y-533107562D01*
X230270621Y-533059322D01*
X230320629Y-532807913D01*
X230320629Y-532807912D01*
X230437546Y-532525648D01*
X230607284Y-532271617D01*
X230823320Y-532055581D01*
X231077351Y-531885843D01*
X231359615Y-531768926D01*
X231509440Y-531739124D01*
X231659264Y-531709322D01*
X231964786Y-531709322D01*
X232114610Y-531739124D01*
X232114610Y-531739124D01*
G37*
G36*
X201254610Y-531309125D02*
G01*
X201404435Y-531338927D01*
X201686699Y-531455844D01*
X201940730Y-531625582D01*
X202156766Y-531841618D01*
X202326504Y-532095649D01*
X202443421Y-532377913D01*
X202503025Y-532677563D01*
X202503025Y-532983083D01*
X202443421Y-533282733D01*
X202326504Y-533564997D01*
X202156766Y-533819028D01*
X201940730Y-534035064D01*
X201686699Y-534204802D01*
X201404435Y-534321719D01*
X201254610Y-534351521D01*
X201104786Y-534381323D01*
X200799264Y-534381323D01*
X200649440Y-534351521D01*
X200499615Y-534321719D01*
X200217351Y-534204802D01*
X199963320Y-534035064D01*
X199747284Y-533819028D01*
X199577546Y-533564997D01*
X199460629Y-533282733D01*
X199401025Y-532983083D01*
X199401025Y-532677563D01*
X199460629Y-532377913D01*
X199577546Y-532095649D01*
X199747284Y-531841618D01*
X199963320Y-531625582D01*
X200217351Y-531455844D01*
X200499615Y-531338927D01*
X200649440Y-531309125D01*
X200799264Y-531279323D01*
X201104786Y-531279323D01*
X201254610Y-531309125D01*
X201254610Y-531309125D01*
G37*
G36*
X229363025Y-534311322D02*
G01*
X227261025Y-534311322D01*
X227261025Y-532209322D01*
X229363025Y-532209322D01*
X229363025Y-534311322D01*
X229363025Y-534311322D01*
G37*
G36*
X205580025Y-534131323D02*
G01*
X202928025Y-534131323D01*
X202928025Y-531529323D01*
X205580025Y-531529323D01*
X205580025Y-534131323D01*
X205580025Y-534131323D01*
G37*
G36*
X258464610Y-529089124D02*
G01*
X258614435Y-529118926D01*
X258896699Y-529235843D01*
X259150730Y-529405581D01*
X259366766Y-529621617D01*
X259536504Y-529875648D01*
X259621362Y-530080515D01*
X259653421Y-530157913D01*
X259713025Y-530457561D01*
X259713025Y-530763083D01*
X259702685Y-530815063D01*
X259653421Y-531062732D01*
X259536504Y-531344996D01*
X259366766Y-531599027D01*
X259150730Y-531815063D01*
X258896699Y-531984801D01*
X258614435Y-532101718D01*
X258464610Y-532131520D01*
X258314786Y-532161322D01*
X258009264Y-532161322D01*
X257859440Y-532131520D01*
X257709615Y-532101718D01*
X257427351Y-531984801D01*
X257173320Y-531815063D01*
X256957284Y-531599027D01*
X256787546Y-531344996D01*
X256670629Y-531062732D01*
X256621365Y-530815063D01*
X256611025Y-530763083D01*
X256611025Y-530457561D01*
X256670629Y-530157913D01*
X256702688Y-530080515D01*
X256787546Y-529875648D01*
X256957284Y-529621617D01*
X257173320Y-529405581D01*
X257427351Y-529235843D01*
X257709615Y-529118926D01*
X257859440Y-529089124D01*
X258009264Y-529059322D01*
X258314786Y-529059322D01*
X258464610Y-529089124D01*
X258464610Y-529089124D01*
G37*
G36*
X263288025Y-531911322D02*
G01*
X260636025Y-531911322D01*
X260636025Y-529309322D01*
X263288025Y-529309322D01*
X263288025Y-531911322D01*
X263288025Y-531911322D01*
G37*
G36*
X237263416Y-526383316D02*
G01*
X237457600Y-526463750D01*
X237732217Y-526577500D01*
X238154129Y-526859412D01*
X238512935Y-527218218D01*
X238794847Y-527640130D01*
X238817492Y-527694801D01*
X238989031Y-528108931D01*
X239021076Y-528270031D01*
X239088025Y-528606607D01*
X239088025Y-529114037D01*
X239051244Y-529298947D01*
X238989031Y-529611713D01*
X238931445Y-529750737D01*
X238794847Y-530080514D01*
X238512935Y-530502426D01*
X238154129Y-530861232D01*
X237732217Y-531143144D01*
X237457600Y-531256894D01*
X237263416Y-531337328D01*
X236765740Y-531436322D01*
X236258310Y-531436322D01*
X235760634Y-531337328D01*
X235566450Y-531256894D01*
X235291833Y-531143144D01*
X234869921Y-530861232D01*
X234511115Y-530502426D01*
X234229203Y-530080514D01*
X234092605Y-529750737D01*
X234035019Y-529611713D01*
X233972806Y-529298947D01*
X233936025Y-529114037D01*
X233936025Y-528606607D01*
X234002974Y-528270031D01*
X234035019Y-528108931D01*
X234206558Y-527694801D01*
X234229203Y-527640130D01*
X234511115Y-527218218D01*
X234869921Y-526859412D01*
X235291833Y-526577500D01*
X235566450Y-526463750D01*
X235760634Y-526383316D01*
X236258310Y-526284322D01*
X236765740Y-526284322D01*
X237263416Y-526383316D01*
X237263416Y-526383316D01*
G37*
G36*
X220364610Y-528089125D02*
G01*
X220514435Y-528118927D01*
X220796699Y-528235844D01*
X221050730Y-528405582D01*
X221266766Y-528621618D01*
X221436504Y-528875649D01*
X221553421Y-529157913D01*
X221553421Y-529157914D01*
X221613025Y-529457562D01*
X221613025Y-529763084D01*
X221590634Y-529875650D01*
X221553421Y-530062733D01*
X221436504Y-530344997D01*
X221266766Y-530599028D01*
X221050730Y-530815064D01*
X220796699Y-530984802D01*
X220514435Y-531101719D01*
X220364610Y-531131521D01*
X220214786Y-531161323D01*
X219909264Y-531161323D01*
X219759440Y-531131521D01*
X219609615Y-531101719D01*
X219327351Y-530984802D01*
X219073320Y-530815064D01*
X218857284Y-530599028D01*
X218687546Y-530344997D01*
X218570629Y-530062733D01*
X218533416Y-529875650D01*
X218511025Y-529763084D01*
X218511025Y-529457562D01*
X218570629Y-529157914D01*
X218570629Y-529157913D01*
X218687546Y-528875649D01*
X218857284Y-528621618D01*
X219073320Y-528405582D01*
X219327351Y-528235844D01*
X219609615Y-528118927D01*
X219759440Y-528089125D01*
X219909264Y-528059323D01*
X220214786Y-528059323D01*
X220364610Y-528089125D01*
X220364610Y-528089125D01*
G37*
G36*
X225188025Y-530911323D02*
G01*
X222536025Y-530911323D01*
X222536025Y-528309323D01*
X225188025Y-528309323D01*
X225188025Y-530911323D01*
X225188025Y-530911323D01*
G37*
G36*
X251164610Y-527739124D02*
G01*
X251314435Y-527768926D01*
X251596699Y-527885843D01*
X251850730Y-528055581D01*
X252066766Y-528271617D01*
X252236504Y-528525648D01*
X252337352Y-528769119D01*
X252353421Y-528807913D01*
X252413025Y-529107561D01*
X252413025Y-529413083D01*
X252404177Y-529457563D01*
X252353421Y-529712732D01*
X252236504Y-529994996D01*
X252066766Y-530249027D01*
X251850730Y-530465063D01*
X251596699Y-530634801D01*
X251314435Y-530751718D01*
X251257304Y-530763082D01*
X251014786Y-530811322D01*
X250709264Y-530811322D01*
X250466746Y-530763082D01*
X250409615Y-530751718D01*
X250127351Y-530634801D01*
X249873320Y-530465063D01*
X249657284Y-530249027D01*
X249487546Y-529994996D01*
X249370629Y-529712732D01*
X249319873Y-529457563D01*
X249311025Y-529413083D01*
X249311025Y-529107561D01*
X249370629Y-528807913D01*
X249386698Y-528769119D01*
X249487546Y-528525648D01*
X249657284Y-528271617D01*
X249873320Y-528055581D01*
X250127351Y-527885843D01*
X250409615Y-527768926D01*
X250559440Y-527739124D01*
X250709264Y-527709322D01*
X251014786Y-527709322D01*
X251164610Y-527739124D01*
X251164610Y-527739124D01*
G37*
G36*
X248413025Y-530311322D02*
G01*
X246311025Y-530311322D01*
X246311025Y-528209322D01*
X248413025Y-528209322D01*
X248413025Y-530311322D01*
X248413025Y-530311322D01*
G37*
G36*
X213064610Y-526739125D02*
G01*
X213214435Y-526768927D01*
X213496699Y-526885844D01*
X213750730Y-527055582D01*
X213966766Y-527271618D01*
X214136504Y-527525649D01*
X214212583Y-527709322D01*
X214253421Y-527807914D01*
X214313025Y-528107562D01*
X214313025Y-528413084D01*
X214290634Y-528525650D01*
X214253421Y-528712733D01*
X214136504Y-528994997D01*
X213966766Y-529249028D01*
X213750730Y-529465064D01*
X213496699Y-529634802D01*
X213214435Y-529751719D01*
X213157304Y-529763083D01*
X212914786Y-529811323D01*
X212609264Y-529811323D01*
X212366746Y-529763083D01*
X212309615Y-529751719D01*
X212027351Y-529634802D01*
X211773320Y-529465064D01*
X211557284Y-529249028D01*
X211387546Y-528994997D01*
X211270629Y-528712733D01*
X211233416Y-528525650D01*
X211211025Y-528413084D01*
X211211025Y-528107562D01*
X211270629Y-527807914D01*
X211311467Y-527709322D01*
X211387546Y-527525649D01*
X211557284Y-527271618D01*
X211773320Y-527055582D01*
X212027351Y-526885844D01*
X212309615Y-526768927D01*
X212459440Y-526739125D01*
X212609264Y-526709323D01*
X212914786Y-526709323D01*
X213064610Y-526739125D01*
X213064610Y-526739125D01*
G37*
G36*
X231702129Y-527969907D02*
G01*
X231870651Y-528039711D01*
X232022316Y-528141050D01*
X232151297Y-528270031D01*
X232252636Y-528421696D01*
X232322440Y-528590218D01*
X232358025Y-528769119D01*
X232358025Y-528951525D01*
X232322440Y-529130426D01*
X232252636Y-529298948D01*
X232151297Y-529450613D01*
X232022316Y-529579594D01*
X231870651Y-529680933D01*
X231702129Y-529750737D01*
X231523228Y-529786322D01*
X231340822Y-529786322D01*
X231161921Y-529750737D01*
X230993399Y-529680933D01*
X230841734Y-529579594D01*
X230712753Y-529450613D01*
X230611414Y-529298948D01*
X230541610Y-529130426D01*
X230506025Y-528951525D01*
X230506025Y-528769119D01*
X230541610Y-528590218D01*
X230611414Y-528421696D01*
X230712753Y-528270031D01*
X230841734Y-528141050D01*
X230993399Y-528039711D01*
X231161921Y-527969907D01*
X231340822Y-527934322D01*
X231523228Y-527934322D01*
X231702129Y-527969907D01*
X231702129Y-527969907D01*
G37*
G36*
X241862129Y-527969907D02*
G01*
X242030651Y-528039711D01*
X242182316Y-528141050D01*
X242311297Y-528270031D01*
X242412636Y-528421696D01*
X242482440Y-528590218D01*
X242518025Y-528769119D01*
X242518025Y-528951525D01*
X242482440Y-529130426D01*
X242412636Y-529298948D01*
X242311297Y-529450613D01*
X242182316Y-529579594D01*
X242030651Y-529680933D01*
X241862129Y-529750737D01*
X241683228Y-529786322D01*
X241500822Y-529786322D01*
X241321921Y-529750737D01*
X241153399Y-529680933D01*
X241001734Y-529579594D01*
X240872753Y-529450613D01*
X240771414Y-529298948D01*
X240701610Y-529130426D01*
X240666025Y-528951525D01*
X240666025Y-528769119D01*
X240701610Y-528590218D01*
X240771414Y-528421696D01*
X240872753Y-528270031D01*
X241001734Y-528141050D01*
X241153399Y-528039711D01*
X241321921Y-527969907D01*
X241500822Y-527934322D01*
X241683228Y-527934322D01*
X241862129Y-527969907D01*
X241862129Y-527969907D01*
G37*
G36*
X210313025Y-529311323D02*
G01*
X208211025Y-529311323D01*
X208211025Y-527209323D01*
X210313025Y-527209323D01*
X210313025Y-529311323D01*
X210313025Y-529311323D01*
G37*
G36*
X232940255Y-524786323D02*
G01*
X233154435Y-524828926D01*
X233436699Y-524945843D01*
X233690730Y-525115581D01*
X233906766Y-525331617D01*
X234076504Y-525585648D01*
X234193421Y-525867912D01*
X234253025Y-526167562D01*
X234253025Y-526473082D01*
X234193421Y-526772732D01*
X234076504Y-527054996D01*
X233906766Y-527309027D01*
X233690730Y-527525063D01*
X233436699Y-527694801D01*
X233154435Y-527811718D01*
X233004610Y-527841520D01*
X232854786Y-527871322D01*
X232549264Y-527871322D01*
X232399440Y-527841520D01*
X232249615Y-527811718D01*
X231967351Y-527694801D01*
X231713320Y-527525063D01*
X231497284Y-527309027D01*
X231327546Y-527054996D01*
X231210629Y-526772732D01*
X231151025Y-526473082D01*
X231151025Y-526167562D01*
X231210629Y-525867912D01*
X231327546Y-525585648D01*
X231497284Y-525331617D01*
X231713320Y-525115581D01*
X231967351Y-524945843D01*
X232249615Y-524828926D01*
X232463795Y-524786323D01*
X232549264Y-524769322D01*
X232854786Y-524769322D01*
X232940255Y-524786323D01*
X232940255Y-524786323D01*
G37*
G36*
X230753025Y-527621322D02*
G01*
X228101025Y-527621322D01*
X228101025Y-525019322D01*
X230753025Y-525019322D01*
X230753025Y-527621322D01*
X230753025Y-527621322D01*
G37*
G36*
X255939940Y-522309027D02*
G01*
X256313416Y-522383316D01*
X256507600Y-522463750D01*
X256782217Y-522577500D01*
X257204129Y-522859412D01*
X257562935Y-523218218D01*
X257844847Y-523640130D01*
X257958597Y-523914747D01*
X258039031Y-524108931D01*
X258066898Y-524249026D01*
X258138025Y-524606607D01*
X258138025Y-525114037D01*
X258094745Y-525331618D01*
X258039031Y-525611713D01*
X257981445Y-525750737D01*
X257844847Y-526080514D01*
X257562935Y-526502426D01*
X257204129Y-526861232D01*
X256782217Y-527143144D01*
X256600972Y-527218218D01*
X256313416Y-527337328D01*
X255815740Y-527436322D01*
X255308310Y-527436322D01*
X254810634Y-527337328D01*
X254523078Y-527218218D01*
X254341833Y-527143144D01*
X253919921Y-526861232D01*
X253561115Y-526502426D01*
X253279203Y-526080514D01*
X253142605Y-525750737D01*
X253085019Y-525611713D01*
X253029305Y-525331618D01*
X252986025Y-525114037D01*
X252986025Y-524606607D01*
X253057152Y-524249026D01*
X253085019Y-524108931D01*
X253165453Y-523914747D01*
X253279203Y-523640130D01*
X253561115Y-523218218D01*
X253919921Y-522859412D01*
X254341833Y-522577500D01*
X254616450Y-522463750D01*
X254810634Y-522383316D01*
X255184110Y-522309027D01*
X255308310Y-522284322D01*
X255815740Y-522284322D01*
X255939940Y-522309027D01*
X255939940Y-522309027D01*
G37*
G36*
X217952019Y-521331322D02*
G01*
X218213416Y-521383317D01*
X218407600Y-521463751D01*
X218682217Y-521577501D01*
X219104129Y-521859413D01*
X219462935Y-522218219D01*
X219744847Y-522640131D01*
X219815921Y-522811719D01*
X219939031Y-523108932D01*
X220038025Y-523606609D01*
X220038025Y-524114037D01*
X219939031Y-524611714D01*
X219873831Y-524769119D01*
X219744847Y-525080515D01*
X219462935Y-525502427D01*
X219104129Y-525861233D01*
X218682217Y-526143145D01*
X218407600Y-526256895D01*
X218213416Y-526337329D01*
X217982223Y-526383316D01*
X217715740Y-526436323D01*
X217208310Y-526436323D01*
X216941827Y-526383316D01*
X216710634Y-526337329D01*
X216516450Y-526256895D01*
X216241833Y-526143145D01*
X215819921Y-525861233D01*
X215461115Y-525502427D01*
X215179203Y-525080515D01*
X215050219Y-524769119D01*
X214985019Y-524611714D01*
X214886025Y-524114037D01*
X214886025Y-523606609D01*
X214985019Y-523108932D01*
X215108129Y-522811719D01*
X215179203Y-522640131D01*
X215461115Y-522218219D01*
X215819921Y-521859413D01*
X216241833Y-521577501D01*
X216516450Y-521463751D01*
X216710634Y-521383317D01*
X216972031Y-521331322D01*
X217208310Y-521284323D01*
X217715740Y-521284323D01*
X217952019Y-521331322D01*
X217952019Y-521331322D01*
G37*
G36*
X201314610Y-523089124D02*
G01*
X201464435Y-523118926D01*
X201746699Y-523235843D01*
X202000730Y-523405581D01*
X202216766Y-523621617D01*
X202386504Y-523875648D01*
X202496437Y-524141051D01*
X202503421Y-524157913D01*
X202563025Y-524457561D01*
X202563025Y-524763083D01*
X202549928Y-524828926D01*
X202503421Y-525062732D01*
X202386504Y-525344996D01*
X202216766Y-525599027D01*
X202000730Y-525815063D01*
X201746699Y-525984801D01*
X201464435Y-526101718D01*
X201314610Y-526131520D01*
X201164786Y-526161322D01*
X200859264Y-526161322D01*
X200709440Y-526131520D01*
X200559615Y-526101718D01*
X200277351Y-525984801D01*
X200023320Y-525815063D01*
X199807284Y-525599027D01*
X199637546Y-525344996D01*
X199520629Y-525062732D01*
X199474122Y-524828926D01*
X199461025Y-524763083D01*
X199461025Y-524457561D01*
X199520629Y-524157913D01*
X199527613Y-524141051D01*
X199637546Y-523875648D01*
X199807284Y-523621617D01*
X200023320Y-523405581D01*
X200277351Y-523235843D01*
X200559615Y-523118926D01*
X200709440Y-523089124D01*
X200859264Y-523059322D01*
X201164786Y-523059322D01*
X201314610Y-523089124D01*
X201314610Y-523089124D01*
G37*
G36*
X206138025Y-525911322D02*
G01*
X203486025Y-525911322D01*
X203486025Y-523309322D01*
X206138025Y-523309322D01*
X206138025Y-525911322D01*
X206138025Y-525911322D01*
G37*
G36*
X260912129Y-523969907D02*
G01*
X261080651Y-524039711D01*
X261232316Y-524141050D01*
X261361297Y-524270031D01*
X261462636Y-524421696D01*
X261532440Y-524590218D01*
X261568025Y-524769119D01*
X261568025Y-524951525D01*
X261532440Y-525130426D01*
X261462636Y-525298948D01*
X261361297Y-525450613D01*
X261232316Y-525579594D01*
X261080651Y-525680933D01*
X260912129Y-525750737D01*
X260733228Y-525786322D01*
X260550822Y-525786322D01*
X260371921Y-525750737D01*
X260203399Y-525680933D01*
X260051734Y-525579594D01*
X259922753Y-525450613D01*
X259821414Y-525298948D01*
X259751610Y-525130426D01*
X259716025Y-524951525D01*
X259716025Y-524769119D01*
X259751610Y-524590218D01*
X259821414Y-524421696D01*
X259922753Y-524270031D01*
X260051734Y-524141050D01*
X260203399Y-524039711D01*
X260371921Y-523969907D01*
X260550822Y-523934322D01*
X260733228Y-523934322D01*
X260912129Y-523969907D01*
X260912129Y-523969907D01*
G37*
G36*
X250752129Y-523969907D02*
G01*
X250920651Y-524039711D01*
X251072316Y-524141050D01*
X251201297Y-524270031D01*
X251302636Y-524421696D01*
X251372440Y-524590218D01*
X251408025Y-524769119D01*
X251408025Y-524951525D01*
X251372440Y-525130426D01*
X251302636Y-525298948D01*
X251201297Y-525450613D01*
X251072316Y-525579594D01*
X250920651Y-525680933D01*
X250752129Y-525750737D01*
X250573228Y-525786322D01*
X250390822Y-525786322D01*
X250211921Y-525750737D01*
X250043399Y-525680933D01*
X249891734Y-525579594D01*
X249762753Y-525450613D01*
X249661414Y-525298948D01*
X249591610Y-525130426D01*
X249556025Y-524951525D01*
X249556025Y-524769119D01*
X249591610Y-524590218D01*
X249661414Y-524421696D01*
X249762753Y-524270031D01*
X249891734Y-524141050D01*
X250043399Y-524039711D01*
X250211921Y-523969907D01*
X250390822Y-523934322D01*
X250573228Y-523934322D01*
X250752129Y-523969907D01*
X250752129Y-523969907D01*
G37*
G36*
X239354610Y-522259124D02*
G01*
X239504435Y-522288926D01*
X239786699Y-522405843D01*
X240040730Y-522575581D01*
X240256766Y-522791617D01*
X240426504Y-523045648D01*
X240543421Y-523327912D01*
X240562076Y-523421697D01*
X240603025Y-523627561D01*
X240603025Y-523933083D01*
X240599356Y-523951526D01*
X240543421Y-524232732D01*
X240426504Y-524514996D01*
X240256766Y-524769027D01*
X240040730Y-524985063D01*
X239786699Y-525154801D01*
X239504435Y-525271718D01*
X239367545Y-525298947D01*
X239204786Y-525331322D01*
X238899264Y-525331322D01*
X238736505Y-525298947D01*
X238599615Y-525271718D01*
X238317351Y-525154801D01*
X238063320Y-524985063D01*
X237847284Y-524769027D01*
X237677546Y-524514996D01*
X237560629Y-524232732D01*
X237504694Y-523951526D01*
X237501025Y-523933083D01*
X237501025Y-523627561D01*
X237541974Y-523421697D01*
X237560629Y-523327912D01*
X237677546Y-523045648D01*
X237847284Y-522791617D01*
X238063320Y-522575581D01*
X238317351Y-522405843D01*
X238599615Y-522288926D01*
X238749440Y-522259124D01*
X238899264Y-522229322D01*
X239204786Y-522229322D01*
X239354610Y-522259124D01*
X239354610Y-522259124D01*
G37*
G36*
X243680025Y-525081322D02*
G01*
X241028025Y-525081322D01*
X241028025Y-522479322D01*
X243680025Y-522479322D01*
X243680025Y-525081322D01*
X243680025Y-525081322D01*
G37*
G36*
X194014610Y-521739124D02*
G01*
X194164435Y-521768926D01*
X194446699Y-521885843D01*
X194700730Y-522055581D01*
X194916766Y-522271617D01*
X195086504Y-522525648D01*
X195203421Y-522807912D01*
X195203421Y-522807913D01*
X195263025Y-523107561D01*
X195263025Y-523413083D01*
X195261311Y-523421698D01*
X195203421Y-523712732D01*
X195086504Y-523994996D01*
X194916766Y-524249027D01*
X194700730Y-524465063D01*
X194446699Y-524634801D01*
X194164435Y-524751718D01*
X194014610Y-524781520D01*
X193864786Y-524811322D01*
X193559264Y-524811322D01*
X193409440Y-524781520D01*
X193259615Y-524751718D01*
X192977351Y-524634801D01*
X192723320Y-524465063D01*
X192507284Y-524249027D01*
X192337546Y-523994996D01*
X192220629Y-523712732D01*
X192162739Y-523421698D01*
X192161025Y-523413083D01*
X192161025Y-523107561D01*
X192220629Y-522807913D01*
X192220629Y-522807912D01*
X192337546Y-522525648D01*
X192507284Y-522271617D01*
X192723320Y-522055581D01*
X192977351Y-521885843D01*
X193259615Y-521768926D01*
X193409440Y-521739124D01*
X193559264Y-521709322D01*
X193864786Y-521709322D01*
X194014610Y-521739124D01*
X194014610Y-521739124D01*
G37*
G36*
X222812129Y-522969908D02*
G01*
X222980651Y-523039712D01*
X223132316Y-523141051D01*
X223261297Y-523270032D01*
X223362636Y-523421697D01*
X223432440Y-523590219D01*
X223468025Y-523769120D01*
X223468025Y-523951526D01*
X223432440Y-524130427D01*
X223362636Y-524298949D01*
X223261297Y-524450614D01*
X223132316Y-524579595D01*
X222980651Y-524680934D01*
X222812129Y-524750738D01*
X222633228Y-524786323D01*
X222450822Y-524786323D01*
X222271921Y-524750738D01*
X222103399Y-524680934D01*
X221951734Y-524579595D01*
X221822753Y-524450614D01*
X221721414Y-524298949D01*
X221651610Y-524130427D01*
X221616025Y-523951526D01*
X221616025Y-523769120D01*
X221651610Y-523590219D01*
X221721414Y-523421697D01*
X221822753Y-523270032D01*
X221951734Y-523141051D01*
X222103399Y-523039712D01*
X222271921Y-522969908D01*
X222450822Y-522934323D01*
X222633228Y-522934323D01*
X222812129Y-522969908D01*
X222812129Y-522969908D01*
G37*
G36*
X212652129Y-522969908D02*
G01*
X212820651Y-523039712D01*
X212972316Y-523141051D01*
X213101297Y-523270032D01*
X213202636Y-523421697D01*
X213272440Y-523590219D01*
X213308025Y-523769120D01*
X213308025Y-523951526D01*
X213272440Y-524130427D01*
X213202636Y-524298949D01*
X213101297Y-524450614D01*
X212972316Y-524579595D01*
X212820651Y-524680934D01*
X212652129Y-524750738D01*
X212473228Y-524786323D01*
X212290822Y-524786323D01*
X212111921Y-524750738D01*
X211943399Y-524680934D01*
X211791734Y-524579595D01*
X211662753Y-524450614D01*
X211561414Y-524298949D01*
X211491610Y-524130427D01*
X211456025Y-523951526D01*
X211456025Y-523769120D01*
X211491610Y-523590219D01*
X211561414Y-523421697D01*
X211662753Y-523270032D01*
X211791734Y-523141051D01*
X211943399Y-523039712D01*
X212111921Y-522969908D01*
X212290822Y-522934323D01*
X212473228Y-522934323D01*
X212652129Y-522969908D01*
X212652129Y-522969908D01*
G37*
G36*
X191263025Y-524311322D02*
G01*
X189161025Y-524311322D01*
X189161025Y-522209322D01*
X191263025Y-522209322D01*
X191263025Y-524311322D01*
X191263025Y-524311322D01*
G37*
G36*
X252054610Y-520799124D02*
G01*
X252204435Y-520828926D01*
X252486699Y-520945843D01*
X252740730Y-521115581D01*
X252956766Y-521331617D01*
X253126504Y-521585648D01*
X253243421Y-521867912D01*
X253243421Y-521867913D01*
X253280635Y-522054997D01*
X253303025Y-522167562D01*
X253303025Y-522473082D01*
X253243421Y-522772732D01*
X253126504Y-523054996D01*
X252956766Y-523309027D01*
X252740730Y-523525063D01*
X252486699Y-523694801D01*
X252204435Y-523811718D01*
X252054610Y-523841520D01*
X251904786Y-523871322D01*
X251599264Y-523871322D01*
X251449440Y-523841520D01*
X251299615Y-523811718D01*
X251017351Y-523694801D01*
X250763320Y-523525063D01*
X250547284Y-523309027D01*
X250377546Y-523054996D01*
X250260629Y-522772732D01*
X250201025Y-522473082D01*
X250201025Y-522167562D01*
X250223416Y-522054997D01*
X250260629Y-521867913D01*
X250260629Y-521867912D01*
X250377546Y-521585648D01*
X250547284Y-521331617D01*
X250763320Y-521115581D01*
X251017351Y-520945843D01*
X251299615Y-520828926D01*
X251449440Y-520799124D01*
X251599264Y-520769322D01*
X251904786Y-520769322D01*
X252054610Y-520799124D01*
X252054610Y-520799124D01*
G37*
G36*
X249803025Y-523621322D02*
G01*
X247151025Y-523621322D01*
X247151025Y-521019322D01*
X249803025Y-521019322D01*
X249803025Y-523621322D01*
X249803025Y-523621322D01*
G37*
G36*
X213890245Y-519786322D02*
G01*
X214104435Y-519828927D01*
X214386699Y-519945844D01*
X214640730Y-520115582D01*
X214856766Y-520331618D01*
X215026504Y-520585649D01*
X215143421Y-520867913D01*
X215143421Y-520867914D01*
X215203025Y-521167562D01*
X215203025Y-521473084D01*
X215180634Y-521585650D01*
X215143421Y-521772733D01*
X215026504Y-522054997D01*
X214856766Y-522309028D01*
X214640730Y-522525064D01*
X214386699Y-522694802D01*
X214104435Y-522811719D01*
X213954610Y-522841521D01*
X213804786Y-522871323D01*
X213499264Y-522871323D01*
X213349440Y-522841521D01*
X213199615Y-522811719D01*
X212917351Y-522694802D01*
X212663320Y-522525064D01*
X212447284Y-522309028D01*
X212277546Y-522054997D01*
X212160629Y-521772733D01*
X212123416Y-521585650D01*
X212101025Y-521473084D01*
X212101025Y-521167562D01*
X212160629Y-520867914D01*
X212160629Y-520867913D01*
X212277546Y-520585649D01*
X212447284Y-520331618D01*
X212663320Y-520115582D01*
X212917351Y-519945844D01*
X213199615Y-519828927D01*
X213413805Y-519786322D01*
X213499264Y-519769323D01*
X213804786Y-519769323D01*
X213890245Y-519786322D01*
X213890245Y-519786322D01*
G37*
G36*
X211703025Y-522621323D02*
G01*
X209051025Y-522621323D01*
X209051025Y-520019323D01*
X211703025Y-520019323D01*
X211703025Y-522621323D01*
X211703025Y-522621323D01*
G37*
G36*
X199163416Y-516383316D02*
G01*
X199357600Y-516463750D01*
X199632217Y-516577500D01*
X200054129Y-516859412D01*
X200412935Y-517218218D01*
X200694847Y-517640130D01*
X200784815Y-517857333D01*
X200862819Y-518045649D01*
X200889031Y-518108932D01*
X200988025Y-518606607D01*
X200988025Y-519114037D01*
X200971569Y-519196765D01*
X200889031Y-519611713D01*
X200816705Y-519786322D01*
X200694847Y-520080514D01*
X200412935Y-520502426D01*
X200054129Y-520861232D01*
X199632217Y-521143144D01*
X199357600Y-521256894D01*
X199163416Y-521337328D01*
X198932213Y-521383317D01*
X198665740Y-521436322D01*
X198158310Y-521436322D01*
X197891837Y-521383317D01*
X197660634Y-521337328D01*
X197466450Y-521256894D01*
X197191833Y-521143144D01*
X196769921Y-520861232D01*
X196411115Y-520502426D01*
X196129203Y-520080514D01*
X196007345Y-519786322D01*
X195935019Y-519611713D01*
X195852481Y-519196765D01*
X195836025Y-519114037D01*
X195836025Y-518606607D01*
X195935019Y-518108932D01*
X195961232Y-518045649D01*
X196039235Y-517857333D01*
X196129203Y-517640130D01*
X196411115Y-517218218D01*
X196769921Y-516859412D01*
X197191833Y-516577500D01*
X197466450Y-516463750D01*
X197660634Y-516383316D01*
X198158310Y-516284322D01*
X198665740Y-516284322D01*
X199163416Y-516383316D01*
X199163416Y-516383316D01*
G37*
G36*
X258404610Y-518259124D02*
G01*
X258554435Y-518288926D01*
X258836699Y-518405843D01*
X259090730Y-518575581D01*
X259306766Y-518791617D01*
X259476504Y-519045648D01*
X259593421Y-519327912D01*
X259617828Y-519450613D01*
X259653025Y-519627561D01*
X259653025Y-519933083D01*
X259642685Y-519985063D01*
X259593421Y-520232732D01*
X259476504Y-520514996D01*
X259306766Y-520769027D01*
X259090730Y-520985063D01*
X258836699Y-521154801D01*
X258554435Y-521271718D01*
X258491065Y-521284323D01*
X258254786Y-521331322D01*
X257949264Y-521331322D01*
X257712985Y-521284323D01*
X257649615Y-521271718D01*
X257367351Y-521154801D01*
X257113320Y-520985063D01*
X256897284Y-520769027D01*
X256727546Y-520514996D01*
X256610629Y-520232732D01*
X256561365Y-519985063D01*
X256551025Y-519933083D01*
X256551025Y-519627561D01*
X256586222Y-519450613D01*
X256610629Y-519327912D01*
X256727546Y-519045648D01*
X256897284Y-518791617D01*
X257113320Y-518575581D01*
X257367351Y-518405843D01*
X257649615Y-518288926D01*
X257799440Y-518259124D01*
X257949264Y-518229322D01*
X258254786Y-518229322D01*
X258404610Y-518259124D01*
X258404610Y-518259124D01*
G37*
G36*
X262730025Y-521081322D02*
G01*
X260078025Y-521081322D01*
X260078025Y-518479322D01*
X262730025Y-518479322D01*
X262730025Y-521081322D01*
X262730025Y-521081322D01*
G37*
G36*
X220304610Y-517259125D02*
G01*
X220454435Y-517288927D01*
X220736699Y-517405844D01*
X220990730Y-517575582D01*
X221206766Y-517791618D01*
X221376504Y-518045649D01*
X221493421Y-518327913D01*
X221512076Y-518421697D01*
X221553025Y-518627562D01*
X221553025Y-518933084D01*
X221530634Y-519045650D01*
X221493421Y-519232733D01*
X221376504Y-519514997D01*
X221206766Y-519769028D01*
X220990730Y-519985064D01*
X220736699Y-520154802D01*
X220454435Y-520271719D01*
X220304610Y-520301521D01*
X220154786Y-520331323D01*
X219849264Y-520331323D01*
X219699440Y-520301521D01*
X219549615Y-520271719D01*
X219267351Y-520154802D01*
X219013320Y-519985064D01*
X218797284Y-519769028D01*
X218627546Y-519514997D01*
X218510629Y-519232733D01*
X218473416Y-519045650D01*
X218451025Y-518933084D01*
X218451025Y-518627562D01*
X218491974Y-518421697D01*
X218510629Y-518327913D01*
X218627546Y-518045649D01*
X218797284Y-517791618D01*
X219013320Y-517575582D01*
X219267351Y-517405844D01*
X219549615Y-517288927D01*
X219699440Y-517259125D01*
X219849264Y-517229323D01*
X220154786Y-517229323D01*
X220304610Y-517259125D01*
X220304610Y-517259125D01*
G37*
G36*
X224630025Y-520081323D02*
G01*
X221978025Y-520081323D01*
X221978025Y-517479323D01*
X224630025Y-517479323D01*
X224630025Y-520081323D01*
X224630025Y-520081323D01*
G37*
G36*
X193602129Y-517969907D02*
G01*
X193770651Y-518039711D01*
X193922316Y-518141050D01*
X194051297Y-518270031D01*
X194152636Y-518421696D01*
X194222440Y-518590218D01*
X194258025Y-518769119D01*
X194258025Y-518951525D01*
X194222440Y-519130426D01*
X194152636Y-519298948D01*
X194051297Y-519450613D01*
X193922316Y-519579594D01*
X193770651Y-519680933D01*
X193602129Y-519750737D01*
X193423228Y-519786322D01*
X193240822Y-519786322D01*
X193061921Y-519750737D01*
X192893399Y-519680933D01*
X192741734Y-519579594D01*
X192612753Y-519450613D01*
X192511414Y-519298948D01*
X192441610Y-519130426D01*
X192406025Y-518951525D01*
X192406025Y-518769119D01*
X192441610Y-518590218D01*
X192511414Y-518421696D01*
X192612753Y-518270031D01*
X192741734Y-518141050D01*
X192893399Y-518039711D01*
X193061921Y-517969907D01*
X193240822Y-517934322D01*
X193423228Y-517934322D01*
X193602129Y-517969907D01*
X193602129Y-517969907D01*
G37*
G36*
X203762129Y-517969907D02*
G01*
X203930651Y-518039711D01*
X204082316Y-518141050D01*
X204211297Y-518270031D01*
X204312636Y-518421696D01*
X204382440Y-518590218D01*
X204418025Y-518769119D01*
X204418025Y-518951525D01*
X204382440Y-519130426D01*
X204312636Y-519298948D01*
X204211297Y-519450613D01*
X204082316Y-519579594D01*
X203930651Y-519680933D01*
X203762129Y-519750737D01*
X203583228Y-519786322D01*
X203400822Y-519786322D01*
X203221921Y-519750737D01*
X203053399Y-519680933D01*
X202901734Y-519579594D01*
X202772753Y-519450613D01*
X202671414Y-519298948D01*
X202601610Y-519130426D01*
X202566025Y-518951525D01*
X202566025Y-518769119D01*
X202601610Y-518590218D01*
X202671414Y-518421696D01*
X202772753Y-518270031D01*
X202901734Y-518141050D01*
X203053399Y-518039711D01*
X203221921Y-517969907D01*
X203400822Y-517934322D01*
X203583228Y-517934322D01*
X203762129Y-517969907D01*
X203762129Y-517969907D01*
G37*
G36*
X176613025Y-519261322D02*
G01*
X174811025Y-519261322D01*
X174811025Y-517459322D01*
X176613025Y-517459322D01*
X176613025Y-519261322D01*
X176613025Y-519261322D01*
G37*
G36*
X178362468Y-517465841D02*
G01*
X178428652Y-517472359D01*
X178598491Y-517523879D01*
X178755016Y-517607544D01*
X178771804Y-517621322D01*
X178892211Y-517720136D01*
X178967369Y-517811718D01*
X179004803Y-517857331D01*
X179088468Y-518013856D01*
X179139988Y-518183695D01*
X179157384Y-518360322D01*
X179139988Y-518536949D01*
X179088468Y-518706788D01*
X179004803Y-518863313D01*
X178975473Y-518899051D01*
X178892211Y-519000508D01*
X178790754Y-519083770D01*
X178755016Y-519113100D01*
X178598491Y-519196765D01*
X178428652Y-519248285D01*
X178362468Y-519254803D01*
X178296285Y-519261322D01*
X178207765Y-519261322D01*
X178141582Y-519254803D01*
X178075398Y-519248285D01*
X177905559Y-519196765D01*
X177749034Y-519113100D01*
X177713296Y-519083770D01*
X177611839Y-519000508D01*
X177528577Y-518899051D01*
X177499247Y-518863313D01*
X177415582Y-518706788D01*
X177364062Y-518536949D01*
X177346666Y-518360322D01*
X177364062Y-518183695D01*
X177415582Y-518013856D01*
X177499247Y-517857331D01*
X177536681Y-517811718D01*
X177611839Y-517720136D01*
X177732246Y-517621322D01*
X177749034Y-517607544D01*
X177905559Y-517523879D01*
X178075398Y-517472359D01*
X178141582Y-517465841D01*
X178207765Y-517459322D01*
X178296285Y-517459322D01*
X178362468Y-517465841D01*
X178362468Y-517465841D01*
G37*
G36*
X180902468Y-517465841D02*
G01*
X180968652Y-517472359D01*
X181138491Y-517523879D01*
X181295016Y-517607544D01*
X181311804Y-517621322D01*
X181432211Y-517720136D01*
X181507369Y-517811718D01*
X181544803Y-517857331D01*
X181628468Y-518013856D01*
X181679988Y-518183695D01*
X181697384Y-518360322D01*
X181679988Y-518536949D01*
X181628468Y-518706788D01*
X181544803Y-518863313D01*
X181515473Y-518899051D01*
X181432211Y-519000508D01*
X181330754Y-519083770D01*
X181295016Y-519113100D01*
X181138491Y-519196765D01*
X180968652Y-519248285D01*
X180902468Y-519254803D01*
X180836285Y-519261322D01*
X180747765Y-519261322D01*
X180681582Y-519254803D01*
X180615398Y-519248285D01*
X180445559Y-519196765D01*
X180289034Y-519113100D01*
X180253296Y-519083770D01*
X180151839Y-519000508D01*
X180068577Y-518899051D01*
X180039247Y-518863313D01*
X179955582Y-518706788D01*
X179904062Y-518536949D01*
X179886666Y-518360322D01*
X179904062Y-518183695D01*
X179955582Y-518013856D01*
X180039247Y-517857331D01*
X180076681Y-517811718D01*
X180151839Y-517720136D01*
X180272246Y-517621322D01*
X180289034Y-517607544D01*
X180445559Y-517523879D01*
X180615398Y-517472359D01*
X180681582Y-517465841D01*
X180747765Y-517459322D01*
X180836285Y-517459322D01*
X180902468Y-517465841D01*
X180902468Y-517465841D01*
G37*
G36*
X183442468Y-517465841D02*
G01*
X183508652Y-517472359D01*
X183678491Y-517523879D01*
X183835016Y-517607544D01*
X183851804Y-517621322D01*
X183972211Y-517720136D01*
X184047369Y-517811718D01*
X184084803Y-517857331D01*
X184168468Y-518013856D01*
X184219988Y-518183695D01*
X184237384Y-518360322D01*
X184219988Y-518536949D01*
X184168468Y-518706788D01*
X184084803Y-518863313D01*
X184055473Y-518899051D01*
X183972211Y-519000508D01*
X183870754Y-519083770D01*
X183835016Y-519113100D01*
X183678491Y-519196765D01*
X183508652Y-519248285D01*
X183442468Y-519254803D01*
X183376285Y-519261322D01*
X183287765Y-519261322D01*
X183221582Y-519254803D01*
X183155398Y-519248285D01*
X182985559Y-519196765D01*
X182829034Y-519113100D01*
X182793296Y-519083770D01*
X182691839Y-519000508D01*
X182608577Y-518899051D01*
X182579247Y-518863313D01*
X182495582Y-518706788D01*
X182444062Y-518536949D01*
X182426666Y-518360322D01*
X182444062Y-518183695D01*
X182495582Y-518013856D01*
X182579247Y-517857331D01*
X182616681Y-517811718D01*
X182691839Y-517720136D01*
X182812246Y-517621322D01*
X182829034Y-517607544D01*
X182985559Y-517523879D01*
X183155398Y-517472359D01*
X183221582Y-517465841D01*
X183287765Y-517459322D01*
X183376285Y-517459322D01*
X183442468Y-517465841D01*
X183442468Y-517465841D01*
G37*
G36*
X194904610Y-514799124D02*
G01*
X195054435Y-514828926D01*
X195336699Y-514945843D01*
X195590730Y-515115581D01*
X195806766Y-515331617D01*
X195976504Y-515585648D01*
X196093421Y-515867912D01*
X196153025Y-516167562D01*
X196153025Y-516473082D01*
X196093421Y-516772732D01*
X195976504Y-517054996D01*
X195806766Y-517309027D01*
X195590730Y-517525063D01*
X195336699Y-517694801D01*
X195054435Y-517811718D01*
X194904610Y-517841520D01*
X194754786Y-517871322D01*
X194449264Y-517871322D01*
X194299440Y-517841520D01*
X194149615Y-517811718D01*
X193867351Y-517694801D01*
X193613320Y-517525063D01*
X193397284Y-517309027D01*
X193227546Y-517054996D01*
X193110629Y-516772732D01*
X193051025Y-516473082D01*
X193051025Y-516167562D01*
X193110629Y-515867912D01*
X193227546Y-515585648D01*
X193397284Y-515331617D01*
X193613320Y-515115581D01*
X193867351Y-514945843D01*
X194149615Y-514828926D01*
X194299440Y-514799124D01*
X194449264Y-514769322D01*
X194754786Y-514769322D01*
X194904610Y-514799124D01*
X194904610Y-514799124D01*
G37*
G36*
X192653025Y-517621322D02*
G01*
X190001025Y-517621322D01*
X190001025Y-515019322D01*
X192653025Y-515019322D01*
X192653025Y-517621322D01*
X192653025Y-517621322D01*
G37*
G36*
X234274610Y-513358802D02*
G01*
X234424435Y-513388604D01*
X234706699Y-513505521D01*
X234960730Y-513675259D01*
X235176766Y-513891295D01*
X235346504Y-514145326D01*
X235463421Y-514427590D01*
X235463421Y-514427591D01*
X235523025Y-514727239D01*
X235523025Y-515032761D01*
X235506551Y-515115581D01*
X235463421Y-515332410D01*
X235346504Y-515614674D01*
X235176766Y-515868705D01*
X234960730Y-516084741D01*
X234706699Y-516254479D01*
X234424435Y-516371396D01*
X234274610Y-516401198D01*
X234124786Y-516431000D01*
X233819264Y-516431000D01*
X233669440Y-516401198D01*
X233519615Y-516371396D01*
X233237351Y-516254479D01*
X232983320Y-516084741D01*
X232767284Y-515868705D01*
X232597546Y-515614674D01*
X232480629Y-515332410D01*
X232437499Y-515115581D01*
X232421025Y-515032761D01*
X232421025Y-514727239D01*
X232480629Y-514427591D01*
X232480629Y-514427590D01*
X232597546Y-514145326D01*
X232767284Y-513891295D01*
X232983320Y-513675259D01*
X233237351Y-513505521D01*
X233519615Y-513388604D01*
X233669440Y-513358802D01*
X233819264Y-513329000D01*
X234124786Y-513329000D01*
X234274610Y-513358802D01*
X234274610Y-513358802D01*
G37*
G36*
X231996025Y-516181000D02*
G01*
X229344025Y-516181000D01*
X229344025Y-513579000D01*
X231996025Y-513579000D01*
X231996025Y-516181000D01*
X231996025Y-516181000D01*
G37*
G36*
X201231258Y-512254479D02*
G01*
X201404435Y-512288926D01*
X201686699Y-512405843D01*
X201940730Y-512575581D01*
X202156766Y-512791617D01*
X202326504Y-513045648D01*
X202443421Y-513327912D01*
X202443579Y-513328705D01*
X202493366Y-513579000D01*
X202503025Y-513627562D01*
X202503025Y-513933082D01*
X202443421Y-514232732D01*
X202326504Y-514514996D01*
X202156766Y-514769027D01*
X201940730Y-514985063D01*
X201686699Y-515154801D01*
X201404435Y-515271718D01*
X201254610Y-515301520D01*
X201104786Y-515331322D01*
X200799264Y-515331322D01*
X200649440Y-515301520D01*
X200499615Y-515271718D01*
X200217351Y-515154801D01*
X199963320Y-514985063D01*
X199747284Y-514769027D01*
X199577546Y-514514996D01*
X199460629Y-514232732D01*
X199401025Y-513933082D01*
X199401025Y-513627562D01*
X199410685Y-513579000D01*
X199460471Y-513328705D01*
X199460629Y-513327912D01*
X199577546Y-513045648D01*
X199747284Y-512791617D01*
X199963320Y-512575581D01*
X200217351Y-512405843D01*
X200499615Y-512288926D01*
X200672792Y-512254479D01*
X200799264Y-512229322D01*
X201104786Y-512229322D01*
X201231258Y-512254479D01*
X201231258Y-512254479D01*
G37*
G36*
X205580025Y-515081322D02*
G01*
X202928025Y-515081322D01*
X202928025Y-512479322D01*
X205580025Y-512479322D01*
X205580025Y-515081322D01*
X205580025Y-515081322D01*
G37*
G36*
X240624610Y-510818802D02*
G01*
X240774435Y-510848604D01*
X241056699Y-510965521D01*
X241310730Y-511135259D01*
X241526766Y-511351295D01*
X241696504Y-511605326D01*
X241813421Y-511887590D01*
X241873025Y-512187240D01*
X241873025Y-512492760D01*
X241813421Y-512792410D01*
X241696504Y-513074674D01*
X241526766Y-513328705D01*
X241310730Y-513544741D01*
X241056699Y-513714479D01*
X240774435Y-513831396D01*
X240624610Y-513861198D01*
X240474786Y-513891000D01*
X240169264Y-513891000D01*
X240019440Y-513861198D01*
X239869615Y-513831396D01*
X239587351Y-513714479D01*
X239333320Y-513544741D01*
X239117284Y-513328705D01*
X238947546Y-513074674D01*
X238830629Y-512792410D01*
X238771025Y-512492760D01*
X238771025Y-512187240D01*
X238830629Y-511887590D01*
X238947546Y-511605326D01*
X239117284Y-511351295D01*
X239333320Y-511135259D01*
X239587351Y-510965521D01*
X239869615Y-510848604D01*
X240019440Y-510818802D01*
X240169264Y-510789000D01*
X240474786Y-510789000D01*
X240624610Y-510818802D01*
X240624610Y-510818802D01*
G37*
G36*
X244923025Y-513641000D02*
G01*
X242271025Y-513641000D01*
X242271025Y-511039000D01*
X244923025Y-511039000D01*
X244923025Y-513641000D01*
X244923025Y-513641000D01*
G37*
G36*
X253324610Y-509358802D02*
G01*
X253474435Y-509388604D01*
X253756699Y-509505521D01*
X254010730Y-509675259D01*
X254226766Y-509891295D01*
X254396504Y-510145326D01*
X254513421Y-510427590D01*
X254543223Y-510577415D01*
X254572779Y-510726000D01*
X254573025Y-510727240D01*
X254573025Y-511032760D01*
X254513421Y-511332410D01*
X254396504Y-511614674D01*
X254226766Y-511868705D01*
X254010730Y-512084741D01*
X253756699Y-512254479D01*
X253474435Y-512371396D01*
X253324610Y-512401198D01*
X253174786Y-512431000D01*
X252869264Y-512431000D01*
X252719440Y-512401198D01*
X252569615Y-512371396D01*
X252287351Y-512254479D01*
X252033320Y-512084741D01*
X251817284Y-511868705D01*
X251647546Y-511614674D01*
X251530629Y-511332410D01*
X251471025Y-511032760D01*
X251471025Y-510727240D01*
X251471272Y-510726000D01*
X251500827Y-510577415D01*
X251530629Y-510427590D01*
X251647546Y-510145326D01*
X251817284Y-509891295D01*
X252033320Y-509675259D01*
X252287351Y-509505521D01*
X252569615Y-509388604D01*
X252719440Y-509358802D01*
X252869264Y-509329000D01*
X253174786Y-509329000D01*
X253324610Y-509358802D01*
X253324610Y-509358802D01*
G37*
G36*
X237014577Y-507273497D02*
G01*
X237263416Y-507322994D01*
X237391383Y-507376000D01*
X237732217Y-507517178D01*
X238154129Y-507799090D01*
X238512935Y-508157896D01*
X238794847Y-508579808D01*
X238899058Y-508831396D01*
X238989031Y-509048609D01*
X239021076Y-509209709D01*
X239087718Y-509544740D01*
X239088025Y-509546286D01*
X239088025Y-510053714D01*
X238989031Y-510551391D01*
X238931445Y-510690415D01*
X238794847Y-511020192D01*
X238512935Y-511442104D01*
X238154129Y-511800910D01*
X237732217Y-512082822D01*
X237495194Y-512181000D01*
X237263416Y-512277006D01*
X236765740Y-512376000D01*
X236258310Y-512376000D01*
X235760634Y-512277006D01*
X235528856Y-512181000D01*
X235291833Y-512082822D01*
X234869921Y-511800910D01*
X234511115Y-511442104D01*
X234229203Y-511020192D01*
X234092605Y-510690415D01*
X234035019Y-510551391D01*
X233936025Y-510053714D01*
X233936025Y-509546286D01*
X233936333Y-509544740D01*
X234002974Y-509209709D01*
X234035019Y-509048609D01*
X234124992Y-508831396D01*
X234229203Y-508579808D01*
X234511115Y-508157896D01*
X234869921Y-507799090D01*
X235291833Y-507517178D01*
X235632667Y-507376000D01*
X235760634Y-507322994D01*
X236009473Y-507273497D01*
X236258310Y-507224000D01*
X236765740Y-507224000D01*
X237014577Y-507273497D01*
X237014577Y-507273497D01*
G37*
G36*
X251046025Y-512181000D02*
G01*
X248394025Y-512181000D01*
X248394025Y-509579000D01*
X251046025Y-509579000D01*
X251046025Y-512181000D01*
X251046025Y-512181000D01*
G37*
G36*
X215224610Y-508358802D02*
G01*
X215374435Y-508388604D01*
X215656699Y-508505521D01*
X215910730Y-508675259D01*
X216126766Y-508891295D01*
X216296504Y-509145326D01*
X216413421Y-509427590D01*
X216413421Y-509427591D01*
X216469357Y-509708797D01*
X216473025Y-509727240D01*
X216473025Y-510032760D01*
X216413421Y-510332410D01*
X216296504Y-510614674D01*
X216126766Y-510868705D01*
X215910730Y-511084741D01*
X215656699Y-511254479D01*
X215374435Y-511371396D01*
X215224610Y-511401198D01*
X215074786Y-511431000D01*
X214769264Y-511431000D01*
X214619440Y-511401198D01*
X214469615Y-511371396D01*
X214187351Y-511254479D01*
X213933320Y-511084741D01*
X213717284Y-510868705D01*
X213547546Y-510614674D01*
X213430629Y-510332410D01*
X213371025Y-510032760D01*
X213371025Y-509727240D01*
X213374694Y-509708797D01*
X213430629Y-509427591D01*
X213430629Y-509427590D01*
X213547546Y-509145326D01*
X213717284Y-508891295D01*
X213933320Y-508675259D01*
X214187351Y-508505521D01*
X214469615Y-508388604D01*
X214619440Y-508358802D01*
X214769264Y-508329000D01*
X215074786Y-508329000D01*
X215224610Y-508358802D01*
X215224610Y-508358802D01*
G37*
G36*
X212946025Y-511181000D02*
G01*
X210294025Y-511181000D01*
X210294025Y-508579000D01*
X212946025Y-508579000D01*
X212946025Y-511181000D01*
X212946025Y-511181000D01*
G37*
G36*
X241862129Y-508909585D02*
G01*
X242030651Y-508979389D01*
X242182316Y-509080728D01*
X242311297Y-509209709D01*
X242412636Y-509361374D01*
X242482440Y-509529896D01*
X242518025Y-509708797D01*
X242518025Y-509891203D01*
X242482440Y-510070104D01*
X242412636Y-510238626D01*
X242311297Y-510390291D01*
X242182316Y-510519272D01*
X242030651Y-510620611D01*
X241862129Y-510690415D01*
X241683228Y-510726000D01*
X241500822Y-510726000D01*
X241321921Y-510690415D01*
X241153399Y-510620611D01*
X241001734Y-510519272D01*
X240872753Y-510390291D01*
X240771414Y-510238626D01*
X240701610Y-510070104D01*
X240666025Y-509891203D01*
X240666025Y-509708797D01*
X240701610Y-509529896D01*
X240771414Y-509361374D01*
X240872753Y-509209709D01*
X241001734Y-509080728D01*
X241153399Y-508979389D01*
X241321921Y-508909585D01*
X241500822Y-508874000D01*
X241683228Y-508874000D01*
X241862129Y-508909585D01*
X241862129Y-508909585D01*
G37*
G36*
X231702129Y-508909585D02*
G01*
X231870651Y-508979389D01*
X232022316Y-509080728D01*
X232151297Y-509209709D01*
X232252636Y-509361374D01*
X232322440Y-509529896D01*
X232358025Y-509708797D01*
X232358025Y-509891203D01*
X232322440Y-510070104D01*
X232252636Y-510238626D01*
X232151297Y-510390291D01*
X232022316Y-510519272D01*
X231870651Y-510620611D01*
X231702129Y-510690415D01*
X231523228Y-510726000D01*
X231340822Y-510726000D01*
X231161921Y-510690415D01*
X230993399Y-510620611D01*
X230841734Y-510519272D01*
X230712753Y-510390291D01*
X230611414Y-510238626D01*
X230541610Y-510070104D01*
X230506025Y-509891203D01*
X230506025Y-509708797D01*
X230541610Y-509529896D01*
X230611414Y-509361374D01*
X230712753Y-509209709D01*
X230841734Y-509080728D01*
X230993399Y-508979389D01*
X231161921Y-508909585D01*
X231340822Y-508874000D01*
X231523228Y-508874000D01*
X231702129Y-508909585D01*
X231702129Y-508909585D01*
G37*
G36*
X259584661Y-506800910D02*
G01*
X259824435Y-506848604D01*
X260106699Y-506965521D01*
X260360730Y-507135259D01*
X260576766Y-507351295D01*
X260746504Y-507605326D01*
X260863421Y-507887590D01*
X260923025Y-508187240D01*
X260923025Y-508492760D01*
X260863421Y-508792410D01*
X260746504Y-509074674D01*
X260576766Y-509328705D01*
X260360730Y-509544741D01*
X260106699Y-509714479D01*
X259824435Y-509831396D01*
X259674610Y-509861198D01*
X259524786Y-509891000D01*
X259219264Y-509891000D01*
X259069440Y-509861198D01*
X258919615Y-509831396D01*
X258637351Y-509714479D01*
X258383320Y-509544741D01*
X258167284Y-509328705D01*
X257997546Y-509074674D01*
X257880629Y-508792410D01*
X257821025Y-508492760D01*
X257821025Y-508187240D01*
X257880629Y-507887590D01*
X257997546Y-507605326D01*
X258167284Y-507351295D01*
X258383320Y-507135259D01*
X258637351Y-506965521D01*
X258919615Y-506848604D01*
X259159389Y-506800910D01*
X259219264Y-506789000D01*
X259524786Y-506789000D01*
X259584661Y-506800910D01*
X259584661Y-506800910D01*
G37*
G36*
X263973025Y-509641000D02*
G01*
X261321025Y-509641000D01*
X261321025Y-507039000D01*
X263973025Y-507039000D01*
X263973025Y-509641000D01*
X263973025Y-509641000D01*
G37*
G36*
X221574610Y-505818802D02*
G01*
X221724435Y-505848604D01*
X222006699Y-505965521D01*
X222260730Y-506135259D01*
X222476766Y-506351295D01*
X222646504Y-506605326D01*
X222763421Y-506887590D01*
X222823025Y-507187240D01*
X222823025Y-507492760D01*
X222763421Y-507792410D01*
X222646504Y-508074674D01*
X222476766Y-508328705D01*
X222260730Y-508544741D01*
X222006699Y-508714479D01*
X221724435Y-508831396D01*
X221574610Y-508861198D01*
X221424786Y-508891000D01*
X221119264Y-508891000D01*
X220969440Y-508861198D01*
X220819615Y-508831396D01*
X220537351Y-508714479D01*
X220283320Y-508544741D01*
X220067284Y-508328705D01*
X219897546Y-508074674D01*
X219780629Y-507792410D01*
X219721025Y-507492760D01*
X219721025Y-507187240D01*
X219780629Y-506887590D01*
X219897546Y-506605326D01*
X220067284Y-506351295D01*
X220283320Y-506135259D01*
X220537351Y-505965521D01*
X220819615Y-505848604D01*
X220969440Y-505818802D01*
X221119264Y-505789000D01*
X221424786Y-505789000D01*
X221574610Y-505818802D01*
X221574610Y-505818802D01*
G37*
G36*
X225873025Y-508641000D02*
G01*
X223221025Y-508641000D01*
X223221025Y-506039000D01*
X225873025Y-506039000D01*
X225873025Y-508641000D01*
X225873025Y-508641000D01*
G37*
G36*
X256313416Y-503322994D02*
G01*
X256471812Y-503388604D01*
X256782217Y-503517178D01*
X257204129Y-503799090D01*
X257562935Y-504157896D01*
X257844847Y-504579808D01*
X257889355Y-504687260D01*
X258039031Y-505048609D01*
X258045420Y-505080728D01*
X258138025Y-505546285D01*
X258138025Y-506053715D01*
X258121921Y-506134674D01*
X258039031Y-506551391D01*
X257981445Y-506690415D01*
X257844847Y-507020192D01*
X257562935Y-507442104D01*
X257204129Y-507800910D01*
X256782217Y-508082822D01*
X256600972Y-508157896D01*
X256313416Y-508277006D01*
X255815740Y-508376000D01*
X255308310Y-508376000D01*
X254810634Y-508277006D01*
X254523078Y-508157896D01*
X254341833Y-508082822D01*
X253919921Y-507800910D01*
X253561115Y-507442104D01*
X253279203Y-507020192D01*
X253142605Y-506690415D01*
X253085019Y-506551391D01*
X253002129Y-506134674D01*
X252986025Y-506053715D01*
X252986025Y-505546285D01*
X253078630Y-505080728D01*
X253085019Y-505048609D01*
X253234695Y-504687260D01*
X253279203Y-504579808D01*
X253561115Y-504157896D01*
X253919921Y-503799090D01*
X254341833Y-503517178D01*
X254652238Y-503388604D01*
X254810634Y-503322994D01*
X255308310Y-503224000D01*
X255815740Y-503224000D01*
X256313416Y-503322994D01*
X256313416Y-503322994D01*
G37*
G36*
X153859726Y-507781794D02*
G01*
X152057726Y-507781794D01*
X152057726Y-505979794D01*
X153859726Y-505979794D01*
X153859726Y-507781794D01*
X153859726Y-507781794D01*
G37*
G36*
X218213416Y-502322994D02*
G01*
X218341383Y-502376000D01*
X218682217Y-502517178D01*
X219104129Y-502799090D01*
X219462935Y-503157896D01*
X219744847Y-503579808D01*
X219849058Y-503831396D01*
X219939031Y-504048609D01*
X219969694Y-504202761D01*
X220038025Y-504546285D01*
X220038025Y-505053715D01*
X219998038Y-505254741D01*
X219939031Y-505551391D01*
X219881445Y-505690415D01*
X219744847Y-506020192D01*
X219462935Y-506442104D01*
X219104129Y-506800910D01*
X218682217Y-507082822D01*
X218555620Y-507135260D01*
X218213416Y-507277006D01*
X217982218Y-507322994D01*
X217715740Y-507376000D01*
X217208310Y-507376000D01*
X216941832Y-507322994D01*
X216710634Y-507277006D01*
X216368430Y-507135260D01*
X216241833Y-507082822D01*
X215819921Y-506800910D01*
X215461115Y-506442104D01*
X215179203Y-506020192D01*
X215042605Y-505690415D01*
X214985019Y-505551391D01*
X214926012Y-505254741D01*
X214886025Y-505053715D01*
X214886025Y-504546285D01*
X214954356Y-504202761D01*
X214985019Y-504048609D01*
X215074992Y-503831396D01*
X215179203Y-503579808D01*
X215461115Y-503157896D01*
X215819921Y-502799090D01*
X216241833Y-502517178D01*
X216582667Y-502376000D01*
X216710634Y-502322994D01*
X217208310Y-502224000D01*
X217715740Y-502224000D01*
X218213416Y-502322994D01*
X218213416Y-502322994D01*
G37*
G36*
X241490469Y-503874000D02*
G01*
X241664435Y-503908604D01*
X241946699Y-504025521D01*
X242200730Y-504195259D01*
X242416766Y-504411295D01*
X242586504Y-504665326D01*
X242703421Y-504947590D01*
X242729904Y-505080728D01*
X242763025Y-505247239D01*
X242763025Y-505552761D01*
X242750710Y-505614672D01*
X242703421Y-505852410D01*
X242586504Y-506134674D01*
X242416766Y-506388705D01*
X242200730Y-506604741D01*
X241946699Y-506774479D01*
X241664435Y-506891396D01*
X241514610Y-506921198D01*
X241364786Y-506951000D01*
X241059264Y-506951000D01*
X240909440Y-506921198D01*
X240759615Y-506891396D01*
X240477351Y-506774479D01*
X240223320Y-506604741D01*
X240007284Y-506388705D01*
X239837546Y-506134674D01*
X239720629Y-505852410D01*
X239673340Y-505614672D01*
X239661025Y-505552761D01*
X239661025Y-505247239D01*
X239694146Y-505080728D01*
X239720629Y-504947590D01*
X239837546Y-504665326D01*
X240007284Y-504411295D01*
X240223320Y-504195259D01*
X240477351Y-504025521D01*
X240759615Y-503908604D01*
X240933581Y-503874000D01*
X241059264Y-503849000D01*
X241364786Y-503849000D01*
X241490469Y-503874000D01*
X241490469Y-503874000D01*
G37*
G36*
X260912129Y-504909585D02*
G01*
X261080651Y-504979389D01*
X261232316Y-505080728D01*
X261361297Y-505209709D01*
X261462636Y-505361374D01*
X261532440Y-505529896D01*
X261568025Y-505708797D01*
X261568025Y-505891203D01*
X261532440Y-506070104D01*
X261462636Y-506238626D01*
X261361297Y-506390291D01*
X261232316Y-506519272D01*
X261080651Y-506620611D01*
X260912129Y-506690415D01*
X260733228Y-506726000D01*
X260550822Y-506726000D01*
X260371921Y-506690415D01*
X260203399Y-506620611D01*
X260051734Y-506519272D01*
X259922753Y-506390291D01*
X259821414Y-506238626D01*
X259751610Y-506070104D01*
X259716025Y-505891203D01*
X259716025Y-505708797D01*
X259751610Y-505529896D01*
X259821414Y-505361374D01*
X259922753Y-505209709D01*
X260051734Y-505080728D01*
X260203399Y-504979389D01*
X260371921Y-504909585D01*
X260550822Y-504874000D01*
X260733228Y-504874000D01*
X260912129Y-504909585D01*
X260912129Y-504909585D01*
G37*
G36*
X250752129Y-504909585D02*
G01*
X250920651Y-504979389D01*
X251072316Y-505080728D01*
X251201297Y-505209709D01*
X251302636Y-505361374D01*
X251372440Y-505529896D01*
X251408025Y-505708797D01*
X251408025Y-505891203D01*
X251372440Y-506070104D01*
X251302636Y-506238626D01*
X251201297Y-506390291D01*
X251072316Y-506519272D01*
X250920651Y-506620611D01*
X250752129Y-506690415D01*
X250573228Y-506726000D01*
X250390822Y-506726000D01*
X250211921Y-506690415D01*
X250043399Y-506620611D01*
X249891734Y-506519272D01*
X249762753Y-506390291D01*
X249661414Y-506238626D01*
X249591610Y-506070104D01*
X249556025Y-505891203D01*
X249556025Y-505708797D01*
X249591610Y-505529896D01*
X249661414Y-505361374D01*
X249762753Y-505209709D01*
X249891734Y-505080728D01*
X250043399Y-504979389D01*
X250211921Y-504909585D01*
X250390822Y-504874000D01*
X250573228Y-504874000D01*
X250752129Y-504909585D01*
X250752129Y-504909585D01*
G37*
G36*
X245763025Y-506451000D02*
G01*
X243661025Y-506451000D01*
X243661025Y-504349000D01*
X245763025Y-504349000D01*
X245763025Y-506451000D01*
X245763025Y-506451000D01*
G37*
G36*
X196174610Y-503358802D02*
G01*
X196324435Y-503388604D01*
X196606699Y-503505521D01*
X196860730Y-503675259D01*
X197076766Y-503891295D01*
X197246504Y-504145326D01*
X197363421Y-504427590D01*
X197363421Y-504427591D01*
X197423025Y-504727239D01*
X197423025Y-505032761D01*
X197410929Y-505093572D01*
X197363421Y-505332410D01*
X197246504Y-505614674D01*
X197076766Y-505868705D01*
X196860730Y-506084741D01*
X196606699Y-506254479D01*
X196324435Y-506371396D01*
X196229448Y-506390290D01*
X196024786Y-506431000D01*
X195719264Y-506431000D01*
X195514602Y-506390290D01*
X195419615Y-506371396D01*
X195137351Y-506254479D01*
X194883320Y-506084741D01*
X194667284Y-505868705D01*
X194497546Y-505614674D01*
X194380629Y-505332410D01*
X194333121Y-505093572D01*
X194321025Y-505032761D01*
X194321025Y-504727239D01*
X194380629Y-504427591D01*
X194380629Y-504427590D01*
X194497546Y-504145326D01*
X194667284Y-503891295D01*
X194883320Y-503675259D01*
X195137351Y-503505521D01*
X195419615Y-503388604D01*
X195569440Y-503358802D01*
X195719264Y-503329000D01*
X196024786Y-503329000D01*
X196174610Y-503358802D01*
X196174610Y-503358802D01*
G37*
G36*
X193896025Y-506181000D02*
G01*
X191244025Y-506181000D01*
X191244025Y-503579000D01*
X193896025Y-503579000D01*
X193896025Y-506181000D01*
X193896025Y-506181000D01*
G37*
G36*
X222812129Y-503909585D02*
G01*
X222980651Y-503979389D01*
X223132316Y-504080728D01*
X223261297Y-504209709D01*
X223362636Y-504361374D01*
X223432440Y-504529896D01*
X223468025Y-504708797D01*
X223468025Y-504891203D01*
X223432440Y-505070104D01*
X223362636Y-505238626D01*
X223261297Y-505390291D01*
X223132316Y-505519272D01*
X222980651Y-505620611D01*
X222812129Y-505690415D01*
X222633228Y-505726000D01*
X222450822Y-505726000D01*
X222271921Y-505690415D01*
X222103399Y-505620611D01*
X221951734Y-505519272D01*
X221822753Y-505390291D01*
X221721414Y-505238626D01*
X221651610Y-505070104D01*
X221616025Y-504891203D01*
X221616025Y-504708797D01*
X221651610Y-504529896D01*
X221721414Y-504361374D01*
X221822753Y-504209709D01*
X221951734Y-504080728D01*
X222103399Y-503979389D01*
X222271921Y-503909585D01*
X222450822Y-503874000D01*
X222633228Y-503874000D01*
X222812129Y-503909585D01*
X222812129Y-503909585D01*
G37*
G36*
X212652129Y-503909585D02*
G01*
X212820651Y-503979389D01*
X212972316Y-504080728D01*
X213101297Y-504209709D01*
X213202636Y-504361374D01*
X213272440Y-504529896D01*
X213308025Y-504708797D01*
X213308025Y-504891203D01*
X213272440Y-505070104D01*
X213202636Y-505238626D01*
X213101297Y-505390291D01*
X212972316Y-505519272D01*
X212820651Y-505620611D01*
X212652129Y-505690415D01*
X212473228Y-505726000D01*
X212290822Y-505726000D01*
X212111921Y-505690415D01*
X211943399Y-505620611D01*
X211791734Y-505519272D01*
X211662753Y-505390291D01*
X211561414Y-505238626D01*
X211491610Y-505070104D01*
X211456025Y-504891203D01*
X211456025Y-504708797D01*
X211491610Y-504529896D01*
X211561414Y-504361374D01*
X211662753Y-504209709D01*
X211791734Y-504080728D01*
X211943399Y-503979389D01*
X212111921Y-503909585D01*
X212290822Y-503874000D01*
X212473228Y-503874000D01*
X212652129Y-503909585D01*
X212652129Y-503909585D01*
G37*
G36*
X234214610Y-502528802D02*
G01*
X234364435Y-502558604D01*
X234646699Y-502675521D01*
X234900730Y-502845259D01*
X235116766Y-503061295D01*
X235286504Y-503315326D01*
X235403421Y-503597590D01*
X235423913Y-503700609D01*
X235461843Y-503891295D01*
X235463025Y-503897240D01*
X235463025Y-504202760D01*
X235403421Y-504502410D01*
X235286504Y-504784674D01*
X235116766Y-505038705D01*
X234900730Y-505254741D01*
X234646699Y-505424479D01*
X234364435Y-505541396D01*
X234307304Y-505552760D01*
X234064786Y-505601000D01*
X233759264Y-505601000D01*
X233516746Y-505552760D01*
X233459615Y-505541396D01*
X233177351Y-505424479D01*
X232923320Y-505254741D01*
X232707284Y-505038705D01*
X232537546Y-504784674D01*
X232420629Y-504502410D01*
X232361025Y-504202760D01*
X232361025Y-503897240D01*
X232362208Y-503891295D01*
X232400137Y-503700609D01*
X232420629Y-503597590D01*
X232537546Y-503315326D01*
X232707284Y-503061295D01*
X232923320Y-502845259D01*
X233177351Y-502675521D01*
X233459615Y-502558604D01*
X233609440Y-502528802D01*
X233759264Y-502499000D01*
X234064786Y-502499000D01*
X234214610Y-502528802D01*
X234214610Y-502528802D01*
G37*
G36*
X231438025Y-505351000D02*
G01*
X228786025Y-505351000D01*
X228786025Y-502749000D01*
X231438025Y-502749000D01*
X231438025Y-505351000D01*
X231438025Y-505351000D01*
G37*
G36*
X153069169Y-503446313D02*
G01*
X153135353Y-503452831D01*
X153305192Y-503504351D01*
X153305194Y-503504352D01*
X153329191Y-503517179D01*
X153461717Y-503588016D01*
X153473384Y-503597591D01*
X153598912Y-503700608D01*
X153679733Y-503799090D01*
X153711504Y-503837803D01*
X153795169Y-503994328D01*
X153846689Y-504164167D01*
X153864085Y-504340794D01*
X153846689Y-504517421D01*
X153795169Y-504687260D01*
X153711504Y-504843785D01*
X153686707Y-504874000D01*
X153598912Y-504980980D01*
X153516503Y-505048610D01*
X153461717Y-505093572D01*
X153305192Y-505177237D01*
X153135353Y-505228757D01*
X153069169Y-505235275D01*
X153002986Y-505241794D01*
X152914466Y-505241794D01*
X152848283Y-505235275D01*
X152782099Y-505228757D01*
X152612260Y-505177237D01*
X152455735Y-505093572D01*
X152400949Y-505048610D01*
X152318540Y-504980980D01*
X152230745Y-504874000D01*
X152205948Y-504843785D01*
X152122283Y-504687260D01*
X152070763Y-504517421D01*
X152053367Y-504340794D01*
X152070763Y-504164167D01*
X152122283Y-503994328D01*
X152205948Y-503837803D01*
X152237719Y-503799090D01*
X152318540Y-503700608D01*
X152444068Y-503597591D01*
X152455735Y-503588016D01*
X152588261Y-503517179D01*
X152612258Y-503504352D01*
X152612260Y-503504351D01*
X152782099Y-503452831D01*
X152848283Y-503446313D01*
X152914466Y-503439794D01*
X153002986Y-503439794D01*
X153069169Y-503446313D01*
X153069169Y-503446313D01*
G37*
G36*
X202524610Y-500818802D02*
G01*
X202674435Y-500848604D01*
X202956699Y-500965521D01*
X203210730Y-501135259D01*
X203426766Y-501351295D01*
X203596504Y-501605326D01*
X203698849Y-501852410D01*
X203713421Y-501887591D01*
X203765073Y-502147260D01*
X203773025Y-502187240D01*
X203773025Y-502492760D01*
X203713421Y-502792410D01*
X203596504Y-503074674D01*
X203426766Y-503328705D01*
X203210730Y-503544741D01*
X202956699Y-503714479D01*
X202674435Y-503831396D01*
X202524610Y-503861198D01*
X202374786Y-503891000D01*
X202069264Y-503891000D01*
X201919440Y-503861198D01*
X201769615Y-503831396D01*
X201487351Y-503714479D01*
X201233320Y-503544741D01*
X201017284Y-503328705D01*
X200847546Y-503074674D01*
X200730629Y-502792410D01*
X200671025Y-502492760D01*
X200671025Y-502187240D01*
X200678978Y-502147260D01*
X200730629Y-501887591D01*
X200745201Y-501852410D01*
X200847546Y-501605326D01*
X201017284Y-501351295D01*
X201233320Y-501135259D01*
X201487351Y-500965521D01*
X201769615Y-500848604D01*
X201919440Y-500818802D01*
X202069264Y-500789000D01*
X202374786Y-500789000D01*
X202524610Y-500818802D01*
X202524610Y-500818802D01*
G37*
G36*
X206823025Y-503641000D02*
G01*
X204171025Y-503641000D01*
X204171025Y-501039000D01*
X206823025Y-501039000D01*
X206823025Y-503641000D01*
X206823025Y-503641000D01*
G37*
G36*
X260564610Y-499878802D02*
G01*
X260714435Y-499908604D01*
X260996699Y-500025521D01*
X261250730Y-500195259D01*
X261466766Y-500411295D01*
X261636504Y-500665326D01*
X261753421Y-500947590D01*
X261773397Y-501048015D01*
X261813025Y-501247239D01*
X261813025Y-501552761D01*
X261802686Y-501604740D01*
X261753421Y-501852410D01*
X261636504Y-502134674D01*
X261466766Y-502388705D01*
X261250730Y-502604741D01*
X260996699Y-502774479D01*
X260714435Y-502891396D01*
X260564610Y-502921198D01*
X260414786Y-502951000D01*
X260109264Y-502951000D01*
X259959440Y-502921198D01*
X259809615Y-502891396D01*
X259527351Y-502774479D01*
X259273320Y-502604741D01*
X259057284Y-502388705D01*
X258887546Y-502134674D01*
X258770629Y-501852410D01*
X258721364Y-501604740D01*
X258711025Y-501552761D01*
X258711025Y-501247239D01*
X258750653Y-501048015D01*
X258770629Y-500947590D01*
X258887546Y-500665326D01*
X259057284Y-500411295D01*
X259273320Y-500195259D01*
X259527351Y-500025521D01*
X259809615Y-499908604D01*
X259959440Y-499878802D01*
X260109264Y-499849000D01*
X260414786Y-499849000D01*
X260564610Y-499878802D01*
X260564610Y-499878802D01*
G37*
G36*
X153069169Y-500906313D02*
G01*
X153135353Y-500912831D01*
X153305192Y-500964351D01*
X153461717Y-501048016D01*
X153497455Y-501077346D01*
X153598912Y-501160608D01*
X153670007Y-501247239D01*
X153711504Y-501297803D01*
X153795169Y-501454328D01*
X153846689Y-501624167D01*
X153864085Y-501800794D01*
X153846689Y-501977421D01*
X153795169Y-502147260D01*
X153711504Y-502303785D01*
X153695739Y-502322994D01*
X153598912Y-502440980D01*
X153528213Y-502499000D01*
X153461717Y-502553572D01*
X153305192Y-502637237D01*
X153135353Y-502688757D01*
X153069168Y-502695276D01*
X153002986Y-502701794D01*
X152914466Y-502701794D01*
X152848284Y-502695276D01*
X152782099Y-502688757D01*
X152612260Y-502637237D01*
X152455735Y-502553572D01*
X152389239Y-502499000D01*
X152318540Y-502440980D01*
X152221713Y-502322994D01*
X152205948Y-502303785D01*
X152122283Y-502147260D01*
X152070763Y-501977421D01*
X152053367Y-501800794D01*
X152070763Y-501624167D01*
X152122283Y-501454328D01*
X152205948Y-501297803D01*
X152247445Y-501247239D01*
X152318540Y-501160608D01*
X152419997Y-501077346D01*
X152455735Y-501048016D01*
X152612260Y-500964351D01*
X152782099Y-500912831D01*
X152848283Y-500906313D01*
X152914466Y-500899794D01*
X153002986Y-500899794D01*
X153069169Y-500906313D01*
X153069169Y-500906313D01*
G37*
G36*
X264813025Y-502451000D02*
G01*
X262711025Y-502451000D01*
X262711025Y-500349000D01*
X264813025Y-500349000D01*
X264813025Y-502451000D01*
X264813025Y-502451000D01*
G37*
G36*
X199163416Y-497322994D02*
G01*
X199357600Y-497403428D01*
X199632217Y-497517178D01*
X200054129Y-497799090D01*
X200412935Y-498157896D01*
X200694847Y-498579808D01*
X200768575Y-498757803D01*
X200889031Y-499048609D01*
X200919694Y-499202761D01*
X200988025Y-499546285D01*
X200988025Y-500053715D01*
X200948038Y-500254741D01*
X200889031Y-500551391D01*
X200831445Y-500690415D01*
X200694847Y-501020192D01*
X200412935Y-501442104D01*
X200054129Y-501800910D01*
X199632217Y-502082822D01*
X199380132Y-502187239D01*
X199163416Y-502277006D01*
X198932218Y-502322994D01*
X198665740Y-502376000D01*
X198158310Y-502376000D01*
X197891832Y-502322994D01*
X197660634Y-502277006D01*
X197443918Y-502187239D01*
X197191833Y-502082822D01*
X196769921Y-501800910D01*
X196411115Y-501442104D01*
X196129203Y-501020192D01*
X195992605Y-500690415D01*
X195935019Y-500551391D01*
X195876012Y-500254741D01*
X195836025Y-500053715D01*
X195836025Y-499546285D01*
X195904356Y-499202761D01*
X195935019Y-499048609D01*
X196055475Y-498757803D01*
X196129203Y-498579808D01*
X196411115Y-498157896D01*
X196769921Y-497799090D01*
X197191833Y-497517178D01*
X197466450Y-497403428D01*
X197660634Y-497322994D01*
X198158310Y-497224000D01*
X198665740Y-497224000D01*
X199163416Y-497322994D01*
X199163416Y-497322994D01*
G37*
G36*
X222440469Y-498874000D02*
G01*
X222614435Y-498908604D01*
X222896699Y-499025521D01*
X223150730Y-499195259D01*
X223366766Y-499411295D01*
X223536504Y-499665326D01*
X223653421Y-499947590D01*
X223683187Y-500097236D01*
X223713025Y-500247239D01*
X223713025Y-500552761D01*
X223699529Y-500620611D01*
X223653421Y-500852410D01*
X223536504Y-501134674D01*
X223366766Y-501388705D01*
X223150730Y-501604741D01*
X222896699Y-501774479D01*
X222614435Y-501891396D01*
X222464610Y-501921198D01*
X222314786Y-501951000D01*
X222009264Y-501951000D01*
X221859440Y-501921198D01*
X221709615Y-501891396D01*
X221427351Y-501774479D01*
X221173320Y-501604741D01*
X220957284Y-501388705D01*
X220787546Y-501134674D01*
X220670629Y-500852410D01*
X220624521Y-500620611D01*
X220611025Y-500552761D01*
X220611025Y-500247239D01*
X220640863Y-500097236D01*
X220670629Y-499947590D01*
X220787546Y-499665326D01*
X220957284Y-499411295D01*
X221173320Y-499195259D01*
X221427351Y-499025521D01*
X221709615Y-498908604D01*
X221883581Y-498874000D01*
X222009264Y-498849000D01*
X222314786Y-498849000D01*
X222440469Y-498874000D01*
X222440469Y-498874000D01*
G37*
G36*
X253160107Y-498508015D02*
G01*
X253414435Y-498558604D01*
X253696699Y-498675521D01*
X253950730Y-498845259D01*
X254166766Y-499061295D01*
X254336504Y-499315326D01*
X254453421Y-499597590D01*
X254466895Y-499665328D01*
X254513025Y-499897239D01*
X254513025Y-500202761D01*
X254502686Y-500254740D01*
X254453421Y-500502410D01*
X254336504Y-500784674D01*
X254166766Y-501038705D01*
X253950730Y-501254741D01*
X253696699Y-501424479D01*
X253414435Y-501541396D01*
X253357304Y-501552760D01*
X253114786Y-501601000D01*
X252809264Y-501601000D01*
X252566746Y-501552760D01*
X252509615Y-501541396D01*
X252227351Y-501424479D01*
X251973320Y-501254741D01*
X251757284Y-501038705D01*
X251587546Y-500784674D01*
X251470629Y-500502410D01*
X251421364Y-500254740D01*
X251411025Y-500202761D01*
X251411025Y-499897239D01*
X251457155Y-499665328D01*
X251470629Y-499597590D01*
X251587546Y-499315326D01*
X251757284Y-499061295D01*
X251973320Y-498845259D01*
X252227351Y-498675521D01*
X252509615Y-498558604D01*
X252763943Y-498508015D01*
X252809264Y-498499000D01*
X253114786Y-498499000D01*
X253160107Y-498508015D01*
X253160107Y-498508015D01*
G37*
G36*
X226713025Y-501451000D02*
G01*
X224611025Y-501451000D01*
X224611025Y-499349000D01*
X226713025Y-499349000D01*
X226713025Y-501451000D01*
X226713025Y-501451000D01*
G37*
G36*
X250488025Y-501351000D02*
G01*
X247836025Y-501351000D01*
X247836025Y-498749000D01*
X250488025Y-498749000D01*
X250488025Y-501351000D01*
X250488025Y-501351000D01*
G37*
G36*
X203762129Y-498909585D02*
G01*
X203930651Y-498979389D01*
X204082316Y-499080728D01*
X204211297Y-499209709D01*
X204312636Y-499361374D01*
X204382440Y-499529896D01*
X204418025Y-499708797D01*
X204418025Y-499891203D01*
X204382440Y-500070104D01*
X204312636Y-500238626D01*
X204211297Y-500390291D01*
X204082316Y-500519272D01*
X203930651Y-500620611D01*
X203762129Y-500690415D01*
X203583228Y-500726000D01*
X203400822Y-500726000D01*
X203221921Y-500690415D01*
X203053399Y-500620611D01*
X202901734Y-500519272D01*
X202772753Y-500390291D01*
X202671414Y-500238626D01*
X202601610Y-500070104D01*
X202566025Y-499891203D01*
X202566025Y-499708797D01*
X202601610Y-499529896D01*
X202671414Y-499361374D01*
X202772753Y-499209709D01*
X202901734Y-499080728D01*
X203053399Y-498979389D01*
X203221921Y-498909585D01*
X203400822Y-498874000D01*
X203583228Y-498874000D01*
X203762129Y-498909585D01*
X203762129Y-498909585D01*
G37*
G36*
X193602129Y-498909585D02*
G01*
X193770651Y-498979389D01*
X193922316Y-499080728D01*
X194051297Y-499209709D01*
X194152636Y-499361374D01*
X194222440Y-499529896D01*
X194258025Y-499708797D01*
X194258025Y-499891203D01*
X194222440Y-500070104D01*
X194152636Y-500238626D01*
X194051297Y-500390291D01*
X193922316Y-500519272D01*
X193770651Y-500620611D01*
X193602129Y-500690415D01*
X193423228Y-500726000D01*
X193240822Y-500726000D01*
X193061921Y-500690415D01*
X192893399Y-500620611D01*
X192741734Y-500519272D01*
X192612753Y-500390291D01*
X192511414Y-500238626D01*
X192441610Y-500070104D01*
X192406025Y-499891203D01*
X192406025Y-499708797D01*
X192441610Y-499529896D01*
X192511414Y-499361374D01*
X192612753Y-499209709D01*
X192741734Y-499080728D01*
X192893399Y-498979389D01*
X193061921Y-498909585D01*
X193240822Y-498874000D01*
X193423228Y-498874000D01*
X193602129Y-498909585D01*
X193602129Y-498909585D01*
G37*
G36*
X215164610Y-497528802D02*
G01*
X215314435Y-497558604D01*
X215596699Y-497675521D01*
X215850730Y-497845259D01*
X216066766Y-498061295D01*
X216236504Y-498315326D01*
X216353421Y-498597590D01*
X216358000Y-498620609D01*
X216403430Y-498849000D01*
X216413025Y-498897240D01*
X216413025Y-499202760D01*
X216353421Y-499502410D01*
X216236504Y-499784674D01*
X216066766Y-500038705D01*
X215850730Y-500254741D01*
X215596699Y-500424479D01*
X215314435Y-500541396D01*
X215257304Y-500552760D01*
X215014786Y-500601000D01*
X214709264Y-500601000D01*
X214466746Y-500552760D01*
X214409615Y-500541396D01*
X214127351Y-500424479D01*
X213873320Y-500254741D01*
X213657284Y-500038705D01*
X213487546Y-499784674D01*
X213370629Y-499502410D01*
X213311025Y-499202760D01*
X213311025Y-498897240D01*
X213320621Y-498849000D01*
X213366050Y-498620609D01*
X213370629Y-498597590D01*
X213487546Y-498315326D01*
X213657284Y-498061295D01*
X213873320Y-497845259D01*
X214127351Y-497675521D01*
X214409615Y-497558604D01*
X214559440Y-497528802D01*
X214709264Y-497499000D01*
X215014786Y-497499000D01*
X215164610Y-497528802D01*
X215164610Y-497528802D01*
G37*
G36*
X212388025Y-500351000D02*
G01*
X209736025Y-500351000D01*
X209736025Y-497749000D01*
X212388025Y-497749000D01*
X212388025Y-500351000D01*
X212388025Y-500351000D01*
G37*
G36*
X153069168Y-498366312D02*
G01*
X153135353Y-498372831D01*
X153305192Y-498424351D01*
X153461717Y-498508016D01*
X153496969Y-498536947D01*
X153598912Y-498620608D01*
X153682174Y-498722065D01*
X153711504Y-498757803D01*
X153795169Y-498914328D01*
X153846689Y-499084167D01*
X153864085Y-499260794D01*
X153846689Y-499437421D01*
X153795169Y-499607260D01*
X153711504Y-499763785D01*
X153682174Y-499799523D01*
X153598912Y-499900980D01*
X153542115Y-499947591D01*
X153461717Y-500013572D01*
X153305192Y-500097237D01*
X153135353Y-500148757D01*
X153069168Y-500155276D01*
X153002986Y-500161794D01*
X152914466Y-500161794D01*
X152848284Y-500155276D01*
X152782099Y-500148757D01*
X152612260Y-500097237D01*
X152455735Y-500013572D01*
X152375337Y-499947591D01*
X152318540Y-499900980D01*
X152235278Y-499799523D01*
X152205948Y-499763785D01*
X152122283Y-499607260D01*
X152070763Y-499437421D01*
X152053367Y-499260794D01*
X152070763Y-499084167D01*
X152122283Y-498914328D01*
X152205948Y-498757803D01*
X152235278Y-498722065D01*
X152318540Y-498620608D01*
X152420483Y-498536947D01*
X152455735Y-498508016D01*
X152612260Y-498424351D01*
X152782099Y-498372831D01*
X152848284Y-498366312D01*
X152914466Y-498359794D01*
X153002986Y-498359794D01*
X153069168Y-498366312D01*
X153069168Y-498366312D01*
G37*
G36*
X177613025Y-499261322D02*
G01*
X175811025Y-499261322D01*
X175811025Y-497459322D01*
X177613025Y-497459322D01*
X177613025Y-499261322D01*
X177613025Y-499261322D01*
G37*
G36*
X184442467Y-497465840D02*
G01*
X184508652Y-497472359D01*
X184678491Y-497523879D01*
X184835016Y-497607544D01*
X184870754Y-497636874D01*
X184972211Y-497720136D01*
X185037006Y-497799090D01*
X185084803Y-497857331D01*
X185168468Y-498013856D01*
X185219988Y-498183695D01*
X185237384Y-498360322D01*
X185219988Y-498536949D01*
X185168468Y-498706788D01*
X185084803Y-498863313D01*
X185076032Y-498874000D01*
X184972211Y-499000508D01*
X184874461Y-499080728D01*
X184835016Y-499113100D01*
X184678491Y-499196765D01*
X184508652Y-499248285D01*
X184442468Y-499254803D01*
X184376285Y-499261322D01*
X184287765Y-499261322D01*
X184221582Y-499254803D01*
X184155398Y-499248285D01*
X183985559Y-499196765D01*
X183829034Y-499113100D01*
X183789589Y-499080728D01*
X183691839Y-499000508D01*
X183588018Y-498874000D01*
X183579247Y-498863313D01*
X183495582Y-498706788D01*
X183444062Y-498536949D01*
X183426666Y-498360322D01*
X183444062Y-498183695D01*
X183495582Y-498013856D01*
X183579247Y-497857331D01*
X183627044Y-497799090D01*
X183691839Y-497720136D01*
X183793296Y-497636874D01*
X183829034Y-497607544D01*
X183985559Y-497523879D01*
X184155398Y-497472359D01*
X184221583Y-497465840D01*
X184287765Y-497459322D01*
X184376285Y-497459322D01*
X184442467Y-497465840D01*
X184442467Y-497465840D01*
G37*
G36*
X181902467Y-497465840D02*
G01*
X181968652Y-497472359D01*
X182138491Y-497523879D01*
X182295016Y-497607544D01*
X182330754Y-497636874D01*
X182432211Y-497720136D01*
X182497006Y-497799090D01*
X182544803Y-497857331D01*
X182628468Y-498013856D01*
X182679988Y-498183695D01*
X182697384Y-498360322D01*
X182679988Y-498536949D01*
X182628468Y-498706788D01*
X182544803Y-498863313D01*
X182536032Y-498874000D01*
X182432211Y-499000508D01*
X182334461Y-499080728D01*
X182295016Y-499113100D01*
X182138491Y-499196765D01*
X181968652Y-499248285D01*
X181902468Y-499254803D01*
X181836285Y-499261322D01*
X181747765Y-499261322D01*
X181681582Y-499254803D01*
X181615398Y-499248285D01*
X181445559Y-499196765D01*
X181289034Y-499113100D01*
X181249589Y-499080728D01*
X181151839Y-499000508D01*
X181048018Y-498874000D01*
X181039247Y-498863313D01*
X180955582Y-498706788D01*
X180904062Y-498536949D01*
X180886666Y-498360322D01*
X180904062Y-498183695D01*
X180955582Y-498013856D01*
X181039247Y-497857331D01*
X181087044Y-497799090D01*
X181151839Y-497720136D01*
X181253296Y-497636874D01*
X181289034Y-497607544D01*
X181445559Y-497523879D01*
X181615398Y-497472359D01*
X181681583Y-497465840D01*
X181747765Y-497459322D01*
X181836285Y-497459322D01*
X181902467Y-497465840D01*
X181902467Y-497465840D01*
G37*
G36*
X179362467Y-497465840D02*
G01*
X179428652Y-497472359D01*
X179598491Y-497523879D01*
X179755016Y-497607544D01*
X179790754Y-497636874D01*
X179892211Y-497720136D01*
X179957006Y-497799090D01*
X180004803Y-497857331D01*
X180088468Y-498013856D01*
X180139988Y-498183695D01*
X180157384Y-498360322D01*
X180139988Y-498536949D01*
X180088468Y-498706788D01*
X180004803Y-498863313D01*
X179996032Y-498874000D01*
X179892211Y-499000508D01*
X179794461Y-499080728D01*
X179755016Y-499113100D01*
X179598491Y-499196765D01*
X179428652Y-499248285D01*
X179362468Y-499254803D01*
X179296285Y-499261322D01*
X179207765Y-499261322D01*
X179141582Y-499254803D01*
X179075398Y-499248285D01*
X178905559Y-499196765D01*
X178749034Y-499113100D01*
X178709589Y-499080728D01*
X178611839Y-499000508D01*
X178508018Y-498874000D01*
X178499247Y-498863313D01*
X178415582Y-498706788D01*
X178364062Y-498536949D01*
X178346666Y-498360322D01*
X178364062Y-498183695D01*
X178415582Y-498013856D01*
X178499247Y-497857331D01*
X178547044Y-497799090D01*
X178611839Y-497720136D01*
X178713296Y-497636874D01*
X178749034Y-497607544D01*
X178905559Y-497523879D01*
X179075398Y-497472359D01*
X179141583Y-497465840D01*
X179207765Y-497459322D01*
X179296285Y-497459322D01*
X179362467Y-497465840D01*
X179362467Y-497465840D01*
G37*
G36*
X203414610Y-493878802D02*
G01*
X203564435Y-493908604D01*
X203846699Y-494025521D01*
X204100730Y-494195259D01*
X204316766Y-494411295D01*
X204486504Y-494665326D01*
X204535938Y-494784672D01*
X204603421Y-494947591D01*
X204663025Y-495247239D01*
X204663025Y-495552761D01*
X204633223Y-495702585D01*
X204603421Y-495852410D01*
X204486504Y-496134674D01*
X204316766Y-496388705D01*
X204100730Y-496604741D01*
X203846699Y-496774479D01*
X203564435Y-496891396D01*
X203414610Y-496921198D01*
X203264786Y-496951000D01*
X202959264Y-496951000D01*
X202809440Y-496921198D01*
X202659615Y-496891396D01*
X202377351Y-496774479D01*
X202123320Y-496604741D01*
X201907284Y-496388705D01*
X201737546Y-496134674D01*
X201620629Y-495852410D01*
X201590827Y-495702585D01*
X201561025Y-495552761D01*
X201561025Y-495247239D01*
X201620629Y-494947591D01*
X201688112Y-494784672D01*
X201737546Y-494665326D01*
X201907284Y-494411295D01*
X202123320Y-494195259D01*
X202377351Y-494025521D01*
X202659615Y-493908604D01*
X202809440Y-493878802D01*
X202959264Y-493849000D01*
X203264786Y-493849000D01*
X203414610Y-493878802D01*
X203414610Y-493878802D01*
G37*
G36*
X207663025Y-496451000D02*
G01*
X205561025Y-496451000D01*
X205561025Y-494349000D01*
X207663025Y-494349000D01*
X207663025Y-496451000D01*
X207663025Y-496451000D01*
G37*
G36*
X196114610Y-492528802D02*
G01*
X196264435Y-492558604D01*
X196546699Y-492675521D01*
X196800730Y-492845259D01*
X197016766Y-493061295D01*
X197186504Y-493315326D01*
X197303421Y-493597590D01*
X197303421Y-493597591D01*
X197353430Y-493849000D01*
X197363025Y-493897240D01*
X197363025Y-494202760D01*
X197303421Y-494502410D01*
X197186504Y-494784674D01*
X197016766Y-495038705D01*
X196800730Y-495254741D01*
X196546699Y-495424479D01*
X196264435Y-495541396D01*
X196207304Y-495552760D01*
X195964786Y-495601000D01*
X195659264Y-495601000D01*
X195416746Y-495552760D01*
X195359615Y-495541396D01*
X195077351Y-495424479D01*
X194823320Y-495254741D01*
X194607284Y-495038705D01*
X194437546Y-494784674D01*
X194320629Y-494502410D01*
X194261025Y-494202760D01*
X194261025Y-493897240D01*
X194270621Y-493849000D01*
X194320629Y-493597591D01*
X194320629Y-493597590D01*
X194437546Y-493315326D01*
X194607284Y-493061295D01*
X194823320Y-492845259D01*
X195077351Y-492675521D01*
X195359615Y-492558604D01*
X195509440Y-492528802D01*
X195659264Y-492499000D01*
X195964786Y-492499000D01*
X196114610Y-492528802D01*
X196114610Y-492528802D01*
G37*
G36*
X193338025Y-495351000D02*
G01*
X190686025Y-495351000D01*
X190686025Y-492749000D01*
X193338025Y-492749000D01*
X193338025Y-495351000D01*
X193338025Y-495351000D01*
G37*
M02*
