G04 #@! TF.GenerationSoftware,KiCad,Pcbnew,(5.1.4)-1*
G04 #@! TF.CreationDate,2023-05-19T08:47:55-04:00*
G04 #@! TF.ProjectId,ThumbsUp,5468756d-6273-4557-902e-6b696361645f,rev?*
G04 #@! TF.SameCoordinates,Original*
G04 #@! TF.FileFunction,Copper,L1,Top*
G04 #@! TF.FilePolarity,Positive*
%FSLAX46Y46*%
G04 Gerber Fmt 4.6, Leading zero omitted, Abs format (unit mm)*
G04 Created by KiCad (PCBNEW (5.1.4)-1) date 2023-05-19 08:47:55*
%MOMM*%
%LPD*%
G04 APERTURE LIST*
%ADD10O,1.700000X1.700000*%
%ADD11R,1.700000X1.700000*%
%ADD12C,2.250000*%
%ADD13C,2.250000*%
%ADD14C,1.700000*%
%ADD15C,1.700000*%
%ADD16C,0.100000*%
%ADD17C,0.200000*%
G04 APERTURE END LIST*
D10*
X184332025Y-498360322D03*
X181792025Y-498360322D03*
X179252025Y-498360322D03*
D11*
X176712025Y-498360322D03*
D12*
X253062025Y-501800000D03*
X252407026Y-502530000D03*
D13*
X251752025Y-503260000D02*
X253062027Y-501800000D01*
D12*
X258102025Y-500720000D03*
X258082025Y-501010000D03*
D13*
X258062025Y-501300000D02*
X258102025Y-500720000D01*
D12*
X234012025Y-505800000D03*
X233357026Y-506530000D03*
D13*
X232702025Y-507260000D02*
X234012027Y-505800000D01*
D12*
X239052025Y-504720000D03*
X239032025Y-505010000D03*
D13*
X239012025Y-505300000D02*
X239052025Y-504720000D01*
D12*
X214962025Y-500800000D03*
X214307026Y-501530000D03*
D13*
X213652025Y-502260000D02*
X214962027Y-500800000D01*
D12*
X220002025Y-499720000D03*
X219982025Y-500010000D03*
D13*
X219962025Y-500300000D02*
X220002025Y-499720000D01*
D12*
X195912025Y-495800000D03*
X195257026Y-496530000D03*
D13*
X194602025Y-497260000D02*
X195912027Y-495800000D01*
D12*
X200952025Y-494720000D03*
X200932025Y-495010000D03*
D13*
X200912025Y-495300000D02*
X200952025Y-494720000D01*
D12*
X258062025Y-566960322D03*
X258717024Y-566230322D03*
D13*
X259372025Y-565500322D02*
X258062023Y-566960322D01*
D12*
X253022025Y-568040322D03*
X253042025Y-567750322D03*
D13*
X253062025Y-567460322D02*
X253022025Y-568040322D01*
D12*
X258062024Y-547910322D03*
X258717023Y-547180322D03*
D13*
X259372024Y-546450322D02*
X258062022Y-547910322D01*
D12*
X253022024Y-548990322D03*
X253042024Y-548700322D03*
D13*
X253062024Y-548410322D02*
X253022024Y-548990322D01*
D12*
X258062025Y-528860322D03*
X258717024Y-528130322D03*
D13*
X259372025Y-527400322D02*
X258062023Y-528860322D01*
D12*
X253022025Y-529940322D03*
X253042025Y-529650322D03*
D13*
X253062025Y-529360322D02*
X253022025Y-529940322D01*
D12*
X239012025Y-570960323D03*
X239667024Y-570230323D03*
D13*
X240322025Y-569500323D02*
X239012023Y-570960323D01*
D12*
X233972025Y-572040323D03*
X233992025Y-571750323D03*
D13*
X234012025Y-571460323D02*
X233972025Y-572040323D01*
D12*
X239012026Y-551910322D03*
X239667025Y-551180322D03*
D13*
X240322026Y-550450322D02*
X239012024Y-551910322D01*
D12*
X233972026Y-552990322D03*
X233992026Y-552700322D03*
D13*
X234012026Y-552410322D02*
X233972026Y-552990322D01*
D12*
X239012025Y-532860322D03*
X239667024Y-532130322D03*
D13*
X240322025Y-531400322D02*
X239012023Y-532860322D01*
D12*
X233972025Y-533940322D03*
X233992025Y-533650322D03*
D13*
X234012025Y-533360322D02*
X233972025Y-533940322D01*
D12*
X219962025Y-565960322D03*
X220617024Y-565230322D03*
D13*
X221272025Y-564500322D02*
X219962023Y-565960322D01*
D12*
X214922025Y-567040322D03*
X214942025Y-566750322D03*
D13*
X214962025Y-566460322D02*
X214922025Y-567040322D01*
D12*
X219962025Y-546910322D03*
X220617024Y-546180322D03*
D13*
X221272025Y-545450322D02*
X219962023Y-546910322D01*
D12*
X214922025Y-547990322D03*
X214942025Y-547700322D03*
D13*
X214962025Y-547410322D02*
X214922025Y-547990322D01*
D12*
X219962025Y-527860323D03*
X220617024Y-527130323D03*
D13*
X221272025Y-526400323D02*
X219962023Y-527860323D01*
D12*
X214922025Y-528940323D03*
X214942025Y-528650323D03*
D13*
X214962025Y-528360323D02*
X214922025Y-528940323D01*
D12*
X200912025Y-560960322D03*
X201567024Y-560230322D03*
D13*
X202222025Y-559500322D02*
X200912023Y-560960322D01*
D12*
X195872025Y-562040322D03*
X195892025Y-561750322D03*
D13*
X195912025Y-561460322D02*
X195872025Y-562040322D01*
D12*
X200912025Y-541910323D03*
X201567024Y-541180323D03*
D13*
X202222025Y-540450323D02*
X200912023Y-541910323D01*
D12*
X195872025Y-542990323D03*
X195892025Y-542700323D03*
D13*
X195912025Y-542410323D02*
X195872025Y-542990323D01*
D12*
X200912025Y-522860322D03*
X201567024Y-522130322D03*
D13*
X202222025Y-521400322D02*
X200912023Y-522860322D01*
D12*
X195872025Y-523940322D03*
X195892025Y-523650322D03*
D13*
X195912025Y-523360322D02*
X195872025Y-523940322D01*
D10*
X183332025Y-518360322D03*
X180792025Y-518360322D03*
X178252025Y-518360322D03*
D11*
X175712025Y-518360322D03*
D10*
X152912019Y-549610280D03*
X152912019Y-552150280D03*
X152912019Y-554690280D03*
D11*
X152912019Y-557230280D03*
D10*
X152958726Y-499260794D03*
X152958726Y-501800794D03*
X152958726Y-504340794D03*
D11*
X152958726Y-506880794D03*
D10*
X225912025Y-586230322D03*
X225912025Y-583690322D03*
X225912025Y-581150322D03*
D11*
X225912025Y-578610322D03*
D10*
X176239012Y-537342011D03*
X178779012Y-537342011D03*
X181319012Y-537342011D03*
D11*
X183859012Y-537342011D03*
D14*
X170712025Y-598510322D03*
D15*
X170712025Y-598510322D02*
X170712025Y-598510322D01*
D14*
X168258573Y-599167722D03*
D15*
X168258573Y-599167722D02*
X168258573Y-599167722D01*
D14*
X165805122Y-599825123D03*
D15*
X165805122Y-599825123D02*
X165805122Y-599825123D01*
D14*
X163351670Y-600482523D03*
D16*
G36*
X164392703Y-601083564D02*
G01*
X162750629Y-601523556D01*
X162310637Y-599881482D01*
X163952711Y-599441490D01*
X164392703Y-601083564D01*
X164392703Y-601083564D01*
G37*
D10*
X175936722Y-556457847D03*
X178476722Y-556457847D03*
X181016722Y-556457847D03*
D11*
X183556722Y-556457847D03*
D17*
X170712025Y-558687978D02*
X174672991Y-554727012D01*
X253062024Y-550737976D02*
X253062024Y-548410322D01*
X203735453Y-549272990D02*
X208101745Y-553639283D01*
X227772989Y-557172989D02*
X246627011Y-557172989D01*
X246627011Y-557172989D02*
X253062024Y-550737976D01*
X224239283Y-553639283D02*
X227772989Y-557172989D01*
X170712025Y-598510322D02*
X170712025Y-558687978D01*
X195114398Y-549272990D02*
X203735453Y-549272990D01*
X174672991Y-554727012D02*
X189660376Y-554727012D01*
X189660376Y-554727012D02*
X195114398Y-549272990D01*
X208101745Y-553639283D02*
X224239283Y-553639283D01*
X233122348Y-553300000D02*
X234012026Y-552410322D01*
X168258573Y-599167722D02*
X168258573Y-560678968D01*
X168258573Y-560678968D02*
X174537539Y-554400001D01*
X174537539Y-554400001D02*
X189524924Y-554400001D01*
X189524924Y-554400001D02*
X194978946Y-548945979D01*
X203870905Y-548945979D02*
X208224924Y-553300000D01*
X194978946Y-548945979D02*
X203870905Y-548945979D01*
X208224924Y-553300000D02*
X233122348Y-553300000D01*
X213772347Y-548600000D02*
X214962025Y-547410322D01*
X194862462Y-548600000D02*
X213772347Y-548600000D01*
X189435452Y-554027011D02*
X194862462Y-548600000D01*
X165805122Y-562669957D02*
X174448068Y-554027011D01*
X174448068Y-554027011D02*
X189435452Y-554027011D01*
X165805122Y-599825123D02*
X165805122Y-562669957D01*
X194747026Y-548252974D02*
X194747026Y-544115322D01*
X189300000Y-553700000D02*
X194747026Y-548252974D01*
X163351670Y-600482523D02*
X163300000Y-600430853D01*
X174312617Y-553700000D02*
X189300000Y-553700000D01*
X163300000Y-564712617D02*
X174312617Y-553700000D01*
X163300000Y-600430853D02*
X163300000Y-564712617D01*
X194747026Y-544115322D02*
X195872025Y-542990323D01*
X182522347Y-510500000D02*
X203900000Y-510500000D01*
X175712025Y-518360322D02*
X175712025Y-517310322D01*
X175712025Y-517310322D02*
X182522347Y-510500000D01*
X203900000Y-510500000D02*
X205900000Y-508500000D01*
X205900000Y-508500000D02*
X205900000Y-498200000D01*
X205900000Y-498200000D02*
X203000000Y-495300000D01*
X203000000Y-495300000D02*
X200912025Y-495300000D01*
X204035452Y-510827011D02*
X206227011Y-508635452D01*
X178252025Y-518360322D02*
X185785336Y-510827011D01*
X185785336Y-510827011D02*
X204035452Y-510827011D01*
X206227011Y-508635452D02*
X206227011Y-504172989D01*
X206227011Y-504172989D02*
X211804999Y-498595001D01*
X211804999Y-498595001D02*
X218257026Y-498595001D01*
X218257026Y-498595001D02*
X219962025Y-500300000D01*
X207837540Y-514837540D02*
X220662460Y-514837540D01*
X187998325Y-511154022D02*
X204154022Y-511154022D01*
X220662460Y-514837540D02*
X231904999Y-503595001D01*
X180792025Y-518360322D02*
X187998325Y-511154022D01*
X204154022Y-511154022D02*
X207837540Y-514837540D01*
X231904999Y-503595001D02*
X237927026Y-503595001D01*
X237927026Y-503595001D02*
X239052025Y-504720000D01*
X183332025Y-518360322D02*
X190211314Y-511481033D01*
X256977026Y-499595001D02*
X258102025Y-500720000D01*
X251604999Y-499595001D02*
X256977026Y-499595001D01*
X220800000Y-515300000D02*
X224700000Y-519200000D01*
X248700000Y-502500000D02*
X251604999Y-499595001D01*
X248700000Y-516900000D02*
X248700000Y-502500000D01*
X204018571Y-511481033D02*
X207837538Y-515300000D01*
X246400000Y-519200000D02*
X248700000Y-516900000D01*
X190211314Y-511481033D02*
X204018571Y-511481033D01*
X207837538Y-515300000D02*
X220800000Y-515300000D01*
X224700000Y-519200000D02*
X246400000Y-519200000D01*
X189040322Y-562040322D02*
X195872025Y-562040322D01*
X183556722Y-556457847D02*
X183556722Y-556556722D01*
X183556722Y-556556722D02*
X189040322Y-562040322D01*
X190960322Y-566460322D02*
X214962025Y-566460322D01*
X181016722Y-556457847D02*
X181016722Y-556516722D01*
X181016722Y-556516722D02*
X190960322Y-566460322D01*
X178476722Y-556457848D02*
X191200098Y-569181224D01*
X178476722Y-556457847D02*
X178476722Y-556457848D01*
X191200098Y-569181224D02*
X228881224Y-569181224D01*
X228881224Y-569181224D02*
X231600000Y-571900000D01*
X231600000Y-571900000D02*
X233831702Y-571900000D01*
X233831702Y-571900000D02*
X233972025Y-572040323D01*
X246600000Y-557500000D02*
X248400000Y-559300000D01*
X227600000Y-557500000D02*
X246600000Y-557500000D01*
X224100000Y-554000000D02*
X227600000Y-557500000D01*
X208000000Y-554000000D02*
X224100000Y-554000000D01*
X195249850Y-549600001D02*
X203600001Y-549600001D01*
X177340546Y-555054023D02*
X189795828Y-555054023D01*
X203600001Y-549600001D02*
X208000000Y-554000000D01*
X248400000Y-565800000D02*
X250640322Y-568040322D01*
X189795828Y-555054023D02*
X195249850Y-549600001D01*
X248400000Y-559300000D02*
X248400000Y-565800000D01*
X250640322Y-568040322D02*
X251431035Y-568040322D01*
X251431035Y-568040322D02*
X253022025Y-568040322D01*
X175936722Y-556457847D02*
X177340546Y-555054023D01*
X253022025Y-533709148D02*
X253022025Y-531531312D01*
X249231173Y-537500000D02*
X253022025Y-533709148D01*
X253022025Y-531531312D02*
X253022025Y-529940322D01*
X228300000Y-537500000D02*
X249231173Y-537500000D01*
X225427011Y-534627011D02*
X228300000Y-537500000D01*
X208564548Y-534627011D02*
X225427011Y-534627011D01*
X152969720Y-557230280D02*
X174300000Y-535900000D01*
X152912019Y-557230280D02*
X152969720Y-557230280D01*
X174300000Y-535900000D02*
X189287388Y-535900000D01*
X189287388Y-535900000D02*
X195087387Y-530100001D01*
X195087387Y-530100001D02*
X204037538Y-530100001D01*
X204037538Y-530100001D02*
X208564548Y-534627011D01*
X194951935Y-529772990D02*
X204172990Y-529772990D01*
X204172990Y-529772990D02*
X208340322Y-533940322D01*
X232381035Y-533940322D02*
X233972025Y-533940322D01*
X152912019Y-554690280D02*
X172029310Y-535572989D01*
X189151936Y-535572989D02*
X194951935Y-529772990D01*
X172029310Y-535572989D02*
X189151936Y-535572989D01*
X208340322Y-533940322D02*
X232381035Y-533940322D01*
X195322139Y-528940323D02*
X214382025Y-528940323D01*
X152912019Y-552150280D02*
X169816321Y-535245978D01*
X169816321Y-535245978D02*
X189016484Y-535245978D01*
X189016484Y-535245978D02*
X195322139Y-528940323D01*
X214382025Y-528940323D02*
X214962025Y-528360323D01*
X188881033Y-534918967D02*
X195912025Y-527887975D01*
X167603332Y-534918967D02*
X188881033Y-534918967D01*
X195912025Y-527887975D02*
X195912025Y-523360322D01*
X152912019Y-549610280D02*
X167603332Y-534918967D01*
M02*
