G04 #@! TF.GenerationSoftware,KiCad,Pcbnew,(5.1.4)-1*
G04 #@! TF.CreationDate,2023-09-09T05:25:47-04:00*
G04 #@! TF.ProjectId,ThumbsUp,5468756d-6273-4557-902e-6b696361645f,rev?*
G04 #@! TF.SameCoordinates,Original*
G04 #@! TF.FileFunction,Profile,NP*
%FSLAX46Y46*%
G04 Gerber Fmt 4.6, Leading zero omitted, Abs format (unit mm)*
G04 Created by KiCad (PCBNEW (5.1.4)-1) date 2023-09-09 05:25:47*
%MOMM*%
%LPD*%
G04 APERTURE LIST*
%ADD10C,0.050000*%
G04 APERTURE END LIST*
D10*
X262009235Y-496263274D02*
X265112025Y-499660322D01*
X212409235Y-495413274D02*
X207462025Y-490660322D01*
X262009235Y-496263274D02*
X260209235Y-496263274D01*
X225959236Y-495413274D02*
X226809236Y-496263274D01*
X212409235Y-495413274D02*
X225959236Y-495413274D01*
X260209235Y-496263274D02*
X226809236Y-496263274D01*
X245480000Y-502970000D02*
X245480000Y-516000000D01*
X246480000Y-516000000D02*
G75*
G02X245480000Y-516000000I-500000J0D01*
G01*
X246480000Y-502970000D02*
X246480000Y-516000000D01*
X246460000Y-535210000D02*
G75*
G02X245460000Y-535210000I-500000J0D01*
G01*
X246480000Y-554300000D02*
G75*
G02X245480000Y-554300000I-500000J0D01*
G01*
X245480000Y-541280000D02*
X245480000Y-554300000D01*
X245480000Y-541280000D02*
G75*
G02X246480000Y-541280000I500000J0D01*
G01*
X245500000Y-559600000D02*
G75*
G02X246500000Y-559600000I500000J0D01*
G01*
X246500000Y-569600000D02*
G75*
G02X245500000Y-569600000I-500000J0D01*
G01*
X246480000Y-541280000D02*
X246480000Y-554300000D01*
X246500000Y-559600000D02*
X246500000Y-569600000D01*
X265112025Y-499660322D02*
X265112025Y-569410323D01*
X245500000Y-559600000D02*
X245500000Y-569600000D01*
X227212025Y-579310322D02*
X231212025Y-576560322D01*
X188900000Y-546970000D02*
G75*
G03X188900000Y-546970000I-4800000J0D01*
G01*
X186850000Y-528750000D02*
G75*
G03X186850000Y-528750000I-3250000J0D01*
G01*
X151502490Y-586234349D02*
X151521905Y-499306391D01*
X247312025Y-572410323D02*
X249112025Y-572410323D01*
X243162025Y-576560322D02*
X247112025Y-572410322D01*
X247312025Y-572410323D02*
X247112025Y-572410322D01*
X152582510Y-601446632D02*
X149704378Y-590684833D01*
X227212025Y-586410323D02*
X225812025Y-587610323D01*
X265112025Y-569410323D02*
X262012024Y-572410322D01*
X249112025Y-572410323D02*
X262012024Y-572410322D01*
X151521905Y-499306391D02*
X153712026Y-497160322D01*
X190912025Y-490660322D02*
X207462025Y-490660322D01*
X216612025Y-587610322D02*
X225812025Y-587610323D01*
X216612025Y-587610322D02*
X216412025Y-587610323D01*
X151502490Y-586234349D02*
X149704378Y-590684833D01*
X152582510Y-601446632D02*
X161803913Y-602309185D01*
X184212025Y-497160322D02*
X153712026Y-497160322D01*
X243162025Y-576560322D02*
X231212025Y-576560322D01*
X227212025Y-586410323D02*
X227212025Y-579310322D01*
X216412025Y-587610323D02*
X161803913Y-602309185D01*
X190912025Y-490660322D02*
X184212025Y-497160322D01*
X245480000Y-502970000D02*
G75*
G02X246480000Y-502970000I500000J0D01*
G01*
X245450000Y-522180000D02*
G75*
G02X246450000Y-522180000I500000J0D01*
G01*
X245450000Y-522180000D02*
X245460000Y-535210000D01*
X246450000Y-522180000D02*
X246460000Y-535210000D01*
M02*
