M48
; DRILL file {KiCad (5.1.4)-1} date 5/19/2023 8:47:58 AM
; FORMAT={-:-/ absolute / metric / decimal}
; #@! TF.CreationDate,2023-05-19T08:47:58-04:00
; #@! TF.GenerationSoftware,Kicad,Pcbnew,(5.1.4)-1
; #@! TF.FileFunction,Plated,1,2,PTH
FMAT,2
METRIC
T1C1.000
T2C1.470
%
G90
G05
T1
X176.712Y-498.36
X179.252Y-498.36
X181.792Y-498.36
X184.332Y-498.36
X152.912Y-549.61
X152.912Y-552.15
X152.912Y-554.69
X152.912Y-557.23
X152.959Y-499.261
X152.959Y-501.801
X152.959Y-504.341
X152.959Y-506.881
X175.937Y-556.458
X178.477Y-556.458
X181.017Y-556.458
X183.557Y-556.458
X225.912Y-578.61
X225.912Y-581.15
X225.912Y-583.69
X225.912Y-586.23
X175.712Y-518.36
X178.252Y-518.36
X180.792Y-518.36
X183.332Y-518.36
X176.239Y-537.342
X178.779Y-537.342
X181.319Y-537.342
X183.859Y-537.342
X163.352Y-600.483
X165.805Y-599.825
X168.259Y-599.168
X170.712Y-598.51
T2
X253.022Y-568.04
X253.062Y-567.46
X258.062Y-566.96
X259.372Y-565.5
X233.972Y-533.94
X234.012Y-533.36
X239.012Y-532.86
X240.322Y-531.4
X253.022Y-548.99
X253.062Y-548.41
X258.062Y-547.91
X259.372Y-546.45
X195.872Y-523.94
X195.912Y-523.36
X200.912Y-522.86
X202.222Y-521.4
X194.602Y-497.26
X195.912Y-495.8
X200.912Y-495.3
X200.952Y-494.72
X232.702Y-507.26
X234.012Y-505.8
X239.012Y-505.3
X239.052Y-504.72
X253.022Y-529.94
X253.062Y-529.36
X258.062Y-528.86
X259.372Y-527.4
X214.922Y-567.04
X214.962Y-566.46
X219.962Y-565.96
X221.272Y-564.5
X251.752Y-503.26
X253.062Y-501.8
X258.062Y-501.3
X258.102Y-500.72
X195.872Y-562.04
X195.912Y-561.46
X200.912Y-560.96
X202.222Y-559.5
X214.922Y-547.99
X214.962Y-547.41
X219.962Y-546.91
X221.272Y-545.45
X233.972Y-552.99
X234.012Y-552.41
X239.012Y-551.91
X240.322Y-550.45
X213.652Y-502.26
X214.962Y-500.8
X219.962Y-500.3
X220.002Y-499.72
X214.922Y-528.94
X214.962Y-528.36
X219.962Y-527.86
X221.272Y-526.4
X195.872Y-542.99
X195.912Y-542.41
X200.912Y-541.91
X202.222Y-540.45
X233.972Y-572.04
X234.012Y-571.46
X239.012Y-570.96
X240.322Y-569.5
T0
M30
