G04 #@! TF.GenerationSoftware,KiCad,Pcbnew,(5.1.4)-1*
G04 #@! TF.CreationDate,2023-09-09T05:25:46-04:00*
G04 #@! TF.ProjectId,ThumbsUp,5468756d-6273-4557-902e-6b696361645f,rev?*
G04 #@! TF.SameCoordinates,Original*
G04 #@! TF.FileFunction,Copper,L1,Top*
G04 #@! TF.FilePolarity,Positive*
%FSLAX46Y46*%
G04 Gerber Fmt 4.6, Leading zero omitted, Abs format (unit mm)*
G04 Created by KiCad (PCBNEW (5.1.4)-1) date 2023-09-09 05:25:46*
%MOMM*%
%LPD*%
G04 APERTURE LIST*
%ADD10O,1.700000X1.700000*%
%ADD11R,1.700000X1.700000*%
%ADD12C,1.700000*%
%ADD13C,1.700000*%
%ADD14C,0.100000*%
%ADD15C,3.000000*%
%ADD16C,0.800000*%
%ADD17C,0.200000*%
G04 APERTURE END LIST*
D10*
X175936722Y-556457847D03*
X178476722Y-556457847D03*
X181016722Y-556457847D03*
D11*
X183556722Y-556457847D03*
D10*
X176239012Y-537342011D03*
X178779012Y-537342011D03*
X181319012Y-537342011D03*
D11*
X183859012Y-537342011D03*
D10*
X225912025Y-586230322D03*
X225912025Y-583690322D03*
X225912025Y-581150322D03*
D11*
X225912025Y-578610322D03*
D10*
X152958726Y-499260794D03*
X152958726Y-501800794D03*
X152958726Y-504340794D03*
D11*
X152958726Y-506880794D03*
D12*
X170712025Y-598510322D03*
D13*
X170712025Y-598510322D02*
X170712025Y-598510322D01*
D12*
X168258573Y-599167722D03*
D13*
X168258573Y-599167722D02*
X168258573Y-599167722D01*
D12*
X165805122Y-599825123D03*
D13*
X165805122Y-599825123D02*
X165805122Y-599825123D01*
D12*
X163351670Y-600482523D03*
D14*
G36*
X164392703Y-601083564D02*
G01*
X162750629Y-601523556D01*
X162310637Y-599881482D01*
X163952711Y-599441490D01*
X164392703Y-601083564D01*
X164392703Y-601083564D01*
G37*
D10*
X152912019Y-549610280D03*
X152912019Y-552150280D03*
X152912019Y-554690280D03*
D11*
X152912019Y-557230280D03*
D10*
X183332025Y-518360322D03*
X180792025Y-518360322D03*
X178252025Y-518360322D03*
D11*
X175712025Y-518360322D03*
D10*
X184332025Y-498360322D03*
X181792025Y-498360322D03*
X179252025Y-498360322D03*
D11*
X176712025Y-498360322D03*
D15*
X231812025Y-571360323D03*
X239112025Y-572710323D03*
X203112025Y-495400000D03*
X195812025Y-494050000D03*
X241212025Y-505400000D03*
X233912025Y-504050000D03*
X212762025Y-547310322D03*
X220062025Y-548660322D03*
X212762025Y-528260323D03*
X220062025Y-529610323D03*
X260262025Y-501400000D03*
X252962025Y-500050000D03*
X231812025Y-533260322D03*
X239112025Y-534610322D03*
X193712025Y-523260322D03*
X201012025Y-524610322D03*
X193712025Y-561360322D03*
X201012025Y-562710322D03*
X212762025Y-566360322D03*
X220062025Y-567710322D03*
X250862025Y-529260322D03*
X258162025Y-530610322D03*
X250862024Y-548310322D03*
X258162024Y-549660322D03*
X193712025Y-542310323D03*
X201012025Y-543660323D03*
X250862025Y-567360322D03*
X258162025Y-568710322D03*
X231812026Y-552310322D03*
X239112026Y-553660322D03*
X222162025Y-500400000D03*
X214862025Y-499050000D03*
D16*
X247700000Y-545500000D03*
X228500000Y-548900000D03*
X209800000Y-544100000D03*
X190600000Y-539100000D03*
X205900000Y-499300000D03*
X225300000Y-503900000D03*
X244600000Y-508800000D03*
X263200000Y-504800000D03*
X190500000Y-558200000D03*
X209600000Y-562900000D03*
X228700000Y-568000000D03*
X247700000Y-563900000D03*
X247700000Y-525900000D03*
X228700000Y-530000000D03*
X209800000Y-525000000D03*
X190700000Y-520000000D03*
D17*
X246627011Y-557172989D02*
X246727011Y-557172989D01*
X246727011Y-557172989D02*
X247700000Y-556200000D01*
X247700000Y-556200000D02*
X247700000Y-545500000D01*
X174672991Y-554727012D02*
X189660376Y-554727012D01*
X227772989Y-557172989D02*
X246627011Y-557172989D01*
X208101745Y-553639283D02*
X224239283Y-553639283D01*
X189660376Y-554727012D02*
X195114398Y-549272990D01*
X195114398Y-549272990D02*
X203735453Y-549272990D01*
X170712025Y-598510322D02*
X170712025Y-558687978D01*
X224239283Y-553639283D02*
X227772989Y-557172989D01*
X203735453Y-549272990D02*
X208101745Y-553639283D01*
X170712025Y-558687978D02*
X174672991Y-554727012D01*
X224100000Y-553300000D02*
X228500000Y-548900000D01*
X208224924Y-553300000D02*
X224100000Y-553300000D01*
X203870905Y-548945979D02*
X208224924Y-553300000D01*
X189524924Y-554400001D02*
X194978946Y-548945979D01*
X194978946Y-548945979D02*
X203870905Y-548945979D01*
X174537539Y-554400001D02*
X189524924Y-554400001D01*
X168258573Y-560678968D02*
X174537539Y-554400001D01*
X168258573Y-599167722D02*
X168258573Y-560678968D01*
X194862462Y-548600000D02*
X205300000Y-548600000D01*
X205300000Y-548600000D02*
X209800000Y-544100000D01*
X165805122Y-562669957D02*
X174448068Y-554027011D01*
X189435452Y-554027011D02*
X194862462Y-548600000D01*
X165805122Y-599825123D02*
X165805122Y-562669957D01*
X174448068Y-554027011D02*
X189435452Y-554027011D01*
X190600000Y-552400000D02*
X190600000Y-539100000D01*
X163300000Y-564712617D02*
X174312617Y-553700000D01*
X163300000Y-600430853D02*
X163300000Y-564712617D01*
X174312617Y-553700000D02*
X189300000Y-553700000D01*
X163351670Y-600482523D02*
X163300000Y-600430853D01*
X189300000Y-553700000D02*
X190600000Y-552400000D01*
X175712025Y-517310322D02*
X182543380Y-510478967D01*
X175712025Y-518360322D02*
X175712025Y-517310322D01*
X182543380Y-510478967D02*
X203921033Y-510478967D01*
X205900000Y-499865685D02*
X205900000Y-499300000D01*
X205900000Y-508500000D02*
X205900000Y-499865685D01*
X203921033Y-510478967D02*
X205900000Y-508500000D01*
X225300000Y-510800000D02*
X225300000Y-504465685D01*
X185806369Y-510805978D02*
X204014419Y-510805978D01*
X178252025Y-518360322D02*
X185806369Y-510805978D01*
X221904022Y-514195978D02*
X225300000Y-510800000D01*
X207404419Y-514195978D02*
X221904022Y-514195978D01*
X204014419Y-510805978D02*
X207404419Y-514195978D01*
X225300000Y-504465685D02*
X225300000Y-503900000D01*
X241500000Y-518600000D02*
X244600000Y-515500000D01*
X226002462Y-518600000D02*
X241500000Y-518600000D01*
X180792025Y-518360322D02*
X188019358Y-511132989D01*
X188019358Y-511132989D02*
X203878967Y-511132989D01*
X244600000Y-515500000D02*
X244600000Y-509365685D01*
X207268967Y-514522989D02*
X221925452Y-514522989D01*
X203878967Y-511132989D02*
X207268967Y-514522989D01*
X244600000Y-509365685D02*
X244600000Y-508800000D01*
X221925452Y-514522989D02*
X226002462Y-518600000D01*
X190232347Y-511460000D02*
X203743515Y-511460000D01*
X221790000Y-514850000D02*
X225870000Y-518930000D01*
X225870000Y-518930000D02*
X246670000Y-518930000D01*
X246670000Y-518930000D02*
X248700000Y-516900000D01*
X263200000Y-505100000D02*
X263200000Y-504800000D01*
X248700000Y-516900000D02*
X256500000Y-516900000D01*
X256500000Y-516900000D02*
X263200000Y-510200000D01*
X203743515Y-511460000D02*
X207133515Y-514850000D01*
X207133515Y-514850000D02*
X221790000Y-514850000D01*
X183332025Y-518360322D02*
X190232347Y-511460000D01*
X263200000Y-510200000D02*
X263200000Y-505100000D01*
X183556722Y-556457847D02*
X183556722Y-556556722D01*
X185200000Y-558200000D02*
X190400000Y-558200000D01*
X183556722Y-556556722D02*
X185200000Y-558200000D01*
X190400000Y-558200000D02*
X190500000Y-558200000D01*
X181016722Y-556516722D02*
X190600000Y-566100000D01*
X190600000Y-566100000D02*
X206300000Y-566100000D01*
X206300000Y-566100000D02*
X209500000Y-562900000D01*
X209500000Y-562900000D02*
X209600000Y-562900000D01*
X181016722Y-556457847D02*
X181016722Y-556516722D01*
X191200098Y-569181224D02*
X191918874Y-569900000D01*
X191918874Y-569900000D02*
X226500000Y-569900000D01*
X226500000Y-569900000D02*
X226800000Y-569900000D01*
X226800000Y-569900000D02*
X228700000Y-568000000D01*
X178476722Y-556457848D02*
X191200098Y-569181224D01*
X178476722Y-556457847D02*
X178476722Y-556457848D01*
X208000000Y-554000000D02*
X224100000Y-554000000D01*
X227600000Y-557500000D02*
X246600000Y-557500000D01*
X189795828Y-555054023D02*
X195249850Y-549600001D01*
X203600001Y-549600001D02*
X208000000Y-554000000D01*
X195249850Y-549600001D02*
X203600001Y-549600001D01*
X175936722Y-556457847D02*
X177340546Y-555054023D01*
X224100000Y-554000000D02*
X227600000Y-557500000D01*
X177340546Y-555054023D02*
X189795828Y-555054023D01*
X246600000Y-557500000D02*
X247700000Y-558600000D01*
X247700000Y-558600000D02*
X247700000Y-563900000D01*
X195073366Y-530114022D02*
X205154022Y-530114022D01*
X247700000Y-526465685D02*
X247700000Y-525900000D01*
X228030000Y-537500000D02*
X246600000Y-537500000D01*
X246600000Y-537500000D02*
X247700000Y-536400000D01*
X224820000Y-534290000D02*
X228030000Y-537500000D01*
X189287388Y-535900000D02*
X195073366Y-530114022D01*
X153962019Y-557230280D02*
X175292299Y-535900000D01*
X152912019Y-557230280D02*
X153962019Y-557230280D01*
X175292299Y-535900000D02*
X189287388Y-535900000D01*
X205154022Y-530114022D02*
X209330000Y-534290000D01*
X209330000Y-534290000D02*
X224820000Y-534290000D01*
X247700000Y-536400000D02*
X247700000Y-526465685D01*
X172029310Y-535572989D02*
X189151936Y-535572989D01*
X209442784Y-533940322D02*
X224759678Y-533940322D01*
X194937914Y-529787011D02*
X205289474Y-529787011D01*
X189151936Y-535572989D02*
X194937914Y-529787011D01*
X224759678Y-533940322D02*
X228300001Y-530399999D01*
X205289474Y-529787011D02*
X209442784Y-533940322D01*
X152912019Y-554690280D02*
X172029310Y-535572989D01*
X228300001Y-530399999D02*
X228700000Y-530000000D01*
X189016484Y-535245978D02*
X194802462Y-529460000D01*
X194802462Y-529460000D02*
X205340000Y-529460000D01*
X169816321Y-535245978D02*
X189016484Y-535245978D01*
X152912019Y-552150280D02*
X169816321Y-535245978D01*
X205340000Y-529460000D02*
X209800000Y-525000000D01*
X152912019Y-549610280D02*
X167603332Y-534918967D01*
X188881033Y-534918967D02*
X190700000Y-533100000D01*
X167603332Y-534918967D02*
X188881033Y-534918967D01*
X190700000Y-533100000D02*
X190700000Y-520100000D01*
X190700000Y-520100000D02*
X190700000Y-520000000D01*
M02*
