%FSLAX45Y45*%
G04 Gerber Fmt 4.5, Leading zero omitted, Abs format (unit mm)*
G04 Created by KiCad (PCBNEW (5.1.4)-1) date 2023-05-19 08:48:04*
%MOMM*%
%LPD*%
G04 APERTURE LIST*
%ADD10C,0.050000*%
%ADD11C,0.200000*%
%ADD12C,0.300000*%
G04 APERTURE END LIST*
D10*
X24648000Y-50298000D02*
X24648000Y-51600000D01*
X24648000Y-51600000D02*
G75*
G02X24548000Y-51600000I-50000J0D01*
G01*
X24548000Y-50298000D02*
G75*
G02X24648000Y-50298000I50000J0D01*
G01*
X24548000Y-50298000D02*
X24548000Y-51600000D01*
X24648000Y-52218000D02*
X24648000Y-53520000D01*
X24648000Y-53520000D02*
G75*
G02X24548000Y-53520000I-50000J0D01*
G01*
X24548000Y-52218000D02*
G75*
G02X24648000Y-52218000I50000J0D01*
G01*
X24548000Y-52218000D02*
X24548000Y-53520000D01*
X24648000Y-54128000D02*
X24648000Y-55430000D01*
X24548000Y-54128000D02*
G75*
G02X24648000Y-54128000I50000J0D01*
G01*
X24648000Y-55430000D02*
G75*
G02X24548000Y-55430000I-50000J0D01*
G01*
X24548000Y-54128000D02*
X24548000Y-55430000D01*
X24550000Y-55960000D02*
G75*
G02X24650000Y-55960000I50000J0D01*
G01*
X24650000Y-56960000D02*
G75*
G02X24550000Y-56960000I-50000J0D01*
G01*
X24650000Y-55960000D02*
X24650000Y-56960000D01*
X24550000Y-55960000D02*
X24550000Y-56960000D01*
X15150249Y-58623435D02*
X15152190Y-49930639D01*
X26511202Y-49966032D02*
X26511202Y-56941032D01*
X22721202Y-57931032D02*
X23121202Y-57656032D01*
X24731202Y-57241032D02*
X24911202Y-57241032D01*
X22861202Y-49626032D02*
X22681202Y-49626032D01*
X18890000Y-54697000D02*
G75*
G03X18890000Y-54697000I-480000J0D01*
G01*
X18685000Y-52875000D02*
G75*
G03X18685000Y-52875000I-325000J0D01*
G01*
X21641203Y-58761032D02*
X16180391Y-60230918D01*
X22721202Y-58641032D02*
X22721202Y-57931032D01*
X19091203Y-49066032D02*
X18421203Y-49716032D01*
X24316202Y-57656032D02*
X23121202Y-57656032D01*
X21241203Y-49541032D02*
X20746203Y-49066032D01*
X22596202Y-49541032D02*
X22681202Y-49626032D01*
X26201202Y-49626032D02*
X26511202Y-49966032D01*
X24911202Y-57241032D02*
X26201202Y-57241032D01*
X19091203Y-49066032D02*
X20746203Y-49066032D01*
X26201202Y-49626032D02*
X22861202Y-49626032D01*
X21661203Y-58761032D02*
X22581202Y-58761032D01*
X24316202Y-57656032D02*
X24711202Y-57241032D01*
X21661203Y-58761032D02*
X21641203Y-58761032D01*
X22721202Y-58641032D02*
X22581202Y-58761032D01*
X21241203Y-49541032D02*
X22596202Y-49541032D01*
X18421203Y-49716032D02*
X15371203Y-49716032D01*
X26511202Y-56941032D02*
X26201202Y-57241032D01*
X15152190Y-49930639D02*
X15371203Y-49716032D01*
X24731202Y-57241032D02*
X24711202Y-57241032D01*
X15258251Y-60144663D02*
X16180391Y-60230918D01*
X15150249Y-58623435D02*
X14970438Y-59068483D01*
X15258251Y-60144663D02*
X14970438Y-59068483D01*
D11*
X24960702Y-56208532D02*
X25135702Y-56383532D01*
X25135702Y-56208532D02*
X24960702Y-56383532D01*
X25976702Y-56208532D02*
X26151702Y-56383532D01*
X26151702Y-56208532D02*
X25976702Y-56383532D01*
X23055702Y-52798532D02*
X23230702Y-52973532D01*
X23230702Y-52798532D02*
X23055702Y-52973532D01*
X24071702Y-52798532D02*
X24246702Y-52973532D01*
X24246702Y-52798532D02*
X24071702Y-52973532D01*
X24960702Y-54303532D02*
X25135702Y-54478532D01*
X25135702Y-54303532D02*
X24960702Y-54478532D01*
X25976702Y-54303532D02*
X26151702Y-54478532D01*
X26151702Y-54303532D02*
X25976702Y-54478532D01*
X19245703Y-51798532D02*
X19420703Y-51973532D01*
X19420703Y-51798532D02*
X19245703Y-51973532D01*
X20261703Y-51798532D02*
X20436703Y-51973532D01*
X20436703Y-51798532D02*
X20261703Y-51973532D01*
X19245703Y-49892500D02*
X19420703Y-50067500D01*
X19420703Y-49892500D02*
X19245703Y-50067500D01*
X20261703Y-49892500D02*
X20436703Y-50067500D01*
X20436703Y-49892500D02*
X20261703Y-50067500D01*
X23055702Y-50892500D02*
X23230702Y-51067500D01*
X23230702Y-50892500D02*
X23055702Y-51067500D01*
X24071702Y-50892500D02*
X24246702Y-51067500D01*
X24246702Y-50892500D02*
X24071702Y-51067500D01*
X24960702Y-52398532D02*
X25135702Y-52573532D01*
X25135702Y-52398532D02*
X24960702Y-52573532D01*
X25976702Y-52398532D02*
X26151702Y-52573532D01*
X26151702Y-52398532D02*
X25976702Y-52573532D01*
X21150703Y-56108532D02*
X21325703Y-56283532D01*
X21325703Y-56108532D02*
X21150703Y-56283532D01*
X22166703Y-56108532D02*
X22341703Y-56283532D01*
X22341703Y-56108532D02*
X22166703Y-56283532D01*
X24960702Y-50492500D02*
X25135702Y-50667500D01*
X25135702Y-50492500D02*
X24960702Y-50667500D01*
X25976702Y-50492500D02*
X26151702Y-50667500D01*
X26151702Y-50492500D02*
X25976702Y-50667500D01*
X19245703Y-55608532D02*
X19420703Y-55783532D01*
X19420703Y-55608532D02*
X19245703Y-55783532D01*
X20261703Y-55608532D02*
X20436703Y-55783532D01*
X20436703Y-55608532D02*
X20261703Y-55783532D01*
X21150703Y-54203532D02*
X21325703Y-54378532D01*
X21325703Y-54203532D02*
X21150703Y-54378532D01*
X22166703Y-54203532D02*
X22341703Y-54378532D01*
X22341703Y-54203532D02*
X22166703Y-54378532D01*
X23055703Y-54703532D02*
X23230703Y-54878532D01*
X23230703Y-54703532D02*
X23055703Y-54878532D01*
X24071703Y-54703532D02*
X24246703Y-54878532D01*
X24246703Y-54703532D02*
X24071703Y-54878532D01*
X21150703Y-50392500D02*
X21325703Y-50567500D01*
X21325703Y-50392500D02*
X21150703Y-50567500D01*
X22166703Y-50392500D02*
X22341703Y-50567500D01*
X22341703Y-50392500D02*
X22166703Y-50567500D01*
X21150703Y-52298532D02*
X21325703Y-52473532D01*
X21325703Y-52298532D02*
X21150703Y-52473532D01*
X22166703Y-52298532D02*
X22341703Y-52473532D01*
X22341703Y-52298532D02*
X22166703Y-52473532D01*
X19245703Y-53703532D02*
X19420703Y-53878532D01*
X19420703Y-53703532D02*
X19245703Y-53878532D01*
X20261703Y-53703532D02*
X20436703Y-53878532D01*
X20436703Y-53703532D02*
X20261703Y-53878532D01*
X23055702Y-56608532D02*
X23230702Y-56783532D01*
X23230702Y-56608532D02*
X23055702Y-56783532D01*
X24071702Y-56608532D02*
X24246702Y-56783532D01*
X24246702Y-56608532D02*
X24071702Y-56783532D01*
X25325202Y-54137032D02*
G75*
G03X25325202Y-54137032I-150000J0D01*
G01*
X25960202Y-53883032D02*
G75*
G03X25960202Y-53883032I-150000J0D01*
G01*
X19610203Y-51632032D02*
G75*
G03X19610203Y-51632032I-150000J0D01*
G01*
X20245203Y-51378032D02*
G75*
G03X20245203Y-51378032I-150000J0D01*
G01*
X19737203Y-50488000D02*
G75*
G03X19737203Y-50488000I-150000J0D01*
G01*
X20372203Y-50234000D02*
G75*
G03X20372203Y-50234000I-150000J0D01*
G01*
X23547202Y-51488000D02*
G75*
G03X23547202Y-51488000I-150000J0D01*
G01*
X24182202Y-51234000D02*
G75*
G03X24182202Y-51234000I-150000J0D01*
G01*
X25325202Y-52232032D02*
G75*
G03X25325202Y-52232032I-150000J0D01*
G01*
X25960202Y-51978032D02*
G75*
G03X25960202Y-51978032I-150000J0D01*
G01*
X21515203Y-55942032D02*
G75*
G03X21515203Y-55942032I-150000J0D01*
G01*
X22150203Y-55688032D02*
G75*
G03X22150203Y-55688032I-150000J0D01*
G01*
X25452202Y-51088000D02*
G75*
G03X25452202Y-51088000I-150000J0D01*
G01*
X26087202Y-50834000D02*
G75*
G03X26087202Y-50834000I-150000J0D01*
G01*
X19610203Y-55442032D02*
G75*
G03X19610203Y-55442032I-150000J0D01*
G01*
X20245203Y-55188032D02*
G75*
G03X20245203Y-55188032I-150000J0D01*
G01*
X21515203Y-54037032D02*
G75*
G03X21515203Y-54037032I-150000J0D01*
G01*
X22150203Y-53783032D02*
G75*
G03X22150203Y-53783032I-150000J0D01*
G01*
X23420203Y-54537032D02*
G75*
G03X23420203Y-54537032I-150000J0D01*
G01*
X24055203Y-54283032D02*
G75*
G03X24055203Y-54283032I-150000J0D01*
G01*
X21642203Y-50988000D02*
G75*
G03X21642203Y-50988000I-150000J0D01*
G01*
X22277203Y-50734000D02*
G75*
G03X22277203Y-50734000I-150000J0D01*
G01*
X21515203Y-52132032D02*
G75*
G03X21515203Y-52132032I-150000J0D01*
G01*
X22150203Y-51878032D02*
G75*
G03X22150203Y-51878032I-150000J0D01*
G01*
X19610203Y-53537032D02*
G75*
G03X19610203Y-53537032I-150000J0D01*
G01*
X20245203Y-53283032D02*
G75*
G03X20245203Y-53283032I-150000J0D01*
G01*
X23420202Y-56442032D02*
G75*
G03X23420202Y-56442032I-150000J0D01*
G01*
X24055202Y-56188032D02*
G75*
G03X24055202Y-56188032I-150000J0D01*
G01*
X25325202Y-56042032D02*
G75*
G03X25325202Y-56042032I-150000J0D01*
G01*
X25960202Y-55788032D02*
G75*
G03X25960202Y-55788032I-150000J0D01*
G01*
X23420202Y-52632032D02*
G75*
G03X23420202Y-52632032I-150000J0D01*
G01*
X24055202Y-52378032D02*
G75*
G03X24055202Y-52378032I-150000J0D01*
G01*
X23651203Y-54591642D02*
X23651203Y-54990422D01*
X23451813Y-54791032D02*
X23850593Y-54791032D01*
X21746203Y-50280610D02*
X21746203Y-50679390D01*
X21546813Y-50480000D02*
X21945593Y-50480000D01*
X21746203Y-52186642D02*
X21746203Y-52585422D01*
X21546813Y-52386032D02*
X21945593Y-52386032D01*
X19841203Y-53591642D02*
X19841203Y-53990422D01*
X19641813Y-53791032D02*
X20040593Y-53791032D01*
X23651202Y-56496642D02*
X23651202Y-56895422D01*
X23451812Y-56696032D02*
X23850592Y-56696032D01*
X25556202Y-56096642D02*
X25556202Y-56495422D01*
X25356812Y-56296032D02*
X25755592Y-56296032D01*
X23651202Y-52686642D02*
X23651202Y-53085422D01*
X23451812Y-52886032D02*
X23850592Y-52886032D01*
X25556202Y-54191642D02*
X25556202Y-54590422D01*
X25356812Y-54391032D02*
X25755592Y-54391032D01*
X19841203Y-51686642D02*
X19841203Y-52085422D01*
X19641813Y-51886032D02*
X20040593Y-51886032D01*
X19841203Y-49780610D02*
X19841203Y-50179390D01*
X19641813Y-49980000D02*
X20040593Y-49980000D01*
X23651202Y-50780610D02*
X23651202Y-51179390D01*
X23451812Y-50980000D02*
X23850592Y-50980000D01*
X25556202Y-52286642D02*
X25556202Y-52685422D01*
X25356812Y-52486032D02*
X25755592Y-52486032D01*
X21746203Y-55996642D02*
X21746203Y-56395422D01*
X21546813Y-56196032D02*
X21945593Y-56196032D01*
X25556202Y-50380610D02*
X25556202Y-50779390D01*
X25356812Y-50580000D02*
X25755592Y-50580000D01*
X19841203Y-55496642D02*
X19841203Y-55895422D01*
X19641813Y-55696032D02*
X20040593Y-55696032D01*
X21746203Y-54091642D02*
X21746203Y-54490422D01*
X21546813Y-54291032D02*
X21945593Y-54291032D01*
D12*
X15254366Y-60699133D02*
X15254366Y-60399133D01*
X15325795Y-60399133D01*
X15368652Y-60413419D01*
X15397223Y-60441990D01*
X15411509Y-60470561D01*
X15425795Y-60527704D01*
X15425795Y-60570561D01*
X15411509Y-60627704D01*
X15397223Y-60656276D01*
X15368652Y-60684847D01*
X15325795Y-60699133D01*
X15254366Y-60699133D01*
X15554366Y-60699133D02*
X15554366Y-60499133D01*
X15554366Y-60556276D02*
X15568652Y-60527704D01*
X15582938Y-60513419D01*
X15611509Y-60499133D01*
X15640080Y-60499133D01*
X15740080Y-60699133D02*
X15740080Y-60499133D01*
X15740080Y-60399133D02*
X15725795Y-60413419D01*
X15740080Y-60427704D01*
X15754366Y-60413419D01*
X15740080Y-60399133D01*
X15740080Y-60427704D01*
X15925795Y-60699133D02*
X15897223Y-60684847D01*
X15882938Y-60656276D01*
X15882938Y-60399133D01*
X16082938Y-60699133D02*
X16054366Y-60684847D01*
X16040080Y-60656276D01*
X16040080Y-60399133D01*
X16425795Y-60699133D02*
X16425795Y-60399133D01*
X16525795Y-60613419D01*
X16625795Y-60399133D01*
X16625795Y-60699133D01*
X16897223Y-60699133D02*
X16897223Y-60541990D01*
X16882938Y-60513419D01*
X16854366Y-60499133D01*
X16797223Y-60499133D01*
X16768652Y-60513419D01*
X16897223Y-60684847D02*
X16868652Y-60699133D01*
X16797223Y-60699133D01*
X16768652Y-60684847D01*
X16754366Y-60656276D01*
X16754366Y-60627704D01*
X16768652Y-60599133D01*
X16797223Y-60584847D01*
X16868652Y-60584847D01*
X16897223Y-60570561D01*
X17040081Y-60499133D02*
X17040081Y-60799133D01*
X17040081Y-60513419D02*
X17068652Y-60499133D01*
X17125795Y-60499133D01*
X17154366Y-60513419D01*
X17168652Y-60527704D01*
X17182938Y-60556276D01*
X17182938Y-60641990D01*
X17168652Y-60670561D01*
X17154366Y-60684847D01*
X17125795Y-60699133D01*
X17068652Y-60699133D01*
X17040081Y-60684847D01*
X17311509Y-60670561D02*
X17325795Y-60684847D01*
X17311509Y-60699133D01*
X17297223Y-60684847D01*
X17311509Y-60670561D01*
X17311509Y-60699133D01*
X17311509Y-60513419D02*
X17325795Y-60527704D01*
X17311509Y-60541990D01*
X17297223Y-60527704D01*
X17311509Y-60513419D01*
X17311509Y-60541990D01*
X14792938Y-61105919D02*
X14967938Y-61280919D01*
X14967938Y-61105919D02*
X14792938Y-61280919D01*
X15411509Y-61329133D02*
X15240080Y-61329133D01*
X15325795Y-61329133D02*
X15325795Y-61029133D01*
X15297223Y-61071990D01*
X15268652Y-61100561D01*
X15240080Y-61114847D01*
X15540080Y-61300561D02*
X15554366Y-61314847D01*
X15540080Y-61329133D01*
X15525795Y-61314847D01*
X15540080Y-61300561D01*
X15540080Y-61329133D01*
X15654366Y-61029133D02*
X15854366Y-61029133D01*
X15725795Y-61329133D01*
X16111509Y-61029133D02*
X15968652Y-61029133D01*
X15954366Y-61171990D01*
X15968652Y-61157704D01*
X15997223Y-61143419D01*
X16068652Y-61143419D01*
X16097223Y-61157704D01*
X16111509Y-61171990D01*
X16125795Y-61200561D01*
X16125795Y-61271990D01*
X16111509Y-61300561D01*
X16097223Y-61314847D01*
X16068652Y-61329133D01*
X15997223Y-61329133D01*
X15968652Y-61314847D01*
X15954366Y-61300561D01*
X16254366Y-61329133D02*
X16254366Y-61129133D01*
X16254366Y-61157704D02*
X16268652Y-61143419D01*
X16297223Y-61129133D01*
X16340080Y-61129133D01*
X16368652Y-61143419D01*
X16382938Y-61171990D01*
X16382938Y-61329133D01*
X16382938Y-61171990D02*
X16397223Y-61143419D01*
X16425795Y-61129133D01*
X16468652Y-61129133D01*
X16497223Y-61143419D01*
X16511509Y-61171990D01*
X16511509Y-61329133D01*
X16654366Y-61329133D02*
X16654366Y-61129133D01*
X16654366Y-61157704D02*
X16668652Y-61143419D01*
X16697223Y-61129133D01*
X16740080Y-61129133D01*
X16768652Y-61143419D01*
X16782938Y-61171990D01*
X16782938Y-61329133D01*
X16782938Y-61171990D02*
X16797223Y-61143419D01*
X16825795Y-61129133D01*
X16868652Y-61129133D01*
X16897223Y-61143419D01*
X16911509Y-61171990D01*
X16911509Y-61329133D01*
X17497223Y-61014847D02*
X17240081Y-61400561D01*
X17882938Y-61029133D02*
X17911509Y-61029133D01*
X17940081Y-61043419D01*
X17954366Y-61057704D01*
X17968652Y-61086276D01*
X17982938Y-61143419D01*
X17982938Y-61214847D01*
X17968652Y-61271990D01*
X17954366Y-61300561D01*
X17940081Y-61314847D01*
X17911509Y-61329133D01*
X17882938Y-61329133D01*
X17854366Y-61314847D01*
X17840081Y-61300561D01*
X17825795Y-61271990D01*
X17811509Y-61214847D01*
X17811509Y-61143419D01*
X17825795Y-61086276D01*
X17840081Y-61057704D01*
X17854366Y-61043419D01*
X17882938Y-61029133D01*
X18111509Y-61300561D02*
X18125795Y-61314847D01*
X18111509Y-61329133D01*
X18097223Y-61314847D01*
X18111509Y-61300561D01*
X18111509Y-61329133D01*
X18311509Y-61029133D02*
X18340081Y-61029133D01*
X18368652Y-61043419D01*
X18382938Y-61057704D01*
X18397223Y-61086276D01*
X18411509Y-61143419D01*
X18411509Y-61214847D01*
X18397223Y-61271990D01*
X18382938Y-61300561D01*
X18368652Y-61314847D01*
X18340081Y-61329133D01*
X18311509Y-61329133D01*
X18282938Y-61314847D01*
X18268652Y-61300561D01*
X18254366Y-61271990D01*
X18240081Y-61214847D01*
X18240081Y-61143419D01*
X18254366Y-61086276D01*
X18268652Y-61057704D01*
X18282938Y-61043419D01*
X18311509Y-61029133D01*
X18668652Y-61029133D02*
X18611509Y-61029133D01*
X18582938Y-61043419D01*
X18568652Y-61057704D01*
X18540081Y-61100561D01*
X18525795Y-61157704D01*
X18525795Y-61271990D01*
X18540081Y-61300561D01*
X18554366Y-61314847D01*
X18582938Y-61329133D01*
X18640081Y-61329133D01*
X18668652Y-61314847D01*
X18682938Y-61300561D01*
X18697223Y-61271990D01*
X18697223Y-61200561D01*
X18682938Y-61171990D01*
X18668652Y-61157704D01*
X18640081Y-61143419D01*
X18582938Y-61143419D01*
X18554366Y-61157704D01*
X18540081Y-61171990D01*
X18525795Y-61200561D01*
X18840081Y-61329133D02*
X18897223Y-61329133D01*
X18925795Y-61314847D01*
X18940081Y-61300561D01*
X18968652Y-61257704D01*
X18982938Y-61200561D01*
X18982938Y-61086276D01*
X18968652Y-61057704D01*
X18954366Y-61043419D01*
X18925795Y-61029133D01*
X18868652Y-61029133D01*
X18840081Y-61043419D01*
X18825795Y-61057704D01*
X18811509Y-61086276D01*
X18811509Y-61157704D01*
X18825795Y-61186276D01*
X18840081Y-61200561D01*
X18868652Y-61214847D01*
X18925795Y-61214847D01*
X18954366Y-61200561D01*
X18968652Y-61186276D01*
X18982938Y-61157704D01*
X19097223Y-61029133D02*
X19097223Y-61086276D01*
X19211509Y-61029133D02*
X19211509Y-61086276D01*
X19654366Y-61443419D02*
X19640081Y-61429133D01*
X19611509Y-61386276D01*
X19597223Y-61357704D01*
X19582938Y-61314847D01*
X19568652Y-61243419D01*
X19568652Y-61186276D01*
X19582938Y-61114847D01*
X19597223Y-61071990D01*
X19611509Y-61043419D01*
X19640081Y-61000561D01*
X19654366Y-60986276D01*
X19740081Y-61029133D02*
X19925795Y-61029133D01*
X19825795Y-61143419D01*
X19868652Y-61143419D01*
X19897223Y-61157704D01*
X19911509Y-61171990D01*
X19925795Y-61200561D01*
X19925795Y-61271990D01*
X19911509Y-61300561D01*
X19897223Y-61314847D01*
X19868652Y-61329133D01*
X19782938Y-61329133D01*
X19754366Y-61314847D01*
X19740081Y-61300561D01*
X20040081Y-61057704D02*
X20054366Y-61043419D01*
X20082938Y-61029133D01*
X20154366Y-61029133D01*
X20182938Y-61043419D01*
X20197223Y-61057704D01*
X20211509Y-61086276D01*
X20211509Y-61114847D01*
X20197223Y-61157704D01*
X20025795Y-61329133D01*
X20211509Y-61329133D01*
X20568652Y-61329133D02*
X20568652Y-61029133D01*
X20697223Y-61329133D02*
X20697223Y-61171990D01*
X20682938Y-61143419D01*
X20654366Y-61129133D01*
X20611509Y-61129133D01*
X20582938Y-61143419D01*
X20568652Y-61157704D01*
X20882938Y-61329133D02*
X20854366Y-61314847D01*
X20840081Y-61300561D01*
X20825795Y-61271990D01*
X20825795Y-61186276D01*
X20840081Y-61157704D01*
X20854366Y-61143419D01*
X20882938Y-61129133D01*
X20925795Y-61129133D01*
X20954366Y-61143419D01*
X20968652Y-61157704D01*
X20982938Y-61186276D01*
X20982938Y-61271990D01*
X20968652Y-61300561D01*
X20954366Y-61314847D01*
X20925795Y-61329133D01*
X20882938Y-61329133D01*
X21154366Y-61329133D02*
X21125795Y-61314847D01*
X21111509Y-61286276D01*
X21111509Y-61029133D01*
X21382938Y-61314847D02*
X21354366Y-61329133D01*
X21297223Y-61329133D01*
X21268652Y-61314847D01*
X21254366Y-61286276D01*
X21254366Y-61171990D01*
X21268652Y-61143419D01*
X21297223Y-61129133D01*
X21354366Y-61129133D01*
X21382938Y-61143419D01*
X21397223Y-61171990D01*
X21397223Y-61200561D01*
X21254366Y-61229133D01*
X21511509Y-61314847D02*
X21540081Y-61329133D01*
X21597223Y-61329133D01*
X21625795Y-61314847D01*
X21640081Y-61286276D01*
X21640081Y-61271990D01*
X21625795Y-61243419D01*
X21597223Y-61229133D01*
X21554366Y-61229133D01*
X21525795Y-61214847D01*
X21511509Y-61186276D01*
X21511509Y-61171990D01*
X21525795Y-61143419D01*
X21554366Y-61129133D01*
X21597223Y-61129133D01*
X21625795Y-61143419D01*
X21740081Y-61443419D02*
X21754366Y-61429133D01*
X21782938Y-61386276D01*
X21797223Y-61357704D01*
X21811509Y-61314847D01*
X21825795Y-61243419D01*
X21825795Y-61186276D01*
X21811509Y-61114847D01*
X21797223Y-61071990D01*
X21782938Y-61043419D01*
X21754366Y-61000561D01*
X21740081Y-60986276D01*
X22282938Y-61443419D02*
X22268652Y-61429133D01*
X22240081Y-61386276D01*
X22225795Y-61357704D01*
X22211509Y-61314847D01*
X22197223Y-61243419D01*
X22197223Y-61186276D01*
X22211509Y-61114847D01*
X22225795Y-61071990D01*
X22240081Y-61043419D01*
X22268652Y-61000561D01*
X22282938Y-60986276D01*
X22397223Y-61129133D02*
X22397223Y-61329133D01*
X22397223Y-61157704D02*
X22411509Y-61143419D01*
X22440080Y-61129133D01*
X22482938Y-61129133D01*
X22511509Y-61143419D01*
X22525795Y-61171990D01*
X22525795Y-61329133D01*
X22711509Y-61329133D02*
X22682938Y-61314847D01*
X22668652Y-61300561D01*
X22654366Y-61271990D01*
X22654366Y-61186276D01*
X22668652Y-61157704D01*
X22682938Y-61143419D01*
X22711509Y-61129133D01*
X22754366Y-61129133D01*
X22782938Y-61143419D01*
X22797223Y-61157704D01*
X22811509Y-61186276D01*
X22811509Y-61271990D01*
X22797223Y-61300561D01*
X22782938Y-61314847D01*
X22754366Y-61329133D01*
X22711509Y-61329133D01*
X22897223Y-61129133D02*
X23011509Y-61129133D01*
X22940080Y-61029133D02*
X22940080Y-61286276D01*
X22954366Y-61314847D01*
X22982938Y-61329133D01*
X23011509Y-61329133D01*
X23340080Y-61129133D02*
X23340080Y-61429133D01*
X23340080Y-61143419D02*
X23368652Y-61129133D01*
X23425795Y-61129133D01*
X23454366Y-61143419D01*
X23468652Y-61157704D01*
X23482938Y-61186276D01*
X23482938Y-61271990D01*
X23468652Y-61300561D01*
X23454366Y-61314847D01*
X23425795Y-61329133D01*
X23368652Y-61329133D01*
X23340080Y-61314847D01*
X23654366Y-61329133D02*
X23625795Y-61314847D01*
X23611509Y-61286276D01*
X23611509Y-61029133D01*
X23897223Y-61329133D02*
X23897223Y-61171990D01*
X23882938Y-61143419D01*
X23854366Y-61129133D01*
X23797223Y-61129133D01*
X23768652Y-61143419D01*
X23897223Y-61314847D02*
X23868652Y-61329133D01*
X23797223Y-61329133D01*
X23768652Y-61314847D01*
X23754366Y-61286276D01*
X23754366Y-61257704D01*
X23768652Y-61229133D01*
X23797223Y-61214847D01*
X23868652Y-61214847D01*
X23897223Y-61200561D01*
X23997223Y-61129133D02*
X24111509Y-61129133D01*
X24040080Y-61029133D02*
X24040080Y-61286276D01*
X24054366Y-61314847D01*
X24082938Y-61329133D01*
X24111509Y-61329133D01*
X24325795Y-61314847D02*
X24297223Y-61329133D01*
X24240080Y-61329133D01*
X24211509Y-61314847D01*
X24197223Y-61286276D01*
X24197223Y-61171990D01*
X24211509Y-61143419D01*
X24240080Y-61129133D01*
X24297223Y-61129133D01*
X24325795Y-61143419D01*
X24340080Y-61171990D01*
X24340080Y-61200561D01*
X24197223Y-61229133D01*
X24597223Y-61329133D02*
X24597223Y-61029133D01*
X24597223Y-61314847D02*
X24568652Y-61329133D01*
X24511509Y-61329133D01*
X24482938Y-61314847D01*
X24468652Y-61300561D01*
X24454366Y-61271990D01*
X24454366Y-61186276D01*
X24468652Y-61157704D01*
X24482938Y-61143419D01*
X24511509Y-61129133D01*
X24568652Y-61129133D01*
X24597223Y-61143419D01*
X24711509Y-61443419D02*
X24725795Y-61429133D01*
X24754366Y-61386276D01*
X24768652Y-61357704D01*
X24782938Y-61314847D01*
X24797223Y-61243419D01*
X24797223Y-61186276D01*
X24782938Y-61114847D01*
X24768652Y-61071990D01*
X24754366Y-61043419D01*
X24725795Y-61000561D01*
X24711509Y-60986276D01*
X14967938Y-61589419D02*
G75*
G03X14967938Y-61589419I-150000J0D01*
G01*
X15225795Y-61425133D02*
X15411509Y-61425133D01*
X15311509Y-61539419D01*
X15354366Y-61539419D01*
X15382938Y-61553704D01*
X15397223Y-61567990D01*
X15411509Y-61596561D01*
X15411509Y-61667990D01*
X15397223Y-61696561D01*
X15382938Y-61710847D01*
X15354366Y-61725133D01*
X15268652Y-61725133D01*
X15240080Y-61710847D01*
X15225795Y-61696561D01*
X15540080Y-61696561D02*
X15554366Y-61710847D01*
X15540080Y-61725133D01*
X15525795Y-61710847D01*
X15540080Y-61696561D01*
X15540080Y-61725133D01*
X15740080Y-61425133D02*
X15768652Y-61425133D01*
X15797223Y-61439419D01*
X15811509Y-61453704D01*
X15825795Y-61482276D01*
X15840080Y-61539419D01*
X15840080Y-61610847D01*
X15825795Y-61667990D01*
X15811509Y-61696561D01*
X15797223Y-61710847D01*
X15768652Y-61725133D01*
X15740080Y-61725133D01*
X15711509Y-61710847D01*
X15697223Y-61696561D01*
X15682938Y-61667990D01*
X15668652Y-61610847D01*
X15668652Y-61539419D01*
X15682938Y-61482276D01*
X15697223Y-61453704D01*
X15711509Y-61439419D01*
X15740080Y-61425133D01*
X16025795Y-61425133D02*
X16054366Y-61425133D01*
X16082938Y-61439419D01*
X16097223Y-61453704D01*
X16111509Y-61482276D01*
X16125795Y-61539419D01*
X16125795Y-61610847D01*
X16111509Y-61667990D01*
X16097223Y-61696561D01*
X16082938Y-61710847D01*
X16054366Y-61725133D01*
X16025795Y-61725133D01*
X15997223Y-61710847D01*
X15982938Y-61696561D01*
X15968652Y-61667990D01*
X15954366Y-61610847D01*
X15954366Y-61539419D01*
X15968652Y-61482276D01*
X15982938Y-61453704D01*
X15997223Y-61439419D01*
X16025795Y-61425133D01*
X16254366Y-61725133D02*
X16254366Y-61525133D01*
X16254366Y-61553704D02*
X16268652Y-61539419D01*
X16297223Y-61525133D01*
X16340080Y-61525133D01*
X16368652Y-61539419D01*
X16382938Y-61567990D01*
X16382938Y-61725133D01*
X16382938Y-61567990D02*
X16397223Y-61539419D01*
X16425795Y-61525133D01*
X16468652Y-61525133D01*
X16497223Y-61539419D01*
X16511509Y-61567990D01*
X16511509Y-61725133D01*
X16654366Y-61725133D02*
X16654366Y-61525133D01*
X16654366Y-61553704D02*
X16668652Y-61539419D01*
X16697223Y-61525133D01*
X16740080Y-61525133D01*
X16768652Y-61539419D01*
X16782938Y-61567990D01*
X16782938Y-61725133D01*
X16782938Y-61567990D02*
X16797223Y-61539419D01*
X16825795Y-61525133D01*
X16868652Y-61525133D01*
X16897223Y-61539419D01*
X16911509Y-61567990D01*
X16911509Y-61725133D01*
X17497223Y-61410847D02*
X17240081Y-61796561D01*
X17882938Y-61425133D02*
X17911509Y-61425133D01*
X17940081Y-61439419D01*
X17954366Y-61453704D01*
X17968652Y-61482276D01*
X17982938Y-61539419D01*
X17982938Y-61610847D01*
X17968652Y-61667990D01*
X17954366Y-61696561D01*
X17940081Y-61710847D01*
X17911509Y-61725133D01*
X17882938Y-61725133D01*
X17854366Y-61710847D01*
X17840081Y-61696561D01*
X17825795Y-61667990D01*
X17811509Y-61610847D01*
X17811509Y-61539419D01*
X17825795Y-61482276D01*
X17840081Y-61453704D01*
X17854366Y-61439419D01*
X17882938Y-61425133D01*
X18111509Y-61696561D02*
X18125795Y-61710847D01*
X18111509Y-61725133D01*
X18097223Y-61710847D01*
X18111509Y-61696561D01*
X18111509Y-61725133D01*
X18411509Y-61725133D02*
X18240081Y-61725133D01*
X18325795Y-61725133D02*
X18325795Y-61425133D01*
X18297223Y-61467990D01*
X18268652Y-61496561D01*
X18240081Y-61510847D01*
X18697223Y-61725133D02*
X18525795Y-61725133D01*
X18611509Y-61725133D02*
X18611509Y-61425133D01*
X18582938Y-61467990D01*
X18554366Y-61496561D01*
X18525795Y-61510847D01*
X18868652Y-61553704D02*
X18840081Y-61539419D01*
X18825795Y-61525133D01*
X18811509Y-61496561D01*
X18811509Y-61482276D01*
X18825795Y-61453704D01*
X18840081Y-61439419D01*
X18868652Y-61425133D01*
X18925795Y-61425133D01*
X18954366Y-61439419D01*
X18968652Y-61453704D01*
X18982938Y-61482276D01*
X18982938Y-61496561D01*
X18968652Y-61525133D01*
X18954366Y-61539419D01*
X18925795Y-61553704D01*
X18868652Y-61553704D01*
X18840081Y-61567990D01*
X18825795Y-61582276D01*
X18811509Y-61610847D01*
X18811509Y-61667990D01*
X18825795Y-61696561D01*
X18840081Y-61710847D01*
X18868652Y-61725133D01*
X18925795Y-61725133D01*
X18954366Y-61710847D01*
X18968652Y-61696561D01*
X18982938Y-61667990D01*
X18982938Y-61610847D01*
X18968652Y-61582276D01*
X18954366Y-61567990D01*
X18925795Y-61553704D01*
X19097223Y-61425133D02*
X19097223Y-61482276D01*
X19211509Y-61425133D02*
X19211509Y-61482276D01*
X19654366Y-61839419D02*
X19640081Y-61825133D01*
X19611509Y-61782276D01*
X19597223Y-61753704D01*
X19582938Y-61710847D01*
X19568652Y-61639419D01*
X19568652Y-61582276D01*
X19582938Y-61510847D01*
X19597223Y-61467990D01*
X19611509Y-61439419D01*
X19640081Y-61396561D01*
X19654366Y-61382276D01*
X19740081Y-61425133D02*
X19925795Y-61425133D01*
X19825795Y-61539419D01*
X19868652Y-61539419D01*
X19897223Y-61553704D01*
X19911509Y-61567990D01*
X19925795Y-61596561D01*
X19925795Y-61667990D01*
X19911509Y-61696561D01*
X19897223Y-61710847D01*
X19868652Y-61725133D01*
X19782938Y-61725133D01*
X19754366Y-61710847D01*
X19740081Y-61696561D01*
X20040081Y-61453704D02*
X20054366Y-61439419D01*
X20082938Y-61425133D01*
X20154366Y-61425133D01*
X20182938Y-61439419D01*
X20197223Y-61453704D01*
X20211509Y-61482276D01*
X20211509Y-61510847D01*
X20197223Y-61553704D01*
X20025795Y-61725133D01*
X20211509Y-61725133D01*
X20568652Y-61725133D02*
X20568652Y-61425133D01*
X20697223Y-61725133D02*
X20697223Y-61567990D01*
X20682938Y-61539419D01*
X20654366Y-61525133D01*
X20611509Y-61525133D01*
X20582938Y-61539419D01*
X20568652Y-61553704D01*
X20882938Y-61725133D02*
X20854366Y-61710847D01*
X20840081Y-61696561D01*
X20825795Y-61667990D01*
X20825795Y-61582276D01*
X20840081Y-61553704D01*
X20854366Y-61539419D01*
X20882938Y-61525133D01*
X20925795Y-61525133D01*
X20954366Y-61539419D01*
X20968652Y-61553704D01*
X20982938Y-61582276D01*
X20982938Y-61667990D01*
X20968652Y-61696561D01*
X20954366Y-61710847D01*
X20925795Y-61725133D01*
X20882938Y-61725133D01*
X21154366Y-61725133D02*
X21125795Y-61710847D01*
X21111509Y-61682276D01*
X21111509Y-61425133D01*
X21382938Y-61710847D02*
X21354366Y-61725133D01*
X21297223Y-61725133D01*
X21268652Y-61710847D01*
X21254366Y-61682276D01*
X21254366Y-61567990D01*
X21268652Y-61539419D01*
X21297223Y-61525133D01*
X21354366Y-61525133D01*
X21382938Y-61539419D01*
X21397223Y-61567990D01*
X21397223Y-61596561D01*
X21254366Y-61625133D01*
X21511509Y-61710847D02*
X21540081Y-61725133D01*
X21597223Y-61725133D01*
X21625795Y-61710847D01*
X21640081Y-61682276D01*
X21640081Y-61667990D01*
X21625795Y-61639419D01*
X21597223Y-61625133D01*
X21554366Y-61625133D01*
X21525795Y-61610847D01*
X21511509Y-61582276D01*
X21511509Y-61567990D01*
X21525795Y-61539419D01*
X21554366Y-61525133D01*
X21597223Y-61525133D01*
X21625795Y-61539419D01*
X21740081Y-61839419D02*
X21754366Y-61825133D01*
X21782938Y-61782276D01*
X21797223Y-61753704D01*
X21811509Y-61710847D01*
X21825795Y-61639419D01*
X21825795Y-61582276D01*
X21811509Y-61510847D01*
X21797223Y-61467990D01*
X21782938Y-61439419D01*
X21754366Y-61396561D01*
X21740081Y-61382276D01*
X22282938Y-61839419D02*
X22268652Y-61825133D01*
X22240081Y-61782276D01*
X22225795Y-61753704D01*
X22211509Y-61710847D01*
X22197223Y-61639419D01*
X22197223Y-61582276D01*
X22211509Y-61510847D01*
X22225795Y-61467990D01*
X22240081Y-61439419D01*
X22268652Y-61396561D01*
X22282938Y-61382276D01*
X22397223Y-61525133D02*
X22397223Y-61725133D01*
X22397223Y-61553704D02*
X22411509Y-61539419D01*
X22440080Y-61525133D01*
X22482938Y-61525133D01*
X22511509Y-61539419D01*
X22525795Y-61567990D01*
X22525795Y-61725133D01*
X22711509Y-61725133D02*
X22682938Y-61710847D01*
X22668652Y-61696561D01*
X22654366Y-61667990D01*
X22654366Y-61582276D01*
X22668652Y-61553704D01*
X22682938Y-61539419D01*
X22711509Y-61525133D01*
X22754366Y-61525133D01*
X22782938Y-61539419D01*
X22797223Y-61553704D01*
X22811509Y-61582276D01*
X22811509Y-61667990D01*
X22797223Y-61696561D01*
X22782938Y-61710847D01*
X22754366Y-61725133D01*
X22711509Y-61725133D01*
X22897223Y-61525133D02*
X23011509Y-61525133D01*
X22940080Y-61425133D02*
X22940080Y-61682276D01*
X22954366Y-61710847D01*
X22982938Y-61725133D01*
X23011509Y-61725133D01*
X23340080Y-61525133D02*
X23340080Y-61825133D01*
X23340080Y-61539419D02*
X23368652Y-61525133D01*
X23425795Y-61525133D01*
X23454366Y-61539419D01*
X23468652Y-61553704D01*
X23482938Y-61582276D01*
X23482938Y-61667990D01*
X23468652Y-61696561D01*
X23454366Y-61710847D01*
X23425795Y-61725133D01*
X23368652Y-61725133D01*
X23340080Y-61710847D01*
X23654366Y-61725133D02*
X23625795Y-61710847D01*
X23611509Y-61682276D01*
X23611509Y-61425133D01*
X23897223Y-61725133D02*
X23897223Y-61567990D01*
X23882938Y-61539419D01*
X23854366Y-61525133D01*
X23797223Y-61525133D01*
X23768652Y-61539419D01*
X23897223Y-61710847D02*
X23868652Y-61725133D01*
X23797223Y-61725133D01*
X23768652Y-61710847D01*
X23754366Y-61682276D01*
X23754366Y-61653704D01*
X23768652Y-61625133D01*
X23797223Y-61610847D01*
X23868652Y-61610847D01*
X23897223Y-61596561D01*
X23997223Y-61525133D02*
X24111509Y-61525133D01*
X24040080Y-61425133D02*
X24040080Y-61682276D01*
X24054366Y-61710847D01*
X24082938Y-61725133D01*
X24111509Y-61725133D01*
X24325795Y-61710847D02*
X24297223Y-61725133D01*
X24240080Y-61725133D01*
X24211509Y-61710847D01*
X24197223Y-61682276D01*
X24197223Y-61567990D01*
X24211509Y-61539419D01*
X24240080Y-61525133D01*
X24297223Y-61525133D01*
X24325795Y-61539419D01*
X24340080Y-61567990D01*
X24340080Y-61596561D01*
X24197223Y-61625133D01*
X24597223Y-61725133D02*
X24597223Y-61425133D01*
X24597223Y-61710847D02*
X24568652Y-61725133D01*
X24511509Y-61725133D01*
X24482938Y-61710847D01*
X24468652Y-61696561D01*
X24454366Y-61667990D01*
X24454366Y-61582276D01*
X24468652Y-61553704D01*
X24482938Y-61539419D01*
X24511509Y-61525133D01*
X24568652Y-61525133D01*
X24597223Y-61539419D01*
X24711509Y-61839419D02*
X24725795Y-61825133D01*
X24754366Y-61782276D01*
X24768652Y-61753704D01*
X24782938Y-61710847D01*
X24797223Y-61639419D01*
X24797223Y-61582276D01*
X24782938Y-61510847D01*
X24768652Y-61467990D01*
X24754366Y-61439419D01*
X24725795Y-61396561D01*
X24711509Y-61382276D01*
X14768548Y-61820029D02*
X14768548Y-62218809D01*
X14569158Y-62019419D02*
X14967938Y-62019419D01*
X15225795Y-61855133D02*
X15411509Y-61855133D01*
X15311509Y-61969419D01*
X15354366Y-61969419D01*
X15382938Y-61983704D01*
X15397223Y-61997990D01*
X15411509Y-62026561D01*
X15411509Y-62097990D01*
X15397223Y-62126561D01*
X15382938Y-62140847D01*
X15354366Y-62155133D01*
X15268652Y-62155133D01*
X15240080Y-62140847D01*
X15225795Y-62126561D01*
X15540080Y-62126561D02*
X15554366Y-62140847D01*
X15540080Y-62155133D01*
X15525795Y-62140847D01*
X15540080Y-62126561D01*
X15540080Y-62155133D01*
X15697223Y-62155133D02*
X15754366Y-62155133D01*
X15782938Y-62140847D01*
X15797223Y-62126561D01*
X15825795Y-62083704D01*
X15840080Y-62026561D01*
X15840080Y-61912276D01*
X15825795Y-61883704D01*
X15811509Y-61869419D01*
X15782938Y-61855133D01*
X15725795Y-61855133D01*
X15697223Y-61869419D01*
X15682938Y-61883704D01*
X15668652Y-61912276D01*
X15668652Y-61983704D01*
X15682938Y-62012276D01*
X15697223Y-62026561D01*
X15725795Y-62040847D01*
X15782938Y-62040847D01*
X15811509Y-62026561D01*
X15825795Y-62012276D01*
X15840080Y-61983704D01*
X15982938Y-62155133D02*
X16040080Y-62155133D01*
X16068652Y-62140847D01*
X16082938Y-62126561D01*
X16111509Y-62083704D01*
X16125795Y-62026561D01*
X16125795Y-61912276D01*
X16111509Y-61883704D01*
X16097223Y-61869419D01*
X16068652Y-61855133D01*
X16011509Y-61855133D01*
X15982938Y-61869419D01*
X15968652Y-61883704D01*
X15954366Y-61912276D01*
X15954366Y-61983704D01*
X15968652Y-62012276D01*
X15982938Y-62026561D01*
X16011509Y-62040847D01*
X16068652Y-62040847D01*
X16097223Y-62026561D01*
X16111509Y-62012276D01*
X16125795Y-61983704D01*
X16254366Y-62155133D02*
X16254366Y-61955133D01*
X16254366Y-61983704D02*
X16268652Y-61969419D01*
X16297223Y-61955133D01*
X16340080Y-61955133D01*
X16368652Y-61969419D01*
X16382938Y-61997990D01*
X16382938Y-62155133D01*
X16382938Y-61997990D02*
X16397223Y-61969419D01*
X16425795Y-61955133D01*
X16468652Y-61955133D01*
X16497223Y-61969419D01*
X16511509Y-61997990D01*
X16511509Y-62155133D01*
X16654366Y-62155133D02*
X16654366Y-61955133D01*
X16654366Y-61983704D02*
X16668652Y-61969419D01*
X16697223Y-61955133D01*
X16740080Y-61955133D01*
X16768652Y-61969419D01*
X16782938Y-61997990D01*
X16782938Y-62155133D01*
X16782938Y-61997990D02*
X16797223Y-61969419D01*
X16825795Y-61955133D01*
X16868652Y-61955133D01*
X16897223Y-61969419D01*
X16911509Y-61997990D01*
X16911509Y-62155133D01*
X17497223Y-61840847D02*
X17240081Y-62226561D01*
X17882938Y-61855133D02*
X17911509Y-61855133D01*
X17940081Y-61869419D01*
X17954366Y-61883704D01*
X17968652Y-61912276D01*
X17982938Y-61969419D01*
X17982938Y-62040847D01*
X17968652Y-62097990D01*
X17954366Y-62126561D01*
X17940081Y-62140847D01*
X17911509Y-62155133D01*
X17882938Y-62155133D01*
X17854366Y-62140847D01*
X17840081Y-62126561D01*
X17825795Y-62097990D01*
X17811509Y-62040847D01*
X17811509Y-61969419D01*
X17825795Y-61912276D01*
X17840081Y-61883704D01*
X17854366Y-61869419D01*
X17882938Y-61855133D01*
X18111509Y-62126561D02*
X18125795Y-62140847D01*
X18111509Y-62155133D01*
X18097223Y-62140847D01*
X18111509Y-62126561D01*
X18111509Y-62155133D01*
X18411509Y-62155133D02*
X18240081Y-62155133D01*
X18325795Y-62155133D02*
X18325795Y-61855133D01*
X18297223Y-61897990D01*
X18268652Y-61926561D01*
X18240081Y-61940847D01*
X18682938Y-61855133D02*
X18540081Y-61855133D01*
X18525795Y-61997990D01*
X18540081Y-61983704D01*
X18568652Y-61969419D01*
X18640081Y-61969419D01*
X18668652Y-61983704D01*
X18682938Y-61997990D01*
X18697223Y-62026561D01*
X18697223Y-62097990D01*
X18682938Y-62126561D01*
X18668652Y-62140847D01*
X18640081Y-62155133D01*
X18568652Y-62155133D01*
X18540081Y-62140847D01*
X18525795Y-62126561D01*
X18797223Y-61855133D02*
X18997223Y-61855133D01*
X18868652Y-62155133D01*
X19097223Y-61855133D02*
X19097223Y-61912276D01*
X19211509Y-61855133D02*
X19211509Y-61912276D01*
X19654366Y-62269419D02*
X19640081Y-62255133D01*
X19611509Y-62212276D01*
X19597223Y-62183704D01*
X19582938Y-62140847D01*
X19568652Y-62069419D01*
X19568652Y-62012276D01*
X19582938Y-61940847D01*
X19597223Y-61897990D01*
X19611509Y-61869419D01*
X19640081Y-61826561D01*
X19654366Y-61812276D01*
X19925795Y-62155133D02*
X19754366Y-62155133D01*
X19840081Y-62155133D02*
X19840081Y-61855133D01*
X19811509Y-61897990D01*
X19782938Y-61926561D01*
X19754366Y-61940847D01*
X20182938Y-61855133D02*
X20125795Y-61855133D01*
X20097223Y-61869419D01*
X20082938Y-61883704D01*
X20054366Y-61926561D01*
X20040081Y-61983704D01*
X20040081Y-62097990D01*
X20054366Y-62126561D01*
X20068652Y-62140847D01*
X20097223Y-62155133D01*
X20154366Y-62155133D01*
X20182938Y-62140847D01*
X20197223Y-62126561D01*
X20211509Y-62097990D01*
X20211509Y-62026561D01*
X20197223Y-61997990D01*
X20182938Y-61983704D01*
X20154366Y-61969419D01*
X20097223Y-61969419D01*
X20068652Y-61983704D01*
X20054366Y-61997990D01*
X20040081Y-62026561D01*
X20568652Y-62155133D02*
X20568652Y-61855133D01*
X20697223Y-62155133D02*
X20697223Y-61997990D01*
X20682938Y-61969419D01*
X20654366Y-61955133D01*
X20611509Y-61955133D01*
X20582938Y-61969419D01*
X20568652Y-61983704D01*
X20882938Y-62155133D02*
X20854366Y-62140847D01*
X20840081Y-62126561D01*
X20825795Y-62097990D01*
X20825795Y-62012276D01*
X20840081Y-61983704D01*
X20854366Y-61969419D01*
X20882938Y-61955133D01*
X20925795Y-61955133D01*
X20954366Y-61969419D01*
X20968652Y-61983704D01*
X20982938Y-62012276D01*
X20982938Y-62097990D01*
X20968652Y-62126561D01*
X20954366Y-62140847D01*
X20925795Y-62155133D01*
X20882938Y-62155133D01*
X21154366Y-62155133D02*
X21125795Y-62140847D01*
X21111509Y-62112276D01*
X21111509Y-61855133D01*
X21382938Y-62140847D02*
X21354366Y-62155133D01*
X21297223Y-62155133D01*
X21268652Y-62140847D01*
X21254366Y-62112276D01*
X21254366Y-61997990D01*
X21268652Y-61969419D01*
X21297223Y-61955133D01*
X21354366Y-61955133D01*
X21382938Y-61969419D01*
X21397223Y-61997990D01*
X21397223Y-62026561D01*
X21254366Y-62055133D01*
X21511509Y-62140847D02*
X21540081Y-62155133D01*
X21597223Y-62155133D01*
X21625795Y-62140847D01*
X21640081Y-62112276D01*
X21640081Y-62097990D01*
X21625795Y-62069419D01*
X21597223Y-62055133D01*
X21554366Y-62055133D01*
X21525795Y-62040847D01*
X21511509Y-62012276D01*
X21511509Y-61997990D01*
X21525795Y-61969419D01*
X21554366Y-61955133D01*
X21597223Y-61955133D01*
X21625795Y-61969419D01*
X21740081Y-62269419D02*
X21754366Y-62255133D01*
X21782938Y-62212276D01*
X21797223Y-62183704D01*
X21811509Y-62140847D01*
X21825795Y-62069419D01*
X21825795Y-62012276D01*
X21811509Y-61940847D01*
X21797223Y-61897990D01*
X21782938Y-61869419D01*
X21754366Y-61826561D01*
X21740081Y-61812276D01*
X22282938Y-62269419D02*
X22268652Y-62255133D01*
X22240081Y-62212276D01*
X22225795Y-62183704D01*
X22211509Y-62140847D01*
X22197223Y-62069419D01*
X22197223Y-62012276D01*
X22211509Y-61940847D01*
X22225795Y-61897990D01*
X22240081Y-61869419D01*
X22268652Y-61826561D01*
X22282938Y-61812276D01*
X22397223Y-61955133D02*
X22397223Y-62155133D01*
X22397223Y-61983704D02*
X22411509Y-61969419D01*
X22440080Y-61955133D01*
X22482938Y-61955133D01*
X22511509Y-61969419D01*
X22525795Y-61997990D01*
X22525795Y-62155133D01*
X22711509Y-62155133D02*
X22682938Y-62140847D01*
X22668652Y-62126561D01*
X22654366Y-62097990D01*
X22654366Y-62012276D01*
X22668652Y-61983704D01*
X22682938Y-61969419D01*
X22711509Y-61955133D01*
X22754366Y-61955133D01*
X22782938Y-61969419D01*
X22797223Y-61983704D01*
X22811509Y-62012276D01*
X22811509Y-62097990D01*
X22797223Y-62126561D01*
X22782938Y-62140847D01*
X22754366Y-62155133D01*
X22711509Y-62155133D01*
X22897223Y-61955133D02*
X23011509Y-61955133D01*
X22940080Y-61855133D02*
X22940080Y-62112276D01*
X22954366Y-62140847D01*
X22982938Y-62155133D01*
X23011509Y-62155133D01*
X23340080Y-61955133D02*
X23340080Y-62255133D01*
X23340080Y-61969419D02*
X23368652Y-61955133D01*
X23425795Y-61955133D01*
X23454366Y-61969419D01*
X23468652Y-61983704D01*
X23482938Y-62012276D01*
X23482938Y-62097990D01*
X23468652Y-62126561D01*
X23454366Y-62140847D01*
X23425795Y-62155133D01*
X23368652Y-62155133D01*
X23340080Y-62140847D01*
X23654366Y-62155133D02*
X23625795Y-62140847D01*
X23611509Y-62112276D01*
X23611509Y-61855133D01*
X23897223Y-62155133D02*
X23897223Y-61997990D01*
X23882938Y-61969419D01*
X23854366Y-61955133D01*
X23797223Y-61955133D01*
X23768652Y-61969419D01*
X23897223Y-62140847D02*
X23868652Y-62155133D01*
X23797223Y-62155133D01*
X23768652Y-62140847D01*
X23754366Y-62112276D01*
X23754366Y-62083704D01*
X23768652Y-62055133D01*
X23797223Y-62040847D01*
X23868652Y-62040847D01*
X23897223Y-62026561D01*
X23997223Y-61955133D02*
X24111509Y-61955133D01*
X24040080Y-61855133D02*
X24040080Y-62112276D01*
X24054366Y-62140847D01*
X24082938Y-62155133D01*
X24111509Y-62155133D01*
X24325795Y-62140847D02*
X24297223Y-62155133D01*
X24240080Y-62155133D01*
X24211509Y-62140847D01*
X24197223Y-62112276D01*
X24197223Y-61997990D01*
X24211509Y-61969419D01*
X24240080Y-61955133D01*
X24297223Y-61955133D01*
X24325795Y-61969419D01*
X24340080Y-61997990D01*
X24340080Y-62026561D01*
X24197223Y-62055133D01*
X24597223Y-62155133D02*
X24597223Y-61855133D01*
X24597223Y-62140847D02*
X24568652Y-62155133D01*
X24511509Y-62155133D01*
X24482938Y-62140847D01*
X24468652Y-62126561D01*
X24454366Y-62097990D01*
X24454366Y-62012276D01*
X24468652Y-61983704D01*
X24482938Y-61969419D01*
X24511509Y-61955133D01*
X24568652Y-61955133D01*
X24597223Y-61969419D01*
X24711509Y-62269419D02*
X24725795Y-62255133D01*
X24754366Y-62212276D01*
X24768652Y-62183704D01*
X24782938Y-62140847D01*
X24797223Y-62069419D01*
X24797223Y-62012276D01*
X24782938Y-61940847D01*
X24768652Y-61897990D01*
X24754366Y-61869419D01*
X24725795Y-61826561D01*
X24711509Y-61812276D01*
M02*
