M48
; DRILL file {KiCad (5.1.4)-1} date 9/9/2023 5:25:44 AM
; FORMAT={-:-/ absolute / metric / decimal}
; #@! TF.CreationDate,2023-09-09T05:25:44-04:00
; #@! TF.GenerationSoftware,Kicad,Pcbnew,(5.1.4)-1
; #@! TF.FileFunction,Plated,1,2,PTH
FMAT,2
METRIC
T1C0.400
T2C1.000
%
G90
G05
T1
X190.5Y-558.2
X190.6Y-539.1
X190.7Y-520.0
X205.9Y-499.3
X209.6Y-562.9
X209.8Y-525.0
X209.8Y-544.1
X225.3Y-503.9
X228.5Y-548.9
X228.7Y-530.0
X228.7Y-568.0
X244.6Y-508.8
X247.7Y-525.9
X247.7Y-545.5
X247.7Y-563.9
X263.2Y-504.8
T2
X176.239Y-537.342
X178.779Y-537.342
X181.319Y-537.342
X183.859Y-537.342
X152.959Y-499.261
X152.959Y-501.801
X152.959Y-504.341
X152.959Y-506.881
X163.352Y-600.483
X165.805Y-599.825
X168.259Y-599.168
X170.712Y-598.51
X225.912Y-578.61
X225.912Y-581.15
X225.912Y-583.69
X225.912Y-586.23
X175.937Y-556.458
X178.477Y-556.458
X181.017Y-556.458
X183.557Y-556.458
X152.912Y-549.61
X152.912Y-552.15
X152.912Y-554.69
X152.912Y-557.23
X176.712Y-498.36
X179.252Y-498.36
X181.792Y-498.36
X184.332Y-498.36
X175.712Y-518.36
X178.252Y-518.36
X180.792Y-518.36
X183.332Y-518.36
T0
M30
