M48
; DRILL file {KiCad (5.1.4)-1} date 6/13/2023 8:26:29 PM
; FORMAT={-:-/ absolute / metric / decimal}
; #@! TF.CreationDate,2023-06-13T20:26:29-04:00
; #@! TF.GenerationSoftware,Kicad,Pcbnew,(5.1.4)-1
; #@! TF.FileFunction,NonPlated,1,2,NPTH
FMAT,2
METRIC
T1C0.600
T2C1.750
T3C3.000
T4C3.988
%
G90
G05
T1
X169.385Y-373.5
X175.165Y-373.5
T2
X215.432Y-451.96
X225.592Y-451.96
X177.332Y-419.41
X187.492Y-419.41
X177.332Y-438.46
X187.492Y-438.46
X158.282Y-435.46
X168.442Y-435.46
X196.382Y-446.96
X206.542Y-446.96
X177.332Y-400.36
X187.492Y-400.36
X158.282Y-416.41
X168.442Y-416.41
X158.282Y-397.36
X168.442Y-397.36
X177.332Y-381.3
X187.492Y-381.3
X158.282Y-378.3
X168.442Y-378.3
T3
X178.602Y-397.82
X184.952Y-395.28
X159.552Y-413.87
X165.902Y-411.33
X160.822Y-402.44
X167.172Y-399.9
X178.602Y-378.76
X184.952Y-376.22
X160.822Y-383.38
X167.172Y-380.84
X216.702Y-449.42
X223.052Y-446.88
X178.602Y-416.87
X184.952Y-414.33
X178.602Y-435.92
X184.952Y-433.38
X160.822Y-440.54
X167.172Y-438.0
X197.652Y-444.42
X204.002Y-441.88
T4
X163.362Y-397.36
X182.412Y-381.3
X163.362Y-378.3
X220.512Y-451.96
X182.412Y-419.41
X182.412Y-438.46
X163.362Y-435.46
X201.462Y-446.96
X182.412Y-400.36
X163.362Y-416.41
T0
M30
