M48
; DRILL file {KiCad (5.1.4)-1} date 9/9/2023 5:33:10 AM
; FORMAT={-:-/ absolute / metric / decimal}
; #@! TF.CreationDate,2023-09-09T05:33:10-04:00
; #@! TF.GenerationSoftware,Kicad,Pcbnew,(5.1.4)-1
; #@! TF.FileFunction,NonPlated,1,2,NPTH
FMAT,2
METRIC
T1C0.600
T2C1.500
T3C1.750
T4C2.950
T5C3.000
T6C5.050
%
G90
G05
T1
X169.53Y-369.29
X175.31Y-369.29
T2
X156.36Y-367.32
X163.36Y-367.32
T3
X177.332Y-400.36
X187.492Y-400.36
X177.332Y-438.46
X187.492Y-438.46
X177.332Y-381.3
X187.492Y-381.3
X158.282Y-435.46
X168.442Y-435.46
X158.282Y-378.3
X168.442Y-378.3
X196.382Y-446.96
X206.542Y-446.96
X177.332Y-419.41
X187.492Y-419.41
X158.282Y-397.36
X168.442Y-397.36
X215.432Y-451.96
X225.592Y-451.96
X158.282Y-416.41
X168.442Y-416.41
T4
X160.762Y-372.55
X168.062Y-373.9
X196.762Y-451.36
X204.062Y-452.71
X177.712Y-423.81
X185.012Y-425.16
X160.762Y-391.61
X168.062Y-392.96
X215.812Y-456.36
X223.112Y-457.71
X160.762Y-410.66
X168.062Y-412.01
X177.712Y-404.76
X185.012Y-406.11
X177.712Y-442.86
X185.012Y-444.21
X177.712Y-385.7
X185.012Y-387.05
X160.762Y-429.71
X168.062Y-431.06
T5
X160.822Y-402.44
X167.172Y-399.9
X216.702Y-449.42
X223.052Y-446.88
X160.822Y-421.49
X167.172Y-418.95
X178.602Y-397.82
X184.952Y-395.28
X178.602Y-435.92
X184.952Y-433.38
X178.602Y-378.76
X184.952Y-376.22
X160.822Y-440.54
X167.172Y-438.0
X160.822Y-383.38
X167.172Y-380.84
X197.652Y-444.42
X204.002Y-441.88
X178.602Y-416.87
X184.952Y-414.33
T6
X182.412Y-419.41
X182.412Y-438.46
X201.462Y-446.96
X163.362Y-397.36
X220.512Y-451.96
X163.362Y-416.41
X182.412Y-400.36
X182.412Y-381.3
X163.362Y-435.46
X163.362Y-378.3
T0
M30
