G04 #@! TF.GenerationSoftware,KiCad,Pcbnew,(5.1.4)-1*
G04 #@! TF.CreationDate,2023-06-13T20:26:26-04:00*
G04 #@! TF.ProjectId,ThumbsUp,5468756d-6273-4557-902e-6b696361645f,rev?*
G04 #@! TF.SameCoordinates,Original*
G04 #@! TF.FileFunction,Profile,NP*
%FSLAX46Y46*%
G04 Gerber Fmt 4.6, Leading zero omitted, Abs format (unit mm)*
G04 Created by KiCad (PCBNEW (5.1.4)-1) date 2023-06-13 20:26:26*
%MOMM*%
%LPD*%
G04 APERTURE LIST*
%ADD10C,0.050000*%
G04 APERTURE END LIST*
D10*
X189400000Y-439500000D02*
X190400000Y-440500000D01*
X154023238Y-374764941D02*
X154023238Y-372564941D01*
X208700000Y-440500000D02*
X190400000Y-440500000D01*
X189412025Y-392610322D02*
X189412025Y-373560322D01*
X154023238Y-374764941D02*
X154023238Y-393814941D01*
X208700000Y-440500000D02*
X213700000Y-445500000D01*
X227700000Y-445500000D02*
X213700000Y-445500000D01*
X227700000Y-445500000D02*
X229712025Y-447600000D01*
X189412025Y-373560322D02*
X189412025Y-371360322D01*
X229712025Y-447600000D02*
X229712025Y-458910323D01*
X189412025Y-392610322D02*
X189400000Y-439500000D01*
X186712025Y-368660322D02*
X189412025Y-371360322D01*
X219112025Y-460110322D02*
X218912025Y-460110323D01*
X229712025Y-458910323D02*
X228312025Y-460110323D01*
X186712025Y-368660322D02*
X156212026Y-368660322D01*
X219112025Y-460110322D02*
X228312025Y-460110323D01*
X218912025Y-460110323D02*
X164303913Y-474809185D01*
X154023238Y-372564941D02*
X154021905Y-370806391D01*
X154002490Y-458734349D02*
X152204378Y-463184833D01*
X154014855Y-451416095D02*
X154009034Y-450396466D01*
X154002490Y-458734349D02*
X154014855Y-451416095D01*
X154021905Y-370806391D02*
X156212026Y-368660322D01*
X155082510Y-473946632D02*
X164303913Y-474809185D01*
X155082510Y-473946632D02*
X152204378Y-463184833D01*
X154023238Y-393814941D02*
X153997497Y-433386766D01*
X153997497Y-433386766D02*
X154009034Y-450396466D01*
M02*
