%FSLAX45Y45*%
G04 Gerber Fmt 4.5, Leading zero omitted, Abs format (unit mm)*
G04 Created by KiCad (PCBNEW (5.1.4)-1) date 2023-06-13 20:26:30*
%MOMM*%
%LPD*%
G04 APERTURE LIST*
%ADD10C,0.050000*%
%ADD11C,0.200000*%
%ADD12C,0.300000*%
G04 APERTURE END LIST*
D10*
X18940000Y-43950000D02*
X19040000Y-44050000D01*
X15402324Y-37476494D02*
X15402324Y-37256494D01*
X20870000Y-44050000D02*
X19040000Y-44050000D01*
X18941203Y-39261032D02*
X18941203Y-37356032D01*
X15402324Y-37476494D02*
X15402324Y-39381494D01*
X20870000Y-44050000D02*
X21370000Y-44550000D01*
X22770000Y-44550000D02*
X21370000Y-44550000D01*
X22770000Y-44550000D02*
X22971202Y-44760000D01*
X18941203Y-37356032D02*
X18941203Y-37136032D01*
X22971202Y-44760000D02*
X22971202Y-45891032D01*
X18941203Y-39261032D02*
X18940000Y-43950000D01*
X18671203Y-36866032D02*
X18941203Y-37136032D01*
X21911203Y-46011032D02*
X21891203Y-46011032D01*
X22971202Y-45891032D02*
X22831202Y-46011032D01*
X18671203Y-36866032D02*
X15621203Y-36866032D01*
X21911203Y-46011032D02*
X22831202Y-46011032D01*
X21891203Y-46011032D02*
X16430391Y-47480918D01*
X15402324Y-37256494D02*
X15402190Y-37080639D01*
X15400249Y-45873435D02*
X15220438Y-46318483D01*
X15401485Y-45141609D02*
X15400903Y-45039647D01*
X15400249Y-45873435D02*
X15401485Y-45141609D01*
X15402190Y-37080639D02*
X15621203Y-36866032D01*
X15508251Y-47394663D02*
X16430391Y-47480918D01*
X15508251Y-47394663D02*
X15220438Y-46318483D01*
X15402324Y-39381494D02*
X15399750Y-43338677D01*
X15399750Y-43338677D02*
X15400903Y-45039647D01*
D11*
X15732500Y-41847500D02*
X15772500Y-41887500D01*
X15772500Y-41847500D02*
X15732500Y-41887500D01*
X15740000Y-42259999D02*
X15780000Y-42299999D01*
X15780000Y-42259999D02*
X15740000Y-42299999D01*
X16070000Y-44670000D02*
X16110000Y-44710000D01*
X16110000Y-44670000D02*
X16070000Y-44710000D01*
X16096000Y-46085000D02*
X16136000Y-46125000D01*
X16136000Y-46085000D02*
X16096000Y-46125000D01*
X16139161Y-44598273D02*
X16179161Y-44638273D01*
X16179161Y-44598273D02*
X16139161Y-44638273D01*
X16196773Y-44525648D02*
X16236773Y-44565648D01*
X16236773Y-44525648D02*
X16196773Y-44565648D01*
X16262939Y-44460721D02*
X16302939Y-44500721D01*
X16302939Y-44460721D02*
X16262939Y-44500721D01*
X16390000Y-45580000D02*
X16430000Y-45620000D01*
X16430000Y-45580000D02*
X16390000Y-45620000D01*
X16602300Y-46092699D02*
X16642300Y-46132699D01*
X16642300Y-46092699D02*
X16602300Y-46132699D01*
X16612500Y-45077500D02*
X16652500Y-45117500D01*
X16652500Y-45077500D02*
X16612500Y-45117500D01*
X16680000Y-45577599D02*
X16720000Y-45617599D01*
X16720000Y-45577599D02*
X16680000Y-45617599D01*
X16680001Y-45925000D02*
X16720001Y-45965000D01*
X16720001Y-45925000D02*
X16680001Y-45965000D01*
X16690000Y-44210000D02*
X16730000Y-44250000D01*
X16730000Y-44210000D02*
X16690000Y-44250000D01*
X16708235Y-45163234D02*
X16748235Y-45203234D01*
X16748235Y-45163234D02*
X16708235Y-45203234D01*
X16759299Y-45655299D02*
X16799299Y-45695299D01*
X16799299Y-45655299D02*
X16759299Y-45695299D01*
X16785000Y-46615000D02*
X16825000Y-46655000D01*
X16825000Y-46615000D02*
X16785000Y-46655000D01*
X16847498Y-45922502D02*
X16887498Y-45962502D01*
X16887498Y-45922502D02*
X16847498Y-45962502D01*
X16898247Y-45833005D02*
X16938247Y-45873005D01*
X16938247Y-45833005D02*
X16898247Y-45873005D01*
X16900000Y-45080000D02*
X16940000Y-45120000D01*
X16940000Y-45080000D02*
X16900000Y-45120000D01*
X16900000Y-46355000D02*
X16940000Y-46395000D01*
X16940000Y-46355000D02*
X16900000Y-46395000D01*
X16905000Y-46720000D02*
X16945000Y-46760000D01*
X16945000Y-46720000D02*
X16905000Y-46760000D01*
X16960021Y-45763886D02*
X17000021Y-45803886D01*
X17000021Y-45763886D02*
X16960021Y-45803886D01*
X16984313Y-42357499D02*
X17024313Y-42397499D01*
X17024313Y-42357499D02*
X16984313Y-42397499D01*
X16995000Y-46470000D02*
X17035000Y-46510000D01*
X17035000Y-46470000D02*
X16995000Y-46510000D01*
X17007500Y-44395000D02*
X17047500Y-44435000D01*
X17047500Y-44395000D02*
X17007500Y-44435000D01*
X17055000Y-44685000D02*
X17095000Y-44725000D01*
X17095000Y-44685000D02*
X17055000Y-44725000D01*
X17092500Y-37612500D02*
X17132500Y-37652500D01*
X17132500Y-37612500D02*
X17092500Y-37652500D01*
X17112500Y-44405000D02*
X17152500Y-44445000D01*
X17152500Y-44405000D02*
X17112500Y-44445000D01*
X17147182Y-44694793D02*
X17187182Y-44734793D01*
X17187182Y-44694793D02*
X17147182Y-44734793D01*
X17197500Y-38340000D02*
X17237500Y-38380000D01*
X17237500Y-38340000D02*
X17197500Y-38380000D01*
X17224358Y-44600642D02*
X17264358Y-44640642D01*
X17264358Y-44600642D02*
X17224358Y-44640642D01*
X17232500Y-37615000D02*
X17272500Y-37655000D01*
X17272500Y-37615000D02*
X17232500Y-37655000D01*
X17259897Y-40690000D02*
X17299897Y-40730000D01*
X17299897Y-40690000D02*
X17259897Y-40730000D01*
X17322098Y-42955000D02*
X17362098Y-42995000D01*
X17362098Y-42955000D02*
X17322098Y-42995000D01*
X17333038Y-44082598D02*
X17373038Y-44122598D01*
X17373038Y-44082598D02*
X17333038Y-44122598D01*
X17336306Y-43989955D02*
X17376306Y-44029955D01*
X17376306Y-43989955D02*
X17336306Y-44029955D01*
X17337183Y-44518609D02*
X17377183Y-44558609D01*
X17377183Y-44518609D02*
X17337183Y-44558609D01*
X17346233Y-44426351D02*
X17386233Y-44466351D01*
X17386233Y-44426351D02*
X17346233Y-44466351D01*
X17347299Y-44333656D02*
X17387299Y-44373656D01*
X17387299Y-44333656D02*
X17347299Y-44373656D01*
X17382049Y-43897276D02*
X17422049Y-43937276D01*
X17422049Y-43897276D02*
X17382049Y-43937276D01*
X17384714Y-46358490D02*
X17424714Y-46398490D01*
X17424714Y-46358490D02*
X17384714Y-46398490D01*
X17390000Y-44630000D02*
X17430000Y-44670000D01*
X17430000Y-44630000D02*
X17390000Y-44670000D01*
X17400000Y-46720000D02*
X17440000Y-46760000D01*
X17440000Y-46720000D02*
X17400000Y-46760000D01*
X17405114Y-43352501D02*
X17445114Y-43392501D01*
X17445114Y-43352501D02*
X17405114Y-43392501D01*
X17415000Y-42823000D02*
X17455000Y-42863000D01*
X17455000Y-42823000D02*
X17415000Y-42863000D01*
X17425000Y-46275000D02*
X17465000Y-46315000D01*
X17465000Y-46275000D02*
X17425000Y-46315000D01*
X17435854Y-43821788D02*
X17475854Y-43861788D01*
X17475854Y-43821788D02*
X17435854Y-43861788D01*
X17462700Y-46187500D02*
X17502700Y-46227500D01*
X17502700Y-46187500D02*
X17462700Y-46227500D01*
X17462901Y-46615000D02*
X17502901Y-46655000D01*
X17502901Y-46615000D02*
X17462901Y-46655000D01*
X17477180Y-43294191D02*
X17517180Y-43334191D01*
X17517180Y-43294191D02*
X17477180Y-43334191D01*
X17494000Y-42754000D02*
X17534000Y-42794000D01*
X17534000Y-42754000D02*
X17494000Y-42794000D01*
X17553000Y-46469999D02*
X17593000Y-46509999D01*
X17593000Y-46469999D02*
X17553000Y-46509999D01*
X17560000Y-43240000D02*
X17600000Y-43280000D01*
X17600000Y-43240000D02*
X17560000Y-43280000D01*
X17560587Y-46361890D02*
X17600587Y-46401890D01*
X17600587Y-46361890D02*
X17560587Y-46401890D01*
X17605586Y-44709414D02*
X17645586Y-44749414D01*
X17645586Y-44709414D02*
X17605586Y-44749414D01*
X17627700Y-45832300D02*
X17667700Y-45872300D01*
X17667700Y-45832300D02*
X17627700Y-45872300D01*
X17636146Y-45012431D02*
X17676146Y-45052431D01*
X17676146Y-45012431D02*
X17636146Y-45052431D01*
X17687238Y-44935080D02*
X17727238Y-44975080D01*
X17727238Y-44935080D02*
X17687238Y-44975080D01*
X17692499Y-44835000D02*
X17732499Y-44875000D01*
X17732499Y-44835000D02*
X17692499Y-44875000D01*
X17730400Y-46550000D02*
X17770400Y-46590000D01*
X17770400Y-46550000D02*
X17730400Y-46590000D01*
X17802500Y-46025000D02*
X17842500Y-46065000D01*
X17842500Y-46025000D02*
X17802500Y-46065000D01*
X17852500Y-46187500D02*
X17892500Y-46227500D01*
X17892500Y-46187500D02*
X17852500Y-46227500D01*
X17876915Y-46470000D02*
X17916915Y-46510000D01*
X17916915Y-46470000D02*
X17876915Y-46510000D01*
X17931836Y-45711836D02*
X17971836Y-45751836D01*
X17971836Y-45711836D02*
X17931836Y-45751836D01*
X18021115Y-45911726D02*
X18061115Y-45951726D01*
X18061115Y-45911726D02*
X18021115Y-45951726D01*
X18084107Y-44709414D02*
X18124107Y-44749414D01*
X18124107Y-44709414D02*
X18084107Y-44749414D01*
X18108382Y-45347895D02*
X18148382Y-45387895D01*
X18148382Y-45347895D02*
X18108382Y-45387895D01*
X18138420Y-45906164D02*
X18178420Y-45946164D01*
X18178420Y-45906164D02*
X18138420Y-45946164D01*
X18312500Y-45785000D02*
X18352500Y-45825000D01*
X18352500Y-45785000D02*
X18312500Y-45825000D01*
X18352500Y-46140000D02*
X18392500Y-46180000D01*
X18392500Y-46140000D02*
X18352500Y-46180000D01*
X18390000Y-44620000D02*
X18430000Y-44660000D01*
X18430000Y-44620000D02*
X18390000Y-44660000D01*
X18390000Y-44527300D02*
X18430000Y-44567300D01*
X18430000Y-44527300D02*
X18390000Y-44567300D01*
X18392984Y-44712653D02*
X18432984Y-44752653D01*
X18432984Y-44712653D02*
X18392984Y-44752653D01*
X16825500Y-36981000D02*
G75*
G03X16825500Y-36981000I-30000J0D01*
G01*
X16775500Y-36941000D02*
X16775500Y-37021000D01*
X16815500Y-36941000D02*
X16815500Y-37021000D01*
X16775500Y-37021000D02*
G75*
G03X16815500Y-37021000I20000J0D01*
G01*
X16815500Y-36941000D02*
G75*
G03X16775500Y-36941000I-20000J0D01*
G01*
X16825500Y-37398000D02*
G75*
G03X16825500Y-37398000I-30000J0D01*
G01*
X16775500Y-37343000D02*
X16775500Y-37453000D01*
X16815500Y-37343000D02*
X16815500Y-37453000D01*
X16775500Y-37453000D02*
G75*
G03X16815500Y-37453000I20000J0D01*
G01*
X16815500Y-37343000D02*
G75*
G03X16775500Y-37343000I-20000J0D01*
G01*
X17689500Y-36981000D02*
G75*
G03X17689500Y-36981000I-30000J0D01*
G01*
X17639500Y-36941000D02*
X17639500Y-37021000D01*
X17679500Y-36941000D02*
X17679500Y-37021000D01*
X17639500Y-37021000D02*
G75*
G03X17679500Y-37021000I20000J0D01*
G01*
X17679500Y-36941000D02*
G75*
G03X17639500Y-36941000I-20000J0D01*
G01*
X17689500Y-37398000D02*
G75*
G03X17689500Y-37398000I-30000J0D01*
G01*
X17639500Y-37343000D02*
X17639500Y-37453000D01*
X17679500Y-37343000D02*
X17679500Y-37453000D01*
X17639500Y-37453000D02*
G75*
G03X17679500Y-37453000I20000J0D01*
G01*
X17679500Y-37343000D02*
G75*
G03X17639500Y-37343000I-20000J0D01*
G01*
X17921000Y-37036000D02*
X17921000Y-37136000D01*
X17871000Y-37086000D02*
X17971000Y-37086000D01*
X18175000Y-37036000D02*
X18175000Y-37136000D01*
X18125000Y-37086000D02*
X18225000Y-37086000D01*
X18429000Y-37036000D02*
X18429000Y-37136000D01*
X18379000Y-37086000D02*
X18479000Y-37086000D01*
X18683000Y-37036000D02*
X18683000Y-37136000D01*
X18633000Y-37086000D02*
X18733000Y-37086000D01*
X19272643Y-45730790D02*
X19272643Y-45830790D01*
X19222643Y-45780790D02*
X19322643Y-45780790D01*
X19338383Y-45976135D02*
X19338383Y-46076135D01*
X19288383Y-46026135D02*
X19388383Y-46026135D01*
X19404123Y-46221481D02*
X19404123Y-46321481D01*
X19354123Y-46271481D02*
X19454123Y-46271481D01*
X19469863Y-46466826D02*
X19469863Y-46566826D01*
X19419863Y-46516826D02*
X19519863Y-46516826D01*
X17843672Y-42845785D02*
X17843672Y-42945785D01*
X17793672Y-42895785D02*
X17893672Y-42895785D01*
X18097672Y-42845785D02*
X18097672Y-42945785D01*
X18047672Y-42895785D02*
X18147672Y-42895785D01*
X18351672Y-42845785D02*
X18351672Y-42945785D01*
X18301672Y-42895785D02*
X18401672Y-42895785D01*
X18605672Y-42845785D02*
X18605672Y-42945785D01*
X18555672Y-42895785D02*
X18655672Y-42895785D01*
X15541202Y-42161028D02*
X15541202Y-42261028D01*
X15491202Y-42211028D02*
X15591202Y-42211028D01*
X15541202Y-42415028D02*
X15541202Y-42515028D01*
X15491202Y-42465028D02*
X15591202Y-42465028D01*
X15541202Y-42669028D02*
X15541202Y-42769028D01*
X15491202Y-42719028D02*
X15591202Y-42719028D01*
X15541202Y-42923028D02*
X15541202Y-43023028D01*
X15491202Y-42973028D02*
X15591202Y-42973028D01*
X17821203Y-39036032D02*
X17821203Y-39136032D01*
X17771203Y-39086032D02*
X17871203Y-39086032D01*
X18075203Y-39036032D02*
X18075203Y-39136032D01*
X18025203Y-39086032D02*
X18125203Y-39086032D01*
X18329203Y-39036032D02*
X18329203Y-39136032D01*
X18279203Y-39086032D02*
X18379203Y-39086032D01*
X18583203Y-39036032D02*
X18583203Y-39136032D01*
X18533203Y-39086032D02*
X18633203Y-39086032D01*
X15619592Y-45058497D02*
X15619592Y-45158497D01*
X15569592Y-45108497D02*
X15669592Y-45108497D01*
X15873592Y-45058497D02*
X15873592Y-45158497D01*
X15823592Y-45108497D02*
X15923592Y-45108497D01*
X16127592Y-45058497D02*
X16127592Y-45158497D01*
X16077592Y-45108497D02*
X16177592Y-45108497D01*
X16381592Y-45058497D02*
X16381592Y-45158497D01*
X16331592Y-45108497D02*
X16431592Y-45108497D01*
X18255167Y-46798252D02*
X18255167Y-46898252D01*
X18205167Y-46848252D02*
X18305167Y-46848252D01*
X18500512Y-46732512D02*
X18500512Y-46832512D01*
X18450512Y-46782512D02*
X18550512Y-46782512D01*
X18745857Y-46666772D02*
X18745857Y-46766772D01*
X18695857Y-46716772D02*
X18795857Y-46716772D01*
X18991202Y-46601032D02*
X18991202Y-46701032D01*
X18941202Y-46651032D02*
X19041202Y-46651032D01*
X16585167Y-47248252D02*
X16585167Y-47348252D01*
X16535167Y-47298252D02*
X16635167Y-47298252D01*
X16830512Y-47182512D02*
X16830512Y-47282512D01*
X16780512Y-47232512D02*
X16880512Y-47232512D01*
X17075857Y-47116772D02*
X17075857Y-47216772D01*
X17025857Y-47166772D02*
X17125857Y-47166772D01*
X17321203Y-47051032D02*
X17321203Y-47151032D01*
X17271203Y-47101032D02*
X17371203Y-47101032D01*
X15545873Y-37126079D02*
X15545873Y-37226079D01*
X15495873Y-37176079D02*
X15595873Y-37176079D01*
X15545873Y-37380079D02*
X15545873Y-37480079D01*
X15495873Y-37430079D02*
X15595873Y-37430079D01*
X15545873Y-37634079D02*
X15545873Y-37734079D01*
X15495873Y-37684079D02*
X15595873Y-37684079D01*
X15545873Y-37888079D02*
X15545873Y-37988079D01*
X15495873Y-37938079D02*
X15595873Y-37938079D01*
X15441893Y-46395462D02*
X15441893Y-46495462D01*
X15391893Y-46445462D02*
X15491893Y-46445462D01*
X15507633Y-46640807D02*
X15507633Y-46740807D01*
X15457633Y-46690807D02*
X15557633Y-46690807D01*
X15573373Y-46886153D02*
X15573373Y-46986153D01*
X15523373Y-46936153D02*
X15623373Y-46936153D01*
X15639113Y-47131498D02*
X15639113Y-47231498D01*
X15589113Y-47181498D02*
X15689113Y-47181498D01*
X22841202Y-45061032D02*
X22841202Y-45161032D01*
X22791202Y-45111032D02*
X22891202Y-45111032D01*
X22841202Y-45315032D02*
X22841202Y-45415032D01*
X22791202Y-45365032D02*
X22891202Y-45365032D01*
X22841202Y-45569032D02*
X22841202Y-45669032D01*
X22791202Y-45619032D02*
X22891202Y-45619032D01*
X22841202Y-45823032D02*
X22841202Y-45923032D01*
X22791202Y-45873032D02*
X22891202Y-45873032D01*
X17873901Y-40934201D02*
X17873901Y-41034201D01*
X17823901Y-40984201D02*
X17923901Y-40984201D01*
X18127901Y-40934201D02*
X18127901Y-41034201D01*
X18077901Y-40984201D02*
X18177901Y-40984201D01*
X18381901Y-40934201D02*
X18381901Y-41034201D01*
X18331901Y-40984201D02*
X18431901Y-40984201D01*
X18635901Y-40934201D02*
X18635901Y-41034201D01*
X18585901Y-40984201D02*
X18685901Y-40984201D01*
X20654731Y-45734556D02*
X20654731Y-45660309D01*
X20580484Y-45660309D01*
X20580484Y-45734556D01*
X20654731Y-45734556D01*
X20771958Y-46169019D02*
X20771958Y-46094772D01*
X20697711Y-46094772D01*
X20697711Y-46169019D01*
X20771958Y-46169019D01*
X20909897Y-45432661D02*
X20909897Y-45358414D01*
X20835650Y-45358414D01*
X20835650Y-45432661D01*
X20909897Y-45432661D01*
X21282289Y-45565228D02*
X21282289Y-45490981D01*
X21208042Y-45490981D01*
X21208042Y-45565228D01*
X21282289Y-45565228D01*
X21399516Y-45999691D02*
X21399516Y-45925444D01*
X21325269Y-45925444D01*
X21325269Y-45999691D01*
X21399516Y-45999691D01*
X19684731Y-45994556D02*
X19684731Y-45920309D01*
X19610484Y-45920309D01*
X19610484Y-45994556D01*
X19684731Y-45994556D01*
X19801958Y-46429019D02*
X19801958Y-46354772D01*
X19727711Y-46354772D01*
X19727711Y-46429019D01*
X19801958Y-46429019D01*
X19939897Y-45692661D02*
X19939897Y-45618414D01*
X19865650Y-45618414D01*
X19865650Y-45692661D01*
X19939897Y-45692661D01*
X20312289Y-45825228D02*
X20312289Y-45750981D01*
X20238042Y-45750981D01*
X20238042Y-45825228D01*
X20312289Y-45825228D01*
X20429516Y-46259691D02*
X20429516Y-46185444D01*
X20355269Y-46185444D01*
X20355269Y-46259691D01*
X20429516Y-46259691D01*
X19892203Y-45277532D02*
X19965703Y-45204032D01*
X19892203Y-45130532D01*
X19818703Y-45204032D01*
X19892203Y-45277532D01*
X19896203Y-45219532D02*
X19969703Y-45146032D01*
X19896203Y-45072532D01*
X19822703Y-45146032D01*
X19896203Y-45219532D01*
X20396203Y-45169532D02*
X20469703Y-45096032D01*
X20396203Y-45022532D01*
X20322703Y-45096032D01*
X20396203Y-45169532D01*
X20527203Y-45023532D02*
X20600703Y-44950032D01*
X20527203Y-44876532D01*
X20453703Y-44950032D01*
X20527203Y-45023532D01*
X17987203Y-40617532D02*
X18060703Y-40544032D01*
X17987203Y-40470532D01*
X17913703Y-40544032D01*
X17987203Y-40617532D01*
X17991203Y-40559532D02*
X18064703Y-40486032D01*
X17991203Y-40412532D01*
X17917703Y-40486032D01*
X17991203Y-40559532D01*
X18491203Y-40509532D02*
X18564703Y-40436032D01*
X18491203Y-40362532D01*
X18417703Y-40436032D01*
X18491203Y-40509532D01*
X18622203Y-40363532D02*
X18695703Y-40290032D01*
X18622203Y-40216532D01*
X18548703Y-40290032D01*
X18622203Y-40363532D01*
X16082202Y-42222532D02*
X16155702Y-42149032D01*
X16082202Y-42075532D01*
X16008702Y-42149032D01*
X16082202Y-42222532D01*
X16086202Y-42164532D02*
X16159702Y-42091032D01*
X16086202Y-42017532D01*
X16012702Y-42091032D01*
X16086202Y-42164532D01*
X16586202Y-42114532D02*
X16659702Y-42041032D01*
X16586202Y-41967532D01*
X16512702Y-42041032D01*
X16586202Y-42114532D01*
X16717202Y-41968532D02*
X16790703Y-41895032D01*
X16717202Y-41821532D01*
X16643702Y-41895032D01*
X16717202Y-41968532D01*
X15955203Y-39555532D02*
X16028703Y-39482032D01*
X15955203Y-39408532D01*
X15881703Y-39482032D01*
X15955203Y-39555532D01*
X16086203Y-39409532D02*
X16159703Y-39336032D01*
X16086203Y-39262532D01*
X16012703Y-39336032D01*
X16086203Y-39409532D01*
X16586203Y-39359532D02*
X16659703Y-39286032D01*
X16586203Y-39212532D01*
X16512703Y-39286032D01*
X16586203Y-39359532D01*
X16590203Y-39301532D02*
X16663703Y-39228032D01*
X16590203Y-39154532D01*
X16516703Y-39228032D01*
X16590203Y-39301532D01*
X17987203Y-38711500D02*
X18060703Y-38638000D01*
X17987203Y-38564500D01*
X17913703Y-38638000D01*
X17987203Y-38711500D01*
X17991203Y-38653500D02*
X18064703Y-38580000D01*
X17991203Y-38506500D01*
X17917703Y-38580000D01*
X17991203Y-38653500D01*
X18491203Y-38603500D02*
X18564703Y-38530000D01*
X18491203Y-38456500D01*
X18417703Y-38530000D01*
X18491203Y-38603500D01*
X18622203Y-38457500D02*
X18695703Y-38384000D01*
X18622203Y-38310500D01*
X18548703Y-38384000D01*
X18622203Y-38457500D01*
X15955203Y-37649500D02*
X16028703Y-37576000D01*
X15955203Y-37502500D01*
X15881703Y-37576000D01*
X15955203Y-37649500D01*
X16086203Y-37503500D02*
X16159703Y-37430000D01*
X16086203Y-37356500D01*
X16012703Y-37430000D01*
X16086203Y-37503500D01*
X16586203Y-37453500D02*
X16659703Y-37380000D01*
X16586203Y-37306500D01*
X16512703Y-37380000D01*
X16586203Y-37453500D01*
X16590203Y-37395500D02*
X16663703Y-37322000D01*
X16590203Y-37248500D01*
X16516703Y-37322000D01*
X16590203Y-37395500D01*
X21797203Y-45777532D02*
X21870703Y-45704032D01*
X21797203Y-45630532D01*
X21723703Y-45704032D01*
X21797203Y-45777532D01*
X21801203Y-45719532D02*
X21874703Y-45646032D01*
X21801203Y-45572532D01*
X21727703Y-45646032D01*
X21801203Y-45719532D01*
X22301203Y-45669532D02*
X22374702Y-45596032D01*
X22301203Y-45522532D01*
X22227703Y-45596032D01*
X22301203Y-45669532D01*
X22432202Y-45523532D02*
X22505702Y-45450032D01*
X22432202Y-45376532D01*
X22358703Y-45450032D01*
X22432202Y-45523532D01*
X17987203Y-42522532D02*
X18060703Y-42449032D01*
X17987203Y-42375532D01*
X17913703Y-42449032D01*
X17987203Y-42522532D01*
X17991203Y-42464532D02*
X18064703Y-42391032D01*
X17991203Y-42317532D01*
X17917703Y-42391032D01*
X17991203Y-42464532D01*
X18491203Y-42414532D02*
X18564703Y-42341032D01*
X18491203Y-42267532D01*
X18417703Y-42341032D01*
X18491203Y-42414532D01*
X18622203Y-42268532D02*
X18695703Y-42195032D01*
X18622203Y-42121532D01*
X18548703Y-42195032D01*
X18622203Y-42268532D01*
X17987203Y-44427532D02*
X18060703Y-44354032D01*
X17987203Y-44280532D01*
X17913703Y-44354032D01*
X17987203Y-44427532D01*
X17991203Y-44369532D02*
X18064703Y-44296032D01*
X17991203Y-44222532D01*
X17917703Y-44296032D01*
X17991203Y-44369532D01*
X18491203Y-44319532D02*
X18564703Y-44246032D01*
X18491203Y-44172532D01*
X18417703Y-44246032D01*
X18491203Y-44319532D01*
X18622203Y-44173532D02*
X18695703Y-44100032D01*
X18622203Y-44026532D01*
X18548703Y-44100032D01*
X18622203Y-44173532D01*
X15955202Y-43365532D02*
X16028702Y-43292032D01*
X15955202Y-43218532D01*
X15881702Y-43292032D01*
X15955202Y-43365532D01*
X16086202Y-43219532D02*
X16159702Y-43146032D01*
X16086202Y-43072532D01*
X16012702Y-43146032D01*
X16086202Y-43219532D01*
X16586202Y-43169532D02*
X16659702Y-43096032D01*
X16586202Y-43022532D01*
X16512702Y-43096032D01*
X16586202Y-43169532D01*
X16590202Y-43111532D02*
X16663702Y-43038032D01*
X16590202Y-42964532D01*
X16516702Y-43038032D01*
X16590202Y-43111532D01*
X15700000Y-38530000D02*
X15850000Y-38680000D01*
X15850000Y-38530000D02*
X15700000Y-38680000D01*
X15850000Y-38605000D02*
G75*
G03X15850000Y-38605000I-75000J0D01*
G01*
X15890000Y-39035000D02*
X16040000Y-39185000D01*
X16040000Y-39035000D02*
X15890000Y-39185000D01*
X16040000Y-39110000D02*
G75*
G03X16040000Y-39110000I-75000J0D01*
G01*
X15805000Y-38777500D02*
X15965000Y-38937500D01*
X15965000Y-38777500D02*
X15805000Y-38937500D01*
X15885000Y-38777500D02*
X15885000Y-38937500D01*
X15805000Y-38857500D02*
X15965000Y-38857500D01*
X16505000Y-38777500D02*
X16665000Y-38937500D01*
X16665000Y-38777500D02*
X16505000Y-38937500D01*
X16585000Y-38777500D02*
X16585000Y-38937500D01*
X16505000Y-38857500D02*
X16665000Y-38857500D01*
X16605000Y-38517500D02*
X16805000Y-38717500D01*
X16805000Y-38517500D02*
X16605000Y-38717500D01*
X16775711Y-38688211D02*
X16775711Y-38546789D01*
X16634289Y-38546789D01*
X16634289Y-38688211D01*
X16775711Y-38688211D01*
D12*
X15504366Y-47949133D02*
X15504366Y-47649133D01*
X15575795Y-47649133D01*
X15618652Y-47663419D01*
X15647223Y-47691990D01*
X15661509Y-47720561D01*
X15675795Y-47777704D01*
X15675795Y-47820561D01*
X15661509Y-47877704D01*
X15647223Y-47906276D01*
X15618652Y-47934847D01*
X15575795Y-47949133D01*
X15504366Y-47949133D01*
X15804366Y-47949133D02*
X15804366Y-47749133D01*
X15804366Y-47806276D02*
X15818652Y-47777704D01*
X15832938Y-47763419D01*
X15861509Y-47749133D01*
X15890080Y-47749133D01*
X15990080Y-47949133D02*
X15990080Y-47749133D01*
X15990080Y-47649133D02*
X15975795Y-47663419D01*
X15990080Y-47677704D01*
X16004366Y-47663419D01*
X15990080Y-47649133D01*
X15990080Y-47677704D01*
X16175795Y-47949133D02*
X16147223Y-47934847D01*
X16132938Y-47906276D01*
X16132938Y-47649133D01*
X16332938Y-47949133D02*
X16304366Y-47934847D01*
X16290080Y-47906276D01*
X16290080Y-47649133D01*
X16675795Y-47949133D02*
X16675795Y-47649133D01*
X16775795Y-47863419D01*
X16875795Y-47649133D01*
X16875795Y-47949133D01*
X17147223Y-47949133D02*
X17147223Y-47791990D01*
X17132938Y-47763419D01*
X17104366Y-47749133D01*
X17047223Y-47749133D01*
X17018652Y-47763419D01*
X17147223Y-47934847D02*
X17118652Y-47949133D01*
X17047223Y-47949133D01*
X17018652Y-47934847D01*
X17004366Y-47906276D01*
X17004366Y-47877704D01*
X17018652Y-47849133D01*
X17047223Y-47834847D01*
X17118652Y-47834847D01*
X17147223Y-47820561D01*
X17290081Y-47749133D02*
X17290081Y-48049133D01*
X17290081Y-47763419D02*
X17318652Y-47749133D01*
X17375795Y-47749133D01*
X17404366Y-47763419D01*
X17418652Y-47777704D01*
X17432938Y-47806276D01*
X17432938Y-47891990D01*
X17418652Y-47920561D01*
X17404366Y-47934847D01*
X17375795Y-47949133D01*
X17318652Y-47949133D01*
X17290081Y-47934847D01*
X17561509Y-47920561D02*
X17575795Y-47934847D01*
X17561509Y-47949133D01*
X17547223Y-47934847D01*
X17561509Y-47920561D01*
X17561509Y-47949133D01*
X17561509Y-47763419D02*
X17575795Y-47777704D01*
X17561509Y-47791990D01*
X17547223Y-47777704D01*
X17561509Y-47763419D01*
X17561509Y-47791990D01*
X15177938Y-48423419D02*
X15217938Y-48463419D01*
X15217938Y-48423419D02*
X15177938Y-48463419D01*
X15561509Y-48279133D02*
X15590080Y-48279133D01*
X15618652Y-48293419D01*
X15632938Y-48307704D01*
X15647223Y-48336276D01*
X15661509Y-48393419D01*
X15661509Y-48464847D01*
X15647223Y-48521990D01*
X15632938Y-48550561D01*
X15618652Y-48564847D01*
X15590080Y-48579133D01*
X15561509Y-48579133D01*
X15532938Y-48564847D01*
X15518652Y-48550561D01*
X15504366Y-48521990D01*
X15490080Y-48464847D01*
X15490080Y-48393419D01*
X15504366Y-48336276D01*
X15518652Y-48307704D01*
X15532938Y-48293419D01*
X15561509Y-48279133D01*
X15790080Y-48550561D02*
X15804366Y-48564847D01*
X15790080Y-48579133D01*
X15775795Y-48564847D01*
X15790080Y-48550561D01*
X15790080Y-48579133D01*
X16061509Y-48379133D02*
X16061509Y-48579133D01*
X15990080Y-48264847D02*
X15918652Y-48479133D01*
X16104366Y-48479133D01*
X16275795Y-48279133D02*
X16304366Y-48279133D01*
X16332938Y-48293419D01*
X16347223Y-48307704D01*
X16361509Y-48336276D01*
X16375795Y-48393419D01*
X16375795Y-48464847D01*
X16361509Y-48521990D01*
X16347223Y-48550561D01*
X16332938Y-48564847D01*
X16304366Y-48579133D01*
X16275795Y-48579133D01*
X16247223Y-48564847D01*
X16232938Y-48550561D01*
X16218652Y-48521990D01*
X16204366Y-48464847D01*
X16204366Y-48393419D01*
X16218652Y-48336276D01*
X16232938Y-48307704D01*
X16247223Y-48293419D01*
X16275795Y-48279133D01*
X16504366Y-48579133D02*
X16504366Y-48379133D01*
X16504366Y-48407704D02*
X16518652Y-48393419D01*
X16547223Y-48379133D01*
X16590080Y-48379133D01*
X16618652Y-48393419D01*
X16632938Y-48421990D01*
X16632938Y-48579133D01*
X16632938Y-48421990D02*
X16647223Y-48393419D01*
X16675795Y-48379133D01*
X16718652Y-48379133D01*
X16747223Y-48393419D01*
X16761509Y-48421990D01*
X16761509Y-48579133D01*
X16904366Y-48579133D02*
X16904366Y-48379133D01*
X16904366Y-48407704D02*
X16918652Y-48393419D01*
X16947223Y-48379133D01*
X16990081Y-48379133D01*
X17018652Y-48393419D01*
X17032938Y-48421990D01*
X17032938Y-48579133D01*
X17032938Y-48421990D02*
X17047223Y-48393419D01*
X17075795Y-48379133D01*
X17118652Y-48379133D01*
X17147223Y-48393419D01*
X17161509Y-48421990D01*
X17161509Y-48579133D01*
X17747223Y-48264847D02*
X17490081Y-48650561D01*
X18132938Y-48279133D02*
X18161509Y-48279133D01*
X18190081Y-48293419D01*
X18204366Y-48307704D01*
X18218652Y-48336276D01*
X18232938Y-48393419D01*
X18232938Y-48464847D01*
X18218652Y-48521990D01*
X18204366Y-48550561D01*
X18190081Y-48564847D01*
X18161509Y-48579133D01*
X18132938Y-48579133D01*
X18104366Y-48564847D01*
X18090081Y-48550561D01*
X18075795Y-48521990D01*
X18061509Y-48464847D01*
X18061509Y-48393419D01*
X18075795Y-48336276D01*
X18090081Y-48307704D01*
X18104366Y-48293419D01*
X18132938Y-48279133D01*
X18361509Y-48550561D02*
X18375795Y-48564847D01*
X18361509Y-48579133D01*
X18347223Y-48564847D01*
X18361509Y-48550561D01*
X18361509Y-48579133D01*
X18561509Y-48279133D02*
X18590081Y-48279133D01*
X18618652Y-48293419D01*
X18632938Y-48307704D01*
X18647223Y-48336276D01*
X18661509Y-48393419D01*
X18661509Y-48464847D01*
X18647223Y-48521990D01*
X18632938Y-48550561D01*
X18618652Y-48564847D01*
X18590081Y-48579133D01*
X18561509Y-48579133D01*
X18532938Y-48564847D01*
X18518652Y-48550561D01*
X18504366Y-48521990D01*
X18490081Y-48464847D01*
X18490081Y-48393419D01*
X18504366Y-48336276D01*
X18518652Y-48307704D01*
X18532938Y-48293419D01*
X18561509Y-48279133D01*
X18947223Y-48579133D02*
X18775795Y-48579133D01*
X18861509Y-48579133D02*
X18861509Y-48279133D01*
X18832938Y-48321990D01*
X18804366Y-48350561D01*
X18775795Y-48364847D01*
X19204366Y-48279133D02*
X19147223Y-48279133D01*
X19118652Y-48293419D01*
X19104366Y-48307704D01*
X19075795Y-48350561D01*
X19061509Y-48407704D01*
X19061509Y-48521990D01*
X19075795Y-48550561D01*
X19090081Y-48564847D01*
X19118652Y-48579133D01*
X19175795Y-48579133D01*
X19204366Y-48564847D01*
X19218652Y-48550561D01*
X19232938Y-48521990D01*
X19232938Y-48450561D01*
X19218652Y-48421990D01*
X19204366Y-48407704D01*
X19175795Y-48393419D01*
X19118652Y-48393419D01*
X19090081Y-48407704D01*
X19075795Y-48421990D01*
X19061509Y-48450561D01*
X19347223Y-48279133D02*
X19347223Y-48336276D01*
X19461509Y-48279133D02*
X19461509Y-48336276D01*
X19904366Y-48693419D02*
X19890081Y-48679133D01*
X19861509Y-48636276D01*
X19847223Y-48607704D01*
X19832938Y-48564847D01*
X19818652Y-48493419D01*
X19818652Y-48436276D01*
X19832938Y-48364847D01*
X19847223Y-48321990D01*
X19861509Y-48293419D01*
X19890081Y-48250561D01*
X19904366Y-48236276D01*
X19990081Y-48279133D02*
X20190081Y-48279133D01*
X20061509Y-48579133D01*
X20275795Y-48279133D02*
X20461509Y-48279133D01*
X20361509Y-48393419D01*
X20404366Y-48393419D01*
X20432938Y-48407704D01*
X20447223Y-48421990D01*
X20461509Y-48450561D01*
X20461509Y-48521990D01*
X20447223Y-48550561D01*
X20432938Y-48564847D01*
X20404366Y-48579133D01*
X20318652Y-48579133D01*
X20290081Y-48564847D01*
X20275795Y-48550561D01*
X20818652Y-48579133D02*
X20818652Y-48279133D01*
X20947223Y-48579133D02*
X20947223Y-48421990D01*
X20932938Y-48393419D01*
X20904366Y-48379133D01*
X20861509Y-48379133D01*
X20832938Y-48393419D01*
X20818652Y-48407704D01*
X21132938Y-48579133D02*
X21104366Y-48564847D01*
X21090081Y-48550561D01*
X21075795Y-48521990D01*
X21075795Y-48436276D01*
X21090081Y-48407704D01*
X21104366Y-48393419D01*
X21132938Y-48379133D01*
X21175795Y-48379133D01*
X21204366Y-48393419D01*
X21218652Y-48407704D01*
X21232938Y-48436276D01*
X21232938Y-48521990D01*
X21218652Y-48550561D01*
X21204366Y-48564847D01*
X21175795Y-48579133D01*
X21132938Y-48579133D01*
X21404366Y-48579133D02*
X21375795Y-48564847D01*
X21361509Y-48536276D01*
X21361509Y-48279133D01*
X21632938Y-48564847D02*
X21604366Y-48579133D01*
X21547223Y-48579133D01*
X21518652Y-48564847D01*
X21504366Y-48536276D01*
X21504366Y-48421990D01*
X21518652Y-48393419D01*
X21547223Y-48379133D01*
X21604366Y-48379133D01*
X21632938Y-48393419D01*
X21647223Y-48421990D01*
X21647223Y-48450561D01*
X21504366Y-48479133D01*
X21761509Y-48564847D02*
X21790081Y-48579133D01*
X21847223Y-48579133D01*
X21875795Y-48564847D01*
X21890081Y-48536276D01*
X21890081Y-48521990D01*
X21875795Y-48493419D01*
X21847223Y-48479133D01*
X21804366Y-48479133D01*
X21775795Y-48464847D01*
X21761509Y-48436276D01*
X21761509Y-48421990D01*
X21775795Y-48393419D01*
X21804366Y-48379133D01*
X21847223Y-48379133D01*
X21875795Y-48393419D01*
X21990081Y-48693419D02*
X22004366Y-48679133D01*
X22032938Y-48636276D01*
X22047223Y-48607704D01*
X22061509Y-48564847D01*
X22075795Y-48493419D01*
X22075795Y-48436276D01*
X22061509Y-48364847D01*
X22047223Y-48321990D01*
X22032938Y-48293419D01*
X22004366Y-48250561D01*
X21990081Y-48236276D01*
X15217938Y-48839419D02*
G75*
G03X15217938Y-48839419I-30000J0D01*
G01*
X15561509Y-48675133D02*
X15590080Y-48675133D01*
X15618652Y-48689419D01*
X15632938Y-48703704D01*
X15647223Y-48732276D01*
X15661509Y-48789419D01*
X15661509Y-48860847D01*
X15647223Y-48917990D01*
X15632938Y-48946561D01*
X15618652Y-48960847D01*
X15590080Y-48975133D01*
X15561509Y-48975133D01*
X15532938Y-48960847D01*
X15518652Y-48946561D01*
X15504366Y-48917990D01*
X15490080Y-48860847D01*
X15490080Y-48789419D01*
X15504366Y-48732276D01*
X15518652Y-48703704D01*
X15532938Y-48689419D01*
X15561509Y-48675133D01*
X15790080Y-48946561D02*
X15804366Y-48960847D01*
X15790080Y-48975133D01*
X15775795Y-48960847D01*
X15790080Y-48946561D01*
X15790080Y-48975133D01*
X16061509Y-48675133D02*
X16004366Y-48675133D01*
X15975795Y-48689419D01*
X15961509Y-48703704D01*
X15932938Y-48746561D01*
X15918652Y-48803704D01*
X15918652Y-48917990D01*
X15932938Y-48946561D01*
X15947223Y-48960847D01*
X15975795Y-48975133D01*
X16032938Y-48975133D01*
X16061509Y-48960847D01*
X16075795Y-48946561D01*
X16090080Y-48917990D01*
X16090080Y-48846561D01*
X16075795Y-48817990D01*
X16061509Y-48803704D01*
X16032938Y-48789419D01*
X15975795Y-48789419D01*
X15947223Y-48803704D01*
X15932938Y-48817990D01*
X15918652Y-48846561D01*
X16275795Y-48675133D02*
X16304366Y-48675133D01*
X16332938Y-48689419D01*
X16347223Y-48703704D01*
X16361509Y-48732276D01*
X16375795Y-48789419D01*
X16375795Y-48860847D01*
X16361509Y-48917990D01*
X16347223Y-48946561D01*
X16332938Y-48960847D01*
X16304366Y-48975133D01*
X16275795Y-48975133D01*
X16247223Y-48960847D01*
X16232938Y-48946561D01*
X16218652Y-48917990D01*
X16204366Y-48860847D01*
X16204366Y-48789419D01*
X16218652Y-48732276D01*
X16232938Y-48703704D01*
X16247223Y-48689419D01*
X16275795Y-48675133D01*
X16504366Y-48975133D02*
X16504366Y-48775133D01*
X16504366Y-48803704D02*
X16518652Y-48789419D01*
X16547223Y-48775133D01*
X16590080Y-48775133D01*
X16618652Y-48789419D01*
X16632938Y-48817990D01*
X16632938Y-48975133D01*
X16632938Y-48817990D02*
X16647223Y-48789419D01*
X16675795Y-48775133D01*
X16718652Y-48775133D01*
X16747223Y-48789419D01*
X16761509Y-48817990D01*
X16761509Y-48975133D01*
X16904366Y-48975133D02*
X16904366Y-48775133D01*
X16904366Y-48803704D02*
X16918652Y-48789419D01*
X16947223Y-48775133D01*
X16990081Y-48775133D01*
X17018652Y-48789419D01*
X17032938Y-48817990D01*
X17032938Y-48975133D01*
X17032938Y-48817990D02*
X17047223Y-48789419D01*
X17075795Y-48775133D01*
X17118652Y-48775133D01*
X17147223Y-48789419D01*
X17161509Y-48817990D01*
X17161509Y-48975133D01*
X17747223Y-48660847D02*
X17490081Y-49046561D01*
X18132938Y-48675133D02*
X18161509Y-48675133D01*
X18190081Y-48689419D01*
X18204366Y-48703704D01*
X18218652Y-48732276D01*
X18232938Y-48789419D01*
X18232938Y-48860847D01*
X18218652Y-48917990D01*
X18204366Y-48946561D01*
X18190081Y-48960847D01*
X18161509Y-48975133D01*
X18132938Y-48975133D01*
X18104366Y-48960847D01*
X18090081Y-48946561D01*
X18075795Y-48917990D01*
X18061509Y-48860847D01*
X18061509Y-48789419D01*
X18075795Y-48732276D01*
X18090081Y-48703704D01*
X18104366Y-48689419D01*
X18132938Y-48675133D01*
X18361509Y-48946561D02*
X18375795Y-48960847D01*
X18361509Y-48975133D01*
X18347223Y-48960847D01*
X18361509Y-48946561D01*
X18361509Y-48975133D01*
X18561509Y-48675133D02*
X18590081Y-48675133D01*
X18618652Y-48689419D01*
X18632938Y-48703704D01*
X18647223Y-48732276D01*
X18661509Y-48789419D01*
X18661509Y-48860847D01*
X18647223Y-48917990D01*
X18632938Y-48946561D01*
X18618652Y-48960847D01*
X18590081Y-48975133D01*
X18561509Y-48975133D01*
X18532938Y-48960847D01*
X18518652Y-48946561D01*
X18504366Y-48917990D01*
X18490081Y-48860847D01*
X18490081Y-48789419D01*
X18504366Y-48732276D01*
X18518652Y-48703704D01*
X18532938Y-48689419D01*
X18561509Y-48675133D01*
X18775795Y-48703704D02*
X18790081Y-48689419D01*
X18818652Y-48675133D01*
X18890081Y-48675133D01*
X18918652Y-48689419D01*
X18932938Y-48703704D01*
X18947223Y-48732276D01*
X18947223Y-48760847D01*
X18932938Y-48803704D01*
X18761509Y-48975133D01*
X18947223Y-48975133D01*
X19204366Y-48775133D02*
X19204366Y-48975133D01*
X19132938Y-48660847D02*
X19061509Y-48875133D01*
X19247223Y-48875133D01*
X19347223Y-48675133D02*
X19347223Y-48732276D01*
X19461509Y-48675133D02*
X19461509Y-48732276D01*
X19904366Y-49089419D02*
X19890081Y-49075133D01*
X19861509Y-49032276D01*
X19847223Y-49003704D01*
X19832938Y-48960847D01*
X19818652Y-48889419D01*
X19818652Y-48832276D01*
X19832938Y-48760847D01*
X19847223Y-48717990D01*
X19861509Y-48689419D01*
X19890081Y-48646561D01*
X19904366Y-48632276D01*
X20075795Y-48675133D02*
X20104366Y-48675133D01*
X20132938Y-48689419D01*
X20147223Y-48703704D01*
X20161509Y-48732276D01*
X20175795Y-48789419D01*
X20175795Y-48860847D01*
X20161509Y-48917990D01*
X20147223Y-48946561D01*
X20132938Y-48960847D01*
X20104366Y-48975133D01*
X20075795Y-48975133D01*
X20047223Y-48960847D01*
X20032938Y-48946561D01*
X20018652Y-48917990D01*
X20004366Y-48860847D01*
X20004366Y-48789419D01*
X20018652Y-48732276D01*
X20032938Y-48703704D01*
X20047223Y-48689419D01*
X20075795Y-48675133D01*
X20532938Y-48975133D02*
X20532938Y-48675133D01*
X20661509Y-48975133D02*
X20661509Y-48817990D01*
X20647223Y-48789419D01*
X20618652Y-48775133D01*
X20575795Y-48775133D01*
X20547223Y-48789419D01*
X20532938Y-48803704D01*
X20847223Y-48975133D02*
X20818652Y-48960847D01*
X20804366Y-48946561D01*
X20790081Y-48917990D01*
X20790081Y-48832276D01*
X20804366Y-48803704D01*
X20818652Y-48789419D01*
X20847223Y-48775133D01*
X20890081Y-48775133D01*
X20918652Y-48789419D01*
X20932938Y-48803704D01*
X20947223Y-48832276D01*
X20947223Y-48917990D01*
X20932938Y-48946561D01*
X20918652Y-48960847D01*
X20890081Y-48975133D01*
X20847223Y-48975133D01*
X21118652Y-48975133D02*
X21090081Y-48960847D01*
X21075795Y-48932276D01*
X21075795Y-48675133D01*
X21347223Y-48960847D02*
X21318652Y-48975133D01*
X21261509Y-48975133D01*
X21232938Y-48960847D01*
X21218652Y-48932276D01*
X21218652Y-48817990D01*
X21232938Y-48789419D01*
X21261509Y-48775133D01*
X21318652Y-48775133D01*
X21347223Y-48789419D01*
X21361509Y-48817990D01*
X21361509Y-48846561D01*
X21218652Y-48875133D01*
X21475795Y-48960847D02*
X21504366Y-48975133D01*
X21561509Y-48975133D01*
X21590081Y-48960847D01*
X21604366Y-48932276D01*
X21604366Y-48917990D01*
X21590081Y-48889419D01*
X21561509Y-48875133D01*
X21518652Y-48875133D01*
X21490081Y-48860847D01*
X21475795Y-48832276D01*
X21475795Y-48817990D01*
X21490081Y-48789419D01*
X21518652Y-48775133D01*
X21561509Y-48775133D01*
X21590081Y-48789419D01*
X21961509Y-48860847D02*
X22190081Y-48860847D01*
X22075795Y-48975133D02*
X22075795Y-48746561D01*
X22690080Y-48775133D02*
X22690080Y-48975133D01*
X22618652Y-48660847D02*
X22547223Y-48875133D01*
X22732938Y-48875133D01*
X23061509Y-48960847D02*
X23090080Y-48975133D01*
X23147223Y-48975133D01*
X23175795Y-48960847D01*
X23190080Y-48932276D01*
X23190080Y-48917990D01*
X23175795Y-48889419D01*
X23147223Y-48875133D01*
X23104366Y-48875133D01*
X23075795Y-48860847D01*
X23061509Y-48832276D01*
X23061509Y-48817990D01*
X23075795Y-48789419D01*
X23104366Y-48775133D01*
X23147223Y-48775133D01*
X23175795Y-48789419D01*
X23361509Y-48975133D02*
X23332938Y-48960847D01*
X23318652Y-48932276D01*
X23318652Y-48675133D01*
X23518652Y-48975133D02*
X23490080Y-48960847D01*
X23475795Y-48946561D01*
X23461509Y-48917990D01*
X23461509Y-48832276D01*
X23475795Y-48803704D01*
X23490080Y-48789419D01*
X23518652Y-48775133D01*
X23561509Y-48775133D01*
X23590080Y-48789419D01*
X23604366Y-48803704D01*
X23618652Y-48832276D01*
X23618652Y-48917990D01*
X23604366Y-48946561D01*
X23590080Y-48960847D01*
X23561509Y-48975133D01*
X23518652Y-48975133D01*
X23704366Y-48775133D02*
X23818652Y-48775133D01*
X23747223Y-48675133D02*
X23747223Y-48932276D01*
X23761509Y-48960847D01*
X23790080Y-48975133D01*
X23818652Y-48975133D01*
X23904366Y-48960847D02*
X23932938Y-48975133D01*
X23990080Y-48975133D01*
X24018652Y-48960847D01*
X24032938Y-48932276D01*
X24032938Y-48917990D01*
X24018652Y-48889419D01*
X23990080Y-48875133D01*
X23947223Y-48875133D01*
X23918652Y-48860847D01*
X23904366Y-48832276D01*
X23904366Y-48817990D01*
X23918652Y-48789419D01*
X23947223Y-48775133D01*
X23990080Y-48775133D01*
X24018652Y-48789419D01*
X24132938Y-49089419D02*
X24147223Y-49075133D01*
X24175795Y-49032276D01*
X24190080Y-49003704D01*
X24204366Y-48960847D01*
X24218652Y-48889419D01*
X24218652Y-48832276D01*
X24204366Y-48760847D01*
X24190080Y-48717990D01*
X24175795Y-48689419D01*
X24147223Y-48646561D01*
X24132938Y-48632276D01*
X15167938Y-49185419D02*
X15167938Y-49285419D01*
X15117938Y-49235419D02*
X15217938Y-49235419D01*
X15661509Y-49371133D02*
X15490080Y-49371133D01*
X15575795Y-49371133D02*
X15575795Y-49071133D01*
X15547223Y-49113990D01*
X15518652Y-49142561D01*
X15490080Y-49156847D01*
X15790080Y-49342561D02*
X15804366Y-49356847D01*
X15790080Y-49371133D01*
X15775795Y-49356847D01*
X15790080Y-49342561D01*
X15790080Y-49371133D01*
X15990080Y-49071133D02*
X16018652Y-49071133D01*
X16047223Y-49085419D01*
X16061509Y-49099704D01*
X16075795Y-49128276D01*
X16090080Y-49185419D01*
X16090080Y-49256847D01*
X16075795Y-49313990D01*
X16061509Y-49342561D01*
X16047223Y-49356847D01*
X16018652Y-49371133D01*
X15990080Y-49371133D01*
X15961509Y-49356847D01*
X15947223Y-49342561D01*
X15932938Y-49313990D01*
X15918652Y-49256847D01*
X15918652Y-49185419D01*
X15932938Y-49128276D01*
X15947223Y-49099704D01*
X15961509Y-49085419D01*
X15990080Y-49071133D01*
X16275795Y-49071133D02*
X16304366Y-49071133D01*
X16332938Y-49085419D01*
X16347223Y-49099704D01*
X16361509Y-49128276D01*
X16375795Y-49185419D01*
X16375795Y-49256847D01*
X16361509Y-49313990D01*
X16347223Y-49342561D01*
X16332938Y-49356847D01*
X16304366Y-49371133D01*
X16275795Y-49371133D01*
X16247223Y-49356847D01*
X16232938Y-49342561D01*
X16218652Y-49313990D01*
X16204366Y-49256847D01*
X16204366Y-49185419D01*
X16218652Y-49128276D01*
X16232938Y-49099704D01*
X16247223Y-49085419D01*
X16275795Y-49071133D01*
X16504366Y-49371133D02*
X16504366Y-49171133D01*
X16504366Y-49199704D02*
X16518652Y-49185419D01*
X16547223Y-49171133D01*
X16590080Y-49171133D01*
X16618652Y-49185419D01*
X16632938Y-49213990D01*
X16632938Y-49371133D01*
X16632938Y-49213990D02*
X16647223Y-49185419D01*
X16675795Y-49171133D01*
X16718652Y-49171133D01*
X16747223Y-49185419D01*
X16761509Y-49213990D01*
X16761509Y-49371133D01*
X16904366Y-49371133D02*
X16904366Y-49171133D01*
X16904366Y-49199704D02*
X16918652Y-49185419D01*
X16947223Y-49171133D01*
X16990081Y-49171133D01*
X17018652Y-49185419D01*
X17032938Y-49213990D01*
X17032938Y-49371133D01*
X17032938Y-49213990D02*
X17047223Y-49185419D01*
X17075795Y-49171133D01*
X17118652Y-49171133D01*
X17147223Y-49185419D01*
X17161509Y-49213990D01*
X17161509Y-49371133D01*
X17747223Y-49056847D02*
X17490081Y-49442561D01*
X18132938Y-49071133D02*
X18161509Y-49071133D01*
X18190081Y-49085419D01*
X18204366Y-49099704D01*
X18218652Y-49128276D01*
X18232938Y-49185419D01*
X18232938Y-49256847D01*
X18218652Y-49313990D01*
X18204366Y-49342561D01*
X18190081Y-49356847D01*
X18161509Y-49371133D01*
X18132938Y-49371133D01*
X18104366Y-49356847D01*
X18090081Y-49342561D01*
X18075795Y-49313990D01*
X18061509Y-49256847D01*
X18061509Y-49185419D01*
X18075795Y-49128276D01*
X18090081Y-49099704D01*
X18104366Y-49085419D01*
X18132938Y-49071133D01*
X18361509Y-49342561D02*
X18375795Y-49356847D01*
X18361509Y-49371133D01*
X18347223Y-49356847D01*
X18361509Y-49342561D01*
X18361509Y-49371133D01*
X18561509Y-49071133D02*
X18590081Y-49071133D01*
X18618652Y-49085419D01*
X18632938Y-49099704D01*
X18647223Y-49128276D01*
X18661509Y-49185419D01*
X18661509Y-49256847D01*
X18647223Y-49313990D01*
X18632938Y-49342561D01*
X18618652Y-49356847D01*
X18590081Y-49371133D01*
X18561509Y-49371133D01*
X18532938Y-49356847D01*
X18518652Y-49342561D01*
X18504366Y-49313990D01*
X18490081Y-49256847D01*
X18490081Y-49185419D01*
X18504366Y-49128276D01*
X18518652Y-49099704D01*
X18532938Y-49085419D01*
X18561509Y-49071133D01*
X18761509Y-49071133D02*
X18947223Y-49071133D01*
X18847223Y-49185419D01*
X18890081Y-49185419D01*
X18918652Y-49199704D01*
X18932938Y-49213990D01*
X18947223Y-49242561D01*
X18947223Y-49313990D01*
X18932938Y-49342561D01*
X18918652Y-49356847D01*
X18890081Y-49371133D01*
X18804366Y-49371133D01*
X18775795Y-49356847D01*
X18761509Y-49342561D01*
X19090081Y-49371133D02*
X19147223Y-49371133D01*
X19175795Y-49356847D01*
X19190081Y-49342561D01*
X19218652Y-49299704D01*
X19232938Y-49242561D01*
X19232938Y-49128276D01*
X19218652Y-49099704D01*
X19204366Y-49085419D01*
X19175795Y-49071133D01*
X19118652Y-49071133D01*
X19090081Y-49085419D01*
X19075795Y-49099704D01*
X19061509Y-49128276D01*
X19061509Y-49199704D01*
X19075795Y-49228276D01*
X19090081Y-49242561D01*
X19118652Y-49256847D01*
X19175795Y-49256847D01*
X19204366Y-49242561D01*
X19218652Y-49228276D01*
X19232938Y-49199704D01*
X19347223Y-49071133D02*
X19347223Y-49128276D01*
X19461509Y-49071133D02*
X19461509Y-49128276D01*
X19904366Y-49485419D02*
X19890081Y-49471133D01*
X19861509Y-49428276D01*
X19847223Y-49399704D01*
X19832938Y-49356847D01*
X19818652Y-49285419D01*
X19818652Y-49228276D01*
X19832938Y-49156847D01*
X19847223Y-49113990D01*
X19861509Y-49085419D01*
X19890081Y-49042561D01*
X19904366Y-49028276D01*
X20147223Y-49171133D02*
X20147223Y-49371133D01*
X20075795Y-49056847D02*
X20004366Y-49271133D01*
X20190081Y-49271133D01*
X20347223Y-49199704D02*
X20318652Y-49185419D01*
X20304366Y-49171133D01*
X20290081Y-49142561D01*
X20290081Y-49128276D01*
X20304366Y-49099704D01*
X20318652Y-49085419D01*
X20347223Y-49071133D01*
X20404366Y-49071133D01*
X20432938Y-49085419D01*
X20447223Y-49099704D01*
X20461509Y-49128276D01*
X20461509Y-49142561D01*
X20447223Y-49171133D01*
X20432938Y-49185419D01*
X20404366Y-49199704D01*
X20347223Y-49199704D01*
X20318652Y-49213990D01*
X20304366Y-49228276D01*
X20290081Y-49256847D01*
X20290081Y-49313990D01*
X20304366Y-49342561D01*
X20318652Y-49356847D01*
X20347223Y-49371133D01*
X20404366Y-49371133D01*
X20432938Y-49356847D01*
X20447223Y-49342561D01*
X20461509Y-49313990D01*
X20461509Y-49256847D01*
X20447223Y-49228276D01*
X20432938Y-49213990D01*
X20404366Y-49199704D01*
X20818652Y-49371133D02*
X20818652Y-49071133D01*
X20947223Y-49371133D02*
X20947223Y-49213990D01*
X20932938Y-49185419D01*
X20904366Y-49171133D01*
X20861509Y-49171133D01*
X20832938Y-49185419D01*
X20818652Y-49199704D01*
X21132938Y-49371133D02*
X21104366Y-49356847D01*
X21090081Y-49342561D01*
X21075795Y-49313990D01*
X21075795Y-49228276D01*
X21090081Y-49199704D01*
X21104366Y-49185419D01*
X21132938Y-49171133D01*
X21175795Y-49171133D01*
X21204366Y-49185419D01*
X21218652Y-49199704D01*
X21232938Y-49228276D01*
X21232938Y-49313990D01*
X21218652Y-49342561D01*
X21204366Y-49356847D01*
X21175795Y-49371133D01*
X21132938Y-49371133D01*
X21404366Y-49371133D02*
X21375795Y-49356847D01*
X21361509Y-49328276D01*
X21361509Y-49071133D01*
X21632938Y-49356847D02*
X21604366Y-49371133D01*
X21547223Y-49371133D01*
X21518652Y-49356847D01*
X21504366Y-49328276D01*
X21504366Y-49213990D01*
X21518652Y-49185419D01*
X21547223Y-49171133D01*
X21604366Y-49171133D01*
X21632938Y-49185419D01*
X21647223Y-49213990D01*
X21647223Y-49242561D01*
X21504366Y-49271133D01*
X21761509Y-49356847D02*
X21790081Y-49371133D01*
X21847223Y-49371133D01*
X21875795Y-49356847D01*
X21890081Y-49328276D01*
X21890081Y-49313990D01*
X21875795Y-49285419D01*
X21847223Y-49271133D01*
X21804366Y-49271133D01*
X21775795Y-49256847D01*
X21761509Y-49228276D01*
X21761509Y-49213990D01*
X21775795Y-49185419D01*
X21804366Y-49171133D01*
X21847223Y-49171133D01*
X21875795Y-49185419D01*
X21990081Y-49485419D02*
X22004366Y-49471133D01*
X22032938Y-49428276D01*
X22047223Y-49399704D01*
X22061509Y-49356847D01*
X22075795Y-49285419D01*
X22075795Y-49228276D01*
X22061509Y-49156847D01*
X22047223Y-49113990D01*
X22032938Y-49085419D01*
X22004366Y-49042561D01*
X21990081Y-49028276D01*
X15202561Y-49668542D02*
X15202561Y-49594295D01*
X15128314Y-49594295D01*
X15128314Y-49668542D01*
X15202561Y-49668542D01*
X15661509Y-49767133D02*
X15490080Y-49767133D01*
X15575795Y-49767133D02*
X15575795Y-49467133D01*
X15547223Y-49509990D01*
X15518652Y-49538561D01*
X15490080Y-49552847D01*
X15790080Y-49738561D02*
X15804366Y-49752847D01*
X15790080Y-49767133D01*
X15775795Y-49752847D01*
X15790080Y-49738561D01*
X15790080Y-49767133D01*
X15990080Y-49467133D02*
X16018652Y-49467133D01*
X16047223Y-49481419D01*
X16061509Y-49495704D01*
X16075795Y-49524276D01*
X16090080Y-49581419D01*
X16090080Y-49652847D01*
X16075795Y-49709990D01*
X16061509Y-49738561D01*
X16047223Y-49752847D01*
X16018652Y-49767133D01*
X15990080Y-49767133D01*
X15961509Y-49752847D01*
X15947223Y-49738561D01*
X15932938Y-49709990D01*
X15918652Y-49652847D01*
X15918652Y-49581419D01*
X15932938Y-49524276D01*
X15947223Y-49495704D01*
X15961509Y-49481419D01*
X15990080Y-49467133D01*
X16361509Y-49467133D02*
X16218652Y-49467133D01*
X16204366Y-49609990D01*
X16218652Y-49595704D01*
X16247223Y-49581419D01*
X16318652Y-49581419D01*
X16347223Y-49595704D01*
X16361509Y-49609990D01*
X16375795Y-49638561D01*
X16375795Y-49709990D01*
X16361509Y-49738561D01*
X16347223Y-49752847D01*
X16318652Y-49767133D01*
X16247223Y-49767133D01*
X16218652Y-49752847D01*
X16204366Y-49738561D01*
X16504366Y-49767133D02*
X16504366Y-49567133D01*
X16504366Y-49595704D02*
X16518652Y-49581419D01*
X16547223Y-49567133D01*
X16590080Y-49567133D01*
X16618652Y-49581419D01*
X16632938Y-49609990D01*
X16632938Y-49767133D01*
X16632938Y-49609990D02*
X16647223Y-49581419D01*
X16675795Y-49567133D01*
X16718652Y-49567133D01*
X16747223Y-49581419D01*
X16761509Y-49609990D01*
X16761509Y-49767133D01*
X16904366Y-49767133D02*
X16904366Y-49567133D01*
X16904366Y-49595704D02*
X16918652Y-49581419D01*
X16947223Y-49567133D01*
X16990081Y-49567133D01*
X17018652Y-49581419D01*
X17032938Y-49609990D01*
X17032938Y-49767133D01*
X17032938Y-49609990D02*
X17047223Y-49581419D01*
X17075795Y-49567133D01*
X17118652Y-49567133D01*
X17147223Y-49581419D01*
X17161509Y-49609990D01*
X17161509Y-49767133D01*
X17747223Y-49452847D02*
X17490081Y-49838561D01*
X18132938Y-49467133D02*
X18161509Y-49467133D01*
X18190081Y-49481419D01*
X18204366Y-49495704D01*
X18218652Y-49524276D01*
X18232938Y-49581419D01*
X18232938Y-49652847D01*
X18218652Y-49709990D01*
X18204366Y-49738561D01*
X18190081Y-49752847D01*
X18161509Y-49767133D01*
X18132938Y-49767133D01*
X18104366Y-49752847D01*
X18090081Y-49738561D01*
X18075795Y-49709990D01*
X18061509Y-49652847D01*
X18061509Y-49581419D01*
X18075795Y-49524276D01*
X18090081Y-49495704D01*
X18104366Y-49481419D01*
X18132938Y-49467133D01*
X18361509Y-49738561D02*
X18375795Y-49752847D01*
X18361509Y-49767133D01*
X18347223Y-49752847D01*
X18361509Y-49738561D01*
X18361509Y-49767133D01*
X18561509Y-49467133D02*
X18590081Y-49467133D01*
X18618652Y-49481419D01*
X18632938Y-49495704D01*
X18647223Y-49524276D01*
X18661509Y-49581419D01*
X18661509Y-49652847D01*
X18647223Y-49709990D01*
X18632938Y-49738561D01*
X18618652Y-49752847D01*
X18590081Y-49767133D01*
X18561509Y-49767133D01*
X18532938Y-49752847D01*
X18518652Y-49738561D01*
X18504366Y-49709990D01*
X18490081Y-49652847D01*
X18490081Y-49581419D01*
X18504366Y-49524276D01*
X18518652Y-49495704D01*
X18532938Y-49481419D01*
X18561509Y-49467133D01*
X18918652Y-49567133D02*
X18918652Y-49767133D01*
X18847223Y-49452847D02*
X18775795Y-49667133D01*
X18961509Y-49667133D01*
X19232938Y-49767133D02*
X19061509Y-49767133D01*
X19147223Y-49767133D02*
X19147223Y-49467133D01*
X19118652Y-49509990D01*
X19090081Y-49538561D01*
X19061509Y-49552847D01*
X19347223Y-49467133D02*
X19347223Y-49524276D01*
X19461509Y-49467133D02*
X19461509Y-49524276D01*
X19904366Y-49881419D02*
X19890081Y-49867133D01*
X19861509Y-49824276D01*
X19847223Y-49795704D01*
X19832938Y-49752847D01*
X19818652Y-49681419D01*
X19818652Y-49624276D01*
X19832938Y-49552847D01*
X19847223Y-49509990D01*
X19861509Y-49481419D01*
X19890081Y-49438561D01*
X19904366Y-49424276D01*
X20175795Y-49767133D02*
X20004366Y-49767133D01*
X20090081Y-49767133D02*
X20090081Y-49467133D01*
X20061509Y-49509990D01*
X20032938Y-49538561D01*
X20004366Y-49552847D01*
X20361509Y-49467133D02*
X20390081Y-49467133D01*
X20418652Y-49481419D01*
X20432938Y-49495704D01*
X20447223Y-49524276D01*
X20461509Y-49581419D01*
X20461509Y-49652847D01*
X20447223Y-49709990D01*
X20432938Y-49738561D01*
X20418652Y-49752847D01*
X20390081Y-49767133D01*
X20361509Y-49767133D01*
X20332938Y-49752847D01*
X20318652Y-49738561D01*
X20304366Y-49709990D01*
X20290081Y-49652847D01*
X20290081Y-49581419D01*
X20304366Y-49524276D01*
X20318652Y-49495704D01*
X20332938Y-49481419D01*
X20361509Y-49467133D01*
X20818652Y-49767133D02*
X20818652Y-49467133D01*
X20947223Y-49767133D02*
X20947223Y-49609990D01*
X20932938Y-49581419D01*
X20904366Y-49567133D01*
X20861509Y-49567133D01*
X20832938Y-49581419D01*
X20818652Y-49595704D01*
X21132938Y-49767133D02*
X21104366Y-49752847D01*
X21090081Y-49738561D01*
X21075795Y-49709990D01*
X21075795Y-49624276D01*
X21090081Y-49595704D01*
X21104366Y-49581419D01*
X21132938Y-49567133D01*
X21175795Y-49567133D01*
X21204366Y-49581419D01*
X21218652Y-49595704D01*
X21232938Y-49624276D01*
X21232938Y-49709990D01*
X21218652Y-49738561D01*
X21204366Y-49752847D01*
X21175795Y-49767133D01*
X21132938Y-49767133D01*
X21404366Y-49767133D02*
X21375795Y-49752847D01*
X21361509Y-49724276D01*
X21361509Y-49467133D01*
X21632938Y-49752847D02*
X21604366Y-49767133D01*
X21547223Y-49767133D01*
X21518652Y-49752847D01*
X21504366Y-49724276D01*
X21504366Y-49609990D01*
X21518652Y-49581419D01*
X21547223Y-49567133D01*
X21604366Y-49567133D01*
X21632938Y-49581419D01*
X21647223Y-49609990D01*
X21647223Y-49638561D01*
X21504366Y-49667133D01*
X21761509Y-49752847D02*
X21790081Y-49767133D01*
X21847223Y-49767133D01*
X21875795Y-49752847D01*
X21890081Y-49724276D01*
X21890081Y-49709990D01*
X21875795Y-49681419D01*
X21847223Y-49667133D01*
X21804366Y-49667133D01*
X21775795Y-49652847D01*
X21761509Y-49624276D01*
X21761509Y-49609990D01*
X21775795Y-49581419D01*
X21804366Y-49567133D01*
X21847223Y-49567133D01*
X21875795Y-49581419D01*
X21990081Y-49881419D02*
X22004366Y-49867133D01*
X22032938Y-49824276D01*
X22047223Y-49795704D01*
X22061509Y-49752847D01*
X22075795Y-49681419D01*
X22075795Y-49624276D01*
X22061509Y-49552847D01*
X22047223Y-49509990D01*
X22032938Y-49481419D01*
X22004366Y-49438561D01*
X21990081Y-49424276D01*
X15144438Y-50100919D02*
X15217938Y-50027419D01*
X15144438Y-49953919D01*
X15070938Y-50027419D01*
X15144438Y-50100919D01*
X15661509Y-50163133D02*
X15490080Y-50163133D01*
X15575795Y-50163133D02*
X15575795Y-49863133D01*
X15547223Y-49905990D01*
X15518652Y-49934561D01*
X15490080Y-49948847D01*
X15790080Y-50134561D02*
X15804366Y-50148847D01*
X15790080Y-50163133D01*
X15775795Y-50148847D01*
X15790080Y-50134561D01*
X15790080Y-50163133D01*
X16061509Y-49963133D02*
X16061509Y-50163133D01*
X15990080Y-49848847D02*
X15918652Y-50063133D01*
X16104366Y-50063133D01*
X16190080Y-49863133D02*
X16390080Y-49863133D01*
X16261509Y-50163133D01*
X16504366Y-50163133D02*
X16504366Y-49963133D01*
X16504366Y-49991704D02*
X16518652Y-49977419D01*
X16547223Y-49963133D01*
X16590080Y-49963133D01*
X16618652Y-49977419D01*
X16632938Y-50005990D01*
X16632938Y-50163133D01*
X16632938Y-50005990D02*
X16647223Y-49977419D01*
X16675795Y-49963133D01*
X16718652Y-49963133D01*
X16747223Y-49977419D01*
X16761509Y-50005990D01*
X16761509Y-50163133D01*
X16904366Y-50163133D02*
X16904366Y-49963133D01*
X16904366Y-49991704D02*
X16918652Y-49977419D01*
X16947223Y-49963133D01*
X16990081Y-49963133D01*
X17018652Y-49977419D01*
X17032938Y-50005990D01*
X17032938Y-50163133D01*
X17032938Y-50005990D02*
X17047223Y-49977419D01*
X17075795Y-49963133D01*
X17118652Y-49963133D01*
X17147223Y-49977419D01*
X17161509Y-50005990D01*
X17161509Y-50163133D01*
X17747223Y-49848847D02*
X17490081Y-50234561D01*
X18132938Y-49863133D02*
X18161509Y-49863133D01*
X18190081Y-49877419D01*
X18204366Y-49891704D01*
X18218652Y-49920276D01*
X18232938Y-49977419D01*
X18232938Y-50048847D01*
X18218652Y-50105990D01*
X18204366Y-50134561D01*
X18190081Y-50148847D01*
X18161509Y-50163133D01*
X18132938Y-50163133D01*
X18104366Y-50148847D01*
X18090081Y-50134561D01*
X18075795Y-50105990D01*
X18061509Y-50048847D01*
X18061509Y-49977419D01*
X18075795Y-49920276D01*
X18090081Y-49891704D01*
X18104366Y-49877419D01*
X18132938Y-49863133D01*
X18361509Y-50134561D02*
X18375795Y-50148847D01*
X18361509Y-50163133D01*
X18347223Y-50148847D01*
X18361509Y-50134561D01*
X18361509Y-50163133D01*
X18561509Y-49863133D02*
X18590081Y-49863133D01*
X18618652Y-49877419D01*
X18632938Y-49891704D01*
X18647223Y-49920276D01*
X18661509Y-49977419D01*
X18661509Y-50048847D01*
X18647223Y-50105990D01*
X18632938Y-50134561D01*
X18618652Y-50148847D01*
X18590081Y-50163133D01*
X18561509Y-50163133D01*
X18532938Y-50148847D01*
X18518652Y-50134561D01*
X18504366Y-50105990D01*
X18490081Y-50048847D01*
X18490081Y-49977419D01*
X18504366Y-49920276D01*
X18518652Y-49891704D01*
X18532938Y-49877419D01*
X18561509Y-49863133D01*
X18932938Y-49863133D02*
X18790081Y-49863133D01*
X18775795Y-50005990D01*
X18790081Y-49991704D01*
X18818652Y-49977419D01*
X18890081Y-49977419D01*
X18918652Y-49991704D01*
X18932938Y-50005990D01*
X18947223Y-50034561D01*
X18947223Y-50105990D01*
X18932938Y-50134561D01*
X18918652Y-50148847D01*
X18890081Y-50163133D01*
X18818652Y-50163133D01*
X18790081Y-50148847D01*
X18775795Y-50134561D01*
X19118652Y-49991704D02*
X19090081Y-49977419D01*
X19075795Y-49963133D01*
X19061509Y-49934561D01*
X19061509Y-49920276D01*
X19075795Y-49891704D01*
X19090081Y-49877419D01*
X19118652Y-49863133D01*
X19175795Y-49863133D01*
X19204366Y-49877419D01*
X19218652Y-49891704D01*
X19232938Y-49920276D01*
X19232938Y-49934561D01*
X19218652Y-49963133D01*
X19204366Y-49977419D01*
X19175795Y-49991704D01*
X19118652Y-49991704D01*
X19090081Y-50005990D01*
X19075795Y-50020276D01*
X19061509Y-50048847D01*
X19061509Y-50105990D01*
X19075795Y-50134561D01*
X19090081Y-50148847D01*
X19118652Y-50163133D01*
X19175795Y-50163133D01*
X19204366Y-50148847D01*
X19218652Y-50134561D01*
X19232938Y-50105990D01*
X19232938Y-50048847D01*
X19218652Y-50020276D01*
X19204366Y-50005990D01*
X19175795Y-49991704D01*
X19347223Y-49863133D02*
X19347223Y-49920276D01*
X19461509Y-49863133D02*
X19461509Y-49920276D01*
X19904366Y-50277419D02*
X19890081Y-50263133D01*
X19861509Y-50220276D01*
X19847223Y-50191704D01*
X19832938Y-50148847D01*
X19818652Y-50077419D01*
X19818652Y-50020276D01*
X19832938Y-49948847D01*
X19847223Y-49905990D01*
X19861509Y-49877419D01*
X19890081Y-49834561D01*
X19904366Y-49820276D01*
X20147223Y-49963133D02*
X20147223Y-50163133D01*
X20075795Y-49848847D02*
X20004366Y-50063133D01*
X20190081Y-50063133D01*
X20361509Y-49863133D02*
X20390081Y-49863133D01*
X20418652Y-49877419D01*
X20432938Y-49891704D01*
X20447223Y-49920276D01*
X20461509Y-49977419D01*
X20461509Y-50048847D01*
X20447223Y-50105990D01*
X20432938Y-50134561D01*
X20418652Y-50148847D01*
X20390081Y-50163133D01*
X20361509Y-50163133D01*
X20332938Y-50148847D01*
X20318652Y-50134561D01*
X20304366Y-50105990D01*
X20290081Y-50048847D01*
X20290081Y-49977419D01*
X20304366Y-49920276D01*
X20318652Y-49891704D01*
X20332938Y-49877419D01*
X20361509Y-49863133D01*
X20818652Y-50163133D02*
X20818652Y-49863133D01*
X20947223Y-50163133D02*
X20947223Y-50005990D01*
X20932938Y-49977419D01*
X20904366Y-49963133D01*
X20861509Y-49963133D01*
X20832938Y-49977419D01*
X20818652Y-49991704D01*
X21132938Y-50163133D02*
X21104366Y-50148847D01*
X21090081Y-50134561D01*
X21075795Y-50105990D01*
X21075795Y-50020276D01*
X21090081Y-49991704D01*
X21104366Y-49977419D01*
X21132938Y-49963133D01*
X21175795Y-49963133D01*
X21204366Y-49977419D01*
X21218652Y-49991704D01*
X21232938Y-50020276D01*
X21232938Y-50105990D01*
X21218652Y-50134561D01*
X21204366Y-50148847D01*
X21175795Y-50163133D01*
X21132938Y-50163133D01*
X21404366Y-50163133D02*
X21375795Y-50148847D01*
X21361509Y-50120276D01*
X21361509Y-49863133D01*
X21632938Y-50148847D02*
X21604366Y-50163133D01*
X21547223Y-50163133D01*
X21518652Y-50148847D01*
X21504366Y-50120276D01*
X21504366Y-50005990D01*
X21518652Y-49977419D01*
X21547223Y-49963133D01*
X21604366Y-49963133D01*
X21632938Y-49977419D01*
X21647223Y-50005990D01*
X21647223Y-50034561D01*
X21504366Y-50063133D01*
X21761509Y-50148847D02*
X21790081Y-50163133D01*
X21847223Y-50163133D01*
X21875795Y-50148847D01*
X21890081Y-50120276D01*
X21890081Y-50105990D01*
X21875795Y-50077419D01*
X21847223Y-50063133D01*
X21804366Y-50063133D01*
X21775795Y-50048847D01*
X21761509Y-50020276D01*
X21761509Y-50005990D01*
X21775795Y-49977419D01*
X21804366Y-49963133D01*
X21847223Y-49963133D01*
X21875795Y-49977419D01*
X21990081Y-50277419D02*
X22004366Y-50263133D01*
X22032938Y-50220276D01*
X22047223Y-50191704D01*
X22061509Y-50148847D01*
X22075795Y-50077419D01*
X22075795Y-50020276D01*
X22061509Y-49948847D01*
X22047223Y-49905990D01*
X22032938Y-49877419D01*
X22004366Y-49834561D01*
X21990081Y-49820276D01*
X15067938Y-50348419D02*
X15217938Y-50498419D01*
X15217938Y-50348419D02*
X15067938Y-50498419D01*
X15217938Y-50423419D02*
G75*
G03X15217938Y-50423419I-75000J0D01*
G01*
X15661509Y-50559133D02*
X15490080Y-50559133D01*
X15575795Y-50559133D02*
X15575795Y-50259133D01*
X15547223Y-50301990D01*
X15518652Y-50330561D01*
X15490080Y-50344847D01*
X15790080Y-50530561D02*
X15804366Y-50544847D01*
X15790080Y-50559133D01*
X15775795Y-50544847D01*
X15790080Y-50530561D01*
X15790080Y-50559133D01*
X16075795Y-50259133D02*
X15932938Y-50259133D01*
X15918652Y-50401990D01*
X15932938Y-50387704D01*
X15961509Y-50373419D01*
X16032938Y-50373419D01*
X16061509Y-50387704D01*
X16075795Y-50401990D01*
X16090080Y-50430561D01*
X16090080Y-50501990D01*
X16075795Y-50530561D01*
X16061509Y-50544847D01*
X16032938Y-50559133D01*
X15961509Y-50559133D01*
X15932938Y-50544847D01*
X15918652Y-50530561D01*
X16275795Y-50259133D02*
X16304366Y-50259133D01*
X16332938Y-50273419D01*
X16347223Y-50287704D01*
X16361509Y-50316276D01*
X16375795Y-50373419D01*
X16375795Y-50444847D01*
X16361509Y-50501990D01*
X16347223Y-50530561D01*
X16332938Y-50544847D01*
X16304366Y-50559133D01*
X16275795Y-50559133D01*
X16247223Y-50544847D01*
X16232938Y-50530561D01*
X16218652Y-50501990D01*
X16204366Y-50444847D01*
X16204366Y-50373419D01*
X16218652Y-50316276D01*
X16232938Y-50287704D01*
X16247223Y-50273419D01*
X16275795Y-50259133D01*
X16504366Y-50559133D02*
X16504366Y-50359133D01*
X16504366Y-50387704D02*
X16518652Y-50373419D01*
X16547223Y-50359133D01*
X16590080Y-50359133D01*
X16618652Y-50373419D01*
X16632938Y-50401990D01*
X16632938Y-50559133D01*
X16632938Y-50401990D02*
X16647223Y-50373419D01*
X16675795Y-50359133D01*
X16718652Y-50359133D01*
X16747223Y-50373419D01*
X16761509Y-50401990D01*
X16761509Y-50559133D01*
X16904366Y-50559133D02*
X16904366Y-50359133D01*
X16904366Y-50387704D02*
X16918652Y-50373419D01*
X16947223Y-50359133D01*
X16990081Y-50359133D01*
X17018652Y-50373419D01*
X17032938Y-50401990D01*
X17032938Y-50559133D01*
X17032938Y-50401990D02*
X17047223Y-50373419D01*
X17075795Y-50359133D01*
X17118652Y-50359133D01*
X17147223Y-50373419D01*
X17161509Y-50401990D01*
X17161509Y-50559133D01*
X17747223Y-50244847D02*
X17490081Y-50630561D01*
X18132938Y-50259133D02*
X18161509Y-50259133D01*
X18190081Y-50273419D01*
X18204366Y-50287704D01*
X18218652Y-50316276D01*
X18232938Y-50373419D01*
X18232938Y-50444847D01*
X18218652Y-50501990D01*
X18204366Y-50530561D01*
X18190081Y-50544847D01*
X18161509Y-50559133D01*
X18132938Y-50559133D01*
X18104366Y-50544847D01*
X18090081Y-50530561D01*
X18075795Y-50501990D01*
X18061509Y-50444847D01*
X18061509Y-50373419D01*
X18075795Y-50316276D01*
X18090081Y-50287704D01*
X18104366Y-50273419D01*
X18132938Y-50259133D01*
X18361509Y-50530561D02*
X18375795Y-50544847D01*
X18361509Y-50559133D01*
X18347223Y-50544847D01*
X18361509Y-50530561D01*
X18361509Y-50559133D01*
X18561509Y-50259133D02*
X18590081Y-50259133D01*
X18618652Y-50273419D01*
X18632938Y-50287704D01*
X18647223Y-50316276D01*
X18661509Y-50373419D01*
X18661509Y-50444847D01*
X18647223Y-50501990D01*
X18632938Y-50530561D01*
X18618652Y-50544847D01*
X18590081Y-50559133D01*
X18561509Y-50559133D01*
X18532938Y-50544847D01*
X18518652Y-50530561D01*
X18504366Y-50501990D01*
X18490081Y-50444847D01*
X18490081Y-50373419D01*
X18504366Y-50316276D01*
X18518652Y-50287704D01*
X18532938Y-50273419D01*
X18561509Y-50259133D01*
X18932938Y-50259133D02*
X18790081Y-50259133D01*
X18775795Y-50401990D01*
X18790081Y-50387704D01*
X18818652Y-50373419D01*
X18890081Y-50373419D01*
X18918652Y-50387704D01*
X18932938Y-50401990D01*
X18947223Y-50430561D01*
X18947223Y-50501990D01*
X18932938Y-50530561D01*
X18918652Y-50544847D01*
X18890081Y-50559133D01*
X18818652Y-50559133D01*
X18790081Y-50544847D01*
X18775795Y-50530561D01*
X19090081Y-50559133D02*
X19147223Y-50559133D01*
X19175795Y-50544847D01*
X19190081Y-50530561D01*
X19218652Y-50487704D01*
X19232938Y-50430561D01*
X19232938Y-50316276D01*
X19218652Y-50287704D01*
X19204366Y-50273419D01*
X19175795Y-50259133D01*
X19118652Y-50259133D01*
X19090081Y-50273419D01*
X19075795Y-50287704D01*
X19061509Y-50316276D01*
X19061509Y-50387704D01*
X19075795Y-50416276D01*
X19090081Y-50430561D01*
X19118652Y-50444847D01*
X19175795Y-50444847D01*
X19204366Y-50430561D01*
X19218652Y-50416276D01*
X19232938Y-50387704D01*
X19347223Y-50259133D02*
X19347223Y-50316276D01*
X19461509Y-50259133D02*
X19461509Y-50316276D01*
X19904366Y-50673419D02*
X19890081Y-50659133D01*
X19861509Y-50616276D01*
X19847223Y-50587704D01*
X19832938Y-50544847D01*
X19818652Y-50473419D01*
X19818652Y-50416276D01*
X19832938Y-50344847D01*
X19847223Y-50301990D01*
X19861509Y-50273419D01*
X19890081Y-50230561D01*
X19904366Y-50216276D01*
X20004366Y-50287704D02*
X20018652Y-50273419D01*
X20047223Y-50259133D01*
X20118652Y-50259133D01*
X20147223Y-50273419D01*
X20161509Y-50287704D01*
X20175795Y-50316276D01*
X20175795Y-50344847D01*
X20161509Y-50387704D01*
X19990081Y-50559133D01*
X20175795Y-50559133D01*
X20532938Y-50559133D02*
X20532938Y-50259133D01*
X20661509Y-50559133D02*
X20661509Y-50401990D01*
X20647223Y-50373419D01*
X20618652Y-50359133D01*
X20575795Y-50359133D01*
X20547223Y-50373419D01*
X20532938Y-50387704D01*
X20847223Y-50559133D02*
X20818652Y-50544847D01*
X20804366Y-50530561D01*
X20790081Y-50501990D01*
X20790081Y-50416276D01*
X20804366Y-50387704D01*
X20818652Y-50373419D01*
X20847223Y-50359133D01*
X20890081Y-50359133D01*
X20918652Y-50373419D01*
X20932938Y-50387704D01*
X20947223Y-50416276D01*
X20947223Y-50501990D01*
X20932938Y-50530561D01*
X20918652Y-50544847D01*
X20890081Y-50559133D01*
X20847223Y-50559133D01*
X21118652Y-50559133D02*
X21090081Y-50544847D01*
X21075795Y-50516276D01*
X21075795Y-50259133D01*
X21347223Y-50544847D02*
X21318652Y-50559133D01*
X21261509Y-50559133D01*
X21232938Y-50544847D01*
X21218652Y-50516276D01*
X21218652Y-50401990D01*
X21232938Y-50373419D01*
X21261509Y-50359133D01*
X21318652Y-50359133D01*
X21347223Y-50373419D01*
X21361509Y-50401990D01*
X21361509Y-50430561D01*
X21218652Y-50459133D01*
X21475795Y-50544847D02*
X21504366Y-50559133D01*
X21561509Y-50559133D01*
X21590081Y-50544847D01*
X21604366Y-50516276D01*
X21604366Y-50501990D01*
X21590081Y-50473419D01*
X21561509Y-50459133D01*
X21518652Y-50459133D01*
X21490081Y-50444847D01*
X21475795Y-50416276D01*
X21475795Y-50401990D01*
X21490081Y-50373419D01*
X21518652Y-50359133D01*
X21561509Y-50359133D01*
X21590081Y-50373419D01*
X21704366Y-50673419D02*
X21718652Y-50659133D01*
X21747223Y-50616276D01*
X21761509Y-50587704D01*
X21775795Y-50544847D01*
X21790081Y-50473419D01*
X21790081Y-50416276D01*
X21775795Y-50344847D01*
X21761509Y-50301990D01*
X21747223Y-50273419D01*
X21718652Y-50230561D01*
X21704366Y-50216276D01*
X15057938Y-50739419D02*
X15217938Y-50899419D01*
X15217938Y-50739419D02*
X15057938Y-50899419D01*
X15137938Y-50739419D02*
X15137938Y-50899419D01*
X15057938Y-50819419D02*
X15217938Y-50819419D01*
X15661509Y-50955133D02*
X15490080Y-50955133D01*
X15575795Y-50955133D02*
X15575795Y-50655133D01*
X15547223Y-50697990D01*
X15518652Y-50726561D01*
X15490080Y-50740847D01*
X15790080Y-50926561D02*
X15804366Y-50940847D01*
X15790080Y-50955133D01*
X15775795Y-50940847D01*
X15790080Y-50926561D01*
X15790080Y-50955133D01*
X16061509Y-50655133D02*
X16004366Y-50655133D01*
X15975795Y-50669419D01*
X15961509Y-50683704D01*
X15932938Y-50726561D01*
X15918652Y-50783704D01*
X15918652Y-50897990D01*
X15932938Y-50926561D01*
X15947223Y-50940847D01*
X15975795Y-50955133D01*
X16032938Y-50955133D01*
X16061509Y-50940847D01*
X16075795Y-50926561D01*
X16090080Y-50897990D01*
X16090080Y-50826561D01*
X16075795Y-50797990D01*
X16061509Y-50783704D01*
X16032938Y-50769419D01*
X15975795Y-50769419D01*
X15947223Y-50783704D01*
X15932938Y-50797990D01*
X15918652Y-50826561D01*
X16275795Y-50655133D02*
X16304366Y-50655133D01*
X16332938Y-50669419D01*
X16347223Y-50683704D01*
X16361509Y-50712276D01*
X16375795Y-50769419D01*
X16375795Y-50840847D01*
X16361509Y-50897990D01*
X16347223Y-50926561D01*
X16332938Y-50940847D01*
X16304366Y-50955133D01*
X16275795Y-50955133D01*
X16247223Y-50940847D01*
X16232938Y-50926561D01*
X16218652Y-50897990D01*
X16204366Y-50840847D01*
X16204366Y-50769419D01*
X16218652Y-50712276D01*
X16232938Y-50683704D01*
X16247223Y-50669419D01*
X16275795Y-50655133D01*
X16504366Y-50955133D02*
X16504366Y-50755133D01*
X16504366Y-50783704D02*
X16518652Y-50769419D01*
X16547223Y-50755133D01*
X16590080Y-50755133D01*
X16618652Y-50769419D01*
X16632938Y-50797990D01*
X16632938Y-50955133D01*
X16632938Y-50797990D02*
X16647223Y-50769419D01*
X16675795Y-50755133D01*
X16718652Y-50755133D01*
X16747223Y-50769419D01*
X16761509Y-50797990D01*
X16761509Y-50955133D01*
X16904366Y-50955133D02*
X16904366Y-50755133D01*
X16904366Y-50783704D02*
X16918652Y-50769419D01*
X16947223Y-50755133D01*
X16990081Y-50755133D01*
X17018652Y-50769419D01*
X17032938Y-50797990D01*
X17032938Y-50955133D01*
X17032938Y-50797990D02*
X17047223Y-50769419D01*
X17075795Y-50755133D01*
X17118652Y-50755133D01*
X17147223Y-50769419D01*
X17161509Y-50797990D01*
X17161509Y-50955133D01*
X17747223Y-50640847D02*
X17490081Y-51026561D01*
X18132938Y-50655133D02*
X18161509Y-50655133D01*
X18190081Y-50669419D01*
X18204366Y-50683704D01*
X18218652Y-50712276D01*
X18232938Y-50769419D01*
X18232938Y-50840847D01*
X18218652Y-50897990D01*
X18204366Y-50926561D01*
X18190081Y-50940847D01*
X18161509Y-50955133D01*
X18132938Y-50955133D01*
X18104366Y-50940847D01*
X18090081Y-50926561D01*
X18075795Y-50897990D01*
X18061509Y-50840847D01*
X18061509Y-50769419D01*
X18075795Y-50712276D01*
X18090081Y-50683704D01*
X18104366Y-50669419D01*
X18132938Y-50655133D01*
X18361509Y-50926561D02*
X18375795Y-50940847D01*
X18361509Y-50955133D01*
X18347223Y-50940847D01*
X18361509Y-50926561D01*
X18361509Y-50955133D01*
X18561509Y-50655133D02*
X18590081Y-50655133D01*
X18618652Y-50669419D01*
X18632938Y-50683704D01*
X18647223Y-50712276D01*
X18661509Y-50769419D01*
X18661509Y-50840847D01*
X18647223Y-50897990D01*
X18632938Y-50926561D01*
X18618652Y-50940847D01*
X18590081Y-50955133D01*
X18561509Y-50955133D01*
X18532938Y-50940847D01*
X18518652Y-50926561D01*
X18504366Y-50897990D01*
X18490081Y-50840847D01*
X18490081Y-50769419D01*
X18504366Y-50712276D01*
X18518652Y-50683704D01*
X18532938Y-50669419D01*
X18561509Y-50655133D01*
X18918652Y-50655133D02*
X18861509Y-50655133D01*
X18832938Y-50669419D01*
X18818652Y-50683704D01*
X18790081Y-50726561D01*
X18775795Y-50783704D01*
X18775795Y-50897990D01*
X18790081Y-50926561D01*
X18804366Y-50940847D01*
X18832938Y-50955133D01*
X18890081Y-50955133D01*
X18918652Y-50940847D01*
X18932938Y-50926561D01*
X18947223Y-50897990D01*
X18947223Y-50826561D01*
X18932938Y-50797990D01*
X18918652Y-50783704D01*
X18890081Y-50769419D01*
X18832938Y-50769419D01*
X18804366Y-50783704D01*
X18790081Y-50797990D01*
X18775795Y-50826561D01*
X19047223Y-50655133D02*
X19232938Y-50655133D01*
X19132938Y-50769419D01*
X19175795Y-50769419D01*
X19204366Y-50783704D01*
X19218652Y-50797990D01*
X19232938Y-50826561D01*
X19232938Y-50897990D01*
X19218652Y-50926561D01*
X19204366Y-50940847D01*
X19175795Y-50955133D01*
X19090081Y-50955133D01*
X19061509Y-50940847D01*
X19047223Y-50926561D01*
X19347223Y-50655133D02*
X19347223Y-50712276D01*
X19461509Y-50655133D02*
X19461509Y-50712276D01*
X19904366Y-51069419D02*
X19890081Y-51055133D01*
X19861509Y-51012276D01*
X19847223Y-50983704D01*
X19832938Y-50940847D01*
X19818652Y-50869419D01*
X19818652Y-50812276D01*
X19832938Y-50740847D01*
X19847223Y-50697990D01*
X19861509Y-50669419D01*
X19890081Y-50626561D01*
X19904366Y-50612276D01*
X20004366Y-50683704D02*
X20018652Y-50669419D01*
X20047223Y-50655133D01*
X20118652Y-50655133D01*
X20147223Y-50669419D01*
X20161509Y-50683704D01*
X20175795Y-50712276D01*
X20175795Y-50740847D01*
X20161509Y-50783704D01*
X19990081Y-50955133D01*
X20175795Y-50955133D01*
X20532938Y-50955133D02*
X20532938Y-50655133D01*
X20661509Y-50955133D02*
X20661509Y-50797990D01*
X20647223Y-50769419D01*
X20618652Y-50755133D01*
X20575795Y-50755133D01*
X20547223Y-50769419D01*
X20532938Y-50783704D01*
X20847223Y-50955133D02*
X20818652Y-50940847D01*
X20804366Y-50926561D01*
X20790081Y-50897990D01*
X20790081Y-50812276D01*
X20804366Y-50783704D01*
X20818652Y-50769419D01*
X20847223Y-50755133D01*
X20890081Y-50755133D01*
X20918652Y-50769419D01*
X20932938Y-50783704D01*
X20947223Y-50812276D01*
X20947223Y-50897990D01*
X20932938Y-50926561D01*
X20918652Y-50940847D01*
X20890081Y-50955133D01*
X20847223Y-50955133D01*
X21118652Y-50955133D02*
X21090081Y-50940847D01*
X21075795Y-50912276D01*
X21075795Y-50655133D01*
X21347223Y-50940847D02*
X21318652Y-50955133D01*
X21261509Y-50955133D01*
X21232938Y-50940847D01*
X21218652Y-50912276D01*
X21218652Y-50797990D01*
X21232938Y-50769419D01*
X21261509Y-50755133D01*
X21318652Y-50755133D01*
X21347223Y-50769419D01*
X21361509Y-50797990D01*
X21361509Y-50826561D01*
X21218652Y-50855133D01*
X21475795Y-50940847D02*
X21504366Y-50955133D01*
X21561509Y-50955133D01*
X21590081Y-50940847D01*
X21604366Y-50912276D01*
X21604366Y-50897990D01*
X21590081Y-50869419D01*
X21561509Y-50855133D01*
X21518652Y-50855133D01*
X21490081Y-50840847D01*
X21475795Y-50812276D01*
X21475795Y-50797990D01*
X21490081Y-50769419D01*
X21518652Y-50755133D01*
X21561509Y-50755133D01*
X21590081Y-50769419D01*
X21704366Y-51069419D02*
X21718652Y-51055133D01*
X21747223Y-51012276D01*
X21761509Y-50983704D01*
X21775795Y-50940847D01*
X21790081Y-50869419D01*
X21790081Y-50812276D01*
X21775795Y-50740847D01*
X21761509Y-50697990D01*
X21747223Y-50669419D01*
X21718652Y-50626561D01*
X21704366Y-50612276D01*
X15017938Y-51115419D02*
X15217938Y-51315419D01*
X15217938Y-51115419D02*
X15017938Y-51315419D01*
X15188649Y-51286130D02*
X15188649Y-51144707D01*
X15047226Y-51144707D01*
X15047226Y-51286130D01*
X15188649Y-51286130D01*
X15490080Y-51079704D02*
X15504366Y-51065419D01*
X15532938Y-51051133D01*
X15604366Y-51051133D01*
X15632938Y-51065419D01*
X15647223Y-51079704D01*
X15661509Y-51108276D01*
X15661509Y-51136847D01*
X15647223Y-51179704D01*
X15475795Y-51351133D01*
X15661509Y-51351133D01*
X15790080Y-51322561D02*
X15804366Y-51336847D01*
X15790080Y-51351133D01*
X15775795Y-51336847D01*
X15790080Y-51322561D01*
X15790080Y-51351133D01*
X15990080Y-51051133D02*
X16018652Y-51051133D01*
X16047223Y-51065419D01*
X16061509Y-51079704D01*
X16075795Y-51108276D01*
X16090080Y-51165419D01*
X16090080Y-51236847D01*
X16075795Y-51293990D01*
X16061509Y-51322561D01*
X16047223Y-51336847D01*
X16018652Y-51351133D01*
X15990080Y-51351133D01*
X15961509Y-51336847D01*
X15947223Y-51322561D01*
X15932938Y-51293990D01*
X15918652Y-51236847D01*
X15918652Y-51165419D01*
X15932938Y-51108276D01*
X15947223Y-51079704D01*
X15961509Y-51065419D01*
X15990080Y-51051133D01*
X16275795Y-51051133D02*
X16304366Y-51051133D01*
X16332938Y-51065419D01*
X16347223Y-51079704D01*
X16361509Y-51108276D01*
X16375795Y-51165419D01*
X16375795Y-51236847D01*
X16361509Y-51293990D01*
X16347223Y-51322561D01*
X16332938Y-51336847D01*
X16304366Y-51351133D01*
X16275795Y-51351133D01*
X16247223Y-51336847D01*
X16232938Y-51322561D01*
X16218652Y-51293990D01*
X16204366Y-51236847D01*
X16204366Y-51165419D01*
X16218652Y-51108276D01*
X16232938Y-51079704D01*
X16247223Y-51065419D01*
X16275795Y-51051133D01*
X16504366Y-51351133D02*
X16504366Y-51151133D01*
X16504366Y-51179704D02*
X16518652Y-51165419D01*
X16547223Y-51151133D01*
X16590080Y-51151133D01*
X16618652Y-51165419D01*
X16632938Y-51193990D01*
X16632938Y-51351133D01*
X16632938Y-51193990D02*
X16647223Y-51165419D01*
X16675795Y-51151133D01*
X16718652Y-51151133D01*
X16747223Y-51165419D01*
X16761509Y-51193990D01*
X16761509Y-51351133D01*
X16904366Y-51351133D02*
X16904366Y-51151133D01*
X16904366Y-51179704D02*
X16918652Y-51165419D01*
X16947223Y-51151133D01*
X16990081Y-51151133D01*
X17018652Y-51165419D01*
X17032938Y-51193990D01*
X17032938Y-51351133D01*
X17032938Y-51193990D02*
X17047223Y-51165419D01*
X17075795Y-51151133D01*
X17118652Y-51151133D01*
X17147223Y-51165419D01*
X17161509Y-51193990D01*
X17161509Y-51351133D01*
X17747223Y-51036847D02*
X17490081Y-51422561D01*
X18132938Y-51051133D02*
X18161509Y-51051133D01*
X18190081Y-51065419D01*
X18204366Y-51079704D01*
X18218652Y-51108276D01*
X18232938Y-51165419D01*
X18232938Y-51236847D01*
X18218652Y-51293990D01*
X18204366Y-51322561D01*
X18190081Y-51336847D01*
X18161509Y-51351133D01*
X18132938Y-51351133D01*
X18104366Y-51336847D01*
X18090081Y-51322561D01*
X18075795Y-51293990D01*
X18061509Y-51236847D01*
X18061509Y-51165419D01*
X18075795Y-51108276D01*
X18090081Y-51079704D01*
X18104366Y-51065419D01*
X18132938Y-51051133D01*
X18361509Y-51322561D02*
X18375795Y-51336847D01*
X18361509Y-51351133D01*
X18347223Y-51336847D01*
X18361509Y-51322561D01*
X18361509Y-51351133D01*
X18561509Y-51051133D02*
X18590081Y-51051133D01*
X18618652Y-51065419D01*
X18632938Y-51079704D01*
X18647223Y-51108276D01*
X18661509Y-51165419D01*
X18661509Y-51236847D01*
X18647223Y-51293990D01*
X18632938Y-51322561D01*
X18618652Y-51336847D01*
X18590081Y-51351133D01*
X18561509Y-51351133D01*
X18532938Y-51336847D01*
X18518652Y-51322561D01*
X18504366Y-51293990D01*
X18490081Y-51236847D01*
X18490081Y-51165419D01*
X18504366Y-51108276D01*
X18518652Y-51079704D01*
X18532938Y-51065419D01*
X18561509Y-51051133D01*
X18761509Y-51051133D02*
X18961509Y-51051133D01*
X18832938Y-51351133D01*
X19090081Y-51351133D02*
X19147223Y-51351133D01*
X19175795Y-51336847D01*
X19190081Y-51322561D01*
X19218652Y-51279704D01*
X19232938Y-51222561D01*
X19232938Y-51108276D01*
X19218652Y-51079704D01*
X19204366Y-51065419D01*
X19175795Y-51051133D01*
X19118652Y-51051133D01*
X19090081Y-51065419D01*
X19075795Y-51079704D01*
X19061509Y-51108276D01*
X19061509Y-51179704D01*
X19075795Y-51208276D01*
X19090081Y-51222561D01*
X19118652Y-51236847D01*
X19175795Y-51236847D01*
X19204366Y-51222561D01*
X19218652Y-51208276D01*
X19232938Y-51179704D01*
X19347223Y-51051133D02*
X19347223Y-51108276D01*
X19461509Y-51051133D02*
X19461509Y-51108276D01*
X19904366Y-51465419D02*
X19890081Y-51451133D01*
X19861509Y-51408276D01*
X19847223Y-51379704D01*
X19832938Y-51336847D01*
X19818652Y-51265419D01*
X19818652Y-51208276D01*
X19832938Y-51136847D01*
X19847223Y-51093990D01*
X19861509Y-51065419D01*
X19890081Y-51022561D01*
X19904366Y-51008276D01*
X20175795Y-51351133D02*
X20004366Y-51351133D01*
X20090081Y-51351133D02*
X20090081Y-51051133D01*
X20061509Y-51093990D01*
X20032938Y-51122561D01*
X20004366Y-51136847D01*
X20532938Y-51351133D02*
X20532938Y-51051133D01*
X20661509Y-51351133D02*
X20661509Y-51193990D01*
X20647223Y-51165419D01*
X20618652Y-51151133D01*
X20575795Y-51151133D01*
X20547223Y-51165419D01*
X20532938Y-51179704D01*
X20847223Y-51351133D02*
X20818652Y-51336847D01*
X20804366Y-51322561D01*
X20790081Y-51293990D01*
X20790081Y-51208276D01*
X20804366Y-51179704D01*
X20818652Y-51165419D01*
X20847223Y-51151133D01*
X20890081Y-51151133D01*
X20918652Y-51165419D01*
X20932938Y-51179704D01*
X20947223Y-51208276D01*
X20947223Y-51293990D01*
X20932938Y-51322561D01*
X20918652Y-51336847D01*
X20890081Y-51351133D01*
X20847223Y-51351133D01*
X21118652Y-51351133D02*
X21090081Y-51336847D01*
X21075795Y-51308276D01*
X21075795Y-51051133D01*
X21347223Y-51336847D02*
X21318652Y-51351133D01*
X21261509Y-51351133D01*
X21232938Y-51336847D01*
X21218652Y-51308276D01*
X21218652Y-51193990D01*
X21232938Y-51165419D01*
X21261509Y-51151133D01*
X21318652Y-51151133D01*
X21347223Y-51165419D01*
X21361509Y-51193990D01*
X21361509Y-51222561D01*
X21218652Y-51251133D01*
X21461509Y-51465419D02*
X21475795Y-51451133D01*
X21504366Y-51408276D01*
X21518652Y-51379704D01*
X21532938Y-51336847D01*
X21547223Y-51265419D01*
X21547223Y-51208276D01*
X21532938Y-51136847D01*
X21518652Y-51093990D01*
X21504366Y-51065419D01*
X21475795Y-51022561D01*
X21461509Y-51008276D01*
M02*
