G04 #@! TF.GenerationSoftware,KiCad,Pcbnew,(5.1.4)-1*
G04 #@! TF.CreationDate,2023-06-13T20:26:26-04:00*
G04 #@! TF.ProjectId,ThumbsUp,5468756d-6273-4557-902e-6b696361645f,rev?*
G04 #@! TF.SameCoordinates,Original*
G04 #@! TF.FileFunction,Soldermask,Top*
G04 #@! TF.FilePolarity,Negative*
%FSLAX46Y46*%
G04 Gerber Fmt 4.6, Leading zero omitted, Abs format (unit mm)*
G04 Created by KiCad (PCBNEW (5.1.4)-1) date 2023-06-13 20:26:26*
%MOMM*%
%LPD*%
G04 APERTURE LIST*
%ADD10C,0.100000*%
G04 APERTURE END LIST*
D10*
G36*
X166955165Y-473619626D02*
G01*
X165214567Y-474086018D01*
X164748175Y-472345420D01*
X166488773Y-471879028D01*
X166955165Y-473619626D01*
X166955165Y-473619626D01*
G37*
G36*
X168415564Y-471430641D02*
G01*
X168481749Y-471437160D01*
X168651588Y-471488680D01*
X168808113Y-471572345D01*
X168843851Y-471601675D01*
X168945308Y-471684937D01*
X169028570Y-471786394D01*
X169057900Y-471822132D01*
X169141565Y-471978657D01*
X169193085Y-472148496D01*
X169210481Y-472325123D01*
X169193085Y-472501750D01*
X169141565Y-472671589D01*
X169057900Y-472828114D01*
X169028570Y-472863852D01*
X168945308Y-472965309D01*
X168843851Y-473048571D01*
X168808113Y-473077901D01*
X168651588Y-473161566D01*
X168481749Y-473213086D01*
X168415565Y-473219604D01*
X168349382Y-473226123D01*
X168260862Y-473226123D01*
X168194679Y-473219604D01*
X168128495Y-473213086D01*
X167958656Y-473161566D01*
X167802131Y-473077901D01*
X167766393Y-473048571D01*
X167664936Y-472965309D01*
X167581674Y-472863852D01*
X167552344Y-472828114D01*
X167468679Y-472671589D01*
X167417159Y-472501750D01*
X167399763Y-472325123D01*
X167417159Y-472148496D01*
X167468679Y-471978657D01*
X167552344Y-471822132D01*
X167581674Y-471786394D01*
X167664936Y-471684937D01*
X167766393Y-471601675D01*
X167802131Y-471572345D01*
X167958656Y-471488680D01*
X168128495Y-471437160D01*
X168194680Y-471430641D01*
X168260862Y-471424123D01*
X168349382Y-471424123D01*
X168415564Y-471430641D01*
X168415564Y-471430641D01*
G37*
G36*
X156501573Y-470920497D02*
G01*
X156567757Y-470927015D01*
X156737596Y-470978535D01*
X156894121Y-471062200D01*
X156929859Y-471091530D01*
X157031316Y-471174792D01*
X157114578Y-471276249D01*
X157143908Y-471311987D01*
X157227573Y-471468512D01*
X157279093Y-471638351D01*
X157296489Y-471814978D01*
X157279093Y-471991605D01*
X157227573Y-472161444D01*
X157143908Y-472317969D01*
X157121379Y-472345420D01*
X157031316Y-472455164D01*
X156929859Y-472538426D01*
X156894121Y-472567756D01*
X156737596Y-472651421D01*
X156567757Y-472702941D01*
X156501572Y-472709460D01*
X156435390Y-472715978D01*
X156346870Y-472715978D01*
X156280688Y-472709460D01*
X156214503Y-472702941D01*
X156044664Y-472651421D01*
X155888139Y-472567756D01*
X155852401Y-472538426D01*
X155750944Y-472455164D01*
X155660881Y-472345420D01*
X155638352Y-472317969D01*
X155554687Y-472161444D01*
X155503167Y-471991605D01*
X155485771Y-471814978D01*
X155503167Y-471638351D01*
X155554687Y-471468512D01*
X155638352Y-471311987D01*
X155667682Y-471276249D01*
X155750944Y-471174792D01*
X155852401Y-471091530D01*
X155888139Y-471062200D01*
X156044664Y-470978535D01*
X156214503Y-470927015D01*
X156280687Y-470920497D01*
X156346870Y-470913978D01*
X156435390Y-470913978D01*
X156501573Y-470920497D01*
X156501573Y-470920497D01*
G37*
G36*
X170869016Y-470773241D02*
G01*
X170935200Y-470779759D01*
X171105039Y-470831279D01*
X171261564Y-470914944D01*
X171276272Y-470927015D01*
X171398759Y-471027536D01*
X171482021Y-471128993D01*
X171511351Y-471164731D01*
X171595016Y-471321256D01*
X171646536Y-471491095D01*
X171663932Y-471667722D01*
X171646536Y-471844349D01*
X171595016Y-472014188D01*
X171511351Y-472170713D01*
X171482021Y-472206451D01*
X171398759Y-472307908D01*
X171297302Y-472391170D01*
X171261564Y-472420500D01*
X171105039Y-472504165D01*
X170935200Y-472555685D01*
X170869016Y-472562203D01*
X170802833Y-472568722D01*
X170714313Y-472568722D01*
X170648130Y-472562203D01*
X170581946Y-472555685D01*
X170412107Y-472504165D01*
X170255582Y-472420500D01*
X170219844Y-472391170D01*
X170118387Y-472307908D01*
X170035125Y-472206451D01*
X170005795Y-472170713D01*
X169922130Y-472014188D01*
X169870610Y-471844349D01*
X169853214Y-471667722D01*
X169870610Y-471491095D01*
X169922130Y-471321256D01*
X170005795Y-471164731D01*
X170035125Y-471128993D01*
X170118387Y-471027536D01*
X170240874Y-470927015D01*
X170255582Y-470914944D01*
X170412107Y-470831279D01*
X170581946Y-470779759D01*
X170648130Y-470773241D01*
X170714313Y-470766722D01*
X170802833Y-470766722D01*
X170869016Y-470773241D01*
X170869016Y-470773241D01*
G37*
G36*
X173322468Y-470115841D02*
G01*
X173388652Y-470122359D01*
X173558491Y-470173879D01*
X173715016Y-470257544D01*
X173750754Y-470286874D01*
X173852211Y-470370136D01*
X173935473Y-470471593D01*
X173964803Y-470507331D01*
X174048468Y-470663856D01*
X174099988Y-470833695D01*
X174117384Y-471010322D01*
X174099988Y-471186949D01*
X174048468Y-471356788D01*
X173964803Y-471513313D01*
X173935473Y-471549051D01*
X173852211Y-471650508D01*
X173750754Y-471733770D01*
X173715016Y-471763100D01*
X173558491Y-471846765D01*
X173388652Y-471898285D01*
X173322468Y-471904803D01*
X173256285Y-471911322D01*
X173167765Y-471911322D01*
X173101582Y-471904803D01*
X173035398Y-471898285D01*
X172865559Y-471846765D01*
X172709034Y-471763100D01*
X172673296Y-471733770D01*
X172571839Y-471650508D01*
X172488577Y-471549051D01*
X172459247Y-471513313D01*
X172375582Y-471356788D01*
X172324062Y-471186949D01*
X172306666Y-471010322D01*
X172324062Y-470833695D01*
X172375582Y-470663856D01*
X172459247Y-470507331D01*
X172488577Y-470471593D01*
X172571839Y-470370136D01*
X172673296Y-470286874D01*
X172709034Y-470257544D01*
X172865559Y-470173879D01*
X173035398Y-470122359D01*
X173101582Y-470115841D01*
X173167765Y-470109322D01*
X173256285Y-470109322D01*
X173322468Y-470115841D01*
X173322468Y-470115841D01*
G37*
G36*
X155826562Y-468465310D02*
G01*
X155910357Y-468473563D01*
X156080196Y-468525083D01*
X156236721Y-468608748D01*
X156272459Y-468638078D01*
X156373916Y-468721340D01*
X156457178Y-468822797D01*
X156486508Y-468858535D01*
X156570173Y-469015060D01*
X156621693Y-469184899D01*
X156639089Y-469361526D01*
X156621693Y-469538153D01*
X156570173Y-469707992D01*
X156486508Y-469864517D01*
X156457178Y-469900255D01*
X156373916Y-470001712D01*
X156272459Y-470084974D01*
X156236721Y-470114304D01*
X156080196Y-470197969D01*
X155910357Y-470249489D01*
X155844173Y-470256007D01*
X155777990Y-470262526D01*
X155689470Y-470262526D01*
X155623287Y-470256007D01*
X155557103Y-470249489D01*
X155387264Y-470197969D01*
X155230739Y-470114304D01*
X155195001Y-470084974D01*
X155093544Y-470001712D01*
X155010282Y-469900255D01*
X154980952Y-469864517D01*
X154897287Y-469707992D01*
X154845767Y-469538153D01*
X154828371Y-469361526D01*
X154845767Y-469184899D01*
X154897287Y-469015060D01*
X154980952Y-468858535D01*
X155010282Y-468822797D01*
X155093544Y-468721340D01*
X155195001Y-468638078D01*
X155230739Y-468608748D01*
X155387264Y-468525083D01*
X155557103Y-468473563D01*
X155640898Y-468465310D01*
X155689470Y-468460526D01*
X155777990Y-468460526D01*
X155826562Y-468465310D01*
X155826562Y-468465310D01*
G37*
G36*
X182662112Y-467588043D02*
G01*
X182728296Y-467594561D01*
X182898135Y-467646081D01*
X183054660Y-467729746D01*
X183090398Y-467759076D01*
X183191855Y-467842338D01*
X183275117Y-467943795D01*
X183304447Y-467979533D01*
X183388112Y-468136058D01*
X183439632Y-468305897D01*
X183457028Y-468482524D01*
X183439632Y-468659151D01*
X183388112Y-468828990D01*
X183304447Y-468985515D01*
X183280200Y-469015060D01*
X183191855Y-469122710D01*
X183090398Y-469205972D01*
X183054660Y-469235302D01*
X182898135Y-469318967D01*
X182728296Y-469370487D01*
X182662112Y-469377005D01*
X182595929Y-469383524D01*
X182507409Y-469383524D01*
X182441226Y-469377005D01*
X182375042Y-469370487D01*
X182205203Y-469318967D01*
X182048678Y-469235302D01*
X182012940Y-469205972D01*
X181911483Y-469122710D01*
X181823138Y-469015060D01*
X181798891Y-468985515D01*
X181715226Y-468828990D01*
X181663706Y-468659151D01*
X181646310Y-468482524D01*
X181663706Y-468305897D01*
X181715226Y-468136058D01*
X181798891Y-467979533D01*
X181828221Y-467943795D01*
X181911483Y-467842338D01*
X182012940Y-467759076D01*
X182048678Y-467729746D01*
X182205203Y-467646081D01*
X182375042Y-467594561D01*
X182441226Y-467588043D01*
X182507409Y-467581524D01*
X182595929Y-467581524D01*
X182662112Y-467588043D01*
X182662112Y-467588043D01*
G37*
G36*
X185115564Y-466930643D02*
G01*
X185181748Y-466937161D01*
X185351587Y-466988681D01*
X185508112Y-467072346D01*
X185543850Y-467101676D01*
X185645307Y-467184938D01*
X185728569Y-467286395D01*
X185757899Y-467322133D01*
X185841564Y-467478658D01*
X185893084Y-467648497D01*
X185910480Y-467825124D01*
X185893084Y-468001751D01*
X185841564Y-468171590D01*
X185757899Y-468328115D01*
X185728569Y-468363853D01*
X185645307Y-468465310D01*
X185543850Y-468548572D01*
X185508112Y-468577902D01*
X185351587Y-468661567D01*
X185181748Y-468713087D01*
X185115564Y-468719605D01*
X185049381Y-468726124D01*
X184960861Y-468726124D01*
X184894678Y-468719605D01*
X184828494Y-468713087D01*
X184658655Y-468661567D01*
X184502130Y-468577902D01*
X184466392Y-468548572D01*
X184364935Y-468465310D01*
X184281673Y-468363853D01*
X184252343Y-468328115D01*
X184168678Y-468171590D01*
X184117158Y-468001751D01*
X184099762Y-467825124D01*
X184117158Y-467648497D01*
X184168678Y-467478658D01*
X184252343Y-467322133D01*
X184281673Y-467286395D01*
X184364935Y-467184938D01*
X184466392Y-467101676D01*
X184502130Y-467072346D01*
X184658655Y-466988681D01*
X184828494Y-466937161D01*
X184894678Y-466930643D01*
X184960861Y-466924124D01*
X185049381Y-466924124D01*
X185115564Y-466930643D01*
X185115564Y-466930643D01*
G37*
G36*
X187569014Y-466273241D02*
G01*
X187635199Y-466279760D01*
X187805038Y-466331280D01*
X187961563Y-466414945D01*
X187997301Y-466444275D01*
X188098758Y-466527537D01*
X188182020Y-466628994D01*
X188211350Y-466664732D01*
X188295015Y-466821257D01*
X188346535Y-466991096D01*
X188363931Y-467167723D01*
X188346535Y-467344350D01*
X188295015Y-467514189D01*
X188211350Y-467670714D01*
X188182020Y-467706452D01*
X188098758Y-467807909D01*
X187997301Y-467891171D01*
X187961563Y-467920501D01*
X187805038Y-468004166D01*
X187635199Y-468055686D01*
X187569014Y-468062205D01*
X187502832Y-468068723D01*
X187414312Y-468068723D01*
X187348130Y-468062205D01*
X187281945Y-468055686D01*
X187112106Y-468004166D01*
X186955581Y-467920501D01*
X186919843Y-467891171D01*
X186818386Y-467807909D01*
X186735124Y-467706452D01*
X186705794Y-467670714D01*
X186622129Y-467514189D01*
X186570609Y-467344350D01*
X186553213Y-467167723D01*
X186570609Y-466991096D01*
X186622129Y-466821257D01*
X186705794Y-466664732D01*
X186735124Y-466628994D01*
X186818386Y-466527537D01*
X186919843Y-466444275D01*
X186955581Y-466414945D01*
X187112106Y-466331280D01*
X187281945Y-466279760D01*
X187348130Y-466273241D01*
X187414312Y-466266723D01*
X187502832Y-466266723D01*
X187569014Y-466273241D01*
X187569014Y-466273241D01*
G37*
G36*
X155186772Y-466013594D02*
G01*
X155252956Y-466020112D01*
X155422795Y-466071632D01*
X155579320Y-466155297D01*
X155615058Y-466184627D01*
X155716515Y-466267889D01*
X155799777Y-466369346D01*
X155829107Y-466405084D01*
X155912772Y-466561609D01*
X155964292Y-466731448D01*
X155981688Y-466908075D01*
X155964292Y-467084702D01*
X155912772Y-467254541D01*
X155829107Y-467411066D01*
X155799777Y-467446804D01*
X155716515Y-467548261D01*
X155636632Y-467613818D01*
X155579320Y-467660853D01*
X155422795Y-467744518D01*
X155252956Y-467796038D01*
X155186772Y-467802556D01*
X155120589Y-467809075D01*
X155032069Y-467809075D01*
X154965886Y-467802556D01*
X154899702Y-467796038D01*
X154729863Y-467744518D01*
X154573338Y-467660853D01*
X154516026Y-467613818D01*
X154436143Y-467548261D01*
X154352881Y-467446804D01*
X154323551Y-467411066D01*
X154239886Y-467254541D01*
X154188366Y-467084702D01*
X154170970Y-466908075D01*
X154188366Y-466731448D01*
X154239886Y-466561609D01*
X154323551Y-466405084D01*
X154352881Y-466369346D01*
X154436143Y-466267889D01*
X154537600Y-466184627D01*
X154573338Y-466155297D01*
X154729863Y-466071632D01*
X154899702Y-466020112D01*
X154965886Y-466013594D01*
X155032069Y-466007075D01*
X155120589Y-466007075D01*
X155186772Y-466013594D01*
X155186772Y-466013594D01*
G37*
G36*
X191015519Y-467147426D02*
G01*
X189274921Y-467613818D01*
X188808529Y-465873220D01*
X190549127Y-465406828D01*
X191015519Y-467147426D01*
X191015519Y-467147426D01*
G37*
G36*
X194809069Y-464273777D02*
G01*
X194875253Y-464280295D01*
X195045092Y-464331815D01*
X195201617Y-464415480D01*
X195237355Y-464444810D01*
X195338812Y-464528072D01*
X195422074Y-464629529D01*
X195451404Y-464665267D01*
X195535069Y-464821792D01*
X195586589Y-464991631D01*
X195603985Y-465168258D01*
X195586589Y-465344885D01*
X195535069Y-465514724D01*
X195451404Y-465671249D01*
X195422074Y-465706987D01*
X195338812Y-465808444D01*
X195259881Y-465873220D01*
X195201617Y-465921036D01*
X195045092Y-466004701D01*
X194875253Y-466056221D01*
X194809068Y-466062740D01*
X194742886Y-466069258D01*
X194654366Y-466069258D01*
X194588184Y-466062740D01*
X194521999Y-466056221D01*
X194352160Y-466004701D01*
X194195635Y-465921036D01*
X194137371Y-465873220D01*
X194058440Y-465808444D01*
X193975178Y-465706987D01*
X193945848Y-465671249D01*
X193862183Y-465514724D01*
X193810663Y-465344885D01*
X193793267Y-465168258D01*
X193810663Y-464991631D01*
X193862183Y-464821792D01*
X193945848Y-464665267D01*
X193975178Y-464629529D01*
X194058440Y-464528072D01*
X194159897Y-464444810D01*
X194195635Y-464415480D01*
X194352160Y-464331815D01*
X194521999Y-464280295D01*
X194588183Y-464273777D01*
X194654366Y-464267258D01*
X194742886Y-464267258D01*
X194809069Y-464273777D01*
X194809069Y-464273777D01*
G37*
G36*
X155522424Y-465091726D02*
G01*
X153781826Y-465558118D01*
X153315434Y-463817520D01*
X155056032Y-463351128D01*
X155522424Y-465091726D01*
X155522424Y-465091726D01*
G37*
G36*
X197892930Y-463112676D02*
G01*
X198045527Y-463175883D01*
X198182861Y-463267647D01*
X198299655Y-463384441D01*
X198391419Y-463521775D01*
X198454626Y-463674372D01*
X198486849Y-463836367D01*
X198486849Y-464001539D01*
X198454626Y-464163534D01*
X198391419Y-464316131D01*
X198299655Y-464453465D01*
X198182861Y-464570259D01*
X198045527Y-464662023D01*
X197892930Y-464725230D01*
X197730935Y-464757453D01*
X197565763Y-464757453D01*
X197403768Y-464725230D01*
X197251171Y-464662023D01*
X197113837Y-464570259D01*
X196997043Y-464453465D01*
X196905279Y-464316131D01*
X196842072Y-464163534D01*
X196809849Y-464001539D01*
X196809849Y-463836367D01*
X196842072Y-463674372D01*
X196905279Y-463521775D01*
X196997043Y-463384441D01*
X197113837Y-463267647D01*
X197251171Y-463175883D01*
X197403768Y-463112676D01*
X197565763Y-463080453D01*
X197730935Y-463080453D01*
X197892930Y-463112676D01*
X197892930Y-463112676D01*
G37*
G36*
X194151668Y-461820324D02*
G01*
X194217853Y-461826843D01*
X194387692Y-461878363D01*
X194544217Y-461962028D01*
X194579955Y-461991358D01*
X194681412Y-462074620D01*
X194737601Y-462143088D01*
X194794004Y-462211815D01*
X194877669Y-462368340D01*
X194929189Y-462538179D01*
X194946585Y-462714806D01*
X194929189Y-462891433D01*
X194886563Y-463031951D01*
X194877668Y-463061274D01*
X194850193Y-463112676D01*
X194794004Y-463217797D01*
X194764674Y-463253535D01*
X194681412Y-463354992D01*
X194579955Y-463438254D01*
X194544217Y-463467584D01*
X194387692Y-463551249D01*
X194217853Y-463602769D01*
X194151669Y-463609287D01*
X194085486Y-463615806D01*
X193996966Y-463615806D01*
X193930783Y-463609287D01*
X193864599Y-463602769D01*
X193694760Y-463551249D01*
X193538235Y-463467584D01*
X193502497Y-463438254D01*
X193401040Y-463354992D01*
X193317778Y-463253535D01*
X193288448Y-463217797D01*
X193232259Y-463112676D01*
X193204784Y-463061274D01*
X193195889Y-463031951D01*
X193153263Y-462891433D01*
X193135867Y-462714806D01*
X193153263Y-462538179D01*
X193204783Y-462368340D01*
X193288448Y-462211815D01*
X193344851Y-462143088D01*
X193401040Y-462074620D01*
X193502497Y-461991358D01*
X193538235Y-461962028D01*
X193694760Y-461878363D01*
X193864599Y-461826843D01*
X193930784Y-461820324D01*
X193996966Y-461813806D01*
X194085486Y-461813806D01*
X194151668Y-461820324D01*
X194151668Y-461820324D01*
G37*
G36*
X204168502Y-461419397D02*
G01*
X204321099Y-461482604D01*
X204458433Y-461574368D01*
X204575227Y-461691162D01*
X204666991Y-461828496D01*
X204730198Y-461981093D01*
X204762421Y-462143088D01*
X204762421Y-462308260D01*
X204730198Y-462470255D01*
X204666991Y-462622852D01*
X204575227Y-462760186D01*
X204458433Y-462876980D01*
X204321099Y-462968744D01*
X204168502Y-463031951D01*
X204006507Y-463064174D01*
X203841335Y-463064174D01*
X203679340Y-463031951D01*
X203526743Y-462968744D01*
X203389409Y-462876980D01*
X203272615Y-462760186D01*
X203180851Y-462622852D01*
X203117644Y-462470255D01*
X203085421Y-462308260D01*
X203085421Y-462143088D01*
X203117644Y-461981093D01*
X203180851Y-461828496D01*
X203272615Y-461691162D01*
X203389409Y-461574368D01*
X203526743Y-461482604D01*
X203679340Y-461419397D01*
X203841335Y-461387174D01*
X204006507Y-461387174D01*
X204168502Y-461419397D01*
X204168502Y-461419397D01*
G37*
G36*
X207592930Y-460512676D02*
G01*
X207745527Y-460575883D01*
X207882861Y-460667647D01*
X207999655Y-460784441D01*
X208091419Y-460921775D01*
X208154626Y-461074372D01*
X208186849Y-461236367D01*
X208186849Y-461401539D01*
X208154626Y-461563534D01*
X208091419Y-461716131D01*
X207999655Y-461853465D01*
X207882861Y-461970259D01*
X207745527Y-462062023D01*
X207592930Y-462125230D01*
X207430935Y-462157453D01*
X207265763Y-462157453D01*
X207103768Y-462125230D01*
X206951171Y-462062023D01*
X206813837Y-461970259D01*
X206697043Y-461853465D01*
X206605279Y-461716131D01*
X206542072Y-461563534D01*
X206509849Y-461401539D01*
X206509849Y-461236367D01*
X206542072Y-461074372D01*
X206605279Y-460921775D01*
X206697043Y-460784441D01*
X206813837Y-460667647D01*
X206951171Y-460575883D01*
X207103768Y-460512676D01*
X207265763Y-460480453D01*
X207430935Y-460480453D01*
X207592930Y-460512676D01*
X207592930Y-460512676D01*
G37*
G36*
X193494267Y-459366873D02*
G01*
X193560452Y-459373392D01*
X193730291Y-459424912D01*
X193886816Y-459508577D01*
X193922554Y-459537907D01*
X194024011Y-459621169D01*
X194107273Y-459722626D01*
X194136603Y-459758364D01*
X194220268Y-459914889D01*
X194271788Y-460084728D01*
X194289184Y-460261355D01*
X194271788Y-460437982D01*
X194220268Y-460607821D01*
X194136603Y-460764346D01*
X194120112Y-460784440D01*
X194024011Y-460901541D01*
X193922554Y-460984803D01*
X193886816Y-461014133D01*
X193730291Y-461097798D01*
X193560452Y-461149318D01*
X193494268Y-461155836D01*
X193428085Y-461162355D01*
X193339565Y-461162355D01*
X193273382Y-461155836D01*
X193207198Y-461149318D01*
X193037359Y-461097798D01*
X192880834Y-461014133D01*
X192845096Y-460984803D01*
X192743639Y-460901541D01*
X192647538Y-460784440D01*
X192631047Y-460764346D01*
X192547382Y-460607821D01*
X192495862Y-460437982D01*
X192478466Y-460261355D01*
X192495862Y-460084728D01*
X192547382Y-459914889D01*
X192631047Y-459758364D01*
X192660377Y-459722626D01*
X192743639Y-459621169D01*
X192845096Y-459537907D01*
X192880834Y-459508577D01*
X193037359Y-459424912D01*
X193207198Y-459373392D01*
X193273383Y-459366873D01*
X193339565Y-459360355D01*
X193428085Y-459360355D01*
X193494267Y-459366873D01*
X193494267Y-459366873D01*
G37*
G36*
X213868502Y-458819397D02*
G01*
X214021099Y-458882604D01*
X214158433Y-458974368D01*
X214275227Y-459091162D01*
X214366991Y-459228496D01*
X214430198Y-459381093D01*
X214462421Y-459543088D01*
X214462421Y-459708260D01*
X214430198Y-459870255D01*
X214366991Y-460022852D01*
X214275227Y-460160186D01*
X214158433Y-460276980D01*
X214021099Y-460368744D01*
X213868502Y-460431951D01*
X213706507Y-460464174D01*
X213541335Y-460464174D01*
X213379340Y-460431951D01*
X213226743Y-460368744D01*
X213089409Y-460276980D01*
X212972615Y-460160186D01*
X212880851Y-460022852D01*
X212817644Y-459870255D01*
X212785421Y-459708260D01*
X212785421Y-459543088D01*
X212817644Y-459381093D01*
X212880851Y-459228496D01*
X212972615Y-459091162D01*
X213089409Y-458974368D01*
X213226743Y-458882604D01*
X213379340Y-458819397D01*
X213541335Y-458787174D01*
X213706507Y-458787174D01*
X213868502Y-458819397D01*
X213868502Y-458819397D01*
G37*
G36*
X196720660Y-458768049D02*
G01*
X196873257Y-458831256D01*
X197010591Y-458923020D01*
X197127385Y-459039814D01*
X197219149Y-459177148D01*
X197282356Y-459329745D01*
X197314579Y-459491740D01*
X197314579Y-459656912D01*
X197282356Y-459818907D01*
X197219149Y-459971504D01*
X197127385Y-460108838D01*
X197010591Y-460225632D01*
X196873257Y-460317396D01*
X196720660Y-460380603D01*
X196558665Y-460412826D01*
X196393493Y-460412826D01*
X196231498Y-460380603D01*
X196078901Y-460317396D01*
X195941567Y-460225632D01*
X195824773Y-460108838D01*
X195733009Y-459971504D01*
X195669802Y-459818907D01*
X195637579Y-459656912D01*
X195637579Y-459491740D01*
X195669802Y-459329745D01*
X195733009Y-459177148D01*
X195824773Y-459039814D01*
X195941567Y-458923020D01*
X196078901Y-458831256D01*
X196231498Y-458768049D01*
X196393493Y-458735826D01*
X196558665Y-458735826D01*
X196720660Y-458768049D01*
X196720660Y-458768049D01*
G37*
G36*
X228522467Y-457835840D02*
G01*
X228588652Y-457842359D01*
X228758491Y-457893879D01*
X228915016Y-457977544D01*
X228950754Y-458006874D01*
X229052211Y-458090136D01*
X229135473Y-458191593D01*
X229164803Y-458227331D01*
X229248468Y-458383856D01*
X229299988Y-458553695D01*
X229317384Y-458730322D01*
X229299988Y-458906949D01*
X229248468Y-459076788D01*
X229164803Y-459233313D01*
X229135473Y-459269051D01*
X229052211Y-459370508D01*
X228985917Y-459424913D01*
X228915016Y-459483100D01*
X228758491Y-459566765D01*
X228588652Y-459618285D01*
X228522467Y-459624804D01*
X228456285Y-459631322D01*
X228367765Y-459631322D01*
X228301583Y-459624804D01*
X228235398Y-459618285D01*
X228065559Y-459566765D01*
X227909034Y-459483100D01*
X227838133Y-459424913D01*
X227771839Y-459370508D01*
X227688577Y-459269051D01*
X227659247Y-459233313D01*
X227575582Y-459076788D01*
X227524062Y-458906949D01*
X227506666Y-458730322D01*
X227524062Y-458553695D01*
X227575582Y-458383856D01*
X227659247Y-458227331D01*
X227688577Y-458191593D01*
X227771839Y-458090136D01*
X227873296Y-458006874D01*
X227909034Y-457977544D01*
X228065559Y-457893879D01*
X228235398Y-457842359D01*
X228301583Y-457835840D01*
X228367765Y-457829322D01*
X228456285Y-457829322D01*
X228522467Y-457835840D01*
X228522467Y-457835840D01*
G37*
G36*
X193829920Y-458445006D02*
G01*
X192089322Y-458911398D01*
X191622930Y-457170800D01*
X193363528Y-456704408D01*
X193829920Y-458445006D01*
X193829920Y-458445006D01*
G37*
G36*
X202996232Y-457074770D02*
G01*
X203148829Y-457137977D01*
X203286163Y-457229741D01*
X203402957Y-457346535D01*
X203494721Y-457483869D01*
X203557928Y-457636466D01*
X203590151Y-457798461D01*
X203590151Y-457963633D01*
X203557928Y-458125628D01*
X203494721Y-458278225D01*
X203402957Y-458415559D01*
X203286163Y-458532353D01*
X203148829Y-458624117D01*
X202996232Y-458687324D01*
X202834237Y-458719547D01*
X202669065Y-458719547D01*
X202507070Y-458687324D01*
X202354473Y-458624117D01*
X202217139Y-458532353D01*
X202100345Y-458415559D01*
X202008581Y-458278225D01*
X201945374Y-458125628D01*
X201913151Y-457963633D01*
X201913151Y-457798461D01*
X201945374Y-457636466D01*
X202008581Y-457483869D01*
X202100345Y-457346535D01*
X202217139Y-457229741D01*
X202354473Y-457137977D01*
X202507070Y-457074770D01*
X202669065Y-457042547D01*
X202834237Y-457042547D01*
X202996232Y-457074770D01*
X202996232Y-457074770D01*
G37*
G36*
X206420660Y-456168049D02*
G01*
X206573257Y-456231256D01*
X206710591Y-456323020D01*
X206827385Y-456439814D01*
X206919149Y-456577148D01*
X206982356Y-456729745D01*
X207014579Y-456891740D01*
X207014579Y-457056912D01*
X206982356Y-457218907D01*
X206919149Y-457371504D01*
X206827385Y-457508838D01*
X206710591Y-457625632D01*
X206573257Y-457717396D01*
X206420660Y-457780603D01*
X206258665Y-457812826D01*
X206093493Y-457812826D01*
X205931498Y-457780603D01*
X205778901Y-457717396D01*
X205641567Y-457625632D01*
X205524773Y-457508838D01*
X205433009Y-457371504D01*
X205369802Y-457218907D01*
X205337579Y-457056912D01*
X205337579Y-456891740D01*
X205369802Y-456729745D01*
X205433009Y-456577148D01*
X205524773Y-456439814D01*
X205641567Y-456323020D01*
X205778901Y-456231256D01*
X205931498Y-456168049D01*
X206093493Y-456135826D01*
X206258665Y-456135826D01*
X206420660Y-456168049D01*
X206420660Y-456168049D01*
G37*
G36*
X199272311Y-455749096D02*
G01*
X199424908Y-455812303D01*
X199562242Y-455904067D01*
X199679036Y-456020861D01*
X199770800Y-456158195D01*
X199834007Y-456310792D01*
X199866230Y-456472787D01*
X199866230Y-456637959D01*
X199834007Y-456799954D01*
X199770800Y-456952551D01*
X199679036Y-457089885D01*
X199562242Y-457206679D01*
X199424908Y-457298443D01*
X199272311Y-457361650D01*
X199110316Y-457393873D01*
X198945144Y-457393873D01*
X198783149Y-457361650D01*
X198630552Y-457298443D01*
X198493218Y-457206679D01*
X198376424Y-457089885D01*
X198284660Y-456952551D01*
X198221453Y-456799954D01*
X198189230Y-456637959D01*
X198189230Y-456472787D01*
X198221453Y-456310792D01*
X198284660Y-456158195D01*
X198376424Y-456020861D01*
X198493218Y-455904067D01*
X198630552Y-455812303D01*
X198783149Y-455749096D01*
X198945144Y-455716873D01*
X199110316Y-455716873D01*
X199272311Y-455749096D01*
X199272311Y-455749096D01*
G37*
G36*
X228522467Y-455295840D02*
G01*
X228588652Y-455302359D01*
X228758491Y-455353879D01*
X228758493Y-455353880D01*
X228776739Y-455363633D01*
X228915016Y-455437544D01*
X228950754Y-455466874D01*
X229052211Y-455550136D01*
X229135473Y-455651593D01*
X229164803Y-455687331D01*
X229248468Y-455843856D01*
X229299988Y-456013695D01*
X229317384Y-456190322D01*
X229299988Y-456366949D01*
X229267882Y-456472787D01*
X229248467Y-456536790D01*
X229226895Y-456577148D01*
X229164803Y-456693313D01*
X229135473Y-456729051D01*
X229052211Y-456830508D01*
X228977598Y-456891740D01*
X228915016Y-456943100D01*
X228758491Y-457026765D01*
X228588652Y-457078285D01*
X228522468Y-457084803D01*
X228456285Y-457091322D01*
X228367765Y-457091322D01*
X228301582Y-457084803D01*
X228235398Y-457078285D01*
X228065559Y-457026765D01*
X227909034Y-456943100D01*
X227846452Y-456891740D01*
X227771839Y-456830508D01*
X227688577Y-456729051D01*
X227659247Y-456693313D01*
X227597155Y-456577148D01*
X227575583Y-456536790D01*
X227556168Y-456472787D01*
X227524062Y-456366949D01*
X227506666Y-456190322D01*
X227524062Y-456013695D01*
X227575582Y-455843856D01*
X227659247Y-455687331D01*
X227688577Y-455651593D01*
X227771839Y-455550136D01*
X227873296Y-455466874D01*
X227909034Y-455437544D01*
X228047311Y-455363633D01*
X228065557Y-455353880D01*
X228065559Y-455353879D01*
X228235398Y-455302359D01*
X228301583Y-455295840D01*
X228367765Y-455289322D01*
X228456285Y-455289322D01*
X228522467Y-455295840D01*
X228522467Y-455295840D01*
G37*
G36*
X212696232Y-454474770D02*
G01*
X212848829Y-454537977D01*
X212986163Y-454629741D01*
X213102957Y-454746535D01*
X213194721Y-454883869D01*
X213257928Y-455036466D01*
X213290151Y-455198461D01*
X213290151Y-455363633D01*
X213257928Y-455525628D01*
X213194721Y-455678225D01*
X213102957Y-455815559D01*
X212986163Y-455932353D01*
X212848829Y-456024117D01*
X212696232Y-456087324D01*
X212534237Y-456119547D01*
X212369065Y-456119547D01*
X212207070Y-456087324D01*
X212054473Y-456024117D01*
X211917139Y-455932353D01*
X211800345Y-455815559D01*
X211708581Y-455678225D01*
X211645374Y-455525628D01*
X211613151Y-455363633D01*
X211613151Y-455198461D01*
X211645374Y-455036466D01*
X211708581Y-454883869D01*
X211800345Y-454746535D01*
X211917139Y-454629741D01*
X212054473Y-454537977D01*
X212207070Y-454474770D01*
X212369065Y-454442547D01*
X212534237Y-454442547D01*
X212696232Y-454474770D01*
X212696232Y-454474770D01*
G37*
G36*
X208972311Y-453149096D02*
G01*
X209124908Y-453212303D01*
X209262242Y-453304067D01*
X209379036Y-453420861D01*
X209470800Y-453558195D01*
X209534007Y-453710792D01*
X209566230Y-453872787D01*
X209566230Y-454037959D01*
X209534007Y-454199954D01*
X209470800Y-454352551D01*
X209379036Y-454489885D01*
X209262242Y-454606679D01*
X209124908Y-454698443D01*
X208972311Y-454761650D01*
X208810316Y-454793873D01*
X208645144Y-454793873D01*
X208483149Y-454761650D01*
X208330552Y-454698443D01*
X208193218Y-454606679D01*
X208076424Y-454489885D01*
X207984660Y-454352551D01*
X207921453Y-454199954D01*
X207889230Y-454037959D01*
X207889230Y-453872787D01*
X207921453Y-453710792D01*
X207984660Y-453558195D01*
X208076424Y-453420861D01*
X208193218Y-453304067D01*
X208330552Y-453212303D01*
X208483149Y-453149096D01*
X208645144Y-453116873D01*
X208810316Y-453116873D01*
X208972311Y-453149096D01*
X208972311Y-453149096D01*
G37*
G36*
X228522468Y-452755841D02*
G01*
X228588652Y-452762359D01*
X228758491Y-452813879D01*
X228915016Y-452897544D01*
X228950754Y-452926874D01*
X229052211Y-453010136D01*
X229135473Y-453111593D01*
X229164803Y-453147331D01*
X229248468Y-453303856D01*
X229299988Y-453473695D01*
X229317384Y-453650322D01*
X229299988Y-453826949D01*
X229248468Y-453996788D01*
X229248467Y-453996790D01*
X229206636Y-454075050D01*
X229164803Y-454153313D01*
X229135473Y-454189051D01*
X229052211Y-454290508D01*
X228950754Y-454373770D01*
X228915016Y-454403100D01*
X228758491Y-454486765D01*
X228588652Y-454538285D01*
X228522468Y-454544803D01*
X228456285Y-454551322D01*
X228367765Y-454551322D01*
X228301582Y-454544803D01*
X228235398Y-454538285D01*
X228065559Y-454486765D01*
X227909034Y-454403100D01*
X227873296Y-454373770D01*
X227771839Y-454290508D01*
X227688577Y-454189051D01*
X227659247Y-454153313D01*
X227617414Y-454075050D01*
X227575583Y-453996790D01*
X227575582Y-453996788D01*
X227524062Y-453826949D01*
X227506666Y-453650322D01*
X227524062Y-453473695D01*
X227575582Y-453303856D01*
X227659247Y-453147331D01*
X227688577Y-453111593D01*
X227771839Y-453010136D01*
X227873296Y-452926874D01*
X227909034Y-452897544D01*
X228065559Y-452813879D01*
X228235398Y-452762359D01*
X228301582Y-452755841D01*
X228367765Y-452749322D01*
X228456285Y-452749322D01*
X228522468Y-452755841D01*
X228522468Y-452755841D01*
G37*
G36*
X221108499Y-449994006D02*
G01*
X221326499Y-450084305D01*
X221480648Y-450148155D01*
X221815573Y-450371945D01*
X222100402Y-450656774D01*
X222324192Y-450991699D01*
X222356587Y-451069908D01*
X222478341Y-451363848D01*
X222556925Y-451758916D01*
X222556925Y-452161728D01*
X222478341Y-452556796D01*
X222427476Y-452679594D01*
X222324192Y-452928945D01*
X222100402Y-453263870D01*
X221815573Y-453548699D01*
X221480648Y-453772489D01*
X221349174Y-453826947D01*
X221108499Y-453926638D01*
X220713431Y-454005222D01*
X220310619Y-454005222D01*
X219915551Y-453926638D01*
X219674876Y-453826947D01*
X219543402Y-453772489D01*
X219208477Y-453548699D01*
X218923648Y-453263870D01*
X218699858Y-452928945D01*
X218596574Y-452679594D01*
X218545709Y-452556796D01*
X218467125Y-452161728D01*
X218467125Y-451758916D01*
X218545709Y-451363848D01*
X218667463Y-451069908D01*
X218699858Y-450991699D01*
X218923648Y-450656774D01*
X219208477Y-450371945D01*
X219543402Y-450148155D01*
X219697551Y-450084305D01*
X219915551Y-449994006D01*
X220310619Y-449915422D01*
X220713431Y-449915422D01*
X221108499Y-449994006D01*
X221108499Y-449994006D01*
G37*
G36*
X215702129Y-451069907D02*
G01*
X215870651Y-451139711D01*
X216022316Y-451241050D01*
X216151297Y-451370031D01*
X216252636Y-451521696D01*
X216322440Y-451690218D01*
X216358025Y-451869119D01*
X216358025Y-452051525D01*
X216322440Y-452230426D01*
X216252636Y-452398948D01*
X216151297Y-452550613D01*
X216022316Y-452679594D01*
X215870651Y-452780933D01*
X215702129Y-452850737D01*
X215523228Y-452886322D01*
X215340822Y-452886322D01*
X215161921Y-452850737D01*
X214993399Y-452780933D01*
X214841734Y-452679594D01*
X214712753Y-452550613D01*
X214611414Y-452398948D01*
X214541610Y-452230426D01*
X214506025Y-452051525D01*
X214506025Y-451869119D01*
X214541610Y-451690218D01*
X214611414Y-451521696D01*
X214712753Y-451370031D01*
X214841734Y-451241050D01*
X214993399Y-451139711D01*
X215161921Y-451069907D01*
X215340822Y-451034322D01*
X215523228Y-451034322D01*
X215702129Y-451069907D01*
X215702129Y-451069907D01*
G37*
G36*
X225862129Y-451069907D02*
G01*
X226030651Y-451139711D01*
X226182316Y-451241050D01*
X226311297Y-451370031D01*
X226412636Y-451521696D01*
X226482440Y-451690218D01*
X226518025Y-451869119D01*
X226518025Y-452051525D01*
X226482440Y-452230426D01*
X226412636Y-452398948D01*
X226311297Y-452550613D01*
X226182316Y-452679594D01*
X226030651Y-452780933D01*
X225862129Y-452850737D01*
X225683228Y-452886322D01*
X225500822Y-452886322D01*
X225321921Y-452850737D01*
X225153399Y-452780933D01*
X225001734Y-452679594D01*
X224872753Y-452550613D01*
X224771414Y-452398948D01*
X224701610Y-452230426D01*
X224666025Y-452051525D01*
X224666025Y-451869119D01*
X224701610Y-451690218D01*
X224771414Y-451521696D01*
X224872753Y-451370031D01*
X225001734Y-451241050D01*
X225153399Y-451139711D01*
X225321921Y-451069907D01*
X225500822Y-451034322D01*
X225683228Y-451034322D01*
X225862129Y-451069907D01*
X225862129Y-451069907D01*
G37*
G36*
X229313025Y-452011322D02*
G01*
X227511025Y-452011322D01*
X227511025Y-450209322D01*
X229313025Y-450209322D01*
X229313025Y-452011322D01*
X229313025Y-452011322D01*
G37*
G36*
X164716921Y-451985972D02*
G01*
X162914921Y-451985972D01*
X162914921Y-450183972D01*
X164716921Y-450183972D01*
X164716921Y-451985972D01*
X164716921Y-451985972D01*
G37*
G36*
X161386363Y-450190490D02*
G01*
X161452548Y-450197009D01*
X161622387Y-450248529D01*
X161778912Y-450332194D01*
X161814650Y-450361524D01*
X161916107Y-450444786D01*
X161999369Y-450546243D01*
X162028699Y-450581981D01*
X162112364Y-450738506D01*
X162163884Y-450908345D01*
X162181280Y-451084972D01*
X162163884Y-451261599D01*
X162112364Y-451431438D01*
X162028699Y-451587963D01*
X161999369Y-451623701D01*
X161916107Y-451725158D01*
X161814650Y-451808420D01*
X161778912Y-451837750D01*
X161622387Y-451921415D01*
X161452548Y-451972935D01*
X161386364Y-451979453D01*
X161320181Y-451985972D01*
X161231661Y-451985972D01*
X161165478Y-451979453D01*
X161099294Y-451972935D01*
X160929455Y-451921415D01*
X160772930Y-451837750D01*
X160737192Y-451808420D01*
X160635735Y-451725158D01*
X160552473Y-451623701D01*
X160523143Y-451587963D01*
X160439478Y-451431438D01*
X160387958Y-451261599D01*
X160370562Y-451084972D01*
X160387958Y-450908345D01*
X160439478Y-450738506D01*
X160523143Y-450581981D01*
X160552473Y-450546243D01*
X160635735Y-450444786D01*
X160737192Y-450361524D01*
X160772930Y-450332194D01*
X160929455Y-450248529D01*
X161099294Y-450197009D01*
X161165479Y-450190490D01*
X161231661Y-450183972D01*
X161320181Y-450183972D01*
X161386363Y-450190490D01*
X161386363Y-450190490D01*
G37*
G36*
X158846363Y-450190490D02*
G01*
X158912548Y-450197009D01*
X159082387Y-450248529D01*
X159238912Y-450332194D01*
X159274650Y-450361524D01*
X159376107Y-450444786D01*
X159459369Y-450546243D01*
X159488699Y-450581981D01*
X159572364Y-450738506D01*
X159623884Y-450908345D01*
X159641280Y-451084972D01*
X159623884Y-451261599D01*
X159572364Y-451431438D01*
X159488699Y-451587963D01*
X159459369Y-451623701D01*
X159376107Y-451725158D01*
X159274650Y-451808420D01*
X159238912Y-451837750D01*
X159082387Y-451921415D01*
X158912548Y-451972935D01*
X158846364Y-451979453D01*
X158780181Y-451985972D01*
X158691661Y-451985972D01*
X158625478Y-451979453D01*
X158559294Y-451972935D01*
X158389455Y-451921415D01*
X158232930Y-451837750D01*
X158197192Y-451808420D01*
X158095735Y-451725158D01*
X158012473Y-451623701D01*
X157983143Y-451587963D01*
X157899478Y-451431438D01*
X157847958Y-451261599D01*
X157830562Y-451084972D01*
X157847958Y-450908345D01*
X157899478Y-450738506D01*
X157983143Y-450581981D01*
X158012473Y-450546243D01*
X158095735Y-450444786D01*
X158197192Y-450361524D01*
X158232930Y-450332194D01*
X158389455Y-450248529D01*
X158559294Y-450197009D01*
X158625479Y-450190490D01*
X158691661Y-450183972D01*
X158780181Y-450183972D01*
X158846363Y-450190490D01*
X158846363Y-450190490D01*
G37*
G36*
X156306363Y-450190490D02*
G01*
X156372548Y-450197009D01*
X156542387Y-450248529D01*
X156698912Y-450332194D01*
X156734650Y-450361524D01*
X156836107Y-450444786D01*
X156919369Y-450546243D01*
X156948699Y-450581981D01*
X157032364Y-450738506D01*
X157083884Y-450908345D01*
X157101280Y-451084972D01*
X157083884Y-451261599D01*
X157032364Y-451431438D01*
X156948699Y-451587963D01*
X156919369Y-451623701D01*
X156836107Y-451725158D01*
X156734650Y-451808420D01*
X156698912Y-451837750D01*
X156542387Y-451921415D01*
X156372548Y-451972935D01*
X156306364Y-451979453D01*
X156240181Y-451985972D01*
X156151661Y-451985972D01*
X156085478Y-451979453D01*
X156019294Y-451972935D01*
X155849455Y-451921415D01*
X155692930Y-451837750D01*
X155657192Y-451808420D01*
X155555735Y-451725158D01*
X155472473Y-451623701D01*
X155443143Y-451587963D01*
X155359478Y-451431438D01*
X155307958Y-451261599D01*
X155290562Y-451084972D01*
X155307958Y-450908345D01*
X155359478Y-450738506D01*
X155443143Y-450581981D01*
X155472473Y-450546243D01*
X155555735Y-450444786D01*
X155657192Y-450361524D01*
X155692930Y-450332194D01*
X155849455Y-450248529D01*
X156019294Y-450197009D01*
X156085479Y-450190490D01*
X156151661Y-450183972D01*
X156240181Y-450183972D01*
X156306363Y-450190490D01*
X156306363Y-450190490D01*
G37*
G36*
X216940255Y-447886323D02*
G01*
X217154435Y-447928926D01*
X217436699Y-448045843D01*
X217690730Y-448215581D01*
X217906766Y-448431617D01*
X218076504Y-448685648D01*
X218193421Y-448967912D01*
X218253025Y-449267562D01*
X218253025Y-449573082D01*
X218193421Y-449872732D01*
X218076504Y-450154996D01*
X217906766Y-450409027D01*
X217690730Y-450625063D01*
X217436699Y-450794801D01*
X217154435Y-450911718D01*
X217004610Y-450941520D01*
X216854786Y-450971322D01*
X216549264Y-450971322D01*
X216399440Y-450941520D01*
X216249615Y-450911718D01*
X215967351Y-450794801D01*
X215713320Y-450625063D01*
X215497284Y-450409027D01*
X215327546Y-450154996D01*
X215210629Y-449872732D01*
X215151025Y-449573082D01*
X215151025Y-449267562D01*
X215210629Y-448967912D01*
X215327546Y-448685648D01*
X215497284Y-448431617D01*
X215713320Y-448215581D01*
X215967351Y-448045843D01*
X216249615Y-447928926D01*
X216463795Y-447886323D01*
X216549264Y-447869322D01*
X216854786Y-447869322D01*
X216940255Y-447886323D01*
X216940255Y-447886323D01*
G37*
G36*
X202058499Y-444994007D02*
G01*
X202276499Y-445084306D01*
X202430648Y-445148156D01*
X202765573Y-445371946D01*
X203050402Y-445656775D01*
X203274192Y-445991700D01*
X203306587Y-446069909D01*
X203428341Y-446363849D01*
X203506925Y-446758917D01*
X203506925Y-447161729D01*
X203428341Y-447556797D01*
X203377476Y-447679595D01*
X203274192Y-447928946D01*
X203050402Y-448263871D01*
X202765573Y-448548700D01*
X202430648Y-448772490D01*
X202276499Y-448836340D01*
X202058499Y-448926639D01*
X201663431Y-449005223D01*
X201260619Y-449005223D01*
X200865551Y-448926639D01*
X200647551Y-448836340D01*
X200493402Y-448772490D01*
X200158477Y-448548700D01*
X199873648Y-448263871D01*
X199649858Y-447928946D01*
X199546574Y-447679595D01*
X199495709Y-447556797D01*
X199417125Y-447161729D01*
X199417125Y-446758917D01*
X199495709Y-446363849D01*
X199617463Y-446069909D01*
X199649858Y-445991700D01*
X199873648Y-445656775D01*
X200158477Y-445371946D01*
X200493402Y-445148156D01*
X200647551Y-445084306D01*
X200865551Y-444994007D01*
X201260619Y-444915423D01*
X201663431Y-444915423D01*
X202058499Y-444994007D01*
X202058499Y-444994007D01*
G37*
G36*
X223354610Y-445359124D02*
G01*
X223504435Y-445388926D01*
X223786699Y-445505843D01*
X224040730Y-445675581D01*
X224256766Y-445891617D01*
X224426504Y-446145648D01*
X224543421Y-446427912D01*
X224603025Y-446727562D01*
X224603025Y-447033082D01*
X224543421Y-447332732D01*
X224426504Y-447614996D01*
X224256766Y-447869027D01*
X224040730Y-448085063D01*
X223786699Y-448254801D01*
X223504435Y-448371718D01*
X223354610Y-448401520D01*
X223204786Y-448431322D01*
X222899264Y-448431322D01*
X222749440Y-448401520D01*
X222599615Y-448371718D01*
X222317351Y-448254801D01*
X222063320Y-448085063D01*
X221847284Y-447869027D01*
X221677546Y-447614996D01*
X221560629Y-447332732D01*
X221501025Y-447033082D01*
X221501025Y-446727562D01*
X221560629Y-446427912D01*
X221677546Y-446145648D01*
X221847284Y-445891617D01*
X222063320Y-445675581D01*
X222317351Y-445505843D01*
X222599615Y-445388926D01*
X222749440Y-445359124D01*
X222899264Y-445329322D01*
X223204786Y-445329322D01*
X223354610Y-445359124D01*
X223354610Y-445359124D01*
G37*
G36*
X206812129Y-446069908D02*
G01*
X206980651Y-446139712D01*
X207132316Y-446241051D01*
X207261297Y-446370032D01*
X207362636Y-446521697D01*
X207432440Y-446690219D01*
X207468025Y-446869120D01*
X207468025Y-447051526D01*
X207432440Y-447230427D01*
X207362636Y-447398949D01*
X207261297Y-447550614D01*
X207132316Y-447679595D01*
X206980651Y-447780934D01*
X206812129Y-447850738D01*
X206633228Y-447886323D01*
X206450822Y-447886323D01*
X206271921Y-447850738D01*
X206103399Y-447780934D01*
X205951734Y-447679595D01*
X205822753Y-447550614D01*
X205721414Y-447398949D01*
X205651610Y-447230427D01*
X205616025Y-447051526D01*
X205616025Y-446869120D01*
X205651610Y-446690219D01*
X205721414Y-446521697D01*
X205822753Y-446370032D01*
X205951734Y-446241051D01*
X206103399Y-446139712D01*
X206271921Y-446069908D01*
X206450822Y-446034323D01*
X206633228Y-446034323D01*
X206812129Y-446069908D01*
X206812129Y-446069908D01*
G37*
G36*
X196652129Y-446069908D02*
G01*
X196820651Y-446139712D01*
X196972316Y-446241051D01*
X197101297Y-446370032D01*
X197202636Y-446521697D01*
X197272440Y-446690219D01*
X197308025Y-446869120D01*
X197308025Y-447051526D01*
X197272440Y-447230427D01*
X197202636Y-447398949D01*
X197101297Y-447550614D01*
X196972316Y-447679595D01*
X196820651Y-447780934D01*
X196652129Y-447850738D01*
X196473228Y-447886323D01*
X196290822Y-447886323D01*
X196111921Y-447850738D01*
X195943399Y-447780934D01*
X195791734Y-447679595D01*
X195662753Y-447550614D01*
X195561414Y-447398949D01*
X195491610Y-447230427D01*
X195456025Y-447051526D01*
X195456025Y-446869120D01*
X195491610Y-446690219D01*
X195561414Y-446521697D01*
X195662753Y-446370032D01*
X195791734Y-446241051D01*
X195943399Y-446139712D01*
X196111921Y-446069908D01*
X196290822Y-446034323D01*
X196473228Y-446034323D01*
X196652129Y-446069908D01*
X196652129Y-446069908D01*
G37*
G36*
X197954610Y-442899125D02*
G01*
X198104435Y-442928927D01*
X198386699Y-443045844D01*
X198640730Y-443215582D01*
X198856766Y-443431618D01*
X199026504Y-443685649D01*
X199143421Y-443967913D01*
X199203025Y-444267563D01*
X199203025Y-444573083D01*
X199143421Y-444872733D01*
X199026504Y-445154997D01*
X198856766Y-445409028D01*
X198640730Y-445625064D01*
X198386699Y-445794802D01*
X198104435Y-445911719D01*
X197954610Y-445941521D01*
X197804786Y-445971323D01*
X197499264Y-445971323D01*
X197349440Y-445941521D01*
X197199615Y-445911719D01*
X196917351Y-445794802D01*
X196663320Y-445625064D01*
X196447284Y-445409028D01*
X196277546Y-445154997D01*
X196160629Y-444872733D01*
X196101025Y-444573083D01*
X196101025Y-444267563D01*
X196160629Y-443967913D01*
X196277546Y-443685649D01*
X196447284Y-443431618D01*
X196663320Y-443215582D01*
X196917351Y-443045844D01*
X197199615Y-442928927D01*
X197349440Y-442899125D01*
X197499264Y-442869323D01*
X197804786Y-442869323D01*
X197954610Y-442899125D01*
X197954610Y-442899125D01*
G37*
G36*
X204304610Y-440359125D02*
G01*
X204454435Y-440388927D01*
X204736699Y-440505844D01*
X204990730Y-440675582D01*
X205206766Y-440891618D01*
X205376504Y-441145649D01*
X205493421Y-441427913D01*
X205553025Y-441727563D01*
X205553025Y-442033083D01*
X205493421Y-442332733D01*
X205376504Y-442614997D01*
X205206766Y-442869028D01*
X204990730Y-443085064D01*
X204736699Y-443254802D01*
X204454435Y-443371719D01*
X204304610Y-443401521D01*
X204154786Y-443431323D01*
X203849264Y-443431323D01*
X203699440Y-443401521D01*
X203549615Y-443371719D01*
X203267351Y-443254802D01*
X203013320Y-443085064D01*
X202797284Y-442869028D01*
X202627546Y-442614997D01*
X202510629Y-442332733D01*
X202451025Y-442033083D01*
X202451025Y-441727563D01*
X202510629Y-441427913D01*
X202627546Y-441145649D01*
X202797284Y-440891618D01*
X203013320Y-440675582D01*
X203267351Y-440505844D01*
X203549615Y-440388927D01*
X203699440Y-440359125D01*
X203849264Y-440329323D01*
X204154786Y-440329323D01*
X204304610Y-440359125D01*
X204304610Y-440359125D01*
G37*
G36*
X161124610Y-439019124D02*
G01*
X161274435Y-439048926D01*
X161556699Y-439165843D01*
X161810730Y-439335581D01*
X162026766Y-439551617D01*
X162196504Y-439805648D01*
X162313421Y-440087912D01*
X162373025Y-440387562D01*
X162373025Y-440693082D01*
X162313421Y-440992732D01*
X162196504Y-441274996D01*
X162026766Y-441529027D01*
X161810730Y-441745063D01*
X161556699Y-441914801D01*
X161274435Y-442031718D01*
X161124610Y-442061520D01*
X160974786Y-442091322D01*
X160669264Y-442091322D01*
X160519440Y-442061520D01*
X160369615Y-442031718D01*
X160087351Y-441914801D01*
X159833320Y-441745063D01*
X159617284Y-441529027D01*
X159447546Y-441274996D01*
X159330629Y-440992732D01*
X159271025Y-440693082D01*
X159271025Y-440387562D01*
X159330629Y-440087912D01*
X159447546Y-439805648D01*
X159617284Y-439551617D01*
X159833320Y-439335581D01*
X160087351Y-439165843D01*
X160369615Y-439048926D01*
X160519440Y-439019124D01*
X160669264Y-438989322D01*
X160974786Y-438989322D01*
X161124610Y-439019124D01*
X161124610Y-439019124D01*
G37*
G36*
X183008499Y-436494006D02*
G01*
X183226499Y-436584305D01*
X183380648Y-436648155D01*
X183715573Y-436871945D01*
X184000402Y-437156774D01*
X184224192Y-437491699D01*
X184256587Y-437569908D01*
X184378341Y-437863848D01*
X184456925Y-438258916D01*
X184456925Y-438661728D01*
X184378341Y-439056796D01*
X184327476Y-439179594D01*
X184224192Y-439428945D01*
X184000402Y-439763870D01*
X183715573Y-440048699D01*
X183380648Y-440272489D01*
X183243438Y-440329323D01*
X183008499Y-440426638D01*
X182613431Y-440505222D01*
X182210619Y-440505222D01*
X181815551Y-440426638D01*
X181580612Y-440329323D01*
X181443402Y-440272489D01*
X181108477Y-440048699D01*
X180823648Y-439763870D01*
X180599858Y-439428945D01*
X180496574Y-439179594D01*
X180445709Y-439056796D01*
X180367125Y-438661728D01*
X180367125Y-438258916D01*
X180445709Y-437863848D01*
X180567463Y-437569908D01*
X180599858Y-437491699D01*
X180823648Y-437156774D01*
X181108477Y-436871945D01*
X181443402Y-436648155D01*
X181597551Y-436584305D01*
X181815551Y-436494006D01*
X182210619Y-436415422D01*
X182613431Y-436415422D01*
X183008499Y-436494006D01*
X183008499Y-436494006D01*
G37*
G36*
X167474610Y-436479124D02*
G01*
X167624435Y-436508926D01*
X167906699Y-436625843D01*
X168160730Y-436795581D01*
X168376766Y-437011617D01*
X168546504Y-437265648D01*
X168663421Y-437547912D01*
X168663421Y-437547913D01*
X168701839Y-437741050D01*
X168723025Y-437847562D01*
X168723025Y-438153082D01*
X168663421Y-438452732D01*
X168546504Y-438734996D01*
X168376766Y-438989027D01*
X168160730Y-439205063D01*
X167906699Y-439374801D01*
X167624435Y-439491718D01*
X167474610Y-439521520D01*
X167324786Y-439551322D01*
X167019264Y-439551322D01*
X166869440Y-439521520D01*
X166719615Y-439491718D01*
X166437351Y-439374801D01*
X166183320Y-439205063D01*
X165967284Y-438989027D01*
X165797546Y-438734996D01*
X165680629Y-438452732D01*
X165621025Y-438153082D01*
X165621025Y-437847562D01*
X165642212Y-437741050D01*
X165680629Y-437547913D01*
X165680629Y-437547912D01*
X165797546Y-437265648D01*
X165967284Y-437011617D01*
X166183320Y-436795581D01*
X166437351Y-436625843D01*
X166719615Y-436508926D01*
X166869440Y-436479124D01*
X167019264Y-436449322D01*
X167324786Y-436449322D01*
X167474610Y-436479124D01*
X167474610Y-436479124D01*
G37*
G36*
X177602129Y-437569907D02*
G01*
X177770651Y-437639711D01*
X177922316Y-437741050D01*
X178051297Y-437870031D01*
X178152636Y-438021696D01*
X178222440Y-438190218D01*
X178258025Y-438369119D01*
X178258025Y-438551525D01*
X178222440Y-438730426D01*
X178152636Y-438898948D01*
X178051297Y-439050613D01*
X177922316Y-439179594D01*
X177770651Y-439280933D01*
X177602129Y-439350737D01*
X177423228Y-439386322D01*
X177240822Y-439386322D01*
X177061921Y-439350737D01*
X176893399Y-439280933D01*
X176741734Y-439179594D01*
X176612753Y-439050613D01*
X176511414Y-438898948D01*
X176441610Y-438730426D01*
X176406025Y-438551525D01*
X176406025Y-438369119D01*
X176441610Y-438190218D01*
X176511414Y-438021696D01*
X176612753Y-437870031D01*
X176741734Y-437741050D01*
X176893399Y-437639711D01*
X177061921Y-437569907D01*
X177240822Y-437534322D01*
X177423228Y-437534322D01*
X177602129Y-437569907D01*
X177602129Y-437569907D01*
G37*
G36*
X187762129Y-437569907D02*
G01*
X187930651Y-437639711D01*
X188082316Y-437741050D01*
X188211297Y-437870031D01*
X188312636Y-438021696D01*
X188382440Y-438190218D01*
X188418025Y-438369119D01*
X188418025Y-438551525D01*
X188382440Y-438730426D01*
X188312636Y-438898948D01*
X188211297Y-439050613D01*
X188082316Y-439179594D01*
X187930651Y-439280933D01*
X187762129Y-439350737D01*
X187583228Y-439386322D01*
X187400822Y-439386322D01*
X187221921Y-439350737D01*
X187053399Y-439280933D01*
X186901734Y-439179594D01*
X186772753Y-439050613D01*
X186671414Y-438898948D01*
X186601610Y-438730426D01*
X186566025Y-438551525D01*
X186566025Y-438369119D01*
X186601610Y-438190218D01*
X186671414Y-438021696D01*
X186772753Y-437870031D01*
X186901734Y-437741050D01*
X187053399Y-437639711D01*
X187221921Y-437569907D01*
X187400822Y-437534322D01*
X187583228Y-437534322D01*
X187762129Y-437569907D01*
X187762129Y-437569907D01*
G37*
G36*
X163958499Y-433494006D02*
G01*
X164176499Y-433584305D01*
X164330648Y-433648155D01*
X164665573Y-433871945D01*
X164950402Y-434156774D01*
X165174192Y-434491699D01*
X165206587Y-434569908D01*
X165328341Y-434863848D01*
X165406925Y-435258916D01*
X165406925Y-435661728D01*
X165328341Y-436056796D01*
X165277476Y-436179594D01*
X165174192Y-436428945D01*
X164950402Y-436763870D01*
X164665573Y-437048699D01*
X164330648Y-437272489D01*
X164176499Y-437336339D01*
X163958499Y-437426638D01*
X163563431Y-437505222D01*
X163160619Y-437505222D01*
X162765551Y-437426638D01*
X162547551Y-437336339D01*
X162393402Y-437272489D01*
X162058477Y-437048699D01*
X161773648Y-436763870D01*
X161549858Y-436428945D01*
X161446574Y-436179594D01*
X161395709Y-436056796D01*
X161317125Y-435661728D01*
X161317125Y-435258916D01*
X161395709Y-434863848D01*
X161517463Y-434569908D01*
X161549858Y-434491699D01*
X161773648Y-434156774D01*
X162058477Y-433871945D01*
X162393402Y-433648155D01*
X162547551Y-433584305D01*
X162765551Y-433494006D01*
X163160619Y-433415422D01*
X163563431Y-433415422D01*
X163958499Y-433494006D01*
X163958499Y-433494006D01*
G37*
G36*
X178904610Y-434399124D02*
G01*
X179054435Y-434428926D01*
X179336699Y-434545843D01*
X179590730Y-434715581D01*
X179806766Y-434931617D01*
X179976504Y-435185648D01*
X180093421Y-435467912D01*
X180093421Y-435467913D01*
X180153025Y-435767561D01*
X180153025Y-436073083D01*
X180123223Y-436222907D01*
X180093421Y-436372732D01*
X179976504Y-436654996D01*
X179806766Y-436909027D01*
X179590730Y-437125063D01*
X179336699Y-437294801D01*
X179054435Y-437411718D01*
X178904610Y-437441520D01*
X178754786Y-437471322D01*
X178449264Y-437471322D01*
X178299440Y-437441520D01*
X178149615Y-437411718D01*
X177867351Y-437294801D01*
X177613320Y-437125063D01*
X177397284Y-436909027D01*
X177227546Y-436654996D01*
X177110629Y-436372732D01*
X177080827Y-436222907D01*
X177051025Y-436073083D01*
X177051025Y-435767561D01*
X177110629Y-435467913D01*
X177110629Y-435467912D01*
X177227546Y-435185648D01*
X177397284Y-434931617D01*
X177613320Y-434715581D01*
X177867351Y-434545843D01*
X178149615Y-434428926D01*
X178299440Y-434399124D01*
X178449264Y-434369322D01*
X178754786Y-434369322D01*
X178904610Y-434399124D01*
X178904610Y-434399124D01*
G37*
G36*
X158552129Y-434569907D02*
G01*
X158720651Y-434639711D01*
X158872316Y-434741050D01*
X159001297Y-434870031D01*
X159102636Y-435021696D01*
X159172440Y-435190218D01*
X159208025Y-435369119D01*
X159208025Y-435551525D01*
X159172440Y-435730426D01*
X159102636Y-435898948D01*
X159001297Y-436050613D01*
X158872316Y-436179594D01*
X158720651Y-436280933D01*
X158552129Y-436350737D01*
X158373228Y-436386322D01*
X158190822Y-436386322D01*
X158011921Y-436350737D01*
X157843399Y-436280933D01*
X157691734Y-436179594D01*
X157562753Y-436050613D01*
X157461414Y-435898948D01*
X157391610Y-435730426D01*
X157356025Y-435551525D01*
X157356025Y-435369119D01*
X157391610Y-435190218D01*
X157461414Y-435021696D01*
X157562753Y-434870031D01*
X157691734Y-434741050D01*
X157843399Y-434639711D01*
X158011921Y-434569907D01*
X158190822Y-434534322D01*
X158373228Y-434534322D01*
X158552129Y-434569907D01*
X158552129Y-434569907D01*
G37*
G36*
X168712129Y-434569907D02*
G01*
X168880651Y-434639711D01*
X169032316Y-434741050D01*
X169161297Y-434870031D01*
X169262636Y-435021696D01*
X169332440Y-435190218D01*
X169368025Y-435369119D01*
X169368025Y-435551525D01*
X169332440Y-435730426D01*
X169262636Y-435898948D01*
X169161297Y-436050613D01*
X169032316Y-436179594D01*
X168880651Y-436280933D01*
X168712129Y-436350737D01*
X168533228Y-436386322D01*
X168350822Y-436386322D01*
X168171921Y-436350737D01*
X168003399Y-436280933D01*
X167851734Y-436179594D01*
X167722753Y-436050613D01*
X167621414Y-435898948D01*
X167551610Y-435730426D01*
X167516025Y-435551525D01*
X167516025Y-435369119D01*
X167551610Y-435190218D01*
X167621414Y-435021696D01*
X167722753Y-434870031D01*
X167851734Y-434741050D01*
X168003399Y-434639711D01*
X168171921Y-434569907D01*
X168350822Y-434534322D01*
X168533228Y-434534322D01*
X168712129Y-434569907D01*
X168712129Y-434569907D01*
G37*
G36*
X185254610Y-431859124D02*
G01*
X185404435Y-431888926D01*
X185686699Y-432005843D01*
X185940730Y-432175581D01*
X186156766Y-432391617D01*
X186326504Y-432645648D01*
X186443421Y-432927912D01*
X186503025Y-433227562D01*
X186503025Y-433533082D01*
X186443421Y-433832732D01*
X186326504Y-434114996D01*
X186156766Y-434369027D01*
X185940730Y-434585063D01*
X185686699Y-434754801D01*
X185404435Y-434871718D01*
X185254610Y-434901520D01*
X185104786Y-434931322D01*
X184799264Y-434931322D01*
X184649440Y-434901520D01*
X184499615Y-434871718D01*
X184217351Y-434754801D01*
X183963320Y-434585063D01*
X183747284Y-434369027D01*
X183577546Y-434114996D01*
X183460629Y-433832732D01*
X183401025Y-433533082D01*
X183401025Y-433227562D01*
X183460629Y-432927912D01*
X183577546Y-432645648D01*
X183747284Y-432391617D01*
X183963320Y-432175581D01*
X184217351Y-432005843D01*
X184499615Y-431888926D01*
X184649440Y-431859124D01*
X184799264Y-431829322D01*
X185104786Y-431829322D01*
X185254610Y-431859124D01*
X185254610Y-431859124D01*
G37*
G36*
X156313019Y-430631280D02*
G01*
X154511019Y-430631280D01*
X154511019Y-428829280D01*
X156313019Y-428829280D01*
X156313019Y-430631280D01*
X156313019Y-430631280D01*
G37*
G36*
X186957722Y-429858847D02*
G01*
X185155722Y-429858847D01*
X185155722Y-428056847D01*
X186957722Y-428056847D01*
X186957722Y-429858847D01*
X186957722Y-429858847D01*
G37*
G36*
X178547164Y-428063365D02*
G01*
X178613349Y-428069884D01*
X178783188Y-428121404D01*
X178939713Y-428205069D01*
X178975451Y-428234399D01*
X179076908Y-428317661D01*
X179160170Y-428419118D01*
X179189500Y-428454856D01*
X179273165Y-428611381D01*
X179324685Y-428781220D01*
X179342081Y-428957847D01*
X179324685Y-429134474D01*
X179273165Y-429304313D01*
X179189500Y-429460838D01*
X179160170Y-429496576D01*
X179076908Y-429598033D01*
X178975451Y-429681295D01*
X178939713Y-429710625D01*
X178783188Y-429794290D01*
X178613349Y-429845810D01*
X178547164Y-429852329D01*
X178480982Y-429858847D01*
X178392462Y-429858847D01*
X178326280Y-429852329D01*
X178260095Y-429845810D01*
X178090256Y-429794290D01*
X177933731Y-429710625D01*
X177897993Y-429681295D01*
X177796536Y-429598033D01*
X177713274Y-429496576D01*
X177683944Y-429460838D01*
X177600279Y-429304313D01*
X177548759Y-429134474D01*
X177531363Y-428957847D01*
X177548759Y-428781220D01*
X177600279Y-428611381D01*
X177683944Y-428454856D01*
X177713274Y-428419118D01*
X177796536Y-428317661D01*
X177897993Y-428234399D01*
X177933731Y-428205069D01*
X178090256Y-428121404D01*
X178260095Y-428069884D01*
X178326280Y-428063365D01*
X178392462Y-428056847D01*
X178480982Y-428056847D01*
X178547164Y-428063365D01*
X178547164Y-428063365D01*
G37*
G36*
X181087164Y-428063365D02*
G01*
X181153349Y-428069884D01*
X181323188Y-428121404D01*
X181479713Y-428205069D01*
X181515451Y-428234399D01*
X181616908Y-428317661D01*
X181700170Y-428419118D01*
X181729500Y-428454856D01*
X181813165Y-428611381D01*
X181864685Y-428781220D01*
X181882081Y-428957847D01*
X181864685Y-429134474D01*
X181813165Y-429304313D01*
X181729500Y-429460838D01*
X181700170Y-429496576D01*
X181616908Y-429598033D01*
X181515451Y-429681295D01*
X181479713Y-429710625D01*
X181323188Y-429794290D01*
X181153349Y-429845810D01*
X181087164Y-429852329D01*
X181020982Y-429858847D01*
X180932462Y-429858847D01*
X180866280Y-429852329D01*
X180800095Y-429845810D01*
X180630256Y-429794290D01*
X180473731Y-429710625D01*
X180437993Y-429681295D01*
X180336536Y-429598033D01*
X180253274Y-429496576D01*
X180223944Y-429460838D01*
X180140279Y-429304313D01*
X180088759Y-429134474D01*
X180071363Y-428957847D01*
X180088759Y-428781220D01*
X180140279Y-428611381D01*
X180223944Y-428454856D01*
X180253274Y-428419118D01*
X180336536Y-428317661D01*
X180437993Y-428234399D01*
X180473731Y-428205069D01*
X180630256Y-428121404D01*
X180800095Y-428069884D01*
X180866280Y-428063365D01*
X180932462Y-428056847D01*
X181020982Y-428056847D01*
X181087164Y-428063365D01*
X181087164Y-428063365D01*
G37*
G36*
X183627164Y-428063365D02*
G01*
X183693349Y-428069884D01*
X183863188Y-428121404D01*
X184019713Y-428205069D01*
X184055451Y-428234399D01*
X184156908Y-428317661D01*
X184240170Y-428419118D01*
X184269500Y-428454856D01*
X184353165Y-428611381D01*
X184404685Y-428781220D01*
X184422081Y-428957847D01*
X184404685Y-429134474D01*
X184353165Y-429304313D01*
X184269500Y-429460838D01*
X184240170Y-429496576D01*
X184156908Y-429598033D01*
X184055451Y-429681295D01*
X184019713Y-429710625D01*
X183863188Y-429794290D01*
X183693349Y-429845810D01*
X183627164Y-429852329D01*
X183560982Y-429858847D01*
X183472462Y-429858847D01*
X183406280Y-429852329D01*
X183340095Y-429845810D01*
X183170256Y-429794290D01*
X183013731Y-429710625D01*
X182977993Y-429681295D01*
X182876536Y-429598033D01*
X182793274Y-429496576D01*
X182763944Y-429460838D01*
X182680279Y-429304313D01*
X182628759Y-429134474D01*
X182611363Y-428957847D01*
X182628759Y-428781220D01*
X182680279Y-428611381D01*
X182763944Y-428454856D01*
X182793274Y-428419118D01*
X182876536Y-428317661D01*
X182977993Y-428234399D01*
X183013731Y-428205069D01*
X183170256Y-428121404D01*
X183340095Y-428069884D01*
X183406280Y-428063365D01*
X183472462Y-428056847D01*
X183560982Y-428056847D01*
X183627164Y-428063365D01*
X183627164Y-428063365D01*
G37*
G36*
X155522461Y-426295798D02*
G01*
X155588646Y-426302317D01*
X155758485Y-426353837D01*
X155915010Y-426437502D01*
X155950748Y-426466832D01*
X156052205Y-426550094D01*
X156135467Y-426651551D01*
X156164797Y-426687289D01*
X156248462Y-426843814D01*
X156299982Y-427013653D01*
X156317378Y-427190280D01*
X156299982Y-427366907D01*
X156248462Y-427536746D01*
X156164797Y-427693271D01*
X156135467Y-427729009D01*
X156052205Y-427830466D01*
X155950748Y-427913728D01*
X155915010Y-427943058D01*
X155758485Y-428026723D01*
X155588646Y-428078243D01*
X155522462Y-428084761D01*
X155456279Y-428091280D01*
X155367759Y-428091280D01*
X155301576Y-428084761D01*
X155235392Y-428078243D01*
X155065553Y-428026723D01*
X154909028Y-427943058D01*
X154873290Y-427913728D01*
X154771833Y-427830466D01*
X154688571Y-427729009D01*
X154659241Y-427693271D01*
X154575576Y-427536746D01*
X154524056Y-427366907D01*
X154506660Y-427190280D01*
X154524056Y-427013653D01*
X154575576Y-426843814D01*
X154659241Y-426687289D01*
X154688571Y-426651551D01*
X154771833Y-426550094D01*
X154873290Y-426466832D01*
X154909028Y-426437502D01*
X155065553Y-426353837D01*
X155235392Y-426302317D01*
X155301577Y-426295798D01*
X155367759Y-426289280D01*
X155456279Y-426289280D01*
X155522461Y-426295798D01*
X155522461Y-426295798D01*
G37*
G36*
X155522462Y-423755799D02*
G01*
X155588646Y-423762317D01*
X155758485Y-423813837D01*
X155915010Y-423897502D01*
X155950748Y-423926832D01*
X156052205Y-424010094D01*
X156135467Y-424111551D01*
X156164797Y-424147289D01*
X156248462Y-424303814D01*
X156299982Y-424473653D01*
X156317378Y-424650280D01*
X156299982Y-424826907D01*
X156248462Y-424996746D01*
X156164797Y-425153271D01*
X156135467Y-425189009D01*
X156052205Y-425290466D01*
X155950748Y-425373728D01*
X155915010Y-425403058D01*
X155758485Y-425486723D01*
X155588646Y-425538243D01*
X155522462Y-425544761D01*
X155456279Y-425551280D01*
X155367759Y-425551280D01*
X155301576Y-425544761D01*
X155235392Y-425538243D01*
X155065553Y-425486723D01*
X154909028Y-425403058D01*
X154873290Y-425373728D01*
X154771833Y-425290466D01*
X154688571Y-425189009D01*
X154659241Y-425153271D01*
X154575576Y-424996746D01*
X154524056Y-424826907D01*
X154506660Y-424650280D01*
X154524056Y-424473653D01*
X154575576Y-424303814D01*
X154659241Y-424147289D01*
X154688571Y-424111551D01*
X154771833Y-424010094D01*
X154873290Y-423926832D01*
X154909028Y-423897502D01*
X155065553Y-423813837D01*
X155235392Y-423762317D01*
X155301576Y-423755799D01*
X155367759Y-423749280D01*
X155456279Y-423749280D01*
X155522462Y-423755799D01*
X155522462Y-423755799D01*
G37*
G36*
X155522462Y-421215799D02*
G01*
X155588646Y-421222317D01*
X155758485Y-421273837D01*
X155915010Y-421357502D01*
X155938326Y-421376637D01*
X156052205Y-421470094D01*
X156135467Y-421571551D01*
X156164797Y-421607289D01*
X156248462Y-421763814D01*
X156299982Y-421933653D01*
X156317378Y-422110280D01*
X156299982Y-422286907D01*
X156248462Y-422456746D01*
X156164797Y-422613271D01*
X156135467Y-422649009D01*
X156052205Y-422750466D01*
X155950748Y-422833728D01*
X155915010Y-422863058D01*
X155758485Y-422946723D01*
X155588646Y-422998243D01*
X155522462Y-423004761D01*
X155456279Y-423011280D01*
X155367759Y-423011280D01*
X155301576Y-423004761D01*
X155235392Y-422998243D01*
X155065553Y-422946723D01*
X154909028Y-422863058D01*
X154873290Y-422833728D01*
X154771833Y-422750466D01*
X154688571Y-422649009D01*
X154659241Y-422613271D01*
X154575576Y-422456746D01*
X154524056Y-422286907D01*
X154506660Y-422110280D01*
X154524056Y-421933653D01*
X154575576Y-421763814D01*
X154659241Y-421607289D01*
X154688571Y-421571551D01*
X154771833Y-421470094D01*
X154885712Y-421376637D01*
X154909028Y-421357502D01*
X155065553Y-421273837D01*
X155235392Y-421222317D01*
X155301576Y-421215799D01*
X155367759Y-421209280D01*
X155456279Y-421209280D01*
X155522462Y-421215799D01*
X155522462Y-421215799D01*
G37*
G36*
X183008499Y-417444006D02*
G01*
X183226499Y-417534305D01*
X183380648Y-417598155D01*
X183715573Y-417821945D01*
X184000402Y-418106774D01*
X184224192Y-418441699D01*
X184256587Y-418519908D01*
X184378341Y-418813848D01*
X184456925Y-419208916D01*
X184456925Y-419611728D01*
X184378341Y-420006796D01*
X184327476Y-420129594D01*
X184224192Y-420378945D01*
X184000402Y-420713870D01*
X183715573Y-420998699D01*
X183380648Y-421222489D01*
X183256682Y-421273837D01*
X183008499Y-421376638D01*
X182613431Y-421455222D01*
X182210619Y-421455222D01*
X181815551Y-421376638D01*
X181567368Y-421273837D01*
X181443402Y-421222489D01*
X181108477Y-420998699D01*
X180823648Y-420713870D01*
X180599858Y-420378945D01*
X180496574Y-420129594D01*
X180445709Y-420006796D01*
X180367125Y-419611728D01*
X180367125Y-419208916D01*
X180445709Y-418813848D01*
X180567463Y-418519908D01*
X180599858Y-418441699D01*
X180823648Y-418106774D01*
X181108477Y-417821945D01*
X181443402Y-417598155D01*
X181597551Y-417534305D01*
X181815551Y-417444006D01*
X182210619Y-417365422D01*
X182613431Y-417365422D01*
X183008499Y-417444006D01*
X183008499Y-417444006D01*
G37*
G36*
X187762129Y-418519907D02*
G01*
X187930651Y-418589711D01*
X188082316Y-418691050D01*
X188211297Y-418820031D01*
X188312636Y-418971696D01*
X188382440Y-419140218D01*
X188418025Y-419319119D01*
X188418025Y-419501525D01*
X188382440Y-419680426D01*
X188312636Y-419848948D01*
X188211297Y-420000613D01*
X188082316Y-420129594D01*
X187930651Y-420230933D01*
X187762129Y-420300737D01*
X187583228Y-420336322D01*
X187400822Y-420336322D01*
X187221921Y-420300737D01*
X187053399Y-420230933D01*
X186901734Y-420129594D01*
X186772753Y-420000613D01*
X186671414Y-419848948D01*
X186601610Y-419680426D01*
X186566025Y-419501525D01*
X186566025Y-419319119D01*
X186601610Y-419140218D01*
X186671414Y-418971696D01*
X186772753Y-418820031D01*
X186901734Y-418691050D01*
X187053399Y-418589711D01*
X187221921Y-418519907D01*
X187400822Y-418484322D01*
X187583228Y-418484322D01*
X187762129Y-418519907D01*
X187762129Y-418519907D01*
G37*
G36*
X177602129Y-418519907D02*
G01*
X177770651Y-418589711D01*
X177922316Y-418691050D01*
X178051297Y-418820031D01*
X178152636Y-418971696D01*
X178222440Y-419140218D01*
X178258025Y-419319119D01*
X178258025Y-419501525D01*
X178222440Y-419680426D01*
X178152636Y-419848948D01*
X178051297Y-420000613D01*
X177922316Y-420129594D01*
X177770651Y-420230933D01*
X177602129Y-420300737D01*
X177423228Y-420336322D01*
X177240822Y-420336322D01*
X177061921Y-420300737D01*
X176893399Y-420230933D01*
X176741734Y-420129594D01*
X176612753Y-420000613D01*
X176511414Y-419848948D01*
X176441610Y-419680426D01*
X176406025Y-419501525D01*
X176406025Y-419319119D01*
X176441610Y-419140218D01*
X176511414Y-418971696D01*
X176612753Y-418820031D01*
X176741734Y-418691050D01*
X176893399Y-418589711D01*
X177061921Y-418519907D01*
X177240822Y-418484322D01*
X177423228Y-418484322D01*
X177602129Y-418519907D01*
X177602129Y-418519907D01*
G37*
G36*
X163958499Y-414444007D02*
G01*
X164176499Y-414534306D01*
X164330648Y-414598156D01*
X164665573Y-414821946D01*
X164950402Y-415106775D01*
X165174192Y-415441700D01*
X165212864Y-415535063D01*
X165328341Y-415813849D01*
X165406925Y-416208917D01*
X165406925Y-416611729D01*
X165328341Y-417006797D01*
X165277476Y-417129595D01*
X165174192Y-417378946D01*
X164950402Y-417713871D01*
X164665573Y-417998700D01*
X164330648Y-418222490D01*
X164276784Y-418244801D01*
X163958499Y-418376639D01*
X163563431Y-418455223D01*
X163160619Y-418455223D01*
X162765551Y-418376639D01*
X162447266Y-418244801D01*
X162393402Y-418222490D01*
X162058477Y-417998700D01*
X161773648Y-417713871D01*
X161549858Y-417378946D01*
X161446574Y-417129595D01*
X161395709Y-417006797D01*
X161317125Y-416611729D01*
X161317125Y-416208917D01*
X161395709Y-415813849D01*
X161511186Y-415535063D01*
X161549858Y-415441700D01*
X161773648Y-415106775D01*
X162058477Y-414821946D01*
X162393402Y-414598156D01*
X162547551Y-414534306D01*
X162765551Y-414444007D01*
X163160619Y-414365423D01*
X163563431Y-414365423D01*
X163958499Y-414444007D01*
X163958499Y-414444007D01*
G37*
G36*
X178904610Y-415349124D02*
G01*
X179054435Y-415378926D01*
X179336699Y-415495843D01*
X179590730Y-415665581D01*
X179806766Y-415881617D01*
X179976504Y-416135648D01*
X180006853Y-416208918D01*
X180093421Y-416417913D01*
X180153025Y-416717561D01*
X180153025Y-417023083D01*
X180131838Y-417129595D01*
X180093421Y-417322732D01*
X179976504Y-417604996D01*
X179806766Y-417859027D01*
X179590730Y-418075063D01*
X179336699Y-418244801D01*
X179054435Y-418361718D01*
X178904610Y-418391520D01*
X178754786Y-418421322D01*
X178449264Y-418421322D01*
X178299440Y-418391520D01*
X178149615Y-418361718D01*
X177867351Y-418244801D01*
X177613320Y-418075063D01*
X177397284Y-417859027D01*
X177227546Y-417604996D01*
X177110629Y-417322732D01*
X177072212Y-417129595D01*
X177051025Y-417023083D01*
X177051025Y-416717561D01*
X177110629Y-416417913D01*
X177197197Y-416208918D01*
X177227546Y-416135648D01*
X177397284Y-415881617D01*
X177613320Y-415665581D01*
X177867351Y-415495843D01*
X178149615Y-415378926D01*
X178299440Y-415349124D01*
X178449264Y-415319322D01*
X178754786Y-415319322D01*
X178904610Y-415349124D01*
X178904610Y-415349124D01*
G37*
G36*
X158552129Y-415519908D02*
G01*
X158720651Y-415589712D01*
X158872316Y-415691051D01*
X159001297Y-415820032D01*
X159102636Y-415971697D01*
X159172440Y-416140219D01*
X159208025Y-416319120D01*
X159208025Y-416501526D01*
X159172440Y-416680427D01*
X159102636Y-416848949D01*
X159001297Y-417000614D01*
X158872316Y-417129595D01*
X158720651Y-417230934D01*
X158552129Y-417300738D01*
X158373228Y-417336323D01*
X158190822Y-417336323D01*
X158011921Y-417300738D01*
X157843399Y-417230934D01*
X157691734Y-417129595D01*
X157562753Y-417000614D01*
X157461414Y-416848949D01*
X157391610Y-416680427D01*
X157356025Y-416501526D01*
X157356025Y-416319120D01*
X157391610Y-416140219D01*
X157461414Y-415971697D01*
X157562753Y-415820032D01*
X157691734Y-415691051D01*
X157843399Y-415589712D01*
X158011921Y-415519908D01*
X158190822Y-415484323D01*
X158373228Y-415484323D01*
X158552129Y-415519908D01*
X158552129Y-415519908D01*
G37*
G36*
X168712129Y-415519908D02*
G01*
X168880651Y-415589712D01*
X169032316Y-415691051D01*
X169161297Y-415820032D01*
X169262636Y-415971697D01*
X169332440Y-416140219D01*
X169368025Y-416319120D01*
X169368025Y-416501526D01*
X169332440Y-416680427D01*
X169262636Y-416848949D01*
X169161297Y-417000614D01*
X169032316Y-417129595D01*
X168880651Y-417230934D01*
X168712129Y-417300738D01*
X168533228Y-417336323D01*
X168350822Y-417336323D01*
X168171921Y-417300738D01*
X168003399Y-417230934D01*
X167851734Y-417129595D01*
X167722753Y-417000614D01*
X167621414Y-416848949D01*
X167551610Y-416680427D01*
X167516025Y-416501526D01*
X167516025Y-416319120D01*
X167551610Y-416140219D01*
X167621414Y-415971697D01*
X167722753Y-415820032D01*
X167851734Y-415691051D01*
X168003399Y-415589712D01*
X168171921Y-415519908D01*
X168350822Y-415484323D01*
X168533228Y-415484323D01*
X168712129Y-415519908D01*
X168712129Y-415519908D01*
G37*
G36*
X185254610Y-412809124D02*
G01*
X185404435Y-412838926D01*
X185686699Y-412955843D01*
X185940730Y-413125581D01*
X186156766Y-413341617D01*
X186326504Y-413595648D01*
X186443421Y-413877912D01*
X186503025Y-414177562D01*
X186503025Y-414483082D01*
X186443421Y-414782732D01*
X186326504Y-415064996D01*
X186156766Y-415319027D01*
X185940730Y-415535063D01*
X185686699Y-415704801D01*
X185404435Y-415821718D01*
X185254610Y-415851520D01*
X185104786Y-415881322D01*
X184799264Y-415881322D01*
X184649440Y-415851520D01*
X184499615Y-415821718D01*
X184217351Y-415704801D01*
X183963320Y-415535063D01*
X183747284Y-415319027D01*
X183577546Y-415064996D01*
X183460629Y-414782732D01*
X183401025Y-414483082D01*
X183401025Y-414177562D01*
X183460629Y-413877912D01*
X183577546Y-413595648D01*
X183747284Y-413341617D01*
X183963320Y-413125581D01*
X184217351Y-412955843D01*
X184499615Y-412838926D01*
X184649440Y-412809124D01*
X184799264Y-412779322D01*
X185104786Y-412779322D01*
X185254610Y-412809124D01*
X185254610Y-412809124D01*
G37*
G36*
X159854610Y-412349125D02*
G01*
X160004435Y-412378927D01*
X160286699Y-412495844D01*
X160540730Y-412665582D01*
X160756766Y-412881618D01*
X160926504Y-413135649D01*
X161043421Y-413417913D01*
X161103025Y-413717563D01*
X161103025Y-414023083D01*
X161043421Y-414322733D01*
X160926504Y-414604997D01*
X160756766Y-414859028D01*
X160540730Y-415075064D01*
X160286699Y-415244802D01*
X160004435Y-415361719D01*
X159917929Y-415378926D01*
X159704786Y-415421323D01*
X159399264Y-415421323D01*
X159186121Y-415378926D01*
X159099615Y-415361719D01*
X158817351Y-415244802D01*
X158563320Y-415075064D01*
X158347284Y-414859028D01*
X158177546Y-414604997D01*
X158060629Y-414322733D01*
X158001025Y-414023083D01*
X158001025Y-413717563D01*
X158060629Y-413417913D01*
X158177546Y-413135649D01*
X158347284Y-412881618D01*
X158563320Y-412665582D01*
X158817351Y-412495844D01*
X159099615Y-412378927D01*
X159249440Y-412349125D01*
X159399264Y-412319323D01*
X159704786Y-412319323D01*
X159854610Y-412349125D01*
X159854610Y-412349125D01*
G37*
G36*
X166204610Y-409809125D02*
G01*
X166354435Y-409838927D01*
X166636699Y-409955844D01*
X166890730Y-410125582D01*
X167106766Y-410341618D01*
X167276504Y-410595649D01*
X167393421Y-410877913D01*
X167453025Y-411177563D01*
X167453025Y-411483083D01*
X167393421Y-411782733D01*
X167276504Y-412064997D01*
X167106766Y-412319028D01*
X166890730Y-412535064D01*
X166636699Y-412704802D01*
X166354435Y-412821719D01*
X166267929Y-412838926D01*
X166054786Y-412881323D01*
X165749264Y-412881323D01*
X165536121Y-412838926D01*
X165449615Y-412821719D01*
X165167351Y-412704802D01*
X164913320Y-412535064D01*
X164697284Y-412319028D01*
X164527546Y-412064997D01*
X164410629Y-411782733D01*
X164351025Y-411483083D01*
X164351025Y-411177563D01*
X164410629Y-410877913D01*
X164527546Y-410595649D01*
X164697284Y-410341618D01*
X164913320Y-410125582D01*
X165167351Y-409955844D01*
X165449615Y-409838927D01*
X165599440Y-409809125D01*
X165749264Y-409779323D01*
X166054786Y-409779323D01*
X166204610Y-409809125D01*
X166204610Y-409809125D01*
G37*
G36*
X187260012Y-410743011D02*
G01*
X185458012Y-410743011D01*
X185458012Y-408941011D01*
X187260012Y-408941011D01*
X187260012Y-410743011D01*
X187260012Y-410743011D01*
G37*
G36*
X183929454Y-408947529D02*
G01*
X183995639Y-408954048D01*
X184165478Y-409005568D01*
X184322003Y-409089233D01*
X184357741Y-409118563D01*
X184459198Y-409201825D01*
X184542460Y-409303282D01*
X184571790Y-409339020D01*
X184655455Y-409495545D01*
X184706975Y-409665384D01*
X184724371Y-409842011D01*
X184706975Y-410018638D01*
X184655455Y-410188477D01*
X184571790Y-410345002D01*
X184542460Y-410380740D01*
X184459198Y-410482197D01*
X184357741Y-410565459D01*
X184322003Y-410594789D01*
X184165478Y-410678454D01*
X183995639Y-410729974D01*
X183929454Y-410736493D01*
X183863272Y-410743011D01*
X183774752Y-410743011D01*
X183708570Y-410736493D01*
X183642385Y-410729974D01*
X183472546Y-410678454D01*
X183316021Y-410594789D01*
X183280283Y-410565459D01*
X183178826Y-410482197D01*
X183095564Y-410380740D01*
X183066234Y-410345002D01*
X182982569Y-410188477D01*
X182931049Y-410018638D01*
X182913653Y-409842011D01*
X182931049Y-409665384D01*
X182982569Y-409495545D01*
X183066234Y-409339020D01*
X183095564Y-409303282D01*
X183178826Y-409201825D01*
X183280283Y-409118563D01*
X183316021Y-409089233D01*
X183472546Y-409005568D01*
X183642385Y-408954048D01*
X183708570Y-408947529D01*
X183774752Y-408941011D01*
X183863272Y-408941011D01*
X183929454Y-408947529D01*
X183929454Y-408947529D01*
G37*
G36*
X178849454Y-408947529D02*
G01*
X178915639Y-408954048D01*
X179085478Y-409005568D01*
X179242003Y-409089233D01*
X179277741Y-409118563D01*
X179379198Y-409201825D01*
X179462460Y-409303282D01*
X179491790Y-409339020D01*
X179575455Y-409495545D01*
X179626975Y-409665384D01*
X179644371Y-409842011D01*
X179626975Y-410018638D01*
X179575455Y-410188477D01*
X179491790Y-410345002D01*
X179462460Y-410380740D01*
X179379198Y-410482197D01*
X179277741Y-410565459D01*
X179242003Y-410594789D01*
X179085478Y-410678454D01*
X178915639Y-410729974D01*
X178849454Y-410736493D01*
X178783272Y-410743011D01*
X178694752Y-410743011D01*
X178628570Y-410736493D01*
X178562385Y-410729974D01*
X178392546Y-410678454D01*
X178236021Y-410594789D01*
X178200283Y-410565459D01*
X178098826Y-410482197D01*
X178015564Y-410380740D01*
X177986234Y-410345002D01*
X177902569Y-410188477D01*
X177851049Y-410018638D01*
X177833653Y-409842011D01*
X177851049Y-409665384D01*
X177902569Y-409495545D01*
X177986234Y-409339020D01*
X178015564Y-409303282D01*
X178098826Y-409201825D01*
X178200283Y-409118563D01*
X178236021Y-409089233D01*
X178392546Y-409005568D01*
X178562385Y-408954048D01*
X178628570Y-408947529D01*
X178694752Y-408941011D01*
X178783272Y-408941011D01*
X178849454Y-408947529D01*
X178849454Y-408947529D01*
G37*
G36*
X181389454Y-408947529D02*
G01*
X181455639Y-408954048D01*
X181625478Y-409005568D01*
X181782003Y-409089233D01*
X181817741Y-409118563D01*
X181919198Y-409201825D01*
X182002460Y-409303282D01*
X182031790Y-409339020D01*
X182115455Y-409495545D01*
X182166975Y-409665384D01*
X182184371Y-409842011D01*
X182166975Y-410018638D01*
X182115455Y-410188477D01*
X182031790Y-410345002D01*
X182002460Y-410380740D01*
X181919198Y-410482197D01*
X181817741Y-410565459D01*
X181782003Y-410594789D01*
X181625478Y-410678454D01*
X181455639Y-410729974D01*
X181389454Y-410736493D01*
X181323272Y-410743011D01*
X181234752Y-410743011D01*
X181168570Y-410736493D01*
X181102385Y-410729974D01*
X180932546Y-410678454D01*
X180776021Y-410594789D01*
X180740283Y-410565459D01*
X180638826Y-410482197D01*
X180555564Y-410380740D01*
X180526234Y-410345002D01*
X180442569Y-410188477D01*
X180391049Y-410018638D01*
X180373653Y-409842011D01*
X180391049Y-409665384D01*
X180442569Y-409495545D01*
X180526234Y-409339020D01*
X180555564Y-409303282D01*
X180638826Y-409201825D01*
X180740283Y-409118563D01*
X180776021Y-409089233D01*
X180932546Y-409005568D01*
X181102385Y-408954048D01*
X181168570Y-408947529D01*
X181234752Y-408941011D01*
X181323272Y-408941011D01*
X181389454Y-408947529D01*
X181389454Y-408947529D01*
G37*
G36*
X161124611Y-400919124D02*
G01*
X161274436Y-400948926D01*
X161556700Y-401065843D01*
X161810731Y-401235581D01*
X162026767Y-401451617D01*
X162196505Y-401705648D01*
X162313422Y-401987912D01*
X162373026Y-402287562D01*
X162373026Y-402593082D01*
X162313422Y-402892732D01*
X162196505Y-403174996D01*
X162026767Y-403429027D01*
X161810731Y-403645063D01*
X161556700Y-403814801D01*
X161274436Y-403931718D01*
X161124611Y-403961520D01*
X160974787Y-403991322D01*
X160669265Y-403991322D01*
X160519441Y-403961520D01*
X160369616Y-403931718D01*
X160087352Y-403814801D01*
X159833321Y-403645063D01*
X159617285Y-403429027D01*
X159447547Y-403174996D01*
X159330630Y-402892732D01*
X159271026Y-402593082D01*
X159271026Y-402287562D01*
X159330630Y-401987912D01*
X159447547Y-401705648D01*
X159617285Y-401451617D01*
X159833321Y-401235581D01*
X160087352Y-401065843D01*
X160369616Y-400948926D01*
X160519441Y-400919124D01*
X160669265Y-400889322D01*
X160974787Y-400889322D01*
X161124611Y-400919124D01*
X161124611Y-400919124D01*
G37*
G36*
X183008499Y-398394007D02*
G01*
X183226499Y-398484306D01*
X183380648Y-398548156D01*
X183715573Y-398771946D01*
X184000402Y-399056775D01*
X184224192Y-399391700D01*
X184256587Y-399469909D01*
X184378341Y-399763849D01*
X184456925Y-400158917D01*
X184456925Y-400561729D01*
X184378341Y-400956797D01*
X184316927Y-401105063D01*
X184224192Y-401328946D01*
X184000402Y-401663871D01*
X183715573Y-401948700D01*
X183380648Y-402172490D01*
X183226499Y-402236340D01*
X183008499Y-402326639D01*
X182613431Y-402405223D01*
X182210619Y-402405223D01*
X181815551Y-402326639D01*
X181597551Y-402236340D01*
X181443402Y-402172490D01*
X181108477Y-401948700D01*
X180823648Y-401663871D01*
X180599858Y-401328946D01*
X180507123Y-401105063D01*
X180445709Y-400956797D01*
X180367125Y-400561729D01*
X180367125Y-400158917D01*
X180445709Y-399763849D01*
X180567463Y-399469909D01*
X180599858Y-399391700D01*
X180823648Y-399056775D01*
X181108477Y-398771946D01*
X181443402Y-398548156D01*
X181597551Y-398484306D01*
X181815551Y-398394007D01*
X182210619Y-398315423D01*
X182613431Y-398315423D01*
X183008499Y-398394007D01*
X183008499Y-398394007D01*
G37*
G36*
X167474611Y-398379124D02*
G01*
X167624436Y-398408926D01*
X167906700Y-398525843D01*
X168160731Y-398695581D01*
X168376767Y-398911617D01*
X168546505Y-399165648D01*
X168663422Y-399447912D01*
X168723026Y-399747562D01*
X168723026Y-400053082D01*
X168663422Y-400352732D01*
X168546505Y-400634996D01*
X168376767Y-400889027D01*
X168160731Y-401105063D01*
X167906700Y-401274801D01*
X167624436Y-401391718D01*
X167474611Y-401421520D01*
X167324787Y-401451322D01*
X167019265Y-401451322D01*
X166869441Y-401421520D01*
X166719616Y-401391718D01*
X166437352Y-401274801D01*
X166183321Y-401105063D01*
X165967285Y-400889027D01*
X165797547Y-400634996D01*
X165680630Y-400352732D01*
X165621026Y-400053082D01*
X165621026Y-399747562D01*
X165680630Y-399447912D01*
X165797547Y-399165648D01*
X165967285Y-398911617D01*
X166183321Y-398695581D01*
X166437352Y-398525843D01*
X166719616Y-398408926D01*
X166869441Y-398379124D01*
X167019265Y-398349322D01*
X167324787Y-398349322D01*
X167474611Y-398379124D01*
X167474611Y-398379124D01*
G37*
G36*
X187762129Y-399469908D02*
G01*
X187930651Y-399539712D01*
X188082316Y-399641051D01*
X188211297Y-399770032D01*
X188312636Y-399921697D01*
X188382440Y-400090219D01*
X188418025Y-400269120D01*
X188418025Y-400451526D01*
X188382440Y-400630427D01*
X188312636Y-400798949D01*
X188211297Y-400950614D01*
X188082316Y-401079595D01*
X187930651Y-401180934D01*
X187762129Y-401250738D01*
X187583228Y-401286323D01*
X187400822Y-401286323D01*
X187221921Y-401250738D01*
X187053399Y-401180934D01*
X186901734Y-401079595D01*
X186772753Y-400950614D01*
X186671414Y-400798949D01*
X186601610Y-400630427D01*
X186566025Y-400451526D01*
X186566025Y-400269120D01*
X186601610Y-400090219D01*
X186671414Y-399921697D01*
X186772753Y-399770032D01*
X186901734Y-399641051D01*
X187053399Y-399539712D01*
X187221921Y-399469908D01*
X187400822Y-399434323D01*
X187583228Y-399434323D01*
X187762129Y-399469908D01*
X187762129Y-399469908D01*
G37*
G36*
X177602129Y-399469908D02*
G01*
X177770651Y-399539712D01*
X177922316Y-399641051D01*
X178051297Y-399770032D01*
X178152636Y-399921697D01*
X178222440Y-400090219D01*
X178258025Y-400269120D01*
X178258025Y-400451526D01*
X178222440Y-400630427D01*
X178152636Y-400798949D01*
X178051297Y-400950614D01*
X177922316Y-401079595D01*
X177770651Y-401180934D01*
X177602129Y-401250738D01*
X177423228Y-401286323D01*
X177240822Y-401286323D01*
X177061921Y-401250738D01*
X176893399Y-401180934D01*
X176741734Y-401079595D01*
X176612753Y-400950614D01*
X176511414Y-400798949D01*
X176441610Y-400630427D01*
X176406025Y-400451526D01*
X176406025Y-400269120D01*
X176441610Y-400090219D01*
X176511414Y-399921697D01*
X176612753Y-399770032D01*
X176741734Y-399641051D01*
X176893399Y-399539712D01*
X177061921Y-399469908D01*
X177240822Y-399434323D01*
X177423228Y-399434323D01*
X177602129Y-399469908D01*
X177602129Y-399469908D01*
G37*
G36*
X163958500Y-395394006D02*
G01*
X164052842Y-395433084D01*
X164330649Y-395548155D01*
X164665574Y-395771945D01*
X164950403Y-396056774D01*
X165174193Y-396391699D01*
X165206588Y-396469908D01*
X165328342Y-396763848D01*
X165406926Y-397158916D01*
X165406926Y-397561728D01*
X165328342Y-397956796D01*
X165277477Y-398079594D01*
X165174193Y-398328945D01*
X164950403Y-398663870D01*
X164665574Y-398948699D01*
X164330649Y-399172489D01*
X164276780Y-399194802D01*
X163958500Y-399326638D01*
X163563432Y-399405222D01*
X163160620Y-399405222D01*
X162765552Y-399326638D01*
X162447272Y-399194802D01*
X162393403Y-399172489D01*
X162058478Y-398948699D01*
X161773649Y-398663870D01*
X161549859Y-398328945D01*
X161446575Y-398079594D01*
X161395710Y-397956796D01*
X161317126Y-397561728D01*
X161317126Y-397158916D01*
X161395710Y-396763848D01*
X161517464Y-396469908D01*
X161549859Y-396391699D01*
X161773649Y-396056774D01*
X162058478Y-395771945D01*
X162393403Y-395548155D01*
X162671210Y-395433084D01*
X162765552Y-395394006D01*
X163160620Y-395315422D01*
X163563432Y-395315422D01*
X163958500Y-395394006D01*
X163958500Y-395394006D01*
G37*
G36*
X178904610Y-396299125D02*
G01*
X179054435Y-396328927D01*
X179336699Y-396445844D01*
X179590730Y-396615582D01*
X179806766Y-396831618D01*
X179976504Y-397085649D01*
X180093421Y-397367913D01*
X180153025Y-397667563D01*
X180153025Y-397973083D01*
X180093421Y-398272733D01*
X179976504Y-398554997D01*
X179806766Y-398809028D01*
X179590730Y-399025064D01*
X179336699Y-399194802D01*
X179054435Y-399311719D01*
X178979437Y-399326637D01*
X178754786Y-399371323D01*
X178449264Y-399371323D01*
X178224613Y-399326637D01*
X178149615Y-399311719D01*
X177867351Y-399194802D01*
X177613320Y-399025064D01*
X177397284Y-398809028D01*
X177227546Y-398554997D01*
X177110629Y-398272733D01*
X177051025Y-397973083D01*
X177051025Y-397667563D01*
X177110629Y-397367913D01*
X177227546Y-397085649D01*
X177397284Y-396831618D01*
X177613320Y-396615582D01*
X177867351Y-396445844D01*
X178149615Y-396328927D01*
X178299440Y-396299125D01*
X178449264Y-396269323D01*
X178754786Y-396269323D01*
X178904610Y-396299125D01*
X178904610Y-396299125D01*
G37*
G36*
X168712130Y-396469907D02*
G01*
X168880652Y-396539711D01*
X169032317Y-396641050D01*
X169161298Y-396770031D01*
X169262637Y-396921696D01*
X169332441Y-397090218D01*
X169368026Y-397269119D01*
X169368026Y-397451525D01*
X169332441Y-397630426D01*
X169262637Y-397798948D01*
X169161298Y-397950613D01*
X169032317Y-398079594D01*
X168880652Y-398180933D01*
X168712130Y-398250737D01*
X168533229Y-398286322D01*
X168350823Y-398286322D01*
X168171922Y-398250737D01*
X168003400Y-398180933D01*
X167851735Y-398079594D01*
X167722754Y-397950613D01*
X167621415Y-397798948D01*
X167551611Y-397630426D01*
X167516026Y-397451525D01*
X167516026Y-397269119D01*
X167551611Y-397090218D01*
X167621415Y-396921696D01*
X167722754Y-396770031D01*
X167851735Y-396641050D01*
X168003400Y-396539711D01*
X168171922Y-396469907D01*
X168350823Y-396434322D01*
X168533229Y-396434322D01*
X168712130Y-396469907D01*
X168712130Y-396469907D01*
G37*
G36*
X158552130Y-396469907D02*
G01*
X158720652Y-396539711D01*
X158872317Y-396641050D01*
X159001298Y-396770031D01*
X159102637Y-396921696D01*
X159172441Y-397090218D01*
X159208026Y-397269119D01*
X159208026Y-397451525D01*
X159172441Y-397630426D01*
X159102637Y-397798948D01*
X159001298Y-397950613D01*
X158872317Y-398079594D01*
X158720652Y-398180933D01*
X158552130Y-398250737D01*
X158373229Y-398286322D01*
X158190823Y-398286322D01*
X158011922Y-398250737D01*
X157843400Y-398180933D01*
X157691735Y-398079594D01*
X157562754Y-397950613D01*
X157461415Y-397798948D01*
X157391611Y-397630426D01*
X157356026Y-397451525D01*
X157356026Y-397269119D01*
X157391611Y-397090218D01*
X157461415Y-396921696D01*
X157562754Y-396770031D01*
X157691735Y-396641050D01*
X157843400Y-396539711D01*
X158011922Y-396469907D01*
X158190823Y-396434322D01*
X158373229Y-396434322D01*
X158552130Y-396469907D01*
X158552130Y-396469907D01*
G37*
G36*
X185254610Y-393759125D02*
G01*
X185404435Y-393788927D01*
X185686699Y-393905844D01*
X185940730Y-394075582D01*
X186156766Y-394291618D01*
X186326504Y-394545649D01*
X186443421Y-394827913D01*
X186503025Y-395127563D01*
X186503025Y-395433083D01*
X186443421Y-395732733D01*
X186326504Y-396014997D01*
X186156766Y-396269028D01*
X185940730Y-396485064D01*
X185686699Y-396654802D01*
X185404435Y-396771719D01*
X185254610Y-396801521D01*
X185104786Y-396831323D01*
X184799264Y-396831323D01*
X184649440Y-396801521D01*
X184499615Y-396771719D01*
X184217351Y-396654802D01*
X183963320Y-396485064D01*
X183747284Y-396269028D01*
X183577546Y-396014997D01*
X183460629Y-395732733D01*
X183401025Y-395433083D01*
X183401025Y-395127563D01*
X183460629Y-394827913D01*
X183577546Y-394545649D01*
X183747284Y-394291618D01*
X183963320Y-394075582D01*
X184217351Y-393905844D01*
X184499615Y-393788927D01*
X184649440Y-393759125D01*
X184799264Y-393729323D01*
X185104786Y-393729323D01*
X185254610Y-393759125D01*
X185254610Y-393759125D01*
G37*
G36*
X159841560Y-389939064D02*
G01*
X159993027Y-389969193D01*
X160207045Y-390057842D01*
X160207046Y-390057843D01*
X160399654Y-390186539D01*
X160563461Y-390350346D01*
X160649258Y-390478751D01*
X160692158Y-390542955D01*
X160780807Y-390756973D01*
X160826000Y-390984174D01*
X160826000Y-391215826D01*
X160780807Y-391443027D01*
X160692158Y-391657045D01*
X160665618Y-391696765D01*
X160563461Y-391849654D01*
X160399654Y-392013461D01*
X160271249Y-392099258D01*
X160207045Y-392142158D01*
X159993027Y-392230807D01*
X159841560Y-392260936D01*
X159765827Y-392276000D01*
X159534173Y-392276000D01*
X159458440Y-392260936D01*
X159306973Y-392230807D01*
X159092955Y-392142158D01*
X159028751Y-392099258D01*
X158900346Y-392013461D01*
X158736539Y-391849654D01*
X158634382Y-391696765D01*
X158607842Y-391657045D01*
X158519193Y-391443027D01*
X158474000Y-391215826D01*
X158474000Y-390984174D01*
X158519193Y-390756973D01*
X158607842Y-390542955D01*
X158650742Y-390478751D01*
X158736539Y-390350346D01*
X158900346Y-390186539D01*
X159092954Y-390057843D01*
X159092955Y-390057842D01*
X159306973Y-389969193D01*
X159458440Y-389939064D01*
X159534173Y-389924000D01*
X159765827Y-389924000D01*
X159841560Y-389939064D01*
X159841560Y-389939064D01*
G37*
G36*
X185942468Y-389965841D02*
G01*
X186008652Y-389972359D01*
X186178491Y-390023879D01*
X186335016Y-390107544D01*
X186370754Y-390136874D01*
X186472211Y-390220136D01*
X186555473Y-390321593D01*
X186584803Y-390357331D01*
X186668468Y-390513856D01*
X186719988Y-390683695D01*
X186737384Y-390860322D01*
X186719988Y-391036949D01*
X186668468Y-391206788D01*
X186584803Y-391363313D01*
X186555473Y-391399051D01*
X186472211Y-391500508D01*
X186370754Y-391583770D01*
X186335016Y-391613100D01*
X186178491Y-391696765D01*
X186008652Y-391748285D01*
X185942468Y-391754803D01*
X185876285Y-391761322D01*
X185787765Y-391761322D01*
X185721582Y-391754803D01*
X185655398Y-391748285D01*
X185485559Y-391696765D01*
X185329034Y-391613100D01*
X185293296Y-391583770D01*
X185191839Y-391500508D01*
X185108577Y-391399051D01*
X185079247Y-391363313D01*
X184995582Y-391206788D01*
X184944062Y-391036949D01*
X184926666Y-390860322D01*
X184944062Y-390683695D01*
X184995582Y-390513856D01*
X185079247Y-390357331D01*
X185108577Y-390321593D01*
X185191839Y-390220136D01*
X185293296Y-390136874D01*
X185329034Y-390107544D01*
X185485559Y-390023879D01*
X185655398Y-389972359D01*
X185721582Y-389965841D01*
X185787765Y-389959322D01*
X185876285Y-389959322D01*
X185942468Y-389965841D01*
X185942468Y-389965841D01*
G37*
G36*
X183402468Y-389965841D02*
G01*
X183468652Y-389972359D01*
X183638491Y-390023879D01*
X183795016Y-390107544D01*
X183830754Y-390136874D01*
X183932211Y-390220136D01*
X184015473Y-390321593D01*
X184044803Y-390357331D01*
X184128468Y-390513856D01*
X184179988Y-390683695D01*
X184197384Y-390860322D01*
X184179988Y-391036949D01*
X184128468Y-391206788D01*
X184044803Y-391363313D01*
X184015473Y-391399051D01*
X183932211Y-391500508D01*
X183830754Y-391583770D01*
X183795016Y-391613100D01*
X183638491Y-391696765D01*
X183468652Y-391748285D01*
X183402468Y-391754803D01*
X183336285Y-391761322D01*
X183247765Y-391761322D01*
X183181582Y-391754803D01*
X183115398Y-391748285D01*
X182945559Y-391696765D01*
X182789034Y-391613100D01*
X182753296Y-391583770D01*
X182651839Y-391500508D01*
X182568577Y-391399051D01*
X182539247Y-391363313D01*
X182455582Y-391206788D01*
X182404062Y-391036949D01*
X182386666Y-390860322D01*
X182404062Y-390683695D01*
X182455582Y-390513856D01*
X182539247Y-390357331D01*
X182568577Y-390321593D01*
X182651839Y-390220136D01*
X182753296Y-390136874D01*
X182789034Y-390107544D01*
X182945559Y-390023879D01*
X183115398Y-389972359D01*
X183181582Y-389965841D01*
X183247765Y-389959322D01*
X183336285Y-389959322D01*
X183402468Y-389965841D01*
X183402468Y-389965841D01*
G37*
G36*
X179113025Y-391761322D02*
G01*
X177311025Y-391761322D01*
X177311025Y-389959322D01*
X179113025Y-389959322D01*
X179113025Y-391761322D01*
X179113025Y-391761322D01*
G37*
G36*
X180862468Y-389965841D02*
G01*
X180928652Y-389972359D01*
X181098491Y-390023879D01*
X181255016Y-390107544D01*
X181290754Y-390136874D01*
X181392211Y-390220136D01*
X181475473Y-390321593D01*
X181504803Y-390357331D01*
X181588468Y-390513856D01*
X181639988Y-390683695D01*
X181657384Y-390860322D01*
X181639988Y-391036949D01*
X181588468Y-391206788D01*
X181504803Y-391363313D01*
X181475473Y-391399051D01*
X181392211Y-391500508D01*
X181290754Y-391583770D01*
X181255016Y-391613100D01*
X181098491Y-391696765D01*
X180928652Y-391748285D01*
X180862468Y-391754803D01*
X180796285Y-391761322D01*
X180707765Y-391761322D01*
X180641582Y-391754803D01*
X180575398Y-391748285D01*
X180405559Y-391696765D01*
X180249034Y-391613100D01*
X180213296Y-391583770D01*
X180111839Y-391500508D01*
X180028577Y-391399051D01*
X179999247Y-391363313D01*
X179915582Y-391206788D01*
X179864062Y-391036949D01*
X179846666Y-390860322D01*
X179864062Y-390683695D01*
X179915582Y-390513856D01*
X179999247Y-390357331D01*
X180028577Y-390321593D01*
X180111839Y-390220136D01*
X180213296Y-390136874D01*
X180249034Y-390107544D01*
X180405559Y-390023879D01*
X180575398Y-389972359D01*
X180641582Y-389965841D01*
X180707765Y-389959322D01*
X180796285Y-389959322D01*
X180862468Y-389965841D01*
X180862468Y-389965841D01*
G37*
G36*
X165981552Y-388141331D02*
G01*
X166063627Y-388175328D01*
X166063629Y-388175329D01*
X166100813Y-388200175D01*
X166137495Y-388224685D01*
X166200315Y-388287505D01*
X166249672Y-388361373D01*
X166283669Y-388443448D01*
X166301000Y-388530579D01*
X166301000Y-388619421D01*
X166283669Y-388706552D01*
X166249672Y-388788627D01*
X166249671Y-388788629D01*
X166200314Y-388862496D01*
X166137496Y-388925314D01*
X166063629Y-388974671D01*
X166063628Y-388974672D01*
X166063627Y-388974672D01*
X165981552Y-389008669D01*
X165894421Y-389026000D01*
X165805579Y-389026000D01*
X165718448Y-389008669D01*
X165636373Y-388974672D01*
X165636372Y-388974672D01*
X165636371Y-388974671D01*
X165562504Y-388925314D01*
X165499686Y-388862496D01*
X165450329Y-388788629D01*
X165450328Y-388788627D01*
X165416331Y-388706552D01*
X165399000Y-388619421D01*
X165399000Y-388530579D01*
X165416331Y-388443448D01*
X165450328Y-388361373D01*
X165499685Y-388287505D01*
X165562505Y-388224685D01*
X165599187Y-388200175D01*
X165636371Y-388175329D01*
X165636373Y-388175328D01*
X165718448Y-388141331D01*
X165805579Y-388124000D01*
X165894421Y-388124000D01*
X165981552Y-388141331D01*
X165981552Y-388141331D01*
G37*
G36*
X158981552Y-388141331D02*
G01*
X159063627Y-388175328D01*
X159063629Y-388175329D01*
X159100813Y-388200175D01*
X159137495Y-388224685D01*
X159200315Y-388287505D01*
X159249672Y-388361373D01*
X159283669Y-388443448D01*
X159301000Y-388530579D01*
X159301000Y-388619421D01*
X159283669Y-388706552D01*
X159249672Y-388788627D01*
X159249671Y-388788629D01*
X159200314Y-388862496D01*
X159137496Y-388925314D01*
X159063629Y-388974671D01*
X159063628Y-388974672D01*
X159063627Y-388974672D01*
X158981552Y-389008669D01*
X158894421Y-389026000D01*
X158805579Y-389026000D01*
X158718448Y-389008669D01*
X158636373Y-388974672D01*
X158636372Y-388974672D01*
X158636371Y-388974671D01*
X158562504Y-388925314D01*
X158499686Y-388862496D01*
X158450329Y-388788629D01*
X158450328Y-388788627D01*
X158416331Y-388706552D01*
X158399000Y-388619421D01*
X158399000Y-388530579D01*
X158416331Y-388443448D01*
X158450328Y-388361373D01*
X158499685Y-388287505D01*
X158562505Y-388224685D01*
X158599187Y-388200175D01*
X158636371Y-388175329D01*
X158636373Y-388175328D01*
X158718448Y-388141331D01*
X158805579Y-388124000D01*
X158894421Y-388124000D01*
X158981552Y-388141331D01*
X158981552Y-388141331D01*
G37*
G36*
X167352585Y-384653802D02*
G01*
X167502410Y-384683604D01*
X167784674Y-384800521D01*
X168038705Y-384970259D01*
X168254741Y-385186295D01*
X168424479Y-385440326D01*
X168541396Y-385722590D01*
X168601000Y-386022240D01*
X168601000Y-386327760D01*
X168541396Y-386627410D01*
X168424479Y-386909674D01*
X168254741Y-387163705D01*
X168038705Y-387379741D01*
X167784674Y-387549479D01*
X167502410Y-387666396D01*
X167352585Y-387696198D01*
X167202761Y-387726000D01*
X166897239Y-387726000D01*
X166747415Y-387696198D01*
X166597590Y-387666396D01*
X166315326Y-387549479D01*
X166061295Y-387379741D01*
X165845259Y-387163705D01*
X165675521Y-386909674D01*
X165558604Y-386627410D01*
X165499000Y-386327760D01*
X165499000Y-386022240D01*
X165558604Y-385722590D01*
X165675521Y-385440326D01*
X165845259Y-385186295D01*
X166061295Y-384970259D01*
X166315326Y-384800521D01*
X166597590Y-384683604D01*
X166747415Y-384653802D01*
X166897239Y-384624000D01*
X167202761Y-384624000D01*
X167352585Y-384653802D01*
X167352585Y-384653802D01*
G37*
G36*
X157941560Y-384889064D02*
G01*
X158093027Y-384919193D01*
X158307045Y-385007842D01*
X158307046Y-385007843D01*
X158499654Y-385136539D01*
X158663461Y-385300346D01*
X158749258Y-385428751D01*
X158792158Y-385492955D01*
X158880807Y-385706973D01*
X158926000Y-385934174D01*
X158926000Y-386165826D01*
X158880807Y-386393027D01*
X158792158Y-386607045D01*
X158792157Y-386607046D01*
X158663461Y-386799654D01*
X158499654Y-386963461D01*
X158371249Y-387049258D01*
X158307045Y-387092158D01*
X158093027Y-387180807D01*
X157941560Y-387210936D01*
X157865827Y-387226000D01*
X157634173Y-387226000D01*
X157558440Y-387210936D01*
X157406973Y-387180807D01*
X157192955Y-387092158D01*
X157128751Y-387049258D01*
X157000346Y-386963461D01*
X156836539Y-386799654D01*
X156707843Y-386607046D01*
X156707842Y-386607045D01*
X156619193Y-386393027D01*
X156574000Y-386165826D01*
X156574000Y-385934174D01*
X156619193Y-385706973D01*
X156707842Y-385492955D01*
X156750742Y-385428751D01*
X156836539Y-385300346D01*
X157000346Y-385136539D01*
X157192954Y-385007843D01*
X157192955Y-385007842D01*
X157406973Y-384919193D01*
X157558440Y-384889064D01*
X157634173Y-384874000D01*
X157865827Y-384874000D01*
X157941560Y-384889064D01*
X157941560Y-384889064D01*
G37*
G36*
X161124611Y-381858802D02*
G01*
X161274436Y-381888604D01*
X161556700Y-382005521D01*
X161810731Y-382175259D01*
X162026767Y-382391295D01*
X162196505Y-382645326D01*
X162313422Y-382927590D01*
X162373026Y-383227240D01*
X162373026Y-383532760D01*
X162313422Y-383832410D01*
X162196505Y-384114674D01*
X162026767Y-384368705D01*
X161810731Y-384584741D01*
X161556700Y-384754479D01*
X161274436Y-384871396D01*
X161124611Y-384901198D01*
X160974787Y-384931000D01*
X160669265Y-384931000D01*
X160519441Y-384901198D01*
X160369616Y-384871396D01*
X160087352Y-384754479D01*
X159833321Y-384584741D01*
X159617285Y-384368705D01*
X159447547Y-384114674D01*
X159330630Y-383832410D01*
X159271026Y-383532760D01*
X159271026Y-383227240D01*
X159330630Y-382927590D01*
X159447547Y-382645326D01*
X159617285Y-382391295D01*
X159833321Y-382175259D01*
X160087352Y-382005521D01*
X160369616Y-381888604D01*
X160519441Y-381858802D01*
X160669265Y-381829000D01*
X160974787Y-381829000D01*
X161124611Y-381858802D01*
X161124611Y-381858802D01*
G37*
G36*
X183008499Y-379333684D02*
G01*
X183226499Y-379423983D01*
X183380648Y-379487833D01*
X183715573Y-379711623D01*
X184000402Y-379996452D01*
X184224192Y-380331377D01*
X184256587Y-380409586D01*
X184378341Y-380703526D01*
X184456925Y-381098594D01*
X184456925Y-381501406D01*
X184378341Y-381896474D01*
X184327476Y-382019272D01*
X184224192Y-382268623D01*
X184000402Y-382603548D01*
X183715573Y-382888377D01*
X183380648Y-383112167D01*
X183226499Y-383176017D01*
X183008499Y-383266316D01*
X182613431Y-383344900D01*
X182210619Y-383344900D01*
X181815551Y-383266316D01*
X181597551Y-383176017D01*
X181443402Y-383112167D01*
X181108477Y-382888377D01*
X180823648Y-382603548D01*
X180599858Y-382268623D01*
X180496574Y-382019272D01*
X180445709Y-381896474D01*
X180367125Y-381501406D01*
X180367125Y-381098594D01*
X180445709Y-380703526D01*
X180567463Y-380409586D01*
X180599858Y-380331377D01*
X180823648Y-379996452D01*
X181108477Y-379711623D01*
X181443402Y-379487833D01*
X181597551Y-379423983D01*
X181815551Y-379333684D01*
X182210619Y-379255100D01*
X182613431Y-379255100D01*
X183008499Y-379333684D01*
X183008499Y-379333684D01*
G37*
G36*
X167474611Y-379318802D02*
G01*
X167624436Y-379348604D01*
X167906700Y-379465521D01*
X168160731Y-379635259D01*
X168376767Y-379851295D01*
X168546505Y-380105326D01*
X168663422Y-380387590D01*
X168663422Y-380387591D01*
X168701840Y-380580728D01*
X168723026Y-380687240D01*
X168723026Y-380992760D01*
X168663422Y-381292410D01*
X168546505Y-381574674D01*
X168376767Y-381828705D01*
X168160731Y-382044741D01*
X167906700Y-382214479D01*
X167624436Y-382331396D01*
X167474611Y-382361198D01*
X167324787Y-382391000D01*
X167019265Y-382391000D01*
X166869441Y-382361198D01*
X166719616Y-382331396D01*
X166437352Y-382214479D01*
X166183321Y-382044741D01*
X165967285Y-381828705D01*
X165797547Y-381574674D01*
X165680630Y-381292410D01*
X165621026Y-380992760D01*
X165621026Y-380687240D01*
X165642213Y-380580728D01*
X165680630Y-380387591D01*
X165680630Y-380387590D01*
X165797547Y-380105326D01*
X165967285Y-379851295D01*
X166183321Y-379635259D01*
X166437352Y-379465521D01*
X166719616Y-379348604D01*
X166869441Y-379318802D01*
X167019265Y-379289000D01*
X167324787Y-379289000D01*
X167474611Y-379318802D01*
X167474611Y-379318802D01*
G37*
G36*
X187762129Y-380409585D02*
G01*
X187930651Y-380479389D01*
X188082316Y-380580728D01*
X188211297Y-380709709D01*
X188312636Y-380861374D01*
X188382440Y-381029896D01*
X188418025Y-381208797D01*
X188418025Y-381391203D01*
X188382440Y-381570104D01*
X188312636Y-381738626D01*
X188211297Y-381890291D01*
X188082316Y-382019272D01*
X187930651Y-382120611D01*
X187762129Y-382190415D01*
X187583228Y-382226000D01*
X187400822Y-382226000D01*
X187221921Y-382190415D01*
X187053399Y-382120611D01*
X186901734Y-382019272D01*
X186772753Y-381890291D01*
X186671414Y-381738626D01*
X186601610Y-381570104D01*
X186566025Y-381391203D01*
X186566025Y-381208797D01*
X186601610Y-381029896D01*
X186671414Y-380861374D01*
X186772753Y-380709709D01*
X186901734Y-380580728D01*
X187053399Y-380479389D01*
X187221921Y-380409585D01*
X187400822Y-380374000D01*
X187583228Y-380374000D01*
X187762129Y-380409585D01*
X187762129Y-380409585D01*
G37*
G36*
X177602129Y-380409585D02*
G01*
X177770651Y-380479389D01*
X177922316Y-380580728D01*
X178051297Y-380709709D01*
X178152636Y-380861374D01*
X178222440Y-381029896D01*
X178258025Y-381208797D01*
X178258025Y-381391203D01*
X178222440Y-381570104D01*
X178152636Y-381738626D01*
X178051297Y-381890291D01*
X177922316Y-382019272D01*
X177770651Y-382120611D01*
X177602129Y-382190415D01*
X177423228Y-382226000D01*
X177240822Y-382226000D01*
X177061921Y-382190415D01*
X176893399Y-382120611D01*
X176741734Y-382019272D01*
X176612753Y-381890291D01*
X176511414Y-381738626D01*
X176441610Y-381570104D01*
X176406025Y-381391203D01*
X176406025Y-381208797D01*
X176441610Y-381029896D01*
X176511414Y-380861374D01*
X176612753Y-380709709D01*
X176741734Y-380580728D01*
X176893399Y-380479389D01*
X177061921Y-380409585D01*
X177240822Y-380374000D01*
X177423228Y-380374000D01*
X177602129Y-380409585D01*
X177602129Y-380409585D01*
G37*
G36*
X163958500Y-376333684D02*
G01*
X164176500Y-376423983D01*
X164330649Y-376487833D01*
X164665574Y-376711623D01*
X164950403Y-376996452D01*
X165174193Y-377331377D01*
X165206588Y-377409586D01*
X165328342Y-377703526D01*
X165406926Y-378098594D01*
X165406926Y-378501406D01*
X165328342Y-378896474D01*
X165277477Y-379019272D01*
X165174193Y-379268623D01*
X164950403Y-379603548D01*
X164665574Y-379888377D01*
X164330649Y-380112167D01*
X164176500Y-380176017D01*
X163958500Y-380266316D01*
X163563432Y-380344900D01*
X163160620Y-380344900D01*
X162765552Y-380266316D01*
X162547552Y-380176017D01*
X162393403Y-380112167D01*
X162058478Y-379888377D01*
X161773649Y-379603548D01*
X161549859Y-379268623D01*
X161446575Y-379019272D01*
X161395710Y-378896474D01*
X161317126Y-378501406D01*
X161317126Y-378098594D01*
X161395710Y-377703526D01*
X161517464Y-377409586D01*
X161549859Y-377331377D01*
X161773649Y-376996452D01*
X162058478Y-376711623D01*
X162393403Y-376487833D01*
X162547552Y-376423983D01*
X162765552Y-376333684D01*
X163160620Y-376255100D01*
X163563432Y-376255100D01*
X163958500Y-376333684D01*
X163958500Y-376333684D01*
G37*
G36*
X178904610Y-377238802D02*
G01*
X179054435Y-377268604D01*
X179336699Y-377385521D01*
X179590730Y-377555259D01*
X179806766Y-377771295D01*
X179976504Y-378025326D01*
X180093421Y-378307590D01*
X180093421Y-378307591D01*
X180153025Y-378607239D01*
X180153025Y-378912761D01*
X180123223Y-379062585D01*
X180093421Y-379212410D01*
X179976504Y-379494674D01*
X179806766Y-379748705D01*
X179590730Y-379964741D01*
X179336699Y-380134479D01*
X179054435Y-380251396D01*
X178904610Y-380281198D01*
X178754786Y-380311000D01*
X178449264Y-380311000D01*
X178299440Y-380281198D01*
X178149615Y-380251396D01*
X177867351Y-380134479D01*
X177613320Y-379964741D01*
X177397284Y-379748705D01*
X177227546Y-379494674D01*
X177110629Y-379212410D01*
X177080827Y-379062585D01*
X177051025Y-378912761D01*
X177051025Y-378607239D01*
X177110629Y-378307591D01*
X177110629Y-378307590D01*
X177227546Y-378025326D01*
X177397284Y-377771295D01*
X177613320Y-377555259D01*
X177867351Y-377385521D01*
X178149615Y-377268604D01*
X178299440Y-377238802D01*
X178449264Y-377209000D01*
X178754786Y-377209000D01*
X178904610Y-377238802D01*
X178904610Y-377238802D01*
G37*
G36*
X156359726Y-380281794D02*
G01*
X154557726Y-380281794D01*
X154557726Y-378479794D01*
X156359726Y-378479794D01*
X156359726Y-380281794D01*
X156359726Y-380281794D01*
G37*
G36*
X158552130Y-377409585D02*
G01*
X158720652Y-377479389D01*
X158872317Y-377580728D01*
X159001298Y-377709709D01*
X159102637Y-377861374D01*
X159172441Y-378029896D01*
X159208026Y-378208797D01*
X159208026Y-378391203D01*
X159172441Y-378570104D01*
X159102637Y-378738626D01*
X159001298Y-378890291D01*
X158872317Y-379019272D01*
X158720652Y-379120611D01*
X158552130Y-379190415D01*
X158373229Y-379226000D01*
X158190823Y-379226000D01*
X158011922Y-379190415D01*
X157843400Y-379120611D01*
X157691735Y-379019272D01*
X157562754Y-378890291D01*
X157461415Y-378738626D01*
X157391611Y-378570104D01*
X157356026Y-378391203D01*
X157356026Y-378208797D01*
X157391611Y-378029896D01*
X157461415Y-377861374D01*
X157562754Y-377709709D01*
X157691735Y-377580728D01*
X157843400Y-377479389D01*
X158011922Y-377409585D01*
X158190823Y-377374000D01*
X158373229Y-377374000D01*
X158552130Y-377409585D01*
X158552130Y-377409585D01*
G37*
G36*
X168712130Y-377409585D02*
G01*
X168880652Y-377479389D01*
X169032317Y-377580728D01*
X169161298Y-377709709D01*
X169262637Y-377861374D01*
X169332441Y-378029896D01*
X169368026Y-378208797D01*
X169368026Y-378391203D01*
X169332441Y-378570104D01*
X169262637Y-378738626D01*
X169161298Y-378890291D01*
X169032317Y-379019272D01*
X168880652Y-379120611D01*
X168712130Y-379190415D01*
X168533229Y-379226000D01*
X168350823Y-379226000D01*
X168171922Y-379190415D01*
X168003400Y-379120611D01*
X167851735Y-379019272D01*
X167722754Y-378890291D01*
X167621415Y-378738626D01*
X167551611Y-378570104D01*
X167516026Y-378391203D01*
X167516026Y-378208797D01*
X167551611Y-378029896D01*
X167621415Y-377861374D01*
X167722754Y-377709709D01*
X167851735Y-377580728D01*
X168003400Y-377479389D01*
X168171922Y-377409585D01*
X168350823Y-377374000D01*
X168533229Y-377374000D01*
X168712130Y-377409585D01*
X168712130Y-377409585D01*
G37*
G36*
X185254610Y-374698802D02*
G01*
X185404435Y-374728604D01*
X185686699Y-374845521D01*
X185940730Y-375015259D01*
X186156766Y-375231295D01*
X186326504Y-375485326D01*
X186443421Y-375767590D01*
X186503025Y-376067240D01*
X186503025Y-376372760D01*
X186443421Y-376672410D01*
X186326504Y-376954674D01*
X186156766Y-377208705D01*
X185940730Y-377424741D01*
X185686699Y-377594479D01*
X185404435Y-377711396D01*
X185317155Y-377728757D01*
X185104786Y-377771000D01*
X184799264Y-377771000D01*
X184586895Y-377728757D01*
X184499615Y-377711396D01*
X184217351Y-377594479D01*
X183963320Y-377424741D01*
X183747284Y-377208705D01*
X183577546Y-376954674D01*
X183460629Y-376672410D01*
X183401025Y-376372760D01*
X183401025Y-376067240D01*
X183460629Y-375767590D01*
X183577546Y-375485326D01*
X183747284Y-375231295D01*
X183963320Y-375015259D01*
X184217351Y-374845521D01*
X184499615Y-374728604D01*
X184649440Y-374698802D01*
X184799264Y-374669000D01*
X185104786Y-374669000D01*
X185254610Y-374698802D01*
X185254610Y-374698802D01*
G37*
G36*
X155569168Y-375946312D02*
G01*
X155635353Y-375952831D01*
X155805192Y-376004351D01*
X155961717Y-376088016D01*
X155997455Y-376117346D01*
X156098912Y-376200608D01*
X156182174Y-376302065D01*
X156211504Y-376337803D01*
X156295169Y-376494328D01*
X156346689Y-376664167D01*
X156364085Y-376840794D01*
X156346689Y-377017421D01*
X156295169Y-377187260D01*
X156211504Y-377343785D01*
X156186707Y-377374000D01*
X156098912Y-377480980D01*
X156008401Y-377555259D01*
X155961717Y-377593572D01*
X155805192Y-377677237D01*
X155635353Y-377728757D01*
X155569169Y-377735275D01*
X155502986Y-377741794D01*
X155414466Y-377741794D01*
X155348283Y-377735275D01*
X155282099Y-377728757D01*
X155112260Y-377677237D01*
X154955735Y-377593572D01*
X154909051Y-377555259D01*
X154818540Y-377480980D01*
X154730745Y-377374000D01*
X154705948Y-377343785D01*
X154622283Y-377187260D01*
X154570763Y-377017421D01*
X154553367Y-376840794D01*
X154570763Y-376664167D01*
X154622283Y-376494328D01*
X154705948Y-376337803D01*
X154735278Y-376302065D01*
X154818540Y-376200608D01*
X154919997Y-376117346D01*
X154955735Y-376088016D01*
X155112260Y-376004351D01*
X155282099Y-375952831D01*
X155348284Y-375946312D01*
X155414466Y-375939794D01*
X155502986Y-375939794D01*
X155569168Y-375946312D01*
X155569168Y-375946312D01*
G37*
G36*
X155569168Y-373406312D02*
G01*
X155635353Y-373412831D01*
X155805192Y-373464351D01*
X155961717Y-373548016D01*
X155997455Y-373577346D01*
X156098912Y-373660608D01*
X156182174Y-373762065D01*
X156211504Y-373797803D01*
X156295169Y-373954328D01*
X156346689Y-374124167D01*
X156364085Y-374300794D01*
X156346689Y-374477421D01*
X156295169Y-374647260D01*
X156211504Y-374803785D01*
X156182174Y-374839523D01*
X156098912Y-374940980D01*
X156008401Y-375015259D01*
X155961717Y-375053572D01*
X155805192Y-375137237D01*
X155635353Y-375188757D01*
X155569168Y-375195276D01*
X155502986Y-375201794D01*
X155414466Y-375201794D01*
X155348284Y-375195276D01*
X155282099Y-375188757D01*
X155112260Y-375137237D01*
X154955735Y-375053572D01*
X154909051Y-375015259D01*
X154818540Y-374940980D01*
X154735278Y-374839523D01*
X154705948Y-374803785D01*
X154622283Y-374647260D01*
X154570763Y-374477421D01*
X154553367Y-374300794D01*
X154570763Y-374124167D01*
X154622283Y-373954328D01*
X154705948Y-373797803D01*
X154735278Y-373762065D01*
X154818540Y-373660608D01*
X154919997Y-373577346D01*
X154955735Y-373548016D01*
X155112260Y-373464351D01*
X155282099Y-373412831D01*
X155348284Y-373406312D01*
X155414466Y-373399794D01*
X155502986Y-373399794D01*
X155569168Y-373406312D01*
X155569168Y-373406312D01*
G37*
G36*
X168053213Y-372936249D02*
G01*
X168147652Y-372964897D01*
X168234687Y-373011418D01*
X168310975Y-373074025D01*
X168373582Y-373150313D01*
X168420103Y-373237348D01*
X168448751Y-373331787D01*
X168456000Y-373405388D01*
X168456000Y-374554612D01*
X168448751Y-374628213D01*
X168420103Y-374722652D01*
X168373582Y-374809687D01*
X168310975Y-374885975D01*
X168234687Y-374948582D01*
X168147651Y-374995103D01*
X168053212Y-375023751D01*
X167955000Y-375033424D01*
X167856787Y-375023751D01*
X167762348Y-374995103D01*
X167675313Y-374948582D01*
X167599025Y-374885975D01*
X167536418Y-374809687D01*
X167489897Y-374722651D01*
X167461249Y-374628212D01*
X167454000Y-374554611D01*
X167454001Y-373405388D01*
X167461250Y-373331787D01*
X167489898Y-373237348D01*
X167536419Y-373150313D01*
X167599026Y-373074025D01*
X167675314Y-373011418D01*
X167762349Y-372964897D01*
X167856788Y-372936249D01*
X167955000Y-372926576D01*
X168053213Y-372936249D01*
X168053213Y-372936249D01*
G37*
G36*
X176693213Y-372936249D02*
G01*
X176787652Y-372964897D01*
X176874687Y-373011418D01*
X176950975Y-373074025D01*
X177013582Y-373150313D01*
X177060103Y-373237348D01*
X177088751Y-373331787D01*
X177096000Y-373405388D01*
X177096000Y-374554612D01*
X177088751Y-374628213D01*
X177060103Y-374722652D01*
X177013582Y-374809687D01*
X176950975Y-374885975D01*
X176874687Y-374948582D01*
X176787651Y-374995103D01*
X176693212Y-375023751D01*
X176595000Y-375033424D01*
X176496787Y-375023751D01*
X176402348Y-374995103D01*
X176315313Y-374948582D01*
X176239025Y-374885975D01*
X176176418Y-374809687D01*
X176129897Y-374722651D01*
X176101249Y-374628212D01*
X176094000Y-374554611D01*
X176094001Y-373405388D01*
X176101250Y-373331787D01*
X176129898Y-373237348D01*
X176176419Y-373150313D01*
X176239026Y-373074025D01*
X176315314Y-373011418D01*
X176402349Y-372964897D01*
X176496788Y-372936249D01*
X176595000Y-372926576D01*
X176693213Y-372936249D01*
X176693213Y-372936249D01*
G37*
G36*
X175267383Y-373162489D02*
G01*
X175267386Y-373162490D01*
X175267385Y-373162490D01*
X175331258Y-373188946D01*
X175388748Y-373227360D01*
X175437640Y-373276252D01*
X175476054Y-373333742D01*
X175497624Y-373385818D01*
X175502511Y-373397617D01*
X175516000Y-373465430D01*
X175516000Y-373534570D01*
X175502511Y-373602383D01*
X175502510Y-373602385D01*
X175476054Y-373666258D01*
X175437640Y-373723748D01*
X175388748Y-373772640D01*
X175331258Y-373811054D01*
X175279182Y-373832624D01*
X175267383Y-373837511D01*
X175199570Y-373851000D01*
X175130430Y-373851000D01*
X175062617Y-373837511D01*
X175050818Y-373832624D01*
X174998742Y-373811054D01*
X174941252Y-373772640D01*
X174892360Y-373723748D01*
X174853946Y-373666258D01*
X174827490Y-373602385D01*
X174827489Y-373602383D01*
X174814000Y-373534570D01*
X174814000Y-373465430D01*
X174827489Y-373397617D01*
X174832376Y-373385818D01*
X174853946Y-373333742D01*
X174892360Y-373276252D01*
X174941252Y-373227360D01*
X174998742Y-373188946D01*
X175062615Y-373162490D01*
X175062614Y-373162490D01*
X175062617Y-373162489D01*
X175130430Y-373149000D01*
X175199570Y-373149000D01*
X175267383Y-373162489D01*
X175267383Y-373162489D01*
G37*
G36*
X169487383Y-373162489D02*
G01*
X169487386Y-373162490D01*
X169487385Y-373162490D01*
X169551258Y-373188946D01*
X169608748Y-373227360D01*
X169657640Y-373276252D01*
X169696054Y-373333742D01*
X169717624Y-373385818D01*
X169722511Y-373397617D01*
X169736000Y-373465430D01*
X169736000Y-373534570D01*
X169722511Y-373602383D01*
X169722510Y-373602385D01*
X169696054Y-373666258D01*
X169657640Y-373723748D01*
X169608748Y-373772640D01*
X169551258Y-373811054D01*
X169499182Y-373832624D01*
X169487383Y-373837511D01*
X169419570Y-373851000D01*
X169350430Y-373851000D01*
X169282617Y-373837511D01*
X169270818Y-373832624D01*
X169218742Y-373811054D01*
X169161252Y-373772640D01*
X169112360Y-373723748D01*
X169073946Y-373666258D01*
X169047490Y-373602385D01*
X169047489Y-373602383D01*
X169034000Y-373534570D01*
X169034000Y-373465430D01*
X169047489Y-373397617D01*
X169052376Y-373385818D01*
X169073946Y-373333742D01*
X169112360Y-373276252D01*
X169161252Y-373227360D01*
X169218742Y-373188946D01*
X169282615Y-373162490D01*
X169282614Y-373162490D01*
X169282617Y-373162489D01*
X169350430Y-373149000D01*
X169419570Y-373149000D01*
X169487383Y-373162489D01*
X169487383Y-373162489D01*
G37*
G36*
X155569169Y-370866313D02*
G01*
X155635353Y-370872831D01*
X155805192Y-370924351D01*
X155961717Y-371008016D01*
X155996577Y-371036625D01*
X156098912Y-371120608D01*
X156169373Y-371206466D01*
X156211504Y-371257803D01*
X156295169Y-371414328D01*
X156346689Y-371584167D01*
X156364085Y-371760794D01*
X156346689Y-371937421D01*
X156295169Y-372107260D01*
X156211504Y-372263785D01*
X156182174Y-372299523D01*
X156098912Y-372400980D01*
X155997455Y-372484242D01*
X155961717Y-372513572D01*
X155805192Y-372597237D01*
X155635353Y-372648757D01*
X155569169Y-372655275D01*
X155502986Y-372661794D01*
X155414466Y-372661794D01*
X155348283Y-372655275D01*
X155282099Y-372648757D01*
X155112260Y-372597237D01*
X154955735Y-372513572D01*
X154919997Y-372484242D01*
X154818540Y-372400980D01*
X154735278Y-372299523D01*
X154705948Y-372263785D01*
X154622283Y-372107260D01*
X154570763Y-371937421D01*
X154553367Y-371760794D01*
X154570763Y-371584167D01*
X154622283Y-371414328D01*
X154705948Y-371257803D01*
X154748079Y-371206466D01*
X154818540Y-371120608D01*
X154920875Y-371036625D01*
X154955735Y-371008016D01*
X155112260Y-370924351D01*
X155282099Y-370872831D01*
X155348283Y-370866313D01*
X155414466Y-370859794D01*
X155502986Y-370859794D01*
X155569169Y-370866313D01*
X155569169Y-370866313D01*
G37*
G36*
X186940442Y-369965518D02*
G01*
X187006627Y-369972037D01*
X187176466Y-370023557D01*
X187332991Y-370107222D01*
X187368729Y-370136552D01*
X187470186Y-370219814D01*
X187542730Y-370308211D01*
X187582778Y-370357009D01*
X187582779Y-370357011D01*
X187653698Y-370489689D01*
X187666443Y-370513534D01*
X187717963Y-370683373D01*
X187735359Y-370860000D01*
X187717963Y-371036627D01*
X187666443Y-371206466D01*
X187582778Y-371362991D01*
X187553448Y-371398729D01*
X187470186Y-371500186D01*
X187368729Y-371583448D01*
X187332991Y-371612778D01*
X187176466Y-371696443D01*
X187006627Y-371747963D01*
X186940443Y-371754481D01*
X186874260Y-371761000D01*
X186785740Y-371761000D01*
X186719557Y-371754481D01*
X186653373Y-371747963D01*
X186483534Y-371696443D01*
X186327009Y-371612778D01*
X186291271Y-371583448D01*
X186189814Y-371500186D01*
X186106552Y-371398729D01*
X186077222Y-371362991D01*
X185993557Y-371206466D01*
X185942037Y-371036627D01*
X185924641Y-370860000D01*
X185942037Y-370683373D01*
X185993557Y-370513534D01*
X186006303Y-370489689D01*
X186077221Y-370357011D01*
X186077222Y-370357009D01*
X186117270Y-370308211D01*
X186189814Y-370219814D01*
X186291271Y-370136552D01*
X186327009Y-370107222D01*
X186483534Y-370023557D01*
X186653373Y-369972037D01*
X186719558Y-369965518D01*
X186785740Y-369959000D01*
X186874260Y-369959000D01*
X186940442Y-369965518D01*
X186940442Y-369965518D01*
G37*
G36*
X184400442Y-369965518D02*
G01*
X184466627Y-369972037D01*
X184636466Y-370023557D01*
X184792991Y-370107222D01*
X184828729Y-370136552D01*
X184930186Y-370219814D01*
X185002730Y-370308211D01*
X185042778Y-370357009D01*
X185042779Y-370357011D01*
X185113698Y-370489689D01*
X185126443Y-370513534D01*
X185177963Y-370683373D01*
X185195359Y-370860000D01*
X185177963Y-371036627D01*
X185126443Y-371206466D01*
X185042778Y-371362991D01*
X185013448Y-371398729D01*
X184930186Y-371500186D01*
X184828729Y-371583448D01*
X184792991Y-371612778D01*
X184636466Y-371696443D01*
X184466627Y-371747963D01*
X184400443Y-371754481D01*
X184334260Y-371761000D01*
X184245740Y-371761000D01*
X184179557Y-371754481D01*
X184113373Y-371747963D01*
X183943534Y-371696443D01*
X183787009Y-371612778D01*
X183751271Y-371583448D01*
X183649814Y-371500186D01*
X183566552Y-371398729D01*
X183537222Y-371362991D01*
X183453557Y-371206466D01*
X183402037Y-371036627D01*
X183384641Y-370860000D01*
X183402037Y-370683373D01*
X183453557Y-370513534D01*
X183466303Y-370489689D01*
X183537221Y-370357011D01*
X183537222Y-370357009D01*
X183577270Y-370308211D01*
X183649814Y-370219814D01*
X183751271Y-370136552D01*
X183787009Y-370107222D01*
X183943534Y-370023557D01*
X184113373Y-369972037D01*
X184179558Y-369965518D01*
X184245740Y-369959000D01*
X184334260Y-369959000D01*
X184400442Y-369965518D01*
X184400442Y-369965518D01*
G37*
G36*
X181860442Y-369965518D02*
G01*
X181926627Y-369972037D01*
X182096466Y-370023557D01*
X182252991Y-370107222D01*
X182288729Y-370136552D01*
X182390186Y-370219814D01*
X182462730Y-370308211D01*
X182502778Y-370357009D01*
X182502779Y-370357011D01*
X182573698Y-370489689D01*
X182586443Y-370513534D01*
X182637963Y-370683373D01*
X182655359Y-370860000D01*
X182637963Y-371036627D01*
X182586443Y-371206466D01*
X182502778Y-371362991D01*
X182473448Y-371398729D01*
X182390186Y-371500186D01*
X182288729Y-371583448D01*
X182252991Y-371612778D01*
X182096466Y-371696443D01*
X181926627Y-371747963D01*
X181860443Y-371754481D01*
X181794260Y-371761000D01*
X181705740Y-371761000D01*
X181639557Y-371754481D01*
X181573373Y-371747963D01*
X181403534Y-371696443D01*
X181247009Y-371612778D01*
X181211271Y-371583448D01*
X181109814Y-371500186D01*
X181026552Y-371398729D01*
X180997222Y-371362991D01*
X180913557Y-371206466D01*
X180862037Y-371036627D01*
X180844641Y-370860000D01*
X180862037Y-370683373D01*
X180913557Y-370513534D01*
X180926303Y-370489689D01*
X180997221Y-370357011D01*
X180997222Y-370357009D01*
X181037270Y-370308211D01*
X181109814Y-370219814D01*
X181211271Y-370136552D01*
X181247009Y-370107222D01*
X181403534Y-370023557D01*
X181573373Y-369972037D01*
X181639558Y-369965518D01*
X181705740Y-369959000D01*
X181794260Y-369959000D01*
X181860442Y-369965518D01*
X181860442Y-369965518D01*
G37*
G36*
X180111000Y-371761000D02*
G01*
X178309000Y-371761000D01*
X178309000Y-369959000D01*
X180111000Y-369959000D01*
X180111000Y-371761000D01*
X180111000Y-371761000D01*
G37*
G36*
X168053213Y-368916249D02*
G01*
X168147652Y-368944897D01*
X168234687Y-368991418D01*
X168310975Y-369054025D01*
X168373582Y-369130313D01*
X168420103Y-369217348D01*
X168448751Y-369311787D01*
X168456000Y-369385388D01*
X168456000Y-370234612D01*
X168448751Y-370308213D01*
X168420103Y-370402652D01*
X168373582Y-370489687D01*
X168310975Y-370565975D01*
X168234687Y-370628582D01*
X168147651Y-370675103D01*
X168053212Y-370703751D01*
X167955000Y-370713424D01*
X167856787Y-370703751D01*
X167762348Y-370675103D01*
X167675313Y-370628582D01*
X167599025Y-370565975D01*
X167536418Y-370489687D01*
X167489897Y-370402651D01*
X167461249Y-370308212D01*
X167454000Y-370234611D01*
X167454000Y-369385398D01*
X167461250Y-369311786D01*
X167471846Y-369276856D01*
X167489898Y-369217348D01*
X167536419Y-369130313D01*
X167599026Y-369054025D01*
X167675314Y-368991418D01*
X167762349Y-368944897D01*
X167856788Y-368916249D01*
X167955000Y-368906576D01*
X168053213Y-368916249D01*
X168053213Y-368916249D01*
G37*
G36*
X176693213Y-368916249D02*
G01*
X176787652Y-368944897D01*
X176874687Y-368991418D01*
X176950975Y-369054025D01*
X177013582Y-369130313D01*
X177060103Y-369217348D01*
X177088751Y-369311787D01*
X177096000Y-369385388D01*
X177096000Y-370234612D01*
X177088751Y-370308213D01*
X177060103Y-370402652D01*
X177013582Y-370489687D01*
X176950975Y-370565975D01*
X176874687Y-370628582D01*
X176787651Y-370675103D01*
X176693212Y-370703751D01*
X176595000Y-370713424D01*
X176496787Y-370703751D01*
X176402348Y-370675103D01*
X176315313Y-370628582D01*
X176239025Y-370565975D01*
X176176418Y-370489687D01*
X176129897Y-370402651D01*
X176101249Y-370308212D01*
X176094000Y-370234611D01*
X176094000Y-369385398D01*
X176101250Y-369311786D01*
X176111846Y-369276856D01*
X176129898Y-369217348D01*
X176176419Y-369130313D01*
X176239026Y-369054025D01*
X176315314Y-368991418D01*
X176402349Y-368944897D01*
X176496788Y-368916249D01*
X176595000Y-368906576D01*
X176693213Y-368916249D01*
X176693213Y-368916249D01*
G37*
M02*
