G04 #@! TF.GenerationSoftware,KiCad,Pcbnew,(5.1.4)-1*
G04 #@! TF.CreationDate,2023-06-13T20:26:26-04:00*
G04 #@! TF.ProjectId,ThumbsUp,5468756d-6273-4557-902e-6b696361645f,rev?*
G04 #@! TF.SameCoordinates,Original*
G04 #@! TF.FileFunction,Copper,L2,Bot*
G04 #@! TF.FilePolarity,Positive*
%FSLAX46Y46*%
G04 Gerber Fmt 4.6, Leading zero omitted, Abs format (unit mm)*
G04 Created by KiCad (PCBNEW (5.1.4)-1) date 2023-06-13 20:26:26*
%MOMM*%
%LPD*%
G04 APERTURE LIST*
%ADD10C,1.575000*%
%ADD11R,1.300000X3.250000*%
%ADD12R,1.300000X0.950000*%
%ADD13R,2.550000X2.500000*%
%ADD14C,2.250000*%
%ADD15C,2.250000*%
%ADD16O,1.700000X1.700000*%
%ADD17R,1.700000X1.700000*%
%ADD18C,0.100000*%
%ADD19C,1.250000*%
%ADD20R,0.600000X1.160000*%
%ADD21R,0.300000X1.160000*%
%ADD22O,0.900000X1.700000*%
%ADD23O,0.900000X2.000000*%
%ADD24C,0.590000*%
%ADD25C,1.700000*%
%ADD26C,1.700000*%
%ADD27C,0.800000*%
%ADD28C,3.000000*%
%ADD29R,3.200000X3.200000*%
%ADD30R,0.850000X0.200000*%
%ADD31R,0.200000X0.850000*%
%ADD32R,0.650000X1.650000*%
%ADD33R,2.100000X5.600000*%
%ADD34C,0.200000*%
%ADD35C,0.500000*%
G04 APERTURE END LIST*
D10*
X208727730Y-453955373D03*
X212451651Y-455281047D03*
X213623921Y-459625674D03*
X206176079Y-456974326D03*
X207348349Y-461318953D03*
D11*
X175200000Y-424925000D03*
D12*
X168500000Y-422635000D03*
X168500000Y-424925000D03*
X168500000Y-427215000D03*
D13*
X170447026Y-380840000D03*
X157520026Y-383380000D03*
D14*
X160862026Y-374300000D03*
X160207027Y-375030000D03*
D15*
X159552026Y-375760000D02*
X160862028Y-374300000D01*
D14*
X165902026Y-373220000D03*
X165882026Y-373510000D03*
D15*
X165862026Y-373800000D02*
X165902026Y-373220000D01*
D16*
X186830000Y-370860000D03*
X184290000Y-370860000D03*
X181750000Y-370860000D03*
D17*
X179210000Y-370860000D03*
D13*
X175327025Y-416870322D03*
X188254025Y-414330322D03*
D14*
X184912025Y-423410322D03*
X185567024Y-422680322D03*
D15*
X186222025Y-421950322D02*
X184912023Y-423410322D01*
D14*
X179872025Y-424490322D03*
X179892025Y-424200322D03*
D15*
X179912025Y-423910322D02*
X179872025Y-424490322D01*
D18*
G36*
X163079504Y-425106204D02*
G01*
X163103773Y-425109804D01*
X163127571Y-425115765D01*
X163150671Y-425124030D01*
X163172849Y-425134520D01*
X163193893Y-425147133D01*
X163213598Y-425161747D01*
X163231777Y-425178223D01*
X163248253Y-425196402D01*
X163262867Y-425216107D01*
X163275480Y-425237151D01*
X163285970Y-425259329D01*
X163294235Y-425282429D01*
X163300196Y-425306227D01*
X163303796Y-425330496D01*
X163305000Y-425355000D01*
X163305000Y-427505000D01*
X163303796Y-427529504D01*
X163300196Y-427553773D01*
X163294235Y-427577571D01*
X163285970Y-427600671D01*
X163275480Y-427622849D01*
X163262867Y-427643893D01*
X163248253Y-427663598D01*
X163231777Y-427681777D01*
X163213598Y-427698253D01*
X163193893Y-427712867D01*
X163172849Y-427725480D01*
X163150671Y-427735970D01*
X163127571Y-427744235D01*
X163103773Y-427750196D01*
X163079504Y-427753796D01*
X163055000Y-427755000D01*
X162305000Y-427755000D01*
X162280496Y-427753796D01*
X162256227Y-427750196D01*
X162232429Y-427744235D01*
X162209329Y-427735970D01*
X162187151Y-427725480D01*
X162166107Y-427712867D01*
X162146402Y-427698253D01*
X162128223Y-427681777D01*
X162111747Y-427663598D01*
X162097133Y-427643893D01*
X162084520Y-427622849D01*
X162074030Y-427600671D01*
X162065765Y-427577571D01*
X162059804Y-427553773D01*
X162056204Y-427529504D01*
X162055000Y-427505000D01*
X162055000Y-425355000D01*
X162056204Y-425330496D01*
X162059804Y-425306227D01*
X162065765Y-425282429D01*
X162074030Y-425259329D01*
X162084520Y-425237151D01*
X162097133Y-425216107D01*
X162111747Y-425196402D01*
X162128223Y-425178223D01*
X162146402Y-425161747D01*
X162166107Y-425147133D01*
X162187151Y-425134520D01*
X162209329Y-425124030D01*
X162232429Y-425115765D01*
X162256227Y-425109804D01*
X162280496Y-425106204D01*
X162305000Y-425105000D01*
X163055000Y-425105000D01*
X163079504Y-425106204D01*
X163079504Y-425106204D01*
G37*
D19*
X162680000Y-426430000D03*
D18*
G36*
X165879504Y-425106204D02*
G01*
X165903773Y-425109804D01*
X165927571Y-425115765D01*
X165950671Y-425124030D01*
X165972849Y-425134520D01*
X165993893Y-425147133D01*
X166013598Y-425161747D01*
X166031777Y-425178223D01*
X166048253Y-425196402D01*
X166062867Y-425216107D01*
X166075480Y-425237151D01*
X166085970Y-425259329D01*
X166094235Y-425282429D01*
X166100196Y-425306227D01*
X166103796Y-425330496D01*
X166105000Y-425355000D01*
X166105000Y-427505000D01*
X166103796Y-427529504D01*
X166100196Y-427553773D01*
X166094235Y-427577571D01*
X166085970Y-427600671D01*
X166075480Y-427622849D01*
X166062867Y-427643893D01*
X166048253Y-427663598D01*
X166031777Y-427681777D01*
X166013598Y-427698253D01*
X165993893Y-427712867D01*
X165972849Y-427725480D01*
X165950671Y-427735970D01*
X165927571Y-427744235D01*
X165903773Y-427750196D01*
X165879504Y-427753796D01*
X165855000Y-427755000D01*
X165105000Y-427755000D01*
X165080496Y-427753796D01*
X165056227Y-427750196D01*
X165032429Y-427744235D01*
X165009329Y-427735970D01*
X164987151Y-427725480D01*
X164966107Y-427712867D01*
X164946402Y-427698253D01*
X164928223Y-427681777D01*
X164911747Y-427663598D01*
X164897133Y-427643893D01*
X164884520Y-427622849D01*
X164874030Y-427600671D01*
X164865765Y-427577571D01*
X164859804Y-427553773D01*
X164856204Y-427529504D01*
X164855000Y-427505000D01*
X164855000Y-425355000D01*
X164856204Y-425330496D01*
X164859804Y-425306227D01*
X164865765Y-425282429D01*
X164874030Y-425259329D01*
X164884520Y-425237151D01*
X164897133Y-425216107D01*
X164911747Y-425196402D01*
X164928223Y-425178223D01*
X164946402Y-425161747D01*
X164966107Y-425147133D01*
X164987151Y-425134520D01*
X165009329Y-425124030D01*
X165032429Y-425115765D01*
X165056227Y-425109804D01*
X165080496Y-425106204D01*
X165105000Y-425105000D01*
X165855000Y-425105000D01*
X165879504Y-425106204D01*
X165879504Y-425106204D01*
G37*
D19*
X165480000Y-426430000D03*
D10*
X199027730Y-456555373D03*
X202751651Y-457881047D03*
X203923921Y-462225674D03*
X196476079Y-459574326D03*
X197648349Y-463918953D03*
D20*
X175475000Y-374560000D03*
X174675000Y-374560000D03*
X175475000Y-374560000D03*
X174675000Y-374560000D03*
X169075000Y-374560000D03*
X169075000Y-374560000D03*
X169875000Y-374560000D03*
X169875000Y-374560000D03*
D21*
X174025000Y-374560000D03*
X173025000Y-374560000D03*
X173525000Y-374560000D03*
X171025000Y-374560000D03*
X170525000Y-374560000D03*
X172525000Y-374560000D03*
X172025000Y-374560000D03*
X171525000Y-374560000D03*
D22*
X176595000Y-369810000D03*
X167955000Y-369810000D03*
D23*
X176595000Y-373980000D03*
X167955000Y-373980000D03*
D13*
X175327025Y-378760000D03*
X188254025Y-376220000D03*
D14*
X184912025Y-385300000D03*
X185567024Y-384570000D03*
D15*
X186222025Y-383840000D02*
X184912023Y-385300000D01*
D14*
X179872025Y-386380000D03*
X179892025Y-386090000D03*
D15*
X179912025Y-385800000D02*
X179872025Y-386380000D01*
D13*
X213427025Y-449420322D03*
X226354025Y-446880322D03*
D14*
X223012025Y-455960322D03*
X223667024Y-455230322D03*
D15*
X224322025Y-454500322D02*
X223012023Y-455960322D01*
D14*
X217972025Y-457040322D03*
X217992025Y-456750322D03*
D15*
X218012025Y-456460322D02*
X217972025Y-457040322D01*
D13*
X194377025Y-444420323D03*
X207304025Y-441880323D03*
D14*
X203962025Y-450960323D03*
X204617024Y-450230323D03*
D15*
X205272025Y-449500323D02*
X203962023Y-450960323D01*
D14*
X198922025Y-452040323D03*
X198942025Y-451750323D03*
D15*
X198962025Y-451460323D02*
X198922025Y-452040323D01*
D13*
X175327025Y-435920322D03*
X188254025Y-433380322D03*
D14*
X184912025Y-442460322D03*
X185567024Y-441730322D03*
D15*
X186222025Y-441000322D02*
X184912023Y-442460322D01*
D14*
X179872025Y-443540322D03*
X179892025Y-443250322D03*
D15*
X179912025Y-442960322D02*
X179872025Y-443540322D01*
D14*
X179892025Y-405150323D03*
D15*
X179912025Y-404860323D02*
X179872025Y-405440323D01*
D14*
X179872025Y-405440323D03*
X185567024Y-403630323D03*
D15*
X186222025Y-402900323D02*
X184912023Y-404360323D01*
D14*
X184912025Y-404360323D03*
D13*
X188254025Y-395280323D03*
X175327025Y-397820323D03*
X170447025Y-438000322D03*
X157520025Y-440540322D03*
D14*
X160862025Y-431460322D03*
X160207026Y-432190322D03*
D15*
X159552025Y-432920322D02*
X160862027Y-431460322D01*
D14*
X165902025Y-430380322D03*
X165882025Y-430670322D03*
D15*
X165862025Y-430960322D02*
X165902025Y-430380322D01*
D13*
X156277025Y-413870323D03*
X169204025Y-411330323D03*
D14*
X165862025Y-420410323D03*
X166517024Y-419680323D03*
D15*
X167172025Y-418950323D02*
X165862023Y-420410323D01*
D14*
X160822025Y-421490323D03*
X160842025Y-421200323D03*
D15*
X160862025Y-420910323D02*
X160822025Y-421490323D01*
D14*
X165882026Y-392570322D03*
D15*
X165862026Y-392860322D02*
X165902026Y-392280322D01*
D14*
X165902026Y-392280322D03*
X160207027Y-394090322D03*
D15*
X159552026Y-394820322D02*
X160862028Y-393360322D01*
D14*
X160862026Y-393360322D03*
D13*
X157520026Y-402440322D03*
X170447026Y-399900322D03*
D18*
G36*
X167211958Y-463630710D02*
G01*
X167226276Y-463632834D01*
X167240317Y-463636351D01*
X167253946Y-463641228D01*
X167267031Y-463647417D01*
X167279447Y-463654858D01*
X167291073Y-463663481D01*
X167301798Y-463673202D01*
X167311519Y-463683927D01*
X167320142Y-463695553D01*
X167327583Y-463707969D01*
X167333772Y-463721054D01*
X167338649Y-463734683D01*
X167342166Y-463748724D01*
X167344290Y-463763042D01*
X167345000Y-463777500D01*
X167345000Y-464122500D01*
X167344290Y-464136958D01*
X167342166Y-464151276D01*
X167338649Y-464165317D01*
X167333772Y-464178946D01*
X167327583Y-464192031D01*
X167320142Y-464204447D01*
X167311519Y-464216073D01*
X167301798Y-464226798D01*
X167291073Y-464236519D01*
X167279447Y-464245142D01*
X167267031Y-464252583D01*
X167253946Y-464258772D01*
X167240317Y-464263649D01*
X167226276Y-464267166D01*
X167211958Y-464269290D01*
X167197500Y-464270000D01*
X166902500Y-464270000D01*
X166888042Y-464269290D01*
X166873724Y-464267166D01*
X166859683Y-464263649D01*
X166846054Y-464258772D01*
X166832969Y-464252583D01*
X166820553Y-464245142D01*
X166808927Y-464236519D01*
X166798202Y-464226798D01*
X166788481Y-464216073D01*
X166779858Y-464204447D01*
X166772417Y-464192031D01*
X166766228Y-464178946D01*
X166761351Y-464165317D01*
X166757834Y-464151276D01*
X166755710Y-464136958D01*
X166755000Y-464122500D01*
X166755000Y-463777500D01*
X166755710Y-463763042D01*
X166757834Y-463748724D01*
X166761351Y-463734683D01*
X166766228Y-463721054D01*
X166772417Y-463707969D01*
X166779858Y-463695553D01*
X166788481Y-463683927D01*
X166798202Y-463673202D01*
X166808927Y-463663481D01*
X166820553Y-463654858D01*
X166832969Y-463647417D01*
X166846054Y-463641228D01*
X166859683Y-463636351D01*
X166873724Y-463632834D01*
X166888042Y-463630710D01*
X166902500Y-463630000D01*
X167197500Y-463630000D01*
X167211958Y-463630710D01*
X167211958Y-463630710D01*
G37*
D24*
X167050000Y-463950000D03*
D18*
G36*
X168181958Y-463630710D02*
G01*
X168196276Y-463632834D01*
X168210317Y-463636351D01*
X168223946Y-463641228D01*
X168237031Y-463647417D01*
X168249447Y-463654858D01*
X168261073Y-463663481D01*
X168271798Y-463673202D01*
X168281519Y-463683927D01*
X168290142Y-463695553D01*
X168297583Y-463707969D01*
X168303772Y-463721054D01*
X168308649Y-463734683D01*
X168312166Y-463748724D01*
X168314290Y-463763042D01*
X168315000Y-463777500D01*
X168315000Y-464122500D01*
X168314290Y-464136958D01*
X168312166Y-464151276D01*
X168308649Y-464165317D01*
X168303772Y-464178946D01*
X168297583Y-464192031D01*
X168290142Y-464204447D01*
X168281519Y-464216073D01*
X168271798Y-464226798D01*
X168261073Y-464236519D01*
X168249447Y-464245142D01*
X168237031Y-464252583D01*
X168223946Y-464258772D01*
X168210317Y-464263649D01*
X168196276Y-464267166D01*
X168181958Y-464269290D01*
X168167500Y-464270000D01*
X167872500Y-464270000D01*
X167858042Y-464269290D01*
X167843724Y-464267166D01*
X167829683Y-464263649D01*
X167816054Y-464258772D01*
X167802969Y-464252583D01*
X167790553Y-464245142D01*
X167778927Y-464236519D01*
X167768202Y-464226798D01*
X167758481Y-464216073D01*
X167749858Y-464204447D01*
X167742417Y-464192031D01*
X167736228Y-464178946D01*
X167731351Y-464165317D01*
X167727834Y-464151276D01*
X167725710Y-464136958D01*
X167725000Y-464122500D01*
X167725000Y-463777500D01*
X167725710Y-463763042D01*
X167727834Y-463748724D01*
X167731351Y-463734683D01*
X167736228Y-463721054D01*
X167742417Y-463707969D01*
X167749858Y-463695553D01*
X167758481Y-463683927D01*
X167768202Y-463673202D01*
X167778927Y-463663481D01*
X167790553Y-463654858D01*
X167802969Y-463647417D01*
X167816054Y-463641228D01*
X167829683Y-463636351D01*
X167843724Y-463632834D01*
X167858042Y-463630710D01*
X167872500Y-463630000D01*
X168167500Y-463630000D01*
X168181958Y-463630710D01*
X168181958Y-463630710D01*
G37*
D24*
X168020000Y-463950000D03*
D18*
G36*
X175861958Y-449730710D02*
G01*
X175876276Y-449732834D01*
X175890317Y-449736351D01*
X175903946Y-449741228D01*
X175917031Y-449747417D01*
X175929447Y-449754858D01*
X175941073Y-449763481D01*
X175951798Y-449773202D01*
X175961519Y-449783927D01*
X175970142Y-449795553D01*
X175977583Y-449807969D01*
X175983772Y-449821054D01*
X175988649Y-449834683D01*
X175992166Y-449848724D01*
X175994290Y-449863042D01*
X175995000Y-449877500D01*
X175995000Y-450172500D01*
X175994290Y-450186958D01*
X175992166Y-450201276D01*
X175988649Y-450215317D01*
X175983772Y-450228946D01*
X175977583Y-450242031D01*
X175970142Y-450254447D01*
X175961519Y-450266073D01*
X175951798Y-450276798D01*
X175941073Y-450286519D01*
X175929447Y-450295142D01*
X175917031Y-450302583D01*
X175903946Y-450308772D01*
X175890317Y-450313649D01*
X175876276Y-450317166D01*
X175861958Y-450319290D01*
X175847500Y-450320000D01*
X175502500Y-450320000D01*
X175488042Y-450319290D01*
X175473724Y-450317166D01*
X175459683Y-450313649D01*
X175446054Y-450308772D01*
X175432969Y-450302583D01*
X175420553Y-450295142D01*
X175408927Y-450286519D01*
X175398202Y-450276798D01*
X175388481Y-450266073D01*
X175379858Y-450254447D01*
X175372417Y-450242031D01*
X175366228Y-450228946D01*
X175361351Y-450215317D01*
X175357834Y-450201276D01*
X175355710Y-450186958D01*
X175355000Y-450172500D01*
X175355000Y-449877500D01*
X175355710Y-449863042D01*
X175357834Y-449848724D01*
X175361351Y-449834683D01*
X175366228Y-449821054D01*
X175372417Y-449807969D01*
X175379858Y-449795553D01*
X175388481Y-449783927D01*
X175398202Y-449773202D01*
X175408927Y-449763481D01*
X175420553Y-449754858D01*
X175432969Y-449747417D01*
X175446054Y-449741228D01*
X175459683Y-449736351D01*
X175473724Y-449732834D01*
X175488042Y-449730710D01*
X175502500Y-449730000D01*
X175847500Y-449730000D01*
X175861958Y-449730710D01*
X175861958Y-449730710D01*
G37*
D24*
X175675000Y-450025000D03*
D18*
G36*
X175861958Y-450700710D02*
G01*
X175876276Y-450702834D01*
X175890317Y-450706351D01*
X175903946Y-450711228D01*
X175917031Y-450717417D01*
X175929447Y-450724858D01*
X175941073Y-450733481D01*
X175951798Y-450743202D01*
X175961519Y-450753927D01*
X175970142Y-450765553D01*
X175977583Y-450777969D01*
X175983772Y-450791054D01*
X175988649Y-450804683D01*
X175992166Y-450818724D01*
X175994290Y-450833042D01*
X175995000Y-450847500D01*
X175995000Y-451142500D01*
X175994290Y-451156958D01*
X175992166Y-451171276D01*
X175988649Y-451185317D01*
X175983772Y-451198946D01*
X175977583Y-451212031D01*
X175970142Y-451224447D01*
X175961519Y-451236073D01*
X175951798Y-451246798D01*
X175941073Y-451256519D01*
X175929447Y-451265142D01*
X175917031Y-451272583D01*
X175903946Y-451278772D01*
X175890317Y-451283649D01*
X175876276Y-451287166D01*
X175861958Y-451289290D01*
X175847500Y-451290000D01*
X175502500Y-451290000D01*
X175488042Y-451289290D01*
X175473724Y-451287166D01*
X175459683Y-451283649D01*
X175446054Y-451278772D01*
X175432969Y-451272583D01*
X175420553Y-451265142D01*
X175408927Y-451256519D01*
X175398202Y-451246798D01*
X175388481Y-451236073D01*
X175379858Y-451224447D01*
X175372417Y-451212031D01*
X175366228Y-451198946D01*
X175361351Y-451185317D01*
X175357834Y-451171276D01*
X175355710Y-451156958D01*
X175355000Y-451142500D01*
X175355000Y-450847500D01*
X175355710Y-450833042D01*
X175357834Y-450818724D01*
X175361351Y-450804683D01*
X175366228Y-450791054D01*
X175372417Y-450777969D01*
X175379858Y-450765553D01*
X175388481Y-450753927D01*
X175398202Y-450743202D01*
X175408927Y-450733481D01*
X175420553Y-450724858D01*
X175432969Y-450717417D01*
X175446054Y-450711228D01*
X175459683Y-450706351D01*
X175473724Y-450702834D01*
X175488042Y-450700710D01*
X175502500Y-450700000D01*
X175847500Y-450700000D01*
X175861958Y-450700710D01*
X175861958Y-450700710D01*
G37*
D24*
X175675000Y-450995000D03*
D18*
G36*
X179176958Y-373390710D02*
G01*
X179191276Y-373392834D01*
X179205317Y-373396351D01*
X179218946Y-373401228D01*
X179232031Y-373407417D01*
X179244447Y-373414858D01*
X179256073Y-373423481D01*
X179266798Y-373433202D01*
X179276519Y-373443927D01*
X179285142Y-373455553D01*
X179292583Y-373467969D01*
X179298772Y-373481054D01*
X179303649Y-373494683D01*
X179307166Y-373508724D01*
X179309290Y-373523042D01*
X179310000Y-373537500D01*
X179310000Y-373882500D01*
X179309290Y-373896958D01*
X179307166Y-373911276D01*
X179303649Y-373925317D01*
X179298772Y-373938946D01*
X179292583Y-373952031D01*
X179285142Y-373964447D01*
X179276519Y-373976073D01*
X179266798Y-373986798D01*
X179256073Y-373996519D01*
X179244447Y-374005142D01*
X179232031Y-374012583D01*
X179218946Y-374018772D01*
X179205317Y-374023649D01*
X179191276Y-374027166D01*
X179176958Y-374029290D01*
X179162500Y-374030000D01*
X178867500Y-374030000D01*
X178853042Y-374029290D01*
X178838724Y-374027166D01*
X178824683Y-374023649D01*
X178811054Y-374018772D01*
X178797969Y-374012583D01*
X178785553Y-374005142D01*
X178773927Y-373996519D01*
X178763202Y-373986798D01*
X178753481Y-373976073D01*
X178744858Y-373964447D01*
X178737417Y-373952031D01*
X178731228Y-373938946D01*
X178726351Y-373925317D01*
X178722834Y-373911276D01*
X178720710Y-373896958D01*
X178720000Y-373882500D01*
X178720000Y-373537500D01*
X178720710Y-373523042D01*
X178722834Y-373508724D01*
X178726351Y-373494683D01*
X178731228Y-373481054D01*
X178737417Y-373467969D01*
X178744858Y-373455553D01*
X178753481Y-373443927D01*
X178763202Y-373433202D01*
X178773927Y-373423481D01*
X178785553Y-373414858D01*
X178797969Y-373407417D01*
X178811054Y-373401228D01*
X178824683Y-373396351D01*
X178838724Y-373392834D01*
X178853042Y-373390710D01*
X178867500Y-373390000D01*
X179162500Y-373390000D01*
X179176958Y-373390710D01*
X179176958Y-373390710D01*
G37*
D24*
X179015000Y-373710000D03*
D18*
G36*
X180146958Y-373390710D02*
G01*
X180161276Y-373392834D01*
X180175317Y-373396351D01*
X180188946Y-373401228D01*
X180202031Y-373407417D01*
X180214447Y-373414858D01*
X180226073Y-373423481D01*
X180236798Y-373433202D01*
X180246519Y-373443927D01*
X180255142Y-373455553D01*
X180262583Y-373467969D01*
X180268772Y-373481054D01*
X180273649Y-373494683D01*
X180277166Y-373508724D01*
X180279290Y-373523042D01*
X180280000Y-373537500D01*
X180280000Y-373882500D01*
X180279290Y-373896958D01*
X180277166Y-373911276D01*
X180273649Y-373925317D01*
X180268772Y-373938946D01*
X180262583Y-373952031D01*
X180255142Y-373964447D01*
X180246519Y-373976073D01*
X180236798Y-373986798D01*
X180226073Y-373996519D01*
X180214447Y-374005142D01*
X180202031Y-374012583D01*
X180188946Y-374018772D01*
X180175317Y-374023649D01*
X180161276Y-374027166D01*
X180146958Y-374029290D01*
X180132500Y-374030000D01*
X179837500Y-374030000D01*
X179823042Y-374029290D01*
X179808724Y-374027166D01*
X179794683Y-374023649D01*
X179781054Y-374018772D01*
X179767969Y-374012583D01*
X179755553Y-374005142D01*
X179743927Y-373996519D01*
X179733202Y-373986798D01*
X179723481Y-373976073D01*
X179714858Y-373964447D01*
X179707417Y-373952031D01*
X179701228Y-373938946D01*
X179696351Y-373925317D01*
X179692834Y-373911276D01*
X179690710Y-373896958D01*
X179690000Y-373882500D01*
X179690000Y-373537500D01*
X179690710Y-373523042D01*
X179692834Y-373508724D01*
X179696351Y-373494683D01*
X179701228Y-373481054D01*
X179707417Y-373467969D01*
X179714858Y-373455553D01*
X179723481Y-373443927D01*
X179733202Y-373433202D01*
X179743927Y-373423481D01*
X179755553Y-373414858D01*
X179767969Y-373407417D01*
X179781054Y-373401228D01*
X179794683Y-373396351D01*
X179808724Y-373392834D01*
X179823042Y-373390710D01*
X179837500Y-373390000D01*
X180132500Y-373390000D01*
X180146958Y-373390710D01*
X180146958Y-373390710D01*
G37*
D24*
X179985000Y-373710000D03*
D18*
G36*
X181531958Y-457930710D02*
G01*
X181546276Y-457932834D01*
X181560317Y-457936351D01*
X181573946Y-457941228D01*
X181587031Y-457947417D01*
X181599447Y-457954858D01*
X181611073Y-457963481D01*
X181621798Y-457973202D01*
X181631519Y-457983927D01*
X181640142Y-457995553D01*
X181647583Y-458007969D01*
X181653772Y-458021054D01*
X181658649Y-458034683D01*
X181662166Y-458048724D01*
X181664290Y-458063042D01*
X181665000Y-458077500D01*
X181665000Y-458422500D01*
X181664290Y-458436958D01*
X181662166Y-458451276D01*
X181658649Y-458465317D01*
X181653772Y-458478946D01*
X181647583Y-458492031D01*
X181640142Y-458504447D01*
X181631519Y-458516073D01*
X181621798Y-458526798D01*
X181611073Y-458536519D01*
X181599447Y-458545142D01*
X181587031Y-458552583D01*
X181573946Y-458558772D01*
X181560317Y-458563649D01*
X181546276Y-458567166D01*
X181531958Y-458569290D01*
X181517500Y-458570000D01*
X181222500Y-458570000D01*
X181208042Y-458569290D01*
X181193724Y-458567166D01*
X181179683Y-458563649D01*
X181166054Y-458558772D01*
X181152969Y-458552583D01*
X181140553Y-458545142D01*
X181128927Y-458536519D01*
X181118202Y-458526798D01*
X181108481Y-458516073D01*
X181099858Y-458504447D01*
X181092417Y-458492031D01*
X181086228Y-458478946D01*
X181081351Y-458465317D01*
X181077834Y-458451276D01*
X181075710Y-458436958D01*
X181075000Y-458422500D01*
X181075000Y-458077500D01*
X181075710Y-458063042D01*
X181077834Y-458048724D01*
X181081351Y-458034683D01*
X181086228Y-458021054D01*
X181092417Y-458007969D01*
X181099858Y-457995553D01*
X181108481Y-457983927D01*
X181118202Y-457973202D01*
X181128927Y-457963481D01*
X181140553Y-457954858D01*
X181152969Y-457947417D01*
X181166054Y-457941228D01*
X181179683Y-457936351D01*
X181193724Y-457932834D01*
X181208042Y-457930710D01*
X181222500Y-457930000D01*
X181517500Y-457930000D01*
X181531958Y-457930710D01*
X181531958Y-457930710D01*
G37*
D24*
X181370000Y-458250000D03*
D18*
G36*
X180561958Y-457930710D02*
G01*
X180576276Y-457932834D01*
X180590317Y-457936351D01*
X180603946Y-457941228D01*
X180617031Y-457947417D01*
X180629447Y-457954858D01*
X180641073Y-457963481D01*
X180651798Y-457973202D01*
X180661519Y-457983927D01*
X180670142Y-457995553D01*
X180677583Y-458007969D01*
X180683772Y-458021054D01*
X180688649Y-458034683D01*
X180692166Y-458048724D01*
X180694290Y-458063042D01*
X180695000Y-458077500D01*
X180695000Y-458422500D01*
X180694290Y-458436958D01*
X180692166Y-458451276D01*
X180688649Y-458465317D01*
X180683772Y-458478946D01*
X180677583Y-458492031D01*
X180670142Y-458504447D01*
X180661519Y-458516073D01*
X180651798Y-458526798D01*
X180641073Y-458536519D01*
X180629447Y-458545142D01*
X180617031Y-458552583D01*
X180603946Y-458558772D01*
X180590317Y-458563649D01*
X180576276Y-458567166D01*
X180561958Y-458569290D01*
X180547500Y-458570000D01*
X180252500Y-458570000D01*
X180238042Y-458569290D01*
X180223724Y-458567166D01*
X180209683Y-458563649D01*
X180196054Y-458558772D01*
X180182969Y-458552583D01*
X180170553Y-458545142D01*
X180158927Y-458536519D01*
X180148202Y-458526798D01*
X180138481Y-458516073D01*
X180129858Y-458504447D01*
X180122417Y-458492031D01*
X180116228Y-458478946D01*
X180111351Y-458465317D01*
X180107834Y-458451276D01*
X180105710Y-458436958D01*
X180105000Y-458422500D01*
X180105000Y-458077500D01*
X180105710Y-458063042D01*
X180107834Y-458048724D01*
X180111351Y-458034683D01*
X180116228Y-458021054D01*
X180122417Y-458007969D01*
X180129858Y-457995553D01*
X180138481Y-457983927D01*
X180148202Y-457973202D01*
X180158927Y-457963481D01*
X180170553Y-457954858D01*
X180182969Y-457947417D01*
X180196054Y-457941228D01*
X180209683Y-457936351D01*
X180223724Y-457932834D01*
X180238042Y-457930710D01*
X180252500Y-457930000D01*
X180547500Y-457930000D01*
X180561958Y-457930710D01*
X180561958Y-457930710D01*
G37*
D24*
X180400000Y-458250000D03*
D18*
G36*
X167261958Y-457130710D02*
G01*
X167276276Y-457132834D01*
X167290317Y-457136351D01*
X167303946Y-457141228D01*
X167317031Y-457147417D01*
X167329447Y-457154858D01*
X167341073Y-457163481D01*
X167351798Y-457173202D01*
X167361519Y-457183927D01*
X167370142Y-457195553D01*
X167377583Y-457207969D01*
X167383772Y-457221054D01*
X167388649Y-457234683D01*
X167392166Y-457248724D01*
X167394290Y-457263042D01*
X167395000Y-457277500D01*
X167395000Y-457622500D01*
X167394290Y-457636958D01*
X167392166Y-457651276D01*
X167388649Y-457665317D01*
X167383772Y-457678946D01*
X167377583Y-457692031D01*
X167370142Y-457704447D01*
X167361519Y-457716073D01*
X167351798Y-457726798D01*
X167341073Y-457736519D01*
X167329447Y-457745142D01*
X167317031Y-457752583D01*
X167303946Y-457758772D01*
X167290317Y-457763649D01*
X167276276Y-457767166D01*
X167261958Y-457769290D01*
X167247500Y-457770000D01*
X166952500Y-457770000D01*
X166938042Y-457769290D01*
X166923724Y-457767166D01*
X166909683Y-457763649D01*
X166896054Y-457758772D01*
X166882969Y-457752583D01*
X166870553Y-457745142D01*
X166858927Y-457736519D01*
X166848202Y-457726798D01*
X166838481Y-457716073D01*
X166829858Y-457704447D01*
X166822417Y-457692031D01*
X166816228Y-457678946D01*
X166811351Y-457665317D01*
X166807834Y-457651276D01*
X166805710Y-457636958D01*
X166805000Y-457622500D01*
X166805000Y-457277500D01*
X166805710Y-457263042D01*
X166807834Y-457248724D01*
X166811351Y-457234683D01*
X166816228Y-457221054D01*
X166822417Y-457207969D01*
X166829858Y-457195553D01*
X166838481Y-457183927D01*
X166848202Y-457173202D01*
X166858927Y-457163481D01*
X166870553Y-457154858D01*
X166882969Y-457147417D01*
X166896054Y-457141228D01*
X166909683Y-457136351D01*
X166923724Y-457132834D01*
X166938042Y-457130710D01*
X166952500Y-457130000D01*
X167247500Y-457130000D01*
X167261958Y-457130710D01*
X167261958Y-457130710D01*
G37*
D24*
X167100000Y-457450000D03*
D18*
G36*
X168231958Y-457130710D02*
G01*
X168246276Y-457132834D01*
X168260317Y-457136351D01*
X168273946Y-457141228D01*
X168287031Y-457147417D01*
X168299447Y-457154858D01*
X168311073Y-457163481D01*
X168321798Y-457173202D01*
X168331519Y-457183927D01*
X168340142Y-457195553D01*
X168347583Y-457207969D01*
X168353772Y-457221054D01*
X168358649Y-457234683D01*
X168362166Y-457248724D01*
X168364290Y-457263042D01*
X168365000Y-457277500D01*
X168365000Y-457622500D01*
X168364290Y-457636958D01*
X168362166Y-457651276D01*
X168358649Y-457665317D01*
X168353772Y-457678946D01*
X168347583Y-457692031D01*
X168340142Y-457704447D01*
X168331519Y-457716073D01*
X168321798Y-457726798D01*
X168311073Y-457736519D01*
X168299447Y-457745142D01*
X168287031Y-457752583D01*
X168273946Y-457758772D01*
X168260317Y-457763649D01*
X168246276Y-457767166D01*
X168231958Y-457769290D01*
X168217500Y-457770000D01*
X167922500Y-457770000D01*
X167908042Y-457769290D01*
X167893724Y-457767166D01*
X167879683Y-457763649D01*
X167866054Y-457758772D01*
X167852969Y-457752583D01*
X167840553Y-457745142D01*
X167828927Y-457736519D01*
X167818202Y-457726798D01*
X167808481Y-457716073D01*
X167799858Y-457704447D01*
X167792417Y-457692031D01*
X167786228Y-457678946D01*
X167781351Y-457665317D01*
X167777834Y-457651276D01*
X167775710Y-457636958D01*
X167775000Y-457622500D01*
X167775000Y-457277500D01*
X167775710Y-457263042D01*
X167777834Y-457248724D01*
X167781351Y-457234683D01*
X167786228Y-457221054D01*
X167792417Y-457207969D01*
X167799858Y-457195553D01*
X167808481Y-457183927D01*
X167818202Y-457173202D01*
X167828927Y-457163481D01*
X167840553Y-457154858D01*
X167852969Y-457147417D01*
X167866054Y-457141228D01*
X167879683Y-457136351D01*
X167893724Y-457132834D01*
X167908042Y-457130710D01*
X167922500Y-457130000D01*
X168217500Y-457130000D01*
X168231958Y-457130710D01*
X168231958Y-457130710D01*
G37*
D24*
X168070000Y-457450000D03*
D18*
G36*
X181531958Y-455880710D02*
G01*
X181546276Y-455882834D01*
X181560317Y-455886351D01*
X181573946Y-455891228D01*
X181587031Y-455897417D01*
X181599447Y-455904858D01*
X181611073Y-455913481D01*
X181621798Y-455923202D01*
X181631519Y-455933927D01*
X181640142Y-455945553D01*
X181647583Y-455957969D01*
X181653772Y-455971054D01*
X181658649Y-455984683D01*
X181662166Y-455998724D01*
X181664290Y-456013042D01*
X181665000Y-456027500D01*
X181665000Y-456372500D01*
X181664290Y-456386958D01*
X181662166Y-456401276D01*
X181658649Y-456415317D01*
X181653772Y-456428946D01*
X181647583Y-456442031D01*
X181640142Y-456454447D01*
X181631519Y-456466073D01*
X181621798Y-456476798D01*
X181611073Y-456486519D01*
X181599447Y-456495142D01*
X181587031Y-456502583D01*
X181573946Y-456508772D01*
X181560317Y-456513649D01*
X181546276Y-456517166D01*
X181531958Y-456519290D01*
X181517500Y-456520000D01*
X181222500Y-456520000D01*
X181208042Y-456519290D01*
X181193724Y-456517166D01*
X181179683Y-456513649D01*
X181166054Y-456508772D01*
X181152969Y-456502583D01*
X181140553Y-456495142D01*
X181128927Y-456486519D01*
X181118202Y-456476798D01*
X181108481Y-456466073D01*
X181099858Y-456454447D01*
X181092417Y-456442031D01*
X181086228Y-456428946D01*
X181081351Y-456415317D01*
X181077834Y-456401276D01*
X181075710Y-456386958D01*
X181075000Y-456372500D01*
X181075000Y-456027500D01*
X181075710Y-456013042D01*
X181077834Y-455998724D01*
X181081351Y-455984683D01*
X181086228Y-455971054D01*
X181092417Y-455957969D01*
X181099858Y-455945553D01*
X181108481Y-455933927D01*
X181118202Y-455923202D01*
X181128927Y-455913481D01*
X181140553Y-455904858D01*
X181152969Y-455897417D01*
X181166054Y-455891228D01*
X181179683Y-455886351D01*
X181193724Y-455882834D01*
X181208042Y-455880710D01*
X181222500Y-455880000D01*
X181517500Y-455880000D01*
X181531958Y-455880710D01*
X181531958Y-455880710D01*
G37*
D24*
X181370000Y-456200000D03*
D18*
G36*
X180561958Y-455880710D02*
G01*
X180576276Y-455882834D01*
X180590317Y-455886351D01*
X180603946Y-455891228D01*
X180617031Y-455897417D01*
X180629447Y-455904858D01*
X180641073Y-455913481D01*
X180651798Y-455923202D01*
X180661519Y-455933927D01*
X180670142Y-455945553D01*
X180677583Y-455957969D01*
X180683772Y-455971054D01*
X180688649Y-455984683D01*
X180692166Y-455998724D01*
X180694290Y-456013042D01*
X180695000Y-456027500D01*
X180695000Y-456372500D01*
X180694290Y-456386958D01*
X180692166Y-456401276D01*
X180688649Y-456415317D01*
X180683772Y-456428946D01*
X180677583Y-456442031D01*
X180670142Y-456454447D01*
X180661519Y-456466073D01*
X180651798Y-456476798D01*
X180641073Y-456486519D01*
X180629447Y-456495142D01*
X180617031Y-456502583D01*
X180603946Y-456508772D01*
X180590317Y-456513649D01*
X180576276Y-456517166D01*
X180561958Y-456519290D01*
X180547500Y-456520000D01*
X180252500Y-456520000D01*
X180238042Y-456519290D01*
X180223724Y-456517166D01*
X180209683Y-456513649D01*
X180196054Y-456508772D01*
X180182969Y-456502583D01*
X180170553Y-456495142D01*
X180158927Y-456486519D01*
X180148202Y-456476798D01*
X180138481Y-456466073D01*
X180129858Y-456454447D01*
X180122417Y-456442031D01*
X180116228Y-456428946D01*
X180111351Y-456415317D01*
X180107834Y-456401276D01*
X180105710Y-456386958D01*
X180105000Y-456372500D01*
X180105000Y-456027500D01*
X180105710Y-456013042D01*
X180107834Y-455998724D01*
X180111351Y-455984683D01*
X180116228Y-455971054D01*
X180122417Y-455957969D01*
X180129858Y-455945553D01*
X180138481Y-455933927D01*
X180148202Y-455923202D01*
X180158927Y-455913481D01*
X180170553Y-455904858D01*
X180182969Y-455897417D01*
X180196054Y-455891228D01*
X180209683Y-455886351D01*
X180223724Y-455882834D01*
X180238042Y-455880710D01*
X180252500Y-455880000D01*
X180547500Y-455880000D01*
X180561958Y-455880710D01*
X180561958Y-455880710D01*
G37*
D24*
X180400000Y-456200000D03*
D18*
G36*
X170461958Y-444820710D02*
G01*
X170476276Y-444822834D01*
X170490317Y-444826351D01*
X170503946Y-444831228D01*
X170517031Y-444837417D01*
X170529447Y-444844858D01*
X170541073Y-444853481D01*
X170551798Y-444863202D01*
X170561519Y-444873927D01*
X170570142Y-444885553D01*
X170577583Y-444897969D01*
X170583772Y-444911054D01*
X170588649Y-444924683D01*
X170592166Y-444938724D01*
X170594290Y-444953042D01*
X170595000Y-444967500D01*
X170595000Y-445262500D01*
X170594290Y-445276958D01*
X170592166Y-445291276D01*
X170588649Y-445305317D01*
X170583772Y-445318946D01*
X170577583Y-445332031D01*
X170570142Y-445344447D01*
X170561519Y-445356073D01*
X170551798Y-445366798D01*
X170541073Y-445376519D01*
X170529447Y-445385142D01*
X170517031Y-445392583D01*
X170503946Y-445398772D01*
X170490317Y-445403649D01*
X170476276Y-445407166D01*
X170461958Y-445409290D01*
X170447500Y-445410000D01*
X170102500Y-445410000D01*
X170088042Y-445409290D01*
X170073724Y-445407166D01*
X170059683Y-445403649D01*
X170046054Y-445398772D01*
X170032969Y-445392583D01*
X170020553Y-445385142D01*
X170008927Y-445376519D01*
X169998202Y-445366798D01*
X169988481Y-445356073D01*
X169979858Y-445344447D01*
X169972417Y-445332031D01*
X169966228Y-445318946D01*
X169961351Y-445305317D01*
X169957834Y-445291276D01*
X169955710Y-445276958D01*
X169955000Y-445262500D01*
X169955000Y-444967500D01*
X169955710Y-444953042D01*
X169957834Y-444938724D01*
X169961351Y-444924683D01*
X169966228Y-444911054D01*
X169972417Y-444897969D01*
X169979858Y-444885553D01*
X169988481Y-444873927D01*
X169998202Y-444863202D01*
X170008927Y-444853481D01*
X170020553Y-444844858D01*
X170032969Y-444837417D01*
X170046054Y-444831228D01*
X170059683Y-444826351D01*
X170073724Y-444822834D01*
X170088042Y-444820710D01*
X170102500Y-444820000D01*
X170447500Y-444820000D01*
X170461958Y-444820710D01*
X170461958Y-444820710D01*
G37*
D24*
X170275000Y-445115000D03*
D18*
G36*
X170461958Y-445790710D02*
G01*
X170476276Y-445792834D01*
X170490317Y-445796351D01*
X170503946Y-445801228D01*
X170517031Y-445807417D01*
X170529447Y-445814858D01*
X170541073Y-445823481D01*
X170551798Y-445833202D01*
X170561519Y-445843927D01*
X170570142Y-445855553D01*
X170577583Y-445867969D01*
X170583772Y-445881054D01*
X170588649Y-445894683D01*
X170592166Y-445908724D01*
X170594290Y-445923042D01*
X170595000Y-445937500D01*
X170595000Y-446232500D01*
X170594290Y-446246958D01*
X170592166Y-446261276D01*
X170588649Y-446275317D01*
X170583772Y-446288946D01*
X170577583Y-446302031D01*
X170570142Y-446314447D01*
X170561519Y-446326073D01*
X170551798Y-446336798D01*
X170541073Y-446346519D01*
X170529447Y-446355142D01*
X170517031Y-446362583D01*
X170503946Y-446368772D01*
X170490317Y-446373649D01*
X170476276Y-446377166D01*
X170461958Y-446379290D01*
X170447500Y-446380000D01*
X170102500Y-446380000D01*
X170088042Y-446379290D01*
X170073724Y-446377166D01*
X170059683Y-446373649D01*
X170046054Y-446368772D01*
X170032969Y-446362583D01*
X170020553Y-446355142D01*
X170008927Y-446346519D01*
X169998202Y-446336798D01*
X169988481Y-446326073D01*
X169979858Y-446314447D01*
X169972417Y-446302031D01*
X169966228Y-446288946D01*
X169961351Y-446275317D01*
X169957834Y-446261276D01*
X169955710Y-446246958D01*
X169955000Y-446232500D01*
X169955000Y-445937500D01*
X169955710Y-445923042D01*
X169957834Y-445908724D01*
X169961351Y-445894683D01*
X169966228Y-445881054D01*
X169972417Y-445867969D01*
X169979858Y-445855553D01*
X169988481Y-445843927D01*
X169998202Y-445833202D01*
X170008927Y-445823481D01*
X170020553Y-445814858D01*
X170032969Y-445807417D01*
X170046054Y-445801228D01*
X170059683Y-445796351D01*
X170073724Y-445792834D01*
X170088042Y-445790710D01*
X170102500Y-445790000D01*
X170447500Y-445790000D01*
X170461958Y-445790710D01*
X170461958Y-445790710D01*
G37*
D24*
X170275000Y-446085000D03*
D18*
G36*
X171511958Y-444830710D02*
G01*
X171526276Y-444832834D01*
X171540317Y-444836351D01*
X171553946Y-444841228D01*
X171567031Y-444847417D01*
X171579447Y-444854858D01*
X171591073Y-444863481D01*
X171601798Y-444873202D01*
X171611519Y-444883927D01*
X171620142Y-444895553D01*
X171627583Y-444907969D01*
X171633772Y-444921054D01*
X171638649Y-444934683D01*
X171642166Y-444948724D01*
X171644290Y-444963042D01*
X171645000Y-444977500D01*
X171645000Y-445272500D01*
X171644290Y-445286958D01*
X171642166Y-445301276D01*
X171638649Y-445315317D01*
X171633772Y-445328946D01*
X171627583Y-445342031D01*
X171620142Y-445354447D01*
X171611519Y-445366073D01*
X171601798Y-445376798D01*
X171591073Y-445386519D01*
X171579447Y-445395142D01*
X171567031Y-445402583D01*
X171553946Y-445408772D01*
X171540317Y-445413649D01*
X171526276Y-445417166D01*
X171511958Y-445419290D01*
X171497500Y-445420000D01*
X171152500Y-445420000D01*
X171138042Y-445419290D01*
X171123724Y-445417166D01*
X171109683Y-445413649D01*
X171096054Y-445408772D01*
X171082969Y-445402583D01*
X171070553Y-445395142D01*
X171058927Y-445386519D01*
X171048202Y-445376798D01*
X171038481Y-445366073D01*
X171029858Y-445354447D01*
X171022417Y-445342031D01*
X171016228Y-445328946D01*
X171011351Y-445315317D01*
X171007834Y-445301276D01*
X171005710Y-445286958D01*
X171005000Y-445272500D01*
X171005000Y-444977500D01*
X171005710Y-444963042D01*
X171007834Y-444948724D01*
X171011351Y-444934683D01*
X171016228Y-444921054D01*
X171022417Y-444907969D01*
X171029858Y-444895553D01*
X171038481Y-444883927D01*
X171048202Y-444873202D01*
X171058927Y-444863481D01*
X171070553Y-444854858D01*
X171082969Y-444847417D01*
X171096054Y-444841228D01*
X171109683Y-444836351D01*
X171123724Y-444832834D01*
X171138042Y-444830710D01*
X171152500Y-444830000D01*
X171497500Y-444830000D01*
X171511958Y-444830710D01*
X171511958Y-444830710D01*
G37*
D24*
X171325000Y-445125000D03*
D18*
G36*
X171511958Y-445800710D02*
G01*
X171526276Y-445802834D01*
X171540317Y-445806351D01*
X171553946Y-445811228D01*
X171567031Y-445817417D01*
X171579447Y-445824858D01*
X171591073Y-445833481D01*
X171601798Y-445843202D01*
X171611519Y-445853927D01*
X171620142Y-445865553D01*
X171627583Y-445877969D01*
X171633772Y-445891054D01*
X171638649Y-445904683D01*
X171642166Y-445918724D01*
X171644290Y-445933042D01*
X171645000Y-445947500D01*
X171645000Y-446242500D01*
X171644290Y-446256958D01*
X171642166Y-446271276D01*
X171638649Y-446285317D01*
X171633772Y-446298946D01*
X171627583Y-446312031D01*
X171620142Y-446324447D01*
X171611519Y-446336073D01*
X171601798Y-446346798D01*
X171591073Y-446356519D01*
X171579447Y-446365142D01*
X171567031Y-446372583D01*
X171553946Y-446378772D01*
X171540317Y-446383649D01*
X171526276Y-446387166D01*
X171511958Y-446389290D01*
X171497500Y-446390000D01*
X171152500Y-446390000D01*
X171138042Y-446389290D01*
X171123724Y-446387166D01*
X171109683Y-446383649D01*
X171096054Y-446378772D01*
X171082969Y-446372583D01*
X171070553Y-446365142D01*
X171058927Y-446356519D01*
X171048202Y-446346798D01*
X171038481Y-446336073D01*
X171029858Y-446324447D01*
X171022417Y-446312031D01*
X171016228Y-446298946D01*
X171011351Y-446285317D01*
X171007834Y-446271276D01*
X171005710Y-446256958D01*
X171005000Y-446242500D01*
X171005000Y-445947500D01*
X171005710Y-445933042D01*
X171007834Y-445918724D01*
X171011351Y-445904683D01*
X171016228Y-445891054D01*
X171022417Y-445877969D01*
X171029858Y-445865553D01*
X171038481Y-445853927D01*
X171048202Y-445843202D01*
X171058927Y-445833481D01*
X171070553Y-445824858D01*
X171082969Y-445817417D01*
X171096054Y-445811228D01*
X171109683Y-445806351D01*
X171123724Y-445802834D01*
X171138042Y-445800710D01*
X171152500Y-445800000D01*
X171497500Y-445800000D01*
X171511958Y-445800710D01*
X171511958Y-445800710D01*
G37*
D24*
X171325000Y-446095000D03*
D18*
G36*
X165016958Y-423470710D02*
G01*
X165031276Y-423472834D01*
X165045317Y-423476351D01*
X165058946Y-423481228D01*
X165072031Y-423487417D01*
X165084447Y-423494858D01*
X165096073Y-423503481D01*
X165106798Y-423513202D01*
X165116519Y-423523927D01*
X165125142Y-423535553D01*
X165132583Y-423547969D01*
X165138772Y-423561054D01*
X165143649Y-423574683D01*
X165147166Y-423588724D01*
X165149290Y-423603042D01*
X165150000Y-423617500D01*
X165150000Y-423962500D01*
X165149290Y-423976958D01*
X165147166Y-423991276D01*
X165143649Y-424005317D01*
X165138772Y-424018946D01*
X165132583Y-424032031D01*
X165125142Y-424044447D01*
X165116519Y-424056073D01*
X165106798Y-424066798D01*
X165096073Y-424076519D01*
X165084447Y-424085142D01*
X165072031Y-424092583D01*
X165058946Y-424098772D01*
X165045317Y-424103649D01*
X165031276Y-424107166D01*
X165016958Y-424109290D01*
X165002500Y-424110000D01*
X164707500Y-424110000D01*
X164693042Y-424109290D01*
X164678724Y-424107166D01*
X164664683Y-424103649D01*
X164651054Y-424098772D01*
X164637969Y-424092583D01*
X164625553Y-424085142D01*
X164613927Y-424076519D01*
X164603202Y-424066798D01*
X164593481Y-424056073D01*
X164584858Y-424044447D01*
X164577417Y-424032031D01*
X164571228Y-424018946D01*
X164566351Y-424005317D01*
X164562834Y-423991276D01*
X164560710Y-423976958D01*
X164560000Y-423962500D01*
X164560000Y-423617500D01*
X164560710Y-423603042D01*
X164562834Y-423588724D01*
X164566351Y-423574683D01*
X164571228Y-423561054D01*
X164577417Y-423547969D01*
X164584858Y-423535553D01*
X164593481Y-423523927D01*
X164603202Y-423513202D01*
X164613927Y-423503481D01*
X164625553Y-423494858D01*
X164637969Y-423487417D01*
X164651054Y-423481228D01*
X164664683Y-423476351D01*
X164678724Y-423472834D01*
X164693042Y-423470710D01*
X164707500Y-423470000D01*
X165002500Y-423470000D01*
X165016958Y-423470710D01*
X165016958Y-423470710D01*
G37*
D24*
X164855000Y-423790000D03*
D18*
G36*
X165986958Y-423470710D02*
G01*
X166001276Y-423472834D01*
X166015317Y-423476351D01*
X166028946Y-423481228D01*
X166042031Y-423487417D01*
X166054447Y-423494858D01*
X166066073Y-423503481D01*
X166076798Y-423513202D01*
X166086519Y-423523927D01*
X166095142Y-423535553D01*
X166102583Y-423547969D01*
X166108772Y-423561054D01*
X166113649Y-423574683D01*
X166117166Y-423588724D01*
X166119290Y-423603042D01*
X166120000Y-423617500D01*
X166120000Y-423962500D01*
X166119290Y-423976958D01*
X166117166Y-423991276D01*
X166113649Y-424005317D01*
X166108772Y-424018946D01*
X166102583Y-424032031D01*
X166095142Y-424044447D01*
X166086519Y-424056073D01*
X166076798Y-424066798D01*
X166066073Y-424076519D01*
X166054447Y-424085142D01*
X166042031Y-424092583D01*
X166028946Y-424098772D01*
X166015317Y-424103649D01*
X166001276Y-424107166D01*
X165986958Y-424109290D01*
X165972500Y-424110000D01*
X165677500Y-424110000D01*
X165663042Y-424109290D01*
X165648724Y-424107166D01*
X165634683Y-424103649D01*
X165621054Y-424098772D01*
X165607969Y-424092583D01*
X165595553Y-424085142D01*
X165583927Y-424076519D01*
X165573202Y-424066798D01*
X165563481Y-424056073D01*
X165554858Y-424044447D01*
X165547417Y-424032031D01*
X165541228Y-424018946D01*
X165536351Y-424005317D01*
X165532834Y-423991276D01*
X165530710Y-423976958D01*
X165530000Y-423962500D01*
X165530000Y-423617500D01*
X165530710Y-423603042D01*
X165532834Y-423588724D01*
X165536351Y-423574683D01*
X165541228Y-423561054D01*
X165547417Y-423547969D01*
X165554858Y-423535553D01*
X165563481Y-423523927D01*
X165573202Y-423513202D01*
X165583927Y-423503481D01*
X165595553Y-423494858D01*
X165607969Y-423487417D01*
X165621054Y-423481228D01*
X165634683Y-423476351D01*
X165648724Y-423472834D01*
X165663042Y-423470710D01*
X165677500Y-423470000D01*
X165972500Y-423470000D01*
X165986958Y-423470710D01*
X165986958Y-423470710D01*
G37*
D24*
X165825000Y-423790000D03*
D18*
G36*
X168161958Y-462630710D02*
G01*
X168176276Y-462632834D01*
X168190317Y-462636351D01*
X168203946Y-462641228D01*
X168217031Y-462647417D01*
X168229447Y-462654858D01*
X168241073Y-462663481D01*
X168251798Y-462673202D01*
X168261519Y-462683927D01*
X168270142Y-462695553D01*
X168277583Y-462707969D01*
X168283772Y-462721054D01*
X168288649Y-462734683D01*
X168292166Y-462748724D01*
X168294290Y-462763042D01*
X168295000Y-462777500D01*
X168295000Y-463122500D01*
X168294290Y-463136958D01*
X168292166Y-463151276D01*
X168288649Y-463165317D01*
X168283772Y-463178946D01*
X168277583Y-463192031D01*
X168270142Y-463204447D01*
X168261519Y-463216073D01*
X168251798Y-463226798D01*
X168241073Y-463236519D01*
X168229447Y-463245142D01*
X168217031Y-463252583D01*
X168203946Y-463258772D01*
X168190317Y-463263649D01*
X168176276Y-463267166D01*
X168161958Y-463269290D01*
X168147500Y-463270000D01*
X167852500Y-463270000D01*
X167838042Y-463269290D01*
X167823724Y-463267166D01*
X167809683Y-463263649D01*
X167796054Y-463258772D01*
X167782969Y-463252583D01*
X167770553Y-463245142D01*
X167758927Y-463236519D01*
X167748202Y-463226798D01*
X167738481Y-463216073D01*
X167729858Y-463204447D01*
X167722417Y-463192031D01*
X167716228Y-463178946D01*
X167711351Y-463165317D01*
X167707834Y-463151276D01*
X167705710Y-463136958D01*
X167705000Y-463122500D01*
X167705000Y-462777500D01*
X167705710Y-462763042D01*
X167707834Y-462748724D01*
X167711351Y-462734683D01*
X167716228Y-462721054D01*
X167722417Y-462707969D01*
X167729858Y-462695553D01*
X167738481Y-462683927D01*
X167748202Y-462673202D01*
X167758927Y-462663481D01*
X167770553Y-462654858D01*
X167782969Y-462647417D01*
X167796054Y-462641228D01*
X167809683Y-462636351D01*
X167823724Y-462632834D01*
X167838042Y-462630710D01*
X167852500Y-462630000D01*
X168147500Y-462630000D01*
X168161958Y-462630710D01*
X168161958Y-462630710D01*
G37*
D24*
X168000000Y-462950000D03*
D18*
G36*
X167191958Y-462630710D02*
G01*
X167206276Y-462632834D01*
X167220317Y-462636351D01*
X167233946Y-462641228D01*
X167247031Y-462647417D01*
X167259447Y-462654858D01*
X167271073Y-462663481D01*
X167281798Y-462673202D01*
X167291519Y-462683927D01*
X167300142Y-462695553D01*
X167307583Y-462707969D01*
X167313772Y-462721054D01*
X167318649Y-462734683D01*
X167322166Y-462748724D01*
X167324290Y-462763042D01*
X167325000Y-462777500D01*
X167325000Y-463122500D01*
X167324290Y-463136958D01*
X167322166Y-463151276D01*
X167318649Y-463165317D01*
X167313772Y-463178946D01*
X167307583Y-463192031D01*
X167300142Y-463204447D01*
X167291519Y-463216073D01*
X167281798Y-463226798D01*
X167271073Y-463236519D01*
X167259447Y-463245142D01*
X167247031Y-463252583D01*
X167233946Y-463258772D01*
X167220317Y-463263649D01*
X167206276Y-463267166D01*
X167191958Y-463269290D01*
X167177500Y-463270000D01*
X166882500Y-463270000D01*
X166868042Y-463269290D01*
X166853724Y-463267166D01*
X166839683Y-463263649D01*
X166826054Y-463258772D01*
X166812969Y-463252583D01*
X166800553Y-463245142D01*
X166788927Y-463236519D01*
X166778202Y-463226798D01*
X166768481Y-463216073D01*
X166759858Y-463204447D01*
X166752417Y-463192031D01*
X166746228Y-463178946D01*
X166741351Y-463165317D01*
X166737834Y-463151276D01*
X166735710Y-463136958D01*
X166735000Y-463122500D01*
X166735000Y-462777500D01*
X166735710Y-462763042D01*
X166737834Y-462748724D01*
X166741351Y-462734683D01*
X166746228Y-462721054D01*
X166752417Y-462707969D01*
X166759858Y-462695553D01*
X166768481Y-462683927D01*
X166778202Y-462673202D01*
X166788927Y-462663481D01*
X166800553Y-462654858D01*
X166812969Y-462647417D01*
X166826054Y-462641228D01*
X166839683Y-462636351D01*
X166853724Y-462632834D01*
X166868042Y-462630710D01*
X166882500Y-462630000D01*
X167177500Y-462630000D01*
X167191958Y-462630710D01*
X167191958Y-462630710D01*
G37*
D24*
X167030000Y-462950000D03*
D18*
G36*
X180141958Y-372410710D02*
G01*
X180156276Y-372412834D01*
X180170317Y-372416351D01*
X180183946Y-372421228D01*
X180197031Y-372427417D01*
X180209447Y-372434858D01*
X180221073Y-372443481D01*
X180231798Y-372453202D01*
X180241519Y-372463927D01*
X180250142Y-372475553D01*
X180257583Y-372487969D01*
X180263772Y-372501054D01*
X180268649Y-372514683D01*
X180272166Y-372528724D01*
X180274290Y-372543042D01*
X180275000Y-372557500D01*
X180275000Y-372902500D01*
X180274290Y-372916958D01*
X180272166Y-372931276D01*
X180268649Y-372945317D01*
X180263772Y-372958946D01*
X180257583Y-372972031D01*
X180250142Y-372984447D01*
X180241519Y-372996073D01*
X180231798Y-373006798D01*
X180221073Y-373016519D01*
X180209447Y-373025142D01*
X180197031Y-373032583D01*
X180183946Y-373038772D01*
X180170317Y-373043649D01*
X180156276Y-373047166D01*
X180141958Y-373049290D01*
X180127500Y-373050000D01*
X179832500Y-373050000D01*
X179818042Y-373049290D01*
X179803724Y-373047166D01*
X179789683Y-373043649D01*
X179776054Y-373038772D01*
X179762969Y-373032583D01*
X179750553Y-373025142D01*
X179738927Y-373016519D01*
X179728202Y-373006798D01*
X179718481Y-372996073D01*
X179709858Y-372984447D01*
X179702417Y-372972031D01*
X179696228Y-372958946D01*
X179691351Y-372945317D01*
X179687834Y-372931276D01*
X179685710Y-372916958D01*
X179685000Y-372902500D01*
X179685000Y-372557500D01*
X179685710Y-372543042D01*
X179687834Y-372528724D01*
X179691351Y-372514683D01*
X179696228Y-372501054D01*
X179702417Y-372487969D01*
X179709858Y-372475553D01*
X179718481Y-372463927D01*
X179728202Y-372453202D01*
X179738927Y-372443481D01*
X179750553Y-372434858D01*
X179762969Y-372427417D01*
X179776054Y-372421228D01*
X179789683Y-372416351D01*
X179803724Y-372412834D01*
X179818042Y-372410710D01*
X179832500Y-372410000D01*
X180127500Y-372410000D01*
X180141958Y-372410710D01*
X180141958Y-372410710D01*
G37*
D24*
X179980000Y-372730000D03*
D18*
G36*
X179171958Y-372410710D02*
G01*
X179186276Y-372412834D01*
X179200317Y-372416351D01*
X179213946Y-372421228D01*
X179227031Y-372427417D01*
X179239447Y-372434858D01*
X179251073Y-372443481D01*
X179261798Y-372453202D01*
X179271519Y-372463927D01*
X179280142Y-372475553D01*
X179287583Y-372487969D01*
X179293772Y-372501054D01*
X179298649Y-372514683D01*
X179302166Y-372528724D01*
X179304290Y-372543042D01*
X179305000Y-372557500D01*
X179305000Y-372902500D01*
X179304290Y-372916958D01*
X179302166Y-372931276D01*
X179298649Y-372945317D01*
X179293772Y-372958946D01*
X179287583Y-372972031D01*
X179280142Y-372984447D01*
X179271519Y-372996073D01*
X179261798Y-373006798D01*
X179251073Y-373016519D01*
X179239447Y-373025142D01*
X179227031Y-373032583D01*
X179213946Y-373038772D01*
X179200317Y-373043649D01*
X179186276Y-373047166D01*
X179171958Y-373049290D01*
X179157500Y-373050000D01*
X178862500Y-373050000D01*
X178848042Y-373049290D01*
X178833724Y-373047166D01*
X178819683Y-373043649D01*
X178806054Y-373038772D01*
X178792969Y-373032583D01*
X178780553Y-373025142D01*
X178768927Y-373016519D01*
X178758202Y-373006798D01*
X178748481Y-372996073D01*
X178739858Y-372984447D01*
X178732417Y-372972031D01*
X178726228Y-372958946D01*
X178721351Y-372945317D01*
X178717834Y-372931276D01*
X178715710Y-372916958D01*
X178715000Y-372902500D01*
X178715000Y-372557500D01*
X178715710Y-372543042D01*
X178717834Y-372528724D01*
X178721351Y-372514683D01*
X178726228Y-372501054D01*
X178732417Y-372487969D01*
X178739858Y-372475553D01*
X178748481Y-372463927D01*
X178758202Y-372453202D01*
X178768927Y-372443481D01*
X178780553Y-372434858D01*
X178792969Y-372427417D01*
X178806054Y-372421228D01*
X178819683Y-372416351D01*
X178833724Y-372412834D01*
X178848042Y-372410710D01*
X178862500Y-372410000D01*
X179157500Y-372410000D01*
X179171958Y-372410710D01*
X179171958Y-372410710D01*
G37*
D24*
X179010000Y-372730000D03*
D18*
G36*
X173174504Y-386251204D02*
G01*
X173198773Y-386254804D01*
X173222571Y-386260765D01*
X173245671Y-386269030D01*
X173267849Y-386279520D01*
X173288893Y-386292133D01*
X173308598Y-386306747D01*
X173326777Y-386323223D01*
X173343253Y-386341402D01*
X173357867Y-386361107D01*
X173370480Y-386382151D01*
X173380970Y-386404329D01*
X173389235Y-386427429D01*
X173395196Y-386451227D01*
X173398796Y-386475496D01*
X173400000Y-386500000D01*
X173400000Y-387250000D01*
X173398796Y-387274504D01*
X173395196Y-387298773D01*
X173389235Y-387322571D01*
X173380970Y-387345671D01*
X173370480Y-387367849D01*
X173357867Y-387388893D01*
X173343253Y-387408598D01*
X173326777Y-387426777D01*
X173308598Y-387443253D01*
X173288893Y-387457867D01*
X173267849Y-387470480D01*
X173245671Y-387480970D01*
X173222571Y-387489235D01*
X173198773Y-387495196D01*
X173174504Y-387498796D01*
X173150000Y-387500000D01*
X171900000Y-387500000D01*
X171875496Y-387498796D01*
X171851227Y-387495196D01*
X171827429Y-387489235D01*
X171804329Y-387480970D01*
X171782151Y-387470480D01*
X171761107Y-387457867D01*
X171741402Y-387443253D01*
X171723223Y-387426777D01*
X171706747Y-387408598D01*
X171692133Y-387388893D01*
X171679520Y-387367849D01*
X171669030Y-387345671D01*
X171660765Y-387322571D01*
X171654804Y-387298773D01*
X171651204Y-387274504D01*
X171650000Y-387250000D01*
X171650000Y-386500000D01*
X171651204Y-386475496D01*
X171654804Y-386451227D01*
X171660765Y-386427429D01*
X171669030Y-386404329D01*
X171679520Y-386382151D01*
X171692133Y-386361107D01*
X171706747Y-386341402D01*
X171723223Y-386323223D01*
X171741402Y-386306747D01*
X171761107Y-386292133D01*
X171782151Y-386279520D01*
X171804329Y-386269030D01*
X171827429Y-386260765D01*
X171851227Y-386254804D01*
X171875496Y-386251204D01*
X171900000Y-386250000D01*
X173150000Y-386250000D01*
X173174504Y-386251204D01*
X173174504Y-386251204D01*
G37*
D19*
X172525000Y-386875000D03*
D18*
G36*
X173174504Y-389051204D02*
G01*
X173198773Y-389054804D01*
X173222571Y-389060765D01*
X173245671Y-389069030D01*
X173267849Y-389079520D01*
X173288893Y-389092133D01*
X173308598Y-389106747D01*
X173326777Y-389123223D01*
X173343253Y-389141402D01*
X173357867Y-389161107D01*
X173370480Y-389182151D01*
X173380970Y-389204329D01*
X173389235Y-389227429D01*
X173395196Y-389251227D01*
X173398796Y-389275496D01*
X173400000Y-389300000D01*
X173400000Y-390050000D01*
X173398796Y-390074504D01*
X173395196Y-390098773D01*
X173389235Y-390122571D01*
X173380970Y-390145671D01*
X173370480Y-390167849D01*
X173357867Y-390188893D01*
X173343253Y-390208598D01*
X173326777Y-390226777D01*
X173308598Y-390243253D01*
X173288893Y-390257867D01*
X173267849Y-390270480D01*
X173245671Y-390280970D01*
X173222571Y-390289235D01*
X173198773Y-390295196D01*
X173174504Y-390298796D01*
X173150000Y-390300000D01*
X171900000Y-390300000D01*
X171875496Y-390298796D01*
X171851227Y-390295196D01*
X171827429Y-390289235D01*
X171804329Y-390280970D01*
X171782151Y-390270480D01*
X171761107Y-390257867D01*
X171741402Y-390243253D01*
X171723223Y-390226777D01*
X171706747Y-390208598D01*
X171692133Y-390188893D01*
X171679520Y-390167849D01*
X171669030Y-390145671D01*
X171660765Y-390122571D01*
X171654804Y-390098773D01*
X171651204Y-390074504D01*
X171650000Y-390050000D01*
X171650000Y-389300000D01*
X171651204Y-389275496D01*
X171654804Y-389251227D01*
X171660765Y-389227429D01*
X171669030Y-389204329D01*
X171679520Y-389182151D01*
X171692133Y-389161107D01*
X171706747Y-389141402D01*
X171723223Y-389123223D01*
X171741402Y-389106747D01*
X171761107Y-389092133D01*
X171782151Y-389079520D01*
X171804329Y-389069030D01*
X171827429Y-389060765D01*
X171851227Y-389054804D01*
X171875496Y-389051204D01*
X171900000Y-389050000D01*
X173150000Y-389050000D01*
X173174504Y-389051204D01*
X173174504Y-389051204D01*
G37*
D19*
X172525000Y-389675000D03*
D18*
G36*
X176674958Y-464505710D02*
G01*
X176689276Y-464507834D01*
X176703317Y-464511351D01*
X176716946Y-464516228D01*
X176730031Y-464522417D01*
X176742447Y-464529858D01*
X176754073Y-464538481D01*
X176764798Y-464548202D01*
X176774519Y-464558927D01*
X176783142Y-464570553D01*
X176790583Y-464582969D01*
X176796772Y-464596054D01*
X176801649Y-464609683D01*
X176805166Y-464623724D01*
X176807290Y-464638042D01*
X176808000Y-464652500D01*
X176808000Y-464947500D01*
X176807290Y-464961958D01*
X176805166Y-464976276D01*
X176801649Y-464990317D01*
X176796772Y-465003946D01*
X176790583Y-465017031D01*
X176783142Y-465029447D01*
X176774519Y-465041073D01*
X176764798Y-465051798D01*
X176754073Y-465061519D01*
X176742447Y-465070142D01*
X176730031Y-465077583D01*
X176716946Y-465083772D01*
X176703317Y-465088649D01*
X176689276Y-465092166D01*
X176674958Y-465094290D01*
X176660500Y-465095000D01*
X176315500Y-465095000D01*
X176301042Y-465094290D01*
X176286724Y-465092166D01*
X176272683Y-465088649D01*
X176259054Y-465083772D01*
X176245969Y-465077583D01*
X176233553Y-465070142D01*
X176221927Y-465061519D01*
X176211202Y-465051798D01*
X176201481Y-465041073D01*
X176192858Y-465029447D01*
X176185417Y-465017031D01*
X176179228Y-465003946D01*
X176174351Y-464990317D01*
X176170834Y-464976276D01*
X176168710Y-464961958D01*
X176168000Y-464947500D01*
X176168000Y-464652500D01*
X176168710Y-464638042D01*
X176170834Y-464623724D01*
X176174351Y-464609683D01*
X176179228Y-464596054D01*
X176185417Y-464582969D01*
X176192858Y-464570553D01*
X176201481Y-464558927D01*
X176211202Y-464548202D01*
X176221927Y-464538481D01*
X176233553Y-464529858D01*
X176245969Y-464522417D01*
X176259054Y-464516228D01*
X176272683Y-464511351D01*
X176286724Y-464507834D01*
X176301042Y-464505710D01*
X176315500Y-464505000D01*
X176660500Y-464505000D01*
X176674958Y-464505710D01*
X176674958Y-464505710D01*
G37*
D24*
X176488000Y-464800000D03*
D18*
G36*
X176674958Y-463535710D02*
G01*
X176689276Y-463537834D01*
X176703317Y-463541351D01*
X176716946Y-463546228D01*
X176730031Y-463552417D01*
X176742447Y-463559858D01*
X176754073Y-463568481D01*
X176764798Y-463578202D01*
X176774519Y-463588927D01*
X176783142Y-463600553D01*
X176790583Y-463612969D01*
X176796772Y-463626054D01*
X176801649Y-463639683D01*
X176805166Y-463653724D01*
X176807290Y-463668042D01*
X176808000Y-463682500D01*
X176808000Y-463977500D01*
X176807290Y-463991958D01*
X176805166Y-464006276D01*
X176801649Y-464020317D01*
X176796772Y-464033946D01*
X176790583Y-464047031D01*
X176783142Y-464059447D01*
X176774519Y-464071073D01*
X176764798Y-464081798D01*
X176754073Y-464091519D01*
X176742447Y-464100142D01*
X176730031Y-464107583D01*
X176716946Y-464113772D01*
X176703317Y-464118649D01*
X176689276Y-464122166D01*
X176674958Y-464124290D01*
X176660500Y-464125000D01*
X176315500Y-464125000D01*
X176301042Y-464124290D01*
X176286724Y-464122166D01*
X176272683Y-464118649D01*
X176259054Y-464113772D01*
X176245969Y-464107583D01*
X176233553Y-464100142D01*
X176221927Y-464091519D01*
X176211202Y-464081798D01*
X176201481Y-464071073D01*
X176192858Y-464059447D01*
X176185417Y-464047031D01*
X176179228Y-464033946D01*
X176174351Y-464020317D01*
X176170834Y-464006276D01*
X176168710Y-463991958D01*
X176168000Y-463977500D01*
X176168000Y-463682500D01*
X176168710Y-463668042D01*
X176170834Y-463653724D01*
X176174351Y-463639683D01*
X176179228Y-463626054D01*
X176185417Y-463612969D01*
X176192858Y-463600553D01*
X176201481Y-463588927D01*
X176211202Y-463578202D01*
X176221927Y-463568481D01*
X176233553Y-463559858D01*
X176245969Y-463552417D01*
X176259054Y-463546228D01*
X176272683Y-463541351D01*
X176286724Y-463537834D01*
X176301042Y-463535710D01*
X176315500Y-463535000D01*
X176660500Y-463535000D01*
X176674958Y-463535710D01*
X176674958Y-463535710D01*
G37*
D24*
X176488000Y-463830000D03*
D18*
G36*
X181531958Y-456905710D02*
G01*
X181546276Y-456907834D01*
X181560317Y-456911351D01*
X181573946Y-456916228D01*
X181587031Y-456922417D01*
X181599447Y-456929858D01*
X181611073Y-456938481D01*
X181621798Y-456948202D01*
X181631519Y-456958927D01*
X181640142Y-456970553D01*
X181647583Y-456982969D01*
X181653772Y-456996054D01*
X181658649Y-457009683D01*
X181662166Y-457023724D01*
X181664290Y-457038042D01*
X181665000Y-457052500D01*
X181665000Y-457397500D01*
X181664290Y-457411958D01*
X181662166Y-457426276D01*
X181658649Y-457440317D01*
X181653772Y-457453946D01*
X181647583Y-457467031D01*
X181640142Y-457479447D01*
X181631519Y-457491073D01*
X181621798Y-457501798D01*
X181611073Y-457511519D01*
X181599447Y-457520142D01*
X181587031Y-457527583D01*
X181573946Y-457533772D01*
X181560317Y-457538649D01*
X181546276Y-457542166D01*
X181531958Y-457544290D01*
X181517500Y-457545000D01*
X181222500Y-457545000D01*
X181208042Y-457544290D01*
X181193724Y-457542166D01*
X181179683Y-457538649D01*
X181166054Y-457533772D01*
X181152969Y-457527583D01*
X181140553Y-457520142D01*
X181128927Y-457511519D01*
X181118202Y-457501798D01*
X181108481Y-457491073D01*
X181099858Y-457479447D01*
X181092417Y-457467031D01*
X181086228Y-457453946D01*
X181081351Y-457440317D01*
X181077834Y-457426276D01*
X181075710Y-457411958D01*
X181075000Y-457397500D01*
X181075000Y-457052500D01*
X181075710Y-457038042D01*
X181077834Y-457023724D01*
X181081351Y-457009683D01*
X181086228Y-456996054D01*
X181092417Y-456982969D01*
X181099858Y-456970553D01*
X181108481Y-456958927D01*
X181118202Y-456948202D01*
X181128927Y-456938481D01*
X181140553Y-456929858D01*
X181152969Y-456922417D01*
X181166054Y-456916228D01*
X181179683Y-456911351D01*
X181193724Y-456907834D01*
X181208042Y-456905710D01*
X181222500Y-456905000D01*
X181517500Y-456905000D01*
X181531958Y-456905710D01*
X181531958Y-456905710D01*
G37*
D24*
X181370000Y-457225000D03*
D18*
G36*
X180561958Y-456905710D02*
G01*
X180576276Y-456907834D01*
X180590317Y-456911351D01*
X180603946Y-456916228D01*
X180617031Y-456922417D01*
X180629447Y-456929858D01*
X180641073Y-456938481D01*
X180651798Y-456948202D01*
X180661519Y-456958927D01*
X180670142Y-456970553D01*
X180677583Y-456982969D01*
X180683772Y-456996054D01*
X180688649Y-457009683D01*
X180692166Y-457023724D01*
X180694290Y-457038042D01*
X180695000Y-457052500D01*
X180695000Y-457397500D01*
X180694290Y-457411958D01*
X180692166Y-457426276D01*
X180688649Y-457440317D01*
X180683772Y-457453946D01*
X180677583Y-457467031D01*
X180670142Y-457479447D01*
X180661519Y-457491073D01*
X180651798Y-457501798D01*
X180641073Y-457511519D01*
X180629447Y-457520142D01*
X180617031Y-457527583D01*
X180603946Y-457533772D01*
X180590317Y-457538649D01*
X180576276Y-457542166D01*
X180561958Y-457544290D01*
X180547500Y-457545000D01*
X180252500Y-457545000D01*
X180238042Y-457544290D01*
X180223724Y-457542166D01*
X180209683Y-457538649D01*
X180196054Y-457533772D01*
X180182969Y-457527583D01*
X180170553Y-457520142D01*
X180158927Y-457511519D01*
X180148202Y-457501798D01*
X180138481Y-457491073D01*
X180129858Y-457479447D01*
X180122417Y-457467031D01*
X180116228Y-457453946D01*
X180111351Y-457440317D01*
X180107834Y-457426276D01*
X180105710Y-457411958D01*
X180105000Y-457397500D01*
X180105000Y-457052500D01*
X180105710Y-457038042D01*
X180107834Y-457023724D01*
X180111351Y-457009683D01*
X180116228Y-456996054D01*
X180122417Y-456982969D01*
X180129858Y-456970553D01*
X180138481Y-456958927D01*
X180148202Y-456948202D01*
X180158927Y-456938481D01*
X180170553Y-456929858D01*
X180182969Y-456922417D01*
X180196054Y-456916228D01*
X180209683Y-456911351D01*
X180223724Y-456907834D01*
X180238042Y-456905710D01*
X180252500Y-456905000D01*
X180547500Y-456905000D01*
X180561958Y-456905710D01*
X180561958Y-456905710D01*
G37*
D24*
X180400000Y-457225000D03*
D18*
G36*
X169386958Y-451735710D02*
G01*
X169401276Y-451737834D01*
X169415317Y-451741351D01*
X169428946Y-451746228D01*
X169442031Y-451752417D01*
X169454447Y-451759858D01*
X169466073Y-451768481D01*
X169476798Y-451778202D01*
X169486519Y-451788927D01*
X169495142Y-451800553D01*
X169502583Y-451812969D01*
X169508772Y-451826054D01*
X169513649Y-451839683D01*
X169517166Y-451853724D01*
X169519290Y-451868042D01*
X169520000Y-451882500D01*
X169520000Y-452177500D01*
X169519290Y-452191958D01*
X169517166Y-452206276D01*
X169513649Y-452220317D01*
X169508772Y-452233946D01*
X169502583Y-452247031D01*
X169495142Y-452259447D01*
X169486519Y-452271073D01*
X169476798Y-452281798D01*
X169466073Y-452291519D01*
X169454447Y-452300142D01*
X169442031Y-452307583D01*
X169428946Y-452313772D01*
X169415317Y-452318649D01*
X169401276Y-452322166D01*
X169386958Y-452324290D01*
X169372500Y-452325000D01*
X169027500Y-452325000D01*
X169013042Y-452324290D01*
X168998724Y-452322166D01*
X168984683Y-452318649D01*
X168971054Y-452313772D01*
X168957969Y-452307583D01*
X168945553Y-452300142D01*
X168933927Y-452291519D01*
X168923202Y-452281798D01*
X168913481Y-452271073D01*
X168904858Y-452259447D01*
X168897417Y-452247031D01*
X168891228Y-452233946D01*
X168886351Y-452220317D01*
X168882834Y-452206276D01*
X168880710Y-452191958D01*
X168880000Y-452177500D01*
X168880000Y-451882500D01*
X168880710Y-451868042D01*
X168882834Y-451853724D01*
X168886351Y-451839683D01*
X168891228Y-451826054D01*
X168897417Y-451812969D01*
X168904858Y-451800553D01*
X168913481Y-451788927D01*
X168923202Y-451778202D01*
X168933927Y-451768481D01*
X168945553Y-451759858D01*
X168957969Y-451752417D01*
X168971054Y-451746228D01*
X168984683Y-451741351D01*
X168998724Y-451737834D01*
X169013042Y-451735710D01*
X169027500Y-451735000D01*
X169372500Y-451735000D01*
X169386958Y-451735710D01*
X169386958Y-451735710D01*
G37*
D24*
X169200000Y-452030000D03*
D18*
G36*
X169386958Y-452705710D02*
G01*
X169401276Y-452707834D01*
X169415317Y-452711351D01*
X169428946Y-452716228D01*
X169442031Y-452722417D01*
X169454447Y-452729858D01*
X169466073Y-452738481D01*
X169476798Y-452748202D01*
X169486519Y-452758927D01*
X169495142Y-452770553D01*
X169502583Y-452782969D01*
X169508772Y-452796054D01*
X169513649Y-452809683D01*
X169517166Y-452823724D01*
X169519290Y-452838042D01*
X169520000Y-452852500D01*
X169520000Y-453147500D01*
X169519290Y-453161958D01*
X169517166Y-453176276D01*
X169513649Y-453190317D01*
X169508772Y-453203946D01*
X169502583Y-453217031D01*
X169495142Y-453229447D01*
X169486519Y-453241073D01*
X169476798Y-453251798D01*
X169466073Y-453261519D01*
X169454447Y-453270142D01*
X169442031Y-453277583D01*
X169428946Y-453283772D01*
X169415317Y-453288649D01*
X169401276Y-453292166D01*
X169386958Y-453294290D01*
X169372500Y-453295000D01*
X169027500Y-453295000D01*
X169013042Y-453294290D01*
X168998724Y-453292166D01*
X168984683Y-453288649D01*
X168971054Y-453283772D01*
X168957969Y-453277583D01*
X168945553Y-453270142D01*
X168933927Y-453261519D01*
X168923202Y-453251798D01*
X168913481Y-453241073D01*
X168904858Y-453229447D01*
X168897417Y-453217031D01*
X168891228Y-453203946D01*
X168886351Y-453190317D01*
X168882834Y-453176276D01*
X168880710Y-453161958D01*
X168880000Y-453147500D01*
X168880000Y-452852500D01*
X168880710Y-452838042D01*
X168882834Y-452823724D01*
X168886351Y-452809683D01*
X168891228Y-452796054D01*
X168897417Y-452782969D01*
X168904858Y-452770553D01*
X168913481Y-452758927D01*
X168923202Y-452748202D01*
X168933927Y-452738481D01*
X168945553Y-452729858D01*
X168957969Y-452722417D01*
X168971054Y-452716228D01*
X168984683Y-452711351D01*
X168998724Y-452707834D01*
X169013042Y-452705710D01*
X169027500Y-452705000D01*
X169372500Y-452705000D01*
X169386958Y-452705710D01*
X169386958Y-452705710D01*
G37*
D24*
X169200000Y-453000000D03*
D18*
G36*
X167176958Y-461580710D02*
G01*
X167191276Y-461582834D01*
X167205317Y-461586351D01*
X167218946Y-461591228D01*
X167232031Y-461597417D01*
X167244447Y-461604858D01*
X167256073Y-461613481D01*
X167266798Y-461623202D01*
X167276519Y-461633927D01*
X167285142Y-461645553D01*
X167292583Y-461657969D01*
X167298772Y-461671054D01*
X167303649Y-461684683D01*
X167307166Y-461698724D01*
X167309290Y-461713042D01*
X167310000Y-461727500D01*
X167310000Y-462072500D01*
X167309290Y-462086958D01*
X167307166Y-462101276D01*
X167303649Y-462115317D01*
X167298772Y-462128946D01*
X167292583Y-462142031D01*
X167285142Y-462154447D01*
X167276519Y-462166073D01*
X167266798Y-462176798D01*
X167256073Y-462186519D01*
X167244447Y-462195142D01*
X167232031Y-462202583D01*
X167218946Y-462208772D01*
X167205317Y-462213649D01*
X167191276Y-462217166D01*
X167176958Y-462219290D01*
X167162500Y-462220000D01*
X166867500Y-462220000D01*
X166853042Y-462219290D01*
X166838724Y-462217166D01*
X166824683Y-462213649D01*
X166811054Y-462208772D01*
X166797969Y-462202583D01*
X166785553Y-462195142D01*
X166773927Y-462186519D01*
X166763202Y-462176798D01*
X166753481Y-462166073D01*
X166744858Y-462154447D01*
X166737417Y-462142031D01*
X166731228Y-462128946D01*
X166726351Y-462115317D01*
X166722834Y-462101276D01*
X166720710Y-462086958D01*
X166720000Y-462072500D01*
X166720000Y-461727500D01*
X166720710Y-461713042D01*
X166722834Y-461698724D01*
X166726351Y-461684683D01*
X166731228Y-461671054D01*
X166737417Y-461657969D01*
X166744858Y-461645553D01*
X166753481Y-461633927D01*
X166763202Y-461623202D01*
X166773927Y-461613481D01*
X166785553Y-461604858D01*
X166797969Y-461597417D01*
X166811054Y-461591228D01*
X166824683Y-461586351D01*
X166838724Y-461582834D01*
X166853042Y-461580710D01*
X166867500Y-461580000D01*
X167162500Y-461580000D01*
X167176958Y-461580710D01*
X167176958Y-461580710D01*
G37*
D24*
X167015000Y-461900000D03*
D18*
G36*
X168146958Y-461580710D02*
G01*
X168161276Y-461582834D01*
X168175317Y-461586351D01*
X168188946Y-461591228D01*
X168202031Y-461597417D01*
X168214447Y-461604858D01*
X168226073Y-461613481D01*
X168236798Y-461623202D01*
X168246519Y-461633927D01*
X168255142Y-461645553D01*
X168262583Y-461657969D01*
X168268772Y-461671054D01*
X168273649Y-461684683D01*
X168277166Y-461698724D01*
X168279290Y-461713042D01*
X168280000Y-461727500D01*
X168280000Y-462072500D01*
X168279290Y-462086958D01*
X168277166Y-462101276D01*
X168273649Y-462115317D01*
X168268772Y-462128946D01*
X168262583Y-462142031D01*
X168255142Y-462154447D01*
X168246519Y-462166073D01*
X168236798Y-462176798D01*
X168226073Y-462186519D01*
X168214447Y-462195142D01*
X168202031Y-462202583D01*
X168188946Y-462208772D01*
X168175317Y-462213649D01*
X168161276Y-462217166D01*
X168146958Y-462219290D01*
X168132500Y-462220000D01*
X167837500Y-462220000D01*
X167823042Y-462219290D01*
X167808724Y-462217166D01*
X167794683Y-462213649D01*
X167781054Y-462208772D01*
X167767969Y-462202583D01*
X167755553Y-462195142D01*
X167743927Y-462186519D01*
X167733202Y-462176798D01*
X167723481Y-462166073D01*
X167714858Y-462154447D01*
X167707417Y-462142031D01*
X167701228Y-462128946D01*
X167696351Y-462115317D01*
X167692834Y-462101276D01*
X167690710Y-462086958D01*
X167690000Y-462072500D01*
X167690000Y-461727500D01*
X167690710Y-461713042D01*
X167692834Y-461698724D01*
X167696351Y-461684683D01*
X167701228Y-461671054D01*
X167707417Y-461657969D01*
X167714858Y-461645553D01*
X167723481Y-461633927D01*
X167733202Y-461623202D01*
X167743927Y-461613481D01*
X167755553Y-461604858D01*
X167767969Y-461597417D01*
X167781054Y-461591228D01*
X167794683Y-461586351D01*
X167808724Y-461582834D01*
X167823042Y-461580710D01*
X167837500Y-461580000D01*
X168132500Y-461580000D01*
X168146958Y-461580710D01*
X168146958Y-461580710D01*
G37*
D24*
X167985000Y-461900000D03*
D18*
G36*
X167191958Y-460130710D02*
G01*
X167206276Y-460132834D01*
X167220317Y-460136351D01*
X167233946Y-460141228D01*
X167247031Y-460147417D01*
X167259447Y-460154858D01*
X167271073Y-460163481D01*
X167281798Y-460173202D01*
X167291519Y-460183927D01*
X167300142Y-460195553D01*
X167307583Y-460207969D01*
X167313772Y-460221054D01*
X167318649Y-460234683D01*
X167322166Y-460248724D01*
X167324290Y-460263042D01*
X167325000Y-460277500D01*
X167325000Y-460622500D01*
X167324290Y-460636958D01*
X167322166Y-460651276D01*
X167318649Y-460665317D01*
X167313772Y-460678946D01*
X167307583Y-460692031D01*
X167300142Y-460704447D01*
X167291519Y-460716073D01*
X167281798Y-460726798D01*
X167271073Y-460736519D01*
X167259447Y-460745142D01*
X167247031Y-460752583D01*
X167233946Y-460758772D01*
X167220317Y-460763649D01*
X167206276Y-460767166D01*
X167191958Y-460769290D01*
X167177500Y-460770000D01*
X166882500Y-460770000D01*
X166868042Y-460769290D01*
X166853724Y-460767166D01*
X166839683Y-460763649D01*
X166826054Y-460758772D01*
X166812969Y-460752583D01*
X166800553Y-460745142D01*
X166788927Y-460736519D01*
X166778202Y-460726798D01*
X166768481Y-460716073D01*
X166759858Y-460704447D01*
X166752417Y-460692031D01*
X166746228Y-460678946D01*
X166741351Y-460665317D01*
X166737834Y-460651276D01*
X166735710Y-460636958D01*
X166735000Y-460622500D01*
X166735000Y-460277500D01*
X166735710Y-460263042D01*
X166737834Y-460248724D01*
X166741351Y-460234683D01*
X166746228Y-460221054D01*
X166752417Y-460207969D01*
X166759858Y-460195553D01*
X166768481Y-460183927D01*
X166778202Y-460173202D01*
X166788927Y-460163481D01*
X166800553Y-460154858D01*
X166812969Y-460147417D01*
X166826054Y-460141228D01*
X166839683Y-460136351D01*
X166853724Y-460132834D01*
X166868042Y-460130710D01*
X166882500Y-460130000D01*
X167177500Y-460130000D01*
X167191958Y-460130710D01*
X167191958Y-460130710D01*
G37*
D24*
X167030000Y-460450000D03*
D18*
G36*
X168161958Y-460130710D02*
G01*
X168176276Y-460132834D01*
X168190317Y-460136351D01*
X168203946Y-460141228D01*
X168217031Y-460147417D01*
X168229447Y-460154858D01*
X168241073Y-460163481D01*
X168251798Y-460173202D01*
X168261519Y-460183927D01*
X168270142Y-460195553D01*
X168277583Y-460207969D01*
X168283772Y-460221054D01*
X168288649Y-460234683D01*
X168292166Y-460248724D01*
X168294290Y-460263042D01*
X168295000Y-460277500D01*
X168295000Y-460622500D01*
X168294290Y-460636958D01*
X168292166Y-460651276D01*
X168288649Y-460665317D01*
X168283772Y-460678946D01*
X168277583Y-460692031D01*
X168270142Y-460704447D01*
X168261519Y-460716073D01*
X168251798Y-460726798D01*
X168241073Y-460736519D01*
X168229447Y-460745142D01*
X168217031Y-460752583D01*
X168203946Y-460758772D01*
X168190317Y-460763649D01*
X168176276Y-460767166D01*
X168161958Y-460769290D01*
X168147500Y-460770000D01*
X167852500Y-460770000D01*
X167838042Y-460769290D01*
X167823724Y-460767166D01*
X167809683Y-460763649D01*
X167796054Y-460758772D01*
X167782969Y-460752583D01*
X167770553Y-460745142D01*
X167758927Y-460736519D01*
X167748202Y-460726798D01*
X167738481Y-460716073D01*
X167729858Y-460704447D01*
X167722417Y-460692031D01*
X167716228Y-460678946D01*
X167711351Y-460665317D01*
X167707834Y-460651276D01*
X167705710Y-460636958D01*
X167705000Y-460622500D01*
X167705000Y-460277500D01*
X167705710Y-460263042D01*
X167707834Y-460248724D01*
X167711351Y-460234683D01*
X167716228Y-460221054D01*
X167722417Y-460207969D01*
X167729858Y-460195553D01*
X167738481Y-460183927D01*
X167748202Y-460173202D01*
X167758927Y-460163481D01*
X167770553Y-460154858D01*
X167782969Y-460147417D01*
X167796054Y-460141228D01*
X167809683Y-460136351D01*
X167823724Y-460132834D01*
X167838042Y-460130710D01*
X167852500Y-460130000D01*
X168147500Y-460130000D01*
X168161958Y-460130710D01*
X168161958Y-460130710D01*
G37*
D24*
X168000000Y-460450000D03*
D18*
G36*
X171186958Y-464525710D02*
G01*
X171201276Y-464527834D01*
X171215317Y-464531351D01*
X171228946Y-464536228D01*
X171242031Y-464542417D01*
X171254447Y-464549858D01*
X171266073Y-464558481D01*
X171276798Y-464568202D01*
X171286519Y-464578927D01*
X171295142Y-464590553D01*
X171302583Y-464602969D01*
X171308772Y-464616054D01*
X171313649Y-464629683D01*
X171317166Y-464643724D01*
X171319290Y-464658042D01*
X171320000Y-464672500D01*
X171320000Y-464967500D01*
X171319290Y-464981958D01*
X171317166Y-464996276D01*
X171313649Y-465010317D01*
X171308772Y-465023946D01*
X171302583Y-465037031D01*
X171295142Y-465049447D01*
X171286519Y-465061073D01*
X171276798Y-465071798D01*
X171266073Y-465081519D01*
X171254447Y-465090142D01*
X171242031Y-465097583D01*
X171228946Y-465103772D01*
X171215317Y-465108649D01*
X171201276Y-465112166D01*
X171186958Y-465114290D01*
X171172500Y-465115000D01*
X170827500Y-465115000D01*
X170813042Y-465114290D01*
X170798724Y-465112166D01*
X170784683Y-465108649D01*
X170771054Y-465103772D01*
X170757969Y-465097583D01*
X170745553Y-465090142D01*
X170733927Y-465081519D01*
X170723202Y-465071798D01*
X170713481Y-465061073D01*
X170704858Y-465049447D01*
X170697417Y-465037031D01*
X170691228Y-465023946D01*
X170686351Y-465010317D01*
X170682834Y-464996276D01*
X170680710Y-464981958D01*
X170680000Y-464967500D01*
X170680000Y-464672500D01*
X170680710Y-464658042D01*
X170682834Y-464643724D01*
X170686351Y-464629683D01*
X170691228Y-464616054D01*
X170697417Y-464602969D01*
X170704858Y-464590553D01*
X170713481Y-464578927D01*
X170723202Y-464568202D01*
X170733927Y-464558481D01*
X170745553Y-464549858D01*
X170757969Y-464542417D01*
X170771054Y-464536228D01*
X170784683Y-464531351D01*
X170798724Y-464527834D01*
X170813042Y-464525710D01*
X170827500Y-464525000D01*
X171172500Y-464525000D01*
X171186958Y-464525710D01*
X171186958Y-464525710D01*
G37*
D24*
X171000000Y-464820000D03*
D18*
G36*
X171186958Y-463555710D02*
G01*
X171201276Y-463557834D01*
X171215317Y-463561351D01*
X171228946Y-463566228D01*
X171242031Y-463572417D01*
X171254447Y-463579858D01*
X171266073Y-463588481D01*
X171276798Y-463598202D01*
X171286519Y-463608927D01*
X171295142Y-463620553D01*
X171302583Y-463632969D01*
X171308772Y-463646054D01*
X171313649Y-463659683D01*
X171317166Y-463673724D01*
X171319290Y-463688042D01*
X171320000Y-463702500D01*
X171320000Y-463997500D01*
X171319290Y-464011958D01*
X171317166Y-464026276D01*
X171313649Y-464040317D01*
X171308772Y-464053946D01*
X171302583Y-464067031D01*
X171295142Y-464079447D01*
X171286519Y-464091073D01*
X171276798Y-464101798D01*
X171266073Y-464111519D01*
X171254447Y-464120142D01*
X171242031Y-464127583D01*
X171228946Y-464133772D01*
X171215317Y-464138649D01*
X171201276Y-464142166D01*
X171186958Y-464144290D01*
X171172500Y-464145000D01*
X170827500Y-464145000D01*
X170813042Y-464144290D01*
X170798724Y-464142166D01*
X170784683Y-464138649D01*
X170771054Y-464133772D01*
X170757969Y-464127583D01*
X170745553Y-464120142D01*
X170733927Y-464111519D01*
X170723202Y-464101798D01*
X170713481Y-464091073D01*
X170704858Y-464079447D01*
X170697417Y-464067031D01*
X170691228Y-464053946D01*
X170686351Y-464040317D01*
X170682834Y-464026276D01*
X170680710Y-464011958D01*
X170680000Y-463997500D01*
X170680000Y-463702500D01*
X170680710Y-463688042D01*
X170682834Y-463673724D01*
X170686351Y-463659683D01*
X170691228Y-463646054D01*
X170697417Y-463632969D01*
X170704858Y-463620553D01*
X170713481Y-463608927D01*
X170723202Y-463598202D01*
X170733927Y-463588481D01*
X170745553Y-463579858D01*
X170757969Y-463572417D01*
X170771054Y-463566228D01*
X170784683Y-463561351D01*
X170798724Y-463557834D01*
X170813042Y-463555710D01*
X170827500Y-463555000D01*
X171172500Y-463555000D01*
X171186958Y-463555710D01*
X171186958Y-463555710D01*
G37*
D24*
X171000000Y-463850000D03*
D18*
G36*
X169766958Y-418720710D02*
G01*
X169781276Y-418722834D01*
X169795317Y-418726351D01*
X169808946Y-418731228D01*
X169822031Y-418737417D01*
X169834447Y-418744858D01*
X169846073Y-418753481D01*
X169856798Y-418763202D01*
X169866519Y-418773927D01*
X169875142Y-418785553D01*
X169882583Y-418797969D01*
X169888772Y-418811054D01*
X169893649Y-418824683D01*
X169897166Y-418838724D01*
X169899290Y-418853042D01*
X169900000Y-418867500D01*
X169900000Y-419212500D01*
X169899290Y-419226958D01*
X169897166Y-419241276D01*
X169893649Y-419255317D01*
X169888772Y-419268946D01*
X169882583Y-419282031D01*
X169875142Y-419294447D01*
X169866519Y-419306073D01*
X169856798Y-419316798D01*
X169846073Y-419326519D01*
X169834447Y-419335142D01*
X169822031Y-419342583D01*
X169808946Y-419348772D01*
X169795317Y-419353649D01*
X169781276Y-419357166D01*
X169766958Y-419359290D01*
X169752500Y-419360000D01*
X169457500Y-419360000D01*
X169443042Y-419359290D01*
X169428724Y-419357166D01*
X169414683Y-419353649D01*
X169401054Y-419348772D01*
X169387969Y-419342583D01*
X169375553Y-419335142D01*
X169363927Y-419326519D01*
X169353202Y-419316798D01*
X169343481Y-419306073D01*
X169334858Y-419294447D01*
X169327417Y-419282031D01*
X169321228Y-419268946D01*
X169316351Y-419255317D01*
X169312834Y-419241276D01*
X169310710Y-419226958D01*
X169310000Y-419212500D01*
X169310000Y-418867500D01*
X169310710Y-418853042D01*
X169312834Y-418838724D01*
X169316351Y-418824683D01*
X169321228Y-418811054D01*
X169327417Y-418797969D01*
X169334858Y-418785553D01*
X169343481Y-418773927D01*
X169353202Y-418763202D01*
X169363927Y-418753481D01*
X169375553Y-418744858D01*
X169387969Y-418737417D01*
X169401054Y-418731228D01*
X169414683Y-418726351D01*
X169428724Y-418722834D01*
X169443042Y-418720710D01*
X169457500Y-418720000D01*
X169752500Y-418720000D01*
X169766958Y-418720710D01*
X169766958Y-418720710D01*
G37*
D24*
X169605000Y-419040000D03*
D18*
G36*
X170736958Y-418720710D02*
G01*
X170751276Y-418722834D01*
X170765317Y-418726351D01*
X170778946Y-418731228D01*
X170792031Y-418737417D01*
X170804447Y-418744858D01*
X170816073Y-418753481D01*
X170826798Y-418763202D01*
X170836519Y-418773927D01*
X170845142Y-418785553D01*
X170852583Y-418797969D01*
X170858772Y-418811054D01*
X170863649Y-418824683D01*
X170867166Y-418838724D01*
X170869290Y-418853042D01*
X170870000Y-418867500D01*
X170870000Y-419212500D01*
X170869290Y-419226958D01*
X170867166Y-419241276D01*
X170863649Y-419255317D01*
X170858772Y-419268946D01*
X170852583Y-419282031D01*
X170845142Y-419294447D01*
X170836519Y-419306073D01*
X170826798Y-419316798D01*
X170816073Y-419326519D01*
X170804447Y-419335142D01*
X170792031Y-419342583D01*
X170778946Y-419348772D01*
X170765317Y-419353649D01*
X170751276Y-419357166D01*
X170736958Y-419359290D01*
X170722500Y-419360000D01*
X170427500Y-419360000D01*
X170413042Y-419359290D01*
X170398724Y-419357166D01*
X170384683Y-419353649D01*
X170371054Y-419348772D01*
X170357969Y-419342583D01*
X170345553Y-419335142D01*
X170333927Y-419326519D01*
X170323202Y-419316798D01*
X170313481Y-419306073D01*
X170304858Y-419294447D01*
X170297417Y-419282031D01*
X170291228Y-419268946D01*
X170286351Y-419255317D01*
X170282834Y-419241276D01*
X170280710Y-419226958D01*
X170280000Y-419212500D01*
X170280000Y-418867500D01*
X170280710Y-418853042D01*
X170282834Y-418838724D01*
X170286351Y-418824683D01*
X170291228Y-418811054D01*
X170297417Y-418797969D01*
X170304858Y-418785553D01*
X170313481Y-418773927D01*
X170323202Y-418763202D01*
X170333927Y-418753481D01*
X170345553Y-418744858D01*
X170357969Y-418737417D01*
X170371054Y-418731228D01*
X170384683Y-418726351D01*
X170398724Y-418722834D01*
X170413042Y-418720710D01*
X170427500Y-418720000D01*
X170722500Y-418720000D01*
X170736958Y-418720710D01*
X170736958Y-418720710D01*
G37*
D24*
X170575000Y-419040000D03*
D18*
G36*
X167261958Y-458130710D02*
G01*
X167276276Y-458132834D01*
X167290317Y-458136351D01*
X167303946Y-458141228D01*
X167317031Y-458147417D01*
X167329447Y-458154858D01*
X167341073Y-458163481D01*
X167351798Y-458173202D01*
X167361519Y-458183927D01*
X167370142Y-458195553D01*
X167377583Y-458207969D01*
X167383772Y-458221054D01*
X167388649Y-458234683D01*
X167392166Y-458248724D01*
X167394290Y-458263042D01*
X167395000Y-458277500D01*
X167395000Y-458622500D01*
X167394290Y-458636958D01*
X167392166Y-458651276D01*
X167388649Y-458665317D01*
X167383772Y-458678946D01*
X167377583Y-458692031D01*
X167370142Y-458704447D01*
X167361519Y-458716073D01*
X167351798Y-458726798D01*
X167341073Y-458736519D01*
X167329447Y-458745142D01*
X167317031Y-458752583D01*
X167303946Y-458758772D01*
X167290317Y-458763649D01*
X167276276Y-458767166D01*
X167261958Y-458769290D01*
X167247500Y-458770000D01*
X166952500Y-458770000D01*
X166938042Y-458769290D01*
X166923724Y-458767166D01*
X166909683Y-458763649D01*
X166896054Y-458758772D01*
X166882969Y-458752583D01*
X166870553Y-458745142D01*
X166858927Y-458736519D01*
X166848202Y-458726798D01*
X166838481Y-458716073D01*
X166829858Y-458704447D01*
X166822417Y-458692031D01*
X166816228Y-458678946D01*
X166811351Y-458665317D01*
X166807834Y-458651276D01*
X166805710Y-458636958D01*
X166805000Y-458622500D01*
X166805000Y-458277500D01*
X166805710Y-458263042D01*
X166807834Y-458248724D01*
X166811351Y-458234683D01*
X166816228Y-458221054D01*
X166822417Y-458207969D01*
X166829858Y-458195553D01*
X166838481Y-458183927D01*
X166848202Y-458173202D01*
X166858927Y-458163481D01*
X166870553Y-458154858D01*
X166882969Y-458147417D01*
X166896054Y-458141228D01*
X166909683Y-458136351D01*
X166923724Y-458132834D01*
X166938042Y-458130710D01*
X166952500Y-458130000D01*
X167247500Y-458130000D01*
X167261958Y-458130710D01*
X167261958Y-458130710D01*
G37*
D24*
X167100000Y-458450000D03*
D18*
G36*
X168231958Y-458130710D02*
G01*
X168246276Y-458132834D01*
X168260317Y-458136351D01*
X168273946Y-458141228D01*
X168287031Y-458147417D01*
X168299447Y-458154858D01*
X168311073Y-458163481D01*
X168321798Y-458173202D01*
X168331519Y-458183927D01*
X168340142Y-458195553D01*
X168347583Y-458207969D01*
X168353772Y-458221054D01*
X168358649Y-458234683D01*
X168362166Y-458248724D01*
X168364290Y-458263042D01*
X168365000Y-458277500D01*
X168365000Y-458622500D01*
X168364290Y-458636958D01*
X168362166Y-458651276D01*
X168358649Y-458665317D01*
X168353772Y-458678946D01*
X168347583Y-458692031D01*
X168340142Y-458704447D01*
X168331519Y-458716073D01*
X168321798Y-458726798D01*
X168311073Y-458736519D01*
X168299447Y-458745142D01*
X168287031Y-458752583D01*
X168273946Y-458758772D01*
X168260317Y-458763649D01*
X168246276Y-458767166D01*
X168231958Y-458769290D01*
X168217500Y-458770000D01*
X167922500Y-458770000D01*
X167908042Y-458769290D01*
X167893724Y-458767166D01*
X167879683Y-458763649D01*
X167866054Y-458758772D01*
X167852969Y-458752583D01*
X167840553Y-458745142D01*
X167828927Y-458736519D01*
X167818202Y-458726798D01*
X167808481Y-458716073D01*
X167799858Y-458704447D01*
X167792417Y-458692031D01*
X167786228Y-458678946D01*
X167781351Y-458665317D01*
X167777834Y-458651276D01*
X167775710Y-458636958D01*
X167775000Y-458622500D01*
X167775000Y-458277500D01*
X167775710Y-458263042D01*
X167777834Y-458248724D01*
X167781351Y-458234683D01*
X167786228Y-458221054D01*
X167792417Y-458207969D01*
X167799858Y-458195553D01*
X167808481Y-458183927D01*
X167818202Y-458173202D01*
X167828927Y-458163481D01*
X167840553Y-458154858D01*
X167852969Y-458147417D01*
X167866054Y-458141228D01*
X167879683Y-458136351D01*
X167893724Y-458132834D01*
X167908042Y-458130710D01*
X167922500Y-458130000D01*
X168217500Y-458130000D01*
X168231958Y-458130710D01*
X168231958Y-458130710D01*
G37*
D24*
X168070000Y-458450000D03*
D18*
G36*
X183581958Y-455880710D02*
G01*
X183596276Y-455882834D01*
X183610317Y-455886351D01*
X183623946Y-455891228D01*
X183637031Y-455897417D01*
X183649447Y-455904858D01*
X183661073Y-455913481D01*
X183671798Y-455923202D01*
X183681519Y-455933927D01*
X183690142Y-455945553D01*
X183697583Y-455957969D01*
X183703772Y-455971054D01*
X183708649Y-455984683D01*
X183712166Y-455998724D01*
X183714290Y-456013042D01*
X183715000Y-456027500D01*
X183715000Y-456372500D01*
X183714290Y-456386958D01*
X183712166Y-456401276D01*
X183708649Y-456415317D01*
X183703772Y-456428946D01*
X183697583Y-456442031D01*
X183690142Y-456454447D01*
X183681519Y-456466073D01*
X183671798Y-456476798D01*
X183661073Y-456486519D01*
X183649447Y-456495142D01*
X183637031Y-456502583D01*
X183623946Y-456508772D01*
X183610317Y-456513649D01*
X183596276Y-456517166D01*
X183581958Y-456519290D01*
X183567500Y-456520000D01*
X183272500Y-456520000D01*
X183258042Y-456519290D01*
X183243724Y-456517166D01*
X183229683Y-456513649D01*
X183216054Y-456508772D01*
X183202969Y-456502583D01*
X183190553Y-456495142D01*
X183178927Y-456486519D01*
X183168202Y-456476798D01*
X183158481Y-456466073D01*
X183149858Y-456454447D01*
X183142417Y-456442031D01*
X183136228Y-456428946D01*
X183131351Y-456415317D01*
X183127834Y-456401276D01*
X183125710Y-456386958D01*
X183125000Y-456372500D01*
X183125000Y-456027500D01*
X183125710Y-456013042D01*
X183127834Y-455998724D01*
X183131351Y-455984683D01*
X183136228Y-455971054D01*
X183142417Y-455957969D01*
X183149858Y-455945553D01*
X183158481Y-455933927D01*
X183168202Y-455923202D01*
X183178927Y-455913481D01*
X183190553Y-455904858D01*
X183202969Y-455897417D01*
X183216054Y-455891228D01*
X183229683Y-455886351D01*
X183243724Y-455882834D01*
X183258042Y-455880710D01*
X183272500Y-455880000D01*
X183567500Y-455880000D01*
X183581958Y-455880710D01*
X183581958Y-455880710D01*
G37*
D24*
X183420000Y-456200000D03*
D18*
G36*
X182611958Y-455880710D02*
G01*
X182626276Y-455882834D01*
X182640317Y-455886351D01*
X182653946Y-455891228D01*
X182667031Y-455897417D01*
X182679447Y-455904858D01*
X182691073Y-455913481D01*
X182701798Y-455923202D01*
X182711519Y-455933927D01*
X182720142Y-455945553D01*
X182727583Y-455957969D01*
X182733772Y-455971054D01*
X182738649Y-455984683D01*
X182742166Y-455998724D01*
X182744290Y-456013042D01*
X182745000Y-456027500D01*
X182745000Y-456372500D01*
X182744290Y-456386958D01*
X182742166Y-456401276D01*
X182738649Y-456415317D01*
X182733772Y-456428946D01*
X182727583Y-456442031D01*
X182720142Y-456454447D01*
X182711519Y-456466073D01*
X182701798Y-456476798D01*
X182691073Y-456486519D01*
X182679447Y-456495142D01*
X182667031Y-456502583D01*
X182653946Y-456508772D01*
X182640317Y-456513649D01*
X182626276Y-456517166D01*
X182611958Y-456519290D01*
X182597500Y-456520000D01*
X182302500Y-456520000D01*
X182288042Y-456519290D01*
X182273724Y-456517166D01*
X182259683Y-456513649D01*
X182246054Y-456508772D01*
X182232969Y-456502583D01*
X182220553Y-456495142D01*
X182208927Y-456486519D01*
X182198202Y-456476798D01*
X182188481Y-456466073D01*
X182179858Y-456454447D01*
X182172417Y-456442031D01*
X182166228Y-456428946D01*
X182161351Y-456415317D01*
X182157834Y-456401276D01*
X182155710Y-456386958D01*
X182155000Y-456372500D01*
X182155000Y-456027500D01*
X182155710Y-456013042D01*
X182157834Y-455998724D01*
X182161351Y-455984683D01*
X182166228Y-455971054D01*
X182172417Y-455957969D01*
X182179858Y-455945553D01*
X182188481Y-455933927D01*
X182198202Y-455923202D01*
X182208927Y-455913481D01*
X182220553Y-455904858D01*
X182232969Y-455897417D01*
X182246054Y-455891228D01*
X182259683Y-455886351D01*
X182273724Y-455882834D01*
X182288042Y-455880710D01*
X182302500Y-455880000D01*
X182597500Y-455880000D01*
X182611958Y-455880710D01*
X182611958Y-455880710D01*
G37*
D24*
X182450000Y-456200000D03*
D18*
G36*
X183581958Y-454830710D02*
G01*
X183596276Y-454832834D01*
X183610317Y-454836351D01*
X183623946Y-454841228D01*
X183637031Y-454847417D01*
X183649447Y-454854858D01*
X183661073Y-454863481D01*
X183671798Y-454873202D01*
X183681519Y-454883927D01*
X183690142Y-454895553D01*
X183697583Y-454907969D01*
X183703772Y-454921054D01*
X183708649Y-454934683D01*
X183712166Y-454948724D01*
X183714290Y-454963042D01*
X183715000Y-454977500D01*
X183715000Y-455322500D01*
X183714290Y-455336958D01*
X183712166Y-455351276D01*
X183708649Y-455365317D01*
X183703772Y-455378946D01*
X183697583Y-455392031D01*
X183690142Y-455404447D01*
X183681519Y-455416073D01*
X183671798Y-455426798D01*
X183661073Y-455436519D01*
X183649447Y-455445142D01*
X183637031Y-455452583D01*
X183623946Y-455458772D01*
X183610317Y-455463649D01*
X183596276Y-455467166D01*
X183581958Y-455469290D01*
X183567500Y-455470000D01*
X183272500Y-455470000D01*
X183258042Y-455469290D01*
X183243724Y-455467166D01*
X183229683Y-455463649D01*
X183216054Y-455458772D01*
X183202969Y-455452583D01*
X183190553Y-455445142D01*
X183178927Y-455436519D01*
X183168202Y-455426798D01*
X183158481Y-455416073D01*
X183149858Y-455404447D01*
X183142417Y-455392031D01*
X183136228Y-455378946D01*
X183131351Y-455365317D01*
X183127834Y-455351276D01*
X183125710Y-455336958D01*
X183125000Y-455322500D01*
X183125000Y-454977500D01*
X183125710Y-454963042D01*
X183127834Y-454948724D01*
X183131351Y-454934683D01*
X183136228Y-454921054D01*
X183142417Y-454907969D01*
X183149858Y-454895553D01*
X183158481Y-454883927D01*
X183168202Y-454873202D01*
X183178927Y-454863481D01*
X183190553Y-454854858D01*
X183202969Y-454847417D01*
X183216054Y-454841228D01*
X183229683Y-454836351D01*
X183243724Y-454832834D01*
X183258042Y-454830710D01*
X183272500Y-454830000D01*
X183567500Y-454830000D01*
X183581958Y-454830710D01*
X183581958Y-454830710D01*
G37*
D24*
X183420000Y-455150000D03*
D18*
G36*
X182611958Y-454830710D02*
G01*
X182626276Y-454832834D01*
X182640317Y-454836351D01*
X182653946Y-454841228D01*
X182667031Y-454847417D01*
X182679447Y-454854858D01*
X182691073Y-454863481D01*
X182701798Y-454873202D01*
X182711519Y-454883927D01*
X182720142Y-454895553D01*
X182727583Y-454907969D01*
X182733772Y-454921054D01*
X182738649Y-454934683D01*
X182742166Y-454948724D01*
X182744290Y-454963042D01*
X182745000Y-454977500D01*
X182745000Y-455322500D01*
X182744290Y-455336958D01*
X182742166Y-455351276D01*
X182738649Y-455365317D01*
X182733772Y-455378946D01*
X182727583Y-455392031D01*
X182720142Y-455404447D01*
X182711519Y-455416073D01*
X182701798Y-455426798D01*
X182691073Y-455436519D01*
X182679447Y-455445142D01*
X182667031Y-455452583D01*
X182653946Y-455458772D01*
X182640317Y-455463649D01*
X182626276Y-455467166D01*
X182611958Y-455469290D01*
X182597500Y-455470000D01*
X182302500Y-455470000D01*
X182288042Y-455469290D01*
X182273724Y-455467166D01*
X182259683Y-455463649D01*
X182246054Y-455458772D01*
X182232969Y-455452583D01*
X182220553Y-455445142D01*
X182208927Y-455436519D01*
X182198202Y-455426798D01*
X182188481Y-455416073D01*
X182179858Y-455404447D01*
X182172417Y-455392031D01*
X182166228Y-455378946D01*
X182161351Y-455365317D01*
X182157834Y-455351276D01*
X182155710Y-455336958D01*
X182155000Y-455322500D01*
X182155000Y-454977500D01*
X182155710Y-454963042D01*
X182157834Y-454948724D01*
X182161351Y-454934683D01*
X182166228Y-454921054D01*
X182172417Y-454907969D01*
X182179858Y-454895553D01*
X182188481Y-454883927D01*
X182198202Y-454873202D01*
X182208927Y-454863481D01*
X182220553Y-454854858D01*
X182232969Y-454847417D01*
X182246054Y-454841228D01*
X182259683Y-454836351D01*
X182273724Y-454832834D01*
X182288042Y-454830710D01*
X182302500Y-454830000D01*
X182597500Y-454830000D01*
X182611958Y-454830710D01*
X182611958Y-454830710D01*
G37*
D24*
X182450000Y-455150000D03*
D18*
G36*
X166181958Y-455680710D02*
G01*
X166196276Y-455682834D01*
X166210317Y-455686351D01*
X166223946Y-455691228D01*
X166237031Y-455697417D01*
X166249447Y-455704858D01*
X166261073Y-455713481D01*
X166271798Y-455723202D01*
X166281519Y-455733927D01*
X166290142Y-455745553D01*
X166297583Y-455757969D01*
X166303772Y-455771054D01*
X166308649Y-455784683D01*
X166312166Y-455798724D01*
X166314290Y-455813042D01*
X166315000Y-455827500D01*
X166315000Y-456172500D01*
X166314290Y-456186958D01*
X166312166Y-456201276D01*
X166308649Y-456215317D01*
X166303772Y-456228946D01*
X166297583Y-456242031D01*
X166290142Y-456254447D01*
X166281519Y-456266073D01*
X166271798Y-456276798D01*
X166261073Y-456286519D01*
X166249447Y-456295142D01*
X166237031Y-456302583D01*
X166223946Y-456308772D01*
X166210317Y-456313649D01*
X166196276Y-456317166D01*
X166181958Y-456319290D01*
X166167500Y-456320000D01*
X165872500Y-456320000D01*
X165858042Y-456319290D01*
X165843724Y-456317166D01*
X165829683Y-456313649D01*
X165816054Y-456308772D01*
X165802969Y-456302583D01*
X165790553Y-456295142D01*
X165778927Y-456286519D01*
X165768202Y-456276798D01*
X165758481Y-456266073D01*
X165749858Y-456254447D01*
X165742417Y-456242031D01*
X165736228Y-456228946D01*
X165731351Y-456215317D01*
X165727834Y-456201276D01*
X165725710Y-456186958D01*
X165725000Y-456172500D01*
X165725000Y-455827500D01*
X165725710Y-455813042D01*
X165727834Y-455798724D01*
X165731351Y-455784683D01*
X165736228Y-455771054D01*
X165742417Y-455757969D01*
X165749858Y-455745553D01*
X165758481Y-455733927D01*
X165768202Y-455723202D01*
X165778927Y-455713481D01*
X165790553Y-455704858D01*
X165802969Y-455697417D01*
X165816054Y-455691228D01*
X165829683Y-455686351D01*
X165843724Y-455682834D01*
X165858042Y-455680710D01*
X165872500Y-455680000D01*
X166167500Y-455680000D01*
X166181958Y-455680710D01*
X166181958Y-455680710D01*
G37*
D24*
X166020000Y-456000000D03*
D18*
G36*
X165211958Y-455680710D02*
G01*
X165226276Y-455682834D01*
X165240317Y-455686351D01*
X165253946Y-455691228D01*
X165267031Y-455697417D01*
X165279447Y-455704858D01*
X165291073Y-455713481D01*
X165301798Y-455723202D01*
X165311519Y-455733927D01*
X165320142Y-455745553D01*
X165327583Y-455757969D01*
X165333772Y-455771054D01*
X165338649Y-455784683D01*
X165342166Y-455798724D01*
X165344290Y-455813042D01*
X165345000Y-455827500D01*
X165345000Y-456172500D01*
X165344290Y-456186958D01*
X165342166Y-456201276D01*
X165338649Y-456215317D01*
X165333772Y-456228946D01*
X165327583Y-456242031D01*
X165320142Y-456254447D01*
X165311519Y-456266073D01*
X165301798Y-456276798D01*
X165291073Y-456286519D01*
X165279447Y-456295142D01*
X165267031Y-456302583D01*
X165253946Y-456308772D01*
X165240317Y-456313649D01*
X165226276Y-456317166D01*
X165211958Y-456319290D01*
X165197500Y-456320000D01*
X164902500Y-456320000D01*
X164888042Y-456319290D01*
X164873724Y-456317166D01*
X164859683Y-456313649D01*
X164846054Y-456308772D01*
X164832969Y-456302583D01*
X164820553Y-456295142D01*
X164808927Y-456286519D01*
X164798202Y-456276798D01*
X164788481Y-456266073D01*
X164779858Y-456254447D01*
X164772417Y-456242031D01*
X164766228Y-456228946D01*
X164761351Y-456215317D01*
X164757834Y-456201276D01*
X164755710Y-456186958D01*
X164755000Y-456172500D01*
X164755000Y-455827500D01*
X164755710Y-455813042D01*
X164757834Y-455798724D01*
X164761351Y-455784683D01*
X164766228Y-455771054D01*
X164772417Y-455757969D01*
X164779858Y-455745553D01*
X164788481Y-455733927D01*
X164798202Y-455723202D01*
X164808927Y-455713481D01*
X164820553Y-455704858D01*
X164832969Y-455697417D01*
X164846054Y-455691228D01*
X164859683Y-455686351D01*
X164873724Y-455682834D01*
X164888042Y-455680710D01*
X164902500Y-455680000D01*
X165197500Y-455680000D01*
X165211958Y-455680710D01*
X165211958Y-455680710D01*
G37*
D24*
X165050000Y-456000000D03*
D25*
X182551669Y-468482524D03*
D26*
X182551669Y-468482524D02*
X182551669Y-468482524D01*
D25*
X185005121Y-467825124D03*
D26*
X185005121Y-467825124D02*
X185005121Y-467825124D01*
D25*
X187458572Y-467167723D03*
D26*
X187458572Y-467167723D02*
X187458572Y-467167723D01*
D25*
X189912024Y-466510323D03*
D18*
G36*
X188870991Y-465909282D02*
G01*
X190513065Y-465469290D01*
X190953057Y-467111364D01*
X189310983Y-467551356D01*
X188870991Y-465909282D01*
X188870991Y-465909282D01*
G37*
D16*
X178436722Y-428957847D03*
X180976722Y-428957847D03*
X183516722Y-428957847D03*
D17*
X186056722Y-428957847D03*
D25*
X156391130Y-471814978D03*
D26*
X156391130Y-471814978D02*
X156391130Y-471814978D01*
D25*
X155733730Y-469361526D03*
D26*
X155733730Y-469361526D02*
X155733730Y-469361526D01*
D25*
X155076329Y-466908075D03*
D26*
X155076329Y-466908075D02*
X155076329Y-466908075D01*
D25*
X154418929Y-464454623D03*
D18*
G36*
X153817888Y-465495656D02*
G01*
X153377896Y-463853582D01*
X155019970Y-463413590D01*
X155459962Y-465055664D01*
X153817888Y-465495656D01*
X153817888Y-465495656D01*
G37*
D16*
X228412025Y-458730322D03*
X228412025Y-456190322D03*
X228412025Y-453650322D03*
D17*
X228412025Y-451110322D03*
D16*
X155412019Y-422110280D03*
X155412019Y-424650280D03*
X155412019Y-427190280D03*
D17*
X155412019Y-429730280D03*
D16*
X178739012Y-409842011D03*
X181279012Y-409842011D03*
X183819012Y-409842011D03*
D17*
X186359012Y-409842011D03*
D16*
X155458726Y-371760794D03*
X155458726Y-374300794D03*
X155458726Y-376840794D03*
D17*
X155458726Y-379380794D03*
D16*
X156195921Y-451084972D03*
X158735921Y-451084972D03*
X161275921Y-451084972D03*
D17*
X163815921Y-451084972D03*
D25*
X194698626Y-465168258D03*
D26*
X194698626Y-465168258D02*
X194698626Y-465168258D01*
D25*
X194041226Y-462714806D03*
D26*
X194041226Y-462714806D02*
X194041226Y-462714806D01*
D25*
X193383825Y-460261355D03*
D26*
X193383825Y-460261355D02*
X193383825Y-460261355D01*
D25*
X192726425Y-457807903D03*
D18*
G36*
X192125384Y-458848936D02*
G01*
X191685392Y-457206862D01*
X193327466Y-456766870D01*
X193767458Y-458408944D01*
X192125384Y-458848936D01*
X192125384Y-458848936D01*
G37*
D27*
X165850000Y-388575000D03*
X158850000Y-388575000D03*
D14*
X159650000Y-391100000D03*
D28*
X167050000Y-386175000D03*
D14*
X157750000Y-386050000D03*
D16*
X185832025Y-390860322D03*
X183292025Y-390860322D03*
X180752025Y-390860322D03*
D17*
X178212025Y-390860322D03*
D29*
X174400000Y-457000000D03*
D30*
X170950000Y-454400000D03*
X170950000Y-454800000D03*
X170950000Y-455200000D03*
X170950000Y-455600000D03*
X170950000Y-456000000D03*
X170950000Y-456400000D03*
X170950000Y-456800000D03*
X170950000Y-457200000D03*
X170950000Y-457600000D03*
X170950000Y-458000000D03*
X170950000Y-458400000D03*
X170950000Y-458800000D03*
X170950000Y-459200000D03*
X170950000Y-459600000D03*
D31*
X171800000Y-460450000D03*
X172200000Y-460450000D03*
X172600000Y-460450000D03*
X173000000Y-460450000D03*
X173400000Y-460450000D03*
X173800000Y-460450000D03*
X174200000Y-460450000D03*
X174600000Y-460450000D03*
X175000000Y-460450000D03*
X175400000Y-460450000D03*
X175800000Y-460450000D03*
X176200000Y-460450000D03*
X176600000Y-460450000D03*
X177000000Y-460450000D03*
D30*
X177850000Y-459600000D03*
X177850000Y-459200000D03*
X177850000Y-458800000D03*
X177850000Y-458400000D03*
X177850000Y-458000000D03*
X177850000Y-457600000D03*
X177850000Y-457200000D03*
X177850000Y-456800000D03*
X177850000Y-456400000D03*
X177850000Y-456000000D03*
X177850000Y-455600000D03*
X177850000Y-455200000D03*
X177850000Y-454800000D03*
X177850000Y-454400000D03*
D31*
X177000000Y-453550000D03*
X176600000Y-453550000D03*
X176200000Y-453550000D03*
X175800000Y-453550000D03*
X175400000Y-453550000D03*
X175000000Y-453550000D03*
X174600000Y-453550000D03*
X174200000Y-453550000D03*
X173800000Y-453550000D03*
X173400000Y-453550000D03*
X173000000Y-453550000D03*
X172600000Y-453550000D03*
X172200000Y-453550000D03*
X171800000Y-453550000D03*
D25*
X173212025Y-471010322D03*
D26*
X173212025Y-471010322D02*
X173212025Y-471010322D01*
D25*
X170758573Y-471667722D03*
D26*
X170758573Y-471667722D02*
X170758573Y-471667722D01*
D25*
X168305122Y-472325123D03*
D26*
X168305122Y-472325123D02*
X168305122Y-472325123D01*
D25*
X165851670Y-472982523D03*
D18*
G36*
X164810637Y-472381482D02*
G01*
X166452711Y-471941490D01*
X166892703Y-473583564D01*
X165250629Y-474023556D01*
X164810637Y-472381482D01*
X164810637Y-472381482D01*
G37*
D32*
X164905000Y-458100000D03*
X163635000Y-458100000D03*
X162365000Y-458100000D03*
X161095000Y-458100000D03*
X161095000Y-465300000D03*
X162365000Y-465300000D03*
X163635000Y-465300000D03*
X164905000Y-465300000D03*
D33*
X186300000Y-450775000D03*
X186300000Y-460275000D03*
D27*
X168674981Y-459425019D03*
X167792990Y-456752990D03*
X180411146Y-459317264D03*
X174047144Y-463784900D03*
X174450000Y-462950000D03*
X169800213Y-457838858D03*
X171671824Y-447147929D03*
X169182472Y-458530050D03*
X170750000Y-447050000D03*
X171325000Y-444250000D03*
X172525000Y-376350000D03*
X170275000Y-444150000D03*
X171125000Y-376325002D03*
X161160000Y-461050000D03*
X178225000Y-460450000D03*
X157600000Y-422799994D03*
X157524999Y-418674999D03*
X166325000Y-450975000D03*
X181584199Y-459261643D03*
X177072383Y-449550800D03*
X181283820Y-453678953D03*
X183325000Y-458050000D03*
X169200000Y-451000000D03*
X167000000Y-455975990D03*
X170150000Y-464900000D03*
X166223005Y-461126995D03*
X178969145Y-464900000D03*
X176477000Y-458523000D03*
X175729995Y-464899995D03*
X170043126Y-423774993D03*
X177504000Y-465700000D03*
X160900000Y-446900000D03*
X174200000Y-467400000D03*
X169250000Y-467400000D03*
X161591611Y-446182728D03*
X162167727Y-445456476D03*
X162829392Y-444807206D03*
X173530377Y-441025984D03*
X173563055Y-440099549D03*
X174020492Y-439172764D03*
X174558538Y-438417875D03*
X167100000Y-442300000D03*
X174100000Y-446500000D03*
X172798968Y-407100000D03*
X177124994Y-448550000D03*
X181041067Y-447294144D03*
X176255856Y-447294144D03*
X167282347Y-451832345D03*
X172443578Y-446206420D03*
X176561463Y-450324306D03*
X169200000Y-463750000D03*
X167000006Y-459450000D03*
X164100000Y-456000004D03*
X175805871Y-463818898D03*
X179518356Y-457318356D03*
X183725000Y-461600000D03*
X173662334Y-444463506D03*
X173672990Y-443536556D03*
X184129840Y-447326532D03*
X174251142Y-433725012D03*
X173420980Y-429750000D03*
X174971795Y-433141909D03*
X184099996Y-446400000D03*
X174350000Y-428430000D03*
X173571828Y-445386090D03*
X172175000Y-383600000D03*
X174827000Y-462075000D03*
X175800000Y-432600000D03*
X178725000Y-462075000D03*
X175140000Y-427740000D03*
X184100000Y-445472999D03*
X168050000Y-466350000D03*
X174829010Y-466350000D03*
D34*
X170950000Y-456800000D02*
X170325000Y-456800000D01*
X177850000Y-457600000D02*
X178775000Y-457600000D01*
X179425000Y-458250000D02*
X180400000Y-458250000D01*
D35*
X168000000Y-460450000D02*
X168000000Y-460100000D01*
D34*
X170325000Y-456800000D02*
X170320987Y-456795987D01*
X168500000Y-460550000D02*
X170250000Y-458800000D01*
D35*
X180400000Y-458250000D02*
X180400000Y-459306118D01*
X168070000Y-457030000D02*
X168070000Y-457450000D01*
D34*
X168724013Y-456795987D02*
X168070000Y-457450000D01*
X170250000Y-458800000D02*
X170950000Y-458800000D01*
D35*
X180400000Y-459306118D02*
X180411146Y-459317264D01*
D34*
X178775000Y-457600000D02*
X179425000Y-458250000D01*
X170320987Y-456795987D02*
X168724013Y-456795987D01*
X168050000Y-460550000D02*
X168500000Y-460550000D01*
D35*
X167792990Y-456752990D02*
X168070000Y-457030000D01*
X168000000Y-460100000D02*
X168674981Y-459425019D01*
D34*
X173800000Y-460450000D02*
X173800000Y-463537756D01*
X173800000Y-463537756D02*
X174047144Y-463784900D01*
X174200000Y-460450000D02*
X174200000Y-462700000D01*
X174200000Y-462700000D02*
X174450000Y-462950000D01*
X178475000Y-456400000D02*
X177850000Y-456400000D01*
X178479013Y-456395987D02*
X178475000Y-456400000D01*
X180084574Y-455150000D02*
X178838587Y-456395987D01*
X182450000Y-455150000D02*
X182450000Y-452150000D01*
X178838587Y-456395987D02*
X178479013Y-456395987D01*
X186050000Y-451350000D02*
X186100000Y-451300000D01*
X182450000Y-452150000D02*
X183250000Y-451350000D01*
X183250000Y-451350000D02*
X186050000Y-451350000D01*
X182450000Y-455150000D02*
X180084574Y-455150000D01*
X182450000Y-456200000D02*
X181370000Y-456200000D01*
X183327962Y-460275000D02*
X186300000Y-460275000D01*
X182450000Y-456200000D02*
X182450000Y-459397038D01*
X182450000Y-459397038D02*
X183327962Y-460275000D01*
X159350002Y-466762463D02*
X159350002Y-456542922D01*
X159764547Y-467177008D02*
X159350002Y-466762463D01*
X168637539Y-454800000D02*
X170950000Y-454800000D01*
X163635000Y-465300000D02*
X163635000Y-465800000D01*
X163635000Y-465800000D02*
X162257992Y-467177008D01*
X161927969Y-453964955D02*
X167802494Y-453964955D01*
X167802494Y-453964955D02*
X168637539Y-454800000D01*
X159350002Y-456542922D02*
X161927969Y-453964955D01*
X162257992Y-467177008D02*
X159764547Y-467177008D01*
X159677013Y-456678373D02*
X162063420Y-454291966D01*
X161315003Y-466849997D02*
X159899998Y-466849997D01*
X159899998Y-466849997D02*
X159677013Y-466627012D01*
X167667041Y-454291966D02*
X168575075Y-455200000D01*
X159677013Y-466627012D02*
X159677013Y-456678373D01*
X168575075Y-455200000D02*
X170950000Y-455200000D01*
X162365000Y-465300000D02*
X162365000Y-465800000D01*
X162063420Y-454291966D02*
X167667041Y-454291966D01*
X162365000Y-465800000D02*
X161315003Y-466849997D01*
X161095000Y-458100000D02*
X161095000Y-455753525D01*
X168512612Y-455600000D02*
X170950000Y-455600000D01*
X161095000Y-455753525D02*
X162229548Y-454618977D01*
X162229548Y-454618977D02*
X167531589Y-454618977D01*
X167531589Y-454618977D02*
X168512612Y-455600000D01*
X162365000Y-458100000D02*
X162365000Y-455535000D01*
X162365000Y-455535000D02*
X162954012Y-454945988D01*
X168450149Y-456000000D02*
X170950000Y-456000000D01*
X162954012Y-454945988D02*
X167396137Y-454945988D01*
X167396137Y-454945988D02*
X168450149Y-456000000D01*
X163110000Y-456660000D02*
X163110000Y-455797999D01*
X163635000Y-458100000D02*
X163635000Y-457185000D01*
X168387686Y-456400000D02*
X170950000Y-456400000D01*
X163110000Y-455797999D02*
X163635000Y-455272999D01*
X163635000Y-457185000D02*
X163110000Y-456660000D01*
X163635000Y-455272999D02*
X167260685Y-455272999D01*
X167260685Y-455272999D02*
X168387686Y-456400000D01*
X171671824Y-446441824D02*
X171671824Y-447147929D01*
X171325000Y-446095000D02*
X171671824Y-446441824D01*
X169961355Y-458000000D02*
X169800213Y-457838858D01*
X170950000Y-458000000D02*
X169961355Y-458000000D01*
X170275000Y-446085000D02*
X170275000Y-446575000D01*
X170042939Y-458530050D02*
X169182472Y-458530050D01*
X170275000Y-446575000D02*
X170750000Y-447050000D01*
X170172989Y-458400000D02*
X170042939Y-458530050D01*
X170950000Y-458400000D02*
X170172989Y-458400000D01*
X178922036Y-456800000D02*
X177850000Y-456800000D01*
X180400000Y-456200000D02*
X179522036Y-456200000D01*
X179522036Y-456200000D02*
X178922036Y-456800000D01*
X177227011Y-372202011D02*
X174572989Y-372202011D01*
X174025000Y-372750000D02*
X174025000Y-374560000D01*
X174572989Y-372202011D02*
X174025000Y-372750000D01*
X179010000Y-373690000D02*
X178715000Y-373690000D01*
X178715000Y-373690000D02*
X177227011Y-372202011D01*
X172025000Y-375850000D02*
X172525000Y-376350000D01*
X171325000Y-445125000D02*
X171325000Y-444250000D01*
X172025000Y-374560000D02*
X172025000Y-375850000D01*
X173025000Y-375850000D02*
X172525000Y-376350000D01*
X173025000Y-374560000D02*
X173025000Y-375850000D01*
X178365000Y-372740000D02*
X177500000Y-371875000D01*
X178990000Y-372740000D02*
X178365000Y-372740000D01*
X177500000Y-371875000D02*
X171750000Y-371875000D01*
X171750000Y-371875000D02*
X171025000Y-372600000D01*
X171025000Y-372600000D02*
X171025000Y-374560000D01*
X171525000Y-372999000D02*
X171525000Y-374560000D01*
X171525000Y-374560000D02*
X171524999Y-375925003D01*
X170275000Y-445115000D02*
X170275000Y-444150000D01*
X172525000Y-372999000D02*
X171525000Y-372999000D01*
X172525000Y-374560000D02*
X172525000Y-372999000D01*
X171524999Y-375925003D02*
X171125000Y-376325002D01*
D35*
X165985000Y-428580000D02*
X163580000Y-428580000D01*
X162670000Y-426420000D02*
X162670000Y-423602348D01*
X162670000Y-423602348D02*
X164737026Y-421535322D01*
X163580000Y-428580000D02*
X162620000Y-427620000D01*
X162620000Y-426490000D02*
X162680000Y-426430000D01*
X167291702Y-419070000D02*
X167172025Y-418950323D01*
X168500000Y-427215000D02*
X167350000Y-427215000D01*
X162680000Y-426430000D02*
X162670000Y-426420000D01*
X169520000Y-419070000D02*
X167291702Y-419070000D01*
X167350000Y-427215000D02*
X165985000Y-428580000D01*
X162620000Y-427620000D02*
X162620000Y-426490000D01*
X164737026Y-421535322D02*
X165862025Y-420410323D01*
X166203702Y-406580000D02*
X161684704Y-406580000D01*
X161684704Y-406580000D02*
X157545026Y-402440322D01*
X175645000Y-369810000D02*
X167955000Y-369810000D01*
X179985000Y-374765000D02*
X179270000Y-375480000D01*
X161236995Y-461126995D02*
X161160000Y-461050000D01*
X179985000Y-373710000D02*
X179985000Y-374765000D01*
X182610000Y-447710000D02*
X181220000Y-449100000D01*
X157520026Y-385820026D02*
X157750000Y-386050000D01*
X160260000Y-376467974D02*
X160260000Y-379300000D01*
X166520000Y-418298298D02*
X167172025Y-418950323D01*
X160250000Y-437050000D02*
X157520025Y-439779975D01*
X166223005Y-461126995D02*
X161236995Y-461126995D01*
X181220000Y-449100000D02*
X181220000Y-453615133D01*
X179270000Y-375480000D02*
X177545000Y-375480000D01*
X176595000Y-374530000D02*
X176595000Y-373980000D01*
X161095000Y-465300000D02*
X161095000Y-461115000D01*
X186222025Y-441000322D02*
X182610000Y-444612347D01*
X157520025Y-439779975D02*
X157520025Y-440540322D01*
X160250000Y-433618297D02*
X160250000Y-437050000D01*
X194041226Y-462714806D02*
X194041226Y-460918756D01*
X177545000Y-375480000D02*
X176595000Y-374530000D01*
X161095000Y-461115000D02*
X161160000Y-461050000D01*
X159552025Y-432920322D02*
X160250000Y-433618297D01*
X182610000Y-444612347D02*
X182610000Y-447710000D01*
X157520026Y-383380000D02*
X157520026Y-385820026D01*
X169204025Y-411330323D02*
X169204025Y-409580323D01*
X169204025Y-411330323D02*
X169204025Y-412315975D01*
X156810000Y-386990000D02*
X156810000Y-399980296D01*
X166520000Y-415000000D02*
X166520000Y-418298298D01*
X157520026Y-400690322D02*
X157520026Y-402440322D01*
X159552026Y-375760000D02*
X160260000Y-376467974D01*
X181220000Y-453615133D02*
X181283820Y-453678953D01*
X156810000Y-399980296D02*
X157520026Y-400690322D01*
X157520026Y-382039974D02*
X157520026Y-383380000D01*
X169204025Y-412315975D02*
X166520000Y-415000000D01*
X194041226Y-460918756D02*
X193383825Y-460261355D01*
X169204025Y-409580323D02*
X166203702Y-406580000D01*
X167955000Y-373980000D02*
X167955000Y-369810000D01*
X176595000Y-369810000D02*
X175645000Y-369810000D01*
X160260000Y-379300000D02*
X157520026Y-382039974D01*
X157750000Y-386050000D02*
X156810000Y-386990000D01*
X157545026Y-402440322D02*
X157520026Y-402440322D01*
X188254025Y-395280323D02*
X188254025Y-397030323D01*
X188254025Y-416080322D02*
X185670000Y-418664347D01*
X179980000Y-372730000D02*
X186514025Y-372730000D01*
X186359012Y-409842011D02*
X188254025Y-411737024D01*
X207304025Y-444994025D02*
X208510000Y-446200000D01*
X186359012Y-409842011D02*
X178739012Y-409842011D01*
X186222025Y-402900323D02*
X186359012Y-403037310D01*
X185670000Y-402348298D02*
X186222025Y-402900323D01*
X179985000Y-372735000D02*
X179980000Y-372730000D01*
X188254025Y-411737024D02*
X188254025Y-414330322D01*
X188254025Y-385872000D02*
X186222025Y-383840000D01*
X185670000Y-418664347D02*
X185670000Y-421398297D01*
X186222025Y-421950322D02*
X188254025Y-423982322D01*
X228412025Y-456190322D02*
X223242025Y-456190322D01*
X228412025Y-458730322D02*
X228412025Y-448913322D01*
X188254025Y-397030323D02*
X185670000Y-399614348D01*
X223242025Y-456190322D02*
X223012025Y-455960322D01*
X228412025Y-448913322D02*
X226379025Y-446880322D01*
X188254025Y-376220000D02*
X188229025Y-376220000D01*
X226379025Y-446880322D02*
X226354025Y-446880322D01*
X179985000Y-373710000D02*
X179985000Y-372735000D01*
X188254025Y-414330322D02*
X188254025Y-416080322D01*
X185670000Y-399614348D02*
X185670000Y-402348298D01*
X185670000Y-421398297D02*
X186222025Y-421950322D01*
X188254025Y-374470000D02*
X188254025Y-376220000D01*
X208510000Y-446200000D02*
X208510000Y-448010000D01*
X188254025Y-395280323D02*
X188254025Y-385872000D01*
X208510000Y-448010000D02*
X207019677Y-449500323D01*
X207019677Y-449500323D02*
X205272025Y-449500323D01*
X186359012Y-403037310D02*
X186359012Y-409842011D01*
X207304025Y-441880323D02*
X207304025Y-444994025D01*
X188254025Y-423982322D02*
X188254025Y-433380322D01*
X185620000Y-383237975D02*
X186222025Y-383840000D01*
X186514025Y-372730000D02*
X188254025Y-374470000D01*
X185620000Y-378829025D02*
X185620000Y-383237975D01*
X188229025Y-376220000D02*
X185620000Y-378829025D01*
X175475000Y-374560000D02*
X176015000Y-374560000D01*
X166350000Y-451000000D02*
X166325000Y-450975000D01*
X176488000Y-464800000D02*
X175829990Y-464800000D01*
X176165384Y-449534616D02*
X177056199Y-449534616D01*
X175675000Y-450025000D02*
X176165384Y-449534616D01*
D34*
X177000000Y-460450000D02*
X178225000Y-460450000D01*
D35*
X176015000Y-374560000D02*
X176595000Y-373980000D01*
X169200000Y-451000000D02*
X166350000Y-451000000D01*
X175829990Y-464800000D02*
X175729995Y-464899995D01*
X169075000Y-374560000D02*
X168535000Y-374560000D01*
X177056199Y-449534616D02*
X177072383Y-449550800D01*
X167955000Y-373980000D02*
X167955000Y-372480000D01*
X164012026Y-371150000D02*
X160862026Y-374300000D01*
X163815921Y-451084972D02*
X156195921Y-451084972D01*
X168535000Y-374560000D02*
X167955000Y-373980000D01*
X166625000Y-371150000D02*
X164012026Y-371150000D01*
X167955000Y-372480000D02*
X166625000Y-371150000D01*
X166223005Y-461503005D02*
X166223005Y-461126995D01*
X166635000Y-460450000D02*
X167030000Y-460450000D01*
X185687025Y-442860322D02*
X185400000Y-442860322D01*
X175923000Y-458523000D02*
X174400000Y-457000000D01*
X167100000Y-458450000D02*
X167100000Y-457450000D01*
X176477000Y-458523000D02*
X175923000Y-458523000D01*
X166620000Y-461900000D02*
X166223005Y-461503005D01*
X170920000Y-464900000D02*
X171000000Y-464820000D01*
X167100000Y-458450000D02*
X166850044Y-458450000D01*
D34*
X177850000Y-456000000D02*
X178772110Y-456000000D01*
D35*
X166223005Y-461126995D02*
X166223005Y-460038005D01*
X181370000Y-458250000D02*
X181370000Y-459047444D01*
X181370000Y-457225000D02*
X181370000Y-458250000D01*
X181370000Y-459047444D02*
X181584199Y-459261643D01*
X166020000Y-456000000D02*
X167000000Y-456000000D01*
X166223005Y-460038005D02*
X166635000Y-460450000D01*
X166223005Y-459077039D02*
X166223005Y-460038005D01*
X167015000Y-461900000D02*
X166620000Y-461900000D01*
X183420000Y-457955000D02*
X183325000Y-458050000D01*
X185687025Y-422687025D02*
X185687025Y-423560322D01*
X166850044Y-458450000D02*
X166223005Y-459077039D01*
X167000000Y-455975990D02*
X167000000Y-457350000D01*
X183420000Y-455150000D02*
X183420000Y-456200000D01*
X183420000Y-456200000D02*
X183420000Y-457955000D01*
X169200000Y-452000000D02*
X169200000Y-451000000D01*
X161000000Y-393700000D02*
X161000000Y-394120000D01*
X185400000Y-442860322D02*
X185400000Y-441135167D01*
X170150000Y-464900000D02*
X170920000Y-464900000D01*
X204187025Y-449560323D02*
X204187025Y-451360323D01*
X167000000Y-456000000D02*
X167000000Y-455975990D01*
X167000000Y-457350000D02*
X167100000Y-457450000D01*
D34*
X181093157Y-453678953D02*
X181283820Y-453678953D01*
X178772110Y-456000000D02*
X181093157Y-453678953D01*
D35*
X170575000Y-419040000D02*
X171390000Y-419040000D01*
X171562500Y-404837500D02*
X173150000Y-403250000D01*
X171562500Y-420337500D02*
X171562500Y-418867500D01*
X171562500Y-418867500D02*
X171562500Y-404837500D01*
X171562500Y-422750000D02*
X168675000Y-422750000D01*
X171390000Y-419040000D02*
X171562500Y-418867500D01*
X171562500Y-420337500D02*
X171562500Y-422750000D01*
X173150000Y-403250000D02*
X173150000Y-390300000D01*
X160774999Y-389975001D02*
X159650000Y-391100000D01*
X173150000Y-390300000D02*
X172525000Y-389675000D01*
X168825002Y-389950000D02*
X168800001Y-389975001D01*
X172375000Y-389950000D02*
X168825002Y-389950000D01*
X168800001Y-389975001D02*
X160774999Y-389975001D01*
D34*
X175800000Y-461137461D02*
X177504000Y-462841461D01*
X165894993Y-423774993D02*
X170043126Y-423774993D01*
X165860000Y-423740000D02*
X165894993Y-423774993D01*
X175800000Y-460450000D02*
X175800000Y-461137461D01*
X177504000Y-462841461D02*
X177504000Y-465700000D01*
X161465685Y-446900000D02*
X160900000Y-446900000D01*
X174683958Y-464019006D02*
X174683958Y-464065526D01*
X165522998Y-451952002D02*
X165522998Y-447522998D01*
X161668001Y-453300000D02*
X164175000Y-453300000D01*
X175875000Y-462827964D02*
X174683958Y-464019006D01*
X168818971Y-467831029D02*
X159493645Y-467831029D01*
X165522998Y-447522998D02*
X164900000Y-446900000D01*
X164900000Y-446900000D02*
X161465685Y-446900000D01*
X164175000Y-453300000D02*
X165522998Y-451952002D01*
X174683958Y-464065526D02*
X174200000Y-464549484D01*
X169250000Y-467400000D02*
X168818971Y-467831029D01*
X158695981Y-467033365D02*
X158695981Y-456272020D01*
X158695981Y-456272020D02*
X161668001Y-453300000D01*
X159493645Y-467831029D02*
X158695981Y-467033365D01*
X175875000Y-462225000D02*
X175875000Y-462827964D01*
X175000000Y-460450000D02*
X175000000Y-461350000D01*
X175000000Y-461350000D02*
X175875000Y-462225000D01*
X174200000Y-464549484D02*
X174200000Y-467400000D01*
X172200000Y-453550000D02*
X172200000Y-452925000D01*
X162157296Y-446182728D02*
X161591611Y-446182728D01*
X165457728Y-446182728D02*
X162157296Y-446182728D01*
X172200000Y-452925000D02*
X165457728Y-446182728D01*
X172600000Y-453550000D02*
X172600000Y-452850074D01*
X165206402Y-445456476D02*
X162733412Y-445456476D01*
X162733412Y-445456476D02*
X162167727Y-445456476D01*
X172600000Y-452850074D02*
X165206402Y-445456476D01*
X163395077Y-444807206D02*
X162829392Y-444807206D01*
X173000000Y-452787612D02*
X165019594Y-444807206D01*
X165019594Y-444807206D02*
X163395077Y-444807206D01*
X173000000Y-453550000D02*
X173000000Y-452787612D01*
X173297998Y-470924349D02*
X173212025Y-471010322D01*
X173400000Y-462773937D02*
X173297998Y-462875939D01*
X173297998Y-462875939D02*
X173297998Y-470924349D01*
X173400000Y-460450000D02*
X173400000Y-462773937D01*
X170758573Y-470341427D02*
X170758573Y-471667722D01*
X173000000Y-461075000D02*
X172970987Y-461104013D01*
X172970987Y-461104013D02*
X172970987Y-468129013D01*
X172970987Y-468129013D02*
X170758573Y-470341427D01*
X173000000Y-460450000D02*
X173000000Y-461075000D01*
X172600000Y-460450000D02*
X172600000Y-467050000D01*
X172600000Y-467050000D02*
X168305122Y-471344878D01*
X168305122Y-471344878D02*
X168305122Y-472325123D01*
X172200000Y-466200000D02*
X165851670Y-472548330D01*
X172200000Y-460450000D02*
X172200000Y-466200000D01*
X165851670Y-472548330D02*
X165851670Y-472982523D01*
X177850000Y-454400000D02*
X177850000Y-454100000D01*
X179433034Y-452516966D02*
X179433034Y-447670422D01*
X179433034Y-447670422D02*
X173530377Y-441767765D01*
X173530377Y-441591669D02*
X173530377Y-441025984D01*
X177850000Y-454100000D02*
X179433034Y-452516966D01*
X173530377Y-441767765D02*
X173530377Y-441591669D01*
X179760045Y-447534970D02*
X174170978Y-441945904D01*
X174170978Y-441945904D02*
X174170978Y-440707472D01*
X179760045Y-453514955D02*
X179760045Y-447534970D01*
X178475000Y-454800000D02*
X179760045Y-453514955D01*
X174170978Y-440707472D02*
X173963054Y-440499548D01*
X173963054Y-440499548D02*
X173563055Y-440099549D01*
X177850000Y-454800000D02*
X178475000Y-454800000D01*
X178624923Y-455200000D02*
X178999789Y-454825135D01*
X177850000Y-455200000D02*
X178624923Y-455200000D01*
X178999789Y-454825135D02*
X180087056Y-453737868D01*
X174627002Y-439779274D02*
X174420491Y-439572763D01*
X180087056Y-447399518D02*
X174627002Y-441939464D01*
X174627002Y-441939464D02*
X174627002Y-439779274D01*
X180087056Y-453737868D02*
X180087056Y-447399518D01*
X174420491Y-439572763D02*
X174020492Y-439172764D01*
X175199999Y-442049999D02*
X175199999Y-439059336D01*
X175199999Y-439059336D02*
X174958537Y-438817874D01*
X174958537Y-438817874D02*
X174558538Y-438417875D01*
X180414067Y-453873320D02*
X180414067Y-447264067D01*
X178687386Y-455600000D02*
X180414067Y-453873320D01*
X180414067Y-447264067D02*
X175199999Y-442049999D01*
X185981033Y-429033536D02*
X186056722Y-428957847D01*
X177850000Y-455600000D02*
X178687386Y-455600000D01*
X167600000Y-442800000D02*
X167100000Y-442300000D01*
X170422026Y-399900322D02*
X170447026Y-399900322D01*
X171300000Y-399047348D02*
X171300000Y-391475000D01*
X170447026Y-399900322D02*
X171300000Y-399047348D01*
X166250000Y-391250000D02*
X165862026Y-391637974D01*
X171075000Y-391250000D02*
X166250000Y-391250000D01*
X167600000Y-446925150D02*
X167600000Y-442800000D01*
X173400000Y-453550000D02*
X173400000Y-452725150D01*
X171300000Y-391475000D02*
X171075000Y-391250000D01*
X165862026Y-391637974D02*
X165862026Y-392860322D01*
X173400000Y-452725150D02*
X167600000Y-446925150D01*
X160560000Y-428460000D02*
X160560000Y-421212348D01*
X173800000Y-453550000D02*
X173800000Y-452656232D01*
X173800000Y-452656232D02*
X167927002Y-446783234D01*
X166000000Y-433900000D02*
X160560000Y-428460000D01*
X167927002Y-446783234D02*
X167927002Y-441739539D01*
X156277025Y-416325323D02*
X156277025Y-415320323D01*
X160560000Y-421212348D02*
X160862025Y-420910323D01*
X160862025Y-420910323D02*
X156277025Y-416325323D01*
X156277025Y-415320323D02*
X156277025Y-413870323D01*
X167927002Y-441739539D02*
X165100000Y-438912537D01*
X166000000Y-436300000D02*
X166000000Y-433900000D01*
X165100000Y-438912537D02*
X165100000Y-437200000D01*
X165100000Y-437200000D02*
X166000000Y-436300000D01*
X174200000Y-453550000D02*
X174200000Y-452593770D01*
X170447025Y-439450322D02*
X170447025Y-438000322D01*
X170447025Y-434925322D02*
X165902025Y-430380322D01*
X170447025Y-438000322D02*
X170447025Y-434925322D01*
X168254013Y-446647783D02*
X168254013Y-441643334D01*
X168254013Y-441643334D02*
X170447025Y-439450322D01*
X174200000Y-452593770D02*
X168254013Y-446647783D01*
X172798968Y-407100000D02*
X175310000Y-404588968D01*
X175310000Y-404588968D02*
X175310000Y-397837348D01*
X175310000Y-397837348D02*
X175327025Y-397820323D01*
X179872025Y-405440323D02*
X178212348Y-407100000D01*
X173364653Y-407100000D02*
X172798968Y-407100000D01*
X178212348Y-407100000D02*
X173364653Y-407100000D01*
X174600000Y-453550000D02*
X174600000Y-447000000D01*
X174600000Y-447000000D02*
X174100000Y-446500000D01*
X177699999Y-450096634D02*
X177699999Y-449125005D01*
X177699999Y-449125005D02*
X177124994Y-448550000D01*
X179912025Y-423910322D02*
X178810322Y-423910322D01*
X178810322Y-423910322D02*
X175327025Y-420427025D01*
X175800000Y-451996633D02*
X177699999Y-450096634D01*
X175327025Y-420427025D02*
X175327025Y-416870322D01*
X175800000Y-453550000D02*
X175800000Y-451996633D01*
X181041067Y-447294144D02*
X181041067Y-447241067D01*
X179000000Y-445200000D02*
X179000000Y-444400000D01*
X181041067Y-447241067D02*
X179000000Y-445200000D01*
X177900000Y-444200000D02*
X175575000Y-441875000D01*
X175327025Y-436227025D02*
X175327025Y-435920322D01*
X175000000Y-448550000D02*
X176255856Y-447294144D01*
X175575000Y-436475000D02*
X175327025Y-436227025D01*
X179000000Y-444400000D02*
X179912025Y-443487975D01*
X175575000Y-441875000D02*
X175575000Y-436475000D01*
X179912025Y-443487975D02*
X179912025Y-442960322D01*
X178672347Y-444200000D02*
X177900000Y-444200000D01*
X175000000Y-453550000D02*
X175000000Y-448550000D01*
X179912025Y-442960322D02*
X178672347Y-444200000D01*
X192025076Y-453700000D02*
X198962025Y-453700000D01*
X192734696Y-453650000D02*
X192150000Y-453650000D01*
X190406033Y-462281356D02*
X190406033Y-455319043D01*
X194377025Y-452007671D02*
X192734696Y-453650000D01*
X180112376Y-464495978D02*
X188191411Y-464495978D01*
X194377025Y-444420323D02*
X194377025Y-452007671D01*
X176600000Y-460983602D02*
X180112376Y-464495978D01*
X176600000Y-460450000D02*
X176600000Y-460983602D01*
X188191411Y-464495978D02*
X190406033Y-462281356D01*
X190406033Y-455319043D02*
X192025076Y-453700000D01*
X198962025Y-453700000D02*
X198962025Y-452040323D01*
X176200000Y-461075000D02*
X179947989Y-464822989D01*
X179947989Y-464822989D02*
X188326863Y-464822989D01*
X206200000Y-454200000D02*
X210979678Y-449420322D01*
X216560322Y-456460322D02*
X213427025Y-453327025D01*
X188326863Y-464822989D02*
X190733044Y-462416808D01*
X218012025Y-456460322D02*
X216560322Y-456460322D01*
X176200000Y-460450000D02*
X176200000Y-461075000D01*
X213427025Y-453327025D02*
X213427025Y-449420322D01*
X190733044Y-462416808D02*
X190733044Y-455454495D01*
X190733044Y-455454495D02*
X191987539Y-454200000D01*
X191987539Y-454200000D02*
X206200000Y-454200000D01*
X210979678Y-449420322D02*
X213427025Y-449420322D01*
D35*
X173175000Y-378100000D02*
X173175000Y-386275000D01*
X173175000Y-378100000D02*
X171200360Y-378100000D01*
X171200360Y-378100000D02*
X169875000Y-376774640D01*
X169875000Y-376774640D02*
X169875000Y-374560000D01*
X174675000Y-374560000D02*
X174675000Y-375640000D01*
X174675000Y-375640000D02*
X173175000Y-377140000D01*
X173175000Y-377140000D02*
X173175000Y-378100000D01*
X173175000Y-386275000D02*
X172600000Y-386850000D01*
D34*
X175400000Y-461268000D02*
X176488000Y-462356000D01*
X176488000Y-462356000D02*
X176488000Y-463780000D01*
X175400000Y-460450000D02*
X175400000Y-461268000D01*
D35*
X164855000Y-425445000D02*
X165440000Y-426030000D01*
X166985000Y-424925000D02*
X165480000Y-426430000D01*
X164855000Y-423790000D02*
X164855000Y-425445000D01*
X168500000Y-424925000D02*
X166985000Y-424925000D01*
X176488000Y-463830000D02*
X175816973Y-463830000D01*
D34*
X170950000Y-457600000D02*
X170625000Y-457600000D01*
D35*
X172475000Y-424925000D02*
X168700000Y-424925000D01*
D34*
X171800000Y-460450000D02*
X171800000Y-463050000D01*
D35*
X175816973Y-463830000D02*
X175805871Y-463818898D01*
D34*
X180375000Y-457200000D02*
X180400000Y-457225000D01*
X170625000Y-457600000D02*
X170225000Y-457200000D01*
X170100000Y-457200000D02*
X170950000Y-457200000D01*
D35*
X175625000Y-451075000D02*
X175810769Y-451075000D01*
D34*
X175400000Y-451150000D02*
X175600000Y-450950000D01*
D35*
X169150000Y-453050000D02*
X168500002Y-453050000D01*
X175000000Y-424925000D02*
X172475000Y-424925000D01*
D34*
X171800000Y-453550000D02*
X171800000Y-453100000D01*
X168700000Y-457370000D02*
X168870000Y-457200000D01*
X170225000Y-457200000D02*
X170100000Y-457200000D01*
D35*
X168500002Y-453050000D02*
X167282347Y-451832345D01*
D34*
X168870000Y-457200000D02*
X170100000Y-457200000D01*
X175400000Y-453550000D02*
X175400000Y-451150000D01*
X177850000Y-457200000D02*
X180375000Y-457200000D01*
X171800000Y-463050000D02*
X171000000Y-463850000D01*
X171800000Y-453100000D02*
X169200000Y-453100000D01*
D35*
X172475000Y-424925000D02*
X172443578Y-424956422D01*
X172443578Y-424956422D02*
X172443578Y-446206420D01*
X175810769Y-451075000D02*
X176561463Y-450324306D01*
X180400000Y-457225000D02*
X179611712Y-457225000D01*
D34*
X170285000Y-459540000D02*
X170285000Y-459600000D01*
X170625000Y-459200000D02*
X170285000Y-459540000D01*
X170950000Y-459200000D02*
X170625000Y-459200000D01*
X167985000Y-462935000D02*
X168000000Y-462950000D01*
D35*
X168070000Y-458870000D02*
X167490000Y-459450000D01*
X168400000Y-462950000D02*
X168000000Y-462950000D01*
X164905000Y-457255000D02*
X164100000Y-456450000D01*
X170900000Y-463750000D02*
X171000000Y-463850000D01*
X164905000Y-458100000D02*
X164905000Y-457255000D01*
X169200000Y-463750000D02*
X170900000Y-463750000D01*
X169200000Y-463750000D02*
X168400000Y-462950000D01*
X168070000Y-458450000D02*
X168070000Y-458870000D01*
X167490000Y-459450000D02*
X167000006Y-459450000D01*
X164100000Y-456450000D02*
X164100000Y-456000004D01*
X179611712Y-457225000D02*
X179518356Y-457318356D01*
X164849996Y-456000004D02*
X164100000Y-456000004D01*
D34*
X168700000Y-457950000D02*
X168700000Y-457370000D01*
X168070000Y-458450000D02*
X168200000Y-458450000D01*
X168200000Y-458450000D02*
X168700000Y-457950000D01*
X170285000Y-459600000D02*
X167985000Y-461900000D01*
X170950000Y-459600000D02*
X170285000Y-459600000D01*
X167985000Y-461900000D02*
X167985000Y-462935000D01*
X179000000Y-458800000D02*
X181800000Y-461600000D01*
X177850000Y-458800000D02*
X179000000Y-458800000D01*
X203923921Y-462225674D02*
X199341628Y-462225674D01*
X199341628Y-462225674D02*
X197648349Y-463918953D01*
X181800000Y-461600000D02*
X183725000Y-461600000D01*
X163200981Y-467504019D02*
X159629096Y-467504019D01*
X159629096Y-467504019D02*
X159022991Y-466897914D01*
X159022991Y-466897914D02*
X159022991Y-456407471D01*
X166700000Y-465300000D02*
X167050000Y-464950000D01*
X168023945Y-453637945D02*
X168786000Y-454400000D01*
X159022991Y-456407471D02*
X161792516Y-453637946D01*
X167050000Y-462970000D02*
X167030000Y-462950000D01*
X164905000Y-465300000D02*
X164905000Y-465800000D01*
X168786000Y-454400000D02*
X170950000Y-454400000D01*
X167050000Y-463950000D02*
X167050000Y-462970000D01*
X167050000Y-464950000D02*
X167050000Y-463950000D01*
X164905000Y-465300000D02*
X166700000Y-465300000D01*
X161792516Y-453637946D02*
X168023945Y-453637945D01*
X164905000Y-465800000D02*
X163200981Y-467504019D01*
X178779012Y-447941325D02*
X175301193Y-444463506D01*
X176600000Y-453550000D02*
X176600000Y-452121559D01*
X175301193Y-444463506D02*
X173662334Y-444463506D01*
X178775000Y-449946559D02*
X178779012Y-449942547D01*
X178775000Y-449946559D02*
X178775000Y-449925000D01*
X176600000Y-452121559D02*
X178775000Y-449946559D01*
X178779012Y-449942547D02*
X178779012Y-447941325D01*
X179106023Y-450143977D02*
X179106023Y-447805874D01*
X179106023Y-447805874D02*
X174836705Y-443536556D01*
X177000000Y-452250000D02*
X179106023Y-450143977D01*
X174836705Y-443536556D02*
X173672990Y-443536556D01*
X177000000Y-453550000D02*
X177000000Y-452250000D01*
X177850000Y-459200000D02*
X178912462Y-459200000D01*
X173420980Y-432894850D02*
X173851143Y-433325013D01*
X189425000Y-448725000D02*
X188026532Y-447326532D01*
X187785055Y-463514945D02*
X189425000Y-461875000D01*
X189425000Y-461875000D02*
X189425000Y-448725000D01*
X183227407Y-463514945D02*
X187785055Y-463514945D01*
X173420980Y-429750000D02*
X173420980Y-432894850D01*
X188026532Y-447326532D02*
X184129840Y-447326532D01*
X173851143Y-433325013D02*
X174251142Y-433725012D01*
X178912462Y-459200000D02*
X183227407Y-463514945D01*
X189752011Y-448552011D02*
X187600000Y-446400000D01*
X174749999Y-428829999D02*
X174350000Y-428430000D01*
X174971795Y-429051795D02*
X174749999Y-428829999D01*
X174971795Y-433141909D02*
X174971795Y-429051795D01*
X189752011Y-462010452D02*
X189752011Y-448552011D01*
X187920507Y-463841956D02*
X189752011Y-462010452D01*
X178850000Y-459600000D02*
X183091955Y-463841956D01*
X183091955Y-463841956D02*
X187920507Y-463841956D01*
X177850000Y-459600000D02*
X178850000Y-459600000D01*
X187600000Y-446400000D02*
X184099996Y-446400000D01*
X176200000Y-453550000D02*
X176200000Y-452059096D01*
X175761315Y-445386090D02*
X173571828Y-445386090D01*
X178452001Y-449807095D02*
X178452001Y-448076776D01*
X176200000Y-452059096D02*
X178450000Y-449809096D01*
X178452001Y-448076776D02*
X175761315Y-445386090D01*
X178450000Y-449809096D02*
X178450000Y-449800000D01*
X170447026Y-378472026D02*
X165902026Y-373927026D01*
X170447026Y-380840000D02*
X170447026Y-378472026D01*
X172175000Y-383600000D02*
X172175000Y-382542974D01*
X165902026Y-373927026D02*
X165902026Y-373220000D01*
X172175000Y-382542974D02*
X170472026Y-380840000D01*
X170472026Y-380840000D02*
X170447026Y-380840000D01*
X175800000Y-432600000D02*
X175800000Y-428400000D01*
X174600000Y-461848000D02*
X174827000Y-462075000D01*
X184172999Y-445400000D02*
X184100000Y-445472999D01*
X175800000Y-428400000D02*
X175539999Y-428139999D01*
X187300000Y-445400000D02*
X184172999Y-445400000D01*
X175327025Y-382652025D02*
X175327025Y-378760000D01*
X190079022Y-462145904D02*
X190079022Y-448179022D01*
X179912025Y-385800000D02*
X178475000Y-385800000D01*
X174600000Y-460450000D02*
X174600000Y-461848000D01*
X180818967Y-464168967D02*
X188055959Y-464168967D01*
X190079022Y-448179022D02*
X187300000Y-445400000D01*
X188055959Y-464168967D02*
X190079022Y-462145904D01*
X178725000Y-462075000D02*
X180818967Y-464168967D01*
X178475000Y-385800000D02*
X175327025Y-382652025D01*
X175539999Y-428139999D02*
X175140000Y-427740000D01*
X209041628Y-459625674D02*
X207348349Y-461318953D01*
X191060055Y-462552260D02*
X188462315Y-465150000D01*
X192122991Y-454527011D02*
X191060055Y-455589947D01*
X213623921Y-459625674D02*
X209041628Y-459625674D01*
X212325674Y-459625674D02*
X207227011Y-454527011D01*
X191060055Y-455589947D02*
X191060055Y-462552260D01*
X188462315Y-465150000D02*
X182212537Y-465150000D01*
X207227011Y-454527011D02*
X192122991Y-454527011D01*
X213623921Y-459625674D02*
X212325674Y-459625674D01*
X182212537Y-465150000D02*
X181012537Y-466350000D01*
X181012537Y-466350000D02*
X174829010Y-466350000D01*
X214123921Y-459625674D02*
X214098247Y-459600000D01*
X168070000Y-466330000D02*
X168050000Y-466350000D01*
X168050000Y-463980000D02*
X168020000Y-463950000D01*
X168050000Y-466350000D02*
X168050000Y-463980000D01*
M02*
