G04 #@! TF.GenerationSoftware,KiCad,Pcbnew,(5.1.4)-1*
G04 #@! TF.CreationDate,2023-06-13T20:26:26-04:00*
G04 #@! TF.ProjectId,ThumbsUp,5468756d-6273-4557-902e-6b696361645f,rev?*
G04 #@! TF.SameCoordinates,Original*
G04 #@! TF.FileFunction,Copper,L1,Top*
G04 #@! TF.FilePolarity,Positive*
%FSLAX46Y46*%
G04 Gerber Fmt 4.6, Leading zero omitted, Abs format (unit mm)*
G04 Created by KiCad (PCBNEW (5.1.4)-1) date 2023-06-13 20:26:26*
%MOMM*%
%LPD*%
G04 APERTURE LIST*
%ADD10C,1.575000*%
%ADD11C,2.250000*%
%ADD12C,2.250000*%
%ADD13O,1.700000X1.700000*%
%ADD14R,1.700000X1.700000*%
%ADD15O,0.900000X1.700000*%
%ADD16O,0.900000X2.000000*%
%ADD17C,1.700000*%
%ADD18C,1.700000*%
%ADD19C,0.100000*%
%ADD20C,0.800000*%
%ADD21C,3.000000*%
%ADD22C,0.500000*%
%ADD23C,0.200000*%
G04 APERTURE END LIST*
D10*
X208727730Y-453955373D03*
X212451651Y-455281047D03*
X213623921Y-459625674D03*
X206176079Y-456974326D03*
X207348349Y-461318953D03*
D11*
X160862026Y-374300000D03*
X160207027Y-375030000D03*
D12*
X159552026Y-375760000D02*
X160862028Y-374300000D01*
D11*
X165902026Y-373220000D03*
X165882026Y-373510000D03*
D12*
X165862026Y-373800000D02*
X165902026Y-373220000D01*
D13*
X186830000Y-370860000D03*
X184290000Y-370860000D03*
X181750000Y-370860000D03*
D14*
X179210000Y-370860000D03*
D11*
X184912025Y-423410322D03*
X185567024Y-422680322D03*
D12*
X186222025Y-421950322D02*
X184912023Y-423410322D01*
D11*
X179872025Y-424490322D03*
X179892025Y-424200322D03*
D12*
X179912025Y-423910322D02*
X179872025Y-424490322D01*
D10*
X199027730Y-456555373D03*
X202751651Y-457881047D03*
X203923921Y-462225674D03*
X196476079Y-459574326D03*
X197648349Y-463918953D03*
D15*
X176595000Y-369810000D03*
X167955000Y-369810000D03*
D16*
X176595000Y-373980000D03*
X167955000Y-373980000D03*
D11*
X184912025Y-385300000D03*
X185567024Y-384570000D03*
D12*
X186222025Y-383840000D02*
X184912023Y-385300000D01*
D11*
X179872025Y-386380000D03*
X179892025Y-386090000D03*
D12*
X179912025Y-385800000D02*
X179872025Y-386380000D01*
D11*
X223012025Y-455960322D03*
X223667024Y-455230322D03*
D12*
X224322025Y-454500322D02*
X223012023Y-455960322D01*
D11*
X217972025Y-457040322D03*
X217992025Y-456750322D03*
D12*
X218012025Y-456460322D02*
X217972025Y-457040322D01*
D11*
X203962025Y-450960323D03*
X204617024Y-450230323D03*
D12*
X205272025Y-449500323D02*
X203962023Y-450960323D01*
D11*
X198922025Y-452040323D03*
X198942025Y-451750323D03*
D12*
X198962025Y-451460323D02*
X198922025Y-452040323D01*
D11*
X184912025Y-442460322D03*
X185567024Y-441730322D03*
D12*
X186222025Y-441000322D02*
X184912023Y-442460322D01*
D11*
X179872025Y-443540322D03*
X179892025Y-443250322D03*
D12*
X179912025Y-442960322D02*
X179872025Y-443540322D01*
D11*
X179892025Y-405150323D03*
D12*
X179912025Y-404860323D02*
X179872025Y-405440323D01*
D11*
X179872025Y-405440323D03*
X185567024Y-403630323D03*
D12*
X186222025Y-402900323D02*
X184912023Y-404360323D01*
D11*
X184912025Y-404360323D03*
X160862025Y-431460322D03*
X160207026Y-432190322D03*
D12*
X159552025Y-432920322D02*
X160862027Y-431460322D01*
D11*
X165902025Y-430380322D03*
X165882025Y-430670322D03*
D12*
X165862025Y-430960322D02*
X165902025Y-430380322D01*
D11*
X165862025Y-420410323D03*
X166517024Y-419680323D03*
D12*
X167172025Y-418950323D02*
X165862023Y-420410323D01*
D11*
X160822025Y-421490323D03*
X160842025Y-421200323D03*
D12*
X160862025Y-420910323D02*
X160822025Y-421490323D01*
D11*
X165882026Y-392570322D03*
D12*
X165862026Y-392860322D02*
X165902026Y-392280322D01*
D11*
X165902026Y-392280322D03*
X160207027Y-394090322D03*
D12*
X159552026Y-394820322D02*
X160862028Y-393360322D01*
D11*
X160862026Y-393360322D03*
D17*
X182551669Y-468482524D03*
D18*
X182551669Y-468482524D02*
X182551669Y-468482524D01*
D17*
X185005121Y-467825124D03*
D18*
X185005121Y-467825124D02*
X185005121Y-467825124D01*
D17*
X187458572Y-467167723D03*
D18*
X187458572Y-467167723D02*
X187458572Y-467167723D01*
D17*
X189912024Y-466510323D03*
D19*
G36*
X188870991Y-465909282D02*
G01*
X190513065Y-465469290D01*
X190953057Y-467111364D01*
X189310983Y-467551356D01*
X188870991Y-465909282D01*
X188870991Y-465909282D01*
G37*
D13*
X178436722Y-428957847D03*
X180976722Y-428957847D03*
X183516722Y-428957847D03*
D14*
X186056722Y-428957847D03*
D17*
X156391130Y-471814978D03*
D18*
X156391130Y-471814978D02*
X156391130Y-471814978D01*
D17*
X155733730Y-469361526D03*
D18*
X155733730Y-469361526D02*
X155733730Y-469361526D01*
D17*
X155076329Y-466908075D03*
D18*
X155076329Y-466908075D02*
X155076329Y-466908075D01*
D17*
X154418929Y-464454623D03*
D19*
G36*
X153817888Y-465495656D02*
G01*
X153377896Y-463853582D01*
X155019970Y-463413590D01*
X155459962Y-465055664D01*
X153817888Y-465495656D01*
X153817888Y-465495656D01*
G37*
D13*
X228412025Y-458730322D03*
X228412025Y-456190322D03*
X228412025Y-453650322D03*
D14*
X228412025Y-451110322D03*
D13*
X155412019Y-422110280D03*
X155412019Y-424650280D03*
X155412019Y-427190280D03*
D14*
X155412019Y-429730280D03*
D13*
X178739012Y-409842011D03*
X181279012Y-409842011D03*
X183819012Y-409842011D03*
D14*
X186359012Y-409842011D03*
D13*
X155458726Y-371760794D03*
X155458726Y-374300794D03*
X155458726Y-376840794D03*
D14*
X155458726Y-379380794D03*
D13*
X156195921Y-451084972D03*
X158735921Y-451084972D03*
X161275921Y-451084972D03*
D14*
X163815921Y-451084972D03*
D17*
X194698626Y-465168258D03*
D18*
X194698626Y-465168258D02*
X194698626Y-465168258D01*
D17*
X194041226Y-462714806D03*
D18*
X194041226Y-462714806D02*
X194041226Y-462714806D01*
D17*
X193383825Y-460261355D03*
D18*
X193383825Y-460261355D02*
X193383825Y-460261355D01*
D17*
X192726425Y-457807903D03*
D19*
G36*
X192125384Y-458848936D02*
G01*
X191685392Y-457206862D01*
X193327466Y-456766870D01*
X193767458Y-458408944D01*
X192125384Y-458848936D01*
X192125384Y-458848936D01*
G37*
D20*
X165850000Y-388575000D03*
X158850000Y-388575000D03*
D11*
X159650000Y-391100000D03*
D21*
X167050000Y-386175000D03*
D11*
X157750000Y-386050000D03*
D13*
X185832025Y-390860322D03*
X183292025Y-390860322D03*
X180752025Y-390860322D03*
D14*
X178212025Y-390860322D03*
D17*
X173212025Y-471010322D03*
D18*
X173212025Y-471010322D02*
X173212025Y-471010322D01*
D17*
X170758573Y-471667722D03*
D18*
X170758573Y-471667722D02*
X170758573Y-471667722D01*
D17*
X168305122Y-472325123D03*
D18*
X168305122Y-472325123D02*
X168305122Y-472325123D01*
D17*
X165851670Y-472982523D03*
D19*
G36*
X164810637Y-472381482D02*
G01*
X166452711Y-471941490D01*
X166892703Y-473583564D01*
X165250629Y-474023556D01*
X164810637Y-472381482D01*
X164810637Y-472381482D01*
G37*
D20*
X168674981Y-459425019D03*
X167792990Y-456752990D03*
X180411146Y-459317264D03*
X174047144Y-463784900D03*
X174450000Y-462950000D03*
X169800213Y-457838858D03*
X171671824Y-447147929D03*
X169182472Y-458530050D03*
X170750000Y-447050000D03*
X171325000Y-444250000D03*
X172525000Y-376350000D03*
X170275000Y-444150000D03*
X171125000Y-376325002D03*
X161160000Y-461050000D03*
X178225000Y-460450000D03*
X157600000Y-422799994D03*
X157524999Y-418674999D03*
X166325000Y-450975000D03*
X181584199Y-459261643D03*
X177072383Y-449550800D03*
X181283820Y-453678953D03*
X183325000Y-458050000D03*
X169200000Y-451000000D03*
X167000000Y-455975990D03*
X170150000Y-464900000D03*
X166223005Y-461126995D03*
X178969145Y-464900000D03*
X176477000Y-458523000D03*
X175729995Y-464899995D03*
X170043126Y-423774993D03*
X177504000Y-465700000D03*
X160900000Y-446900000D03*
X174200000Y-467400000D03*
X169250000Y-467400000D03*
X161591611Y-446182728D03*
X162167727Y-445456476D03*
X162829392Y-444807206D03*
X173530377Y-441025984D03*
X173563055Y-440099549D03*
X174020492Y-439172764D03*
X174558538Y-438417875D03*
X167100000Y-442300000D03*
X174100000Y-446500000D03*
X172798968Y-407100000D03*
X177124994Y-448550000D03*
X181041067Y-447294144D03*
X176255856Y-447294144D03*
X167282347Y-451832345D03*
X172443578Y-446206420D03*
X176561463Y-450324306D03*
X169200000Y-463750000D03*
X167000006Y-459450000D03*
X164100000Y-456000004D03*
X175805871Y-463818898D03*
X179518356Y-457318356D03*
X183725000Y-461600000D03*
X173662334Y-444463506D03*
X173672990Y-443536556D03*
X184129840Y-447326532D03*
X174251142Y-433725012D03*
X173420980Y-429750000D03*
X174971795Y-433141909D03*
X184099996Y-446400000D03*
X174350000Y-428430000D03*
X173571828Y-445386090D03*
X172175000Y-383600000D03*
X174827000Y-462075000D03*
X175800000Y-432600000D03*
X178725000Y-462075000D03*
X175140000Y-427740000D03*
X184100000Y-445472999D03*
X168050000Y-466350000D03*
X174829010Y-466350000D03*
D22*
X168674981Y-459425019D02*
X180303391Y-459425019D01*
X167792990Y-456752990D02*
X167792990Y-458543028D01*
X167792990Y-458543028D02*
X168674981Y-459425019D01*
X180303391Y-459425019D02*
X180411146Y-459317264D01*
D23*
X175224258Y-463152011D02*
X174591369Y-463784900D01*
X174591369Y-463784900D02*
X174047144Y-463784900D01*
X180332008Y-463152011D02*
X175224258Y-463152011D01*
X185005121Y-467825124D02*
X180332008Y-463152011D01*
X182749038Y-462852002D02*
X182722036Y-462825000D01*
X183142851Y-462852002D02*
X182749038Y-462852002D01*
X187458572Y-467167723D02*
X183142851Y-462852002D01*
X182722036Y-462825000D02*
X174575000Y-462825000D01*
X174575000Y-462825000D02*
X174450000Y-462950000D01*
X171671824Y-450653176D02*
X171671824Y-447147929D01*
X169800213Y-457838858D02*
X169125000Y-457163645D01*
X169125000Y-457163645D02*
X169125000Y-453200000D01*
X169125000Y-453200000D02*
X171671824Y-450653176D01*
X170750000Y-450900000D02*
X170750000Y-447050000D01*
X168782473Y-452867527D02*
X170750000Y-450900000D01*
X169182472Y-458530050D02*
X168782473Y-458130051D01*
X168782473Y-458130051D02*
X168782473Y-452867527D01*
X171104022Y-424346131D02*
X171104022Y-377916978D01*
X170681033Y-443350033D02*
X170681033Y-424769115D01*
X171104022Y-377916978D02*
X172525000Y-376496000D01*
X172525000Y-376496000D02*
X172525000Y-376350000D01*
X171325000Y-444250000D02*
X171325000Y-443994000D01*
X170681033Y-424769115D02*
X171104022Y-424346131D01*
X171325000Y-443994000D02*
X170681033Y-443350033D01*
X170354022Y-444070978D02*
X170354022Y-424904566D01*
X170777011Y-424210678D02*
X170777011Y-377307989D01*
X170354022Y-424904566D02*
X170354024Y-424633660D01*
X171125000Y-376890687D02*
X171125000Y-376325002D01*
X170354024Y-424633660D02*
X170777011Y-424210678D01*
X170777011Y-377307989D02*
X171125000Y-376960000D01*
X171125000Y-376960000D02*
X171125000Y-376890687D01*
X170275000Y-444150000D02*
X170354022Y-444070978D01*
D22*
X167172025Y-425150322D02*
X159552025Y-432770322D01*
X159552025Y-432770322D02*
X159552025Y-432920322D01*
X167172025Y-418950323D02*
X167172025Y-425150322D01*
X166300000Y-450950000D02*
X166300000Y-442730000D01*
X156625001Y-387174999D02*
X156625001Y-391893297D01*
X194041226Y-462714806D02*
X194041226Y-464510858D01*
X193383825Y-460261355D02*
X193383825Y-458465303D01*
X166325000Y-450975000D02*
X161160000Y-456140000D01*
X161160000Y-460484315D02*
X161160000Y-461050000D01*
X161160000Y-456140000D02*
X161160000Y-460484315D01*
X166300000Y-442730000D02*
X160270000Y-436700000D01*
X160270000Y-433643337D02*
X160862025Y-433051312D01*
X160862025Y-433051312D02*
X160862025Y-431460322D01*
X156625001Y-391893297D02*
X159552026Y-394820322D01*
X194070854Y-459574326D02*
X193383825Y-460261355D01*
X198878953Y-457881047D02*
X198169358Y-457881047D01*
X166325000Y-450975000D02*
X166300000Y-450950000D01*
X193383825Y-458465303D02*
X192726425Y-457807903D01*
X157750000Y-386050000D02*
X156625001Y-387174999D01*
X176595000Y-373980000D02*
X176595000Y-369810000D01*
X202751651Y-457881047D02*
X198878953Y-457881047D01*
X160270000Y-436700000D02*
X160270000Y-433643337D01*
X194041226Y-464510858D02*
X194698626Y-465168258D01*
X196476079Y-459574326D02*
X194070854Y-459574326D01*
X208727730Y-453955373D02*
X208727730Y-454422675D01*
X208727730Y-454422675D02*
X206176079Y-456974326D01*
X224322025Y-454500322D02*
X224315251Y-454493548D01*
X224315251Y-454493548D02*
X213239150Y-454493548D01*
X199027730Y-456555373D02*
X199027730Y-457732270D01*
X199027730Y-457732270D02*
X198878953Y-457881047D01*
X198169358Y-457881047D02*
X196476079Y-459574326D01*
X206176079Y-456974326D02*
X203658372Y-456974326D01*
X203658372Y-456974326D02*
X202751651Y-457881047D01*
X212451651Y-455281047D02*
X210053404Y-455281047D01*
X213239150Y-454493548D02*
X212451651Y-455281047D01*
X210053404Y-455281047D02*
X208727730Y-453955373D01*
X158969064Y-394820322D02*
X156900001Y-396889385D01*
X157125000Y-418275000D02*
X157524999Y-418674999D01*
X205732680Y-450960323D02*
X205732680Y-449960978D01*
X204500000Y-448728298D02*
X205272025Y-449500323D01*
X156900001Y-396889385D02*
X156900001Y-418050001D01*
X159552026Y-394820322D02*
X158969064Y-394820322D01*
X199027730Y-454972270D02*
X199027730Y-456555373D01*
X187900000Y-423628297D02*
X186222025Y-421950322D01*
X185500000Y-440278297D02*
X185500000Y-436900000D01*
X205272025Y-449500323D02*
X205272025Y-450727975D01*
X205732680Y-449960978D02*
X205272025Y-449500323D01*
X186222025Y-441000322D02*
X185500000Y-440278297D01*
X156900001Y-418050001D02*
X157125000Y-418275000D01*
X157600000Y-418750000D02*
X157600000Y-422234309D01*
X199100000Y-454900000D02*
X198400000Y-454900000D01*
X199100000Y-454900000D02*
X199027730Y-454972270D01*
X198400000Y-454900000D02*
X185960322Y-442460322D01*
X187900000Y-434500000D02*
X187900000Y-423628297D01*
X157600000Y-422234309D02*
X157600000Y-422799994D01*
X185960322Y-442460322D02*
X184912025Y-442460322D01*
X205272025Y-450727975D02*
X201100000Y-454900000D01*
X201100000Y-454900000D02*
X199100000Y-454900000D01*
X208727730Y-453955373D02*
X205732680Y-450960323D01*
X186222025Y-441000322D02*
X186621703Y-441400000D01*
X185500000Y-436900000D02*
X187900000Y-434500000D01*
X171004597Y-465188912D02*
X174875393Y-465188912D01*
X181283820Y-453678953D02*
X177155667Y-449550800D01*
X180395842Y-460450000D02*
X181584199Y-459261643D01*
X170150000Y-464900000D02*
X170715685Y-464900000D01*
X181283820Y-458961264D02*
X181584199Y-459261643D01*
X159552025Y-432920322D02*
X159320024Y-432688321D01*
X166215028Y-451084972D02*
X166325000Y-450975000D01*
X181283820Y-453678953D02*
X181283820Y-458961264D01*
X181283820Y-458166180D02*
X181283820Y-458441180D01*
X181200000Y-458525000D02*
X176479000Y-458525000D01*
X176479000Y-458525000D02*
X176477000Y-458523000D01*
X181283820Y-458441180D02*
X181200000Y-458525000D01*
X178225000Y-460450000D02*
X180395842Y-460450000D01*
X168059348Y-452140652D02*
X169200000Y-451000000D01*
X170715685Y-464900000D02*
X171004597Y-465188912D01*
X174875393Y-465188912D02*
X175164310Y-464899995D01*
X175164310Y-464899995D02*
X175729995Y-464899995D01*
X168059348Y-454916642D02*
X168059348Y-452140652D01*
X163815921Y-451084972D02*
X166215028Y-451084972D01*
X167172025Y-418950323D02*
X166550000Y-418328298D01*
X167000000Y-455975990D02*
X168059348Y-454916642D01*
X160125000Y-433493297D02*
X159552025Y-432920322D01*
X160150000Y-376357974D02*
X159552026Y-375760000D01*
X177155667Y-449550800D02*
X177072383Y-449550800D01*
X166200000Y-461899962D02*
X166200000Y-461150000D01*
X169200038Y-464900000D02*
X166200000Y-461899962D01*
X178969145Y-464900000D02*
X175730000Y-464900000D01*
X175730000Y-464900000D02*
X175729995Y-464899995D01*
X178969145Y-464900000D02*
X182551669Y-468482524D01*
X166200000Y-461150000D02*
X166223005Y-461126995D01*
X170150000Y-464900000D02*
X169200038Y-464900000D01*
X181417640Y-458050000D02*
X183325000Y-458050000D01*
X181283820Y-457916180D02*
X181417640Y-458050000D01*
D23*
X162775000Y-455452964D02*
X167322990Y-450904974D01*
X167322990Y-450904974D02*
X167322990Y-444627010D01*
X170027011Y-423747989D02*
X170050000Y-423725000D01*
X169325444Y-465700000D02*
X162775000Y-459149556D01*
X170027011Y-441922989D02*
X170027011Y-423747989D01*
X170050000Y-423725000D02*
X170050000Y-423768119D01*
X176400000Y-465650000D02*
X176350000Y-465700000D01*
X176350000Y-465700000D02*
X177504000Y-465700000D01*
X162775000Y-459149556D02*
X162775000Y-455452964D01*
X167322990Y-444627010D02*
X170027011Y-441922989D01*
X170450000Y-423325000D02*
X170450000Y-389575000D01*
X170050000Y-423768119D02*
X170043126Y-423774993D01*
X177504000Y-465700000D02*
X169325444Y-465700000D01*
X170050000Y-423725000D02*
X170450000Y-423325000D01*
X170450000Y-389575000D02*
X167050000Y-386175000D01*
X174200000Y-467400000D02*
X169250000Y-467400000D01*
X156100000Y-440600000D02*
X160700000Y-445200000D01*
X160700000Y-445200000D02*
X160700000Y-446700000D01*
X156100000Y-430418261D02*
X156100000Y-440600000D01*
X155412019Y-429730280D02*
X156100000Y-430418261D01*
X160700000Y-446700000D02*
X160900000Y-446900000D01*
X161191612Y-445229150D02*
X161191612Y-445782729D01*
X157100000Y-428878261D02*
X157100000Y-430900000D01*
X155412019Y-427190280D02*
X157100000Y-428878261D01*
X157100000Y-430900000D02*
X156427011Y-431572989D01*
X156427011Y-431572989D02*
X156427011Y-440464549D01*
X156427011Y-440464549D02*
X161191612Y-445229150D01*
X161191612Y-445782729D02*
X161591611Y-446182728D01*
X161994013Y-445456476D02*
X162167727Y-445456476D01*
X157427010Y-426665271D02*
X157427010Y-431035453D01*
X156754022Y-440216485D02*
X161994013Y-445456476D01*
X155412019Y-424650280D02*
X157427010Y-426665271D01*
X157427010Y-431035453D02*
X156754022Y-431708438D01*
X156754022Y-431708438D02*
X156754022Y-440216485D01*
X155412019Y-422110280D02*
X157754021Y-424452282D01*
X161807206Y-444807206D02*
X162829392Y-444807206D01*
X157754021Y-424452282D02*
X157754021Y-431170905D01*
X157081033Y-431843890D02*
X157081033Y-440081033D01*
X157754021Y-431170905D02*
X157081033Y-431843890D01*
X157081033Y-440081033D02*
X161807206Y-444807206D01*
X175879764Y-428957847D02*
X172643099Y-432194512D01*
X172643099Y-432194512D02*
X172643099Y-440138706D01*
X173130378Y-440625985D02*
X173530377Y-441025984D01*
X172643099Y-440138706D02*
X173130378Y-440625985D01*
X178436722Y-428957847D02*
X175879764Y-428957847D01*
X172970110Y-439506604D02*
X173163056Y-439699550D01*
X173163056Y-439699550D02*
X173563055Y-440099549D01*
X179763591Y-430170978D02*
X175129096Y-430170978D01*
X180976722Y-428957847D02*
X179763591Y-430170978D01*
X175129096Y-430170978D02*
X172970110Y-432329964D01*
X172970110Y-432329964D02*
X172970110Y-439506604D01*
X181976580Y-430497989D02*
X175339548Y-430497989D01*
X175339548Y-430497989D02*
X173297121Y-432540416D01*
X173297121Y-438449393D02*
X173620493Y-438772765D01*
X173620493Y-438772765D02*
X174020492Y-439172764D01*
X183516722Y-428957847D02*
X181976580Y-430497989D01*
X173297121Y-432540416D02*
X173297121Y-438449393D01*
X175475000Y-430825000D02*
X173624132Y-432675868D01*
X186056722Y-428957847D02*
X186056722Y-430007847D01*
X173624132Y-432675868D02*
X173624132Y-437483469D01*
X173624132Y-437483469D02*
X174158539Y-438017876D01*
X174158539Y-438017876D02*
X174558538Y-438417875D01*
X186056722Y-430007847D02*
X185239569Y-430825000D01*
X185239569Y-430825000D02*
X175475000Y-430825000D01*
X170100000Y-396000000D02*
X170100000Y-422400000D01*
X165862026Y-392860322D02*
X166960322Y-392860322D01*
X169700000Y-438800002D02*
X167100000Y-441400002D01*
X169164000Y-424064000D02*
X169700000Y-424600000D01*
X166960322Y-392860322D02*
X170100000Y-396000000D01*
X169164000Y-423336000D02*
X169164000Y-424064000D01*
X170100000Y-422400000D02*
X169164000Y-423336000D01*
X167100000Y-441734315D02*
X167100000Y-442300000D01*
X169700000Y-424600000D02*
X169700000Y-438800002D01*
X167100000Y-441400002D02*
X167100000Y-441734315D01*
X172452011Y-407491957D02*
X172452011Y-424847989D01*
X171989077Y-440834806D02*
X174499999Y-443345728D01*
X174499999Y-443345728D02*
X174499999Y-446100001D01*
X171989077Y-425310923D02*
X171989077Y-440834806D01*
X172843968Y-407100000D02*
X172452011Y-407491957D01*
X174499999Y-446100001D02*
X174100000Y-446500000D01*
X172452011Y-424847989D02*
X171989077Y-425310923D01*
X172779022Y-431583325D02*
X178747026Y-425615321D01*
X177124994Y-448550000D02*
X176559309Y-448550000D01*
X176559309Y-448550000D02*
X174900000Y-446890691D01*
X172316088Y-440699354D02*
X172316088Y-432059060D01*
X178747026Y-425615321D02*
X179872025Y-424490322D01*
X172316088Y-432059060D02*
X172779022Y-431596126D01*
X174900000Y-443283266D02*
X172316088Y-440699354D01*
X172779022Y-431596126D02*
X172779022Y-431583325D01*
X174900000Y-446890691D02*
X174900000Y-443283266D01*
X179872025Y-443677975D02*
X179872025Y-443540322D01*
X176255856Y-447294144D02*
X181041067Y-447294144D01*
D22*
X168824980Y-445725000D02*
X168174999Y-446374981D01*
X168174999Y-450939693D02*
X167282347Y-451832345D01*
X166075000Y-456000000D02*
X166074996Y-456000004D01*
X179518356Y-457318356D02*
X179518356Y-453281199D01*
X166075000Y-453039692D02*
X167282347Y-451832345D01*
X172043579Y-445756421D02*
X172043579Y-445806421D01*
X173674183Y-464561901D02*
X174497183Y-464561901D01*
X167000006Y-459450000D02*
X166075000Y-458524994D01*
X179518356Y-453281199D02*
X176561463Y-450324306D01*
X166075000Y-458524994D02*
X166075000Y-453039692D01*
X175240186Y-463818898D02*
X175805871Y-463818898D01*
X168174999Y-446374981D02*
X168174999Y-450939693D01*
X172075000Y-445725000D02*
X168824980Y-445725000D01*
X166074996Y-456000004D02*
X164100000Y-456000004D01*
X172075000Y-445725000D02*
X172075000Y-445837843D01*
X172043579Y-445806421D02*
X172443578Y-446206420D01*
X172075000Y-445725000D02*
X172043579Y-445756421D01*
X174497183Y-464561901D02*
X175240186Y-463818898D01*
X172862282Y-463750000D02*
X173674183Y-464561901D01*
X169200000Y-463750000D02*
X172862282Y-463750000D01*
X172075000Y-445837843D02*
X176561463Y-450324306D01*
X169200000Y-463750000D02*
X167000006Y-461550006D01*
X167000006Y-461550006D02*
X167000006Y-459450000D01*
D23*
X203298247Y-461600000D02*
X203923921Y-462225674D01*
X183725000Y-461600000D02*
X203298247Y-461600000D01*
X178212025Y-390860322D02*
X177162025Y-390860322D01*
X171335055Y-442136227D02*
X173262335Y-444063507D01*
X173262335Y-444063507D02*
X173662334Y-444463506D01*
X171797989Y-396224358D02*
X171797989Y-424577088D01*
X171335055Y-425040019D02*
X171335055Y-442136227D01*
X171797989Y-424577088D02*
X171335055Y-425040019D01*
X177162025Y-390860322D02*
X171797989Y-396224358D01*
X171662066Y-441525632D02*
X173272991Y-443136557D01*
X176025000Y-392487611D02*
X172125000Y-396387611D01*
X179124736Y-392487611D02*
X176025000Y-392487611D01*
X171662066Y-425175471D02*
X171662066Y-441525632D01*
X173272991Y-443136557D02*
X173672990Y-443536556D01*
X180752025Y-390860322D02*
X179124736Y-392487611D01*
X172125000Y-424712538D02*
X171662066Y-425175471D01*
X172125000Y-396387611D02*
X172125000Y-424712538D01*
X181337725Y-392814622D02*
X176160452Y-392814622D01*
X173425978Y-428541865D02*
X173420980Y-428546863D01*
X176160452Y-392814622D02*
X173425978Y-395549096D01*
X173425978Y-395549096D02*
X173425978Y-428541865D01*
X173420980Y-429184315D02*
X173420980Y-429750000D01*
X173420980Y-428546863D02*
X173420980Y-429184315D01*
X183292025Y-390860322D02*
X181337725Y-392814622D01*
X175445978Y-434919848D02*
X174651141Y-434125011D01*
X184129840Y-447326532D02*
X183457330Y-446654022D01*
X174651141Y-434125011D02*
X174251142Y-433725012D01*
X183457330Y-446654022D02*
X178729096Y-446654022D01*
X178729096Y-446654022D02*
X175445978Y-443370904D01*
X175445978Y-443370904D02*
X175445978Y-434919848D01*
X185832025Y-390860322D02*
X184165338Y-392527009D01*
X173752989Y-427832989D02*
X173950001Y-428030001D01*
X173950001Y-428030001D02*
X174350000Y-428430000D01*
X181473177Y-393141633D02*
X176295904Y-393141633D01*
X176295904Y-393141633D02*
X173752989Y-395684548D01*
X182087801Y-392527009D02*
X181473177Y-393141633D01*
X173752989Y-395684548D02*
X173752989Y-427832989D01*
X184165338Y-392527009D02*
X182087801Y-392527009D01*
X175371794Y-433541908D02*
X174971795Y-433141909D01*
X178864548Y-446327011D02*
X175772989Y-443235452D01*
X184027007Y-446327011D02*
X178864548Y-446327011D01*
X175772989Y-443235452D02*
X175772989Y-433943103D01*
X184099996Y-446400000D02*
X184027007Y-446327011D01*
X175772989Y-433943103D02*
X175371794Y-433541908D01*
X171431033Y-424481582D02*
X171008044Y-424904567D01*
X173171829Y-444986091D02*
X173571828Y-445386090D01*
X171008044Y-442822306D02*
X173171829Y-444986091D01*
X171431033Y-384343967D02*
X171431033Y-424481582D01*
X172175000Y-383600000D02*
X171431033Y-384343967D01*
X171008044Y-424904567D02*
X171008044Y-442822306D01*
X174080000Y-426680000D02*
X174740001Y-427340001D01*
X180997024Y-387504999D02*
X185254999Y-387504999D01*
X187400000Y-391800000D02*
X186345980Y-392854020D01*
X182223253Y-392854020D02*
X181608629Y-393468644D01*
X174080000Y-395820000D02*
X174080000Y-426680000D01*
X187400000Y-389650000D02*
X187400000Y-391800000D01*
X185254999Y-387504999D02*
X187400000Y-389650000D01*
X179872025Y-386380000D02*
X180997024Y-387504999D01*
X174740001Y-427340001D02*
X175140000Y-427740000D01*
X181608629Y-393468644D02*
X176431356Y-393468644D01*
X176431356Y-393468644D02*
X174080000Y-395820000D01*
X186345980Y-392854020D02*
X182223253Y-392854020D01*
X183913501Y-445472999D02*
X184100000Y-445472999D01*
X175800000Y-433165685D02*
X176100000Y-433465685D01*
X176100000Y-433465685D02*
X176100000Y-443100000D01*
X179000000Y-446000000D02*
X183386500Y-446000000D01*
X175800000Y-432600000D02*
X175800000Y-433165685D01*
X174827000Y-462075000D02*
X178725000Y-462075000D01*
X183386500Y-446000000D02*
X183913501Y-445472999D01*
X176100000Y-443100000D02*
X179000000Y-446000000D01*
X168050000Y-466350000D02*
X174829010Y-466350000D01*
M02*
