M48
; DRILL file {KiCad (5.1.4)-1} date 6/13/2023 8:26:29 PM
; FORMAT={-:-/ absolute / metric / decimal}
; #@! TF.CreationDate,2023-06-13T20:26:29-04:00
; #@! TF.GenerationSoftware,Kicad,Pcbnew,(5.1.4)-1
; #@! TF.FileFunction,Plated,1,2,PTH
FMAT,2
METRIC
T1C0.400
T2C0.600
T3C1.000
T4C1.050
T5C1.470
T6C1.500
T7C1.600
T8C2.000
%
G90
G05
T1
X157.525Y-418.675
X157.6Y-422.8
X160.9Y-446.9
X161.16Y-461.05
X161.592Y-446.183
X162.168Y-445.456
X162.829Y-444.807
X164.1Y-456.0
X166.223Y-461.127
X166.325Y-450.975
X167.0Y-455.976
X167.0Y-459.45
X167.1Y-442.3
X167.282Y-451.832
X167.793Y-456.753
X168.05Y-466.35
X168.675Y-459.425
X169.182Y-458.53
X169.2Y-451.0
X169.2Y-463.75
X169.25Y-467.4
X169.8Y-457.839
X170.043Y-423.775
X170.15Y-464.9
X170.275Y-444.15
X170.75Y-447.05
X171.125Y-376.325
X171.325Y-444.25
X171.672Y-447.148
X172.175Y-383.6
X172.444Y-446.206
X172.525Y-376.35
X172.799Y-407.1
X173.421Y-429.75
X173.53Y-441.026
X173.563Y-440.1
X173.572Y-445.386
X173.662Y-444.464
X173.673Y-443.537
X174.02Y-439.173
X174.047Y-463.785
X174.1Y-446.5
X174.2Y-467.4
X174.251Y-433.725
X174.35Y-428.43
X174.45Y-462.95
X174.559Y-438.418
X174.827Y-462.075
X174.829Y-466.35
X174.972Y-433.142
X175.14Y-427.74
X175.73Y-464.9
X175.8Y-432.6
X175.806Y-463.819
X176.256Y-447.294
X176.477Y-458.523
X176.561Y-450.324
X177.072Y-449.551
X177.125Y-448.55
X177.504Y-465.7
X178.225Y-460.45
X178.725Y-462.075
X178.969Y-464.9
X179.518Y-457.318
X180.411Y-459.317
X181.041Y-447.294
X181.284Y-453.679
X181.584Y-459.262
X183.325Y-458.05
X183.725Y-461.6
X184.1Y-446.4
X184.1Y-445.473
X184.13Y-447.327
T3
X179.21Y-370.86
X181.75Y-370.86
X184.29Y-370.86
X186.83Y-370.86
X192.726Y-457.808
X193.384Y-460.261
X194.041Y-462.715
X194.699Y-465.168
X178.437Y-428.958
X180.977Y-428.958
X183.517Y-428.958
X186.057Y-428.958
X155.412Y-422.11
X155.412Y-424.65
X155.412Y-427.19
X155.412Y-429.73
X178.212Y-390.86
X180.752Y-390.86
X183.292Y-390.86
X185.832Y-390.86
X156.196Y-451.085
X158.736Y-451.085
X161.276Y-451.085
X163.816Y-451.085
X182.552Y-468.483
X185.005Y-467.825
X187.459Y-467.168
X189.912Y-466.51
X165.852Y-472.983
X168.305Y-472.325
X170.759Y-471.668
X173.212Y-471.01
X155.459Y-371.761
X155.459Y-374.301
X155.459Y-376.841
X155.459Y-379.381
X154.419Y-464.455
X155.076Y-466.908
X155.734Y-469.362
X156.391Y-471.815
X228.412Y-451.11
X228.412Y-453.65
X228.412Y-456.19
X228.412Y-458.73
X178.739Y-409.842
X181.279Y-409.842
X183.819Y-409.842
X186.359Y-409.842
T4
X206.176Y-456.974
X207.348Y-461.319
X208.728Y-453.955
X212.452Y-455.281
X213.624Y-459.626
X196.476Y-459.574
X197.648Y-463.919
X199.028Y-456.555
X202.752Y-457.881
X203.924Y-462.226
T5
X198.922Y-452.04
X198.962Y-451.46
X203.962Y-450.96
X205.272Y-449.5
X179.872Y-405.44
X179.912Y-404.86
X184.912Y-404.36
X186.222Y-402.9
X160.822Y-421.49
X160.862Y-420.91
X165.862Y-420.41
X167.172Y-418.95
X159.552Y-394.82
X160.862Y-393.36
X165.862Y-392.86
X165.902Y-392.28
X179.872Y-386.38
X179.912Y-385.8
X184.912Y-385.3
X186.222Y-383.84
X159.552Y-375.76
X160.862Y-374.3
X165.862Y-373.8
X165.902Y-373.22
X217.972Y-457.04
X218.012Y-456.46
X223.012Y-455.96
X224.322Y-454.5
X179.872Y-424.49
X179.912Y-423.91
X184.912Y-423.41
X186.222Y-421.95
X179.872Y-443.54
X179.912Y-442.96
X184.912Y-442.46
X186.222Y-441.0
X159.552Y-432.92
X160.862Y-431.46
X165.862Y-430.96
X165.902Y-430.38
T6
X157.75Y-386.05
X159.65Y-391.1
T7
X158.85Y-388.575
X165.85Y-388.575
T8
X167.05Y-386.175
T2
X167.955Y-369.41G85X167.955Y-370.21
G05
X167.955Y-373.43G85X167.955Y-374.53
G05
X176.595Y-369.41G85X176.595Y-370.21
G05
X176.595Y-373.43G85X176.595Y-374.53
G05
T0
M30
