M48
; DRILL file {KiCad (5.1.4)-1} date 9/9/2023 5:33:10 AM
; FORMAT={-:-/ absolute / metric / decimal}
; #@! TF.CreationDate,2023-09-09T05:33:10-04:00
; #@! TF.GenerationSoftware,Kicad,Pcbnew,(5.1.4)-1
; #@! TF.FileFunction,Plated,1,2,PTH
FMAT,2
METRIC
T1C0.350
T2C0.400
T3C0.600
T4C1.000
T5C1.050
%
G90
G05
T1
X172.29Y-458.75
X176.44Y-457.6
X173.125Y-455.725
X173.125Y-457.0
X173.125Y-458.275
X174.4Y-455.725
X174.4Y-457.0
X174.4Y-458.275
X175.675Y-455.725
X175.675Y-457.0
X175.675Y-458.275
T2
X159.18Y-468.21
X163.35Y-456.17
X165.17Y-458.04
X165.2Y-440.954
X165.7Y-453.7
X166.2Y-449.8
X166.304Y-440.897
X167.226Y-440.999
X168.0Y-453.7
X168.073Y-449.5
X168.09Y-457.027
X168.09Y-458.85
X168.1Y-451.923
X168.139Y-440.837
X169.08Y-458.53
X169.1Y-449.5
X169.1Y-451.923
X169.196Y-421.4
X169.336Y-440.862
X169.51Y-459.98
X169.823Y-395.2
X169.824Y-457.967
X169.89Y-463.85
X169.92Y-464.85
X170.6Y-367.9
X170.8Y-452.4
X171.4Y-368.7
X171.4Y-371.523
X171.8Y-378.2
X172.6Y-447.1
X172.627Y-371.523
X172.712Y-446.087
X172.9Y-368.7
X173.219Y-407.5
X173.3Y-447.9
X173.6Y-429.6
X174.2Y-368.7
X174.293Y-446.186
X174.3Y-448.094
X174.5Y-428.8
X174.622Y-445.319
X175.1Y-395.6
X175.178Y-432.816
X175.178Y-433.743
X175.3Y-427.7
X175.301Y-444.687
X175.53Y-463.01
X175.561Y-463.936
X175.582Y-464.863
X175.6Y-441.2
X175.71Y-449.38
X176.04Y-432.474
X176.1Y-427.2
X176.248Y-447.489
X176.496Y-462.201
X176.76Y-448.61
X177.1Y-372.7
X177.1Y-373.7
X179.43Y-458.01
X179.992Y-455.773
X180.74Y-464.0
X181.35Y-447.6
X182.27Y-460.71
X182.677Y-447.587
X182.76Y-446.457
X182.877Y-445.496
X182.99Y-459.62
X183.06Y-450.03
X183.08Y-455.53
X188.661Y-446.299
X190.16Y-464.12
X190.308Y-457.52
X190.5Y-444.3
T4
X192.726Y-457.808
X193.384Y-460.261
X194.041Y-462.715
X194.699Y-465.168
X155.459Y-371.761
X155.459Y-374.301
X155.459Y-376.841
X155.459Y-379.381
X228.412Y-451.11
X228.412Y-453.65
X228.412Y-456.19
X228.412Y-458.73
X179.21Y-370.86
X181.75Y-370.86
X184.29Y-370.86
X186.83Y-370.86
X156.196Y-451.085
X158.736Y-451.085
X161.276Y-451.085
X163.816Y-451.085
X178.437Y-428.958
X180.977Y-428.958
X183.517Y-428.958
X186.057Y-428.958
X178.739Y-409.842
X181.279Y-409.842
X183.819Y-409.842
X186.359Y-409.842
X182.552Y-468.483
X185.005Y-467.825
X187.459Y-467.168
X189.912Y-466.51
X154.419Y-464.455
X155.076Y-466.908
X155.734Y-469.362
X156.391Y-471.815
X178.212Y-390.86
X180.752Y-390.86
X183.292Y-390.86
X185.832Y-390.86
X165.852Y-472.983
X168.305Y-472.325
X170.759Y-471.668
X173.212Y-471.01
X155.412Y-422.11
X155.412Y-424.65
X155.412Y-427.19
X155.412Y-429.73
T5
X196.476Y-459.574
X197.648Y-463.919
X202.752Y-457.881
X203.924Y-462.226
X206.176Y-456.974
X207.348Y-461.319
X213.624Y-459.626
T3
X168.1Y-365.2G85X168.1Y-366.0
G05
X168.1Y-369.22G85X168.1Y-370.32
G05
X176.74Y-365.2G85X176.74Y-366.0
G05
X176.74Y-369.22G85X176.74Y-370.32
G05
X157.66Y-369.62G85X158.26Y-369.62
G05
X160.66Y-369.62G85X161.26Y-369.62
G05
X164.66Y-369.62G85X165.26Y-369.62
G05
X165.76Y-365.02G85X166.36Y-365.02
G05
T0
M30
