G04 #@! TF.GenerationSoftware,KiCad,Pcbnew,(5.1.4)-1*
G04 #@! TF.CreationDate,2023-09-09T05:33:07-04:00*
G04 #@! TF.ProjectId,ThumbsUp,5468756d-6273-4557-902e-6b696361645f,rev?*
G04 #@! TF.SameCoordinates,Original*
G04 #@! TF.FileFunction,Copper,L1,Top*
G04 #@! TF.FilePolarity,Positive*
%FSLAX46Y46*%
G04 Gerber Fmt 4.6, Leading zero omitted, Abs format (unit mm)*
G04 Created by KiCad (PCBNEW (5.1.4)-1) date 2023-09-09 05:33:07*
%MOMM*%
%LPD*%
G04 APERTURE LIST*
%ADD10C,3.000000*%
%ADD11C,1.575000*%
%ADD12O,1.800000X1.200000*%
%ADD13C,0.600000*%
%ADD14O,0.900000X1.700000*%
%ADD15O,0.900000X2.000000*%
%ADD16O,1.700000X1.700000*%
%ADD17R,1.700000X1.700000*%
%ADD18C,1.700000*%
%ADD19C,1.700000*%
%ADD20C,0.100000*%
%ADD21C,0.800000*%
%ADD22C,0.500000*%
%ADD23C,0.200000*%
G04 APERTURE END LIST*
D10*
X168062025Y-412010323D03*
X160762025Y-410660323D03*
X168062025Y-431060322D03*
X160762025Y-429710322D03*
D11*
X202751651Y-457881047D03*
X203923921Y-462225674D03*
X196476079Y-459574326D03*
X197648349Y-463918953D03*
X213623921Y-459625674D03*
X206176079Y-456974326D03*
X207348349Y-461318953D03*
D12*
X166060000Y-365020000D03*
X164960000Y-369620000D03*
X160960000Y-369620000D03*
X157960000Y-369620000D03*
D10*
X177712025Y-442860322D03*
X185012025Y-444210322D03*
X177712025Y-385700000D03*
X185012025Y-387050000D03*
X168062026Y-373900000D03*
X160762026Y-372550000D03*
X215812025Y-456360322D03*
X223112025Y-457710322D03*
X196762025Y-451360323D03*
X204062025Y-452710323D03*
X177712025Y-423810322D03*
X185012025Y-425160322D03*
X168062026Y-392960322D03*
X160762026Y-391610322D03*
X177712025Y-404760323D03*
X185012025Y-406110323D03*
D13*
X175675000Y-458275000D03*
X175675000Y-457000000D03*
X175675000Y-455725000D03*
X174400000Y-458275000D03*
X174400000Y-457000000D03*
X174400000Y-455725000D03*
X173125000Y-458275000D03*
X173125000Y-457000000D03*
X173125000Y-455725000D03*
D14*
X176740000Y-365600000D03*
X168100000Y-365600000D03*
D15*
X176740000Y-369770000D03*
X168100000Y-369770000D03*
D16*
X186830000Y-370860000D03*
X184290000Y-370860000D03*
X181750000Y-370860000D03*
D17*
X179210000Y-370860000D03*
D18*
X182551669Y-468482524D03*
D19*
X182551669Y-468482524D02*
X182551669Y-468482524D01*
D18*
X185005121Y-467825124D03*
D19*
X185005121Y-467825124D02*
X185005121Y-467825124D01*
D18*
X187458572Y-467167723D03*
D19*
X187458572Y-467167723D02*
X187458572Y-467167723D01*
D18*
X189912024Y-466510323D03*
D20*
G36*
X188870991Y-465909282D02*
G01*
X190513065Y-465469290D01*
X190953057Y-467111364D01*
X189310983Y-467551356D01*
X188870991Y-465909282D01*
X188870991Y-465909282D01*
G37*
D18*
X156391130Y-471814978D03*
D19*
X156391130Y-471814978D02*
X156391130Y-471814978D01*
D18*
X155733730Y-469361526D03*
D19*
X155733730Y-469361526D02*
X155733730Y-469361526D01*
D18*
X155076329Y-466908075D03*
D19*
X155076329Y-466908075D02*
X155076329Y-466908075D01*
D18*
X154418929Y-464454623D03*
D20*
G36*
X153817888Y-465495656D02*
G01*
X153377896Y-463853582D01*
X155019970Y-463413590D01*
X155459962Y-465055664D01*
X153817888Y-465495656D01*
X153817888Y-465495656D01*
G37*
D16*
X155412019Y-422110280D03*
X155412019Y-424650280D03*
X155412019Y-427190280D03*
D17*
X155412019Y-429730280D03*
D16*
X185832025Y-390860322D03*
X183292025Y-390860322D03*
X180752025Y-390860322D03*
D17*
X178212025Y-390860322D03*
D16*
X178436722Y-428957847D03*
X180976722Y-428957847D03*
X183516722Y-428957847D03*
D17*
X186056722Y-428957847D03*
D16*
X155458726Y-371760794D03*
X155458726Y-374300794D03*
X155458726Y-376840794D03*
D17*
X155458726Y-379380794D03*
D16*
X228412025Y-458730322D03*
X228412025Y-456190322D03*
X228412025Y-453650322D03*
D17*
X228412025Y-451110322D03*
D16*
X156195921Y-451084972D03*
X158735921Y-451084972D03*
X161275921Y-451084972D03*
D17*
X163815921Y-451084972D03*
D18*
X173212025Y-471010322D03*
D19*
X173212025Y-471010322D02*
X173212025Y-471010322D01*
D18*
X170758573Y-471667722D03*
D19*
X170758573Y-471667722D02*
X170758573Y-471667722D01*
D18*
X168305122Y-472325123D03*
D19*
X168305122Y-472325123D02*
X168305122Y-472325123D01*
D18*
X165851670Y-472982523D03*
D20*
G36*
X164810637Y-472381482D02*
G01*
X166452711Y-471941490D01*
X166892703Y-473583564D01*
X165250629Y-474023556D01*
X164810637Y-472381482D01*
X164810637Y-472381482D01*
G37*
D18*
X194698626Y-465168258D03*
D19*
X194698626Y-465168258D02*
X194698626Y-465168258D01*
D18*
X194041226Y-462714806D03*
D19*
X194041226Y-462714806D02*
X194041226Y-462714806D01*
D18*
X193383825Y-460261355D03*
D19*
X193383825Y-460261355D02*
X193383825Y-460261355D01*
D18*
X192726425Y-457807903D03*
D20*
G36*
X192125384Y-458848936D02*
G01*
X191685392Y-457206862D01*
X193327466Y-456766870D01*
X193767458Y-458408944D01*
X192125384Y-458848936D01*
X192125384Y-458848936D01*
G37*
D16*
X178739012Y-409842011D03*
X181279012Y-409842011D03*
X183819012Y-409842011D03*
D17*
X186359012Y-409842011D03*
D21*
X179430000Y-458009998D03*
D13*
X176440000Y-457600000D03*
X172290000Y-458750000D03*
D21*
X168090000Y-458850000D03*
X168090000Y-457027000D03*
X169100000Y-451923000D03*
X169824040Y-457967049D03*
X169080000Y-458530000D03*
X168100000Y-451923000D03*
X174200000Y-368700000D03*
X177100000Y-372700000D03*
X172627011Y-371522990D03*
X169100000Y-449500006D03*
X177100000Y-373700000D03*
X170600000Y-367900000D03*
X168072989Y-449500012D03*
X172899994Y-368700000D03*
X171400000Y-371522990D03*
X171400000Y-368700000D03*
X165170000Y-458040000D03*
X170800000Y-452400000D03*
X190500000Y-444300002D03*
X179991644Y-455773000D03*
X169920000Y-464850000D03*
X175582439Y-464863243D03*
X183080000Y-455530000D03*
X183060000Y-450030000D03*
X163350000Y-456170000D03*
X175710000Y-449379962D03*
X182990000Y-459620000D03*
X176495903Y-462201214D03*
X168000000Y-453700000D03*
X175530000Y-463010000D03*
X165200000Y-440954021D03*
X166304452Y-440896729D03*
X167225811Y-440998950D03*
X174292914Y-446185756D03*
X174622111Y-445319165D03*
X175300509Y-444687400D03*
X175600002Y-441200000D03*
X168138565Y-440836987D03*
X169823000Y-395200000D03*
X169196000Y-421400000D03*
X169335695Y-440862009D03*
X173218968Y-407500000D03*
X174300000Y-448093789D03*
X176100000Y-427200000D03*
X176760000Y-448610000D03*
X176248002Y-447489076D03*
X181350000Y-447600000D03*
X165700000Y-453700000D03*
X166200000Y-449800000D03*
X175560543Y-463936499D03*
X169890000Y-463850000D03*
X169510000Y-459980000D03*
X182270000Y-460710000D03*
X159180000Y-468210000D03*
X190160000Y-464120000D03*
X172600000Y-447100000D03*
X172711891Y-446087057D03*
X173599996Y-429600000D03*
X175178150Y-433742991D03*
X182677006Y-447586943D03*
X174500000Y-428800000D03*
X175178150Y-432815978D03*
X182760000Y-446457013D03*
X171800000Y-378200000D03*
X173300000Y-447900000D03*
X190308043Y-457520000D03*
X175300000Y-427700000D03*
X176039720Y-432473855D03*
X182877011Y-445496038D03*
X175100000Y-395600000D03*
X188660570Y-446299430D03*
X180740000Y-464000000D03*
D22*
X179430000Y-457770000D02*
X179430000Y-458009998D01*
X176440000Y-457600000D02*
X179260000Y-457600000D01*
X168090000Y-457027000D02*
X168090000Y-458850000D01*
X179260000Y-457600000D02*
X179430000Y-457770000D01*
D23*
X169177000Y-452000000D02*
X169100000Y-451923000D01*
X169200000Y-452000000D02*
X169177000Y-452000000D01*
X169824040Y-452624040D02*
X169824040Y-457401364D01*
X169824040Y-457401364D02*
X169824040Y-457967049D01*
X169200000Y-452000000D02*
X169824040Y-452624040D01*
X169080000Y-457964315D02*
X169080000Y-458530000D01*
X168100000Y-452100000D02*
X168100000Y-451923000D01*
X169080000Y-453080000D02*
X169080000Y-457964315D01*
X168100000Y-452100000D02*
X169080000Y-453080000D01*
X177100000Y-372700000D02*
X176534315Y-372700000D01*
X174200000Y-370365685D02*
X174200000Y-368700000D01*
X176534315Y-372700000D02*
X174200000Y-370365685D01*
X171608041Y-445338019D02*
X171608041Y-395597652D01*
X172227012Y-371922989D02*
X172627011Y-371522990D01*
X171430868Y-445515192D02*
X171608041Y-445338019D01*
X171104022Y-395093633D02*
X171104022Y-373045979D01*
X171430868Y-447169138D02*
X171430868Y-445515192D01*
X171608041Y-395597652D02*
X171104022Y-395093633D01*
X169100000Y-449500006D02*
X171430868Y-447169138D01*
X171104022Y-373045979D02*
X172227012Y-371922989D01*
X173572999Y-370738684D02*
X173572999Y-368172999D01*
X173572999Y-368172999D02*
X173300000Y-367900000D01*
X177100000Y-373700000D02*
X176534315Y-373700000D01*
X173300000Y-367900000D02*
X170600000Y-367900000D01*
X176534315Y-373700000D02*
X173572999Y-370738684D01*
X170777011Y-372145979D02*
X171000001Y-371922989D01*
X168072989Y-449500012D02*
X171103857Y-446469144D01*
X171000001Y-371922989D02*
X171400000Y-371522990D01*
X171281030Y-445202567D02*
X171281030Y-395733104D01*
X171103857Y-446469144D02*
X171103857Y-445379740D01*
X171103857Y-445379740D02*
X171281030Y-445202567D01*
X170777011Y-395229085D02*
X170777011Y-372145979D01*
X171400000Y-368700000D02*
X172899994Y-368700000D01*
X171281030Y-395733104D02*
X170777011Y-395229085D01*
D22*
X171199999Y-452000001D02*
X170800000Y-452400000D01*
X190899999Y-444700001D02*
X190500000Y-444300002D01*
X192726425Y-457807903D02*
X192726425Y-446526427D01*
X192726425Y-446526427D02*
X190899999Y-444700001D01*
X189934315Y-444300002D02*
X190500000Y-444300002D01*
X175710000Y-449379962D02*
X173820038Y-449379962D01*
X165170000Y-458040000D02*
X165170000Y-457990000D01*
X188789998Y-444300002D02*
X189934315Y-444300002D01*
X173820038Y-449379962D02*
X171199999Y-452000001D01*
X165170000Y-457990000D02*
X163350000Y-456170000D01*
X183060000Y-450030000D02*
X188789998Y-444300002D01*
X174017477Y-469332523D02*
X158382523Y-469332523D01*
X182590001Y-459220001D02*
X182990000Y-459620000D01*
X176360038Y-450030000D02*
X182494315Y-450030000D01*
X182494315Y-450030000D02*
X183060000Y-450030000D01*
X163350000Y-456170000D02*
X163350000Y-451550893D01*
X182299145Y-468230000D02*
X175120000Y-468230000D01*
X157885922Y-451934971D02*
X158735921Y-451084972D01*
X175582439Y-464863243D02*
X176148124Y-464863243D01*
X169933243Y-464863243D02*
X169920000Y-464850000D01*
X183080000Y-455530000D02*
X183080000Y-450050000D01*
X175582439Y-464863243D02*
X169933243Y-464863243D01*
X177710000Y-459660000D02*
X178149999Y-459220001D01*
X158382523Y-469332523D02*
X157885922Y-468835922D01*
X175120000Y-468230000D02*
X174017477Y-469332523D01*
X178149999Y-459220001D02*
X182590001Y-459220001D01*
X177060000Y-459660000D02*
X177710000Y-459660000D01*
X183080000Y-450050000D02*
X183060000Y-450030000D01*
X163350000Y-451550893D02*
X163815921Y-451084972D01*
X182990000Y-459620000D02*
X182990000Y-455620000D01*
X180234644Y-455530000D02*
X179991644Y-455773000D01*
X157885922Y-468835922D02*
X157885922Y-451934971D01*
X175675000Y-458275000D02*
X177060000Y-459660000D01*
X182990000Y-455620000D02*
X183080000Y-455530000D01*
X175710000Y-449379962D02*
X176360038Y-450030000D01*
X182551669Y-468482524D02*
X182299145Y-468230000D01*
X183080000Y-455530000D02*
X180234644Y-455530000D01*
X176148124Y-464863243D02*
X177710000Y-463301367D01*
X177710000Y-463301367D02*
X177710000Y-459660000D01*
X193383825Y-460261355D02*
X193383825Y-458465303D01*
X194041226Y-462714806D02*
X194041226Y-464510858D01*
X198169358Y-457881047D02*
X196476079Y-459574326D01*
X194070854Y-459574326D02*
X193383825Y-460261355D01*
X194041226Y-464510858D02*
X194698626Y-465168258D01*
X206176079Y-456974326D02*
X203658372Y-456974326D01*
X196476079Y-459574326D02*
X194070854Y-459574326D01*
X203658372Y-456974326D02*
X202751651Y-457881047D01*
X202751651Y-457881047D02*
X198878953Y-457881047D01*
X198878953Y-457881047D02*
X198169358Y-457881047D01*
X193383825Y-458465303D02*
X192726425Y-457807903D01*
D23*
X168000000Y-453700000D02*
X167345980Y-453700000D01*
X170450000Y-395364537D02*
X170450001Y-377450001D01*
X164960000Y-374060000D02*
X164960000Y-370420000D01*
X164960000Y-370420000D02*
X164960000Y-369620000D01*
X170776846Y-445323154D02*
X167322990Y-448777010D01*
X170954023Y-424600000D02*
X170954022Y-395868559D01*
X170954022Y-395868559D02*
X170450000Y-395364537D01*
X169400000Y-376400000D02*
X167300000Y-376400000D01*
X170513252Y-462201214D02*
X175930218Y-462201214D01*
X170902888Y-445118246D02*
X170776846Y-445244288D01*
X175930218Y-462201214D02*
X176495903Y-462201214D01*
X167300000Y-376400000D02*
X164960000Y-374060000D01*
X170902888Y-424680156D02*
X170902888Y-445118246D01*
X167345980Y-453700000D02*
X167322990Y-453677010D01*
X170450001Y-377450001D02*
X169400000Y-376400000D01*
X170954022Y-424629022D02*
X170902888Y-424680156D01*
X167322990Y-448777010D02*
X167322990Y-453677010D01*
X170776846Y-445244288D02*
X170776846Y-445323154D01*
X167322990Y-453677010D02*
X167322990Y-459010952D01*
X167322990Y-459010952D02*
X170513252Y-462201214D01*
X165000000Y-442800000D02*
X166995980Y-444795980D01*
X166995980Y-459146403D02*
X170859577Y-463010000D01*
X166995980Y-444795980D02*
X166995980Y-459146403D01*
X170859577Y-463010000D02*
X174964315Y-463010000D01*
X174964315Y-463010000D02*
X175530000Y-463010000D01*
X155412019Y-442800000D02*
X165000000Y-442800000D01*
X155412019Y-429730280D02*
X155412019Y-442800000D01*
X164634315Y-440954021D02*
X165200000Y-440954021D01*
X157400000Y-438600000D02*
X161503818Y-438600000D01*
X163857839Y-440954021D02*
X164634315Y-440954021D01*
X157099999Y-428878260D02*
X157099999Y-430900001D01*
X157099999Y-430900001D02*
X156245978Y-431754022D01*
X156245978Y-437445978D02*
X157400000Y-438600000D01*
X155412019Y-427190280D02*
X157099999Y-428878260D01*
X161503818Y-438600000D02*
X163857839Y-440954021D01*
X156245978Y-431754022D02*
X156245978Y-437445978D01*
X161639270Y-438272989D02*
X163693292Y-440327011D01*
X156572989Y-431889474D02*
X156572989Y-437272990D01*
X157427010Y-426665271D02*
X157427010Y-431035453D01*
X165734734Y-440327011D02*
X165904453Y-440496730D01*
X156572989Y-437272990D02*
X157572988Y-438272989D01*
X157572988Y-438272989D02*
X161639270Y-438272989D01*
X163693292Y-440327011D02*
X165734734Y-440327011D01*
X165904453Y-440496730D02*
X166304452Y-440896729D01*
X157427010Y-431035453D02*
X156572989Y-431889474D01*
X155412019Y-424650280D02*
X157427010Y-426665271D01*
X157754021Y-424452282D02*
X157754021Y-431170905D01*
X157745978Y-437945978D02*
X161774722Y-437945978D01*
X156900000Y-437100000D02*
X157745978Y-437945978D01*
X163828744Y-440000000D02*
X166792546Y-440000000D01*
X157754021Y-431170905D02*
X156900000Y-432024926D01*
X156900000Y-432024926D02*
X156900000Y-437100000D01*
X155412019Y-422110280D02*
X157754021Y-424452282D01*
X166792546Y-440000000D02*
X167225811Y-440433265D01*
X167225811Y-440433265D02*
X167225811Y-440998950D01*
X161774722Y-437945978D02*
X163828744Y-440000000D01*
X173570107Y-431456319D02*
X173570107Y-445058768D01*
X178436722Y-428957847D02*
X176068579Y-428957847D01*
X174026530Y-445919372D02*
X174292914Y-446185756D01*
X174026530Y-445515191D02*
X174026530Y-445919372D01*
X176068579Y-428957847D02*
X173570107Y-431456319D01*
X173570107Y-445058768D02*
X174026530Y-445515191D01*
X173897118Y-444594172D02*
X174222112Y-444919166D01*
X175317911Y-430170978D02*
X173897118Y-431591771D01*
X180976722Y-428957847D02*
X179763591Y-430170978D01*
X173897118Y-431591771D02*
X173897118Y-444594172D01*
X174222112Y-444919166D02*
X174622111Y-445319165D01*
X179763591Y-430170978D02*
X175317911Y-430170978D01*
X183516722Y-428957847D02*
X181976580Y-430497989D01*
X174224129Y-443611020D02*
X174900510Y-444287401D01*
X181976580Y-430497989D02*
X175453363Y-430497989D01*
X174224129Y-431727223D02*
X174224129Y-443611020D01*
X174900510Y-444287401D02*
X175300509Y-444687400D01*
X175453363Y-430497989D02*
X174224129Y-431727223D01*
X175588815Y-430825000D02*
X174551140Y-431862675D01*
X186056722Y-428957847D02*
X186056722Y-430007847D01*
X186056722Y-430007847D02*
X185239569Y-430825000D01*
X174551140Y-440151138D02*
X175200003Y-440800001D01*
X174551140Y-431862675D02*
X174551140Y-440151138D01*
X185239569Y-430825000D02*
X175588815Y-430825000D01*
X175200003Y-440800001D02*
X175600002Y-441200000D01*
X170575877Y-395952877D02*
X170575877Y-440552085D01*
X169823000Y-395200000D02*
X170575877Y-395952877D01*
X168538564Y-441236986D02*
X168138565Y-440836987D01*
X168828579Y-441527001D02*
X168538564Y-441236986D01*
X170575877Y-440552085D02*
X169600961Y-441527001D01*
X169600961Y-441527001D02*
X168828579Y-441527001D01*
X170248866Y-422452866D02*
X170248866Y-439948838D01*
X169735694Y-440462010D02*
X169335695Y-440862009D01*
X170248866Y-439948838D02*
X169735694Y-440462010D01*
X169196000Y-421400000D02*
X170248866Y-422452866D01*
X173338901Y-445752489D02*
X173338901Y-447010939D01*
X172916085Y-408368568D02*
X172916085Y-445329672D01*
X172916085Y-445329672D02*
X173338901Y-445752489D01*
X173900001Y-447572039D02*
X173900001Y-447693790D01*
X173218968Y-407500000D02*
X173218968Y-408065685D01*
X173900001Y-447693790D02*
X174300000Y-448093789D01*
X173218968Y-408065685D02*
X172916085Y-408368568D01*
X173338901Y-447010939D02*
X173900001Y-447572039D01*
X173243096Y-431284866D02*
X176100000Y-428427962D01*
X173665912Y-445617037D02*
X173243096Y-445194220D01*
X173243096Y-445194220D02*
X173243096Y-431284866D01*
X176100000Y-428427962D02*
X176100000Y-427765685D01*
X176100000Y-427765685D02*
X176100000Y-427200000D01*
X173665912Y-446486718D02*
X173665912Y-445617037D01*
X175789194Y-448610000D02*
X173665912Y-446486718D01*
X176760000Y-448610000D02*
X175789194Y-448610000D01*
X176358926Y-447600000D02*
X176248002Y-447489076D01*
X181350000Y-447600000D02*
X176358926Y-447600000D01*
D22*
X165700000Y-453700000D02*
X166200000Y-453700000D01*
X166200000Y-453700000D02*
X166200000Y-449800000D01*
X166200000Y-460160000D02*
X166200000Y-453700000D01*
X169890000Y-463850000D02*
X166200000Y-460160000D01*
X169976499Y-463936499D02*
X169890000Y-463850000D01*
X175560543Y-463936499D02*
X169976499Y-463936499D01*
D23*
X182669999Y-461109999D02*
X182270000Y-460710000D01*
X183060000Y-461500000D02*
X182669999Y-461109999D01*
X195229396Y-461500000D02*
X183060000Y-461500000D01*
X197648349Y-463918953D02*
X195229396Y-461500000D01*
X203298247Y-461600000D02*
X203923921Y-462225674D01*
X174465406Y-468210000D02*
X159745685Y-468210000D01*
X190160000Y-464120000D02*
X189412999Y-463372999D01*
X189412999Y-463372999D02*
X179302407Y-463372999D01*
X179302407Y-463372999D02*
X174465406Y-468210000D01*
X159745685Y-468210000D02*
X159180000Y-468210000D01*
X172262063Y-395760284D02*
X172262063Y-445608923D01*
X177162025Y-390860322D02*
X172262063Y-395760284D01*
X172084890Y-445786096D02*
X172084890Y-446584890D01*
X172262063Y-445608923D02*
X172084890Y-445786096D01*
X178212025Y-390860322D02*
X177162025Y-390860322D01*
X172084890Y-446584890D02*
X172200001Y-446700001D01*
X172200001Y-446700001D02*
X172600000Y-447100000D01*
X179124736Y-392487611D02*
X176025000Y-392487611D01*
X172589074Y-395923537D02*
X172589074Y-445964240D01*
X176025000Y-392487611D02*
X172589074Y-395923537D01*
X172589074Y-445964240D02*
X172711891Y-446087057D01*
X180752025Y-390860322D02*
X179124736Y-392487611D01*
X181337725Y-392814622D02*
X176160452Y-392814622D01*
X173845978Y-395129096D02*
X173845978Y-428245978D01*
X175178150Y-434308676D02*
X175178150Y-433742991D01*
X178654022Y-440754022D02*
X176129096Y-440754022D01*
X181744085Y-446654022D02*
X181744085Y-443844085D01*
X174878151Y-439503077D02*
X174878151Y-434608675D01*
X174878151Y-434608675D02*
X175178150Y-434308676D01*
X181744085Y-443844085D02*
X178654022Y-440754022D01*
X173599996Y-428491960D02*
X173599996Y-429600000D01*
X176160452Y-392814622D02*
X173845978Y-395129096D01*
X176129096Y-440754022D02*
X174878151Y-439503077D01*
X182677006Y-447586943D02*
X181744085Y-446654022D01*
X173845978Y-428245978D02*
X173599996Y-428491960D01*
X183292025Y-390860322D02*
X181337725Y-392814622D01*
X174172989Y-395264548D02*
X174172989Y-427907304D01*
X175205162Y-439367625D02*
X175205162Y-434994838D01*
X182071096Y-443708633D02*
X178789474Y-440427011D01*
X185832025Y-390860322D02*
X183550714Y-393141633D01*
X175854013Y-433491841D02*
X175578149Y-433215977D01*
X178789474Y-440427011D02*
X176264548Y-440427011D01*
X175205162Y-434994838D02*
X175854013Y-434345987D01*
X175854013Y-434345987D02*
X175854013Y-433491841D01*
X176264548Y-440427011D02*
X175205162Y-439367625D01*
X175578149Y-433215977D02*
X175178150Y-432815978D01*
X174500000Y-428234315D02*
X174500000Y-428800000D01*
X183550714Y-393141633D02*
X176295904Y-393141633D01*
X174172989Y-427907304D02*
X174500000Y-428234315D01*
X176295904Y-393141633D02*
X174172989Y-395264548D01*
X182760000Y-446457013D02*
X182071096Y-445768109D01*
X182071096Y-445768109D02*
X182071096Y-443708633D01*
X171800000Y-378200000D02*
X171800000Y-378765685D01*
X171945936Y-447900000D02*
X172734315Y-447900000D01*
X171800000Y-378765685D02*
X171935052Y-378900737D01*
X171935052Y-378900737D02*
X171935052Y-445473471D01*
X171935052Y-445473471D02*
X171757879Y-445650644D01*
X172734315Y-447900000D02*
X173300000Y-447900000D01*
X171757879Y-447711943D02*
X171945936Y-447900000D01*
X171757879Y-445650644D02*
X171757879Y-447711943D01*
X189060569Y-446699429D02*
X188660570Y-446299430D01*
X174500000Y-396200000D02*
X174500000Y-426900000D01*
X175532173Y-439232173D02*
X175532173Y-435130289D01*
X175100000Y-395600000D02*
X174500000Y-396200000D01*
X174500000Y-426900000D02*
X175300000Y-427700000D01*
X182877011Y-445496038D02*
X182877011Y-444052085D01*
X176439719Y-434222743D02*
X176439719Y-432873854D01*
X176439719Y-432873854D02*
X176039720Y-432473855D01*
X190308043Y-447946903D02*
X189060569Y-446699429D01*
X178924926Y-440100000D02*
X176400000Y-440100000D01*
X176400000Y-440100000D02*
X175532173Y-439232173D01*
X175532173Y-435130289D02*
X176439719Y-434222743D01*
X190308043Y-457520000D02*
X190308043Y-447946903D01*
X182877011Y-444052085D02*
X178924926Y-440100000D01*
X189912024Y-466510323D02*
X187401701Y-464000000D01*
X187401701Y-464000000D02*
X180740000Y-464000000D01*
M02*
